<svg fill="none" height="17" viewBox="0 0 16 17" width="16" xmlns="http://www.w3.org/2000/svg"><path clip-rule="evenodd" d="m8 16.5c4.4183 0 8-3.5817 8-8 0-4.41828-3.5817-8-8-8-4.41828 0-8 3.58172-8 8 0 4.4183 3.58172 8 8 8zm4.6793-10.26613c.4053-.37516.4297-1.00785.0546-1.41316-.3752-.4053-1.0079-.42974-1.4132-.05458l-4.36237 4.0379-1.61238-1.49245c-.4053-.37516-1.038-.35072-1.41316.05459-.37516.4053-.35072 1.038.05459 1.41316l2.29167 2.12117c.38335.3549.97522.3549 1.35857 0z" fill="#fbfdff" fill-rule="evenodd"/></svg>