<svg viewBox="0 0 22 14" fill="none" xmlns="http://www.w3.org/2000/svg">
<g clip-path="url(#clip0_42204_154430)">
<path d="M0.5 0H21.5V14H0.5V0Z" fill="white"/>
<path d="M12.8544 7L21.5 1.23626V0H19.6456L11 5.76374L2.35439 0H0.5V1.23626L9.14561 7L0.5 12.7637V14H2.35439L11 8.23626L19.6456 14H21.5V12.7637L12.8544 7Z" fill="#D80027"/>
<path d="M10.0666 1.82535L10.9794 2.05459L11.8923 1.82535L12.056 0.969796L11.4461 1.23588L10.9794 0.605469L10.5128 1.23588L9.90283 0.969796L10.0666 1.82535Z" fill="#FFDA44"/>
<path d="M10.0666 1.82577C10.0666 1.82577 9.90283 2.35384 9.90283 3.04975C9.90283 4.19185 10.9794 4.74039 10.9794 4.74039C10.9794 4.74039 12.056 4.10589 12.056 3.04975C12.056 2.41934 11.8923 1.82577 11.8923 1.82577C11.8923 1.82577 11.5607 1.62109 10.9794 1.62109C10.3982 1.62109 10.0666 1.82577 10.0666 1.82577Z" fill="#D80027"/>
</g>
<rect x="0.75" y="0.25" width="20.5" height="13.5" stroke="#C3C3C3" stroke-width="0.5"/>
<defs>
<clipPath id="clip0_42204_154430">
<rect x="0.5" width="21" height="14" fill="white"/>
</clipPath>
</defs>
</svg>
