<svg viewBox="0 0 22 14" fill="none" xmlns="http://www.w3.org/2000/svg">
<g clip-path="url(#clip0_42204_154581)">
<path d="M0.5 0H21.5V13.9997H0.5V0Z" fill="#D80027"/>
<path d="M8.56536 0V13.9997H0.5V0H8.56536Z" fill="#6DA544"/>
<path d="M8.56543 9.62501C10.0152 9.62501 11.1904 8.44975 11.1904 7C11.1904 5.55025 10.0152 4.375 8.56543 4.375C7.11568 4.375 5.94043 5.55025 5.94043 7C5.94043 8.44975 7.11568 9.62501 8.56543 9.62501Z" fill="#FFDA44"/>
<path d="M7.08887 5.6875V7.32817C7.08887 8.14364 7.74996 8.80473 8.56543 8.80473C9.3809 8.80473 10.042 8.14364 10.042 7.32817V5.6875H7.08887Z" fill="#D80027"/>
<path d="M8.56494 7.82031C8.29354 7.82031 8.07275 7.59953 8.07275 7.32813V6.67188H9.05717V7.32813C9.05713 7.59949 8.8363 7.82031 8.56494 7.82031Z" fill="white"/>
</g>
<defs>
<clipPath id="clip0_42204_154581">
<rect width="21" height="14" fill="white" transform="translate(0.5)"/>
</clipPath>
</defs>
</svg>
