<svg viewBox="0 0 21 14" fill="none" xmlns="http://www.w3.org/2000/svg">
<g clip-path="url(#clip0_42204_154566)">
<path d="M0 0.00976562H20.9591V14.0098H0V0.00976562Z" fill="white"/>
<path d="M0 0.00976562H20.9591V3.7431H0V0.00976562ZM0 10.2764H20.9591V14.0098H0V10.2764Z" fill="#D03433"/>
<path d="M0 3.73438H20.9591V10.2841H0V3.73438Z" fill="#FBCA46"/>
<path d="M7.26611 6.54297H8.19763V7.00964H7.26611V6.54297V6.54297Z" fill="white"/>
<path d="M6.70686 7.94284C6.70686 8.22284 6.98631 8.40951 7.26577 8.40951C7.54522 8.40951 7.82468 8.22284 7.82468 7.94284L7.91783 6.54284H6.61371L6.70686 7.94284V7.94284ZM6.14795 6.54284C6.14795 6.26284 6.33425 6.07617 6.52056 6.07617H7.91783C8.19728 6.07617 8.38359 6.26284 8.38359 6.44951V6.54284L8.29043 7.94284C8.19728 8.50284 7.82468 8.87617 7.26577 8.87617C6.70686 8.87617 6.33425 8.50284 6.2411 7.94284L6.14795 6.54284Z" fill="#A41517"/>
<path d="M6.33428 7.00912H8.19731V7.47578H7.73156L7.2658 8.40912L6.80004 7.47578H6.33428V7.00912V7.00912ZM4.93701 5.60912H5.86853V8.87579H4.93701V5.60912ZM8.66307 5.60912H9.59459V8.87579H8.66307V5.60912ZM6.33428 5.14245C6.33428 4.86245 6.52059 4.67578 6.80004 4.67578H7.73156C8.01101 4.67578 8.19731 4.86245 8.19731 5.14245V5.32912C8.19731 5.51578 8.10416 5.60912 7.91786 5.60912H6.52059C6.42744 5.60912 6.33428 5.51578 6.33428 5.42245V5.14245V5.14245Z" fill="#A41517"/>
</g>
<defs>
<clipPath id="clip0_42204_154566">
<rect width="21" height="14" fill="white"/>
</clipPath>
</defs>
</svg>
