<svg viewBox="0 0 22 14" fill="none" xmlns="http://www.w3.org/2000/svg">
<g clip-path="url(#clip0_42204_154495)">
<path d="M0.5 0H21.5V14H0.5V0Z" fill="#E30A17"/>
<path d="M11.1309 4.85509C10.5946 4.4662 9.94376 4.25743 9.27651 4.26153C7.60634 4.26153 6.25546 5.52234 6.25546 7.08199C6.25546 8.64164 7.61043 9.90246 9.27651 9.90246C9.97651 9.90246 10.6233 9.68141 11.1309 9.30889C9.90283 10.889 7.62271 11.1756 6.04259 9.9434C4.46248 8.71123 4.17593 6.43521 5.40809 4.85509C6.64025 3.27498 8.91628 2.98843 10.4964 4.22059C10.7338 4.4048 10.9467 4.62176 11.1309 4.85509V4.85509ZM12.7642 7.54866L12.0233 8.44515L12.0724 7.28258L10.9917 6.85685L12.1093 6.54574L12.1829 5.38726L12.8215 6.35743L13.9473 6.06679L13.2309 6.96737L13.8572 7.94574L12.7642 7.54866V7.54866Z" fill="white"/>
</g>
<defs>
<clipPath id="clip0_42204_154495">
<rect width="21" height="14" fill="white" transform="translate(0.5)"/>
</clipPath>
</defs>
</svg>
