<svg viewBox="0 0 38 26" fill="none" xmlns="http://www.w3.org/2000/svg">
<g clip-path="url(#clip0_42204_154267)">
<path d="M0.866699 0.867188H37.2667V25.1341H0.866699V0.867188Z" fill="white"/>
<path d="M21.3417 0.867188H16.7917V10.7255H0.866699V15.2755H16.7917V25.1338H21.3417V15.2755H37.2667V10.7255H21.3417V0.867188Z" fill="#D80027"/>
<path d="M28.8621 17.2207L37.2665 21.8899V17.2207H28.8621ZM23.0229 17.2207L37.2665 25.1337V22.8961L27.0508 17.2207H23.0229ZM33.4725 25.1337L23.0229 19.3279V25.1337H33.4725Z" fill="#0052B4"/>
<path d="M23.0229 17.2207L37.2665 25.1337V22.8961L27.0508 17.2207H23.0229Z" fill="white"/>
<path d="M23.0229 17.2207L37.2665 25.1337V22.8961L27.0508 17.2207H23.0229Z" fill="#D80027"/>
<path d="M7.28939 17.2207L0.866699 20.7889V17.2207H7.28939ZM15.1102 18.227V25.1338H2.67895L15.1102 18.227Z" fill="#0052B4"/>
<path d="M11.0824 17.2207L0.866699 22.8961V25.1337L15.1102 17.2207H11.0824Z" fill="#D80027"/>
<path d="M9.27105 8.78021L0.866699 4.11106V8.78021H9.27105ZM15.1102 8.78021L0.866699 0.867188V3.10479L11.0824 8.78021H15.1102ZM4.66069 0.867188L15.1102 6.67299V0.867188H4.66069Z" fill="#0052B4"/>
<path d="M15.1102 8.78021L0.866699 0.867188V3.10479L11.0824 8.78021H15.1102Z" fill="white"/>
<path d="M15.1102 8.78021L0.866699 0.867188V3.10479L11.0824 8.78021H15.1102Z" fill="#D80027"/>
<path d="M30.8438 8.78224L37.2665 5.21404V8.78224H30.8438ZM23.0229 7.77598V0.869141H35.4542L23.0229 7.77598Z" fill="#0052B4"/>
<path d="M27.0508 8.78021L37.2665 3.10479V0.867188L23.0229 8.78021H27.0508Z" fill="#D80027"/>
</g>
<defs>
<clipPath id="clip0_42204_154267">
<rect width="36.4" height="24.2667" fill="white" transform="translate(0.866699 0.867188)"/>
</clipPath>
</defs>
</svg>
