<svg width="56" height="56" viewBox="0 0 56 56" fill="none" xmlns="http://www.w3.org/2000/svg">
<g id="getpostman-icon31" clip-path="url(#clip0_47320_34015)">
<path id="Vector91" d="M50.1612 10.8848C46.7762 6.50149 42.1673 3.22044 36.9174 1.45663C31.6676 -0.307185 26.0126 -0.474523 20.6676 0.975774C15.3227 2.42607 10.5279 5.42886 6.88959 9.60437C3.25132 13.7799 0.933019 18.9405 0.227893 24.4337C-0.477233 29.9269 0.46249 35.5057 2.92821 40.4648C5.39393 45.4238 9.2749 49.5403 14.0803 52.2935C18.8856 55.0468 24.3996 56.3131 29.9247 55.9324C35.4498 55.5517 40.738 53.5411 45.1203 50.1548C57.3528 40.7013 59.6112 23.1217 50.1612 10.8848Z" fill="black"/>
<path id="Vector_912" d="M37.4439 17.8395L25.6375 29.7395L22.3011 26.3095C33.9211 14.6895 35.0866 15.7395 37.4439 17.8395Z" fill="white"/>
<path id="Vector_923" d="M25.6374 30.065C25.5329 30.0624 25.433 30.0209 25.3574 29.9486L21.9974 26.5886C21.9218 26.5103 21.8795 26.4057 21.8795 26.2968C21.8795 26.1879 21.9218 26.0833 21.9974 26.005C33.4538 14.5486 35.0174 15.085 37.7238 17.535C37.8157 17.6085 37.8673 17.7205 37.8638 17.8386C37.8813 17.9524 37.8376 18.0688 37.7474 18.1423L25.9411 29.9495C25.8579 30.0256 25.7503 30.0659 25.6374 30.065ZM22.8838 26.3086L25.6374 29.0623L36.8374 17.8623C36.4507 17.3776 35.8989 17.0526 35.2876 16.9493C34.6763 16.8459 34.0483 16.9716 33.5238 17.3023C31.4938 18.2123 28.2274 20.9886 22.8838 26.3086Z" fill="black"/>
<path id="Vector_94" d="M29.0211 33.0295L25.8011 29.7395L37.6075 18.0723C40.7811 21.1759 36.0675 26.3568 29.0211 33.0295Z" fill="white"/>
<path id="Vector_95" d="M29.0211 33.4495C28.9178 33.4413 28.8198 33.4005 28.7411 33.3331L25.4511 30.1131C25.4017 29.9935 25.4017 29.8591 25.4511 29.7395C25.4161 29.6415 25.4161 29.5339 25.4511 29.4359L37.2574 17.6295C37.4281 17.4694 37.6932 17.4694 37.8638 17.6295C38.6382 18.3417 39.0626 19.355 39.0302 20.4059C39.0302 23.5559 35.4366 27.5222 29.3238 33.3095C29.2422 33.3903 29.1356 33.4399 29.0211 33.4495ZM26.4074 29.7395L29.0438 32.375C33.7102 27.965 38.1674 23.415 38.1902 20.335C38.2156 19.682 37.9997 19.0426 37.5838 18.5386L26.4074 29.7395Z" fill="black"/>
<path id="Vector_96" d="M22.3939 26.3795L24.7275 28.7131C24.7424 28.7263 24.7543 28.7424 24.7625 28.7605C24.7707 28.7786 24.7749 28.7983 24.7749 28.8181C24.7749 28.838 24.7707 28.8576 24.7625 28.8757C24.7543 28.8938 24.7424 28.91 24.7275 28.9231L19.8039 29.9731C19.6 30.0169 19.3926 29.9189 19.2946 29.7351C19.1966 29.5514 19.2334 29.3239 19.3839 29.1795L22.2539 26.3331C22.2539 26.3331 22.3475 26.3331 22.3939 26.3795Z" fill="white"/>
<path id="Vector_97" d="M19.6875 30.4395C19.5319 30.4375 19.3795 30.3957 19.2446 30.3181C19.1098 30.2404 18.9972 30.1295 18.9175 29.9959C18.7337 29.6485 18.7994 29.2206 19.0811 28.9459L21.9275 26.0759C22.0301 25.9841 22.163 25.9334 22.3007 25.9334C22.4383 25.9334 22.5712 25.9841 22.6739 26.0759L25.0075 28.4095C25.1457 28.5408 25.2 28.7394 25.1475 28.9231C25.095 29.1069 24.941 29.253 24.7511 29.2968L19.8275 30.3468L19.6875 30.4395ZM22.3011 26.8931L19.6647 29.5295L24.0284 28.5959L22.3011 26.8931Z" fill="black"/>
<path id="Vector_98" d="M43.7212 11.2822C42.0324 9.65299 39.3794 9.58474 37.6084 11.1221C35.8374 12.6595 35.5347 15.2985 36.9137 17.1972C38.2927 19.096 40.8923 19.628 42.9048 18.4222L39.7312 15.2486L43.7212 11.2822Z" fill="white"/>
<path id="Vector_99" d="M40.5711 19.495C39.6008 19.4826 38.6557 19.1849 37.8535 18.6391C37.0512 18.0932 36.4273 17.3234 36.0596 16.4255C35.3071 14.5898 35.7236 12.4828 37.1096 11.0723C38.0437 10.1552 39.3005 9.64146 40.6096 9.64146C41.9186 9.64146 43.1754 10.1552 44.1096 11.0723C44.1988 11.1475 44.2496 11.2586 44.2496 11.3759C44.2494 11.4336 44.2367 11.4905 44.2126 11.5429C44.1884 11.5953 44.1533 11.6419 44.1096 11.6795L40.3296 15.2495L43.1996 18.0731C43.2461 18.1175 43.281 18.1726 43.3013 18.2337C43.3216 18.2947 43.3266 18.3597 43.3159 18.4231C43.309 18.4843 43.2888 18.5432 43.2565 18.5957C43.2243 18.6481 43.181 18.6929 43.1296 18.7268C42.3585 19.2087 41.4722 19.4746 40.5632 19.4968L40.5711 19.495ZM40.5711 10.4414C38.9086 10.4501 37.4211 11.4503 36.7972 12.9789C36.1733 14.5075 36.5128 16.2671 37.6783 17.4414C38.8648 18.634 40.6533 18.977 42.2047 18.305L39.4511 15.5514C39.3592 15.4779 39.3076 15.3659 39.3111 15.2478C39.3146 15.1384 39.3653 15.036 39.4511 14.9678L43.0911 11.3041C42.3674 10.7494 41.4828 10.4475 40.5711 10.4414Z" fill="black"/>
<path id="Vector_910" d="M43.7911 11.3522L39.8011 15.3186L42.9748 18.4922C43.2942 18.3089 43.5916 18.0896 43.8611 17.8386C45.5901 16.0011 45.5586 13.1416 43.7911 11.3522Z" fill="white"/>
<path id="Vector_911" d="M42.9039 18.8423C42.8514 18.8451 42.7991 18.8361 42.7506 18.816C42.7021 18.7958 42.6588 18.765 42.6239 18.7259L39.4502 15.5523C39.3584 15.4788 39.3067 15.3668 39.3102 15.2486C39.3137 15.1393 39.3645 15.0369 39.4502 14.9686L43.4166 11.0723C43.4549 11.0145 43.5069 10.9671 43.568 10.9343C43.6291 10.9016 43.6973 10.8844 43.7666 10.8844C43.8359 10.8844 43.9041 10.9016 43.9652 10.9343C44.0263 10.9671 44.0783 11.0145 44.1166 11.0723C44.5822 11.5285 44.9522 12.073 45.2047 12.674C45.4572 13.275 45.5873 13.9204 45.5873 14.5723C45.5873 15.2241 45.4572 15.8695 45.2047 16.4705C44.9522 17.0715 44.5822 17.616 44.1166 18.0723C43.8419 18.3636 43.5276 18.6148 43.183 18.8186C43.0962 18.8624 42.9967 18.8708 42.9039 18.8423ZM40.3375 15.2495L42.9739 17.8859C43.1552 17.7588 43.3269 17.6184 43.4875 17.4659C44.2625 16.693 44.699 15.644 44.7011 14.5495C44.7029 13.57 44.3459 12.6237 43.6975 11.8895L40.3375 15.2495Z" fill="black"/>
<path id="Vector_912" d="M37.9339 18.3295C37.2776 17.7135 36.2565 17.7135 35.6003 18.3295L25.0311 28.875L26.7811 30.6486L37.9575 20.8486C38.3031 20.5187 38.4965 20.0611 38.4913 19.5834C38.486 19.1056 38.2848 18.6524 37.9339 18.3295Z" fill="white"/>
<path id="Vector_913" d="M26.6875 31.0695C26.583 31.0669 26.4831 31.0254 26.4075 30.9531L24.6339 29.1795C24.5583 29.1012 24.516 28.9966 24.516 28.8877C24.516 28.7788 24.5583 28.6742 24.6339 28.5959L35.2039 18.0722C36.0422 17.2357 37.4002 17.2357 38.2375 18.0722C38.6575 18.4922 38.885 19.0654 38.8675 19.6586C38.843 20.2484 38.5823 20.8031 38.1439 21.1986L26.9675 30.9986C26.8862 31.0564 26.7864 31.0817 26.6875 31.0695ZM25.4512 28.875L26.6175 30.065L37.5839 20.5214C37.8552 20.2851 38.017 19.9474 38.0275 19.5877C38.038 19.2281 37.8963 18.8764 37.6312 18.6314C37.121 18.1239 36.2977 18.1239 35.7875 18.6314L25.4512 28.875Z" fill="black"/>
<path id="Vector_914" d="M16.8412 40.8923C16.8113 40.9328 16.7952 40.9819 16.7952 41.0323C16.7952 41.0826 16.8113 41.1317 16.8412 41.1723L17.3076 43.2023C17.3478 43.4446 17.2314 43.6861 17.0171 43.8148C16.9131 43.8756 16.7925 43.9018 16.6727 43.8897C16.5529 43.8776 16.44 43.8278 16.3503 43.7474L13.1539 40.6674L23.1176 30.625H26.5712L28.9048 32.9586C25.2645 36.1414 21.2056 38.8107 16.8412 40.8923Z" fill="white"/>
<path id="Vector_915" d="M16.6312 44.3222C16.3669 44.317 16.1062 44.2085 15.9312 44.0186L12.8748 40.9622C12.7829 40.8887 12.7313 40.7767 12.7348 40.6586C12.7383 40.5492 12.789 40.4469 12.8748 40.3786L22.9075 30.3222C22.9637 30.2625 23.0371 30.2219 23.1175 30.2059H26.5939C26.6845 30.1738 26.7833 30.1738 26.8739 30.2059L29.2075 32.5395C29.2977 32.6226 29.3414 32.7451 29.3239 32.8659C29.3256 32.9239 29.3138 32.9814 29.2895 33.0341C29.2652 33.0868 29.2291 33.1331 29.1839 33.1695L28.9975 33.3331C25.3426 36.3802 21.3215 38.9589 17.0275 41.0095L17.4712 42.8995C17.5055 43.0453 17.5068 43.1969 17.475 43.3433C17.4432 43.4897 17.3792 43.6271 17.2876 43.7456C17.1959 43.864 17.079 43.9606 16.9453 44.0281C16.8116 44.0956 16.6645 44.1324 16.5148 44.1359L16.6312 44.3222ZM13.7848 40.6586L16.5375 43.435C16.5632 43.4579 16.5964 43.4705 16.6307 43.4705C16.6651 43.4705 16.6983 43.4579 16.7239 43.435C16.7411 43.4112 16.7503 43.3826 16.7503 43.3532C16.7503 43.3238 16.7411 43.2952 16.7239 43.2714L16.2575 41.2414C16.1823 40.9412 16.3275 40.6289 16.6075 40.495C20.786 38.4718 24.7035 35.9488 28.2739 32.9814L26.3603 31.0677H23.2339L13.7848 40.6586Z" fill="black"/>
<path id="Vector_916" d="M10.7511 43.0622L13.0848 40.7286L16.6784 44.3222L10.962 43.9259C10.7608 43.911 10.5901 43.7684 10.542 43.5706C10.4939 43.3729 10.5788 43.1681 10.752 43.0631L10.7511 43.0622Z" fill="white"/>
<path id="Vector_917" d="M16.7475 44.6722L11.0539 44.2759C10.7161 44.2444 10.4256 44.0134 10.3066 43.7045C10.1876 43.3956 10.2602 43.029 10.4939 42.7822L12.8275 40.4486C12.9058 40.373 13.0104 40.3307 13.1193 40.3307C13.2282 40.3307 13.3328 40.373 13.4111 40.4486L16.9811 44.0186C17.0826 44.1586 17.0826 44.3459 16.9811 44.485C16.9269 44.5725 16.8446 44.639 16.7475 44.6722ZM11.0539 43.3659L15.7202 43.6695L13.1539 41.2659L11.0539 43.3659Z" fill="black"/>
<path id="Vector_198" d="M26.8975 30.9067L22.1838 31.6304L24.9138 28.924L26.8975 30.9067Z" fill="white"/>
<path id="Vector_919" d="M22.1839 32.0722C22.0237 32.0766 21.8776 31.9847 21.8102 31.8386C21.7606 31.771 21.7338 31.6893 21.7338 31.6054C21.7338 31.5215 21.7606 31.4398 21.8102 31.3722L24.5166 28.6422C24.6872 28.4821 24.9524 28.4821 25.123 28.6422L27.1075 30.625C27.1471 30.6879 27.1682 30.7607 27.1682 30.835C27.1682 30.9093 27.1471 30.9821 27.1075 31.045C27.088 31.1216 27.0469 31.191 26.989 31.2449C26.9311 31.2987 26.8589 31.3347 26.7811 31.3486L22.1147 32.0722H22.1839ZM24.9139 29.5286L23.3975 31.045L26.0111 30.6486L24.9139 29.5286Z" fill="black"/>
<path id="Vector_920" d="M26.8974 30.905L23.6074 31.325C23.5194 31.345 23.4273 31.3361 23.3447 31.2996C23.2621 31.2631 23.1935 31.2009 23.149 31.1224C23.1045 31.0438 23.0865 30.953 23.0977 30.8634C23.1089 30.7738 23.1486 30.6902 23.2111 30.625L24.9147 28.9214L26.8974 30.905Z" fill="white"/>
<path id="Vector_921" d="M23.5138 31.7695C23.2032 31.7669 22.9188 31.5971 22.7674 31.3259C22.6783 31.1662 22.6438 30.9817 22.6691 30.8006C22.6943 30.6194 22.778 30.4515 22.9074 30.3222L24.6111 28.6186C24.7817 28.4585 25.0468 28.4585 25.2174 28.6186L27.2011 30.6022C27.2601 30.6581 27.3016 30.7299 27.3206 30.809C27.3396 30.888 27.3352 30.9708 27.3081 31.0474C27.281 31.124 27.2322 31.1911 27.1677 31.2405C27.1032 31.2899 27.0257 31.3196 26.9447 31.3259L23.6783 31.7459L23.5138 31.7695ZM23.5138 30.9059L25.9874 30.6022L24.8911 29.5059L23.4911 30.9059H23.5138ZM43.8138 14.0359C43.7699 13.9622 43.7004 13.9073 43.6186 13.8815C43.5369 13.8557 43.4485 13.8608 43.3702 13.8959C43.3316 13.9154 43.2973 13.9426 43.2693 13.9756C43.2414 14.0087 43.2203 14.047 43.2074 14.0884C43.1812 14.1715 43.1899 14.2616 43.2302 14.3395C43.3938 14.6834 43.3483 15.0902 43.1138 15.3895C43.0526 15.4472 43.0263 15.5269 43.0263 15.6109C43.0272 15.6929 43.0583 15.7718 43.1138 15.8322C43.1737 15.8559 43.2403 15.8559 43.3002 15.8322C43.3545 15.8459 43.4116 15.8444 43.4651 15.8279C43.5186 15.8114 43.5666 15.7805 43.6038 15.7386C43.796 15.5034 43.9176 15.2186 43.9548 14.9171C43.992 14.6157 43.9431 14.3107 43.8138 14.0359Z" fill="black"/>
</g>
<defs>
<clipPath id="clip0_47320_34015">
<rect width="56" height="56" fill="white"/>
</clipPath>
</defs>
</svg>
