<svg viewBox="0 0 126 126" fill="none" xmlns="http://www.w3.org/2000/svg">
<g clip-path="url(#clip0_4825_38013)">
<path d="M84.1065 61.8308C82.7452 60.1553 80.8914 58.9304 78.8338 58.3349C78.597 51.9766 73.3504 46.877 66.9354 46.877C64.2197 46.877 61.5631 47.8155 59.4553 49.5197C57.645 50.9834 56.2977 52.9578 55.5928 55.156C54.6444 54.7768 53.626 54.5791 52.5991 54.5791C48.1719 54.5791 44.5664 58.1651 44.5352 62.5852C41.4817 63.9702 39.4688 67.0547 39.4688 70.4405C39.4688 75.1942 43.3362 79.0616 48.0898 79.0616H75.8983C81.7269 79.0616 86.4689 74.3197 86.4688 68.4911C86.4688 66.071 85.6298 63.7057 84.1065 61.8308ZM75.8983 77.4141H48.0898C44.2446 77.4141 41.1163 74.2857 41.1163 70.4405C41.1163 67.5388 42.9437 64.9108 45.6635 63.9011C46.0053 63.7743 46.223 63.4379 46.1988 63.0743C46.1877 62.9072 46.1825 62.7701 46.1825 62.6431C46.1825 59.1049 49.061 56.2265 52.5991 56.2265C53.6925 56.2265 54.7734 56.5081 55.725 57.0408C55.9516 57.1678 56.225 57.1803 56.4623 57.0746C56.6996 56.969 56.8733 56.7576 56.9307 56.5042C57.4367 54.2736 58.7011 52.2482 60.4911 50.801C62.3068 49.333 64.5955 48.5246 66.9354 48.5246C72.5924 48.5246 77.1946 53.1268 77.1946 58.7838C77.1946 58.8325 77.1936 58.8811 77.1928 58.9296L77.1923 58.9621C77.1857 59.3535 77.4555 59.6955 77.8377 59.7802C79.7879 60.2123 81.5601 61.3095 82.8278 62.8698C84.1133 64.4518 84.8212 66.4483 84.8212 68.4911C84.8212 73.4112 80.8184 77.4141 75.8983 77.4141Z" fill="white"/>
</g>
<rect x="0.5" y="0.5" width="125" height="125" rx="62.5" stroke="white"/>
<defs>
<clipPath id="clip0_4825_38013">
<rect width="47" height="47" fill="white" transform="translate(39.4688 39.4688)"/>
</clipPath>
</defs>
</svg>
