<svg viewBox="0 0 161 160" fill="none" xmlns="http://www.w3.org/2000/svg">
<g clip-path="url(#clip0_4692_34738)">
<path d="M107.484 78.5466C105.747 76.4076 103.38 74.8439 100.753 74.0837C100.451 65.9667 93.7532 59.4565 85.5638 59.4565C82.097 59.4565 78.7056 60.6547 76.0147 62.8303C73.7037 64.6988 71.9838 67.2193 71.0839 70.0256C69.8731 69.5414 68.5731 69.289 67.2622 69.289C61.6104 69.289 57.0077 73.8669 56.9679 79.5096C53.0697 81.2777 50.5 85.2154 50.5 89.5377C50.5 95.6062 55.4371 100.543 61.5056 100.543H97.0058C104.447 100.543 110.5 94.4898 110.5 87.0491C110.5 83.9596 109.429 80.9401 107.484 78.5466ZM97.0058 98.4401H61.5056C56.5968 98.4401 52.6032 94.4465 52.6032 89.5377C52.6032 85.8333 54.9361 82.4785 58.4082 81.1895C58.8445 81.0276 59.1224 80.5982 59.0916 80.134C59.0774 79.9207 59.0708 79.7457 59.0708 79.5835C59.0708 75.0667 62.7454 71.3921 67.2622 71.3921C68.658 71.3921 70.0379 71.7516 71.2527 72.4317C71.542 72.5937 71.891 72.6097 72.1939 72.4748C72.4969 72.34 72.7185 72.0702 72.7919 71.7467C73.4378 68.8991 75.052 66.3135 77.3371 64.466C79.655 62.5919 82.5767 61.5599 85.5638 61.5599C92.7855 61.5599 98.6606 67.4351 98.6606 74.6567C98.6606 74.719 98.6594 74.781 98.6584 74.8429L98.6577 74.8844C98.6493 75.384 98.9938 75.8207 99.4816 75.9288C101.971 76.4804 104.234 77.8811 105.852 79.8729C107.493 81.8926 108.397 84.4412 108.397 87.0491C108.397 93.3301 103.287 98.4401 97.0058 98.4401Z" fill="white"/>
</g>
<rect x="1" y="0.5" width="159" height="159" rx="79.5" stroke="white"/>
<defs>
<clipPath id="clip0_4692_34738">
<rect width="60" height="60" fill="white" transform="translate(50.5 50)"/>
</clipPath>
</defs>
</svg>
