<svg width="100%" height="100%" viewBox="0 0 33 32" fill="none" xmlns="http://www.w3.org/2000/svg">
<rect x="0.5" width="32" height="32" rx="16" fill="black"/>
<path d="M15.9987 8.58331C11.6287 8.58331 8.08203 12.13 8.08203 16.5C8.08203 20.87 11.6287 24.4166 15.9987 24.4166H19.957V22.8333H15.9987C12.5629 22.8333 9.66536 19.9358 9.66536 16.5C9.66536 13.0641 12.5629 10.1666 15.9987 10.1666C19.4345 10.1666 22.332 13.0641 22.332 16.5V17.6321C22.332 18.2575 21.7699 18.875 21.1445 18.875C20.5191 18.875 19.957 18.2575 19.957 17.6321V16.5C19.957 14.315 18.1837 12.5416 15.9987 12.5416C13.8137 12.5416 12.0404 14.315 12.0404 16.5C12.0404 18.685 13.8137 20.4583 15.9987 20.4583C17.0912 20.4583 18.0887 20.015 18.8012 19.2946C19.3158 19.9991 20.2024 20.4583 21.1445 20.4583C22.7041 20.4583 23.9154 19.1916 23.9154 17.6321V16.5C23.9154 12.13 20.3687 8.58331 15.9987 8.58331ZM15.9987 18.875C14.6845 18.875 13.6237 17.8141 13.6237 16.5C13.6237 15.1858 14.6845 14.125 15.9987 14.125C17.3129 14.125 18.3737 15.1858 18.3737 16.5C18.3737 17.8141 17.3129 18.875 15.9987 18.875Z" fill="white"/>
</svg>
