<svg viewBox="0 0 24 24" fill="none" xmlns="http://www.w3.org/2000/svg">
<g clip-path="url(#clip0_59077_26317)">
<path d="M9.3387 15.2054L17.1609 9.42413C17.5444 9.14071 18.0926 9.25126 18.2753 9.69151C19.237 12.0132 18.8073 14.8034 16.8939 16.7191C14.9805 18.6347 12.3182 19.0548 9.88485 18.098L7.22656 19.3303C11.0393 21.9394 15.6692 21.2942 18.5624 18.3955C20.8573 16.0979 21.568 12.966 20.9035 10.1418L20.9095 10.1478C19.9457 5.99882 21.1464 4.34044 23.6059 0.949285C23.6641 0.868878 23.7223 0.788471 23.7806 0.706055L20.544 3.94644V3.93639L9.33673 15.2074" fill="white"/>
<path d="M7.73075 16.6105C4.99414 13.9932 5.46596 9.94276 7.80098 7.60699C9.52764 5.87823 12.3566 5.17266 14.8261 6.20991L17.4784 4.98371C17.0006 4.63796 16.3882 4.26608 15.6855 4.00475C12.5092 2.69614 8.70649 3.34743 6.12451 5.93049C3.6409 8.41706 2.85988 12.2404 4.20107 15.5029C5.20294 17.9412 3.56059 19.6659 1.90619 21.4068C1.31992 22.0239 0.731643 22.641 0.257812 23.2943L7.7287 16.6125" fill="white"/>
</g>
<defs>
<clipPath id="clip0_59077_26317">
<rect width="24" height="23.2941" fill="white" transform="translate(0 0.353027)"/>
</clipPath>
</defs>
</svg>
