<svg viewBox="0 0 24 24" fill="none" xmlns="http://www.w3.org/2000/svg">
<path d="M21.5994 21.6007V14.5687C21.5994 11.1127 20.8554 8.47266 16.8234 8.47266C14.8794 8.47266 13.5834 9.52866 13.0554 10.5367H13.0074V8.78466H9.19141V21.6007H13.1754V15.2407C13.1754 13.5607 13.4874 11.9527 15.5514 11.9527C17.5914 11.9527 17.6154 13.8487 17.6154 15.3367V21.5767H21.5994V21.6007Z" fill="currentColor"/>
<path d="M2.71289 8.78516H6.69689V21.6012H2.71289V8.78516Z" fill="currentColor"/>
<path d="M4.70439 2.40039C3.43239 2.40039 2.40039 3.43239 2.40039 4.70439C2.40039 5.97639 3.43239 7.03239 4.70439 7.03239C5.97639 7.03239 7.00839 5.97639 7.00839 4.70439C7.00839 3.43239 5.97639 2.40039 4.70439 2.40039Z" fill="currentColor"/>
</svg>
