<svg width="100%" height="100%" viewBox="0 0 33 32" fill="none" xmlns="http://www.w3.org/2000/svg">
<rect x="0.5" width="32" height="32" rx="16" fill="black"/>
<path d="M24.1803 23.6805V18.0549C24.1803 15.2901 23.5851 13.1781 20.3595 13.1781C18.8043 13.1781 17.7675 14.0229 17.3451 14.8293H17.3067V13.4277H14.2539V23.6805H17.4411V18.5925C17.4411 17.2485 17.6907 15.9621 19.3419 15.9621C20.9739 15.9621 20.9931 17.4789 20.9931 18.6693V23.6613H24.1803V23.6805Z" fill="white"/>
<path d="M9.07031 13.4281H12.2575V23.6809H9.07031V13.4281Z" fill="white"/>
<path d="M10.6635 8.32031C9.64591 8.32031 8.82031 9.14591 8.82031 10.1635C8.82031 11.1811 9.64591 12.0259 10.6635 12.0259C11.6811 12.0259 12.5067 11.1811 12.5067 10.1635C12.5067 9.14591 11.6811 8.32031 10.6635 8.32031Z" fill="white"/>
</svg>
