<svg width="16" height="13" viewBox="0 0 16 13" fill="none" xmlns="http://www.w3.org/2000/svg">
<path d="M8.6681 1.1333H4.13477" stroke="white" stroke-width="0.933333" stroke-miterlimit="10"/>
<path d="M2.66745 1.1333H1.60078C1.15891 1.1333 0.800781 1.49143 0.800781 1.9333V4.06663H11.7341V1.9333C11.7341 1.49143 11.376 1.1333 10.9341 1.1333H10.1341" stroke="white" stroke-width="0.933333" stroke-miterlimit="10"/>
<path d="M2.66797 0.0664062V2.19974" stroke="white" stroke-width="0.933333" stroke-miterlimit="10"/>
<path d="M8.66797 0.0664062V2.19974" stroke="white" stroke-width="0.933333" stroke-miterlimit="10"/>
<path d="M11.7341 10.9997V11.5331C11.7341 11.9749 11.376 12.3331 10.9341 12.3331H1.60078C1.15891 12.3331 0.800781 11.9749 0.800781 11.5331V4.06641" stroke="white" stroke-width="0.933333" stroke-miterlimit="10"/>
<path d="M12.2691 9.5332H3.48242" stroke="white" stroke-width="0.933333" stroke-miterlimit="10"/>
<path d="M0.800781 4.06641C0.800781 4.06641 2.07758 7.40001 2.46211 8.74587C2.59358 9.20667 3.00185 9.53307 3.48105 9.53307C4.06265 9.53307 4.53411 9.06161 4.53411 8.48001V8.19974H15.4674V8.48001C15.4674 9.06161 14.996 9.53307 14.4144 9.53307H12.0008" stroke="white" stroke-width="0.933333" stroke-miterlimit="10"/>
<path d="M11.7344 4.06641L13.2109 8.19547" stroke="white" stroke-width="0.933333" stroke-miterlimit="10"/>
</svg>
