<svg viewBox="0 0 128 32" fill="none" xmlns="http://www.w3.org/2000/svg">
  <path d="M16.6953 0C25.9161 0 33.3916 7.16344 33.3916 16C33.3916 24.8366 25.9161 32 16.6953 32C7.47471 31.9998 0 24.8364 0 16C1.34452e-07 7.16355 7.47471 0.000175727 16.6953 0ZM46.8135 0.959961C50.8282 0.939784 54.7287 2.52843 57.627 9.59961C58.2828 11.1998 61.8571 19.8506 62.542 21.4502C63.0172 22.5598 63.8463 22.7237 64.1631 22.7197C65.0936 22.7217 65.8039 22.2522 65.8057 21.1201L65.7998 1.28027H73.9844V20.7998C74.0414 27.5762 68.9433 31.0196 64.8184 31.04C60.7633 31.0604 56.8888 29.4719 54.0283 22.4004C53.4504 21.0186 50.4171 13.4022 49.4229 11.2178C48.6136 9.43988 47.9765 9.28876 47.3223 9.28027C46.668 9.27195 45.8306 9.76015 45.8311 10.8789V30.7197H37.6719L37.6475 11.2002C37.5896 4.45061 42.5918 0.980571 46.8135 0.959961ZM88.7158 30.7197H80.2051V1.28027H88.7158V30.7197ZM102.466 3.2002H102.467C102.466 3.25334 102.466 3.30698 102.466 3.36035C102.466 8.22027 106.35 12.1601 111.141 12.1602C115.932 12.1602 119.815 8.22029 119.815 3.36035C119.815 3.30698 119.815 3.25334 119.814 3.2002H119.815V1.28027H128V3.2002H127.999C128 3.2534 128 3.30703 128 3.36035C128 8.43672 125.651 12.977 121.959 16C125.613 18.9912 127.95 23.4678 127.999 28.4795H128V30.7197H119.815V28.4795H119.814C119.73 23.6934 115.879 19.8398 111.141 19.8398C106.402 19.8399 102.551 23.6935 102.467 28.4795H102.466V30.7197H94.2812V28.4795H94.2822C94.3311 23.4678 96.6686 18.9912 100.322 16C96.6298 12.977 94.2814 8.43672 94.2812 3.36035C94.2812 3.30703 94.2817 3.2534 94.2822 3.2002H94.2812V1.28027H102.466V3.2002ZM16.6953 7.67969C12.1755 7.67988 8.51172 11.4051 8.51172 16C8.51173 20.5949 12.1755 24.3201 16.6953 24.3203C21.2153 24.3203 24.8799 20.595 24.8799 16C24.8799 11.405 21.2153 7.67969 16.6953 7.67969Z" fill="black"/>
</svg>
