<svg viewBox="0 0 128 33" fill="none" xmlns="http://www.w3.org/2000/svg">
<path d="M16.6953 0.5C25.9161 0.5 33.3916 7.66344 33.3916 16.5C33.3916 25.3366 25.9161 32.5 16.6953 32.5C7.47471 32.4998 0 25.3364 0 16.5C1.34452e-07 7.66355 7.47471 0.500176 16.6953 0.5ZM46.8135 1.45996C50.8282 1.43978 54.7287 3.02843 57.627 10.0996C58.2828 11.6998 61.8571 20.3506 62.542 21.9502C63.0172 23.0598 63.8463 23.2237 64.1631 23.2197C65.0936 23.2217 65.8039 22.7522 65.8057 21.6201L65.7998 1.78027H73.9844V21.2998C74.0414 28.0762 68.9433 31.5196 64.8184 31.54C60.7633 31.5604 56.8888 29.9719 54.0283 22.9004C53.4504 21.5186 50.4171 13.9022 49.4229 11.7178C48.6136 9.93988 47.9765 9.78876 47.3223 9.78027C46.668 9.77195 45.8306 10.2601 45.8311 11.3789V31.2197H37.6719L37.6475 11.7002C37.5896 4.95061 42.5918 1.48057 46.8135 1.45996ZM88.7158 31.2197H80.2051V1.78027H88.7158V31.2197ZM102.466 3.7002H102.467C102.466 3.75334 102.466 3.80698 102.466 3.86035C102.466 8.72027 106.35 12.6601 111.141 12.6602C115.932 12.6602 119.815 8.72029 119.815 3.86035C119.815 3.80698 119.815 3.75334 119.814 3.7002H119.815V1.78027H128V3.7002H127.999C128 3.7534 128 3.80703 128 3.86035C128 8.93672 125.651 13.477 121.959 16.5C125.613 19.4912 127.95 23.9678 127.999 28.9795H128V31.2197H119.815V28.9795H119.814C119.73 24.1934 115.879 20.3398 111.141 20.3398C106.402 20.3399 102.551 24.1935 102.467 28.9795H102.466V31.2197H94.2812V28.9795H94.2822C94.3311 23.9678 96.6686 19.4912 100.322 16.5C96.6298 13.477 94.2814 8.93672 94.2812 3.86035C94.2812 3.80703 94.2817 3.7534 94.2822 3.7002H94.2812V1.78027H102.466V3.7002ZM16.6953 8.17969C12.1755 8.17988 8.51172 11.9051 8.51172 16.5C8.51173 21.0949 12.1755 24.8201 16.6953 24.8203C21.2153 24.8203 24.8799 21.095 24.8799 16.5C24.8799 11.905 21.2153 8.17969 16.6953 8.17969Z" fill="white"/>
</svg>
