<svg fill="none" height="20" viewBox="0 0 20 20" width="20" xmlns="http://www.w3.org/2000/svg" xmlns:xlink="http://www.w3.org/1999/xlink"><clipPath id="a"><path d="m0 0h20v20h-20z"/></clipPath><g clip-path="url(#a)"><path d="m10 0c-5.51405 0-10 4.48595-10 10 0 5.5141 4.48595 10 10 10 5.5141 0 10-4.4859 10-10 0-5.51405-4.4859-10-10-10zm2.1516 14.2779-.0495-.4341c3.8318-.438 6.6132-2.0543 6.6132-3.84384 0-2.18442-3.9099-3.96175-8.71548-3.96175-4.80562 0-8.71545 1.77733-8.71545 3.96175 0 2.09354 3.72467 3.86124 8.31772 3.95704l-1.30863-1.4614.32568-.2915 1.78506 1.9934-1.99334 1.7851-.29152-.3257 1.40757-1.2608-.07349.0002v-.0061c-4.8427-.135-8.606164-2.0431-8.606164-4.39 0-2.46659 4.020294-4.39887 9.152614-4.39887 5.13233 0 9.15263 1.93224 9.15263 4.39887 0 2.0479-2.8789 3.807-7.0008 4.2779z" fill="#fff"/></g></svg>