<svg fill="none" height="20" viewBox="0 0 20 20" width="20" xmlns="http://www.w3.org/2000/svg"><path d="m20 16.4286v-16.4286h-20v16.4286h7.14286v.7143c-.00112.3785-.15195.7412-.41964 1.0089-.26768.2677-.6304.4185-1.00893.4196v1.4286h8.57141v-1.4286c-.3785-.0011-.7412-.1519-1.0089-.4196s-.4186-.6304-.4197-1.0089v-.7143zm-7.0429-11.30003 1.0571-.97147 3.4715 3.78572-3.4715 3.78568-1.0571-.9643 2.5858-2.82138zm-.7428-.64988-3.09275 7.99261-1.33579-.5213 3.09274-7.99306zm-6.22855-.32142 1.05707.97147-2.58564 2.81424 2.5858 2.82142-1.05706.9643-3.47147-3.78572zm2.20009 14.41433c.33641-.6609.47049-1.4063.38568-2.1429h2.85718c-.0849.7366.0492 1.482.3856 2.1429z" fill="#fff"/></svg>