<svg fill="none" height="20" viewBox="0 0 20 20" width="20" xmlns="http://www.w3.org/2000/svg"><g fill="#fff"><path d="m1.2871 13.1681-1.2871 1.2871c.561126.5611-2.01323-2.0132 5.47862 5.4786l1.2871-1.2871-2.87121-2.8712c-.69314-.6602-1.98024-1.9473-2.6073-2.6073z"/><path d="m12.0133 12.3762c-.297-.264-.7261-.264-.99 0l-2.24416 2.2442c-.09907.0991-.26408.0991-.36299 0-.09906-.0991-.09906-.2641 0-.363 0 0 2.31025-2.3103 2.54125-2.5082.264-.2641.264-.693 0-.9901-.4291-.429-.99008-.0659-.99008 0l-2.27745 2.3103c-.09907.0991-.23095.0991-.36298 0-.09907-.099-.09907-.264 0-.363l2.54121-2.5412c.198-.19795.2309-.5611.198-.62703-.09909-.52798-.79208-.72612-1.15507-.36298l-2.31028 2.31031c-.09907.099-.26407.099-.36299 0-.09906-.0991-.09906-.2641 0-.363l2.31029-2.3103c.82504-.82504 1.48525-1.48524 1.61705-1.65024.231-.29704.1651-.66004-.0659-.92411-.26407-.26407-.72612-.26407-.99004 0l-5.3137 5.37945c-.06595.0659-.16501.0991-.26408.0659-.09906-.0329-.16501-.132-.16501-.2309v-2.44231c0-.23096-.09906-.36299-.13203-.39613-.13204-.19798-.36299-.29705-.56113-.29705-.36298 0-.69299.29705-.69299.69299v4.1915l5.08266 5.0827 4.91772-4.9177c.2639-.231.33-.693.033-.9901z"/><path d="m9.33997.165039c-2.57435.527986-4.75242 2.145241-6.00684 4.356451h3.63032c.49516-1.98024 1.35319-3.531409 2.37637-4.356451z"/><path d="m14.7193 4.52137c-.726-2.70621-2.0792-4.52137-3.6304-4.52137-1.55113 0-2.90431 1.84822-3.63028 4.55444h7.26048z"/><path d="m14.8517 5.01651h-7.49189c-.19798.85815-.33001 1.74916-.36298 2.73936l1.91415-1.91416c.03297 0 .85814-.66004 1.58412.09907.4951.49504.4621 1.22117 0 1.68318l-.89109.89113c.09906 0 .29704.06594.42909.16501h5.2476c-.033-1.32036-.198-2.54152-.4291-3.66362z"/><path d="m12.7061 12.8053h2.1453c.2641-1.1221.3961-2.3432.4291-3.66345l-4.8186.00015c.033.06594.066.13203.066.19797l.0329.03298c0 .13203.066.36298-.0659.66005.825.033 1.3532.8911 1.0561 1.6171.6601.0661 1.1221.5942 1.1551 1.1552z"/><path d="m15.2476 4.52149h3.6303c-1.2541-2.21121-3.4323-3.828465-6.0068-4.356451 1.0232.825042 1.8482 2.376211 2.3764 4.356451z"/><path d="m15.7428 8.67991h4.2573c-.033-1.28709-.363-2.54121-.8912-3.63032l-3.7623-.00015c.264 1.08911.3961 2.31028.3961 3.63048z"/><path d="m15.3463 12.8053h3.7624c.528-1.1221.8581-2.3432.8911-3.66345l-4.2572.00015c0 1.3201-.1321 2.5742-.3962 3.6633z"/><path d="m12.8713 17.6569c2.5744-.528 4.7525-2.1453 6.0069-4.3565h-3.6303c-.5282 1.9803-1.3532 3.5314-2.3764 4.3565z"/><path d="m12.6404 13.3004c-.0659.1321-.165.2971-.264.3961l-3.13531 3.1353c.56113.6271 1.22121.9901 1.88121.9901 1.5511 0 2.9043-1.8153 3.6303-4.5214z"/><path d="m3.69633 8.38276c.03297.09907.09906.16501.09906.26408h2.24416l.39612-.39613c.03298-1.15504.16501-2.24415.39613-3.23435h-3.7625c-.42907.89112-.72612 1.88117-.82504 2.90435.89113-.42907 1.41912.46206 1.4521.46206z"/><path d="m5.57747 9.17505h-1.68318v1.68315z"/></g></svg>