<svg fill="none" height="20" viewBox="0 0 20 20" width="20" xmlns="http://www.w3.org/2000/svg"><path d="m0 18.2612v-16.53069.00014c.00213532-.4598.186345-.899962.51221-1.224271.325854-.324286.76688-.506379 1.22668-.506379h11.82261c.461 0 .9033.183069 1.2295.509222.326.326138.5092.768298.5092 1.229528v2.13878h-2.1735v-1.70416h-10.95304v13.50623h5.68588v2.5817c.00085.6135.17026 1.215.48983 1.7387h-6.61008c-.46122 0-.903536-.1831-1.229521-.5092-.326139-.3262-.50936807-.7683-.50936807-1.2295zm11.2307-12.75115h6.9246c.4612 0 .9036.18321 1.2295.50922.3262.32614.5094.76844.5094 1.22952v11.02041c-.0021.4598-.1863.9-.5122 1.2243s-.7669.5064-1.2267.5064h-6.9246c-.4611 0-.9034-.1831-1.2294-.5092-.32609-.3262-.50932-.7683-.50932-1.2296v-11.0204c.00214-.4598.18635-.89997.51222-1.22427.3258-.32429.7669-.50638 1.2265-.50638zm4.3288 12.36335c0-.23-.0914-.4505-.2541-.6132-.1626-.1628-.3833-.2541-.6133-.2541s-.4506.0913-.6133.2541c-.1627.1627-.2541.3832-.2541.6132 0 .2301.0914.4507.2541.6134.1627.1626.3833.254.6133.254s.4507-.0914.6133-.254c.1627-.1627.2541-.3833.2541-.6134zm-3.894-2.1938h6.055v-7.99604h-6.055z" fill="#fff"/></svg>