<svg width="32" height="32" viewBox="0 0 32 32" fill="none" xmlns="http://www.w3.org/2000/svg">
<mask id="mask0_453_630" style="mask-type:alpha" maskUnits="userSpaceOnUse" x="3" y="3" width="26" height="26">
<path d="M27.3464 12.72C27.2326 13.0391 27.056 13.3322 26.827 13.5818C26.598 13.8315 26.3212 14.0326 26.013 14.1733C24.373 14.9075 22.9797 16.0994 22.0006 17.606C21.0214 19.1126 20.4979 20.8698 20.493 22.6667C20.4944 23.2933 20.557 23.9187 20.6797 24.5333C20.7611 24.9091 20.7665 25.2973 20.6955 25.6751C20.6245 26.053 20.4786 26.4128 20.2664 26.7333C20.0868 27.0139 19.8504 27.2537 19.5726 27.4374C19.2947 27.6211 18.9815 27.7446 18.653 27.8C16.8919 28.1232 15.0807 28.0481 13.3523 27.5803C11.624 27.1125 10.0222 26.2639 8.66441 25.0966C7.30663 23.9293 6.22729 22.473 5.50549 20.8344C4.7837 19.1958 4.43776 17.4164 4.49302 15.6267C4.5965 12.6304 5.8117 9.77994 7.90186 7.63062C9.99203 5.48129 12.8075 4.18704 15.7997 4H16.4797C18.714 4.00056 20.9038 4.62492 22.8025 5.80275C24.7012 6.98059 26.2333 8.66513 27.2264 10.6667C27.532 11.3 27.5751 12.0284 27.3464 12.6933V12.72Z" stroke="#FF0000" stroke-width="2"/>
<path d="M10.6667 21.347L10.68 21.3324M8 16.0137L8.01333 15.999M10.6667 10.6804L10.68 10.6657M16 8.01369L16.0133 7.99902M21.3333 10.6804L21.3467 10.6657" stroke="#FF0000" stroke-width="2" stroke-linecap="round" stroke-linejoin="round"/>
</mask>
<g mask="url(#mask0_453_630)">
<rect width="32" height="32" fill="#624745"/>
</g>
</svg>
