<svg width="32" height="32" viewBox="0 0 32 32" fill="none" xmlns="http://www.w3.org/2000/svg">
<mask id="mask0_453_577" style="mask-type:alpha" maskUnits="userSpaceOnUse" x="1" y="3" width="30" height="28">
<path d="M26.6663 14.6667C26.6663 11.8377 25.5425 9.12458 23.5421 7.12419C21.5418 5.12381 18.8287 4 15.9997 4C13.1707 4 10.4576 5.12381 8.4572 7.12419C6.45681 9.12458 5.33301 11.8377 5.33301 14.6667" stroke="#FF0000" stroke-width="2" stroke-linecap="round" stroke-linejoin="round"/>
<path d="M26.667 23.9997V24.6663C26.667 25.3736 26.386 26.0519 25.8859 26.552C25.3858 27.0521 24.7076 27.333 24.0003 27.333H19.3337M2.66699 20.5837V18.0823C2.66708 17.4877 2.86593 16.9101 3.23193 16.4414C3.59793 15.9728 4.11009 15.6399 4.68699 15.4957L7.00699 14.9143C7.12488 14.885 7.24791 14.8829 7.36674 14.9081C7.48557 14.9334 7.59709 14.9854 7.69282 15.0602C7.78856 15.135 7.86601 15.2306 7.91929 15.3398C7.97257 15.449 8.00028 15.5688 8.00033 15.6903V22.9743C8.00054 23.0961 7.97296 23.2163 7.91969 23.3257C7.86642 23.4352 7.78887 23.5311 7.69294 23.6061C7.59701 23.681 7.48524 23.7331 7.36614 23.7583C7.24704 23.7836 7.12375 23.7813 7.00566 23.7517L4.68566 23.1717C4.109 23.0272 3.59715 22.6942 3.23141 22.2256C2.86566 21.7569 2.66701 21.1795 2.66699 20.585V20.5837ZM29.3337 20.5837V18.0823C29.3336 17.4877 29.1347 16.9101 28.7687 16.4414C28.4027 15.9728 27.8906 15.6399 27.3137 15.4957L24.9937 14.9143C24.8758 14.885 24.7527 14.8829 24.6339 14.9081C24.5151 14.9334 24.4036 14.9854 24.3078 15.0602C24.2121 15.135 24.1346 15.2306 24.0814 15.3398C24.0281 15.449 24.0004 15.5688 24.0003 15.6903V22.9743C24.0002 23.0959 24.0277 23.216 24.0809 23.3253C24.1341 23.4347 24.2115 23.5305 24.3073 23.6054C24.4031 23.6803 24.5147 23.7325 24.6336 23.7578C24.7525 23.7832 24.8757 23.7811 24.9937 23.7517L27.3137 23.1717C27.8906 23.0275 28.4027 22.6946 28.7687 22.2259C29.1347 21.7572 29.3336 21.1797 29.3337 20.585V20.5837Z" stroke="#FF0000" stroke-width="2"/>
<path d="M18 29.333H14C13.4696 29.333 12.9609 29.1223 12.5858 28.7472C12.2107 28.3721 12 27.8634 12 27.333C12 26.8026 12.2107 26.2939 12.5858 25.9188C12.9609 25.5437 13.4696 25.333 14 25.333H18C18.5304 25.333 19.0391 25.5437 19.4142 25.9188C19.7893 26.2939 20 26.8026 20 27.333C20 27.8634 19.7893 28.3721 19.4142 28.7472C19.0391 29.1223 18.5304 29.333 18 29.333Z" stroke="#FF0000" stroke-width="2"/>
</mask>
<g mask="url(#mask0_453_577)">
<rect width="32" height="32" fill="#624745"/>
</g>
</svg>
