<svg width="32" height="32" viewBox="0 0 32 32" fill="none" xmlns="http://www.w3.org/2000/svg">
<mask id="mask0_453_587" style="mask-type:alpha" maskUnits="userSpaceOnUse" x="1" y="2" width="30" height="27">
<path d="M2.66699 19.4667L2.66699 27.2C2.66699 27.6418 3.02516 28 3.46699 28H8.53366C8.97549 28 9.33366 27.6418 9.33366 27.2V19.4667C9.33366 19.0248 8.97549 18.6667 8.53366 18.6667H3.46699C3.02516 18.6667 2.66699 19.0248 2.66699 19.4667Z" stroke="#FF0000" stroke-width="2"/>
<path d="M22.667 12.1337V19.867C22.667 20.3088 23.0252 20.667 23.467 20.667H28.5337C28.9755 20.667 29.3337 20.3088 29.3337 19.867V12.1337C29.3337 11.6918 28.9755 11.3337 28.5337 11.3337H23.467C23.0252 11.3337 22.667 11.6918 22.667 12.1337Z" stroke="#FF0000" stroke-width="2"/>
<path d="M2.66699 4.79968L2.66699 12.533C2.66699 12.9748 3.02516 13.333 3.46699 13.333H8.53366C8.97549 13.333 9.33366 12.9748 9.33366 12.533V4.79968C9.33366 4.35785 8.97549 3.99967 8.53366 3.99967H3.46699C3.02516 3.99967 2.66699 4.35785 2.66699 4.79968Z" stroke="#FF0000" stroke-width="2"/>
<path d="M9.33301 23.3337H13.9997C14.7069 23.3337 15.3852 23.0527 15.8853 22.5526C16.3854 22.0525 16.6663 21.3742 16.6663 20.667V11.3337C16.6663 10.6264 16.3854 9.94814 15.8853 9.44804C15.3852 8.94794 14.7069 8.66699 13.9997 8.66699H9.33301M16.6663 16.0003H22.6663" stroke="#FF0000" stroke-width="2"/>
</mask>
<g mask="url(#mask0_453_587)">
<rect width="32" height="32" fill="#624745"/>
</g>
</svg>
