<svg width="32" height="32" viewBox="0 0 32 32" fill="none" xmlns="http://www.w3.org/2000/svg">
<mask id="mask0_453_568" style="mask-type:alpha" maskUnits="userSpaceOnUse" x="1" y="1" width="30" height="30">
<path d="M9.33301 8H22.6663M9.33301 12H22.6663M11.9997 22.6667H19.9997" stroke="#FF0000" stroke-width="2" stroke-linecap="round" stroke-linejoin="round"/>
<path d="M4.00033 16.0003H3.46699C3.25482 16.0003 3.05134 16.0846 2.90131 16.2346C2.75128 16.3847 2.66699 16.5882 2.66699 16.8003V28.5337C2.66699 28.6387 2.68768 28.7427 2.72789 28.8398C2.76809 28.9369 2.82702 29.0251 2.90131 29.0993C2.97559 29.1736 3.06378 29.2326 3.16085 29.2728C3.25791 29.313 3.36193 29.3337 3.46699 29.3337H28.5337C28.6387 29.3337 28.7427 29.313 28.8398 29.2728C28.9369 29.2326 29.0251 29.1736 29.0993 29.0993C29.1736 29.0251 29.2326 28.9369 29.2728 28.8398C29.313 28.7427 29.3337 28.6387 29.3337 28.5337V16.8003C29.3337 16.5882 29.2494 16.3847 29.0993 16.2346C28.9493 16.0846 28.7458 16.0003 28.5337 16.0003H28.0003M4.00033 16.0003V3.46699C4.00033 3.25482 4.08461 3.05134 4.23464 2.90131C4.38467 2.75128 4.58815 2.66699 4.80033 2.66699H27.2003C27.4125 2.66699 27.616 2.75128 27.766 2.90131C27.916 3.05134 28.0003 3.25482 28.0003 3.46699V16.0003M4.00033 16.0003H28.0003" stroke="#FF0000" stroke-width="2"/>
</mask>
<g mask="url(#mask0_453_568)">
<rect width="32" height="32" fill="#624745"/>
</g>
</svg>
