<svg width="32" height="32" viewBox="0 0 32 32" fill="none" xmlns="http://www.w3.org/2000/svg">
<mask id="mask0_453_669" style="mask-type:alpha" maskUnits="userSpaceOnUse" x="4" y="0" width="28" height="31">
<path d="M11.333 5.33301H7.99967C7.29243 5.33301 6.61415 5.61396 6.11406 6.11406C5.61396 6.61415 5.33301 7.29243 5.33301 7.99967V26.6663C5.33301 27.3736 5.61396 28.0519 6.11406 28.552C6.61415 29.0521 7.29243 29.333 7.99967 29.333H15.9997M20.6663 5.33301H23.9997C24.7069 5.33301 25.3852 5.61396 25.8853 6.11406C26.3854 6.61415 26.6663 7.29243 26.6663 7.99967V19.9997" stroke="#FF0000" stroke-width="2" stroke-linecap="round"/>
<path d="M10.667 8.53301V5.99967C10.667 5.82286 10.7372 5.65329 10.8623 5.52827C10.9873 5.40325 11.1568 5.33301 11.3337 5.33301C11.7017 5.33301 12.0057 5.03434 12.0697 4.67167C12.267 3.53567 13.0323 1.33301 16.0003 1.33301C18.9683 1.33301 19.7337 3.53567 19.931 4.67167C19.995 5.03434 20.299 5.33301 20.667 5.33301C20.8438 5.33301 21.0134 5.40325 21.1384 5.52827C21.2634 5.65329 21.3337 5.82286 21.3337 5.99967V8.53301C21.3337 8.74518 21.2494 8.94866 21.0993 9.09869C20.9493 9.24872 20.7458 9.33301 20.5337 9.33301H11.467C11.2548 9.33301 11.0513 9.24872 10.9013 9.09869C10.7513 8.94866 10.667 8.74518 10.667 8.53301V8.53301Z" stroke="#FF0000" stroke-width="2" stroke-linecap="round"/>
<path d="M20.667 27.333L23.3337 29.9997L30.0003 23.333" stroke="#FF0000" stroke-width="2" stroke-linecap="round" stroke-linejoin="round"/>
</mask>
<g mask="url(#mask0_453_669)">
<rect width="32" height="32" fill="#624745"/>
</g>
</svg>
