<svg width="100%" height="100%" viewBox="0 0 168 168" fill="none" xmlns="http://www.w3.org/2000/svg">
<path d="M77 21H28C24.134 21 21 24.134 21 28V77C21 80.866 24.134 84 28 84H77C80.866 84 84 80.866 84 77V28C84 24.134 80.866 21 77 21Z" stroke="white" stroke-opacity="0.95" stroke-width="2" stroke-linecap="round" stroke-linejoin="round"/>
<path d="M143.5 112H115.5C113.567 112 112 113.567 112 115.5V143.5C112 145.433 113.567 147 115.5 147H143.5C145.433 147 147 145.433 147 143.5V115.5C147 113.567 145.433 112 143.5 112Z" stroke="white" stroke-opacity="0.95" stroke-width="2" stroke-linecap="round" stroke-linejoin="round"/>
<path d="M143.5 49H115.5C113.567 49 112 50.567 112 52.5V80.5C112 82.433 113.567 84 115.5 84H143.5C145.433 84 147 82.433 147 80.5V52.5C147 50.567 145.433 49 143.5 49Z" stroke="white" stroke-opacity="0.95" stroke-width="2" stroke-linecap="round" stroke-linejoin="round"/>
<path d="M80.5 112H52.5C50.567 112 49 113.567 49 115.5V143.5C49 145.433 50.567 147 52.5 147H80.5C82.433 147 84 145.433 84 143.5V115.5C84 113.567 82.433 112 80.5 112Z" stroke="white" stroke-opacity="0.95" stroke-width="2" stroke-linecap="round" stroke-linejoin="round"/>
</svg>
