<svg width="32" height="32" viewBox="0 0 32 32" fill="none" xmlns="http://www.w3.org/2000/svg">
<path d="M2.66675 24.0001C2.66675 23.2637 3.2637 22.6667 4.00008 22.6667H28.0001C28.7365 22.6667 29.3334 23.2637 29.3334 24.0001V25.3334C29.3334 26.0698 28.7365 26.6667 28.0001 26.6667H4.00008C3.2637 26.6667 2.66675 26.0698 2.66675 25.3334V24.0001Z" fill="#FF6644"/>
<path opacity="0.3" fill-rule="evenodd" clip-rule="evenodd" d="M12.0522 7.37724C12.1258 7.43601 12.1987 7.49417 12.271 7.5498C12.5594 7.77156 12.9296 7.90484 13.3333 7.90484H18.6667C19.0704 7.90484 19.4406 7.77156 19.729 7.5498C19.8013 7.49417 19.8742 7.43601 19.9478 7.37724C20.3797 7.03249 20.838 6.66675 21.3733 6.66675H26.6667C27.403 6.66675 28 7.22106 28 7.90484V20.6667H4V7.90484C4 7.22106 4.59695 6.66675 5.33333 6.66675H10.6267C11.162 6.66675 11.6203 7.0325 12.0522 7.37724ZM28 22.6667H4V22.762C4 23.4458 4.59695 24.0001 5.33333 24.0001H26.6667C27.403 24.0001 28 23.4458 28 22.762V22.6667Z" fill="#FF6644"/>
</svg>
