<svg width="32" height="32" viewBox="0 0 32 32" fill="none" xmlns="http://www.w3.org/2000/svg">
<path opacity="0.3" fill-rule="evenodd" clip-rule="evenodd" d="M28.3527 26.5932C28.3527 27.1456 27.9051 27.5935 27.3531 27.5935H19.1908C18.6387 27.5935 18.1912 27.1456 18.1912 26.5932C18.1912 26.0407 18.6387 25.5928 19.1908 25.5928H27.3531C27.9051 25.5928 28.3527 26.0407 28.3527 26.5932Z" fill="#FF6644"/>
<path d="M22.4949 5.78112C21.4535 4.73972 19.7657 4.74036 18.7251 5.78255L16.5076 8.00346L23.6282 15.1241L25.8414 12.8533C26.8606 11.8076 26.8499 10.1361 25.8174 9.10359L22.4949 5.78112Z" fill="#FF6644"/>
<path opacity="0.3" d="M22.2321 16.5563L15.0943 9.41858L6.32513 18.2011C5.61704 18.9102 5.20074 19.8596 5.15861 20.8612L5.00107 24.6066C4.95325 25.7435 5.86135 26.6914 6.99846 26.6915L10.668 26.6916C11.7458 26.6917 12.778 26.2563 13.5305 25.4842L22.2321 16.5563Z" fill="#FF6644"/>
</svg>
