<?xml version="1.0" encoding="UTF-8"?>
<svg viewBox="0 0 68 65" version="1.1" xmlns="http://www.w3.org/2000/svg" xmlns:xlink="http://www.w3.org/1999/xlink">
    <!-- Generator: sketchtool 61 (101010) - https://sketch.com -->
    <title>FDF0E1AC-E51E-4E6F-A782-771329999609</title>
    <desc>Created with sketchtool.</desc>
    <g id="Page-1" stroke="none" stroke-width="1" fill="none" fill-rule="evenodd">
        <g id="Case-Study-for-Edplus" transform="translate(-765.000000, -4684.000000)">
            <g id="EdPlus-Mobile-Applications" transform="translate(121.000000, 4080.000000)">
                <g id="Group-7" transform="translate(0.000000, 214.000000)">
                    <g id="Group-11" transform="translate(644.000000, 390.000000)">
                        <g id="addition-d">
                            <circle id="Oval" fill="#2EA2DB" fill-rule="nonzero" cx="21.3031403" cy="21.1179551" r="21.1179551"></circle>
                            <rect id="Rectangle" fill="#FFFFFF" x="12.6790123" y="12.5925926" width="54.5679012" height="33.5802469"></rect>
                            <rect id="Rectangle" fill="#FFFFFF" x="32.8271605" y="7.55555556" width="12.5925926" height="7.55555556"></rect>
                            <rect id="Rectangle" fill="#4FBF9F" x="15.1975309" y="15.1111111" width="48.691358" height="27.7037037"></rect>
                            <path d="M67.0553538,11.2311399 L45.9207437,11.2311399 L45.9207437,8.47445165 C45.9207437,7.96699484 45.5093043,7.55555556 45.0018476,7.55555556 L33.9750945,7.55555556 C33.4671889,7.55555556 33.0561984,7.96699484 33.0561984,8.47445165 L33.0561984,11.2311399 L11.9215882,11.2311399 C11.4136827,11.2311399 11.0026921,11.6425792 11.0026921,12.150036 L11.0026921,46.1491914 C11.0026921,46.6566483 11.4136827,47.0680875 11.9215882,47.0680875 L21.5807655,47.0680875 L14.7698071,61.3751382 C14.5508513,61.827856 14.7366048,62.3725533 15.1861818,62.5973418 L18.8617662,64.435134 C19.0825168,64.5455091 19.3382642,64.562559 19.5715776,64.4822453 C19.8053397,64.401483 19.9964773,64.2309847 20.1023658,64.0079909 L28.1664866,47.0680875 L50.8100067,47.0680875 L58.8768195,64.003504 C58.9831567,64.2260492 59.1742942,64.3969962 59.4076077,64.4773098 C59.6409211,64.5576235 59.8966686,64.5410224 60.117419,64.4306471 L63.7930034,62.5928549 C64.238991,62.367169 64.4229498,61.8260613 64.2066861,61.3751382 L57.3957277,47.0680875 L67.0553538,47.0680875 C67.5628105,47.0680875 67.9742499,46.6566483 67.9742499,46.1491914 L67.9742499,12.150036 C67.9742499,11.6425792 67.5628105,11.2311399 67.0553538,11.2311399 Z M34.8939905,9.39334774 L44.0829515,9.39334774 L44.0829515,11.2311399 L34.8939905,11.2311399 L34.8939905,9.39334774 Z M18.8460625,62.3676178 L16.8144407,61.3513581 L23.6159768,47.0680875 L26.1312753,47.0680875 L18.8460625,62.3676178 Z M62.1620526,61.3513581 L60.1304307,62.3676178 L52.8452179,47.0680875 L55.3605165,47.0680875 L62.1620526,61.3513581 Z M66.1364577,45.2302954 L12.8404843,45.2302954 L12.8404843,13.0689321 L66.1364577,13.0689321 L66.1364577,45.2302954 Z" id="Shape" fill="#193651" fill-rule="nonzero"></path>
                            <path d="M32.1373023,31.446854 L28.9382157,31.446854 C30.2465658,30.3336796 31.3942886,29.044174 32.347733,27.615129 C33.011779,26.4997113 33.0279315,25.1141883 32.3899089,23.9835153 C31.7752177,22.9035432 30.6230081,22.242638 29.380614,22.257893 C27.3503381,22.257893 25.7050266,23.9036503 25.7050266,25.9334774 C25.7050266,26.4409342 26.1160201,26.8523735 26.6239257,26.8523735 C27.1313824,26.8523735 27.5428218,26.4409342 27.5428218,25.9334774 C27.5428218,24.9185638 28.3652517,24.0956852 29.380614,24.0956852 C29.9638975,24.0759433 30.5094921,24.3841863 30.7935064,24.8943351 C31.1053388,25.450698 31.0945705,26.1317938 30.766137,26.6787344 C29.8153846,28.0566299 28.6815709,29.2981268 27.3956549,30.3700226 C26.896723,30.8294707 26.4112515,31.278599 25.9742375,31.7160618 C25.7113111,31.9789881 25.6327921,32.374275 25.7750235,32.717515 C25.9172551,33.0607549 26.2519701,33.2846461 26.6239257,33.2846461 L32.1373023,33.2846461 C32.644759,33.2846461 33.0561984,32.8732069 33.0561984,32.3657501 C33.0561984,31.8582932 32.644759,31.446854 32.1373023,31.446854 Z" id="Path" fill="#FFFFFF" fill-rule="nonzero"></path>
                            <path d="M46.8396397,26.8523735 C47.3470964,26.8523735 47.7585358,26.4409342 47.7585358,25.9334774 C47.7585358,24.9185638 48.5809658,24.0956852 49.596328,24.0956852 C50.1796116,24.0759433 50.7252061,24.3841863 51.0092205,24.8943351 C51.3210528,25.450698 51.3102845,26.1317938 50.981851,26.6787344 C50.0310987,28.0566299 48.8972849,29.2981268 47.6113689,30.3700226 C47.112437,30.8294707 46.6269655,31.278599 46.1899515,31.7160618 C45.9270251,31.9789881 45.8485061,32.374275 45.9907376,32.717515 C46.1329691,33.0607549 46.4676842,33.2846461 46.8396397,33.2846461 L52.3530163,33.2846461 C52.860473,33.2846461 53.2719124,32.8732069 53.2719124,32.3657501 C53.2719124,31.8582932 52.860473,31.446854 52.3530163,31.446854 L49.1539298,31.446854 C50.4622799,30.3336796 51.6100027,29.044174 52.5634471,27.615129 C53.2274931,26.4997113 53.2436455,25.1141883 52.6056229,23.9835153 C51.9909317,22.9035432 50.8387222,22.242638 49.596328,22.257893 C47.5660521,22.257893 45.9207407,23.9036503 45.9207407,25.9334774 C45.9207407,26.4409342 46.3317342,26.8523735 46.8396397,26.8523735 Z" id="Path" fill="#FFFFFF" fill-rule="nonzero"></path>
                            <path d="M43.1640554,26.8523735 L40.4073671,26.8523735 L40.4073671,24.0956852 C40.4073671,23.5882284 39.9959277,23.1767891 39.488471,23.1767891 C38.9805654,23.1767891 38.5695749,23.5882284 38.5695749,24.0956852 L38.5695749,26.8523735 L35.8128866,26.8523735 C35.3049811,26.8523735 34.8939905,27.2638128 34.8939905,27.7712696 C34.8939905,28.2787264 35.3049811,28.6901657 35.8128866,28.6901657 L38.5695749,28.6901657 L38.5695749,31.446854 C38.5695749,31.9543108 38.9805654,32.3657501 39.488471,32.3657501 C39.9959277,32.3657501 40.4073671,31.9543108 40.4073671,31.446854 L40.4073671,28.6901657 L43.1640554,28.6901657 C43.6715121,28.6901657 44.0829515,28.2787264 44.0829515,27.7712696 C44.0829515,27.2638128 43.6715121,26.8523735 43.1640554,26.8523735 Z" id="Path" fill="#FFFFFF" fill-rule="nonzero"></path>
                        </g>
                    </g>
                </g>
            </g>
        </g>
    </g>
</svg>