<?xml version="1.0" encoding="UTF-8"?>
<svg width="167px" height="268px" viewBox="0 0 167 268" version="1.1" xmlns="http://www.w3.org/2000/svg" xmlns:xlink="http://www.w3.org/1999/xlink">
    <!-- Generator: sketchtool 61 (101010) - https://sketch.com -->
    <title>52F056DA-C377-45E9-A0FD-459CE41C3C11</title>
    <desc>Created with sketchtool.</desc>
    <g id="Page-1" stroke="none" stroke-width="1" fill="none" fill-rule="evenodd">
        <g id="Case-Study-for-Edplus" transform="translate(-1273.000000, -5941.000000)">
            <g id="EdPlus-Mobile-Applications" transform="translate(121.000000, 4080.000000)">
                <g id="ygb-d" transform="translate(1152.000000, 1844.000000)">
                    <g id="44" transform="translate(51.000000, 63.000000)" fill="#2EA2DB">
                        <path d="M5.79302654,70.2598777 C5.69664192,69.8991084 5.51248807,69.7047238 5.17271882,69.7704161 C4.58794955,69.8829546 4.26056492,70.2426469 4.2271803,70.8468008 C4.20887261,71.1779547 4.4037957,71.2420316 4.67948802,71.1930316 C5.24594959,71.0923393 5.50871883,70.6502623 5.79302654,70.2598777 M2.80187253,176.635114 C3.37964179,175.010576 3.75387258,173.334345 4.23956492,171.687191 C3.28756487,173.196499 2.77225715,174.837191 2.80187253,176.635114 M7.08371892,66.8907237 C9.4938729,64.2921081 12.0090269,61.7963388 14.5634886,59.3393386 C11.4592576,61.2557234 9.06148826,63.866185 7.08371892,66.8907237 M54.5835677,41.1716453 C59.559491,38.920876 63.6981067,35.5490296 67.6482607,31.915491 C63.5274143,35.011645 59.4119526,38.1110298 55.0127216,40.8108761 C54.8554908,40.9077992 54.72626,41.0504915 54.5835677,41.1716453 M111.491955,166.22396 C110.045648,171.165422 107.174571,175.35573 105.72934,180.152345 C107.547186,178.870268 112.240955,167.833422 111.491955,166.22396 M53.1286445,215.349424 C54.0989523,215.349424 55.0784139,215.433424 56.0384908,215.334347 C59.9724911,214.929963 63.854799,214.183655 67.7365684,213.448655 C73.4959533,212.35827 78.8084152,209.910962 84.2587232,207.902501 C86.7733387,206.97527 89.1786465,205.710962 90.8823389,203.480654 C96.5124931,196.108577 101.045263,188.172192 104.263109,179.412499 C106.831571,172.421653 110.173263,165.718344 112.91834,158.787267 C114.87834,153.839882 116.129186,148.656113 116.689725,143.336651 C117.156571,138.905112 116.89434,134.46065 116.92611,130.019958 C116.951956,126.368112 116.88734,122.718958 117.117263,119.055265 C117.278802,116.474957 116.699956,113.786957 116.478648,111.143649 C116.088263,106.489187 116.158802,101.892341 117.57334,97.3773407 C118.878571,93.211802 120.647956,89.2454941 122.844879,85.4983401 C127.292033,77.9114166 132.866726,71.152647 138.714418,64.6270312 C141.855265,61.1227233 144.935803,57.5839539 147.532804,53.6558768 C152.31165,46.4281072 154.604419,38.4454144 154.406804,29.8020293 C154.252265,23.0448751 151.292342,17.798644 145.462957,14.2340285 C135.330188,8.03848966 124.632033,6.05587416 113.147725,9.82887437 C104.253417,12.7511053 96.3342623,17.3942594 89.0898004,23.2914905 C84.5715693,26.9697215 80.4464153,31.0873371 75.9405689,34.7763373 C69.8037224,39.8017991 63.5688759,44.6775686 56.3411062,48.0946457 C50.7475675,50.7395689 44.8681056,52.5999536 38.9547207,54.3488768 C33.9066435,55.8420307 29.0927971,57.8574924 24.5449507,60.5029541 C19.2960273,63.5560312 14.8634117,67.4620314 11.7952576,72.7836471 C11.4307192,73.4174163 11.4167192,73.4093394 10.5864114,73.4265702 C10.3344114,73.4319548 10.318796,73.6414163 10.2342576,73.8094164 C9.46641136,75.3413395 8.96510364,76.9394934 8.9446421,78.6717243 C8.9306421,79.8418013 9.38241136,81.5153399 8.98179595,82.0785707 C7.69541126,83.8856477 8.66410362,85.6361862 8.90102671,87.1589555 C9.19556519,89.0478787 9.69041137,91.0078788 10.2692576,92.9005713 C11.7214884,97.6519561 13.3901808,102.318264 15.7567194,106.683034 C17.9267195,110.687034 20.0288735,114.726572 20.6551043,119.261496 C20.8360274,120.57588 22.4201813,122.076573 20.729412,123.480342 C20.7288735,123.480881 20.8478735,123.611727 20.8984889,123.689804 C21.7961043,125.073111 22.249489,126.63465 22.3178736,128.238727 C22.3841044,129.771189 22.9317198,131.203496 22.9974121,132.718189 C23.103489,135.162804 24.0102583,137.539035 23.4863352,140.049882 C23.2483352,141.192497 23.3037967,142.404574 23.3016429,143.58542 C23.2967967,146.213651 22.4061813,148.718036 22.2683351,151.352728 C22.2166428,152.339728 21.3545659,153.593805 20.8796428,154.724036 C19.1770273,158.775421 16.1567963,161.861344 13.507027,165.241806 C11.0139499,168.421422 8.21287283,171.538576 7.95064205,175.89796 C7.84510358,177.656576 7.32171893,179.512653 8.22902668,181.163038 C10.669873,185.598346 11.9535653,190.6265 15.3022578,194.603038 C17.9084118,197.698115 19.6584119,201.447962 22.8337198,204.137039 C25.9390277,206.766885 28.903797,209.598116 32.491028,211.540885 C34.2517973,212.494501 36.0373359,213.470732 38.1044899,213.926809 C43.0712594,215.023116 48.0676443,215.418886 53.1286445,215.349424 M94.2337237,10.6607975 C94.5078007,10.5778744 94.804493,10.5364129 95.0527238,10.4044898 C101.253109,7.10695115 107.715186,4.49541254 114.568725,2.89187399 C114.816417,2.83372014 115.156186,2.84233553 115.303186,2.4616432 C114.839571,2.52787397 114.403956,2.57956628 113.972109,2.65441244 C108.281648,3.6441048 103.006878,5.81572031 97.8834162,8.38741275 C96.6083392,9.02764356 95.2126468,9.52464359 94.2595699,10.6909513 C92.7319544,10.7975667 91.799339,12.0866437 90.4774158,12.6170284 C90.2458773,12.7096438 89.9960312,13.1307207 90.349262,13.4882592 C90.4666466,13.6067207 90.6287235,13.6831823 90.7014158,13.5437207 C91.4708774,12.076413 93.3371852,11.9617206 94.2337237,10.6607975 M76.912492,32.9811064 C78.6861844,31.8777987 80.0974922,30.3706447 81.5061076,28.8618754 C79.9892614,30.2494909 78.1563382,31.2903371 76.9410305,33.0112603 C75.6460304,33.4700295 74.818415,34.521645 73.8938764,35.4488758 C75.0687996,34.8361065 76.0773381,34.0154911 76.912492,32.9811064 M116.05111,174.075806 C115.021571,176.89196 114.035648,179.691422 111.951802,182.010576 C110.69234,183.411653 109.688109,185.098653 108.857263,186.798038 C108.556263,187.415115 108.003263,187.601423 107.688263,188.152807 C106.953263,189.440269 106.683494,190.894654 105.742263,192.1455 C103.620724,194.964885 101.526647,197.796654 99.3119548,200.550346 C97.8505701,202.367116 96.4828777,204.275962 94.9644161,206.050193 C92.1348005,209.35527 88.5233388,211.572116 84.5144924,213.150347 C79.8821075,214.974116 75.2933381,216.952963 70.558107,218.465501 C61.7337989,221.283809 52.7269522,222.418886 43.405644,221.306963 C37.7900283,220.637117 32.3208742,219.576347 27.5081047,216.708501 C19.811335,212.121347 13.4661039,206.012501 8.98448826,198.131577 C8.81648825,197.8365 8.60056516,197.568346 8.39864207,197.293731 C6.56679582,194.802269 4.91318034,192.228423 4.07210337,189.194192 C3.65533412,187.6935 3.03987254,186.252576 2.36033405,184.836422 C0.344872396,180.636961 0.732026264,176.407345 2.35979558,172.19496 C3.99833414,167.955114 6.73479582,164.355498 9.79379599,161.164037 C13.8812578,156.899421 15.7992579,151.953651 16.4098733,146.237343 C16.9779502,140.920574 16.0447963,135.771266 15.0976424,130.602573 C14.5166424,127.431035 13.997027,124.246573 13.37295,121.08365 C12.3660269,115.984957 10.0204883,111.440342 7.61194972,106.884418 C4.47648801,100.952187 2.07979557,94.7071098 0.630795489,88.1217248 C-0.581819962,82.6111091 0.0158723781,77.2001088 1.89241094,72.0044932 C2.97364177,69.0111853 4.37902646,66.073339 6.6567189,63.6486466 C8.87410363,61.2874926 11.1114115,58.9753386 13.7557962,57.0896462 C20.1112581,52.5563383 27.11772,49.3761842 34.5463358,47.061338 C43.027644,44.4185686 51.2876444,41.2917223 58.5342602,35.9679527 C63.903799,32.0231833 69.0127223,27.7661061 73.9197226,23.2624136 C80.6014922,17.1298748 87.5998772,11.4211052 95.6875699,7.19902807 C103.52757,3.10672016 111.715955,-0.0788184808 120.677571,0.00148535751 C134.166034,0.126335377 145.714957,4.89279718 153.896342,15.9872593 C159.946497,24.1934136 160.927035,33.596568 158.950343,43.4137993 C158.593343,45.1864148 158.232035,46.9584918 157.817958,48.7181842 C156.753419,53.2385691 154.915112,57.3949539 152.214188,61.2072618 C150.640265,63.4289542 148.943034,65.5564159 147.368034,67.754416 C145.518957,70.3341854 143.45988,72.6980317 141.331342,75.0026472 C138.866265,77.6718012 136.682265,80.5358783 134.606495,83.5011861 C133.883341,84.5339554 132.736957,85.1607247 132.037495,86.2721093 C129.39311,90.4748019 126.643725,94.6150329 124.755879,99.2377254 C123.736571,101.732956 122.697341,104.166264 122.496495,106.97811 C122.374264,108.702264 122.479264,110.420495 122.329033,112.13388 C122.103956,114.700188 122.546571,117.229342 122.954725,119.737496 C123.111418,120.700265 121.944033,121.479419 122.195494,121.546727 C123.556187,121.908034 122.599341,122.67265 122.627341,123.228342 C122.643495,123.556804 122.43511,123.917573 122.509418,124.219111 C123.772648,129.344727 123.226648,134.57965 123.334341,139.75642 C123.434495,144.562189 123.854495,149.458959 122.555187,154.169421 C122.080802,155.887113 121.73511,157.651113 121.234879,159.368267 C120.634494,161.427883 119.526879,163.359883 119.342187,165.508883 C119.08211,168.535575 117.55234,171.072268 116.450648,173.778037 C116.39034,173.926653 116.166879,174.009576 116.017186,174.127499 C116.158263,172.515883 117.478033,171.314576 117.52434,169.657191 C116.393571,172.060345 114.981725,174.33696 114.395879,176.986191 C114.947802,176.015884 115.499186,175.046114 116.05111,174.075806" id="Fill-217"></path>
                        <path d="M66.3746914,56.5133308 C69.5338454,54.6594076 72.0953071,52.1189459 74.4930765,49.3921765 C71.7969994,51.7780998 69.1466916,54.2151768 66.3746914,56.5133308 L66.3746914,56.5133308 Z M84.636077,40.6464838 C84.531077,40.5344838 84.426077,40.4224837 84.321077,40.3104837 C81.5528461,42.8396377 78.5541536,45.1108686 76.1504612,48.0481765 L84.636077,40.6464838 Z M20.9979966,174.660953 C19.3756119,176.271491 18.6368426,181.265722 19.7013812,182.294184 C20.0050735,179.76503 20.0131504,177.140568 20.9979966,174.660953 L20.9979966,174.660953 Z M33.2797665,74.0477933 C29.4733817,76.6275627 26.0762277,79.5869474 24.431766,84.09064 C27.0492277,80.4490244 29.9246125,77.0416396 33.2797665,74.0477933 L33.2797665,74.0477933 Z M89.8338466,36.0582527 C96.1979238,31.0731755 102.871616,26.6480984 110.339002,23.5077905 C105.447078,24.1555598 91.8778467,33.1225603 89.8338466,36.0582527 L89.8338466,36.0582527 Z M87.5954618,154.957567 C86.0748463,157.995029 85.1325386,161.247875 84.237077,164.493183 C83.3211539,167.81226 82.0848461,171.016106 81.0122307,174.274337 C79.9983075,177.354337 78.5331536,180.286261 77.266692,183.283338 C82.6868462,174.541953 84.7082309,164.600337 87.5954618,154.957567 L87.5954618,154.957567 Z M33.1456896,106.202564 C33.1709973,106.015718 33.1295357,105.746487 33.2361511,105.659795 C33.4289204,105.502564 33.5285358,105.74218 33.6566896,105.883795 C34.0196127,106.282257 33.8499973,106.883718 34.3475358,107.282718 C35.2656128,108.017718 35.8972282,108.942795 36.3543821,110.111257 C36.7442282,111.107411 37.8082283,111.831642 38.533536,112.709334 C38.695613,112.904795 38.898613,113.235411 38.6896899,113.513257 C38.3014591,114.028565 38.6126899,114.197642 39.0402284,114.318796 C39.5684592,114.467411 39.8479207,114.866949 40.0272284,115.327334 C40.6744592,116.985796 41.5359977,118.560796 41.728767,120.387796 C41.8531516,121.566488 42.0432285,122.975104 42.4799209,123.835027 C43.6957671,126.231181 43.7399209,128.757642 43.6246902,131.157566 C43.5202286,133.330797 43.1023824,135.556797 43.2025363,137.733797 C43.2886901,139.614643 42.3426132,141.147643 42.0793055,142.899259 C41.7605362,145.01972 40.2905361,146.870413 40.0008438,149.074336 C39.8220746,150.428028 38.3929976,151.45649 38.4053822,152.528567 C38.4333822,155.007105 36.2380744,156.340875 35.850382,158.576029 C35.7270743,159.286798 35.4357666,160.351336 34.8176128,161.027644 C33.5473819,162.415798 33.1758434,164.337029 31.8603818,165.719798 C30.204074,167.461183 29.3441509,169.792722 27.577997,171.521183 C26.5172277,172.559876 25.6879969,173.899568 24.7596891,175.094953 C23.9186122,176.176184 23.9939968,177.852953 23.7161506,179.282568 C23.3133814,181.351876 24.5006891,182.963492 25.0364584,184.781338 C26.31692,189.124569 28.9855355,192.715031 32.1096895,195.611954 C38.2109976,201.270108 45.5184595,203.129416 53.6433061,200.167877 C54.4682292,199.867416 55.2920754,199.5648 56.1239985,199.285339 C61.0024603,197.647339 65.216999,194.939954 69.1316146,191.617107 C74.254538,187.268492 76.6803074,181.204338 79.5185383,175.464337 C80.5114614,173.456953 80.8975384,170.995645 81.6470769,168.766414 C82.1602307,167.240414 82.7126923,165.716568 83.0659231,164.150183 C83.4218462,162.570875 83.9070001,161.03626 84.3797693,159.496798 C84.8514617,157.960029 85.5159232,156.47549 85.8896156,154.918259 C86.2223848,153.533336 86.9035387,152.295951 87.1905387,150.860413 C87.5739233,148.941336 88.2001542,147.029797 88.721385,145.11449 C90.5952312,138.226489 91.9968467,131.248027 92.8411544,124.155411 C93.3090775,120.224642 93.6499237,116.256719 94.4640776,112.392718 C97.0939239,99.9041793 102.844693,88.8700249 110.765463,78.9531782 C114.305848,74.521101 118.061617,70.2597162 121.767848,65.9622544 C127.074926,59.809254 129.954618,52.4856383 132.12408,44.8028686 C133.473464,40.026176 133.239772,35.3070989 131.486541,30.6973294 C130.486618,28.0701754 128.997233,25.8764829 125.854772,25.3579445 C122.928771,24.8749444 120.073848,25.5679445 117.307233,26.079483 C115.662233,26.3842522 113.870232,27.1666369 112.219309,27.9651754 C108.258924,29.8815601 104.242001,31.6913294 100.798539,34.4805603 C99.9784625,35.143945 98.9575394,35.2327912 98.1380009,35.8956373 C97.0890777,36.7437143 96.3562315,37.8890221 95.2120007,38.6509452 C94.5550776,39.0876375 93.7678468,39.130176 93.1620775,39.690176 C89.3206927,43.2386377 84.9785386,46.2233302 81.5113846,50.2014843 C80.3079229,51.5831767 78.8212306,52.7144844 77.5100766,54.0067922 C72.5869225,58.8567155 66.8576914,62.485408 60.4036911,64.8562543 C52.4915368,67.7628699 45.1076133,71.6591778 38.2002283,76.4197165 C35.5590743,78.2397166 32.7299973,79.9563321 30.8362279,82.7234861 C29.7383048,84.32864 28.3264586,85.9650247 28.1552278,87.803871 C27.9010739,90.5236404 27.6243047,93.3640251 28.5504586,96.0735637 C28.7739201,96.7272561 28.3754586,97.638333 28.5143816,97.8617946 C29.0501509,98.7195639 29.3732278,99.6898716 29.9536894,100.512641 C31.2072279,102.291179 32.9356896,103.811256 33.1456896,106.202564 L33.1456896,106.202564 Z M31.6433818,158.654644 C32.0601511,158.497413 32.1635357,158.080644 32.3073049,157.747336 C33.6760742,154.577952 35.1557666,151.447336 36.0716897,148.104567 C36.607459,146.148336 37.5476129,144.284182 37.5169206,142.186874 C36.5708436,145.896336 34.9220743,149.355413 33.7509204,152.981413 C33.1295357,154.905875 31.9669972,156.635952 31.6746126,158.683183 C30.0016125,160.889798 29.1804586,163.540106 27.8278431,165.913644 C29.2585355,163.576183 30.940151,161.367413 31.6433818,158.654644 L31.6433818,158.654644 Z M93.743616,149.836797 C93.6854621,149.479797 93.7414622,149.162644 93.3855391,148.983336 C93.3225391,149.532567 92.8804621,150.057028 93.6073852,150.538413 C94.0300776,150.817874 93.6326929,151.272336 93.5244621,151.61049 C92.5503852,154.651721 91.6032313,157.705875 90.6625389,160.751952 C89.7676158,163.652106 88.6987696,166.512414 88.0278465,169.482568 C87.691308,170.973568 86.9681541,172.313799 86.4205387,173.720799 C86.1685387,174.366953 85.9563848,174.983491 85.9563848,175.685645 C85.9558463,177.113645 85.8567694,177.150799 84.5364616,176.400184 C84.426077,176.337722 84.2591539,176.375414 84.0809232,176.364107 C84.0809232,176.522953 84.0319232,176.680184 84.0879232,176.774414 C84.9300771,178.172261 84.7518463,179.848491 83.7626924,181.195184 C83.1100769,182.083645 82.5161538,182.982338 82.234,184.149722 C81.8102307,185.906723 80.6056922,187.289492 79.206769,188.44503 C79.0796921,188.55003 78.7905383,188.501569 78.7770767,188.74603 C78.6984613,190.194492 77.532692,190.889107 76.6533843,191.751723 C75.8139227,192.575031 74.7789996,193.176492 73.9901534,194.080569 C72.6402302,195.629185 71.1217686,196.911262 69.2716147,197.942415 C68.4176146,198.418416 67.550153,199.322492 66.5992299,199.695108 C63.0857682,201.072493 59.640691,202.61357 56.0819985,203.897262 C50.0689982,206.066724 44.1491517,205.430262 38.1813822,203.982339 C34.6706127,203.130493 31.4969203,201.5598 28.5956893,199.402723 C27.4864585,198.5778 26.5888431,197.573569 25.6772276,196.554262 C22.1939198,192.661723 19.7519965,188.205415 18.5253811,183.139569 C17.7397657,179.895338 18.2351503,176.72326 19.8602273,173.802645 C20.2877658,173.03426 20.6167658,172.026799 22.0593044,172.200722 C22.687689,172.276645 23.3112275,171.107645 23.7985352,170.365645 C27.2441508,165.120491 30.0457663,159.549029 32.3019203,153.695952 C34.6770743,147.534874 36.7496129,141.309182 37.5497668,134.695258 C38.1307668,129.894335 37.4819206,125.28995 36.3118436,120.657027 C35.3749205,116.946488 33.4386127,113.844411 31.2276895,110.823641 C29.5708432,108.560487 28.088997,106.170257 26.4531508,103.890949 C25.8732276,103.083256 26.6049969,102.567949 26.7767662,101.529256 C25.8813046,102.746718 25.7343046,102.502256 25.3530738,101.500718 C24.971843,100.499718 24.2729199,99.5649485 23.7209968,98.5946408 C22.540689,96.5172561 21.8659967,94.2524867 21.8433813,91.9187943 C21.8347659,91.0335635 21.3722274,90.2947942 21.4917659,89.456948 C21.6419966,88.4004864 21.7157659,87.3171017 22.0146121,86.3010247 C22.5423044,84.5041785 22.8734583,82.6098707 24.6299199,81.3897168 C25.1150738,81.0526398 24.8269968,80.0069475 25.3783815,79.4151782 C27.7379201,76.8817165 29.9596125,74.1818702 32.9103819,72.3031778 C39.9308438,67.8328699 47.284075,64.0254081 54.9867677,60.8172541 C60.3498449,58.5831771 65.470076,55.7611 69.6969993,51.6106382 C75.9173073,45.5034071 82.4601538,39.7547914 89.1914619,34.2231757 C95.5727699,28.979637 102.410155,24.4797136 110.251232,21.6640981 C113.543386,20.482175 116.919002,19.7805595 120.407694,19.5398672 C125.387387,19.1963287 129.116233,21.4627135 132.009387,25.2270983 C137.565234,32.4570218 138.869388,40.5937145 136.731695,49.343715 C135.294541,55.2285615 133.177849,60.8716387 130.192618,66.1539467 C128.791003,68.6330238 127.455618,71.1422547 125.144002,73.0284855 C124.041233,73.9282548 123.450541,75.4477934 122.603002,76.6690242 C119.704464,80.8442552 116.058002,84.4244862 113.172925,88.6250249 C111.888155,90.4951019 110.802078,92.4680251 109.591078,94.3720252 C106.948309,98.5273331 105.143924,103.11341 103.157001,107.585334 C101.413463,111.509103 100.782924,115.796873 100.154539,120.046411 C99.4782317,124.62495 98.7620778,129.199181 97.9823855,133.761027 C97.5322316,136.396258 97.2183085,139.117105 96.2808469,141.585951 C95.6298469,143.301489 95.6056161,145.12849 94.8264622,146.791259 C94.3790006,147.744874 94.8598468,149.051182 93.743616,149.836797 L93.743616,149.836797 Z" id="Fill-219"></path>
                        <path d="M77.5230536,131.056604 C77.6695151,131.133604 77.8165151,131.211143 77.9629767,131.288143 C78.4335921,130.03945 79.7711306,129.151527 79.155669,127.446219 C78.6112844,128.649681 78.0674382,129.853143 77.5230536,131.056604 L77.5230536,131.056604 Z M49.481052,84.0962938 C46.4274365,84.6697554 43.295744,87.5451402 43.6139748,89.4932941 C45.0925902,87.0788325 47.2356673,85.5318324 49.481052,84.0962938 L49.481052,84.0962938 Z M75.3557458,65.6405236 C75.2663611,65.5215236 75.1764381,65.403062 75.0870534,65.285139 C71.0184378,68.8115238 66.9492838,72.338447 62.8812066,75.8653703 C62.9673605,75.9660626 63.0540528,76.0667549 63.1407451,76.1679857 L75.3557458,65.6405236 Z M87.1017464,54.419523 C90.9264389,51.5952921 94.8572084,48.9347534 99.0819778,46.7216764 C103.352517,44.4843686 107.672594,42.3569069 112.053517,40.3726761 C103.152747,44.0078301 94.357516,47.8389842 87.1017464,54.419523 L87.1017464,54.419523 Z M59.6197449,168.624529 C60.6487449,166.947221 61.8974373,165.468068 62.7368989,163.634067 C64.6371298,159.484683 66.8426684,155.473144 68.6508223,151.272067 C71.3458225,145.01299 74.1818995,138.820143 77.5068997,132.863681 C77.7147459,132.490527 77.9080536,132.11522 77.3561305,131.574066 C70.7427455,143.69322 66.0408991,156.574298 59.6197449,168.624529 L59.6197449,168.624529 Z M87.4878233,60.884831 C85.7636694,61.6564465 84.9112847,63.3240619 83.6739001,64.5964466 C82.048823,65.5409082 81.1501307,67.2419083 79.7038229,68.3829084 C77.2102074,70.3499085 74.6503611,72.2539086 72.3177456,74.4012933 C67.4904376,78.8462936 62.1602066,82.4766014 56.2495139,85.3336785 C54.055283,86.3949863 51.4954367,86.6216786 49.6205136,88.4567556 C48.4735904,89.5789095 47.0795134,90.4862173 46.9761288,92.2437558 C46.8226673,94.847756 47.2297442,97.3639869 48.4843597,99.7046793 C50.8040521,104.031756 53.9287446,107.814449 56.6598216,111.863142 C59.4980526,116.07068 62.0342066,120.351988 62.6803604,125.591758 C63.2974374,130.603758 62.9258989,135.571604 62.6313604,140.548066 C62.5715912,141.556066 61.8893604,142.51722 61.8522065,143.684605 C61.8010527,145.315066 61.7843604,147.127528 60.7488988,148.463451 C58.8809756,150.874682 58.2617448,153.815759 57.0388986,156.491913 C56.6382832,157.369606 56.8838217,158.66299 56.1132832,159.334452 C55.0848216,160.23099 54.8080523,161.411298 54.3158984,162.538298 C54.1242061,162.978221 53.8576676,163.420298 53.5200522,163.75576 C52.4059753,164.863375 51.7043598,166.325837 50.9284367,167.589606 C49.4051289,170.071375 47.7095135,172.268299 45.5696672,174.215376 C44.9531287,174.776991 43.9790517,174.708607 43.6085902,175.584145 C43.2381286,176.458068 42.5569747,177.10476 41.8429747,177.707299 C41.1138977,178.322761 40.7412823,179.127761 40.45159,180.06953 C40.9862823,180.222991 41.3314362,180.004915 41.6835901,179.875684 C43.8988209,179.064222 45.7931287,177.632991 47.9324366,176.659991 C51.6849752,174.953068 54.8505908,172.476683 57.3571294,169.166222 C59.232591,166.689298 60.5055142,163.886606 61.8478989,161.122144 C64.507899,155.643298 67.2109761,150.181682 69.7056685,144.626913 C71.1029763,141.515143 72.5562841,138.435143 74.1027457,135.401451 C76.6722843,130.36145 78.9618229,125.192219 81.1932076,120.003065 C82.9803616,115.847219 84.4595155,111.56268 85.4276694,107.120372 C86.2719771,103.241833 87.7441311,99.5657562 89.1834388,95.8832176 C91.9236697,88.871371 94.7112853,81.8875245 99.2289778,75.7555242 C103.287901,70.2459854 107.399055,64.7736005 111.067055,58.9851386 C113.804594,54.664523 116.180825,50.1925997 117.347133,45.1692917 C117.472056,44.6302917 117.871594,43.9232916 117.413363,43.5269839 C117.025133,43.1909839 116.391902,43.6325224 115.901363,43.8263686 C110.757978,45.8617533 105.806824,48.2853688 101.016132,51.0579074 C100.150824,51.5586767 99.3819009,52.6910613 98.0578239,52.1375229 C97.8709778,52.0594459 97.4805931,52.3216767 97.5942085,52.5462152 C97.9953624,53.3399075 97.216747,53.3302152 96.9184392,53.5272922 C95.0343622,54.7727538 93.174516,56.0483692 91.3367466,57.3627539 C89.8990542,58.390677 88.900208,59.855831 87.4878233,60.884831 L87.4878233,60.884831 Z M49.523052,162.437606 C49.9382059,162.408529 50.0572059,162.07199 50.2095905,161.773144 C52.1372829,157.989913 53.5668984,153.98699 55.317437,150.127297 C56.1568985,148.274451 55.8698985,146.051682 57.2801294,144.403989 C57.5213602,144.121836 57.4454371,143.843989 57.1088986,143.699682 C56.6673601,143.510143 56.4298986,143.804682 56.3803601,144.165451 C56.1886678,145.572451 55.5166677,146.806605 55.0498216,148.116682 C53.8468984,151.491221 52.816283,154.914221 51.2068213,158.150375 C50.5380521,159.49599 49.7965905,160.912683 49.5569751,162.469914 C48.3675135,164.045991 47.5183596,165.800837 46.8544365,167.652068 C47.6874365,165.885375 49.285052,164.510683 49.523052,162.437606 L49.523052,162.437606 Z M101.767286,80.4196783 C102.289593,81.3038322 102.11244,81.858986 101.761363,82.7151399 C100.905747,84.8027554 99.1584394,86.4429094 98.8283624,88.7717556 C98.7109778,89.6031403 98.0653624,90.2309865 97.6701316,90.9304481 C96.6637469,92.710602 96.4704392,94.7820637 95.5652853,96.5164484 C94.7064391,98.1619869 94.3381314,99.9642178 93.4625929,101.573141 C92.9973621,102.427141 93.1610544,103.490603 92.5552852,104.318756 C92.1465928,104.876603 91.1364389,108.349141 91.0190543,109.017372 C90.7245158,110.700603 90.3820543,112.375757 90.042285,114.050911 C89.9841312,114.338449 89.8549004,114.634065 89.4634388,114.572142 C89.0595927,114.508603 88.8641311,114.692219 89.019208,115.050834 C89.5996696,116.394834 88.9066696,117.598834 88.3902849,118.654219 C86.8885156,121.721296 85.5843617,124.873988 84.2656693,128.013758 C84.0045155,128.636219 82.7913615,128.467142 83.2237462,129.707219 C83.4418231,130.33345 82.7369769,131.41845 82.2491307,132.228296 C81.7742076,133.018758 81.4548999,133.900758 81.0246691,134.720297 C77.8558228,140.761297 74.9438227,146.922374 72.1847456,153.162605 C70.6544378,156.623836 68.8279762,159.952606 67.2158222,163.379375 C66.8087453,164.245221 66.5422068,165.217144 66.2686683,166.143298 C66.0172068,166.994068 65.6483606,168.214222 64.6091298,168.748914 C64.4163605,168.847991 64.2962836,168.93576 64.2332836,169.133375 C62.9625143,173.135222 59.548668,175.228222 56.5042063,177.572145 C54.3245138,179.25053 51.6661291,180.241838 49.1929751,181.401684 C47.6626673,182.118915 46.2551288,183.260453 44.4722825,183.512453 C42.6851286,183.76553 40.9098208,184.088069 39.0978976,184.124684 C37.340359,184.160222 35.715282,183.748838 34.2598204,182.738684 C33.4973588,182.209915 33.3815896,181.537915 33.7143588,180.688761 C34.5387435,178.582838 35.7820513,176.819914 37.6968206,175.567991 C38.4302053,175.087683 39.2142053,174.671991 39.7025899,173.887991 C40.0509746,173.32853 40.6411285,174.032837 41.2883593,173.396376 C43.5784363,171.143991 45.004821,168.404837 46.4737442,165.651683 C49.516052,159.948836 51.7808214,153.919144 53.9615907,147.856067 C54.9049754,145.232143 55.3960523,142.496759 55.8252062,139.746297 C56.0965908,138.009758 56.2791293,136.272143 56.395437,134.521066 C56.4487447,133.709066 56.7755909,133.041912 57.7722832,133.53622 C58.3667448,133.831297 58.5498218,133.398912 58.8287448,133.093066 C59.0268987,132.875527 58.9865141,132.626758 58.7958987,132.443681 C58.4480525,132.110912 58.1459756,132.457681 57.8740525,132.590143 C56.7583601,133.132912 56.3938216,132.809297 56.4503601,131.589143 C56.6075909,128.226989 56.6926678,124.863758 55.8192831,121.558681 C55.3847447,119.911527 54.7746677,118.331142 53.97936,116.838526 C51.6548214,112.473218 48.6523597,108.53868 45.9972057,104.382295 C44.0549748,101.339987 42.0572824,98.2982177 41.6491285,94.5849867 C41.5538208,93.7207559 40.8678208,92.6675251 42.0632055,91.9659097 C42.1294362,91.9276789 42.1875901,91.8049097 42.1822055,91.7262943 C41.950667,88.3296787 42.055667,88.2446018 44.3640517,85.8640632 C45.8620518,84.3192169 47.6890519,83.2444476 49.5505136,82.3888322 C56.3997447,79.2393705 62.1715143,74.6570626 67.8215915,69.7532931 C74.6993611,63.7833696 80.9654384,57.1226001 88.1108234,51.4908305 C95.9389777,45.3222148 104.893055,41.0952915 114.39744,38.1752144 C119.414287,36.6341374 123.131287,40.3780607 122.037671,45.5844456 C120.945671,50.7827535 118.974364,55.6482923 116.355825,60.2774464 C113.349594,65.5909851 109.905055,70.6250623 106.571978,75.7253703 C105.65767,77.1248319 104.882286,78.6427551 103.767132,79.9339859 C103.188824,80.6032937 102.75967,81.1912937 101.767286,80.4196783 L101.767286,80.4196783 Z" id="Fill-221"></path>
                        <path d="M87.4877695,60.8849387 C86.6235387,62.5396311 85.2633848,63.6865543 83.6738462,64.5965543 C84.9112309,63.3241696 85.7636156,61.6565541 87.4877695,60.8849387" id="Fill-223"></path>
                    </g>
                    <g id="89" transform="translate(64.500000, 101.000000) scale(-1, -1) translate(-64.500000, -101.000000) ">
                        <path d="M108.085411,10.8060975 C108.074587,10.7278484 108.063764,10.6500824 108.05294,10.5718333 C106.080235,10.7964371 104.107999,11.0210409 102.135294,11.2456446 C102.148941,11.3436974 102.162588,11.4412672 102.175764,11.538837 C104.145647,11.2944295 106.115529,11.050505 108.085411,10.8060975 M97.3301175,25.253674 C96.1108235,24.6668061 95.5809411,23.9103986 95.3310588,22.8796364 C93.9480001,17.1548971 96.8491764,10.1037881 104.910352,9.86710885 C108.736705,9.75456546 111.776234,8.37409761 113.594587,4.68914689 C114.227999,3.40624885 115.025646,2.18662628 115.899058,1.06119239 C116.296705,0.548709401 117.04541,0.123169804 117.663763,0.0787320708 C117.958822,0.0574792419 118.542352,0.988739564 118.60494,1.53599991 C118.708469,2.44504136 118.761646,3.53521488 118.370587,4.29693559 C117.218587,6.5405581 115.978587,8.76824099 114.505646,10.7969201 C113.141881,12.6753804 111.165881,13.5752445 108.84494,14.1394105 C106.517882,14.7045425 104.151294,14.2331161 101.836941,15.0697048 C99.6835291,15.8478481 97.1771763,19.6607988 97.3202352,22.0773421 C97.3781175,23.0544892 97.3301175,24.0383986 97.3301175,25.253674" id="Fill-1" fill="#4FBF9F"></path>
                        <g id="98" transform="translate(38.000000, 162.000000) scale(-1, -1) rotate(21.000000) translate(-38.000000, -162.000000) translate(10.000000, 130.000000)" fill="#FDBF5E">
                            <path d="M28.9463672,12.2991634 C22.9615971,16.6650874 17.7394049,21.8020515 13.3053459,27.7360187 C8.86242762,33.681601 5.30373154,40.0777823 3.39967239,47.3088867 C8.31826469,32.9969913 17.4463678,21.7856536 28.9463672,12.2991634 M7.38599808,48.4399958 C8.05316841,47.4923375 8.38641283,46.4257949 8.50567209,45.2830706 C8.91217577,45.2287528 8.87367206,44.8454533 8.98884243,44.5936782 C9.65396831,43.1383702 10.2127831,41.6345519 10.9934201,40.2318536 C11.0649756,40.1030623 11.2329608,39.953432 10.9995534,39.7221542 C10.0907979,41.570327 9.08254613,43.3337777 8.53190912,45.3076674 C8.02488693,46.31101 7.63099066,47.3550056 7.40814623,48.4628845 C6.98903514,49.4426552 6.73416108,50.46752 6.5627685,51.5152735 C6.81253145,50.4839179 7.45619067,49.5577817 7.38599808,48.4399958 M6.93485736,55.6150743 C8.55678319,46.0916889 12.8920274,37.7892592 18.6416863,30.119171 C18.4542789,30.3337093 18.2559678,30.5397072 18.0804863,30.7634693 C12.6368126,37.7055619 8.65491652,45.3671095 6.65544997,54.0138939 C6.02201297,56.751991 5.48296115,59.5140016 4.66586491,62.207688 C4.51048714,62.7194371 4.57079825,63.3804749 3.61774645,62.8953723 C3.16081314,62.6627279 2.47865022,63.0918047 1.8734947,63.142023 C1.38180584,63.1830176 1.35420585,63.3374306 1.28401326,62.8779495 C1.23119845,62.5332534 0.835257728,62.384648 0.914650316,61.995541 C0.634220703,62.1034934 0.749391066,62.5807388 0.444428122,62.5031907 C0.108457771,62.4177853 0.0696133292,62.0819712 0.0529170339,61.7447907 C-0.0901940687,58.8966914 0.0641614777,56.0660148 0.432842937,53.2394377 C1.19507993,47.395317 2.94682797,41.8613886 5.62164263,36.6250127 C9.12241279,29.7720834 13.7067384,23.7164989 19.1091826,18.2560192 C25.5324859,11.7641839 33.0250336,6.86635505 41.3057146,3.12833149 C44.292307,1.77995103 47.3286475,0.563436507 50.6154325,0.147683018 C50.9527659,0.104980318 51.2914621,0.0622776179 51.6308399,0.0431468082 C51.9044547,0.0277738362 52.2670028,-0.0378175113 52.031551,0.45958354 C51.9518176,0.628686233 51.9978176,0.834684058 52.1893139,0.765334873 C52.9938028,0.474956512 53.408825,1.16298242 54.004099,1.40758348 C54.7022767,1.69454563 54.8273286,2.37061478 54.9864545,2.88748826 C55.17761,3.50787309 54.7441878,3.94856495 54.0282916,4.19931521 C47.2717438,6.56777777 41.2978775,10.3563613 35.6054631,14.6133081 C27.2971821,20.8270634 20.2240862,28.221463 14.6485458,37.01207 C11.5215682,41.9420113 9.21100538,47.2344132 7.70288695,52.8786853 C7.45823511,53.7938896 7.19143513,54.7029446 6.93485736,55.6150743" id="Fill-1"></path>
                            <path d="M18.9889229,52.7218062 C18.4500288,53.52347 18.2117701,54.4407161 18.1807522,55.4118783 C18.4500288,54.5151876 18.7196463,53.6184969 18.9889229,52.7218062 M19.9927452,56.3297984 C20.3642788,55.1372436 21.038152,54.0481401 21.1131404,52.7784181 C20.6151491,53.928177 20.1440855,55.0850125 19.9927452,56.3297984 M19.9797927,59.0940049 C21.4972857,55.6069868 22.7230056,52.0006796 24.4784164,48.6107103 C22.2311497,51.7937769 21.1557475,55.4657943 19.9797927,59.0940049 M23.0570449,39.9110248 C18.5768274,44.4837766 15.7426059,51.7334584 15.6679583,56.0686427 C17.0975103,50.1011511 17.278846,49.7068902 23.0570449,39.9110248 M39.0060601,32.6064161 C39.3131718,32.3300965 39.5531348,32.1144325 39.9999976,31.7127582 C39.7726463,32.5417169 39.3925914,32.9625987 39.0125364,33.3804478 C37.2284936,35.3392839 35.3398079,37.1953427 33.4034023,39.0065837 C30.0616454,42.1320275 27.006208,45.4909951 24.7142891,49.4720186 C23.2571277,52.0033754 22.2556913,54.7284928 21.1871063,57.4269892 C20.8840849,58.1922596 20.6015149,59.0050435 20.1062504,59.6412525 C19.8315201,59.9944023 19.1985496,60.1140285 18.9350676,60.5965768 C18.5546718,60.3876523 18.9391579,60.0328175 18.6927186,59.8410787 C18.1163303,60.1369428 17.6234519,60.8877233 16.851412,60.1251487 C16.7454056,60.0203494 16.625765,60.3448564 16.5180543,60.471896 C16.2726377,60.7610206 15.9808645,60.8789619 15.616489,60.7448458 C15.2480231,60.6093819 15.0233987,60.3967506 14.9695434,59.9532914 C14.8945549,59.3389858 15.2057569,58.7846618 15.2026892,58.0773511 C14.7036753,58.3668127 14.8417222,58.8247618 14.6777702,59.1371377 C14.5629016,59.3554976 14.6205063,59.7591937 14.2234086,59.7322357 C13.8576696,59.7076365 13.7158733,59.4057069 13.6620179,59.0902982 C13.6160023,58.8207181 13.5914607,58.5417028 13.6027089,58.268753 C13.9012992,51.0780418 16.2613894,44.6421549 20.8230716,39.0119753 C23.1729361,36.1112938 25.6990234,33.3871873 28.7575286,31.188425 C30.257297,30.1104417 31.9370377,29.4226756 33.7071054,28.9313659 C34.2794034,28.7726506 34.8571552,28.6698732 35.3619636,29.159835 C35.4761505,29.2706998 35.7000932,29.3050713 35.8766569,29.3138326 C37.3382494,29.3842604 38.3400266,30.3116158 39.3090815,31.2106653 C39.7136782,31.5857186 38.9590219,31.9836861 39.0060601,32.6064161" id="Fill-4"></path>
                            <path d="M4.79999971,62.3999963 C5.4508969,60.5826352 5.60580064,58.6568962 6.38634961,56.7999966 C6.53333855,57.5851192 5.45918859,61.4538953 4.79999971,62.3999963" id="Fill-6"></path>
                        </g>
                        <path d="M103.203766,31.983397 C103.144742,31.206373 102.883815,30.3813904 103.060421,29.6597034 C103.913937,26.1665543 108.790971,23.4983878 112.064032,25.0510523 C116.521803,27.1653874 119.780811,25.5200335 122.952687,22.611151 C124.026843,21.6261521 125.276199,20.7942523 126.549915,20.0707208 C126.909216,19.866435 127.975409,20.1380475 128.127187,20.4608467 C128.458381,21.1627046 128.805971,22.4248497 128.450417,22.7785454 C126.349418,24.8665955 124.240924,27.0496408 121.763292,28.6401189 C119.089847,30.3569498 115.996202,30.9435222 112.860866,29.3143082 C111.46629,28.5898545 110.061408,27.8478773 108.322052,28.2887289 C106.44591,28.7641661 105.077098,29.7823672 104.132234,31.4138869 C104.01278,31.6209395 103.852101,31.8049351 103.710629,31.9999988 C103.541519,31.9944644 103.372408,31.9889307 103.203766,31.983397" id="Fill-4" fill="#4FBF9F"></path>
                        <path d="M124.479686,46.949001 C124.465156,46.8540695 124.450627,46.759138 124.435628,46.6646742 L115.378155,46.6646742 C115.376749,46.759138 115.375812,46.8540695 115.374406,46.949001 L124.479686,46.949001 Z M103,43.0441839 C103.041244,42.1257336 103.070303,41.4794513 103.099362,40.833169 C104.101426,42.351605 105.083335,40.9856205 105.977131,40.9290357 L104.533091,40.9290357 C104.192821,40.2710624 106.130862,40.553051 104.686822,39.5897069 C106.51144,39.2801274 108.164517,38.6974445 109.486697,40.0811994 C110.060376,40.6821204 111.248979,41.0328524 111.181487,42.5003154 C111.232575,42.5386621 111.701267,42.7285251 111.91874,43.0750484 C113.668367,45.8687462 116.397561,46.0950853 119.282829,45.9608718 C120.853415,45.8874519 122.440407,45.658307 123.989434,45.8107585 C125.166788,45.9267339 126.336175,46.4444144 127.433851,46.9471304 C128.48794,47.4302054 128.575585,48.5810742 128.599998,49.5504976 C128.606987,49.8376303 127.708505,50.4301337 127.259029,50.3988016 C124.330173,50.1963123 121.41069,49.8605448 118.46543,49.6636672 C119.115974,49.6201764 119.765581,49.5771533 120.416126,49.5336625 C120.423625,49.4644514 120.430187,49.3947726 120.437686,49.3260291 C120.141941,49.2806678 119.83073,49.2797325 119.55467,49.1810599 C119.060669,49.0052262 118.569011,48.806478 118.112973,48.5516127 C117.610535,48.2710271 117.149811,47.9160862 116.561134,47.835184 C116.780013,48.2775741 116.998424,48.7204318 117.117003,48.9598648 C116.521295,49.1286839 116.191805,49.2713149 115.85294,49.3031146 C115.515951,49.3344467 115.067881,49.379808 114.842909,49.2007009 C113.843658,48.4057082 112.6424,47.9628505 111.96889,46.6249245 C111.128525,44.954037 109.785254,43.532403 108.631803,42.0237874 C108.47151,41.8138158 108.147175,41.5837356 107.911892,41.5972972 C106.615958,41.6716524 105.316275,41.7731309 104.03534,41.9742173 C103.740064,42.0205139 103.51228,42.4951713 103,43.0441839 L103,43.0441839 Z" id="Fill-6" fill="#4FBF9F"></path>
                    </g>
                </g>
            </g>
        </g>
    </g>
</svg>