<?xml version="1.0" encoding="UTF-8"?>
<svg viewBox="0 0 134 107" version="1.1" xmlns="http://www.w3.org/2000/svg" xmlns:xlink="http://www.w3.org/1999/xlink">
    <!-- Generator: sketchtool 61 (101010) - https://sketch.com -->
    <title>2C2DF537-1F6A-4B58-A1F6-7FC65479C0E2</title>
    <desc>Created with sketchtool.</desc>
    <g id="Page-1" stroke="none" stroke-width="1" fill="none" fill-rule="evenodd">
        <g id="Case-Study-for-Edplus" transform="translate(-826.000000, -1160.000000)" fill="#2EA2DB">
            <g id="Case-study" transform="translate(120.000000, 1020.000000)">
                <g id="28" transform="translate(773.500000, 194.000000) rotate(1.000000) translate(-773.500000, -194.000000) translate(707.000000, 140.000000)">
                    <path d="M55.9366272,59.7131065 C56.0861538,59.6145266 56.2584615,59.5461834 56.3657396,59.4215089 C56.6225444,59.1228698 56.8031361,58.7434615 57.0976331,58.4949408 C57.7798225,57.9192012 58.089645,57.0754734 58.6720118,56.4305621 C58.8513609,56.2313314 58.6073964,55.7214497 59.1450296,55.7492012 C59.1007101,55.5677811 58.9776923,55.3586095 59.0298817,55.211568 C59.1089941,54.989142 59.4594083,54.9042308 59.4126036,54.5832249 C59.3972781,54.4792604 59.3819527,54.3682544 59.3314201,54.2804438 C59.3086391,54.2406805 59.1814793,54.219142 59.1350888,54.2460651 C59.086213,54.274645 59.0597041,54.3699112 59.0539053,54.4386686 C59.0476923,54.5165385 59.1156213,54.6341716 59.0816568,54.6718639 C58.5738462,55.2331065 58.3555621,55.9857101 57.7574556,56.5096746 C57.4385207,56.788432 57.1581065,57.2324556 56.9733728,57.6164201 C56.8076923,57.9610355 56.7178107,58.1784911 56.3421302,58.3686095 C55.8773964,58.6038757 55.5762722,59.0657101 55.9366272,59.7131065 M64.198284,53.4292604 L64.198284,53.9743491 C64.404142,53.8948225 64.5772781,53.8281361 64.9972781,53.6657692 C64.5863905,54.2348817 64.3337278,54.5836391 64.0491716,54.9783728 C63.9584615,54.7555325 63.9066864,54.5186095 63.8540828,54.5181953 C63.6991716,54.5181953 63.5413609,54.6047633 63.3897633,54.6697929 C63.1731361,54.7621598 63.364497,55.258787 62.9283432,55.1411538 C62.8140237,55.4932249 62.4313018,55.7690828 62.6272189,56.2089645 C62.8450888,56.2652959 63.0629586,56.3220414 63.3454438,56.395355 C62.726213,56.9267751 62.7266272,56.9271893 62.3501183,57.8831657 C62.3248521,57.9473669 62.2908876,58.0111538 62.2486391,58.0658284 C61.9678107,58.4311538 61.966568,58.4299112 62.2527811,58.7418047 C62.9975148,57.7630473 62.9975148,57.7630473 63.1288166,56.959497 C63.2559763,57.021213 63.2895266,57.1993195 63.5430178,57.0406805 C63.8727219,56.8352367 63.436568,56.3510355 63.9650888,56.2495562 C64.3987574,56.1663018 63.9833136,55.6481361 64.1895858,55.4480769 C64.4066272,55.4828698 64.601716,55.5640533 64.7715385,55.5280178 C64.9488166,55.4899112 65.102071,55.3383136 65.157574,55.3039349 C65.1306509,54.978787 65.1095266,54.7252959 65.0846746,54.418787 L65.5084024,54.418787 C66.0054438,53.9581953 65.7826036,53.3704438 66.1839645,52.9839941 C66.2274556,52.9421598 66.1611834,52.7855917 66.1346746,52.6124556 C65.9159763,52.6998521 65.7440828,52.7681953 65.5730178,52.8365385 C65.5129586,52.6923964 65.4599408,52.5639941 65.4065089,52.4355917 C65.2917751,52.4906805 65.1,52.522574 65.0747337,52.6045858 C64.9322485,53.0759467 64.5602959,53.2726923 64.198284,53.4292604 M16.8186391,47.6818047 C16.7084615,47.8155917 16.5713609,47.9357101 16.4922485,48.0864793 C16.023787,48.979497 15.6928402,49.9375444 15.1494083,50.8011538 C14.8979882,51.200858 14.8354438,51.7186095 14.6792899,52.1800296 C14.5343195,52.6078994 14.2112426,53.0577219 14.2700592,53.4520414 C14.3475148,53.9660651 13.5228402,54.2257692 14.0028994,54.7551183 C13.565503,55.5247041 13.4590533,56.4065385 13.1653846,57.225 C12.9777515,57.7489645 12.7830769,58.2754142 12.6571598,58.8155325 C12.5287574,59.3626923 12.3092308,59.9177219 12.2649112,60.4400296 C12.2214201,60.9573669 11.8018343,61.4755325 12.1580473,62.0583136 C12.2433728,62.1983136 12.0213609,62.7355325 11.8598225,62.7773669 C11.3491124,62.9090828 11.4572189,63.0842899 11.7102959,63.3547633 C11.2712426,63.7250592 11.7450888,64.3355917 11.3192899,64.7543491 C11.1266864,64.9440533 11.1246154,65.342929 11.0711834,65.6527515 C11.0185799,65.9563609 11.1672781,66.0549408 11.4576331,65.9373077 C11.5085799,65.5835799 11.4601183,65.1656509 11.6361538,64.8914497 C11.8623077,64.5397929 11.5251479,64.0626331 11.9973373,63.7822189 C12.2284615,63.6451183 11.953432,63.1542899 12.3485799,62.9927515 C12.4040828,62.9699704 12.392071,62.7951775 12.4218935,62.6941124 C12.8302959,61.3185503 13.0581065,59.893284 13.5576331,58.544645 C13.7407101,58.0500888 13.7477515,57.5240533 13.9705917,57.0245266 C14.1627811,56.5933432 14.2497633,56.0979586 14.4452663,55.6448225 C14.6523669,55.1651775 14.7236095,54.6354142 14.8673373,54.132574 C15.4786982,51.9907396 16.305858,49.9205621 16.8186391,47.6818047 M22.4526036,48.0061243 C22.0690533,48.3602663 21.7426627,48.5155917 21.7078698,48.7202071 C21.5740828,49.5100888 21.1718935,50.1504438 20.8115385,50.8413314 C20.4636095,51.5081953 20.240355,52.2545858 19.9342604,52.9574852 C19.6298225,53.6574852 19.2980473,54.3947633 19.2317751,55.1386686 C19.1282249,56.2942899 18.6572781,57.3136391 18.3242604,58.3851775 C18.0136095,59.3850592 17.8578698,60.4292604 17.4055621,61.3906213 C17.2440237,61.7327515 17.2042604,62.1465385 17.1740237,62.5329882 C17.1288757,63.109142 17.1408876,63.6720414 16.9731361,64.2539941 C16.8078698,64.8260059 16.8791124,65.4618047 16.7631361,66.0785503 C16.6653846,66.5975444 16.4889349,67.1244083 16.4864497,67.6686686 C16.4839645,68.2112722 16.3580473,68.7451775 16.3025444,69.2724556 C16.1857396,70.3821006 15.8353254,71.4366568 15.7077515,72.5351183 C15.6920118,72.6697337 15.8195858,72.8234024 15.7984615,72.9547041 C15.7715385,73.1195562 15.6580473,73.269497 15.5847337,73.4277219 C15.5205325,73.5664793 15.4600592,73.7068935 15.3933728,73.8572485 C15.5122485,73.8738166 15.5843195,73.8800296 15.6543195,73.8949408 C15.6870414,73.9019822 15.7450296,73.9322189 15.7429586,73.942574 C15.6435503,74.4706805 15.8713609,74.9577811 15.9438462,75.4722189 C16.0357988,74.9934024 15.877574,74.432574 16.0755621,74.0614497 C16.3344379,73.5747633 16.0606509,73.0412722 16.2930178,72.6871302 C16.6078107,72.2074852 16.3982249,71.7485503 16.4897633,71.2933432 C16.5510651,70.9864201 16.7594083,70.6302071 16.664142,70.3907988 C16.5605917,70.1306805 16.5630769,70.0176036 16.6363905,69.7417456 C16.7623077,69.2707988 16.9221893,68.7609172 16.9155621,68.2816864 C16.9002367,67.1078402 17.071716,65.972929 17.3989349,64.8595562 C17.6474556,64.0141716 17.8131361,63.1480769 17.9999408,62.2931657 C18.1888166,61.429142 18.5338462,60.6239349 18.7430178,59.7748225 C19.0284024,58.6175444 19.4409467,57.4992012 19.737929,56.3431657 C19.9330178,55.5860059 20.2900592,54.8321598 20.51,54.0783136 C20.7249704,53.3389645 20.923787,52.598787 21.2112426,51.8805621 C21.496213,51.1702071 21.765858,50.4532249 22.0060947,49.7271302 C22.1692899,49.2354734 22.2699408,48.7231065 22.4526036,48.0061243 M128.265266,45.5660651 C128.853018,45.7404438 129.343432,45.6783136 129.793254,45.4144675 C130.100592,45.2334615 130.356568,44.8532249 130.665562,44.8167751 C131.070651,44.7683136 131.185385,44.4141716 131.464556,44.3151775 C131.866746,44.1722781 131.903195,43.9179586 131.957041,43.5638166 C131.995976,43.307426 132.234556,43.1218639 132.566746,43.3807396 C132.599467,43.155 132.629704,42.9478994 132.664083,42.7126331 C132.747337,42.7780769 132.833491,42.813284 132.834734,42.8513905 C132.853787,43.4482544 132.802012,44.0169527 132.148402,44.2973669 C132.084615,44.3247041 131.995148,44.3396154 131.964083,44.3893195 C131.204438,45.6066568 130.976627,45.6269527 129.59568,46.5017456 C129.236154,46.729142 129.050592,47.1578402 128.568462,47.2452367 C127.846923,47.3769527 127.257929,47.9439941 126.474675,47.9203846 C126.389763,47.9178994 126.309408,48.0641124 126.212485,48.0947633 C125.679408,48.2625148 125.235799,48.7243491 124.609941,48.5897337 C124.174201,48.9633432 123.613373,48.9285503 123.116746,49.0859467 C122.416746,49.3075444 121.61858,49.1973669 120.994379,49.6869527 C120.899941,49.7619231 120.70568,49.7006213 120.559882,49.7213314 C120.172604,49.7760059 119.784911,49.6186095 119.388935,49.9118639 C119.101065,50.1251775 118.630118,49.8244675 118.241598,50.1463018 C117.99929,50.3467751 117.563136,50.1906213 117.189112,50.2933432 C116.51355,50.4784911 115.814379,50.5807988 115.151657,50.8421598 C114.775976,50.9904438 114.813669,50.5841124 114.642189,50.3790828 C114.500118,50.583284 114.364675,50.7763018 114.151775,51.0811538 C114.022544,51.0811538 113.747929,51.0194379 113.523846,51.1002071 C113.331657,51.1693787 113.209882,51.4162426 113.035503,51.5566568 C112.784911,51.7575444 112.52355,51.9480769 112.246864,52.108787 C112.178107,52.1485503 112.032722,52.0549408 112.014497,52.0499704 C111.675266,52.4235799 111.34142,52.7918047 110.982722,53.1865385 C110.849349,53.0759467 110.753669,53.027071 110.705621,52.948787 C110.653432,52.8638757 110.645976,52.7516272 110.596686,52.5677219 C110.447574,52.6799704 110.341538,52.7487278 110.25,52.8332249 C110.160533,52.9160651 110.086805,53.0158876 110.006864,53.1078402 C109.910355,52.9810947 109.813846,52.8543491 109.688343,52.6899112 C109.452249,52.9516864 108.878166,52.8758876 108.892663,53.4980178 C109.097278,53.4383728 109.290296,53.3190828 109.452663,53.3513905 C109.645266,53.389497 109.812189,53.5584911 110.076864,53.7245858 C109.904556,53.8612722 109.753787,54.0501479 109.559112,54.1218047 C108.997041,54.3289053 108.567101,54.6909172 108.191834,55.1403254 C107.894024,55.4977811 107.54071,55.7848225 107.155089,55.9007988 C107.175799,56.0407988 107.191953,56.1505621 107.208107,56.2607396 C106.768225,56.2744083 106.609172,56.6273077 106.408698,56.9271893 C106.35071,57.0137574 106.335799,57.1483728 106.259586,57.1997337 C105.695444,57.5799704 105.314793,58.1163609 105.007456,58.6999704 C104.813609,59.0677811 104.58,59.314645 104.073432,59.248787 C104.174083,59.3481953 104.203077,59.3722189 104.227101,59.401213 C104.454083,59.677071 104.000533,59.8816864 104.147988,60.1500888 C103.660473,60.7233432 103.561479,61.5736982 102.873491,61.9323964 C102.938107,62.3047633 102.994852,62.6352959 103.08142,63.1381361 C102.868935,62.9840533 102.800592,62.9351775 102.693728,62.8577219 C102.700355,63.1373077 102.183846,63.2338166 102.541716,63.6596154 C102.686272,63.8319231 102.670947,64.3302071 102.523077,64.5141124 C102.264201,64.8359467 102.352426,65.1503254 102.347456,65.4655325 C102.330059,66.6323373 102.216154,67.8161243 102.369408,68.9630473 C102.601775,70.7047633 102.516036,72.4423373 102.583964,74.1811538 C102.601361,74.6342899 102.897101,75.072929 102.787337,75.5558876 C102.741775,75.7571893 102.582722,75.9460651 102.582722,76.1411538 C102.582722,76.3354142 102.736805,76.5251183 102.788166,76.7260059 C102.892959,77.1381361 102.572781,77.5059467 102.591006,77.8725148 C102.62787,78.6189053 102.398402,79.3155917 102.341243,80.0396154 C102.335444,80.1141716 102.371893,80.2152367 102.335858,80.2616272 C101.768402,80.9827515 101.783728,81.9122189 101.466036,82.7261243 C100.90645,84.1576036 100.316627,85.5783136 99.5673373,86.9062426 C98.7650296,88.3273669 97.9962722,89.8218047 96.4985207,90.7110947 C96.3104734,90.822929 96.2516568,91.1418639 96.0681657,91.2764793 C95.8805325,91.4131657 95.5673964,91.3837574 95.3901183,91.5274852 C95.0119527,91.8344083 94.6859763,92.2059467 94.2576923,92.6317456 C93.7565089,92.4830473 93.2118343,92.7282544 92.7930769,93.1122189 C92.2247929,93.633284 91.3934911,93.6258284 90.864142,94.2168935 C90.442071,94.6886686 89.863432,94.9723964 89.2711243,95.2159467 C88.6601775,95.4673669 88.0757396,95.7838166 87.4610651,96.0257101 C87.0410651,96.1913905 86.6968639,96.5289645 86.1836686,96.5252367 C86.0656213,96.5244083 86.0337278,97.0429882 85.5950888,96.9580769 C85.385503,96.9174852 85.0872781,97.0318047 84.912071,97.1763609 C84.5836095,97.4472485 84.2236686,97.3644083 83.866213,97.3921598 C83.3285799,97.4335799 82.7685799,97.254645 82.2566272,97.6029882 C82.1273964,97.6903846 81.8681065,97.6676036 81.7057396,97.6034024 C81.4874556,97.5168343 81.3437278,97.2177811 81.0484024,97.5234615 C80.9842012,97.5893195 80.699645,97.4107988 80.512426,97.394645 C79.4471006,97.3043491 78.4998225,96.9555917 77.7414201,96.1735799 C77.5343195,95.9598521 77.3350888,95.8136391 76.9913018,95.7829882 C76.5891124,95.7473669 76.1334911,95.6048817 75.8319527,95.3526331 C75.4989349,95.0734615 75.0694083,95.1786686 74.7583432,94.9127515 C74.6067456,94.7831065 74.3122485,94.7922189 74.2024852,94.6476627 C73.6706509,93.9518047 72.808284,93.7952367 72.1447337,93.3234615 C71.75,93.4526923 71.8506509,92.8102663 71.7098225,92.9328698 C71.402071,93.2012722 71.327929,92.9212722 71.2173373,92.799497 C71.0545562,92.6209763 70.9402367,92.3981361 70.7799408,92.1558284 C70.5993491,92.2457101 70.4129586,92.3380769 70.0666864,92.5103846 C69.9163314,92.309497 69.7866864,91.9719231 69.5489349,91.8571893 C69.1778107,91.677426 69.0444379,91.051568 68.4409467,91.2657101 C68.3527219,91.2971893 68.1439645,91.0113905 68.0018935,90.8614497 C67.9360355,90.7918639 67.8656213,90.6174852 67.8511243,90.623284 C67.2488757,90.8668343 66.973432,90.1390828 66.4519527,90.1573077 C66.3852663,90.1597929 66.285858,90.1452959 66.2539645,90.1009763 C65.867929,89.5662426 65.2486982,89.4631065 64.7019527,89.2071302 C64.251716,88.9963018 63.8797633,88.6189645 63.5061538,88.3406213 C63.5968639,88.1028698 63.6631361,87.9293195 63.7463905,87.7106213 C63.4663905,87.9910355 63.2414793,88.2159467 63.0774556,88.3795562 C62.2904734,88.0316272 61.5428402,87.9052959 61.0950888,87.1398521 C61.0362722,87.3473669 61.0018935,87.469142 60.9447337,87.6704438 C60.7500592,87.5113905 60.5930769,87.2906213 60.393432,87.2409172 C60.0865089,87.1642899 59.7356805,87.2897929 59.4623077,87.0097929 C59.4345562,86.9816272 59.2336686,87.1477219 59.1027811,87.187071 C59.0108284,87.2144083 58.8111834,87.1763018 58.8111834,87.1729882 C58.8318935,86.625 58.3336095,86.8664793 58.1115976,86.701213 C57.9678698,86.5943491 57.8651479,86.4319822 57.7160355,86.2629882 C57.6679882,86.6544083 57.4608876,86.8163609 57.1622485,86.8743491 C56.9609467,86.913284 56.6805325,87.0280178 56.5653846,86.9397929 C56.2323669,86.6854734 56.0182249,86.7517456 55.6843787,86.958432 C55.4677515,87.0922189 55.1011834,86.9836982 54.7557396,86.9836982 C54.5668639,86.9277811 54.7470414,86.3545266 54.3386391,86.5603846 C54.0284024,86.7165385 54.2781657,86.9696154 54.4591716,87.1207988 C53.8801183,87.5118047 54.1066864,86.5226923 53.5831361,86.7434615 C53.3561538,86.8395562 53.000355,86.6316272 52.7066864,86.5628698 C52.4639645,87.045 53.0471598,87.0926331 53.0881657,87.4049408 C53.0881657,87.6551183 52.843787,87.887071 52.6466272,87.7797929 C52.4656213,87.6820414 52.3020118,87.5917456 52.22,87.8075444 C52.1988757,87.8642899 52.4788757,88.0573077 52.224142,88.1919231 C52.0725444,88.2722781 51.8940237,88.3037574 51.7266864,88.3522189 C51.0473964,88.5493787 50.4621302,88.9035207 50.0528994,89.480503 C49.7492899,89.9083728 49.5136095,90.3842899 49.2472781,90.8386686 C48.9809467,91.2934615 48.7477515,91.7718639 48.435858,92.1926923 C48.2523669,92.4399704 47.9446154,92.5948817 47.6977515,92.7878994 C47.9632544,93.0293787 47.945858,93.2704438 47.729645,93.620858 C47.2901775,94.3328698 47.0110059,95.1558876 46.5089941,95.8140533 C46.1391124,96.299497 45.8454438,96.7994379 45.559645,97.3292012 C45.2746746,97.8585503 44.882426,98.3307396 44.5328402,98.8248817 C44.4947337,98.879142 44.4292899,98.9143491 44.3762722,98.9582544 C44.2602959,98.5196154 44.1439053,98.0797337 44.0275148,97.6398521 C43.9848521,97.6390237 43.9417751,97.6386095 43.8991124,97.6381953 C43.8742604,97.7852367 43.824142,97.9343491 43.8320118,98.0797337 C43.8407101,98.2247041 43.9073964,98.3659467 43.9488166,98.5092604 C43.5424852,98.4670118 43.542071,99.2233432 42.9762722,98.9288462 L42.9762722,100.202929 C43.3461538,99.7307396 43.6389941,99.3558876 43.9339053,98.9789645 C44.3489349,99.4026923 43.7673964,99.6781361 43.7731953,100.040148 C42.9456213,100.591036 42.8259172,101.639379 42.1457988,102.355118 L41.1525444,102.355118 L41.1525444,103.021568 C40.9176923,102.92713 40.750355,102.859615 40.4997633,102.75855 C40.4645562,103.001686 40.4343195,103.203817 40.3978698,103.453166 C40.1191124,103.53642 39.8034911,103.593166 39.5247337,103.727367 C39.3387574,103.817249 39.2289941,104.078609 39.0417751,104.15068 C38.8446154,104.226479 38.5965089,104.166834 38.370355,104.168905 C38.3359763,104.16932 38.2887574,104.170976 38.2688757,104.192515 C37.7188166,104.787722 36.9542012,104.985296 36.192071,105.232988 C36.1655621,105.206065 36.0980473,105.102101 36.0023669,105.051982 C35.8586391,104.976183 35.6954438,104.938491 35.5401183,104.884231 C35.557929,105.06855 35.5753254,105.25287 35.5943787,105.449201 C34.4263314,105.742456 34.4263314,105.742456 33.9814793,105.535769 C33.8199408,105.902337 33.6749704,106.172811 33.1518343,106.22997 C32.0831953,106.347189 31.0336095,106.657426 29.947574,106.639201 C29.7073373,106.635473 29.4820118,107.031036 29.2372189,106.668195 C29.0234911,107.085296 28.8209467,106.531095 28.6304142,106.657426 C28.3806509,106.823935 28.152426,107.054231 27.9068047,106.662811 C27.5953254,106.801982 27.2842604,106.94074 26.9690533,107.081568 C26.7611243,106.900148 26.6368639,106.54642 26.2181065,106.859142 C26.0387574,106.992929 25.6953846,106.913817 25.7189941,106.514112 C25.7189941,106.512041 25.5856213,106.481391 25.5707101,106.502515 C25.3412426,106.836361 25.0753254,106.136361 24.8649112,106.528609 C24.8176923,106.61642 24.8251479,106.733225 24.8176923,106.776302 C24.6052071,106.563817 24.3798817,106.338491 24.0518343,106.01003 C23.9785207,106.401036 23.9404142,106.603994 23.8766272,106.944882 C23.7142604,106.733639 23.5407101,106.601923 23.505503,106.43997 C23.4466864,106.170325 23.2830769,106.132633 23.1248521,106.246953 C22.9185799,106.396065 23.0490533,106.568787 23.2010651,106.702988 C23.223432,106.722456 23.233787,106.755178 23.2631953,106.804467 C22.8204142,107.048432 22.7276331,106.548905 22.5101775,106.459024 C21.685503,106.854172 20.8786391,106.790799 20.0875148,106.513698 C19.4943787,106.305769 18.7836095,106.283402 18.4456213,105.585473 C18.407929,105.506775 18.125858,105.854704 17.9829586,105.549852 C17.9017751,105.686538 17.8205917,105.823225 17.7124852,106.004231 C17.5542604,105.758195 17.4059763,105.527485 17.2369822,105.26571 C17.0530769,105.349793 16.867929,105.482337 16.6720118,105.499734 C16.5978698,105.506361 16.4487574,105.11784 16.4205917,105.128609 C15.8336686,105.360562 15.5424852,104.933521 15.2339053,104.598018 C14.905858,104.240148 14.4895858,104.057071 14.0584024,103.884349 C13.9830178,103.139615 13.3749704,103.26926 12.6642012,103.257249 C13.0933136,102.982219 13.3194675,102.837663 13.5456213,102.692692 C13.4445562,102.59287 13.3372781,102.487663 13.1939645,102.346834 C13.0953846,102.496361 12.9955621,102.648787 12.9156213,102.770148 C12.7776923,102.744467 12.7105917,102.752337 12.6753846,102.722515 C12.1439645,102.273521 11.6419527,101.785592 11.0778107,101.383402 C10.8363314,101.211095 11.0053254,100.789024 10.5654438,100.743462 C10.4295858,100.728964 10.2133728,100.271272 10.2523077,100.055888 C10.3160947,99.698432 10.2361538,99.585355 9.93378698,99.4006213 C9.62230769,99.210503 9.42224852,98.8385503 9.17248521,98.5469527 C8.4016568,97.6468935 7.35745562,96.997426 6.77301775,95.926716 C5.86798817,95.5075444 5.60662722,94.520503 4.96295858,93.8664793 C4.46591716,93.3623964 4.4116568,92.5547041 3.84295858,92.0709172 C3.78786982,92.023284 3.82017751,91.8509763 3.83881657,91.741213 C3.90840237,91.331568 3.73857988,91.0523964 3.44449704,90.7682544 C2.89443787,90.2376627 2.71301775,89.4900296 2.49846154,88.795 C2.30295858,88.1604438 1.85769231,87.5776627 1.99852071,86.8544675 C1.56029586,86.3155917 1.57147929,85.5890828 1.25213018,85.0216272 C1.06863905,84.6964793 1.31964497,84.5680769 1.30390533,84.3833432 C1.27822485,84.0900888 1.04710059,83.8204438 0.937751479,83.5276036 C0.801893491,83.1639349 0.602662722,82.8263609 0.655680473,82.3926923 C0.69295858,82.089497 0.813905325,81.7163018 0.464319527,81.4549408 C0.43408284,81.4321598 0.57035503,81.2155325 0.593964497,81.0821598 C0.61591716,80.9583136 0.639526627,80.7495562 0.578224852,80.7102071 C0.224497041,80.4857101 0.399704142,80.2251775 0.422485207,79.9240533 C0.450236686,79.548787 0.26260355,79.1631657 0.229881657,78.7763018 C0.191775148,78.3277219 0.253905325,77.8704438 0.212485207,77.4222781 C0.162781065,76.8863018 0.422899408,76.3051775 5.1159077e-13,75.8189053 C0.542189349,75.4171302 0.0952662722,74.8765976 0.134615385,74.4180769 C0.167337278,74.0378402 0.312721893,73.6493195 0.246449704,73.2351183 C0.208343195,72.9952959 0.51816568,72.7571302 0.458106509,72.4270118 C0.405088757,72.1358284 0.474260355,71.8235207 0.438639053,71.5265385 C0.409230769,71.2829882 0.786568047,71.0555917 0.461005917,70.7917456 C0.439881657,70.7743491 0.591065089,70.4661834 0.718224852,70.3626331 C0.906272189,70.2102071 1.14485207,70.1199112 1.38840237,69.9886095 C1.10715976,69.8059467 0.877278107,69.6572485 0.70704142,69.5466568 C0.778698225,69.0889645 0.874378698,68.7066568 0.890946746,68.3206213 C0.919526627,67.6442308 0.783668639,66.9400888 0.925739645,66.2939349 C1.13615385,65.3421006 0.993668639,64.3757692 1.15934911,63.450858 C1.31715976,62.5719231 1.32295858,61.6693787 1.57686391,60.8082544 C1.59674556,60.7411538 1.60502959,60.663284 1.6460355,60.6119231 C1.80218935,60.4164201 2.12568047,60.3083136 1.82662722,59.9396746 C1.74295858,59.8365385 2.03497041,59.4857101 2.01053254,59.2645266 C1.96704142,58.8718639 2.17331361,58.5707396 2.25325444,58.2261243 C2.40360947,57.572929 2.66414201,56.9611538 2.74822485,56.2723373 C2.82692308,55.6241124 3.1139645,54.9941124 3.17857988,54.3106805 C3.22331361,53.8360059 3.47142012,53.3824556 3.60727811,52.9135799 C3.8508284,52.0706805 3.96639053,51.1929882 4.28905325,50.3716272 C4.94928994,48.6878994 5.44508876,46.9461834 6.2656213,45.3138166 C6.6508284,44.5475444 7.05301775,43.7622189 7.34130178,42.938787 C7.52810651,42.4044675 7.88473373,41.9455325 8.17301775,41.483284 C9.13934911,39.930858 9.65668639,38.131568 10.839645,36.7075444 C11.5048521,34.9190237 12.9947337,33.6457692 13.8094675,31.950858 C14.4618343,31.6973669 14.5757396,30.9923964 14.9899408,30.5371893 C15.4066272,30.0786686 15.8369822,29.6218047 16.182426,29.1106805 C16.9416568,27.9881953 18.0185799,27.1701479 18.8971006,26.1665385 C19.241716,25.7730473 19.521716,25.3397929 20.1343195,25.2714497 C20.0245562,25.1426331 19.958284,25.0651775 19.8812426,24.9748817 C21.4440237,23.412929 22.9616568,21.7917456 24.5981657,20.3010355 C25.4456213,19.5289645 26.2533136,18.7080178 27.1318343,17.9765385 C28.5123669,16.826716 29.9368047,15.7299112 31.4034911,14.6819822 C33.9910059,12.8334024 36.7910059,11.3675444 39.6382249,10.0039941 C41.7046746,9.01446746 43.8630769,8.21215976 46.0310059,7.43967456 C48.0672189,6.71440828 50.1166864,6.03263314 52.166568,5.35210059 C52.8984615,5.1089645 53.6576923,4.94742604 54.4078107,4.76186391 C55.0581065,4.60073964 55.717929,4.47606509 56.364497,4.30251479 C56.9771006,4.13807692 57.6108284,4.10949704 58.2230178,3.8854142 C58.672426,3.72097633 59.205503,3.8493787 59.7087574,3.65470414 C60.1983432,3.465 60.7894083,3.54866864 61.2939053,3.38340237 C61.7582249,3.23139053 62.295858,3.30677515 62.6943195,2.95180473 C63.5305917,2.9758284 64.3034911,2.63535503 65.1086982,2.52642012 C65.9259172,2.4154142 66.7087574,2.15902367 67.5044379,1.9933432 C68.2359172,1.84133136 69.0585207,1.83428994 69.72,1.37079882 C70.7807692,1.43292899 71.7620118,0.991390533 72.8049704,0.884940828 C73.9100592,0.771449704 74.9898817,0.411923077 76.1227219,0.466597633 C76.8094675,0.0536390533 77.5848521,0.390384615 78.2844379,0.224289941 C79.8306509,-0.141863905 81.3876331,0.0594378698 82.9388166,0.0229881657 C84.481716,-0.0134615385 86.0266864,0.0387278107 87.5691716,0.00310650888 C88.1635503,-0.0105621302 88.7156805,0.130266272 89.2847929,0.233402367 C89.8505917,0.33612426 90.4694083,0.0606804734 90.9971006,0.466597633 C91.6714201,0.301331361 92.2753254,0.703934911 92.9363905,0.706420118 C93.3572189,0.708076923 93.8285799,0.747840237 94.1876923,0.938786982 C94.9270414,1.33186391 95.7525444,1.3310355 96.5213018,1.57748521 C97.2859172,1.82227811 98.0136686,2.20707101 98.8325444,2.2741716 C98.9174556,2.56452663 99.4517751,2.36363905 99.4153254,2.80642012 C99.4120118,2.84784024 99.5789349,2.95014793 99.6613609,2.94476331 C100.715089,2.87434911 101.537278,3.49026627 102.460533,3.82784024 C103.639349,4.25860947 104.806982,4.73784024 105.935266,5.25476331 C107.29426,5.87730769 108.784556,6.1962426 110.037101,7.10127219 C110.754497,7.61902367 111.669882,7.85967456 112.485858,8.24529586 C113.193314,8.57914201 113.79929,9.09647929 114.473195,9.46056213 C114.899822,9.69085799 115.099882,10.3718047 115.750592,10.1816864 C116.12213,10.4666568 116.483728,10.7657101 116.867278,11.033284 C117.272367,11.3161834 117.686568,11.5899704 118.116923,11.8322781 C119.678462,12.711213 121.026686,13.8548225 122.298698,15.1048817 C122.766746,15.5650592 123.364024,15.9042899 123.784438,16.3988462 C125.12355,17.9748817 126.562071,19.4742899 127.70568,21.2089645 C128.032485,21.7051775 128.318698,22.2316272 128.583787,22.7642899 C128.972308,23.5463018 129.51284,24.2326331 129.809408,25.0813314 C130.29568,26.4742899 130.825858,27.8370118 131.058225,29.3132249 C131.208994,30.2671302 131.358935,31.2268343 131.534556,32.1703846 C131.73503,33.2468935 131.684911,34.3002071 131.69568,35.3618047 C131.703964,36.1330473 131.856391,36.8521006 132.091243,37.5748817 C132.179467,37.8457692 132.13432,38.1580769 132.165799,38.4496746 C132.189408,38.6679586 132.24574,38.8825148 132.274734,39.1003846 C132.34432,39.6318047 132.546036,40.1599112 132.183195,40.6876036 C132.116509,40.7845266 132.418462,41.0968343 132.368757,41.2513314 C132.230414,41.6800296 132.247396,42.2193195 131.679112,42.4202071 C131.451716,42.5001479 131.237988,42.6534024 131.054497,42.815355 C130.421598,43.3745266 129.803609,43.9510947 129.182722,44.5243491 C129.112722,44.5885503 129.001302,44.678432 129.009172,44.7451183 C129.067988,45.2533432 128.679053,45.382574 128.265266,45.5660651" id="Fill-335"></path>
                </g>
            </g>
        </g>
    </g>
</svg>