<?xml version="1.0" encoding="UTF-8"?>
<svg width="282px" height="180px" viewBox="0 0 282 180" version="1.1" xmlns="http://www.w3.org/2000/svg" xmlns:xlink="http://www.w3.org/1999/xlink">
    <!-- Generator: sketchtool 61 (101010) - https://sketch.com -->
    <title>73169693-6E58-48EE-8107-525BBB5479E6</title>
    <desc>Created with sketchtool.</desc>
    <g id="Page-1" stroke="none" stroke-width="1" fill="none" fill-rule="evenodd">
        <g id="Case-Study-for-Edplus" transform="translate(-10.000000, -6618.000000)">
            <g id="Unique-Feature" transform="translate(10.000000, 6594.000000)">
                <g id="ygb2-d" transform="translate(0.000000, 24.000000)">
                    <g id="11" fill="#2EA2DB">
                        <path d="M47.6187905,127.799957 C47.6187905,127.467726 47.5627905,127.215187 47.6284829,126.998726 C47.9090213,126.06988 48.2617137,125.159341 48.2062521,124.162649 C48.8060983,123.842803 48.4921752,123.205264 48.6461752,122.737341 C49.4646368,120.250187 50.3967138,117.799648 51.2173292,115.174648 C50.83556,115.334033 50.5706369,115.444417 50.3067907,115.554802 C50.1070214,116.097033 50.4166369,116.673187 50.1220984,117.238571 C49.8528676,117.754956 49.5147137,118.242264 49.3569445,118.827572 C49.2901752,119.074187 48.8238675,119.25511 48.8206368,119.470495 C48.8001752,120.751495 47.8767136,121.751418 47.8002521,123.024341 C47.7566367,123.737803 47.2914059,124.402803 47.325329,125.162033 C47.3619444,125.968649 46.807329,126.702033 47.0340213,127.530187 C47.0571751,127.615264 47.1169444,127.690649 47.1600213,127.771418 C47.255329,127.777341 47.3506367,127.783264 47.6187905,127.799957 M87.7147927,51.4261832 C87.8160235,51.225337 87.9011005,51.0131832 88.0222543,50.8247216 C88.1714082,50.5942601 88.3334851,50.3589524 88.4799466,50.1435677 C88.930639,49.4796446 88.9861005,48.6800292 89.3667928,48.0117984 C89.9989467,46.9025675 90.3467929,45.6829521 90.8023314,44.5031828 C91.5028699,42.6901827 91.8981007,40.7748749 92.7348699,39.001721 C92.9524084,38.5407979 93.41387,37.957644 93.0132546,37.2877978 C92.579793,38.0324901 92.2184853,38.776644 91.7430237,39.4384133 C91.1754852,40.2299518 91.0834083,41.2331057 90.5002544,42.0041827 C90.5374083,43.238875 89.875639,44.2958751 89.5304852,45.418029 C89.1772544,46.5660291 88.7868697,47.7334137 88.2850235,48.8534138 C87.9474081,49.6083369 87.5791004,50.4300293 87.7147927,51.4261832 M80.8709462,49.4861062 C81.5827924,48.1157215 82.4017925,46.9402599 82.8228694,45.6361059 C83.4964848,43.5506443 84.5890233,41.6681826 85.4026388,39.6559518 C85.7413311,38.818644 86.142485,37.9608747 86.7105619,37.2737978 C87.3448697,36.5064901 87.319562,35.3983361 88.1498697,34.776413 C89.0334851,33.0129514 90.0619467,31.3367205 91.2083314,29.7347974 C91.4474083,29.4004127 91.4571006,29.1419512 91.2616391,28.8296435 C90.8211775,28.7262589 90.6542544,29.046105 90.5051006,29.3357974 C90.1104083,30.1025666 89.6920236,30.8784897 89.2451005,31.5903359 C88.7297928,32.4098744 88.3453312,33.285413 87.8569466,34.1092592 C87.3669466,34.9341823 86.8715619,35.7553362 86.3891004,36.5840285 C85.2906388,38.4691825 84.538408,40.5115672 83.6477925,42.4914904 C82.8885617,44.1795674 82.1336386,45.8794906 81.322177,47.548183 C81.0540232,48.0995676 80.6970231,48.6649523 80.8709462,49.4861062 M75.4847152,45.2489521 C75.4367921,44.7821059 75.6370998,44.3540289 75.836869,43.9652597 C76.1464844,43.3611058 76.3295614,42.6153365 76.7721768,42.1764904 C77.307946,41.6461057 77.1453306,40.7581826 77.8706384,40.4108749 C78.4575615,39.0911056 79.0041,37.7519517 79.6427154,36.4574901 C80.5839462,34.5497207 81.4702539,32.5977975 82.6021002,30.8047205 C83.8739464,28.7892589 85.2604849,26.8437972 86.4596388,24.7782586 C86.6804081,24.3981048 86.954485,24.0470278 86.9970235,23.3524124 C86.3955619,23.9549509 85.8608696,24.3259509 85.5453311,24.8342586 C84.1781772,27.0354895 82.8277156,29.2496435 81.6856386,31.5817206 C80.8483308,33.291336 79.8920231,34.9460284 78.9524077,36.5937208 C78.3003307,37.7390286 77.6062537,38.8902594 77.0930999,40.0813364 C76.3963306,41.698875 75.5967152,43.2690289 74.9392536,44.9016444 C74.9112536,44.9721828 74.9720997,45.0787982 74.982869,45.1288751 C75.0986382,45.3297213 75.2526382,45.2371059 75.4847152,45.2489521 M41.1857902,112.418263 C40.0717132,112.901802 40.0970209,114.274879 39.1864824,114.926956 C39.0712516,115.760494 38.5096362,116.407725 38.2425593,117.166418 C37.8974054,118.145341 37.6410977,119.16411 37.3815592,120.167264 C37.1720977,120.978187 37.3390207,121.886033 37.3390207,122.835341 C38.246867,122.026033 38.267867,120.912495 38.7804824,120.03211 C39.2963285,119.145802 39.6387901,118.146956 39.9694055,117.167494 C40.3037901,116.175648 40.9262517,115.330802 41.2665594,114.339494 C41.5987902,113.371879 41.8524056,112.373571 42.4479441,111.367725 C41.9670979,111.41834 41.8647902,111.714494 41.6655594,111.865263 C41.4254056,112.047263 41.0764825,111.769417 40.8713286,112.067187 C40.963944,112.170571 41.056021,112.273956 41.1857902,112.418263 M76.5454844,144.239727 C78.3197153,144.355496 79.9383308,143.542419 81.6576386,143.222573 C82.9984079,142.972727 84.2707926,142.442342 85.6142542,142.163419 C86.9921773,141.876419 88.3421005,141.431111 89.7097929,141.114496 C91.045716,140.804342 92.3283315,140.306803 93.6954854,140.083342 C94.569947,139.94065 95.4444086,139.613803 96.4992548,139.397342 C95.5827932,139.031188 94.9291008,139.54865 94.2603316,139.505034 C93.5199469,139.457111 92.9093315,139.94065 92.1818699,139.836188 C91.5491776,139.745188 91.0451775,140.54588 90.253639,140.125342 C90.1168698,140.299265 89.9381006,140.527573 89.7668698,140.74565 C89.3285621,140.74565 88.8934851,140.62988 88.5661005,140.767727 C87.6787158,141.142496 86.7191773,141.240496 85.8107926,141.528034 C84.9605618,141.796727 84.0241772,142.06865 83.1411002,142.121957 C82.1891001,142.179034 81.3017155,142.657188 80.3362539,142.473573 C80.1171,142.431573 80.0018692,142.616804 79.8381769,142.686804 C79.5091769,142.828957 79.1279461,142.938804 78.8097153,143.000188 C78.5000999,143.059957 78.107023,143.547804 77.7392537,143.07665 C77.3181768,143.652265 76.5890998,143.083111 76.1631767,143.469727 C75.5670998,144.010342 74.863869,143.931188 74.1913305,143.942496 C73.6350997,144.686111 72.7347919,144.640881 71.9540227,144.95965 C72.754715,145.439419 73.3976381,144.712496 74.0588689,144.848188 C74.7324843,144.986034 75.3441767,144.24565 76.0016383,144.783573 C76.173946,144.610727 76.3467921,144.437881 76.5454844,144.239727 M76.7754075,26.7527972 C75.6834075,27.8954127 75.0765613,29.3438743 74.3814074,30.7239513 C73.6840997,32.108336 72.7137919,33.3758745 72.2420996,35.0747207 C72.9453304,34.8453361 73.2974843,34.5631823 73.4751766,34.0112591 C73.6959458,33.3236437 73.9075612,32.6096437 74.2790997,32.0027975 C74.5741766,31.5208744 74.8477151,31.0938744 74.9661767,30.5144897 C75.073869,29.9841051 75.8120998,29.7703358 75.9197921,29.1532589 C75.9332536,29.0735666 76.0813306,29.0202589 76.1023306,28.9384127 C76.4377921,27.6342588 77.3434845,26.6197972 77.9304076,25.4432587 C78.2012538,24.9004894 78.5717153,24.2920278 79.1204077,23.8714894 C79.6518692,23.463874 79.7654846,22.6378739 80.5139462,22.4262585 C81.2979462,21.0483354 82.6925617,20.1065661 83.2595617,18.5741045 C84.2826387,17.6431044 84.7155618,16.2301812 85.8533311,15.393412 C85.925485,14.8054119 86.7057158,14.5550273 86.5361004,13.8076427 C86.303485,13.9158734 86.2200234,14.1576427 86.051485,14.2992581 C85.3385618,14.8991042 84.8981003,15.8457197 83.8147156,15.9927197 C83.5826387,16.0239505 83.2251002,16.3777197 83.2197156,16.590412 C83.2024848,17.2715659 82.8745617,17.6183352 82.2757924,17.8003352 C81.4600232,19.4087199 79.9480231,20.5545661 79.3207154,22.3002585 C79.1392538,22.8053355 78.6675615,23.2032586 78.4661769,23.7056432 C78.3773307,23.9269509 77.4732537,23.5166432 78.0854845,24.2397971 C78.2281768,24.4083355 77.5782537,24.6673356 77.5556383,25.1223356 C77.5281768,25.6828741 77.1388691,26.0361049 76.5767152,26.1723356 C76.5196383,26.1863356 76.4830229,26.2886433 76.4464075,26.3387203 C76.5406383,26.4571818 76.6273306,26.5664895 76.7754075,26.7527972 M156.623335,68.585338 C155.947027,69.1076457 155.520566,68.2251072 154.954104,68.4447995 C153.807181,67.6021071 152.32695,67.3441841 151.280181,66.2898763 C150.981335,65.9888763 150.477335,65.621107 149.760642,65.9538763 C150.333027,66.3270302 150.84295,66.6571071 151.350719,66.9914917 C152.988719,68.0716456 154.851258,68.7097226 156.570566,69.6326457 C157.28995,70.0187227 158.168181,70.0628765 158.762104,70.7499535 C158.992566,71.0170304 159.483104,70.8619535 159.840643,70.9222612 C160.556797,71.0417996 160.956335,71.7062612 161.736028,71.7369535 C162.374105,71.7622612 163.020797,72.1192612 163.647028,72.3997997 C164.222105,72.6571844 164.835951,72.9247998 165.407797,73.0857998 C166.032412,73.2613382 166.606412,73.5219536 167.197643,73.7513383 C168.251413,74.1594921 169.289028,74.6117998 170.343336,75.0183383 C171.86449,75.6052614 173.289259,76.4037999 174.793182,77.0370307 C175.813028,77.4661846 176.829644,78.0477231 177.790798,78.6594155 C178.330336,79.0024155 178.31849,79.0207232 179.288798,78.8780308 C178.442875,78.3697231 177.659952,77.8991077 176.861951,77.4198769 C176.985259,77.2906461 177.112875,77.1554923 177.25449,77.0068769 C178.644259,77.7838769 180.028644,78.5641078 181.315029,79.5171847 C182.200798,80.1735694 184.768721,81.034031 185.947414,81.0647233 C186.36149,81.0754925 186.611337,81.5035695 186.996875,81.3732618 C187.526721,81.1939541 187.838491,81.7717233 188.348414,81.6904156 C188.778106,81.622031 189.239568,81.7399541 189.664952,81.6602618 C190.184568,81.5628002 190.510875,82.0554926 191.016491,81.9828002 C191.447798,81.9208772 191.895798,81.9601849 192.33626,81.972031 C193.51926,82.0048772 194.672645,81.8702618 195.774337,81.4077233 C195.85726,81.3727233 195.964953,81.3716464 196.057029,81.3856464 C197.26426,81.5687233 198.41226,80.9101848 199.602799,81.1104925 C200.141799,81.2009541 200.443876,80.710954 200.955414,80.7793386 C201.484184,80.8504156 202.04903,80.8816463 202.561645,80.7664156 C202.933722,80.682954 203.319261,80.6856463 203.694568,80.5644925 C204.093568,80.4368771 204.569568,80.4438771 204.990107,80.5187232 C205.557645,80.619954 206.102568,79.7061847 206.658799,80.4998771 C207.149876,80.0120309 207.653876,80.1148771 208.162722,80.4681079 C208.590799,79.9301848 208.994107,80.2737232 209.402261,80.5014925 C209.750107,80.6953386 210.026876,80.0901078 210.37203,80.402954 C210.588492,80.598954 210.7398,80.0362617 211.032184,80.4078002 C211.170569,80.5833386 211.664876,80.486954 211.998723,80.4993386 C212.292184,80.5101079 212.586184,80.5014925 212.879646,80.5014925 C213.173646,80.5014925 213.468184,80.5181848 213.760569,80.4988002 C215.251031,80.3997232 216.688184,80.9704925 218.193723,80.8251079 C218.599185,80.7852617 219.058492,81.0711848 219.460185,81.2741848 C219.870492,81.4809541 220.184415,81.4438002 220.468723,81.090031 C220.9178,81.5875695 221.507954,81.6166464 222.130954,81.7006464 C223.149185,81.8374156 224.210493,81.7625695 225.180262,82.246108 C225.415031,82.3634926 225.75857,82.2638772 226.05257,82.2638772 C227.275954,82.2638772 228.499877,82.2751849 229.722724,82.2579541 C230.178801,82.2514926 230.682262,82.4135695 231.060801,81.9924926 C231.438262,82.4534157 231.957878,82.224031 232.416647,82.2563387 C232.904493,82.2897233 233.39557,82.2638772 233.885032,82.2638772 C234.373955,82.2638772 234.866109,82.2337233 235.351801,82.273031 C235.763186,82.3058772 236.218724,82.0861849 236.582724,82.5018772 C236.715186,82.6531849 236.901493,82.4905695 237.079186,82.4103387 C237.803416,82.0834926 238.471647,82.1416464 238.96434,82.8637234 C239.238416,82.4248772 239.819955,82.4227233 239.998724,82.5912618 C240.42034,82.988108 240.804801,82.6483387 241.19034,82.7021849 C241.646417,82.7651849 242.136417,82.301031 242.579032,82.6634157 C243.027571,83.0306465 243.517571,82.7344926 244.103955,82.9202618 C244.220801,82.9730311 243.981186,83.3596465 244.32634,83.4452619 C244.947186,83.2164157 245.568032,82.8933388 246.280955,83.3795696 C246.694494,83.6617234 247.348725,83.1803388 247.755802,83.7080311 C248.501032,83.6062619 249.064263,84.2330311 249.707725,84.270185 C250.382417,84.3084158 250.967725,84.7106466 251.638109,84.6083389 C252.003186,84.5523389 252.241725,84.8398773 252.530879,84.9448773 C254.740725,85.7466466 256.963494,86.5118005 259.143187,87.4094159 C261.942648,88.5622621 264.508956,90.0974161 267.074187,91.6594931 C267.59488,91.976647 268.076264,92.3901854 268.50111,92.7768008 C269.963034,94.1089548 271.609649,95.2542625 272.870726,96.7942626 C274.832342,99.1888012 276.61088,101.705032 277.897265,104.546494 C278.345265,105.536186 278.837957,106.534494 279.153496,107.544648 C279.558957,108.841802 280.245496,110.089956 280.234726,111.507725 C280.234188,111.603571 280.207803,111.724187 280.253573,111.792033 C281.011188,112.898571 280.744111,114.15911 280.835111,115.374417 C280.946034,116.850879 281.23788,118.314418 281.11565,119.805418 C281.656803,120.31211 281.093573,120.817187 281.107034,121.324418 C281.134496,122.351802 281.11565,123.380264 281.11565,124.407649 L281.11565,126.463495 C280.446342,126.913649 281.181342,127.81988 280.528188,128.275418 C280.624573,129.393803 279.934803,130.296264 279.706496,131.301034 C279.467419,132.352649 278.973649,133.262111 278.650572,134.250188 C277.931726,136.445496 276.521495,138.261726 275.496803,140.285803 C275.328803,140.618034 274.774188,140.815111 274.719265,141.13065 C274.595957,141.832265 273.769957,142.00188 273.719341,142.799881 C273.682726,143.383573 272.927264,143.72765 272.494341,144.178881 C272.157803,144.531034 272.39688,145.114188 271.889111,145.414111 C271.52188,145.631111 271.294111,146.075342 270.937111,146.320342 C269.408957,147.369265 267.963187,148.52965 266.40811,149.545727 C265.254187,150.300112 263.920418,150.763189 262.902187,151.72865 C262.002956,151.851958 261.383187,152.536343 260.598648,152.899804 C259.817341,153.262189 258.994033,153.510958 258.217571,153.895958 C257.376494,154.313266 256.496648,154.687497 255.57911,154.96965 C254.495725,155.30242 253.472648,155.787035 252.341879,156.034727 C251.663417,156.183343 250.988725,156.531189 250.284417,156.715881 C249.801417,156.84242 249.325417,157.139112 248.854802,157.121881 C248.408417,157.105189 248.030417,157.502574 247.587263,157.258112 C247.547417,157.236035 247.488725,157.16442 247.487109,157.166574 C246.697186,157.905881 245.552417,157.693727 244.687109,158.207958 C244.276263,158.451881 243.972032,158.386728 243.677494,158.049651 C243.474494,158.239189 243.271494,158.428189 243.085724,158.601574 C242.959724,158.517574 242.852571,158.446497 242.745417,158.374881 C242.303878,159.191189 241.380417,158.837958 240.723493,159.175035 C240.360032,159.361881 239.822109,159.407651 239.39134,159.454497 C238.865801,159.511574 238.423186,159.955805 237.908955,159.786189 C237.460955,159.637574 237.088339,160.206728 236.661339,159.844881 C235.844493,160.654189 234.712109,160.213189 233.767647,160.570728 C232.873262,160.908882 231.891647,161.058035 230.962801,161.202882 C230.139493,161.331574 229.329647,161.75642 228.451416,161.568497 C228.0158,161.475882 227.747108,161.991189 227.246877,161.885651 C226.866185,161.80542 226.361108,161.674035 226.050416,162.146805 C225.738108,161.609958 225.44357,162.222189 225.118877,162.170497 C224.709646,162.105343 224.313339,162.28142 223.907877,162.395574 C223.205185,162.592651 222.3948,162.325574 221.693723,162.739651 C220.488646,162.567882 219.355723,163.218882 218.143646,163.040651 C217.481877,162.943189 216.911646,163.459036 216.207877,163.347574 C215.587031,163.249035 214.889723,163.173112 214.311415,163.356728 C212.788646,163.839728 211.232492,163.395497 209.729107,163.642651 C206.640492,164.15042 203.541645,163.837574 200.449799,163.900574 C197.367106,163.963574 194.283337,163.921574 191.199568,163.906497 C190.729491,163.904343 190.249721,164.021189 189.782875,163.789112 C189.401644,163.600112 189.070491,164.074497 188.651029,163.920497 C187.451337,163.479497 186.161721,163.807959 184.967952,163.567805 C183.964798,163.36642 182.985336,163.405728 181.997798,163.309343 C181.499721,163.260882 181.047952,162.981959 180.500875,163.009959 C180.050182,163.033112 179.598413,163.127882 179.10249,162.854343 C178.686259,162.625497 178.039567,162.864574 177.545259,162.72242 C175.027951,161.998189 172.34749,161.998189 169.901259,160.977266 C168.902413,161.032728 168.001028,160.623497 167.057105,160.406497 C165.676489,160.088266 164.327643,159.666651 162.961566,159.306958 C162.299797,159.132497 161.554028,159.112574 160.998335,158.737266 C160.392566,158.327497 159.691489,158.294651 159.060951,158.092728 C157.802566,157.689958 156.669104,156.988881 155.381643,156.679266 C154.900796,156.563497 154.458719,156.272727 153.976258,156.18442 C153.00595,156.00565 152.311335,155.285727 151.380873,154.989573 C150.096642,154.579804 148.825335,154.020343 147.679488,153.313343 C145.966642,152.255804 144.13695,151.411496 142.466642,150.273727 C141.230334,149.431573 139.837873,148.820419 138.560642,148.032112 C138.213334,147.817265 137.817565,147.694496 137.497719,147.366035 C136.802026,146.652035 135.722949,146.720958 134.870565,146.294496 C134.831257,146.274573 134.737565,146.276727 134.730026,146.293958 C134.546949,146.735496 134.202872,146.255188 133.995026,146.419958 C133.602488,146.731188 133.156103,146.56965 132.740411,146.570188 C132.381257,146.570188 132.06518,146.999881 131.646257,146.603035 C131.398026,146.367727 131.041564,146.916958 130.810026,146.764035 C130.504718,146.56265 130.359872,146.703188 130.077718,146.763496 C128.888257,147.01765 127.666487,146.857188 126.457103,146.857188 C126.136718,146.398958 125.639718,146.548111 125.252564,146.61165 C124.764718,146.691881 124.491718,146.21265 124.048026,146.291804 C123.322718,146.421573 122.700256,145.821727 121.96741,145.997804 C121.443487,145.373188 120.530256,146.043035 120.007948,145.410881 C118.838948,145.63865 117.876179,144.807804 116.729256,144.780342 C116.094948,144.764727 115.460102,144.335573 114.846256,144.04965 C113.647102,143.491265 112.350486,143.226342 111.114179,142.781034 C110.854102,142.687342 110.511102,142.833265 110.243486,142.749265 C109.957563,142.659881 109.876794,143.254881 109.546717,142.884957 C109.301717,142.610881 109.257025,143.132111 108.984025,143.082573 C108.726102,143.035727 108.442871,143.04865 108.146717,143.154188 C107.502717,143.382496 106.823178,143.543496 106.145255,143.633419 C105.497486,143.718496 104.82764,143.574188 104.205717,143.928496 C103.99464,144.048573 103.731871,143.916111 103.603178,143.633419 C103.436794,144.206881 102.952717,144.349573 102.515486,144.509496 C102.410486,144.547727 102.21287,144.333958 101.97164,144.181573 C101.22964,144.944034 100.098332,144.678034 99.1958703,145.124958 C98.5696395,145.435111 97.8254856,145.297804 97.224024,145.690881 C97.1696394,145.726419 96.9908702,145.573496 96.8147932,145.47765 C96.3307163,145.985958 95.6183316,146.099573 94.9328701,146.301496 C94.198947,146.517958 93.4666392,146.65365 92.7165623,146.573958 C92.3918699,146.871727 92.1490238,147.167342 91.6261776,147.202342 C90.765716,147.259419 90.001639,147.82265 89.1072544,147.831265 C88.8207928,148.335265 88.5289466,147.473727 88.1730235,147.85065 C87.9404081,148.097804 87.5521774,148.224342 87.2113312,148.337958 C86.8581004,148.455342 86.4219465,148.178573 86.1047927,148.495189 C85.8167157,148.782727 85.3041003,148.461265 85.0967926,148.904958 C84.0457156,148.826881 83.1044848,149.258189 82.1174847,149.504266 C80.5645616,149.891419 78.9685615,150.100881 77.4538691,150.657112 C77.1954076,150.751881 76.8787922,150.695342 76.5890998,150.695881 C76.0710998,150.696419 75.5396382,150.619958 75.1697151,151.058804 C74.989869,150.89565 74.884869,150.799804 74.7777151,150.703419 C74.3286382,151.202035 73.749792,151.297343 73.1111766,151.291958 C72.1753304,151.284419 71.2125611,151.120727 70.3897918,151.826112 C70.218561,151.973112 69.8254841,151.849266 69.5368687,151.875112 C68.7905609,151.942958 67.9968686,151.652189 67.3092532,152.165881 C66.8030993,151.612881 66.2732531,152.099112 65.7950992,152.189035 C64.2690992,152.476035 62.7538683,152.883112 61.1912528,152.72642 C60.7335605,152.68065 60.5246374,153.041958 60.1364066,153.062958 C59.7643297,153.082881 59.3222527,152.772727 59.1488681,152.889573 C58.7584835,153.151804 58.3907142,153.029035 58.0294065,153.029035 C57.629868,153.029035 57.4327911,153.440958 56.9724064,153.367727 C56.3041756,153.262189 55.6063294,153.343496 54.9214063,153.340266 C53.5833293,153.334343 52.2899446,153.763497 50.9292523,153.656881 C49.616483,153.554035 48.2859444,153.68165 46.9688674,153.607343 C46.5434828,153.583112 46.2037135,154.335881 45.7158674,153.669804 C45.4164827,153.26165 45.0196366,154.100035 44.6260211,153.725804 C43.7208673,154.282035 42.8587903,153.608958 41.9708672,153.62942 C40.991944,153.652035 40.011944,153.61165 39.0346362,153.645035 C38.5893285,153.660112 38.3184823,153.22665 37.8295592,153.314958 C37.4881746,153.376881 37.0735592,153.479727 36.7240976,153.178189 C36.4543284,152.945035 36.3008668,153.544343 36.0267899,153.334343 C35.8361745,153.188958 35.6924053,153.043573 35.4097129,153.036035 C34.0587129,152.999958 32.7777128,152.670958 31.5020973,152.205189 C30.9695589,152.010804 30.3734819,151.823419 29.7284049,151.834189 C29.1156357,151.844419 28.4834818,151.577881 27.8836356,151.365189 C25.3668662,150.473496 22.8710969,149.520958 20.4776352,148.33365 C19.5832505,147.890496 18.8170197,147.217958 17.8574812,146.855573 C17.4003273,146.683265 17.0993273,146.209419 16.9140965,145.717265 C16.8327888,145.798035 16.7638658,145.866958 16.6841735,145.94665 C16.0703273,145.583727 15.4823272,145.162111 14.8867887,144.774958 C14.1857118,144.318881 13.4932502,143.79765 12.8885579,143.170342 C12.1977117,142.453111 11.5747116,141.663188 10.6604039,141.144111 C10.1693269,140.865188 9.93994232,140.18565 9.51509614,139.728496 C8.62340378,138.769496 7.78178835,137.763649 6.97517292,136.721726 C6.20032673,135.720726 5.52832669,134.645957 4.89509588,133.591111 C3.68786505,131.580495 2.49086498,129.516572 1.83394187,127.237803 C1.63255724,126.539418 1.20986491,125.895957 1.21578799,125.141572 C1.22171107,124.423803 0.81409566,123.827726 0.663864882,123.173495 C0.488326411,122.408879 0.49478795,121.59311 0.391403329,120.799956 C0.275634092,119.917956 -0.0845966974,119.068802 0.0182494621,118.137802 C0.11355716,117.26711 0.0435571558,116.37811 0.0376340786,115.496648 C0.0236340778,113.374571 0.747864887,111.432879 1.44732646,109.473956 C1.93409572,108.109494 2.57432653,106.806955 2.99540347,105.413417 C3.24471118,104.587955 3.91455737,103.959571 4.2812497,103.159417 C5.15086513,101.26134 6.43132674,99.6184935 7.66817296,97.9476473 C8.0725576,97.4011088 8.73755763,97.0220318 8.85601918,96.2671087 C8.8684038,96.1863395 8.95671149,96.1109549 9.02186534,96.0447241 C9.33094228,95.730801 9.61309614,95.3791856 9.96363462,95.120724 C10.3281731,94.8525702 10.7234039,94.6501086 10.6641731,94.1068009 C11.2279424,94.1283394 11.1805578,93.5419547 11.4724039,93.2888778 C11.8035578,93.0002624 12.1217886,92.6901085 12.4077117,92.3562624 C14.5594041,89.846493 16.9210965,87.5391852 19.2709428,85.2205697 C20.010789,84.4898773 20.851866,83.8620311 21.6105583,83.149108 C22.4306353,82.3785695 23.1397892,81.4761079 24.0196354,80.7868771 C25.4088662,79.6986463 26.6214817,78.406877 28.0306356,77.3590308 C29.2701741,76.4371846 30.4865588,75.4749537 31.6657897,74.4944152 C32.7960205,73.5558767 33.9881744,72.6937997 35.1237899,71.7649535 C36.1619438,70.9163381 37.20279,70.0467227 38.3497131,69.3181842 C38.9780978,68.9191841 39.5057901,68.3435687 40.0862517,67.8584149 C40.963944,67.1239533 41.8324825,66.3507225 42.7198672,65.6426455 C44.628175,64.1209531 46.2694059,62.3402607 47.9472521,60.6026452 C50.1360984,58.3367989 52.0282523,55.8173373 53.7997909,53.2036448 C55.4194833,50.8128755 56.7279449,48.2438753 58.2275604,45.7906444 C60.4164066,42.2104134 62.0700221,38.3647209 64.0854838,34.7047976 C65.1397915,32.7911052 65.9814069,30.7594897 67.2516378,28.9583358 C67.4971763,28.6104896 67.626407,28.1414896 67.864407,27.7473357 C67.949484,27.6067973 68.0604071,27.4107972 68.0878686,27.2611049 C68.229484,26.4954126 69.301561,26.2563356 69.1459456,25.3452587 C69.6036379,24.8197202 69.9191764,24.1913355 70.3294841,23.6474893 C70.527638,23.3836432 70.7187918,23.2011047 70.8717149,22.8564893 C71.1414841,22.2464123 71.3412534,21.5361815 71.9270996,21.0865661 C72.0730227,20.9745661 72.2566381,20.8103353 72.2765611,20.6514892 C72.4219458,19.4889507 73.2931766,18.7178737 73.812792,17.7615659 C74.3178689,16.8316428 74.8854074,15.9399505 75.5304844,15.0827196 C76.1152536,14.3057196 76.6310998,13.4764888 77.2713306,12.7269503 C78.2443307,11.589181 78.9669461,10.2532578 80.2824077,9.39225779 C80.7740231,9.06971931 81.1202539,8.50918082 81.6247924,8.10102695 C83.5950233,6.50502686 86.0207927,4.53210368 89.1261005,3.55048824 C90.2832544,2.62971896 91.8997161,2.57694973 92.97987,1.51079582 C93.9744085,1.34333427 94.7971778,0.721411162 95.8331778,0.575488077 C97.4151779,0.35310345 98.969178,0.012257277 100.587255,0.00108420151 C101.991024,-0.00551195476 102.275332,0.00471881503 103.40664,0.429026531 C104.509409,0.843103477 105.649332,1.16941119 106.773101,1.52694967 C108.541409,2.08964201 110.300025,2.67333435 111.841102,3.84179595 C113.730025,5.27410372 114.432717,6.66871918 116.037871,8.85595007 C116.710948,9.77348858 117.282794,10.7782579 117.798102,11.7948733 C118.267102,12.7188734 118.577256,13.7225657 118.995102,14.6745658 C119.449564,15.7121812 119.922333,16.731489 120.264256,17.8251044 C120.439256,18.3856429 120.248102,19.1120276 120.763948,19.5110276 C121.308872,19.9315661 120.740256,20.6951046 121.339025,21.0451046 C121.133333,22.5361047 122.057333,23.862874 121.955564,25.3554894 C121.923795,25.8174895 122.249564,26.2983356 122.38741,26.7775664 C122.781564,28.1409511 123.172487,29.502182 123.412102,30.9091821 C123.62641,32.171336 123.927949,33.4264899 124.299487,34.65149 C124.48041,35.2448746 124.717333,35.8781054 125.196564,36.3304131 C126.241718,37.3157978 126.729564,38.6081056 127.206103,39.9052595 C127.36118,40.3274133 127.914718,40.3844903 127.990641,40.8513364 C129.232333,41.4759519 129.137564,41.5621057 129.878487,42.3832596 C131.109411,43.7471828 131.569795,45.5327213 132.610641,46.9892599 C133.254103,47.891183 133.844257,48.8307984 134.486641,49.7337985 C135.376718,50.9846447 136.344872,52.1832601 137.177334,53.4707218 C137.58818,54.1066449 138.129334,54.6257218 138.575719,55.2207219 C139.493257,56.4435681 140.389796,57.7649528 141.664873,58.6356451 C143.192488,59.6781067 144.174642,61.3780299 145.953719,62.0882607 C147.339719,63.5011838 149.131181,64.2851839 150.819796,65.2285686 C151.203181,65.9414917 152.309181,65.7627224 152.560104,66.6387994 C153.113104,66.1633378 153.248258,67.0480302 153.637027,66.9791071 C154.191104,66.8805686 154.356412,67.3856456 154.718796,67.5751841 C155.11995,67.7851841 155.517335,68.0409533 155.947566,68.1427226 C156.278181,68.221338 156.342797,68.4867995 156.623335,68.585338" id="Fill-229"></path>
                    </g>
                    <g id="57" transform="translate(67.000000, 119.000000)" fill="#FDBF5E">
                        <path d="M19.1762548,6.47272236 C18.7657814,6.47272236 18.4741838,6.4876336 18.1846572,6.46899455 C17.793237,6.44372828 17.5712252,6.66574011 17.4022311,6.96810697 C17.3301601,7.09733774 17.2833554,7.30402413 17.4465507,7.34958626 C17.7464323,7.4332549 17.9941246,7.28414248 18.2206927,7.06503005 C18.4509885,6.84301822 18.8772015,6.97142058 19.1762548,6.47272236 M16.6947755,23.9391721 C15.4086808,24.0510064 14.4050714,24.7042016 13.514953,25.5744383 C14.750101,25.3652667 15.664243,24.5414206 16.6947755,23.9391721 M25.0918761,44.4234916 C25.5740063,44.2747934 26.0499234,44.1004147 26.539095,43.9823673 C28.0637696,43.6149709 29.040456,42.3876928 30.300456,41.6056809 C30.529095,41.4636099 30.6210477,41.144675 30.4735921,40.9019531 C30.2938288,40.6049709 30.0685033,40.8166277 29.9388584,40.9831366 C28.6767873,42.612604 26.794243,43.3039058 25.0918761,44.4234916 M31.0857814,54.6637874 C32.040101,54.3672194 33.0114027,54.1157993 33.9458406,53.7657993 C37.6864915,52.3645567 40.9686217,50.1506514 44.181166,47.8394087 C44.4545388,47.6426632 45.1060773,47.0855626 44.5382075,46.3714798 C40.7101601,50.2347342 35.8693909,52.3715981 31.0857814,54.6637874 M20.3140655,2.87911289 C17.0393909,2.59041467 6.70714237,10.1756809 5.2106335,13.6011247 C9.63595894,9.16751526 14.3325862,5.11994129 20.3140655,2.87911289 M25.3958998,4.29526674 C25.4435329,4.85816615 25.8187992,5.56023715 24.7050122,5.16301822 C24.1131187,4.95177561 23.7776157,5.92224899 22.9736513,6.01337325 C22.5420536,6.06183478 21.8374974,6.29088804 21.2729412,6.47645017 C20.9038879,6.59822532 20.4341838,6.45491171 20.3041246,7.00331407 C20.2639471,7.17230816 20.146314,7.2920123 19.9818761,7.19757443 C19.1435329,6.71585845 18.5951305,7.39514839 17.9945388,7.72153893 C15.5424678,9.05568094 13.1777933,10.5770419 11.1109294,12.4256218 C8.15767492,15.0665685 5.36347374,17.8976336 3.00169859,21.1105922 C2.95737906,21.1710656 2.934598,21.2717164 2.87743823,21.2953259 C2.34518971,21.5144383 2.9714619,23.0030774 1.73092936,22.3950301 C0.0372607179,21.5653851 -0.350017389,20.8247934 0.293237049,19.5664502 C1.04956841,18.0869235 1.87341456,16.636391 2.74779326,15.2223082 C5.91601811,10.0978111 10.3471424,6.28633183 15.5337696,3.36331407 C19.0271424,1.39461585 22.878385,0.429527092 26.8783258,0.144556678 C29.9620536,-0.0753841507 33.049095,-0.125088293 36.0876749,0.587337743 C37.1459589,0.83503005 38.2423495,1.06739691 39.1950122,1.55449751 C39.6941246,1.81005964 40.2098051,1.9359768 40.6612844,2.14970461 C42.4154264,2.97893538 44.4296868,3.35047384 45.8040063,4.93769277 C46.1399234,5.32497088 46.8395092,5.28645017 47.3667873,5.64059218 C52.340101,8.98153893 55.4756039,13.5671602 56.41874,19.448817 C57.3395092,25.190888 57.5553081,30.9818348 56.1780891,36.722249 C55.8682666,38.0133141 55.2622903,39.1507105 54.6695684,40.3315981 C53.9890359,41.688107 53.0997459,42.950178 52.6126453,44.4073377 C52.5082666,44.7192312 52.3748939,45.0758585 52.140456,45.2804738 C50.7330004,46.5098229 49.7525862,48.1140241 48.426314,49.4204147 C46.9277341,50.8966277 45.2879116,52.1483437 43.5358406,53.3035508 C42.1536513,54.2147934 40.8824678,55.3132549 39.5458406,56.2891129 C37.9147163,57.4791129 35.9286217,58.0627224 34.0141838,58.7250301 C32.2480299,59.3359768 30.4193317,59.6313022 28.5873199,59.9357401 C28.2857814,59.9854443 28.0356039,60.1631366 27.8086217,59.8040241 C27.7469057,59.7062727 27.5364915,59.610178 27.436669,59.6428999 C24.5476157,60.6001188 20.7034146,59.68432 18.3793317,58.4777519 C15.4587992,56.9613614 12.7880299,55.0610064 10.6652489,52.5691721 C8.95045598,50.5557401 7.75424297,48.1848525 7.09524888,45.5488762 C6.58785243,43.520533 6.01791161,41.5157993 5.66915421,39.446036 C5.18371042,36.5689945 5.96240865,34.0001188 7.39264533,31.5770419 C8.59424297,29.5408289 9.93998261,27.5986395 11.3619353,25.7036691 C12.7851305,23.8062135 14.8838879,23.0130182 16.9598643,22.3536099 C19.4500418,21.5624857 22.063237,21.2162135 24.712882,21.318107 C26.5676749,21.3893496 28.1416394,22.0458585 29.4737104,23.3182845 C31.3053081,25.0678703 32.6303376,27.1637283 33.6766098,29.4521898 C34.5509885,31.3657993 34.5866098,33.4620715 34.9813436,35.4779886 C35.0757814,35.9572194 34.7498051,36.3014206 34.1728228,36.3415981 C33.6836513,36.3755626 33.2984441,36.5810064 33.4927045,37.1994087 C33.5693317,37.1994087 33.6061956,37.2023082 33.6422311,37.1989945 C34.1144205,37.1575744 34.1811069,36.2086395 34.7758998,36.5979886 C35.3143613,36.950888 35.1693909,37.6032549 35.1234146,38.1649117 C34.9295684,40.5271011 34.0556039,42.591894 32.281166,44.1840833 C30.8103376,45.5033141 29.5039471,46.9741425 27.4859589,47.6658585 C23.4118761,49.0633732 21.3943021,47.8787579 18.4257223,45.1313614 C17.4502785,44.228817 17.1561956,42.9530774 16.6993317,41.7672194 C15.3361956,38.2307697 17.999095,35.8582253 20.984243,35.8259176 C20.6615802,37.0370419 19.0466098,36.7897638 18.5019353,38.0452076 C19.5192134,37.7374561 20.1579116,37.142249 20.9167282,36.7918348 C21.2547163,36.6356809 21.8507518,36.223965 21.9845388,36.6489354 C22.1431779,37.1530182 22.9819353,37.3580478 22.4032962,38.3571011 C21.7869649,39.4215981 21.1068465,40.572249 20.7725862,41.8202372 C20.4876157,42.8826632 21.1780891,43.716036 22.2376157,43.6224265 C25.2032962,43.3614798 27.7597459,42.0824265 29.8216394,40.0499413 C31.1541246,38.7373377 31.5165507,36.8166869 31.3686808,34.9457401 C31.212527,32.9786987 31.1222311,30.9839058 30.3095684,29.1204147 C30.0651897,28.5608289 28.9236513,26.5461543 28.4220536,26.1704738 C28.0434737,25.8871602 27.5957223,25.7517164 27.0982666,25.7546158 C26.8422903,25.7558585 26.4198051,26.0279886 26.3754856,25.3942608 C26.3543613,25.091894 25.8196276,25.0823673 25.7993317,25.3242608 C25.7309885,26.1356809 25.1063731,25.931894 24.7095684,25.9559176 C22.5312844,26.0859768 20.5021128,26.8911839 18.3938288,27.3310656 C17.5339471,27.5108289 16.780101,28.132959 16.5009294,29.0760951 C16.3741838,29.5035508 16.1322903,29.8651484 15.8009294,30.0672786 C14.0774382,31.1168644 13.6102193,32.9521898 12.7934146,34.5965685 C12.3087992,35.5720123 11.3967282,36.2943792 11.05874,37.4077519 C10.5024678,39.2405922 10.4714027,41.0999413 10.8719353,42.9199413 C11.3151305,44.9317164 11.824598,46.9517756 12.679095,48.8388762 C13.9158998,51.5692904 16.296314,52.9216573 18.9836513,53.8830182 C20.0237104,54.2553851 21.2203376,54.0400005 22.1850122,54.8290537 C22.3357814,54.9524857 23.230456,54.4637283 23.8509294,54.4040833 C29.7392134,53.8374561 35.0103376,51.6094679 39.9915211,48.5037874 C43.1924678,46.5081661 45.5919353,43.7955626 47.6973199,40.7474561 C50.894953,36.1183437 51.8418169,30.852604 51.9590359,25.3880478 C52.0174382,22.6456218 51.9395684,19.8940833 51.5816986,17.1603555 C51.0676749,13.2337283 49.0546572,10.4121898 45.5774382,8.50686437 C43.9885625,7.63579928 42.3520536,6.83266319 40.7606927,5.97568094 C40.1195092,5.63023715 39.1295684,5.13153893 37.9938288,5.37757443 C37.0067873,5.59130224 35.840811,5.03005964 34.7112844,4.99650934 C33.4956039,4.96088804 32.3022903,4.48828449 31.0596868,4.81633183 C30.739095,4.90082887 30.6674382,4.79479336 30.8443021,4.47337325 C30.9809885,4.22485254 30.6686808,4.09272236 30.5564323,4.19420165 C29.5424678,5.10378745 28.0948347,4.31556259 27.0017578,5.19739691 C26.3419353,5.72964544 26.1364915,4.46591762 25.3958998,4.29526674" id="Fill-135"></path>
                    </g>
                    <g id="100" fill="#4FBF9F">
                        <path d="M12.7297192,15.9486739 C12.731376,15.0411592 12.865163,14.3527568 12.0160506,14.1029935 C11.1271749,13.8416325 10.9594234,14.5267213 10.6636837,15.0896207 C10.5174707,15.3675497 10.3919678,15.759384 9.95871332,15.7071947 C9.51013343,15.6537627 9.36267781,15.3178455 9.29847663,14.9123426 C9.25912752,14.6642361 9.29267781,14.3345319 8.97788491,14.2483781 C8.61214527,14.1485556 8.46717485,14.4749461 8.28244113,14.705242 C6.72048846,16.650745 5.48326953,18.7967213 4.47386124,21.0673722 C3.84966006,22.4723426 3.29297367,23.9208041 3.12563639,25.4695024 C2.89409793,27.6150645 4.51942337,28.8067213 6.50137604,27.9559521 C7.67273698,27.4531118 8.61463048,26.6358929 9.31214527,25.5925201 C11.3181216,22.5920467 12.2571157,19.2100941 12.7297192,15.9486739 M16.1286541,15.0461296 C15.8105476,20.6146503 14.3608435,25.8426976 11.3814944,30.6026976 C10.5924411,31.8631118 9.47658314,32.8170171 8.27664231,33.6673722 C7.53605059,34.1925793 6.68113935,33.9192065 5.86847663,33.9639402 C5.61912752,33.9776089 4.89137604,33.2651828 5.05539971,34.3358929 C5.06534053,34.4025793 4.64368373,34.3437627 4.44321036,34.2522242 C3.11362456,33.6433485 2.01889083,32.8004491 1.35202692,31.4356562 C-0.550813312,27.5409225 -0.34702633,23.6586148 1.34995592,19.7767213 C2.83859497,16.3719876 4.73563639,13.2584373 7.57581391,10.7695024 C9.01184941,9.51115916 10.8069973,9.24855561 12.5168198,8.87867395 C13.9619678,8.56595206 15.4178849,9.93240176 15.7931512,11.559384 C16.0565831,12.7013367 16.0996601,13.8681414 16.1286541,15.0461296" id="Fill-550"></path>
                        <path d="M85.1975299,9.95729525 C84.3509027,12.727887 84.4420269,15.2462302 85.7339204,17.6456976 C86.6903109,19.4222065 87.9706068,19.5042183 89.2740979,17.9364668 C90.2267607,16.7907864 90.7888317,15.4363485 91.2320269,14.0288929 C91.8976482,11.9156384 91.1404885,10.4597213 89.074453,9.70090472 C88.2435654,9.39563845 87.7635062,9.59238401 87.604453,10.4298988 C87.4669382,11.1547509 87.1956364,11.8286562 86.3982991,11.7946917 C85.5069382,11.756171 85.574453,10.8730941 85.4021453,10.2451651 C85.3930328,10.2116148 85.3603109,10.1838633 85.1975299,9.95729525 M81.7708435,15.6931532 C81.7066423,11.2429757 82.8966423,7.6646917 85.2174115,4.45131892 C85.7260506,3.7459343 86.2976482,3.08859703 87.0510802,2.63380413 C88.10895,1.9946917 89.2757547,2.34179229 89.5992459,3.4998988 C89.780666,4.15102306 90.0987725,4.28895206 90.6682991,4.38670353 C93.2322044,4.82658519 95.1752222,6.69338992 95.2555772,9.24694022 C95.4225003,14.5383603 93.7764648,19.318242 90.1629737,23.1980645 C87.5381808,26.0158751 84.6603109,25.3452834 83.0097192,21.823745 C82.0305476,19.7341 81.7729145,17.4990704 81.7708435,15.6931532" id="Fill-552"></path>
                        <path d="M56.2746068,24.7510704 C56.3272104,25.6515438 56.5322399,26.6903603 57.4878021,27.1472242 C58.3650802,27.56681 59.0576246,26.7980526 59.6167962,26.2198278 C61.9185121,23.8410704 63.3495772,20.972313 64.1493997,17.7821355 C64.3573287,16.9541473 63.8416482,16.5482302 63.1167962,16.3042657 C62.430879,16.0731414 61.9814707,16.1969876 61.7018849,16.9346799 C61.52295,17.406455 61.2694589,17.9776384 60.6075654,17.884029 C60.0309973,17.8024313 60.1482163,17.1968692 59.98295,16.8137331 C59.8988672,16.6194728 59.9667962,16.3237331 59.6822399,16.2769284 C59.4299914,16.2355083 59.2518849,16.4513071 59.1562044,16.636455 C57.8444293,19.1738515 56.555021,21.7216029 56.2746068,24.7510704 M67.8689263,16.125745 C67.678808,20.1882302 66.1417074,23.8563958 64.4737192,27.482313 C63.4846068,29.6316029 62.2316482,31.5365142 60.0450802,32.7103603 C58.1211157,33.7433781 56.3342518,33.3950349 55.2680979,31.4424905 C53.5909973,28.3699461 52.9332459,25.1122538 53.9695772,21.6627864 C54.8737784,18.6523722 56.2551394,15.8946207 58.3443701,13.5129639 C58.6641334,13.148881 59.070879,12.7756858 59.4697547,12.8862775 C60.337092,13.1265142 60.6680388,12.510597 60.9728908,12.028881 C61.7983938,10.7220763 62.9983346,10.4093544 64.3776246,10.6458633 C65.9014707,10.9072242 67.1237784,11.6449166 67.6440151,13.2250941 C67.9559086,14.171958 68.0089263,15.1387035 67.8689263,16.125745" id="Fill-554"></path>
                        <path d="M82.9068731,37.4345319 C82.5713701,37.7679639 82.5556305,38.1163071 82.4914293,38.4443544 C82.4185299,38.8158929 82.1517843,39.0258929 81.8494175,38.846958 C81.1042695,38.4050053 80.7443287,38.9380822 80.3342695,39.3572538 C79.227524,40.4876089 78.2297133,41.7339402 77.4887074,43.1099166 C76.6851571,44.6010408 75.8343879,46.1410408 76.0518435,47.9709816 C76.1868731,49.1087923 76.2920802,50.3584373 77.5533228,50.7349461 C78.8456305,51.1205674 79.8223169,50.2751828 80.6693583,49.3722242 C80.720305,49.3179639 80.7534411,49.2475497 80.8014885,49.1899757 C82.6484115,46.9595024 83.4730861,44.2551828 84.1345654,41.5322242 C84.4911926,40.0630526 84.0968731,38.5822834 82.9068731,37.4345319 M87.7919618,38.6096207 C87.7124352,42.1154195 86.5497725,45.3217509 85.2404825,48.5260112 C84.3371098,50.7374313 83.1276423,52.6928751 81.5835003,54.479739 C80.2315476,56.0433485 77.4621985,56.6679639 75.5610151,55.5512775 C74.8490033,55.1329343 74.7226719,54.2076089 73.9452163,53.892816 C74.8490033,52.910745 73.4846246,52.5006858 73.4034411,51.7534668 C73.0724944,48.7219284 73.1669323,45.8076089 74.5897133,42.9620467 C75.9822577,40.1757154 77.8043287,37.8296799 80.283737,35.9782006 C80.559595,35.7719284 80.631666,35.5441177 80.6623169,35.223526 C80.7049796,34.7803308 80.763382,34.3172538 80.9319618,33.9113367 C81.9007784,31.5756562 83.5215476,31.1950053 85.412376,32.8721059 C87.1246837,34.3909816 87.854092,36.3439402 87.7919618,38.6096207" id="Fill-556"></path>
                        <path d="M23.0357902,40.7675674 C23.0813524,41.3433071 22.9889855,42.003958 23.5759086,42.2918278 C24.1226541,42.559816 24.5604648,42.073958 24.968453,41.7612361 C25.5396364,41.3230112 26.0085121,40.7746089 26.389163,40.1673899 C27.9026541,37.7521828 28.9000506,35.1414728 29.337447,32.3166207 C29.4480388,31.6000526 29.4625358,30.7120053 28.7575654,30.5769757 C28.0128317,30.4344905 26.9437784,30.260526 26.4881571,31.3755556 C26.3614115,31.6862065 26.2027725,31.9956148 26.0010565,32.2623603 C24.0986305,34.7856739 23.6616482,37.8076858 23.0357902,40.7675674 M32.2583938,31.7967982 C32.0111157,35.6923603 30.86295,39.6119461 28.7554944,43.2482183 C28.4920624,43.7017686 28.1727133,44.122597 27.908453,44.5757331 C26.8393997,46.407745 25.1519441,47.1321828 23.1322991,47.181887 C22.4347843,47.1988692 22.0458494,46.6463248 21.7310565,46.0647864 C20.5920033,43.9602302 20.3016482,41.7136029 20.7667962,39.4048455 C21.688808,34.8304077 23.4040151,30.5666207 25.9907015,26.6648455 C26.45295,25.9669166 27.0469145,25.3944905 27.655376,24.8465024 C28.34295,24.2276858 28.9282163,24.4617095 29.1609973,25.3712953 C29.240524,25.6831887 29.2177429,26.0452006 29.6526541,26.1644905 C31.3873287,26.6408219 31.6188672,28.2114728 32.0492222,29.5907627 C32.2343701,30.1855556 32.178453,30.8553189 32.2583938,31.7967982" id="Fill-558"></path>
                        <path d="M39.558524,58.9181947 C40.4821926,58.0972479 40.7978139,57.1044077 41.2915417,56.1956503 C42.1986423,54.5239343 42.6091157,52.748668 42.858879,50.9063012 C42.9002991,50.5997923 42.8833169,50.271745 42.5200624,50.1636384 C42.165092,50.0580171 41.9803583,50.3533426 41.8221334,50.5894373 C41.6788198,50.8039935 41.6680506,51.1949994 41.4887015,51.2819816 C40.8827251,51.5768929 41.2936127,53.0655319 39.9975772,52.5341118 C39.8318967,52.466597 39.6778139,52.7656503 39.8749737,52.9118633 C40.7356837,53.5484905 40.1868672,54.2460053 39.9520151,54.8892597 C39.4918376,56.1513308 39.161305,57.4096739 39.558524,58.9181947 M38.663021,63.9747627 C39.8989973,63.3969521 39.3920151,62.7976029 38.6762754,62.5250586 C37.040595,61.9012716 36.9382873,60.3956503 36.6384056,59.0896739 C36.4466305,58.2546444 36.6081689,57.2775438 36.8272814,56.4193189 C37.8184648,52.5349402 39.6036719,48.9947627 41.751305,45.6347627 C42.1046186,45.0813899 42.7267488,44.7206207 43.0808908,44.128313 C43.2341453,43.8727509 43.5307133,43.7074846 43.8637311,43.8201473 C44.1926068,43.9315674 44.2887015,44.1639343 44.2522518,44.5251177 C44.184737,45.1986089 44.4779914,45.7068337 44.973376,46.1943485 C46.3377547,47.5355319 46.2101808,49.3377213 46.0660388,50.9829284 C45.6986423,55.184171 44.2820743,59.0780763 41.9886423,62.6174254 C41.2902991,63.6955911 40.3160979,64.5231651 38.663021,63.9747627" id="Fill-560"></path>
                        <path d="M36.1049559,8.71812957 C36.0167311,8.41162069 35.9285062,8.10469762 35.8001038,7.65736034 C34.8176186,8.90120649 34.1561394,10.1906148 33.7551926,11.5943426 C33.4896896,12.5242242 34.2145417,13.3286029 35.1862577,13.277242 C36.1654293,13.225881 36.8898672,12.6824491 37.4146601,11.9103781 C38.7989204,9.87333667 39.415666,7.52523016 39.7710506,5.15185738 C39.8766719,4.44440176 39.7921749,3.48718282 39.3522932,2.70641359 C38.9720565,2.03250827 39.7412281,0.333869215 40.5352518,0.0783070847 C41.5293346,-0.24187043 42.0011098,0.476768623 42.3395121,1.20162069 C43.0067902,2.62937217 42.773595,4.1788988 42.6369086,5.6484846 C42.3270861,8.97162069 41.3272044,12.1129225 39.6119973,14.9990763 C38.8486246,16.2839284 37.9725891,17.464816 36.3464352,17.6984254 C33.5758435,18.0956444 32.4396896,17.8044609 31.719808,15.021029 C30.7708731,11.3532775 32.7826482,6.26481596 35.9098672,4.06499348 C36.2561394,3.82102898 36.6061394,3.61517099 37.056376,3.78954969 C37.5699855,3.98795206 37.4954293,4.4597272 37.5128257,4.84576271 C37.5774411,6.28304081 36.9337725,7.50824791 36.3890979,8.75913549 C36.2942459,8.74546685 36.199808,8.73179821 36.1049559,8.71812957" id="Fill-562"></path>
                        <path d="M55.2710802,76.9355319 C54.3842754,77.0121592 53.7356364,76.6642302 53.6962873,75.8176029 C53.6275299,74.3219225 53.2945121,72.9277213 53.7302518,71.290384 C54.4633879,68.5355319 55.5896009,66.0569521 57.1382991,63.7527509 C57.8221453,62.735887 57.5433879,61.6055319 57.9749855,60.5890822 C58.3345121,59.742455 58.7578257,58.9699698 59.423447,58.3370704 C59.8546305,57.9270112 60.3135654,57.6196739 60.9282399,57.9729876 C61.5052222,58.3043485 61.7462873,58.6688455 61.7823228,59.4670112 C62.0076482,64.4606207 60.117234,68.912455 58.4335062,73.4272479 C58.0607251,74.4254728 57.4659323,75.2849402 56.8458731,76.1398515 C56.4296009,76.7131059 55.9263465,77.0047035 55.2710802,76.9355319" id="Fill-564"></path>
                    </g>
                </g>
            </g>
        </g>
    </g>
</svg>