<?xml version="1.0" encoding="UTF-8"?>
<svg width="201px" height="147px" viewBox="0 0 201 147" version="1.1" xmlns="http://www.w3.org/2000/svg" xmlns:xlink="http://www.w3.org/1999/xlink">
    <!-- Generator: sketchtool 61 (101010) - https://sketch.com -->
    <title>4D83AEF1-AA60-4330-9B97-B31644E3A328</title>
    <desc>Created with sketchtool.</desc>
    <g id="Page-1" stroke="none" stroke-width="1" fill="none" fill-rule="evenodd">
        <g id="Case-Study-for-Edplus" transform="translate(-527.000000, -9972.000000)">
            <g id="Result" transform="translate(-394.000000, 9345.000000)">
                <g id="yg-d" transform="translate(921.000000, 627.000000)">
                    <path d="M181.66225,39.9229586 C181.598878,39.8865089 181.535505,39.8504734 181.472132,39.8140237 C181.318878,40.0198817 181.20083,40.2725444 181.004085,40.4195858 C180.789529,40.5798817 180.432073,40.5773964 180.261008,40.7608876 C179.903552,41.1444379 179.444617,41.3171598 179.003493,41.5383432 C178.856452,42.227574 178.214026,42.4218343 177.748463,42.7929586 C177.383552,43.084142 177.006215,43.3616568 176.658286,43.6718935 C176.555564,43.763432 176.535268,43.9473373 176.47728,44.0889941 C176.857102,43.934497 177.065446,43.5878107 177.495801,43.7062722 C177.81515,43.794497 177.782428,43.510355 177.90296,43.3533728 C178.003611,43.2228994 178.450949,43.2576923 178.463375,43.1769231 C178.530889,42.73 178.893315,42.66 179.185742,42.4748521 C179.516688,42.2656805 179.869588,42.0511243 180.113552,41.756213 C180.360002,41.4579882 180.681008,41.480355 180.969706,41.393787 C180.898049,41.2127811 180.829292,41.0379882 180.717043,40.7546746 L181.66225,40.7546746 L181.66225,39.9229586 Z M72.8267474,17.8389941 C72.0621321,18.2519527 71.7966291,19.0037278 71.4453865,19.693787 C71.1144398,20.344497 70.9591143,21.0805325 70.6596469,21.732071 C70.3233155,22.4643787 70.1526646,23.2281657 70.1220137,23.9749704 C70.0901202,24.7557396 69.5644989,25.5108284 69.9629605,26.3247337 C70.0760374,26.1308876 70.2052682,25.9585799 70.278996,25.7651479 C70.3291143,25.6342604 70.2802386,25.4689941 70.3121321,25.3273373 C70.42728,24.8133136 70.5581676,24.3030178 70.6824279,23.7914793 C70.8170433,23.2397633 71.0808895,22.7124852 70.9988776,22.1197633 C71.5837297,20.8974556 71.8040847,19.5235503 72.5645581,18.3737278 C72.6730788,18.2092899 72.7401794,18.0175148 72.8267474,17.8389941 L72.8267474,17.8389941 Z M188.482487,47.971716 C188.630357,47.9866272 188.731422,48.0284615 188.769943,47.9957396 C189.41154,47.4535503 190.076747,46.934142 190.675268,46.3463905 C191.914972,45.1282249 192.909055,43.6992308 193.831481,42.244142 C194.246925,41.5888757 194.735682,40.9273964 194.927872,40.1105917 C195.01444,39.7423669 194.706688,39.8252071 194.668168,39.6524852 C193.894026,41.1535503 193.204381,42.7080473 192.109233,43.9995266 C190.961895,45.3527219 189.718878,46.6255621 188.482487,47.971716 L188.482487,47.971716 Z M179.674499,19.8598817 C179.884085,19.9961538 180.057221,20.1133728 180.235327,20.2235503 C180.413434,20.334142 180.596097,20.4372781 180.776688,20.5437278 C180.482191,21.0830178 180.48302,21.0780473 180.851244,21.3447929 C180.994972,21.4491716 181.203315,21.5788166 181.222369,21.7192308 C181.298168,22.2697041 181.634085,21.9474556 181.790239,21.9731361 C181.75586,21.575503 181.723138,21.2002367 181.69083,20.8253846 C182.173375,20.5130769 181.706984,20.1966272 181.675505,19.8901183 C181.655623,19.6991716 181.506097,19.5057396 181.368168,19.356213 C181.341244,19.3276331 181.098523,19.4991124 180.925387,19.5947929 C180.798641,19.3222485 180.698404,19.1064497 180.536037,18.7572781 C180.863256,18.8910651 181.033493,18.9606509 181.200416,19.0289941 C181.400889,18.5373373 180.850416,18.7257988 180.806925,18.522426 C180.755564,18.2817751 180.794913,18.0216568 180.794913,17.6931953 L179.270653,17.6931953 C179.198582,17.4997633 179.159233,17.3949704 179.06231,17.1356805 C179.003079,18.0079882 179.003079,18.0079882 179.384144,18.3393491 C179.428463,18.2084615 179.473197,18.077574 179.520002,17.939645 C179.722546,18.1293491 179.90231,18.297929 180.062605,18.4478698 C180.264321,18.3356213 180.387339,18.2672781 180.603138,18.1471598 C180.504558,18.8421893 180.004203,18.9718343 179.674499,19.2286391 L179.674499,19.8598817 Z M164.884617,112.089231 C164.729706,112.395325 164.52012,112.690237 164.566097,112.737456 C164.885446,113.066331 164.712724,113.450296 164.739647,113.803195 C164.768641,114.177219 164.832014,114.582722 164.722665,114.924438 C164.609173,115.277337 165.138523,115.558166 164.759114,115.879586 C165.115327,116.163728 164.945505,116.559704 164.967043,116.910118 C164.990239,117.28497 164.972428,117.662722 164.972428,118.039231 C164.972428,119.469467 164.969943,120.900118 164.975742,122.330355 C164.976156,122.47284 165.02586,122.614911 165.052783,122.756568 C165.136452,122.15929 165.35225,121.603018 165.394085,121.049231 C165.494736,119.728343 165.378759,118.397929 165.630594,117.076213 C165.737043,116.51787 165.503434,115.922249 165.468641,115.363491 C165.401126,114.272899 165.146392,113.241538 164.884617,112.089231 L164.884617,112.089231 Z M165.110357,138.397633 C165.396156,137.976391 165.672428,137.641302 165.869173,137.264793 C166.514913,136.029645 167.584795,134.998698 167.700771,133.503846 C167.705327,133.446686 167.807635,133.401953 167.853611,133.342722 C168.192014,132.906568 168.394558,132.414497 168.355623,131.859467 C168.313789,131.263846 168.500594,130.731183 168.73586,130.206805 C168.845623,129.961183 168.900298,129.74 168.568937,129.484438 C168.420239,129.678284 168.22515,129.845621 168.14728,130.056036 C168.025919,130.384497 168.011008,130.750651 167.904144,131.086154 C167.607576,132.014793 167.431955,132.988166 166.913375,133.838935 C166.84296,133.954911 166.763848,134.114793 166.789529,134.232012 C166.920002,134.830118 166.593611,135.358225 166.294972,135.714438 C165.677813,136.450888 165.533256,137.45284 164.745031,138.032308 L165.110357,138.397633 Z M81.4669841,16.4812426 C80.9463332,16.2107692 80.5188776,15.9883432 80.0860374,15.763432 C80.0118954,15.8297041 79.9021321,15.928284 79.7960966,16.0231361 C79.875209,16.1130178 79.9443806,16.1908876 79.9837297,16.2356213 C79.4730196,16.6361538 78.9722504,17.0292308 78.4768658,17.4181657 C78.5178717,17.468284 78.6574575,17.593787 78.6392327,17.6236095 C78.473138,17.896568 78.2647948,18.1438462 78.0962149,18.4155621 C77.719706,19.0236095 77.28728,19.6242012 77.6260966,20.4240237 C78.116925,20.0868639 78.3832563,19.4121302 79.0898835,19.4767456 C79.0165699,19.288284 78.8566883,19.0666864 78.9105344,18.983432 C79.1640256,18.5911834 79.4113037,18.1347337 79.7857415,17.8982249 C80.1668066,17.6567456 80.4936114,17.3100592 80.585564,16.9940237 C80.7272208,16.5069231 81.0627238,16.6576923 81.4669841,16.4812426 L81.4669841,16.4812426 Z M112.80296,95.3128402 L112.962428,95.1529586 C112.902369,95.0999408 112.837339,94.9968047 112.783079,95.0021893 C112.346511,95.0436095 111.816747,95.0382249 111.665564,94.8808284 C111.069529,94.260355 110.329765,94.5051479 109.686097,94.6277515 C109.090061,94.7412426 108.546215,95.1281065 107.977931,95.3919527 C107.798168,95.4760355 107.620061,95.588284 107.431185,95.6147929 C107.351244,95.6259763 107.251836,95.3737278 107.115978,95.5804142 C107.026925,95.7166864 106.95444,95.8637278 106.758523,96.2133136 C107.440298,95.9415976 107.889292,96.7260947 108.426925,96.133787 C108.436037,96.1238462 108.693671,96.2601183 108.702369,96.3421302 C108.734262,96.6440828 108.987339,96.632071 109.104558,96.5628994 C109.679469,96.2253254 110.318168,96.4171006 110.926215,96.3210059 C110.963079,96.0923669 110.996215,95.8852663 111.005327,95.8276923 C111.159824,95.9817751 111.349529,96.1710651 111.506097,96.3268047 C111.462605,96.341716 111.331304,96.3876923 111.377694,96.3715385 C111.525978,96.5198225 111.716511,96.710355 111.88012,96.8743787 C111.977872,96.5198225 111.630357,95.8819527 112.343611,95.6574556 C112.692783,95.9453254 113.060594,95.9850888 113.510002,95.7792308 C113.25154,95.6085799 113.027043,95.4602959 112.80296,95.3128402 L112.80296,95.3128402 Z M115.848168,99.0563905 C115.557813,99.5070414 115.06657,98.9217751 114.768759,99.2866864 C114.416688,98.9139053 113.932073,99.1429586 113.51373,99.016213 C113.307458,99.0617751 113.724144,98.4508284 113.194381,98.7246154 C112.861363,98.8969231 112.403671,98.8289941 111.95302,98.8737278 C111.902073,98.6148521 111.856511,98.3849704 111.784026,98.0192308 C111.690002,98.2888757 111.644026,98.4201775 111.589351,98.5759172 C111.307694,98.3895266 111.029351,98.2052071 110.710002,97.9943787 C110.770889,97.7806509 110.835919,97.5520118 110.904676,97.3105325 C110.468523,97.0359172 109.966511,96.9075148 109.281008,97.1535503 C109.744913,97.3739053 110.111895,97.5478698 110.5087,97.7359172 C110.391895,97.9749112 110.291659,98.1799408 110.191422,98.3853846 C109.987635,98.2872189 110.133434,97.6692308 109.59373,98.0573373 C109.686097,98.2636095 109.783848,98.4802367 109.879943,98.6943787 C109.794617,98.7399408 109.724203,98.804142 109.695209,98.7888166 C109.323256,98.5928994 108.957102,98.3857988 108.589292,98.1811834 C108.246747,98.8066272 107.617162,99.0352663 106.867043,99.2622485 C106.939943,99.0518343 106.992546,98.8998225 107.072073,98.670355 C106.858345,98.5369822 106.769292,98.1140828 106.308286,98.1629586 C106.37373,98.5150296 106.435446,98.8451479 106.494676,99.1632544 C106.126037,99.3285207 106.073848,99.4275148 106.191481,99.6648521 C105.667931,100.077396 105.578049,99.2842012 105.159706,99.2373964 C105.1187,99.5070414 105.086807,99.714142 105.053671,99.9299408 C104.826688,99.8955621 104.707398,99.6023077 104.395091,99.8471006 C103.960179,100.18716 103.378227,100.338757 102.946215,100.680888 C102.510061,101.026331 102.165446,100.856509 101.737576,100.665976 C101.722665,100.866864 101.70941,101.04497 101.689529,101.312544 C101.098463,101.202367 100.639943,101.588402 100.110594,101.756154 C98.8464516,102.157101 97.6315995,102.683964 96.3927238,103.147456 C95.2851498,103.561657 94.2032563,104.04213 93.1047948,104.480769 C92.1997652,104.842367 91.2947356,105.204793 90.37728,105.531598 C89.1309486,105.976036 87.931422,106.539763 86.7008303,107.022722 C85.7394693,107.400059 84.7760374,107.827929 83.8184043,108.242959 C83.5023687,108.380059 83.2186409,108.658402 82.8143806,108.557751 C82.7290551,108.536627 82.5944398,108.591302 82.5227829,108.655503 C81.6566883,109.434615 80.4240256,109.435858 79.4982859,110.086568 C79.444854,110.123846 79.3566291,110.140414 79.2924279,110.127574 C78.3521912,109.941598 77.6650315,110.560414 76.8975167,110.896331 C75.67728,111.431065 74.4247356,111.85645 73.1307711,112.166272 C72.8582267,112.231302 72.5666291,112.271893 72.3268066,112.402781 C72.0994102,112.527456 71.8579309,112.435503 71.6591143,112.524142 C71.4039664,112.638047 71.1442622,112.796272 70.9587001,113.000888 C70.6977534,113.289172 70.5283451,112.698935 70.2226646,112.997988 C69.9994102,113.215858 69.5566291,113.189349 69.251777,113.348817 C68.7530788,113.610178 68.1222504,113.505385 67.6873392,113.958521 C67.5970433,114.052544 67.295919,114.032249 67.1430788,113.958935 C66.8663924,113.825976 66.7640847,113.781657 66.5901202,114.133314 C66.494854,114.325917 66.0301202,114.368166 65.7219545,114.417456 C64.7431972,114.573195 63.8630196,115.136095 62.8407711,115.101716 C62.0471616,115.652604 61.0862149,115.595858 60.205209,115.829467 C60.0022504,115.883728 59.8050906,115.962426 59.5996469,116.001775 C59.2160966,116.075917 58.8292327,115.90858 58.4299427,116.200592 C58.1491143,116.40645 57.6379901,116.071775 57.2867474,116.442485 C57.2188185,116.514556 56.91728,116.447041 56.781422,116.356746 C56.4247948,116.11858 56.5987593,116.500888 56.5188185,116.542722 C56.3916587,116.609822 56.1936705,116.53568 56.0594693,116.596154 C55.4497652,116.872012 54.8102386,116.986331 54.1566291,116.901834 C53.0005936,116.752722 51.8963332,117.190533 50.7465108,117.162781 C50.398996,117.154497 50.0436114,117.398462 49.6919545,117.13503 C49.0387593,117.470947 48.3847356,116.993373 47.7331972,117.137515 C47.4602386,117.197574 47.1355048,117.420414 46.9337889,117.334675 C46.3998835,117.108521 45.8622504,117.172308 45.3221321,117.128402 C44.7861557,117.084083 44.2547356,116.98426 43.7208303,116.90929 C43.6495877,116.898935 43.538996,116.915503 43.5133155,116.876154 C43.2830196,116.523669 42.9127238,116.733254 42.6600611,116.644201 C42.0847356,116.440414 41.4530788,116.568817 40.9067474,116.241598 C40.4979309,115.996805 40.1185226,115.799231 39.917635,115.546982 C39.8426646,115.70645 39.771422,115.85929 39.6695285,116.075503 C38.8431972,115.443432 37.6204753,115.54284 36.9316587,114.455148 L36.0937297,114.455148 C35.9885226,114.267929 35.9052682,113.992071 35.8232563,113.992485 C35.2475167,113.995799 34.7695285,113.96432 34.8113628,113.177337 C34.8175758,113.055976 34.504854,112.917633 34.1271025,112.619408 C34.2762149,113.055148 34.3400019,113.242367 34.4530788,113.572899 C34.0144398,113.281302 33.6988185,113.085799 33.399351,112.867515 C33.1168658,112.661657 32.7979309,112.472367 32.5924871,112.201479 C32.3526646,111.886272 31.9500611,111.791006 31.7417179,111.450118 C31.5553273,111.145266 31.3531972,110.837101 31.099706,110.590651 C30.8333747,110.332189 30.6979309,109.980947 30.3429605,109.763905 C30.10728,109.619763 30.0613037,109.16497 29.9271025,108.842722 C30,108.764438 30.101067,108.655089 30.1988185,108.549467 C30.2858007,108.626923 30.3640847,108.696509 30.5455048,108.857633 C30.5140256,108.622781 30.537635,108.469941 30.4734338,108.37716 C30.2191143,108.007278 29.8194102,107.83 29.4279901,107.641538 C29.2697652,107.564911 29.0639072,107.466746 29.0079901,107.32716 C28.929706,107.132485 29.0274575,106.866568 28.9462741,106.674793 C28.8808303,106.519467 28.5316587,106.426272 28.5337297,106.309467 C28.5440847,105.720059 28.1323687,105.196509 28.2860374,104.595503 C27.8618954,103.636627 28.1302977,102.624734 28.0611261,101.638935 C27.9327238,99.8077515 28.4492327,98.0813609 29.0518954,96.4009467 C29.7307711,94.5068047 30.7302386,92.7708876 31.9740847,91.1687574 C32.8405936,90.0528994 33.6640256,88.9109467 34.6100611,87.8530769 C35.9044398,86.405858 37.0418362,84.8256805 38.1332563,83.2177515 C38.4675167,82.7260947 38.6327829,82.1445562 38.995209,81.6487574 C39.3360966,81.1823669 39.5411261,80.5975148 39.7221321,80.037929 C39.8853273,79.5346746 39.9495285,78.9970414 40.0294693,78.4705917 C40.0932563,78.0472781 39.9056232,77.5895858 40.2485818,77.1994083 C40.3160966,77.1231953 40.2560374,76.9127811 40.2204161,76.7731953 C40.1773392,76.605858 40.0497652,76.4505325 40.041067,76.2860947 C39.9147356,73.8630178 38.5979901,71.858284 36.7465108,70.5291124 C35.6165699,69.7176923 34.4079309,69.0653254 33.2539664,68.3139645 C31.6273983,67.2556805 29.8989368,66.373432 28.2814812,65.3006509 C27.023138,64.4664497 25.6902386,63.7453254 24.3921321,62.9715976 C22.9358007,62.1038462 21.3866883,61.3831361 20.0943806,60.2560947 C19.3831972,60.1401183 19.0050315,59.4840237 18.3829013,59.2069231 C17.6874575,58.8971006 17.2218954,58.2571598 16.5844398,57.8359172 C15.8550315,57.353787 15.2478125,56.6869231 14.5846764,56.1033136 C14.2036114,55.7673964 13.9132563,55.3395266 13.4087593,55.1257988 C13.1515403,55.0172781 12.8806528,54.7546746 12.7816587,54.4974556 C12.5820137,53.9776331 12.1367474,53.7038462 11.8016587,53.3223669 C10.1970433,51.4936686 8.93000188,49.4818935 8.15378887,47.1491124 C7.83278295,46.1848521 7.72177703,45.1609467 7.27443975,44.2393491 C7.4310078,43.4200592 7.011422,42.6587574 7.04207289,41.8473373 C7.07189538,41.0578698 6.9066291,40.2331953 7.0818362,39.4834911 C7.34443975,38.3597633 7.31213206,37.1486391 7.95207289,36.1222485 C8.16165869,34.5723077 9.67390721,31.8418935 10.3614812,30.7943787 C11.1671025,29.567929 12.2589368,28.5904142 13.3462149,27.6468639 C13.8962741,27.1692899 14.5647948,26.7024852 15.353848,26.5268639 C15.8629013,26.4133728 16.3239072,26.1532544 16.8499427,26.0285799 C17.3324871,25.9142604 17.7065108,25.8144379 18.1782859,26.004142 C18.3522504,26.074142 18.6160966,25.8815385 18.8422504,25.8674556 C19.2547948,25.8417751 19.6735522,25.8289349 20.0836114,25.870355 C20.3905344,25.9014201 20.6771616,26.2000592 21.0023096,25.9192308 C21.3514812,26.2700592 21.7984043,25.9722485 22.1728421,26.0948521 C22.5013037,26.2025444 22.7933155,26.42 23.1209486,26.5305917 C23.6515403,26.7086982 24.1999427,26.833787 24.7375758,26.9928402 C24.9032563,27.041716 25.0739072,27.1046746 25.2151498,27.2011834 C26.0684043,27.7839645 27.0885818,27.9546154 28.0255048,28.3261538 C29.0270433,28.723787 30.0803569,29.0042012 31.0454457,29.487574 C31.7346764,29.8330178 32.4765108,30.0467456 33.1814812,30.3313018 C33.9229013,30.6307692 34.6353273,31.0052071 35.3908303,31.2715385 C36.9403569,31.8178698 38.3730788,32.6189349 39.8521912,33.3181065 C41.741777,34.2115385 43.627635,35.1136686 45.5068658,36.0290533 C48.7976942,37.6311834 52.0773392,39.2556805 55.3718954,40.8491124 C56.1849723,41.2426036 57.0179309,41.622426 57.8815403,41.8709467 C58.2998835,41.9914793 58.6308303,42.2549112 59.0408895,42.3534911 C59.6572208,42.5013609 60.2685818,42.6707692 60.8882267,42.7991716 C61.3790551,42.9010651 61.9179309,42.8629586 62.3665108,43.0510059 C63.157635,43.3819527 64.0117179,43.3935503 64.8218954,43.6582249 C65.6772208,43.9373964 66.5934338,43.5687574 67.3182859,42.9619527 C67.6347356,42.6968639 67.8977534,42.369645 68.2026054,42.0900592 C69.3984043,40.9940828 69.6829605,39.6843787 69.1846764,38.1597041 C68.9651498,37.4878698 68.7008895,36.8189349 68.7269841,36.0895266 C68.2734338,35.6732544 68.7360966,34.9943787 68.2920729,34.5752071 C68.3877534,33.7447337 68.1479309,32.923787 68.4478125,32.0593491 C68.6462149,31.4877515 68.825564,30.8221302 68.7406528,30.1366272 C68.5252682,28.392426 68.8992918,26.6594083 69.0061557,24.9255621 C69.0802977,23.7218935 69.387635,22.4954438 69.7297652,21.2967456 C69.9629605,20.480355 70.3336705,19.7269231 70.6173983,18.9453254 C70.9350906,18.0697041 71.5584634,17.2963905 72.0973392,16.5118935 C73.2318362,14.861716 74.7428421,13.6071006 76.4120729,12.5305917 C77.6207119,11.7510651 78.8836114,11.0684615 80.2525463,10.6252663 C80.8212445,10.4413609 81.4483451,10.381716 82.0149723,10.2255621 C82.6424871,10.052426 83.2898835,10.2189349 83.8415995,10.0105917 C84.4310078,9.78775148 84.9992918,9.78650888 85.5667474,9.83579882 C86.6391143,9.92899408 87.706925,10.0971598 88.7689368,10.2777515 C89.8077534,10.4546154 90.7695285,10.8857988 91.7503569,11.2569231 C93.0405936,11.7460947 94.2504753,12.3694675 95.3485226,13.2073964 C95.5183451,13.3370414 95.7391143,13.4236095 95.8642031,13.5855621 C96.5447356,14.4657396 97.2555048,15.3293491 97.8565108,16.2625444 C98.8750315,17.8443787 100.027753,18.9710059 101.443079,20.0690533 C101.672546,20.2467456 101.824972,20.5230178 102.014262,20.7549704 C102.385801,20.6236686 102.64799,20.4621302 102.913493,20.455503 C103.222487,20.4484615 103.458582,20.3101183 103.728641,20.2301775 C104.005742,20.1481657 104.347872,20.1427811 104.62083,20.2305917 C104.914085,20.3250296 105.073138,19.8872189 105.386274,20.1245562 C105.472842,20.1895858 105.735446,20.0218343 105.91728,19.9605325 C106.115682,19.8938462 106.334381,19.8598817 106.507102,19.7521893 C106.772191,19.5869231 106.872428,20.0785799 107.16444,19.8677515 C107.319351,19.7559172 107.584026,19.8068639 107.792369,19.7559172 C108.029292,19.6983432 108.253789,19.5860947 108.49154,19.5397041 C108.82373,19.4746746 109.11657,19.6788757 109.418937,19.7248521 C109.629765,19.7567456 109.874144,19.3901775 110.134262,19.3251479 C110.475564,19.2402367 110.821008,19.2663314 111.180949,19.1184615 C111.501955,18.9867456 112.065682,18.870355 112.228463,19.5173373 C112.239233,19.5595858 112.561481,19.5231361 112.771895,19.5231361 C112.672487,19.3168639 112.602487,19.1710651 112.528759,19.0186391 C112.895742,18.8678698 113.1716,18.3898817 113.61728,18.8127811 C113.772605,18.565503 113.911777,18.8343195 114.013256,18.8218935 C114.30444,18.785858 114.411718,18.0779882 114.881422,18.5828994 C115.191659,18.454497 115.494026,18.2933728 115.816274,18.2150888 C115.94799,18.1831953 116.146392,18.4139053 116.27231,18.378284 C116.455387,18.3265089 116.597458,18.0088166 116.81657,18.2714201 C117.020357,18.5153846 117.115623,18.1446746 117.213789,18.2242012 C117.308227,18.3012426 117.32728,18.4706509 117.379884,18.5998817 C118.142842,18.3567456 118.142842,18.3567456 118.327162,17.682426 C118.52225,17.7752071 118.728108,17.8385799 118.890475,17.960355 C119.033375,18.0668047 119.128227,18.2386982 119.230949,18.3650296 C119.354795,18.16 119.481955,17.9487574 119.604558,17.7457988 C121.190949,18.164142 121.30941,18.1305917 121.874795,17.0888757 L122.640653,17.0888757 C122.690771,17.1949112 122.761185,17.3452663 122.842783,17.5188166 C122.984854,16.9513609 122.984854,16.9513609 123.555623,16.6386391 C123.797102,16.5740237 123.366747,17.2446154 123.8816,16.9240237 C124.160357,16.7504734 124.479706,16.753787 124.802783,16.9559172 C124.948168,17.0470414 125.221126,17.0226036 125.400061,16.9550888 C125.755446,16.8204734 126.265327,16.8246154 126.197813,16.1925444 C126.185801,16.0840237 126.373434,15.8868639 126.674144,16.0947929 C126.966156,16.2960947 127.416807,16.2683432 127.872014,16.3553254 C127.805327,16.1581657 127.741126,15.9680473 127.658286,15.7220118 C128.291185,15.9506509 128.813493,16.1022485 129.300179,15.5786982 C129.455919,15.4109467 129.680002,15.782071 130.016333,15.5778698 C130.477339,15.2974556 131.097813,15.2800592 131.726984,15.1317751 C131.743966,15.0199408 131.775446,14.8128402 131.804854,14.6202367 C131.859943,14.594142 131.893079,14.5626627 131.922487,14.5663905 C132.194203,14.5995266 133.251659,14.437574 133.563138,14.3414793 C134.099114,14.1770414 134.640475,14.0287574 135.182665,13.8871006 C137.719647,13.2247929 140.151008,12.2290533 142.661067,11.4971598 C144.444203,10.9773373 146.228168,10.4421893 148.039469,9.99982249 C149.563315,9.62786982 151.097517,9.24224852 152.603138,8.76798817 C153.443966,8.50289941 154.339884,8.41384615 155.208463,8.23491124 C155.482665,8.17816568 155.746097,8.06964497 156.020298,8.01579882 C156.475505,7.92591716 156.936097,7.86130178 157.394203,7.78591716 C157.852724,7.71053254 158.330712,7.6943787 158.765209,7.54775148 C159.743966,7.21763314 160.789824,7.25946746 161.775623,6.91485207 C162.328996,6.72142012 162.987162,6.8904142 163.598108,6.67627219 C164.097221,6.50189349 164.737162,6.64313609 165.171244,6.39420118 C165.674499,6.10591716 166.208818,6.26621302 166.722428,6.02804734 C167.233966,5.79112426 167.92444,5.98994083 168.535801,5.78118343 C168.776866,5.6987574 169.148818,5.89591716 169.42302,6.03840237 C169.813611,6.24177515 170.152014,6.32005917 170.509469,5.98497041 C170.671008,5.83337278 172.652132,5.03976331 172.727931,5.11349112 C173.147931,5.52313609 173.512428,5.15284024 174.01444,5 C173.954795,5.2447929 173.921659,5.39349112 173.881481,5.54011834 C173.848345,5.66230769 173.806925,5.78242604 173.746866,5.97378698 C174.266274,5.80313609 174.282428,5.44402367 174.227339,5.04473373 C174.43941,5.16692308 174.61296,5.31934911 174.661422,5.28621302 C174.921126,5.11142012 175.124499,5.18721893 175.396215,5.27461538 C175.585091,5.33508876 175.848937,5.13420118 176.086274,5.08076923 C176.229588,5.04846154 176.389884,5.05384615 176.536097,5.07952663 C176.751067,5.11804734 176.917576,5.51692308 177.180179,5.1752071 C177.429529,4.85088757 177.647813,5.37692308 177.796925,5.21911243 C178.222724,4.77011834 178.532132,5.28952663 178.89083,5.32266272 C179.194854,5.3508284 179.591659,5.40715976 179.673671,5.86112426 C179.68154,5.90585799 179.952842,5.97088757 180.034026,5.91952663 C180.190594,5.82053254 180.320653,5.64408284 180.504558,5.81556213 C181.005742,6.28443787 181.744676,6.34615385 182.229292,6.84526627 C182.346097,6.96579882 182.534972,7.10248521 182.680771,7.09171598 C183.017517,7.06727811 183.15586,7.31 183.305387,7.49680473 C183.517458,7.76272189 183.74154,7.99674556 184.014913,8.20177515 C184.302783,8.41715976 184.488759,8.69840237 184.941895,8.72739645 C185.288168,8.74934911 185.470416,9.25715976 185.889173,9.4108284 C187.075031,9.84615385 188.169765,10.5159172 189.196984,11.2146746 C190.199765,11.8964497 191.256392,12.5260355 192.172605,13.3606509 C192.738818,13.8767456 193.338996,14.3663314 193.892369,14.9043787 C194.780002,15.767574 195.380594,16.8610651 196.172132,17.7909467 C197.272665,19.0832544 197.903493,20.6062722 198.636215,22.0891124 C199.292724,23.4174556 199.6916,24.8191124 200.029588,26.2630178 C200.236688,27.1489941 200.210179,28.102071 200.666629,28.929645 C200.682783,28.9586391 200.674499,29.0050296 200.667872,29.0414793 C200.499706,29.9353254 200.931718,30.7740828 200.902631,31.6592308 C200.871244,32.5240828 200.915564,33.3918343 200.884499,34.2566864 C200.871659,34.6042012 200.722546,34.9446746 200.674913,35.2938462 C200.631836,35.6127811 200.662487,35.9134911 200.470712,36.2328402 C200.32657,36.4734911 200.404854,36.8388166 200.247872,37.1544379 C200.154676,37.3408284 200.386215,37.6759172 200.43799,37.9501183 C200.494736,38.2537278 200.472369,38.5391124 200.055682,38.5602367 C199.969943,39.1695266 199.465031,39.6491716 199.378878,40.1897041 C199.208641,41.253787 198.375682,41.966213 198.138759,42.9623669 C197.628463,43.2626627 197.747339,43.9419527 197.28012,44.3176331 C196.914795,44.6113018 196.747872,45.1418935 196.45586,45.5395266 C196.133611,45.9785799 195.767872,46.3857396 195.424085,46.8090533 C195.357398,46.8910651 195.240179,47 195.256747,47.0712426 C195.40586,47.7236095 194.893493,48.0007101 194.54225,48.3623077 C193.96444,48.955858 193.394499,49.5597633 192.78231,50.1164497 C191.736866,51.0666272 190.676097,51.9952663 189.482369,52.7718935 C188.697458,53.2821893 188.06083,54.0385207 187.248168,54.4854438 C186.344381,54.9828994 185.528404,55.5959172 184.657339,56.1314793 C183.552665,56.810355 182.410712,57.4233728 181.279114,58.0554438 C180.086629,58.7218935 178.850239,59.3005325 177.666866,59.9777515 C176.964795,60.3795266 176.317398,60.9092899 175.574736,61.199645 C174.548345,61.6005917 173.676452,62.2529586 172.725031,62.7673964 C171.544972,63.4056805 170.465564,64.2307692 169.345564,64.9792308 C168.382132,65.6228994 167.629943,66.4997633 166.798641,67.2904734 C166.458582,67.6139645 166.164085,67.9701775 165.712605,68.201716 C165.314972,68.4063314 165.021718,68.8250888 164.811304,69.2740828 C164.396274,70.1579882 163.976274,71.0410651 163.714085,71.9813018 C163.608049,72.3619527 163.671422,72.7869231 163.608049,73.1837278 C163.559588,73.4865089 163.874381,73.9698817 163.237753,74.0423669 C163.198404,74.0469231 163.168996,74.306213 163.168168,74.4474556 C163.161126,75.2377515 163.176866,76.0288757 163.160298,76.8191716 C163.149529,77.3323669 163.559173,77.7743195 163.390594,78.3069822 C163.852842,78.7605325 163.509884,79.4050296 163.804795,79.9480473 C164.0616,80.4206509 163.951008,81.079645 164.078996,81.6388166 C164.24302,82.3533136 164.618286,83.0433728 164.656392,83.7574556 C164.70154,84.606568 165.150534,85.304497 165.281422,86.1171598 C165.400712,86.8585799 165.899824,87.5391124 166.019943,88.2809467 C166.179824,89.2667456 166.504144,90.1912426 166.767162,91.1401775 C166.794085,91.2383432 166.647458,91.384142 166.571659,91.5266272 C166.678937,91.5634911 166.810239,91.6086391 166.974676,91.6649704 C167.010712,92.3616568 167.145742,93.0500592 167.40586,93.7202367 C167.507339,93.9815976 167.420357,94.3108876 167.464676,94.602071 C167.506511,94.8771006 167.642783,95.1392899 167.674262,95.4143195 C167.710712,95.736568 167.703671,96.0397633 167.892132,96.3466864 C168.050357,96.6034911 168.111244,96.9497633 168.121185,97.2595858 C168.132369,97.5959172 168.186629,97.8999408 168.361836,98.1815976 C168.526274,98.445858 167.926511,98.7308284 168.402842,98.9992308 C168.736274,99.1876923 168.459588,99.5981657 168.60373,99.8106509 C168.946688,100.317633 168.822014,100.915325 168.998463,101.455444 C169.11154,101.802959 169.190653,102.208462 169.256511,102.592426 C169.32154,102.970592 169.156688,103.387692 169.456984,103.726095 C169.092073,103.919527 169.484736,104.062426 169.49799,104.230178 C169.511659,104.401657 169.604854,104.56568 169.626392,104.737574 C169.652073,104.938876 169.644617,105.145148 169.638818,105.348521 C169.636333,105.428876 169.559292,105.560178 169.585387,105.580888 C170.181008,106.053077 169.866629,106.80858 170.147458,107.387633 C170.276274,107.653136 170.268818,107.999408 170.357458,108.311302 C170.480061,108.744142 170.731895,109.172426 170.639529,109.678994 C170.600594,109.890651 170.718227,110.180592 170.857813,110.364083 C171.10799,110.693373 171.085209,111.05 171.066984,111.408284 C171.039647,111.950888 171.13657,111.925621 171.265801,112.510059 C171.388818,113.066331 171.727221,113.563787 171.732191,114.123373 C171.737162,114.629941 172.353079,115.124497 171.78728,115.653432 C171.781895,115.658817 171.954203,115.85432 172.044085,115.960355 C172.277694,116.234556 172.247458,116.583728 172.337339,116.897692 C172.452487,117.299467 172.459943,117.632485 172.229233,117.985385 C172.359292,118.015207 172.4616,118.038817 172.564321,118.062426 C172.591244,118.088935 172.637635,118.112959 172.641363,118.142367 C172.723375,118.787278 172.793789,119.433432 172.882014,120.077515 C172.959884,120.648698 172.681955,121.253018 173.093256,121.801006 C173.227458,121.980355 172.731244,122.239231 173.086215,122.531657 C173.164085,122.595858 172.997162,122.957456 172.942487,123.182367 C173.069233,123.226686 173.20012,123.272249 173.325623,123.316154 C173.292487,123.963964 172.580475,124.494556 173.071304,125.189172 C172.722546,125.332899 172.157576,125.229349 172.211836,125.940533 C172.414795,125.84071 172.558523,125.769882 172.691895,125.704438 C172.768523,125.762012 172.87373,125.806331 172.871659,125.845266 C172.857576,126.097515 172.821126,126.348521 172.790889,126.599527 C172.780949,126.679882 172.745742,126.825266 172.758996,126.829822 C173.338878,127.024083 172.73083,127.542663 173.072132,127.893905 C173.383197,128.214911 172.968582,128.726036 172.842665,129.112899 C172.726688,129.46787 172.685682,129.803373 172.64799,130.16 C172.595387,130.658698 172.625623,131.222012 172.394499,131.629586 C172.149706,132.060355 172.341481,132.508521 172.140179,132.884201 C171.935978,133.265266 171.678345,133.613609 171.750002,134.079172 C171.220653,134.685148 171.265801,135.539231 170.837517,136.183728 C170.753434,136.310059 170.554617,136.359763 170.400534,136.449231 L170.400534,137.564675 C170.101481,137.741538 169.698049,137.809467 169.700949,138.27503 C169.153375,138.569527 169.869114,138.900888 169.664913,139.23929 C169.573375,139.247574 169.430475,139.303905 169.375387,139.256686 C169.23083,139.133669 169.14799,139.011065 168.959943,139.225621 C168.828227,139.376391 168.907339,139.418225 168.960357,139.559053 C169.099114,139.928521 168.794676,140.445858 168.727576,140.378343 C168.304676,139.951302 168.264913,140.503846 168.066925,140.599941 C167.989469,140.637633 167.900002,140.790059 167.918641,140.864201 C168.094676,141.563787 167.52515,141.737337 167.11302,141.980059 C165.933789,142.673432 165.925919,142.660178 164.972428,142.696213 C164.972428,142.909112 164.94302,143.131124 164.979055,143.341538 C165.033315,143.656331 164.872191,143.860118 164.648937,143.994734 C163.958463,144.411006 163.272132,144.843846 162.544795,145.186391 C161.854736,145.511538 161.132369,145.871479 160.392191,145.965089 C159.287102,146.105089 158.253671,146.595503 157.103848,146.520533 C156.01657,146.450118 154.921008,146.494852 153.829173,146.508521 C152.666511,146.522604 151.576747,146.172189 150.463789,145.910828 C149.705387,145.732722 148.989233,145.498698 148.280534,145.172308 C147.840653,144.969349 147.330357,144.83432 146.801836,144.919231 C146.096037,145.032308 145.466037,144.744852 144.844736,144.469822 C143.146511,143.71929 141.872428,142.790651 140.433493,141.750178 C139.698286,141.219172 138.936984,140.740355 138.302428,140.071834 C137.255742,138.968402 136.533375,137.754379 135.809351,136.017219 C135.434913,135.117988 134.923375,134.263077 134.385742,133.446272 C133.343611,131.862781 132.685446,130.343491 131.721185,128.337101 C130.917221,126.664142 130.329884,124.916627 129.648937,123.206805 C129.291067,122.307574 128.887635,121.412899 128.579055,120.484675 C128.27296,119.563077 127.95154,118.646864 127.404795,117.801479 C127.078818,117.296982 126.882901,116.658284 126.55154,116.132663 C125.933138,115.150178 125.481244,114.090237 124.987517,113.049763 C124.389824,111.791006 123.732073,110.550059 123.216392,109.265621 C122.756215,108.119112 122.029706,107.132899 121.572428,105.992189 C121.119706,104.863077 120.499233,103.800237 119.936747,102.716686 C119.399114,101.680769 118.694144,100.810533 117.572901,100.340828 C116.89941,100.058757 116.30296,99.6491124 115.848168,99.0563905 L115.848168,99.0563905 Z" id="Fill-333" fill="#4FBF9F"></path>
                    <path d="M109.458047,95.5458781 L109.010296,95.2720911 C108.350473,96.7462331 107.690651,98.2207893 107.031657,99.6949313 C108.030296,98.3943396 109.083609,97.1306118 109.458047,95.5458781 M110.986864,89.9893692 C111.884852,88.1499018 112.698343,86.1542805 112.578225,83.9225645 C112.048047,85.9451089 111.517456,87.967239 110.986864,89.9893692 M20.8061538,38.3194284 C21.061716,38.0319728 21.3247337,37.750316 21.5715976,37.4549905 C26.6654438,31.3716177 32.3313018,25.8784816 38.5161538,20.9080674 C42.0012426,18.1076532 46.127929,16.1845171 49.5011834,13.3385408 C53.2501183,10.1757006 56.9961538,7.2083633 61.608284,5.4571207 C61.6434911,5.44345206 61.612426,5.25333372 61.612426,4.94433963 C52.075858,5.7362923 43.7081657,9.37504969 36.5093491,15.4600793 C29.2674556,21.5819728 23.3112426,28.7596651 20.8061538,38.3194284 M132.189822,54.4533929 C132.06929,41.7249905 127.954201,30.5680674 118.733254,21.5794876 C110.547811,13.6007302 101.342189,7.44735739 89.5233728,6.32155857 C110.629408,16.3129195 124.831953,32.304813 132.189822,54.4533929 M91.9775148,12.3734521 C93.1828402,14.034813 95.0098817,14.8888958 96.5051479,16.1625645 C105.095266,23.4802568 110.921006,32.6042805 114.788817,43.1597834 C118.602367,53.5674166 119.333432,64.303097 118.514556,75.1684225 C118.001361,81.9749905 116.314734,88.6167065 113.858521,95.0260556 C113.666746,95.5264106 113.046686,96.1638663 113.766568,96.6149313 C114.366746,96.9901976 114.655444,96.2226828 115.024911,95.9070615 C118.903905,92.5934521 122.018284,88.6117361 124.553195,84.2369432 C126.876036,80.2291325 128.853432,76.1438663 128.571775,71.1514994 C127.313846,48.8446947 118.109053,30.8141029 100.200237,17.3413811 C97.6359172,15.4120319 94.9390533,13.6624461 91.9775148,12.3734521 M123.766213,95.8610852 C122.86574,95.8080674 122.350059,96.1452272 121.996331,96.5871799 C120.066568,98.9965882 117.57432,100.635582 115.012485,102.309783 C113.537515,103.27363 112.046805,104.221736 110.534556,105.140849 C108.081243,106.631973 106.769882,109.139961 105.043077,111.309133 C99.906568,117.76073 93.9988166,123.395937 86.9905325,127.863097 C78.6261538,133.195109 69.7626627,136.666943 59.6872189,137.108482 C54.2997041,137.344991 49.2236686,136.84505 44.0714201,135.227594 C35.7517751,132.616056 29.043787,127.733866 23.3319527,121.401144 C14.7861538,111.925878 10.4200592,100.450434 7.99242604,88.1151089 C7.80893491,87.1814994 7.52976331,86.2669432 7.29491124,85.3436887 C6.64627219,87.6503751 6.74360947,89.8953456 6.70467456,92.136174 C6.5435503,101.494221 9.02337278,110.300967 13.6483432,118.226292 C18.1540237,125.947002 24.7116568,131.905701 33.0147337,135.699369 C40.521716,139.129369 48.372071,140.792801 56.6179882,140.363275 C65.6815385,139.891085 74.3047929,137.566174 82.5863314,133.907121 C96.6327219,127.701559 108.823077,119.096115 117.861775,106.467121 C120.20284,103.196588 122.226627,99.727239 123.766213,95.8610852 M41.9486391,25.5201976 C41.5025444,25.7065882 41.2415976,25.7521503 41.0639053,25.8987775 C35.837929,30.2184816 31.230355,35.1570024 26.8771006,40.3270615 C23.5332544,44.2992509 20.6856213,48.6520911 18.0844379,53.1316769 C16.316213,56.1781266 14.619645,59.3243988 14.226568,62.9598426 C13.2714201,71.791026 13.4445562,80.5687775 15.2247929,89.2997242 C17.763432,101.753097 22.4318935,113.144872 31.3657988,122.493393 C35.9137278,127.252564 41.3356213,130.649428 47.5734911,132.55434 C57.6766864,135.640138 67.1453254,133.056351 76.2801183,128.671618 C82.190355,125.834754 87.3848521,121.889488 92.2268639,117.532091 C94.4324852,115.547653 96.5502959,113.361914 98.2928402,110.500612 C95.1826036,110.855582 92.4882249,111.544399 89.7205325,111.836411 C80.3020118,112.830079 71.4671006,110.92434 63.2083432,106.53215 C51.9714793,100.556884 44.4367456,91.2791917 40.1878698,79.3535112 C34.7738462,64.158955 35.1656805,48.8181858 39.3942604,33.4434521 C40.1091716,30.8439254 41.0444379,28.3048722 41.9486391,25.5201976 M66.2937278,11.7972982 C62.5220118,12.4219136 59.6221893,13.6028012 57.0852071,15.655168 C54.517574,17.7315586 52.9680473,20.5232745 51.3021302,23.326174 C49.016568,27.1707893 47.4417751,31.3264698 46.2298225,35.4916769 C45.158284,39.1722686 44.4222485,43.0512627 43.9873373,46.9584225 C42.9563905,56.2079491 42.8031361,65.3328012 45.4502959,74.3855822 C48.2109467,83.8293692 52.7613609,92.1109077 60.2389349,98.6614994 C72.3551479,109.275405 87.4072189,111.074695 101.633373,104.694754 C102.558698,104.280138 103.410296,103.771085 103.944615,102.872683 C107.433018,97.0117361 109.915325,90.6926828 111.460296,84.1064698 C113.55284,75.1878899 113.863491,66.1032154 112.660237,56.9858189 C110.93716,43.9272982 106.229349,32.1892509 97.1732544,22.4633929 C92.4807692,17.4246355 87.372426,12.8539254 80.2494083,11.498245 C78.1245562,11.0939846 75.7561538,10.2883633 74.0347337,12.0528603 C72.1521893,13.9826237 70.3727811,16.1592509 69.1185799,18.5301385 C63.7952663,28.5952272 62.6777515,39.1971207 65.9147337,50.1436296 C67.1730769,54.3995467 69.8686982,57.6854047 73.6342012,60.0898426 C74.3499408,60.5471207 75.8249112,60.850316 75.3307692,61.8978308 C74.8954438,62.8219136 73.510355,62.5584816 72.4992899,62.2685408 C72.1227811,62.1604343 71.762426,61.9616177 71.4269231,61.7528603 C67.2107692,59.1280674 63.7501183,55.7581266 61.865503,51.1041621 C57.8651479,41.2254639 58.3166272,31.2295467 61.4305917,21.2220319 C62.4391716,17.9796651 64.0997041,15.0442213 66.2937278,11.7972982 M19.9682249,26.3374166 C19.4007692,26.3510852 19.194497,26.8195467 18.9724852,27.2006118 C16.8778698,30.8020911 14.9630178,34.5046355 13.6756805,38.468955 C13.2345562,39.8262923 12.0250888,40.991026 12.3639053,42.6635704 C13.1591716,42.2481266 13.5108284,41.6781858 13.5472781,40.8791917 C13.6094083,39.5131562 14.3019527,38.3620911 14.8602959,37.1667065 C16.5514793,33.546174 18.2381065,29.9235704 19.9259763,26.3013811 C22.332071,23.1459964 24.7389941,19.9906118 27.1450888,16.8356414 C25.5069231,18.3023278 23.9110059,19.7864106 22.6891124,21.6196651 C21.6784615,23.1352272 20.2101183,24.3799018 19.9682249,26.3374166 M-3.55271368e-13,90.7436296 C0.148698225,83.8326828 1.09639053,77.0178308 3.49171598,70.5654047 C6.00674556,63.7911444 7.28248521,56.7720911 8.84775148,49.7766473 C11.6949704,37.0453456 16.5821302,25.2025053 25.7450888,15.5553456 C33.4061538,7.4891917 42.6792899,2.26487218 53.7301775,0.63126271 C61.7959172,-0.561222497 69.8318343,-0.107258 77.6805325,2.36138105 C78.4948521,2.61735739 79.3352663,2.84848165 80.2146154,2.70019762 C87.8620118,1.41203194 95.132071,2.77019762 102.173491,5.79925088 C110.771479,9.49806744 118.380355,14.6188367 124.712249,21.5438663 C129.572071,26.8588958 133.410888,32.8743396 135.664556,39.7057598 C138.227219,47.4753456 139.350533,55.4586592 137.770355,63.6623278 C137.398402,65.5904343 137.548757,67.7364106 136.990414,69.5191325 C136.30284,71.7139846 136.00213,73.9842213 135.285562,76.1384816 C134.061183,79.8211444 133.637041,83.6607893 132.797456,87.4171799 C131.740828,92.1436296 129.951065,96.6116177 127.842781,100.941263 C124.912722,106.957949 121.218462,112.550908 116.463846,117.219783 C112.231124,121.376706 107.858402,125.411854 102.58645,128.459133 C98.8192899,130.637002 95.2149112,133.124695 91.3019527,135.085109 C78.665503,141.415346 65.3534911,144.740138 51.1650296,143.872387 C40.2015385,143.201795 30.1037278,139.845523 21.2042012,133.309014 C8.77360947,124.178778 1.95544379,111.816529 0.396804734,96.5159373 C0.201715976,94.5981858 0.12964497,92.6680083 -3.55271368e-13,90.7436296" id="Fill-519" fill="#FDBF5E"></path>
                </g>
            </g>
        </g>
    </g>
</svg>