<?xml version="1.0" encoding="UTF-8"?>
<svg viewBox="0 0 56 122" version="1.1" xmlns="http://www.w3.org/2000/svg" xmlns:xlink="http://www.w3.org/1999/xlink">
    <!-- Generator: sketchtool 61 (101010) - https://sketch.com -->
    <title>18DA46E3-9011-4255-BA63-D2FA7EC77728</title>
    <desc>Created with sketchtool.</desc>
    <g id="Page-1" stroke="none" stroke-width="1" fill="none" fill-rule="evenodd">
        <g id="Case-Study-for-Edplus" transform="translate(-213.000000, -687.000000)" fill="#1CC198">
            <g id="arrow-d" transform="translate(240.500000, 747.500000) scale(1, -1) rotate(88.000000) translate(-240.500000, -747.500000) translate(179.000000, 721.000000)">
                <path d="M0,32.1716969 C0.284270422,28.7905488 0.712585741,25.1527808 0.831531906,21.5049929 C0.873545001,20.2296866 0.484514654,19.0261894 1.87258366,18.304759 C2.15794533,18.1566877 2.57534816,17.9206642 2.78650488,18.0264294 C6.36689358,19.8210988 10.3635938,19.8673015 14.1196737,20.8993477 C16.6350031,21.5907184 18.9779152,22.7107168 20.5700478,24.9468169 C20.8876013,25.3932576 20.8657763,26.0913083 21,26.6730171 C20.4341873,26.7888023 19.8340002,27.0921815 19.3091093,26.9903129 C15.4924652,26.2488428 11.6823685,25.4639533 7.88918624,24.6066981 C6.69917896,24.3378317 6.48365724,24.8065388 6.34288609,25.8714279 C6.01769383,28.3285217 5.50153295,30.7583392 5.1479682,33.212093 C4.99628456,34.260839 5.05357514,35.3407579 5.02683953,36.4067603 C5.02465704,36.4958258 5.16160881,36.5982511 5.1457857,36.6756267 C4.98318957,37.4749894 4.90680212,38.896697 4.60670858,38.9484663 C3.74080233,39.0987643 2.6648306,38.9145101 1.88404178,38.4714094 C-0.528710247,37.1020277 0.215521721,34.5965045 0,32.1716969" id="Fill-4"></path>
                <path d="M50.8918441,44.9715565 C50.9531064,45.1149435 51.0154827,45.2588952 51.076745,45.4022823 L55.1640594,43.1391371 C55.0782921,42.9799435 54.9919678,42.8213145 54.9062005,42.6626855 C53.568453,43.432121 52.2295916,44.202121 50.8918441,44.9715565 M82.8195668,41.98075 C82.8769307,42.0885726 82.9342946,42.1963952 82.9916584,42.3042177 C85.2572525,41.3298629 87.5228465,40.3549435 89.7889975,39.3800242 C89.7193812,39.2151855 89.6492079,39.0503468 89.5795916,38.8860726 C87.32625,39.9174435 85.0729084,40.949379 82.8195668,41.98075 M61.1076238,28.5119597 C60.7918441,26.809379 60.5089233,25.0994597 60.149703,23.4059113 C59.9280446,22.3598629 59.265854,22.0838145 58.2149257,22.3147016 C54.9229084,23.0395403 52.4863366,25.9801048 52.194505,29.5055081 C51.8759406,33.3481694 54.0708045,35.7180081 56.7774876,37.7863952 C56.9891213,37.9484113 57.7732797,37.6678468 58.0478465,37.3658306 C60.3067574,34.876879 60.9594802,31.8217177 61.1076238,28.5119597 M71.8268688,41.7041371 C80.8753218,42.032121 88.482995,38.5580887 95.3026114,32.8158306 C103.066225,26.2787339 109.08776,18.2925242 114.361894,9.66389516 C115.959171,7.05075 117.49073,4.39470161 119.14927,1.82276613 C119.5937,1.1323629 120.320495,0.428975806 121.058985,0.20091129 C121.568577,0.0434112903 122.32099,0.692604839 122.964802,0.982201613 C122.766535,1.36607258 122.585532,1.76179839 122.366101,2.13268548 C121.774084,3.13187903 121.079035,4.07857258 120.580025,5.12179839 C118.954901,8.51679839 117.4562,11.9738952 115.797104,15.3508306 C114.678787,17.6269597 113.458552,19.8630081 112.118577,22.0109919 C111.272042,23.3675242 110.054035,24.48075 109.120619,25.7892984 C107.640854,27.8627661 106.440668,30.1688145 104.793267,32.0864758 C102.229715,35.0722016 99.6165965,38.0923629 96.6208663,40.6033306 C89.9984035,46.1542177 82.3556436,48.8667177 73.6201856,48.3180081 C69.5551485,48.0628468 65.525198,47.9697016 61.6829332,46.3755081 C61.2630074,46.2010726 60.4777351,46.477121 60.0672772,46.8062339 C55.9348515,50.1255887 51.1859035,51.8688145 45.9947525,52.1956694 C42.1101609,52.4406694 38.1297772,52.7528468 34.3242698,52.1601048 C31.1319431,51.6633306 28.0125743,50.1385726 25.0797772,48.6313145 C22.4727847,47.2905887 20.0529208,45.4931694 17.7522401,43.6398629 C14.4752599,40.9990565 12.1428342,37.5464758 10.5990223,33.6106694 C10.3773639,33.0455887 10.7588614,32.0001048 11.2016213,31.4672016 C11.6933911,30.8744597 12.4001361,31.1589758 13.204901,31.5242177 C15.7238985,32.6679274 16.7453094,35.0530081 18.1164728,37.114621 C20.7134406,41.0210726 24.4454332,43.327121 28.7159777,44.554379 C36.002302,46.6487339 43.2513119,45.7680887 50.2859035,43.1905081 C54.0858416,41.7972823 54.0485272,41.6392177 51.2794678,38.8736532 C47.6349134,35.2342177 45.6182673,30.8897016 45.8972896,25.6549435 C46.2214233,19.5790565 51.2020545,15.3079274 57.200755,15.7544597 C59.0837376,15.8950242 60.3657921,17.0630081 61.5971658,18.2654274 C64.3940718,20.997121 65.9568193,24.4062339 66.5020545,28.2737339 C67.0667822,32.2744597 67.1709282,36.2441371 65.2929579,40.0055081 C64.8396163,40.9138145 65.2756931,41.3106694 66.2224752,41.3552661 C68.0920916,41.4438952 69.9589233,41.5850242 71.8268688,41.7041371" id="Fill-1"></path>
            </g>
        </g>
    </g>
</svg>