<?xml version="1.0" encoding="UTF-8"?>
<svg viewBox="0 0 59 68" version="1.1" xmlns="http://www.w3.org/2000/svg" xmlns:xlink="http://www.w3.org/1999/xlink">
    <!-- Generator: sketchtool 61 (101010) - https://sketch.com -->
    <title>9B026B2E-D62C-435D-B935-E2A6D921418D</title>
    <desc>Created with sketchtool.</desc>
    <g id="Page-1" stroke="none" stroke-width="1" fill="none" fill-rule="evenodd">
        <g id="Case-Study-for-Edplus" transform="translate(-151.000000, -5404.000000)" fill-rule="nonzero">
            <g id="EdPlus-Mobile-Applications" transform="translate(121.000000, 4080.000000)">
                <g id="Group-7" transform="translate(0.000000, 214.000000)">
                    <g id="Group-11" transform="translate(30.000000, 1110.000000)">
                        <g id="globe-d">
                            <path d="M26.4987599,57.7267692 C20.4735478,57.7267692 14.3253333,56.0052121 8.91497436,52.3164103 C8.6689697,52.1934079 8.54612587,51.9475618 8.42312354,51.5785548 C8.42312354,51.3325501 8.42312354,50.9637016 8.54612587,50.8406993 L11.4972308,46.5368858 C11.8660793,46.045035 12.4809324,45.9220326 12.9727832,46.2908811 C13.464634,46.6597296 13.5876364,47.2745828 13.2187879,47.7664336 L10.8825361,51.2093893 C24.285669,59.5708531 41.9924569,55.8820513 50.8457716,42.7249231 C59.6990862,29.5677949 56.5021352,11.861007 43.8368578,2.51568298 L41.5006061,5.95863869 C41.1317576,6.45048951 40.5169044,6.57349184 40.0250536,6.20464336 C39.5332028,5.83579487 39.4102005,5.22094172 39.779049,4.72909091 L42.7301538,0.54827972 C43.0990023,0.0564289044 43.7138555,-0.0665734266 44.2057063,0.302275058 C58.5925408,10.0164476 62.404345,29.5676364 52.6901725,43.9544709 C46.5417995,52.9311049 36.5817809,57.7267692 26.4987599,57.7267692 Z" id="Path" fill="#193651"></path>
                            <circle id="Oval" fill="#FFFFFF" cx="26.5667599" cy="26.2400746" r="25.2072354"></circle>
                            <path d="M26.6217622,52.5622564 C21.3342471,52.5622564 16.2927366,50.9637016 11.9890816,48.0125967 C0.0616596737,39.896979 -3.13544988,23.5427413 4.98016783,11.6153193 C9.89867599,4.36040093 18.0142937,0.0567459207 26.7447646,0.0567459207 C32.0322797,0.0567459207 37.0737902,1.6553007 41.3774452,4.60640559 C53.3048671,12.7220233 56.5019767,29.0762611 48.386359,41.003683 C43.4676923,48.2586014 35.2292308,52.5622564 26.6217622,52.5622564 Z M26.6217622,2.14699301 C18.6291469,2.14699301 11.1283823,6.08179953 6.70156643,12.7218648 C-0.799198135,23.6655851 2.15190676,38.7902751 13.095627,46.1680373 C17.1534359,48.873296 21.8260979,50.3488485 26.6216037,50.3488485 C34.6142191,50.3488485 42.1149837,46.414042 46.5417995,39.7739767 C54.0425641,28.8302564 51.0914592,13.7055664 40.1477389,6.3278042 C36.0899301,3.62270396 31.4172681,2.14699301 26.6217622,2.14699301 Z" id="Shape" fill="#193651"></path>
                            <circle id="Oval" fill="#2EA2DB" cx="26.5667599" cy="26.2400746" r="21.0265828"></circle>
                            <g id="Group" transform="translate(13.473193, 5.389277)" fill="#E1E6E9">
                                <path d="M12.9025641,25.0395338 C12.9025641,25.0395338 14.0092681,24.547683 11.0581632,22.5802797 C11.0581632,22.5802797 10.0744615,22.4572774 11.3041678,20.3668718 L10.4434685,19.7520186 C10.4434685,19.7520186 10.9353193,17.7846154 9.70561305,17.9076177 C9.70561305,17.9076177 8.84491375,18.1536224 8.84491375,16.5550676 C8.84491375,16.5550676 7.36936131,14.7106667 5.40195804,17.4157669 C5.40195804,17.4157669 1.836,17.4157669 3.43455478,21.5965781 L4.04940793,23.5639814 L2.20500699,26.1462378 C2.20500699,26.1462378 2.81986014,26.7610909 1.71315618,27.6217902 C1.71315618,27.6217902 2.08200466,29.0973427 0.23760373,30.2040466 C0.23760373,30.2040466 -0.623095571,33.4011562 1.71315618,33.7700047 L1.59015385,32.786303 L2.57385548,31.9256037 L1.71315618,31.4337529 L3.06570629,30.6958974 L2.81954312,29.958042 C2.81954312,29.958042 5.89365035,31.8024429 7.61520746,29.2201865 C7.61520746,29.2201865 7.12335664,27.1297809 9.21376224,28.7283357 C9.21376224,28.7283357 10.1974639,29.4661911 11.7960186,27.0067786 C11.7960186,27.0067786 13.2715711,26.7607739 13.5175758,26.1460793 C13.6404196,25.5313846 12.9025641,25.0395338 12.9025641,25.0395338 Z" id="Path"></path>
                                <path d="M33.8064615,24.4246807 C32.0849044,23.5639814 31.2242051,26.0232354 31.2242051,26.0232354 C29.6256503,27.0069371 29.2568019,23.5639814 29.2568019,23.5639814 C27.5352448,24.6706853 26.9205501,21.8424242 26.9205501,21.8424242 C24.3382937,17.0467599 21.1411841,20.3668718 21.1411841,20.3668718 C17.8212308,20.9817249 17.9440746,25.0395338 17.9440746,25.0395338 C18.0670769,27.4987879 21.264028,26.5150862 21.264028,26.5150862 C21.5100326,28.7284942 22.4937343,28.851338 22.4937343,28.851338 C22.4937343,28.851338 22.4937343,28.851338 21.7558788,29.5891935 C21.0180233,30.327049 21.7558788,32.2944522 21.5098741,32.786303 C21.1410256,33.2781538 18.4357669,33.0323077 19.05062,35.3685594 C19.6654732,37.7048112 18.3127646,38.196662 18.3127646,38.196662 C18.3127646,38.196662 18.8046154,39.9182191 19.05062,40.9019207 C23.6002797,39.5493706 27.6580886,36.7211096 30.6091935,32.5402984 C32.2079068,30.0810443 33.3146107,27.2527832 33.8064615,24.4246807 Z" id="Path"></path>
                                <path d="M2.32769231,8.80829837 C2.32769231,8.80829837 2.32769231,8.80829837 1.95884382,11.2675524 C1.58999534,13.7268065 4.29509557,12.3742564 4.54110023,11.1445501 C4.7871049,10.0378462 6.5085035,9.17714685 8.23006061,11.0215478 C9.95161772,12.988951 9.58261072,11.5133986 13.0257249,10.4066946 C16.4686807,9.29999068 16.3456783,11.8822471 17.8213893,10.8985455 C19.2969417,9.91484382 21.5103497,7.57859207 18.3132401,7.7014359 C15.1161305,7.82427972 15.7309837,7.33258741 19.2969417,6.22588345 C22.8628998,5.11917949 17.6983869,5.73403263 14.5012774,3.52062471 C13.0257249,2.53692308 13.2715711,1.18437296 13.7634219,0.0776689977 C11.3041678,-0.0453333333 8.96775758,0.32367366 6.63150583,1.06137063 C5.6478042,1.79922611 4.54110023,2.90577156 2.94254545,4.38132401 C0.360289044,6.71789277 2.32769231,8.80829837 2.32769231,8.80829837 Z" id="Path"></path>
                            </g>
                            <path d="M36.3357762,61.7845781 L22.0719441,61.7845781 C19.2438415,61.7845781 16.9074312,64.1208298 16.9074312,66.9490909 L41.500289,66.9490909 C41.500289,64.1208298 39.1640373,61.7845781 36.3357762,61.7845781 Z" id="Path" fill="#FFFFFF"></path>
                            <g id="Group" transform="translate(15.850816, 55.477855)" fill="#193651">
                                <path d="M20.4849604,5.20001865 L6.22112821,5.20001865 C2.77817249,5.20001865 0.0729137529,8.02812121 0.0729137529,11.3482331 C0.0729137529,11.9630862 0.564764569,12.4549371 1.17961772,12.4549371 L25.7724755,12.4549371 C26.3873287,12.4549371 26.8791795,11.9630862 26.8791795,11.3482331 C26.7561772,8.02812121 23.9280746,5.20001865 20.4849604,5.20001865 Z M2.28632168,10.3645315 C2.77817249,8.64297436 4.37672727,7.29042424 6.22112821,7.29042424 L20.6079627,7.29042424 C22.4523636,7.29042424 24.0509184,8.52013054 24.5427692,10.3645315 L2.28632168,10.3645315 Z" id="Shape"></path>
                                <path d="M13.3530443,7.29042424 C12.7381911,7.29042424 12.2463403,6.79857343 12.2463403,6.18372028 L12.2463403,1.14220979 C12.2463403,0.527356643 12.7381911,0.0355058275 13.3530443,0.0355058275 C13.9678974,0.0355058275 14.4597483,0.527356643 14.4597483,1.14220979 L14.4597483,6.18372028 C14.4597483,6.92157576 13.9678974,7.29042424 13.3530443,7.29042424 Z" id="Path"></path>
                            </g>
                            <rect id="Rectangle" fill="#193651" transform="translate(46.477777, 56.867888) rotate(136.543779) translate(-46.477777, -56.867888) " x="45.4325748" y="55.8226859" width="2.09040523" height="2.09040523"></rect>
                            <rect id="Rectangle" fill="#193651" transform="translate(50.661142, 52.920252) rotate(136.543779) translate(-50.661142, -52.920252) " x="49.615939" y="51.8750492" width="2.09040523" height="2.09040523"></rect>
                            <rect id="Rectangle" fill="#193651" transform="translate(54.844550, 48.976341) rotate(136.543779) translate(-54.844550, -48.976341) " x="53.7993476" y="47.9311382" width="2.09040523" height="2.09040523"></rect>
                            <rect id="Rectangle" fill="#193651" transform="translate(1.581232, 48.729562) rotate(136.503279) translate(-1.581232, -48.729562) " x="0.536048632" y="47.684379" width="2.09036593" height="2.09036593"></rect>
                            <rect id="Rectangle" fill="#193651" transform="translate(5.532469, 52.909847) rotate(136.559979) translate(-5.532469, -52.909847) " x="4.48725882" y="51.864636" width="2.09042124" height="2.09042124"></rect>
                            <rect id="Rectangle" fill="#193651" transform="translate(9.481224, 57.093492) rotate(136.559979) translate(-9.481224, -57.093492) " x="8.43601324" y="56.0482816" width="2.09042124" height="2.09042124"></rect>
                        </g>
                    </g>
                </g>
            </g>
        </g>
    </g>
</svg>