<?xml version="1.0" encoding="UTF-8"?>
<svg viewBox="0 0 60 68" version="1.1" xmlns="http://www.w3.org/2000/svg" xmlns:xlink="http://www.w3.org/1999/xlink">
    <!-- Generator: sketchtool 61 (101010) - https://sketch.com -->
    <title>03ACC0A0-E04D-419F-A962-B74C6807A08C</title>
    <desc>Created with sketchtool.</desc>
    <g id="Page-1" stroke="none" stroke-width="1" fill="none" fill-rule="evenodd">
        <g id="Case-Study-for-Edplus" transform="translate(-151.000000, -4684.000000)" fill-rule="nonzero">
            <g id="EdPlus-Mobile-Applications" transform="translate(121.000000, 4080.000000)">
                <g id="Group-7" transform="translate(0.000000, 214.000000)">
                    <g id="Group-11" transform="translate(30.000000, 390.000000)">
                        <g id="languages-d">
                            <circle id="Oval" fill="#F16051" cx="25.2206117" cy="25.1552113" r="25.1552113"></circle>
                            <rect id="Rectangle" fill="#FFFFFF" x="6.00931187" y="31.4173682" width="53.0699638" height="35.6630584"></rect>
                            <path d="M59.0792757,67.9295372 L6.00931187,67.9295372 C5.58475654,67.9295372 5.16020121,67.5049819 5.16020121,67.0804266 L5.16020121,31.4173682 C5.16020121,30.9928129 5.58475654,30.5682575 6.00931187,30.5682575 L59.0792757,30.5682575 C59.503831,30.5682575 59.9283863,30.9928129 59.9283863,31.4173682 L59.9283863,67.0804266 C59.9283863,67.5049819 59.503831,67.9295372 59.0792757,67.9295372 Z M6.85842254,66.2313159 L58.230165,66.2313159 L58.230165,32.2664789 L6.85842254,32.2664789 L6.85842254,66.2313159 Z" id="Shape" fill="#193651"></path>
                            <path d="M29.2539557,29.0823823 L10.5733843,29.0823823 L10.5733843,60.2874044 L29.2539557,60.2874044 C31.0583501,60.2874044 32.5442254,61.6672435 32.5442254,63.2592918 L32.5442254,32.0542696 C32.5442254,30.3560483 31.0583501,29.0823823 29.2539557,29.0823823 Z" id="Path" fill="#4FBF9F"></path>
                            <path d="M32.5443622,64.1085392 C32.1198068,64.1085392 31.6952515,63.6839839 31.6952515,63.2594286 C31.6952515,62.0919356 30.6337948,61.1366519 29.2540926,61.1366519 L10.5733843,61.1366519 C10.148829,61.1366519 9.72427364,60.7120966 9.72427364,60.2875412 L9.72427364,29.0823823 C9.72427364,28.657827 10.148829,28.2332716 10.5733843,28.2332716 L29.2539557,28.2332716 C31.4829054,28.2332716 33.3934728,29.931493 33.3934728,32.0542696 L33.3934728,63.2594286 C33.3934728,63.6839839 32.9689175,64.1085392 32.5443622,64.1085392 Z M11.422495,59.4382938 L29.2539557,59.4382938 C30.1030664,59.4382938 30.9521771,59.7566761 31.6951147,60.1812314 L31.6951147,32.0542696 C31.6951147,30.8867767 30.6336579,29.931493 29.2539557,29.931493 L11.422495,29.931493 L11.422495,59.4382938 Z" id="Shape" fill="#193651"></path>
                            <rect id="Rectangle" fill="#FFFFFF" x="14.182173" y="32.6910342" width="14.6473642" height="23.8814085"></rect>
                            <path d="M54.5152032,29.0823823 L35.8346318,29.0823823 C34.0302374,29.0823823 32.5443622,30.4622213 32.5443622,32.0542696 L32.5443622,63.2594286 C32.5443622,61.6673803 34.0303742,60.2875412 35.8346318,60.2875412 L54.5152032,60.2875412 L54.5152032,29.0823823 Z" id="Path" fill="#4FBF9F"></path>
                            <path d="M32.5443622,64.1085392 C32.1198068,64.1085392 31.6952515,63.6839839 31.6952515,63.2594286 L31.6952515,32.0542696 C31.6952515,29.931493 33.4996459,28.2332716 35.8347686,28.2332716 L54.51534,28.2332716 C54.9398954,28.2332716 55.3644507,28.657827 55.3644507,29.0823823 L55.3644507,60.2874044 C55.3644507,60.7119598 54.9398954,61.1365151 54.51534,61.1365151 L35.8346318,61.1365151 C34.4547928,61.1365151 33.3934728,62.0917988 33.3934728,63.2592918 C33.3934728,63.6839839 32.9689175,64.1085392 32.5443622,64.1085392 Z M35.8346318,29.931493 C34.4547928,29.931493 33.3934728,30.8867767 33.3934728,32.0542696 L33.3934728,60.1813682 C34.0303742,59.7568129 34.8794849,59.4384306 35.8346318,59.4384306 L53.6660926,59.4384306 L53.6660926,29.931493 L35.8346318,29.931493 Z" id="Shape" fill="#193651"></path>
                            <rect id="Rectangle" fill="#FFFFFF" x="36.1530141" y="32.6910342" width="14.6473642" height="23.8814085"></rect>
                            <g id="Group" transform="translate(16.281690, 41.046278)" fill="#193651">
                                <rect id="Rectangle" x="27.1950744" y="0.136" width="5.20083702" height="1.69822133"></rect>
                                <rect id="Rectangle" x="21.9942374" y="5.33683702" width="10.5078471" height="1.69822133"></rect>
                                <rect id="Rectangle" x="21.9942374" y="10.537674" width="2.2289497" height="1.69822133"></rect>
                                <rect id="Rectangle" x="26.1336177" y="10.537674" width="2.2289497" height="1.69822133"></rect>
                                <rect id="Rectangle" x="30.2731348" y="10.537674" width="2.2289497" height="1.69822133"></rect>
                                <rect id="Rectangle" x="0.0232595573" y="0.136" width="10.5078471" height="1.69822133"></rect>
                                <rect id="Rectangle" x="0.0232595573" y="5.33683702" width="10.5078471" height="1.69822133"></rect>
                                <rect id="Rectangle" x="0.0232595573" y="10.537674" width="2.2289497" height="1.69822133"></rect>
                                <rect id="Rectangle" x="4.16263984" y="10.537674" width="2.2289497" height="1.69822133"></rect>
                            </g>
                            <polygon id="Path" fill="#E1E6E9" points="6.00931187 14.0104628 6.00931187 35.238503 29.572338 35.238503 39.4434205 42.880499 39.4434205 35.238503 44.5380845 35.238503 44.5380845 14.0104628"></polygon>
                            <path d="M38.9126922,43.6234366 L29.2539557,36.1936499 L5.90313883,36.1936499 C5.4785835,36.1936499 5.05402817,35.7690946 5.05402817,35.3445392 L5.05402817,14.0104628 C5.05402817,13.5859074 5.4785835,13.1613521 5.90313883,13.1613521 L44.4319115,13.1613521 C44.8564668,13.1613521 45.2810221,13.5859074 45.2810221,14.0104628 L45.2810221,35.3445392 C45.2810221,35.7690946 44.8564668,36.1936499 44.4319115,36.1936499 L40.1863581,36.1936499 L40.1863581,42.9865352 C40.1863581,43.3049175 39.9740121,43.6234366 39.6556298,43.7294728 C39.5495936,43.8357827 39.2310744,43.8357827 38.9126922,43.6234366 Z M6.85842254,34.3892555 L29.6785111,34.3892555 C29.8908571,34.3892555 30.1030664,34.4954286 30.2092394,34.6016016 L38.7004829,41.1822777 L38.7004829,35.238503 C38.7004829,34.8139477 39.1250382,34.3893924 39.5495936,34.3893924 L43.7951469,34.3893924 L43.7951469,14.8595734 L6.85842254,14.8595734 L6.85842254,34.3892555 Z" id="Shape" fill="#193651"></path>
                            <polygon id="Path" fill="#FFFFFF" points="30.7399678 31.8419235 9.40575453 31.8419235 9.40575453 17.4069054 41.1416419 17.4069054 41.1416419 31.8419235 36.0469779 31.8419235 36.0469779 35.8752676"></polygon>
                            <g id="Group" transform="translate(11.082495, 20.112676)" fill="#193651">
                                <path d="M1.82587525,6.31620121 L1.18897384,8.12059557 L0.0214808853,8.12059557 L2.88719517,0.266253521 L4.05468813,0.266253521 L6.92040241,8.12059557 L5.75290946,8.12059557 L5.11600805,6.31620121 L1.82587525,6.31620121 Z M4.69172636,5.04253521 L3.5242334,1.85830181 L2.35674044,5.04253521 L4.69172636,5.04253521 Z" id="Shape"></path>
                                <path d="M11.0600563,8.12059557 L8.19434205,8.12059557 L8.19434205,0.266253521 L10.741674,0.266253521 C11.1662294,0.266253521 11.5907847,0.372426559 11.909167,0.478599598 C12.2275493,0.584772636 12.4398954,0.796981891 12.6521046,1.00932797 C12.9704869,1.4338833 13.07666,1.85843863 13.07666,2.389167 C13.07666,3.02606841 12.8643139,3.45062374 12.5459316,3.76900604 C12.4397586,3.87517907 12.3335855,3.98135211 12.3335855,3.98135211 C12.3335855,3.98135211 12.2274125,4.08752515 12.1212394,4.08752515 C12.5457948,4.19369819 12.8641771,4.40590744 13.0765231,4.72442656 C13.2888692,5.04280885 13.3949054,5.46736419 13.3949054,5.99809256 C13.3949054,6.52882093 13.2887324,7.0595493 12.9703501,7.48410463 C12.5460684,7.80207646 11.909167,8.12059557 11.0600563,8.12059557 Z M9.36183501,3.55652314 L10.741674,3.55652314 C11.4846117,3.55652314 11.909167,3.23814085 11.909167,2.60123944 C11.909167,2.1766841 11.802994,1.96433803 11.5907847,1.75212877 C11.3784386,1.5397827 11.0600563,1.5397827 10.741674,1.5397827 L9.36183501,1.5397827 L9.36183501,3.55652314 Z M9.36183501,6.84679276 L11.0600563,6.84679276 C11.4846117,6.84679276 11.802994,6.74061972 12.01534,6.63444668 C12.2276861,6.52827364 12.3337223,6.20989135 12.3337223,5.78533602 C12.3337223,5.04239839 11.909167,4.72387928 10.9538833,4.72387928 L9.36183501,4.72387928 L9.36183501,6.84679276 Z" id="Shape"></path>
                                <path d="M18.1714608,6.84679276 C18.5960161,6.84679276 18.9143984,6.74061972 19.1267445,6.63444668 C19.3390905,6.52827364 19.6574728,6.20989135 19.9758551,5.89150905 L20.7187928,6.74061972 C20.0818913,7.69590342 19.2327807,8.12045875 18.2776338,8.12045875 C17.3224869,8.12045875 16.4732394,7.69590342 15.8364748,6.95296579 C15.1995734,6.21002817 14.8811911,5.25474447 14.8811911,4.08725151 C14.8811911,2.91975855 15.1995734,1.96447485 15.8364748,1.22153722 C16.4733763,0.478599598 17.3224869,0.0540442656 18.2776338,0.0540442656 C19.2329175,0.0540442656 20.0820282,0.478599598 20.8249658,1.4338833 L20.0820282,2.389167 C19.7636459,2.07078471 19.4451268,1.75226559 19.2329175,1.64622938 C18.9145352,1.54005634 18.5960161,1.4338833 18.2776338,1.4338833 C17.6407324,1.4338833 17.1101408,1.64622938 16.6855855,2.17682093 C16.2610302,2.7075493 16.0486841,3.34431388 16.0486841,4.08738833 C16.0486841,4.83032596 16.2610302,5.5734004 16.6855855,6.10399195 C17.0039678,6.6345835 17.5346962,6.84679276 18.1714608,6.84679276 Z" id="Path"></path>
                                <path d="M27.2994688,1.32757344 C27.9363702,1.96447485 28.2547525,2.91962173 28.2547525,4.19328773 C28.2547525,5.36078068 27.9363702,6.42223742 27.2994688,7.05900201 C26.6625674,7.80193964 25.8134567,8.12045875 24.5397907,8.12045875 L22.4170141,8.12045875 L22.4170141,0.2661167 L24.6459638,0.2661167 C25.8135936,0.2661167 26.7687404,0.584635815 27.2994688,1.32757344 Z M27.1934326,4.19328773 C27.1934326,2.38889336 26.3443219,1.5397827 24.6461006,1.5397827 L23.5846439,1.5397827 L23.5846439,6.95296579 L24.7521368,6.95296579 C25.4950744,6.95296579 26.1319759,6.74061972 26.5565312,6.31606439 C26.9810865,5.6792998 27.1934326,5.04253521 27.1934326,4.19328773 Z" id="Shape"></path>
                            </g>
                        </g>
                    </g>
                </g>
            </g>
        </g>
    </g>
</svg>