<?xml version="1.0" encoding="UTF-8"?>
<svg viewBox="0 0 68 64" version="1.1" xmlns="http://www.w3.org/2000/svg" xmlns:xlink="http://www.w3.org/1999/xlink">
    <!-- Generator: sketchtool 61 (101010) - https://sketch.com -->
    <title>A6CEAD34-699E-41D8-8360-1236CC4C0B8C</title>
    <desc>Created with sketchtool.</desc>
    <g id="Page-1" stroke="none" stroke-width="1" fill="none" fill-rule="evenodd">
        <g id="Case-Study-for-Edplus" transform="translate(-151.000000, -5044.000000)" fill-rule="nonzero">
            <g id="EdPlus-Mobile-Applications" transform="translate(121.000000, 4080.000000)">
                <g id="Group-7" transform="translate(0.000000, 214.000000)">
                    <g id="Group-11" transform="translate(30.000000, 750.000000)">
                        <g id="maths-d">
                            <circle id="Oval" fill="#F16051" cx="26.8011855" cy="26.9332097" r="26.8011855"></circle>
                            <path d="M22.2279113,62.7744194 L67.0028952,62.7744194 L67.0028952,17.255 L22.2279113,62.7744194 Z M58.0692581,53.7343952 L43.7113871,53.7343952 L58.1755081,39.0575 L58.1755081,53.7343952 L58.0692581,53.7343952 Z" id="Shape" fill="#FFFFFF"></path>
                            <path d="M67.1092823,63.731629 L22.2279113,63.731629 C21.8025,63.731629 21.4834758,63.5188548 21.2707016,63.0934435 C21.1643145,62.7744194 21.1643145,62.3490081 21.4834758,62.0298468 L66.2584597,16.5105645 C66.5774839,16.1915403 67.0028952,16.1915403 67.3220565,16.2977903 C67.6410806,16.4041774 67.9602419,16.8295887 67.9602419,17.255 L67.9602419,62.7744194 C68.0664919,63.3062177 67.6410806,63.731629 67.1092823,63.731629 Z M24.5677419,61.7109597 L66.0456855,61.7109597 L66.0456855,19.5948306 L24.5677419,61.7109597 Z M58.0692581,54.7978548 L43.7113871,54.7978548 C43.2859758,54.7978548 42.9669516,54.5850806 42.7541774,54.1596694 C42.6477903,53.8406452 42.6477903,53.4152339 42.9669516,53.0960726 L57.4310726,38.4191774 C57.7500968,38.1001532 58.1755081,38.1001532 58.4946694,38.2064032 C58.8136935,38.3127903 59.1328548,38.7382016 59.1328548,39.1636129 L59.1328548,53.8406452 C59.1328548,54.2660565 58.7073065,54.7978548 58.0692581,54.7978548 Z M46.0512177,52.7771855 L57.2184355,52.7771855 L57.2184355,41.5037177 L46.0512177,52.7771855 Z" id="Shape" fill="#193651"></path>
                            <polygon id="Path" fill="#E1E6E9" points="31.6934839 58.8393306 63.1741935 26.8268226 63.1741935 58.8393306"></polygon>
                            <polygon id="Path" fill="#FFFFFF" points="58.0692581 53.7343952 43.7113871 53.7343952 58.1755081 39.0575 58.1755081 53.7343952"></polygon>
                            <path d="M58.0692581,54.7978548 L43.7113871,54.7978548 C43.2859758,54.7978548 42.9669516,54.5850806 42.7541774,54.1596694 C42.6477903,53.8406452 42.6477903,53.4152339 42.9669516,53.0960726 L57.4310726,38.4191774 C57.7500968,38.1001532 58.1755081,38.1001532 58.4946694,38.2064032 C58.8136935,38.3127903 59.1328548,38.7382016 59.1328548,39.1636129 L59.1328548,53.8406452 C59.1328548,54.2660565 58.7073065,54.7978548 58.0692581,54.7978548 Z M46.0512177,52.7771855 L57.2184355,52.7771855 L57.2184355,41.5037177 L46.0512177,52.7771855 Z" id="Shape" fill="#193651"></path>
                            <path d="M33.5015161,8.10858871 L15.953129,8.10858871 C14.1450968,8.10858871 12.6562258,9.59759677 12.6562258,11.4054919 L12.6562258,44.5879839 C12.6562258,46.3960161 14.1452339,47.8848871 15.953129,47.8848871 L41.3716935,47.8848871 C43.1797258,47.8848871 44.6685968,46.395879 44.6685968,44.5879839 L44.6685968,19.2758065 L33.5015161,8.10858871 Z" id="Path" fill="#FFFFFF"></path>
                            <path d="M41.3716935,48.8420968 L15.953129,48.8420968 C13.6132984,48.8420968 11.6990161,46.9276774 11.6990161,44.5879839 L11.6990161,11.4054919 C11.6990161,9.06566129 13.6134355,7.15137903 15.953129,7.15137903 L33.5015161,7.15137903 C33.7142903,7.15137903 34.0333145,7.25776613 34.2459516,7.47040323 L45.4131694,18.637621 C45.6259435,18.8503952 45.7321935,19.0630323 45.7321935,19.3820565 L45.7321935,44.6942339 C45.6258065,46.9276774 43.7113871,48.8420968 41.3716935,48.8420968 Z M15.953129,9.06566129 C14.6768952,9.06566129 13.7196855,10.1293952 13.7196855,11.2992419 L13.7196855,44.4815968 C13.7196855,45.7578306 14.7832823,46.7150403 15.953129,46.7150403 L41.3716935,46.7150403 C42.6479274,46.7150403 43.6051371,45.6514435 43.6051371,44.4815968 L43.6051371,19.7010806 L32.9697177,9.06566129 L15.953129,9.06566129 L15.953129,9.06566129 Z" id="Shape" fill="#193651"></path>
                            <path d="M33.395129,9.17204839 L33.395129,16.6168145 C33.395129,18.3184597 34.77775,19.7010806 36.4793952,19.7010806 L43.8177742,19.7010806 L33.395129,9.17204839 Z" id="Path" fill="#4FBF9F"></path>
                            <g id="Group" transform="translate(15.217742, 14.120968)" fill="#193651">
                                <path d="M7.64835484,21.2142177 C7.43558065,21.2142177 7.11655645,21.1078306 6.90391935,20.8951935 L3.07521774,17.0664919 C2.64980645,16.6410806 2.64980645,16.1092823 3.07521774,15.683871 C3.50062903,15.2584597 4.03242742,15.2584597 4.45783871,15.683871 L7.32933065,18.5553629 L10.732621,12.2804435 C10.9453952,11.9614194 11.2644194,11.7486452 11.5834435,11.7486452 L23.1760726,11.7486452 C23.707871,11.7486452 24.1332823,12.1740565 24.1332823,12.7058548 C24.1332823,13.2376532 23.707871,13.6630645 23.1760726,13.6630645 L12.221629,13.6630645 L8.49917742,20.5760323 C8.39279032,20.8950565 8.07376613,21.0014435 7.75474194,21.1078306 C7.64835484,21.2142177 7.64835484,21.2142177 7.64835484,21.2142177 Z" id="Path"></path>
                                <path d="M17.7519758,21.0014435 L13.8168871,17.0663548 C13.3914758,16.6409435 13.3914758,16.1091452 13.8168871,15.6837339 C14.2422984,15.2583226 14.7740968,15.2583226 15.1995081,15.6837339 L19.1345968,19.6188226 C19.5600081,20.0442339 19.5600081,20.5760323 19.1345968,21.0014435 C18.7091855,21.4268548 18.071,21.4268548 17.7519758,21.0014435 Z" id="Path"></path>
                                <path d="M13.8168871,21.0014435 C13.3914758,20.5760323 13.3914758,20.0442339 13.8168871,19.6188226 L17.7519758,15.6837339 C18.1773871,15.2583226 18.7091855,15.2583226 19.1345968,15.6837339 C19.5600081,16.1091452 19.5600081,16.6409435 19.1345968,17.0663548 L15.1995081,21.0014435 C14.7740968,21.4268548 14.2422984,21.4268548 13.8168871,21.0014435 Z" id="Path"></path>
                                <path d="M13.4978629,1.96418548 L1.05441129,1.96418548 C0.522612903,1.96418548 0.0972016129,1.53877419 0.0972016129,1.00697581 C0.0972016129,0.475177419 0.522612903,0.049766129 1.05441129,0.049766129 L13.4978629,0.049766129 C14.0296613,0.049766129 14.4550726,0.475177419 14.4550726,1.00697581 C14.4550726,1.53877419 14.0295242,1.96418548 13.4978629,1.96418548 Z" id="Path"></path>
                                <path d="M8.81820161,6.85634677 L1.16066129,6.85634677 C0.628862903,6.85634677 0.203451613,6.43093548 0.203451613,5.8991371 C0.203451613,5.36733871 0.628862903,4.94192742 1.16066129,4.94192742 L8.81820161,4.94192742 C9.35,4.94192742 9.77541129,5.36733871 9.77541129,5.8991371 C9.77541129,6.43093548 9.35,6.85634677 8.81820161,6.85634677 Z" id="Path"></path>
                            </g>
                            <g id="Group" transform="translate(22.209677, 40.854839)" fill="#193651">
                                <rect id="Rectangle" x="0.124620968" y="0.0106935484" width="2.02066935" height="2.02066935"></rect>
                                <rect id="Rectangle" x="5.44233065" y="0.0106935484" width="2.02066935" height="2.02066935"></rect>
                                <rect id="Rectangle" x="10.8664274" y="0.0106935484" width="2.02066935" height="2.02066935"></rect>
                            </g>
                        </g>
                    </g>
                </g>
            </g>
        </g>
    </g>
</svg>