<?xml version="1.0" encoding="UTF-8"?>
<svg viewBox="0 0 68 68" version="1.1" xmlns="http://www.w3.org/2000/svg" xmlns:xlink="http://www.w3.org/1999/xlink">
    <!-- Generator: sketchtool 61 (101010) - https://sketch.com -->
    <title>04A1B27C-33A7-466C-81C3-E997A6D8BE35</title>
    <desc>Created with sketchtool.</desc>
    <g id="Page-1" stroke="none" stroke-width="1" fill="none" fill-rule="evenodd">
        <g id="Case-Study-for-Edplus" transform="translate(-765.000000, -5404.000000)" fill-rule="nonzero">
            <g id="EdPlus-Mobile-Applications" transform="translate(121.000000, 4080.000000)">
                <g id="Group-7" transform="translate(0.000000, 214.000000)">
                    <g id="Group-11" transform="translate(644.000000, 1110.000000)">
                        <g id="mission-d">
                            <polygon id="Path" fill="#FFFFFF" points="25.8981489 66.8680805 13.5859074 44.8971026 1.16749296 66.8680805"></polygon>
                            <path d="M25.8981489,67.9295372 L1.16749296,67.9295372 C0.742937626,67.9295372 0.424555332,67.717328 0.212209256,67.3988089 C-0.000136820926,67.0802897 -0.000136820926,66.6558712 0.212209256,66.3373521 L12.5244507,44.3663742 C12.949006,43.7294728 14.0104628,43.7294728 14.3288451,44.3663742 L26.6410865,66.3373521 C26.8534326,66.6557344 26.8534326,67.0802897 26.6410865,67.3988089 C26.6410865,67.7171911 26.3227042,67.9295372 25.8981489,67.9295372 Z M2.97188732,65.8067606 L24.0937545,65.8067606 L13.5859074,47.1261891 L2.97188732,65.8067606 Z" id="Shape" fill="#193651"></path>
                            <polygon id="Path" fill="#CFD0D1" points="11.4631308 54.9803944 6.36832998 64.1085392 20.8033481 64.1085392 15.6025111 54.9803944"></polygon>
                            <polygon id="Path" fill="#FFFFFF" points="66.8680805 66.8680805 54.555839 44.8971026 42.1375614 66.8680805"></polygon>
                            <path d="M66.8680805,67.9295372 L42.1375614,67.9295372 C41.713006,67.9295372 41.3946237,67.717328 41.1822777,67.3988089 C40.9699316,67.0804266 40.9699316,66.6558712 41.1822777,66.3373521 L53.4945191,44.3663742 C53.9190744,43.7294728 54.9805312,43.7294728 55.2989135,44.3663742 L67.6111549,66.3373521 C67.8233642,66.6557344 67.8233642,67.0802897 67.6111549,67.3988089 C67.6111549,67.7171911 67.2926358,67.9295372 66.8680805,67.9295372 Z M43.9419557,65.8067606 L65.0638229,65.8067606 L54.5559759,47.1261891 L43.9419557,65.8067606 Z" id="Shape" fill="#193651"></path>
                            <polygon id="Path" fill="#CFD0D1" points="52.4330624 54.9803944 47.3383984 64.1085392 61.7734165 64.1085392 56.5725795 54.9803944"></polygon>
                            <polygon id="Path" fill="#FFFFFF" points="59.6506398 66.8680805 36.6182052 29.931493 13.5859074 66.8680805"></polygon>
                            <path d="M59.6506398,67.9295372 L13.5859074,67.9295372 C13.1613521,67.9295372 12.8429698,67.717328 12.6306237,67.3988089 C12.4182777,67.0802897 12.4182777,66.6558712 12.6306237,66.3373521 L35.6629215,29.4006278 C36.0874769,28.7637264 37.0427606,28.7637264 37.4673159,29.4006278 L60.4996137,66.3373521 C60.7119598,66.6557344 60.7119598,67.0802897 60.4996137,67.3988089 C60.3935775,67.7171911 59.9690221,67.9295372 59.6506398,67.9295372 Z M15.4964748,65.8067606 L57.7402093,65.8067606 L36.6182052,31.9480966 L15.4964748,65.8067606 Z" id="Shape" fill="#193651"></path>
                            <polygon id="Path" fill="#E1E6E9" points="29.5069376 49.1427928 20.6973119 63.1532555 52.4330624 63.1532555 43.7296097 49.1427928 39.9086117 50.9471871 36.6182052 49.1427928 33.2217626 50.9471871"></polygon>
                            <path d="M36.6182052,30.9928129 C35.9813038,30.9928129 35.5567485,30.5682575 35.5567485,29.9313561 L35.5567485,15.2841288 C35.5567485,14.6472274 35.9813038,14.222672 36.6182052,14.222672 C37.2551066,14.222672 37.679662,14.6472274 37.679662,15.2841288 L37.679662,29.931493 C37.679662,30.5682575 37.1489336,30.9928129 36.6182052,30.9928129 Z" id="Path" fill="#193651"></path>
                            <polygon id="Path" fill="#FFFFFF" points="47.2322254 22.9262616 36.6182052 22.9262616 36.6182052 15.2841288 47.2322254 15.2841288 44.5787203 19.1051268"></polygon>
                            <path d="M47.3383984,23.9875815 C47.2322254,23.9875815 47.2322254,23.9875815 47.3383984,23.9875815 L36.6182052,23.9875815 C35.9813038,23.9875815 35.5567485,23.5630262 35.5567485,22.9261247 L35.5567485,15.283992 C35.5567485,14.6470905 35.9813038,14.2225352 36.6182052,14.2225352 L47.3383984,14.2225352 C47.7629537,14.2225352 48.081336,14.4348813 48.2936821,14.7532636 C48.5060282,15.0716459 48.3998551,15.4962012 48.1875091,15.8147203 L45.9585594,18.9989537 L48.081336,22.0770141 C48.2936821,22.2893602 48.3997183,22.5015694 48.3997183,22.8199517 C48.3997183,23.5630262 47.8691268,23.9875815 47.3383984,23.9875815 Z M37.679662,21.8648048 L45.3217948,21.8648048 L43.8357827,19.7420282 C43.6234366,19.4236459 43.6234366,18.8929175 43.8357827,18.5745352 L45.3217948,16.4517586 L37.679662,16.4517586 L37.679662,21.8648048 Z" id="Shape" fill="#193651"></path>
                            <circle id="Oval" fill="#FDBF5E" cx="14.4350181" cy="14.4350181" r="9.02183501"></circle>
                            <path d="M14.4350181,24.6244829 C8.80962575,24.6244829 4.35172636,20.0604105 4.35172636,14.5411911 C4.35172636,8.91579879 8.91579879,4.4578994 14.4350181,4.4578994 C20.0604105,4.4578994 24.5183099,9.02197183 24.5183099,14.5411911 C24.6244829,20.0604105 20.0604105,24.6244829 14.4350181,24.6244829 Z M14.4350181,6.47450302 C9.97711871,6.47450302 6.47450302,10.0832918 6.47450302,14.4350181 C6.47450302,18.8929175 10.0832918,22.3955332 14.4350181,22.3955332 C18.8929175,22.3955332 22.3955332,18.7867445 22.3955332,14.4350181 C22.5017062,10.0832918 18.8929175,6.47450302 14.4350181,6.47450302 Z" id="Shape" fill="#193651"></path>
                            <circle id="Oval" fill="#FFFFFF" cx="14.4350181" cy="14.4350181" r="5.30701006"></circle>
                            <g id="Group" fill="#193651">
                                <rect id="Rectangle" x="0" y="13.3735614" width="2.12277666" height="2.12277666"></rect>
                                <rect id="Rectangle" x="26.8534326" y="13.3735614" width="2.12277666" height="2.12277666"></rect>
                                <rect id="Rectangle" transform="translate(2.879956, 21.220816) rotate(150.007099) translate(-2.879956, -21.220816) " x="1.81855188" y="20.1594125" width="2.12280767" height="2.12280767"></rect>
                                <rect id="Rectangle" transform="translate(26.097680, 7.753800) rotate(150.007099) translate(-26.097680, -7.753800) " x="25.0362764" y="6.6923961" width="2.12280767" height="2.12280767"></rect>
                                <rect id="Rectangle" transform="translate(7.759810, 26.130299) rotate(119.992901) translate(-7.759810, -26.130299) " x="6.69840571" y="25.0688947" width="2.12280767" height="2.12280767"></rect>
                                <rect id="Rectangle" transform="translate(21.217285, 2.838985) rotate(120.005690) translate(-21.217285, -2.838985) " x="20.1557983" y="1.77749866" width="2.12297293" height="2.12297293"></rect>
                                <rect id="Rectangle" x="13.3735614" y="26.8534326" width="2.12277666" height="2.12277666"></rect>
                                <rect id="Rectangle" x="13.3735614" y="0" width="2.12277666" height="2.12277666"></rect>
                                <rect id="Rectangle" transform="translate(21.222831, 26.096688) rotate(150.007099) translate(-21.222831, -26.096688) " x="20.1614267" y="25.0352845" width="2.12280767" height="2.12280767"></rect>
                                <rect id="Rectangle" transform="translate(7.754510, 2.878862) rotate(149.994310) translate(-7.754510, -2.878862) " x="6.6930239" y="1.81737574" width="2.12297293" height="2.12297293"></rect>
                                <rect id="Rectangle" transform="translate(26.136585, 21.215389) rotate(120.000728) translate(-26.136585, -21.215389) " x="25.0752205" y="20.1540241" width="2.12272996" height="2.12272996"></rect>
                                <rect id="Rectangle" transform="translate(2.840230, 7.755399) rotate(120.000728) translate(-2.840230, -7.755399) " x="1.7788649" y="6.69403434" width="2.12272996" height="2.12272996"></rect>
                            </g>
                            <g id="Group" transform="translate(7.935614, 0.000000)" fill="#2EA2DB">
                                <path d="M56.3851348,4.35172636 C55.8544064,4.35172636 55.3236781,4.4578994 54.7930865,4.77628169 C54.2623581,3.71482495 53.0948652,2.97188732 51.9273722,2.97188732 C51.2904708,1.273666 49.5922495,0.106173038 47.6818189,0.106173038 C45.24066,0.106173038 43.2239195,2.01674044 43.1177465,4.4578994 C43.0115734,4.4578994 43.0115734,4.4578994 42.9054004,4.4578994 C40.8887968,4.4578994 39.2966117,6.04994769 39.2966117,8.06668813 C39.2966117,10.0834286 40.88866,11.6754769 42.9054004,11.6754769 L56.3851348,11.6754769 C58.4017384,11.6754769 59.9939235,10.0834286 59.9939235,8.06668813 C59.9939235,5.94377465 58.4018753,4.35172636 56.3851348,4.35172636 Z" id="Path"></path>
                                <path d="M13.6108089,33.9647002 C13.1862535,33.9647002 12.7616982,34.0708732 12.3371429,34.2830825 C11.9125875,33.4339718 11.0634769,32.9032435 10.0020201,32.7970704 C9.47129175,31.4172314 8.19762575,30.4619477 6.60557746,30.4619477 C4.69501006,30.4619477 3.10296177,31.9479598 2.99678873,33.9645634 L2.89061569,33.9645634 C1.2985674,33.9645634 0.0249014085,35.2382294 0.0249014085,36.8302777 C0.0249014085,38.422326 1.2985674,39.695992 2.89061569,39.695992 L13.5046358,39.695992 C15.0966841,39.695992 16.3703501,38.422326 16.3703501,36.8302777 C16.4765231,35.238503 15.2028571,33.9647002 13.6108089,33.9647002 Z" id="Path"></path>
                                <path d="M57.0220362,32.3726519 C56.5974809,32.3726519 56.1729256,32.4788249 55.7483702,32.6910342 C55.3238149,31.8419235 54.4747042,31.3111952 53.4132475,31.2050221 C52.8825191,29.8251831 51.6088531,28.8698994 50.0168048,28.8698994 C48.1062374,28.8698994 46.5141891,30.3559115 46.4080161,32.3725151 L46.3018431,32.3725151 C44.7097948,32.3725151 43.4361288,33.6461811 43.4361288,35.2382294 C43.4361288,36.8302777 44.7097948,38.1039437 46.3018431,38.1039437 L56.9158632,38.1039437 C58.5079115,38.1039437 59.7815775,36.8302777 59.7815775,35.2382294 C59.8877505,33.7524909 58.6140845,32.3726519 57.0220362,32.3726519 Z" id="Path"></path>
                            </g>
                        </g>
                    </g>
                </g>
            </g>
        </g>
    </g>
</svg>