<?xml version="1.0" encoding="UTF-8"?>
<svg viewBox="0 0 68 68" version="1.1" xmlns="http://www.w3.org/2000/svg" xmlns:xlink="http://www.w3.org/1999/xlink">
    <!-- Generator: sketchtool 61 (101010) - https://sketch.com -->
    <title>6660B9AA-224A-4A13-97F7-EBCD405D22A7</title>
    <desc>Created with sketchtool.</desc>
    <g id="Page-1" stroke="none" stroke-width="1" fill="none" fill-rule="evenodd">
        <g id="Case-Study-for-Edplus" transform="translate(-765.000000, -5044.000000)" fill-rule="nonzero">
            <g id="EdPlus-Mobile-Applications" transform="translate(121.000000, 4080.000000)">
                <g id="Group-7" transform="translate(0.000000, 214.000000)">
                    <g id="Group-11" transform="translate(644.000000, 750.000000)">
                        <g id="research-d">
                            <circle id="Oval" fill="#FDBF5E" cx="24.7836056" cy="24.5183099" r="24.5183099"></circle>
                            <g id="Group" transform="translate(7.798793, 57.738431)" fill="#193651">
                                <rect id="Rectangle" x="0.108635815" y="0.107814889" width="2.12277666" height="2.12277666"></rect>
                                <rect id="Rectangle" x="7.53842254" y="0.107814889" width="2.12277666" height="2.12277666"></rect>
                            </g>
                            <rect id="Rectangle" fill="#193651" x="11.6222535" y="54.0252475" width="2.12277666" height="2.12277666"></rect>
                            <g id="Group" transform="translate(11.492958, 7.525151)" fill="#193651">
                                <rect id="Rectangle" x="0.129295775" y="54.0359195" width="2.12277666" height="2.12277666"></rect>
                                <rect id="Rectangle" x="42.1606841" y="0.0108088531" width="2.12277666" height="2.12277666"></rect>
                                <rect id="Rectangle" x="49.5904708" y="0.0108088531" width="2.12277666" height="2.12277666"></rect>
                            </g>
                            <rect id="Rectangle" fill="#193651" x="57.3686036" y="3.82099799" width="2.12277666" height="2.12277666"></rect>
                            <rect id="Rectangle" fill="#193651" x="57.3686036" y="11.2507847" width="2.12277666" height="2.12277666"></rect>
                            <path d="M57.793159,40.8638954 L57.793159,25.8981489 L48.7713239,25.8981489 L48.7713239,40.8638954 C43.5704869,42.7744628 39.8555252,47.6567807 39.8555252,53.4945191 C39.8555252,60.9243058 45.9054728,66.8680805 53.2290865,66.8680805 C60.6588732,66.8680805 66.6026479,60.8181328 66.6026479,53.4945191 C66.7089577,47.6567807 62.993996,42.6682897 57.793159,40.8638954 Z" id="Path" fill="#FFFFFF"></path>
                            <path d="M53.3352596,67.9295372 C45.3747445,67.9295372 38.9002414,61.4550342 38.9002414,53.4945191 C38.9002414,47.6567807 42.4028571,42.3497706 47.8160402,40.1209577 L47.8160402,25.8981489 C47.8160402,25.3674205 48.2405956,24.8366922 48.877497,24.8366922 L57.899332,24.8366922 C58.4300604,24.8366922 58.9607887,25.2612475 58.9607887,25.8981489 L58.9607887,40.1209577 C64.2677988,42.3499074 67.8765875,47.6569175 67.8765875,53.4945191 C67.7702777,61.4550342 61.2957746,67.9295372 53.3352596,67.9295372 Z M49.8326439,26.8534326 L49.8326439,40.7577223 C49.8326439,41.1822777 49.5142616,41.606833 49.1957425,41.713006 C44.3132877,43.5174004 41.0230181,48.1875091 41.0230181,53.3883461 C41.0230181,60.1812314 46.5422374,65.8067606 53.4414326,65.8067606 C60.2343179,65.8067606 65.8598471,60.2875412 65.8598471,53.3883461 C65.8598471,48.1875091 62.5695775,43.5174004 57.6871227,41.713006 C57.2625674,41.606833 57.0502213,41.1822777 57.0502213,40.7577223 L57.0502213,26.8534326 L49.8326439,26.8534326 Z" id="Shape" fill="#193651"></path>
                            <path d="M44.8441529,48.5058913 C43.9950423,49.9919034 43.4643139,51.6901247 43.4643139,53.4945191 C43.4643139,58.9077022 47.9222133,63.3654648 53.3352596,63.3654648 C58.7483058,63.3654648 63.2062052,58.9075654 63.2062052,53.4945191 C63.2062052,51.6901247 62.6754769,49.9919034 61.8263662,48.5058913 L44.8441529,48.5058913 Z" id="Path" fill="#F16051"></path>
                            <rect id="Rectangle" fill="#FFFFFF" x="46.7545835" y="21.4402495" width="13.0551791" height="4.4578994"></rect>
                            <path d="M59.8097626,20.3787928 L46.7545835,20.3787928 C46.2238551,20.3787928 45.6931268,20.8033481 45.6931268,21.4402495 L45.6931268,25.8981489 C45.6931268,26.4288773 46.1176821,26.9596056 46.7545835,26.9596056 L59.8097626,26.9596056 C60.3404909,26.9596056 60.8712193,26.5350503 60.8712193,25.8981489 L60.8712193,21.4402495 C60.8712193,20.8033481 60.446664,20.3787928 59.8097626,20.3787928 Z M58.7484427,24.8366922 L47.8160402,24.8366922 L47.8160402,22.5015694 L58.7484427,22.5015694 L58.7484427,24.8366922 L58.7484427,24.8366922 Z" id="Shape" fill="#193651"></path>
                            <g id="Group" transform="translate(49.529175, 36.941650)" fill="#F16051">
                                <circle id="Oval" cx="1.89565392" cy="8.06162575" r="1.80439437"></circle>
                                <circle id="Oval" cx="3.80608451" cy="1.4809497" r="1.37983903"></circle>
                            </g>
                            <path d="M24.7836056,42.2437344 C14.91266,42.2437344 6.95214487,34.2832193 6.95214487,24.4122736 C6.95214487,14.541328 14.91266,6.68684909 24.7836056,6.68684909 C34.6545513,6.68684909 42.6152032,14.6473642 42.6152032,24.5183099 C42.6152032,34.3892555 34.5485151,42.2437344 24.7836056,42.2437344 Z" id="Path" fill="#FFFFFF"></path>
                            <path d="M24.7836056,43.3050543 C14.3819316,43.3050543 5.89068813,34.8138109 5.89068813,24.4121368 C5.89068813,14.0104628 14.3819316,5.51921932 24.7836056,5.51921932 C35.1852797,5.51921932 43.6765231,14.0104628 43.6765231,24.4121368 C43.6765231,34.8138109 35.1854165,43.3050543 24.7836056,43.3050543 Z M24.7836056,7.74816901 C15.5494245,7.74816901 8.01346479,15.2841288 8.01346479,24.5183099 C8.01346479,33.7524909 15.5494245,41.2884507 24.7836056,41.2884507 C34.0177867,41.2884507 41.5537465,33.7524909 41.5537465,24.5183099 C41.5537465,15.2841288 34.0177867,7.74816901 24.7836056,7.74816901 Z" id="Shape" fill="#193651"></path>
                            <circle id="Oval" fill="#E1E6E9" cx="24.8283461" cy="24.4758954" r="13.9045634"></circle>
                            <g id="Group" transform="translate(14.366197, 11.219316)" fill="#2EA2DB">
                                <path d="M11.5850382,15.6341167 C11.5850382,15.6341167 12.2219396,15.1033883 9.99298994,14.4666237 C9.99298994,14.4666237 9.35608853,14.5727968 9.67460765,12.9806117 L9.03770624,12.7682656 C9.03770624,12.7682656 8.9315332,11.3884266 8.18859557,11.7068089 C8.18859557,11.7068089 7.6578672,12.0251911 7.33948491,11.0699074 C7.33948491,11.0699074 5.95964588,10.2207968 5.32288129,12.3435734 C5.32288129,12.3435734 3.09393159,13.0865111 4.89832596,15.3154608 L5.74743662,16.4829537 L5.11053521,18.4995573 C5.11053521,18.4995573 5.64126358,18.7119034 5.11053521,19.5610141 C5.11053521,19.5610141 5.64126358,20.4101247 4.68597988,21.5776177 C4.68597988,21.5776177 4.79215292,23.8065674 6.27802817,23.4881851 L6.06568209,22.7452475 L6.49023742,22.0023099 L5.85333602,21.7899638 L6.49023742,21.0470262 L6.27802817,20.6224708 C6.27802817,20.6224708 8.61315091,21.1531992 9.14374245,19.2426318 C9.14374245,19.2426318 8.40080483,17.9689658 9.99285312,18.6057304 C9.99285312,18.6057304 10.7357907,18.8180765 11.2665191,17.0136821 C11.2665191,17.0136821 12.1156298,16.5891268 12.1156298,16.1645714 C12.1156298,15.7400161 11.5850382,15.6341167 11.5850382,15.6341167 Z" id="Path"></path>
                                <path d="M24.1094889,11.1762173 C23.7911066,11.7069457 23.6849336,12.4498833 23.6849336,12.4498833 C22.8358229,13.405167 21.7743662,11.2823903 21.7743662,11.2823903 C20.8190825,12.3438471 19.8637988,10.6454889 19.8637988,10.6454889 C16.9980845,7.9919839 15.5120724,10.9638712 15.5120724,10.9638712 C13.2831227,12.1313642 14.3445795,14.8910423 14.3445795,14.8910423 C14.9814809,16.5892636 16.9980845,15.2094245 16.9980845,15.2094245 C17.6349859,16.6954366 18.3779235,16.5892636 18.3779235,16.5892636 C18.3779235,16.5892636 18.3779235,16.5892636 18.0595412,17.226165 C17.741159,17.8630664 18.6964427,19.1367324 18.5902696,19.4551147 C18.4840966,19.87967 16.573666,20.3042254 17.4227767,21.7902374 C18.3780604,23.2762495 17.5289497,23.9130141 17.5289497,23.9130141 C17.5289497,23.9130141 17.847332,24.4437425 18.1658511,24.8682978 C20.7131831,23.1700765 22.7299235,20.5165714 23.6850704,17.226165 C24.321835,15.2095614 24.4278712,13.1928209 24.1094889,11.1762173 Z" id="Path"></path>
                                <path d="M0.971018109,7.77977465 C0.971018109,7.77977465 0.971018109,7.77977465 1.2894004,9.37182294 C1.6077827,10.9638712 2.98762173,9.58416901 2.88144869,8.84109457 C2.77527565,8.09815694 3.73055936,7.14287324 5.21657143,7.9919839 C6.7025835,8.84109457 6.17185513,7.9919839 8.08228571,6.61214487 C9.99285312,5.23230584 10.4174085,6.93052716 11.1603461,5.97524346 C11.9032837,5.01995976 12.7523944,3.10952918 10.8419638,3.95863984 C8.82536016,4.70157746 9.14374245,4.17098592 11.1603461,2.79114688 C13.1769497,1.41130785 10.0988893,2.79114688 7.55155734,2.04820926 C6.38406439,1.72982696 6.27789135,0.880716298 6.38406439,0.0316056338 C4.89805231,0.456160966 3.41217706,1.19909859 2.13851107,2.04820926 C1.71395573,2.68511066 1.18322736,3.64025755 0.440289738,4.91392354 C-0.621030181,6.82449095 0.971018109,7.77977465 0.971018109,7.77977465 Z" id="Path"></path>
                            </g>
                            <g id="Group" transform="translate(0.000000, 0.273642)" fill="#193651">
                                <path d="M1.85748089,46.5340282 C1.22057948,45.8971268 0.796024145,45.2603622 0.477641851,44.4112515 L2.38820926,43.6683139 C2.60055533,44.1990423 2.91893763,44.6235976 3.23731992,45.0481529 L1.85748089,46.5340282 Z M0.0530865191,42.0761288 C0.0530865191,41.8637827 0.0530865191,41.7577465 0.0530865191,41.5454004 C0.0530865191,41.014672 0.0530865191,40.3779074 0.159259557,39.741006 L2.28203622,40.0593883 C2.17586318,40.5901167 2.17586318,41.1208451 2.17586318,41.5454004 C2.17586318,41.6515734 2.17586318,41.8637827 2.17586318,41.9699557 L0.0530865191,42.0761288 Z M2.60041851,38.1489577 L0.583814889,37.6182294 C0.796160966,36.981328 1.00837022,36.2383903 1.2207163,35.6016258 L3.1312837,36.3445634 C3.02497384,36.8752918 2.81276459,37.5121932 2.60041851,38.1489577 Z M3.98025755,34.4341328 L2.06969014,33.5850221 C2.38807243,32.9481207 2.70659155,32.3113561 3.02497384,31.6744547 L4.82936821,32.6297384 C4.51098592,33.1604668 4.29863984,33.7972314 3.98025755,34.4341328 Z M5.78465191,30.8253441 L3.98025755,29.7638873 C4.29863984,29.1269859 4.72319517,28.5963944 5.04171429,27.959493 L6.84610865,29.0209497 C6.52758954,29.6578511 6.20920724,30.2946157 5.78465191,30.8253441 Z M8.01360161,27.3227284 L7.16449095,26.792 L6.20920724,26.3674447 L7.05831791,26.792 L6.31538028,26.2612716 L7.16449095,26.792 L8.11977465,27.3227284 L8.01360161,27.3227284 Z" id="Shape"></path>
                                <path d="M1.85748089,46.5340282 C1.43292555,46.1094728 1.43292555,45.4725714 1.85748089,45.0480161 C2.28203622,44.6234608 2.91893763,44.6234608 3.34349296,45.0480161 C6.84610865,48.5506318 18.946004,43.8805231 31.3644185,31.4621087 C43.3582777,19.4682495 48.5591147,7.04997183 44.950326,3.4411831 C42.4028571,0.787814889 36.0345272,2.37986318 28.3923944,7.47452716 C27.967839,7.79290946 27.2249014,7.68687324 26.9063823,7.15614487 C26.588,6.73158954 26.6940362,5.98865191 27.2247646,5.6701328 C36.0345272,-0.167468813 43.0397586,-1.54730785 46.4362012,1.84913481 C48.8773602,4.29029376 48.6651509,8.96053924 45.9054728,14.9043139 C43.2519678,20.6358793 38.5818592,26.898173 32.7441207,32.7357746 C20.3258431,45.3665352 6.73993561,51.4164829 1.85748089,46.5340282 Z" id="Path"></path>
                            </g>
                        </g>
                    </g>
                </g>
            </g>
        </g>
    </g>
</svg>