<?xml version="1.0" encoding="UTF-8"?>
<svg viewBox="0 0 68 68" version="1.1" xmlns="http://www.w3.org/2000/svg" xmlns:xlink="http://www.w3.org/1999/xlink">
    <!-- Generator: sketchtool 61 (101010) - https://sketch.com -->
    <title>9B4A72D3-2C67-46B0-819B-DCF000517D45</title>
    <desc>Created with sketchtool.</desc>
    <g id="Page-1" stroke="none" stroke-width="1" fill="none" fill-rule="evenodd">
        <g id="Case-Study-for-Edplus" transform="translate(-765.000000, -4324.000000)" fill-rule="nonzero">
            <g id="EdPlus-Mobile-Applications" transform="translate(121.000000, 4080.000000)">
                <g id="Group-7" transform="translate(0.000000, 214.000000)">
                    <g id="Group-11" transform="translate(644.000000, 30.000000)">
                        <g id="school-d">
                            <path d="M66.8680805,67.9295372 L1.06145674,67.9295372 C0.424555332,67.9295372 0,67.5049819 0,66.8680805 C0,66.2311791 0.424555332,65.8066237 1.06145674,65.8066237 L66.8682173,65.8066237 C67.5051187,65.8066237 67.929674,66.2311791 67.929674,66.8680805 C67.929674,67.5049819 67.3988089,67.9295372 66.8680805,67.9295372 Z" id="Path" fill="#193651"></path>
                            <rect id="Rectangle" fill="#2EA2DB" x="4.1395171" y="31.0989859" width="15.8148571" height="35.7690946"></rect>
                            <path d="M19.9542374,67.9295372 L4.1395171,67.9295372 C3.50261569,67.9295372 3.07806036,67.5049819 3.07806036,66.8680805 L3.07806036,31.0989859 C3.07806036,30.4620845 3.50261569,30.0375292 4.1395171,30.0375292 L19.9543742,30.0375292 C20.5912757,30.0375292 21.015831,30.4620845 21.015831,31.0989859 L21.015831,66.8680805 C21.015831,67.5049819 20.4849658,67.9295372 19.9542374,67.9295372 Z M5.20083702,65.8067606 L18.8929175,65.8067606 L18.8929175,32.1604427 L5.20083702,32.1604427 L5.20083702,65.8067606 Z" id="Shape" fill="#193651"></path>
                            <rect id="Rectangle" fill="#FFFFFF" x="19.9542374" y="18.4683622" width="28.0209256" height="48.3997183"></rect>
                            <path d="M47.975163,67.9295372 L19.9542374,67.9295372 C19.317336,67.9295372 18.8927807,67.5049819 18.8927807,66.8680805 L18.8927807,18.4683622 C18.8927807,17.8314608 19.317336,17.4069054 19.9542374,17.4069054 L47.975163,17.4069054 C48.6120644,17.4069054 49.0366197,17.8314608 49.0366197,18.4683622 L49.0366197,66.8680805 C49.0366197,67.5049819 48.6120644,67.9295372 47.975163,67.9295372 Z M21.0156942,65.8067606 L46.9138431,65.8067606 L46.9138431,19.5298189 L21.0156942,19.5298189 L21.0156942,65.8067606 Z" id="Shape" fill="#193651"></path>
                            <polygon id="Path" fill="#F16051" points="33.9647002 19.8482012 45.8523863 31.0989859 66.8680805 31.0989859 59.4382938 14.4350181 8.49124346 14.4350181 1.06145674 31.0989859 22.0771509 31.0989859"></polygon>
                            <g id="Group" fill="#193651">
                                <path d="M66.8680805,32.1604427 L66.8680805,32.1604427 L45.8523863,32.1604427 C45.534004,32.1604427 45.3216579,32.0542696 45.1094487,31.8420604 L33.9647002,21.3342133 L22.8199517,31.8420604 C22.6076056,32.0544064 22.3953964,32.1604427 22.0770141,32.1604427 L1.06145674,32.1604427 C0.743074447,32.1604427 0.318519115,31.9480966 0.212346076,31.6297143 C8.32667268e-17,31.3111952 8.32667268e-17,30.9928129 0.106173038,30.5682575 L7.53595976,13.9042897 C7.74830584,13.4797344 8.06668813,13.2673883 8.49124346,13.2673883 L59.4384306,13.2673883 C59.8629859,13.2673883 60.2875412,13.4797344 60.3937143,13.9042897 L67.717328,30.3559115 C67.823501,30.5682575 67.9295372,30.7804668 67.9295372,30.9928129 C67.9295372,31.7358873 67.5049819,32.1604427 66.8680805,32.1604427 Z M46.2769416,30.0375292 L65.2760322,30.0375292 L58.8015292,15.4964748 L9.12800805,15.4964748 L2.65350503,30.0375292 L21.6525956,30.0375292 L33.2218994,19.1051268 C33.6464547,18.6805714 34.2833561,18.6805714 34.7079115,19.1051268 L46.2769416,30.0375292 Z" id="Shape"></path>
                                <path d="M34.0708732,15.4964748 C33.4339718,15.4964748 33.0094165,15.0719195 33.0094165,14.4350181 L33.0094165,1.06145674 C33.0094165,0.424555332 33.4339718,0 34.0708732,0 C34.7077746,0 35.13233,0.424555332 35.13233,1.06145674 L35.13233,14.4350181 C35.13233,15.0719195 34.6016016,15.4964748 34.0708732,15.4964748 Z" id="Path"></path>
                            </g>
                            <rect id="Rectangle" fill="#E1E6E9" x="34.0708732" y="1.06145674" width="11.0385755" height="6.89905835"></rect>
                            <path d="M45.0032757,9.02183501 L34.0708732,9.02183501 C33.4339718,9.02183501 33.0094165,8.59727968 33.0094165,7.96037827 L33.0094165,1.06145674 C33.0094165,0.424555332 33.4339718,0 34.0708732,0 L45.1094487,0 C45.7463501,0 46.1709054,0.424555332 46.1709054,1.06145674 L46.1709054,7.96051509 C46.0647324,8.49124346 45.6401771,9.02183501 45.0032757,9.02183501 Z M35.13233,6.89905835 L44.0481288,6.89905835 L44.0481288,2.12277666 L35.13233,2.12277666 L35.13233,6.89905835 Z" id="Shape" fill="#193651"></path>
                            <rect id="Rectangle" fill="#2EA2DB" x="47.975163" y="31.0989859" width="15.8148571" height="35.7690946"></rect>
                            <path d="M63.7900201,67.9295372 L47.975163,67.9295372 C47.3382616,67.9295372 46.9137062,67.5049819 46.9137062,66.8680805 L46.9137062,31.0989859 C46.9137062,30.4620845 47.3382616,30.0375292 47.975163,30.0375292 L63.7900201,30.0375292 C64.4269215,30.0375292 64.8514769,30.4620845 64.8514769,31.0989859 L64.8514769,66.8680805 C64.8514769,67.5049819 64.4269215,67.9295372 63.7900201,67.9295372 Z M49.0366197,65.8067606 L62.7287002,65.8067606 L62.7287002,32.1604427 L49.0366197,32.1604427 L49.0366197,65.8067606 Z" id="Shape" fill="#193651"></path>
                            <g id="Group" transform="translate(28.321932, 35.026157)" fill="#FFFFFF">
                                <rect id="Rectangle" x="23.8989215" y="0.106173038" width="7.32361368" height="6.89905835"></rect>
                                <rect id="Rectangle" x="23.8989215" y="10.5078471" width="7.32361368" height="6.89905835"></rect>
                                <rect id="Rectangle" x="23.8989215" y="20.9095211" width="7.32361368" height="6.89905835"></rect>
                                <path d="M5.53673239,16.4516217 L5.53673239,16.4516217 C2.56484507,16.4516217 0.123549296,18.6805714 0.123549296,21.5462857 L0.123549296,30.8866398 L10.9497787,30.8866398 L10.9497787,21.5462857 C10.9497787,18.7867445 8.50861972,16.4516217 5.53673239,16.4516217 Z" id="Path"></path>
                            </g>
                            <path d="M39.2717103,66.9742535 L28.4454809,66.9742535 C27.8085795,66.9742535 27.3840241,66.5496982 27.3840241,65.9127968 L27.3840241,56.5724427 C27.3840241,53.176 30.2497384,50.4163219 33.8585272,50.4163219 C37.4673159,50.4163219 40.3330302,53.176 40.3330302,56.5724427 L40.3330302,65.9127968 C40.333167,66.4435252 39.8024386,66.9742535 39.2717103,66.9742535 Z M29.5069376,64.8514769 L38.2103903,64.8514769 L38.2103903,56.5725795 C38.2103903,54.3436298 36.2998229,52.5392354 33.858664,52.5392354 C31.417505,52.5392354 29.5069376,54.3436298 29.5069376,56.5725795 L29.5069376,64.8514769 L29.5069376,64.8514769 Z" id="Shape" fill="#193651"></path>
                            <g id="Group" transform="translate(8.346076, 28.732394)" fill="#FFFFFF">
                                <rect id="Rectangle" x="0.0389939638" y="6.39993561" width="7.32361368" height="6.89905835"></rect>
                                <rect id="Rectangle" x="0.0389939638" y="16.8016097" width="7.32361368" height="6.89905835"></rect>
                                <rect id="Rectangle" x="0.0389939638" y="27.2032837" width="7.32361368" height="6.89905835"></rect>
                                <circle id="Oval" cx="25.6186237" cy="4.59554125" r="4.56407243"></circle>
                            </g>
                            <path d="M33.9647002,38.953328 C30.8866398,38.953328 28.3393078,36.405996 28.3393078,33.3279356 C28.3393078,30.2498753 30.8866398,27.7025433 33.9647002,27.7025433 C37.0427606,27.7025433 39.5900926,30.2498753 39.5900926,33.3279356 C39.5900926,36.405996 37.0427606,38.953328 33.9647002,38.953328 Z M33.9647002,29.8253199 C32.0541328,29.8253199 30.4620845,31.4173682 30.4620845,33.3279356 C30.4620845,35.238503 32.0541328,36.8305513 33.9647002,36.8305513 C35.8752676,36.8305513 37.4673159,35.238503 37.4673159,33.3279356 C37.4673159,31.3111952 35.8752676,29.8253199 33.9647002,29.8253199 Z" id="Shape" fill="#193651"></path>
                            <g id="Group" transform="translate(27.090543, 44.877264)" fill="#193651">
                                <rect id="Rectangle" x="0.0812716298" y="0.0198390342" width="2.12277666" height="2.12277666"></rect>
                                <rect id="Rectangle" x="5.81283702" y="0.0198390342" width="2.12277666" height="2.12277666"></rect>
                                <rect id="Rectangle" x="11.5444024" y="0.0198390342" width="2.12277666" height="2.12277666"></rect>
                            </g>
                        </g>
                    </g>
                </g>
            </g>
        </g>
    </g>
</svg>