<?xml version="1.0" encoding="UTF-8"?>
<svg viewBox="0 0 68 68" version="1.1" xmlns="http://www.w3.org/2000/svg" xmlns:xlink="http://www.w3.org/1999/xlink">
    <!-- Generator: sketchtool 61 (101010) - https://sketch.com -->
    <title>3819492D-DF5D-42A7-AF19-F15592F0A61B</title>
    <desc>Created with sketchtool.</desc>
    <g id="Page-1" stroke="none" stroke-width="1" fill="none" fill-rule="evenodd">
        <g id="Case-Study-for-Edplus" transform="translate(-151.000000, -4324.000000)">
            <g id="EdPlus-Mobile-Applications" transform="translate(121.000000, 4080.000000)">
                <g id="Group-7" transform="translate(0.000000, 214.000000)">
                    <g id="Group-11" transform="translate(30.000000, 30.000000)">
                        <g id="uk-d">
                            <polygon id="Path-4" fill="#2EA2DB" points="12.2440203 12.0645161 33.0094165 25.4436493 33.0094165 12.0645161"></polygon>
                            <polygon id="Path-4" fill="#2EA2DB" transform="translate(18.626718, 23.754083) scale(-1, -1) translate(-18.626718, -23.754083) " points="8.24402029 17.0645161 29.0094165 30.4436493 29.0094165 17.0645161"></polygon>
                            <polygon id="Path-4" fill="#2EA2DB" transform="translate(55.626718, 23.754083) scale(1, -1) translate(-55.626718, -23.754083) " points="45.2440203 17.0645161 66.0094165 30.4436493 66.0094165 17.0645161"></polygon>
                            <polygon id="Path-4" fill="#2EA2DB" transform="translate(18.626718, 45.754083) scale(-1, 1) translate(-18.626718, -45.754083) " points="8.24402029 39.0645161 29.0094165 52.4436493 29.0094165 39.0645161"></polygon>
                            <polygon id="Path-4" fill="#2EA2DB" points="45.2440203 39.0645161 66.0094165 52.4436493 66.0094165 39.0645161"></polygon>
                            <polygon id="Path-4" fill="#2EA2DB" transform="translate(52.626718, 18.754083) scale(-1, 1) translate(-52.626718, -18.754083) " points="42.2440203 12.0645161 63.0094165 25.4436493 63.0094165 12.0645161"></polygon>
                            <polygon id="Path-4" fill="#2EA2DB" transform="translate(22.626718, 49.754083) scale(1, -1) translate(-22.626718, -49.754083) " points="12.2440203 43.0645161 33.0094165 56.4436493 33.0094165 43.0645161"></polygon>
                            <polygon id="Path-4" fill="#2EA2DB" transform="translate(52.626718, 49.754083) scale(-1, -1) translate(-52.626718, -49.754083) " points="42.2440203 43.0645161 63.0094165 56.4436493 63.0094165 43.0645161"></polygon>
                            <g id="Group" fill="#333333" fill-rule="nonzero">
                                <path d="M68,9.87096774 L8.77419355,9.87096774 L8.77419355,9.84245161 C10.098,8.84109677 10.9677419,7.26832258 10.9677419,5.48387097 C10.9677419,2.46006452 8.50767742,0 5.48387097,0 C2.46006452,0 0,2.46006452 0,5.48387097 C0,7.26832258 0.869741935,8.84109677 2.19354839,9.84245161 L2.19354839,68 L4.38709677,68 L4.38709677,10.8569677 C4.74135484,10.9293548 5.10877419,10.9677419 5.48387097,10.9677419 C5.85896774,10.9677419 6.2263871,10.9293548 6.58064516,10.8569677 L6.58064516,68 L8.77419355,68 L8.77419355,58.1290323 L68,58.1290323 L68,9.87096774 Z M2.19354839,5.48387097 C2.19354839,3.66980645 3.66980645,2.19354839 5.48387097,2.19354839 C7.29793548,2.19354839 8.77419355,3.66980645 8.77419355,5.48387097 C8.77419355,7.29793548 7.29793548,8.77419355 5.48387097,8.77419355 C3.66980645,8.77419355 2.19354839,7.29793548 2.19354839,5.48387097 Z M63.9386452,55.9354839 L42.2751613,41.854 L41.0796774,43.6943871 L59.9123871,55.9354839 L14.6682581,55.9354839 L33.5009677,43.6943871 L32.3054839,41.854 L10.642,55.9354839 L8.77419355,55.9354839 L8.77419355,53.2407097 L11.5654839,51.4266452 L10.37,49.5862581 L8.77419355,50.6238065 L8.77419355,17.3761935 L29.0151613,30.5330968 L30.2106452,28.6927097 L8.77419355,14.7592903 L8.77419355,12.0645161 L10.642,12.0645161 L32.3054839,26.146 L33.5009677,24.3056129 L14.6682581,12.0645161 L59.9123871,12.0645161 L41.0796774,24.3056129 L42.2751613,26.146 L63.9386452,12.0645161 L65.8064516,12.0645161 L65.8064516,14.7592903 L44.37,28.6927097 L45.5654839,30.5330968 L65.8064516,17.3761935 L65.8064516,50.6238065 L45.5654839,37.4669032 L44.37,39.3072903 L65.8064516,53.2407097 L65.8064516,55.9354839 L63.9386452,55.9354839 Z" id="Shape"></path>
                                <polygon id="Rectangle" transform="translate(20.145905, 44.532495) rotate(146.994868) translate(-20.145905, -44.532495) " points="8.85770886 43.4268091 31.4341005 43.44469 31.4341005 45.6381814 8.85770886 45.6203005"></polygon>
                            </g>
                            <polygon id="Path" fill="#F16051" fill-rule="nonzero" points="42.7741935 55.9354839 31.8064516 55.9354839 31.8064516 39.483871 8.77419355 39.483871 8.77419355 28.516129 31.8064516 28.516129 31.8064516 12.0645161 42.7741935 12.0645161 42.7741935 28.516129 65.8064516 28.516129 65.8064516 39.483871 42.7741935 39.483871"></polygon>
                        </g>
                    </g>
                </g>
            </g>
        </g>
    </g>
</svg>