<svg viewBox="0 0 249 70" fill="none" xmlns="http://www.w3.org/2000/svg">
    <mask id="mask0_37448_2417" style="mask-type:luminance" maskUnits="userSpaceOnUse" x="1" y="5">
        <path d="M248.75 5.30301H1.24995V65.303H248.75V5.30301Z" fill="white"/>
    </mask>
    <path d="M39.5661 37.6332C39.5663 38.63 39.321 39.6115 38.8522 40.4906C38.3834 41.3698 37.7054 42.1196 36.8783 42.6736C36.0512 43.2275 35.1006 43.5686 34.1106 43.6665C33.1205 43.7644 32.1217 43.6162 31.2025 43.235C30.2833 42.8537 29.4721 42.2512 28.8407 41.4808C28.2094 40.7104 27.7774 39.7959 27.583 38.8183C27.3886 37.8407 27.4379 36.8302 27.7263 35.8762C28.0148 34.9221 28.5336 34.0541 29.2368 33.349H29.2409C29.8019 32.7856 30.4682 32.3385 31.2019 32.0335C31.9355 31.7285 32.722 31.5715 33.5163 31.5715C34.3106 31.5715 35.097 31.7285 35.8307 32.0335C36.5643 32.3385 37.2307 32.7856 37.7916 33.349H37.7969C38.3591 33.911 38.8049 34.5787 39.1087 35.3139C39.4124 36.0491 39.5681 36.8372 39.5668 37.6329"
          fill="#070708"/>
    <path d="M65.7817 37.633C65.7832 39.6668 65.5941 41.6962 65.2169 43.6945C65.2084 43.7406 65.1988 43.785 65.1905 43.8295C64.9246 45.1979 64.5714 46.5479 64.1331 47.8711C62.5792 52.5274 59.9861 56.7673 56.551 60.2684C56.48 60.3449 56.4078 60.4216 56.3313 60.4927C56.255 60.5694 56.1837 60.6417 56.1074 60.7129L56.0989 60.7171C54.9257 61.7702 53.3889 62.3234 51.815 62.259C50.2412 62.1946 48.7545 61.5177 47.6709 60.3722C46.5873 59.2268 45.9922 57.703 46.0122 56.1248C46.0323 54.5466 46.6657 53.0385 47.778 51.921C50.0414 49.6544 51.734 46.8807 52.7161 43.829C52.7335 43.7849 52.7484 43.7399 52.7607 43.6941C53.7068 40.6684 53.929 37.4621 53.4093 34.3344C52.8896 31.2068 51.6426 28.2456 49.7692 25.6903C47.8958 23.135 45.4485 21.0573 42.6253 19.6253C39.802 18.1933 36.682 17.4471 33.5177 17.4471C30.3533 17.4471 27.2333 18.1933 24.4101 19.6253C21.5868 21.0573 19.1395 23.135 17.2661 25.6903C15.3927 28.2456 14.1457 31.2068 13.626 34.3344C13.1063 37.4621 13.3285 40.6684 14.2746 43.6941C14.2884 43.7401 14.3022 43.7846 14.3206 43.829C15.3027 46.8807 16.9953 49.6544 19.2586 51.921C20.3884 53.0351 21.0366 54.549 21.0639 56.1371C21.0912 57.7251 20.4954 59.2605 19.4047 60.4129C18.314 61.5654 16.8154 62.243 15.2313 62.2998C13.6472 62.3567 12.1041 61.7884 10.9339 60.7171L10.9254 60.7129C10.8491 60.6417 10.7767 60.5694 10.7015 60.4927C10.6252 60.4216 10.5528 60.3449 10.4817 60.2684C6.04777 55.7616 3.04179 50.0424 1.84139 43.8293C1.83288 43.7846 1.82323 43.7399 1.81495 43.6943C1.43715 41.6961 1.24798 39.6667 1.24996 37.633C1.24736 33.3866 2.08017 29.1813 3.70076 25.2577C5.32135 21.334 7.69794 17.7689 10.6946 14.7662C13.6913 11.7635 17.2493 9.38221 21.1651 7.75838C25.081 6.13455 29.2779 5.30008 33.5158 5.30268C37.7537 5.30023 41.9505 6.1348 45.8663 7.75869C49.7821 9.38257 53.34 11.7639 56.3367 14.7666C59.3333 17.7692 61.7099 21.3342 63.3306 25.2578C64.9512 29.1814 65.7841 33.3867 65.7817 37.633Z"
          fill="#070708"/>
    <path d="M39.5661 53.9343V59.2413C39.5661 59.2913 39.5661 59.3401 39.562 59.3901C39.5208 60.9692 38.8658 62.4697 37.7366 63.5719C36.6073 64.6742 35.0932 65.291 33.5167 65.291C31.9403 65.291 30.4261 64.6742 29.2969 63.5719C28.1677 62.4697 27.5127 60.9692 27.4715 59.3901C27.4673 59.3401 27.4673 59.2913 27.4673 59.2413V53.9343C27.4665 52.3919 28.053 50.9073 29.1071 49.7832C30.1612 48.6591 31.6036 47.9804 33.14 47.8853H33.8926C35.4291 47.9801 36.8717 48.6588 37.9261 49.7829C38.9804 50.907 39.5669 52.3918 39.5661 53.9343Z"
          fill="#070708"/>
    <path d="M93.3812 16.2932C97.298 16.2932 99.783 18.4736 99.783 22.0239C99.783 25.4499 97.4223 27.6918 93.4437 27.6918C89.5895 27.6918 87.0399 25.5114 87.0399 22.0239C87.0399 18.5364 89.4653 16.2932 93.3812 16.2932ZM87.4136 36.4749C87.4136 32.2396 89.7122 30.7442 92.7592 30.7442H94.0023C97.2355 30.7442 99.349 32.0524 99.349 36.4749V56.4695C99.349 60.7674 97.1729 62.262 94.1266 62.262H92.8836C89.6513 62.262 87.4129 60.892 87.4129 56.4695L87.4136 36.4749Z"
          fill="#070708"/>
    <path d="M139.387 42.5765V56.4672C139.387 60.7651 137.211 62.2596 134.103 62.2596H132.862C129.69 62.2596 127.453 60.8897 127.453 56.4672V44.6325C127.453 41.8906 126.023 40.1473 123.536 40.1473C121.485 40.1473 119.807 41.1428 118.937 42.5765V56.4672C118.937 60.8268 116.699 62.2596 113.653 62.2596H112.41C109.177 62.2596 107.001 60.8897 107.001 56.4672V32.1118C107.001 31.6758 109.115 30.7419 111.601 30.7419C114.71 30.7419 117.444 32.299 118.377 36.161C120.553 32.8596 123.661 30.4302 128.51 30.4302C136.467 30.4302 139.388 36.2227 139.388 42.5765"
          fill="#070708"/>
    <path d="M179.055 42.5765V56.4672C179.055 60.7651 176.879 62.2596 173.771 62.2596H172.529C169.357 62.2596 167.12 60.8897 167.12 56.4672V44.6325C167.12 41.8906 165.69 40.1473 163.203 40.1473C161.153 40.1473 159.474 41.1428 158.604 42.5765V56.4672C158.604 60.8268 156.366 62.2596 153.32 62.2596H152.077C148.845 62.2596 146.669 60.8897 146.669 56.4672V32.1118C146.669 31.6758 148.782 30.7419 151.268 30.7419C154.377 30.7419 157.111 32.299 158.044 36.161C160.22 32.8596 163.328 30.4302 168.177 30.4302C176.134 30.4302 179.055 36.2227 179.055 42.5765"
          fill="#070708"/>
    <path d="M201.375 30.4309C210.762 30.4309 217.289 36.9093 217.289 45.8161V46.3765C217.226 48.1824 216.729 49.2407 214.864 49.2407H195.221C195.267 49.5411 195.35 49.8344 195.469 50.1139C196.34 53.0419 199.012 54.7232 202.556 54.7232C206.224 54.7232 208.773 53.1651 209.892 50.9847C209.954 50.8612 215.548 51.0473 215.548 55.5943C215.548 57.6503 214.305 59.4562 212.068 60.7644C209.768 62.0726 206.473 62.8205 202.122 62.8205C191.615 62.8205 185.026 56.841 185.026 46.8749C185.026 37.4056 191.865 30.4302 201.376 30.4302M201.189 38.0913C198.019 38.0913 195.657 40.459 195.346 43.6974H206.659C206.473 40.1471 204.484 38.0913 201.188 38.0913"
          fill="#070708"/>
    <path d="M248.75 36.8495C248.75 41.7069 244.895 43.2641 244.771 43.1397C243.601 42.1111 242.101 41.5367 240.544 41.5208C237.001 41.5208 235.323 44.0746 235.323 49.1192V56.4698C235.323 60.8306 233.084 62.2632 230.038 62.2632H228.795C225.563 62.2632 223.387 60.8921 223.387 56.4698V32.1153C223.387 31.6793 225.501 30.7454 227.925 30.7454C230.225 30.7454 232.712 31.5538 234.079 34.4201C234.39 34.919 234.576 35.6028 234.763 36.3506C235.757 32.8632 238.43 30.4338 242.223 30.4338C246.201 30.4338 248.751 32.9258 248.751 36.8495"
          fill="#070708"/>
        </svg>
