<svg fill="none" height="100%" viewBox="0 0 60 60" width="100%" xmlns="http://www.w3.org/2000/svg"><path d="m2 46v10c0 1.105.895 2 2 2h52c1.105 0 2-.895 2-2v-52c0-1.105-.895-2-2-2h-52c-1.105 0-2 .895-2 2z" stroke="currentColor" stroke-miterlimit="10" stroke-width="2"/><g fill="currentColor"><path d="m22.4447 21.7064s-1.4969.0069-2.5736 1.4261c-.9574 1.2619-.7136 2.3412-.7136 2.3412s1.2981.2247 2.4402-1.1477c1.0696-1.2853.847-2.6196.847-2.6196z"/><path d="m23.6517 30.3908c0-2.1987 1.7723-3.1047 1.7723-3.1047s-.9062-1.639-3.2095-1.639c-1.3381 0-2.3661.7614-2.9201.7614-.6452 0-1.6085-.7158-2.8496-.7158-1.9092 0-3.9447 1.7095-3.9447 4.9684-.0001 3.3121 2.4047 7.4327 4.3083 7.4327.6645 0 1.6846-.6693 2.7126-.6693 1.0088 0 1.7532.6452 2.7107.6452 2.0845 0 3.6278-4.3438 3.6278-4.3438s-2.2078-.8548-2.2078-3.3351z"/><path d="m35.25 34.9656c-.175.0732-.9844.4157-1.5969.4157-.6453 0-1.0937-.3227-1.0937-1.1157v-5.6h2.4062v-2.2531h-2.4062v-3.7187h-2.9313v3.7187h-1.5093v2.2531h1.5093v6.5844c0 1.75 1.0281 2.8219 2.975 2.8219.6269 0 1.2251-.0875 1.7938-.2625.5688-.175 1.05-.35 1.4437-.525z"/><path d="m45.0935 26.4125-2.9312 9.0781-2.9094-9.0781h-3.0188l4.2219 11.4625h3.1719l4.2219-11.4625z"/></g></svg>
