<svg width="100%" height="100%" viewBox="0 0 60 60" fill="none" xmlns="http://www.w3.org/2000/svg">
<path d="M34.5817 25.4179L42.1431 17.8564" stroke="currentColor" stroke-width="2" stroke-miterlimit="10"/>
<path d="M49.286 10.714H53.9861C54.8875 10.714 55.3389 11.804 54.7018 12.4411L49.7046 17.4383C49.436 17.7069 49.0732 17.8569 48.6946 17.8569H42.1431V11.3054C42.1431 10.9268 42.2931 10.5625 42.5617 10.2954L47.5589 5.2982C48.196 4.66106 49.286 5.11249 49.286 6.01392V10.714Z" stroke="currentColor" stroke-width="2" stroke-miterlimit="10"/>
<path d="M38.2188 35.2137C36.5717 38.4766 33.1902 40.7138 29.2859 40.7138C23.763 40.7138 19.2858 36.2366 19.2858 30.7137C19.2858 26.8094 21.523 23.4279 24.7859 21.7808" stroke="currentColor" stroke-width="2" stroke-miterlimit="10"/>
<path d="M44.3788 22.5766C45.686 24.998 46.4289 27.7695 46.4289 30.7138C46.4289 40.181 38.7531 47.8568 29.2859 47.8568C19.8187 47.8568 12.1429 40.181 12.1429 30.7138C12.1429 21.2466 19.8187 13.5708 29.2859 13.5708C32.2302 13.5708 35.0016 14.3137 37.4231 15.6208" stroke="currentColor" stroke-width="2" stroke-miterlimit="10"/>
<path d="M51.5975 21.1078C52.8675 24.0536 53.5718 27.3022 53.5718 30.7136C53.5718 44.1266 42.6989 54.9995 29.2859 54.9995C15.8729 54.9995 5 44.1266 5 30.7136C5 17.3007 15.8729 6.42773 29.2859 6.42773C32.6973 6.42773 35.9459 7.13203 38.8917 8.40203" stroke="currentColor" stroke-width="2" stroke-miterlimit="10"/>
<path d="M37.4359 28.2721C37.6959 28.5307 37.8574 28.8893 37.8574 29.285C37.8574 29.9221 37.4402 30.4579 36.8645 30.645C34.7102 31.3479 28.263 33.5065 28.263 33.5065C28.1359 33.5479 27.9987 33.5707 27.8573 33.5707C27.1244 33.5707 26.4287 32.875 26.4287 32.1422C26.4287 32.0007 26.4516 31.8636 26.4916 31.7364C26.4916 31.7364 28.6487 25.2878 29.353 23.1335C29.5416 22.5592 30.0787 22.1421 30.7145 22.1421C31.1073 22.1421 31.463 22.3007 31.7216 22.5578L37.4359 28.2721Z" stroke="currentColor" stroke-width="2" stroke-miterlimit="10"/>
</svg>
