<svg width="100%" height="100%" viewBox="0 0 60 60" fill="none" xmlns="http://www.w3.org/2000/svg">
<path d="M33 32C37.9706 32 42 27.9706 42 23C42 18.0294 37.9706 14 33 14C28.0294 14 24 18.0294 24 23C24 27.9706 28.0294 32 33 32Z" stroke="currentColor" stroke-width="2" stroke-miterlimit="10"/>
<path d="M33 16V19" stroke="currentColor" stroke-width="2" stroke-miterlimit="10"/>
<path d="M33 27V30" stroke="currentColor" stroke-width="2" stroke-miterlimit="10"/>
<path d="M30 25C30 26.104 30.896 27 32 27H34C35.104 27 36 26.104 36 25C36 23.896 35.104 23 34 23H32C30.896 23 30 22.104 30 21C30 19.896 30.896 19 32 19H34C35.104 19 36 19.896 36 21" stroke="currentColor" stroke-width="2" stroke-miterlimit="10"/>
<path d="M25.656 28.2032L21.183 26.9172C19.892 26.5462 19.003 25.3652 19.002 24.0222L19 20.8462C18.999 19.6742 19.511 18.5602 20.401 17.7982L25.399 13.5142L29.215 14.8322" stroke="currentColor" stroke-width="2" stroke-miterlimit="10"/>
<path d="M1.40599 34.594L4.06499 31.935C4.66399 31.336 5.47599 31 6.32199 31C6.52099 31 6.71899 31.019 6.91599 31.056L27.437 34.948C27.619 34.981 27.809 35 28 35C29.656 35 31 33.657 31 32C31 31.925 30.997 31.851 30.992 31.776" stroke="currentColor" stroke-width="2" stroke-miterlimit="10"/>
<path d="M46.225 5.57995C46.708 5.22095 47.234 4.91395 47.791 4.66895" stroke="currentColor" stroke-width="2" stroke-miterlimit="10"/>
<path d="M50.121 4.048C50.41 4.017 50.703 4 51 4C55.418 4 59 7.582 59 12C59 16.418 55.418 20 51 20C46.582 20 43 16.418 43 12C43 10.283 43.541 8.692 44.461 7.39" stroke="currentColor" stroke-width="2" stroke-miterlimit="10"/>
<path d="M49.42 40.2261C49.779 40.7081 50.086 41.2341 50.33 41.7921" stroke="currentColor" stroke-width="2" stroke-miterlimit="10"/>
<path d="M50.952 44.121C50.984 44.409 51 44.703 51 45C51 49.418 47.418 53 43 53C38.582 53 35 49.418 35 45C35 40.582 38.582 37 43 37C44.717 37 46.307 37.541 47.61 38.461" stroke="currentColor" stroke-width="2" stroke-miterlimit="10"/>
<path d="M17.775 54.4199C17.291 54.7789 16.766 55.0859 16.209 55.3309" stroke="currentColor" stroke-width="2" stroke-miterlimit="10"/>
<path d="M13.879 55.952C13.59 55.983 13.297 56 13 56C8.582 56 5 52.418 5 48C5 43.582 8.582 40 13 40C17.418 40 21 43.582 21 48C21 49.717 20.459 51.308 19.539 52.61" stroke="currentColor" stroke-width="2" stroke-miterlimit="10"/>
<path d="M44.885 37.2239L49.115 19.7759" stroke="currentColor" stroke-width="2" stroke-miterlimit="10"/>
<path d="M20.961 47.2039L35.043 45.7959" stroke="currentColor" stroke-width="2" stroke-miterlimit="10"/>
<path d="M1.28999 17.416L22.937 6.367C23.407 6.133 23.938 6 24.5 6C25.18 6 25.856 6.129 26.488 6.381L37.338 10.698C38.363 11.105 39 12.205 39 13.383C39 14.24 38.641 15.013 38.064 15.56" stroke="currentColor" stroke-width="2" stroke-miterlimit="10"/>
</svg>
