<svg width="100%" height="100%" viewBox="0 0 60 60" fill="none" xmlns="http://www.w3.org/2000/svg">
<path d="M41.4522 16.7261V43.2688C41.4522 45.1429 39.9327 46.6624 38.0586 46.6624H19.3936C17.5195 46.6624 16 45.1429 16 43.2688L16 16.7261C16 14.852 17.5195 13.3325 19.3936 13.3325H38.0586C39.9327 13.3325 41.4522 14.852 41.4522 16.7261Z" stroke="currentColor" stroke-width="2" stroke-miterlimit="10"/>
<rect x="41.4522" y="21.8166" width="1.69681" height="5.93885" fill="currentColor"/>
<path d="M18.1346 46.6624C18.7641 47.5159 19.6125 48.797 19.6125 50.0612C19.6125 53.3411 19.7262 56 23.0061 56H34.0354C37.3145 56 37.4291 53.3411 37.4291 50.0612C37.4291 48.797 38.2774 47.5159 38.907 46.6624" stroke="currentColor" stroke-width="2" stroke-miterlimit="10"/>
<path d="M38.907 13.3376C38.2775 12.4841 37.4291 11.203 37.4291 9.93885C37.4291 6.65891 37.3154 4 34.0354 4H23.0061C19.727 4 19.6125 6.65891 19.6125 9.93885C19.6125 11.203 18.7642 12.4841 18.1346 13.3376" stroke="currentColor" stroke-width="2" stroke-miterlimit="10"/>
</svg>
