<svg width="100%" height="100%" viewBox="0 0 80 80" fill="none" xmlns="http://www.w3.org/2000/svg">
<path d="M40 17.333C36.3173 17.333 33.3333 14.349 33.3333 10.6663V7.99967C33.3333 4.31701 36.3173 1.33301 40 1.33301C43.6827 1.33301 46.6667 4.31701 46.6667 7.99967V10.6663C46.6667 14.349 43.6827 17.333 40 17.333Z" stroke="white" stroke-width="2" stroke-miterlimit="10"/>
<path d="M48 53.333V73.333L49.4707 73.8223C50.98 74.3263 52 75.741 52 77.333C52 78.0703 51.404 78.6663 50.6667 78.6663H44C42.528 78.6663 41.3333 77.4717 41.3333 75.9997V55.933" stroke="white" stroke-width="2" stroke-miterlimit="10"/>
<path d="M32 53.333L27 73.5837L25.2533 74.0197C23.7347 74.3997 22.6667 75.765 22.6667 77.333C22.6667 78.0703 23.2627 78.6663 24 78.6663H30.5213C31.7453 78.6663 32.812 77.833 33.108 76.6463L36.1893 64.325" stroke="white" stroke-width="2" stroke-miterlimit="10"/>
<path d="M36 38.666V47.9993" stroke="white" stroke-width="2" stroke-miterlimit="10"/>
<path d="M31.3333 43.333H40.6667" stroke="white" stroke-width="2" stroke-miterlimit="10"/>
<path d="M41.9827 48.3335V46.6395H44.6147V38.0875H44.4887L42.5007 40.6915L41.1567 39.6415L43.4947 36.5615H46.7147V46.6395H48.7867V48.3335H41.9827Z" fill="white"/>
<path d="M4.27067 28.9785L11.7507 30.9785" stroke="white" stroke-width="2" stroke-miterlimit="10"/>
<path d="M8.43734 10.1875L15.528 13.8048" stroke="white" stroke-width="2" stroke-miterlimit="10"/>
<path d="M4.27067 51.0215L11.7507 49.0215" stroke="white" stroke-width="2" stroke-miterlimit="10"/>
<path d="M8.43734 69.8117L15.528 66.1943" stroke="white" stroke-width="2" stroke-miterlimit="10"/>
<path d="M75.7293 51.0215L68.2507 49.0215" stroke="white" stroke-width="2" stroke-miterlimit="10"/>
<path d="M71.5627 69.8117L64.472 66.1943" stroke="white" stroke-width="2" stroke-miterlimit="10"/>
<path d="M75.7293 28.9785L68.2507 30.9785" stroke="white" stroke-width="2" stroke-miterlimit="10"/>
<path d="M71.5627 10.1875L64.472 13.8048" stroke="white" stroke-width="2" stroke-miterlimit="10"/>
<path d="M53.068 45.3232C51.836 51.4139 46.4533 55.9992 40 55.9992C33.5467 55.9992 28.164 51.4139 26.932 45.3232" stroke="white" stroke-width="2" stroke-miterlimit="10"/>
<path d="M40 29.3327C45.0427 29.3327 49.4307 32.1327 51.696 36.262L50.7027 42.2247C50.6787 42.37 50.6667 42.514 50.6667 42.666C50.6667 44.138 51.8613 45.3327 53.3333 45.3327C54.656 45.3327 55.7547 44.3687 55.964 43.1047L57.2973 35.1047C57.32 34.9633 57.3333 34.8153 57.3333 34.666C57.3333 34.0887 57.1493 33.554 56.8387 33.118L50.968 24.8993C49.9667 23.498 48.3507 22.666 46.628 22.666H33.3733C31.6507 22.666 30.0347 23.498 29.032 24.8993L23.1627 33.118C22.8507 33.554 22.6667 34.0887 22.6667 34.666C22.6667 34.8153 22.68 34.9633 22.7027 35.1047L24.036 43.1047C24.2453 44.3687 25.344 45.3327 26.6667 45.3327C28.1387 45.3327 29.3333 44.138 29.3333 42.666C29.3333 42.514 29.3213 42.37 29.2973 42.2247L28.3027 36.262C30.5693 32.1327 34.9573 29.3327 40 29.3327V29.3327Z" stroke="white" stroke-width="2" stroke-miterlimit="10"/>
</svg>
