<svg width="100%" height="100%" viewBox="0 0 80 80" fill="none" xmlns="http://www.w3.org/2000/svg">
<path d="M54.667 42.667C56.8761 42.667 58.667 40.8761 58.667 38.667C58.667 36.4579 56.8761 34.667 54.667 34.667C52.4579 34.667 50.667 36.4579 50.667 38.667C50.667 40.8761 52.4579 42.667 54.667 42.667Z" stroke="white" stroke-width="2" stroke-miterlimit="10"/>
<path d="M58.2828 58.58L66.8122 75.272C66.9708 75.5813 67.2468 75.8213 67.5802 75.932L75.5722 78.596C75.7068 78.6413 75.8508 78.6667 76.0002 78.6667C76.6242 78.6667 77.1495 78.2373 77.2935 77.6573L78.6268 72.324C78.6535 72.22 78.6668 72.112 78.6668 72C78.6668 71.724 78.5828 71.4667 78.4388 71.2547L75.7722 67.2547C75.5322 66.9 75.1268 66.6667 74.6668 66.6667H71.0908L73.2348 61.6613C73.2908 61.528 73.3335 61.3867 73.3335 61.2453C73.3335 61.0667 73.2775 60.8933 73.1922 60.7347L68.8202 52.6587C70.8055 50.072 72.0002 46.8453 72.0002 43.3333C72.0002 34.8653 65.1348 28 56.6668 28C48.1988 28 41.3335 34.8653 41.3335 43.3333C41.3335 51.8013 48.1988 58.6667 56.6668 58.6667C57.2122 58.6667 57.7508 58.636 58.2828 58.58V58.58Z" stroke="white" stroke-width="2" stroke-miterlimit="10"/>
<path d="M41.2242 56.2137L4.86683 51.9737C2.8775 51.743 1.3335 50.0523 1.3335 48.0003V6.66699C1.3335 4.45766 3.12416 2.66699 5.3335 2.66699C5.49083 2.66699 5.64683 2.67633 5.79883 2.69366L63.1322 9.36033C65.1228 9.59099 66.6668 11.2817 66.6668 13.3337V26.667" stroke="white" stroke-width="2" stroke-miterlimit="10"/>
<path d="M51.7961 73.5454L10.8081 68.748" stroke="white" stroke-width="2" stroke-miterlimit="10"/>
<path d="M37.1722 45.3268L1.3335 41.0215" stroke="white" stroke-width="2" stroke-miterlimit="10"/>
<path d="M23.5239 54.1494L17.9053 69.5787" stroke="white" stroke-width="2" stroke-miterlimit="10"/>
<path d="M41.1079 60.3438L44.7972 72.7264" stroke="white" stroke-width="2" stroke-miterlimit="10"/>
</svg>
