<svg width="100%" height="100%" viewBox="0 0 80 80" fill="none" xmlns="http://www.w3.org/2000/svg">
<path d="M51.8505 41.274C52.3412 41.3114 52.8332 41.3314 53.3332 41.3314H59.9998C70.3092 41.3314 78.6665 32.974 78.6665 22.6647C78.6665 12.3554 70.3092 3.99805 59.9998 3.99805H53.3332C43.0238 3.99805 34.6665 12.3554 34.6665 22.6647C34.6665 27.7487 36.7025 32.3607 39.9998 35.7287V46.226L51.8505 41.274Z" stroke="white" stroke-width="2" stroke-miterlimit="10"/>
<path d="M51.8462 34.0316L60.6867 10.6641" stroke="white" stroke-width="2" stroke-miterlimit="10"/>
<path d="M48.2507 15.3623L41.2666 22.3464L48.2507 29.3306" stroke="white" stroke-width="2" stroke-miterlimit="10"/>
<path d="M64.2827 29.3306L71.2668 22.3464L64.2827 15.3623" stroke="white" stroke-width="2" stroke-miterlimit="10"/>
<path d="M51.7547 46.9054L55.9374 65.9801C56.2521 67.4187 55.3414 68.8414 53.9041 69.1561L22.9787 75.9374C21.5401 76.2521 20.1174 75.3427 19.8027 73.9041L8.06272 20.3601C7.74806 18.9214 8.65739 17.4987 10.0961 17.1841L31.7214 12.4414" stroke="white" stroke-width="2" stroke-miterlimit="10"/>
<path d="M54.0106 57.1934L17.876 65.1174" stroke="white" stroke-width="2" stroke-miterlimit="10"/>
</svg>
