<svg width="100%" height="100%" viewBox="0 0 80 80" fill="none" xmlns="http://www.w3.org/2000/svg">
<path d="M46.667 3.99805V15.998H58.667" stroke="white" stroke-width="2" stroke-miterlimit="10"/>
<path d="M18.667 55.998H26.0003" stroke="white" stroke-width="2" stroke-miterlimit="10"/>
<path d="M17.3335 21.332H38.0002" stroke="white" stroke-width="2" stroke-miterlimit="10"/>
<path d="M17.3335 34.6641H29.3335" stroke="white" stroke-width="2" stroke-miterlimit="10"/>
<path d="M17.3335 27.998H53.3335" stroke="white" stroke-width="2" stroke-miterlimit="10"/>
<path d="M58.6733 26.6709L67.6853 38.6882C69.62 41.2696 70.6667 44.4082 70.6667 47.6336C70.6667 48.7616 70.5387 49.8869 70.2853 50.9856L67.008 65.1856C66.7813 66.1682 66.6667 67.1736 66.6667 68.1829V71.9976" stroke="white" stroke-width="2" stroke-miterlimit="10"/>
<path d="M70.667 79.998V74.6647C70.667 73.1914 69.4737 71.998 68.0003 71.998H49.3337C47.8603 71.998 46.667 73.1914 46.667 74.6647V79.998" stroke="white" stroke-width="2" stroke-miterlimit="10"/>
<path d="M47.3467 62.6647H12V3.99805H46.6667L58.676 15.998L58.6667 39.998" stroke="white" stroke-width="2" stroke-miterlimit="10"/>
<path d="M58.6665 38.6654V53.332C55.4878 53.332 54.0212 51.8734 53.3678 49.7467L50.4785 40.1867C49.9852 38.54 48.4745 37.332 46.6665 37.332C44.4572 37.332 42.6665 39.1227 42.6665 41.332C42.6665 41.7334 42.7438 42.112 42.8532 42.4774L46.1932 53.1507C46.4918 54.108 46.6665 54.996 46.6665 55.9987C46.6665 61.0334 47.2932 64.6227 49.9505 67.3307C50.4212 67.8107 50.6665 68.4707 50.6665 69.144V71.9987" stroke="white" stroke-width="2" stroke-miterlimit="10"/>
</svg>
