<svg width="100%" height="100%" viewBox="0 0 80 80" fill="none" xmlns="http://www.w3.org/2000/svg">
<path d="M46.6668 10.666H17.3335" stroke="white" stroke-width="2" stroke-miterlimit="10"/>
<path d="M13.3333 10.666H8C5.79067 10.666 4 12.4567 4 14.666V25.3327H58.6667V14.666C58.6667 12.4567 56.876 10.666 54.6667 10.666H50.6667" stroke="white" stroke-width="2" stroke-miterlimit="10"/>
<path d="M13.3335 5.33301V15.9997" stroke="white" stroke-width="2" stroke-miterlimit="10"/>
<path d="M46.6665 5.33301V15.9997" stroke="white" stroke-width="2" stroke-miterlimit="10"/>
<path d="M58.6667 59.9997V62.6663C58.6667 64.8757 56.876 66.6663 54.6667 66.6663H8C5.79067 66.6663 4 64.8757 4 62.6663V25.333" stroke="white" stroke-width="2" stroke-miterlimit="10"/>
<path d="M61.3347 56H17.4014" stroke="white" stroke-width="2" stroke-miterlimit="10"/>
<path d="M4 25.333C4 25.333 10.384 45.3343 12.3067 52.0637C12.964 54.3677 15.0053 55.9997 17.4013 55.9997C20.3093 55.9997 22.6667 53.6423 22.6667 50.7343V49.333H77.3333V50.7343C77.3333 53.6423 74.976 55.9997 72.068 55.9997H60" stroke="white" stroke-width="2" stroke-miterlimit="10"/>
<path d="M58.6665 25.333L66.0492 49.3117" stroke="white" stroke-width="2" stroke-miterlimit="10"/>
</svg>
