<svg width="1440" height="482" xmlns="http://www.w3.org/2000/svg" xmlns:xlink="http://www.w3.org/1999/xlink"><defs><linearGradient x1="50%" y1="13.365%" x2="50%" y2="100%" id="a"><stop stop-color="#47A7F0" offset="0%"/><stop stop-color="#00ACFF" stop-opacity="0" offset="100%"/></linearGradient><rect id="b" x="154" y="320" width="16" height="16" rx="8"/><rect id="c" x="308" y="298" width="16" height="16" rx="8"/><rect id="d" x="462" y="238" width="16" height="16" rx="8"/><rect id="e" x="616" y="218" width="16" height="16" rx="8"/><rect id="f" x="768" y="176" width="16" height="16" rx="8"/><rect id="g" x="922" y="198" width="16" height="16" rx="8"/><rect id="h" x="1076" y="176" width="16" height="16" rx="8"/><rect id="i" x="1230" y="118" width="16" height="16" rx="8"/><rect id="j" x="1384" y="90" width="16" height="16" rx="8"/></defs><g fill="none" fill-rule="evenodd"><path stroke="#4DA7EF" stroke-width="4" d="M-74 346.274l154.1-38.589 154.1-20.816L388.298 226l154.1-19.605L696.497 164l154.1 22.056 154.1-21.056 154.099-59 154.1-27 154.1-92.004"/><path fill="url(#a)" opacity=".1" d="M6 368l154-40 154-20 154-62 154-20 154-42 154 22 154-20 154-60 154-26 154-92v494H6z" transform="translate(-80 -20)"/><g transform="translate(-80 -20)"><use fill="#FFF" xlink:href="#b"/><rect stroke="#4DA7EF" stroke-width="4" x="156" y="322" width="12" height="12" rx="6"/></g><g transform="translate(-80 -20)"><use fill="#FFF" xlink:href="#c"/><rect stroke="#4DA7EF" stroke-width="4" x="310" y="300" width="12" height="12" rx="6"/></g><g transform="translate(-80 -20)"><use fill="#FFF" xlink:href="#d"/><rect stroke="#4DA7EF" stroke-width="4" x="464" y="240" width="12" height="12" rx="6"/></g><g transform="translate(-80 -20)"><use fill="#FFF" xlink:href="#e"/><rect stroke="#4DA7EF" stroke-width="4" x="618" y="220" width="12" height="12" rx="6"/></g><g transform="translate(-80 -20)"><use fill="#FFF" xlink:href="#f"/><rect stroke="#4DA7EF" stroke-width="4" x="770" y="178" width="12" height="12" rx="6"/></g><g transform="translate(-80 -20)"><use fill="#FFF" xlink:href="#g"/><rect stroke="#4DA7EF" stroke-width="4" x="924" y="200" width="12" height="12" rx="6"/></g><g transform="translate(-80 -20)"><use fill="#FFF" xlink:href="#h"/><rect stroke="#4DA7EF" stroke-width="4" x="1078" y="178" width="12" height="12" rx="6"/></g><g transform="translate(-80 -20)"><use fill="#FFF" xlink:href="#i"/><rect stroke="#4DA7EF" stroke-width="4" x="1232" y="120" width="12" height="12" rx="6"/></g><g transform="translate(-80 -20)"><use fill="#FFF" xlink:href="#j"/><rect stroke="#4DA7EF" stroke-width="4" x="1386" y="92" width="12" height="12" rx="6"/></g></g></svg>