<svg viewBox="0 0 258 56" fill="none" xmlns="http://www.w3.org/2000/svg">
<path fill-rule="evenodd" clip-rule="evenodd" d="M109.761 14H101.921V17.2533C99.3523 15.5512 96.272 14.5598 92.9602 14.5598C83.9911 14.5598 76.7202 21.8307 76.7202 30.7998C76.7202 39.7689 83.9911 47.0398 92.9602 47.0398C96.272 47.0398 99.3523 46.0485 101.921 44.3464V46.592H109.761V14ZM84.5602 30.7998C84.5602 26.1606 88.321 22.3998 92.9602 22.3998C97.5994 22.3998 101.36 26.1606 101.36 30.7998C101.36 35.439 97.5994 39.1998 92.9602 39.1998C88.321 39.1998 84.5602 35.439 84.5602 30.7998Z" fill="black"/>
<path fill-rule="evenodd" clip-rule="evenodd" d="M147.281 2.23976H139.441V17.2536C136.872 15.5515 133.792 14.5601 130.48 14.5601C121.511 14.5601 114.24 21.831 114.24 30.8001C114.24 39.7692 121.511 47.0401 130.48 47.0401C133.792 47.0401 136.872 46.0488 139.441 44.3467V46.5918H147.281V2.23976ZM122.08 30.8001C122.08 26.1609 125.841 22.4001 130.48 22.4001C135.119 22.4001 138.88 26.1609 138.88 30.8001C138.88 35.4393 135.119 39.2001 130.48 39.2001C125.841 39.2001 122.08 35.4393 122.08 30.8001Z" fill="black"/>
<path fill-rule="evenodd" clip-rule="evenodd" d="M168.001 22.3996C163.362 22.3996 159.601 26.1604 159.601 30.7996C159.601 35.4388 163.362 39.1996 168.001 39.1996C172.64 39.1996 176.401 35.4388 176.401 30.7996C176.401 26.1604 172.64 22.3996 168.001 22.3996ZM151.761 30.7996C151.761 21.8305 159.032 14.5596 168.001 14.5596C176.97 14.5596 184.241 21.8305 184.241 30.7996C184.241 39.7687 176.97 47.0396 168.001 47.0396C159.032 47.0396 151.761 39.7687 151.761 30.7996Z" fill="black"/>
<path fill-rule="evenodd" clip-rule="evenodd" d="M197.932 23.7715C197.247 24.4571 196.56 25.8039 196.56 28.5596V46.4796H188.72V28.5596C188.72 24.5954 189.714 20.9022 192.388 18.2278C195.063 15.5534 198.756 14.5596 202.72 14.5596H206.08V22.3996H202.72C199.964 22.3996 198.618 23.0859 197.932 23.7715Z" fill="black"/>
<path fill-rule="evenodd" clip-rule="evenodd" d="M240.243 22.3996C235.604 22.3996 231.843 26.1604 231.843 30.7996C231.843 35.4388 235.604 39.1996 240.243 39.1996C243.502 39.1996 246.334 37.3449 247.729 34.6154L254.71 38.1839C252.027 43.4325 246.56 47.0396 240.243 47.0396C231.274 47.0396 224.003 39.7687 224.003 30.7996C224.003 21.8305 231.274 14.5596 240.243 14.5596C246.56 14.5596 252.027 18.1667 254.71 23.4154L247.729 26.9839C246.334 24.2544 243.502 22.3996 240.243 22.3996Z" fill="black"/>
<path fill-rule="evenodd" clip-rule="evenodd" d="M215.041 8.96C217.515 8.96 219.521 6.95424 219.521 4.48C219.521 2.00576 217.515 0 215.041 0C212.566 0 210.561 2.00576 210.561 4.48C210.561 6.95424 212.566 8.96 215.041 8.96ZM218.961 14.5596H211.121V46.5566H218.961V14.5596Z" fill="black"/>
<path fill-rule="evenodd" clip-rule="evenodd" d="M56.5328 43.7628C52.1758 38.3812 48.4339 32.8376 44.7685 26.3199C41.1394 19.8643 38.3183 13.7283 35.8831 6.97766C34.7804 4.09876 32.1267 2.23945 29.1201 2.23945C26.1171 2.23945 23.4635 4.09876 22.3424 7.01202C19.9254 13.7283 17.1047 19.8621 13.4717 26.3199C9.80996 32.8309 6.07172 38.3768 1.71091 43.7595C0.58983 45.1374 0 46.7848 0 48.5299C0 52.6491 3.26507 55.9995 7.28017 55.9995C7.76425 55.9995 8.23384 55.9473 8.64529 55.8652C15.4519 54.6671 21.763 53.5555 29.1195 53.5555C36.4759 53.5555 42.7918 54.6671 49.5514 55.8541C50.0064 55.9473 50.4758 55.9995 50.9601 55.9995C54.975 55.9995 58.24 52.6491 58.24 48.5299C58.24 46.7804 57.6502 45.1341 56.5328 43.7628Z" fill="black"/>
</svg>
