<svg viewBox="0 0 100 100" fill="none" xmlns="http://www.w3.org/2000/svg">
<g clip-path="url(#clip0_91_4095)">
<path d="M50 100C77.6142 100 100 77.6142 100 50C100 22.3858 77.6142 0 50 0C22.3858 0 0 22.3858 0 50C0 77.6142 22.3858 100 50 100Z" fill="#656384"/>
<path d="M73.25 52.8106V50.8731C73.7847 50.8731 74.2188 50.4394 74.2188 49.9043V44.0918C74.2188 43.5567 73.7847 43.1231 73.25 43.1231H68.0188L67.8311 42.3954C67.4027 40.7311 66.7374 39.1368 65.8546 37.6621L65.4671 37.0139L69.1813 33.2933C69.5551 32.9186 69.5551 32.3116 69.1813 31.937L65.0671 27.8168C64.6872 27.4547 64.0904 27.4547 63.7105 27.8168L59.9895 31.5378L59.3416 31.1503C57.8647 30.2671 56.2689 29.6018 54.6023 29.173L53.875 28.9838V23.748C53.875 23.213 53.4413 22.7793 52.9063 22.7793H47.0938C46.5587 22.7793 46.125 23.213 46.125 23.748V28.9793L45.3973 29.1674C43.733 29.5954 42.1387 30.2606 40.6633 31.1423L40.0151 31.5302L36.2952 27.8168C35.9149 27.4516 35.3144 27.4516 34.934 27.8168L30.8188 31.931C30.6379 32.1115 30.5361 32.3567 30.5361 32.6121C30.5361 32.8679 30.6379 33.1128 30.8188 33.2933L34.5397 37.0139L34.1522 37.6621C33.2698 39.1368 32.6041 40.7311 32.1761 42.3954L31.9862 43.1231H26.75C26.2149 43.1231 25.7813 43.5567 25.7813 44.0918V49.9043C25.7813 50.4394 26.2149 50.8731 26.75 50.8731V52.8106C25.1451 52.8106 23.8438 51.5092 23.8438 49.9043V44.0918C23.8438 42.4869 25.1451 41.1856 26.75 41.1856H30.4982C30.8978 39.846 31.4382 38.5525 32.1103 37.3272L29.4462 34.6631C28.9013 34.1194 28.5952 33.3814 28.5952 32.6121C28.5952 31.8428 28.9013 31.1049 29.4462 30.5615L33.5634 26.4443C34.7104 25.3465 36.5189 25.3465 37.6658 26.4443L40.3292 29.1072C41.5545 28.4355 42.8483 27.8963 44.1875 27.497V23.748C44.1875 22.1432 45.4889 20.8418 47.0938 20.8418H52.9063C54.5111 20.8418 55.8125 22.1432 55.8125 23.748V27.497C57.1521 27.8963 58.4452 28.4366 59.6709 29.1083L62.3349 26.4443C63.4823 25.3465 65.2904 25.3465 66.4377 26.4443L70.5542 30.5603C71.0987 31.1041 71.4045 31.8413 71.4045 32.611C71.4045 33.3807 71.0987 34.1186 70.5542 34.662L67.8901 37.3261C68.5618 38.5521 69.1018 39.846 69.5018 41.1856H73.25C74.8549 41.1856 76.1563 42.4869 76.1563 44.0918V49.9043C76.1563 51.5092 74.8549 52.8106 73.25 52.8106Z" fill="#F3F5F8"/>
<path d="M63.5625 46.9961H61.625C61.625 40.5759 56.4202 35.3711 50 35.3711C43.5798 35.3711 38.375 40.5759 38.375 46.9961H36.4375C36.4375 39.5057 42.5096 33.4336 50 33.4336C57.49 33.4336 63.5625 39.5057 63.5625 46.9961Z" fill="#F3F5F8"/>
<path d="M50 54.7461C46.7899 54.7461 44.1875 52.1433 44.1875 48.9336C44.1875 45.7235 46.7899 43.1211 50 43.1211C53.2105 43.1211 55.8125 45.7235 55.8125 48.9336C55.8091 52.1426 53.209 54.7427 50 54.7461ZM50 45.0586C47.86 45.0586 46.125 46.7936 46.125 48.9336C46.125 51.0735 47.86 52.8086 50 52.8086C52.14 52.8086 53.875 51.0735 53.875 48.9336C53.875 46.7936 52.14 45.0586 50 45.0586Z" fill="#F3F5F8"/>
<path d="M66.4688 58.6211C63.2586 58.6211 60.6562 56.0183 60.6562 52.8086C60.6562 49.5985 63.2586 46.9961 66.4688 46.9961C69.6789 46.9961 72.2813 49.5985 72.2813 52.8086C72.2778 56.0176 69.6777 58.6177 66.4688 58.6211ZM66.4688 48.9336C64.3288 48.9336 62.5938 50.6686 62.5938 52.8086C62.5938 54.9485 64.3288 56.6836 66.4688 56.6836C68.6087 56.6836 70.3438 54.9485 70.3438 52.8086C70.3438 50.6686 68.6087 48.9336 66.4688 48.9336Z" fill="#F3F5F8"/>
<path d="M33.5313 58.6211C30.3211 58.6211 27.7188 56.0183 27.7188 52.8086C27.7188 49.5985 30.3211 46.9961 33.5313 46.9961C36.7417 46.9961 39.3438 49.5985 39.3438 52.8086C39.3403 56.0176 36.7402 58.6177 33.5313 58.6211ZM33.5313 48.9336C31.3913 48.9336 29.6563 50.6686 29.6563 52.8086C29.6563 54.9485 31.3913 56.6836 33.5313 56.6836C35.6712 56.6836 37.4063 54.9485 37.4063 52.8086C37.4063 50.6686 35.6712 48.9336 33.5313 48.9336Z" fill="#F3F5F8"/>
<path d="M75.2511 61.1086C73.8074 60.1163 72.0958 59.5869 70.3438 59.5919H62.5938C62.1226 59.596 61.6523 59.6388 61.1879 59.7194C60.5681 58.7499 59.7617 57.9136 58.8156 57.2578C58.6737 57.1507 58.5246 57.0534 58.3691 56.9675C57.014 56.1467 55.4591 55.7146 53.875 55.7169H46.125C43.1624 55.7063 40.4018 57.218 38.8147 59.7194C38.3493 59.6388 37.8781 59.596 37.4063 59.5919H29.6563C27.9057 59.5869 26.1945 60.1156 24.7516 61.1067C22.3668 62.7293 20.939 65.4263 20.9375 68.3106V72.1856C20.9409 74.8307 22.4799 77.2329 24.8825 78.341C25.7695 78.7587 26.7386 78.9725 27.7188 78.9669H37.4063V77.0294H28.6875V66.3731H26.75V76.9321C26.3852 76.8591 26.031 76.741 25.695 76.5817C23.9788 75.7904 22.8788 74.075 22.875 72.1856V68.3106C22.8773 66.0658 23.9894 63.9675 25.8452 62.7051C26.9665 61.9354 28.2958 61.5256 29.6563 61.5294H37.4063C37.5769 61.5294 37.7415 61.5475 37.908 61.5589C37.5803 62.483 37.4104 63.4555 37.4063 64.4356V74.1231C37.4097 76.797 39.5765 78.9634 42.25 78.9669H45.1563V63.4669H43.2188V77.0294H42.25C40.6451 77.0294 39.3438 75.728 39.3438 74.1231V64.4356C39.3438 60.69 42.3802 57.6544 46.125 57.6544H53.875C55.1215 57.6551 56.343 58.0002 57.406 58.6511C57.5044 58.7048 57.599 58.7654 57.6887 58.832C58.5965 59.4537 59.3416 60.2844 59.8608 61.2539C60.3827 62.2332 60.6563 63.3257 60.6563 64.4356V74.1231C60.6563 75.728 59.3549 77.0294 57.75 77.0294H56.7813V63.4669H54.8438V78.9669H57.75C60.4239 78.9634 62.5904 76.797 62.5938 74.1231V64.4356C62.5892 63.4555 62.4201 62.4833 62.0927 61.5589C62.2596 61.5475 62.4242 61.5294 62.5938 61.5294H70.3438C71.7049 61.5256 73.0354 61.9365 74.1575 62.707C76.0117 63.9701 77.1224 66.067 77.125 68.3106V72.1856C77.1216 74.0819 76.0132 75.8021 74.2888 76.5893C73.9577 76.7459 73.6087 76.861 73.25 76.9321V66.3731H71.3125V77.0294H62.5938V78.9669H72.2813C73.2557 78.9729 74.2191 78.7618 75.1012 78.3485C77.5118 77.2439 79.0587 74.8372 79.0625 72.1856V68.3106C79.061 65.4274 77.6344 62.7316 75.2511 61.1086Z" fill="#F3F5F8"/>
<path d="M46.125 77.0293H53.875V78.9668H46.125V77.0293Z" fill="#F3F5F8"/>
</g>
<defs>
<clipPath id="clip0_91_4095">
<rect width="100" height="100" fill="white"/>
</clipPath>
</defs>
</svg>
