<svg viewBox="0 0 100 100" fill="none" xmlns="http://www.w3.org/2000/svg">
<g clip-path="url(#clip0_91_4129)">
<path d="M50 100C77.6142 100 100 77.6142 100 50C100 22.3858 77.6142 0 50 0C22.3858 0 0 22.3858 0 50C0 77.6142 22.3858 100 50 100Z" fill="#656384"/>
<g clip-path="url(#clip1_91_4129)">
<path d="M35.0856 48.2796C34.1019 48.2589 33.3358 49.1229 33.3358 50.0624V54.8716C33.3358 57.0892 33.911 58.9678 35.0881 60.462C36.263 61.9533 38.0018 63.0165 40.2497 63.6712L40.25 63.6713C42.1671 64.228 43.4218 66.0618 43.2535 68.0499L43.2523 68.064L43.2519 68.078L42.9965 77.1473L42.982 77.6614H43.4963H56.7849H57.2993L57.2847 77.1473L57.0284 68.0657L57.028 68.0517L57.0268 68.0377C56.8594 66.0576 58.1068 64.2255 60.0106 63.6632C62.1748 63.0266 63.917 62.0004 65.1174 60.5262C66.3217 59.0473 66.9455 57.1604 66.9455 54.8716V50.0624C66.9455 49.1331 66.1898 48.2589 65.1957 48.2796C64.2679 48.299 63.5156 49.0644 63.5156 49.9938V50.0037V50.0136V50.0235V50.0334V50.0433V50.0532V50.0631V50.073V50.0829V50.0928V50.1027V50.1125V50.1224V50.1323V50.1421V50.152V50.1618V50.1717V50.1815V50.1913V50.2012V50.211V50.2208V50.2306V50.2404V50.2502V50.2601V50.2699V50.2796V50.2894V50.2992V50.309V50.3188V50.3286V50.3383V50.3481V50.3579V50.3676V50.3774V50.3871V50.3969V50.4066V50.4164V50.4261V50.4358V50.4455V50.4553V50.465V50.4747V50.4844V50.4941V50.5038V50.5135V50.5232V50.5329V50.5426V50.5523V50.562V50.5716V50.5813V50.591V50.6006V50.6103V50.62V50.6296V50.6393V50.6489V50.6586V50.6682V50.6778V50.6875V50.6971V50.7067V50.7164V50.726V50.7356V50.7452V50.7548V50.7644V50.774V50.7836V50.7932V50.8028V50.8124V50.822V50.8316V50.8412V50.8507V50.8603V50.8699V50.8794V50.889V50.8986V50.9081V50.9177V50.9272V50.9368V50.9463V50.9559V50.9654V50.975V50.9845V50.994V51.0036V51.0131V51.0226V51.0321V51.0416V51.0512V51.0607V51.0702V51.0797V51.0892V51.0987V51.1082V51.1177V51.1272V51.1367V51.1462V51.1557V51.1651V51.1746V51.1841V51.1936V51.2031V51.2125V51.222V51.2315V51.2409V51.2504V51.2598V51.2693V51.2788V51.2882V51.2977V51.3071V51.3166V51.326V51.3354V51.3449V51.3543V51.3638V51.3732V51.3826V51.3921V51.4015V51.4109V51.4203V51.4298V51.4392V51.4486V51.458V51.4674V51.4768V51.4862V51.4957V51.5051V51.5145V51.5239V51.5333V51.5427V51.5521V51.5615V51.5709V51.5802V51.5896V51.599V51.6084V51.6178V51.6272V51.6366V51.6459V51.6553V51.6647V51.6741V51.6835V51.6928V51.7022V51.7116V51.7209V51.7303V51.7397V51.749V51.7584V51.7678V51.7771V51.7865V51.7958V51.8052V51.8146V51.8239V51.8333V51.8426V51.852V51.8613V51.8707V51.88V51.8894V51.8987V51.9081V51.9174V51.9267V51.9361V51.9454V51.9548V51.9641V51.9734V51.9828V51.9921V52.0015V52.0108V52.0201V52.0295V52.0388V52.0481V52.0575V52.0668V52.0761V52.0855V52.0948V52.1041V52.1134V52.1228V52.1321V52.1414V52.1507V52.1601V52.1694V52.1787V52.188V52.1974V52.2067V52.216V52.2253V52.2347V52.244V52.2533V52.2626V52.2719V52.2813V52.2906V52.2999V52.3092V52.3185V52.3279V52.3372V52.3465V52.3558V52.3651V52.3745V52.3838V52.3931V52.4024V52.4117V52.421V52.4304V52.4397V52.449V52.4583V52.4676V52.477V52.4863V52.4956V52.5049V52.5142V52.5236V52.5329V52.5422V52.5515V52.5608V52.5702V52.5795V52.5888V52.5981V52.6075V52.6168V52.6261V52.6354V52.6448V52.6541V52.6634V52.6727V52.6821V52.6914V52.7007V52.71V52.7194V52.7287V52.738V52.7474V52.7567V52.766V52.7754V52.7847V52.794V52.8034V52.8127V52.8221V52.8314V52.8407V52.8501V52.8594V52.8688V52.8781V52.8874V52.8968V52.9061V52.9155V52.9248V52.9342V52.9435V52.9529V52.9622V52.9716V52.9809V52.9903V52.9997V53.009V53.0184V53.0277V53.0371V53.0465V53.0558V53.0652V53.0746V53.0839V53.0933V53.1027V53.1121V53.1214V53.1308V53.1402V53.1496V53.159V53.1683V53.1777V53.1871V53.1965V53.2059V53.2153V53.2247V53.2341V53.2435V53.2529V53.2623V53.2717V53.2811V53.2905V53.2999V53.3093V53.3187V53.3281V53.3375V53.3469V53.3564V53.3658V53.3752V53.3846V53.3941V53.4035V53.4129V53.4223V53.4318V53.4412V53.4506V53.4601V53.4695V53.479V53.4884V53.4979V53.5073V53.5168V53.5262V53.5357V53.5452V53.5546V53.5641V53.5736V53.583V53.5925V53.602V53.6115V53.6209V53.6304V53.6399V53.6494V53.6589V53.6684V53.6779V53.6874V53.6969V53.7064V53.7159V53.7254V53.7349V53.7444V53.7539V53.7634V53.773V53.7825V53.792V53.8016V53.8111V53.8206V53.8302V53.8397V53.8492V53.8588V53.8683V53.8779V53.8875V53.897V53.9066V53.9161V53.9257V53.9353V53.9449V53.9544V53.964V53.9736V53.9832V53.9928V54.0024V54.012V54.0216V54.0312V54.0408V54.0504V54.06V54.0696V54.0793V54.0889V54.0985V54.1081V54.1178V54.1274V54.1371V54.1467V54.1564V54.166V54.1757V54.1853V54.195V54.2047V54.2143V54.224V54.2337V54.2434V54.253V54.2627V54.2724V54.2821V54.2918V54.3015V54.3112V54.3209V54.3307V54.3404V54.3501V54.3598V54.3696V54.3793V54.389V54.3988V54.4085V54.4183V54.428V54.4378V54.4476V54.4573V54.4671V54.4769V54.4867V54.4964V54.5062V54.516V54.5258V54.5356V54.5454V54.5552V54.5651V54.5749V54.5847V54.5945V54.6044V54.6142V54.624V54.6339V54.6437V54.6536V54.6635V54.6733V54.6832V54.6931V54.7029V54.7128V54.7227V54.7326V54.7425V54.7524V54.7623V54.7722V54.7821V54.792V54.802V54.8119V54.8218V54.8318V54.8417V54.8517V54.8616V54.8716C63.5156 58.0157 60.9577 60.572 57.8147 60.572H53.795C53.2163 60.572 52.6997 60.2043 52.5102 59.6568C52.3213 59.1102 52.5003 58.5023 52.956 58.1447L52.9563 58.1445C54.265 57.1165 54.977 55.5681 54.9042 53.9051L54.9042 53.905C54.7928 51.3703 52.7349 49.2438 50.2062 49.0566L50.2059 49.0566C47.2126 48.8366 44.721 51.1877 44.721 54.1351C44.721 55.7084 45.4354 57.1714 46.6746 58.1446L46.6747 58.1446C47.1302 58.5023 47.3095 59.1094 47.1207 59.6568C46.9311 60.2044 46.4154 60.572 45.8359 60.572H42.4665C39.3218 60.572 36.7647 58.0126 36.7647 54.8716V49.9938C36.7647 49.0649 36.0139 48.2991 35.0856 48.2796ZM35.0856 48.2796L35.0751 48.7795M35.0856 48.2796C35.0856 48.2796 35.0856 48.2796 35.0855 48.2796L35.0751 48.7795M35.0751 48.7795C34.4024 48.7653 33.8358 49.3713 33.8358 50.0624V54.8716C33.8358 59.1288 36.0382 61.9239 40.3895 63.1911L35.0751 48.7795ZM70.4437 38.7695L70.4437 38.7696C71.3089 39.6188 70.7031 41.0975 69.4914 41.0971H69.4913H61.816H61.1984L61.327 41.7012L62.2144 45.8714L62.3606 46.5587L62.962 46.1952C65.9324 44.4002 69.663 46.6207 69.663 50.0619V54.8711C69.663 58.1546 68.6196 61.1096 66.1818 63.3345L65.9701 63.5277L66.0298 63.8079L67.9256 72.7215C68.7635 76.6606 65.7609 80.3788 61.7257 80.3788H38.5556C34.5284 80.3788 31.5161 76.6686 32.3556 72.7215L34.2468 63.8339L34.3068 63.5516L34.0924 63.3584C31.9673 61.4434 30.6183 58.6148 30.6183 54.8711V50.0619C30.6183 46.649 34.3163 44.3857 37.3198 46.1956L37.9208 46.5577L38.0669 45.8714L38.9543 41.7012L39.0828 41.0971H38.4652H30.79C29.5768 41.0971 28.9733 39.6184 29.838 38.7696L29.8381 38.7695L49.1883 19.7683C49.1884 19.7683 49.1884 19.7682 49.1885 19.7682C49.7177 19.2492 50.5636 19.2492 51.0928 19.7682C51.0928 19.7682 51.0929 19.7683 51.0929 19.7683L70.4437 38.7695ZM40.5434 67.8506L40.5434 67.8506L40.5441 67.8443C40.6147 67.1385 40.1744 66.4793 39.4929 66.2801L39.4919 66.2798C38.7151 66.0546 37.9842 65.7831 37.3015 65.4683L36.7332 65.2062L36.603 65.8183L35.0146 73.2863C35.0146 73.2864 35.0146 73.2864 35.0146 73.2864C34.5356 75.5373 36.2509 77.6614 38.5556 77.6614H39.7765H40.2625L40.2763 77.1755C40.3539 74.4322 40.4085 72.4974 40.447 71.1317C40.4778 70.0398 40.4983 69.3116 40.5122 68.8246C40.5401 67.8467 40.5414 67.8494 40.5428 67.8521C40.543 67.8525 40.5431 67.8529 40.5434 67.8506ZM60.0041 77.1755L60.0178 77.6614H60.5039H61.7257C64.0268 77.6614 65.7468 75.5409 65.2667 73.2864C65.2667 73.2864 65.2667 73.2863 65.2666 73.2863L63.6745 65.7994L63.5439 65.1855L62.9748 65.45C62.2912 65.7675 61.5587 66.0414 60.7804 66.2705L60.9155 66.7296L60.7803 66.2705C60.1002 66.4707 59.6673 67.1299 59.7361 67.8311L59.7369 67.8383C59.7372 67.8406 59.7374 67.8402 59.7375 67.8398C59.7389 67.837 59.7402 67.8343 59.7681 68.8135C59.782 69.3019 59.8026 70.0327 59.8335 71.1291C59.872 72.4963 59.9265 74.4322 60.0041 77.1755ZM60.7981 52.33V52.2774L60.7871 52.226L58.1912 40.0212C58.0121 39.1783 58.6556 38.3801 59.5209 38.3801H64.9451H66.1679L65.2954 37.5234L50.4912 22.9864L50.1409 22.6424L49.7906 22.9864L34.9859 37.5234L34.1133 38.3801H35.3362H40.7603C41.6252 38.3801 42.2691 39.1783 42.0901 40.0211C41.5256 42.6751 41.0811 44.7379 40.7317 46.3598C40.1571 49.0268 39.8394 50.5014 39.6671 51.4519C39.4484 52.6579 39.4562 53.0786 39.4719 53.9307C39.4767 54.1921 39.4822 54.494 39.4822 54.8716C39.4822 56.3835 40.6131 57.6355 42.0734 57.8293L42.9343 57.9435L42.6009 57.1417C42.2112 56.2047 42.0035 55.1867 42.0035 54.1351C42.0035 49.7266 45.7303 45.9997 50.4071 46.3463C54.3451 46.6388 57.4455 49.8362 57.6189 53.7857C57.67 54.9553 57.4558 56.1063 57.0119 57.1604L56.7197 57.8545H57.4727H57.8147C59.4602 57.8545 60.7981 56.5167 60.7981 54.8716V52.33Z" fill="#F3F5F8" stroke="#656384"/>
</g>
</g>
<defs>
<clipPath id="clip0_91_4129">
<rect width="100" height="100" fill="white"/>
</clipPath>
<clipPath id="clip1_91_4129">
<rect width="62" height="62" fill="white" transform="translate(19 19)"/>
</clipPath>
</defs>
</svg>
