<svg width="110" height="80" viewBox="0 0 110 80" fill="none" xmlns="http://www.w3.org/2000/svg">
<path d="M48.9021 56.6537C48.9021 43.2685 40.3091 35.1751 29.2609 35.1751C25.8851 35.1751 23.123 35.7977 20.6679 36.7315C20.6679 25.8366 29.8747 17.4319 43.0711 14.9416V0C18.5196 3.11286 1.33362 23.3463 1.33362 49.4942C1.33362 68.1712 11.768 80 26.192 80C39.6953 80 48.9021 70.3502 48.9021 56.6537ZM109.667 56.6537C109.667 43.2685 100.767 35.1751 89.7189 35.1751C86.343 35.1751 83.581 35.7977 81.1259 37.0428C81.1259 25.8366 90.6395 17.4319 103.836 14.9416V0C79.2845 3.11286 62.0985 23.3463 62.0985 49.4942C62.0985 68.1712 72.5329 80 86.9568 80C100.46 80 109.667 70.3502 109.667 56.6537Z" fill="#C5D2E4"/>
</svg>
