<svg viewBox="0 0 100 100" fill="none" xmlns="http://www.w3.org/2000/svg">
<g clip-path="url(#clip0_91_4122)">
<path d="M50 100C77.6142 100 100 77.6142 100 50C100 22.3858 77.6142 0 50 0C22.3858 0 0 22.3858 0 50C0 77.6142 22.3858 100 50 100Z" fill="#656384"/>
<path d="M56.3574 81H25.4785C23.9761 81 22.7539 79.7777 22.7539 78.2754V32.8289C22.7539 31.3266 23.9761 30.1043 25.4785 30.1043H30.6989C31.2004 30.1043 31.6071 30.5108 31.6071 31.0125C31.6071 31.5142 31.2004 31.9207 30.6989 31.9207H25.4785C24.9777 31.9207 24.5703 32.3281 24.5703 32.8289V78.2754C24.5703 78.7762 24.9777 79.1836 25.4785 79.1836H56.3574C56.8583 79.1836 57.2656 78.7762 57.2656 78.2754V57.1445H36.377C34.8745 57.1445 33.6523 55.9222 33.6523 54.4199V21.7246C33.6523 20.2223 34.8745 19 36.377 19H63.623C65.1255 19 66.3477 20.2223 66.3477 21.7246V30.8066C66.3477 31.3083 65.941 31.7148 65.4395 31.7148C64.9379 31.7148 64.5312 31.3083 64.5312 30.8066V21.7246C64.5312 21.2238 64.1239 20.8164 63.623 20.8164H36.377C35.8761 20.8164 35.4688 21.2238 35.4688 21.7246V54.4199C35.4688 54.9208 35.8761 55.3281 36.377 55.3281H63.623C64.1239 55.3281 64.5312 54.9208 64.5312 54.4199V34.4395C64.5312 33.9378 64.9379 33.5312 65.4395 33.5312H70.8887C71.3902 33.5312 71.7969 33.9378 71.7969 34.4395C71.7969 34.9411 71.3902 35.3477 70.8887 35.3477H66.3477V38.9805H70.8887C71.3902 38.9805 71.7969 39.387 71.7969 39.8887C71.7969 40.3904 71.3902 40.7969 70.8887 40.7969H66.3477V44.4297H70.8887C71.3902 44.4297 71.7969 44.8362 71.7969 45.3379C71.7969 45.8396 71.3902 46.2461 70.8887 46.2461H66.3477V49.8789H70.8887C71.3902 49.8789 71.7969 50.2854 71.7969 50.7871C71.7969 51.2888 71.3902 51.6953 70.8887 51.6953H66.3477V54.4199C66.3477 54.7382 66.2928 55.0439 66.1921 55.3281H70.8887C71.3902 55.3281 71.7969 55.7346 71.7969 56.2363C71.7969 56.738 71.3902 57.1445 70.8887 57.1445H59.082V60.7773H70.8887C71.3902 60.7773 71.7969 61.1839 71.7969 61.6855C71.7969 62.1872 71.3902 62.5938 70.8887 62.5938H59.082V68.2852H74.5215C75.0223 68.2852 75.4297 67.8778 75.4297 67.377V27.3797C75.4297 26.8788 75.0223 26.4715 74.5215 26.4715H69.0723C68.5707 26.4715 68.1641 26.065 68.1641 25.5633C68.1641 25.0616 68.5707 24.6551 69.0723 24.6551H74.5215C76.0239 24.6551 77.2461 25.8774 77.2461 27.3797V67.377C77.2461 68.8792 76.0239 70.1016 74.5215 70.1016H59.082V75.5508H69.0723C69.5731 75.5508 69.9805 75.1434 69.9805 74.6426V72.8262C69.9805 72.3245 70.3871 71.918 70.8887 71.918C71.3902 71.918 71.7969 72.3245 71.7969 72.8262V74.6426C71.7969 76.1449 70.5747 77.3672 69.0723 77.3672H59.082V78.2754C59.082 79.7777 57.8598 81 56.3574 81ZM61.8066 53.5117H38.1934C37.6918 53.5117 37.2852 53.1052 37.2852 52.6035V49.4485C37.2852 44.7817 40.3706 43.7139 42.6236 42.9342C44.483 42.2907 45.5388 41.8572 45.7249 40.4587C43.7206 39.0893 42.4025 36.7864 42.4025 34.181V30.4361C42.4025 26.2469 45.8108 22.8387 50 22.8387C54.1892 22.8387 57.5975 26.247 57.5975 30.4361V34.181C57.5975 36.7864 56.2796 39.0893 54.2751 40.4587C54.4612 41.8573 55.517 42.2907 57.3764 42.9342C59.6294 43.7139 62.7148 44.7817 62.7148 49.4485V52.6035C62.7148 53.1052 62.3082 53.5117 61.8066 53.5117V53.5117ZM39.1016 51.6953H60.8984V49.4485C60.8984 46.0752 58.991 45.415 56.7823 44.6507C55.1512 44.0863 53.1848 43.4055 52.6005 41.32C51.7888 41.6167 50.913 41.7785 50 41.7785C49.087 41.7785 48.2112 41.6167 47.3995 41.32C46.8152 43.4055 44.8488 44.0863 43.2177 44.6507C41.009 45.4151 39.1016 46.0752 39.1016 49.4485V51.6953ZM50 24.6551C46.8123 24.6551 44.2189 27.2484 44.2189 30.4361V34.181C44.2189 37.3687 46.8123 39.9621 50 39.9621C53.1877 39.9621 55.7811 37.3687 55.7811 34.181V30.4361C55.7811 27.2484 53.1877 24.6551 50 24.6551V24.6551Z" fill="#F3F5F8"/>
</g>
<defs>
<clipPath id="clip0_91_4122">
<rect width="100" height="100" fill="white"/>
</clipPath>
</defs>
</svg>
