<svg viewBox="0 0 100 100" fill="none" xmlns="http://www.w3.org/2000/svg">
<g clip-path="url(#clip0_91_4107)">
<path d="M50 100C77.6142 100 100 77.6142 100 50C100 22.3858 77.6142 0 50 0C22.3858 0 0 22.3858 0 50C0 77.6142 22.3858 100 50 100Z" fill="#656384"/>
<g clip-path="url(#clip1_91_4107)">
<path d="M49.0312 33.5312H65.5V35.4688H49.0312V33.5312Z" fill="#F3F5F8"/>
<path d="M49.0312 37.4062H57.75V39.3438H49.0312V37.4062Z" fill="#F3F5F8"/>
<path d="M49.0312 47.0938H65.5V49.0312H49.0312V47.0938Z" fill="#F3F5F8"/>
<path d="M49.0312 50.9688H57.75V52.9062H49.0312V50.9688Z" fill="#F3F5F8"/>
<path d="M49.0312 60.6562H65.5V62.5938H49.0312V60.6562Z" fill="#F3F5F8"/>
<path d="M49.0312 64.5312H57.75V66.4688H49.0312V64.5312Z" fill="#F3F5F8"/>
<path d="M49.9994 19.9688C45.1731 19.9688 40.4178 21.1322 36.1365 23.3602C31.8551 25.5883 28.1739 28.8153 25.4045 32.7681C22.6351 36.7209 20.8593 41.283 20.2273 46.0678C19.5954 50.8526 20.1259 55.7193 21.7741 60.2555C23.4223 64.7918 26.1395 68.8639 29.6956 72.1271C33.2517 75.3903 37.5419 77.7483 42.2028 79.0014C46.8636 80.2545 51.7579 80.3658 56.4709 79.3258C61.1839 78.2859 65.5768 76.1253 69.2776 73.0272L68.0376 71.5353C62.6662 76.0456 55.8055 78.3899 48.7973 78.1099C41.7891 77.8298 35.1373 74.9456 30.1429 70.0211C25.1486 65.0967 22.1708 58.4863 21.7919 51.4827C21.4131 44.4791 23.6604 37.5861 28.0945 32.1516C32.5285 26.7172 38.8303 23.1322 45.7675 22.0979C52.7046 21.0635 59.7781 22.6541 65.6047 26.5586C71.4312 30.4631 75.5917 36.4007 77.2725 43.2102C78.9532 50.0197 78.0334 57.2112 74.6929 63.3784L71.9126 61.625L72.2032 69.1522L79.1782 66.3041L76.3301 64.4634C78.8435 59.8897 80.1217 54.7399 80.0386 49.5217C79.9555 44.3036 78.514 39.1971 75.8561 34.7057C73.1983 30.2144 69.4159 26.4932 64.8817 23.909C60.3476 21.3247 55.2183 19.9667 49.9994 19.9688Z" fill="#F3F5F8"/>
<path d="M40.3125 30.625C39.1629 30.625 38.0391 30.9659 37.0833 31.6046C36.1274 32.2433 35.3824 33.1511 34.9425 34.2132C34.5025 35.2752 34.3874 36.4439 34.6117 37.5715C34.836 38.699 35.3896 39.7347 36.2024 40.5476C37.0153 41.3605 38.051 41.914 39.1785 42.1383C40.3061 42.3626 41.4748 42.2475 42.5368 41.8075C43.5989 41.3676 44.5067 40.6226 45.1454 39.6668C45.7841 38.7109 46.125 37.5871 46.125 36.4375C46.125 34.8959 45.5126 33.4175 44.4226 32.3274C43.3325 31.2374 41.8541 30.625 40.3125 30.625ZM39.6247 39.3437C39.4432 39.5242 39.1977 39.6255 38.9417 39.6255C38.6858 39.6255 38.4403 39.5242 38.2588 39.3437L36.205 37.2803L37.5709 35.9144L38.9466 37.2803L43.0541 33.1728L44.42 34.5484L39.6247 39.3437Z" fill="#F3F5F8"/>
<path d="M40.3125 44.1875C39.1629 44.1875 38.0391 44.5284 37.0833 45.1671C36.1274 45.8058 35.3824 46.7136 34.9425 47.7757C34.5025 48.8377 34.3874 50.0064 34.6117 51.134C34.836 52.2615 35.3896 53.2972 36.2024 54.1101C37.0153 54.923 38.051 55.4765 39.1785 55.7008C40.3061 55.9251 41.4748 55.81 42.5368 55.37C43.5989 54.9301 44.5067 54.1851 45.1454 53.2292C45.7841 52.2734 46.125 51.1496 46.125 50C46.125 48.4584 45.5126 46.98 44.4226 45.8899C43.3325 44.7999 41.8541 44.1875 40.3125 44.1875ZM39.6247 52.9062C39.4432 53.0867 39.1977 53.188 38.9417 53.188C38.6858 53.188 38.4403 53.0867 38.2588 52.9062L36.205 50.8428L37.5709 49.4769L38.9466 50.8428L43.0541 46.7353L44.42 48.1109L39.6247 52.9062Z" fill="#F3F5F8"/>
<path d="M40.3125 57.75C39.1629 57.75 38.0391 58.0909 37.0833 58.7296C36.1274 59.3683 35.3824 60.2761 34.9425 61.3382C34.5025 62.4002 34.3874 63.5689 34.6117 64.6965C34.836 65.824 35.3896 66.8597 36.2024 67.6726C37.0153 68.4855 38.051 69.039 39.1785 69.2633C40.3061 69.4876 41.4748 69.3725 42.5368 68.9325C43.5989 68.4926 44.5067 67.7476 45.1454 66.7917C45.7841 65.8359 46.125 64.7121 46.125 63.5625C46.125 62.0209 45.5126 60.5425 44.4226 59.4524C43.3325 58.3624 41.8541 57.75 40.3125 57.75ZM39.6247 66.4687C39.4432 66.6492 39.1977 66.7505 38.9417 66.7505C38.6858 66.7505 38.4403 66.6492 38.2588 66.4687L36.205 64.4053L37.5709 63.0394L38.9466 64.4053L43.0541 60.2978L44.42 61.6734L39.6247 66.4687Z" fill="#F3F5F8"/>
</g>
</g>
<defs>
<clipPath id="clip0_91_4107">
<rect width="100" height="100" fill="white"/>
</clipPath>
<clipPath id="clip1_91_4107">
<rect width="62" height="62" fill="white" transform="translate(19 19)"/>
</clipPath>
</defs>
</svg>
