<svg viewBox="0 0 100 100" fill="none" xmlns="http://www.w3.org/2000/svg">
<g clip-path="url(#clip0_91_4069)">
<path d="M50 100C77.6142 100 100 77.6142 100 50C100 22.3858 77.6142 0 50 0C22.3858 0 0 22.3858 0 50C0 77.6142 22.3858 100 50 100Z" fill="#656384"/>
<path fill-rule="evenodd" clip-rule="evenodd" d="M59.6475 73.173H40.3534C39.8828 73.173 39.5299 72.8201 39.5299 72.3495V67.4083C39.5299 66.8201 39.8828 66.4671 40.3534 66.4671C40.9416 66.4671 41.2946 66.8201 41.2946 67.4083V71.526H58.7063V67.4083C58.7063 66.8201 59.1769 66.4671 59.6475 66.4671C60.1181 66.4671 60.471 66.8201 60.471 67.4083V72.3495C60.471 72.8201 60.1181 73.173 59.6475 73.173ZM59.6475 62.8201C59.0593 62.8201 58.7063 62.4671 58.7063 61.9966V56.7024C58.7063 56.4671 58.824 56.1142 59.1769 55.9966C64.824 52.8201 68.3534 46.5848 68.3534 39.9966C68.3534 29.8789 60.2358 21.6436 50.0005 21.6436C39.8828 21.6436 31.6475 29.8789 31.6475 39.9966C31.6475 46.5848 35.1769 52.7024 40.824 55.9966C41.0593 56.1142 41.2946 56.4671 41.2946 56.7024V61.9966C41.2946 62.4671 40.9416 62.9377 40.3534 62.9377C39.8828 62.9377 39.5299 62.4671 39.5299 61.9966V57.2907C33.5299 53.6436 29.8828 47.0554 29.8828 39.9966C29.8828 28.9377 38.9416 19.8789 50.0005 19.8789C61.0593 19.8789 70.1181 28.9377 70.1181 39.9966C70.1181 47.0554 66.3534 53.6436 60.471 57.2907V61.9966C60.471 62.4671 60.1181 62.8201 59.6475 62.8201Z" fill="#F3F5F8"/>
<path fill-rule="evenodd" clip-rule="evenodd" d="M61.1757 68.2356H38.9404C37.764 68.2356 36.9404 67.2944 36.9404 66.2356V63.0591C36.9404 62.0003 37.764 61.0591 38.9404 61.0591H61.1757C62.2345 61.0591 63.1757 62.0003 63.1757 63.0591V66.2356C63.1757 67.2944 62.2345 68.2356 61.1757 68.2356ZM38.9404 62.8238C38.7051 62.8238 38.5875 62.9414 38.5875 63.1767V66.2356C38.5875 66.3532 38.7051 66.5885 38.9404 66.5885H61.1757C61.2934 66.5885 61.411 66.3532 61.411 66.2356V63.1767C61.411 63.0591 61.2934 62.8238 61.1757 62.8238H38.9404Z" fill="#F3F5F8"/>
<path fill-rule="evenodd" clip-rule="evenodd" d="M57.0581 76.7056H42.9404C42.4699 76.7056 41.9993 76.3527 41.9993 75.8821C41.9993 75.2939 42.4699 74.9409 42.9404 74.9409H57.0581C57.5287 74.9409 57.8816 75.2939 57.8816 75.8821C57.8816 76.3527 57.5287 76.7056 57.0581 76.7056Z" fill="#F3F5F8"/>
<path fill-rule="evenodd" clip-rule="evenodd" d="M57.0581 80.1172H42.9404C42.4699 80.1172 41.9993 79.6467 41.9993 79.1761C41.9993 78.7055 42.4699 78.3525 42.9404 78.3525H57.0581C57.5287 78.3525 57.8816 78.7055 57.8816 79.1761C57.8816 79.6467 57.5287 80.1172 57.0581 80.1172Z" fill="#F3F5F8"/>
<path fill-rule="evenodd" clip-rule="evenodd" d="M50.0005 62.8215C49.5299 62.8215 49.177 62.4686 49.177 61.998V50.5862C49.177 50.1156 49.5299 49.7627 50.0005 49.7627C50.4711 49.7627 50.8241 50.1156 50.8241 50.5862V61.998C50.8241 62.4686 50.4711 62.8215 50.0005 62.8215Z" fill="#F3F5F8"/>
<path fill-rule="evenodd" clip-rule="evenodd" d="M44.8255 62.8233C44.3549 62.8233 44.002 62.4703 44.002 61.9997V49.9997L41.2961 45.2939C41.2961 45.0586 41.1785 44.9409 41.1785 44.8233V37.7644C41.1785 37.2939 41.5314 36.9409 42.1196 36.9409C42.5902 36.9409 42.9432 37.2939 42.9432 37.7644V44.588L45.6491 49.2939C45.6491 49.4115 45.7667 49.6468 45.7667 49.7644V61.9997C45.6491 62.4703 45.2961 62.8233 44.8255 62.8233Z" fill="#F3F5F8"/>
<path fill-rule="evenodd" clip-rule="evenodd" d="M55.1763 62.8233C54.7057 62.8233 54.3528 62.4703 54.3528 61.9997V49.7644C54.3528 49.6468 54.3528 49.5292 54.3528 49.4115L57.0587 44.7056V37.8821C57.0587 37.4115 57.5293 36.9409 57.9998 36.9409C58.4704 36.9409 58.8234 37.4115 58.8234 37.8821V44.9409C58.8234 45.0586 58.8234 45.1762 58.7057 45.2939L56.1175 49.9997V61.9997C55.9998 62.4703 55.6469 62.8233 55.1763 62.8233Z" fill="#F3F5F8"/>
<path fill-rule="evenodd" clip-rule="evenodd" d="M50.0019 51.4101C48.2372 51.4101 46.9431 49.9984 46.9431 48.3513C46.9431 46.5866 48.2372 45.2925 50.0019 45.2925C51.7666 45.2925 53.1784 46.5866 53.1784 48.3513C53.1784 50.116 51.7666 51.4101 50.0019 51.4101ZM50.0019 47.0572C49.1784 47.0572 48.5902 47.6454 48.5902 48.3513C48.5902 49.1748 49.1784 49.7631 50.0019 49.7631C50.7078 49.7631 51.4137 49.1748 51.4137 48.3513C51.4137 47.6454 50.8255 47.0572 50.0019 47.0572Z" fill="#F3F5F8"/>
<path fill-rule="evenodd" clip-rule="evenodd" d="M42.1179 38.7045C40.3532 38.7045 38.9414 37.2928 38.9414 35.5281C38.9414 33.881 40.3532 32.4692 42.1179 32.4692C43.7649 32.4692 45.1767 33.881 45.1767 35.5281C45.1767 37.2928 43.7649 38.7045 42.1179 38.7045ZM42.1179 34.2339C41.2943 34.2339 40.7061 34.8222 40.7061 35.5281C40.7061 36.3516 41.2943 36.9398 42.1179 36.9398C42.8238 36.9398 43.5296 36.3516 43.5296 35.5281C43.5296 34.8222 42.8238 34.2339 42.1179 34.2339Z" fill="#F3F5F8"/>
<path fill-rule="evenodd" clip-rule="evenodd" d="M58.0002 38.7007C56.2355 38.7007 54.8237 37.4065 54.8237 35.6418C54.8237 33.9948 56.2355 32.583 58.0002 32.583C59.6473 32.583 61.059 33.9948 61.059 35.6418C61.059 37.4065 59.6473 38.7007 58.0002 38.7007ZM58.0002 34.2301C57.2943 34.2301 56.5884 34.8183 56.5884 35.6418C56.5884 36.3477 57.1767 37.0536 58.0002 37.0536C58.7061 37.0536 59.2943 36.4654 59.2943 35.6418C59.2943 34.8183 58.7061 34.2301 58.0002 34.2301Z" fill="#F3F5F8"/>
</g>
<defs>
<clipPath id="clip0_91_4069">
<rect width="100" height="100" fill="white"/>
</clipPath>
</defs>
</svg>
