<svg viewBox="0 0 100 100" fill="none" xmlns="http://www.w3.org/2000/svg">
<g clip-path="url(#clip0_91_4135)">
<path d="M50 100C77.6142 100 100 77.6142 100 50C100 22.3858 77.6142 0 50 0C22.3858 0 0 22.3858 0 50C0 77.6142 22.3858 100 50 100Z" fill="#656384"/>
<g clip-path="url(#clip1_91_4135)">
<path d="M20.9375 80.0286H32.5625C32.8194 80.0286 33.0658 79.9265 33.2475 79.7449C33.4292 79.5632 33.5312 79.3168 33.5312 79.0599V72.2786C33.5268 71.1164 33.1045 69.9945 32.3415 69.1177C31.5786 68.2409 30.5258 67.6677 29.3753 67.5027C30.1049 66.9523 30.6431 66.1865 30.9138 65.3136C31.1845 64.4407 31.174 63.5048 30.8837 62.6382C30.5935 61.7715 30.0383 61.018 29.2965 60.4842C28.5547 59.9503 27.6639 59.6631 26.75 59.6631C25.8361 59.6631 24.9453 59.9503 24.2035 60.4842C23.4617 61.018 22.9065 61.7715 22.6163 62.6382C22.326 63.5048 22.3155 64.4407 22.5862 65.3136C22.8569 66.1865 23.3951 66.9523 24.1247 67.5027C22.9742 67.6677 21.9214 68.2409 21.1585 69.1177C20.3955 69.9945 19.9732 71.1164 19.9688 72.2786V79.0599C19.9688 79.3168 20.0708 79.5632 20.2525 79.7449C20.4342 79.9265 20.6806 80.0286 20.9375 80.0286ZM26.75 61.6224C27.229 61.6224 27.6972 61.7644 28.0955 62.0305C28.4938 62.2966 28.8042 62.6749 28.9875 63.1174C29.1708 63.56 29.2188 64.0469 29.1253 64.5167C29.0319 64.9865 28.8012 65.4181 28.4625 65.7568C28.1238 66.0955 27.6923 66.3261 27.2225 66.4196C26.7527 66.513 26.2657 66.4651 25.8232 66.2818C25.3806 66.0985 25.0024 65.788 24.7363 65.3898C24.4702 64.9915 24.3281 64.5232 24.3281 64.0442C24.3281 63.4019 24.5833 62.7859 25.0375 62.3317C25.4917 61.8775 26.1077 61.6224 26.75 61.6224ZM21.9062 72.2786C21.9062 71.5078 22.2124 70.7686 22.7575 70.2236C23.3025 69.6786 24.0417 69.3724 24.8125 69.3724H28.6875C29.4583 69.3724 30.1975 69.6786 30.7425 70.2236C31.2876 70.7686 31.5938 71.5078 31.5938 72.2786V78.0911H21.9062V72.2786Z" fill="#F3F5F8"/>
<path d="M39.3438 49.0312H41.2812V50.9688H39.3438V49.0312Z" fill="#F3F5F8"/>
<path d="M58.7188 49.0312H60.6562V50.9688H58.7188V49.0312Z" fill="#F3F5F8"/>
<path d="M49.0312 39.3438H50.9688V41.2812H49.0312V39.3438Z" fill="#F3F5F8"/>
<path d="M41.7717 43.1489L43.1417 41.7789L44.5118 43.1489L43.1417 44.5189L41.7717 43.1489Z" fill="#F3F5F8"/>
<path d="M55.475 56.8511L56.845 55.4811L58.215 56.8511L56.845 58.2211L55.475 56.8511Z" fill="#F3F5F8"/>
<path d="M41.7701 56.8477L43.1402 55.4776L44.5102 56.8477L43.1402 58.2177L41.7701 56.8477Z" fill="#F3F5F8"/>
<path d="M55.4764 43.1523L56.8465 41.7823L58.2165 43.1523L56.8465 44.5224L55.4764 43.1523Z" fill="#F3F5F8"/>
<path d="M43.3831 48.4708C43.0565 49.8873 43.1937 51.3712 43.7746 52.7038C44.3554 54.0364 45.349 55.1471 46.609 55.872V58.2358C46.609 59.135 46.9662 59.9974 47.6021 60.6333C48.238 61.2692 49.1004 61.6264 49.9996 61.6264C50.8989 61.6264 51.7613 61.2692 52.3972 60.6333C53.033 59.9974 53.3903 59.135 53.3903 58.2358V55.872C54.3628 55.308 55.1798 54.5111 55.7679 53.5529C56.3559 52.5948 56.6965 51.5054 56.759 50.383C56.8216 49.2605 56.604 48.1401 56.126 47.1225C55.648 46.105 54.9245 45.2222 54.0206 44.5537C53.1168 43.8852 52.0609 43.452 50.948 43.2929C49.8351 43.1338 48.7 43.2539 47.6451 43.6423C46.5901 44.0308 45.6483 44.6755 44.9043 45.5183C44.1603 46.3611 43.6376 47.3757 43.3831 48.4708ZM51.4528 58.2358C51.4528 58.6212 51.2997 58.9908 51.0272 59.2633C50.7546 59.5358 50.385 59.6889 49.9996 59.6889C49.6142 59.6889 49.2446 59.5358 48.9721 59.2633C48.6996 58.9908 48.5465 58.6212 48.5465 58.2358V57.7514H51.4528V58.2358ZM49.9996 45.1577C51.1034 45.1587 52.1737 45.5367 53.0333 46.2291C53.8929 46.9215 54.4903 47.8866 54.7265 48.9648C54.9627 50.043 54.8236 51.1695 54.3322 52.1579C53.8408 53.1462 53.0265 53.9371 52.0243 54.3995C51.8562 54.4774 51.7139 54.6018 51.6143 54.758C51.5147 54.9143 51.462 55.0958 51.4625 55.2811V55.8139H48.5562V55.2811C48.5567 55.0958 48.504 54.9143 48.4044 54.758C48.3048 54.6018 48.1625 54.4774 47.9943 54.3995C47.0743 53.9755 46.3104 53.2737 45.8101 52.3929C45.3098 51.5121 45.0982 50.4966 45.2051 49.4892C45.3121 48.4819 45.7321 47.5334 46.4062 46.7772C47.0804 46.0211 47.9746 45.4953 48.9631 45.2739C49.3035 45.1984 49.651 45.1594 49.9996 45.1577Z" fill="#F3F5F8"/>
<path d="M75.8753 27.7839C76.6049 27.2335 77.1431 26.4678 77.4138 25.5949C77.6845 24.7219 77.674 23.786 77.3837 22.9194C77.0935 22.0528 76.5383 21.2993 75.7965 20.7654C75.0547 20.2316 74.1639 19.9443 73.25 19.9443C72.3361 19.9443 71.4453 20.2316 70.7035 20.7654C69.9617 21.2993 69.4065 22.0528 69.1163 22.9194C68.826 23.786 68.8155 24.7219 69.0862 25.5949C69.3569 26.4678 69.8951 27.2335 70.6247 27.7839C69.4742 27.949 68.4214 28.5222 67.6585 29.3989C66.8955 30.2757 66.4732 31.3976 66.4688 32.5599V39.3411C66.4688 39.598 66.5708 39.8444 66.7525 40.0261C66.9342 40.2078 67.1806 40.3099 67.4375 40.3099H79.0625C79.3194 40.3099 79.5658 40.2078 79.7475 40.0261C79.9292 39.8444 80.0312 39.598 80.0312 39.3411V32.5599C80.0268 31.3976 79.6045 30.2757 78.8415 29.3989C78.0786 28.5222 77.0258 27.949 75.8753 27.7839ZM73.25 21.9036C73.729 21.9036 74.1972 22.0457 74.5955 22.3118C74.9938 22.5779 75.3042 22.9561 75.4875 23.3987C75.6708 23.8412 75.7188 24.3282 75.6253 24.798C75.5319 25.2678 75.3012 25.6993 74.9625 26.038C74.6238 26.3767 74.1923 26.6074 73.7225 26.7008C73.2527 26.7943 72.7657 26.7463 72.3232 26.563C71.8807 26.3797 71.5024 26.0693 71.2363 25.671C70.9702 25.2727 70.8281 24.8045 70.8281 24.3255C70.8281 23.6832 71.0833 23.0672 71.5375 22.613C71.9917 22.1588 72.6077 21.9036 73.25 21.9036ZM78.0938 38.3724H68.4062V32.5599C68.4062 31.7891 68.7124 31.0499 69.2575 30.5048C69.8025 29.9598 70.5417 29.6536 71.3125 29.6536H75.1875C75.9583 29.6536 76.6975 29.9598 77.2425 30.5048C77.7876 31.0499 78.0938 31.7891 78.0938 32.5599V38.3724Z" fill="#F3F5F8"/>
<path d="M74.2188 60.1719C74.2162 62.6119 73.2458 64.9513 71.5204 66.6766C69.795 68.402 67.4557 69.3724 65.0156 69.375H37.4062V71.3125H65.0156C67.9703 71.3125 70.804 70.1388 72.8932 68.0495C74.9825 65.9602 76.1562 63.1266 76.1562 60.1719C76.1562 57.2172 74.9825 54.3835 72.8932 52.2943C70.804 50.205 67.9703 49.0313 65.0156 49.0312H64.5312V50.9688H65.0156C67.4557 50.9713 69.795 51.9417 71.5204 53.6671C73.2458 55.3925 74.2162 57.7318 74.2188 60.1719Z" fill="#F3F5F8"/>
<path d="M34.9844 50.9667H35.4688V49.0292H34.9844C32.5436 49.0292 30.2027 48.0596 28.4768 46.3337C26.7509 44.6078 25.7813 42.2669 25.7813 39.8261C25.7813 37.3853 26.7509 35.0444 28.4768 33.3185C30.2027 31.5926 32.5436 30.623 34.9844 30.623H58.5541L56.2291 32.2505L57.3334 33.8392L62.1772 30.4486C62.3051 30.3593 62.4095 30.2405 62.4817 30.1022C62.5538 29.9639 62.5915 29.8102 62.5915 29.6542C62.5915 29.4983 62.5538 29.3446 62.4817 29.2063C62.4095 29.068 62.3051 28.9491 62.1772 28.8599L57.3334 25.4692L56.2291 27.058L58.5541 28.6855H34.9844C32.0297 28.6855 29.196 29.8592 27.1068 31.9485C25.0175 34.0378 23.8438 36.8714 23.8438 39.8261C23.8438 42.7808 25.0175 45.6145 27.1068 47.7037C29.196 49.793 32.0297 50.9667 34.9844 50.9667Z" fill="#F3F5F8"/>
</g>
</g>
<defs>
<clipPath id="clip0_91_4135">
<rect width="100" height="100" fill="white"/>
</clipPath>
<clipPath id="clip1_91_4135">
<rect width="62" height="62" fill="white" transform="translate(19 19)"/>
</clipPath>
</defs>
</svg>
