<svg viewBox="0 0 134 134" fill="none" xmlns="http://www.w3.org/2000/svg">
<path d="M103.855 64.6518L115.279 53.0413C116.703 51.5938 117.491 49.669 117.491 47.6056C117.491 45.5576 116.703 43.6174 115.279 42.1699L82.8712 9.23242C75.5533 1.79492 63.6598 1.79492 56.3419 9.23242L38.8729 26.9869L25.2371 40.8456L18.8585 47.3284L18.0707 48.1291C16.6465 49.5766 15.8587 51.5014 15.8587 53.5648C15.8587 55.6282 16.6465 57.5531 18.0707 59.0005L29.4642 70.5802L18.0404 82.1907C15.1011 85.178 15.1011 90.0593 18.0404 93.0467L50.4331 125.969C54.0844 129.68 58.8873 131.543 63.6901 131.543C68.493 131.543 73.2958 129.68 76.9472 125.969L90.0982 112.603L115.203 87.0874C116.627 85.64 117.415 83.7152 117.415 81.6518C117.415 79.6037 116.627 77.6635 115.203 76.2161L103.855 64.6518ZM61.7508 14.7451C66.084 10.3411 73.1292 10.3411 77.4472 14.7451L109.794 47.621L84.7651 73.0594C82.4167 75.4461 78.6138 75.4461 76.2654 73.0594L44.5697 40.8456C43.0394 39.2904 41.2365 38.1971 39.3275 37.5349L55.5541 21.0431L61.7508 14.7451ZM55.8571 120.471L23.525 87.611L34.8731 76.0775L70.7959 112.587C72.2959 114.112 74.0837 115.236 76.023 115.914L71.5383 120.471C67.2203 124.86 60.1751 124.86 55.8571 120.471ZM94.5223 97.1273L84.7196 107.09C82.3713 109.477 78.5683 109.477 76.22 107.09L23.5553 53.5648L30.646 46.3429C32.9944 43.9561 36.7972 43.9561 39.1456 46.3429L70.8414 78.5566C73.5079 81.2668 77.0078 82.6219 80.5077 82.6219C84.0076 82.6219 87.5074 81.2668 90.1739 78.5566L98.4464 70.149L109.749 81.6363L94.5223 97.1273Z" fill="white"/>
</svg>
