<svg viewBox="0 0 200 96" fill="none" xmlns="http://www.w3.org/2000/svg">
<g clip-path="url(#clip0_58352_1852)">
<path fill-rule="evenodd" clip-rule="evenodd" d="M88.4696 39.5H83.7218V41.4752C82.1666 40.4418 80.3012 39.84 78.2957 39.84C72.8641 39.84 68.4609 44.2545 68.4609 49.7C68.4609 55.1456 72.8641 59.56 78.2957 59.56C80.3012 59.56 82.1666 58.9582 83.7218 57.9247V59.288H88.4696V39.5ZM73.2088 49.7C73.2088 46.8833 75.4862 44.6 78.2957 44.6C81.1052 44.6 83.3827 46.8833 83.3827 49.7C83.3827 52.5167 81.1052 54.8 78.2957 54.8C75.4862 54.8 73.2088 52.5167 73.2088 49.7Z" fill="black"/>
<path fill-rule="evenodd" clip-rule="evenodd" d="M111.192 32.3599H106.444V41.4751C104.889 40.4417 103.024 39.8399 101.018 39.8399C95.5867 39.8399 91.1836 44.2543 91.1836 49.6999C91.1836 55.1454 95.5867 59.5599 101.018 59.5599C103.024 59.5599 104.889 58.9581 106.444 57.9246V59.2879H111.192V32.3599ZM95.9314 49.6999C95.9314 46.8832 98.2089 44.5999 101.018 44.5999C103.828 44.5999 106.105 46.8832 106.105 49.6999C106.105 52.5166 103.828 54.7999 101.018 54.7999C98.2089 54.7999 95.9314 52.5166 95.9314 49.6999Z" fill="black"/>
<path fill-rule="evenodd" clip-rule="evenodd" d="M123.739 44.6008C120.93 44.6008 118.652 46.8841 118.652 49.7008C118.652 52.5175 120.93 54.8008 123.739 54.8008C126.549 54.8008 128.826 52.5175 128.826 49.7008C128.826 46.8841 126.549 44.6008 123.739 44.6008ZM113.904 49.7008C113.904 44.2553 118.307 39.8408 123.739 39.8408C129.171 39.8408 133.574 44.2553 133.574 49.7008C133.574 55.1464 129.171 59.5608 123.739 59.5608C118.307 59.5608 113.904 55.1464 113.904 49.7008Z" fill="black"/>
<path fill-rule="evenodd" clip-rule="evenodd" d="M141.866 45.4337C141.451 45.85 141.035 46.6677 141.035 48.3408V59.2208H136.287V48.3408C136.287 45.9339 136.889 43.6917 138.509 42.0679C140.128 40.4441 142.365 39.8408 144.765 39.8408H146.8V44.6008H144.765C143.097 44.6008 142.281 45.0175 141.866 45.4337Z" fill="black"/>
<path fill-rule="evenodd" clip-rule="evenodd" d="M167.489 44.6008C164.68 44.6008 162.402 46.8841 162.402 49.7008C162.402 52.5175 164.68 54.8008 167.489 54.8008C169.463 54.8008 171.177 53.6747 172.023 52.0176L176.249 54.1841C174.626 57.3708 171.314 59.5608 167.489 59.5608C162.058 59.5608 157.654 55.1464 157.654 49.7008C157.654 44.2553 162.058 39.8408 167.489 39.8408C171.314 39.8408 174.626 42.0309 176.249 45.2176L172.023 47.3841C171.177 45.7269 169.463 44.6008 167.489 44.6008Z" fill="black"/>
<path fill-rule="evenodd" clip-rule="evenodd" d="M152.227 36.44C153.725 36.44 154.94 35.2222 154.94 33.72C154.94 32.2178 153.725 31 152.227 31C150.728 31 149.514 32.2178 149.514 33.72C149.514 35.2222 150.728 36.44 152.227 36.44ZM154.601 59.2668V39.84H149.853V59.2668H154.601Z" fill="black"/>
<path fill-rule="evenodd" clip-rule="evenodd" d="M56.2356 57.5705C53.5972 54.3031 51.3311 50.9373 49.1113 46.9801C46.9136 43.0607 45.2052 39.3352 43.7305 35.2366C43.0626 33.4887 41.4556 32.3599 39.6348 32.3599C37.8162 32.3599 36.2093 33.4887 35.5303 35.2575C34.0666 39.3352 32.3584 43.0594 30.1584 46.9801C27.9408 50.9332 25.677 54.3003 23.0361 57.5684C22.3572 58.4051 22 59.4052 22 60.4648C22 62.9657 23.9773 64.9999 26.4088 64.9999C26.7019 64.9999 26.9863 64.9682 27.2355 64.9184C31.3575 64.1909 35.1795 63.516 39.6345 63.516C44.0895 63.516 47.9143 64.1909 52.0078 64.9116C52.2834 64.9682 52.5676 64.9999 52.8609 64.9999C55.2923 64.9999 57.2696 62.9657 57.2696 60.4648C57.2696 59.4026 56.9124 58.403 56.2356 57.5705Z" fill="black"/>
</g>
<defs>
<clipPath id="clip0_58352_1852">
<rect width="156" height="34" fill="white" transform="translate(22 31)"/>
</clipPath>
</defs>
</svg>
