<svg viewBox="0 0 200 96" fill="none" xmlns="http://www.w3.org/2000/svg">
<path d="M150.723 20.7061C157.262 20.7063 162.56 26.0048 162.561 32.5439V63.0967C162.586 69.6358 157.262 74.9343 150.723 74.9346H120.17C113.631 74.9344 108.332 69.6358 108.332 63.0967V32.5439C108.332 26.0048 113.631 20.7062 120.17 20.7061H150.723ZM144.776 42.5742C142.786 42.5742 141.132 43.2463 139.865 44.6162C138.599 45.9602 137.953 47.6141 137.953 49.6299C137.953 51.6719 138.599 53.3522 139.892 54.6963C141.184 56.0144 142.89 56.6865 144.983 56.6865C147.491 56.6865 149.377 55.73 150.644 53.7656L148.344 52.3701C147.594 53.4557 146.482 54.0244 145.009 54.0244C142.864 54.0243 141.287 52.9129 140.873 50.8711H151.161C151.239 50.3542 151.265 49.9406 151.265 49.6562C151.265 47.6918 150.644 46.0115 149.429 44.6416C148.214 43.2718 146.663 42.5742 144.776 42.5742ZM155.038 52.9863C154.004 52.9865 153.255 53.8143 153.255 54.8223C153.255 55.83 154.082 56.657 155.038 56.6572C156.02 56.6572 156.822 55.8301 156.822 54.8223C156.822 53.8142 156.02 52.9863 155.038 52.9863ZM118.076 37.5576V56.3223H121.049V42.9072L126.58 52.3682H126.942L132.447 42.9336V56.3223H135.42V37.5576H132.215L126.735 46.9395L121.281 37.5576H118.076ZM144.957 45.1846C146.792 45.1846 148.266 46.322 148.653 48.4932H141.055C141.442 46.4513 142.889 45.1847 144.957 45.1846Z" fill="black"/>
<path fill-rule="evenodd" clip-rule="evenodd" d="M45.7802 53.4306H40.9725V48.1835H45.7543C47.1242 48.1835 48.2098 49.3466 48.2098 50.82C48.2357 52.2933 47.1501 53.4306 45.7802 53.4306ZM40.9725 40.455H45.1857C46.5039 40.455 47.5119 41.5148 47.5119 42.9106C47.5119 44.3063 46.5039 45.3661 45.1857 45.3661H40.9725V40.455ZM48.6751 46.6068C49.8899 45.6763 50.5103 44.4097 50.5103 42.7813C50.5103 41.308 49.9933 40.0673 48.9594 39.0851C47.9514 38.1029 46.6848 37.5859 45.2115 37.5859H38V56.3514H45.7543C47.2793 56.3514 48.5459 55.8344 49.6056 54.8263C50.6654 53.8183 51.1823 52.5259 51.1823 51.0009C51.2082 49.0106 50.2518 47.4598 48.6751 46.6068Z" fill="black"/>
<path fill-rule="evenodd" clip-rule="evenodd" d="M56.1196 48.4928C56.5073 46.4509 57.9547 45.1843 60.0225 45.1843C61.8577 45.1843 63.3311 46.3216 63.7188 48.4928H56.1196ZM60.0484 42.5737C58.0581 42.5737 56.4039 43.2458 55.1373 44.6157C53.8708 45.9598 53.2246 47.614 53.2246 49.6301C53.2246 51.6721 53.8708 53.3522 55.1632 54.6963C56.4556 56.0145 58.1615 56.6866 60.2552 56.6866C62.7624 56.6866 64.6493 55.7302 65.9158 53.7658L63.6154 52.37C62.8658 53.4815 61.7543 54.0243 60.281 54.0243C58.1357 54.0243 56.559 52.887 56.1454 50.8708H66.4586C66.5362 50.3539 66.562 49.9662 66.562 49.656C66.562 47.6916 65.9417 46.0115 64.7268 44.6415C63.4861 43.2716 61.9353 42.5737 60.0484 42.5737Z" fill="black"/>
<path fill-rule="evenodd" clip-rule="evenodd" d="M79.9248 39.1587L77.1333 40.0117V42.9066H75.0396H74.7553H71.8345V39.1587L69.043 40.0117V42.9066V45.6982V52.1342C69.043 55.6495 70.7748 56.8644 75.0396 56.3216V53.7109C72.9201 53.8143 71.8345 53.8402 71.8345 52.1342V45.6982H74.7553H75.0396H77.1333V52.1342C77.1333 55.6495 78.8651 56.8644 83.13 56.3216V53.7109C81.0104 53.8143 79.9248 53.8402 79.9248 52.1342V45.6982H83.13V42.9066H79.9248V39.1587Z" fill="black"/>
<path fill-rule="evenodd" clip-rule="evenodd" d="M88.1699 48.4928C88.5576 46.4509 90.0051 45.1843 92.0729 45.1843C93.9081 45.1843 95.3814 46.3216 95.7691 48.4928H88.1699ZM92.1246 42.5737C90.1343 42.5737 88.48 43.2458 87.2135 44.6157C85.947 45.9598 85.3008 47.614 85.3008 49.6301C85.3008 51.6721 85.947 53.3522 87.2394 54.6963C88.5317 56.0145 90.2377 56.6866 92.3313 56.6866C94.8386 56.6866 96.7255 55.7302 97.992 53.7658L95.6915 52.37C94.942 53.4815 93.8305 54.0243 92.3572 54.0243C90.2118 54.0243 88.6351 52.887 88.2216 50.8708H98.5348C98.6123 50.3539 98.6382 49.9662 98.6382 49.656C98.6382 47.6916 98.0178 46.0115 96.803 44.6415C95.5623 43.2716 94.0115 42.5737 92.1246 42.5737Z" fill="black"/>
<path fill-rule="evenodd" clip-rule="evenodd" d="M104.274 45.181V42.9322H101.482V56.3472H104.274V49.6009C104.274 48.231 104.662 47.2488 105.463 46.6543C106.264 46.0339 107.195 45.7755 108.255 45.853V42.7254C106.316 42.6737 104.972 43.5009 104.274 45.181Z" fill="black"/>
</svg>
