<svg viewBox="0 0 200 96" fill="none" xmlns="http://www.w3.org/2000/svg">
<path d="M44.822 59.7612L44.8215 59.7629L44.8214 59.7633L44.8213 59.7635L44.8128 59.789L44.8086 59.8162C44.7782 60.0138 44.8078 60.2064 44.9019 60.3789C44.9941 60.548 45.1373 60.6777 45.3034 60.7741C45.629 60.9629 46.0824 61.0475 46.5991 61.0475C47.1803 61.0475 47.669 60.9517 48.0485 60.7114C48.4393 60.4639 48.6741 60.0891 48.7919 59.6177L48.7934 59.6117L49.6387 55.5775H55.0565L54.2827 59.2256L54.2826 59.226C53.7789 61.563 53.0275 63.0414 51.7946 63.9518C50.554 64.868 48.764 65.2558 46.0684 65.2558H43.7416C41.9534 65.2558 40.7014 64.9324 39.9014 64.3266C39.1202 63.735 38.7188 62.8337 38.7188 61.5392C38.7188 61.1563 38.7974 60.4112 38.9512 59.8731L38.9543 59.8623L42.2224 44.4612C42.7047 42.1705 43.498 40.5959 44.6724 39.5892C45.8435 38.5854 47.4411 38.106 49.6199 38.106H51.9875C54.2024 38.106 55.7177 38.3522 56.6705 38.8452C57.1396 39.088 57.4636 39.3861 57.6728 39.7381C57.8824 40.0909 57.9901 40.5205 57.9901 41.0469C57.9901 41.5186 57.9508 41.9369 57.8383 42.3494L57.8355 42.3595L56.8661 47.0904H51.4474L52.0975 43.9483C52.1144 43.8978 52.1326 43.8412 52.1414 43.7712C52.149 43.7097 52.149 43.6391 52.149 43.5557L52.149 43.537C52.149 43.1491 51.987 42.8257 51.6539 42.6184C51.3477 42.4278 50.9277 42.3551 50.4363 42.3551C49.8549 42.3551 49.3584 42.451 48.9706 42.6887C48.5711 42.9335 48.3222 43.307 48.2027 43.7849L48.2012 43.7907L44.8931 59.4736L44.8928 59.4753C44.874 59.5693 44.8554 59.6436 44.8418 59.6934C44.835 59.7182 44.8295 59.7369 44.8259 59.7487L44.8236 59.7563L44.822 59.7612Z" fill="black"/>
<path fill-rule="evenodd" clip-rule="evenodd" d="M93.6939 38.3917H102.738C104.856 38.3917 106.243 38.6087 107.095 39.0673C107.511 39.2913 107.793 39.5699 107.975 39.9082C108.158 40.2499 108.251 40.6754 108.251 41.2102C108.251 42.3626 108.052 43.8172 107.744 45.1746C107.435 46.5341 107.027 47.7599 106.623 48.4742C106.217 49.1299 105.773 49.5976 105.169 49.958C104.557 50.3235 103.761 50.5899 102.635 50.8112L102.373 50.8627V51.1795V51.4964L102.655 51.5334C103.874 51.6932 104.681 52.0067 105.185 52.479C105.676 52.9397 105.924 53.5963 105.924 54.5588C105.924 55.9911 105.645 57.6745 105.197 59.2082C104.748 60.7483 104.14 62.0989 103.506 62.8868L103.503 62.8901L103.501 62.8934C102.405 64.3299 100.73 64.9701 97.9622 64.9701H88.0355L93.6939 38.3917ZM100.248 42.3959C100.885 42.3959 101.401 42.4635 101.759 42.6997C102.156 42.962 102.287 43.3773 102.287 43.8636C102.287 44.1435 102.199 44.7046 102.119 45.1463L102.118 45.1521L101.75 46.8269L101.75 46.8294C101.547 47.8221 101.319 48.5231 100.857 48.9537C100.381 49.3982 99.7235 49.4951 98.8603 49.4951H96.9479L98.4755 42.3959H100.248ZM98.2888 53.2952C98.8913 53.2952 99.3862 53.374 99.7277 53.6388C100.094 53.9227 100.206 54.3531 100.206 54.8445C100.206 55.1253 100.159 55.5195 99.9934 56.182L99.5867 58.1752L99.5862 58.1776L99.5856 58.18C99.3624 59.1949 99.1243 59.9158 98.6848 60.3675C98.2222 60.843 97.5967 60.9659 96.7784 60.9659H94.5417L96.1472 53.2952H98.2888Z" fill="black"/>
<path d="M55.9931 64.9701L61.6515 38.3917H67.2743L62.539 60.7209H68.6604L67.7398 64.9701H55.9931Z" fill="black"/>
<path d="M71.0031 58.867L75.3561 38.3917H81.0193L76.6529 58.9018L76.6525 58.9038C76.6112 59.1102 76.5646 59.3821 76.5646 59.6206C76.5646 60.0431 76.7055 60.414 77.0318 60.6679C77.3428 60.9098 77.7742 61.0067 78.2772 61.0067C78.8981 61.0067 79.4296 60.8621 79.8424 60.5181C80.2537 60.1754 80.5044 59.6701 80.6361 59.0342L80.6363 59.0333L85.0307 38.3917H90.6533L86.3284 58.7348L86.3282 58.7358C85.7652 61.3086 84.8939 62.8963 83.5933 63.892C82.2934 64.8467 80.5466 65.2558 77.1342 65.2558C74.6479 65.2558 73.0452 64.987 72.0671 64.3945C71.5888 64.1048 71.2593 63.7369 71.0455 63.2744C70.8292 62.8064 70.7234 62.2243 70.7234 61.4984C70.7234 60.7108 70.8419 59.7545 71.0031 58.867Z" fill="black"/>
<path d="M106.727 64.9701L112.386 38.3917H118.009L115.764 49.0461H120.061L122.306 38.3917H127.969L122.31 64.9701H116.687L119.136 53.2952H114.84L112.35 64.9701H106.727Z" fill="black"/>
<path d="M144.952 58.8623L149.304 38.3917H154.967L150.601 58.8999L150.601 58.9018L150.6 58.9038C150.559 59.1102 150.512 59.3821 150.512 59.6206C150.512 60.0431 150.653 60.414 150.979 60.6679C151.29 60.9098 151.722 61.0067 152.225 61.0067C152.846 61.0067 153.377 60.8621 153.79 60.5181C154.201 60.1754 154.452 59.6701 154.584 59.0342L154.584 59.0333L158.978 38.3917H164.601L160.276 58.7348C159.713 61.3082 158.842 62.8961 157.541 63.892C156.241 64.8466 154.494 65.2558 151.082 65.2558C148.595 65.2558 146.993 64.987 146.015 64.3945C145.536 64.1048 145.207 63.7369 144.993 63.2744C144.777 62.8064 144.671 62.2243 144.671 61.4984C144.671 60.7108 144.79 59.7544 144.951 58.8669L144.952 58.8623Z" fill="black"/>
<path d="M180.186 64.9701L185.844 38.3917H197.265L196.38 42.6408H190.586L189.137 49.2502H194.566L193.688 53.2544H188.297L186.732 60.7209H192.979L192.093 64.9701H180.186Z" fill="black"/>
<path fill-rule="evenodd" clip-rule="evenodd" d="M126.211 61.6209C126.211 61.203 126.288 60.615 126.408 60.0561L129.918 43.4411C130.329 41.5048 131.143 40.2037 132.524 39.3675L132.538 39.3587C132.548 39.3529 132.558 39.3471 132.568 39.3413C133.997 38.4937 136.068 38.106 139.03 38.106C141.532 38.106 143.225 38.3935 144.286 38.9881C144.808 39.2807 145.172 39.6454 145.409 40.0874C145.647 40.5319 145.768 41.0754 145.768 41.7409C145.768 42.297 145.728 42.8015 145.613 43.3007L145.612 43.3033L145.612 43.3059L142.232 59.1145L142.06 59.9201L142.06 59.9206C141.645 61.879 140.827 63.1865 139.43 64.021C138.012 64.8681 135.952 65.2558 132.989 65.2558C130.488 65.2558 128.784 64.9684 127.712 64.3731C127.185 64.08 126.815 63.7148 126.575 63.2727C126.333 62.8284 126.211 62.2854 126.211 61.6209ZM136.434 42.4286C136.815 42.1789 137.328 42.1102 137.969 42.1102C138.465 42.1102 138.876 42.1586 139.173 42.3248C139.331 42.4129 139.457 42.5337 139.544 42.69C139.629 42.8428 139.668 43.0125 139.681 43.1873L139.682 43.1989L139.682 43.2412V43.2415C139.682 43.4117 139.682 43.6134 139.631 43.7832L138.142 50.7949L136.246 59.7289L136.245 59.7304C136.135 60.2366 135.945 60.6465 135.562 60.9127C135.193 61.1702 134.701 61.2516 134.091 61.2516C133.557 61.2516 133.119 61.2033 132.808 61.0413C132.643 60.9552 132.508 60.834 132.417 60.6704C132.329 60.5098 132.297 60.3319 132.297 60.1513V60.1381C132.297 59.9843 132.297 59.789 132.346 59.5887L135.398 45.2124L135.733 43.6341L135.733 43.6332C135.842 43.1079 136.033 42.6911 136.434 42.4286Z" fill="black"/>
<path d="M166.386 44.8313L166.386 44.8297C166.984 42.0385 167.664 40.411 168.859 39.4492C168.886 39.4279 168.913 39.4069 168.94 39.3862C170.192 38.4283 172.069 38.106 175.213 38.106C177.595 38.106 179.188 38.3532 180.178 38.8793C180.665 39.1376 180.998 39.4595 181.214 39.8499C181.432 40.243 181.542 40.7287 181.542 41.3327C181.542 41.9676 181.503 42.4355 181.385 43.0229L181.385 43.0243L180.746 46.029H175.779L175.979 45.1168L175.979 45.1143C176.144 44.3345 176.231 43.6949 176.231 43.3329C176.231 42.9368 176.156 42.56 175.8 42.3341C175.641 42.2335 175.452 42.1807 175.248 42.1506C175.043 42.1204 174.8 42.1102 174.519 42.1102C173.737 42.1102 173.138 42.1971 172.704 42.5718C172.277 42.9409 172.078 43.5322 171.915 44.3257L171.915 44.329L171.795 44.8541L171.507 46.1226L171.506 46.1267C171.422 46.549 171.377 46.9794 171.377 47.211C171.377 47.4284 171.403 47.6383 171.483 47.8342C171.566 48.0352 171.699 48.2007 171.882 48.3411C172.227 48.6058 172.769 48.7921 173.538 48.9945L173.539 48.9948C176.055 49.6494 177.548 50.1885 178.415 50.8207C178.838 51.1295 179.103 51.4543 179.265 51.8205C179.43 52.1906 179.501 52.6258 179.501 53.1709C179.501 55.406 178.696 59.0766 177.649 61.5331C177.149 62.6868 176.142 63.774 174.982 64.3939C173.827 64.9704 172.175 65.2558 169.538 65.2558C167.117 65.2558 165.481 64.9989 164.457 64.4705C163.954 64.2105 163.607 63.8891 163.384 63.5056C163.16 63.1207 163.046 62.6497 163.046 62.0699C163.046 61.0745 163.166 59.9147 163.446 58.6716L163.447 58.6693L163.881 56.6796H169.057L168.733 58.24L168.732 58.2437C168.567 58.9438 168.479 59.5427 168.479 59.9064C168.479 60.3378 168.604 60.7178 168.971 60.9624C169.301 61.1828 169.774 61.2516 170.355 61.2516C171.057 61.2516 171.628 61.1362 172.061 60.8225C172.502 60.5031 172.745 60.0185 172.877 59.4029L172.877 59.4011L173.489 56.4662L173.489 56.4637C173.575 56.0774 173.619 55.6873 173.619 55.3752C173.619 55.1513 173.578 54.9368 173.47 54.7374C173.362 54.5387 173.2 54.3784 172.994 54.2421C172.596 53.979 171.985 53.7743 171.131 53.5507L171.129 53.5501L171.126 53.5495C168.631 52.936 167.941 52.7 167.211 52.2775L167.208 52.2759L167.205 52.2742C166.649 51.9674 166.257 51.6146 166.003 51.2037C165.749 50.7943 165.618 50.3049 165.618 49.7011C165.618 48.9575 165.776 47.7178 166.019 46.5022L166.02 46.499L166.386 44.8313Z" fill="black"/>
<path fill-rule="evenodd" clip-rule="evenodd" d="M5.01453 55.5519L3 64.8411H7.6322L9.58782 55.5519H5.01453ZM5.66764 52.5404H11.4436H18.2437L19.0914 48.6047H14.0729L14.7355 45.5931H20.956H28.4377H34.9348L36.562 38.2278L24.3776 30.7461L8.77158 38.2278L5.66764 52.5404ZM34.2694 48.6047H29.6545L26.1687 64.8411H30.6822L34.2694 48.6047ZM23.0886 64.8411L26.5744 48.6047H22.172L20.9322 54.3608L20.9317 54.3632L18.6928 64.8411H23.0886ZM15.6133 64.8411L17.5982 55.5519H12.6654L10.7098 64.8411H15.6133Z" fill="black"/>
</svg>
