<svg viewBox="0 0 200 96" fill="none" xmlns="http://www.w3.org/2000/svg">
<path fill-rule="evenodd" clip-rule="evenodd" d="M10.1465 21.3052C10.0859 21.3022 9.79102 21.055 9.79102 21.0073C9.79102 20.9867 9.92259 21.0112 10.0835 21.0618C10.3469 21.1446 10.5453 21.2286 11.4769 21.6519C11.6283 21.7207 12.0309 21.9004 12.3715 22.0512C12.9685 22.3155 13.3055 22.4707 14.6424 23.0961C15.525 23.5091 20.4909 25.9843 21.3516 26.4402C22.0838 26.8282 22.9084 27.2754 23.3472 27.5227C23.4121 27.5592 23.5344 27.6278 23.6802 27.7093C23.8318 27.7941 24.0089 27.893 24.173 27.9844C25.1502 28.5291 25.273 28.5996 26.3061 29.2094C28.8862 30.7322 31.5101 32.475 33.4283 33.9401L34.338 34.6349C35.4999 35.522 37.4636 37.357 38.3884 38.4195C40.5677 40.9241 41.5135 42.9468 41.5138 45.1034C41.5138 45.9882 41.4409 46.3954 41.1523 47.1202C40.8425 47.8982 40.7119 48.1307 40.2043 48.8078C39.0282 50.3771 37.1627 51.7463 34.3791 53.0833C33.7194 53.4001 33.162 53.6594 33.1405 53.6594C33.1191 53.6594 32.9273 53.7341 32.7144 53.8253C32.5014 53.9166 32.0331 54.1043 31.6736 54.2425C31.5146 54.3036 31.3563 54.3648 31.2227 54.4169C31.054 54.4826 30.9244 54.5337 30.8822 54.5514C30.8065 54.5831 30.2337 54.7695 29.6092 54.9655C28.9847 55.1615 28.3499 55.3656 28.1985 55.419C27.936 55.5116 26.8869 55.806 26.375 55.9307C26.2814 55.9536 26.107 55.9986 25.9326 56.0448C25.8602 56.064 25.7878 56.0834 25.7212 56.1015C25.4942 56.1631 25.1763 56.242 25.015 56.2768C24.8535 56.3117 24.6617 56.3722 24.5885 56.4113C24.5154 56.4505 24.2758 56.5113 24.0562 56.5465C23.8365 56.5816 23.3162 56.6901 22.8999 56.7876C21.6804 57.073 21.2042 57.1739 20.7908 57.2343C20.5769 57.2654 20.3724 57.3093 20.3363 57.3317C20.2752 57.3694 19.5083 57.5214 18.7023 57.6556C18.5131 57.6871 18.0795 57.7642 17.7389 57.827C17.3983 57.8898 16.9493 57.9642 16.7412 57.9925C16.533 58.0207 16.2233 58.0777 16.053 58.1193C15.698 58.2057 15.0097 58.3179 14.2668 58.4104C13.9846 58.4456 13.5975 58.505 13.4067 58.5424C13.077 58.6071 12.4354 58.7149 11.3186 58.8932C10.5246 59.0199 10.083 58.9859 10.3435 58.8181C10.4713 58.7358 11.1738 58.5229 12.158 58.2683C12.5781 58.1596 13.2007 57.977 13.5413 57.8627C15.3203 57.2654 15.9038 57.0569 16.6379 56.7564C16.9028 56.6479 17.4138 56.4453 17.7733 56.3061C18.1329 56.1669 18.6283 55.9605 18.8743 55.8475C19.1204 55.7344 19.6313 55.5029 20.0098 55.3331C20.7273 55.011 21.8041 54.4779 22.4526 54.1237C22.6608 54.0099 23.0324 53.8069 23.2784 53.6727C23.5244 53.5384 23.8551 53.341 24.0133 53.2342C24.1715 53.1274 24.3213 53.0399 24.3461 53.0399C24.4332 53.0399 25.9355 52.018 26.7534 51.4022C28.6816 49.9507 30.1723 48.3453 31.0961 46.7254C31.3969 46.1979 31.923 44.9004 32.0803 44.298C32.3237 43.3662 32.3391 41.4511 32.1107 40.5208C31.6257 38.5454 30.6075 36.5983 29.1008 34.7645C26.6383 31.7676 23.0066 28.7975 17.9798 25.6694L17.0852 25.1129C16.8392 24.9599 16.4057 24.7024 16.1218 24.5407C15.8379 24.379 15.4045 24.1309 15.1584 23.9893C14.5866 23.6602 13.4496 23.0376 12.6124 22.595C12.2528 22.4051 11.5612 22.0376 11.0754 21.7785C10.5897 21.5194 10.1716 21.3065 10.1465 21.3052ZM41.0322 24.67C41.6859 24.2616 42.573 23.9319 43.1998 23.8644C43.9881 23.7795 45.2274 23.8457 45.7802 24.0022C47.3834 24.456 48.7705 25.5848 49.4897 27.0207C50.0679 28.1753 50.2954 29.6564 50.0551 30.7033C49.764 31.972 49.4943 32.5651 48.8234 33.4117C48.1864 34.2154 47.079 35.0085 46.1741 35.3089C45.591 35.5026 44.5937 35.6938 44.1664 35.694C43.4422 35.6943 42.1174 35.3429 41.3851 34.9562C39.9283 34.187 38.8614 32.8577 38.4256 31.2687C38.2222 30.5267 38.2193 28.9466 38.42 28.1909C38.7966 26.7735 39.774 25.4561 41.0322 24.67ZM47.5758 41.1284C48.3523 40.7322 48.8851 40.5979 50.2875 40.4451C50.5524 40.4162 53.3489 40.3963 56.5018 40.4008L62.2345 40.4089L62.3666 40.581C62.489 40.7404 62.4989 40.8848 62.5003 42.5462C62.5019 44.4485 62.4926 44.5045 62.1739 44.5045C62.0843 44.5045 61.9442 44.5403 61.8624 44.5841C61.7806 44.6279 61.6201 44.6879 61.5057 44.7174C61.062 44.832 59.2217 45.4723 59.0102 45.5858C58.798 45.6996 58.7812 45.6995 58.6661 45.5843C58.5644 45.4825 58.5451 45.3345 58.5451 44.6584C58.5451 43.8646 58.5427 43.8527 58.373 43.7833C58.2594 43.7368 56.8813 43.7246 54.3131 43.7474L50.4251 43.7818L50.1217 43.9883C49.458 44.4401 49.3634 44.8093 49.3634 46.9481C49.3635 49.2948 49.529 49.7055 50.6068 50.0332C50.9601 50.1406 51.4967 50.1508 56.5877 50.1477C60.1491 50.1455 62.2051 50.1687 62.248 50.2116C62.3346 50.2983 62.3262 53.3809 62.2391 53.4679C62.2004 53.5067 59.6574 53.5222 55.7841 53.5072C49.9511 53.4848 49.3629 53.4723 49.0489 53.3639C48.8596 53.2986 48.55 53.1946 48.3607 53.1329C47.443 52.8331 46.7448 52.3878 46.2935 51.8141C45.9107 51.3275 45.4735 50.4436 45.3676 49.9424C45.2476 49.3745 45.197 46.0207 45.2915 44.8978C45.372 43.9416 45.4385 43.6886 45.8235 42.8745C46.1599 42.1632 46.8022 41.5232 47.5758 41.1284ZM68.523 40.5445C68.75 40.5178 69.1371 40.4729 69.3831 40.4446C69.6291 40.4164 71.3168 40.3936 73.1335 40.394C77.386 40.3949 78.4579 40.4658 79.4081 40.8092C81.0614 41.4065 82.0102 42.4194 82.3215 43.9194C82.3529 44.0709 82.4119 44.282 82.4525 44.3885C82.5 44.5129 82.5263 45.4247 82.5262 46.9354C82.5261 49.2382 82.5224 49.3025 82.3512 49.9415C82.069 50.9949 81.7916 51.4945 81.1575 52.0913C80.4987 52.7112 80.1205 52.9064 78.7073 53.356C78.3171 53.4801 78.0261 53.4874 73.4087 53.4874C68.9662 53.4874 68.4917 53.4766 68.1789 53.3689C67.9897 53.3037 67.6645 53.1993 67.4564 53.1367C66.3959 52.818 65.2952 51.9389 64.8793 51.0782C64.4151 50.1176 64.4043 50.0326 64.3785 47.1246C64.3581 44.8221 64.3698 44.4292 64.4684 44.0959C64.9379 42.5101 65.3684 41.8945 66.4738 41.2286C66.9315 40.953 67.9551 40.6112 68.523 40.5445ZM84.5895 40.5688C84.5902 40.5053 84.6427 40.4434 84.7062 40.4311C84.7696 40.4189 85.6578 40.4132 86.68 40.4186C88.3838 40.4275 88.546 40.4386 88.629 40.5522C88.7018 40.6518 88.7196 41.5802 88.7196 45.2722V49.8682L88.8702 50.0086C89.0192 50.1475 89.0799 50.1489 94.6809 50.1489C98.6922 50.1489 100.354 50.1708 100.387 50.2239C100.456 50.336 100.436 53.393 100.366 53.4635C100.332 53.4979 97.03 53.5162 92.7061 53.5057C85.5443 53.4884 84.9647 53.5052 84.7804 53.2435C84.752 53.2032 84.7329 53.1561 84.7006 53.1013C84.5984 52.9284 84.5879 52.3365 84.588 46.7974C84.5881 43.4351 84.5887 40.6323 84.5895 40.5688ZM104.581 40.8093C105.026 40.6512 105.325 40.5957 106.542 40.4451C106.788 40.4147 108.502 40.3906 110.351 40.3917C114.583 40.3941 115.606 40.4626 116.562 40.8075C118.035 41.3392 118.972 42.2103 119.327 43.3786C119.46 43.8173 119.544 44.079 119.596 44.3468C119.693 44.8355 119.686 45.3446 119.686 46.986C119.686 48.5246 119.659 49.4522 119.612 49.5766C119.571 49.6831 119.51 49.9195 119.475 50.1018C119.242 51.3278 118.362 52.3626 117.065 52.9346C115.783 53.5001 115.316 53.5374 109.914 53.5051C106.239 53.4832 105.573 53.464 105.338 53.3729C105.187 53.3143 104.877 53.2102 104.65 53.1416C103.328 52.742 102.362 51.8826 101.892 50.6882C101.532 49.77 101.519 49.645 101.519 47.0353C101.519 44.8399 101.532 44.5442 101.653 44.0853C102.126 42.2804 102.91 41.4027 104.581 40.8093ZM121.75 40.7309L121.956 40.5572L122.163 40.3836L127.788 40.3824C134.802 40.3809 135.336 40.4163 136.441 40.9557C137.172 41.3122 137.556 41.6242 137.848 42.0996C138.267 42.7809 138.458 43.4893 138.517 44.5877C138.626 46.585 138.16 48.0065 137.156 48.7435C136.746 49.0448 135.829 49.4586 135.569 49.4597C135.467 49.4602 135.297 49.4983 135.19 49.5444C135.075 49.5944 134.499 49.643 133.763 49.6649C132.961 49.6887 132.522 49.7279 132.505 49.7769C132.492 49.8184 132.752 50.1284 133.085 50.4658C133.417 50.8032 133.983 51.419 134.343 51.834C134.702 52.249 135.147 52.7512 135.331 52.95C135.525 53.1593 135.657 53.292 135.631 53.3762C135.584 53.5282 135.023 53.5218 133.387 53.5218C132.178 53.5218 131.138 53.5023 131.076 53.4784C130.969 53.4376 130.433 52.7983 129.491 51.5901C129.264 51.2986 128.831 50.7586 128.528 50.39C128.225 50.0213 127.855 49.5607 127.704 49.3664C127.554 49.1721 127.373 48.9512 127.301 48.8755C127.229 48.7998 126.923 48.4189 126.62 48.0291C126.317 47.6393 126.034 47.3321 125.991 47.3465C125.935 47.3653 125.908 48.2101 125.895 50.3929C125.885 52.054 125.85 53.4404 125.817 53.4737C125.733 53.5578 122.037 53.5331 121.877 53.4475C121.755 53.3818 121.75 53.1411 121.75 47.0551V40.7309ZM144.499 41.3726C144.848 40.7721 145.07 40.5033 145.284 40.4212C145.341 40.3994 146.613 40.3878 148.111 40.3953L150.834 40.4089L151.082 40.5982C151.219 40.7023 151.435 40.9811 151.563 41.2177C151.815 41.6823 152.446 42.7901 153.023 43.7818C153.222 44.1225 153.641 44.8504 153.954 45.3994C154.267 45.9483 154.731 46.7537 154.985 47.189C155.24 47.6244 155.541 48.151 155.654 48.3592C155.767 48.5674 156.164 49.2644 156.536 49.908C156.908 50.5516 157.395 51.4034 157.617 51.8009C157.84 52.1984 158.132 52.683 158.266 52.8778C158.395 53.0662 158.534 53.1966 158.512 53.2872C158.455 53.5183 157.348 53.4906 152.353 53.5049C146.418 53.522 146.243 53.5188 146.134 53.3911C146.072 53.3189 145.823 52.7844 145.58 52.2034C145.337 51.6224 145.079 51.0151 145.005 50.8538C144.873 50.5612 144.873 50.5605 145.016 50.417C145.158 50.2747 145.19 50.2736 148.558 50.295C150.743 50.3089 151.981 50.2923 152.025 50.2484C152.07 50.2032 151.991 50.0291 151.793 49.7343C151.628 49.4891 151.361 49.0407 151.2 48.7378C151.038 48.4349 150.883 48.1562 150.855 48.1183C150.81 48.058 150.066 46.7168 149.462 45.6059C148.451 43.7476 148.306 43.5409 148.011 43.5409C147.83 43.5409 147.531 43.8409 147.446 44.1084C147.419 44.1937 147.329 44.372 147.245 44.5045C147.162 44.637 146.929 45.0552 146.727 45.4338C146.526 45.8124 146.295 46.2305 146.214 46.363C146.134 46.4955 145.933 46.8673 145.768 47.189C145.603 47.5108 145.398 47.8851 145.314 48.0207C145.229 48.1563 145.028 48.528 144.868 48.8467C144.708 49.1654 144.476 49.5965 144.353 49.8047C144.23 50.013 143.945 50.524 143.72 50.9405C143.496 51.3569 143.193 51.9145 143.048 52.1795C142.903 52.4445 142.688 52.8472 142.572 53.0743L142.359 53.4874H140.02H137.68L137.659 53.3376C137.647 53.2541 137.742 53.0256 137.874 52.8214C138.093 52.4831 141.18 47.1569 141.658 46.2942C141.773 46.086 142.006 45.6833 142.174 45.3994C142.343 45.1154 142.559 44.7437 142.654 44.5734C142.851 44.222 143.956 42.3038 144.499 41.3726ZM160.165 40.6018C160.25 40.5243 160.366 40.4461 160.423 40.4282C160.606 40.3701 171.446 40.3855 172.121 40.4448C173.12 40.5327 173.698 40.6297 174.145 40.7845C175.606 41.2909 176.524 42.1133 176.953 43.2999C177.317 44.3083 177.353 44.6429 177.351 46.9825C177.349 48.8837 177.332 49.2313 177.211 49.8042C176.904 51.2586 176.183 52.2087 174.893 52.859C174.696 52.9585 174.499 53.0399 174.456 53.0399C174.413 53.0399 174.281 53.0825 174.161 53.1345C174.042 53.1865 173.743 53.2872 173.497 53.3582C173.085 53.4774 172.763 53.4874 169.334 53.4874H165.618L165.396 53.0743C165.274 52.8472 165.124 52.522 165.062 52.3516C164.912 51.9378 164.874 51.8447 164.626 51.3017C164.509 51.046 164.414 50.8093 164.414 50.7756C164.414 50.6798 164.208 50.6248 164.202 50.7189C164.199 50.7651 164.201 51.3604 164.207 52.0418C164.212 52.7233 164.196 53.3351 164.17 53.4013C164.128 53.5121 163.968 53.5218 162.175 53.5218C160.495 53.5218 160.211 53.5068 160.118 53.4136C160.021 53.3168 160.01 52.6426 160.01 47.024V40.7427L160.165 40.6018ZM182.271 40.8087C182.719 40.6496 183.007 40.595 184.163 40.4485C184.409 40.4173 186.112 40.3902 187.948 40.3883C192.177 40.3837 193.342 40.4651 194.312 40.8332C195.981 41.4661 196.809 42.3868 197.238 44.0864C197.377 44.636 197.383 44.7963 197.359 47.1495C197.33 49.9274 197.322 49.9843 196.818 51.0163C196.599 51.464 196.432 51.6891 196.043 52.0587C195.49 52.5837 195.136 52.8042 194.44 53.0554C194.123 53.1701 193.913 53.2545 193.697 53.3166C193.035 53.507 192.313 53.4874 188.223 53.4874H183.303L182.546 53.2241C181.525 52.8689 181.053 52.606 180.499 52.0837C179.957 51.5731 179.574 50.8765 179.341 49.9768C179.208 49.4667 179.198 49.2479 179.206 47.0031C179.213 45.1243 179.237 44.4934 179.315 44.1947C179.37 43.9828 179.415 43.7594 179.415 43.6983C179.415 43.5272 179.861 42.6278 180.129 42.2558C180.554 41.6682 181.335 41.1408 182.271 40.8087ZM134.295 45.313C134.295 44.3498 134.259 44.2409 133.835 43.9237C133.65 43.7855 133.547 43.7809 129.895 43.7474C127.833 43.7284 126.085 43.7354 126.011 43.7628C125.882 43.8106 125.877 43.8781 125.894 45.3116L125.913 46.8105H129.738C133.431 46.8105 133.571 46.8057 133.818 46.6728C134.25 46.4403 134.295 46.3116 134.295 45.313ZM77.716 44.0422C77.5889 43.9565 77.3728 43.8554 77.236 43.8173C76.9852 43.7476 69.8272 43.7291 69.5589 43.7974C69.3354 43.8542 68.9118 44.1494 68.7927 44.3311C68.5365 44.7224 68.4233 45.5655 68.423 47.0858C68.4226 48.4466 68.4326 48.5595 68.5922 49.0121C68.822 49.6637 69.0627 49.8482 69.9336 50.0406C70.382 50.1396 70.8784 50.1519 73.7183 50.134C76.6756 50.1154 77.0197 50.1016 77.331 49.9882C78.22 49.6645 78.3923 49.2 78.4458 46.9825C78.4909 45.1116 78.3278 44.4547 77.716 44.0422ZM115.498 44.9992C115.316 44.4175 115.103 44.1233 114.731 43.9368C114.422 43.7822 114.411 43.7818 110.74 43.7711C108.715 43.7652 106.95 43.7829 106.817 43.8104C105.849 44.0116 105.581 44.7127 105.582 47.0514C105.583 48.5949 105.689 49.1762 106.036 49.5413C106.298 49.8162 106.405 49.8685 107.019 50.0192C107.489 50.1347 107.854 50.1474 110.732 50.1481C113.732 50.1488 113.953 50.1406 114.39 50.0104C115.013 49.8248 115.29 49.5419 115.457 48.9204C115.553 48.5652 115.587 48.1228 115.608 46.9481C115.632 45.5845 115.621 45.3905 115.498 44.9992ZM173.222 46.9573C173.222 44.9948 173.038 44.3287 172.396 43.9593L172.087 43.7818L168.233 43.7688C166.114 43.7617 164.341 43.7721 164.294 43.7918C164.171 43.8428 164.168 49.9441 164.29 50.0663C164.352 50.1285 165.262 50.1489 167.961 50.1489C171.358 50.1489 171.57 50.1417 171.945 50.0125C173.067 49.6264 173.222 49.2562 173.222 46.9573ZM193.18 45.0317C193.082 44.5585 192.787 44.1428 192.405 43.9385L192.111 43.7818L188.327 43.7725C186.245 43.7675 184.48 43.777 184.404 43.7936C184.127 43.8545 183.723 44.1997 183.57 44.5073C183.36 44.9288 183.269 45.734 183.269 47.1667C183.269 49.2897 183.483 49.7181 184.69 50.0146C185.183 50.1358 185.503 50.1473 188.395 50.1473C191.67 50.1473 191.931 50.1283 192.464 49.8524C192.747 49.7063 193.015 49.3816 193.117 49.0626C193.233 48.6998 193.283 45.5259 193.18 45.0317Z" fill="black"/>
<path fill-rule="evenodd" clip-rule="evenodd" d="M24.5903 58.2366C24.6342 58.2095 25.0461 58.1626 25.5056 58.1324C26.5186 58.0658 29.6481 58.1189 30.1257 58.2109C30.315 58.2473 30.702 58.3067 30.9859 58.3429C31.7777 58.4437 32.2088 58.525 32.8095 58.6864C33.1122 58.7677 33.4838 58.8613 33.6352 58.8944C34.2126 59.0203 36.0974 59.679 36.8694 60.0246C36.983 60.0754 37.3081 60.2173 37.5919 60.3399C39.1157 60.9979 41.1611 62.1717 42.9594 63.4202C43.7888 63.9961 45.4971 65.335 46.0222 65.8206C46.0983 65.891 46.5163 66.2635 46.9512 66.6485C48.1539 67.7131 49.6767 69.2855 51.1405 70.9743C51.8312 71.7711 52.5878 72.7301 53.9179 74.4943C54.1039 74.7412 54.1683 75.0002 54.0436 75.0002C54.0086 75.0002 53.8305 74.8861 53.6479 74.7465C52.4115 73.8022 51.8628 73.4074 50.7353 72.6512C49.52 71.8361 47.6325 70.6953 46.6753 70.1972C43.2332 68.4063 41.0556 67.5156 37.8328 66.5808C35.6301 65.9419 32.3863 65.2949 31.3828 65.2944C31.1455 65.2943 30.6728 65.2424 30.3322 65.1791C29.4185 65.0093 23.4046 65.0102 22.4957 65.1803C22.1595 65.2432 21.6796 65.2944 21.4291 65.2942C20.9512 65.2937 18.9408 65.5886 18.5354 65.7186C18.4056 65.7604 18.1269 65.8198 17.9161 65.8509C17.7054 65.8818 17.3316 65.9567 17.0857 66.017C16.8397 66.0773 16.3442 66.1884 15.9847 66.2639C15.6251 66.3394 15.0832 66.4781 14.7804 66.5721C14.6036 66.627 14.3928 66.6915 14.2103 66.7465C14.0802 66.7858 13.9646 66.8202 13.8859 66.8431C13.0675 67.0808 12.3343 67.3123 11.8215 67.4949C11.5187 67.6027 11.1936 67.7136 11.0989 67.7412C11.0043 67.7689 10.7411 67.8755 10.514 67.9783C10.2869 68.0809 10.0082 68.1874 9.8947 68.2147C9.19734 68.3826 5.54047 70.1752 3.93138 71.138C3.11965 71.6237 3.05439 71.6569 3.00637 71.6088C2.94195 71.5444 3.22686 71.2289 4.72987 69.7C7.17973 67.2079 8.34572 66.1645 10.8581 64.2165C11.3501 63.8349 12.0313 63.3402 12.372 63.1171C12.5127 63.0249 12.6561 62.9302 12.7826 62.8461C12.9623 62.7266 13.1078 62.6285 13.1633 62.589C13.8351 62.1109 16.3215 60.7523 17.2044 60.3808C17.4401 60.2817 17.8019 60.1232 18.0086 60.0286C18.2152 59.9341 18.4266 59.8567 18.4782 59.8567C18.5298 59.8567 18.6014 59.8275 18.6374 59.7918C18.7811 59.6491 20.934 58.9667 22.3499 58.6152C22.8217 58.498 23.2802 58.4213 23.9463 58.348C24.2567 58.3139 24.5465 58.2637 24.5903 58.2366Z" fill="black"/>
<path fill-rule="evenodd" clip-rule="evenodd" d="M157.203 58.0922C157.179 57.8118 157.199 57.6848 157.28 57.5952C157.372 57.4936 157.507 57.4759 158.144 57.4814C159.096 57.4897 159.123 57.5089 159.068 58.1216C159.045 58.3739 158.992 58.6031 158.95 58.631C158.909 58.6588 158.546 58.682 158.143 58.6826C157.289 58.6838 157.25 58.6593 157.203 58.0922ZM170.005 57.5967C170.056 57.554 170.375 57.5101 170.714 57.4991C171.59 57.4706 171.669 57.4969 171.696 57.8277C171.709 57.9767 171.67 58.5477 171.61 59.0966C171.503 60.0693 171.456 61.1425 171.286 66.4618C171.241 67.8815 171.191 69.0581 171.176 69.0762C171.124 69.1399 169.747 69.0649 169.705 68.996C169.681 68.9578 169.677 68.6551 169.696 68.3233C169.736 67.6244 169.648 67.4672 169.407 67.8056C168.972 68.4147 168.123 68.954 167.249 69.1756C166.845 69.2778 166.595 69.2952 165.976 69.2637C165.07 69.2175 164.531 69.0665 163.876 68.6751C163.118 68.223 162.751 67.7904 162.347 66.8748C162.145 66.4169 162.116 66.273 162.09 65.6014C162.059 64.7935 162.124 64.4137 162.436 63.5708C162.95 62.183 163.875 61.2685 165.309 60.7283C166.159 60.408 166.416 60.3773 168.182 60.3833C169.211 60.3868 169.868 60.363 169.894 60.3212C169.917 60.2839 169.93 59.673 169.924 58.9637C169.914 57.951 169.932 57.6574 170.005 57.5967ZM127.753 58.8206C128.009 58.7585 128.238 58.6868 128.264 58.6612C128.366 58.5591 128.633 58.622 128.723 58.7697C128.797 58.8904 128.806 59.0687 128.763 59.5785C128.734 59.9381 128.725 60.2865 128.744 60.3527C128.796 60.5337 129.033 60.5638 130.116 60.5271C131.274 60.4877 131.334 60.5137 131.306 61.0501C131.297 61.2244 131.271 61.3976 131.248 61.4348C131.223 61.4741 130.673 61.5105 129.936 61.5214L128.666 61.5402L128.623 62.7448C128.599 63.4073 128.544 64.6545 128.5 65.5163C128.446 66.5633 128.441 67.1647 128.487 67.3286C128.663 67.9674 129.209 68.3043 129.943 68.2276C130.171 68.2037 130.416 68.1528 130.488 68.1146C130.689 68.007 131.019 68.0297 131.067 68.1543C131.119 68.2886 130.927 68.9728 130.813 69.0618C130.66 69.1815 129.469 69.3052 128.854 69.2652C128.038 69.2123 127.544 69.0206 127.192 68.6202C127.041 68.4489 126.881 68.1962 126.835 68.0586C126.714 67.6922 126.812 65.1568 127.051 62.4351C127.131 61.5276 127.117 61.5058 126.43 61.5058C126.168 61.5058 125.94 61.4708 125.893 61.4232C125.847 61.3778 125.81 61.1957 125.81 61.0186C125.81 60.5746 125.914 60.5042 126.532 60.528C127.181 60.5529 127.211 60.5157 127.255 59.6244L127.289 58.9335L127.753 58.8206ZM84.3852 62.3429C84.3872 61.4316 85.3199 60.5348 86.4083 60.3975C86.6389 60.3684 87.4467 60.3592 88.2037 60.3769C89.9119 60.4169 89.9141 60.4179 89.9442 61.1525C89.9675 61.719 89.894 61.8016 89.5245 61.6246C88.9923 61.3696 87.8063 61.2962 86.9994 61.4684C86.6313 61.547 86.514 61.6078 86.3367 61.8121C85.9849 62.2176 85.9696 62.6087 86.287 63.0907C86.4767 63.3789 86.8176 63.6707 87.9273 64.4945C89.3968 65.5856 89.9054 66.2525 89.9046 67.0869C89.9031 68.6155 87.8756 69.5676 85.3823 69.2105C85.1174 69.1726 84.7063 69.1228 84.4686 69.1C84.0995 69.0645 84.0114 69.0285 83.8636 68.8527C83.7107 68.671 83.6929 68.5938 83.7107 68.1911C83.73 67.7533 83.7376 67.7356 83.9029 67.7443C83.9975 67.7493 84.2452 67.8154 84.4534 67.8913C85.1611 68.1491 85.8664 68.2705 86.4682 68.2381C87.842 68.1642 88.5718 67.3793 88.1065 66.4763C87.9319 66.1376 87.7018 65.9299 86.5177 65.0428C84.8741 63.8114 84.3834 63.1901 84.3852 62.3429ZM94.2032 60.6723C94.432 60.5821 95.1188 60.4782 95.9795 60.4034C96.3202 60.3738 97.2182 60.3611 97.9751 60.3751C99.1282 60.3963 99.4233 60.4235 99.7948 60.5423C100.925 60.9039 101.565 61.3953 102.04 62.2657C102.362 62.8545 102.448 63.1494 102.554 64.0279C102.652 64.8434 102.5 66.063 102.227 66.6556C101.466 68.3045 100.284 69.1373 98.5256 69.2626C97.3632 69.3455 96.112 68.9171 95.3581 68.178C95.1676 67.9913 94.9793 67.8385 94.9394 67.8385C94.8451 67.8385 94.7046 70.1175 94.7057 71.6278C94.7062 72.4231 94.6816 72.792 94.6239 72.8496C94.5206 72.953 93.3084 72.9622 93.1193 72.861C92.9638 72.7778 92.9453 72.4134 93.0512 71.5194C93.0869 71.2174 93.1346 70.351 93.1571 69.5938C93.1797 68.8366 93.2273 67.9383 93.263 67.5976C93.2987 67.2569 93.3287 66.3276 93.3297 65.5326C93.3322 63.6916 93.4529 61.0429 93.5419 60.8765C93.5845 60.797 93.6859 60.7486 93.8099 60.7486C93.9196 60.7486 94.0966 60.7143 94.2032 60.6723ZM105.92 62.8527C106.472 61.5755 107.805 60.6173 109.329 60.4025C109.934 60.3173 111.811 60.3834 112.202 60.5037C113.998 61.056 114.988 62.1913 115.209 63.9494C115.342 65.0071 115.128 66.0331 114.565 67.0411C114.084 67.9006 113.402 68.4947 112.488 68.8502C111.701 69.1563 111.16 69.2498 110.189 69.248C107.881 69.2438 106.299 68.2451 105.687 66.406C105.532 65.9414 105.51 65.7621 105.511 64.9473C105.512 63.9795 105.577 63.646 105.92 62.8527ZM120.777 61.1424C121.243 60.6975 121.653 60.4734 122.127 60.4036C122.713 60.3175 123.571 60.3274 123.69 60.4217C123.825 60.5292 123.917 61.4078 123.801 61.4796C123.759 61.5057 123.348 61.5204 122.889 61.5123C122.118 61.4988 122.026 61.5111 121.712 61.6697C121.346 61.8548 120.826 62.3553 120.597 62.7448C120.256 63.3232 120.136 64.3712 120.051 67.5134C120.026 68.4343 119.983 69.0295 119.939 69.0568C119.829 69.125 118.566 69.1305 118.43 69.0633C118.294 68.996 118.268 68.5555 118.374 68.0794C118.407 67.928 118.455 67.324 118.479 66.7372C118.504 66.1504 118.553 65.4534 118.587 65.1884C118.621 64.9234 118.65 63.8044 118.651 62.7016C118.653 60.9347 118.667 60.6856 118.766 60.6036C118.896 60.4955 119.927 60.4577 120.116 60.5542C120.21 60.6024 120.236 60.7045 120.236 61.0223C120.236 61.2459 120.269 61.4492 120.309 61.4739C120.349 61.4987 120.56 61.3496 120.777 61.1424ZM134.472 61.1113C134.802 60.7733 135.417 60.4688 135.911 60.3992C136.418 60.3276 139.074 60.3908 139.238 60.4783C139.424 60.578 139.487 60.7391 139.514 61.1872C139.544 61.6873 139.44 61.7935 139.082 61.6299C138.509 61.3685 137.013 61.2977 136.338 61.5C135.795 61.6628 135.504 62.1997 135.654 62.762C135.746 63.1063 136.128 63.5019 136.975 64.13C138.481 65.2465 138.871 65.6087 139.195 66.1935C139.373 66.5155 139.4 66.6339 139.398 67.0813C139.395 67.5193 139.366 67.6468 139.204 67.9217C138.824 68.5647 138.142 68.9732 137.095 69.1851C136.451 69.3156 135.472 69.2934 134.177 69.1189C133.404 69.0149 133.311 68.948 133.31 68.4965C133.309 68.3428 133.292 68.1552 133.272 68.0794C133.252 68.0037 133.275 67.8874 133.325 67.821C133.409 67.7063 133.432 67.7072 133.776 67.8382C135.604 68.5351 137.43 68.2813 137.714 67.2907C137.803 66.9811 137.678 66.4419 137.457 66.1793C137.36 66.0639 136.735 65.5568 136.068 65.0522C135.4 64.5476 134.728 63.9974 134.573 63.8295C134.257 63.487 133.861 62.7153 133.861 62.4432C133.861 62.1369 134.207 61.3829 134.472 61.1113ZM177.163 60.8027C177.739 60.5169 177.918 60.4655 178.555 60.4026C179.382 60.321 180.685 60.3897 181.17 60.5405C182.677 61.0085 183.485 62.0466 183.596 63.6577C183.615 63.9346 183.66 64.1185 183.592 64.2398C183.442 64.5087 182.742 64.4712 179.993 64.4611C178.131 64.4544 176.577 64.4683 176.538 64.492C176.416 64.5677 176.38 65.0344 176.456 65.567C176.533 66.1109 176.805 66.7778 177.114 67.1837C177.369 67.5178 178.018 67.935 178.567 68.1178C178.991 68.2589 179.112 68.268 180.065 68.23C181.118 68.188 181.292 68.1591 182.116 67.8903C182.523 67.7572 182.591 67.7512 182.675 67.8403C182.756 67.9264 182.757 68.0085 182.678 68.3811C182.56 68.9425 182.458 69.0521 182.01 69.0967C181.813 69.1164 181.392 69.1702 181.075 69.2162C180.303 69.3283 178.506 69.2719 177.867 69.1157C176.246 68.7191 174.979 67.37 174.841 65.893C174.756 64.982 174.755 64.8014 174.841 64.1889C174.95 63.4045 174.97 63.3347 175.263 62.732C175.716 61.8017 176.256 61.253 177.163 60.8027ZM145.684 61.9188C145.21 60.7727 145.164 60.6162 145.28 60.5444C145.41 60.4641 146.68 60.5112 146.851 60.6025C146.935 60.6472 147.021 60.768 147.043 60.8711C147.083 61.0595 147.463 62.1248 147.836 63.0948C147.946 63.382 148.037 63.6522 148.037 63.6953C148.037 63.7383 148.112 63.937 148.204 64.1368C148.297 64.3366 148.448 64.7169 148.542 64.9819C148.635 65.2469 148.804 65.7116 148.916 66.0144C149.483 67.5423 149.521 67.6049 149.756 67.3923C149.829 67.3257 149.925 67.1588 149.968 67.0214C150.012 66.884 150.149 66.5548 150.273 66.2898C150.397 66.0248 150.577 65.6376 150.672 65.4293C150.768 65.2211 151.068 64.5706 151.339 63.9838C152.094 62.3483 152.558 61.3104 152.714 60.9058C152.761 60.784 152.838 60.6522 152.886 60.613C152.933 60.5737 153.3 60.5266 153.702 60.5083C154.37 60.478 154.438 60.4864 154.503 60.6067C154.558 60.7107 154.523 60.8296 154.333 61.1737C154.201 61.4132 153.503 62.8016 152.781 64.2592C152.059 65.7167 151.289 67.2655 151.069 67.7009C150.849 68.1362 150.632 68.6082 150.586 68.7496C150.541 68.8911 150.468 69.029 150.424 69.0562C150.38 69.0834 149.972 69.0968 149.517 69.0861C148.891 69.0713 148.662 69.0409 148.573 68.9609C148.508 68.9026 148.373 68.6341 148.273 68.364C148.172 68.0939 147.903 67.4083 147.675 66.8404C147.446 66.2725 147.175 65.5911 147.071 65.3261C146.857 64.7778 146.29 63.3836 145.684 61.9188ZM157.129 62.5383C157.138 61.5569 157.212 60.6661 157.292 60.5869C157.391 60.4871 158.677 60.4755 158.834 60.5729C158.909 60.6193 158.919 60.7967 158.881 61.4641C158.856 61.9224 158.806 62.4213 158.77 62.5727C158.735 62.7242 158.703 63.2972 158.699 63.8462C158.696 64.3951 158.662 65.123 158.625 65.4638C158.588 65.8045 158.543 66.7324 158.526 67.5259C158.508 68.386 158.466 68.9974 158.424 69.0399C158.319 69.1447 156.972 69.0897 156.854 68.9758C156.778 68.9024 156.775 68.7968 156.837 68.4136C156.9 68.0238 157.119 63.6199 157.129 62.5383ZM181.924 62.8562C181.664 62.0406 181.301 61.6404 180.604 61.4012C179.99 61.1905 179.384 61.1829 178.658 61.3769C177.614 61.6561 176.966 62.2868 176.657 63.3245C176.629 63.4186 176.606 63.4896 176.627 63.5432C176.693 63.7109 177.19 63.7085 179.31 63.7085C181.313 63.7085 181.941 63.7346 182.055 63.5053C182.117 63.3802 182.027 63.1791 181.924 62.8562ZM169.827 61.5925C169.781 61.5455 169.435 61.4605 169.057 61.4036C168.417 61.3072 168.034 61.2866 167.786 61.3356C167.729 61.3469 167.404 61.3944 167.063 61.4412C165.914 61.5995 164.875 62.2523 164.387 63.1234C164.281 63.3127 164.113 63.6999 164.014 63.9838C163.859 64.4305 163.835 64.6114 163.836 65.3261C163.837 66.0669 163.857 66.1986 164.025 66.6035C164.244 67.1323 164.517 67.4855 164.924 67.7654C165.857 68.4074 167.302 68.4105 168.229 67.7725C168.87 67.3313 169.359 66.64 169.546 65.9102C169.744 65.1367 169.966 61.7335 169.827 61.5925ZM100.387 62.5779C99.9995 61.9782 99.5124 61.6389 98.8026 61.4743C98.3228 61.363 97.1408 61.3405 96.8397 61.437C96.7451 61.4673 96.5438 61.4957 96.3924 61.5001C95.9661 61.5125 95.2371 61.8019 95.1435 61.9959C95.0995 62.087 95.028 62.8833 94.9822 63.7914C94.9069 65.2883 94.9103 65.4702 95.0229 65.9917C95.2472 67.0306 95.9728 67.7941 97.0367 68.111C97.6319 68.2884 98.0807 68.2888 98.6508 68.1127C99.7809 67.7636 100.518 66.9026 100.866 65.5243C101.095 64.6164 100.89 63.3557 100.387 62.5779ZM113.363 63.3018C113.011 62.2357 112.422 61.6835 111.415 61.4733C110.825 61.3502 109.954 61.348 109.467 61.4684C108.697 61.6586 108.045 62.1454 107.663 62.8151C107.105 63.791 107.014 65.6321 107.473 66.6502C108.008 67.8392 109.614 68.5111 111.04 68.142C112.295 67.817 113.045 67.0928 113.37 65.8927C113.566 65.1703 113.563 63.9041 113.363 63.3018ZM196.367 64.6474C196.367 67.7402 193.86 70.2475 190.767 70.2475C187.674 70.2475 185.167 67.7402 185.167 64.6474C185.167 61.5545 187.674 59.0472 190.767 59.0472C193.86 59.0472 196.367 61.5545 196.367 64.6474ZM193.237 64.6474L188.955 67.118V62.1767L193.237 64.6474Z" fill="black"/>
<path fill-rule="evenodd" clip-rule="evenodd" d="M196.368 64.6494C196.368 67.7423 193.861 70.2496 190.768 70.2496C187.675 70.2496 185.168 67.7423 185.168 64.6494C185.168 61.5566 187.675 59.0493 190.768 59.0493C193.861 59.0493 196.368 61.5566 196.368 64.6494ZM193.239 64.6494L188.956 67.1201V62.1788L193.239 64.6494Z" fill="black"/>
</svg>
