<svg viewBox="0 0 200 96" fill="none" xmlns="http://www.w3.org/2000/svg">
<mask id="mask0_58352_1939" style="mask-type:luminance" maskUnits="userSpaceOnUse" x="46" y="18" width="109" height="61">
<path d="M154.004 18H46V78.7969H154.004V18Z" fill="white"/>
</mask>
<g mask="url(#mask0_58352_1939)">
<path d="M106.231 17.9958C107.183 18.1804 108.151 18.3034 109.088 18.5341C113.542 19.6723 115.939 22.6713 116.661 27.1162C116.83 28.1928 116.922 29.3001 116.938 30.4074C116.968 34.9138 117.014 39.4355 116.922 43.9418C116.891 45.649 116.722 47.3869 116.292 49.0326C115.171 53.2928 112.19 55.569 107.951 56.2611C106.722 56.461 105.463 56.5534 104.203 56.5534C97.4131 56.5841 90.6389 56.5687 83.8497 56.5687C83.6187 56.5687 83.3884 56.5687 83.1123 56.5687C83.1123 48.2789 83.1123 40.0507 83.1123 31.7609C85.8775 31.7609 88.6269 31.7609 91.4837 31.7609C91.4837 37.5591 91.4837 43.3727 91.4837 49.2017C91.7297 49.2325 91.8835 49.2479 92.0215 49.2479C95.4777 49.2479 98.9338 49.2633 102.391 49.2325C103.082 49.2325 103.773 49.1556 104.433 48.9864C106.706 48.4328 108.197 46.664 108.397 44.2647C108.489 43.0959 108.504 41.9116 108.489 40.7274C108.473 37.313 108.55 33.914 108.381 30.4998C108.243 27.393 106.169 25.4397 103.051 25.3629C99.0568 25.2705 95.0628 25.3167 91.0695 25.3013C88.6884 25.3013 86.3073 25.3013 83.9263 25.3013C83.6494 25.3013 83.3734 25.3013 83.0508 25.3013C83.0508 22.7944 83.0508 20.3797 83.0508 17.9805C90.762 17.9958 98.5039 17.9958 106.231 17.9958Z" fill="black"/>
<path d="M51.3303 67.521H46V69.3512H48.1352H51.3149C52.9586 69.3512 53.5576 69.8126 53.5576 71.6736V74.3035C53.5576 75.5493 53.1122 76.8568 51.6683 76.8568H48.1352V71.2583H46V78.6864H51.6836C55.063 78.6864 55.7082 76.6259 55.7082 74.3035V71.6736C55.7236 68.6437 54.4025 67.521 51.3303 67.521Z" fill="black"/>
<path d="M66.1547 75.457C66.1547 76.6565 65.6168 76.9491 63.6354 76.9491C61.5617 76.9491 61.1469 76.6105 61.1469 75.457V67.521H59.0117V75.457C59.0117 78.5792 61.024 78.7794 63.6354 78.7794C66.3392 78.7794 68.2898 78.5634 68.2898 75.457V67.521H66.1547V75.457Z" fill="black"/>
<path d="M76.1392 72.133C73.9726 71.9946 73.6808 71.9485 73.6808 70.5797C73.6808 69.3954 74.0191 69.1801 76.1542 69.1801C77.6598 69.1801 78.1512 69.2262 78.1512 70.4258V70.7796H80.2862V70.4412C80.2862 67.5036 78.428 67.4268 76.1542 67.4268C73.4813 67.4268 71.5458 67.519 71.5458 70.5797C71.5458 73.8248 73.4505 73.7325 75.8624 73.8863C77.521 73.9787 78.3815 73.7633 78.3815 75.3628C78.3815 76.6547 78.1204 77.0237 76.1692 77.0237C74.1879 77.0237 73.635 76.9315 73.635 75.655V75.1322H71.5V75.655C71.5 78.8541 73.6966 78.7768 76.1692 78.7768C79.0424 78.7768 80.5323 78.5158 80.5323 75.3628C80.5165 72.5329 79.5795 72.3484 76.1392 72.133Z" fill="black"/>
<path d="M90.4702 75.3001C90.4702 76.8995 89.702 76.961 87.9661 76.961C85.7237 76.961 85.4469 76.5305 85.4319 74.3004V71.8242C85.4319 69.6403 85.8003 69.2712 87.9661 69.2712C89.8401 69.2712 90.3472 69.3635 90.3472 70.6554V71.2706H92.4822V70.6554C92.3291 67.4563 90.747 67.4409 87.9661 67.4409C84.6788 67.4409 83.2969 68.2407 83.2969 71.8242V74.3927C83.3427 77.6534 84.0336 78.9451 87.9661 78.8071C90.7313 78.6833 92.6517 78.8071 92.6052 75.4385V74.7157H90.4702V75.3001Z" fill="black"/>
<path d="M103.175 72.0888H97.9828V67.521H95.832V78.7022H97.9828V73.9344H103.175V78.7022H105.31V67.521H103.175V72.0888Z" fill="black"/>
<path d="M113.328 67.4268C109.779 67.4268 108.611 68.042 108.611 71.5024V74.517C108.611 78.1774 109.872 78.7768 113.328 78.7768C116.707 78.7768 118.089 78.0852 118.089 74.517V71.5178C118.089 67.9189 116.538 67.4268 113.328 67.4268ZM115.954 71.5178V74.5323C115.954 76.6854 115.278 76.9622 113.343 76.9622C111.208 76.9622 110.762 76.7469 110.762 74.5323V71.5178C110.809 69.7491 111.023 69.2723 113.343 69.2723C115.232 69.257 116.001 69.4108 115.954 71.5178Z" fill="black"/>
<path d="M123.543 67.521H121.393V78.7022H128.75V76.8568H123.543V67.521Z" fill="black"/>
<path d="M138.675 75.457C138.675 76.6565 138.137 76.9491 136.155 76.9491C134.081 76.9491 133.666 76.6105 133.666 75.457V67.521H131.531V75.457C131.531 78.5792 133.544 78.7794 136.155 78.7794C138.858 78.7794 140.81 78.5634 140.81 75.457V67.521H138.675V75.457Z" fill="black"/>
<path d="M150.425 72.9347L153.743 67.521H151.286L148.72 71.9657L146.125 67.521H143.62L147.031 72.9347L143.359 78.7022H145.894L148.72 73.9806L151.531 78.7022H154.005L150.425 72.9347Z" fill="black"/>
</g>
</svg>
