<svg viewBox="0 0 200 96" fill="none" xmlns="http://www.w3.org/2000/svg">
<g clip-path="url(#clip0_58352_1981)">
<path fill-rule="evenodd" clip-rule="evenodd" d="M95.4487 59.8049V48.5944H111.462V59.8049H115.415V35.6011H111.462V45.1647H95.4487V35.6015H91.4473V59.8049H95.4487ZM132.697 57.8246C133.088 59.7571 134.454 59.9986 135.87 59.9986C136.749 59.9986 137.774 59.8997 138.555 59.8049L138.702 59.7566V57.0488L138.457 57.1C138.114 57.1479 137.675 57.2425 137.334 57.2425C136.407 57.2425 136.017 56.8584 136.017 55.94V46.5194C136.017 42.0246 130.792 41.3477 127.667 41.3477C121.957 41.3477 119.124 43.3313 118.687 47.5802V47.7745H122.25V47.5802C122.348 45.3589 124.057 44.2975 127.522 44.2975C130.939 44.2975 132.452 45.1174 132.452 47.0024C132.452 48.3527 131.525 48.6933 129.572 48.935L125.715 49.319C120.152 49.9012 117.955 51.493 117.955 54.9739C117.955 56.6164 118.687 60.4306 125.325 60.4306C127.815 60.4306 131.084 59.6107 132.697 57.8246ZM130.452 56.1337C129.183 57.0009 127.474 57.484 125.618 57.484C123.274 57.484 121.664 56.4231 121.664 54.8753C121.664 53.283 122.738 52.5582 125.521 52.1699L129.328 51.6867C130.84 51.4934 131.817 51.3027 132.403 50.8673V52.7008C132.452 54.0549 131.721 55.2627 130.452 56.1337ZM160.618 57.1C160.278 57.1479 159.838 57.2425 159.497 57.2425C158.569 57.2425 158.177 56.8584 158.177 55.94V46.5194C158.177 42.0246 152.955 41.3477 149.83 41.3477C144.119 41.3477 141.288 43.3313 140.847 47.5802V47.7745H144.413V47.5802C144.509 45.3589 146.218 44.2975 149.685 44.2975C153.102 44.2975 154.615 45.1174 154.615 47.0024C154.615 48.3527 153.688 48.6933 151.735 48.935L147.877 49.319C142.312 49.9012 140.115 51.493 140.115 54.9739C140.115 56.6164 140.847 60.4306 147.489 60.4306C149.977 60.4306 153.296 59.6107 154.908 57.8246C155.298 59.7571 156.664 59.9986 158.08 59.9986C158.96 59.9986 159.985 59.8997 160.766 59.8049L160.913 59.7566V57.0488L160.618 57.1ZM154.567 52.7008C154.567 54.0076 153.834 55.2154 152.563 56.0825C151.295 56.9536 149.586 57.4367 147.733 57.4367C145.389 57.4367 143.776 56.3754 143.776 54.8269C143.776 53.2351 144.852 52.5105 147.634 52.1225L151.442 51.6394C152.955 51.4451 153.931 51.2515 154.516 50.8196L154.567 52.7008ZM161.742 53.9597V54.1501C162.035 58.3078 165.16 60.4306 170.969 60.4306C173.751 60.4306 175.995 59.9474 177.51 58.9334C179.168 57.8725 179.999 56.3246 179.999 54.2491C179.999 51.5437 177.999 49.9959 173.654 49.4181L168.869 48.7881C166.527 48.4518 166.087 47.8219 166.087 46.8083C166.087 45.9372 166.575 45.3116 167.503 44.8759C168.283 44.5391 169.357 44.3454 170.578 44.3454C174.238 44.3454 175.606 45.9372 175.703 47.4373V47.6281H179.463V47.4378C179.12 43.5217 175.995 41.3989 170.625 41.3989C168.136 41.3989 166.087 41.9298 164.622 42.9434C163.158 43.957 162.378 45.4541 162.378 47.2441C162.378 50.1427 164.867 51.7345 167.356 52.0751L172.921 52.7998C175.557 53.136 176.094 53.8608 176.094 54.9739C176.094 55.4569 175.947 56.1333 175.118 56.6647C174.238 57.2425 172.822 57.5319 170.87 57.5319C166.916 57.5319 165.499 55.7932 165.499 54.2014V54.0076H161.742V53.9597Z" fill="black"/>
<path fill-rule="evenodd" clip-rule="evenodd" d="M53.1754 21.585C38.6771 21.585 26.9613 33.227 26.9613 47.5778C26.9613 48.1087 26.9613 48.5918 27.0101 49.0749H23.593C23.3977 49.0749 23.3001 49.1696 23.2015 49.3165C23.1536 49.459 20.1275 54.7254 20.0284 54.8722C19.9806 55.0147 19.9806 55.0655 20.1275 55.0655H28.0831C31.3552 65.7427 41.3624 73.5194 53.2232 73.5194C67.7231 73.5194 79.4876 61.8774 79.4876 47.5266C79.4389 33.227 67.6742 21.585 53.1754 21.585ZM34.4291 55.066H41.4113L38.0425 60.8634C36.578 59.1725 35.3088 57.24 34.4291 55.066ZM53.1759 67.5757C47.6607 67.5757 42.6805 65.4017 39.0672 61.8774H44.7317C44.7317 61.8774 61.0338 33.4212 61.133 33.2747C61.23 33.1796 61.1817 33.0844 61.0338 33.0844H54.3963C54.2508 33.0844 54.2508 33.1323 54.2001 33.1796C54.1522 33.2747 44.9758 49.0749 44.9758 49.0749H33.0159C32.9652 48.5918 32.9652 48.0604 32.9652 47.5772C32.9652 36.5141 41.9961 27.5282 53.1759 27.5282C58.8884 27.5282 64.014 29.893 67.7231 33.6628C66.1121 36.3198 58.985 48.3503 58.0087 50.0885C57.4717 48.8334 54.8845 49.0749 53.5186 49.0272C52.9318 49.9933 50.247 55.066 50.247 55.066H53.0782C54.3963 55.066 54.5427 56.4162 54.0068 57.2878C53.4678 58.155 51.3703 61.8774 51.3703 61.8774H58.2533C58.2533 61.8774 66.6989 47.2851 71.4819 39.0243C72.7501 41.6341 73.4345 44.5327 73.4345 47.5778C73.4345 58.5903 64.3547 67.5757 53.1759 67.5757Z" fill="black"/>
</g>
<defs>
<clipPath id="clip0_58352_1981">
<rect width="160" height="52.8301" fill="white" transform="translate(20 21.585)"/>
</clipPath>
</defs>
</svg>
