<svg viewBox="0 0 200 96" fill="none" xmlns="http://www.w3.org/2000/svg">
<path fill-rule="evenodd" clip-rule="evenodd" d="M34.6288 28.2149C29.5612 29.0577 25.3451 31.2301 21.9493 34.7476C19.089 37.7106 17.2445 41.1705 16.344 45.2616C16.0559 46.5712 15.9971 47.3139 16.0001 49.6123C16.004 52.6238 16.2405 54.1342 17.09 56.5739C18.2933 60.029 21.2817 64.3879 23.2152 65.5084C23.8622 65.8833 24.1062 65.9332 25.2935 65.9332C26.5695 65.9332 26.6794 65.9059 27.4249 65.4043C28.7685 64.5006 29.4467 63.1169 29.2891 61.6009C29.184 60.5887 28.876 60.0056 27.8115 58.8031C25.1481 55.7943 24.0637 52.8116 24.2222 48.9306C24.3133 46.6994 24.7356 45.1374 25.7581 43.2496C28.155 38.8238 32.7195 36.1398 37.8494 36.1398C45.7667 36.1398 51.9568 42.6432 51.4676 50.4474C51.2847 53.3668 50.1779 56.0265 48.1543 58.41C46.7184 60.1012 46.4715 60.5861 46.392 61.8711C46.2109 64.7963 48.9952 66.7514 51.904 65.7415C53.9111 65.0446 57.3285 60.2972 58.6335 56.393C60.4391 50.9909 59.9908 44.9583 57.4079 39.9027C53.6683 32.5829 45.9253 27.9268 37.6151 28.0009C36.6271 28.0096 35.2833 28.1059 34.6288 28.2149ZM76.9745 35.5137C75.1065 36.0739 73.9603 37.8053 74.2401 39.6445C74.5504 41.6846 76.1669 42.9145 78.5374 42.9145C81.1553 42.9145 82.8224 41.4387 82.7988 39.1422C82.7743 36.7572 81.1222 35.3479 78.3918 35.3832C77.8277 35.3904 77.1898 35.4492 76.9745 35.5137ZM100.577 44.9288C99.1773 45.1997 97.9066 45.94 96.6401 47.2226L95.4407 48.4371L95.1648 47.725C94.7898 46.7569 93.847 45.7913 92.8741 45.3788C92.1808 45.0847 91.8573 45.0452 90.5739 45.0974C89.5038 45.1408 88.9032 45.2438 88.4556 45.4606L87.8308 45.763L87.7905 54.38C87.7465 63.7579 87.7709 64.0732 88.6176 65.0651C89.2626 65.8208 90.1112 66.0464 92.081 65.9858C93.6263 65.9383 93.8509 65.8936 94.4231 65.5199C94.8201 65.2606 95.1939 64.8303 95.4263 64.3651C95.7913 63.6342 95.7973 63.5471 95.8433 58.2562C95.8816 53.8531 95.9311 52.8269 96.1193 52.5439C96.6341 51.7694 98.5878 51.0818 99.6316 51.3078C100.207 51.4322 101.145 52.2061 101.391 52.7591C101.504 53.0127 101.596 55.0236 101.649 58.3886C101.727 63.3358 101.751 63.6632 102.07 64.3437C102.293 64.8212 102.632 65.2104 103.073 65.4985C103.716 65.9179 103.809 65.9332 105.715 65.9332C107.596 65.9332 107.72 65.9136 108.324 65.5199C108.722 65.2603 109.095 64.8311 109.327 64.3651C109.694 63.6309 109.698 63.5676 109.744 57.8814C109.781 53.3216 109.742 51.8649 109.557 50.8058C109.006 47.6601 107.141 45.571 104.366 44.9914C103.194 44.7466 101.65 44.7211 100.577 44.9288ZM127.894 44.8686C126.006 45.18 124.339 46.2004 122.946 47.8972L122.457 48.4918L122.125 47.7517C121.65 46.692 121.141 46.0932 120.286 45.5887C119.589 45.1774 119.425 45.1471 117.898 45.1471C116.678 45.1471 116.066 45.2199 115.511 45.431L114.765 45.7149L114.808 54.8232C114.851 63.6133 114.863 63.9499 115.164 64.4541C115.336 64.7416 115.745 65.1903 116.073 65.4514C116.638 65.9016 116.752 65.9292 118.297 65.9855C119.192 66.0182 120.174 65.9991 120.477 65.943C121.202 65.8089 122.088 65.0258 122.491 64.1625C122.795 63.5112 122.818 63.1445 122.869 58.0423L122.923 52.6148L123.495 52.1475C124.704 51.1606 126.502 51.0045 127.554 51.7953C128.548 52.5425 128.579 52.7312 128.67 58.6196C128.76 64.3453 128.766 64.3918 129.639 65.1944C130.308 65.8105 131.06 66.0105 132.692 66.0068C134.437 66.0029 135.219 65.7467 135.892 64.9582C136.694 64.0192 136.719 63.7788 136.714 57.3108C136.709 52.1802 136.669 51.1546 136.443 50.2666C135.921 48.2277 134.881 46.7088 133.354 45.759C132.145 45.0065 129.586 44.5893 127.894 44.8686ZM149.273 45.0539C145.442 45.8792 142.743 48.2853 141.312 52.1528C140.979 53.053 140.941 53.4087 140.939 55.6941C140.936 58.491 141.072 59.1762 142.004 61.0695C144.102 65.3313 149.863 67.3231 156.3 66.0122C159.542 65.3521 161.476 63.7074 161.475 61.6118C161.475 60.148 160.554 59.1197 158.863 58.6944L157.891 58.4497L156.982 59.3656C156.213 60.1399 155.909 60.3314 155.009 60.6052C153.578 61.0409 151.652 61.0461 150.49 60.6175C149.239 60.156 148.24 59.0795 147.82 57.7388L147.712 57.397L154.738 57.3539L161.763 57.3108L162.159 56.9434C162.681 56.4601 162.813 55.5372 162.603 53.8502C162.153 50.2528 160.223 47.4522 157.18 45.9841C155.494 45.1706 154.377 44.9038 152.338 44.8278C151.041 44.7794 150.29 44.8347 149.273 45.0539ZM177.898 45.0598C176.485 45.5781 175.347 46.6628 174.88 47.9372C174.775 48.2234 174.65 48.4572 174.603 48.4569C174.556 48.4565 174.381 48.1284 174.214 47.7278C173.797 46.7295 172.873 45.7882 171.907 45.3788C171.214 45.0847 170.891 45.0452 169.607 45.0974C168.537 45.1408 167.936 45.2438 167.489 45.4606L166.864 45.763L166.821 53.9234C166.797 58.5353 166.843 62.4982 166.927 63.0368C167.129 64.3368 167.5 65.0382 168.243 65.5235C168.812 65.8953 169.033 65.938 170.626 65.9846C172.669 66.0444 173.497 65.7929 174.161 64.9122C174.834 64.0198 174.908 63.5391 174.911 60.0209C174.915 56.1759 175.044 55.0524 175.613 53.905C176.066 52.9918 176.855 52.4232 177.925 52.2381C178.724 52.1 180.074 52.3934 180.764 52.8549C181.073 53.0615 181.431 53.2306 181.56 53.2306C181.988 53.2306 183.297 51.8605 183.657 51.0359C183.918 50.4374 184.004 49.9453 184 49.0674C183.988 46.452 182.559 44.9637 179.917 44.8181C178.999 44.7674 178.548 44.8214 177.898 45.0598ZM76.1898 45.4165C75.4353 45.7924 74.8823 46.4839 74.6351 47.3615C74.4241 48.1104 74.4241 62.9699 74.6351 63.7188C74.8823 64.5964 75.4353 65.2879 76.1898 65.6637C76.7774 65.9563 77.136 66.0102 78.4976 66.0102C79.9067 66.0102 80.2024 65.9624 80.8464 65.6311C82.5731 64.7428 82.6259 64.4184 82.5675 55.0431C82.5247 48.1475 82.4948 47.4011 82.241 46.8465C81.5992 45.4441 80.8336 45.0783 78.5315 45.0735C77.1304 45.0706 76.782 45.1217 76.1898 45.4165ZM36.374 45.7981C35.3918 46.1399 34.2924 47.2713 33.9474 48.295C32.7937 51.7189 36.5241 54.8245 39.7904 53.1594C40.3694 52.8643 41.3409 51.7791 41.6375 51.0965C41.7713 50.7883 41.883 50.113 41.8858 49.5958C41.895 47.8676 40.8084 46.347 39.1276 45.7362C38.4334 45.4838 37.1968 45.5117 36.374 45.7981ZM152.976 50.0695C154.287 50.4532 155.384 51.8559 155.384 53.1487V53.6925H151.635H147.887V53.2608C147.887 52.6164 148.619 51.2915 149.267 50.7616C150.297 49.9213 151.624 49.6735 152.976 50.0695ZM36.4635 56.69C35.2567 57.114 34.1777 58.2497 33.8533 59.4373C33.7529 59.8048 33.7062 61.0882 33.7379 62.609C33.7993 65.5515 33.9344 65.9628 35.2006 67.0615C36.1159 67.8557 36.7512 68.0598 38.0775 67.9859C39.343 67.9156 40.3637 67.3744 41.1513 66.3565C41.8465 65.4582 42.0336 64.4064 41.9647 61.7878C41.9118 59.7734 41.876 59.5566 41.4596 58.718C40.9955 57.7835 40.1488 57.0394 39.1276 56.6681C38.4507 56.4221 37.1966 56.4324 36.4635 56.69Z" fill="black"/>
</svg>
