<svg viewBox="0 0 200 96" fill="none" xmlns="http://www.w3.org/2000/svg">
<path d="M36 34.5498V62.136H48.1176L59.0167 44.6365V62.136H66.328L76.4145 45.2289V62.136H82.9979V32.7559H76.0422L65.8543 50.1368V32.7559H58.6613L42.7189 58.5312V34.5498H36Z" fill="black"/>
<path d="M104.254 41.895C104.254 45.0598 103.323 47.4799 101.478 49.1554C99.6339 50.8309 96.994 51.6771 93.5922 51.6771H91.0871V62.1361H85.2656V32.7222H94.0492C97.3829 32.7222 99.9214 33.4838 101.648 35.0238C103.374 36.5639 104.254 38.8487 104.254 41.895ZM90.9857 45.5336H92.9317C94.743 45.5336 96.1133 45.1952 97.0107 44.5351C97.9073 43.8751 98.3643 42.8935 98.3643 41.6242C98.3643 40.338 97.992 39.3903 97.2308 38.7641C96.4689 38.1548 95.2841 37.8332 93.6763 37.8332H90.9857V45.5336Z" fill="black"/>
<path d="M120.807 62.2208H104.188V32.7222H120.807V37.8502H110.314V44.332H120.079V49.46H110.314V57.0758H120.807V62.2208Z" fill="black"/>
<path d="M135.447 39.9839C134.939 39.2223 134.262 38.6131 133.449 38.1561C132.62 37.6991 131.841 37.4791 131.063 37.4791C130.674 37.4791 130.268 37.5129 129.861 37.5976C129.455 37.6822 129.083 37.8345 128.761 38.0715C128.44 38.3084 128.169 38.6131 127.949 38.9684C127.729 39.3408 127.61 39.8146 127.61 40.3901C127.61 40.8809 127.695 41.287 127.865 41.6255C128.033 41.947 128.288 42.2348 128.626 42.4886C128.965 42.7425 129.354 42.9625 129.827 43.1656C130.284 43.3687 130.809 43.5887 131.384 43.8087C132.214 44.1303 133.094 44.5026 133.991 44.8919C134.888 45.2811 135.717 45.8227 136.462 46.4658C137.207 47.1258 137.816 47.9382 138.307 48.9029C138.797 49.8675 139.035 51.0861 139.035 52.5415C139.035 54.217 138.78 55.6555 138.256 56.8741C137.731 58.0926 137.037 59.0911 136.157 59.8865C135.277 60.682 134.262 61.2743 133.128 61.6467C131.994 62.0359 130.826 62.2221 129.625 62.2221C127.865 62.2221 126.155 61.8667 124.514 61.1389C122.872 60.4112 121.501 59.3788 120.418 58.0418L124.31 53.3708C124.92 54.2509 125.698 54.9786 126.696 55.5709C127.678 56.1632 128.66 56.451 129.641 56.451C130.082 56.451 130.504 56.4002 130.927 56.2817C131.351 56.1802 131.706 55.994 132.028 55.7401C132.332 55.4863 132.586 55.1647 132.772 54.7586C132.958 54.3524 133.043 53.8616 133.043 53.2862C133.043 52.7446 132.925 52.2707 132.688 51.8984C132.451 51.5092 132.129 51.1707 131.689 50.8491C131.266 50.5275 130.725 50.2399 130.098 49.986C129.455 49.7321 128.745 49.4444 127.932 49.1398C127.137 48.8351 126.375 48.4798 125.614 48.0736C124.852 47.6674 124.192 47.1427 123.6 46.4996C123.007 45.8566 122.533 45.078 122.178 44.1641C121.822 43.2502 121.636 42.1332 121.636 40.8132C121.636 39.2053 121.907 37.8176 122.465 36.6667C123.024 35.5159 123.752 34.5682 124.649 33.8405C125.546 33.0958 126.578 32.5542 127.712 32.2158C128.846 31.8773 129.997 31.708 131.148 31.708C132.535 31.708 133.957 32.0126 135.413 32.605C136.868 33.2143 138.137 34.0943 139.221 35.279L135.447 39.9839Z" fill="black"/>
<path d="M156.973 62.2204L154.959 56.4155H144.923L143.011 62.2204H136.207L147.089 32.6372H153.165L163.929 62.2204H156.973ZM150.017 40.5407L146.717 50.6951H153.232L150.017 40.5407Z" fill="black"/>
<path d="M42.4644 25.9531L36.2363 32.1812H42.532L42.4644 25.9531Z" fill="black"/>
</svg>
