<svg viewBox="0 0 200 96" fill="none" xmlns="http://www.w3.org/2000/svg">
<path fill-rule="evenodd" clip-rule="evenodd" d="M162.019 27.684C161.723 27.532 161.388 27.4561 161.014 27.4561C160.633 27.4561 160.294 27.532 159.999 27.684C159.703 27.836 159.472 28.0474 159.304 28.3183C159.136 28.5893 159.053 28.8965 159.053 29.2401C159.053 29.5903 159.136 29.9009 159.304 30.1718C159.472 30.4427 159.703 30.6541 159.999 30.8061C160.294 30.9581 160.633 31.034 161.014 31.034C161.388 31.034 161.725 30.9581 162.024 30.8061C162.323 30.6541 162.555 30.4427 162.719 30.1718C162.883 29.9009 162.965 29.5903 162.965 29.2401C162.965 28.8965 162.881 28.5893 162.714 28.3183C162.546 28.0474 162.315 27.836 162.019 27.684ZM131.577 35.8252C132.28 36.2117 133.117 36.5702 134.09 36.9005C134.773 37.1318 135.287 37.3432 135.632 37.5349C135.977 37.7265 136.209 37.9198 136.327 38.1147C136.445 38.3096 136.504 38.5491 136.504 38.8333C136.504 39.1636 136.368 39.4428 136.095 39.6708C135.823 39.8987 135.4 40.0127 134.829 40.0127C134.277 40.0127 133.827 39.9483 133.479 39.8194C133.13 39.6906 132.869 39.4709 132.695 39.1603C132.521 38.8498 132.434 38.4269 132.434 37.8917H128.738C128.738 39.0282 129.027 39.9731 129.606 40.7263C130.184 41.4796 130.934 42.033 131.857 42.3865C132.781 42.74 133.771 42.9167 134.829 42.9167C135.913 42.9167 136.856 42.7581 137.657 42.441C138.459 42.1238 139.08 41.658 139.52 41.0435C139.96 40.429 140.18 39.6856 140.18 38.8134C140.18 37.6241 139.775 36.6462 138.963 35.8797C138.152 35.1132 136.954 34.4723 135.371 33.9569C134.51 33.6727 133.871 33.4018 133.454 33.1441C133.037 32.8864 132.828 32.5759 132.828 32.2125C132.828 31.9944 132.901 31.7945 133.045 31.6128C133.19 31.4311 133.403 31.2841 133.686 31.1718C133.968 31.0595 134.307 31.0033 134.701 31.0033C135.292 31.0033 135.744 31.147 136.056 31.4344C136.368 31.7219 136.524 32.1101 136.524 32.599H140.19C140.19 31.6607 139.959 30.853 139.495 30.1757C139.032 29.4984 138.393 28.9814 137.578 28.6246C136.764 28.2678 135.834 28.0894 134.789 28.0894C133.718 28.0894 132.756 28.2545 131.902 28.5849C131.048 28.9153 130.379 29.3877 129.896 30.0022C129.413 30.6168 129.172 31.3403 129.172 32.1728C129.172 33.0186 129.397 33.7421 129.847 34.3434C130.297 34.9447 130.874 35.4386 131.577 35.8252ZM72.7004 38.09V28.2877H69.0342V38.09C69.0342 38.6649 68.9192 39.1158 68.6893 39.4429C68.4593 39.77 68.1308 39.9335 67.7037 39.9335C67.3884 39.9335 67.137 39.8873 66.9498 39.7948C66.7625 39.7023 66.6213 39.5338 66.526 39.2893C66.4307 39.0448 66.3831 38.6979 66.3831 38.2486H62.6972C62.6972 39.2926 62.9075 40.1631 63.328 40.8602C63.7485 41.5573 64.3332 42.0744 65.0822 42.4114C65.8312 42.7484 66.705 42.9169 67.7037 42.9169C68.6301 42.9169 69.4744 42.7153 70.2365 42.3123C70.9987 41.9092 71.5999 41.341 72.0401 40.6075C72.4803 39.8741 72.7004 39.0349 72.7004 38.09ZM83.6891 41.566C83.6169 41.2058 83.5807 40.6525 83.5807 39.9058V35.6935C83.5807 34.8543 83.3869 34.1424 82.9993 33.5576C82.6116 32.9728 82.0778 32.5334 81.3978 32.2394C80.7178 31.9453 79.9441 31.7983 79.0769 31.7983C78.1242 31.7983 77.2898 31.9486 76.5736 32.2493C75.8574 32.5499 75.3056 32.9728 74.9179 33.5179C74.5303 34.0631 74.3364 34.6891 74.3364 35.3961H77.8647C77.8647 35.0261 77.9484 34.7602 78.116 34.5983C78.2835 34.4364 78.5414 34.3555 78.8896 34.3555C79.2904 34.3555 79.5811 34.4678 79.7618 34.6924C79.9425 34.9171 80.0328 35.2442 80.0328 35.6737V36.1692H79.1163C77.408 36.1692 76.1416 36.4748 75.3171 37.086C74.4925 37.6972 74.0802 38.5645 74.0802 39.6878C74.0802 40.3155 74.2445 40.8755 74.573 41.3677C74.9015 41.86 75.3417 42.2416 75.8936 42.5125C76.4455 42.7834 77.0434 42.9189 77.6873 42.9189C78.3049 42.9189 78.8108 42.8214 79.205 42.6265C79.5992 42.4315 79.9376 42.1557 80.2201 41.7989C80.3055 42.1821 80.404 42.4894 80.5157 42.7206H84.0341V42.5521C83.8764 42.2548 83.7614 41.9261 83.6891 41.566ZM78.5653 40.33C78.9201 40.33 79.224 40.2655 79.477 40.1367C79.7299 40.0078 79.9155 39.8443 80.0338 39.6461V38.0801H79.0384C78.5259 38.0801 78.1596 38.2238 77.9395 38.5112C77.7194 38.7987 77.6094 39.1406 77.6094 39.537C77.6094 39.7749 77.7014 39.9665 77.8853 40.1119C78.0693 40.2573 78.296 40.33 78.5653 40.33ZM99.9645 32.7845C99.383 32.1271 98.5765 31.7983 97.545 31.7983C96.8617 31.7983 96.2605 31.9371 95.7415 32.2146C95.2224 32.4921 94.7921 32.8919 94.4504 33.4139C93.9839 32.3369 93.0904 31.7983 91.7698 31.7983C91.1193 31.7983 90.5395 31.9272 90.0303 32.1849C89.5211 32.4426 89.0891 32.8093 88.7343 33.285L88.6062 31.9966H85.3047V42.7206H88.8329V35.4259C88.9906 35.1814 89.1828 34.9914 89.4094 34.856C89.6361 34.7205 89.8841 34.6528 90.1535 34.6528C90.4295 34.6528 90.6463 34.6858 90.804 34.7519C90.9616 34.818 91.0832 34.9534 91.1686 35.1583C91.254 35.3631 91.2967 35.6737 91.2967 36.09V42.7206H94.8348V35.4061C95.137 34.9039 95.5805 34.6528 96.1652 34.6528C96.4281 34.6528 96.6383 34.6891 96.796 34.7618C96.9537 34.8345 97.0752 34.9733 97.1606 35.1781C97.246 35.3829 97.2887 35.6803 97.2887 36.0701V42.7206H100.837V36.0602C100.837 34.5339 100.546 33.442 99.9645 32.7845ZM112.418 38.548H105.943C106.081 39.0237 106.339 39.3921 106.717 39.6531C107.095 39.9141 107.563 40.0446 108.121 40.0446C108.594 40.0446 109.043 39.9653 109.467 39.8067C109.89 39.6481 110.25 39.3904 110.546 39.0336L112.113 41.1051C111.876 41.4223 111.553 41.7179 111.142 41.9922C110.731 42.2664 110.247 42.4894 109.688 42.6612C109.13 42.833 108.529 42.9189 107.885 42.9189C106.742 42.9189 105.746 42.681 104.899 42.2053C104.051 41.7295 103.406 41.0935 102.962 40.2973C102.519 39.5011 102.297 38.6372 102.297 37.7055V37.3388C102.297 36.3014 102.487 35.3648 102.868 34.5289C103.25 33.6931 103.831 33.029 104.613 32.5367C105.395 32.0445 106.361 31.7983 107.51 31.7983C108.509 31.7983 109.378 32.0065 110.117 32.4228C110.856 32.839 111.425 33.4403 111.822 34.2266C112.22 35.0129 112.418 35.9479 112.418 37.0315V38.548ZM107.479 34.6719C108.504 34.6719 109.003 35.1179 108.977 36.0099V36.2973H105.902C105.981 35.7952 106.142 35.3987 106.385 35.108C106.628 34.8172 106.993 34.6719 107.479 34.6719ZM117.1 38.6273C115.976 38.3828 115.073 37.9847 114.389 37.4329C113.706 36.8812 113.364 36.156 113.364 35.2574C113.364 34.6297 113.54 34.0532 113.892 33.5279C114.243 33.0026 114.754 32.583 115.424 32.2691C116.094 31.9553 116.889 31.7983 117.809 31.7983C118.768 31.7983 119.608 31.9437 120.327 32.2344C121.047 32.5252 121.6 32.9365 121.988 33.4684C122.375 34.0003 122.569 34.6198 122.569 35.3268H119.031C119.031 34.9171 118.941 34.6247 118.76 34.4496C118.579 34.2745 118.259 34.187 117.799 34.187C117.497 34.187 117.236 34.263 117.016 34.4149C116.796 34.5669 116.686 34.7783 116.686 35.0493C116.686 35.5713 117.247 35.9215 118.371 36.0999C119.172 36.2254 119.874 36.4088 120.475 36.6499C121.076 36.8911 121.569 37.2496 121.953 37.7253C122.338 38.2011 122.53 38.8189 122.53 39.5787C122.53 40.2131 122.336 40.783 121.948 41.2885C121.561 41.7939 121.009 42.192 120.293 42.4828C119.577 42.7735 118.745 42.9189 117.799 42.9189C116.814 42.9189 115.961 42.7388 115.242 42.3787C114.522 42.0186 113.974 41.5561 113.596 40.9911C113.218 40.4262 113.029 39.8497 113.029 39.2616H116.311C116.324 39.6779 116.469 39.9917 116.745 40.2032C117.021 40.4146 117.405 40.5203 117.898 40.5203C118.299 40.5203 118.606 40.4427 118.819 40.2874C119.033 40.1321 119.14 39.9223 119.14 39.658C119.14 39.4995 119.079 39.3657 118.957 39.2566C118.836 39.1476 118.632 39.0452 118.346 38.9494C118.06 38.8536 117.645 38.7462 117.1 38.6273ZM154.018 31.7983C155.049 31.7983 155.856 32.1271 156.437 32.7845C157.019 33.442 157.309 34.5339 157.309 36.0602V42.7206H153.761V36.0701C153.761 35.6803 153.719 35.3829 153.633 35.1781C153.548 34.9733 153.426 34.8345 153.269 34.7618C153.111 34.6891 152.901 34.6528 152.638 34.6528C152.053 34.6528 151.61 34.9039 151.307 35.4061V42.7206H147.769V36.09C147.769 35.6737 147.727 35.3631 147.641 35.1583C147.556 34.9534 147.434 34.818 147.277 34.7519C147.119 34.6858 146.902 34.6528 146.626 34.6528C146.357 34.6528 146.109 34.7205 145.882 34.856C145.655 34.9914 145.463 35.1814 145.306 35.4259V42.7206H141.777V31.9966H145.079L145.207 33.285C145.562 32.8093 145.994 32.4426 146.503 32.1849C147.012 31.9272 147.592 31.7983 148.242 31.7983C149.563 31.7983 150.457 32.3369 150.923 33.4139C151.265 32.8919 151.695 32.4921 152.214 32.2146C152.733 31.9371 153.334 31.7983 154.018 31.7983ZM159.26 42.7206V31.9965H162.808V42.7206H159.26ZM170.682 39.9744C170.524 40.0008 170.249 40.014 169.854 40.014C169.565 40.014 169.345 39.9826 169.194 39.9198C169.043 39.8571 168.938 39.7514 168.879 39.6027C168.82 39.454 168.79 39.2442 168.79 38.9733V34.5628H170.505V31.9957H168.79V29.2998H165.252V31.9957H163.99V34.5628H165.252V39.5184C165.252 40.688 165.546 41.547 166.134 42.0954C166.722 42.6438 167.591 42.918 168.741 42.918C169.45 42.918 170.097 42.8156 170.682 42.6108V39.9744ZM177.816 31.7966C178.94 31.7966 179.82 32.1435 180.457 32.8373C181.095 33.5311 181.413 34.6412 181.413 36.1675V42.7189H177.865V36.1477C177.865 35.5729 177.747 35.1797 177.511 34.9683C177.274 34.7568 176.916 34.6511 176.436 34.6511C175.839 34.6511 175.408 34.8097 175.145 35.1269V42.7189H171.617V27.4951H175.145V33.1248C175.48 32.7019 175.875 32.3748 176.328 32.1435C176.781 31.9123 177.277 31.7966 177.816 31.7966ZM66.9547 61.8219H71.567L72.2963 64.2106H76.2581L70.9954 49.7797H67.5066L62.2734 64.2106H66.2254L66.9547 61.8219ZM70.6505 58.8298L69.251 54.2706L67.8614 58.8298H70.6505ZM85.6209 62.458C86.0085 61.8303 86.199 61.0969 86.1925 60.2577H82.8811C82.8942 60.674 82.7891 60.9912 82.5657 61.2092C82.3423 61.4273 82.0105 61.5363 81.5703 61.5363C81.1695 61.5363 80.8673 61.4306 80.6636 61.2191C80.46 61.0077 80.3253 60.7202 80.2596 60.3568C80.1939 59.9934 80.161 59.521 80.161 58.9395V58.771C80.161 58.2028 80.1939 57.7353 80.2596 57.3686C80.3253 57.0018 80.4583 56.7095 80.6587 56.4914C80.8591 56.2734 81.1564 56.1643 81.5506 56.1643C82.004 56.1643 82.3423 56.3064 82.5657 56.5905C82.7891 56.8746 82.8942 57.248 82.8811 57.7105H86.1925C86.199 56.7722 86.0118 55.9711 85.6307 55.307C85.2496 54.6429 84.7142 54.1408 84.0243 53.8005C83.3344 53.4602 82.5394 53.29 81.6393 53.29C80.5618 53.29 79.6469 53.5213 78.8946 53.9838C78.1423 54.4464 77.5773 55.0906 77.1995 55.9165C76.8217 56.7425 76.6328 57.694 76.6328 58.771V58.9395C76.6328 60.0165 76.8217 60.9664 77.1995 61.789C77.5773 62.6117 78.144 63.2542 78.8995 63.7168C79.6551 64.1793 80.5749 64.4106 81.659 64.4106C82.5329 64.4106 83.3147 64.2421 84.0046 63.9051C84.6945 63.5681 85.2332 63.0858 85.6209 62.458ZM96.5005 61.3975C96.5005 62.1442 96.5367 62.6976 96.6089 63.0577C96.6812 63.4178 96.7962 63.7465 96.9539 64.0438V64.2123H93.4355C93.3238 63.9811 93.2253 63.6738 93.1399 63.2906C92.8573 63.6474 92.519 63.9233 92.1248 64.1182C91.7305 64.3131 91.2246 64.4106 90.607 64.4106C89.9632 64.4106 89.3653 64.2751 88.8134 64.0042C88.2615 63.7333 87.8213 63.3517 87.4928 62.8594C87.1643 62.3672 87 61.8072 87 61.1795C87 60.0562 87.4123 59.1889 88.2368 58.5777C89.0614 57.9665 90.3278 57.6609 92.0361 57.6609H92.9526V57.1654C92.9526 56.7359 92.8623 56.4088 92.6816 56.1842C92.5009 55.9595 92.2102 55.8472 91.8094 55.8472C91.4612 55.8472 91.2033 55.9281 91.0358 56.09C90.8682 56.2519 90.7844 56.5178 90.7844 56.8879H87.2562C87.2562 56.1808 87.4501 55.5548 87.8377 55.0097C88.2253 54.4645 88.7772 54.0417 89.4934 53.741C90.2096 53.4404 91.044 53.29 91.9966 53.29C92.8639 53.29 93.6376 53.4371 94.3176 53.7311C94.9976 54.0251 95.5314 54.4645 95.9191 55.0493C96.3067 55.6341 96.5005 56.346 96.5005 57.1852V61.3975ZM92.3969 61.6284C92.1439 61.7572 91.8401 61.8217 91.4853 61.8217C91.2159 61.8217 90.9892 61.749 90.8052 61.6036C90.6213 61.4582 90.5293 61.2666 90.5293 61.0287C90.5293 60.6323 90.6393 60.2904 90.8595 60.0029C91.0796 59.7155 91.4458 59.5718 91.9583 59.5718H92.9537V61.1378C92.8354 61.336 92.6498 61.4995 92.3969 61.6284ZM107.786 48.9868V64.2106H104.613L104.436 63.0213C103.759 63.9463 102.911 64.4089 101.893 64.4089C101.006 64.4089 100.255 64.1776 99.6409 63.7151C99.0266 63.2525 98.5634 62.6116 98.2513 61.7923C97.9392 60.9729 97.7832 60.0347 97.7832 58.9775V58.7693C97.7832 57.6658 97.9376 56.7028 98.2464 55.8802C98.5552 55.0575 99.0184 54.4199 99.636 53.9673C100.254 53.5146 101.012 53.2883 101.913 53.2883C102.832 53.2883 103.608 53.665 104.238 54.4182V48.9868H107.786ZM103.661 61.3461C103.415 61.4849 103.124 61.5543 102.789 61.5543C102.244 61.5543 101.861 61.3279 101.641 60.8753C101.421 60.4227 101.311 59.79 101.311 58.9773V58.7692C101.311 57.0182 101.81 56.1427 102.809 56.1427C103.498 56.1427 103.975 56.4202 104.238 56.9752V60.7514C104.1 61.0091 103.907 61.2074 103.661 61.3461ZM119.336 60.0397H112.861C112.999 60.5154 113.257 60.8838 113.635 61.1448C114.013 61.4058 114.481 61.5363 115.039 61.5363C115.512 61.5363 115.961 61.457 116.385 61.2984C116.808 61.1398 117.168 60.8821 117.464 60.5253L119.031 62.5968C118.794 62.914 118.471 63.2096 118.06 63.4839C117.649 63.7581 117.165 63.9811 116.606 64.1529C116.048 64.3247 115.447 64.4106 114.803 64.4106C113.66 64.4106 112.664 64.1727 111.817 63.6969C110.969 63.2212 110.324 62.5852 109.88 61.789C109.437 60.9928 109.215 60.1289 109.215 59.1972V58.8305C109.215 57.7931 109.405 56.8565 109.786 56.0206C110.168 55.1848 110.749 54.5207 111.531 54.0284C112.313 53.5362 113.279 53.29 114.428 53.29C115.427 53.29 116.296 53.4982 117.035 53.9145C117.774 54.3307 118.343 54.932 118.74 55.7183C119.138 56.5046 119.336 57.4396 119.336 58.5232V60.0397ZM114.399 56.1641C115.424 56.1641 115.923 56.6101 115.897 57.5021V57.7895H112.822C112.901 57.2873 113.062 56.8909 113.305 56.6002C113.548 56.3094 113.913 56.1641 114.399 56.1641ZM132.838 53.29C133.869 53.29 134.676 53.6188 135.257 54.2762C135.839 54.9337 136.13 56.0256 136.13 57.5519V64.2123H132.582V57.5618C132.582 57.172 132.539 56.8746 132.454 56.6698C132.368 56.465 132.247 56.3262 132.089 56.2535C131.931 56.1808 131.721 56.1445 131.458 56.1445C130.873 56.1445 130.43 56.3956 130.128 56.8978V64.2123H126.59V57.5817C126.59 57.1654 126.547 56.8548 126.462 56.65C126.376 56.4452 126.255 56.3097 126.097 56.2436C125.939 56.1775 125.722 56.1445 125.446 56.1445C125.177 56.1445 124.929 56.2122 124.702 56.3477C124.476 56.4831 124.284 56.6731 124.126 56.9176V64.2123H120.598V53.4883H123.899L124.027 54.7767C124.382 54.301 124.814 53.9343 125.323 53.6766C125.832 53.4189 126.412 53.29 127.063 53.29C128.383 53.29 129.277 53.8286 129.743 54.9056C130.085 54.3836 130.515 53.9838 131.034 53.7063C131.553 53.4288 132.155 53.29 132.838 53.29ZM143.471 65.7984L147.758 53.4885H143.974L142.308 59.1974L140.732 53.4885H136.947L140.663 64.3513L140.406 64.9955C140.314 65.2202 140.16 65.392 139.943 65.5109C139.726 65.6299 139.378 65.6893 138.899 65.6893L138.465 65.6992V68.3357C138.826 68.4348 139.073 68.4942 139.204 68.5141C139.335 68.5339 139.565 68.5438 139.894 68.5438C140.663 68.5438 141.29 68.4017 141.776 68.1176C142.262 67.8335 142.624 67.4998 142.86 67.1166C143.097 66.7333 143.301 66.2939 143.471 65.7984Z" fill="black"/>
<path d="M20.8782 56.3609C22.7315 58.3936 25.1619 59.937 28.0048 60.704C35.9719 62.8535 44.1614 58.0913 46.2967 50.0674C48.432 42.0435 49.0865 37.4904 49.0865 37.4904" stroke="black" stroke-width="10.4"/>
</svg>
