<svg viewBox="0 0 200 96" fill="none" xmlns="http://www.w3.org/2000/svg">
<mask id="mask0_58352_1863" style="mask-type:luminance" maskUnits="userSpaceOnUse" x="31" y="17" width="139" height="63">
<path d="M169.094 17H31V79.0016H169.094V17Z" fill="white"/>
</mask>
<g mask="url(#mask0_58352_1863)">
<path d="M122.326 22.877C120.623 19.2847 116.986 16.9988 112.999 16.9988C109.875 16.9988 106.914 18.4217 104.956 20.8477L104.723 21.1275L104.443 20.8943C98.7304 16.1357 90.5469 15.6925 84.3221 19.7979C78.0966 23.9034 75.3227 31.6011 77.4674 38.739C79.6121 45.8769 86.1871 50.7521 93.6477 50.7754C101.551 50.7521 108.383 45.2704 110.132 37.5727L110.225 37.2228L110.575 37.3161C114.445 38.2724 118.502 36.8962 121.02 33.8171C123.538 30.7147 124.051 26.4693 122.326 22.877ZM103.114 43.8708H93.6477C88.8454 43.8708 84.718 40.4652 83.8092 35.7299C82.9228 31.018 85.5114 26.3293 89.9642 24.5566C94.441 22.8071 99.523 24.4632 102.088 28.5454C104.653 32.6042 103.953 37.9226 100.433 41.1883L103.114 43.8708ZM118.338 28.3121C117.849 30.878 115.61 32.7208 112.999 32.7208H107.847L109.292 31.2746C107.38 29.5018 107.008 26.6092 108.383 24.4166C109.782 22.2006 112.533 21.3142 114.958 22.2472C117.406 23.2036 118.828 25.7462 118.338 28.3121Z" fill="black"/>
<path d="M34.2641 52.4316H31V72.0025H34.2641V52.4316Z" fill="black"/>
<path d="M37.4814 60.2219C36.2456 61.6448 35.5929 63.4875 35.6628 65.377C35.5695 67.2665 36.2456 69.1326 37.5047 70.5321C38.787 71.8385 40.5589 72.5382 42.3775 72.4683C43.0303 72.4683 43.6831 72.3982 44.3359 72.235C44.9421 72.095 45.525 71.8618 46.0379 71.5352C46.5742 71.2086 47.0638 70.7887 47.4835 70.3222C47.9031 69.879 48.2529 69.3892 48.5793 68.876L45.6183 67.2431C45.2452 67.8496 44.779 68.3861 44.2427 68.8527C43.7298 69.2025 43.1236 69.3892 42.4941 69.3425C41.6547 69.3658 40.862 69.0625 40.2559 68.4794C39.7196 67.8963 39.3699 67.1498 39.2999 66.3567V66.2634H48.6725V65.3303V65.0971V65.0504C48.7192 63.2543 48.1129 61.5048 46.9472 60.1285C44.3126 57.6093 40.0926 57.6326 37.4814 60.2219ZM38.9968 63.8608L39.0668 63.6042C39.1601 63.2309 39.3232 62.8811 39.5331 62.5312C39.7196 62.2279 39.9761 61.948 40.2559 61.7148C40.5356 61.4815 40.862 61.3182 41.1884 61.2016C41.5382 61.0849 41.9112 61.015 42.2842 61.015C43.8696 60.9217 45.2919 62.018 45.5483 63.5809L45.6183 63.8374H38.9968V63.8608Z" fill="black"/>
<path d="M60.0503 58.6125V59.9189C59.0011 58.8691 57.6022 58.2626 56.1101 58.2393C54.4081 58.216 52.7527 58.9391 51.6336 60.2454C50.4212 61.5983 49.7917 63.3711 49.8384 65.1906C49.7917 67.0334 50.4212 68.8295 51.6336 70.2291C52.7993 71.5354 54.4547 72.2585 56.2033 72.2119C57.6255 72.1885 59.0011 71.6287 60.0503 70.649V71.8387H63.3377V58.5892H60.0503V58.6125ZM59.2109 68.1997C58.5582 68.9228 57.6022 69.3193 56.623 69.296C55.6671 69.296 54.7578 68.8762 54.1516 68.1531C53.4755 67.3133 53.1491 66.2636 53.1957 65.2139C53.1491 64.1876 53.4988 63.1612 54.1516 62.3681C54.7811 61.645 55.7137 61.2251 56.6697 61.2484C57.6255 61.2251 58.5582 61.645 59.1876 62.3681C59.8638 63.1845 60.2368 64.2109 60.1902 65.2839C60.2601 66.3336 59.9104 67.3833 59.2109 68.1997Z" fill="black"/>
<path d="M73.5026 59.0558C72.7565 58.5659 71.8934 58.286 71.0077 58.2627C70.4716 58.2627 69.9354 58.3794 69.4457 58.6126C69.0026 58.8692 68.5826 59.2191 68.2099 59.5923V58.6359H64.9922V72.002H68.2099V65.074C68.2099 62.6481 68.9561 61.4818 70.4716 61.4818C71.031 61.5051 71.5904 61.715 72.0103 62.0883L72.1498 62.1815L73.6189 59.1491L73.5026 59.0558Z" fill="black"/>
<path d="M81.1026 58.2653C79.8203 58.2653 78.5845 58.7786 77.6524 59.665V58.6386H74.3184V72.0046H77.6524V65.5432C77.6524 63.957 77.8623 62.8373 78.2583 62.2075C78.7247 61.5544 79.4941 61.2045 80.2867 61.2745C80.9631 61.1812 81.6388 61.4611 82.0819 61.9742C82.5019 62.7674 82.6886 63.6538 82.5949 64.5635V72.0279H85.9521V63.8637C85.9521 61.9976 85.5561 60.6213 84.81 59.7816C83.8539 58.7319 82.5019 58.1954 81.1026 58.2653Z" fill="black"/>
<path d="M89.1939 52.4316C88.6345 52.4316 88.1216 52.6649 87.7249 53.0615C87.3289 53.4347 87.0957 53.9712 87.0957 54.531C87.0957 55.0909 87.3057 55.6274 87.7016 56.0239C88.0983 56.4205 88.6345 56.6304 89.1939 56.6304C89.7533 56.6304 90.2662 56.3971 90.6629 56.0006C91.0589 55.6041 91.2921 55.0676 91.2921 54.5077L91.3153 54.531C91.3153 53.9712 91.1054 53.4347 90.6862 53.0615C90.2895 52.6649 89.7533 52.4316 89.1939 52.4316Z" fill="black"/>
<path d="M90.8495 58.7275H87.5859V72.0002H90.8495V58.7275Z" fill="black"/>
<path d="M102.974 59.7583C102.018 58.7319 100.666 58.1954 99.2665 58.2654C97.9842 58.2654 96.7491 58.7786 95.8162 59.665V58.6386H92.459V72.0046H95.8162V65.5432C95.8162 63.957 96.0262 62.8373 96.4222 62.2075C96.8886 61.5544 97.658 61.2045 98.4506 61.2745C99.127 61.1812 99.8034 61.4611 100.246 61.9743C100.666 62.7674 100.852 63.6538 100.759 64.5635V72.0279H104.116V63.8637C104.116 61.9743 103.743 60.598 102.974 59.7583Z" fill="black"/>
<path d="M115.494 59.8708C114.445 58.8211 113.022 58.2379 111.554 58.2612C109.759 58.2146 108.033 59.0077 106.914 60.4306C105.818 61.8302 105.235 63.5797 105.282 65.3525C105.235 67.172 105.841 68.9447 107.031 70.321C108.08 71.5107 109.595 72.2338 111.18 72.2804C112.766 72.3504 114.328 71.7439 115.471 70.6476V72.1405C115.471 74.753 114.445 76.0359 112.3 76.0359C111.297 76.106 110.318 75.6627 109.688 74.8697C109.409 74.4498 109.199 73.96 109.129 73.4467V73.3301H105.818V73.4701C105.935 75.0563 106.657 76.5261 107.87 77.552C109.129 78.5553 110.691 79.0682 112.3 78.9984C114.188 79.0914 116.007 78.322 117.266 76.9221C117.895 76.1759 118.338 75.2895 118.525 74.3332C118.595 73.9133 118.664 73.4934 118.688 73.0735C118.735 72.607 118.735 72.0471 118.735 71.4406V58.6345H115.447V59.8708H115.494ZM115.61 65.2592C115.657 66.2622 115.33 67.2653 114.724 68.0816C114.095 68.8748 113.116 69.318 112.09 69.2713C111.087 69.318 110.131 68.8748 109.502 68.0816C108.896 67.2653 108.593 66.2856 108.639 65.2592C108.593 64.2328 108.896 63.2298 109.502 62.4134C110.108 61.6202 111.087 61.1537 112.09 61.2004C113.045 61.1771 113.978 61.5969 114.608 62.3201C115.307 63.1365 115.657 64.1862 115.61 65.2592Z" fill="black"/>
<path d="M131.884 60.2927C130.765 58.9631 129.086 58.2399 127.361 58.2632C125.916 58.2632 124.516 58.8464 123.467 59.8495V58.6365H120.18V79.0004H123.467V70.6496C124.516 71.6759 125.939 72.2824 127.408 72.2824C129.133 72.3291 130.765 71.5827 131.884 70.2997C133.096 68.9234 133.726 67.1506 133.679 65.3311C133.75 63.465 133.096 61.6689 131.884 60.2927ZM130.345 65.3311C130.392 66.3809 130.019 67.3839 129.343 68.177C128.737 68.9001 127.827 69.32 126.872 69.2966C125.892 69.32 124.959 68.9234 124.307 68.177C123.631 67.3606 123.257 66.3109 123.304 65.2612C123.257 64.1882 123.607 63.1618 124.283 62.3454H124.307C124.959 61.6222 125.916 61.2257 126.895 61.249C127.85 61.2257 128.76 61.6456 129.389 62.3921C130.042 63.2318 130.392 64.2815 130.345 65.3311Z" fill="black"/>
<path d="M147.015 60.5051C144.193 57.8225 139.74 57.8225 136.942 60.5051C135.59 61.7647 134.844 63.5375 134.867 65.3803C134.821 67.2697 135.544 69.0892 136.896 70.4188C138.225 71.7717 140.02 72.4948 141.909 72.4715C143.797 72.5182 145.639 71.795 146.991 70.4654C148.344 69.1592 149.09 67.363 149.042 65.4736C149.09 63.6075 148.344 61.8113 147.015 60.5051ZM144.683 68.4361C143.167 69.8823 140.766 69.8823 139.25 68.4127C138.551 67.5963 138.178 66.5232 138.248 65.4269C138.201 64.3772 138.574 63.3509 139.297 62.5811C139.997 61.8347 140.976 61.4381 141.979 61.4848C143.004 61.4381 144.007 61.858 144.706 62.5811C145.406 63.3975 145.779 64.4473 145.732 65.4969C145.756 66.5933 145.382 67.6429 144.683 68.4361Z" fill="black"/>
<path d="M162.148 60.2712C159.326 57.5886 154.873 57.5886 152.075 60.2712C150.723 61.5308 149.977 63.3036 150 65.1464C149.954 67.0358 150.677 68.8553 152.029 70.1849C153.357 71.5379 155.177 72.2843 157.065 72.2376C158.953 72.2843 160.795 71.5612 162.148 70.2315C163.5 68.9253 164.246 67.1291 164.199 65.2397C164.222 63.3736 163.5 61.5541 162.148 60.2712ZM159.839 68.2022H159.816C158.301 69.6717 155.899 69.6717 154.383 68.2022C153.684 67.3857 153.311 66.3128 153.381 65.2164C153.334 64.1667 153.731 63.117 154.454 62.3473C155.153 61.6008 156.132 61.2042 157.158 61.2509C158.184 61.2042 159.163 61.6008 159.886 62.3473C160.586 63.1636 160.958 64.2134 160.912 65.2863C160.912 66.3361 160.539 67.3857 159.839 68.2022Z" fill="black"/>
<path d="M169.094 52.4316H165.83V72.0025H169.094V52.4316Z" fill="black"/>
</g>
</svg>
