<svg viewBox="0 0 200 96" fill="none" xmlns="http://www.w3.org/2000/svg">
<path fill-rule="evenodd" clip-rule="evenodd" d="M40.9427 35.9495C40.9427 32.0168 46.9262 32.0168 46.9262 35.9495C46.9262 39.8823 40.9427 39.8823 40.9427 35.9495ZM138.971 62.5646C136.477 62.5646 133.942 61.7365 132.363 59.295L132.031 62.1092H127.293V33.1758H132.363V44.4763C133.568 42.3642 136.934 41.2062 139.095 41.2062C145.08 41.2062 149.527 44.8485 149.527 51.8845C149.527 58.59 144.997 62.5646 138.971 62.5646ZM183.445 62.5646C180.951 62.5646 178.416 61.7365 176.837 59.295L176.504 62.1092H171.766V33.1758H176.837V44.4763C178.042 42.3642 181.408 41.2062 183.568 41.2062C189.553 41.2062 194 44.8485 194 51.8845C194 58.59 189.471 62.5646 183.445 62.5646ZM183.917 45.9242C180.717 45.9242 177.975 48.3249 177.975 51.8845C177.975 55.569 180.717 57.8865 183.917 57.8865C187.159 57.8865 189.735 55.4445 189.735 51.8845C189.735 48.2013 187.159 45.9242 183.917 45.9242ZM164.312 60.3787L166.885 63L169.814 60.2313L166.885 57.3437C167.536 56.2833 168.088 55.1341 168.542 53.8966L165.08 51.4216C164.825 52.4235 164.449 53.3766 163.957 54.2804C163.405 53.6716 162.577 52.6791 161.472 51.3036C164.292 49.6539 165.702 47.8672 165.702 45.9424C165.702 44.4107 165.116 43.217 163.942 42.3633C162.769 41.5078 161.354 41.0816 159.698 41.0816C158.042 41.0816 156.607 41.5231 155.394 42.4065C154.181 43.2908 153.575 44.5678 153.575 46.237C153.575 47.0428 153.723 47.744 154.018 48.3439C154.315 48.9429 154.788 49.6348 155.438 50.4206C152.539 52.0903 151.089 54.0049 151.089 56.1652C151.089 58.0905 151.789 59.6082 153.19 60.7174C154.59 61.8266 156.379 62.3819 158.559 62.3819C160.738 62.3819 162.655 61.7142 164.312 60.3787ZM160.88 44.9995C160.526 44.7049 160.131 44.558 159.698 44.558C159.264 44.558 158.874 44.7105 158.53 45.0144C158.184 45.3192 158.012 45.7314 158.012 46.2519C158.012 46.7728 158.406 47.5237 159.195 48.5052C160.674 47.7203 161.414 46.9828 161.414 46.296C161.414 45.7267 161.235 45.2941 160.88 44.9995ZM155.497 56.3121C155.497 55.2326 156.257 54.2205 157.775 53.278C158.82 54.5155 160.062 55.8906 161.502 57.4023C160.456 58.2675 159.48 58.6987 158.573 58.6987C157.666 58.6987 156.927 58.4734 156.356 58.0213C155.783 57.5696 155.497 57.0003 155.497 56.3121ZM133.502 51.8845C133.502 48.3249 136.244 45.9242 139.444 45.9242C142.686 45.9242 145.262 48.2013 145.262 51.8845C145.262 55.4445 142.686 57.8865 139.444 57.8865C136.244 57.8865 133.502 55.569 133.502 51.8845ZM119.065 46.1724C116.406 46.1724 113.954 47.5804 113.954 51.3472V62.1092H108.883V41.7025H113.58L113.954 44.0622C115.533 41.5366 117.652 41.1648 119.73 41.1648C121.849 41.1648 123.886 41.9924 125.008 43.1096L122.722 47.4973C121.683 46.6282 120.727 46.1724 119.065 46.1724ZM96.331 58.0524C92.7582 58.0524 90.5556 56.2313 90.2232 53.7065H106.222C107.012 45.3039 102.731 41.0816 95.8738 41.0816C89.2253 41.0816 84.9871 45.552 84.9871 51.7609C84.9871 58.3005 89.184 62.6473 96.249 62.6473C99.3661 62.6473 102.898 61.5706 105.059 59.3359L101.818 56.1485C100.654 57.3493 98.202 58.0524 96.331 58.0524ZM96.0407 45.552C93.2974 45.552 91.0542 46.8764 90.306 49.5256H101.36C101.028 46.8764 98.9502 45.552 96.0407 45.552ZM82.7837 57.1829C82.0347 57.556 81.1203 57.8038 80.3314 57.8038C78.7522 57.8038 77.6724 56.852 77.6724 54.9073V46.0906H83.365V41.7439H77.713V35.9495L72.643 36.4872V41.7439H68.8198V46.0906H72.643V54.9073C72.643 59.9985 75.5517 62.5228 79.9991 62.3578C81.5361 62.316 82.7416 62.0674 84.196 61.4879L82.7837 57.1829ZM58.9946 49.567C62.8595 49.8156 67.7633 50.6851 67.7633 56.1071C67.7633 59.7085 64.8124 62.8127 58.9531 62.8127C55.7115 62.8127 52.4704 62.2746 49.4774 59.17L51.9711 55.5695C53.4254 57.1834 56.7501 58.3837 59.0362 58.4255C60.9486 58.4669 62.7339 57.4729 62.7339 55.9831C62.7339 54.5755 61.5714 53.996 58.662 53.8297C54.7971 53.5411 50.1842 52.1335 50.1842 47.4977C50.1842 42.7792 55.0882 41.1235 58.8281 41.1235C62.0282 41.1235 64.4387 41.7439 66.8075 43.8136L63.9815 47.125C62.5263 45.7593 60.8646 45.3034 58.9116 45.3034C56.5014 45.3034 55.1712 46.0492 55.1712 47.3318C55.1712 48.6567 56.3763 49.402 58.9946 49.567ZM33.0117 51.0986C33.0117 48.4081 31.8901 46.1311 29.1477 46.1311C26.4043 46.1311 24.7005 48.4908 24.7005 51.1809V62.1087H19.6309V51.1809C19.6309 48.4908 18.2177 46.0492 15.4333 46.0492C12.6904 46.0492 11.0696 48.4908 11.0696 51.1809V62.1087H6V41.6616H10.6959L11.0696 44.1445C12.1502 42.0751 14.5193 41.3302 16.4728 41.3302C18.924 41.3302 21.3758 42.3233 22.5403 45.138C24.3678 42.241 26.737 41.4134 29.3973 41.4134C35.2147 41.4134 38.0813 44.973 38.0813 51.0986V62.1087H33.0117V51.0986ZM41.3994 62.1092H46.4695V41.6203H41.3994V62.1092Z" fill="black"/>
</svg>
