<svg viewBox="0 0 200 96" fill="none" xmlns="http://www.w3.org/2000/svg">
<path d="M32.0212 41.2913C32.4599 39.0552 32.5106 38.8356 32.5612 38.8946C32.5782 38.9117 32.941 39.7978 33.3714 40.8694C34.0549 42.5824 34.7048 44.1521 36.4938 48.4643C36.9242 49.4939 37.92 51.9496 39.9115 56.8611C41.4559 60.667 41.9369 61.8653 42.5698 63.4012C42.9495 64.3294 43.6922 66.1691 44.2322 67.494C45.2702 70.0677 45.4052 70.3632 45.5065 70.3632C45.5909 70.3632 45.6415 70.2367 47.4643 65.7219C48.2407 63.7978 49.1184 61.6459 49.4053 60.9539C50.0045 59.4854 53.3125 51.3504 55.2028 46.6922C56.4602 43.6036 57.9876 39.7048 58.1564 39.1816C58.1986 39.0381 58.2745 38.9369 58.3083 38.9453C58.4095 38.9707 58.9581 41.5108 60.207 47.6626C60.7555 50.3799 61.4223 53.6036 61.6839 54.8357C62.2324 57.4349 63.3294 62.6839 63.9201 65.5953C64.148 66.7092 64.4856 68.3633 64.6796 69.2662C65.1438 71.4772 65.8611 74.9709 65.8611 75.0384C65.8607 75.0637 65.3714 75.089 64.7725 75.089C63.6923 75.089 63.6839 75.089 63.6332 74.8865C63.6079 74.7768 63.2788 73.2072 62.8991 71.4013C62.2408 68.2198 61.8104 66.11 60.3336 58.9285C58.7978 51.4099 57.743 46.3551 57.7007 46.3124C57.6163 46.2196 57.4053 46.6416 56.7977 48.1606C56.4517 49.0213 55.7429 50.7766 55.2281 52.0509C54.7049 53.3252 53.8188 55.5277 53.2449 56.9454C52.6711 58.3632 51.9538 60.1438 51.6416 60.9117C51.3293 61.6797 50.8567 62.8695 50.5867 63.57C49.4137 66.5827 46.7808 72.9793 45.9707 74.7937C45.7597 75.2578 45.5487 75.7304 45.5065 75.8485C45.439 76.0257 45.4137 76.0426 45.3546 75.9245C45.3124 75.8486 44.7217 74.4055 44.0381 72.7177C43.363 71.0299 42.266 68.3126 41.5993 66.6923C40.941 65.0636 40.0887 62.9792 39.7174 62.051C39.3461 61.1227 38.3503 58.6754 37.5065 56.6079C36.6626 54.5404 35.5571 51.823 35.0592 50.574C33.363 46.3631 33.2617 46.1352 33.1689 46.4053C33.1435 46.4729 32.9072 47.5868 32.6541 48.8863C32.3925 50.1859 32.0549 51.8567 31.8946 52.5994C30.8988 57.283 28.9072 66.9033 27.8861 71.9497C27.6077 73.3084 27.346 74.5743 27.2954 74.7599L27.2025 75.089H25L25.0591 74.8612C25.0844 74.7345 25.2785 73.7978 25.4811 72.7599C25.8355 71.0131 26.6372 67.148 27.3376 63.8231C27.9621 60.878 28.5781 57.9581 28.8566 56.6079C29.0169 55.84 29.3967 54.034 29.7005 52.5994C30.3756 49.4179 31.4304 44.2618 32.0212 41.2913Z" fill="black"/>
<path fill-rule="evenodd" clip-rule="evenodd" d="M98.8149 53.3673C99.9963 53.1395 100.393 53.1226 101.743 53.2323C103.507 53.3758 104.68 53.6965 106.165 54.4138C108.199 55.4011 109.845 57.0129 110.832 59.0045C111.65 60.6501 111.929 61.8231 111.996 63.8315C112.047 65.4349 111.937 66.3801 111.558 67.705C110.731 70.5405 108.528 73.0806 105.76 74.397C104.199 75.1397 103.11 75.4097 101.389 75.4857C97.7432 75.6376 94.2073 73.9076 91.9204 70.8358C90.9668 69.5616 90.3507 68.1691 89.9794 66.4983C89.7263 65.3675 89.7094 63.1227 89.9457 62.1353C90.4689 59.8737 91.5828 57.8906 93.2537 56.2281C94.798 54.6923 96.5364 53.7977 98.8149 53.3673ZM105.262 56.1775C103.65 55.3758 101.414 54.9454 99.8276 55.148C99.1947 55.2239 98.1735 55.4602 97.6503 55.6374C95.3296 56.4476 93.2115 58.6839 92.3592 61.2155C91.0511 65.0636 92.317 69.3337 95.4815 71.7304C96.2073 72.2873 97.5575 72.9371 98.3929 73.1481C99.7263 73.4856 102.022 73.5026 103.279 73.1819C106.714 72.3127 109.212 69.6628 109.878 66.1607C110.013 65.435 110.03 63.4771 109.912 62.6839C109.718 61.4687 109.144 59.9497 108.511 59.013C107.76 57.8653 106.57 56.8358 105.262 56.1775Z" fill="black"/>
<path d="M118.309 54.7935C119.726 53.3758 121.811 52.8695 124.005 53.4096C125.035 53.6627 125.929 54.1691 126.773 54.9623C127.178 55.3421 127.625 55.8315 127.777 56.0341L128.047 56.4138L127.254 56.937C126.815 57.2155 126.427 57.4517 126.385 57.4518C126.351 57.4518 126.258 57.3505 126.182 57.2155C125.887 56.7176 125.018 55.8737 124.528 55.6121C123.6 55.1142 122.672 54.9876 121.608 55.2155C120.41 55.4686 119.575 56.11 119.051 57.1817C118.756 57.7724 118.731 57.8822 118.731 58.5404C118.731 59.1817 118.756 59.3168 118.984 59.7134C119.119 59.9665 119.448 60.3632 119.71 60.6079C120.427 61.2746 121.355 61.7219 124.216 62.7767C125.625 63.2915 126.039 63.494 126.857 64.0594C127.676 64.6164 128.241 65.2746 128.646 66.1016C130.115 69.1059 128.672 73.1565 125.592 74.7008C124.461 75.2662 123.701 75.4435 122.359 75.4519C121.06 75.4688 120.275 75.2916 119.068 74.7262C117.929 74.1861 116.975 73.4097 116.25 72.4308C115.963 72.0342 115.001 70.2283 114.959 70.0004C114.942 69.8738 115.119 69.7641 115.904 69.4349C116.764 69.0637 116.883 69.0384 116.933 69.1649C116.967 69.2409 117.094 69.57 117.22 69.8907C117.929 71.7219 119.144 72.8443 120.883 73.2831C121.659 73.4772 123.507 73.4097 124.208 73.1565C125.887 72.5574 127.001 71.0215 127.178 69.0721C127.321 67.4097 126.545 66.0257 125.035 65.2662C124.697 65.0974 123.777 64.7092 122.975 64.4054C120.03 63.2746 118.798 62.6248 117.971 61.7387C117.414 61.1564 116.992 60.4054 116.84 59.7303C116.705 59.1564 116.731 57.8399 116.883 57.2492C117.102 56.38 117.642 55.4517 118.309 54.7935Z" fill="black"/>
<path d="M72.6966 53.6543V75.089H70.7725L70.7303 74.8527C70.705 74.7262 70.6797 69.9076 70.6713 64.1354V53.6543H72.6966Z" fill="black"/>
<path d="M85.4815 36.2364C85.8782 36.1773 87.2114 36.2533 87.6756 36.3714L88.0975 36.4812L88.1229 37.3588C88.1313 37.8398 88.1144 38.2702 88.0722 38.3124C88.0382 38.3461 87.6164 38.3124 87.1524 38.2364C86.165 38.0677 85.4815 38.1352 84.7895 38.4727C84.2325 38.7428 83.4983 39.5023 83.2114 40.1099C82.7557 41.0888 82.7388 41.3335 82.7388 47.7133V53.5699H83.9456C84.6039 53.5699 85.8022 53.5952 86.6039 53.629L88.0553 53.6796V55.5952H82.7388L82.6967 75.0468H80.7557V55.5952H78.435V53.6543H79.3127C79.7937 53.6543 80.3 53.629 80.4435 53.6036L80.7051 53.553L80.7304 47.207C80.7641 41.5192 80.7811 40.8187 80.9076 40.3799C81.625 37.9411 83.0764 36.6246 85.4815 36.2364Z" fill="black"/>
<path fill-rule="evenodd" clip-rule="evenodd" d="M137.393 68.7878C137.729 68.7878 137.992 68.8633 138.183 69.0145C138.374 69.1656 138.47 69.3791 138.47 69.6551C138.47 69.8851 138.407 70.0691 138.282 70.2071C138.164 70.3385 137.992 70.4305 137.769 70.483L138.578 71.6558H137.917L137.196 70.6112H136.524V71.6558H135.971V68.7878H137.393ZM136.524 69.2806V70.1282H137.354C137.545 70.1282 137.686 70.0887 137.779 70.0099C137.877 69.931 137.927 69.8226 137.927 69.6847C137.927 69.4153 137.736 69.2806 137.354 69.2806H136.524Z" fill="black"/>
<path fill-rule="evenodd" clip-rule="evenodd" d="M137.127 67.6839C137.489 67.6839 137.828 67.7529 138.144 67.8909C138.46 68.0289 138.736 68.2194 138.973 68.4625C139.217 68.6991 139.404 68.9751 139.536 69.2904C139.674 69.6058 139.744 69.9442 139.744 70.3056C139.744 70.667 139.674 71.0087 139.536 71.3306C139.398 71.646 139.207 71.9252 138.963 72.1684C138.726 72.4049 138.45 72.5922 138.134 72.7301C137.818 72.8681 137.482 72.9371 137.127 72.9371C136.765 72.9371 136.422 72.8681 136.1 72.7301C135.784 72.5922 135.504 72.4049 135.26 72.1684C135.017 71.9253 134.826 71.646 134.688 71.3306C134.556 71.0087 134.49 70.667 134.49 70.3056C134.49 69.9442 134.556 69.6058 134.688 69.2904C134.826 68.9751 135.017 68.6991 135.26 68.4625C135.504 68.2194 135.784 68.0289 136.1 67.8909C136.422 67.7529 136.765 67.6839 137.127 67.6839ZM137.127 68.0584C136.712 68.0584 136.334 68.1603 135.991 68.364C135.649 68.5677 135.376 68.8371 135.172 69.1721C134.974 69.5072 134.875 69.8851 134.875 70.3056C134.875 70.7261 134.974 71.1072 135.172 71.4489C135.376 71.784 135.649 72.0534 135.991 72.2571C136.334 72.4607 136.712 72.5626 137.127 72.5626C137.542 72.5626 137.917 72.4607 138.252 72.2571C138.595 72.0534 138.865 71.7807 139.062 71.439C139.266 71.0974 139.368 70.7195 139.368 70.3056C139.368 69.8851 139.266 69.5072 139.062 69.1721C138.865 68.837 138.595 68.5677 138.252 68.364C137.917 68.1603 137.542 68.0584 137.127 68.0584Z" fill="black"/>
<path d="M140.165 44.5571C140.191 44.4897 140.545 44.7175 141.153 45.1985C141.676 45.612 142.452 46.1774 142.874 46.4644C145.98 48.5403 149.659 50.169 154.166 51.4686C154.68 51.6205 155.145 51.7724 155.195 51.8146C155.254 51.8568 155.322 52.0678 155.355 52.2872C155.499 53.2577 155.87 54.9792 156.469 57.3927C156.824 58.8186 157.085 60.0169 157.052 60.0509C156.942 60.1606 151.372 60.1184 150.571 60.0003C147.929 59.6121 143.997 58.1775 141.617 56.726C140.115 55.8062 139.127 54.9961 138.368 54.0425L137.904 53.4602L138.132 52.1437C138.562 49.6543 139.22 47.1816 140.165 44.5571Z" fill="black"/>
<path d="M158.377 52.4222C158.571 52.4475 159.507 52.5319 160.461 52.6163C162.292 52.7682 168.605 52.8188 170.419 52.7007L171.305 52.6416L170.073 53.8483C169.398 54.515 168.562 55.283 168.216 55.5615C166.638 56.8442 164.773 57.8821 162.866 58.5319C161.887 58.8695 159.938 59.4011 159.887 59.3505C159.752 59.2152 158.258 53.7303 158.064 52.6501L158.014 52.3716L158.377 52.4222Z" fill="black"/>
<path d="M132.579 36.4389C132.621 36.2533 132.638 36.2449 132.722 36.3714C132.781 36.4474 133.136 36.9622 133.524 37.5191C134.41 38.8018 135.735 40.3968 137.052 41.7554L138.073 42.8103L137.71 43.7808C136.992 45.6542 136.258 48.1774 135.777 50.38C135.701 50.7428 135.609 51.0381 135.575 51.0382C135.49 51.0382 134.959 50.1099 134.435 49.0382C133.381 46.8947 132.646 44.3461 132.351 41.8398C132.199 40.498 132.326 37.5191 132.579 36.4389Z" fill="black"/>
<path d="M157.558 38.2111C157.575 38.2111 158.191 38.363 158.925 38.5402C160.52 38.9453 162.056 39.2322 163.668 39.4347C164.731 39.5613 167.583 39.7301 168.773 39.7301C169.516 39.7301 171.33 39.6711 172.807 39.5951C174.284 39.5192 175.516 39.4769 175.541 39.5107C175.659 39.6289 175.727 41.3673 175.651 42.4812C175.533 44.2196 175.229 45.6711 174.664 47.1985C174.402 47.9074 173.567 49.6456 173.423 49.7639C173.204 49.9411 168.005 50.2787 165.448 50.2787C163.972 50.2787 161.71 50.1606 160.377 50.0256C159.204 49.899 157.803 49.6796 157.668 49.5952C157.271 49.3505 157.128 41.131 157.474 38.5656C157.507 38.3715 157.541 38.2111 157.558 38.2111Z" fill="black"/>
<path d="M147.465 32.8946C147.499 32.8946 147.988 33.2153 148.537 33.6035C150.385 34.9199 151.938 35.8229 153.997 36.7765L154.993 37.2407L154.942 37.7891C154.68 40.498 154.621 41.4854 154.613 43.612C154.604 44.9369 154.63 46.6753 154.663 47.4686L154.731 48.9285L154.453 48.8694C153.946 48.7766 151.685 48.0846 150.739 47.7386C147.549 46.5656 144.182 44.6837 142.149 42.9284C141.71 42.5488 141.339 42.2113 141.322 42.1774C141.254 42.0002 142.748 39.3926 144.022 37.4432C145.229 35.6204 147.288 32.8947 147.465 32.8946Z" fill="black"/>
<path d="M71.051 44.8103C71.397 44.6922 72.0215 44.6837 72.3675 44.8103C72.7557 44.9369 73.0342 45.1648 73.2958 45.5614C73.5996 46.0086 73.6586 46.3968 73.5067 46.9285C73.2451 47.8061 72.5531 48.3378 71.6502 48.3378C70.8569 48.3378 70.3337 47.9833 69.9877 47.207C69.5911 46.3125 70.1059 45.1479 71.051 44.8103Z" fill="black"/>
<path d="M139.853 24.2869C139.887 24.2954 140.174 24.7173 140.495 25.2236C141.609 27.0127 142.883 28.5655 144.706 30.3461L145.516 31.1393L144.9 31.9073C142.857 34.4811 140.63 37.8061 139.701 39.6457L139.347 40.3461L138.798 39.8061C138.064 39.0803 136.756 37.5191 136.014 36.4812C134.992 35.0466 133.71 32.8018 133.71 32.4558C133.71 32.3629 133.938 31.8397 134.224 31.2912C135.229 29.3081 136.604 27.4684 138.503 25.5781C139.212 24.8693 139.819 24.287 139.853 24.2869Z" fill="black"/>
<path d="M161.566 25.2827C162.343 23.73 163.507 21.7384 163.617 21.789C163.668 21.8059 163.938 21.9241 164.216 22.0338C166.031 22.7849 168.334 24.3967 170.048 26.1013C171.997 28.0423 173.288 29.9747 174.208 32.3461C174.714 33.6372 174.866 34.3124 175.178 36.7512C175.221 37.0718 175.204 37.0803 174.259 37.1562C171.389 37.3841 166.917 37.3419 164.621 37.0719C162.09 36.7765 158.098 35.8482 158.098 35.5529C158.098 35.4937 158.292 34.6667 158.528 33.7216C159.288 30.6921 160.393 27.6119 161.566 25.2827Z" fill="black"/>
<path d="M157.803 24.0844C159.381 23.0465 160.031 22.6667 160.107 22.7257C160.123 22.7427 159.887 23.1731 159.583 23.6878C158.005 26.346 156.858 29.3418 155.777 33.6541C155.651 34.1351 155.541 34.5655 155.516 34.5993C155.457 34.6836 154.275 34.1688 152.95 33.4684C151.6 32.7596 150.756 32.2448 149.862 31.5866L149.204 31.0972L150.174 30.1604C152.258 28.1351 155.246 25.7553 157.803 24.0844Z" fill="black"/>
<path d="M151.009 20.0759C152.09 19.9747 156.427 19.9747 157.474 20.0759C158.588 20.1857 158.942 20.2532 158.967 20.3629C158.976 20.4051 158.385 20.8017 157.659 21.2489C154.208 23.3418 150.959 25.806 148.512 28.1857C147.904 28.7848 147.364 29.2657 147.313 29.2659C147.212 29.2659 145.625 27.5866 144.849 26.6583C143.794 25.4009 142.233 23.1646 142.233 22.9283C142.233 22.8354 143.026 22.3291 143.727 21.9747C145.592 21.0464 148.334 20.3291 151.009 20.0759Z" fill="black"/>
</svg>
