<svg viewBox="0 0 200 96" fill="none" xmlns="http://www.w3.org/2000/svg">
<path d="M52.1852 43.0741C50.7181 43.0741 49.4767 43.5481 48.4384 44.4735C47.7161 43.5481 46.6778 43.0741 45.3235 43.0741C44.1498 43.0741 43.1115 43.4804 42.2312 44.2478L42.3892 43.345H38.8455L36.9043 54.405H40.7866L41.9152 47.927C42.0958 46.9113 42.66 46.3921 43.608 46.3921C44.0595 46.3921 44.3981 46.5275 44.6689 46.7758C44.9172 47.0467 45.0526 47.3853 45.0526 47.8141C45.0526 47.9947 45.0301 48.1978 44.9849 48.4236L43.9466 54.405H47.8289L48.9575 47.927C49.1381 46.9113 49.7024 46.3921 50.6504 46.3921C51.1018 46.3921 51.4404 46.5275 51.7112 46.7758C51.9595 47.0467 52.095 47.3853 52.095 47.8141C52.095 47.9947 52.0724 48.2204 52.0272 48.4461L50.9889 54.405H54.8713L55.9547 48.1978C56.045 47.7013 56.0901 47.2724 56.0901 46.8887C56.0901 45.7375 55.729 44.8121 55.0518 44.1124C54.3521 43.4352 53.4041 43.0741 52.1852 43.0741Z" fill="black"/>
<path d="M61.9654 36.8218C61.2883 36.8218 60.724 37.0475 60.2726 37.4989C59.8211 37.9504 59.5954 38.4921 59.5954 39.1241C59.5954 39.7787 59.8211 40.3204 60.2726 40.7492C60.724 41.2007 61.2883 41.4038 61.9654 41.4038C62.62 41.4038 63.1843 41.2007 63.6583 40.7492C64.1097 40.2978 64.358 39.7561 64.358 39.1241C64.358 38.4921 64.1097 37.9504 63.6583 37.4989C63.1843 37.0475 62.62 36.8218 61.9654 36.8218ZM63.1391 43.345H59.2568L57.3157 54.405H61.198L63.1391 43.345Z" fill="black"/>
<path d="M67.0595 49.6206C66.2921 49.6206 65.6826 49.8689 65.2086 50.3655C64.712 50.862 64.4863 51.4489 64.4863 52.1486C64.4863 52.8709 64.712 53.4803 65.2086 53.9543C65.6826 54.4509 66.2921 54.6766 67.0595 54.6766C67.7818 54.6766 68.3686 54.4509 68.8426 53.9543C69.3166 53.4803 69.5649 52.8709 69.5649 52.1486C69.5649 51.4489 69.3166 50.862 68.8426 50.3655C68.3686 49.8689 67.7818 49.6206 67.0595 49.6206Z" fill="black"/>
<path d="M173.853 31.5864L168.279 64.3579H26L31.5742 31.5864H173.853ZM32.7119 32.9351L27.5967 63.0103H74.748L79.8633 32.9351H32.7119ZM94.4521 43.0767C93.1204 43.0767 92.0818 43.5274 91.3369 44.4077L91.5176 43.3472H87.9736L85.3105 58.4702H89.1924L90.0508 53.4595C90.7279 54.2944 91.789 54.7007 93.2334 54.7007C94.2263 54.7007 95.129 54.4975 95.9414 54.0913C96.754 53.685 97.3864 53.1658 97.8604 52.5112C98.3117 51.8568 98.6726 51.1572 98.9209 50.4351C99.1466 49.7128 99.2822 49.0127 99.2822 48.2905C99.2822 46.8459 98.8306 45.6266 97.9277 44.6108C97.0249 43.5954 95.874 43.0767 94.4521 43.0767ZM106.594 43.0532C105.578 43.0532 104.675 43.2573 103.862 43.6636C103.05 44.0698 102.418 44.6117 101.967 45.2661C101.493 45.9206 101.132 46.5976 100.906 47.3198C100.658 48.0421 100.545 48.7646 100.545 49.4644C100.545 50.9088 100.974 52.1499 101.877 53.1655C102.78 54.1812 103.931 54.6782 105.375 54.6782C106.616 54.6782 107.61 54.2719 108.377 53.4595L108.219 54.4067H111.854L113.794 43.3472H109.912L109.754 44.2729C109.054 43.4604 107.993 43.0532 106.594 43.0532ZM125.124 37.479L123.95 44.2954C123.251 43.4829 122.189 43.0533 120.768 43.0532C119.752 43.0532 118.849 43.2573 118.036 43.6636C117.224 44.0699 116.591 44.6116 116.14 45.2661C115.666 45.9205 115.305 46.5977 115.079 47.3198C114.831 48.0421 114.718 48.7647 114.718 49.4644C114.718 50.9087 115.147 52.1499 116.05 53.1655C116.953 54.1812 118.104 54.6782 119.549 54.6782C120.858 54.6781 121.896 54.2489 122.663 53.3462L122.482 54.4067H126.026L129.006 37.479H125.124ZM139.297 37.479L138.123 44.2954C137.423 43.4828 136.362 43.0532 134.94 43.0532C133.925 43.0533 133.022 43.2574 132.21 43.6636C131.397 44.0699 130.765 44.6115 130.313 45.2661C129.84 45.9206 129.479 46.5976 129.253 47.3198C129.005 48.0421 128.892 48.7646 128.892 49.4644C128.892 50.9088 129.321 52.1499 130.224 53.1655C131.126 54.1812 132.277 54.6782 133.722 54.6782C135.031 54.6782 136.069 54.2491 136.837 53.3462L136.656 54.4067H140.2L143.18 37.479H139.297ZM155.867 43.0767C154.107 43.0767 152.594 43.686 151.353 44.8823C150.111 46.0786 149.502 47.5234 149.502 49.2388C149.502 50.8185 150.044 52.1275 151.149 53.1431C152.255 54.1814 153.7 54.6782 155.483 54.6782C157.108 54.6782 158.643 54.1811 160.088 53.188L158.847 50.6147C157.809 51.2015 156.815 51.4731 155.822 51.4731C154.558 51.4731 153.745 51.0662 153.406 50.2085H160.517C160.81 49.5089 160.968 48.7416 160.968 47.9292C160.968 46.5749 160.494 45.4465 159.568 44.4985C158.62 43.5506 157.402 43.0767 155.867 43.0767ZM145.706 37.479L142.727 54.4067H146.608L149.588 37.479H145.706ZM93.2334 46.5522C93.8426 46.5523 94.3389 46.7555 94.7451 47.1616C95.1288 47.5679 95.3096 48.0872 95.3096 48.7192C95.287 49.4414 95.0617 50.0285 94.6104 50.5024C94.1589 50.999 93.594 51.2241 92.9395 51.2241C92.3076 51.2241 91.8115 51.0211 91.4053 50.5923C90.999 50.186 90.8182 49.6444 90.8408 48.9673C90.8409 48.2904 91.0889 47.7038 91.54 47.2524C91.9915 46.801 92.5563 46.5522 93.2334 46.5522ZM106.888 46.5298C107.497 46.5299 107.993 46.7555 108.399 47.1616C108.806 47.5904 108.986 48.1322 108.986 48.7866C108.964 49.4862 108.716 50.0735 108.265 50.5249C107.813 50.9989 107.248 51.2241 106.594 51.2241C105.962 51.2241 105.466 51.021 105.082 50.6147C104.698 50.2085 104.517 49.6892 104.54 49.0347C104.54 48.3353 104.766 47.7488 105.217 47.2524C105.668 46.7784 106.211 46.5298 106.888 46.5298ZM121.061 46.5298C121.67 46.5298 122.167 46.7553 122.573 47.1616C122.979 47.5904 123.16 48.1322 123.16 48.7866C123.138 49.4863 122.889 50.0735 122.438 50.5249C121.986 50.9988 121.422 51.2241 120.768 51.2241C120.136 51.2241 119.639 51.021 119.255 50.6147C118.871 50.2085 118.69 49.6891 118.713 49.0347C118.713 48.3352 118.939 47.7489 119.391 47.2524C119.842 46.7785 120.383 46.5298 121.061 46.5298ZM135.234 46.5298C135.844 46.5299 136.34 46.7555 136.746 47.1616C137.152 47.5904 137.333 48.1322 137.333 48.7866C137.31 49.4862 137.063 50.0735 136.611 50.5249C136.16 50.9989 135.595 51.2241 134.94 51.2241C134.309 51.2241 133.812 51.021 133.429 50.6147C133.045 50.2085 132.864 49.6892 132.887 49.0347C132.887 48.3353 133.112 47.7488 133.563 47.2524C134.015 46.7784 134.557 46.5298 135.234 46.5298ZM155.551 46.0786C156.025 46.0786 156.431 46.2364 156.77 46.5298C157.108 46.8232 157.289 47.2295 157.312 47.7261H153.384C153.564 47.2296 153.835 46.8232 154.219 46.5298C154.602 46.2364 155.054 46.0786 155.551 46.0786Z" fill="black"/>
</svg>
