<svg viewBox="0 0 200 96" fill="none" xmlns="http://www.w3.org/2000/svg">
<path d="M34.5869 32C37.4313 32 38.8538 32.0003 40.0293 32.2734C43.9393 33.1819 46.9928 36.2345 47.9014 40.1445C48.1745 41.32 48.1748 42.7426 48.1748 45.5869C48.1748 48.4313 48.1744 49.8538 47.9014 51.0293C46.9929 54.9395 43.9395 57.9929 40.0293 58.9014C38.8538 59.1744 37.4313 59.1748 34.5869 59.1748C31.7426 59.1748 30.32 59.1745 29.1445 58.9014C25.2345 57.9928 22.1819 54.9393 21.2734 51.0293C21.0003 49.8538 21 48.4313 21 45.5869C21 42.7426 21.0003 41.32 21.2734 40.1445C22.182 36.2347 25.2347 33.182 29.1445 32.2734C30.32 32.0003 31.7426 32 34.5869 32ZM33.1191 39.1738C31.9931 38.7423 30.7592 38.6774 29.5938 38.9873L26.3379 39.8486C26.622 40.0677 26.9333 40.3224 27.2471 40.6006C28.36 41.5863 29.7006 43.0395 30.0381 44.6406C30.2232 45.7415 30.0627 46.8728 29.5791 47.8789C29.1194 48.8849 28.5317 49.8276 27.8301 50.6826C27.5933 50.9846 27.3501 51.2658 27.1162 51.5322L32.5186 50.085C32.8221 50.0104 33.1197 49.9115 33.4072 49.7891C34.0687 50.7972 35.031 51.5721 36.1572 52.0029C37.2835 52.4337 38.5172 52.4989 39.6826 52.1895L42.9385 51.3281C42.6573 51.1091 42.3461 50.8544 42.0264 50.5762C40.9163 49.5904 39.5757 48.1365 39.2383 46.5352C39.0532 45.4343 39.2136 44.303 39.6973 43.2969C40.157 42.2918 40.7438 41.3498 41.4434 40.4941C41.6831 40.1923 41.9234 39.9109 42.1602 39.6445L36.7549 41.0947C36.4514 41.1695 36.1538 41.2683 35.8662 41.3906C35.2063 40.3813 34.2452 39.6053 33.1191 39.1738Z" fill="black"/>
<path d="M58.3652 56.2036H61.4666V48.4052H68.2967C68.7497 48.4052 69.4815 48.3715 70.1436 48.2707C74.1859 47.6656 76.3464 44.5026 76.3464 40.7464C76.3464 36.9903 74.1859 33.8272 70.1436 33.2222C69.4815 33.1213 68.7845 33.0877 68.2967 33.0877H58.3652V56.2036ZM61.4666 45.548V35.9113H68.1921C68.6103 35.9113 69.2376 35.9449 69.7603 36.0794C72.1647 36.5836 73.1753 38.5146 73.1753 40.7464C73.1753 42.9783 72.1647 44.8757 69.7603 45.4135C69.2376 45.5143 68.6103 45.548 68.1921 45.548H61.4666Z" fill="black"/>
<path d="M81.7391 39.1613C81.1118 39.5983 80.5543 40.2033 80.1361 40.9092V38.052H77.3483V56.2036H80.4846V47.0942C80.4846 44.9429 80.9376 42.7916 82.7496 41.5479C84.0738 40.6067 85.7465 40.5394 87.0707 40.842V38.052C85.398 37.6823 83.1678 38.0184 81.7391 39.1613Z" fill="black"/>
<path d="M95.2687 56.7078C100.879 56.7078 104.364 52.8086 104.364 47.0942C104.364 41.4806 100.914 37.5478 95.2687 37.5478C89.7629 37.5478 86.2085 41.4134 86.2085 47.0942C86.2085 52.7414 89.6583 56.7078 95.2687 56.7078ZM95.2687 53.8506C91.4704 53.8506 89.519 51.1951 89.519 47.0942C89.519 43.1277 91.331 40.3714 95.2687 40.3714C99.1368 40.3714 101.053 43.0269 101.053 47.0942C101.053 51.0943 99.1716 53.8506 95.2687 53.8506Z" fill="black"/>
<path d="M105.81 36.3147H108.912V33.2222H105.81V36.3147ZM102.012 64.271H104.207C107.309 64.271 108.912 62.6912 108.912 59.6995V38.052H105.81V58.6911C105.81 60.6071 104.834 61.4138 103.022 61.4138H102.012V64.271Z" fill="black"/>
<path d="M113.466 47.9682H127.858C128.171 41.5143 124.861 37.5478 119.181 37.5478C113.71 37.5478 110.121 41.279 110.121 47.2287C110.121 52.9094 113.78 56.7078 119.32 56.7078C122.979 56.7078 126.081 54.8591 127.579 51.6657L124.582 50.6573C123.537 52.7414 121.655 53.8506 119.181 53.8506C115.731 53.8506 113.71 51.733 113.466 47.9682ZM119.285 40.2369C122.491 40.2369 124.269 41.9849 124.687 45.548H113.536C113.954 42.1193 115.94 40.2369 119.285 40.2369Z" fill="black"/>
<path d="M137.507 56.7078C141.375 56.7078 144.233 54.8591 145.557 51.464L142.421 50.6909C141.549 52.7414 139.946 53.8506 137.507 53.8506C133.744 53.8506 131.862 51.1615 131.827 47.1278C131.862 43.195 133.639 40.3714 137.507 40.3714C139.772 40.3714 141.689 41.6151 142.49 43.6992L145.557 42.8252C144.546 39.5646 141.48 37.5478 137.542 37.5478C131.862 37.5478 128.586 41.447 128.517 47.1278C128.586 52.6741 131.757 56.7078 137.507 56.7078Z" fill="black"/>
<path d="M149.961 40.5058H155.641V38.052H149.961V33.2222H146.859V49.3463C146.859 51.2287 146.755 52.6069 147.487 54.0187C148.811 56.5062 152.261 56.8759 155.641 56.2036V53.6153C153.062 54.0187 151.18 53.9179 150.344 52.4725C149.891 51.6993 149.961 50.6909 149.961 49.2119V40.5058Z" fill="black"/>
<path d="M158.788 56.2036H162.586L169.312 46.4891L176.002 56.2036H179.801L171.193 43.9345L179.592 32.0015H175.793L169.312 41.4134L162.795 32.0015H159.032L167.43 43.9345L158.788 56.2036Z" fill="black"/>
</svg>
