<svg viewBox="0 0 200 96" fill="none" xmlns="http://www.w3.org/2000/svg">
<path d="M134.174 60.3891C134.636 59.8097 135.111 59.2387 135.559 58.6484C136.146 57.8716 136.704 57.0742 137.291 56.2937C137.72 55.7246 138.184 55.1821 138.617 54.6154C139.121 53.9536 139.593 53.2664 140.106 52.6119C140.577 52.0119 141.094 51.4494 141.571 50.856C141.916 50.4262 142.228 49.9696 142.557 49.524C142.805 49.1898 143.048 48.8495 143.31 48.5268C143.482 48.3161 143.492 48.1847 143.298 47.9474C142.715 47.2305 142.182 46.4719 141.629 45.7296C141.211 45.1671 140.799 44.5998 140.372 44.0433C139.819 43.3222 139.255 42.6102 138.694 41.8945C137.924 40.9113 137.142 39.9371 136.387 38.9423C135.767 38.1249 135.176 37.2839 134.576 36.452C134.533 36.3792 134.494 36.3038 134.461 36.2262C134.613 36.1896 134.768 36.1643 134.923 36.1505C135.875 36.1432 136.827 36.1505 137.779 36.1432C138.318 36.1402 138.493 36.5979 138.769 36.9182C139.09 37.2888 139.388 37.6781 139.688 38.0686C140.014 38.4894 140.331 38.9163 140.649 39.3401C141.018 39.8335 141.381 40.3312 141.752 40.8235C142.345 41.6098 142.94 42.3943 143.539 43.1769C143.891 43.6389 144.247 44.0978 144.601 44.558C144.809 44.828 145.013 45.1029 145.224 45.3675C145.405 45.5976 145.541 45.6829 145.773 45.3602C146.214 44.7487 146.738 44.1977 147.196 43.5971C147.862 42.7198 148.493 41.8134 149.157 40.9331C149.632 40.3052 150.148 39.7094 150.626 39.0828C151.183 38.3514 151.709 37.5963 152.265 36.8625C152.386 36.6274 152.573 36.4328 152.804 36.3026C153.034 36.1725 153.297 36.1125 153.561 36.1299C154.364 36.2092 155.18 36.1438 155.991 36.1493C156.15 36.1597 156.309 36.1799 156.466 36.2098L156.546 36.3309C156.136 36.8819 155.731 37.4359 155.316 37.982C154.957 38.4543 154.59 38.9187 154.22 39.3837C153.815 39.8953 153.397 40.3978 153.002 40.9173C152.659 41.3684 152.351 41.8455 152.01 42.2978C151.434 43.0619 150.844 43.8151 150.262 44.5737C150.032 44.8765 149.809 45.1792 149.58 45.4819C148.974 46.2727 148.377 47.067 147.764 47.8511C147.495 48.1956 147.513 48.3355 147.803 48.6703C148.156 49.0832 148.461 49.5373 148.799 49.9648C149.297 50.5945 149.809 51.2127 150.306 51.8417C150.532 52.1287 150.722 52.443 150.948 52.7293C151.468 53.3863 152.004 54.0311 152.526 54.6868C152.762 54.9841 152.979 55.2971 153.205 55.6029C153.571 56.0982 153.934 56.5965 154.306 57.0887C155.003 58.0114 155.704 58.9315 156.408 59.849C156.566 60.0543 156.761 60.2323 157 60.4884C156.847 60.5329 156.69 60.5641 156.532 60.5816C155.528 60.5889 154.524 60.578 153.52 60.5889C153.018 60.5944 152.849 60.1905 152.598 59.8866C152.295 59.5203 151.996 59.1497 151.708 58.7719C151.366 58.3245 151.048 57.8589 150.699 57.4163C150.117 56.677 149.508 55.9583 148.931 55.2154C148.363 54.484 147.826 53.7284 147.263 52.9933C146.881 52.4944 146.476 52.0143 146.082 51.5227C145.967 51.378 145.862 51.2248 145.761 51.0704C145.593 50.8161 145.426 50.8778 145.27 51.0704C144.887 51.543 144.507 52.0185 144.131 52.4968C143.554 53.2291 142.978 53.9627 142.405 54.6977C142.162 55.0077 141.929 55.3238 141.693 55.6374L140.538 57.1698C139.858 58.072 139.183 58.979 138.493 59.8744C138.362 60.1108 138.166 60.3047 137.928 60.4334C137.691 60.5622 137.422 60.6203 137.152 60.601C136.349 60.5229 135.532 60.5859 134.721 60.5798C134.56 60.5693 134.4 60.5491 134.242 60.5193L134.174 60.3891Z" fill="black"/>
<path d="M140.959 36.2759C141.084 36.0464 141.222 35.8241 141.373 35.6099C142.089 34.6815 142.812 33.7573 143.543 32.8374C144.013 32.2457 144.49 31.6604 144.976 31.0816C145.542 30.4053 145.526 30.4265 146.061 31.1288C146.719 31.9922 147.428 32.8156 148.094 33.6718C148.683 34.4292 149.23 35.2181 149.824 35.9725C150.005 36.1996 150.157 36.3031 149.899 36.6192C149.035 37.6769 148.227 38.7807 147.391 39.8615C146.859 40.5505 146.319 41.234 145.772 41.9122C145.547 42.1937 145.39 42.1798 145.154 41.8728C144.707 41.2934 144.271 40.7049 143.818 40.1309C143.334 39.5157 142.826 38.9199 142.339 38.3036C141.916 37.7677 141.502 37.2222 141.095 36.6731C141.032 36.5471 140.987 36.4136 140.959 36.2759ZM143.455 36.3837C143.564 36.5417 143.684 36.7397 143.828 36.9195C144.332 37.5486 144.85 38.1686 145.352 38.7964C145.483 38.9599 145.562 38.9962 145.693 38.7964C145.824 38.5966 145.99 38.4301 146.135 38.243C146.566 37.6842 147.003 37.1296 147.413 36.555C147.45 36.4904 147.471 36.4178 147.475 36.3432C147.479 36.2686 147.464 36.1942 147.433 36.1263C146.882 35.355 146.295 34.6096 145.743 33.8389C145.579 33.6094 145.49 33.6009 145.319 33.8165C144.748 34.543 144.162 35.252 143.592 35.9756C143.527 36.1046 143.481 36.2419 143.455 36.3837Z" fill="black"/>
<path d="M47.0964 68.9826H44.0248C44.0188 68.8573 44.0086 68.7241 44.0086 68.5909C44.0086 60.2556 44.0057 51.9204 44 43.5851C44.072 42.8267 44.2462 42.0815 44.5177 41.3697C44.7082 40.8008 44.9764 40.2609 45.3146 39.7653C45.5589 39.3609 45.8616 38.9949 46.213 38.6791C46.66 38.2543 47.1513 37.8786 47.6783 37.5583C48.2825 37.2136 48.9185 36.9281 49.5776 36.7058C51.2478 36.173 53.0101 35.992 54.7537 36.1742C55.5663 36.2713 56.3708 36.428 57.1605 36.6429C57.6271 36.7445 58.0824 36.8924 58.5197 37.0843C58.9909 37.307 59.4424 37.5693 59.8693 37.8683C60.3207 38.1713 60.7491 38.5073 61.151 38.8734C61.5307 39.2241 61.8772 39.6092 62.1859 40.0238C62.5153 40.4909 62.8185 40.9761 63.094 41.4769C63.245 41.7393 63.3697 42.0159 63.4664 42.3028C63.6075 42.7193 63.7267 43.145 63.8297 43.5742C64.0113 44.3214 64.2123 45.0667 64.3207 45.8254C64.4082 46.5313 64.4487 47.2423 64.4418 47.9536C64.4747 48.9072 64.4545 49.8619 64.3813 50.8132C64.2619 51.6357 64.093 52.4504 63.8756 53.2526C63.805 53.6225 63.7016 53.9854 63.5668 54.337C63.2673 55.0992 62.9197 55.8415 62.5261 56.5597C62.1879 57.1195 61.7793 57.6337 61.3103 58.0897C60.8903 58.4713 60.4345 58.8115 59.9492 59.1057C59.5042 59.4029 59.041 59.6742 58.5694 59.9291C58.2953 60.0794 58.0047 60.1976 57.7035 60.2815C57.1677 60.4262 56.6204 60.5291 56.0798 60.6526C54.7877 60.9415 53.4581 61.0253 52.1399 60.9009C51.1106 60.81 50.0892 60.6139 49.069 60.4371C48.561 60.3493 48.0651 60.1949 47.5626 60.0811C47.1842 59.9957 47.1007 60.078 47.0995 60.5394C47.0962 62.512 47.0962 64.4844 47.0995 66.4566L47.0964 68.9826ZM47.12 49.8699H47.0964C47.0964 51.4227 47.0964 52.9755 47.0964 54.5283C47.0964 55.1647 47.0994 55.7998 47.0964 56.4374C47.087 56.4934 47.0896 56.5507 47.1038 56.6057C47.1179 56.6606 47.1434 56.712 47.1787 56.7565C47.214 56.801 47.2582 56.8376 47.3085 56.864C47.3588 56.8904 47.414 56.9059 47.4706 56.9096C47.9319 56.9807 48.384 57.1011 48.8195 57.2687C49.706 57.5764 50.6361 57.7399 51.5744 57.753C52.9732 57.9584 54.3981 57.898 55.7745 57.575C56.3215 57.4488 56.8598 57.2871 57.3857 57.0907C57.8777 56.8833 58.3325 56.597 58.7322 56.243C59.2458 55.7767 59.6991 55.2478 60.0812 54.6688C60.3872 54.1564 60.6183 53.6029 60.7672 53.025C61.0197 52.2264 61.203 51.4076 61.3151 50.5777C61.4138 49.6695 61.3309 48.7486 61.3757 47.8355C61.389 46.6591 61.2392 45.4864 60.9307 44.3511C60.863 44.0314 60.7573 43.721 60.6159 43.4265C60.3752 42.9045 60.0862 42.4063 59.7525 41.9383C59.3609 41.4141 58.9032 40.9428 58.3908 40.536C57.9095 40.2455 57.4068 39.9923 56.8868 39.7786C56.2624 39.4713 55.5785 39.3035 54.8827 39.2869C53.5802 39.1539 52.265 39.218 50.9816 39.4771C50.2664 39.6537 49.5907 39.963 48.9896 40.3889C48.62 40.6921 48.2848 41.035 47.9901 41.4115C47.4645 41.9653 47.1609 42.693 47.137 43.4562C47.0886 45.5935 47.12 47.732 47.12 49.8699Z" fill="black"/>
<path d="M120.544 49.8405H114.875C113.949 49.8405 113.023 49.8405 112.098 49.8448C111.644 49.8448 111.459 50.0058 111.559 50.4151C111.722 51.4276 111.981 52.4224 112.331 53.3862C112.708 54.2931 113.267 55.1133 113.973 55.7965C114.473 56.2092 115.012 56.5718 115.583 56.8791C115.932 57.0701 116.291 57.2425 116.658 57.3955C116.737 57.4368 116.82 57.4685 116.906 57.49C118.045 57.7496 119.213 57.8539 120.379 57.8C121.44 57.7225 122.504 57.642 123.554 57.4773C124.112 57.3448 124.657 57.1624 125.183 56.9324C125.468 56.8319 125.754 56.7326 126.031 56.6145C126.504 56.4129 126.97 56.1955 127.441 55.9872C127.829 55.8153 127.995 55.9485 127.986 56.3777C127.971 57.0819 127.972 57.7867 127.986 58.4908C127.997 59.0818 127.877 59.241 127.312 59.4293C126.898 59.5673 126.5 59.755 126.095 59.9215C126.062 59.9399 126.027 59.9557 125.992 59.9688C125.42 60.1074 124.852 60.2642 124.275 60.3769C123.397 60.5482 122.519 60.7304 121.631 60.8316C120.413 61.0441 119.164 61.0074 117.96 60.7238C117.886 60.7039 117.81 60.6937 117.734 60.6935C116.697 60.6247 115.681 60.3715 114.734 59.9458C114.138 59.6965 113.575 59.3753 113.058 58.9891C112.423 58.542 111.827 58.0424 111.275 57.4954C110.887 57.0836 110.559 56.6181 110.302 56.1132C109.849 55.3026 109.456 54.4595 109.127 53.5908C108.934 52.8676 108.781 52.1345 108.667 51.3948C108.392 49.9849 108.331 48.5416 108.485 47.1135C108.591 46.0642 108.767 45.0233 109.012 43.9978C109.285 42.7843 109.766 41.6275 110.436 40.5793C111.038 39.5837 111.825 38.7117 112.753 38.0097C113.176 37.6989 113.629 37.4298 114.104 37.2063C114.731 36.9036 115.384 36.6505 116.026 36.3768C116.073 36.355 116.121 36.3377 116.17 36.3253C117.655 35.9725 119.188 35.8702 120.706 36.0226C121.557 36.14 122.393 36.3458 123.202 36.6365C123.843 36.8592 124.447 37.1772 124.993 37.5799C125.765 38.1441 126.448 38.8204 127.02 39.5864C127.528 40.235 127.938 40.9544 128.238 41.7218C128.454 42.3237 128.646 42.9328 128.875 43.5316C129.608 45.4376 129.468 47.432 129.481 49.4119C129.481 49.7146 129.326 49.8502 129.028 49.8484C127.138 49.8391 125.248 49.8319 123.358 49.8266C122.419 49.8266 121.481 49.8266 120.541 49.8266L120.544 49.8405ZM118.97 46.8598H120.076H125.911C126.101 46.8598 126.342 46.898 126.335 46.614C126.335 46.1296 126.294 45.646 126.21 45.1688C126.094 44.6518 125.934 44.1455 125.733 43.6551C125.539 43.0706 125.283 42.5089 124.969 41.9798C124.539 41.3065 123.988 40.7195 123.342 40.2494C122.613 39.6938 121.756 39.3288 120.85 39.1874C118.952 38.9664 117.075 38.9991 115.325 40.0029C114.544 40.4414 113.862 41.0355 113.319 41.7485C112.889 42.2883 112.553 42.8977 112.328 43.5504C112.058 44.1501 111.876 44.7854 111.786 45.437C111.768 45.6254 111.719 45.8095 111.64 45.9819C111.398 46.6013 111.568 46.861 112.222 46.861L118.97 46.8598Z" fill="black"/>
<path d="M73.2244 27.9097C73.2378 28.2021 73.2572 28.4407 73.2578 28.6792C73.2602 31.4644 73.2602 34.2511 73.2578 37.0395C73.2578 37.5087 73.3789 37.6104 73.8323 37.4591C74.5922 37.2072 75.3417 36.9244 76.0955 36.6556C76.1312 36.6426 76.1679 36.6323 76.2051 36.6247C76.8494 36.5 77.4978 36.3935 78.1372 36.2494C79.5317 35.9553 80.9626 35.8736 82.3815 36.0072C83.1562 36.1012 83.9223 36.2563 84.6726 36.471C85.1045 36.5623 85.5229 36.7088 85.9174 36.9069C86.4593 37.2072 86.9767 37.5495 87.465 37.9307C88.2157 38.5205 88.8172 39.2786 89.2209 40.1437C89.5303 40.8314 89.7693 41.5487 89.9341 42.2846C90.2242 43.8614 90.3201 45.4677 90.2198 47.0678C90.2223 51.3061 90.2223 55.5443 90.2198 59.7826C90.2198 60.4208 90.1926 60.4486 89.5538 60.4486C88.9302 60.4486 88.3066 60.4377 87.6836 60.4522C87.3257 60.4607 87.1641 60.3075 87.1708 59.957C87.1708 59.8171 87.1708 59.6772 87.1708 59.5374C87.1708 54.6892 87.1708 49.8408 87.1708 44.9923C87.1924 44.5474 87.172 44.1014 87.1102 43.6603C86.8771 42.4572 86.5937 41.2426 85.6092 40.4047C85.0137 39.8835 84.3036 39.5101 83.5367 39.3148C82.2286 39.0559 80.8894 38.9919 79.5625 39.1247C78.8785 39.1557 78.1998 39.2594 77.5378 39.4341C76.5448 39.6993 75.57 40.0396 74.5989 40.3805C74.2106 40.5276 73.8375 40.7122 73.4848 40.9314C73.3716 41.0314 73.2943 41.1659 73.265 41.3141C73.2447 41.4396 73.2422 41.5675 73.2578 41.6937C73.2578 47.6745 73.2578 53.6553 73.2578 59.6361C73.2578 60.4492 73.2578 60.4492 72.4422 60.4492C71.9076 60.4492 71.373 60.4492 70.8389 60.4492C70.4072 60.4492 70.2244 60.2633 70.2086 59.8238C70.205 59.722 70.2086 59.6203 70.2086 59.521V28.8245C70.2086 27.9097 70.2086 27.9097 71.1053 27.9097H73.2244Z" fill="black"/>
<path d="M97.7193 44.132V28.6702C97.7193 27.9098 97.7193 27.9098 98.4768 27.9098C99.1252 27.9098 99.7749 27.9164 100.423 27.9098C100.707 27.9061 100.854 28.006 100.829 28.3094C100.816 28.4607 100.829 28.6121 100.829 28.7671C100.829 39.0624 100.829 49.3578 100.829 59.6531C100.829 60.3894 100.768 60.4505 100.018 60.4505C99.3941 60.4505 98.7705 60.4396 98.1468 60.4548C97.8502 60.462 97.723 60.3337 97.723 60.0533C97.723 59.9389 97.7188 59.8245 97.7188 59.71C97.7188 54.5168 97.7189 49.3241 97.7193 44.132Z" fill="black"/>
</svg>
