<svg viewBox="0 0 200 96" fill="none" xmlns="http://www.w3.org/2000/svg">
<path fill-rule="evenodd" clip-rule="evenodd" d="M83.27 59.6199H85.8047C87.0981 59.6199 88.2342 59.6723 89.178 59.8294C90.1571 59.9861 90.9788 60.3178 91.6427 60.8587C92.307 61.3823 92.6566 62.1849 92.6566 63.2318C92.6566 64.2087 92.3595 64.9418 91.8001 65.4826C91.223 66.0063 90.5066 66.3896 89.6325 66.6167C88.7411 66.8261 87.7973 66.9832 86.7309 67.0352C85.6822 67.1051 84.6859 67.1571 83.8118 67.1923C84.7908 67.8202 85.9793 68.1692 87.3953 68.2219C87.71 68.2043 88.2342 68.1344 88.9161 68.0297C89.598 67.9249 90.1394 67.8554 90.5066 67.8554C90.664 67.8554 90.7861 67.9078 90.8038 67.9605C90.821 68.0129 90.8386 68.1172 90.8386 68.3095C90.8734 68.903 91.1181 69.6701 91.5726 70.5955C92.0447 71.5376 92.5865 72.3578 93.2332 73.0557C93.8623 73.7709 94.4393 74.1026 94.9287 74.1026C95.2258 74.1026 95.3832 74.2421 95.3832 74.5039C95.3832 74.6782 95.2086 74.7658 94.8762 74.7658H86.6785C86.4162 74.7658 86.2064 74.7306 86.1367 74.6263C86.0318 74.5563 85.9617 74.3469 85.8748 74.1026L83.2704 68.1352L82.9208 67.3501H81.295V68.676C81.295 70.0894 81.3126 71.1015 81.3126 71.7818C81.3651 72.4274 81.4348 72.9159 81.5401 73.2652C81.6274 73.6142 81.7847 73.8584 81.9946 73.9455C82.2044 74.0503 82.5015 74.1022 82.9212 74.1022C83.0609 74.1022 83.1835 74.1198 83.2708 74.155C83.4281 74.207 83.5154 74.3117 83.5154 74.4516C83.5154 74.5735 83.4281 74.6606 83.2708 74.713C83.1658 74.7482 83.0433 74.7658 82.8687 74.7658H72.5023C72.0826 74.7658 71.8732 74.6606 71.8732 74.4516C71.8732 74.3465 71.9433 74.2597 72.0482 74.207C72.2051 74.1374 72.3453 74.1022 72.5027 74.1022C72.9047 74.1022 73.2194 74.0499 73.4293 73.9455C73.6215 73.8404 73.7788 73.6138 73.8838 73.2652C73.9887 72.9334 74.0584 72.4274 74.0936 71.7818C74.1284 71.1015 74.146 70.0718 74.146 68.6236V65.7448C74.146 64.3142 74.1288 63.2846 74.0936 62.6042C74.0587 61.9587 73.9887 61.4351 73.8838 61.1037C73.7788 60.7719 73.6215 60.5453 73.4293 60.4405C73.2194 60.3358 72.9047 60.2663 72.5027 60.2663C72.083 60.2663 71.8736 60.1787 71.8736 59.9869C71.8736 59.7426 72.0834 59.6203 72.5027 59.6203L83.27 59.6199ZM83.27 66.6866C83.7945 66.669 84.179 66.5991 84.4585 66.4424C84.7384 66.2853 84.9306 65.9539 85.0703 65.4479C85.1925 64.9242 85.2449 64.1216 85.2449 63.0224C85.2449 62.1502 85.1925 61.5218 85.0703 61.1557C84.9306 60.7543 84.7384 60.5101 84.4761 60.4226C84.2138 60.3354 83.8118 60.2659 83.27 60.2659H83.2175C82.6405 60.2659 82.2212 60.3358 81.9766 60.4402C81.7319 60.5453 81.5569 60.8415 81.4696 61.3124C81.3647 61.766 81.2946 62.5515 81.2946 63.6503V66.6866H83.27ZM119.173 65.7445C119.173 63.9125 119.138 62.621 119.068 61.9407C118.998 61.2428 118.858 60.7719 118.648 60.5801C118.439 60.3882 118.037 60.2659 117.442 60.2659C116.97 60.2659 116.761 60.1608 116.761 59.9517C116.761 59.7247 116.953 59.6199 117.355 59.6199H128.105C128.49 59.6199 128.683 59.7247 128.683 59.9517C128.683 60.1608 128.472 60.2659 127.983 60.2659C127.546 60.2659 127.196 60.3358 126.987 60.4226C126.794 60.5101 126.62 60.7367 126.533 61.0505C126.427 61.3823 126.358 61.9055 126.322 62.5863C126.288 63.2494 126.27 64.3138 126.27 65.7445V68.6233C126.27 70.0714 126.288 71.1187 126.322 71.8162C126.358 72.4794 126.427 72.9854 126.533 73.3172C126.62 73.6314 126.794 73.858 127.004 73.9451C127.214 74.0499 127.546 74.1018 127.983 74.1018C128.472 74.1018 128.683 74.2413 128.683 74.5032C128.683 74.6774 128.49 74.765 128.105 74.765H117.355C116.953 74.765 116.761 74.6774 116.761 74.5032C116.761 74.2413 116.97 74.1018 117.442 74.1018C118.037 74.1018 118.439 73.9971 118.648 73.8052C118.858 73.5958 118.998 73.1597 119.068 72.4446C119.278 70.2457 119.173 67.9605 119.173 65.7445ZM105.837 59.6199C107.689 59.6199 109.297 59.8642 110.608 60.3526C111.936 60.8239 113.02 61.4347 113.789 62.1845C114.558 62.97 115.118 63.7722 115.467 64.6448C115.799 65.4998 115.992 66.3548 115.992 67.1751C115.992 67.9781 115.799 68.8151 115.467 69.7053C115.117 70.5603 114.558 71.3977 113.789 72.1656C113.003 72.9159 111.936 73.5438 110.608 74.0151C109.297 74.5211 107.689 74.7654 105.837 74.7654C103.983 74.7654 102.41 74.5211 101.082 74.0151C99.7711 73.5438 98.7048 72.9159 97.9355 72.1304C97.1138 71.3977 96.5548 70.5599 96.2401 69.6877C95.8556 68.8155 95.6983 67.9781 95.6983 67.1751C95.6983 66.3548 95.8557 65.5002 96.2052 64.6624C96.5548 63.7726 97.1142 62.97 97.9007 62.1845C98.6699 61.4343 99.7187 60.8063 101.047 60.3526C102.375 59.8642 103.948 59.6199 105.837 59.6199ZM105.837 74.1018C106.343 74.1018 106.727 74.0495 107.025 73.9451C107.305 73.8576 107.549 73.7181 107.689 73.4739C107.846 73.2121 107.951 72.8635 108.021 72.4618C108.074 72.0257 108.091 71.4149 108.091 70.6299V63.7551C108.091 62.7082 108.039 61.9579 107.952 61.4866C107.829 61.0158 107.619 60.7016 107.305 60.5273C106.99 60.3702 106.5 60.2655 105.837 60.2655C105.312 60.2655 104.928 60.3354 104.648 60.405C104.368 60.4921 104.159 60.6492 103.984 60.911C103.826 61.1377 103.704 61.4866 103.669 61.9055C103.599 62.3241 103.564 62.97 103.564 63.7547V70.6295C103.564 71.4149 103.599 72.0253 103.669 72.4446C103.704 72.8807 103.826 73.2121 103.984 73.4739C104.159 73.7181 104.368 73.8752 104.648 73.9451C104.927 74.0499 105.329 74.1018 105.837 74.1018ZM71.4711 54.5599L66 22.0361L85.4199 39.7462L100.592 23.4843L115.449 39.7462L134.8 22.0361L129.032 54.5599H71.4711Z" fill="black"/>
<path fill-rule="evenodd" clip-rule="evenodd" d="M69.5156 28.2364L73.3774 52.1679H126.727L131.285 28.2364L115.299 42.5064L100.531 27.0586L85.4147 42.5064L69.5156 28.2364Z" fill="black"/>
</svg>
