<svg viewBox="0 0 80 80" fill="none" xmlns="http://www.w3.org/2000/svg">
<path d="M51.0667 58.0012V55.3345C51.0667 53.8625 49.872 52.6678 48.4 52.6678H37.3787C34.2387 52.6678 31.524 50.4772 30.8613 47.4092" stroke="white" stroke-width="2" stroke-miterlimit="10"/>
<path d="M47.4001 52.5C47.4671 53.109 47.4001 55.374 47.4001 56C47.4001 65.389 39.7891 73 30.4001 73C21.0111 73 13.4001 65.389 13.4001 56C13.4001 46.611 21.0111 39 30.4001 39" stroke="white" stroke-width="2" stroke-miterlimit="10"/>
<path d="M40.97 40C40.97 42.5787 43.1561 44.5627 45.7334 44.5627H51.6921C55.0281 44.5627 57.7334 47.2667 57.7334 50.604V67.228L59.2041 67.7187C60.7214 68.224 61.7441 69.6493 61.7334 71.2507C61.7281 71.9773 61.1268 72.5627 60.4001 72.5627H53.7334C52.2614 72.5627 51.0668 71.368 51.0668 69.896V57.896" stroke="white" stroke-width="2" stroke-miterlimit="10"/>
<path d="M30.8999 47.6L30.2419 33.4341L21.8102 28.3837C20.2759 27.4647 18.8605 26.3605 17.5958 25.0958L16.6274 24.1274C16.5426 24.0426 16.4629 23.9505 16.3909 23.8546V23.8546C14.9605 21.9474 16.7041 19.2544 19.0076 19.8687V19.8687C19.3325 19.9553 19.6368 20.1064 19.9023 20.3129L24 23.5C28.9502 27.1305 32.0424 27 36 27C40.0226 27 42.0911 26.6214 47 23L50.9601 19.4799C51.3104 19.1686 51.753 18.9805 52.2203 18.9446V18.9446C54.2053 18.7919 55.3088 21.1912 53.901 22.599L53 23.5L49 27L40.9609 33.4342V40" stroke="white" stroke-width="2"/>
<path d="M40.4 18.3333C40.4 20.912 38.312 23 35.7333 23C33.156 23 31.0667 20.912 31.0667 18.3333V15.6667C31.0667 13.0893 33.156 11 35.7333 11C38.312 11 40.4 13.0893 40.4 15.6667V18.3333Z" stroke="white" stroke-width="2" stroke-miterlimit="10"/>
<path d="M68.4001 11C68.4001 8.745 66.6551 7 64.4001 7C63.2561 7 62.1411 7.473 61.4001 8.232C60.6591 7.473 59.5441 7 58.4001 7C56.1451 7 54.4001 8.745 54.4001 11C54.4001 12.206 54.9231 13.373 55.7541 14.12L61.4001 18.333L67.0461 14.12C67.8771 13.373 68.4001 12.206 68.4001 11V11Z" stroke="white" stroke-width="2" stroke-miterlimit="10"/>
</svg>
