<svg width="32" height="32" viewBox="0 0 32 32" fill="none" xmlns="http://www.w3.org/2000/svg">
<path d="M10.375 14H21.625L24.45 6.46246C24.4878 6.36379 24.5559 6.27964 24.6445 6.22208C24.7331 6.16451 24.8377 6.1365 24.9432 6.14205C25.0487 6.1476 25.1497 6.18644 25.2318 6.25299C25.3139 6.31953 25.3728 6.41037 25.4 6.51246L28.825 19.325C28.8731 19.5236 28.8607 19.7321 28.7894 19.9236C28.7182 20.1152 28.5913 20.2811 28.425 20.4L16.575 28.6C16.4059 28.7166 16.2054 28.7791 16 28.7791C15.7946 28.7791 15.5941 28.7166 15.425 28.6L3.575 20.4C3.40875 20.2811 3.28183 20.1152 3.21056 19.9236C3.13928 19.7321 3.1269 19.5236 3.175 19.325L6.6 6.51246C6.62724 6.41037 6.68612 6.31953 6.76819 6.25299C6.85026 6.18644 6.95131 6.1476 7.05682 6.14205C7.16234 6.1365 7.2669 6.16451 7.3555 6.22208C7.44411 6.27964 7.5122 6.36379 7.55 6.46246L10.375 14Z" stroke="black" stroke-width="2" stroke-linecap="round" stroke-linejoin="round"/>
<path d="M16.0875 28.775L21.625 14H27.4" stroke="black" stroke-width="2" stroke-linecap="round" stroke-linejoin="round"/>
<path d="M4.60001 14H10.375L15.9125 28.775" stroke="black" stroke-width="2" stroke-linecap="round" stroke-linejoin="round"/>
</svg>
