<svg viewBox="0 0 80 80" fill="none" xmlns="http://www.w3.org/2000/svg">
<path d="M13.3333 21.3333C10.388 21.3333 8 18.8453 8 15.7773V13.5547C8 10.4867 10.388 8 13.3333 8C16.2787 8 18.6667 10.4867 18.6667 13.556V15.7787C18.6667 18.8453 16.2787 21.3333 13.3333 21.3333Z" stroke="white" stroke-width="2" stroke-miterlimit="10"/>
<path d="M4 40.0003V32.0003C4 29.055 6.388 26.667 9.33333 26.667H17.3333C20.2787 26.667 22.6667 29.055 22.6667 32.0003V40.0003" stroke="white" stroke-width="2" stroke-miterlimit="10"/>
<path d="M54.6667 50.667V41.3337C54.6667 37.6523 57.6521 34.667 61.3334 34.667H69.3334C73.0147 34.667 76.0001 37.6523 76.0001 41.3337V50.667" stroke="white" stroke-width="2" stroke-miterlimit="10"/>
<path d="M36.0001 56.0003C33.0547 56.0003 30.6667 53.5123 30.6667 50.4443V48.2217C30.6667 45.155 33.0547 42.667 36.0001 42.667C38.9454 42.667 41.3334 45.155 41.3334 48.223V50.4457C41.3334 53.5123 38.9454 56.0003 36.0001 56.0003Z" stroke="white" stroke-width="2" stroke-miterlimit="10"/>
<path d="M26.6667 74.6663V66.6663C26.6667 63.721 29.0547 61.333 32.0001 61.333H40.0001C42.9454 61.333 45.3334 63.721 45.3334 66.6663V74.6663" stroke="white" stroke-width="2" stroke-miterlimit="10"/>
<path d="M65.3334 29.333C61.6107 29.333 58.6667 26.3477 58.6667 22.6663V19.9997C58.6667 16.3183 61.6387 13.333 65.3334 13.333C69.0147 13.333 72.0001 16.3183 72.0001 19.9997V22.6663C72.0001 26.3477 69.0147 29.333 65.3334 29.333Z" stroke="white" stroke-width="2" stroke-miterlimit="10"/>
<path d="M25 9C31.5 9.5 34.7529 10.5 38.6667 11.9999C42.6293 13.5186 46.5613 15.3293 52.8747 20.9239" stroke="white" stroke-width="2" stroke-miterlimit="10"/>
<path d="M39 37.0006C40.5 30.5005 49 26.5005 53.3334 26.6671" stroke="white" stroke-width="2" stroke-miterlimit="10"/>
</svg>
