<svg viewBox="0 0 80 80" fill="none" xmlns="http://www.w3.org/2000/svg">
<path d="M59.636 49.1171C62.56 48.4198 64.5747 47.1158 65.6747 46.2358C66.48 45.5931 67.356 45.0438 68.3053 44.6451L77.0506 40.9678" stroke="white" stroke-width="2" stroke-miterlimit="10"/>
<path d="M31.4947 59.1717C30.9641 59.701 30.6667 60.421 30.6667 61.1717C30.6667 62.7343 31.9321 63.9997 33.4947 63.9997C34.2454 63.9997 34.9641 63.701 35.4947 63.1717L36.5054 62.161C37.0347 61.6317 37.3334 60.9103 37.3334 60.161C37.3334 58.5983 36.0681 57.333 34.5054 57.333C33.7547 57.333 33.0347 57.6317 32.5054 58.161" stroke="white" stroke-width="2" stroke-miterlimit="10"/>
<path d="M26.1615 56.505C25.6308 57.0343 25.3335 57.7543 25.3335 58.505C25.3335 60.0677 26.5988 61.333 28.1615 61.333C28.9122 61.333 29.6308 61.0343 30.1615 60.505L32.5055 58.161C33.0348 57.6317 33.3335 56.9103 33.3335 56.161C33.3335 54.5983 32.0682 53.333 30.5055 53.333C29.7548 53.333 29.0348 53.6317 28.5055 54.161" stroke="white" stroke-width="2" stroke-miterlimit="10"/>
<path d="M22.1615 52.505C21.6308 53.0343 21.3335 53.7543 21.3335 54.505C21.3335 56.0677 22.5988 57.333 24.1615 57.333C24.9122 57.333 25.6308 57.0343 26.1615 56.505L28.5055 54.161C29.0348 53.6317 29.3335 52.9103 29.3335 52.161C29.3335 50.5983 28.0682 49.333 26.5055 49.333C25.7548 49.333 25.0348 49.6317 24.5055 50.161" stroke="white" stroke-width="2" stroke-miterlimit="10"/>
<path d="M17.3335 50.505C17.3335 52.0677 18.5988 53.333 20.1615 53.333C20.9122 53.333 21.6308 53.0343 22.1615 52.505L24.5055 50.161C25.0348 49.6317 25.3335 48.9103 25.3335 48.161C25.3335 46.5983 24.0682 45.333 22.5055 45.333C21.7548 45.333 21.0348 45.6317 20.5055 46.161L18.1615 48.505C17.6308 49.0343 17.3335 49.7543 17.3335 50.505V50.505Z" stroke="white" stroke-width="2" stroke-miterlimit="10"/>
<path d="M48.5654 45.8983L55.1721 52.505C55.7014 53.0343 56.4228 53.333 57.1721 53.333C58.7348 53.333 60.0001 52.0676 60.0001 50.505C60.0001 49.7543 59.7014 49.0343 59.1721 48.505L42.4814 31.8143L31.9654 36.817C31.1334 37.213 30.5307 37.333 30.0681 37.333C28.2827 37.333 26.6667 35.7743 26.6667 34.0823C26.6667 33.2343 26.9041 32.317 27.8347 31.489L34.1561 25.8623C35.0414 25.0756 36.0881 24.4943 37.2267 24.1623L46.2107 21.5303C46.5694 21.4236 46.9387 21.333 47.3334 21.333C47.8147 21.333 48.2641 21.4636 48.6894 21.6223L58.3588 24.6996C59.7601 25.145 61.2147 25.3543 62.6667 25.333C64.1121 25.3116 65.5534 25.065 66.9361 24.5823L77.1721 21.0156" stroke="white" stroke-width="2" stroke-miterlimit="10"/>
<path d="M45.8987 51.2324L51.172 56.5058C51.7014 57.0351 52.4227 57.3338 53.172 57.3338C54.7347 57.3338 56 56.0684 56 54.5058C56 53.7551 55.7014 53.0351 55.172 52.5058" stroke="white" stroke-width="2" stroke-miterlimit="10"/>
<path d="M43.2319 56.5659L47.1719 60.5059C47.7013 61.0352 48.4226 61.3339 49.1719 61.3339C50.7346 61.3339 51.9999 60.0685 51.9999 58.5059C51.9999 57.7552 51.7013 57.0352 51.1719 56.5059" stroke="white" stroke-width="2" stroke-miterlimit="10"/>
<path d="M40.5654 61.8985L41.8388 63.1719C42.3681 63.7012 43.0894 63.9999 43.8388 63.9999C45.4014 63.9999 46.6668 62.7345 46.6668 61.1719C46.6668 60.4212 46.3681 59.7012 45.8388 59.1719" stroke="white" stroke-width="2" stroke-miterlimit="10"/>
<path d="M19.3334 47.333L16.7734 44.773C16.2627 44.2623 15.6534 43.861 14.984 43.593L1.66138 38.2637" stroke="white" stroke-width="2" stroke-miterlimit="10"/>
<path d="M40.1054 23.3174C37.9374 22.1654 33.34 20 29.3334 20C27.5534 20 25.7734 20.3907 24.3467 20.824C23.24 21.16 22.0947 21.3334 20.9374 21.3334C19.836 21.3334 18.74 21.1774 17.6827 20.868C17.5507 20.8307 4.3907 17.0067 4.2627 16.9707" stroke="white" stroke-width="2" stroke-miterlimit="10"/>
</svg>
