<svg width="60" height="60" viewBox="0 0 60 60" fill="none" xmlns="http://www.w3.org/2000/svg">
<path d="M57.8925 11.03C56.2025 11.74 55.9175 11.805 53.71 11.96C52.085 12.0725 51.8175 12.1025 50.68 12.4825C48.805 13.0975 47.1925 14.3575 45.63 16.4575C44.89 17.4525 42.5075 21.24 42.5075 21.4275C42.5075 21.57 40.8825 23.9225 40.22 24.7275C38.785 26.51 37.52 27.425 34.87 28.7025C32.945 29.6025 31.81 30.0125 24.615 32.395C21.9325 33.2775 19.2825 34.24 18.6975 34.555C16.5675 35.6775 14.91 37.145 13.19 39.4C10.6825 42.7 10.76 42.6825 5.585 41.7675C5.02406 41.6994 4.46134 41.6469 3.8975 41.61C2.2875 41.485 1.34 41.72 0.5675 42.445L0 42.9825L0.4425 43.2025C0.6775 43.3275 1.325 43.7875 1.845 44.1975C2.3825 44.6225 2.9975 45.065 3.22 45.175C3.44 45.285 3.645 45.395 3.6775 45.4275C3.7075 45.46 3.455 45.8525 3.1075 46.31C2.02 47.7625 1.625 48.4875 1.6725 48.93C1.72 49.34 1.7525 49.355 2.7475 49.355C4.04 49.34 4.8125 49.215 5.9 48.835C7.525 48.2525 11.045 46.485 12.86 45.335C14.8 44.085 17.1525 42.84 17.75 42.73C17.955 42.68 18.635 42.555 19.235 42.445C20.685 42.1775 22.895 42.2075 25.7025 42.57C25.9725 42.6025 26.635 42.6825 27.2025 42.73C27.77 42.7925 28.2775 42.8725 28.3375 42.92C28.4025 42.95 29.5225 43.0125 30.8325 43.06C33.1675 43.125 33.5925 43.0775 34.0825 42.5875C34.3975 42.255 35.045 41.01 35.3275 40.125C35.85 38.5175 36.37 37.8225 36.2425 38.895C35.96 41.31 35.4375 43.125 34.46 44.9225C33.8125 46.17 32.8025 47.6525 32.125 48.41C31.32 49.2775 31.3375 49.31 32.345 49.1975C33.8925 49.04 36.0225 48.205 37.585 47.1475C39.6525 45.7425 41.7025 42.92 43.06 39.5725C43.3275 38.8975 43.61 39.0225 43.5175 39.78C43.485 40.015 43.4225 40.5675 43.375 41.025L43.2975 41.845L44.18 41.34C46.2625 40.14 47.715 38.185 49.4975 34.13C50.065 32.835 51.69 26.825 52.18 24.19C52.3571 23.3097 52.5833 22.44 52.8575 21.585C53.175 20.5125 53.3475 20.1975 54.0575 19.44C54.515 18.965 55.62 18.0525 56.5025 17.42C58.3025 16.1575 58.885 15.545 59.47 14.4075C59.99 13.365 60.18 11.5825 59.8 11.015C59.47 10.51 59.09 10.525 57.8925 11.03Z" fill="black"/>
</svg>
