<svg viewBox="0 0 80 80" fill="none" xmlns="http://www.w3.org/2000/svg">
<path d="M37.0054 10.666H76V17.3327" stroke="white" stroke-width="2" stroke-miterlimit="10"/>
<path d="M25.3335 70.6666V35.9453" stroke="white" stroke-width="2" stroke-miterlimit="10"/>
<path d="M76.0002 16V76H25.3335V70.6667" stroke="white" stroke-width="2" stroke-miterlimit="10"/>
<path d="M30.1347 26.1343L24 19.9997V9.33301" stroke="white" stroke-width="2" stroke-miterlimit="10"/>
<path d="M58.6665 28.0003V28.667C58.6665 30.5083 60.1585 32.0003 61.9998 32.0003H65.9998C67.8412 32.0003 69.3332 30.5083 69.3332 28.667C69.3332 26.8257 67.8412 25.3337 65.9998 25.3337H61.9998C60.1585 25.3337 58.6665 23.8417 58.6665 22.0003C58.6665 20.159 60.1585 18.667 61.9998 18.667H65.9998C67.8412 18.667 69.3332 20.159 69.3332 22.0003V22.667" stroke="white" stroke-width="2" stroke-miterlimit="10"/>
<path d="M64 32V36" stroke="white" stroke-width="2" stroke-miterlimit="10"/>
<path d="M64 18.667V14.667" stroke="white" stroke-width="2" stroke-miterlimit="10"/>
<path d="M42.6665 34.667H55.9998" stroke="white" stroke-width="2" stroke-miterlimit="10"/>
<path d="M42.6665 41.333H55.9998" stroke="white" stroke-width="2" stroke-miterlimit="10"/>
<path d="M32 52H56" stroke="white" stroke-width="2" stroke-miterlimit="10"/>
<path d="M60.5317 51.1989L63.9997 54.6669L70.1344 48.5322" stroke="white" stroke-width="2" stroke-miterlimit="10"/>
<path d="M32 65.333H56" stroke="white" stroke-width="2" stroke-miterlimit="10"/>
<path d="M60.5317 64.5319L63.9997 67.9999L70.1344 61.8652" stroke="white" stroke-width="2" stroke-miterlimit="10"/>
<path d="M24 36C32.8366 36 40 28.8366 40 20C40 11.1634 32.8366 4 24 4C15.1634 4 8 11.1634 8 20C8 28.8366 15.1634 36 24 36Z" stroke="white" stroke-width="2" stroke-miterlimit="10"/>
</svg>
