<svg width="48" height="48" viewBox="0 0 48 48" fill="none" xmlns="http://www.w3.org/2000/svg">
<g clip-path="url(#clip0_2748_31144)">
<path d="M2.46875 26.8025V34.8581C2.46875 35.7482 3.17196 36.4692 4.04018 36.4692H44.8973C45.7655 36.4692 46.4687 35.7482 46.4687 34.8581V9.08029C46.4687 8.19015 45.7655 7.46918 44.8973 7.46918H4.04018C3.17196 7.46918 2.46875 8.19015 2.46875 9.08029V26.8025Z" stroke="black" stroke-width="2" stroke-miterlimit="10"/>
<rect x="23.4688" y="35.4692" width="2" height="5" fill="black"/>
<rect width="2" height="15" transform="matrix(0 -1 -1 0 32.4688 40.4692)" fill="black"/>
<path d="M22.7673 18.6648C22.4838 18.404 22.0618 18.404 21.7784 18.6648L19.8768 20.3982L19.7891 20.4784C18.6615 19.962 17.3973 19.7041 15.9895 19.7016C15.9826 19.7016 15.9758 19.7014 15.9689 19.7014H15.9687C15.9616 19.7014 15.955 19.7016 15.9479 19.7016C14.5402 19.7041 13.276 19.962 12.1485 20.4784L12.0606 20.3982L10.1591 18.6648C9.87543 18.404 9.45365 18.404 9.17021 18.6648C8.88654 18.9243 8.88654 19.3093 9.17021 19.5686L11.0097 21.2512C10.417 21.6132 9.8795 22.056 9.41211 22.5626C8.29316 23.7757 7.57946 25.3544 7.48131 27.0649C7.48041 27.0827 7.47849 27.1003 7.47758 27.1181C7.47158 27.2346 7.46875 27.3517 7.46875 27.4692H24.4688C24.4688 27.3517 24.4657 27.2346 24.4599 27.1181C24.459 27.1003 24.4571 27.0827 24.456 27.0649C24.358 25.3544 23.6441 23.7756 22.5252 22.5627C22.058 22.0562 21.5203 21.6133 20.9276 21.2513L22.7673 19.5687C23.051 19.3093 23.051 18.9243 22.7673 18.6648ZM12.4251 25.2051C11.8385 25.2051 11.3629 24.7702 11.3629 24.2337C11.3629 23.6972 11.8385 23.2623 12.4251 23.2623C13.0117 23.2623 13.4872 23.6972 13.4872 24.2337C13.4872 24.7702 13.0117 25.2051 12.4251 25.2051ZM19.5124 25.2051C18.9258 25.2051 18.4503 24.7702 18.4503 24.2337C18.4503 23.6972 18.9258 23.2623 19.5124 23.2623C20.099 23.2623 20.5746 23.6972 20.5746 24.2337C20.5746 24.7702 20.099 25.2051 19.5124 25.2051Z" fill="black"/>
<path d="M28.1254 18.9707H26.4688V17.8438H28.1254V15.4692H29.2087V17.8438H31.4688V18.9707H29.2087V23.9072C29.2087 24.9488 29.627 25.3587 30.4934 25.3587C30.8028 25.3587 31.2211 25.2902 31.4688 25.1711V26.247C31.1121 26.4008 30.7412 26.4692 30.323 26.4692C29.0076 26.4692 28.1254 25.6316 28.1254 24.009V18.9707Z" fill="black"/>
<path d="M41.4688 19.4692L37.4423 27.4692H36.4959L32.4688 19.4692H33.8111L36.9603 25.821L40.1095 19.4692H41.4688Z" fill="black"/>
</g>
<defs>
<clipPath id="clip0_2748_31144">
<rect width="47" height="47" fill="white" transform="translate(0.46875 0.469177)"/>
</clipPath>
</defs>
</svg>
