<svg viewBox="0 0 61 60" fill="none" xmlns="http://www.w3.org/2000/svg">
<path d="M2.5 33V43C2.5 44.105 3.395 45 4.5 45H56.5C57.605 45 58.5 44.105 58.5 43V11C58.5 9.895 57.605 9 56.5 9H4.5C3.395 9 2.5 9.895 2.5 11V33Z" stroke="black" stroke-width="2" stroke-miterlimit="10"/>
<rect x="29.5" y="45" width="2" height="6" fill="black"/>
<rect width="2" height="20" transform="matrix(0 -1 -1 0 40.5 51)" fill="black"/>
<path d="M27.656 22.2609C27.3103 21.913 26.7957 21.913 26.4501 22.2609L24.1311 24.5721L24.0242 24.6789C22.6492 23.9904 21.1075 23.6465 19.3907 23.6432C19.3823 23.6432 19.374 23.6429 19.3656 23.6429H19.3653C19.3566 23.6429 19.3486 23.6432 19.3399 23.6432C17.6233 23.6465 16.0817 23.9904 14.7068 24.6789L14.5995 24.5721L12.2808 22.2609C11.9348 21.913 11.4205 21.913 11.0749 22.2609C10.7289 22.6068 10.7289 23.1202 11.0749 23.4658L13.318 25.7094C12.5952 26.192 11.9398 26.7825 11.3699 27.4579C10.0053 29.0753 9.135 31.1803 9.01532 33.461C9.01422 33.4847 9.01187 33.5082 9.01077 33.5319C9.00345 33.6872 9 33.8433 9 34H29.7308C29.7308 33.8433 29.7271 33.6872 29.7201 33.5319C29.719 33.5082 29.7166 33.4847 29.7152 33.461C29.5958 31.1803 28.7252 29.0752 27.3607 27.4581C26.791 26.7826 26.1353 26.1921 25.4126 25.7095L27.656 23.466C28.0019 23.1202 28.0019 22.6068 27.656 22.2609ZM15.044 30.9812C14.3287 30.9812 13.7488 30.4013 13.7488 29.686C13.7488 28.9707 14.3287 28.3908 15.044 28.3908C15.7594 28.3908 16.3393 28.9707 16.3393 29.686C16.3393 30.4013 15.7594 30.9812 15.044 30.9812ZM23.6868 30.9812C22.9715 30.9812 22.3916 30.4013 22.3916 29.686C22.3916 28.9707 22.9715 28.3908 23.6868 28.3908C24.4021 28.3908 24.982 28.9707 24.982 29.686C24.982 30.4013 24.4021 30.9812 23.6868 30.9812Z" fill="black"/>
<path d="M35.5776 24.4565H33.251V23.0222H35.5776V20H37.099V23.0222H40.2731V24.4565H37.099V30.7394C37.099 32.065 37.6865 32.5866 38.9033 32.5866C39.3378 32.5866 39.9253 32.4995 40.2731 32.348V33.7172C39.7723 33.913 39.2513 34 38.664 34C36.8166 34 35.5776 32.934 35.5776 30.8688V24.4565Z" fill="black"/>
<path d="M52.6425 23L47.5562 33.8695H46.3606L41.2734 23H42.9692L46.9474 31.6301L50.9254 23H52.6425Z" fill="black"/>
</svg>
