<svg viewBox="0 0 61 60" fill="none" xmlns="http://www.w3.org/2000/svg">
<circle cx="29.9603" cy="30.1665" r="19.9603" stroke="black" stroke-width="2" stroke-miterlimit="10"/>
<rect x="49.9209" y="26.8398" width="1.8816" height="6.58562" fill="black"/>
<path d="M42.5717 14.7527C41.8737 13.8063 40.9329 9.98741 40.9329 8.58562C40.9329 4.94847 40.8068 2 37.1697 2H22.7214C19.0852 2 18.9582 4.94847 18.9582 8.58562C18.9582 9.98741 18.0175 13.6954 17.3193 14.6419" stroke="black" stroke-width="2" stroke-miterlimit="10"/>
<path d="M42.5717 45.6912C41.8737 46.6376 40.9329 50.0126 40.9329 51.4144C40.9329 55.0515 40.8068 58 37.1697 58H22.7214C19.0852 58 18.9582 55.0515 18.9582 51.4144C18.9582 50.0126 18.0175 46.6376 17.3193 45.6912" stroke="black" stroke-width="2" stroke-miterlimit="10"/>
</svg>
