<svg viewBox="0 0 90 78" fill="none" xmlns="http://www.w3.org/2000/svg">
<path fill-rule="evenodd" clip-rule="evenodd" d="M22.8345 77.533C22.6357 77.533 22.452 77.4273 22.3522 77.2554L0.16269 39.0466C0.0620975 38.8734 0.0621033 38.6596 0.162707 38.4864L22.3552 0.277641C22.455 0.105767 22.6388 0 22.8375 0H66.9702C67.1689 0 67.3527 0.10578 67.4525 0.27767L89.642 38.4865C89.7425 38.6594 89.7426 38.8729 89.6424 39.046L67.5258 77.2547C67.4261 77.427 67.2421 77.533 67.043 77.533L22.8345 77.533ZM54.3823 76.3543C54.2824 76.5259 54.0988 76.6315 53.9002 76.6315H23.353C23.1543 76.6315 22.9705 76.5257 22.8707 76.3538L1.2048 39.0467C1.10421 38.8735 1.10422 38.6596 1.20482 38.4864L22.8737 1.17919C22.9735 1.00731 23.1573 0.901547 23.356 0.901547L33.5701 0.901548C34.0005 0.901548 34.2687 1.3683 34.052 1.74016L12.7105 38.3667C12.6098 38.5395 12.6093 38.753 12.7092 38.9262L28.5739 66.4353C28.6735 66.6081 28.8577 66.7145 29.0571 66.7145L48.1685 66.7145C48.3669 66.7145 48.5504 66.6091 48.6504 66.4377L64.3657 39.4941C64.4657 39.3227 64.6492 39.2173 64.8476 39.2173H75.025C75.4552 39.2173 75.7235 39.6838 75.5071 40.0556L54.3823 76.3543ZM75.509 37.4778C75.725 37.8497 75.4567 38.3157 75.0267 38.3157H64.8554C64.6566 38.3157 64.4729 38.21 64.3731 38.0381L55.0096 21.9148C54.9097 21.7429 54.726 21.6371 54.5272 21.6371H37.0109C36.589 21.6371 36.3198 21.1868 36.5196 20.8152L41.2524 12.0137C41.3496 11.8329 41.5384 11.7201 41.7437 11.7201L60.2293 11.7201C60.428 11.7201 60.6118 11.8259 60.7116 11.9978L75.509 37.4778ZM35.421 22.8141C35.5211 22.6435 35.7042 22.5387 35.902 22.5387H54.0087C54.2075 22.5387 54.3912 22.6445 54.491 22.8163L63.5874 38.4796C63.6882 38.6532 63.688 38.8675 63.5869 39.0408L54.4472 54.7106C54.3472 54.8819 54.1638 54.9873 53.9654 54.9873H35.7956C35.5969 54.9873 35.4131 54.8815 35.3133 54.7097L26.2183 39.0488C26.1173 38.8747 26.1178 38.6598 26.2197 38.4862L35.421 22.8141ZM24.953 39.2173C25.1518 39.2173 25.3355 39.3231 25.4354 39.495L34.7948 55.6112C34.8946 55.7831 35.0783 55.8889 35.2771 55.8889H52.7885C53.2191 55.8889 53.4873 56.356 53.2702 56.7278L48.1329 65.5293C48.0329 65.7006 47.8495 65.8059 47.6512 65.8059H29.5753C29.3759 65.8059 29.1917 65.6995 29.0921 65.5268L14.3999 40.0538C14.1854 39.6819 14.4538 39.2173 14.8831 39.2173H24.953Z" fill="white"/>
</svg>
