<svg viewBox="0 0 94 77" fill="none" xmlns="http://www.w3.org/2000/svg">
<path d="M93.478 30.2045C93.478 30.074 93.4305 29.9484 93.344 29.8507C80.8311 15.7153 67.8586 0 47.1842 0C25.6561 0 13.1379 16.2747 0.134722 30.9187C0.0478585 31.0165 0 31.1426 0 31.2734V46.3397C0 46.4814 0.0554925 46.6164 0.155578 46.7167C13.1369 59.721 27.2133 76.652 47.0951 76.652C67.1705 76.652 81.5717 60.485 93.3548 46.3527C93.4348 46.2567 93.478 46.1364 93.478 46.0115V30.2045ZM47.1842 22.2567C58.2297 22.2567 63.9234 30.1118 70.7251 37.9173C70.9053 38.1241 70.9053 38.4296 70.7208 38.6325C67.7026 41.952 57.0316 54.3063 47.1842 54.3063C37.1323 54.3063 29.4709 45.1313 23.6468 38.5552C23.4638 38.3486 23.4707 38.0369 23.6586 37.8347C31.2979 29.6095 36.1269 22.2567 47.1842 22.2567ZM47.1842 0.890267C67.4359 0.890267 80.1131 16.4177 92.4519 30.2063C92.5396 30.3043 92.5878 30.4308 92.5878 30.5623V43.5865C92.5878 44.0735 91.9929 44.3067 91.6676 43.9443C79.6062 30.5063 66.8938 10.9503 47.1842 10.9503C33.1738 10.9503 23.9581 20.2207 15.1853 30.0032C15.0041 30.2053 15.0029 30.5107 15.1869 30.7103C16.7927 32.4523 20.062 35.6495 23.1469 39.1717C30.9443 48.0744 37.7963 55.1966 47.1842 55.1966C56.9103 55.1966 65.142 45.669 71.457 39.1267C71.6686 38.9075 72.0188 38.9125 72.2272 39.1348L78.1678 45.4714C78.365 45.6818 78.3603 46.0099 78.1567 46.214C69.5971 54.7888 60.3828 64.4553 47.3622 64.4553C25.5137 64.4553 15.2573 45.0858 1.43228 31.5145C1.22879 31.3147 1.21635 30.9915 1.40469 30.7774C13.999 16.4602 26.2643 0.890267 47.1842 0.890267Z" fill="white"/>
</svg>
