<svg viewBox="0 0 80 80" fill="none" xmlns="http://www.w3.org/2000/svg">
<path fill-rule="evenodd" clip-rule="evenodd" d="M79.8326 11.268C79.9398 11.3752 80 11.5205 80 11.6721L80 79.4286C80 79.7442 79.7442 80 79.4286 80L11.6721 80C11.5205 80 11.3752 79.9398 11.268 79.8326L0.167359 68.732C0.0601893 68.6248 -1.42516e-05 68.4795 -1.42384e-05 68.3279L-1.42016e-05 67.907L-8.31492e-06 0.571427C-8.28733e-06 0.255837 0.255828 6.57937e-07 0.571426 6.85527e-07L68.3279 6.60899e-06C68.4795 6.62224e-06 68.6248 0.0602102 68.732 0.167373L79.8326 11.268ZM11.1628 11.7343C11.1628 11.4187 11.4186 11.1629 11.7342 11.1629L77.0323 11.1628C77.5414 11.1628 77.7964 10.5473 77.4364 10.1873L68.3467 1.09761C68.2395 0.990447 68.0942 0.930243 67.9426 0.930243L1.50165 0.930238C1.18606 0.930238 0.930221 1.18607 0.930221 1.50166L0.930215 67.3355C0.930215 67.6511 1.18605 67.9069 1.50165 67.9069L65.8695 67.9069C66.3786 67.9069 66.6336 67.2914 66.2736 66.9314L57.1839 57.8417C57.0767 57.7346 56.9314 57.6744 56.7798 57.6744L11.7342 57.6744C11.4186 57.6744 11.1628 57.4185 11.1628 57.1029L11.1628 11.7343ZM13.0685 13.7263C12.7085 13.3663 12.093 13.6212 12.093 14.1303L12.093 56.1727C12.093 56.4883 12.3488 56.7441 12.6644 56.7441L21.7541 56.7441C22.0697 56.7441 22.3255 56.4883 22.3255 56.1727L22.3255 23.22C22.3255 23.0685 22.2653 22.9231 22.1582 22.816L13.0685 13.7263ZM23.8272 23.2559C23.5116 23.2559 23.2558 23.5117 23.2558 23.8273L23.2558 56.1727C23.2558 56.4883 23.5116 56.7441 23.8272 56.7441L56.1727 56.7441C56.4882 56.7441 56.7441 56.4883 56.7441 56.1727L56.7441 23.8273C56.7441 23.5117 56.4882 23.2559 56.1727 23.2559L23.8272 23.2559ZM58.2457 23.2559C57.9302 23.2559 57.6743 23.5117 57.6743 23.8273L57.6743 56.7799C57.6743 56.9314 57.7345 57.0768 57.8417 57.184L66.9314 66.2736C67.2913 66.6336 67.9069 66.3787 67.9069 65.8696L67.9069 23.8273C67.9069 23.5117 67.651 23.2559 67.3354 23.2559L58.2457 23.2559Z" fill="white"/>
</svg>
