<svg viewBox="0 0 92 79" fill="none" xmlns="http://www.w3.org/2000/svg">
<path fill-rule="evenodd" clip-rule="evenodd" d="M52.5629 0.273493C52.4647 0.104202 52.2838 0 52.0881 0H51.8772H39.4181C39.2227 0 39.042 0.103899 38.9437 0.272797L0.251039 66.7558L0.159826 66.9125C0.0609605 67.0824 0.0604732 67.2922 0.158549 67.4625L0.283649 67.6798L6.50885 78.4915C6.60681 78.6617 6.7882 78.7665 6.98453 78.7665H84.1873H84.4006C84.5966 78.7665 84.7778 78.662 84.8759 78.4922L84.9807 78.3108L91.2322 67.4907C91.3305 67.3205 91.3303 67.1107 91.2317 66.9407L52.6807 0.476618L52.5629 0.273493ZM46.4147 33.7466C46.316 33.5764 46.316 33.3664 46.4145 33.1962L51.6088 24.2238C51.8201 23.8588 52.3471 23.8586 52.5586 24.2235L83.1744 77.0246C83.3865 77.3906 83.1225 77.8489 82.6995 77.8489H7.51482C7.31849 77.8489 7.13711 77.744 7.03914 77.5739L1.81605 68.5026C1.60536 68.1366 1.86948 67.6798 2.29173 67.6798H66.0685C66.0782 67.6798 66.0842 67.6693 66.0793 67.6609L65.6907 66.9907L65.6799 66.9721L46.4147 33.7466ZM34.3096 55.7503C33.8868 55.7503 33.6227 55.2924 33.8346 54.9264L45.2507 35.2066C45.462 34.8415 45.989 34.8414 46.2006 35.2063L57.6347 54.9261C57.8469 55.292 57.5829 55.7503 57.1599 55.7503H34.3096ZM44.7335 12.2689L19.3602 55.8461C19.1471 56.2121 19.4111 56.6712 19.8346 56.6712L58.3277 56.668C58.5234 56.668 58.7044 56.7722 58.8026 56.9416L64.009 65.9195C64.2212 66.2854 63.9572 66.7437 63.5343 66.7438L2.26742 66.7554C1.84399 66.7555 1.57992 66.2964 1.79291 65.9304L39.4711 1.19045C39.5694 1.02155 39.7501 0.917649 39.9455 0.917649H50.3882C50.8116 0.917649 51.0756 1.37681 50.8625 1.74274L45.7141 10.5849C45.7134 10.586 45.7118 10.586 45.7111 10.5849C45.7104 10.5838 45.7088 10.5838 45.7081 10.5849L44.7335 12.2689Z" fill="white"/>
</svg>
