<svg viewBox="0 0 40 40" fill="none" xmlns="http://www.w3.org/2000/svg">
<g clip-path="url(#clip0_416_1205)">
<path d="M12.9232 4.26548H38.4375C38.869 4.26548 39.2187 4.61525 39.2187 5.04673V34.9534C39.2187 35.3849 38.869 35.7346 38.4375 35.7346H1.5625C1.13109 35.7346 0.78125 35.3849 0.78125 34.9534V5.04673C0.78125 4.61525 1.13109 4.26548 1.5625 4.26548H16.4842" stroke="white" stroke-width="2.00001" stroke-miterlimit="10" stroke-linecap="round" stroke-linejoin="round"/>
<path d="M20.7814 4.26569C20.7814 4.69717 20.4316 5.04694 20.0001 5.04694C19.5686 5.04694 19.2189 4.69717 19.2189 4.26569C19.2189 3.8342 19.5686 3.48444 20.0001 3.48444C20.4316 3.48444 20.7814 3.8342 20.7814 4.26569Z" fill="white"/>
<path d="M13.8466 7.39062H7.39844" stroke="white" stroke-width="2.00001" stroke-miterlimit="10" stroke-linecap="round" stroke-linejoin="round"/>
<path d="M0.78125 10.5154H39.2188" stroke="white" stroke-width="2.00001" stroke-miterlimit="10" stroke-linecap="round" stroke-linejoin="round"/>
<path d="M5.05469 7.39063C5.05469 7.82211 4.70492 8.17188 4.27344 8.17188C3.84195 8.17188 3.49219 7.82211 3.49219 7.39063C3.49219 6.95914 3.84195 6.60938 4.27344 6.60938C4.70492 6.60938 5.05469 6.95914 5.05469 7.39063Z" fill="white"/>
<path d="M9.82031 30.4885C9.82031 30.92 9.47055 31.2698 9.03906 31.2698C8.60758 31.2698 8.25781 30.92 8.25781 30.4885C8.25781 30.057 8.60758 29.7073 9.03906 29.7073C9.47055 29.7073 9.82031 30.057 9.82031 30.4885Z" fill="white"/>
<path d="M10.3281 27.3635C10.3281 27.795 9.97836 28.1448 9.54687 28.1448C9.11539 28.1448 8.76562 27.795 8.76562 27.3635C8.76562 26.932 9.11539 26.5823 9.54687 26.5823C9.97836 26.5823 10.3281 26.932 10.3281 27.3635Z" fill="white"/>
<path d="M12.3047 24.2388C12.3047 24.6703 11.9549 25.0201 11.5234 25.0201C11.092 25.0201 10.7422 24.6703 10.7422 24.2388C10.7422 23.8073 11.092 23.4576 11.5234 23.4576C11.9549 23.4576 12.3047 23.8073 12.3047 24.2388Z" fill="white"/>
<path d="M30.9688 18.1052C30.9688 19.3997 29.9195 20.449 28.625 20.449C27.3305 20.449 26.2812 19.3997 26.2812 18.1052C26.2812 16.8108 27.3305 15.7615 28.625 15.7615C29.9195 15.7615 30.9688 16.8108 30.9688 18.1052Z" stroke="white" stroke-width="2.00001" stroke-miterlimit="10" stroke-linecap="round" stroke-linejoin="round"/>
<path d="M15.1719 22.9049C18.1681 23.1622 20.5382 26.4592 20.5382 30.4885C20.5382 24.0807 23.1099 18.8861 26.2822 18.8861C26.3273 18.8861 26.3721 18.8871 26.417 18.8892" stroke="white" stroke-width="2.00001" stroke-miterlimit="10" stroke-linecap="round" stroke-linejoin="round"/>
</g>
<defs>
<clipPath id="clip0_416_1205">
<rect width="40" height="40" fill="white"/>
</clipPath>
</defs>
</svg>
