<svg viewBox="0 0 45 50" fill="none" xmlns="http://www.w3.org/2000/svg">
<path d="M39.3164 9.81612C39.2991 9.70874 39.2463 9.61014 39.1664 9.53582C39.0864 9.4615 38.9839 9.41567 38.8749 9.40555C38.6986 9.37752 34.8268 9.11128 34.8268 9.11128L31.8746 6.17841C31.6095 5.88414 31.0199 5.97102 30.797 6.03268C30.7688 6.03268 30.2074 6.20784 29.292 6.5035C28.4006 3.94477 26.8237 1.59624 24.0478 1.59624H23.8108C23.0139 0.573305 22.0407 0.101074 21.2155 0.101074C14.7498 0.1291 11.6665 8.1416 10.6932 12.2361L6.174 13.6136C4.78749 14.0522 4.7353 14.0844 4.55194 15.3974L0.742188 44.5902L29.3019 49.901L44.7807 46.5856C44.7807 46.5576 39.346 10.0964 39.3178 9.81893L39.3164 9.81612ZM27.708 6.99676C26.9887 7.23217 26.1565 7.46758 25.2876 7.73243V7.20414C25.3158 5.88414 25.1141 4.56975 24.698 3.3142C26.1452 3.5356 27.1185 5.14987 27.708 6.99676ZM22.9547 3.65331C23.4272 5.03637 23.6599 6.4937 23.6007 7.95523V8.21867L18.6075 9.76007C19.585 6.13497 21.3862 4.34274 22.9518 3.66872L22.9547 3.65331ZM21.0364 1.86949C21.3326 1.87649 21.6189 1.96757 21.8629 2.13292C19.7796 3.097 17.5779 5.52962 16.6328 10.4005L12.6834 11.6027C13.7977 7.90618 16.3973 1.86108 21.0336 1.86108L21.0364 1.86949Z" fill="#9EBE59"/>
<path d="M38.8813 9.40425C38.705 9.37623 34.8332 9.10998 34.8332 9.10998L31.881 6.17711C31.7724 6.06501 31.6243 6.00335 31.4677 6.00195L29.3125 49.8955L44.7913 46.5801L39.3242 9.84145C39.2875 9.61725 39.1098 9.43788 38.8827 9.40285L38.8813 9.40425Z" fill="#6A8D48"/>
<path d="M24.0549 17.9127L22.1338 23.5459C20.9729 22.9853 19.7021 22.6869 18.4129 22.6631C15.3987 22.6631 15.2534 24.5408 15.2534 25.0116C15.2534 27.5759 22.0167 28.5624 22.0167 34.6075C22.0167 39.3607 18.9743 42.4126 14.8979 42.4126C9.99506 42.4126 7.48438 39.3901 7.48438 39.3901L8.78767 35.0742C8.78767 35.0742 11.3548 37.2742 13.5439 37.2742C13.8055 37.2844 14.0665 37.2418 14.3111 37.1487C14.5556 37.0557 14.7786 36.9143 14.9664 36.7331C15.1543 36.5518 15.3031 36.3345 15.4038 36.0944C15.5045 35.8543 15.5551 35.5963 15.5524 35.3362C15.5524 31.9591 9.99929 31.8134 9.99929 26.298C9.99929 21.6597 13.3647 17.1406 20.1295 17.1406C22.7882 17.1799 24.0591 17.9113 24.0591 17.9113L24.0549 17.9127Z" fill="white"/>
</svg>
