<svg width="56" height="56" viewBox="0 0 56 56" fill="none" xmlns="http://www.w3.org/2000/svg">
<g clip-path="url(#clip0_416_997)">
<path d="M52.64 24.6402V22.4002C52.64 20.5446 51.1355 19.0402 49.28 19.0402H47.04C47.04 17.1846 45.5355 15.6802 43.68 15.6802H41.44C39.5845 15.6802 38.08 17.1846 38.08 19.0402V24.6402H17.92V19.0402C17.92 17.1846 16.4155 15.6802 14.56 15.6802H12.32C10.4645 15.6802 8.96 17.1846 8.96 19.0402H6.72C4.86445 19.0402 3.36 20.5446 3.36 22.4002V24.6402C1.50445 24.6402 0 26.1446 0 28.0002C0 29.8557 1.50445 31.3602 3.36 31.3602V33.6002C3.36 35.4557 4.86445 36.9602 6.72 36.9602H8.96C8.96 38.8157 10.4645 40.3202 12.32 40.3202H14.56C16.4155 40.3202 17.92 38.8157 17.92 36.9602V31.3602H38.08V36.9602C38.08 38.8157 39.5845 40.3202 41.44 40.3202H43.68C45.5355 40.3202 47.04 38.8157 47.04 36.9602H49.28C51.1355 36.9602 52.64 35.4557 52.64 33.6002C52.64 31.7446 52.64 31.3602 52.64 31.3602C54.4955 31.3602 56 29.8557 56 28.0002C56 26.1446 54.4955 24.6402 52.64 24.6402ZM52.64 29.1202V26.8802C53.2585 26.8802 53.76 27.3817 53.76 28.0002C53.76 28.6187 53.2585 29.1202 52.64 29.1202ZM49.28 34.7202H47.04V21.2802H49.28C49.8985 21.2802 50.4 21.7817 50.4 22.4002V33.6002C50.4 34.2187 49.8985 34.7202 49.28 34.7202ZM43.68 38.0802H41.44C40.8215 38.0802 40.32 37.5787 40.32 36.9602V19.0402C40.32 18.4217 40.8215 17.9202 41.44 17.9202H43.68C44.2985 17.9202 44.8 18.4217 44.8 19.0402V36.9602C44.8 37.5787 44.2985 38.0802 43.68 38.0802ZM14.56 38.0802H12.32C11.7015 38.0802 11.2 37.5787 11.2 36.9602V19.0402C11.2 18.4217 11.7015 17.9202 12.32 17.9202H14.56C15.1785 17.9202 15.68 18.4217 15.68 19.0402V36.9602C15.68 37.5787 15.1785 38.0802 14.56 38.0802ZM5.6 33.6002V22.4002C5.6 21.7817 6.10148 21.2802 6.72 21.2802H8.96V34.7202H6.72C6.10148 34.7202 5.6 34.2187 5.6 33.6002ZM2.24 28.0002C2.24 27.3817 2.74148 26.8802 3.36 26.8802V29.1202C2.74148 29.1202 2.24 28.6187 2.24 28.0002ZM17.92 26.8802H38.08V29.1202H17.92V26.8802Z" fill="#CE504B"/>
</g>
<defs>
<clipPath id="clip0_416_997">
<rect width="56" height="56" fill="white"/>
</clipPath>
</defs>
</svg>
