<svg viewBox="0 0 40 40" fill="none" xmlns="http://www.w3.org/2000/svg">
<path d="M15.2969 16.4846L12.9531 18.8284" stroke="white" stroke-width="2.00001" stroke-miterlimit="10" stroke-linecap="round" stroke-linejoin="round"/>
<path d="M12.9531 18.8284L15.2969 21.1721" stroke="white" stroke-width="2.00001" stroke-miterlimit="10" stroke-linecap="round" stroke-linejoin="round"/>
<path d="M24.6797 16.4846L27.0234 18.8284" stroke="white" stroke-width="2.00001" stroke-miterlimit="10" stroke-linecap="round" stroke-linejoin="round"/>
<path d="M27.0234 18.8284L24.6797 21.1721" stroke="white" stroke-width="2.00001" stroke-miterlimit="10" stroke-linecap="round" stroke-linejoin="round"/>
<path d="M21.1641 14.1409L18.8203 23.5159" stroke="white" stroke-width="2.00001" stroke-miterlimit="10" stroke-linecap="round" stroke-linejoin="round"/>
<path d="M31.7031 36.4846C31.7031 37.779 30.6538 38.8284 29.3594 38.8284H10.6094C9.315 38.8284 8.26562 37.779 8.26562 36.4846V3.51588C8.26562 2.2215 9.315 1.17213 10.6094 1.17213H29.3594C30.6538 1.17213 31.7031 2.2215 31.7031 3.51588V36.4846Z" stroke="white" stroke-width="2.00001" stroke-miterlimit="10" stroke-linecap="round" stroke-linejoin="round"/>
<path d="M17.6407 34.1409H22.3282" stroke="white" stroke-width="2.00001" stroke-miterlimit="10" stroke-linecap="round" stroke-linejoin="round"/>
<path d="M21.1564 5.85962C21.1564 6.50681 20.6317 7.03149 19.9845 7.03149C19.3373 7.03149 18.8126 6.50681 18.8126 5.85962C18.8126 5.21243 19.3373 4.68774 19.9845 4.68774C20.6317 4.68774 21.1564 5.21243 21.1564 5.85962Z" fill="white"/>
</svg>
