<svg viewBox="0 0 41 40" fill="none" xmlns="http://www.w3.org/2000/svg">
<g clip-path="url(#clip0_416_1101)">
<path d="M20.5878 31.8676C13.9966 31.8676 8.63428 26.544 8.63428 20.0003C8.63428 13.4567 13.9966 8.13311 20.5878 8.13311C27.179 8.13311 32.5413 13.4567 32.5413 20.0003C32.5413 26.544 27.179 31.8676 20.5878 31.8676Z" stroke="white" stroke-width="2" stroke-miterlimit="10" stroke-linecap="round" stroke-linejoin="round"/>
<path d="M20.5773 25.021C17.7887 25.021 15.52 22.7687 15.52 20.0002C15.52 17.2318 17.7887 14.9795 20.5773 14.9795C23.3659 14.9795 25.6345 17.2318 25.6345 20.0002C25.6345 22.7687 23.3659 25.021 20.5773 25.021Z" stroke="white" stroke-width="2" stroke-miterlimit="10" stroke-linecap="round" stroke-linejoin="round"/>
<path d="M20.5957 20.0002L29.0482 11.6088" stroke="white" stroke-width="2" stroke-miterlimit="10" stroke-linecap="round" stroke-linejoin="round"/>
<path d="M38.4145 7.14421L33.5381 11.9854L29.041 11.6088L28.6617 7.14421L33.5381 2.30299L33.9174 6.76765L38.4145 7.14421Z" stroke="white" stroke-width="2" stroke-miterlimit="10" stroke-linecap="round" stroke-linejoin="round"/>
<path d="M35.8524 9.68479L33.5347 11.9857L29.0376 11.6092L28.6584 7.14452L30.976 4.84357C28.0157 2.83954 24.4385 1.66719 20.5852 1.66719C10.3863 1.66719 2.11853 9.87535 2.11853 20.0005C2.11853 30.1258 10.3863 38.3339 20.5852 38.3339C30.784 38.3339 39.0519 30.1258 39.0519 20.0005C39.0519 16.175 37.871 12.6237 35.8524 9.68479Z" stroke="white" stroke-width="2" stroke-miterlimit="10" stroke-linecap="round" stroke-linejoin="round"/>
</g>
<defs>
<clipPath id="clip0_416_1101">
<rect width="40.2909" height="40" fill="white" transform="translate(0.45813)"/>
</clipPath>
</defs>
</svg>
