<svg width="56" height="56" viewBox="0 0 56 56" fill="none" xmlns="http://www.w3.org/2000/svg">
<path d="M43.4531 24.6592L49.441 18.6761" stroke="#CE504B" stroke-width="2" stroke-miterlimit="22.926" stroke-linecap="round" stroke-linejoin="round"/>
<path d="M18.5625 49.5322L24.0452 44.0694" stroke="#CE504B" stroke-width="2" stroke-miterlimit="22.926" stroke-linecap="round" stroke-linejoin="round"/>
<path d="M26.8895 16.6709L16.6797 6.46106" stroke="#CE504B" stroke-width="2" stroke-miterlimit="22.926" stroke-linecap="round" stroke-linejoin="round"/>
<path d="M32.5 14.5493L40.5881 6.46123" stroke="#CE504B" stroke-width="2" stroke-miterlimit="22.926" stroke-linecap="round" stroke-linejoin="round"/>
<path d="M6.45312 40.6011L17.133 29.9212" stroke="#CE504B" stroke-width="2" stroke-miterlimit="22.926" stroke-linecap="round" stroke-linejoin="round"/>
<path d="M15.1873 27.605L6.45312 18.8708" stroke="#CE504B" stroke-width="2" stroke-miterlimit="22.926" stroke-linecap="round" stroke-linejoin="round"/>
<path d="M37.4911 49.5381L34.6875 46.7345M38.2864 20.4951L44.4163 26.625C46.5291 28.7378 47.2166 31.7503 46.4792 34.4489L49.5298 37.4994" stroke="#CE504B" stroke-width="2" stroke-miterlimit="22.926" stroke-linecap="round" stroke-linejoin="round"/>
<path d="M24.7293 37.1523L15.3133 27.7363C14.2706 26.6936 14.2706 24.9873 15.3133 23.9446C16.1887 23.0691 17.532 22.9288 18.5575 23.5235L16.83 21.796C15.7872 20.7532 15.7872 19.047 16.83 18.0042C17.8728 16.9615 19.579 16.9615 20.6217 18.0042L22.6991 20.0817C21.7879 19.0315 21.8311 17.4268 22.8287 16.4292C23.8714 15.3865 25.5776 15.3865 26.6204 16.4292L29.4311 19.24C28.3898 18.1971 28.3902 16.492 29.4326 15.4497C30.4753 14.407 32.1815 14.407 33.2242 15.4496L42.6404 24.8657" stroke="#CE504B" stroke-width="2" stroke-miterlimit="22.926" stroke-linecap="round" stroke-linejoin="round"/>
<path d="M34.4586 46.8839L34.3954 46.9471C32.3417 49.0007 28.992 49.0007 26.9384 46.9471C24.0947 44.1033 21.2509 41.2596 18.4071 38.4158C17.3643 37.3731 17.3643 35.6668 18.4071 34.624C19.4499 33.5813 21.1561 33.5813 22.1987 34.624" stroke="#CE504B" stroke-width="2" stroke-miterlimit="22.926" stroke-linecap="round" stroke-linejoin="round"/>
<path d="M18.9062 23.8809L24.4043 29.3789" stroke="#CE504B" stroke-width="2" stroke-miterlimit="22.926" stroke-linecap="round" stroke-linejoin="round"/>
<path d="M22.6953 20.0894L28.1932 25.5874" stroke="#CE504B" stroke-width="2" stroke-miterlimit="22.926" stroke-linecap="round" stroke-linejoin="round"/>
<path d="M29.0234 18.8257L31.9936 21.7959" stroke="#CE504B" stroke-width="2" stroke-miterlimit="22.926" stroke-linecap="round" stroke-linejoin="round"/>
</svg>
