<svg width="56" height="56" viewBox="0 0 56 56" fill="none" xmlns="http://www.w3.org/2000/svg">
<path d="M33.5482 20.386C33.5482 23.4477 31.0663 25.9297 28.0045 25.9297C24.9429 25.9297 22.4609 23.4477 22.4609 20.386C22.4609 17.3243 24.9429 14.8423 28.0045 14.8423C31.0663 14.8423 33.5482 17.3243 33.5482 20.386Z" stroke="#CE504B" stroke-width="2" stroke-miterlimit="10" stroke-linecap="round" stroke-linejoin="round"/>
<path d="M37.3195 13.1894C35.1039 10.3263 31.6248 8.61575 28.0042 8.61575C24.3836 8.61575 20.9045 10.3263 18.6889 13.1894C16.1901 16.4191 15.743 20.3108 17.0563 24.114C18.3189 27.77 21.0002 30.8188 23.1925 33.9609C24.7608 36.2087 26.329 38.4565 27.8972 40.7051C27.9326 40.7558 27.9688 40.8072 28.0042 40.8579C28.0396 40.8072 28.0758 40.7558 28.1112 40.7051C29.6794 38.4565 31.2476 36.2087 32.8159 33.9609C35.0082 30.8188 37.6895 27.77 38.9521 24.114C40.2654 20.3108 39.8182 16.4191 37.3195 13.1894Z" stroke="#CE504B" stroke-width="2" stroke-miterlimit="10" stroke-linecap="round" stroke-linejoin="round"/>
<path d="M20.6175 38.3903L17.1875 40.5569L27.9963 47.3848L38.8051 40.5569L35.375 38.3903" stroke="#CE504B" stroke-width="2" stroke-miterlimit="10" stroke-linecap="round" stroke-linejoin="round"/>
</svg>
