<svg viewBox="0 0 211 83" fill="none" xmlns="http://www.w3.org/2000/svg">
<path fill-rule="evenodd" clip-rule="evenodd" d="M26.036 56.6968C28.2513 54.6566 29.359 52.1276 29.359 49.0674C29.359 47.1121 28.8811 45.3907 27.9472 43.8818C26.9916 42.3943 25.6886 41.2041 24.0161 40.3541C26.6006 38.5051 27.882 35.9548 27.882 32.7245C27.882 29.7705 26.7961 27.3052 24.6025 25.3501C22.4524 23.3524 19.8245 22.3535 16.697 22.3535H1.51562V59.7571H17.8915C21.1059 59.7571 23.8208 58.737 26.036 56.6968ZM7.79231 28.1341H16.697C18.087 28.1341 19.2381 28.6229 20.1937 29.5792C21.1492 30.5143 21.6053 31.6619 21.6053 33.0433C21.6053 34.4247 21.1276 35.6148 20.1937 36.5712C19.2381 37.5062 18.087 37.9525 16.697 37.9525H7.79231V28.1341ZM7.79231 43.4993H17.8915C19.3466 43.4993 20.563 44.0094 21.5402 45.0507C22.5611 46.0496 23.0605 47.2822 23.0605 48.7274C23.0605 50.1724 22.5611 51.4263 21.5402 52.4676C20.563 53.4666 19.3466 53.9553 17.8915 53.9553H7.79231V43.4993Z" fill="white"/>
<path fill-rule="evenodd" clip-rule="evenodd" d="M45.3196 32.4453C41.1062 32.4453 37.6312 33.8055 34.938 36.5045C32.245 39.1822 30.8984 42.4976 30.8984 46.493C30.8984 50.5521 32.2666 53.9099 35.0032 56.5877C37.7397 59.2229 41.3233 60.5405 45.754 60.5405C51.0316 60.5405 55.0062 58.6065 57.7211 54.7176L52.8561 51.9334C51.2923 54.1437 48.9467 55.2487 45.8192 55.2487C43.5604 55.2487 41.6491 54.7176 40.0855 53.6549C38.5216 52.5498 37.5226 50.9772 37.0883 48.9581H58.807C58.9592 47.9594 59.0241 47.1517 59.0241 46.5567C59.0241 42.6464 57.7211 39.3097 55.1584 36.5682C52.5955 33.8267 49.3158 32.4453 45.3196 32.4453ZM37.0231 44.2615C37.4139 42.2213 38.348 40.6273 39.803 39.4585C41.2582 38.2896 43.0827 37.6946 45.2544 37.6946C47.1874 37.6946 48.8597 38.2471 50.2714 39.3522C51.7266 40.4574 52.6606 42.0937 53.0516 44.2615H37.0231Z" fill="white"/>
<path fill-rule="evenodd" clip-rule="evenodd" d="M104.611 53.6446C106.174 54.7073 108.085 55.2386 110.344 55.2386C113.472 55.2386 115.817 54.1334 117.403 51.9233L122.268 54.7073C119.575 58.5963 115.579 60.5302 110.301 60.5302C105.87 60.5302 102.287 59.2126 99.55 56.5774C96.8135 53.8996 95.4453 50.5418 95.4453 46.4827C95.4453 42.4873 96.7918 39.172 99.4849 36.4942C102.178 33.7952 105.653 32.4351 109.866 32.4351C113.863 32.4351 117.142 33.8164 119.683 36.5579C122.268 39.2995 123.549 42.6361 123.549 46.5464C123.549 47.1414 123.484 47.9491 123.332 48.9478H101.613C102.048 50.9669 103.047 52.5395 104.611 53.6446ZM109.801 37.6631C107.629 37.6631 105.805 38.2581 104.35 39.427C102.895 40.617 101.961 42.211 101.548 44.23H117.598C117.207 42.0622 116.273 40.4258 114.818 39.3207C113.407 38.2156 111.734 37.6631 109.801 37.6631Z" fill="white"/>
<path fill-rule="evenodd" clip-rule="evenodd" d="M209.478 46.5464C209.478 42.6361 208.197 39.2995 205.612 36.5579C203.048 33.8164 199.79 32.4351 195.773 32.4351C191.561 32.4351 188.084 33.7952 185.391 36.4942C182.698 39.172 181.352 42.4873 181.352 46.4827C181.352 50.5418 182.721 53.8996 185.457 56.5774C188.193 59.2126 191.777 60.5302 196.208 60.5302C201.485 60.5302 205.482 58.5964 208.175 54.7073L203.31 51.9233C201.745 54.1334 199.401 55.2386 196.272 55.2386C194.014 55.2386 192.103 54.7073 190.54 53.6446C188.975 52.5395 187.977 50.9669 187.542 48.9478H209.261C209.412 47.9491 209.478 47.1414 209.478 46.5464ZM187.478 44.2512C187.868 42.211 188.802 40.617 190.257 39.4482C191.711 38.2794 193.536 37.6843 195.708 37.6843C197.642 37.6843 199.314 38.2369 200.725 39.342C202.18 40.4471 203.114 42.0834 203.506 44.2512H187.478Z" fill="white"/>
<path d="M140.166 38.9656C137.929 38.8169 135.952 39.3482 134.28 40.5595C132.608 41.7284 131.761 43.6835 131.761 46.4464V59.8989H125.875V33.1851H131.761V37.6693C133.259 34.3539 136.061 32.6963 140.166 32.6963V38.9656Z" fill="white"/>
<path d="M76.8237 54.7058C75.3318 54.7695 74.0776 54.7907 73.0831 54.7695C72.11 54.7058 71.3532 54.4298 70.8558 53.9629C70.3587 53.4747 70.0991 52.6682 70.0991 51.5645V38.7438H81.2563V51.5431C81.2563 55.0242 82.2294 57.4228 84.197 58.7389C86.1431 60.0124 89.3864 60.3945 93.8623 59.8638V54.6847C92.3704 54.7484 91.1163 54.7695 90.1217 54.7484C89.1486 54.6847 88.3918 54.4087 87.8945 53.9418C87.3756 53.4535 87.1377 52.6469 87.1377 51.5431V38.7438H93.884V33.2038H87.1377V25.7322L81.278 27.4303V33.1826H70.1207V25.7322L64.261 27.4303V33.1826H59.0156V38.7226H64.2178V51.5219C64.2178 55.003 65.1907 57.4017 67.1585 58.7175C69.1262 59.9912 72.3479 60.3733 76.8237 59.8425V54.7058Z" fill="white"/>
<path d="M160.74 41.1506L172.316 22.4487H179.027V59.8524H172.751V33.181L161.131 51.9891H160.371L148.73 33.1385V59.8524H142.453V22.4487H149.229L160.74 41.1506Z" fill="white"/>
</svg>
