<svg viewBox="0 0 133 44" fill="none" xmlns="http://www.w3.org/2000/svg">
<path d="M11.8472 19.8599C10.2709 19.0199 9.45558 18.2939 9.45558 17.2999C9.45558 16.0399 10.5628 15.2259 12.3606 15.2259C13.695 15.2547 15.0112 15.5406 16.2359 16.0679L17.6894 11.6799C17.6894 11.6799 16.3567 10.6559 12.4512 10.6559C7.00355 10.6559 3.21881 13.7559 3.21881 18.1119C3.21881 20.5759 4.97428 22.4719 7.33371 23.8239C9.24017 24.9239 9.91055 25.6519 9.91055 26.7999C9.91055 27.9479 8.97242 28.9059 7.18675 28.9059C4.55555 28.9059 2.07333 27.5539 2.07333 27.5539L0.53125 31.9419C0.53125 31.9419 2.83229 33.4739 6.6754 33.4739C12.272 33.4739 16.2983 30.7379 16.2983 25.7939C16.3285 23.1179 14.2992 21.2539 11.8694 19.8399L11.8472 19.8599ZM34.1812 10.6299C31.4272 10.6299 29.2489 11.9239 27.5821 13.9219L27.4894 13.8919L29.8811 1.45991H23.6504L17.5968 33.1199H23.8315L25.9192 22.2959C26.7365 18.2079 28.8644 15.6799 30.8514 15.6799C32.2405 15.6799 32.7881 16.6119 32.7881 17.9659C32.7881 18.8859 32.6955 19.7999 32.5163 20.7019L30.1569 33.0899H36.3916L38.8437 20.2899C39.1114 18.9639 39.2664 17.6179 39.2966 16.2699C39.2664 12.7819 37.4204 10.6779 34.1832 10.6779L34.1812 10.6299ZM53.3666 10.6299C45.8615 10.6299 40.8971 17.3659 40.8971 24.8299C40.8971 29.6419 43.8927 33.4899 49.4933 33.4899C56.8554 33.4899 61.842 26.9339 61.842 19.2899C61.842 14.8399 59.2108 10.6299 53.3766 10.6299H53.3666ZM50.3066 28.7599C48.1867 28.7599 47.2808 26.9599 47.2808 24.7399C47.2808 21.1919 49.1208 15.3899 52.519 15.3899C54.7275 15.3899 55.4643 17.2839 55.4643 19.1199C55.4562 22.9299 53.6122 28.7599 50.3106 28.7599H50.3066ZM77.7862 10.6299C73.5585 10.6299 71.187 14.2859 71.187 14.2859H71.0944L71.4628 10.9939H65.9408L64.6725 19.2039L60.3442 41.8759H66.5508L68.278 32.7039H68.3988C68.3988 32.7039 69.6671 33.5159 72.0628 33.5159C79.3866 33.5159 84.1679 26.0599 84.1679 18.5239C84.1981 14.3739 82.3279 10.6479 77.7822 10.6479L77.7862 10.6299ZM71.8232 28.8499C70.8824 28.8685 69.9668 28.5473 69.2464 27.9459L70.2771 22.1419C71.0139 18.2919 73.0311 15.7059 75.2093 15.7059C77.1158 15.7059 77.6896 17.4499 77.6896 19.1059C77.6996 23.1399 75.314 28.8519 71.8313 28.8519L71.8232 28.8499ZM93.1023 1.72991C92.148 1.72391 91.23 2.09991 90.5597 2.77391C89.8893 3.44791 89.5168 4.36192 89.5531 5.30992C89.5531 7.13792 90.7348 8.40991 92.4983 8.40991H92.5909C93.072 8.42891 93.5519 8.34974 94.0009 8.17731C94.45 8.00488 94.8587 7.74283 95.2019 7.40736C95.5451 7.07188 95.8154 6.67009 95.9961 6.22678C96.1769 5.78348 96.2643 5.30808 96.2529 4.82992C96.2529 3.02992 95.041 1.72991 93.1325 1.72991H93.1023ZM84.3934 33.0599H90.6281L94.8638 11.1199H88.6069M110.752 11.0899H106.397L106.611 10.0659C106.979 7.95992 108.245 6.06592 110.291 6.06592C110.968 6.06616 111.642 6.16729 112.29 6.36592L113.494 1.51992C113.494 1.51992 112.386 0.979915 110.103 0.979915C107.882 0.925031 105.713 1.66058 103.989 3.05392C101.87 4.85392 100.869 7.44192 100.366 10.0599L100.164 11.0839H97.2595L96.3495 15.7439H99.2545L95.9408 33.0639H102.198L105.511 15.7439H109.812L110.657 11.0839L110.752 11.0899ZM125.766 11.1199L120.105 26.2139H120.012L118.47 11.1199H111.899L115.654 31.2639C115.744 31.6082 115.701 31.9737 115.533 32.2879C114.718 33.7819 113.556 35.0599 112.143 36.0179C111.06 36.7579 109.878 37.3459 108.632 37.7619L110.359 43.0219C112.643 42.4146 114.74 41.2539 116.461 39.6439C119.306 36.9959 121.937 32.9079 124.634 27.3439L132.26 11.1079H125.764L125.766 11.1199Z" fill="#020204"/>
</svg>
