<svg viewBox="0 0 40 40" fill="none" xmlns="http://www.w3.org/2000/svg">
<g clip-path="url(#clip0_416_1163)">
<path d="M35.3125 38.4376H4.6875C2.96164 38.4376 1.5625 37.0386 1.5625 35.3126V4.68763C1.5625 2.96169 2.96164 1.56263 4.6875 1.56263H35.3125C37.0384 1.56263 38.4375 2.96169 38.4375 4.68763V35.3126C38.4375 37.0386 37.0384 38.4376 35.3125 38.4376Z" stroke="white" stroke-width="2.00001" stroke-miterlimit="10"/>
<path d="M21.3802 27.15C21.3802 26.2696 20.634 25.5558 19.7135 25.5558C18.793 25.5558 18.0469 26.2696 18.0469 27.15V28.8892H21.3802V27.15Z" fill="white"/>
<path d="M13.0469 19.7224H14.7135V11.3891H13.0469V19.7224Z" fill="white"/>
<path d="M24.7109 19.7224H26.3776V11.3891H24.7109V19.7224Z" fill="white"/>
</g>
<defs>
<clipPath id="clip0_416_1163">
<rect width="40" height="40" fill="white"/>
</clipPath>
</defs>
</svg>
