<svg width="56" height="56" viewBox="0 0 56 56" fill="none" xmlns="http://www.w3.org/2000/svg">
<path d="M47.1424 23.4064H8.61719V44.1877C8.61719 45.9533 10.0485 47.3848 11.8143 47.3848H43.9453C45.7111 47.3848 47.1424 45.9533 47.1424 44.1877V23.4064Z" stroke="#CE504B" stroke-width="2" stroke-miterlimit="10" stroke-linecap="round" stroke-linejoin="round"/>
<path d="M20.6797 13.6553H35.0667" stroke="#CE504B" stroke-width="2" stroke-miterlimit="10" stroke-linecap="round" stroke-linejoin="round"/>
<path d="M15.8906 13.655H11.8143C10.0485 13.655 8.61719 15.0864 8.61719 16.8522V23.4062H47.1424V16.8522C47.1424 15.0864 45.7111 13.655 43.9453 13.655H39.869" stroke="#CE504B" stroke-width="2" stroke-miterlimit="10" stroke-linecap="round" stroke-linejoin="round"/>
<path d="M37.476 8.85983C36.1517 8.85983 35.0781 9.93342 35.0781 11.2577V16.0533C35.0781 17.3776 36.1517 18.4512 37.476 18.4512C38.8002 18.4512 39.8738 17.3776 39.8738 16.0533V11.2577C39.8738 9.93342 38.8002 8.85983 37.476 8.85983Z" stroke="#CE504B" stroke-width="2" stroke-miterlimit="10" stroke-linecap="round" stroke-linejoin="round"/>
<path d="M18.2885 8.85983C19.6127 8.85983 20.6863 9.93342 20.6863 11.2577V16.0533C20.6863 17.3776 19.6127 18.4512 18.2885 18.4512C16.9642 18.4512 15.8906 17.3776 15.8906 16.0533V11.2577C15.8906 9.93342 16.9642 8.85983 18.2885 8.85983Z" stroke="#CE504B" stroke-width="2" stroke-miterlimit="10" stroke-linecap="round" stroke-linejoin="round"/>
</svg>
