<svg viewBox="0 0 41 40" fill="none" xmlns="http://www.w3.org/2000/svg">
<path d="M36.3569 33.9845H4.87964V38.8282H36.3569V33.9845Z" stroke="white" stroke-width="2" stroke-miterlimit="10" stroke-linecap="round" stroke-linejoin="round"/>
<path d="M29.2747 1.172L20.6184 8.20325" stroke="white" stroke-width="2" stroke-miterlimit="10" stroke-linecap="round" stroke-linejoin="round"/>
<path d="M11.962 1.172L20.6183 8.20325" stroke="white" stroke-width="2" stroke-miterlimit="10" stroke-linecap="round" stroke-linejoin="round"/>
<path d="M27.3171 13.6444L20.6184 8.20332" stroke="white" stroke-width="2" stroke-miterlimit="10" stroke-linecap="round" stroke-linejoin="round"/>
<path d="M13.9294 13.6444L20.628 8.20332" stroke="white" stroke-width="2" stroke-miterlimit="10" stroke-linecap="round" stroke-linejoin="round"/>
<path d="M35.57 5.54446V1.17188H29.2745V8.20313C29.2745 12.9493 25.399 16.7969 20.6183 16.7969C15.8376 16.7969 11.962 12.9493 11.962 8.20313V1.17188H5.66659V5.54446C5.66659 9.8782 4.80223 14.169 3.12323 18.1694C2.2048 20.3577 1.73193 22.7049 1.73193 25.0757C1.73193 28.3139 2.84198 31.4558 4.87966 33.9844H36.3569C38.3945 31.4558 39.5047 28.3139 39.5047 25.0757C39.5047 22.7049 39.0318 20.3577 38.1134 18.1694C36.4344 14.169 35.57 9.8782 35.57 5.54446Z" stroke="white" stroke-width="2" stroke-miterlimit="10" stroke-linecap="round" stroke-linejoin="round"/>
</svg>
