<svg width="50" height="50" viewBox="0 0 50 50" fill="none" xmlns="http://www.w3.org/2000/svg">
<circle cx="25" cy="25" r="25" fill="#FFE500"/>
<path d="M37.2066 34.7193C37.5676 34.3572 37.7911 33.8582 37.7911 33.3078V18.2308C37.7911 17.1281 36.8939 16.2309 35.7911 16.2309H27.5551C27.6408 16.1376 27.6563 16.0165 27.617 15.9138C26.9361 14.1331 25.5243 12.7213 23.7436 12.0403C23.5845 11.9796 23.4058 12.0595 23.3456 12.2194L23.0523 12.9994C20.1335 12.1728 17.2561 13.6227 16.1917 16.2308H13.3296C12.2269 16.2308 11.3296 17.128 11.3296 18.2308V33.3077C11.3296 33.858 11.5531 34.3572 11.9141 34.7191C10.8868 34.8822 10.0989 35.7738 10.0989 36.8462C10.0989 38.0338 11.0651 39 12.2527 39H36.868C38.0556 39 39.0218 38.0338 39.0218 36.8462C39.0218 35.7738 38.2339 34.8822 37.2066 34.7193ZM14.0989 31.0001H35.0218V32.5385H14.0989V31.0001ZM35.0218 30.3847H14.0989V19.0001H15.8256C16.1617 21.77 18.5271 23.9231 21.3862 23.9231C24.2197 23.9231 26.5641 21.77 26.8972 19.0001H35.0218V30.3847ZM23.81 12.7331C25.1969 13.3461 26.3093 14.4579 26.9229 15.8445L21.9596 17.6531L23.81 12.7331ZM22.8346 13.5781L21.4614 17.2295L20.2861 13.5042C21.1384 13.3165 22.0215 13.3562 22.8346 13.5781ZM19.6944 13.674C21.2271 18.5302 21.1439 18.2766 21.1635 18.3139C21.1794 18.3444 21.1978 18.3681 21.2173 18.3878C21.2235 18.3931 21.2351 18.408 21.275 18.4326C21.3077 18.4527 21.3446 18.467 21.3805 18.4736C21.4178 18.4805 21.4479 18.4811 21.4861 18.4747C21.4874 18.4745 21.5228 18.4667 21.5285 18.4648C21.5306 18.4642 21.5323 18.463 21.5343 18.4623C21.5367 18.4615 21.539 18.4612 21.5413 18.4604L26.0985 16.7998C26.2466 17.2255 26.3227 17.735 26.3227 18.3212C26.3227 21.0708 24.1082 23.3078 21.3862 23.3078C18.6367 23.3078 16.3998 21.0708 16.3998 18.3212C16.3998 16.2367 17.7405 14.3676 19.6944 13.674ZM11.945 18.2308C11.945 17.4673 12.5661 16.8462 13.3296 16.8462H15.9824C15.8451 17.3464 15.7792 17.8588 15.7852 18.3847H13.7912C13.6213 18.3847 13.4835 18.5225 13.4835 18.6924V32.8462C13.4835 33.0161 13.6213 33.1539 13.7912 33.1539H35.3295C35.4995 33.1539 35.6372 33.0161 35.6372 32.8462V18.6924C35.6372 18.5225 35.4995 18.3847 35.3295 18.3847H26.9373C26.9431 17.8701 26.892 17.3385 26.7563 16.8462H35.7911C36.5545 16.8462 37.1757 17.4673 37.1757 18.2308V33.3078C37.1757 34.0712 36.5545 34.6924 35.7911 34.6924H27.6373C27.4673 34.6924 27.3296 34.8301 27.3296 35.0001V35.9231H21.7911V35.0001C21.7911 34.8301 21.6533 34.6924 21.4834 34.6924H13.3296C12.5661 34.6924 11.945 34.0712 11.945 33.3078V18.2308ZM36.868 38.3847H12.2527C11.4044 38.3847 10.7143 37.6945 10.7143 36.8462C10.7143 35.9979 11.4044 35.3078 12.2527 35.3078H21.1758V36.2308C21.1758 36.4007 21.3135 36.5385 21.4834 36.5385H27.6373C27.8072 36.5385 27.945 36.4007 27.945 36.2308V35.3078H36.868C37.7163 35.3078 38.4064 35.9979 38.4064 36.8462C38.4064 37.6945 37.7163 38.3847 36.868 38.3847Z" fill="#0B2F6E"/>
<path d="M37.9449 16.2307C38.1998 16.2307 38.4065 16.0241 38.4065 15.7692C38.4065 15.5143 38.1998 15.3076 37.9449 15.3076C37.69 15.3076 37.4834 15.5143 37.4834 15.7692C37.4834 16.0241 37.69 16.2307 37.9449 16.2307Z" fill="#0B2F6E"/>
<path d="M35.1756 38.0769C35.4305 38.0769 35.6372 37.8702 35.6372 37.6153C35.6372 37.3604 35.4305 37.1538 35.1756 37.1538C34.9207 37.1538 34.7141 37.3604 34.7141 37.6153C34.7141 37.8702 34.9207 38.0769 35.1756 38.0769Z" fill="#0B2F6E"/>
<path d="M33.9449 38.0769C34.1998 38.0769 34.4065 37.8702 34.4065 37.6153C34.4065 37.3604 34.1998 37.1538 33.9449 37.1538C33.69 37.1538 33.4834 37.3604 33.4834 37.6153C33.4834 37.8702 33.69 38.0769 33.9449 38.0769Z" fill="#0B2F6E"/>
<path d="M32.7142 38.0769C32.9691 38.0769 33.1758 37.8702 33.1758 37.6153C33.1758 37.3604 32.9691 37.1538 32.7142 37.1538C32.4593 37.1538 32.2527 37.3604 32.2527 37.6153C32.2527 37.8702 32.4593 38.0769 32.7142 38.0769Z" fill="#0B2F6E"/>
<path d="M31.4835 38.0769C31.7384 38.0769 31.945 37.8702 31.945 37.6153C31.945 37.3604 31.7384 37.1538 31.4835 37.1538C31.2286 37.1538 31.022 37.3604 31.022 37.6153C31.022 37.8702 31.2286 38.0769 31.4835 38.0769Z" fill="#0B2F6E"/>
<path d="M32.4064 11.9231C32.6613 11.9231 32.8679 11.7164 32.8679 11.4615C32.8679 11.2066 32.6613 11 32.4064 11C32.1515 11 31.9448 11.2066 31.9448 11.4615C31.9448 11.7164 32.1515 11.9231 32.4064 11.9231Z" fill="#0B2F6E"/>
<path d="M28.0987 13.7693C28.3536 13.7693 28.5603 13.5626 28.5603 13.3077C28.5603 13.0528 28.3536 12.8462 28.0987 12.8462C27.8438 12.8462 27.6372 13.0528 27.6372 13.3077C27.6372 13.5626 27.8438 13.7693 28.0987 13.7693Z" fill="#0B2F6E"/>
<path d="M17.6373 12.2307C17.8922 12.2307 18.0989 12.0241 18.0989 11.7692C18.0989 11.5143 17.8922 11.3076 17.6373 11.3076C17.3824 11.3076 17.1758 11.5143 17.1758 11.7692C17.1758 12.0241 17.3824 12.2307 17.6373 12.2307Z" fill="#0B2F6E"/>
<path d="M10.868 16.2307C11.1229 16.2307 11.3296 16.0241 11.3296 15.7692C11.3296 15.5143 11.1229 15.3076 10.868 15.3076C10.6131 15.3076 10.4065 15.5143 10.4065 15.7692C10.4065 16.0241 10.6131 16.2307 10.868 16.2307Z" fill="#0B2F6E"/>
<path d="M21.3754 21.6417C21.5453 21.6417 21.6831 21.5039 21.6831 21.334C21.6831 21.1641 21.5453 21.0263 21.3754 21.0263C19.8898 21.0263 18.6813 19.8177 18.6813 18.3321C18.6813 18.1622 18.5435 18.0244 18.3736 18.0244C18.2037 18.0244 18.0659 18.1622 18.0659 18.3321C18.0659 20.157 19.5505 21.6417 21.3754 21.6417Z" fill="#0B2F6E"/>
<path d="M28.2528 21.154H33.4835C33.6535 21.154 33.7912 21.0162 33.7912 20.8463C33.7912 20.6764 33.6535 20.5386 33.4835 20.5386H28.2528C28.0828 20.5386 27.9451 20.6764 27.9451 20.8463C27.9451 21.0162 28.0828 21.154 28.2528 21.154Z" fill="#0B2F6E"/>
<path d="M28.2528 22.3849H33.4835C33.6535 22.3849 33.7912 22.2471 33.7912 22.0772C33.7912 21.9073 33.6535 21.7695 33.4835 21.7695H28.2528C28.0828 21.7695 27.9451 21.9073 27.9451 22.0772C27.9451 22.2472 28.0828 22.3849 28.2528 22.3849Z" fill="#0B2F6E"/>
<path d="M33.4835 23H28.2528C28.0828 23 27.9451 23.1378 27.9451 23.3077C27.9451 23.4776 28.0828 23.6154 28.2528 23.6154H33.4835C33.6535 23.6154 33.7912 23.4776 33.7912 23.3077C33.7912 23.1378 33.6535 23 33.4835 23Z" fill="#0B2F6E"/>
<path d="M33.4835 24.231H25.1759C25.0059 24.231 24.8682 24.3687 24.8682 24.5386C24.8682 24.7086 25.0059 24.8464 25.1759 24.8464H33.4835C33.6535 24.8464 33.7912 24.7086 33.7912 24.5386C33.7912 24.3687 33.6535 24.231 33.4835 24.231Z" fill="#0B2F6E"/>
<path d="M33.4835 25.4614H25.1759C25.0059 25.4614 24.8682 25.5991 24.8682 25.7691C24.8682 25.939 25.0059 26.0768 25.1759 26.0768H33.4835C33.6535 26.0768 33.7912 25.939 33.7912 25.7691C33.7912 25.5991 33.6535 25.4614 33.4835 25.4614Z" fill="#0B2F6E"/>
<path d="M33.4835 26.6924H25.1759C25.0059 26.6924 24.8682 26.8301 24.8682 27.0001C24.8682 27.17 25.0059 27.3078 25.1759 27.3078H33.4835C33.6535 27.3078 33.7912 27.17 33.7912 27.0001C33.7912 26.8301 33.6535 26.6924 33.4835 26.6924Z" fill="#0B2F6E"/>
<path d="M13.4835 14.3845C14.3318 14.3845 15.022 13.6944 15.022 12.8461C15.022 11.9978 14.3318 11.3076 13.4835 11.3076C12.6352 11.3076 11.9451 11.9978 11.9451 12.8461C11.9451 13.6944 12.6352 14.3845 13.4835 14.3845ZM13.4835 11.9229C13.9925 11.9229 14.4066 12.337 14.4066 12.846C14.4066 13.355 13.9925 13.7691 13.4835 13.7691C12.9745 13.7691 12.5605 13.355 12.5605 12.846C12.5605 12.337 12.9745 11.9229 13.4835 11.9229Z" fill="#0B2F6E"/>
<path d="M34.0987 15.0001C34.7773 15.0001 35.3294 14.448 35.3294 13.7693C35.3294 13.0907 34.7773 12.5386 34.0987 12.5386C33.42 12.5386 32.8679 13.0907 32.8679 13.7693C32.8679 14.4479 33.42 15.0001 34.0987 15.0001ZM34.0987 13.154C34.438 13.154 34.7141 13.43 34.7141 13.7693C34.7141 14.1087 34.438 14.3847 34.0987 14.3847C33.7594 14.3847 33.4833 14.1087 33.4833 13.7693C33.4833 13.43 33.7594 13.154 34.0987 13.154Z" fill="#0B2F6E"/>
</svg>
