<svg width="50" height="50" viewBox="0 0 50 50" fill="none" xmlns="http://www.w3.org/2000/svg">
<circle cx="25" cy="25" r="25" fill="#FFE500"/>
<path d="M24.875 41.75C15.501 41.75 7.875 34.124 7.875 24.75C7.875 15.376 15.501 7.75 24.875 7.75C34.249 7.75 41.875 15.376 41.875 24.75C41.875 34.124 34.249 41.75 24.875 41.75ZM24.875 8.57227C15.9548 8.57227 8.69789 15.8292 8.69789 24.7494C8.69789 33.6696 15.9548 40.9265 24.875 40.9265C33.7952 40.9265 41.0521 33.6696 41.0521 24.7494C41.0521 15.8292 33.7952 8.57227 24.875 8.57227Z" fill="#0B2F6E"/>
<path d="M19.4431 35.6573H14.1396C13.2625 35.6573 12.5491 34.9339 12.5491 34.0447V20.6917C12.5491 19.8025 13.2627 19.0791 14.1396 19.0791H20.2823C20.7433 19.0791 21.1181 19.4542 21.1181 19.9149V33.9586C21.1184 34.8953 20.3668 35.6574 19.4431 35.6574V35.6573ZM14.1396 19.902C13.7164 19.902 13.3717 20.2562 13.3717 20.692V34.0451C13.3717 34.4808 13.7164 34.835 14.1396 34.835H19.4433C19.9134 34.835 20.2958 34.4419 20.2958 33.9591V19.9153L14.1396 19.902Z" fill="#0B2F6E"/>
<path d="M16.883 33.2287C15.8758 33.2287 15.0564 32.3975 15.0564 31.3759C15.0564 30.3544 15.8758 29.5229 16.883 29.5229C17.8904 29.5229 18.7096 30.3544 18.7096 31.3759C18.7098 32.3976 17.8902 33.2287 16.883 33.2287ZM16.883 30.3455C16.3295 30.3455 15.879 30.8077 15.879 31.3759C15.879 31.9441 16.3294 32.4061 16.883 32.4061C17.4366 32.4061 17.887 31.9439 17.887 31.3759C17.887 30.8077 17.4368 30.3455 16.883 30.3455Z" fill="#0B2F6E"/>
<path d="M32.652 35.6575H26.6224C24.3885 35.6575 22.2605 35.1204 20.6504 34.6484C20.4509 34.6195 20.2954 34.4481 20.2954 34.2412V19.7732C20.2954 19.6496 20.351 19.5326 20.4467 19.4542C20.5424 19.3761 20.668 19.345 20.7895 19.37C20.8237 19.3766 24.6693 19.9747 26.786 11.1511C26.8391 10.9298 26.9747 10.7525 27.1681 10.6512C27.5329 10.4597 27.9959 10.5939 28.1538 10.6492L28.1766 10.6551C28.1861 10.6556 28.1962 10.6568 28.2057 10.658C29.0557 10.7792 29.8044 11.5976 30.1128 12.7433C30.4184 14.0541 30.6159 16.0552 29.8433 18.225C29.5458 19.0522 28.7668 19.9299 28.1533 20.6C30.1701 20.589 34.7772 20.5838 36.4374 20.5824C37.7107 20.5824 38.7656 21.4825 38.8405 22.632C38.8824 23.1965 38.6922 23.7474 38.3041 24.1836C38.029 24.4926 37.6703 24.7254 37.2695 24.8627C37.5719 25.2713 37.7075 25.8339 37.6627 26.5038C37.6015 27.4529 36.8707 28.2332 35.9008 28.4758C36.1725 28.8782 36.2932 29.4186 36.2506 30.0553C36.1934 30.9449 35.5478 31.6861 34.6686 31.9752C34.9661 32.3828 35.099 32.942 35.055 33.6071C34.981 34.7565 33.9259 35.6577 32.6518 35.6577L32.652 35.6575ZM21.1177 33.9276C22.6421 34.3656 24.598 34.8349 26.6221 34.8349H32.6517C33.4789 34.8349 34.1886 34.2599 34.2337 33.5533C34.2682 33.037 34.1627 32.6206 33.9372 32.3792C33.7673 32.1978 33.5168 32.1055 33.1927 32.1055C32.9658 32.1055 32.7814 31.9214 32.7814 31.6942C32.7814 31.467 32.9658 31.2829 33.1927 31.2829H33.8471C34.674 31.2829 35.3836 30.7079 35.4291 30.0013C35.4633 29.4853 35.3581 29.0686 35.1321 28.8272C34.9624 28.6458 34.712 28.5535 34.3878 28.5535C34.1609 28.5535 33.9766 28.3694 33.9766 28.1422C33.9766 27.915 34.1609 27.7309 34.3878 27.7309H35.2589C36.0858 27.7309 36.7954 27.1559 36.8409 26.4491C36.8754 25.933 36.7699 25.5166 36.5441 25.2752C36.3745 25.0938 36.124 25.0015 35.7999 25.0015C35.573 25.0015 35.3886 24.8174 35.3886 24.5902C35.3886 24.3631 35.573 24.179 35.7999 24.179H36.5062C36.9613 24.1601 37.3983 23.962 37.6889 23.636C37.9279 23.3676 38.0454 23.0317 38.0194 22.6905C38.0194 22.6888 38.0194 22.6873 38.0192 22.6858C37.9739 21.9791 37.2642 21.4042 36.4372 21.4042C32.8815 21.4079 27.5019 21.4172 27.2575 21.4294C27.103 21.4363 26.9424 21.3511 26.8683 21.2081C26.7943 21.0652 26.8066 20.8926 26.9057 20.7655C27.0315 20.6049 27.2188 20.4007 27.4355 20.1647C27.9824 19.5688 28.8092 18.6682 29.0687 17.9469C29.774 15.9666 29.5919 14.1325 29.315 12.9429C29.0993 12.1428 28.606 11.5462 28.0904 11.4718C28.0691 11.4693 28.0439 11.4654 28.0148 11.4595L27.9729 11.4517C27.9462 11.447 27.9205 11.4399 27.8953 11.4301C27.7922 11.3912 27.6502 11.367 27.579 11.3746C25.6824 19.2438 22.372 20.1557 21.118 20.2052V33.928L21.1177 33.9276Z" fill="#0B2F6E"/>
</svg>
