<svg width="50" height="50" viewBox="0 0 50 50" fill="none" xmlns="http://www.w3.org/2000/svg">
<circle cx="25" cy="25" r="25" fill="#FFE500"/>
<path d="M39.5661 14H11.3462C10.0522 14 9 15.0522 9 16.3482V33.5984C9 34.8944 10.0522 35.9466 11.3462 35.9466H39.5661C40.8621 35.9466 41.9143 34.8944 41.9143 33.5984V16.3482C41.9143 15.0522 40.8621 14 39.5661 14ZM40.8857 33.5994C40.8857 34.3266 40.2933 34.9191 39.5661 34.9191H19.4246V31.747H18.396V34.9191H11.3462C10.619 34.9191 10.0286 34.3266 10.0286 33.5994V16.3482C10.0286 15.621 10.619 15.0286 11.3462 15.0286H18.396V18.2007H19.4246V15.0286H39.5661C40.2933 15.0286 40.8857 15.621 40.8857 16.3482V33.5994Z" fill="#0B2F6E"/>
<path d="M19.4243 26.0013H18.3958V29.6898H19.4243V26.0013Z" fill="#0B2F6E"/>
<path d="M19.4243 20.2578H18.3958V23.9463H19.4243V20.2578Z" fill="#0B2F6E"/>
<path d="M34.1298 31.1649C33.4314 31.1649 32.7659 30.9437 32.2043 30.5261C31.5152 30.0098 31.0667 29.2589 30.9423 28.4042C30.8168 27.5505 31.0318 26.7029 31.5471 26.0138C32.5757 24.6437 34.6863 24.3321 36.0605 25.3565C36.7506 25.8708 37.1981 26.6237 37.3215 27.4764C37.4459 28.3301 37.231 29.1777 36.7146 29.8689C36.1088 30.6804 35.143 31.1649 34.1298 31.1649ZM34.136 25.7463C33.4345 25.7463 32.7906 26.0683 32.37 26.6278C32.0202 27.0958 31.8742 27.6749 31.9595 28.255C32.0449 28.8351 32.3494 29.3494 32.8194 29.6991C33.7637 30.4068 35.1872 30.1929 35.8897 29.2507C36.2405 28.7827 36.3875 28.2036 36.3032 27.6235C36.2189 27.0434 35.9144 26.5301 35.4443 26.1794C35.0638 25.8955 34.6112 25.7463 34.136 25.7463Z" fill="#0B2F6E"/>
<path d="M26.177 25.23C25.4776 25.23 24.8111 25.0088 24.2495 24.5892C22.826 23.5287 22.5318 21.5035 23.5953 20.0748C24.6177 18.7047 26.7304 18.3931 28.1087 19.4216C29.5312 20.4842 29.8254 22.5094 28.767 23.934C28.1478 24.7579 27.2046 25.23 26.177 25.23ZM26.1812 19.8094C25.4797 19.8094 24.8378 20.1314 24.4202 20.6909C23.6961 21.6608 23.8957 23.0412 24.8656 23.7643C25.2482 24.0492 25.7018 24.2004 26.1781 24.2004C26.8796 24.2004 27.5224 23.8784 27.9441 23.3168C28.6641 22.349 28.4636 20.9686 27.4946 20.2455C27.111 19.9606 26.6564 19.8094 26.1812 19.8094Z" fill="#0B2F6E"/>
<path d="M34.8137 19.5841L33.989 18.9694L25.494 30.3652L26.3187 30.98L34.8137 19.5841Z" fill="#0B2F6E"/>
</svg>
