<svg width="50" height="50" viewBox="0 0 50 50" fill="none" xmlns="http://www.w3.org/2000/svg">
<circle cx="25" cy="25" r="25" fill="#FFE500"/>
<path d="M35 13.7763C35 12.3427 33.8595 11.1763 32.4577 11.1763H17.5423C16.1405 11.1763 15 12.3427 15 13.7763V34.5763C15 36.0099 16.1405 37.1763 17.5423 37.1763H32.4577C33.8595 37.1763 35 36.0099 35 34.5763V13.7763ZM34.3644 34.5763C34.3644 35.6516 33.5091 36.5263 32.4577 36.5263H17.5423C16.4909 36.5263 15.6356 35.6516 15.6356 34.5763V13.7763C15.6356 12.701 16.4909 11.8263 17.5423 11.8263H32.4577C33.5091 11.8263 34.3644 12.701 34.3644 13.7763V34.5763Z" fill="#0B2F6E"/>
<path d="M25 31.1621C23.8828 31.1621 22.9738 32.092 22.9738 33.2352C22.9738 34.3782 23.8828 35.3081 25 35.3081C26.1172 35.3081 27.0262 34.3782 27.0262 33.2352C27.0262 32.092 26.1172 31.1621 25 31.1621ZM25 34.6579C24.2331 34.6579 23.6094 34.0197 23.6094 33.2352C23.6094 32.4508 24.2331 31.8123 25 31.8123C25.7668 31.8123 26.3906 32.4508 26.3906 33.2352C26.3906 34.0197 25.7668 34.6579 25 34.6579Z" fill="#0B2F6E"/>
<path d="M23.9433 13.9292H26.0567C26.2323 13.9292 26.3745 13.7835 26.3745 13.6035C26.3745 13.4235 26.2323 13.2778 26.0567 13.2778H23.9433C23.7676 13.2778 23.6255 13.4235 23.6255 13.6035C23.6255 13.7835 23.7676 13.9292 23.9433 13.9292Z" fill="#0B2F6E"/>
<path d="M32.4618 22.2856L30.6727 20.9967L31.5919 18.9657C31.6353 18.8699 31.6304 18.7582 31.5788 18.6668C31.527 18.5754 31.4352 18.515 31.3321 18.5055L29.1526 18.3043L28.9559 16.0753C28.9466 15.9699 28.8876 15.876 28.7982 15.823C28.7085 15.77 28.5996 15.7649 28.5059 15.8097L26.52 16.7497L25.2598 14.92C25.1406 14.7474 24.8594 14.7474 24.7402 14.92L23.48 16.7497L21.4941 15.8097C21.4004 15.7649 21.2915 15.77 21.2018 15.823C21.1124 15.876 21.0534 15.9699 21.0441 16.0753L20.8474 18.3043L18.6679 18.5055C18.5648 18.515 18.473 18.5754 18.4212 18.6668C18.3696 18.7582 18.3647 18.8699 18.4081 18.9657L19.3273 20.9967L17.5383 22.2856C17.4538 22.3465 17.4036 22.4456 17.4036 22.5512C17.4036 22.6569 17.4538 22.756 17.5383 22.8169L19.3273 24.1058L18.4081 26.1367C18.3647 26.2326 18.3696 26.3443 18.4212 26.4357C18.473 26.5271 18.5648 26.5874 18.6679 26.597L20.8474 26.7982L21.0441 29.0272C21.0534 29.1325 21.1124 29.2265 21.2018 29.2795C21.2915 29.3325 21.4004 29.3376 21.4941 29.2928L23.48 28.3527L24.7402 30.1825C24.7998 30.2688 24.8967 30.3202 25 30.3202C25.1033 30.3202 25.2002 30.2688 25.2598 30.1825L26.52 28.3527L28.5059 29.2928C28.5996 29.3376 28.7085 29.3325 28.7982 29.2795C28.8876 29.2265 28.9466 29.1325 28.9559 29.0272L29.1526 26.7982L31.3321 26.597C31.4352 26.5874 31.527 26.5271 31.5788 26.4357C31.6304 26.3443 31.6353 26.2326 31.5919 26.1367L30.6727 24.1058L32.4618 22.8169C32.5462 22.756 32.5964 22.6569 32.5964 22.5512C32.5964 22.4456 32.5462 22.3465 32.4618 22.2856ZM30.0898 23.7306C29.9645 23.8211 29.9201 23.9903 29.9846 24.1328L30.8257 25.9911L28.8314 26.1751C28.6784 26.1894 28.5574 26.3132 28.5434 26.4697L28.3634 28.5092L26.5464 27.6491C26.4083 27.5834 26.242 27.6288 26.1532 27.7567L25 29.4309L23.8468 27.7567C23.7857 27.6681 23.6876 27.6189 23.587 27.6189C23.542 27.6189 23.4964 27.6288 23.4536 27.6491L21.6366 28.5092L21.4566 26.4697C21.4426 26.3132 21.3216 26.1894 21.1686 26.1751L19.1743 25.9911L20.0154 24.1328C20.0799 23.9903 20.0355 23.8211 19.9102 23.7306L18.2731 22.5512L19.9102 21.3718C20.0355 21.2814 20.0799 21.1122 20.0154 20.9697L19.1743 19.1114L21.1686 18.9273C21.3216 18.913 21.4426 18.7893 21.4566 18.6328L21.6366 16.5933L23.4536 17.4534C23.5923 17.5194 23.7583 17.474 23.8468 17.3458L25 15.6716L26.1532 17.3458C26.2417 17.474 26.408 17.5191 26.5464 17.4534L28.3634 16.5933L28.5434 18.6328C28.5574 18.7893 28.6784 18.913 28.8314 18.9273L30.8257 19.1114L29.9846 20.9697C29.9201 21.1122 29.9645 21.2814 30.0898 21.3718L31.7269 22.5512L30.0898 23.7306Z" fill="#0B2F6E"/>
<path d="M27.6543 19.8364C27.5301 19.7095 27.3291 19.7095 27.2049 19.8364L22.3931 24.7587C22.269 24.8857 22.269 25.0914 22.3931 25.2184C22.4552 25.2819 22.5365 25.3136 22.6178 25.3136C22.6991 25.3136 22.7804 25.2819 22.8425 25.2184L27.6543 20.2961C27.7784 20.1691 27.7784 19.9634 27.6543 19.8364Z" fill="#0B2F6E"/>
<path d="M24.5745 20.6371C24.5745 19.8209 23.9253 19.1567 23.1274 19.1567C22.3295 19.1567 21.6803 19.8209 21.6803 20.6371C21.6803 21.4533 22.3295 22.1174 23.1274 22.1174C23.9253 22.1174 24.5745 21.4533 24.5745 20.6371ZM22.3159 20.6371C22.3159 20.1793 22.6799 19.8069 23.1274 19.8069C23.5749 19.8069 23.9389 20.1793 23.9389 20.6371C23.9389 21.0949 23.5749 21.4672 23.1274 21.4672C22.6799 21.4672 22.3159 21.0949 22.3159 20.6371Z" fill="#0B2F6E"/>
<path d="M26.8726 22.9863C26.0747 22.9863 25.4255 23.6505 25.4255 24.4667C25.4255 25.2829 26.0747 25.947 26.8726 25.947C27.6705 25.947 28.3197 25.2829 28.3197 24.4667C28.3197 23.6505 27.6705 22.9863 26.8726 22.9863ZM26.8726 25.2968C26.4251 25.2968 26.061 24.9245 26.061 24.4667C26.061 24.0089 26.4251 23.6365 26.8726 23.6365C27.3201 23.6365 27.6841 24.0089 27.6841 24.4667C27.6841 24.9245 27.3201 25.2968 26.8726 25.2968Z" fill="#0B2F6E"/>
</svg>
