<svg width="50" height="50" viewBox="0 0 50 50" fill="none" xmlns="http://www.w3.org/2000/svg">
<circle cx="25" cy="25" r="25" fill="#FFE500"/>
<path d="M32.908 14.0733C33.043 13.4654 32.9659 12.8206 32.6573 12.2495C32.3487 11.6969 31.8472 11.2548 31.23 11.0153C31.095 10.96 31.0178 10.8127 31.0757 10.6653C31.1335 10.5363 31.2878 10.4627 31.4421 10.5179C32.1751 10.8127 32.773 11.3285 33.1395 11.9916C33.5059 12.6548 33.6217 13.4285 33.4481 14.1654C33.4288 14.2943 33.3131 14.368 33.178 14.368C33.1588 14.368 33.1395 14.368 33.1202 14.368C32.9659 14.3496 32.8694 14.2206 32.908 14.0733ZM30.5356 9.61528C31.9243 9.74423 33.1395 10.5179 33.7953 11.6969C34.451 12.8759 34.4125 14.2759 33.7374 15.4364C33.6602 15.5654 33.7181 15.7312 33.8338 15.8049C33.8724 15.8233 33.9303 15.8417 33.9688 15.8417C34.0653 15.8417 34.1617 15.7865 34.2196 15.7128C35.0104 14.3864 35.0297 12.8022 34.2967 11.4758C33.5638 10.1311 32.1751 9.24685 30.5935 9.1179C30.4392 9.09948 30.3042 9.21 30.2849 9.35738C30.2656 9.4679 30.3813 9.59685 30.5356 9.61528ZM16.6484 19.3602C16.3012 18.7155 16.5519 17.9233 17.2077 17.5549C16.9184 16.9102 17.1884 16.1549 17.8442 15.8233L21.0653 14.2206C21.4703 14.018 21.9525 14.018 22.3576 14.2206C24.7107 12.7469 26.0223 11.3837 26.6395 10.6285L26.5237 10.4074C26.2923 9.9837 26.4659 9.44948 26.9095 9.22843L27.141 9.09948C27.3531 8.98895 27.6039 8.97053 27.8353 9.04421C28.0668 9.1179 28.2596 9.26527 28.3754 9.4679L29.8605 12.1943C30.4777 12.0285 31.1528 12.2864 31.4614 12.839C31.77 13.3917 31.6157 14.0733 31.1142 14.4601L32.5994 17.1865C32.7151 17.3891 32.7344 17.6286 32.6573 17.8497C32.5801 18.0707 32.4258 18.2549 32.2137 18.3655L31.9822 18.476C31.8472 18.5497 31.7122 18.5681 31.5579 18.5681C31.4614 18.5681 31.365 18.5497 31.2878 18.5312C31.0564 18.4576 30.8635 18.3102 30.7478 18.1076L30.632 17.8865C29.6291 17.9418 27.7196 18.1812 25.0964 19.1944C25.0386 19.6181 24.7685 20.005 24.3635 20.2076L23.8042 20.4839L24.3442 21.2945L25.0964 20.9076C25.5979 20.6681 26.1958 20.8523 26.4659 21.3129C26.5816 21.5339 26.6202 21.8103 26.543 22.0497V22.0682C26.7938 22.1418 27.0252 22.3076 27.1602 22.5471C27.3338 22.8603 27.2953 23.2287 27.1217 23.505C27.3145 23.5971 27.4688 23.7261 27.5653 23.9287C27.7389 24.2419 27.7196 24.6103 27.5267 24.8866C27.7196 24.9787 27.8739 25.1077 27.9703 25.3103C28.2211 25.7893 28.0282 26.3604 27.546 26.6182L20.0623 30.3578C20.0237 30.3762 19.9852 30.3946 19.9273 30.3946C19.8309 30.3946 19.7344 30.3394 19.6766 30.2473C19.5994 30.1183 19.6573 29.9525 19.7923 29.8973L27.276 26.1577C27.5074 26.0472 27.5846 25.7893 27.4688 25.5682C27.3531 25.3472 27.0831 25.2735 26.8516 25.384C26.7166 25.4577 26.543 25.4024 26.4852 25.2735C26.408 25.1445 26.4659 24.9787 26.6009 24.9235L26.8709 24.7945C27.1024 24.684 27.1795 24.4261 27.0638 24.205C26.9481 23.984 26.678 23.9103 26.4466 24.0208C26.3116 24.0945 26.138 24.0393 26.0801 23.9103C26.003 23.7814 26.0608 23.6156 26.1958 23.5603L26.4659 23.4313C26.6973 23.3208 26.7745 23.0629 26.6588 22.8419C26.543 22.6208 26.273 22.5471 26.0415 22.6576C25.9065 22.7313 25.7329 22.6761 25.6751 22.5471C25.6558 22.5103 25.6365 22.4734 25.6365 22.4182C25.6365 22.3261 25.6944 22.234 25.7908 22.1787C26.0223 22.0682 26.0994 21.8103 25.9837 21.5892C25.868 21.3681 25.5979 21.2945 25.3665 21.405L24.3828 21.9024L22.9169 22.6392C22.8012 22.6945 22.7433 22.7866 22.724 22.8419C22.6855 22.934 22.589 22.9892 22.4926 22.9892H22.4733C22.454 22.9892 22.454 22.9892 22.4347 22.9892H22.4154C22.3961 22.9892 22.3769 22.9708 22.3576 22.9708C22.3576 22.9708 22.3576 22.9708 22.3383 22.9708C22.319 22.9708 22.2997 22.9524 22.2997 22.934C22.2997 22.934 22.2997 22.934 22.2804 22.934C22.2611 22.9155 22.2418 22.8971 22.2418 22.8787L22.0297 22.584L21.8368 22.6761C20.9303 23.1182 20.4866 24.1314 20.7567 25.0709C20.7953 25.1998 20.7374 25.3103 20.6217 25.384L16.0312 27.6867C15.8961 27.7604 15.7226 27.7051 15.6647 27.5762C15.5875 27.4472 15.6454 27.2814 15.7804 27.2262L20.1973 25.0156C19.9852 23.9103 20.5445 22.7498 21.6053 22.2155L21.7596 22.1418L21.4703 21.7182L21.1424 21.8287C20.9303 21.9392 20.7181 21.9761 20.4866 21.9761C20.3516 21.9761 20.1973 21.9576 20.0623 21.9208C19.7344 21.8287 19.4644 21.626 19.2908 21.3497C19.0979 21.4418 18.8858 21.4787 18.6736 21.4787C18.5386 21.4787 18.3843 21.4603 18.2493 21.4234C17.8828 21.3129 17.5935 21.0734 17.4199 20.7602L16.6484 19.3602ZM23.862 21.5524L23.322 20.7418L21.9332 21.4418L22.4926 22.2708C22.5504 22.234 22.6083 22.1971 22.6662 22.1603L23.862 21.5524ZM30.1306 12.6732L30.8442 13.9812C31.0757 13.7417 31.1335 13.3917 30.9599 13.0785C30.8056 12.7838 30.4777 12.6364 30.1306 12.6732ZM27.0059 10.1679L27.1988 10.5363L31.0178 17.5181L31.2107 17.8865C31.3071 18.0523 31.5193 18.126 31.7122 18.0339L31.9436 17.9233C32.0208 17.8865 32.0979 17.8128 32.1172 17.7207C32.1365 17.6286 32.1365 17.5365 32.0979 17.4628L30.497 14.5338L29.9956 13.6127L27.8932 9.7258C27.8546 9.65212 27.7774 9.57843 27.681 9.56001C27.5846 9.52317 27.4881 9.54159 27.411 9.57843L27.1795 9.68896C26.9866 9.78107 26.9095 9.9837 27.0059 10.1679ZM22.8205 14.5706C22.8398 14.5891 22.8591 14.6075 22.8591 14.6259C22.8783 14.6443 22.8783 14.6443 22.8976 14.6627C22.9362 14.6996 22.9555 14.7549 22.9748 14.7917L24.9614 18.4023C24.9807 18.4391 25 18.4944 25.0193 18.5312C25.0193 18.5497 25.0386 18.5681 25.0386 18.5681C25.0386 18.5865 25.0579 18.6049 25.0579 18.6418C27.4496 17.7391 29.2819 17.4444 30.3427 17.3707L26.9288 11.1443C26.2537 11.9364 24.9614 13.2075 22.8205 14.5706ZM17.7478 17.4075L17.8249 17.5549L18.7315 19.2128L19.7151 21.0181C19.9273 21.4234 20.4481 21.5708 20.8724 21.3681L21.3932 21.1102L22.9555 20.3365L24.0935 19.7655C24.3828 19.6181 24.5564 19.3418 24.5564 19.0286C24.5564 18.9365 24.5371 18.826 24.4985 18.7339C24.4792 18.697 24.4792 18.6786 24.4599 18.6418L22.4733 15.0312C22.4154 14.9206 22.319 14.8101 22.2033 14.7364C22.049 14.6443 21.8754 14.5891 21.7018 14.5891C21.5668 14.5891 21.4318 14.6259 21.316 14.6812L18.095 16.2838C17.6899 16.5049 17.5356 17.0023 17.7478 17.4075ZM17.1499 19.1023L17.9214 20.5208C18.1335 20.9076 18.635 21.0734 19.0401 20.8892L18.2493 19.4523L17.4585 18.0154C17.0727 18.2549 16.9377 18.7155 17.1499 19.1023ZM35.4347 19.3786C35.4347 18.4207 34.6246 17.6286 33.6024 17.6286C33.4481 17.6286 33.3323 17.7391 33.3323 17.8865C33.3323 18.0339 33.4481 18.1444 33.6024 18.1444C34.2967 18.1444 34.8754 18.697 34.8754 19.3602V30.8368H15.1053V19.3786C15.1053 18.8997 15.3947 18.4576 15.8576 18.2733C15.9926 18.2181 16.0697 18.0523 15.9926 17.9233C15.9347 17.7944 15.7611 17.7207 15.6261 17.7944C14.9703 18.0707 14.5267 18.697 14.5267 19.3971V31.3894H35.4154V19.3786H35.4347ZM38 32.292V33.6184C38 34.3737 37.3442 35 36.5534 35H13.4466C12.6558 35 12 34.3737 12 33.6184V32.292H23.4184V32.5499C23.4184 33.0105 23.8234 33.3973 24.3056 33.3973H25.6944C26.1766 33.3973 26.5816 33.0105 26.5816 32.5499V32.292H38ZM37.4407 32.8078H27.1217C26.9866 33.4342 26.408 33.9316 25.6944 33.9316H24.3056C23.6113 33.9316 23.0134 33.4526 22.8783 32.8078H12.5593V33.6C12.5593 34.0605 12.9644 34.4474 13.4466 34.4474H36.5534C37.0356 34.4474 37.4407 34.0605 37.4407 33.6V32.8078Z" fill="#0B2F6E"/>
</svg>
