<svg width="50" height="50" viewBox="0 0 50 50" fill="none" xmlns="http://www.w3.org/2000/svg">
<circle cx="25" cy="25" r="25" fill="#FFE500"/>
<path d="M25.1609 14.1455C21.3081 14.1455 17.3291 16.9462 17.3291 21.6335C17.3291 24.2934 18.3044 25.7302 19.2356 27.1197C19.8592 28.0513 20.4743 28.9309 20.7819 30.1708C21.04 31.2118 21.0887 33.8902 21.0887 34.8986V35.0561C21.0887 36.3503 22.0288 36.6934 22.4935 36.7297C22.4996 36.73 22.5049 36.7332 22.511 36.7332H27.4887C27.4973 36.7332 27.5044 36.729 27.5129 36.7283C27.5215 36.729 27.5293 36.7332 27.5378 36.7332C28.213 36.7332 29.2665 36.2867 29.2665 35.0561V34.8986C29.2665 33.8902 29.2153 31.2118 29.4735 30.1708C29.781 28.9309 30.3222 28.0509 30.9462 27.1197C31.877 25.7306 32.8413 24.2938 32.8413 21.6335C32.8413 17.0084 28.8559 14.1455 25.1609 14.1455ZM24.794 22.6234C24.8303 22.3812 24.9295 22.3812 24.9885 22.3812C25.0557 22.3812 25.1399 22.3812 25.1641 22.6173C25.1908 22.874 25.1101 23.2058 24.9671 23.5119C24.8242 23.1983 24.7577 22.8659 24.794 22.6234ZM24.9782 24.6973C25.1684 24.8577 25.3828 24.9839 25.6192 25.0561C25.77 25.1023 25.9168 25.2004 26.0587 25.2189C25.7782 27.0255 25.2128 30.6888 25.0468 31.7555H24.9088C24.7371 30.6888 24.1593 27.0675 23.829 25.1926C23.9737 25.1841 24.1248 25.1304 24.2809 25.0977C24.5398 25.0436 24.7741 24.878 24.9782 24.6973ZM24.6443 32.495C24.6443 32.4054 24.5583 32.4666 24.6475 32.4666H25.3095C25.3991 32.4666 25.3554 32.4054 25.3554 32.495V36.0221H24.6443V32.495ZM30.378 26.724C29.7476 27.6652 29.1197 28.6387 28.7823 29.9994C28.5035 31.1254 28.5554 33.7697 28.5554 34.8993V35.0561C28.5554 35.9631 27.7117 36.02 27.5485 36.0221C27.5382 36.0221 27.5286 36.0271 27.5183 36.0282C27.5079 36.0271 27.4994 36.0221 27.4887 36.0221H26.0665V32.495C26.0665 32.1736 25.9485 31.8956 25.6893 31.7441C25.8567 30.6764 26.4779 26.8989 26.7524 25.1325C27.4169 25.0045 27.9321 24.5811 28.1778 24.1075C28.432 23.6175 28.3872 23.1329 28.0527 22.873C27.7757 22.6572 27.4418 22.6049 27.1296 22.7286C26.7887 22.8641 26.3471 23.2669 26.1714 24.4136C26.1696 24.425 26.1689 24.4367 26.1668 24.4488C26.0591 24.436 25.946 24.4125 25.8265 24.3759C25.68 24.3311 25.5499 24.2472 25.4308 24.1462C25.7526 23.6257 25.9179 22.996 25.8713 22.5441C25.8159 22.0051 25.4774 21.6701 24.9885 21.6701C24.5127 21.6701 24.1689 21.9951 24.0911 22.5185C24.0157 23.0241 24.1767 23.6481 24.5085 24.1594C24.3901 24.2653 24.2639 24.3414 24.1355 24.3681C23.9812 24.4004 23.8365 24.4161 23.701 24.4182C23.69 24.3592 23.679 24.3048 23.6697 24.2557C23.4912 23.3501 23.1826 22.8001 22.752 22.6212C22.4964 22.5149 22.2144 22.5505 21.9574 22.7222C21.5798 22.974 21.471 23.4572 21.679 23.9539C21.8859 24.4474 22.3826 24.9078 23.0969 25.0696C23.418 26.8755 24.1145 30.6728 24.288 31.7444C24.0295 31.8966 23.9332 32.1743 23.9332 32.495V36.0221H22.5657C22.4295 36.0196 21.7999 35.9613 21.7999 35.0561V34.8993C21.7999 33.7697 21.7519 31.1254 21.4727 29.9994C21.1353 28.6387 20.432 27.6655 19.8016 26.7244C18.89 25.3633 18.0303 24.0776 18.0303 21.6339C18.0303 17.3917 21.6569 14.857 25.1606 14.857C28.5138 14.857 32.1394 17.4479 32.1394 21.6339C32.1391 24.0772 31.2903 25.3629 30.378 26.724ZM26.9046 24.3556C27.0237 23.7437 27.2317 23.4547 27.3959 23.3896C27.4205 23.3796 27.4457 23.3747 27.4706 23.3747C27.5215 23.3747 27.5723 23.3946 27.6231 23.434C27.6463 23.4518 27.6619 23.5852 27.5609 23.78C27.4653 23.9645 27.2448 24.2159 26.9046 24.3556ZM22.9451 24.266C22.6258 24.1167 22.4199 23.8828 22.3346 23.6794C22.2813 23.5517 22.2532 23.3796 22.3517 23.3142C22.4018 23.2808 22.4331 23.2726 22.453 23.2726C22.4655 23.2726 22.4736 23.2758 22.479 23.2783C22.5831 23.3213 22.7922 23.5791 22.9451 24.266Z" fill="#0B2F6E"/>
<path d="M27.1332 37.0889H22.8665C22.6699 37.0889 22.511 37.2478 22.511 37.4444C22.511 37.641 22.6699 37.8 22.8665 37.8H27.1332C27.3298 37.8 27.4888 37.641 27.4888 37.4444C27.4888 37.2478 27.3298 37.0889 27.1332 37.0889Z" fill="#0B2F6E"/>
<path d="M27.1332 38.1558H22.8665C22.6699 38.1558 22.511 38.3147 22.511 38.5113C22.511 38.7079 22.6699 38.8669 22.8665 38.8669H27.1332C27.3298 38.8669 27.4888 38.7079 27.4888 38.5113C27.4888 38.3147 27.3298 38.1558 27.1332 38.1558Z" fill="#0B2F6E"/>
<path d="M26.5158 39.2222H23.442C23.2653 39.2222 23.1078 39.3203 23.0399 39.4831C22.9727 39.6463 23.0093 39.8287 23.1312 39.9503L24.0464 40.8602C24.1506 40.9669 24.2964 40.9999 24.4454 40.9999H25.512C25.6614 40.9999 25.8068 40.9651 25.9106 40.8584L26.823 39.9361C26.9481 39.8113 26.9848 39.6396 26.9176 39.4764C26.85 39.3135 26.6925 39.2222 26.5158 39.2222ZM25.4473 40.2888H24.5104L24.0973 39.9333H25.8605L25.4473 40.2888Z" fill="#0B2F6E"/>
<path d="M24.9998 12.2C25.1965 12.2 25.3554 12.0407 25.3554 11.8444V9.35556C25.3554 9.15929 25.1965 9 24.9998 9C24.8032 9 24.6443 9.15929 24.6443 9.35556V11.8444C24.6443 12.0407 24.8032 12.2 24.9998 12.2Z" fill="#0B2F6E"/>
<path d="M19.321 13.4841C19.3872 13.5983 19.5063 13.6619 19.6293 13.6619C19.6897 13.6619 19.7509 13.6466 19.8067 13.6143C19.977 13.5161 20.0353 13.2985 19.9368 13.1286L18.6842 10.9586C18.5857 10.7883 18.3674 10.7304 18.1985 10.8285C18.0282 10.9266 17.9699 11.1442 18.0684 11.3142L19.321 13.4841Z" fill="#0B2F6E"/>
<path d="M13.3422 16.2812L15.5125 17.5341C15.5683 17.5665 15.6295 17.5818 15.6899 17.5818C15.8129 17.5818 15.9324 17.5181 15.9982 17.404C16.0963 17.2337 16.038 17.0164 15.868 16.9183L13.6977 15.6653C13.5274 15.5672 13.3102 15.6255 13.212 15.7955C13.1139 15.9654 13.1719 16.183 13.3422 16.2812Z" fill="#0B2F6E"/>
<path d="M14.6888 22.5113C14.6888 22.3151 14.5298 22.1558 14.3332 22.1558H11.8443C11.6477 22.1558 11.4888 22.3151 11.4888 22.5113C11.4888 22.7076 11.6477 22.8669 11.8443 22.8669H14.3332C14.5298 22.8669 14.6888 22.7076 14.6888 22.5113Z" fill="#0B2F6E"/>
<path d="M15.5534 27.5466L13.3831 28.7992C13.2128 28.8974 13.1545 29.115 13.253 29.2849C13.3191 29.3987 13.4382 29.4627 13.5612 29.4627C13.6217 29.4627 13.6828 29.4474 13.7387 29.415L15.909 28.1624C16.0793 28.0643 16.1376 27.8467 16.0391 27.6767C15.9406 27.5071 15.7223 27.4485 15.5534 27.5466Z" fill="#0B2F6E"/>
<path d="M36.4836 28.8209L34.3136 27.5682C34.1433 27.4701 33.9261 27.5281 33.8279 27.6984C33.7298 27.8687 33.7881 28.0859 33.9581 28.1841L36.128 29.4367C36.1838 29.469 36.245 29.4843 36.3054 29.4843C36.4285 29.4843 36.5479 29.4207 36.6137 29.3065C36.7118 29.1366 36.6535 28.919 36.4836 28.8209Z" fill="#0B2F6E"/>
<path d="M38.1555 22.1558H35.6666C35.47 22.1558 35.311 22.3151 35.311 22.5113C35.311 22.7076 35.47 22.8669 35.6666 22.8669H38.1555C38.3521 22.8669 38.511 22.7076 38.511 22.5113C38.511 22.3151 38.3521 22.1558 38.1555 22.1558Z" fill="#0B2F6E"/>
<path d="M34.1772 17.5599C34.2376 17.5599 34.2988 17.5446 34.3546 17.5122L36.5249 16.2593C36.6952 16.1611 36.7536 15.9435 36.6551 15.7736C36.5566 15.6033 36.3386 15.5453 36.1694 15.6434L33.9991 16.8964C33.8288 16.9945 33.7704 17.2121 33.8689 17.3821C33.9347 17.4962 34.0542 17.5599 34.1772 17.5599Z" fill="#0B2F6E"/>
<path d="M30.0596 13.6362C30.1154 13.6686 30.1766 13.6839 30.237 13.6839C30.3601 13.6839 30.4795 13.6202 30.5453 13.5061L31.7983 11.3362C31.8964 11.1662 31.8381 10.9486 31.6682 10.8505C31.4978 10.7523 31.2806 10.8103 31.1825 10.9806L29.9295 13.1506C29.8314 13.3202 29.8897 13.5378 30.0596 13.6362Z" fill="#0B2F6E"/>
</svg>
