<svg width="50" height="50" viewBox="0 0 50 50" fill="none" xmlns="http://www.w3.org/2000/svg">
<circle cx="25" cy="25" r="25" fill="#FFE500"/>
<path d="M16.9334 33.4487H14.0033C13.7651 33.4487 13.5735 33.2555 13.5735 33.0191V28.2786C13.5735 28.0404 13.7668 27.8472 14.0033 27.8472C14.2396 27.8472 14.4347 28.0404 14.4347 28.2786V32.5894H16.9351C17.1733 32.5894 17.3649 32.7826 17.3649 33.0191C17.3632 33.2572 17.1716 33.4487 16.9334 33.4487Z" fill="#0B2F6E"/>
<path d="M29.9742 26.6701C29.7361 26.6701 29.5428 26.4768 29.5428 26.2405V10.8611H14.4312V20.323C14.4312 20.5612 14.2379 20.7527 13.9998 20.7527C13.7616 20.7527 13.5701 20.5595 13.5701 20.323V10.4297C13.5701 10.1915 13.7634 10 13.9998 10H29.9725C30.2107 10 30.4023 10.1933 30.4023 10.4297V26.2387C30.4057 26.4768 30.2123 26.6701 29.9742 26.6701Z" fill="#0B2F6E"/>
<path d="M27.5551 15.148H21.4756C21.2374 15.148 21.0442 14.9547 21.0442 14.7183C21.0442 14.4801 21.2374 14.2886 21.4756 14.2886H27.5551C27.7933 14.2886 27.9865 14.4819 27.9865 14.7183C27.9865 14.9547 27.7933 15.148 27.5551 15.148Z" fill="#0B2F6E"/>
<path d="M27.5551 17.9507H21.4756C21.2374 17.9507 21.0442 17.7574 21.0442 17.521C21.0442 17.2828 21.2374 17.0913 21.4756 17.0913H27.5551C27.7933 17.0913 27.9865 17.2846 27.9865 17.521C27.9865 17.7591 27.7933 17.9507 27.5551 17.9507Z" fill="#0B2F6E"/>
<path d="M27.5551 20.7527H16.4224C16.1842 20.7527 15.991 20.5594 15.991 20.323C15.991 20.0849 16.1842 19.8916 16.4224 19.8916H27.5551C27.7932 19.8916 27.9865 20.0849 27.9865 20.323C27.9865 20.5612 27.7932 20.7527 27.5551 20.7527Z" fill="#0B2F6E"/>
<path d="M27.5551 23.5557H16.4224C16.1842 23.5557 15.991 23.3624 15.991 23.126C15.991 22.8879 16.1842 22.6963 16.4224 22.6963H27.5551C27.7932 22.6963 27.9865 22.8896 27.9865 23.126C27.9865 23.3641 27.7932 23.5557 27.5551 23.5557Z" fill="#0B2F6E"/>
<path d="M27.5552 26.3599H19.5376C19.2995 26.3599 19.1062 26.1666 19.1062 25.9302C19.1062 25.692 19.2995 25.5005 19.5376 25.5005H27.5552C27.7933 25.5005 27.9866 25.6937 27.9866 25.9302C27.9866 26.1666 27.7933 26.3599 27.5552 26.3599Z" fill="#0B2F6E"/>
<path d="M23.5859 29.1621H20.6384C20.4003 29.1621 20.207 28.9689 20.207 28.7325C20.207 28.4943 20.4003 28.3027 20.6384 28.3027H23.5859C23.8241 28.3027 24.0173 28.496 24.0173 28.7325C24.0173 28.9689 23.8241 29.1621 23.5859 29.1621Z" fill="#0B2F6E"/>
<path d="M19.2249 17.9505H16.4224C16.1843 17.9505 15.991 17.7572 15.991 17.5208V14.7183C15.991 14.4801 16.1843 14.2886 16.4224 14.2886H19.2249C19.4631 14.2886 19.6547 14.4819 19.6547 14.7183V17.5208C19.6547 17.7589 19.4631 17.9505 19.2249 17.9505ZM16.8522 17.0894H18.7935V15.148H16.8522V17.0894Z" fill="#0B2F6E"/>
<path d="M18.5867 29.1622C18.5591 29.1622 18.5313 29.1605 18.5054 29.1536L16.7195 28.8067C16.6349 28.7895 16.5574 28.7498 16.497 28.6894L10.2085 22.401C10.0412 22.2319 10.0412 21.9609 10.2085 21.7918L11.6477 20.3526C11.8169 20.1852 12.0878 20.1852 12.2569 20.3526L18.5454 26.641C18.6058 26.7014 18.647 26.779 18.6643 26.8636L19.011 28.648C19.0386 28.7878 18.9939 28.9327 18.8939 29.0345C18.8093 29.1174 18.7006 29.1622 18.5867 29.1622ZM17.0127 27.987L18.0432 28.1872L17.8427 27.157L11.9515 21.2655L11.1215 22.0955L17.0127 27.987Z" fill="#0B2F6E"/>
<path d="M9.50613 21.519C9.39223 21.519 9.28175 21.4742 9.20237 21.393L7.92706 20.1178C7.75967 19.9504 7.75967 19.6777 7.92706 19.5086L9.36626 18.0694C9.53365 17.902 9.80635 17.902 9.97547 18.0694L11.2525 19.3447C11.4198 19.5121 11.4198 19.7847 11.2525 19.9538L9.81326 21.393C9.72871 21.4742 9.62003 21.519 9.50613 21.519ZM8.83835 19.8123L9.50444 20.4802L10.3344 19.6501L9.66665 18.9823L8.83835 19.8123Z" fill="#0B2F6E"/>
<path d="M16.3002 28.3136C16.1898 28.3136 16.0793 28.2722 15.9965 28.1876C15.8273 28.0202 15.8273 27.7476 15.9965 27.5784L17.434 26.1392C17.6031 25.9718 17.8741 25.9718 18.0432 26.1392C18.2106 26.3066 18.2106 26.5793 18.0432 26.7484L16.604 28.1876C16.5212 28.2722 16.4107 28.3136 16.3002 28.3136Z" fill="#0B2F6E"/>
<path d="M24.1827 40.7742C23.9446 40.7742 23.753 40.581 23.753 40.3446V32.3184H19.4784V40.3446C19.4784 40.5827 19.2855 40.7742 19.0491 40.7742C18.8127 40.7742 18.6177 40.581 18.6177 40.3446V31.8887C18.6177 31.6505 18.811 31.459 19.0491 31.459H24.1844C24.4226 31.459 24.6159 31.6522 24.6159 31.8887V40.3446C24.6142 40.581 24.4209 40.7742 24.1827 40.7742Z" fill="#0B2F6E"/>
<path d="M32.6924 40.774C32.4543 40.774 32.261 40.5808 32.261 40.3444V28.23H27.9864V40.3444C27.9864 40.5825 27.7931 40.774 27.555 40.774C27.3168 40.774 27.1252 40.5808 27.1252 40.3444V27.8003C27.1252 27.5622 27.3185 27.3706 27.555 27.3706H32.6903C32.9285 27.3706 33.1217 27.5639 33.1217 27.8003V40.3444C33.1235 40.5808 32.9306 40.774 32.6924 40.774Z" fill="#0B2F6E"/>
<path d="M41.2017 40.7745C40.9636 40.7745 40.7703 40.5812 40.7703 40.3449V20.7652H36.4957V40.3449C36.4957 40.583 36.3024 40.7745 36.0659 40.7745C35.8278 40.7745 35.6345 40.5812 35.6345 40.3449V20.3355C35.6345 20.0973 35.8278 19.9058 36.0659 19.9058H41.2017C41.4399 19.9058 41.6315 20.0991 41.6315 20.3355V40.3449C41.6315 40.5812 41.4399 40.7745 41.2017 40.7745Z" fill="#0B2F6E"/>
</svg>
