<svg width="50" height="50" viewBox="0 0 50 50" fill="none" xmlns="http://www.w3.org/2000/svg">
<circle cx="25" cy="25" r="25" fill="#FFE500"/>
<path d="M14.1164 24.1711C12.9495 24.1711 12.0001 23.3025 12.0001 22.2349V19.469C12.0001 19.3162 12.1355 19.1924 12.3024 19.1924H15.9303C16.0973 19.1924 16.2326 19.3162 16.2326 19.469V22.2349C16.2326 23.3025 15.2833 24.1711 14.1164 24.1711ZM12.6047 19.7456V22.2349C12.6047 22.9975 13.2829 23.6179 14.1164 23.6179C14.9499 23.6179 15.628 22.9975 15.628 22.2349V19.7456H12.6047Z" fill="#0B2F6E"/>
<path d="M17.7442 24.1711C16.5773 24.1711 15.628 23.3025 15.628 22.2349V19.469C15.628 19.3162 15.7633 19.1924 15.9303 19.1924H19.5582C19.7251 19.1924 19.8605 19.3162 19.8605 19.469V22.2349C19.8605 23.3025 18.9111 24.1711 17.7442 24.1711ZM16.2326 19.7456V22.2349C16.2326 22.9975 16.9107 23.6179 17.7442 23.6179C18.5777 23.6179 19.2558 22.9975 19.2558 22.2349V19.7456H16.2326Z" fill="#0B2F6E"/>
<path d="M21.3721 24.1711C20.2052 24.1711 19.2559 23.3025 19.2559 22.2349V19.469C19.2559 19.3162 19.3912 19.1924 19.5582 19.1924H23.1861C23.353 19.1924 23.4884 19.3162 23.4884 19.469V22.2349C23.4884 23.3025 22.5391 24.1711 21.3721 24.1711ZM19.8605 19.7456V22.2349C19.8605 22.9975 20.5386 23.6179 21.3721 23.6179C22.2056 23.6179 22.8838 22.9975 22.8838 22.2349V19.7456H19.8605Z" fill="#0B2F6E"/>
<path d="M25.0001 24.1711C23.8331 24.1711 22.8838 23.3025 22.8838 22.2349V19.469C22.8838 19.3162 23.0192 19.1924 23.1861 19.1924H26.814C26.9809 19.1924 27.1163 19.3162 27.1163 19.469V22.2349C27.1163 23.3025 26.167 24.1711 25.0001 24.1711ZM23.4884 19.7456V22.2349C23.4884 22.9975 24.1665 23.6179 25.0001 23.6179C25.8336 23.6179 26.5117 22.9975 26.5117 22.2349V19.7456H23.4884Z" fill="#0B2F6E"/>
<path d="M28.6279 24.1711C27.461 24.1711 26.5116 23.3025 26.5116 22.2349V19.469C26.5116 19.3162 26.647 19.1924 26.814 19.1924H30.4419C30.6088 19.1924 30.7442 19.3162 30.7442 19.469V22.2349C30.7442 23.3025 29.7948 24.1711 28.6279 24.1711ZM27.1163 19.7456V22.2349C27.1163 22.9975 27.7944 23.6179 28.6279 23.6179C29.4614 23.6179 30.1395 22.9975 30.1395 22.2349V19.7456H27.1163Z" fill="#0B2F6E"/>
<path d="M32.2558 24.1711C31.0889 24.1711 30.1396 23.3025 30.1396 22.2349V19.469C30.1396 19.3162 30.2749 19.1924 30.4419 19.1924H34.0698C34.2367 19.1924 34.3721 19.3162 34.3721 19.469V22.2349C34.3721 23.3025 33.4227 24.1711 32.2558 24.1711ZM30.7442 19.7456V22.2349C30.7442 22.9975 31.4223 23.6179 32.2558 23.6179C33.0893 23.6179 33.7674 22.9975 33.7674 22.2349V19.7456H30.7442Z" fill="#0B2F6E"/>
<path d="M35.8837 24.1711C34.7168 24.1711 33.7674 23.3025 33.7674 22.2349V19.469C33.7674 19.3162 33.9028 19.1924 34.0697 19.1924H37.6976C37.8646 19.1924 37.9999 19.3162 37.9999 19.469V22.2349C37.9999 23.3025 37.0506 24.1711 35.8837 24.1711ZM34.3721 19.7456V22.2349C34.3721 22.9975 35.0502 23.6179 35.8837 23.6179C36.7172 23.6179 37.3953 22.9975 37.3953 22.2349V19.7456H34.3721Z" fill="#0B2F6E"/>
<path d="M37.6976 19.7452H12.3024C12.2028 19.7452 12.1095 19.7003 12.0531 19.6252C11.9967 19.5501 11.9844 19.4544 12.0202 19.3693L15.0434 12.1778C15.0883 12.071 15.2005 12.0005 15.3256 12.0005H34.6744C34.7995 12.0005 34.9116 12.071 34.9565 12.1778L37.9798 19.3693C38.0156 19.4544 38.0033 19.5501 37.9468 19.6252C37.8904 19.7003 37.7972 19.7452 37.6976 19.7452ZM12.7426 19.192H37.2574L34.4667 12.5536H15.5332L12.7426 19.192Z" fill="#0B2F6E"/>
<path d="M34.0695 19.7451C33.9319 19.7451 33.8074 19.6586 33.7751 19.5307L31.9612 12.3389C31.9236 12.19 32.0251 12.0415 32.1878 12.0071C32.3506 11.9728 32.5129 12.0656 32.5504 12.2145L34.3644 19.4063C34.4019 19.5552 34.3004 19.7036 34.1377 19.738C34.1148 19.7428 34.092 19.7451 34.0695 19.7451Z" fill="#0B2F6E"/>
<path d="M30.4414 19.7452C30.2947 19.7452 30.166 19.6473 30.143 19.5106L28.9337 12.3192C28.9083 12.1682 29.0215 12.027 29.1865 12.0038C29.3512 11.9805 29.5059 12.0841 29.5313 12.2351L30.7406 19.4265C30.766 19.5775 30.6528 19.7187 30.4878 19.742C30.4722 19.7441 30.4567 19.7452 30.4414 19.7452Z" fill="#0B2F6E"/>
<path d="M15.9303 19.7451C15.9009 19.7451 15.8709 19.7411 15.8413 19.7328C15.6817 19.6879 15.5921 19.5331 15.6412 19.3871L18.0598 12.1954C18.1089 12.0494 18.278 11.9673 18.4377 12.0123C18.5973 12.0573 18.6868 12.212 18.6377 12.358L16.2191 19.5497C16.1792 19.6687 16.0596 19.7451 15.9303 19.7451Z" fill="#0B2F6E"/>
<path d="M19.5585 19.7451C19.5432 19.7451 19.5278 19.7441 19.5122 19.7419C19.3472 19.7186 19.2339 19.5774 19.2593 19.4264L20.4686 12.2346C20.494 12.0836 20.6485 11.98 20.8134 12.0033C20.9784 12.0265 21.0916 12.1677 21.0662 12.3187L19.8569 19.5105C19.834 19.6473 19.7052 19.7451 19.5585 19.7451Z" fill="#0B2F6E"/>
<path d="M35.8837 35.7874C35.7167 35.7874 35.5814 35.6636 35.5814 35.5108V23.8938C35.5814 23.741 35.7167 23.6172 35.8837 23.6172C36.0506 23.6172 36.186 23.741 36.186 23.8938V35.5108C36.186 35.6636 36.0506 35.7874 35.8837 35.7874Z" fill="#0B2F6E"/>
<path d="M14.1163 35.7874C13.9494 35.7874 13.814 35.6636 13.814 35.5108V23.8938C13.814 23.741 13.9494 23.6172 14.1163 23.6172C14.2833 23.6172 14.4187 23.741 14.4187 23.8938V35.5108C14.4187 35.6636 14.2833 35.7874 14.1163 35.7874Z" fill="#0B2F6E"/>
<path d="M37.6977 38H12.3024C12.1355 38 12.0001 37.8761 12.0001 37.7233V35.5096C12.0001 35.3568 12.1355 35.2329 12.3024 35.2329H37.6977C37.8646 35.2329 38 35.3568 38 35.5096V37.7233C38 37.8761 37.8646 38 37.6977 38ZM12.6047 37.4466H37.3953V35.7863H12.6047V37.4466Z" fill="#0B2F6E"/>
<path d="M24.3954 35.7866H18.3489C18.1819 35.7866 18.0465 35.6628 18.0465 35.51V27.2121C18.0465 27.0594 18.1819 26.9355 18.3489 26.9355H24.3954C24.5623 26.9355 24.6977 27.0594 24.6977 27.2121V35.51C24.6977 35.6628 24.5623 35.7866 24.3954 35.7866ZM18.6512 35.2334H24.093V27.4887H18.6512V35.2334Z" fill="#0B2F6E"/>
<path d="M31.6511 30.8083H27.4186C27.2517 30.8083 27.1163 30.6845 27.1163 30.5317V27.2122C27.1163 27.0594 27.2517 26.9355 27.4186 26.9355H31.6511C31.8181 26.9355 31.9535 27.0594 31.9535 27.2122V30.5317C31.9535 30.6845 31.8181 30.8083 31.6511 30.8083ZM27.7209 30.2551H31.3488V27.4888H27.7209V30.2551Z" fill="#0B2F6E"/>
<path d="M35.8837 30.8083H31.6511C31.4842 30.8083 31.3488 30.6845 31.3488 30.5317V27.2122C31.3488 27.0594 31.4842 26.9355 31.6511 26.9355H35.8837C36.0506 26.9355 36.186 27.0594 36.186 27.2122V30.5317C36.186 30.6845 36.0506 30.8083 35.8837 30.8083ZM31.9535 30.2551H35.5814V27.4888H31.9535V30.2551Z" fill="#0B2F6E"/>
<path d="M35.8837 33.5739H24.3954C24.2284 33.5739 24.093 33.4499 24.093 33.2969C24.093 33.144 24.2284 33.02 24.3954 33.02H35.8837C36.0507 33.02 36.186 33.144 36.186 33.2969C36.186 33.4499 36.0507 33.5739 35.8837 33.5739Z" fill="#0B2F6E"/>
<path d="M18.3489 33.5739H14.1164C13.9494 33.5739 13.814 33.4499 13.814 33.2969C13.814 33.144 13.9494 33.02 14.1164 33.02H18.3489C18.5158 33.02 18.6512 33.144 18.6512 33.2969C18.6512 33.4499 18.5158 33.5739 18.3489 33.5739Z" fill="#0B2F6E"/>
<path d="M23.1861 19.7452C23.0191 19.7452 22.8838 19.6213 22.8838 19.4686V12.2771C22.8838 12.1243 23.0191 12.0005 23.1861 12.0005C23.353 12.0005 23.4884 12.1243 23.4884 12.2771V19.4686C23.4884 19.6213 23.353 19.7452 23.1861 19.7452Z" fill="#0B2F6E"/>
<path d="M26.814 19.7452C26.647 19.7452 26.5116 19.6213 26.5116 19.4686V12.2771C26.5116 12.1243 26.647 12.0005 26.814 12.0005C26.9809 12.0005 27.1163 12.1243 27.1163 12.2771V19.4686C27.1163 19.6213 26.9809 19.7452 26.814 19.7452Z" fill="#0B2F6E"/>
</svg>
