<svg width="50" height="50" viewBox="0 0 50 50" fill="none" xmlns="http://www.w3.org/2000/svg">
<circle cx="25" cy="25" r="25" fill="#FFE500"/>
<path d="M39.831 34.1809L32.5285 26.8796L31.158 28.2501L27.4667 24.5588C28.6367 22.8215 29.2663 20.777 29.2663 18.6357C29.2663 15.7947 28.16 13.1241 26.1511 11.1152C24.1422 9.10634 21.4713 8 18.6306 8C15.7896 8 13.1189 9.10634 11.1101 11.1152C6.96331 15.2622 6.96331 22.0092 11.1101 26.1556C13.119 28.1645 15.7899 29.2708 18.6306 29.2708C20.7718 29.2708 22.8163 28.6418 24.5536 27.4717L28.2449 31.1629L26.874 32.5338L34.1765 39.8357C34.9319 40.5906 35.9359 41.0065 37.0037 41.0065C38.0721 41.0065 39.0761 40.5911 39.831 39.8357C41.3896 38.2767 41.3896 35.7399 39.8313 34.1809H39.831ZM11.5971 25.6677C7.71949 21.7901 7.71949 15.48 11.5971 11.6028C13.4758 9.72426 15.9733 8.6896 18.6304 8.6896C21.2872 8.6896 23.7849 9.72426 25.6638 11.6028C27.5423 13.4816 28.577 15.979 28.577 18.6362C28.577 21.2927 27.5423 23.7901 25.6638 25.6689C23.7853 27.5475 21.2876 28.5821 18.6304 28.5821C15.9737 28.5816 13.4763 27.547 11.5971 25.6685V25.6677ZM26.1509 26.1553C26.4776 25.8286 26.7779 25.4827 27.0559 25.1231L30.6102 28.6768L28.6724 30.6145L25.1179 27.061C25.4781 26.7827 25.824 26.4822 26.1509 26.1553H26.1509ZM39.3432 39.3482C38.7183 39.9732 37.8876 40.3169 37.0036 40.3169C36.1197 40.3169 35.2889 39.9732 34.6639 39.3482L27.8491 32.5334L32.5282 27.8551L39.343 34.6692C40.6328 35.9593 40.6328 38.0582 39.3432 39.3483L39.3432 39.3482Z" fill="#002D72"/>
<path d="M11.9375 22.8203H15.6051V17.5073H11.9375V22.8203ZM12.6272 18.197H14.9153V22.1306H12.6272V18.197Z" fill="#002D72"/>
<path d="M16.7959 22.8203H20.4632V14.4512H16.7959V22.8203ZM17.4858 15.1409H19.7737V22.1312H17.4858V15.1409Z" fill="#002D72"/>
<path d="M21.6548 22.8201H25.3224V15.9395H21.6548V22.8201ZM22.3445 16.6292H24.6324V22.13H22.3445V16.6292Z" fill="#002D72"/>
</svg>
