<svg width="50" height="50" viewBox="0 0 50 50" fill="none" xmlns="http://www.w3.org/2000/svg">
<circle cx="25" cy="25" r="25" fill="#FFE500"/>
<path d="M37.3144 10.7778H13.118C11.8276 10.7778 10.7778 11.8276 10.7778 13.118V37.3144C10.7778 38.6048 11.8276 39.6546 13.118 39.6546H37.3144C38.6048 39.6546 39.6546 38.6048 39.6546 37.3144V13.118C39.6546 11.8276 38.6048 10.7778 37.3144 10.7778ZM38.8842 37.3144C38.8842 38.1801 38.1801 38.8842 37.3144 38.8842H13.118C12.2523 38.8842 11.5482 38.1801 11.5482 37.3144V13.118C11.5482 12.2523 12.2523 11.5482 13.118 11.5482H37.3144C38.1801 11.5482 38.8842 12.2523 38.8842 13.118V37.3144Z" fill="#0B2F6E"/>
<path d="M37.6549 17.5615H12.7773C12.5645 17.5615 12.3921 17.734 12.3921 17.9467V37.398C12.3921 37.6107 12.5645 37.7832 12.7773 37.7832H37.6549C37.8676 37.7832 38.0401 37.6107 38.0401 37.398V17.9467C38.0401 17.734 37.8676 17.5615 37.6549 17.5615ZM37.2697 37.0128H13.1624V18.3319H37.2697V37.0128Z" fill="#0B2F6E"/>
<path d="M12.7773 15.0706H29.7645C29.9772 15.0706 30.1497 14.8982 30.1497 14.6855C30.1497 14.4728 29.9772 14.3003 29.7645 14.3003H12.7773C12.5645 14.3003 12.3921 14.4728 12.3921 14.6855C12.3921 14.8982 12.5645 15.0706 12.7773 15.0706Z" fill="#0B2F6E"/>
<path d="M37.655 12.9062H34.8664C34.6537 12.9062 34.4812 13.0787 34.4812 13.2914V16.0799C34.4812 16.2926 34.6537 16.4651 34.8664 16.4651H37.655C37.8677 16.4651 38.0402 16.2926 38.0402 16.0799V13.2914C38.0402 13.0787 37.8677 12.9062 37.655 12.9062ZM37.2699 15.6947H35.2515V13.6766H37.2699V15.6947Z" fill="#0B2F6E"/>
<path d="M30.7582 16.4651H33.5469C33.7596 16.4651 33.932 16.2926 33.932 16.0799V13.2914C33.932 13.0787 33.7596 12.9062 33.5469 12.9062H30.7582C30.5455 12.9062 30.373 13.0787 30.373 13.2914V16.0799C30.373 16.2926 30.5455 16.4651 30.7582 16.4651ZM31.1434 13.6766H33.1617V15.6947H31.1434V13.6766Z" fill="#0B2F6E"/>
<path d="M24.9318 30.5905C25.0048 30.6705 25.108 30.716 25.2161 30.716C25.3243 30.716 25.4275 30.6705 25.5005 30.5905L29.7416 25.9456C29.8447 25.833 29.8712 25.6701 29.8097 25.5306C29.748 25.3908 29.6098 25.3007 29.4573 25.3007H27.5751V21.7323C27.5751 21.5196 27.4026 21.3472 27.1899 21.3472H23.2424C23.0297 21.3472 22.8572 21.5196 22.8572 21.7323V25.3007H20.975C20.8225 25.3007 20.6843 25.3908 20.6226 25.5306C20.5611 25.6701 20.5876 25.833 20.6907 25.9456L24.9318 30.5905ZM23.2424 26.0711C23.4551 26.0711 23.6275 25.8986 23.6275 25.6859V22.1175H26.8048V25.6859C26.8048 25.8986 26.9772 26.0711 27.1899 26.0711H28.5841L25.2161 29.7596L21.8482 26.0711H23.2424Z" fill="#0B2F6E"/>
<path d="M24.9317 32.5906C25.0047 32.6706 25.108 32.7161 25.2161 32.7161C25.3242 32.7161 25.4275 32.6706 25.5005 32.5906L29.7416 27.9457C29.8851 27.7887 29.874 27.545 29.717 27.4016C29.5595 27.2578 29.3164 27.2694 29.1729 27.4263L25.2161 31.7597L21.2593 27.4263C21.1164 27.2694 20.8725 27.258 20.7153 27.4016C20.5582 27.545 20.5471 27.7887 20.6906 27.9457L24.9317 32.5906Z" fill="#0B2F6E"/>
<path d="M28.6856 33.2275H21.747C21.5343 33.2275 21.3618 33.4 21.3618 33.6127C21.3618 33.8254 21.5343 33.9979 21.747 33.9979H28.6856C28.8983 33.9979 29.0707 33.8254 29.0707 33.6127C29.0707 33.4 28.8983 33.2275 28.6856 33.2275Z" fill="#0B2F6E"/>
</svg>
