<svg width="50" height="50" viewBox="0 0 50 50" fill="none" xmlns="http://www.w3.org/2000/svg">
<circle cx="25" cy="25" r="25" fill="#FFE500"/>
<path d="M22.1818 9.36359H28.3182C28.5443 9.36359 28.7273 9.18042 28.7273 8.9545C28.7273 8.72858 28.5443 8.54541 28.3182 8.54541H22.1818C21.9557 8.54541 21.7727 8.72858 21.7727 8.9545C21.7727 9.18042 21.9557 9.36359 22.1818 9.36359Z" fill="#0B2F6E"/>
<path d="M28.7273 10.9999C28.7273 10.774 28.5443 10.5908 28.3182 10.5908H22.1818C21.9557 10.5908 21.7727 10.774 21.7727 10.9999C21.7727 11.2258 21.9557 11.409 22.1818 11.409H28.3182C28.5443 11.409 28.7273 11.2258 28.7273 10.9999Z" fill="#0B2F6E"/>
<path d="M11.9545 23.6815H16.0454C16.2715 23.6815 16.4545 23.4983 16.4545 23.2724C16.4545 23.0465 16.2715 22.8633 16.0454 22.8633H11.9545C11.7284 22.8633 11.5454 23.0465 11.5454 23.2724C11.5454 23.4983 11.7284 23.6815 11.9545 23.6815Z" fill="#0B2F6E"/>
<path d="M16.4545 25.3178C16.4545 25.0919 16.2715 24.9087 16.0454 24.9087H11.9545C11.7284 24.9087 11.5454 25.0919 11.5454 25.3178C11.5454 25.5437 11.7284 25.7269 11.9545 25.7269H16.0454C16.2715 25.7269 16.4545 25.5437 16.4545 25.3178Z" fill="#0B2F6E"/>
<path d="M9.90909 38H18.0909C18.317 38 18.5 37.8168 18.5 37.5909V31.4545C18.5 31.2286 18.317 31.0455 18.0909 31.0455H14.4091V27.7727H18.0909C18.317 27.7727 18.5 27.5896 18.5 27.3636V21.2273C18.5 21.0014 18.317 20.8182 18.0909 20.8182H14.4091V18.5682H24.8409V20.8182H21.1591C20.933 20.8182 20.75 21.0014 20.75 21.2273V27.3636C20.75 27.5896 20.933 27.7727 21.1591 27.7727H24.8409V31.0455H21.1591C20.933 31.0455 20.75 31.2286 20.75 31.4545V37.5909C20.75 37.8168 20.933 38 21.1591 38H29.3409C29.567 38 29.75 37.8168 29.75 37.5909V31.4545C29.75 31.2286 29.567 31.0455 29.3409 31.0455H25.6591V27.7727H29.3409C29.567 27.7727 29.75 27.5896 29.75 27.3636V21.2273C29.75 21.0014 29.567 20.8182 29.3409 20.8182H25.6591V18.5682H36.0909V20.8182H32.4091C32.183 20.8182 32 21.0014 32 21.2273V27.3636C32 27.5896 32.183 27.7727 32.4091 27.7727H36.0909V31.0455H32.4091C32.183 31.0455 32 31.2286 32 31.4545V37.5909C32 37.8168 32.183 38 32.4091 38H40.5909C40.817 38 41 37.8168 41 37.5909V31.4545C41 31.2286 40.817 31.0455 40.5909 31.0455H36.9091V27.7727H40.5909C40.817 27.7727 41 27.5896 41 27.3636V21.2273C41 21.0014 40.817 20.8182 40.5909 20.8182H36.9091V18.1591C36.9091 17.9332 36.7261 17.75 36.5 17.75H25.6591V14.4773H30.3636C30.5898 14.4773 30.7727 14.2941 30.7727 14.0682V6.90909C30.7727 6.68317 30.5898 6.5 30.3636 6.5H20.1364C19.9102 6.5 19.7273 6.68317 19.7273 6.90909V14.0682C19.7273 14.2941 19.9102 14.4773 20.1364 14.4773H24.8409V17.75H14C13.7739 17.75 13.5909 17.9332 13.5909 18.1591V20.8182H9.90909C9.68297 20.8182 9.5 21.0014 9.5 21.2273V27.3636C9.5 27.5896 9.68297 27.7727 9.90909 27.7727H13.5909V31.0455H9.90909C9.68297 31.0455 9.5 31.2286 9.5 31.4545V37.5909C9.5 37.8168 9.68297 38 9.90909 38ZM40.1818 31.8636V37.1818H32.8182V31.8636H36.5H40.1818ZM40.1818 21.6364V26.9545H36.5H32.8182V21.6364H36.5H40.1818ZM28.9318 31.8636V37.1818H21.5682V31.8636H25.25H28.9318ZM20.5455 13.6591V7.31818H29.9545V13.6591H25.25H20.5455ZM25.25 21.6364H28.9318V26.9545H25.25H21.5682V21.6364H25.25ZM10.3182 26.9545V21.6364H14H17.6818V26.9545H14H10.3182ZM10.3182 31.8636H14H17.6818V37.1818H10.3182V31.8636Z" fill="#0B2F6E"/>
<path d="M16.0454 33.0908H11.9545C11.7284 33.0908 11.5454 33.274 11.5454 33.4999C11.5454 33.7258 11.7284 33.909 11.9545 33.909H16.0454C16.2715 33.909 16.4545 33.7258 16.4545 33.4999C16.4545 33.274 16.2715 33.0908 16.0454 33.0908Z" fill="#0B2F6E"/>
<path d="M16.0454 35.1367H11.9545C11.7284 35.1367 11.5454 35.3199 11.5454 35.5458C11.5454 35.7717 11.7284 35.9549 11.9545 35.9549H16.0454C16.2715 35.9549 16.4545 35.7717 16.4545 35.5458C16.4545 35.3199 16.2715 35.1367 16.0454 35.1367Z" fill="#0B2F6E"/>
<path d="M23.2045 23.6815H27.2954C27.5215 23.6815 27.7045 23.4983 27.7045 23.2724C27.7045 23.0465 27.5215 22.8633 27.2954 22.8633H23.2045C22.9784 22.8633 22.7954 23.0465 22.7954 23.2724C22.7954 23.4983 22.9784 23.6815 23.2045 23.6815Z" fill="#0B2F6E"/>
<path d="M23.2045 25.7269H27.2954C27.5215 25.7269 27.7045 25.5437 27.7045 25.3178C27.7045 25.0919 27.5215 24.9087 27.2954 24.9087H23.2045C22.9784 24.9087 22.7954 25.0919 22.7954 25.3178C22.7954 25.5437 22.9784 25.7269 23.2045 25.7269Z" fill="#0B2F6E"/>
<path d="M22.7954 33.4999C22.7954 33.7258 22.9784 33.909 23.2045 33.909H27.2954C27.5215 33.909 27.7045 33.7258 27.7045 33.4999C27.7045 33.274 27.5215 33.0908 27.2954 33.0908H23.2045C22.9784 33.0908 22.7954 33.274 22.7954 33.4999Z" fill="#0B2F6E"/>
<path d="M27.2954 35.1367H23.2045C22.9784 35.1367 22.7954 35.3199 22.7954 35.5458C22.7954 35.7717 22.9784 35.9549 23.2045 35.9549H27.2954C27.5215 35.9549 27.7045 35.7717 27.7045 35.5458C27.7045 35.3199 27.5215 35.1367 27.2954 35.1367Z" fill="#0B2F6E"/>
<path d="M34.4545 23.6815H38.5454C38.7715 23.6815 38.9545 23.4983 38.9545 23.2724C38.9545 23.0465 38.7715 22.8633 38.5454 22.8633H34.4545C34.2284 22.8633 34.0454 23.0465 34.0454 23.2724C34.0454 23.4983 34.2284 23.6815 34.4545 23.6815Z" fill="#0B2F6E"/>
<path d="M34.4545 25.7269H38.5454C38.7715 25.7269 38.9545 25.5437 38.9545 25.3178C38.9545 25.0919 38.7715 24.9087 38.5454 24.9087H34.4545C34.2284 24.9087 34.0454 25.0919 34.0454 25.3178C34.0454 25.5437 34.2284 25.7269 34.4545 25.7269Z" fill="#0B2F6E"/>
<path d="M34.0454 33.4999C34.0454 33.7258 34.2284 33.909 34.4545 33.909H38.5454C38.7715 33.909 38.9545 33.7258 38.9545 33.4999C38.9545 33.274 38.7715 33.0908 38.5454 33.0908H34.4545C34.2284 33.0908 34.0454 33.274 34.0454 33.4999Z" fill="#0B2F6E"/>
<path d="M38.5454 35.1367H34.4545C34.2284 35.1367 34.0454 35.3199 34.0454 35.5458C34.0454 35.7717 34.2284 35.9549 34.4545 35.9549H38.5454C38.7715 35.9549 38.9545 35.7717 38.9545 35.5458C38.9545 35.3199 38.7715 35.1367 38.5454 35.1367Z" fill="#0B2F6E"/>
</svg>
