<svg width="50" height="50" viewBox="0 0 50 50" fill="none" xmlns="http://www.w3.org/2000/svg">
<circle cx="25" cy="25" r="25" fill="#FFE500"/>
<path d="M30.4937 21.7706V20.6738C30.4657 19.706 30.0527 18.7893 29.3466 18.1271C28.6402 17.4648 27.6986 17.1117 26.731 17.1463H23.2921C22.3208 17.1074 21.3747 17.4582 20.6633 18.1208C19.9522 18.7831 19.5353 19.7027 19.5057 20.6738V21.7709C18.8651 22.2474 18.4986 23.0072 18.5242 23.8052C18.5496 24.6032 18.9639 25.338 19.6334 25.7727C20.8991 32.5156 29.0965 32.4978 30.3847 25.7757C31.0474 25.3337 31.4545 24.5973 31.4758 23.8013C31.4975 23.0049 31.131 22.2478 30.4934 21.7706L30.4937 21.7706ZM29.9094 24.9144C29.643 25.0521 29.4546 25.305 29.3983 25.5998C28.3392 31.2634 21.6591 31.2638 20.6005 25.5968H20.6008C20.5441 25.3037 20.3564 25.0524 20.0916 24.9148C19.7 24.6559 19.4715 24.2116 19.4893 23.7427C19.4767 23.4937 19.5354 23.2467 19.6582 23.03C19.7814 22.8136 19.9635 22.6367 20.1838 22.5202C20.3686 22.4447 20.4895 22.2649 20.4891 22.0653V20.6739C20.5184 19.9632 20.8317 19.2936 21.3583 18.8154C21.8852 18.3372 22.5818 18.0902 23.2922 18.1301H26.7312C27.675 18.105 28.5675 18.5582 29.1047 19.3351C29.6537 20.0577 29.4877 21.2344 29.5101 22.0657V22.0654C29.5098 22.2649 29.6306 22.4451 29.8154 22.5202C30.2225 22.7741 30.4777 23.2131 30.4965 23.6923C30.5152 24.1718 30.2956 24.6295 29.9096 24.9144L29.9094 24.9144ZM25 8C20.493 8.00494 16.1718 9.79784 12.9849 12.9849C9.79793 16.1719 8.00497 20.4928 8 25C8.93366 47.5531 41.0701 47.5464 42 25C41.9951 20.4927 40.2022 16.1718 37.0151 12.9849C33.8281 9.79793 29.5068 8.00497 25 8ZM14.7107 37.2575C14.8405 36.0554 15.4109 34.9439 16.3119 34.1377C17.2127 33.3318 18.3805 32.8879 19.5895 32.8924H30.41C31.6193 32.8858 32.7881 33.3281 33.6902 34.1337C34.5922 34.9393 35.1637 36.0508 35.2934 37.2532C29.83 42.2006 20.1765 42.2022 14.7115 37.2575L14.7107 37.2575ZM36.1324 36.4898H36.1327C35.8426 35.1889 35.1174 34.0257 34.0766 33.1929C33.0359 32.3596 31.7422 31.9068 30.4095 31.9088H19.589C18.2561 31.9068 16.9626 32.3597 15.9218 33.1929C14.8811 34.0258 14.1559 35.189 13.8657 36.4898C3.60175 26.6836 10.6495 8.95815 24.999 8.98344C39.3487 8.95808 46.397 26.6862 36.1322 36.4898H36.1324Z" fill="#002D72"/>
</svg>
