<svg width="50" height="50" viewBox="0 0 50 50" fill="none" xmlns="http://www.w3.org/2000/svg">
<circle cx="25" cy="25" r="25" fill="#FFE500"/>
<path d="M38.7501 34.78C38.9851 34.78 39.1754 34.5897 39.1754 34.3547C39.1754 32.1163 40.9997 30.2921 43.238 30.2921C43.4731 30.2921 43.6633 30.1018 43.6633 29.8668V20.9132C43.6633 20.6782 43.4731 20.4879 43.238 20.4879C40.9997 20.4879 39.1754 18.6637 39.1754 16.4253C39.1754 16.1903 38.9851 16 38.7501 16H8.53198C8.29695 16 8.10669 16.1903 8.10669 16.4253V34.3323C8.10669 34.5674 8.29695 34.7576 8.53198 34.7576H38.7501V34.78ZM33.8816 16.873C33.8704 16.9177 33.848 16.9625 33.848 17.0185V18.1377C33.848 18.3727 34.0383 18.5629 34.2733 18.5629C34.5084 18.5629 34.6986 18.3727 34.6986 18.1377V17.0185C34.6986 16.9737 34.6874 16.9177 34.6651 16.873H38.3472C38.5486 19.2345 40.4401 21.1259 42.8016 21.3273V29.475C40.4401 29.6765 38.5486 31.5679 38.3472 33.9294H34.6651C34.6762 33.8846 34.6986 33.8399 34.6986 33.7839V32.6647C34.6986 32.4297 34.5084 32.2394 34.2733 32.2394C34.0383 32.2394 33.848 32.4297 33.848 32.6647V33.7839C33.848 33.8287 33.8592 33.8846 33.8816 33.9294H24.6931C27.9387 32.4521 30.2107 29.1841 30.2107 25.39C30.2107 21.5959 27.9387 18.3279 24.6931 16.8506H33.8816V16.873ZM29.3825 25.4012C29.3825 30.1018 25.5549 33.9406 20.8431 33.9406C16.1313 33.9406 12.3148 30.1018 12.3148 25.4012C12.3148 20.7006 16.1425 16.8618 20.8543 16.8618C25.566 16.8618 29.3825 20.7006 29.3825 25.4012ZM8.95727 16.873H16.9931C13.7474 18.3503 11.4755 21.6183 11.4755 25.4124C11.4755 29.2064 13.7474 32.4745 16.9931 33.9518H8.95727V16.873Z" fill="#0B2F6E"/>
<path d="M34.2727 20.7901C34.5077 20.7901 34.698 20.5998 34.698 20.3648V19.2456C34.698 19.0106 34.5077 18.8203 34.2727 18.8203C34.0377 18.8203 33.8474 19.0106 33.8474 19.2456V20.3648C33.8586 20.5998 34.0377 20.7901 34.2727 20.7901Z" fill="#0B2F6E"/>
<path d="M34.2727 23.0285C34.5077 23.0285 34.698 22.8382 34.698 22.6032V21.484C34.698 21.249 34.5077 21.0587 34.2727 21.0587C34.0377 21.0587 33.8474 21.249 33.8474 21.484V22.6032C33.8586 22.8382 34.0377 23.0285 34.2727 23.0285Z" fill="#0B2F6E"/>
<path d="M34.2727 25.2669C34.5077 25.2669 34.698 25.0766 34.698 24.8416V23.7224C34.698 23.4874 34.5077 23.2971 34.2727 23.2971C34.0377 23.2971 33.8474 23.4874 33.8474 23.7224V24.8416C33.8586 25.0766 34.0377 25.2669 34.2727 25.2669Z" fill="#0B2F6E"/>
<path d="M34.2727 27.5053C34.5077 27.5053 34.698 27.315 34.698 27.08V25.9608C34.698 25.7258 34.5077 25.5355 34.2727 25.5355C34.0377 25.5355 33.8474 25.7258 33.8474 25.9608V27.08C33.8586 27.315 34.0377 27.5053 34.2727 27.5053Z" fill="#0B2F6E"/>
<path d="M34.2727 29.7436C34.5077 29.7436 34.698 29.5533 34.698 29.3183V28.1991C34.698 27.9641 34.5077 27.7738 34.2727 27.7738C34.0377 27.7738 33.8474 27.9641 33.8474 28.1991V29.3183C33.8586 29.5533 34.0377 29.7436 34.2727 29.7436Z" fill="#0B2F6E"/>
<path d="M34.2727 31.982C34.5077 31.982 34.698 31.7917 34.698 31.5567V30.4375C34.698 30.2025 34.5077 30.0122 34.2727 30.0122C34.0377 30.0122 33.8474 30.2025 33.8474 30.4375V31.5567C33.8586 31.7917 34.0377 31.982 34.2727 31.982Z" fill="#0B2F6E"/>
<path d="M20.8433 29.4638C19.836 29.4638 19.019 28.6468 19.019 27.6395C19.019 27.4045 18.8288 27.2142 18.5937 27.2142C18.3587 27.2142 18.1685 27.4045 18.1685 27.6395C18.1685 28.9601 19.1422 30.057 20.4068 30.2584V30.9971C20.4068 31.2321 20.5971 31.4224 20.8321 31.4224C21.0672 31.4224 21.2574 31.2321 21.2574 30.9971V30.2584C22.5221 30.057 23.4958 28.9601 23.4958 27.6395C23.4958 26.1734 22.2983 24.9758 20.8321 24.9758C19.8249 24.9758 19.0078 24.1588 19.0078 23.1516C19.0078 22.1443 19.8249 21.3273 20.8321 21.3273C21.8394 21.3273 22.6564 22.1443 22.6564 23.1516C22.6564 23.3866 22.8467 23.5768 23.0817 23.5768C23.3167 23.5768 23.507 23.3866 23.507 23.1516C23.507 21.8309 22.5333 20.7341 21.2686 20.5326V19.8052C21.2686 19.5701 21.0784 19.3799 20.8433 19.3799C20.6083 19.3799 20.418 19.5701 20.418 19.8052V20.5438C19.1533 20.7453 18.1796 21.8421 18.1796 23.1627C18.1796 24.6289 19.3772 25.8264 20.8433 25.8264C21.8506 25.8264 22.6676 26.6434 22.6676 27.6507C22.6676 28.658 21.8506 29.4638 20.8433 29.4638Z" fill="#0B2F6E"/>
</svg>
