<svg viewBox="0 0 60 60" fill="none" xmlns="http://www.w3.org/2000/svg">
<g clip-path="url(#clip0_52779_310863)">
<path d="M36.3189 36.9764L37.0221 36.2732C37.838 35.4573 39.1606 35.4573 39.9765 36.2732L42.931 39.2277C43.7469 40.0436 43.7469 41.3662 42.931 42.1822L33.8597 51.2535C30.3913 54.7219 25.8474 56.4551 21.3024 56.4551C16.7575 56.4551 12.2125 54.7219 8.74512 51.2535C1.90753 44.4169 1.81032 33.3932 8.4535 26.4367" stroke="black" stroke-width="2" stroke-miterlimit="10" stroke-linecap="square" stroke-linejoin="round"/>
<path d="M11.0098 23.8744L17.8174 17.0668C18.6333 16.2508 19.9559 16.2508 20.7718 17.0668L23.7263 20.0212C24.5422 20.8371 24.5422 22.1598 23.7263 22.9757L14.655 32.048C10.9674 35.7347 10.9901 41.7491 14.7212 45.4089C18.4161 49.0334 24.3758 48.9187 28.0355 45.2589L33.7604 39.5351" stroke="black" stroke-width="2" stroke-miterlimit="10" stroke-linecap="square" stroke-linejoin="round"/>
<path d="M31.5547 41.7392L37.464 47.6484" stroke="black" stroke-width="2" stroke-miterlimit="10" stroke-linecap="square" stroke-linejoin="round"/>
<path d="M12.3516 22.5321L18.2608 28.4414" stroke="black" stroke-width="2" stroke-miterlimit="10" stroke-linecap="square" stroke-linejoin="round"/>
<path d="M55.9668 20.4854C55.9668 22.5775 54.2709 24.2734 52.1787 24.2734C50.0866 24.2734 48.3906 22.5775 48.3906 20.4854C48.3906 18.3932 50.0866 16.6973 52.1787 16.6973C54.2709 16.6973 55.9668 18.3932 55.9668 20.4854Z" stroke="black" stroke-width="2" stroke-miterlimit="10" stroke-linecap="round" stroke-linejoin="round"/>
<path d="M57.5038 30.666H46.8497C46.1959 30.666 45.666 30.136 45.666 29.4822V28.0616C45.666 25.9696 47.362 24.2736 49.4541 24.2736H54.8995C56.9916 24.2736 58.6877 25.9696 58.6877 28.0616V29.4822C58.6877 30.136 58.1576 30.666 57.5038 30.666Z" stroke="black" stroke-width="2" stroke-miterlimit="10" stroke-linecap="round" stroke-linejoin="round"/>
<path d="M42.9668 4.78223C42.9668 6.87438 41.2709 8.57031 39.1787 8.57031C37.0866 8.57031 35.3906 6.87438 35.3906 4.78223C35.3906 2.69008 37.0866 0.994141 39.1787 0.994141C41.2709 0.994141 42.9668 2.69008 42.9668 4.78223Z" stroke="black" stroke-width="2" stroke-miterlimit="10" stroke-linecap="round" stroke-linejoin="round"/>
<path d="M41.2277 14.9629H44.5043C45.1582 14.9629 45.6879 14.4332 45.6879 13.7793V12.359C45.6879 10.266 43.9922 8.57031 41.8992 8.57031H36.4547C34.3617 8.57031 32.666 10.266 32.666 12.359V13.7793C32.666 14.4332 33.1957 14.9629 33.8496 14.9629H37.1262" stroke="black" stroke-width="2" stroke-miterlimit="10" stroke-linecap="square" stroke-linejoin="round"/>
<path d="M28.4761 33.7889C28.647 33.9728 28.8697 34.0797 29.1008 34.108C29.3905 34.1436 29.6933 34.0558 29.9236 33.8417L35.0817 29.0459C35.4027 28.7472 35.5413 28.3127 35.4525 27.8834C35.3636 27.454 35.064 27.1102 34.6509 26.9636L33.123 26.421L37.4582 22.7787C37.8913 22.4148 37.9474 21.7686 37.5835 21.3355C37.2196 20.9022 36.5734 20.8461 36.1403 21.2102L30.7289 25.7569C30.3883 26.0428 30.226 26.4923 30.3049 26.9298C30.3839 27.3674 30.6931 27.7318 31.1125 27.8808L32.7143 28.4497L28.5288 32.3411C28.1143 32.7265 28.0907 33.3746 28.4761 33.7889Z" fill="black"/>
</g>
<defs>
<clipPath id="clip0_52779_310863">
<rect width="60" height="60" fill="white"/>
</clipPath>
</defs>
</svg>
