<svg viewBox="0 0 60 60" fill="none" xmlns="http://www.w3.org/2000/svg">
<path d="M49.2828 37.0758C51.761 34.5976 47.5989 26.4175 39.9865 18.8051C32.3741 11.1927 24.194 7.03059 21.7158 9.50884C19.2375 11.9871 23.3996 20.1672 31.012 27.7796C38.6244 35.392 46.8045 39.5541 49.2828 37.0758Z" stroke="black" stroke-width="2" stroke-miterlimit="10"/>
<path d="M16.8945 53.3059C16.8945 53.3059 19.9855 54.0149 22.9135 55.2509C25.4455 56.3199 26.8515 57.4359 27.5495 58.1239C27.9765 58.5439 28.5425 58.7939 29.1415 58.7939H29.2085C29.7995 58.7939 30.3655 58.5589 30.7835 58.1419L32.3465 56.4469C32.7645 56.0289 32.9995 55.4619 32.9995 54.8709V54.6339C32.9995 54.0219 32.7525 53.4399 32.3085 53.0189C31.5775 52.3259 30.1885 51.2669 27.7805 50.2509C24.8535 49.0159 22.7235 48.6309 22.7235 48.6309" stroke="black" stroke-width="2" stroke-miterlimit="10"/>
<path d="M41.2719 30.7075C39.5519 24.8555 34.9379 20.2425 29.0859 18.5215" stroke="black" stroke-width="2" stroke-miterlimit="10"/>
<path d="M43.4297 15.3649L50.6247 8.16992" stroke="black" stroke-width="2" stroke-miterlimit="10"/>
<path d="M39.832 4.586L41.417 1" stroke="black" stroke-width="2" stroke-miterlimit="10"/>
<path d="M36.7871 11.4745L38.7181 7.10547" stroke="black" stroke-width="2" stroke-miterlimit="10"/>
<path d="M54.252 18.3735L57.73 16.4805" stroke="black" stroke-width="2" stroke-miterlimit="10"/>
<path d="M47.3965 22.1053L51.9025 19.6523" stroke="black" stroke-width="2" stroke-miterlimit="10"/>
<path d="M48.4463 37.5996L20.7053 49.4956L14.7043 55.4966C13.6783 56.5226 10.2933 54.7996 7.14326 51.6496C2.73026 47.2616 2.40226 44.9676 3.59326 43.7926L9.40126 38.0086" stroke="black" stroke-width="2" stroke-miterlimit="10"/>
<path d="M16.4722 48.4067C15.4102 47.7077 14.2622 46.7687 13.1422 45.6497C8.98319 41.5157 8.45219 39.6727 9.40019 38.0087C13.1232 31.4777 21.1922 10.3457 21.1922 10.3457" stroke="black" stroke-width="2" stroke-miterlimit="10"/>
</svg>
