<svg viewBox="0 0 60 60" fill="none" xmlns="http://www.w3.org/2000/svg">
<path d="M51.7535 49.0751L50.8334 48.7062C55.4603 43.5592 58 36.9482 58 30C58 24.3157 56.2815 18.8463 53.1504 14.2485C53.1125 14.1738 53.0654 14.1065 53.0107 14.0478C51.6391 12.0708 50.0062 10.2576 48.1324 8.66367C47.7604 8.34725 47.2025 8.39231 46.8861 8.7643C46.5697 9.13628 46.6147 9.69442 46.9866 10.0107C48.4898 11.2894 49.8278 12.7188 50.9885 14.2656C49.1169 14.9971 46.8703 15.6166 44.3624 16.1061C43.67 14.0433 42.8191 12.12 41.8187 10.3848C40.4705 8.04581 38.9196 6.16237 37.2295 4.77714C39.86 5.5292 42.3659 6.69448 44.6655 8.24794C45.0702 8.52105 45.6197 8.41484 45.8932 8.01016C46.1665 7.60558 46.0601 7.05597 45.6554 6.78253C41.0246 3.65375 35.6109 2 30 2C22.5208 2 15.4895 4.91244 10.2012 10.2012C4.91244 15.4895 2 22.521 2 30C2 36.9571 4.54319 43.5691 9.17763 48.7179L8.26916 49.0737C7.93458 49.1945 5.08962 50.3293 5.08962 53.9467V57.1149C5.08962 57.6034 5.48534 58 5.97381 58H11.0602H11.852H12.7951H17.3191H18.9888C19.0314 58 19.0731 57.996 19.1141 57.99C19.1553 57.996 19.1968 58 19.2395 58H22.8372C23.3257 58 23.7214 57.6043 23.7214 57.1158C23.7214 56.6273 23.3256 56.2316 22.8372 56.2316H20.1237V53.1522C20.1237 49.9033 22.6756 48.9688 22.7786 48.9325C22.7923 48.9279 22.8059 48.923 22.8194 48.9176L27.1253 47.2313C27.1346 47.2413 27.1433 47.2518 27.1532 47.2615L29.4415 49.4903C29.6068 49.6511 29.8283 49.7411 30.0585 49.7411C30.0631 49.7411 30.0678 49.7411 30.0724 49.741C30.3077 49.7374 30.532 49.6399 30.6951 49.4704L32.8923 47.1906L37.1924 48.915C37.208 48.9213 37.2183 48.9253 37.2343 48.9305C37.3429 48.9687 39.8952 49.9035 39.8952 53.1522V56.2316H33.4278H26.5907H25.6007C25.1122 56.2316 24.7165 56.6275 24.7165 57.1158C24.7165 57.6043 25.1124 58 25.6007 58H26.5907H33.4278H40.7795H40.7796H40.7797H41.9078H42.6994H43.6428H48.1665H54.0449C54.5334 58 54.9291 57.5979 54.9291 57.1096V53.9467C54.9293 50.3432 52.1058 49.2032 51.7535 49.0751ZM49.0781 48.0023L48.2065 47.6527V47.1496C49.1697 46.5846 49.9101 45.6798 50.2618 44.6005C51.5482 44.4989 52.5643 43.4218 52.5643 42.1099C52.5643 41.3296 52.2047 40.6322 51.643 40.1731V38.6016C51.643 35.5717 49.3693 33.0645 46.439 32.6924C46.4723 32.0929 46.4954 31.4889 46.5065 30.8842H56.2152C56.0027 37.2845 53.4886 43.33 49.0781 48.0023ZM45.8858 46.0117H45.0794C43.517 46.0117 42.246 44.7407 42.246 43.1785V40.839C43.3978 40.7139 45.438 40.3113 47.0098 38.9986C47.3619 39.6025 47.9067 40.2555 48.7193 40.6369V43.1784C48.7192 44.7407 47.4482 46.0117 45.8858 46.0117ZM46.4382 47.7458V48.236L45.4529 49.2582L44.5272 48.3566V47.7457C44.7084 47.7674 44.8925 47.78 45.0795 47.78H45.886C46.073 47.7801 46.2568 47.7675 46.4382 47.7458ZM41.3646 39.128C41.3636 39.128 41.3626 39.128 41.3617 39.128C41.3312 39.128 41.3011 39.1296 41.2714 39.1326C41.2619 39.1336 41.2526 39.1355 41.2431 39.1369C41.2232 39.1395 41.2033 39.1419 41.1838 39.1459C41.1705 39.1486 41.1577 39.1526 41.1445 39.156C41.1293 39.1598 41.114 39.1631 41.0993 39.1677C41.0896 39.1707 41.0806 39.1747 41.071 39.178V38.6017C41.071 36.291 42.9509 34.4113 45.2615 34.4113H45.6844C47.9949 34.4113 49.8744 36.291 49.8744 38.6017V39.1708C49.8578 39.1654 49.841 39.1613 49.8239 39.157C49.8158 39.1547 49.8077 39.1521 49.7995 39.15C48.5668 38.8697 48.1637 37.2245 48.1607 37.2121C48.0841 36.8732 47.816 36.6107 47.4755 36.5412C47.135 36.4714 46.7856 36.6077 46.5819 36.8892C44.9808 39.1026 41.4114 39.128 41.3646 39.128ZM50.4876 42.7058V41.5142C50.6737 41.6471 50.7958 41.8645 50.7958 42.1101C50.7958 42.3558 50.6737 42.5729 50.4876 42.7058ZM52.0263 15.7537C54.5875 19.7104 56.0541 24.3167 56.215 29.1157H46.5061C46.4344 25.1357 45.8782 21.2969 44.8865 17.801C47.605 17.261 50.0289 16.5709 52.0263 15.7537ZM44.7375 29.1159H35.6877C35.6867 29.1158 35.6859 29.1159 35.685 29.1159C34.4787 27.7824 32.7829 26.9014 30.8842 26.7548V19.1511C35.2232 19.1079 39.4104 18.7471 43.141 18.12C44.1171 21.501 44.665 25.2344 44.7375 29.1159ZM36.9377 38.3491C36.9377 38.8692 36.5863 39.3077 36.1087 39.4426V37.2554C36.5863 37.3905 36.9377 37.8291 36.9377 38.3491ZM30.8842 3.81748C34.4029 4.1933 37.7135 6.80408 40.2866 11.2679C41.1896 12.8343 41.965 14.5648 42.6042 16.4211C39.0392 17.0048 35.0384 17.3408 30.8841 17.3825V3.81748H30.8842ZM30.3234 28.4994C33.3353 28.4994 35.7855 30.9498 35.7855 33.9618V35.0423C35.7796 35.0376 35.7734 35.0334 35.7673 35.0287C35.7545 35.0187 35.7415 35.0088 35.7281 34.9995C35.7177 34.9923 35.707 34.9856 35.6962 34.9789C35.683 34.9704 35.6699 34.9621 35.6561 34.9545C35.6435 34.9474 35.6305 34.9411 35.6176 34.9347C35.6052 34.9285 35.593 34.9223 35.5803 34.9166C35.5648 34.9097 35.5487 34.904 35.5328 34.898C35.5218 34.8939 35.5109 34.8896 35.4997 34.8859C35.4819 34.88 35.4635 34.8753 35.4452 34.8706C35.4371 34.8683 35.4292 34.8655 35.4208 34.8636C33.7412 34.4816 33.2091 32.2916 33.2046 32.2726C33.1279 31.9338 32.8598 31.6713 32.5193 31.6017C32.179 31.5317 31.8294 31.6682 31.6258 31.9497C29.5552 34.8123 24.9812 34.8416 24.9208 34.8416C24.9207 34.8416 24.9206 34.8416 24.9206 34.8416C24.9194 34.8416 24.9185 34.8416 24.9175 34.8416C24.887 34.8416 24.8569 34.8431 24.8272 34.8461C24.8179 34.8472 24.809 34.849 24.7997 34.8503C24.7796 34.8531 24.7593 34.8555 24.7396 34.8594C24.727 34.862 24.7148 34.866 24.7022 34.869C24.6865 34.873 24.6704 34.8765 24.6551 34.8812C24.6407 34.8857 24.627 34.8915 24.613 34.8966C24.6002 34.9013 24.5868 34.9055 24.5741 34.9107C24.5579 34.9176 24.5425 34.9257 24.5271 34.9333C24.517 34.9382 24.5069 34.9424 24.497 34.9478C24.481 34.9563 24.4662 34.9662 24.4509 34.9756C24.4421 34.9812 24.4329 34.9861 24.4242 34.9919C24.41 35.0015 24.3965 35.0122 24.3827 35.0227C24.3739 35.0294 24.3647 35.0355 24.356 35.0426C24.3479 35.0493 24.3404 35.0568 24.3324 35.0638V33.9617C24.3324 30.9497 26.7826 28.4994 29.7945 28.4994H30.3234ZM15.2625 29.1158C15.335 25.2337 15.8831 21.4995 16.8595 18.1182C20.5953 18.7461 24.787 19.1077 29.1158 19.1512V26.7639C27.2622 26.9375 25.6099 27.8127 24.4281 29.1217C24.396 29.1182 24.3632 29.1159 24.3301 29.1159H15.2625V29.1158ZM24.0333 37.2463V39.452C23.5375 39.3294 23.1685 38.8822 23.1685 38.3491C23.1684 37.8162 23.5375 37.369 24.0333 37.2463ZM29.1158 3.81748V17.3825C24.9714 17.3405 20.9674 17.0032 17.3967 16.4184C18.0358 14.5631 18.8108 12.8337 19.7134 11.2679C22.2865 6.80408 25.5971 4.1933 29.1158 3.81748ZM22.7608 4.78491C21.0745 6.16959 19.5269 8.05008 18.1812 10.3847C17.1811 12.1195 16.3305 14.0419 15.6383 16.1041C13.1335 15.6153 10.8905 14.9972 9.02242 14.2686C12.4089 9.76398 17.2105 6.38091 22.7608 4.78491ZM7.98172 15.7578C9.97409 16.572 12.3984 17.2595 15.1143 17.7989C14.1219 21.2953 13.5658 25.1349 13.4938 29.1158H3.785C3.94852 24.2042 5.46828 19.6305 7.98172 15.7578ZM13.6794 47.7459C13.8606 47.7676 14.0447 47.7801 14.2317 47.7801H15.0383C15.2251 47.7801 15.4092 47.7676 15.5903 47.7458V48.2359L14.6053 49.2581L13.6794 48.3565V47.7459ZM15.0383 46.0117H14.2317C12.6693 46.0117 11.3983 44.7407 11.3983 43.1784V40.8399C12.5499 40.7154 14.5893 40.3121 16.1621 38.9986C16.5143 39.6026 17.059 40.2558 17.8715 40.6372V43.1785C17.8714 44.7407 16.6005 46.0117 15.0383 46.0117ZM17.3134 37.212C17.2367 36.8731 16.9686 36.6106 16.6281 36.5411C16.2877 36.4713 15.9381 36.6076 15.7347 36.8891C14.1323 39.1038 10.5601 39.1281 10.517 39.1281C10.5159 39.1281 10.5151 39.1281 10.5141 39.1281C10.4837 39.1281 10.4535 39.1296 10.4238 39.1326C10.4145 39.1337 10.4056 39.1355 10.3963 39.1369C10.3763 39.1395 10.3559 39.142 10.3362 39.1459C10.3237 39.1486 10.3114 39.1525 10.2988 39.1556C10.2831 39.1595 10.2671 39.163 10.2517 39.1677C10.2422 39.1707 10.2332 39.1747 10.2238 39.178V38.6017C10.2238 36.291 12.1035 34.4112 14.4142 34.4112H14.8371C17.1477 34.4112 19.0272 36.291 19.0272 38.6017V39.1709H19.027C19.01 39.1653 18.9924 39.1611 18.9751 39.1567C18.9673 39.1547 18.9598 39.152 18.9519 39.1501C17.7195 38.8698 17.3163 37.2243 17.3134 37.212ZM3.78489 30.8842H13.4936C13.5046 31.4932 13.5281 32.1014 13.5617 32.7047C10.6785 33.1194 8.45509 35.6053 8.45509 38.6016V40.1662C7.88798 40.6251 7.52431 41.3256 7.52431 42.1099C7.52431 43.4316 8.55605 44.5143 9.85619 44.602C10.2079 45.6807 10.948 46.5847 11.9109 47.1496V47.6475L10.945 48.0258C6.51959 43.3499 3.99752 37.2983 3.78489 30.8842ZM9.62967 41.4945V42.7252C9.42733 42.5949 9.29269 42.368 9.29269 42.1101C9.29269 41.852 9.42733 41.6251 9.62967 41.4945ZM18.3551 53.1523V56.2316H17.3188H12.795H11.8518H11.0602H6.85811V53.9467C6.85811 51.4815 8.7853 50.767 8.86022 50.7405C8.87389 50.7359 8.88756 50.7309 8.90102 50.7256L12.236 49.4195L14.0081 51.1455C14.1732 51.3064 14.3946 51.3963 14.6249 51.3963C14.6295 51.3963 14.6342 51.3963 14.6389 51.3962C14.8742 51.3925 15.0984 51.2951 15.2615 51.1256L16.9354 49.3885L19.0044 50.2181C18.6121 51.021 18.3551 51.9935 18.3551 53.1523ZM26.8861 45.4258L22.193 47.2636C21.5954 47.4693 20.7683 47.9436 20.0346 48.7259L17.3585 47.6527V47.1498C18.322 46.5848 19.0623 45.6799 19.414 44.6005C20.7005 44.4989 21.7167 43.4218 21.7167 42.1099C21.7167 41.3296 21.357 40.6322 20.7953 40.1731V38.6016C20.7953 35.4823 18.3858 32.9169 15.3306 32.6648C15.2969 32.075 15.2736 31.48 15.2624 30.8841H23.2533C22.8119 31.8185 22.5638 32.8614 22.5638 33.9616V36.0248C21.8576 36.5554 21.3998 37.3997 21.3998 38.3491C21.3998 39.9362 22.6792 41.2294 24.2608 41.2537C24.6757 42.6552 25.6316 43.8262 26.8859 44.5239V45.4258H26.8861ZM19.6399 42.7059V41.5139C19.8262 41.6469 19.9483 41.8642 19.9483 42.11C19.9483 42.3558 19.8262 42.573 19.6399 42.7059ZM31.4876 46.0429C31.4876 46.0441 31.4876 46.0453 31.4876 46.0462V46.0998L30.0388 47.6031L28.6545 46.2548V45.1422C28.9514 45.1917 29.2559 45.2188 29.5669 45.2188H30.5755C30.8863 45.2188 31.1907 45.1917 31.4876 45.1424V46.0429ZM30.5755 43.4505H29.5669C27.4907 43.4505 25.8016 41.7615 25.8016 39.6854V36.5636C27.2128 36.4337 30.0032 35.9431 32.0414 34.1134C32.4715 34.9275 33.1927 35.8726 34.3404 36.3628V39.6853C34.3403 41.7615 32.6515 43.4505 30.5755 43.4505ZM39.9897 48.7319C39.2561 47.9477 38.428 47.4717 37.8291 47.265L33.2559 45.4308V44.5239C34.5105 43.8261 35.4661 42.6548 35.881 41.2528C37.4458 41.2095 38.7058 39.924 38.7058 38.3493C38.7058 37.4052 38.253 36.5652 37.5537 36.0341V33.9617C37.5537 32.8616 37.3057 31.8186 36.8642 30.8842H44.7373C44.7258 31.4825 44.7024 32.0799 44.6683 32.6726C41.6598 32.9711 39.3023 35.5161 39.3023 38.6016V40.1664C38.7353 40.6252 38.3718 41.3257 38.3718 42.11C38.3718 43.4318 39.4035 44.5145 40.7037 44.6021C41.0554 45.6808 41.7955 46.5849 42.7585 47.1497V47.6477L39.9897 48.7319ZM40.4776 41.4945V42.7252C40.2751 42.5949 40.1406 42.368 40.1406 42.1101C40.1406 41.852 40.2752 41.625 40.4776 41.4945ZM53.1609 56.2316H48.1668H43.643H42.6996H41.908H41.6639V53.1522C41.6639 51.998 41.4091 51.0289 41.0193 50.2279L43.0839 49.4194L44.8558 51.1454C45.0209 51.3063 45.2423 51.3963 45.4727 51.3963C45.4773 51.3963 45.482 51.3963 45.4866 51.3962C45.7219 51.3925 45.9461 51.2951 46.1093 51.1256L47.7833 49.3885L51.1111 50.7228C51.1267 50.7292 51.1353 50.7325 51.1514 50.7379C51.2334 50.767 53.161 51.4816 53.161 53.9468V56.2316H53.1609Z" fill="black"/>
</svg>
