<svg viewBox="0 0 60 60" fill="none" xmlns="http://www.w3.org/2000/svg">
<path d="M16.9922 34.0977H43.555" stroke="black" stroke-width="2" stroke-miterlimit="10"/>
<path d="M43.555 13.1243V4.21357C43.555 2.99057 42.5645 2 41.3415 2H19.2058C17.9828 2 16.9922 2.99057 16.9922 4.21357V13.1232" stroke="black" stroke-width="2" stroke-miterlimit="10"/>
<path d="M31.6498 58.0001L32.3747 55.8264C32.4478 55.6061 32.4876 55.3704 32.4876 55.1258C32.4876 54.1606 31.8722 53.3405 31.0112 53.0384L12.2456 46.4154C12.001 46.3224 11.7354 46.2715 11.4587 46.2715C10.4814 46.2715 9.65132 46.9057 9.35803 47.7845L8 51.6328" stroke="black" stroke-width="2" stroke-miterlimit="10"/>
<path d="M29.1758 52.3909C32.6533 46.2737 35.3871 48.8548 37.5707 42.9512" stroke="black" stroke-width="2" stroke-miterlimit="10"/>
<path d="M42.3138 21.4609L42.15 21.6247C41.6497 22.1249 41.3398 22.8178 41.3398 23.5815C41.3398 25.1099 42.5783 26.3484 44.1068 26.3484C44.8705 26.3484 45.5622 26.0385 46.0636 25.5383L49.384 22.2179C49.8842 21.7176 50.1941 21.0259 50.1941 20.2611C50.1941 18.7326 48.9556 17.4941 47.4272 17.4941C46.8627 17.4941 46.3049 17.6048 45.7792 18.0752" stroke="black" stroke-width="2" stroke-miterlimit="10"/>
<path d="M42.7433 21.1125L46.0636 17.7921C46.5639 17.2919 46.8738 16.6001 46.8738 15.8353C46.8738 14.3069 45.6353 13.0684 44.1068 13.0684C43.3432 13.0684 42.6514 13.3783 42.1501 13.8785L38.8297 17.1989C38.3294 17.6991 38.0195 18.392 38.0195 19.1557C38.0195 20.6841 39.258 21.9226 40.7865 21.9226C41.5502 21.9226 42.2419 21.6127 42.7433 21.1125Z" stroke="black" stroke-width="2" stroke-miterlimit="10"/>
<path d="M45.8595 25.723L43.2574 28.2664C42.7572 28.7656 42.4473 29.4584 42.4473 30.2221C42.4473 31.7506 43.6858 32.989 45.2142 32.989C45.9779 32.989 46.6697 32.6791 47.171 32.1789L50.4914 28.8585C50.9916 28.3583 51.3015 27.6665 51.3015 26.9017C51.3015 25.3733 50.0631 24.1348 48.5346 24.1348C47.9701 24.1348 47.3857 24.2742 46.8301 24.7712" stroke="black" stroke-width="2" stroke-miterlimit="10"/>
<path d="M13.5451 46.8751L9.49981 30.6928C9.33047 30.0132 9.24414 29.316 9.24414 28.6165C9.24414 27.5827 9.43119 26.5579 9.79643 25.5905C9.79643 25.5905 12.8689 17.6626 13.803 14.9875C14.1893 13.883 15.2053 13.0684 16.4382 13.0684C17.9667 13.0684 19.2052 14.3069 19.2052 15.8353C19.2052 17.4534 18.3574 21.3692 16.9916 24.1362V40.738C16.9916 41.961 17.9822 42.9516 19.2052 42.9516H41.3409C42.5639 42.9516 43.5545 41.961 43.5545 40.738V32.4316" stroke="black" stroke-width="2" stroke-miterlimit="10"/>
<path d="M43.5547 12.6008L49.3841 6.72376C49.8855 6.22349 50.1954 5.53175 50.1954 4.76696C50.1954 3.23849 48.9569 2 47.4284 2C46.6648 2 45.973 2.3099 45.4716 2.81017L43.5547 4.72712" stroke="black" stroke-width="2" stroke-miterlimit="10"/>
<path d="M23.6387 27V30.7767" stroke="black" stroke-width="2" stroke-miterlimit="10"/>
<path d="M28.0664 26V30.7761" stroke="black" stroke-width="2" stroke-miterlimit="10"/>
<path d="M32.4922 24.1348V30.7755" stroke="black" stroke-width="2" stroke-miterlimit="10"/>
<path d="M23.6328 16.3881V16.9415C23.6328 18.47 24.8713 19.7085 26.3998 19.7085H29.7201C31.2486 19.7085 32.4871 18.47 32.4871 16.9415C32.4871 15.413 31.2486 14.1746 29.7201 14.1746H26.3998C24.8713 14.1746 23.6328 12.9361 23.6328 11.4076C23.6328 9.87912 24.8713 8.64062 26.3998 8.64062H29.7201C31.2486 8.64062 32.4871 9.87912 32.4871 11.4076V11.961" stroke="black" stroke-width="2" stroke-miterlimit="10"/>
<path d="M28.0605 19.709V23.0293" stroke="black" stroke-width="2" stroke-miterlimit="10"/>
<path d="M28.0605 8.64067V5.32031" stroke="black" stroke-width="2" stroke-miterlimit="10"/>
</svg>
