<svg viewBox="0 0 60 60" fill="none" xmlns="http://www.w3.org/2000/svg">
<path d="M56.2242 30C56.2242 28.1724 58.3038 26.1655 57.9621 24.4382C57.61 22.6585 54.9135 21.5988 54.2345 19.9613C53.5436 18.2955 54.6936 15.6414 53.7022 14.1608C52.7033 12.6687 49.8078 12.721 48.5427 11.456C47.2778 10.1911 47.3299 7.29572 45.8379 6.29687C44.3571 5.30571 41.7034 6.45573 40.0376 5.7651C38.4005 5.08621 37.341 2.38992 35.5614 2.03783C33.8342 1.69622 31.8274 3.77579 30.0001 3.77579C28.1726 3.77579 26.1655 1.69622 24.4383 2.03783C22.6586 2.39006 21.5989 5.08649 19.9614 5.76552C18.2956 6.45629 15.6416 5.30641 14.1608 6.29771C12.6688 7.2967 12.7211 10.1921 11.4561 11.4572C10.1912 12.7222 7.29569 12.6701 6.29684 14.1622C5.30568 15.6428 6.45584 18.2964 5.76521 19.9623C5.08618 21.5995 2.38989 22.659 2.03794 24.4385C1.69619 26.1657 3.77576 28.1726 3.77576 30C3.77576 31.8275 1.69619 33.8344 2.03794 35.5617C2.39003 37.3415 5.08646 38.4011 5.76549 40.0386C6.4564 41.7043 5.30637 44.3585 6.29782 45.8391C7.2968 47.3312 10.1922 47.2788 11.4573 48.544C12.7223 49.8088 12.6701 52.7042 14.1623 53.7031C15.6429 54.6942 18.2966 53.5442 19.9623 54.2348C21.5996 54.9137 22.6591 57.61 24.4386 57.9621C26.1658 58.3037 28.1727 56.2241 30.0001 56.2241C31.8276 56.2241 33.8345 58.3037 35.5617 57.962C37.3416 57.6099 38.4012 54.9134 40.0386 54.2344C41.7046 53.5436 44.3585 54.6935 45.8392 53.7022C47.3313 52.7032 47.2789 49.8078 48.5439 48.5427C49.8089 47.2775 52.7043 47.3298 53.7032 45.8377C54.6943 44.3571 53.5442 41.7035 54.2349 40.0376C54.9138 38.4004 57.6101 37.3409 57.9621 35.5615C58.3038 33.8341 56.2242 31.8273 56.2242 30Z" stroke="black" stroke-width="1.93859" stroke-miterlimit="10" stroke-linecap="round" stroke-linejoin="round"/>
<path d="M26.375 34.5156L29.0994 27.363C29.155 27.2269 29.3478 27.2267 29.4037 27.3627L32.1034 34.5156" stroke="black" stroke-width="2" stroke-miterlimit="10" stroke-linecap="round" stroke-linejoin="round"/>
<path d="M27.2246 32.7344H31.2674" stroke="black" stroke-width="2" stroke-miterlimit="10" stroke-linecap="round" stroke-linejoin="round"/>
<path d="M35.418 34.5156V27.2744L40.3142 34.3637C40.4049 34.4949 40.5021 34.4307 40.5021 34.2712L40.4343 27.2607" stroke="black" stroke-width="2" stroke-miterlimit="10" stroke-linecap="round" stroke-linejoin="round"/>
<path d="M44.2871 27.3743V34.293" stroke="black" stroke-width="2" stroke-miterlimit="10" stroke-linecap="round" stroke-linejoin="round"/>
<path d="M49.1246 30.89C49.1246 32.83 48.0478 34.3649 46.3396 34.3946C45.771 34.4046 44.3014 34.4102 44.3014 34.4102C44.3014 34.4102 44.2921 31.8601 44.2921 30.8823C44.2921 30.0792 44.2871 27.3699 44.2871 27.3699H46.2813C48.155 27.3699 49.1246 28.9503 49.1246 30.89Z" stroke="black" stroke-width="2" stroke-miterlimit="10" stroke-linecap="round" stroke-linejoin="round"/>
<path d="M14.9021 28.9306C14.9021 29.8525 14.1545 30.6 13.2326 30.6C12.7752 30.6 11.125 30.6074 11.125 30.6074V28.9306V27.2612H13.2326C14.1545 27.2612 14.9021 28.0087 14.9021 28.9306Z" stroke="black" stroke-width="2" stroke-miterlimit="10" stroke-linecap="round" stroke-linejoin="round"/>
<path d="M15.5535 32.5541C15.5535 33.6326 14.6792 34.507 13.6006 34.507C13.0656 34.507 11.125 34.5156 11.125 34.5156V32.5541V30.6014H13.6006C14.6792 30.6014 15.5535 31.4758 15.5535 32.5541Z" stroke="black" stroke-width="2" stroke-miterlimit="10" stroke-linecap="round" stroke-linejoin="round"/>
<path d="M19.9844 31.0532L23.0321 34.5156" stroke="black" stroke-width="2" stroke-miterlimit="10" stroke-linecap="round" stroke-linejoin="round"/>
<path d="M19.1133 27.2607V34.5156" stroke="black" stroke-width="2" stroke-miterlimit="10" stroke-linecap="round" stroke-linejoin="round"/>
<path d="M23.0337 29.1434C23.0337 30.1846 22.1206 31.0288 21.0414 31.0288C20.5062 31.0288 19.1267 31.0371 19.1267 31.0371C19.1267 31.0371 19.1181 29.6681 19.1181 29.1434C19.1181 28.7122 19.1133 27.2578 19.1133 27.2578H21.0414C22.1206 27.2578 23.0337 28.102 23.0337 29.1434Z" stroke="black" stroke-width="2" stroke-miterlimit="10" stroke-linecap="round" stroke-linejoin="round"/>
<path d="M20.9793 15.0091C21.0521 15.1566 21.1929 15.2589 21.3558 15.2826L22.1349 15.3957C22.1349 15.3957 22.1349 15.3957 22.1349 15.3957C22.2302 15.4096 22.2682 15.5267 22.1993 15.5939C22.1993 15.5939 22.1993 15.5939 22.1993 15.5939L21.6355 16.1434C21.5177 16.2583 21.4639 16.4238 21.4917 16.586L21.6248 17.362L21.6248 17.362C21.6411 17.4569 21.5415 17.5293 21.4562 17.4845L21.4562 17.4845L20.7594 17.1181C20.6137 17.0415 20.4397 17.0415 20.294 17.1181L19.5972 17.4845L19.5972 17.4845C19.5119 17.5293 19.4123 17.4569 19.4286 17.362L19.4286 17.362L19.5617 16.586C19.5895 16.4238 19.5357 16.2583 19.4179 16.1434L18.8541 15.5939C18.8541 15.5939 18.8541 15.5939 18.8541 15.5939C18.7851 15.5266 18.8233 15.4096 18.9184 15.3958L18.9185 15.3957L19.6976 15.2826C19.8605 15.2589 20.0012 15.1566 20.0741 15.0091L20.4225 14.3031L20.4226 14.303C20.465 14.2169 20.5881 14.2165 20.6309 14.3031C20.6309 14.3031 20.6309 14.3031 20.6309 14.3032L20.9793 15.0091Z" stroke="black" stroke-miterlimit="10" stroke-linecap="round" stroke-linejoin="round"/>
<path d="M37.3187 15.2826C37.4815 15.2589 37.6223 15.1566 37.6952 15.0091L38.0436 14.3032C38.0436 14.3031 38.0436 14.3031 38.0436 14.3031C38.0864 14.2165 38.2095 14.2169 38.2519 14.303L38.252 14.3031L38.6004 15.0091C38.6732 15.1566 38.814 15.2589 38.9769 15.2826L39.756 15.3957L39.7561 15.3958C39.8511 15.4096 39.8894 15.5266 39.8204 15.5939C39.8204 15.5939 39.8204 15.5939 39.8204 15.5939L39.2566 16.1434C39.1388 16.2583 39.085 16.4238 39.1128 16.586L39.2459 17.362L39.2459 17.362C39.2622 17.4569 39.1626 17.5293 39.0773 17.4845L39.0773 17.4845L38.3805 17.1181C38.2348 17.0415 38.0608 17.0415 37.9151 17.1181L37.2183 17.4845L37.2183 17.4845C37.133 17.5293 37.0334 17.4569 37.0497 17.362L37.0497 17.362L37.1828 16.586C37.2106 16.4238 37.1568 16.2583 37.039 16.1434L36.4752 15.5939C36.4752 15.5939 36.4752 15.5939 36.4752 15.5939C36.4063 15.5267 36.4443 15.4096 36.5396 15.3957C36.5396 15.3957 36.5396 15.3957 36.5396 15.3957L37.3187 15.2826Z" stroke="black" stroke-miterlimit="10" stroke-linecap="round" stroke-linejoin="round"/>
<path d="M29.0209 11.7326L29.021 11.7326C29.1508 11.4694 29.5263 11.4693 29.6563 11.7326C29.6563 11.7326 29.6563 11.7327 29.6564 11.7327L30.1393 12.7112C30.2121 12.8588 30.3529 12.9611 30.5158 12.9848L31.5957 13.1417C31.5957 13.1417 31.5957 13.1417 31.5957 13.1417C31.8863 13.184 32.0022 13.5411 31.7921 13.746C31.7921 13.746 31.7921 13.746 31.792 13.746L31.0106 14.5077C30.8927 14.6225 30.8389 14.788 30.8667 14.9502L31.0512 16.0259L31.0512 16.0259C31.1008 16.3154 30.797 16.536 30.5372 16.3994L30.5372 16.3994L29.5713 15.8916C29.4256 15.815 29.2516 15.815 29.1059 15.8916L28.14 16.3994L28.14 16.3994C27.8802 16.536 27.5764 16.3153 27.626 16.0259C27.626 16.0259 27.626 16.0259 27.626 16.0259L27.8105 14.9503C27.8384 14.7881 27.7846 14.6226 27.6667 14.5077L26.8853 13.746C26.675 13.541 26.791 13.184 27.0816 13.1417C27.0816 13.1417 27.0816 13.1417 27.0816 13.1417L28.1615 12.9848C28.3244 12.9611 28.4651 12.8588 28.538 12.7112L29.0209 11.7326Z" stroke="black" stroke-miterlimit="10" stroke-linecap="round" stroke-linejoin="round"/>
</svg>
