<svg viewBox="0 0 61 60" fill="none" xmlns="http://www.w3.org/2000/svg">
<g clip-path="url(#clip0_56684_321232)">
<path d="M51.076 54.4277H46.7159C46.0713 54.4277 45.5488 53.9051 45.5488 53.2607V50.6145H52.2431V53.2607C52.2431 53.9051 51.7205 54.4277 51.076 54.4277Z" stroke="black" stroke-width="1.99174" stroke-miterlimit="10" stroke-linecap="round"/>
<path d="M28.959 19.6053L31.622 23.5228C32.1482 24.2969 32.4295 25.2111 32.4295 26.1471V29.0498C32.4295 29.6943 32.9521 30.2168 33.5965 30.2168H38.851" stroke="black" stroke-width="1.99174" stroke-miterlimit="10" stroke-linecap="round" stroke-linejoin="round"/>
<path d="M36.2617 20.6068L41.7009 38.6547C42.3112 40.4605 42.6226 42.3541 42.6226 44.2603V48.2812C42.6226 49.5703 43.6676 50.6152 44.9567 50.6152H52.9598C54.249 50.6152 55.294 49.5703 55.294 48.2812V44.2603C55.294 42.3541 54.9826 40.4605 54.3721 38.6547L51.1777 29.2049" stroke="black" stroke-width="1.99174" stroke-miterlimit="10" stroke-linecap="square" stroke-linejoin="round"/>
<path d="M49.8711 25.332L48.5 20.5" stroke="black" stroke-width="1.99174" stroke-miterlimit="10" stroke-linecap="square" stroke-linejoin="round"/>
<path d="M29.8856 0.996878H14.5413C12.8931 0.996878 11.7642 2.65893 12.3717 4.1911L17.8993 18.1335C18.252 19.0232 19.1121 19.6074 20.0692 19.6074H50.1931C53.4891 19.6074 56.5392 17.8638 58.2116 15.0238C59.9275 12.11 59.9276 8.49433 58.2117 5.58031C56.5393 2.74027 53.4891 0.996878 50.1931 0.996878H34.6812" stroke="black" stroke-width="1.99174" stroke-miterlimit="10" stroke-linecap="square" stroke-linejoin="round"/>
<path d="M19.5879 0.996878L26.9663 19.6074" stroke="black" stroke-width="1.99174" stroke-miterlimit="10" stroke-linecap="round" stroke-linejoin="round"/>
<path d="M5.21289 43.5763V39.5061C5.21289 38.8615 5.73538 38.3391 6.37995 38.3391H30.6143C31.2589 38.3391 31.7814 38.8615 31.7814 39.5061V54.2549C31.7814 54.8994 31.2589 55.4219 30.6143 55.4219H6.37995C5.73538 55.4219 5.21289 54.8994 5.21289 54.2549V48.1408" stroke="black" stroke-width="1.99174" stroke-miterlimit="10" stroke-linecap="square" stroke-linejoin="round"/>
<path d="M9.83594 42.6949V51.0703" stroke="black" stroke-width="1.99174" stroke-miterlimit="10" stroke-linecap="square" stroke-linejoin="round"/>
<path d="M14.166 46.8826V51.0703" stroke="black" stroke-width="1.99174" stroke-miterlimit="10" stroke-linecap="square" stroke-linejoin="round"/>
<path d="M27.1621 42.693V51.0684" stroke="black" stroke-width="1.99174" stroke-miterlimit="10" stroke-linecap="square" stroke-linejoin="round"/>
<path d="M6.56166 34.7695H2.65925C2.0148 34.7695 1.49219 35.2921 1.49219 35.9365V39.6738" stroke="black" stroke-width="1.99174" stroke-miterlimit="10" stroke-linecap="square" stroke-linejoin="round"/>
<path d="M6.56166 58.9941H2.65925C2.0148 58.9941 1.49219 58.4716 1.49219 57.8271V54.0898" stroke="black" stroke-width="1.99174" stroke-miterlimit="10" stroke-linecap="square" stroke-linejoin="round"/>
<path d="M30.4336 34.7695H34.336C34.9805 34.7695 35.5031 35.2921 35.5031 35.9365V39.6738" stroke="black" stroke-width="1.99174" stroke-miterlimit="10" stroke-linecap="square" stroke-linejoin="round"/>
<path d="M30.4336 58.9941H34.336C34.9805 58.9941 35.5031 58.4716 35.5031 57.8271V54.0898" stroke="black" stroke-width="1.99174" stroke-miterlimit="10" stroke-linecap="square" stroke-linejoin="round"/>
<path d="M14.166 42.6908V43.5742" stroke="black" stroke-width="1.99174" stroke-miterlimit="10" stroke-linecap="square" stroke-linejoin="round"/>
<path d="M18.5 46.8826V51.0703" stroke="black" stroke-width="1.99174" stroke-miterlimit="10" stroke-linecap="square" stroke-linejoin="round"/>
<path d="M18.5 42.6908V43.5742" stroke="black" stroke-width="1.99174" stroke-miterlimit="10" stroke-linecap="square" stroke-linejoin="round"/>
<path d="M22.832 46.8826V51.0703" stroke="black" stroke-width="1.99174" stroke-miterlimit="10" stroke-linecap="square" stroke-linejoin="round"/>
<path d="M22.832 42.6908V43.5742" stroke="black" stroke-width="1.99174" stroke-miterlimit="10" stroke-linecap="square" stroke-linejoin="round"/>
</g>
<defs>
<clipPath id="clip0_56684_321232">
<rect width="60" height="60" fill="white" transform="translate(0.5)"/>
</clipPath>
</defs>
</svg>
