<svg viewBox="0 0 61 60" fill="none" xmlns="http://www.w3.org/2000/svg">
<g clip-path="url(#clip0_56693_321397)">
<path d="M39.7653 37.6035L34.5 40.5" stroke="black" stroke-width="2" stroke-miterlimit="10" stroke-linecap="square" stroke-linejoin="round"/>
<path d="M50.3193 35.6989L49.9656 35.0862C49.1599 33.6908 47.3757 33.2127 45.9802 34.0183L43.3418 35.5416" stroke="black" stroke-width="2" stroke-miterlimit="10" stroke-linecap="square" stroke-linejoin="round"/>
<path d="M56.0072 38.2998L54.9175 36.4124C54.1118 35.017 52.3276 34.5388 50.9321 35.3444L37.7324 42.9655" stroke="black" stroke-width="2" stroke-miterlimit="10" stroke-linecap="round" stroke-linejoin="round"/>
<path d="M31.0356 35.4395H25.3633" stroke="black" stroke-width="2" stroke-miterlimit="10" stroke-linecap="square" stroke-linejoin="round"/>
<path d="M25.3643 30H23.0587C19.9636 30 16.9952 31.2296 14.8066 33.4181L7.14453 41.0803" stroke="black" stroke-width="2" stroke-miterlimit="10" stroke-linecap="square" stroke-linejoin="round"/>
<path d="M15.3395 49.4601C15.0032 49.8982 15.0859 50.526 15.5241 50.8622C15.9622 51.1984 16.59 51.1158 16.9262 50.6776L15.3395 49.4601ZM17.9507 47.6998L18.744 48.3085L18.744 48.3085L17.9507 47.6998ZM24.0902 45.6157L24.349 44.6498L24.349 44.6498L24.0902 45.6157ZM35.5642 48.6902L35.3054 49.6562L35.3054 49.6562L35.5642 48.6902ZM37.6786 48.6902L37.9373 49.6562L37.9374 49.6562L37.6786 48.6902ZM58.6372 43.0739L58.3784 42.108L58.3783 42.108L58.6372 43.0739ZM59.4624 41.6448L58.4964 41.9035L58.4964 41.9036L59.4624 41.6448ZM59.141 40.4449L58.175 40.7036L58.175 40.7036L59.141 40.4449ZM55.5676 38.3816L55.3091 37.4156L55.3088 37.4156L55.5676 38.3816ZM38.9692 42.8294L38.7103 41.8635L38.7103 41.8635L38.9692 42.8294ZM28.6899 35.4383V34.4383C28.2855 34.4383 27.9208 34.682 27.766 35.0556C27.6113 35.4293 27.6968 35.8594 27.9828 36.1454L28.6899 35.4383ZM36.4111 34.6424L37.1173 35.3504L37.119 35.3487L36.4111 34.6424ZM37.2067 32.6819L38.2066 32.6685V32.6685L37.2067 32.6819ZM29.4485 29H28.4485V31H29.4485V29ZM16.9262 50.6776L18.744 48.3085L17.1573 47.091L15.3395 49.4601L16.9262 50.6776ZM18.744 48.3085C19.9345 46.7571 21.9424 46.0755 23.8313 46.5816L24.349 44.6498C21.6787 43.9343 18.8402 44.8978 17.1573 47.091L18.744 48.3085ZM23.8313 46.5816L35.3054 49.6562L35.823 47.7243L24.349 44.6498L23.8313 46.5816ZM35.3054 49.6562C36.1675 49.8871 37.0752 49.8871 37.9373 49.6562L37.4198 47.7243C36.8967 47.8644 36.346 47.8644 35.823 47.7243L35.3054 49.6562ZM37.9374 49.6562L58.896 44.0398L58.3783 42.108L37.4197 47.7243L37.9374 49.6562ZM58.896 44.0399C60.0519 43.7302 60.738 42.542 60.4283 41.386L58.4964 41.9036C58.5203 41.9926 58.4674 42.0841 58.3784 42.108L58.896 44.0399ZM60.4283 41.3861L60.1069 40.1861L58.175 40.7036L58.4964 41.9035L60.4283 41.3861ZM60.1069 40.1862C59.5474 38.0969 57.3991 36.8562 55.3091 37.4156L55.8261 39.3476C56.8497 39.0736 57.9013 39.6815 58.175 40.7036L60.1069 40.1862ZM55.3088 37.4156L38.7103 41.8635L39.228 43.7954L55.8264 39.3475L55.3088 37.4156ZM38.7103 41.8635C37.6459 42.1488 36.5101 41.8444 35.7308 41.0651L34.3166 42.4793C35.6011 43.7638 37.4733 44.2656 39.228 43.7953L38.7103 41.8635ZM35.7308 41.0651L29.397 34.7312L27.9828 36.1454L34.3166 42.4793L35.7308 41.0651ZM28.6899 36.4383H34.4878V34.4383H28.6899V36.4383ZM34.4878 36.4383C35.5142 36.4383 36.4454 36.0207 37.1173 35.3504L35.7048 33.9345C35.3917 34.2468 34.9623 34.4383 34.4878 34.4383V36.4383ZM37.119 35.3487C37.8003 34.6658 38.2207 33.7161 38.2066 32.6685L36.2068 32.6953C36.2133 33.1805 36.0208 33.6178 35.7031 33.9361L37.119 35.3487ZM38.2066 32.6685C38.1789 30.5953 36.4418 29 34.4266 29V31C35.4064 31 36.1945 31.774 36.2068 32.6953L38.2066 32.6685ZM34.4266 29H29.4485V31H34.4266V29Z" fill="black"/>
<path d="M11.2102 45.1461L7.1442 41.0801L1.6728 46.5516C1.56334 46.661 1.50195 46.8093 1.50195 46.9642V58.4169C1.50195 58.7391 1.76313 59.0004 2.08546 59.0004L11.9635 59.001C12.1449 59.001 12.316 58.9166 12.4264 58.7727L17.503 52.1567C17.6812 51.9243 17.6597 51.5959 17.4527 51.3889L14.1897 48.1258" stroke="black" stroke-width="2" stroke-miterlimit="10" stroke-linecap="square" stroke-linejoin="round"/>
<path d="M39.197 1.60962L41.4984 6.25776C41.7751 6.81653 42.306 7.20585 42.9221 7.30178L48.1615 8.11753C49.0627 8.25781 49.4082 9.3736 48.7438 9.99866L44.9948 13.5253C44.5247 13.9675 44.3085 14.6166 44.4196 15.2524L45.3377 20.5068C45.496 21.4132 44.5343 22.0995 43.7287 21.655L39.1414 19.1238C38.5647 18.8056 37.8651 18.8056 37.2883 19.1238L32.7011 21.655C31.8954 22.0995 30.9336 21.4133 31.0921 20.5068L32.0102 15.2524C32.1213 14.6166 31.9052 13.9675 31.435 13.5253L27.686 9.99866C27.0216 9.3736 27.3669 8.25781 28.2683 8.11753L33.5077 7.30178C34.1238 7.20585 34.6548 6.81653 34.9313 6.25776L37.2328 1.60962C37.6353 0.796792 38.7946 0.796792 39.197 1.60962Z" stroke="black" stroke-width="2" stroke-miterlimit="10" stroke-linecap="round" stroke-linejoin="round"/>
<path d="M19.627 13.7012H22.1968" stroke="black" stroke-width="2" stroke-miterlimit="10" stroke-linecap="square" stroke-linejoin="round"/>
<path d="M21.8965 20.9373L23.7127 19.1211" stroke="black" stroke-width="2" stroke-miterlimit="10" stroke-linecap="square" stroke-linejoin="round"/>
<path d="M21.8848 6.4375L23.7019 8.25467" stroke="black" stroke-width="2" stroke-miterlimit="10" stroke-linecap="square" stroke-linejoin="round"/>
<path d="M56.8003 13.7012H54.2305" stroke="black" stroke-width="2" stroke-miterlimit="10" stroke-linecap="square" stroke-linejoin="round"/>
<path d="M54.5309 20.9373L52.7148 19.1211" stroke="black" stroke-width="2" stroke-miterlimit="10" stroke-linecap="square" stroke-linejoin="round"/>
<path d="M54.5437 6.4375L52.7266 8.25467" stroke="black" stroke-width="2" stroke-miterlimit="10" stroke-linecap="square" stroke-linejoin="round"/>
</g>
<defs>
<clipPath id="clip0_56693_321397">
<rect width="60" height="60" fill="white" transform="translate(0.5)"/>
</clipPath>
</defs>
</svg>
