<svg viewBox="0 0 61 60" fill="none" xmlns="http://www.w3.org/2000/svg">
<path d="M27.0787 31.2976H2.9319C2.71686 31.2976 2.51063 31.2122 2.35857 31.0601C2.20652 30.9081 2.12109 30.7018 2.12109 30.4868V25.2368C2.12324 23.3415 2.87712 21.5243 4.21733 20.1841C5.55755 18.8439 7.37466 18.09 9.27001 18.0879H20.7397C22.6352 18.0898 24.4526 18.8436 25.7929 20.1838C27.1333 21.5241 27.8873 23.3413 27.8895 25.2368V30.4868C27.8895 30.7018 27.804 30.9081 27.652 31.0601C27.4999 31.2122 27.2937 31.2976 27.0787 31.2976ZM3.74272 29.676H26.2679V25.2368C26.2661 23.7713 25.6831 22.3663 24.6468 21.33C23.6104 20.2938 22.2053 19.711 20.7397 19.7095H9.27001C7.80461 19.7112 6.39972 20.2941 5.36352 21.3303C4.32732 22.3665 3.74443 23.7714 3.74272 25.2368V29.676Z" fill="black" stroke="black" stroke-width="0.38"/>
<path d="M15.0045 16.013C13.5813 16.013 12.1901 15.591 11.0067 14.8003C9.82332 14.0096 8.901 12.8857 8.35636 11.5708C7.81171 10.2559 7.66921 8.80906 7.94687 7.41318C8.22452 6.01731 8.90987 4.73511 9.91624 3.72874C10.9226 2.72237 12.2048 2.03702 13.6007 1.75937C14.9966 1.48171 16.4434 1.62421 17.7583 2.16886C19.0732 2.7135 20.1971 3.63582 20.9878 4.81919C21.7785 6.00256 22.2005 7.39382 22.2005 8.81704C22.1983 10.7249 21.4395 12.5539 20.0905 13.903C18.7414 15.252 16.9124 16.0108 15.0045 16.013ZM15.0045 3.24272C13.902 3.24272 12.8243 3.56965 11.9076 4.18216C10.9909 4.79468 10.2764 5.66527 9.85454 6.68384C9.43263 7.70242 9.32224 8.82323 9.53733 9.90454C9.75241 10.9859 10.2833 11.9791 11.0629 12.7587C11.8425 13.5383 12.8357 14.0692 13.917 14.2843C14.9984 14.4993 16.1192 14.389 17.1377 13.967C18.1563 13.5451 19.0269 12.8307 19.6394 11.914C20.2519 10.9973 20.5789 9.91954 20.5789 8.81704C20.5772 7.33917 19.9893 5.92231 18.9443 4.8773C17.8993 3.83228 16.4824 3.24444 15.0045 3.24272Z" fill="black" stroke="black" stroke-width="0.38"/>
<path d="M21.5803 31.297H8.43386C8.21882 31.297 8.01258 31.2116 7.86053 31.0595C7.70847 30.9075 7.62305 30.7013 7.62305 30.4862V26.8538C7.62305 26.6387 7.70847 26.4325 7.86053 26.2804C8.01258 26.1284 8.21882 26.043 8.43386 26.043C8.6489 26.043 8.85513 26.1284 9.00719 26.2804C9.15924 26.4325 9.24467 26.6387 9.24467 26.8538V29.6754H20.7695V26.8538C20.7695 26.6387 20.855 26.4325 21.007 26.2804C21.1591 26.1284 21.3653 26.043 21.5803 26.043C21.7954 26.043 22.0016 26.1284 22.1537 26.2804C22.3057 26.4325 22.3912 26.6387 22.3912 26.8538V30.4862C22.3912 30.7013 22.3057 30.9075 22.1537 31.0595C22.0016 31.2116 21.7954 31.297 21.5803 31.297Z" fill="black" stroke="black" stroke-width="0.38"/>
<path d="M55.3258 47.9024C55.1635 47.9022 55.0051 47.8533 54.8709 47.7621C54.5168 47.5205 54.1359 47.3208 53.7357 47.1669C53.5351 47.0895 53.3735 46.9356 53.2863 46.739C53.1992 46.5424 53.1937 46.3192 53.2712 46.1186C53.3486 45.9179 53.5025 45.7563 53.6991 45.6691C53.8957 45.582 54.1189 45.5766 54.3195 45.654C54.8337 45.8531 55.3234 46.1105 55.779 46.421C55.9224 46.5185 56.0308 46.6595 56.0882 46.8231C56.1457 46.9868 56.1491 47.1646 56.098 47.3303C56.0469 47.4961 55.944 47.6411 55.8045 47.744C55.6649 47.847 55.496 47.9025 55.3225 47.9024H55.3258Z" fill="black" stroke="black" stroke-width="0.38"/>
<path d="M58.0681 58.3861H33.9221C33.7071 58.3861 33.5009 58.3007 33.3488 58.1487C33.1968 57.9966 33.1113 57.7904 33.1113 57.5753V52.3213C33.1135 50.4253 33.8676 48.6075 35.2083 47.2669C36.549 45.9262 38.3667 45.1721 40.2627 45.1699H50.2438C50.4588 45.1699 50.665 45.2553 50.8171 45.4074C50.9691 45.5595 51.0546 45.7657 51.0546 45.9807C51.0546 46.1958 50.9691 46.402 50.8171 46.5541C50.665 46.7061 50.4588 46.7915 50.2438 46.7915H40.2627C38.7966 46.7933 37.3911 47.3764 36.3545 48.4131C35.3178 49.4497 34.7347 50.8552 34.7329 52.3213V56.7645H57.2573V52.3213C57.2581 51.67 57.1433 51.0238 56.9184 50.4126C56.8491 50.2121 56.8612 49.9925 56.9521 49.8009C57.0429 49.6092 57.2052 49.4607 57.4042 49.3873C57.6032 49.3139 57.823 49.3214 58.0165 49.4082C58.2101 49.495 58.3619 49.6541 58.4394 49.8515C58.7314 50.6422 58.8802 51.4785 58.8789 52.3213V57.5753C58.8789 57.7904 58.7935 57.9966 58.6414 58.1487C58.4894 58.3007 58.2831 58.3861 58.0681 58.3861Z" fill="black" stroke="black" stroke-width="0.38"/>
<path d="M45.9987 43.097C44.5755 43.097 43.1842 42.6749 42.0008 41.8842C40.8175 41.0935 39.8951 39.9697 39.3505 38.6548C38.8059 37.3399 38.6633 35.893 38.941 34.4972C39.2187 33.1013 39.904 31.8191 40.9104 30.8127C41.9168 29.8064 43.1989 29.121 44.5948 28.8433C45.9907 28.5657 47.4376 28.7082 48.7525 29.2528C50.0673 29.7975 51.1912 30.7198 51.9819 31.9032C52.7726 33.0865 53.1946 34.4778 53.1946 35.901C53.1925 37.8089 52.4337 39.6379 51.0846 40.987C49.7356 42.336 47.9065 43.0948 45.9987 43.097ZM45.9987 30.3267C44.8962 30.3267 43.8184 30.6536 42.9018 31.2661C41.9851 31.8787 41.2706 32.7493 40.8487 33.7678C40.4268 34.7864 40.3164 35.9072 40.5315 36.9885C40.7466 38.0698 41.2775 39.0631 42.057 39.8427C42.8366 40.6223 43.8299 41.1532 44.9112 41.3682C45.9925 41.5833 47.1133 41.4729 48.1319 41.051C49.1505 40.6291 50.021 39.9146 50.6336 38.998C51.2461 38.0813 51.573 37.0035 51.573 35.901C51.5721 34.4226 50.9847 33.0049 49.9396 31.9592C48.8945 30.9135 47.4771 30.3252 45.9987 30.3235V30.3267Z" fill="black" stroke="black" stroke-width="0.38"/>
<path d="M52.5685 58.3826H39.426C39.211 58.3826 39.0048 58.2972 38.8527 58.1451C38.7007 57.9931 38.6152 57.7869 38.6152 57.5718V53.9378C38.6152 53.7227 38.7007 53.5165 38.8527 53.3644C39.0048 53.2124 39.211 53.127 39.426 53.127C39.6411 53.127 39.8473 53.2124 39.9994 53.3644C40.1514 53.5165 40.2369 53.7227 40.2369 53.9378V56.761H51.7577V53.9378C51.7577 53.7227 51.8431 53.5165 51.9951 53.3644C52.1472 53.2124 52.3534 53.127 52.5685 53.127C52.7835 53.127 52.9898 53.2124 53.1418 53.3644C53.2939 53.5165 53.3793 53.7227 53.3793 53.9378V57.5718C53.3793 57.7869 53.2939 57.9931 53.1418 58.1451C52.9898 58.2972 52.7835 58.3826 52.5685 58.3826Z" fill="black" stroke="black" stroke-width="0.38"/>
<path d="M49.2168 22.2322C49.0018 22.2322 48.7955 22.1467 48.6435 21.9947C48.4914 21.8426 48.406 21.6364 48.406 21.4213V16.5565C48.4038 14.7293 47.677 12.9776 46.385 11.6855C45.093 10.3935 43.3413 9.66674 41.5141 9.66459H35.0276C34.8126 9.66459 34.6063 9.57917 34.4543 9.42711C34.3022 9.27505 34.2168 9.06882 34.2168 8.85378C34.2168 8.63874 34.3022 8.43251 34.4543 8.28045C34.6063 8.12839 34.8126 8.04297 35.0276 8.04297H41.5141C43.7712 8.04554 45.9352 8.94333 47.5312 10.5394C49.1272 12.1354 50.025 14.2993 50.0276 16.5565V21.4213C50.0276 21.6364 49.9422 21.8426 49.7901 21.9947C49.6381 22.1467 49.4318 22.2322 49.2168 22.2322Z" fill="black" stroke="black" stroke-width="0.38"/>
<path d="M38.2034 12.8401C38.0969 12.8404 37.9914 12.8195 37.893 12.7788C37.7946 12.738 37.7052 12.6781 37.6301 12.6025L34.4542 9.4274C34.3022 9.27535 34.2168 9.06915 34.2168 8.85415C34.2168 8.63916 34.3022 8.43296 34.4542 8.28091L37.6358 5.10821C37.7083 5.0228 37.7978 4.95336 37.8985 4.90426C37.9992 4.85516 38.109 4.82746 38.221 4.82293C38.333 4.8184 38.4446 4.83712 38.549 4.87791C38.6534 4.91871 38.7481 4.98069 38.8273 5.05995C38.9066 5.13921 38.9685 5.23403 39.0092 5.33842C39.0499 5.44281 39.0686 5.55451 39.0639 5.66646C39.0593 5.77842 39.0316 5.8882 38.9824 5.98889C38.9332 6.08958 38.8637 6.17898 38.7782 6.25145L36.1764 8.85415L38.7782 11.456C38.8916 11.5694 38.9688 11.7139 39.0001 11.8712C39.0313 12.0284 39.0153 12.1914 38.9539 12.3395C38.8926 12.4877 38.7887 12.6143 38.6554 12.7034C38.5221 12.7925 38.3653 12.8401 38.205 12.8401H38.2034Z" fill="black" stroke="black" stroke-width="0.38"/>
<path d="M25.9746 51.9607H19.4881C17.231 51.9581 15.067 51.0603 13.471 49.4643C11.875 47.8682 10.9772 45.7043 10.9746 43.4472V38.5823C10.9746 38.3673 11.06 38.161 11.2121 38.009C11.3641 37.8569 11.5704 37.7715 11.7854 37.7715C12.0005 37.7715 12.2067 37.8569 12.3587 38.009C12.5108 38.161 12.5962 38.3673 12.5962 38.5823V43.4472C12.5984 45.2743 13.3252 47.0261 14.6172 48.3181C15.9092 49.6101 17.6609 50.3369 19.4881 50.3391H25.9746C26.1896 50.3391 26.3959 50.4245 26.5479 50.5765C26.7 50.7286 26.7854 50.9348 26.7854 51.1499C26.7854 51.3649 26.7 51.5711 26.5479 51.7232C26.3959 51.8753 26.1896 51.9607 25.9746 51.9607Z" fill="black" stroke="black" stroke-width="0.38"/>
<path d="M22.7975 55.1361C22.6388 55.1339 22.4842 55.0851 22.353 54.9959C22.2217 54.9066 22.1195 54.7808 22.0591 54.6341C21.9987 54.4873 21.9827 54.3261 22.013 54.1703C22.0434 54.0145 22.1188 53.871 22.2299 53.7577L24.8245 51.1518L22.2299 48.5499C22.0822 48.3969 22.0005 48.1921 22.0023 47.9795C22.0042 47.767 22.0894 47.5636 22.2398 47.4133C22.3901 47.2629 22.5935 47.1777 22.8061 47.1758C23.0187 47.174 23.2235 47.2557 23.3764 47.4034L26.5515 50.5785C26.7035 50.7306 26.7889 50.9368 26.7889 51.1518C26.7889 51.3668 26.7035 51.573 26.5515 51.725L23.3723 54.901C23.2969 54.9763 23.2072 55.0358 23.1085 55.0762C23.0098 55.1165 22.9041 55.1369 22.7975 55.1361Z" fill="black" stroke="black" stroke-width="0.38"/>
</svg>
