<svg viewBox="0 0 80 80" fill="none" xmlns="http://www.w3.org/2000/svg">
<path d="M37.3333 66.666H53.7507C57.2013 66.666 60 63.8674 60 60.4167V50.666C60 49.93 60.5973 49.3327 61.3333 49.3327H64.6667C66.508 49.3327 68 47.8407 68 45.9994C68 45.0794 67.76 44.3607 67.0547 43.674C64.684 41.366 62.6667 39.9993 62.6667 33.3327C62.6667 29.3327 64 27.9993 64 23.9993C64 15.9993 54.6667 6.66602 38.6667 6.66602C21.3333 6.66602 8 19.7993 8 35.9993C8 45.5887 12.392 54.102 19.1827 59.4553C20.528 60.514 21.3333 62.11 21.3333 63.822V75.9994" stroke="white" stroke-width="2" stroke-miterlimit="10"/>
<path d="M44 75.9993V66.666" stroke="white" stroke-width="2" stroke-miterlimit="10"/>
<path d="M48.163 35.465C52.7443 34.489 57.3337 31.8783 57.3337 25.333C57.3337 19.9997 51.6963 13.333 38.667 13.333C25.2083 13.333 14.667 23.2903 14.667 35.9997C14.667 39.9317 15.1963 41.333 16.7297 41.333C19.583 41.333 20.5843 34.6663 29.3337 34.6663C33.8123 34.6663 35.471 35.6063 39.8363 35.9077" stroke="white" stroke-width="2" stroke-miterlimit="10"/>
</svg>
