<svg viewBox="0 0 80 80" fill="none" xmlns="http://www.w3.org/2000/svg">
<path d="M74.3333 68.0001H5C2.79067 68.0001 1 66.2094 1 64.0001V60.6667H78.3333V64.0001C78.3333 66.2094 76.5427 68.0001 74.3333 68.0001Z" stroke="white" stroke-width="2" stroke-miterlimit="10"/>
<path d="M6.66699 59.6667V19.6667C6.66699 15.9853 9.65233 13 13.3337 13H66.0003C69.6817 13 72.667 15.9853 72.667 19.6667V59.6667" stroke="white" stroke-width="2" stroke-miterlimit="10"/>
<path d="M35.6663 34.3333H52.9997V36.9999C52.9997 37.7359 53.597 38.3333 54.333 38.3333C54.6583 38.3333 54.9557 38.2173 55.1863 38.0239L63.1863 31.3573C63.4797 31.1133 63.6663 30.7453 63.6663 30.3333C63.6663 29.9186 63.477 29.5493 63.181 29.3039L55.1863 22.6426C54.9557 22.4493 54.6583 22.3333 54.333 22.3333C53.597 22.3333 52.9997 22.9306 52.9997 23.6666V26.3333H14.333" stroke="white" stroke-width="2" stroke-miterlimit="10"/>
<path d="M42.3337 42.3333H25.0003V39.6666C25.0003 38.9306 24.403 38.3333 23.667 38.3333C23.3417 38.3333 23.0443 38.4493 22.8137 38.6426L14.8137 45.3093C14.5203 45.5533 14.3337 45.9213 14.3337 46.3333C14.3337 46.7479 14.523 47.1173 14.819 47.3626L22.8137 54.0239C23.0443 54.2173 23.3417 54.3333 23.667 54.3333C24.403 54.3333 25.0003 53.7359 25.0003 52.9999V50.3333H63.667" stroke="white" stroke-width="2" stroke-miterlimit="10"/>
<path d="M30.9997 34.3333H25.333" stroke="white" stroke-width="2" stroke-miterlimit="10"/>
<path d="M47 42.3333H52.6667" stroke="white" stroke-width="2" stroke-miterlimit="10"/>
</svg>
