<svg viewBox="0 0 80 80" fill="none" xmlns="http://www.w3.org/2000/svg">
<path d="M56.0067 12H73.3333C74.8053 12 76 13.1947 76 14.6667V62.6667C76 64.1387 74.8053 65.3333 73.3333 65.3333H6.66667C5.19467 65.3333 4 64.1387 4 62.6667V14.6667C4 13.1947 5.19467 12 6.66667 12H47.9987" stroke="white" stroke-width="2" stroke-miterlimit="10"/>
<path d="M43.1082 35.2867V36.112C43.1082 41.0637 39.7831 44.3649 35.6805 44.3649C31.578 44.3649 28.2529 41.0637 28.2529 36.112V31.7083" stroke="white" stroke-width="2" stroke-miterlimit="10"/>
<path d="M32.3758 32.8124C28.2732 32.8124 25.7734 30.3365 25.7734 27.0353C25.7734 23.5023 28.2493 21 28.2493 21C30.8968 23.7977 34.0263 24.5595 38.1528 24.5595C41.454 24.5595 44.7551 26.3206 44.7551 29.5112C44.7551 31.085 44.1254 32.512 43.1045 33.5543V36.1135" stroke="white" stroke-width="2" stroke-miterlimit="10"/>
<path d="M53.0123 35.2869H65.7061C65.9883 35.2869 66.2169 35.0583 66.2169 34.7761V22.5931C66.2169 22.3109 65.9883 22.0823 65.7061 22.0823H48.5714C48.2892 22.0823 48.0605 22.3109 48.0605 22.5931V37.2511C48.0605 37.6481 48.4938 37.8932 48.8338 37.6893L53.0123 35.2869Z" stroke="white" stroke-width="2" stroke-miterlimit="10"/>
<path d="M51 31H58.2529" stroke="white" stroke-width="2" stroke-miterlimit="10"/>
<path d="M51 26.6875H63.2046" stroke="white" stroke-width="2" stroke-miterlimit="10"/>
<path d="M32.3794 43.5764C32.3794 47.3142 29.3365 47.6855 24.6555 50.6409C20.0809 53.5302 20 61.6957 20 64.9968" stroke="white" stroke-width="2" stroke-miterlimit="10"/>
<path d="M38.9834 43.5764C38.9834 47.3142 42.0262 47.6855 46.7073 50.6409C51.2819 53.5302 51.3628 61.6957 51.3628 64.9968" stroke="white" stroke-width="2" stroke-miterlimit="10"/>
<path d="M24.9502 60.0486V65.0003" stroke="white" stroke-width="2" stroke-miterlimit="10"/>
<path d="M46.4121 60.0486V65.0003" stroke="white" stroke-width="2" stroke-miterlimit="10"/>
<path d="M40.6498 47.0801C40.2784 48.2635 38.1549 49.3199 35.6832 49.3199C33.2156 49.3199 31.1078 48.2611 30.7314 47.0801" stroke="white" stroke-width="2" stroke-miterlimit="10"/>
<path d="M40.6494 47.0801C42.1102 48.1835 42.2851 50.9705 42.2851 53.4464" stroke="white" stroke-width="2" stroke-miterlimit="10"/>
<path d="M30.7299 47.0801V51.7958L28.5825 53.4068C27.8562 53.9514 27.4287 54.8056 27.4287 55.7134V58.4138C27.4287 58.9461 27.5542 59.471 27.7943 59.9464L28.5577 61.4954" stroke="white" stroke-width="2" stroke-miterlimit="10"/>
<path d="M30.7314 51.7966L32.8789 53.4076C33.6051 53.9523 34.0326 54.8073 34.0326 55.7143V58.602C34.0326 59.0113 33.9352 59.4141 33.7479 59.778L32.9209 61.4624" stroke="white" stroke-width="2" stroke-miterlimit="10"/>
<path d="M42.2835 58.3971C43.6509 58.3971 44.7594 57.2886 44.7594 55.9212C44.7594 54.5538 43.6509 53.4453 42.2835 53.4453C40.9161 53.4453 39.8076 54.5538 39.8076 55.9212C39.8076 57.2886 40.9161 58.3971 42.2835 58.3971Z" stroke="white" stroke-width="2" stroke-miterlimit="10"/>
</svg>
