<svg viewBox="0 0 80 80" fill="none" xmlns="http://www.w3.org/2000/svg">
<path d="M71.6667 66.667H7.66667C6.19333 66.667 5 67.8603 5 69.3337V70.667C5 72.1403 6.19333 73.3337 7.66667 73.3337H71.6667C73.14 73.3337 74.3333 72.1403 74.3333 70.667V69.3337C74.3333 67.8603 73.14 66.667 71.6667 66.667Z" stroke="white" stroke-width="2" stroke-miterlimit="10"/>
<path d="M5.16016 68.4217L11.6668 50.667H67.6668L74.1735 68.4217" stroke="white" stroke-width="2" stroke-miterlimit="10"/>
<path d="M67.667 50.6669V11.3336C67.667 8.38824 65.279 6.00024 62.3337 6.00024H17.0003C14.055 6.00024 11.667 8.38824 11.667 11.3336V50.6669" stroke="white" stroke-width="2" stroke-miterlimit="10"/>
<path d="M26.6674 17.7493H29.1541C31.2721 17.7493 33.1076 19.6821 33.1076 21.7027C33.1076 22.2775 32.9739 22.8451 32.7171 23.3595C32.5119 23.7708 32.3026 24.1895 32.3026 24.1895V25.7995C32.3026 28.9117 29.7796 31.4347 26.6674 31.4347C23.5552 31.4347 21.0322 28.9117 21.0322 25.7995V22.1375" stroke="white" stroke-width="2" stroke-miterlimit="10"/>
<path d="M24.252 22.5794H22.6661C20.8741 22.5794 19.4219 21.1264 19.4219 19.3352C19.4219 18.2822 19.5507 17.2333 19.8067 16.2109L19.9194 15.7609C19.9886 15.484 20.2309 15.3342 20.4748 15.3342C20.6487 15.3342 20.8194 15.4171 20.9313 15.5854L21.3088 16.1513C21.9585 17.1262 23.067 17.7493 24.2939 17.7493H27.4721" stroke="white" stroke-width="2" stroke-miterlimit="10"/>
<path d="M36.667 40.9066L35.606 38.4988C34.5763 36.1626 32.2651 34.6548 29.7124 34.6548H23.6216C21.0689 34.6548 18.7576 36.1626 17.728 38.498L16.667 40.9058" stroke="white" stroke-width="2" stroke-miterlimit="10"/>
<path d="M43.667 32.6672H56.667" stroke="white" stroke-width="2" stroke-miterlimit="10"/>
<path d="M48.3618 17.6985C48.3618 17.6985 47.4135 16.6672 46.4056 16.6672C44.8931 16.6672 43.667 17.8934 43.667 19.4059C43.667 22.1445 48.3618 24.6672 48.3618 24.6672C48.3618 24.6672 53.0567 22.1445 53.0567 19.4059C53.0567 17.8934 51.8305 16.6672 50.318 16.6672C49.3196 16.6672 48.3618 17.6985 48.3618 17.6985Z" stroke="white" stroke-width="2" stroke-miterlimit="10"/>
<path d="M43.667 37.6672H63.667" stroke="white" stroke-width="2" stroke-miterlimit="10"/>
<path d="M37 56.0002H42.3333" stroke="white" stroke-width="2" stroke-miterlimit="10"/>
<path d="M37 61.3335H42.3333" stroke="white" stroke-width="2" stroke-miterlimit="10"/>
<path d="M47.667 56.0002H53.0003" stroke="white" stroke-width="2" stroke-miterlimit="10"/>
<path d="M47.667 61.3335H53.0003" stroke="white" stroke-width="2" stroke-miterlimit="10"/>
<path d="M58.333 56.0002H63.6663" stroke="white" stroke-width="2" stroke-miterlimit="10"/>
<path d="M58.333 61.3335H63.6663" stroke="white" stroke-width="2" stroke-miterlimit="10"/>
<path d="M15.667 56.0002H21.0003" stroke="white" stroke-width="2" stroke-miterlimit="10"/>
<path d="M15.667 61.3335H21.0003" stroke="white" stroke-width="2" stroke-miterlimit="10"/>
<path d="M26.333 56.0002H31.6663" stroke="white" stroke-width="2" stroke-miterlimit="10"/>
<path d="M26.333 61.3335H31.6663" stroke="white" stroke-width="2" stroke-miterlimit="10"/>
</svg>
