<svg viewBox="0 0 80 80" fill="none" xmlns="http://www.w3.org/2000/svg">
<path d="M52.7542 49.9057L55.9369 65.9803C56.2516 67.419 55.3409 68.8417 53.9036 69.1563L22.9782 75.9377C21.5396 76.2523 20.1169 75.343 19.8022 73.9043L8.06223 20.3603C7.74757 18.9217 8.6569 17.499 10.0956 17.1843L31.7209 12.4417" stroke="white" stroke-width="2" stroke-miterlimit="10"/>
<path d="M29.5067 36.4807L43.2167 48.0007C43.2167 48.0007 55.5 41.5002 63.1992 29.5002" stroke="white" stroke-width="2" stroke-miterlimit="10"/>
<path d="M57 13.1553C55.24 12.3713 53.363 11.9973 51.217 12.0003C48.121 12.0043 45.368 13.0813 43.217 15.0003C41.064 13.0733 38.319 12.0013 35.217 12.0003C28.252 11.9973 22.217 16.9683 22.217 24.0003C22.217 25.9743 22.69 27.9893 23.521 29.7863" stroke="white" stroke-width="2" stroke-miterlimit="10"/>
<path d="M51.3604 12.0002C58.3254 11.9972 64.3604 16.9682 64.3604 24.0002C64.3604 25.9742 63.8874 27.9892 63.0564 29.7862" stroke="white" stroke-width="2" stroke-miterlimit="10"/>
<path d="M34 28.0002L37 20.0002L43 36.0002L46 28.0002H55" stroke="white" stroke-width="2" stroke-miterlimit="10"/>
<path d="M54.0106 57.1936L17.876 65.1176" stroke="white" stroke-width="2" stroke-miterlimit="10"/>
</svg>
