<svg viewBox="0 0 80 80" fill="none" xmlns="http://www.w3.org/2000/svg">
<path d="M60.3457 23.5786L66.8204 50.7746" stroke="white" stroke-width="2" stroke-miterlimit="10"/>
<path d="M14.2817 54.6494L6.83633 23.3761C6.72433 22.9041 6.66699 22.4214 6.66699 21.9374C6.66699 19.0561 8.64966 16.5534 11.4537 15.8934L49.9657 6.83208C50.431 6.72141 50.9083 6.66675 51.3883 6.66675C54.355 6.66675 56.803 8.69208 57.4563 11.4374L57.7817 12.8041" stroke="white" stroke-width="2" stroke-miterlimit="10"/>
<path d="M57.689 69.7666L26.3317 77.1666C25.6743 77.3226 24.9917 77.3346 24.7103 77.3332C21.501 77.3092 19.177 75.2132 18.5463 72.5639L17.7637 69.2786" stroke="white" stroke-width="2" stroke-miterlimit="10"/>
<path d="M19.3937 14.0253C19.267 13.4973 18.667 11.1587 18.667 10.6667C18.667 9.40133 19.5483 8.34133 20.731 8.068C21.2203 7.956 38.1657 4 38.667 4C39.8883 4 40.9177 4.82 41.2337 5.94L41.9083 8.72267" stroke="white" stroke-width="2" stroke-miterlimit="10"/>
<path d="M28.1338 29.3014L50.5098 24.0374" stroke="white" stroke-width="2" stroke-miterlimit="10"/>
<path d="M32.1348 43.9681L54.4974 38.7068" stroke="white" stroke-width="2" stroke-miterlimit="10"/>
<path d="M15.4668 30.9334L16.8908 34.0014C17.1215 34.432 17.6335 34.6667 18.1321 34.6667C18.7548 34.6667 19.2708 34.2747 19.5295 33.6987L23.2308 25.6787" stroke="white" stroke-width="2" stroke-miterlimit="10"/>
<path d="M19.457 44.2666L20.881 47.3346C21.113 47.7653 21.6237 48 22.1224 48C22.745 48 23.2464 47.616 23.5197 47.032L27.221 39.012" stroke="white" stroke-width="2" stroke-miterlimit="10"/>
<path d="M18.667 69.3333C23.0853 69.3333 26.667 65.7515 26.667 61.3333C26.667 56.915 23.0853 53.3333 18.667 53.3333C14.2487 53.3333 10.667 56.915 10.667 61.3333C10.667 65.7515 14.2487 69.3333 18.667 69.3333Z" stroke="white" stroke-width="2" stroke-miterlimit="10"/>
<path d="M11.5557 57.6626L21.0303 62.5533" stroke="white" stroke-width="2" stroke-miterlimit="10"/>
<path d="M74.6667 57.3334C74.6667 58.6934 74.2533 59.9601 73.5467 61.0267C73.4027 61.2334 68.392 68.7454 68.2133 69.0267C67.0267 70.8134 64.9867 72.0001 62.6667 72.0001C58.9867 72.0001 56 69.0134 56 65.3334C56 63.9734 56.4133 62.7067 57.12 61.6401C57.3533 61.3054 62.3533 53.7987 62.4533 53.6401C63.64 51.8534 65.68 50.6667 68 50.6667C71.68 50.6667 74.6667 53.6534 74.6667 57.3334Z" stroke="white" stroke-width="2" stroke-miterlimit="10"/>
<path d="M60 57.3333L70.6667 65.3333" stroke="white" stroke-width="2" stroke-miterlimit="10"/>
<path d="M62.6667 24.0001C66.3486 24.0001 69.3333 21.0153 69.3333 17.3334C69.3333 13.6515 66.3486 10.6667 62.6667 10.6667C58.9848 10.6667 56 13.6515 56 17.3334C56 21.0153 58.9848 24.0001 62.6667 24.0001Z" stroke="white" stroke-width="2" stroke-miterlimit="10"/>
<path d="M67.3798 12.6201L57.9531 22.0468" stroke="white" stroke-width="2" stroke-miterlimit="10"/>
</svg>
