<svg width="158" height="34" viewBox="0 0 158 34" fill="none" xmlns="http://www.w3.org/2000/svg">
<g clip-path="url(#clip0)">
<path d="M30.5489 -0.000873081C29.2482 -0.00391139 27.9635 0.284775 26.7905 0.843699C25.6175 1.40262 24.5864 2.21739 23.7739 3.22737L23.5825 3.46517L23.3487 3.26977C18.5173 -0.722298 11.6243 -1.09669 6.38412 2.34786C1.14418 5.7928 -1.2046 12.2421 0.603756 18.2206C2.41211 24.1989 7.95036 28.2936 14.2336 28.2973C20.8899 28.269 26.6482 23.6864 28.1294 17.2391L28.1983 16.9432L28.4963 17.0171C30.0932 17.4062 31.7684 17.3371 33.3275 16.8177C34.8865 16.2982 36.2654 15.3498 37.3042 14.0826C38.3423 12.8159 38.9973 11.2821 39.1929 9.65968C39.3886 8.0373 39.1169 6.39302 38.4094 4.91818C36.9654 1.90801 33.9054 -0.00693055 30.5489 -0.000873081ZM22.2106 22.5118H14.2334C10.1828 22.5146 6.70307 19.6541 5.94726 15.7001C5.19146 11.7465 7.37319 7.81756 11.1428 6.34462C14.9124 4.87148 19.2037 6.27076 21.3615 9.67682C23.5193 13.0827 22.9332 17.532 19.9662 20.2717L22.2105 22.5118H22.2106ZM30.5542 13.1761H26.2202L27.438 11.9609C25.8283 10.4748 25.5098 8.06143 26.6795 6.21351C27.8493 4.36539 30.1765 3.60508 32.222 4.40271C34.2674 5.20035 35.4528 7.33043 35.045 9.47555C34.6372 11.6207 32.7516 13.1745 30.5542 13.1761ZM41.6101 11.5136H44.358V27.9071H41.6101V11.5136ZM56.524 22.1118C56.5689 20.6048 56.0491 19.1349 55.0654 17.9875C52.8322 15.8425 49.2715 15.8636 47.0646 18.0352C46.0248 19.2273 45.4803 20.7683 45.5416 22.3451C45.4705 23.932 46.0247 25.4839 47.0862 26.671C47.6191 27.2114 48.2599 27.6349 48.9673 27.9143C49.6747 28.1937 50.433 28.3227 51.1936 28.2932C51.7478 28.2965 52.3006 28.2344 52.84 28.1076C53.3497 27.9957 53.8372 27.8004 54.2825 27.5297C54.7388 27.2507 55.1523 26.9079 55.5105 26.5119C55.8556 26.1367 56.1643 25.7303 56.4328 25.2981L53.9447 23.9355C53.6309 24.4429 53.2361 24.8959 52.7756 25.2768C52.3441 25.5703 51.8286 25.7172 51.3062 25.6955C50.9589 25.7072 50.6129 25.6484 50.2893 25.5226C49.9656 25.3968 49.6712 25.2067 49.424 24.9639C48.9673 24.4757 48.6847 23.8517 48.6196 23.1881V23.1191H56.5187V22.3451V22.1439L56.524 22.1118ZM48.3463 21.0834L48.3999 20.8607C48.4836 20.5465 48.6137 20.2464 48.7859 19.9702C48.9513 19.7094 49.1598 19.4782 49.4026 19.2863C49.64 19.0983 49.9086 18.9529 50.1963 18.8568C50.4966 18.7543 50.8119 18.7024 51.1294 18.7032C52.47 18.6196 53.6578 19.5513 53.8802 20.8609L53.9447 21.0834H48.3463ZM66.1052 16.699V17.7907C65.2266 16.9095 64.0346 16.4075 62.7868 16.3932C62.0737 16.3814 61.3667 16.525 60.7153 16.8138C60.0639 17.1026 59.484 17.5296 59.0162 18.0649C58.0018 19.2076 57.4635 20.6917 57.5109 22.2152C57.4664 23.759 58.0032 25.2636 59.0162 26.4343C59.4979 26.9734 60.0918 27.4016 60.7567 27.6894C61.4216 27.9772 62.1416 28.1175 62.8666 28.1007C64.0737 28.0776 65.2302 27.614 66.116 26.7982V27.7896H68.892V16.699H66.1054H66.1052ZM65.3979 24.7203C65.1237 25.022 64.7865 25.2605 64.4098 25.419C64.0332 25.5775 63.6263 25.6523 63.2175 25.6381C62.8222 25.6421 62.4309 25.5585 62.0721 25.3934C61.7134 25.2283 61.3961 24.9858 61.1433 24.6835C60.5798 23.9862 60.2907 23.109 60.3297 22.2154C60.2962 21.3499 60.586 20.5026 61.1433 19.837C61.4055 19.5332 61.7325 19.2914 62.1005 19.129C62.4684 18.9666 62.8682 18.8878 63.2706 18.8982C64.0844 18.8805 64.864 19.2226 65.3979 19.8317C65.9731 20.5137 66.2726 21.384 66.2382 22.2734C66.2719 23.1643 65.9725 24.0359 65.3979 24.7203ZM77.5281 17.122L76.2881 19.6654L76.1741 19.5855C75.8059 19.2833 75.3491 19.1078 74.8722 19.0852C73.5909 19.0852 72.9683 20.0697 72.9683 22.0968V27.9069H70.2658V16.7017H72.9683V17.5052C73.2735 17.1846 73.6228 16.9087 74.006 16.6857C74.417 16.4845 74.8705 16.3842 75.3285 16.3932C76.0794 16.4186 76.8084 16.6506 77.4346 17.0634L77.5279 17.122H77.5281ZM87.9304 21.0674V27.9069H85.1064V21.6634C85.1762 20.915 85.0246 20.1626 84.6702 19.4987C84.484 19.2856 84.2481 19.1212 83.983 19.0201C83.718 18.919 83.432 18.8843 83.1503 18.919C82.8217 18.8842 82.4897 18.938 82.1892 19.0746C81.8886 19.2112 81.6306 19.4257 81.442 19.6955C81.1079 20.2274 80.9354 21.1633 80.9354 22.4983V27.9071H78.1169V16.7066H80.9354V17.5629C81.7225 16.8228 82.7623 16.4066 83.8456 16.3981C84.4245 16.3679 85.0032 16.4636 85.5411 16.6785C86.0791 16.8935 86.5634 17.2225 86.9604 17.6426C87.6018 18.3447 87.9304 19.4987 87.9304 21.0676V21.0674ZM92.434 13.2595C92.4354 13.4912 92.3893 13.7207 92.2985 13.9341C92.2077 14.1475 92.0741 14.3402 91.9059 14.5005C91.7484 14.6677 91.5578 14.8007 91.3461 14.8912C91.1344 14.9817 90.9062 15.0277 90.6757 15.0263C90.4434 15.027 90.2133 14.9819 89.9986 14.8935C89.7839 14.8052 89.589 14.6754 89.4251 14.5117C89.2611 14.3478 89.1313 14.1532 89.0432 13.9392C88.9552 13.7252 88.9106 13.496 88.912 13.2648C88.91 13.0354 88.9558 12.808 89.0467 12.5971C89.1376 12.3862 89.2715 12.1964 89.44 12.0396C89.5982 11.8732 89.7889 11.7406 90.0005 11.6502C90.212 11.5597 90.4399 11.5132 90.6702 11.5136C90.903 11.5123 91.1337 11.5582 91.348 11.6486C91.5623 11.739 91.7558 11.872 91.9165 12.0394C92.0864 12.1974 92.2211 12.3889 92.312 12.6018C92.403 12.8146 92.4481 13.0439 92.4446 13.2751L92.434 13.2595ZM89.3044 16.7828H92.0523V27.9069H89.3044V16.7828ZM103.24 21.0674V27.9069H100.42V21.6634C100.49 20.9149 100.338 20.1625 99.983 19.4987C99.7967 19.2856 99.5606 19.1213 99.2954 19.0202C99.0303 18.9192 98.7442 18.8845 98.4624 18.9191C98.1336 18.8844 97.8015 18.9381 97.5008 19.0746C97.2001 19.2112 96.9418 19.4256 96.753 19.6955C96.4188 20.2274 96.2462 21.1635 96.2462 22.4983V27.9071H93.4262V16.7066H96.2462V17.5629C97.0337 16.8223 98.0742 16.4062 99.158 16.3983C99.7378 16.3676 100.317 16.4635 100.856 16.6795C101.394 16.8954 101.879 17.226 102.275 17.6481C102.916 18.3447 103.24 19.4987 103.24 21.0676L103.24 21.0674ZM112.829 16.6902V17.7461C112.396 17.307 111.877 16.9606 111.305 16.7282C110.732 16.4957 110.117 16.3822 109.499 16.3946C108.751 16.373 108.009 16.5255 107.33 16.8399C106.652 17.1544 106.058 17.622 105.594 18.2055C104.671 19.3791 104.187 20.8349 104.224 22.324C104.176 23.8456 104.702 25.3301 105.7 26.4849C106.142 26.9808 106.68 27.3826 107.283 27.6662C107.885 27.9498 108.538 28.1094 109.204 28.1353C109.87 28.1616 110.535 28.0538 111.157 27.8183C111.78 27.5827 112.349 27.2244 112.829 26.7647V28.0056C112.829 30.1915 111.955 31.2635 110.165 31.2635C109.746 31.2882 109.327 31.213 108.943 31.044C108.56 30.8749 108.222 30.6171 107.959 30.292C107.714 29.9354 107.555 29.5268 107.496 29.0986V29.0035H104.709V29.1303C104.753 29.7854 104.929 30.4251 105.225 31.0117C105.522 31.5984 105.933 32.1202 106.435 32.5465C107.49 33.3851 108.816 33.8147 110.165 33.7557C110.948 33.7932 111.73 33.6568 112.453 33.3563C113.177 33.0558 113.824 32.5988 114.348 32.0185C114.886 31.3995 115.254 30.6516 115.413 29.8484C115.48 29.4992 115.528 29.1467 115.557 28.7924C115.589 28.4016 115.605 27.937 115.605 27.4246V16.6904H112.829V16.6902ZM112.179 24.6104C111.917 24.9398 111.579 25.2026 111.195 25.377C110.811 25.5514 110.39 25.6325 109.968 25.6136C109.552 25.6287 109.138 25.5467 108.76 25.3744C108.381 25.202 108.049 24.944 107.789 24.621C107.28 23.941 107.022 23.1075 107.059 22.2607C107.021 21.4073 107.279 20.5668 107.789 19.8794C108.044 19.5495 108.375 19.2853 108.754 19.109C109.134 18.9326 109.55 18.8491 109.968 18.8656C110.371 18.8556 110.77 18.9342 111.139 19.0958C111.507 19.2574 111.835 19.4979 112.099 19.8002C112.676 20.4837 112.971 21.3591 112.925 22.2502C112.961 23.1002 112.695 23.9355 112.174 24.6104H112.179ZM126.648 18.0885C126.177 17.5421 125.591 17.1065 124.931 16.8134C124.27 16.5203 123.552 16.3769 122.829 16.3938C121.606 16.4025 120.431 16.8766 119.548 17.7188V16.7002H116.782V33.7619H119.548V26.762C120.436 27.631 121.631 28.1215 122.877 28.1292C123.591 28.1441 124.299 28.0033 124.952 27.717C125.605 27.4306 126.187 27.0056 126.658 26.4716C127.67 25.324 128.208 23.8377 128.163 22.3117C128.214 20.7639 127.672 19.2546 126.647 18.0887L126.648 18.0885ZM120.266 19.82C120.54 19.5193 120.876 19.2815 121.252 19.1229C121.627 18.9643 122.033 18.8888 122.441 18.9016C122.84 18.8944 123.235 18.9766 123.598 19.142C123.961 19.3074 124.281 19.5518 124.536 19.8571C125.1 20.5525 125.388 21.4298 125.344 22.3223C125.375 23.1951 125.073 24.0472 124.499 24.7085C124.244 25.0095 123.924 25.25 123.563 25.4125C123.203 25.5751 122.81 25.6555 122.414 25.648C122.007 25.662 121.602 25.5854 121.228 25.4237C120.855 25.2621 120.522 25.0196 120.255 24.7138C119.68 24.0309 119.38 23.1597 119.415 22.2695C119.374 21.3778 119.672 20.5036 120.25 19.8201L120.266 19.82ZM139.391 18.2786C137.018 16.0241 133.267 16.0241 130.894 18.2786C130.334 18.8031 129.891 19.4374 129.59 20.1412C129.29 20.845 129.14 21.6031 129.15 22.3676C129.131 23.1488 129.272 23.9255 129.566 24.6504C129.859 25.3752 130.299 26.0329 130.856 26.5832C131.407 27.1407 132.066 27.5803 132.793 27.8748C133.521 28.1694 134.301 28.3127 135.087 28.2959C135.879 28.3131 136.666 28.1734 137.403 27.8848C138.141 27.5961 138.813 27.1644 139.38 26.6149C139.945 26.0765 140.39 25.4277 140.69 24.7093C140.989 23.991 141.135 23.2188 141.119 22.4415C141.134 21.666 140.988 20.8959 140.691 20.1788C140.394 19.4618 139.951 18.8132 139.391 18.2733V18.2786ZM137.428 24.9076C136.15 26.1309 134.119 26.1309 132.841 24.9076C132.243 24.2154 131.938 23.3206 131.987 22.4098C131.951 21.5291 132.266 20.6697 132.862 20.0175C133.152 19.7123 133.505 19.4722 133.896 19.3132C134.286 19.1541 134.707 19.0798 135.129 19.0952C135.994 19.0624 136.831 19.3981 137.428 20.0175C138.023 20.6925 138.331 21.5712 138.287 22.4678C138.331 23.3645 138.023 24.2432 137.428 24.9182V24.9076ZM152.154 18.085C149.781 15.8285 146.03 15.8285 143.657 18.085C143.097 18.608 142.653 19.2408 142.351 19.9435C142.05 20.6462 141.899 21.4034 141.908 22.1671C141.888 22.9485 142.028 23.7257 142.321 24.4513C142.614 25.1768 143.052 25.8353 143.609 26.3866C144.16 26.9451 144.819 27.3854 145.548 27.6802C146.276 27.9751 147.058 28.1182 147.844 28.1007C148.636 28.1173 149.424 27.9771 150.161 27.6883C150.898 27.3995 151.57 26.9678 152.138 26.4183C152.702 25.8792 153.148 25.2297 153.448 24.5107C153.747 23.7918 153.893 23.0189 153.877 22.241C153.892 21.465 153.746 20.6942 153.449 19.9766C153.152 19.2589 152.709 18.6097 152.149 18.0691L152.154 18.085ZM150.186 24.7199C148.908 25.9444 146.877 25.9444 145.599 24.7199C145.001 24.0268 144.696 23.1314 144.745 22.2199C144.712 21.3319 145.034 20.4672 145.641 19.8149C145.932 19.5091 146.285 19.2685 146.677 19.1094C147.069 18.9502 147.491 18.876 147.914 18.8918C148.34 18.8753 148.765 18.9491 149.16 19.1083C149.556 19.2674 149.913 19.5083 150.207 19.8149C150.803 20.4907 151.111 21.3701 151.066 22.2674C151.111 23.1647 150.803 24.044 150.207 24.7199H150.186ZM155.252 11.5136H158V27.9071H155.252V11.5136Z" fill="#0069B4"/>
</g>
<defs>
<clipPath id="clip0">
<rect width="158" height="34" fill="white"/>
</clipPath>
</defs>
</svg>
