<svg width="42" height="46" viewBox="0 0 42 46" fill="none" xmlns="http://www.w3.org/2000/svg">
<g clip-path="url(#clip0)">
<path d="M28.176 30.0841C29.51 29.9461 30.522 28.7961 30.476 27.4161C30.43 26.0361 29.28 24.9321 27.9 24.9321H27.808C26.382 24.9781 25.278 26.1741 25.324 27.6001C25.37 28.2901 25.646 28.8881 26.06 29.3021C24.496 32.3841 22.104 34.6381 18.516 36.5241C16.078 37.8121 13.548 38.2721 11.018 37.9501C8.94798 37.6741 7.33798 36.7541 6.32598 35.2361C4.85398 32.9821 4.71598 30.5441 5.95798 28.1061C6.83198 26.3581 8.21198 25.0701 9.08598 24.4261C8.90198 23.8281 8.62598 22.8161 8.48798 22.0801C1.81798 26.9101 2.50798 33.4421 4.53198 36.5241C6.04998 38.8241 9.13198 40.2501 12.536 40.2501C13.456 40.2501 14.376 40.1581 15.296 39.9281C21.184 38.7781 25.646 35.2821 28.176 30.0841Z" fill="#764ABC"/>
<path d="M36.272 24.3803C32.776 20.2863 27.624 18.0323 21.736 18.0323H21C20.586 17.2043 19.712 16.6523 18.746 16.6523H18.654C17.228 16.6983 16.124 17.8943 16.17 19.3203C16.216 20.7003 17.366 21.8043 18.746 21.8043H18.838C19.85 21.7583 20.724 21.1143 21.092 20.2403H21.92C25.416 20.2403 28.728 21.2523 31.718 23.2303C34.018 24.7483 35.674 26.7263 36.594 29.1183C37.376 31.0503 37.33 32.9363 36.502 34.5463C35.214 36.9843 33.052 38.3183 30.2 38.3183C28.36 38.3183 26.612 37.7663 25.692 37.3523C25.186 37.8123 24.266 38.5483 23.622 39.0083C25.6 39.9283 27.624 40.4343 29.556 40.4343C33.972 40.4343 37.238 37.9963 38.48 35.5583C39.814 32.8903 39.722 28.2903 36.272 24.3803Z" fill="#764ABC"/>
<path d="M12.904 30.8662C12.95 32.2462 14.1 33.3502 15.48 33.3502H15.572C16.998 33.3042 18.102 32.1082 18.056 30.6822C18.01 29.3022 16.86 28.1982 15.48 28.1982H15.388C15.296 28.1982 15.158 28.1982 15.066 28.2442C13.18 25.1162 12.398 21.7122 12.674 18.0322C12.858 15.2722 13.778 12.8802 15.388 10.9022C16.722 9.20016 19.298 8.37216 21.046 8.32616C25.922 8.23416 27.992 14.3062 28.13 16.7442C28.728 16.8822 29.74 17.2042 30.43 17.4342C29.878 9.98216 25.278 6.11816 20.862 6.11816C16.722 6.11816 12.904 9.10816 11.386 13.5242C9.26998 19.4122 10.65 25.0702 13.226 29.5322C12.996 29.8542 12.858 30.3602 12.904 30.8662Z" fill="#764ABC"/>
</g>
<defs>
<clipPath id="clip0">
<rect width="41.7755" height="46" fill="white"/>
</clipPath>
</defs>
</svg>
