<svg width="42" height="46" viewBox="0 0 42 46" fill="none" xmlns="http://www.w3.org/2000/svg">
<g clip-path="url(#clip0)">
<path d="M19.0076 0.584331C20.1435 -0.0657041 21.6229 -0.0686402 22.7578 0.584331C28.4672 3.80988 34.1784 7.03037 39.8869 10.2579C40.9606 10.8626 41.6788 12.0573 41.6678 13.2942V32.7003C41.6758 33.9885 40.8867 35.2117 39.7539 35.8027C34.0633 39.0105 28.3755 42.2222 22.6858 45.4299C21.5265 46.0927 20.0173 46.0416 18.8942 45.3246C17.1882 44.3357 15.4792 43.3518 13.7729 42.3639C13.4243 42.1561 13.0313 41.9907 12.7851 41.6527C13.0027 41.3594 13.3918 41.3229 13.708 41.1948C14.4202 40.9684 15.0742 40.605 15.7285 40.2523C15.8939 40.1391 16.0959 40.1825 16.2545 40.2838C17.7133 41.1201 19.1593 41.9807 20.6231 42.8091C20.9354 42.9893 21.2516 42.75 21.5185 42.6012C27.1028 39.4457 32.6939 36.302 38.2773 33.1455C38.4841 33.046 38.5985 32.8264 38.5817 32.5998C38.5856 26.1982 38.5827 19.7954 38.5836 13.3937C38.6073 13.1366 38.4585 12.9003 38.226 12.795C32.5551 9.60196 26.8871 6.40398 21.2172 3.21008C21.1189 3.14256 21.0025 3.10633 20.8833 3.10616C20.7641 3.10598 20.6476 3.14187 20.5492 3.2091C14.8793 6.40398 9.21225 9.6049 3.5423 12.7978C3.31063 12.9032 3.15514 13.1356 3.18272 13.3937C3.18369 19.7954 3.18272 26.1982 3.18272 32.6008C3.17288 32.7114 3.19717 32.8223 3.2523 32.9186C3.30743 33.0149 3.39076 33.0921 3.49107 33.1396C5.00412 33.9975 6.51913 34.8493 8.03316 35.7042C8.88611 36.1632 9.93337 36.4359 10.8731 36.0843C11.7024 35.7869 12.2837 34.9408 12.2679 34.0604C12.2757 27.6961 12.264 21.3308 12.2738 14.9675C12.253 14.685 12.5211 14.4515 12.7958 14.4781C13.5228 14.4732 14.2508 14.4683 14.9778 14.4801C15.2813 14.4732 15.4901 14.7775 15.4526 15.0621C15.4496 21.4667 15.4604 27.8715 15.4477 34.2761C15.4496 35.983 14.7483 37.8403 13.1691 38.6754C11.2237 39.683 8.81922 39.4693 6.89732 38.5032C5.23351 37.6729 3.64574 36.693 2.01146 35.8035C0.875776 35.2158 0.0905347 33.9877 0.0985291 32.7005V13.2942C0.0866191 12.0316 0.833357 10.8153 1.94049 10.2194C7.63018 7.009 13.3189 3.79618 19.0076 0.584331Z" fill="#8CC84B"/>
<path d="M23.9713 14.0271C26.4528 13.8674 29.1094 13.9325 31.3424 15.1548C33.0713 16.0914 34.0298 18.0572 34.0603 19.9776C34.012 20.2366 33.7412 20.3795 33.4939 20.3618C32.7739 20.3608 32.0537 20.3715 31.3338 20.3569C31.0283 20.3686 30.8508 20.0871 30.8125 19.8171C30.6056 18.8982 30.1044 17.9882 29.2394 17.545C27.9115 16.8803 26.3719 16.9137 24.9239 16.9276C23.8669 16.9837 22.7302 17.0752 21.8347 17.6967C21.1472 18.1675 20.9383 19.1178 21.1837 19.8832C21.4151 20.4327 22.0495 20.61 22.5687 20.7735C25.5592 21.5555 28.7283 21.4777 31.6617 22.5068C32.8762 22.9263 34.0642 23.7419 34.4799 25.0133C35.0237 26.7173 34.7854 28.754 33.5728 30.1219C32.5895 31.2476 31.1574 31.8603 29.729 32.1931C27.8288 32.6167 25.8568 32.6275 23.9271 32.4394C22.1125 32.2325 20.2242 31.7559 18.8234 30.5198C17.6256 29.4799 17.0405 27.8596 17.0986 26.2958C17.1125 26.0317 17.3755 25.8475 17.6285 25.8692C18.3536 25.8633 19.0786 25.8614 19.8036 25.8702C20.0932 25.8495 20.3079 26.0997 20.3228 26.3726C20.4566 27.2481 20.7856 28.1669 21.5492 28.686C23.0227 29.6365 24.8717 29.5714 26.559 29.598C27.9569 29.536 29.5261 29.5172 30.6668 28.5935C31.2687 28.0666 31.447 27.1851 31.2843 26.4268C31.1081 25.7865 30.4382 25.4882 29.863 25.2931C26.9108 24.3594 23.7063 24.6982 20.7827 23.6423C19.5958 23.2229 18.448 22.43 17.992 21.2108C17.3557 19.4853 17.6473 17.351 18.9869 16.0293C20.2931 14.7145 22.1786 14.2082 23.9713 14.027V14.0271Z" fill="#8CC84B"/>
</g>
<defs>
<clipPath id="clip0">
<rect width="41.7755" height="46" fill="white"/>
</clipPath>
</defs>
</svg>
