<svg width="52" height="46" viewBox="0 0 52 46" fill="none" xmlns="http://www.w3.org/2000/svg">
<g clip-path="url(#clip0)">
<path d="M0.150757 22.9503C0.150757 26.7933 3.90155 30.3807 9.8147 32.4029C8.63387 38.3503 9.6032 43.1441 12.8404 45.0119C16.1678 46.9319 21.1251 45.6029 25.8302 41.4879C30.4166 45.4367 35.0517 46.9907 38.2862 45.1175C41.6106 43.1921 42.6215 38.0733 41.4081 31.9401C47.5671 29.9029 51.0123 26.8439 51.0123 22.9503C51.0123 19.1965 47.2547 15.9491 41.4211 13.9399C42.7275 7.55331 41.6206 2.87591 38.2492 0.930913C34.999 -0.944287 30.3098 0.690113 25.6561 4.74211C20.8144 0.441313 16.1716 -0.871687 12.8039 1.07871C9.55663 2.95931 8.63007 7.84031 9.8147 13.8977C4.10105 15.8907 0.150757 19.2117 0.150757 22.9503Z" fill="white"/>
<path d="M40.1856 15.9352C39.7049 15.7702 39.22 15.6174 38.7315 15.4768C38.8125 15.1475 38.8875 14.8167 38.9562 14.4846C40.0569 9.13903 39.3372 4.83263 36.8796 3.41503C34.5234 2.05543 30.6696 3.47303 26.7775 6.86163C26.394 7.19629 26.019 7.5406 25.6528 7.89423C25.4076 7.65909 25.1581 7.42852 24.9044 7.20263C20.8254 3.57903 16.7367 2.05223 14.2817 3.47403C11.9276 4.83743 11.2304 8.88603 12.2213 13.952C12.3199 14.4537 12.4312 14.9528 12.5551 15.4488C11.9766 15.6132 11.4179 15.7884 10.8833 15.9748C6.10125 17.6428 3.04712 20.2572 3.04712 22.9688C3.04712 25.7696 6.32554 28.5788 11.3067 30.282C11.7106 30.4195 12.1179 30.5469 12.5282 30.664C12.3949 31.1984 12.2766 31.7364 12.1733 32.2774C11.2286 37.2554 11.9664 41.208 14.3143 42.563C16.7393 43.962 20.8094 42.524 24.7727 39.058C25.0859 38.784 25.4004 38.4934 25.7152 38.1888C26.1118 38.5716 26.5189 38.9433 26.9362 39.3034C30.7752 42.6084 34.5665 43.943 36.9124 42.5844C39.3352 41.1812 40.1225 36.935 39.1002 31.7688C39.0222 31.3742 38.9312 30.9712 38.8293 30.5608C39.1152 30.4764 39.3956 30.3892 39.6693 30.2984C44.8476 28.582 48.2166 25.807 48.2166 22.9688C48.2166 20.2474 45.0641 17.6154 40.1856 15.9352V15.9352Z" fill="#53C1DE"/>
<path d="M39.0623 28.4658C38.8155 28.5476 38.562 28.6266 38.3037 28.7032C37.732 26.8926 36.9604 24.9672 36.0164 22.9782C36.9174 21.0362 37.659 19.1356 38.2148 17.3366C38.6767 17.4706 39.1253 17.6116 39.5575 17.7606C43.7375 19.2 46.2871 21.3286 46.2871 22.9686C46.2871 24.7156 43.5334 26.9836 39.0625 28.4658H39.0623ZM37.2072 32.1436C37.6592 34.428 37.7238 36.4934 37.4243 38.108C37.1553 39.5588 36.6143 40.526 35.9454 40.9134C34.5219 41.7378 31.4776 40.6662 28.1948 37.8398C27.8184 37.5158 27.4391 37.1698 27.0589 36.8038C28.3317 35.411 29.6037 33.7918 30.8451 31.9938C33.0289 31.8 35.0919 31.483 36.9628 31.0504C37.0547 31.4224 37.1367 31.787 37.2072 32.1436V32.1436ZM18.4463 40.771C17.0555 41.2624 15.9479 41.2764 15.2784 40.8902C13.8535 40.0682 13.2614 36.8942 14.0692 32.6372C14.1652 32.1341 14.2752 31.6338 14.399 31.1368C16.2491 31.5462 18.2971 31.8408 20.4861 32.0184C21.7357 33.7778 23.0445 35.395 24.3634 36.8112C24.0831 37.0825 23.7962 37.3468 23.5028 37.604C21.7503 39.1368 19.9941 40.224 18.4465 40.771H18.4463ZM11.9308 28.455C9.72827 27.7018 7.90935 26.723 6.66255 25.655C5.54229 24.695 4.97656 23.742 4.97656 22.9686C4.97656 21.3232 7.42878 19.2242 11.5186 17.7976C12.0319 17.6193 12.5504 17.4561 13.0733 17.3082C13.6386 19.1476 14.38 21.0708 15.2748 23.0156C14.3684 24.9894 13.6164 26.9432 13.0459 28.8042C12.6714 28.6969 12.2996 28.5805 11.9308 28.455V28.455ZM14.115 13.581C13.266 9.24038 13.8297 5.96618 15.2484 5.14458C16.7597 4.26938 20.1011 5.51738 23.623 8.64598C23.8481 8.84598 24.0742 9.05538 24.3007 9.27198C22.9885 10.6818 21.6917 12.2868 20.4529 14.036C18.3285 14.233 16.2949 14.5494 14.4254 14.9732C14.3103 14.5117 14.2067 14.0475 14.115 13.5808V13.581ZM33.599 18.3944C33.1574 17.6313 32.6995 16.8778 32.2254 16.1344C33.6667 16.3164 35.0475 16.5584 36.3441 16.8546C35.9548 18.1028 35.4697 19.408 34.8983 20.746C34.4809 19.9535 34.0477 19.1695 33.599 18.3944V18.3944ZM25.6534 10.6516C26.5434 11.6162 27.4347 12.6934 28.3115 13.862C26.533 13.7779 24.7515 13.7775 22.9729 13.8608C23.8505 12.703 24.7494 11.6274 25.6534 10.6516V10.6516ZM17.6569 18.4076C17.2137 19.1766 16.7886 19.9558 16.3819 20.7446C15.8199 19.4112 15.3392 18.1002 14.9466 16.8342C16.2353 16.5456 17.6097 16.3098 19.0416 16.1308C18.5623 16.8788 18.1006 17.6379 17.6569 18.4076V18.4076ZM19.0828 29.9442C17.6035 29.779 16.2084 29.5552 14.92 29.2746C15.3188 27.9862 15.8101 26.647 16.3841 25.285C16.7925 26.0744 17.2195 26.8541 17.6647 27.6234C18.1189 28.4082 18.5917 29.182 19.0828 29.9442V29.9442ZM25.7068 35.422C24.7922 34.4346 23.8801 33.3426 22.9891 32.168C23.8539 32.202 24.7356 32.2192 25.6318 32.2192C26.5526 32.2192 27.4627 32.1986 28.3585 32.1586C27.4789 33.3546 26.5907 34.4482 25.7068 35.422ZM34.9167 25.2156C35.5204 26.5924 36.0294 27.9244 36.4336 29.191C35.1238 29.49 33.7099 29.7308 32.22 29.9096C32.6975 29.1523 33.1598 28.3856 33.6068 27.61C34.0611 26.8217 34.4979 26.0233 34.9167 25.2156V25.2156ZM31.9352 26.6456C31.2509 27.8348 30.5282 29.0014 29.7682 30.1436C28.4281 30.2394 27.0431 30.2888 25.6318 30.2888C24.2263 30.2888 22.8589 30.245 21.5422 30.1596C20.7624 29.0201 20.0261 27.8514 19.3346 26.6562C18.6465 25.4673 18.0036 24.2527 17.4076 23.015C18.0021 21.7769 18.643 20.5617 19.3289 19.3718V19.3722C20.0145 18.1821 20.7451 17.0184 21.519 15.8838C22.8623 15.7822 24.2397 15.729 25.632 15.729C27.0305 15.729 28.4097 15.7826 29.7526 15.885C30.5187 17.0179 31.2446 18.1775 31.929 19.3616C32.6172 20.5488 33.2666 21.7581 33.8762 22.9876C33.2729 24.2296 32.6255 25.4497 31.9354 26.6456H31.9352ZM35.9159 5.08718C37.4283 5.95998 38.0166 9.47938 37.0663 14.0948C37.004 14.3955 36.9363 14.695 36.8632 14.9932C34.9893 14.5606 32.9543 14.2386 30.8237 14.0386C29.5825 12.2704 28.2965 10.6626 27.0056 9.27098C27.3438 8.94469 27.6902 8.62686 28.0443 8.31778C31.379 5.41418 34.4957 4.26778 35.9159 5.08718V5.08718Z" fill="white"/>
<path d="M25.6318 18.9336C27.8596 18.9336 29.6653 20.7404 29.6653 22.969C29.6653 25.1978 27.8596 27.0046 25.6318 27.0046C23.4043 27.0046 21.5984 25.1978 21.5984 22.969C21.5984 20.7404 23.4043 18.9336 25.6318 18.9336" fill="#53C1DE"/>
</g>
<defs>
<clipPath id="clip0">
<rect width="51.1775" height="46" fill="white"/>
</clipPath>
</defs>
</svg>
