<svg width="50" height="50" viewBox="0 0 50 50" fill="none" xmlns="http://www.w3.org/2000/svg">
<rect width="50" height="50" rx="5" fill="#F6C056"/>
<path d="M9.40001 18.4399V36.5599H40.6V18.4399H9.40001ZM37.64 34.8399H12.36V20.1599H37.64V34.8399Z" fill="white"/>
<path d="M9.40001 13.4399V16.3599H40.6V13.4399H9.40001ZM11.56 15.7999C11.386 15.7999 11.2158 15.7483 11.0711 15.6516C10.9264 15.5549 10.8136 15.4175 10.747 15.2567C10.6804 15.0959 10.663 14.919 10.6969 14.7483C10.7309 14.5776 10.8147 14.4208 10.9378 14.2977C11.0608 14.1746 11.2176 14.0908 11.3883 14.0569C11.559 14.0229 11.736 14.0403 11.8968 14.1069C12.0576 14.1735 12.195 14.2863 12.2917 14.431C12.3884 14.5758 12.44 14.7459 12.44 14.9199C12.44 15.1533 12.3473 15.3772 12.1823 15.5422C12.0172 15.7072 11.7934 15.7999 11.56 15.7999ZM13.96 15.7999C13.786 15.7999 13.6158 15.7483 13.4711 15.6516C13.3264 15.5549 13.2136 15.4175 13.147 15.2567C13.0804 15.0959 13.063 14.919 13.0969 14.7483C13.1309 14.5776 13.2147 14.4208 13.3378 14.2977C13.4608 14.1746 13.6176 14.0908 13.7883 14.0569C13.959 14.0229 14.136 14.0403 14.2968 14.1069C14.4576 14.1735 14.595 14.2863 14.6917 14.431C14.7884 14.5758 14.84 14.7459 14.84 14.9199C14.84 15.1533 14.7473 15.3772 14.5823 15.5422C14.4172 15.7072 14.1934 15.7999 13.96 15.7999ZM16.36 15.7999C16.186 15.7999 16.0158 15.7483 15.8711 15.6516C15.7264 15.5549 15.6136 15.4175 15.547 15.2567C15.4804 15.0959 15.463 14.919 15.4969 14.7483C15.5309 14.5776 15.6147 14.4208 15.7378 14.2977C15.8608 14.1746 16.0176 14.0908 16.1883 14.0569C16.359 14.0229 16.536 14.0403 16.6968 14.1069C16.8576 14.1735 16.995 14.2863 17.0917 14.431C17.1884 14.5758 17.24 14.7459 17.24 14.9199C17.24 15.1533 17.1473 15.3772 16.9823 15.5422C16.8172 15.7072 16.5934 15.7999 16.36 15.7999Z" fill="white"/>
<path d="M14.5656 21.4399V33.5599H35.4344V21.4399H14.5656ZM22.76 30.9439V24.0159L28.76 27.4799L22.76 30.9439Z" fill="white"/>
</svg>
