<svg width="50" height="50" viewBox="0 0 50 50" fill="none" xmlns="http://www.w3.org/2000/svg">
<rect width="50" height="50" rx="5" fill="#2C7AF6"/>
<path d="M38.4632 20.7064L30.52 12.76C30.4428 12.6835 30.3513 12.6228 30.2506 12.5817C30.15 12.5405 30.0423 12.5195 29.9336 12.52H19.748C19.639 12.5193 19.5309 12.5402 19.43 12.5814C19.3291 12.6225 19.2373 12.6833 19.16 12.76L11.2183 20.7064C10.7356 21.1886 10.4639 21.8427 10.463 22.525C10.4621 23.2074 10.7321 23.8622 11.2135 24.3456L11.2183 24.3504C11.44 24.5726 11.7006 24.7521 11.9871 24.88L20.6095 16.2584C20.6867 16.1819 20.7782 16.1212 20.8789 16.0801C20.9795 16.0389 21.0872 16.0179 21.1959 16.0184H28.4856C28.7051 16.0175 28.916 16.1039 29.072 16.2584L37.6936 24.88C37.9803 24.7521 38.2412 24.5726 38.4632 24.3504C38.9458 23.8669 39.2168 23.2116 39.2168 22.5284C39.2168 21.8453 38.9458 21.19 38.4632 20.7064Z" fill="white"/>
<path d="M28.672 33.4023H21.0104V37.4799H28.672V33.4023Z" fill="white"/>
<path d="M27.8417 29.3247H21.8417C21.6218 29.3249 21.4111 29.4123 21.2556 29.5676C21.1 29.723 21.0125 29.9337 21.0121 30.1535V31.7431H28.6737V30.1535C28.6734 30.0445 28.6518 29.9365 28.6098 29.8358C28.5679 29.7352 28.5066 29.6438 28.4293 29.5668C28.352 29.4898 28.2604 29.4288 28.1596 29.3873C28.0587 29.3458 27.9507 29.3245 27.8417 29.3247Z" fill="white"/>
<path d="M28.1416 17.6743H21.5392L13.5256 25.6879V34.9023C13.5262 35.5857 13.798 36.241 14.2812 36.7242C14.7645 37.2075 15.4197 37.4793 16.1032 37.4799H19.3512V30.1535C19.3518 29.4939 19.6141 28.8614 20.0806 28.3949C20.547 27.9285 21.1795 27.6662 21.8392 27.6655H27.8392C28.4989 27.6661 29.1315 27.9285 29.598 28.3949C30.0646 28.8613 30.3271 29.4938 30.328 30.1535V37.4799H33.576C34.2593 37.4791 34.9143 37.2072 35.3974 36.724C35.8805 36.2407 36.1521 35.5856 36.1528 34.9023V25.6879L28.1416 17.6743ZM24.84 25.8295C24.215 25.8297 23.6039 25.6445 23.0842 25.2973C22.5644 24.9502 22.1592 24.4567 21.9199 23.8793C21.6806 23.3019 21.618 22.6666 21.7398 22.0535C21.8616 21.4405 22.1625 20.8774 22.6044 20.4353C23.0463 19.9933 23.6094 19.6923 24.2224 19.5703C24.8354 19.4483 25.4708 19.5108 26.0483 19.75C26.6257 19.9891 27.1193 20.3942 27.4666 20.9138C27.8138 21.4335 27.9992 22.0445 27.9992 22.6695C27.9981 23.5071 27.665 24.3102 27.0727 24.9025C26.4805 25.4949 25.6776 25.8282 24.84 25.8295Z" fill="white"/>
<path d="M24.84 23.5603C25.326 23.5603 25.72 23.1663 25.72 22.6803C25.72 22.1943 25.326 21.8003 24.84 21.8003C24.354 21.8003 23.96 22.1943 23.96 22.6803C23.96 23.1663 24.354 23.5603 24.84 23.5603Z" fill="white"/>
</svg>
