<svg width="50" height="50" viewBox="0 0 50 50" fill="none" xmlns="http://www.w3.org/2000/svg">
<rect width="50" height="50" rx="5" fill="#2C7AF6"/>
<path d="M9.40001 13.8401V16.7601H40.6V13.8401H9.40001ZM11.56 16.2001C11.386 16.2001 11.2158 16.1485 11.0711 16.0518C10.9264 15.9551 10.8136 15.8176 10.747 15.6568C10.6804 15.4961 10.663 15.3191 10.6969 15.1484C10.7309 14.9777 10.8147 14.8209 10.9378 14.6978C11.0608 14.5748 11.2176 14.491 11.3883 14.457C11.559 14.423 11.736 14.4405 11.8968 14.5071C12.0576 14.5737 12.195 14.6865 12.2917 14.8312C12.3884 14.9759 12.44 15.146 12.44 15.3201C12.44 15.5535 12.3473 15.7773 12.1823 15.9423C12.0172 16.1074 11.7934 16.2001 11.56 16.2001ZM13.96 16.2001C13.786 16.2001 13.6158 16.1485 13.4711 16.0518C13.3264 15.9551 13.2136 15.8176 13.147 15.6568C13.0804 15.4961 13.063 15.3191 13.0969 15.1484C13.1309 14.9777 13.2147 14.8209 13.3378 14.6978C13.4608 14.5748 13.6176 14.491 13.7883 14.457C13.959 14.423 14.136 14.4405 14.2968 14.5071C14.4576 14.5737 14.595 14.6865 14.6917 14.8312C14.7884 14.9759 14.84 15.146 14.84 15.3201C14.84 15.5535 14.7473 15.7773 14.5823 15.9423C14.4172 16.1074 14.1934 16.2001 13.96 16.2001ZM16.36 16.2001C16.186 16.2001 16.0158 16.1485 15.8711 16.0518C15.7264 15.9551 15.6136 15.8176 15.547 15.6568C15.4804 15.4961 15.463 15.3191 15.4969 15.1484C15.5309 14.9777 15.6147 14.8209 15.7378 14.6978C15.8608 14.5748 16.0176 14.491 16.1883 14.457C16.359 14.423 16.536 14.4405 16.6968 14.5071C16.8576 14.5737 16.995 14.6865 17.0917 14.8312C17.1884 14.9759 17.24 15.146 17.24 15.3201C17.24 15.5535 17.1473 15.7773 16.9823 15.9423C16.8172 16.1074 16.5934 16.2001 16.36 16.2001Z" fill="white"/>
<path d="M9.40001 18.8401V36.9601H40.6V18.8401H9.40001ZM23.4872 26.7201L21.8584 27.5753L23.4872 28.4297V29.0697L21.216 27.8057V27.3505L23.4872 26.0841V26.7201ZM24.4544 29.8401H23.8488L25.5584 24.4801H26.164L24.4544 29.8401ZM28.7784 27.8057L26.5072 29.0665V28.4265L28.1416 27.5721L26.5072 26.7201V26.0841L28.7784 27.3505V27.8057Z" fill="white"/>
</svg>
