<svg width="50" height="50" viewBox="0 0 50 50" fill="none" xmlns="http://www.w3.org/2000/svg">
<rect width="50" height="50" rx="5" fill="#2C7AF6"/>
<path d="M25 13.52C22.5633 13.52 20.1814 14.2426 18.1553 15.5963C16.1293 16.9501 14.5502 18.8742 13.6178 21.1254C12.6853 23.3765 12.4413 25.8537 12.9167 28.2435C13.3921 30.6334 14.5654 32.8286 16.2884 34.5516C18.0114 36.2746 20.2066 37.4479 22.5965 37.9233C24.9863 38.3987 27.4634 38.1547 29.7146 37.2222C31.9658 36.2897 33.8899 34.7107 35.2437 32.6846C36.5974 30.6586 37.32 28.2767 37.32 25.84C37.32 22.5726 36.022 19.4389 33.7115 17.1285C31.4011 14.818 28.2674 13.52 25 13.52ZM25 33.84C23.4177 33.84 21.871 33.3708 20.5554 32.4918C19.2398 31.6127 18.2144 30.3633 17.6089 28.9015C17.0034 27.4397 16.845 25.8311 17.1537 24.2793C17.4624 22.7274 18.2243 21.302 19.3431 20.1832C20.4619 19.0643 21.8874 18.3024 23.4392 17.9937C24.9911 17.6851 26.5996 17.8435 28.0614 18.449C29.5232 19.0545 30.7727 20.0799 31.6517 21.3955C32.5308 22.7111 33 24.2578 33 25.84C33 27.9618 32.1571 29.9966 30.6568 31.4969C29.1565 32.9972 27.1217 33.84 25 33.84Z" fill="white"/>
<path d="M27.28 13.2401V11.8401H22.72V13.2401C24.228 12.9702 25.7719 12.9702 27.28 13.2401Z" fill="white"/>
<path d="M25 26.72C25.486 26.72 25.88 26.326 25.88 25.84C25.88 25.354 25.486 24.96 25 24.96C24.514 24.96 24.12 25.354 24.12 25.84C24.12 26.326 24.514 26.72 25 26.72Z" fill="white"/>
</svg>
