<svg width="50" height="50" viewBox="0 0 50 50" fill="none" xmlns="http://www.w3.org/2000/svg">
<rect width="50" height="50" rx="5" fill="#2C7AF6"/>
<path d="M25 9.86499C22.5633 9.86499 20.1814 10.5875 18.1554 11.9413C16.1294 13.295 14.5503 15.2191 13.6178 17.4703C12.6853 19.7215 12.4414 22.1987 12.9167 24.5885C13.3921 26.9783 14.5655 29.1736 16.2884 30.8965C18.0114 32.6195 20.2066 33.7929 22.5965 34.2683C24.9863 34.7436 27.4635 34.4997 29.7147 33.5672C31.9658 32.6347 33.89 31.0556 35.2437 29.0296C36.5974 27.0036 37.32 24.6217 37.32 22.185C37.32 18.9175 36.022 15.7839 33.7116 13.4734C31.4011 11.163 28.2675 9.86499 25 9.86499ZM25 30.185C23.4177 30.185 21.871 29.7158 20.5554 28.8367C19.2398 27.9577 18.2145 26.7083 17.609 25.2465C17.0035 23.7846 16.845 22.1761 17.1537 20.6243C17.4624 19.0724 18.2243 17.647 19.3431 16.5281C20.462 15.4093 21.8874 14.6474 23.4393 14.3387C24.9911 14.03 26.5997 14.1885 28.0615 14.794C29.5233 15.3995 30.7727 16.4248 31.6518 17.7404C32.5308 19.056 33 20.6027 33 22.185C33 24.3067 32.1571 26.3416 30.6569 27.8418C29.1566 29.3421 27.1217 30.185 25 30.185Z" fill="white"/>
<path d="M15.7 30.9785L10.7288 35.9497L13.9536 36.9097L14.9136 40.1337L20.7776 34.2697C18.8464 33.5942 17.1052 32.4656 15.7 30.9785Z" fill="white"/>
<path d="M34.3001 30.9785C32.8946 32.4664 31.1529 33.5956 29.2209 34.2713L35.0849 40.1353L36.0449 36.9113L39.2697 35.9513L34.3001 30.9785Z" fill="white"/>
</svg>
