<svg width="50" height="50" viewBox="0 0 50 50" fill="none" xmlns="http://www.w3.org/2000/svg">
<rect width="50" height="50" rx="5" fill="#2C7AF6"/>
<path d="M9.40001 13.4399V16.3599H40.6V13.4399H9.40001ZM11.56 15.7999C11.386 15.7999 11.2158 15.7483 11.0711 15.6516C10.9264 15.5549 10.8136 15.4175 10.747 15.2567C10.6804 15.0959 10.663 14.919 10.6969 14.7483C10.7309 14.5776 10.8147 14.4208 10.9378 14.2977C11.0608 14.1746 11.2176 14.0908 11.3883 14.0569C11.559 14.0229 11.736 14.0403 11.8968 14.1069C12.0576 14.1735 12.195 14.2863 12.2917 14.431C12.3884 14.5758 12.44 14.7459 12.44 14.9199C12.44 15.1533 12.3473 15.3772 12.1823 15.5422C12.0172 15.7072 11.7934 15.7999 11.56 15.7999ZM13.96 15.7999C13.786 15.7999 13.6158 15.7483 13.4711 15.6516C13.3264 15.5549 13.2136 15.4175 13.147 15.2567C13.0804 15.0959 13.063 14.919 13.0969 14.7483C13.1309 14.5776 13.2147 14.4208 13.3378 14.2977C13.4608 14.1746 13.6176 14.0908 13.7883 14.0569C13.959 14.0229 14.136 14.0403 14.2968 14.1069C14.4576 14.1735 14.595 14.2863 14.6917 14.431C14.7884 14.5758 14.84 14.7459 14.84 14.9199C14.84 15.1533 14.7473 15.3772 14.5823 15.5422C14.4172 15.7072 14.1934 15.7999 13.96 15.7999ZM16.36 15.7999C16.186 15.7999 16.0158 15.7483 15.8711 15.6516C15.7264 15.5549 15.6136 15.4175 15.547 15.2567C15.4804 15.0959 15.463 14.919 15.4969 14.7483C15.5309 14.5776 15.6147 14.4208 15.7378 14.2977C15.8608 14.1746 16.0176 14.0908 16.1883 14.0569C16.359 14.0229 16.536 14.0403 16.6968 14.1069C16.8576 14.1735 16.995 14.2863 17.0917 14.431C17.1884 14.5758 17.24 14.7459 17.24 14.9199C17.24 15.1533 17.1473 15.3772 16.9823 15.5422C16.8172 15.7072 16.5934 15.7999 16.36 15.7999Z" fill="white"/>
<path d="M9.40001 18.4399V36.5599H40.6V18.4399H9.40001ZM29.4416 20.7399C29.7728 20.7398 30.0966 20.8379 30.3721 21.0217C30.6475 21.2056 30.8623 21.4671 30.9891 21.773C31.116 22.079 31.1493 22.4157 31.0847 22.7405C31.0202 23.0654 30.8608 23.3638 30.6267 23.598C30.3925 23.8323 30.0942 23.9918 29.7694 24.0565C29.4445 24.1212 29.1078 24.0881 28.8018 23.9614C28.4958 23.8347 28.2343 23.62 28.0503 23.3447C27.8662 23.0693 27.768 22.7455 27.768 22.4143C27.768 21.9704 27.9443 21.5446 28.2581 21.2306C28.572 20.9167 28.9977 20.7402 29.4416 20.7399V20.7399ZM20.6416 20.7399C20.9728 20.7398 21.2966 20.8379 21.5721 21.0217C21.8475 21.2056 22.0623 21.4671 22.1891 21.773C22.316 22.079 22.3493 22.4157 22.2847 22.7405C22.2202 23.0654 22.0608 23.3638 21.8267 23.598C21.5925 23.8323 21.2942 23.9918 20.9694 24.0565C20.6445 24.1212 20.3078 24.0881 20.0018 23.9614C19.6958 23.8347 19.4343 23.62 19.2503 23.3447C19.0662 23.0693 18.968 22.7455 18.968 22.4143C18.968 21.9704 19.1443 21.5446 19.4581 21.2306C19.772 20.9167 20.1977 20.7402 20.6416 20.7399V20.7399ZM17.96 34.2599C17.9605 33.6857 18.1482 33.1273 18.4947 32.6694C18.8412 32.2114 19.3275 31.879 19.88 31.7223C20.3559 31.8929 20.8756 31.8974 21.3544 31.7351C21.8984 31.8973 22.3756 32.2306 22.7152 32.6854C23.0549 33.1402 23.2389 33.6923 23.24 34.2599H17.96ZM18.9648 29.6143C18.9647 29.2831 19.0627 28.9593 19.2467 28.6838C19.4306 28.4083 19.6921 28.1936 19.9981 28.0668C20.3041 27.9399 20.6408 27.9067 20.9657 27.9713C21.2905 28.0359 21.589 28.1953 21.8232 28.4296C22.0574 28.6638 22.2169 28.9622 22.2815 29.2871C22.3461 29.612 22.3128 29.9487 22.186 30.2547C22.0592 30.5607 21.8444 30.8222 21.569 31.0061C21.2935 31.19 20.9696 31.2881 20.6384 31.2879C20.1952 31.2869 19.7704 31.1101 19.4573 30.7964C19.1442 30.4827 18.9682 30.0576 18.968 29.6143H18.9648ZM17.96 27.0599C17.9605 26.4857 18.1482 25.9273 18.4947 25.4694C18.8412 25.0114 19.3275 24.679 19.88 24.5223C20.3559 24.6929 20.8756 24.6974 21.3544 24.5351C21.8984 24.6973 22.3756 25.0306 22.7152 25.4854C23.0549 25.9401 23.2389 26.4923 23.24 27.0599H17.96ZM26.76 34.2599C26.7605 33.6857 26.9482 33.1273 27.2947 32.6694C27.6412 32.2114 28.1275 31.879 28.68 31.7223C29.156 31.8929 29.6756 31.8974 30.1544 31.7351C30.6984 31.8973 31.1756 32.2306 31.5152 32.6854C31.8549 33.1402 32.0389 33.6923 32.04 34.2599H26.76ZM27.7648 29.6143C27.7647 29.2831 27.8627 28.9593 28.0467 28.6838C28.2306 28.4083 28.4921 28.1936 28.7981 28.0668C29.1041 27.9399 29.4408 27.9067 29.7657 27.9713C30.0906 28.0359 30.389 28.1953 30.6232 28.4296C30.8574 28.6638 31.0169 28.9622 31.0815 29.2871C31.1461 29.612 31.1128 29.9487 30.986 30.2547C30.8592 30.5607 30.6444 30.8222 30.369 31.0061C30.0935 31.19 29.7696 31.2881 29.4384 31.2879C28.9952 31.2869 28.5704 31.1101 28.2573 30.7964C27.9442 30.4827 27.7682 30.0576 27.768 29.6143H27.7648ZM26.76 27.0599C26.7605 26.4857 26.9482 25.9273 27.2947 25.4694C27.6412 25.0114 28.1275 24.679 28.68 24.5223C29.156 24.6929 29.6756 24.6974 30.1544 24.5351C30.6984 24.6973 31.1756 25.0306 31.5152 25.4854C31.8549 25.9401 32.0389 26.4923 32.04 27.0599H26.76Z" fill="white"/>
</svg>
