<svg width="126" height="119" viewBox="0 0 126 119" fill="none" xmlns="http://www.w3.org/2000/svg">
<path d="M39.9095 116.27C39.9095 117.749 38.6552 119 37.1729 119C35.6905 119 34.4362 117.749 34.4362 116.27C34.4362 114.791 35.6905 113.539 37.1729 113.539C38.6552 113.653 39.9095 114.791 39.9095 116.27Z" fill="#383738"/>
<path d="M57.1276 116.27C57.1276 117.749 55.8733 119 54.3909 119C52.9086 119 51.6543 117.749 51.6543 116.27C51.6543 114.791 52.9086 113.539 54.3909 113.539C55.8733 113.653 57.1276 114.791 57.1276 116.27Z" fill="#383738"/>
<path d="M74.3457 116.27C74.3457 117.749 73.0914 119 71.6091 119C70.1267 119 68.8724 117.749 68.8724 116.27C68.8724 114.791 70.1267 113.539 71.6091 113.539C73.0914 113.653 74.3457 114.791 74.3457 116.27Z" fill="#383738"/>
<path d="M91.5638 116.27C91.5638 117.749 90.3095 119 88.8272 119C87.3448 119 86.0905 117.749 86.0905 116.27C86.0905 114.791 87.3448 113.539 88.8272 113.539C90.3095 113.653 91.5638 114.791 91.5638 116.27Z" fill="#383738"/>
<path d="M22.5774 100.115C22.5774 101.594 21.3231 102.845 19.8407 102.845C18.3584 102.845 17.1041 101.594 17.1041 100.115C17.1041 98.6357 18.3584 97.3843 19.8407 97.3843C21.4371 97.3843 22.5774 98.6357 22.5774 100.115Z" fill="#383738"/>
<path d="M39.9095 100.115C39.9095 101.594 38.6552 102.845 37.1729 102.845C35.6905 102.845 34.4362 101.594 34.4362 100.115C34.4362 98.6357 35.6905 97.3843 37.1729 97.3843C38.6552 97.3843 39.9095 98.6357 39.9095 100.115Z" fill="#383738"/>
<path d="M57.1276 100.115C57.1276 101.594 55.8733 102.845 54.3909 102.845C52.9086 102.845 51.6543 101.594 51.6543 100.115C51.6543 98.6357 52.9086 97.3843 54.3909 97.3843C55.8733 97.3843 57.1276 98.6357 57.1276 100.115Z" fill="#383738"/>
<path d="M74.3457 100.115C74.3457 101.594 73.0914 102.845 71.609 102.845C70.1267 102.845 68.8724 101.594 68.8724 100.115C68.8724 98.6357 70.1267 97.3843 71.609 97.3843C73.0914 97.3843 74.3457 98.6357 74.3457 100.115Z" fill="#383738"/>
<path d="M91.5638 100.115C91.5638 101.594 90.3095 102.845 88.8272 102.845C87.3448 102.845 86.0905 101.594 86.0905 100.115C86.0905 98.6357 87.3448 97.3843 88.8272 97.3843C90.3095 97.3843 91.5638 98.6357 91.5638 100.115Z" fill="#383738"/>
<path d="M108.782 100.115C108.782 101.594 107.528 102.845 106.045 102.845C104.563 102.845 103.309 101.594 103.309 100.115C103.309 98.6357 104.563 97.3843 106.045 97.3843C107.642 97.3843 108.782 98.6357 108.782 100.115Z" fill="#383738"/>
<path d="M22.5774 83.8461C22.5774 85.3251 21.3231 86.5765 19.8407 86.5765C18.3584 86.5765 17.1041 85.3251 17.1041 83.8461C17.1041 82.3671 18.3584 81.1157 19.8407 81.1157C21.4371 81.1157 22.5774 82.3671 22.5774 83.8461Z" fill="#383738"/>
<path d="M39.9095 83.8461C39.9095 85.3251 38.6552 86.5765 37.1729 86.5765C35.6905 86.5765 34.4362 85.3251 34.4362 83.8461C34.4362 82.3671 35.6905 81.1157 37.1729 81.1157C38.6552 81.1157 39.9095 82.3671 39.9095 83.8461Z" fill="#383738"/>
<path d="M57.1276 83.8461C57.1276 85.3251 55.8733 86.5765 54.3909 86.5765C52.9086 86.5765 51.6543 85.3251 51.6543 83.8461C51.6543 82.3671 52.9086 81.1157 54.3909 81.1157C55.8733 81.1157 57.1276 82.3671 57.1276 83.8461Z" fill="#383738"/>
<path d="M74.3457 83.8461C74.3457 85.3251 73.0914 86.5765 71.609 86.5765C70.1267 86.5765 68.8724 85.3251 68.8724 83.8461C68.8724 82.3671 70.1267 81.1157 71.609 81.1157C73.0914 81.1157 74.3457 82.3671 74.3457 83.8461Z" fill="#383738"/>
<path d="M91.5638 83.8461C91.5638 85.3251 90.3095 86.5765 88.8272 86.5765C87.3448 86.5765 86.0905 85.3251 86.0905 83.8461C86.0905 82.3671 87.3448 81.1157 88.8272 81.1157C90.3095 81.1157 91.5638 82.3671 91.5638 83.8461Z" fill="#383738"/>
<path d="M108.782 83.8461C108.782 85.3251 107.528 86.5765 106.045 86.5765C104.563 86.5765 103.309 85.3251 103.309 83.8461C103.309 82.3671 104.563 81.1157 106.045 81.1157C107.642 81.1157 108.782 82.3671 108.782 83.8461Z" fill="#383738"/>
<path d="M5.35929 67.5773C5.35929 69.0563 4.10499 70.3077 2.62264 70.3077C1.14028 70.3077 -0.114014 69.0563 -0.114014 67.5773C-0.114014 66.0984 1.14028 64.8469 2.62264 64.8469C4.21902 64.9607 5.35929 66.0984 5.35929 67.5773Z" fill="#383738"/>
<path d="M22.5774 67.5773C22.5774 69.0563 21.3231 70.3077 19.8407 70.3077C18.3584 70.3077 17.1041 69.0563 17.1041 67.5773C17.1041 66.0984 18.3584 64.8469 19.8407 64.8469C21.4371 64.9607 22.5774 66.0984 22.5774 67.5773Z" fill="#383738"/>
<path d="M39.9095 67.5773C39.9095 69.0563 38.6552 70.3077 37.1729 70.3077C35.6905 70.3077 34.4362 69.0563 34.4362 67.5773C34.4362 66.0984 35.6905 64.8469 37.1729 64.8469C38.6552 64.9607 39.9095 66.0984 39.9095 67.5773Z" fill="#383738"/>
<path d="M57.1276 67.5773C57.1276 69.0563 55.8733 70.3077 54.391 70.3077C52.9086 70.3077 51.6543 69.0563 51.6543 67.5773C51.6543 66.0984 52.9086 64.8469 54.391 64.8469C55.8733 64.9607 57.1276 66.0984 57.1276 67.5773Z" fill="#383738"/>
<path d="M74.3457 67.5773C74.3457 69.0563 73.0914 70.3077 71.6091 70.3077C70.1267 70.3077 68.8724 69.0563 68.8724 67.5773C68.8724 66.0984 70.1267 64.8469 71.6091 64.8469C73.0914 64.9607 74.3457 66.0984 74.3457 67.5773Z" fill="#383738"/>
<path d="M91.5638 67.5773C91.5638 69.0563 90.3095 70.3077 88.8272 70.3077C87.3448 70.3077 86.0905 69.0563 86.0905 67.5773C86.0905 66.0984 87.3448 64.8469 88.8272 64.8469C90.3095 64.9607 91.5638 66.0984 91.5638 67.5773Z" fill="#383738"/>
<path d="M108.782 67.5773C108.782 69.0563 107.528 70.3077 106.045 70.3077C104.563 70.3077 103.309 69.0563 103.309 67.5773C103.309 66.0984 104.563 64.8469 106.045 64.8469C107.642 64.9607 108.782 66.0984 108.782 67.5773Z" fill="#383738"/>
<path d="M126 67.5773C126 69.0563 124.746 70.3077 123.263 70.3077C121.781 70.3077 120.527 69.0563 120.527 67.5773C120.527 66.0984 121.781 64.8469 123.263 64.8469C124.86 64.9607 126 66.0984 126 67.5773Z" fill="#383738"/>
<path d="M5.35929 51.4225C5.35929 52.9015 4.10499 54.1529 2.62264 54.1529C1.14028 54.1529 -0.114014 52.9015 -0.114014 51.4225C-0.114014 49.9436 1.14028 48.6921 2.62264 48.6921C4.21902 48.6921 5.35929 49.9436 5.35929 51.4225Z" fill="#383738"/>
<path d="M22.5774 51.4225C22.5774 52.9015 21.3231 54.1529 19.8407 54.1529C18.3584 54.1529 17.1041 52.9015 17.1041 51.4225C17.1041 49.9436 18.3584 48.6921 19.8407 48.6921C21.4371 48.6921 22.5774 49.9436 22.5774 51.4225Z" fill="#383738"/>
<path d="M39.9095 51.4225C39.9095 52.9015 38.6552 54.1529 37.1729 54.1529C35.6905 54.1529 34.4362 52.9015 34.4362 51.4225C34.4362 49.9436 35.6905 48.6921 37.1729 48.6921C38.6552 48.6921 39.9095 49.9436 39.9095 51.4225Z" fill="#383738"/>
<path d="M57.1276 51.4225C57.1276 52.9015 55.8733 54.1529 54.391 54.1529C52.9086 54.1529 51.6543 52.9015 51.6543 51.4225C51.6543 49.9436 52.9086 48.6921 54.391 48.6921C55.8733 48.6921 57.1276 49.9436 57.1276 51.4225Z" fill="#383738"/>
<path d="M74.3457 51.4225C74.3457 52.9015 73.0914 54.1529 71.6091 54.1529C70.1267 54.1529 68.8724 52.9015 68.8724 51.4225C68.8724 49.9436 70.1267 48.6921 71.6091 48.6921C73.0914 48.6921 74.3457 49.9436 74.3457 51.4225Z" fill="#383738"/>
<path d="M91.5638 51.4225C91.5638 52.9015 90.3095 54.1529 88.8272 54.1529C87.3448 54.1529 86.0905 52.9015 86.0905 51.4225C86.0905 49.9436 87.3448 48.6921 88.8272 48.6921C90.3095 48.6921 91.5638 49.9436 91.5638 51.4225Z" fill="#383738"/>
<path d="M108.782 51.4225C108.782 52.9015 107.528 54.1529 106.045 54.1529C104.563 54.1529 103.309 52.9015 103.309 51.4225C103.309 49.9436 104.563 48.6921 106.045 48.6921C107.642 48.6921 108.782 49.9436 108.782 51.4225Z" fill="#383738"/>
<path d="M126 51.4225C126 52.9015 124.746 54.1529 123.263 54.1529C121.781 54.1529 120.527 52.9015 120.527 51.4225C120.527 49.9436 121.781 48.6921 123.263 48.6921C124.86 48.6921 126 49.9436 126 51.4225Z" fill="#383738"/>
<path d="M22.5774 35.154C22.5774 36.633 21.3231 37.8844 19.8407 37.8844C18.3584 37.8844 17.1041 36.633 17.1041 35.154C17.1041 33.675 18.3584 32.4236 19.8407 32.4236C21.4371 32.4236 22.5774 33.675 22.5774 35.154Z" fill="#383738"/>
<path d="M39.9095 35.154C39.9095 36.633 38.6552 37.8844 37.1729 37.8844C35.6905 37.8844 34.4362 36.633 34.4362 35.154C34.4362 33.675 35.6905 32.4236 37.1729 32.4236C38.6552 32.4236 39.9095 33.675 39.9095 35.154Z" fill="#383738"/>
<path d="M57.1276 35.154C57.1276 36.633 55.8733 37.8844 54.3909 37.8844C52.9086 37.8844 51.6543 36.633 51.6543 35.154C51.6543 33.675 52.9086 32.4236 54.3909 32.4236C55.8733 32.4236 57.1276 33.675 57.1276 35.154Z" fill="#383738"/>
<path d="M74.3457 35.154C74.3457 36.633 73.0914 37.8844 71.609 37.8844C70.1267 37.8844 68.8724 36.633 68.8724 35.154C68.8724 33.675 70.1267 32.4236 71.609 32.4236C73.0914 32.4236 74.3457 33.675 74.3457 35.154Z" fill="#383738"/>
<path d="M91.5638 35.154C91.5638 36.633 90.3095 37.8844 88.8272 37.8844C87.3448 37.8844 86.0905 36.633 86.0905 35.154C86.0905 33.675 87.3448 32.4236 88.8272 32.4236C90.3095 32.4236 91.5638 33.675 91.5638 35.154Z" fill="#383738"/>
<path d="M108.782 35.154C108.782 36.633 107.528 37.8844 106.045 37.8844C104.563 37.8844 103.309 36.633 103.309 35.154C103.309 33.675 104.563 32.4236 106.045 32.4236C107.642 32.4236 108.782 33.675 108.782 35.154Z" fill="#383738"/>
<path d="M22.5774 18.8852C22.5774 20.3642 21.3231 21.6156 19.8407 21.6156C18.3584 21.6156 17.1041 20.3642 17.1041 18.8852C17.1041 17.4062 18.3584 16.1548 19.8407 16.1548C21.4371 16.2686 22.5774 17.4062 22.5774 18.8852Z" fill="#383738"/>
<path d="M39.9095 18.8852C39.9095 20.3642 38.6552 21.6156 37.1729 21.6156C35.6905 21.6156 34.4362 20.3642 34.4362 18.8852C34.4362 17.4062 35.6905 16.1548 37.1729 16.1548C38.6552 16.2686 39.9095 17.4062 39.9095 18.8852Z" fill="#383738"/>
<path d="M57.1276 18.8852C57.1276 20.3642 55.8733 21.6156 54.3909 21.6156C52.9086 21.6156 51.6543 20.3642 51.6543 18.8852C51.6543 17.4062 52.9086 16.1548 54.3909 16.1548C55.8733 16.2686 57.1276 17.4062 57.1276 18.8852Z" fill="#383738"/>
<path d="M74.3457 18.8852C74.3457 20.3642 73.0914 21.6156 71.609 21.6156C70.1267 21.6156 68.8724 20.3642 68.8724 18.8852C68.8724 17.4062 70.1267 16.1548 71.609 16.1548C73.0914 16.2686 74.3457 17.4062 74.3457 18.8852Z" fill="#383738"/>
<path d="M91.5638 18.8852C91.5638 20.3642 90.3095 21.6156 88.8272 21.6156C87.3448 21.6156 86.0905 20.3642 86.0905 18.8852C86.0905 17.4062 87.3448 16.1548 88.8272 16.1548C90.3095 16.2686 91.5638 17.4062 91.5638 18.8852Z" fill="#383738"/>
<path d="M108.782 18.8852C108.782 20.3642 107.528 21.6156 106.045 21.6156C104.563 21.6156 103.309 20.3642 103.309 18.8852C103.309 17.4062 104.563 16.1548 106.045 16.1548C107.642 16.2686 108.782 17.4062 108.782 18.8852Z" fill="#383738"/>
<path d="M39.9095 2.7304C39.9095 4.20937 38.6552 5.4608 37.1729 5.4608C35.6905 5.4608 34.4362 4.20937 34.4362 2.7304C34.4362 1.25143 35.6905 0 37.1729 0C38.6552 0 39.9095 1.25143 39.9095 2.7304Z" fill="#383738"/>
<path d="M57.1276 2.7304C57.1276 4.20937 55.8733 5.4608 54.3909 5.4608C52.9086 5.4608 51.6543 4.20937 51.6543 2.7304C51.6543 1.25143 52.9086 0 54.3909 0C55.8733 0 57.1276 1.25143 57.1276 2.7304Z" fill="#383738"/>
<path d="M74.3457 2.7304C74.3457 4.20937 73.0914 5.4608 71.6091 5.4608C70.1267 5.4608 68.8724 4.20937 68.8724 2.7304C68.8724 1.25143 70.1267 0 71.6091 0C73.0914 0 74.3457 1.25143 74.3457 2.7304Z" fill="#383738"/>
<path d="M91.5638 2.7304C91.5638 4.20937 90.3095 5.4608 88.8272 5.4608C87.3448 5.4608 86.0905 4.20937 86.0905 2.7304C86.0905 1.25143 87.3448 0 88.8272 0C90.3095 0 91.5638 1.25143 91.5638 2.7304Z" fill="#383738"/>
</svg>
