<svg
  width="100%"
  height="100%"
  viewBox="0 0 26 53"
  xmlns="http://www.w3.org/2000/svg"
  fill="currentColor"
>
  <path
    d="M14.4378 52.3928C14.4384 52.3922 14.4392 52.3916 14.4398 52.3909L25.0023
      41.5731C25.7935 40.7627 25.7906 39.4519 24.9953 38.6452C24.2002 37.8386 22.9141 37.8417
      22.1228 38.6521L15.0313 45.9152L15.0313 2.07031C15.0313 0.926879 14.1219 -5.01452e-07 13
      -5.5049e-07C11.8782 -5.99528e-07 10.9688 0.926878 10.9688 2.07031L10.9688 45.9151L3.87727
      38.6522C3.08589 37.8418 1.79981 37.8387 1.00468 38.6453C0.209339 39.452 0.206598 40.7629
      0.997768 41.5732L11.5603 52.391C11.5609 52.3916 11.5616 52.3922 11.5622 52.3929C12.3562 53.2037
      13.6465 53.2011 14.4378 52.3928Z"
  />
</svg>
