<svg width="32" height="40" viewBox="0 0 32 40" fill="none" xmlns="http://www.w3.org/2000/svg">
  <path d="M29.1586 0H2.19095C1.60987 0 1.0526 0.239801 0.641714 0.66665C0.230832 1.0935 0 1.67243 0 2.27609V37.6148C0.00126141 38.2176 0.232649 38.7953 0.643395 39.221C1.05414 39.6468 1.6107 39.8859 2.19095 39.8859H29.1586C29.7381 39.8846 30.2934 39.6449 30.7031 39.2193C31.1128 38.7937 31.3436 38.2167 31.3448 37.6148V2.27114C31.3436 1.6692 31.1128 1.09228 30.7031 0.666645C30.2934 0.241007 29.7381 0.00130715 29.1586 0ZM30.3922 37.6099C30.391 37.9493 30.2606 38.2745 30.0295 38.5146C29.7985 38.7546 29.4854 38.8901 29.1586 38.8914H2.19095C1.86334 38.8914 1.54907 38.7565 1.31697 38.5163C1.08487 38.2761 0.953846 37.9502 0.952585 37.6099V2.27114C0.952585 1.92994 1.08306 1.60272 1.31529 1.36146C1.54753 1.12019 1.86251 0.984655 2.19095 0.984655H29.1586C29.4862 0.985964 29.8 1.12208 30.0312 1.3632C30.2624 1.60432 30.3922 1.9308 30.3922 2.27114V37.6099Z" fill="#D2003C" />
  <path d="M26.3601 3.71045H4.98978C4.4087 3.71045 3.85142 3.95025 3.44054 4.37711C3.02966 4.80396 2.79883 5.3829 2.79883 5.98656V14.903C2.80009 15.5058 3.03148 16.0834 3.44222 16.5092C3.85297 16.935 4.40953 17.1741 4.98978 17.1741H26.3601C26.9395 17.1728 27.4949 16.9331 27.9046 16.5075C28.3143 16.0818 28.545 15.5049 28.5463 14.903V5.98656C28.5463 5.38375 28.3161 4.80556 27.9063 4.37885C27.4964 3.95214 26.9404 3.71176 26.3601 3.71045ZM27.5937 14.898C27.5924 15.2375 27.4621 15.5627 27.231 15.8028C26.9999 16.0428 26.6869 16.1783 26.3601 16.1796H4.98978C4.66217 16.1796 4.3479 16.0447 4.1158 15.8045C3.8837 15.5643 3.75267 15.2384 3.75141 14.898V5.98656C3.75141 5.64536 3.88189 5.31813 4.11412 5.07687C4.34636 4.8356 4.66134 4.70006 4.98978 4.70006H26.3601C26.6877 4.70137 27.0015 4.83749 27.2327 5.07861C27.4639 5.31973 27.5937 5.64621 27.5937 5.98656V14.898Z" fill="#D2003C" />
  <path d="M26.3597 19.5444H22.7161C22.1363 19.5465 21.581 19.7873 21.1717 20.2139C20.7625 20.6405 20.5327 21.2182 20.5327 21.8205V31.3306C20.5352 31.9312 20.7661 32.5064 21.1751 32.9308C21.5841 33.3553 22.1379 33.5947 22.7161 33.5968H26.3597C26.9391 33.5955 27.4945 33.3558 27.9042 32.9301C28.3139 32.5045 28.5446 31.9276 28.5459 31.3256V21.8205C28.5459 21.2177 28.3157 20.6395 27.9059 20.2128C27.496 19.7861 26.94 19.5457 26.3597 19.5444ZM27.5933 31.3256C27.5921 31.6651 27.4617 31.9903 27.2306 32.2304C26.9995 32.4704 26.6865 32.6059 26.3597 32.6072H22.7161C22.3898 32.6051 22.0774 32.4693 21.847 32.2293C21.6165 31.9894 21.4866 31.6646 21.4853 31.3256V21.8205C21.4853 21.4807 21.6147 21.1547 21.8453 20.9136C22.0759 20.6726 22.3889 20.5361 22.7161 20.534H26.3597C26.6873 20.5353 27.0011 20.6715 27.2323 20.9126C27.4635 21.1537 27.5933 21.4802 27.5933 21.8205V31.3256Z" fill="#D2003C" />
  <path d="M6.33948 19.5444H3.29123C3.16491 19.5444 3.04376 19.5966 2.95444 19.6894C2.86512 19.7822 2.81494 19.908 2.81494 20.0393V23.2062C2.81494 23.3375 2.86512 23.4633 2.95444 23.5561C3.04376 23.6489 3.16491 23.7011 3.29123 23.7011H6.33948C6.4658 23.7011 6.58695 23.6489 6.67627 23.5561C6.76559 23.4633 6.81577 23.3375 6.81577 23.2062V20.0393C6.81577 19.908 6.76559 19.7822 6.67627 19.6894C6.58695 19.5966 6.4658 19.5444 6.33948 19.5444ZM5.86319 22.7114H3.76752V20.5341H5.86319V22.7114Z" fill="#D2003C" />
  <path d="M12.0549 19.5444H9.00657C8.88025 19.5444 8.7591 19.5966 8.66978 19.6894C8.58045 19.7822 8.53027 19.908 8.53027 20.0393V23.2062C8.53027 23.3375 8.58045 23.4633 8.66978 23.5561C8.7591 23.6489 8.88025 23.7011 9.00657 23.7011H12.0549C12.1812 23.7011 12.3023 23.6489 12.3916 23.5561C12.481 23.4633 12.5312 23.3375 12.5312 23.2062V20.0393C12.5312 19.908 12.481 19.7822 12.3916 19.6894C12.3023 19.5966 12.1812 19.5444 12.0549 19.5444ZM11.5786 22.7114H9.48286V20.5341H11.5786V22.7114Z" fill="#D2003C" />
  <path d="M6.33948 24.4927H3.29123C3.16491 24.4927 3.04376 24.5448 2.95444 24.6376C2.86512 24.7303 2.81494 24.8561 2.81494 24.9873V28.1531C2.81494 28.2843 2.86512 28.4101 2.95444 28.5029C3.04376 28.5956 3.16491 28.6478 3.29123 28.6478H6.33948C6.4658 28.6478 6.58695 28.5956 6.67627 28.5029C6.76559 28.4101 6.81577 28.2843 6.81577 28.1531V24.9873C6.81577 24.8561 6.76559 24.7303 6.67627 24.6376C6.58695 24.5448 6.4658 24.4927 6.33948 24.4927ZM5.86319 27.6584H3.76752V25.482H5.86319V27.6584Z" fill="#D2003C" />
  <path d="M12.0549 24.4927H9.00657C8.88025 24.4927 8.7591 24.5448 8.66978 24.6376C8.58045 24.7303 8.53027 24.8561 8.53027 24.9873V28.1531C8.53027 28.2843 8.58045 28.4101 8.66978 28.5029C8.7591 28.5956 8.88025 28.6478 9.00657 28.6478H12.0549C12.1812 28.6478 12.3023 28.5956 12.3916 28.5029C12.481 28.4101 12.5312 28.2843 12.5312 28.1531V24.9873C12.5312 24.8561 12.481 24.7303 12.3916 24.6376C12.3023 24.5448 12.1812 24.4927 12.0549 24.4927ZM11.5786 27.6584H9.48286V25.482H11.5786V27.6584Z" fill="#D2003C" />
  <path d="M6.33948 29.4404H3.29123C3.16491 29.4404 3.04376 29.4926 2.95444 29.5854C2.86512 29.6781 2.81494 29.804 2.81494 29.9352V33.1019C2.81494 33.2331 2.86512 33.359 2.95444 33.4518C3.04376 33.5445 3.16491 33.5967 3.29123 33.5967H6.33948C6.4658 33.5967 6.58695 33.5445 6.67627 33.4518C6.76559 33.359 6.81577 33.2331 6.81577 33.1019V29.9352C6.81577 29.804 6.76559 29.6781 6.67627 29.5854C6.58695 29.4926 6.4658 29.4404 6.33948 29.4404ZM5.86319 32.6071H3.76752V30.43H5.86319V32.6071Z" fill="#D2003C" />
  <path d="M12.0549 29.4404H9.00657C8.88025 29.4404 8.7591 29.4926 8.66978 29.5854C8.58045 29.6781 8.53027 29.804 8.53027 29.9352V33.1019C8.53027 33.2331 8.58045 33.359 8.66978 33.4518C8.7591 33.5445 8.88025 33.5967 9.00657 33.5967H12.0549C12.1812 33.5967 12.3023 33.5445 12.3916 33.4518C12.481 33.359 12.5312 33.2331 12.5312 33.1019V29.9352C12.5312 29.804 12.481 29.6781 12.3916 29.5854C12.3023 29.4926 12.1812 29.4404 12.0549 29.4404ZM11.5786 32.6071H9.48286V30.43H11.5786V32.6071Z" fill="#D2003C" />
  <path d="M17.7707 19.5444H14.7224C14.5961 19.5444 14.4749 19.5966 14.3856 19.6894C14.2963 19.7822 14.2461 19.908 14.2461 20.0393V23.2062C14.2461 23.3375 14.2963 23.4633 14.3856 23.5561C14.4749 23.6489 14.5961 23.7011 14.7224 23.7011H17.7707C17.897 23.7011 18.0181 23.6489 18.1075 23.5561C18.1968 23.4633 18.247 23.3375 18.247 23.2062V20.0393C18.247 19.908 18.1968 19.7822 18.1075 19.6894C18.0181 19.5966 17.897 19.5444 17.7707 19.5444ZM17.2944 22.7114H15.1987V20.5341H17.2944V22.7114Z" fill="#D2003C" />
  <path d="M17.7707 24.4927H14.7224C14.5961 24.4927 14.4749 24.5448 14.3856 24.6376C14.2963 24.7303 14.2461 24.8561 14.2461 24.9873V28.1531C14.2461 28.2843 14.2963 28.4101 14.3856 28.5029C14.4749 28.5956 14.5961 28.6478 14.7224 28.6478H17.7707C17.897 28.6478 18.0181 28.5956 18.1075 28.5029C18.1968 28.4101 18.247 28.2843 18.247 28.1531V24.9873C18.247 24.8561 18.1968 24.7303 18.1075 24.6376C18.0181 24.5448 17.897 24.4927 17.7707 24.4927ZM17.2944 27.6584H15.1987V25.482H17.2944V27.6584Z" fill="#D2003C" />
  <path d="M17.7707 29.4404H14.7224C14.5961 29.4404 14.4749 29.4926 14.3856 29.5854C14.2963 29.6781 14.2461 29.804 14.2461 29.9352V33.1019C14.2461 33.2331 14.2963 33.359 14.3856 33.4518C14.4749 33.5445 14.5961 33.5967 14.7224 33.5967H17.7707C17.897 33.5967 18.0181 33.5445 18.1075 33.4518C18.1968 33.359 18.247 33.2331 18.247 33.1019V29.9352C18.247 29.804 18.1968 29.6781 18.1075 29.5854C18.0181 29.4926 17.897 29.4404 17.7707 29.4404ZM17.2944 32.6071H15.1987V30.43H17.2944V32.6071Z" fill="#D2003C" />
</svg>