<svg width="39" height="33" viewBox="0 0 39 33" fill="none" xmlns="http://www.w3.org/2000/svg">
  <path d="M36.4998 0H2.20862C1.62286 0 1.06109 0.239801 0.646889 0.66665C0.232693 1.0935 3.5163e-07 1.67243 3.5163e-07 2.27609V30.2918C-7.24997e-05 30.4228 0.0111749 30.5536 0.0336096 30.6826C0.123753 31.2087 0.390552 31.6853 0.787304 32.029C1.18406 32.3728 1.68548 32.5617 2.20382 32.5629H36.495C37.0133 32.5617 37.5148 32.3728 37.9115 32.029C38.3083 31.6853 38.5751 31.2087 38.6652 30.6826C38.6877 30.5536 38.6989 30.4228 38.6988 30.2918V2.27114C38.6976 1.67005 38.4656 1.09388 38.0536 0.668385C37.6417 0.242888 37.0831 0.00261202 36.4998 0ZM0.969872 2.27609C0.969872 1.93489 1.10139 1.60767 1.3355 1.36641C1.56962 1.12514 1.88714 0.989603 2.21822 0.989603H36.5094C36.8397 0.990912 37.156 1.12703 37.389 1.36815C37.6221 1.60927 37.753 1.93575 37.753 2.27609V7.04795H0.96507L0.969872 2.27609ZM17.2138 31.5683C17.2834 31.0342 17.5387 30.5442 17.9323 30.1893C18.326 29.8345 18.8312 29.6389 19.3542 29.6389C19.8772 29.6389 20.3824 29.8345 20.7761 30.1893C21.1697 30.5442 21.4251 31.0342 21.4947 31.5683H17.2138ZM36.4998 31.5683H22.4616C22.3965 30.8556 22.1028 30.1856 21.6271 29.6639C21.1513 29.1423 20.5206 28.7988 19.8344 28.6876V24.7896C19.8344 24.6583 19.7838 24.5325 19.6937 24.4397C19.6037 24.3469 19.4816 24.2948 19.3542 24.2948C19.2269 24.2948 19.1048 24.3469 19.0147 24.4397C18.9247 24.5325 18.8741 24.6583 18.8741 24.7896V28.6876C18.1879 28.7988 17.5571 29.1423 17.0813 29.6639C16.6056 30.1856 16.312 30.8556 16.2468 31.5683H2.20862C1.9473 31.5674 1.69285 31.4821 1.48112 31.3242C1.26939 31.1664 1.11106 30.9441 1.02845 30.6886C1.80306 27.7104 3.25095 24.9635 5.25363 22.6728L7.25483 25.7881C7.29861 25.8562 7.3581 25.9121 7.42798 25.9508C7.49786 25.9895 7.57594 26.0098 7.65526 26.0097C7.74966 26.0098 7.84195 25.9809 7.9203 25.9266C8.02635 25.854 8.1001 25.741 8.12531 25.6124C8.15052 25.4838 8.12513 25.3501 8.05473 25.2408L5.92486 21.9365C7.25516 20.5607 8.77613 19.3958 10.4381 18.4798L12.0802 21.9138C12.108 21.9723 12.1468 22.0245 12.1943 22.0675C12.2418 22.1106 12.297 22.1436 12.3568 22.1646C12.4166 22.1856 12.4799 22.1943 12.543 22.1902C12.6061 22.186 12.6678 22.1691 12.7245 22.1404C12.7813 22.1117 12.832 22.0717 12.8737 22.0228C12.9155 21.9739 12.9475 21.917 12.9679 21.8553C12.9883 21.7937 12.9968 21.7285 12.9927 21.6634C12.9887 21.5984 12.9723 21.5348 12.9444 21.4764L11.2985 18.0355C13.6712 16.8823 16.2515 16.2523 18.8741 16.1859V20.0395C18.8741 20.1707 18.9247 20.2965 19.0147 20.3893C19.1048 20.4821 19.2269 20.5343 19.3542 20.5343C19.4816 20.5343 19.6037 20.4821 19.6937 20.3893C19.7838 20.2965 19.8344 20.1707 19.8344 20.0395V16.1859C22.4293 16.2514 24.9831 16.8682 27.336 17.9979L25.6718 21.4764C25.644 21.5348 25.6275 21.5984 25.6235 21.6634C25.6195 21.7285 25.6279 21.7937 25.6483 21.8553C25.6687 21.917 25.7008 21.9739 25.7425 22.0228C25.7843 22.0717 25.835 22.1117 25.8917 22.1404C25.9485 22.1691 26.0102 22.186 26.0732 22.1902C26.1363 22.1943 26.1996 22.1856 26.2594 22.1646C26.3193 22.1436 26.3745 22.1106 26.422 22.0675C26.4694 22.0245 26.5082 21.9723 26.5361 21.9138L28.1983 18.4383C29.8891 19.3604 31.4355 20.5397 32.7855 21.9365L30.6556 25.2408C30.5852 25.3501 30.5598 25.4838 30.585 25.6124C30.6103 25.741 30.684 25.854 30.7901 25.9266C30.8684 25.9809 30.9607 26.0098 31.0551 26.0097C31.1344 26.0098 31.2125 25.9895 31.2824 25.9508C31.3522 25.9121 31.4117 25.8562 31.4555 25.7881L33.4625 22.6748C35.4634 24.966 36.9097 27.7128 37.6829 30.6906C37.5998 30.9462 37.4409 31.1684 37.2286 31.3259C37.0163 31.4834 36.7614 31.5682 36.4998 31.5683ZM19.3542 15.1904C16.3017 15.1871 13.2897 15.9109 10.5534 17.3052C10.5106 17.3134 10.469 17.3271 10.4295 17.3458C10.3898 17.3666 10.3532 17.3933 10.321 17.4249C6.111 19.6433 2.79726 23.3236 0.96507 27.8158V8.0237H37.7434V27.8158C34.7329 20.4096 27.6241 15.1904 19.3542 15.1904Z" fill="#D2003C" />
  <path d="M3.846 2.3252C3.51363 2.3252 3.18873 2.4268 2.91238 2.61716C2.63603 2.80752 2.42064 3.07809 2.29345 3.39465C2.16626 3.71121 2.13298 4.05954 2.19782 4.3956C2.26266 4.73165 2.42271 5.04034 2.65773 5.28262C2.89274 5.52491 3.19217 5.6899 3.51815 5.75675C3.84413 5.8236 4.18202 5.78929 4.48908 5.65817C4.79615 5.52704 5.0586 5.30499 5.24325 5.0201C5.42791 4.7352 5.52646 4.40026 5.52646 4.05762C5.52596 3.59831 5.34874 3.15797 5.03371 2.83319C4.71867 2.50841 4.29153 2.32572 3.846 2.3252ZM3.846 4.80008C3.70355 4.80008 3.56431 4.75654 3.44587 4.67496C3.32744 4.59337 3.23513 4.47742 3.18062 4.34175C3.12611 4.20608 3.11185 4.05679 3.13963 3.91277C3.16742 3.76874 3.23602 3.63645 3.33674 3.53261C3.43746 3.42878 3.56579 3.35807 3.70549 3.32942C3.8452 3.30077 3.99001 3.31547 4.1216 3.37167C4.2532 3.42786 4.36568 3.52303 4.44482 3.64512C4.52396 3.76722 4.5662 3.91077 4.5662 4.05762C4.5662 4.25453 4.49032 4.44338 4.35525 4.58262C4.22019 4.72186 4.03701 4.80008 3.846 4.80008Z" fill="#D2003C" />
  <path d="M7.68682 2.3252C7.35445 2.3252 7.02955 2.4268 6.7532 2.61716C6.47685 2.80752 6.26146 3.07809 6.13427 3.39465C6.00708 3.71121 5.9738 4.05954 6.03864 4.3956C6.10348 4.73165 6.26353 5.04034 6.49855 5.28262C6.73356 5.52491 7.03299 5.6899 7.35897 5.75675C7.68495 5.8236 8.02284 5.78929 8.3299 5.65817C8.63697 5.52704 8.89942 5.30499 9.08407 5.0201C9.26873 4.7352 9.36728 4.40026 9.36728 4.05762C9.36678 3.59831 9.18956 3.15797 8.87452 2.83319C8.55949 2.50841 8.13235 2.32572 7.68682 2.3252ZM7.68682 4.80008C7.54437 4.80008 7.40513 4.75654 7.28669 4.67496C7.16826 4.59337 7.07595 4.47742 7.02144 4.34175C6.96693 4.20608 6.95267 4.05679 6.98045 3.91277C7.00824 3.76874 7.07684 3.63645 7.17756 3.53261C7.27828 3.42878 7.40661 3.35807 7.54631 3.32942C7.68602 3.30077 7.83083 3.31547 7.96243 3.37167C8.09403 3.42786 8.2065 3.52303 8.28564 3.64512C8.36478 3.76722 8.40702 3.91077 8.40702 4.05762C8.40702 4.25453 8.33114 4.44338 8.19607 4.58262C8.06101 4.72186 7.87783 4.80008 7.68682 4.80008Z" fill="#D2003C" />
  <path d="M11.5281 2.3252C11.1958 2.3252 10.8709 2.4268 10.5945 2.61716C10.3182 2.80752 10.1028 3.07809 9.97557 3.39465C9.84838 3.71121 9.81511 4.05954 9.87995 4.3956C9.94479 4.73165 10.1048 5.04034 10.3399 5.28262C10.5749 5.52491 10.8743 5.6899 11.2003 5.75675C11.5263 5.8236 11.8641 5.78929 12.1712 5.65817C12.4783 5.52704 12.7407 5.30499 12.9254 5.0201C13.11 4.7352 13.2086 4.40026 13.2086 4.05762C13.2081 3.59831 13.0309 3.15797 12.7158 2.83319C12.4008 2.50841 11.9737 2.32572 11.5281 2.3252ZM11.5281 4.80008C11.3857 4.80008 11.2464 4.75654 11.128 4.67496C11.0096 4.59337 10.9173 4.47742 10.8627 4.34175C10.8082 4.20608 10.794 4.05679 10.8218 3.91277C10.8496 3.76874 10.9181 3.63645 11.0189 3.53261C11.1196 3.42878 11.2479 3.35807 11.3876 3.32942C11.5273 3.30077 11.6721 3.31547 11.8037 3.37167C11.9353 3.42786 12.0478 3.52303 12.127 3.64512C12.2061 3.76722 12.2483 3.91077 12.2483 4.05762C12.2483 4.25453 12.1724 4.44338 12.0374 4.58262C11.9023 4.72186 11.7191 4.80008 11.5281 4.80008Z" fill="#D2003C" />
</svg>