<svg viewBox="0 0 24 24" fill="none" xmlns="http://www.w3.org/2000/svg">
<path d="M7.07795 5.34487C7.77253 5.34487 8.3356 4.78181 8.3356 4.08723C8.3356 3.39266 7.77253 2.82959 7.07795 2.82959C6.38338 2.82959 5.82031 3.39266 5.82031 4.08723C5.82031 4.78181 6.38338 5.34487 7.07795 5.34487Z" fill="#EA4335"/>
<path d="M7.07795 10.5851C7.77253 10.5851 8.3356 10.022 8.3356 9.32747C8.3356 8.63289 7.77253 8.06982 7.07795 8.06982C6.38338 8.06982 5.82031 8.63289 5.82031 9.32747C5.82031 10.022 6.38338 10.5851 7.07795 10.5851Z" fill="#EA4335"/>
<path d="M7.07795 15.8253C7.77253 15.8253 8.3356 15.2623 8.3356 14.5677C8.3356 13.8731 7.77253 13.3101 7.07795 13.3101C6.38338 13.3101 5.82031 13.8731 5.82031 14.5677C5.82031 15.2623 6.38338 15.8253 7.07795 15.8253Z" fill="#EA4335"/>
<path d="M7.07795 21.0656C7.77253 21.0656 8.3356 20.5025 8.3356 19.8079C8.3356 19.1134 7.77253 18.5503 7.07795 18.5503C6.38338 18.5503 5.82031 19.1134 5.82031 19.8079C5.82031 20.5025 6.38338 21.0656 7.07795 21.0656Z" fill="#EA4335"/>
<path d="M11.5844 2.9345C12.3948 2.9345 13.0517 2.27759 13.0517 1.46725C13.0517 0.65691 12.3948 0 11.5844 0C10.7741 0 10.1172 0.65691 10.1172 1.46725C10.1172 2.27759 10.7741 2.9345 11.5844 2.9345Z" fill="#FBBC04"/>
<path d="M11.5844 8.17473C12.3948 8.17473 13.0517 7.51782 13.0517 6.70748C13.0517 5.89714 12.3948 5.24023 11.5844 5.24023C10.7741 5.24023 10.1172 5.89714 10.1172 6.70748C10.1172 7.51782 10.7741 8.17473 11.5844 8.17473Z" fill="#FBBC04"/>
<path d="M11.5844 13.415C12.3948 13.415 13.0517 12.7581 13.0517 11.9477C13.0517 11.1374 12.3948 10.4805 11.5844 10.4805C10.7741 10.4805 10.1172 11.1374 10.1172 11.9477C10.1172 12.7581 10.7741 13.415 11.5844 13.415Z" fill="#FBBC04"/>
<path d="M11.5844 18.655C12.3948 18.655 13.0517 17.998 13.0517 17.1877C13.0517 16.3774 12.3948 15.7205 11.5844 15.7205C10.7741 15.7205 10.1172 16.3774 10.1172 17.1877C10.1172 17.998 10.7741 18.655 11.5844 18.655Z" fill="#FBBC04"/>
<path d="M11.5844 23.9999C12.3948 23.9999 13.0517 23.343 13.0517 22.5327C13.0517 21.7223 12.3948 21.0654 11.5844 21.0654C10.7741 21.0654 10.1172 21.7223 10.1172 22.5327C10.1172 23.343 10.7741 23.9999 11.5844 23.9999Z" fill="#FBBC04"/>
<path d="M16.0339 5.86892C16.989 5.86892 17.7632 5.0947 17.7632 4.13966C17.7632 3.18462 16.989 2.4104 16.0339 2.4104C15.0789 2.4104 14.3047 3.18462 14.3047 4.13966C14.3047 5.0947 15.0789 5.86892 16.0339 5.86892Z" fill="#34A853"/>
<path d="M16.0339 11.1091C16.989 11.1091 17.7632 10.3349 17.7632 9.37989C17.7632 8.42485 16.989 7.65063 16.0339 7.65063C15.0789 7.65063 14.3047 8.42485 14.3047 9.37989C14.3047 10.3349 15.0789 11.1091 16.0339 11.1091Z" fill="#34A853"/>
<path d="M16.0339 16.3494C16.989 16.3494 17.7632 15.5752 17.7632 14.6201C17.7632 13.6651 16.989 12.8909 16.0339 12.8909C15.0789 12.8909 14.3047 13.6651 14.3047 14.6201C14.3047 15.5752 15.0789 16.3494 16.0339 16.3494Z" fill="#34A853"/>
<path d="M16.0339 21.5896C16.989 21.5896 17.7632 20.8154 17.7632 19.8604C17.7632 18.9053 16.989 18.1311 16.0339 18.1311C15.0789 18.1311 14.3047 18.9053 14.3047 19.8604C14.3047 20.8154 15.0789 21.5896 16.0339 21.5896Z" fill="#34A853"/>
<path d="M20.4913 8.6986C21.591 8.6986 22.4825 7.80708 22.4825 6.70733C22.4825 5.60758 21.591 4.71606 20.4913 4.71606C19.3915 4.71606 18.5 5.60758 18.5 6.70733C18.5 7.80708 19.3915 8.6986 20.4913 8.6986Z" fill="#4285F4"/>
<path d="M2.57147 7.75525C3.15029 7.75525 3.61951 7.28603 3.61951 6.70721C3.61951 6.1284 3.15029 5.65918 2.57147 5.65918C1.99266 5.65918 1.52344 6.1284 1.52344 6.70721C1.52344 7.28603 1.99266 7.75525 2.57147 7.75525Z" fill="#4285F4"/>
<path d="M2.57147 12.9955C3.15029 12.9955 3.61951 12.5263 3.61951 11.9474C3.61951 11.3686 3.15029 10.8994 2.57147 10.8994C1.99266 10.8994 1.52344 11.3686 1.52344 11.9474C1.52344 12.5263 1.99266 12.9955 2.57147 12.9955Z" fill="#4285F4"/>
<path d="M2.57147 18.2357C3.15029 18.2357 3.61951 17.7665 3.61951 17.1877C3.61951 16.6089 3.15029 16.1396 2.57147 16.1396C1.99266 16.1396 1.52344 16.6089 1.52344 17.1877C1.52344 17.7665 1.99266 18.2357 2.57147 18.2357Z" fill="#4285F4"/>
<path d="M20.4913 13.9388C21.591 13.9388 22.4825 13.0473 22.4825 11.9476C22.4825 10.8478 21.591 9.9563 20.4913 9.9563C19.3915 9.9563 18.5 10.8478 18.5 11.9476C18.5 13.0473 19.3915 13.9388 20.4913 13.9388Z" fill="#4285F4"/>
<path d="M20.4913 19.1788C21.591 19.1788 22.4825 18.2873 22.4825 17.1876C22.4825 16.0878 21.591 15.1963 20.4913 15.1963C19.3915 15.1963 18.5 16.0878 18.5 17.1876C18.5 18.2873 19.3915 19.1788 20.4913 19.1788Z" fill="#4285F4"/>
</svg>
