<svg viewBox="0 0 24 24" fill="none" xmlns="http://www.w3.org/2000/svg">
<path d="M17.2754 2.77667L12.0004 8.05667H17.2754V2.77667ZM17.2754 2.77667V4.22222M11.9882 2V22M17.2754 13.3356L12.0004 8.05556M17.2754 13.3356V20.905L12.0004 15.625M17.2754 13.3356L11.9998 8.05556M17.2754 13.3356L17.2748 15.5944H19.5387V8.05556H11.9998M12.0004 8.05556V15.625M12.0004 8.05556L6.72483 13.3356M12.0004 15.625L6.72483 20.905V13.3356M6.72483 13.3356L6.72427 15.5944H4.46094V8.05556H11.9998M6.72483 13.3356L11.9998 8.05556M11.9998 8.05667L6.72427 2.77667V8.05667H11.9998Z" stroke="white" stroke-width="1.66667" stroke-miterlimit="10"/>
</svg>
