<svg viewBox="0 0 32 32" fill="none" xmlns="http://www.w3.org/2000/svg">
<g clip-path="url(#clip0_45068_2864)">
<path d="M28.3 7.25016C26.4 4.60016 23.65 2.60016 20.55 1.60016C18.5 0.950163 16.35 0.750163 14.1 1.00016C11.5 1.35016 9.15 2.25016 7.15 3.70016C5.05 5.20016 3.45 7.10016 2.35 9.40016C1.4 11.4502 0.849999 13.6002 0.849999 15.6502C0.799999 18.9502 1.75 22.1502 3.65 24.8002C5.6 27.5002 8.25 29.4502 11.4 30.4502C12.9 30.9002 14.4 31.1502 15.95 31.1502C16.55 31.1502 17.2 31.1002 17.8 31.0502C20.4 30.7002 22.75 29.8002 24.75 28.3502C26.85 26.8502 28.45 24.9502 29.55 22.6502C30.5 20.6002 31.05 18.4502 31.05 16.4002C31.2 13.1002 30.2 9.95016 28.3 7.25016ZM28.85 16.3502C28.85 17.0002 28.75 17.6502 28.65 18.3002C25.9 18.6002 23.3 19.5002 20.95 21.0002L17.6 16.3002L27.1 9.50016C28.3 11.6002 28.9 13.9002 28.85 16.3502ZM25.8 7.70016L16.3 14.5002L13 9.85016C15.15 8.10016 16.9 5.85016 18.1 3.35016C18.7 3.45016 19.3 3.60016 19.9 3.75016C22.2 4.45016 24.25 5.85016 25.8 7.70016ZM14.4 3.20016C14.8 3.15016 15.25 3.15016 15.65 3.15016C14.65 5.00016 13.3 6.65016 11.65 8.00016L9.45 4.90016C10.95 4.00016 12.6 3.45016 14.4 3.20016ZM7.65 6.20016L9.85 9.30016C8.05 10.4002 6 11.1502 3.95 11.5002C4.1 11.1002 4.25 10.7002 4.45 10.3502C5.2 8.75016 6.3 7.35016 7.65 6.20016ZM3.15 15.6502C3.15 15.0502 3.2 14.4502 3.35 13.8502C6.15 13.5502 8.8 12.6002 11.2 11.1002L14.5 15.7502L5 22.5502C3.7 20.5002 3.1 18.1002 3.15 15.6502ZM6.25 24.4002L15.75 17.6002L19.1 22.3002C16.95 24.0502 15.2 26.2502 14 28.7502C13.35 28.6502 12.7 28.5002 12.1 28.3002C9.8 27.5502 7.8 26.2502 6.25 24.4002ZM17.6 28.8002C17.25 28.8502 16.85 28.8502 16.5 28.9002C17.5 27.1002 18.85 25.5002 20.45 24.1502L22.55 27.1502C21.05 27.9502 19.4 28.5502 17.6 28.8002ZM24.35 25.8002L22.25 22.8502C24 21.7502 25.95 21.0002 28 20.6502C27.85 21.0002 27.75 21.3002 27.6 21.6502C26.8 23.2502 25.7 24.6502 24.35 25.8002Z" fill="white"/>
</g>
<defs>
<clipPath id="clip0_45068_2864">
<rect width="32" height="32" fill="white"/>
</clipPath>
</defs>
</svg>
