<svg viewBox="0 0 32 24" fill="none" xmlns="http://www.w3.org/2000/svg">
<path d="M28.55 0.899902H12.95C11.55 0.899902 10.4 2.0999 10.4 3.5499V4.8499H8.7V3.8499C8.7 3.2499 8.2 2.7499 7.6 2.7499C7 2.7499 6.5 3.2499 6.5 3.8499V4.8499H4.8C4.1 4.8499 3.45 5.2999 3.2 5.9999L0.95 12.1499L0.75 12.6999L1.15 13.2499V18.4999C1.15 19.4999 1.95 20.2999 2.95 20.2999H3.2C3.7 21.9499 5.2 23.1499 7 23.1499C8.8 23.1499 10.3 21.9499 10.8 20.2999H21.25C21.75 21.9499 23.25 23.1499 25.05 23.1499C26.85 23.1499 28.35 21.9499 28.85 20.2999H29.7C30.5 20.2999 31.2 19.5999 31.2 18.7999V3.5499C31.1 2.0999 30 0.899902 28.55 0.899902ZM5.2 7.0999H10.4V11.4499H3.6L5.2 7.0999ZM7 20.8499C6.05 20.8499 5.3 20.0499 5.3 19.0999C5.3 18.1499 6.05 17.3499 7 17.3499C7.95 17.3499 8.7 18.1499 8.7 19.0999C8.7 20.0499 7.95 20.8499 7 20.8499ZM7 15.1499C5.4 15.1499 4 16.1499 3.4 17.5499V13.7499H10.4V17.1499C9.7 15.8999 8.45 15.1499 7 15.1499ZM25.05 20.8499C24.1 20.8499 23.35 20.0499 23.35 19.0999C23.35 18.1499 24.1 17.3499 25.05 17.3499C26 17.3499 26.75 18.1499 26.75 19.0999C26.75 20.0499 25.95 20.8499 25.05 20.8499ZM25.05 15.1499C23.25 15.1499 21.7 16.3999 21.25 18.0499H12.65V3.5499C12.65 3.2999 12.8 3.1499 12.95 3.1499H28.6C28.75 3.1499 28.9 3.3499 28.9 3.5999V18.0499H28.85C28.35 16.3499 26.85 15.1499 25.05 15.1499Z" fill="white"/>
<path d="M23.4 8.79971H21.9V7.29971C21.9 6.69971 21.4 6.19971 20.8 6.19971C20.2 6.19971 19.7 6.69971 19.7 7.29971V8.79971H18.2C17.6 8.79971 17.1 9.29971 17.1 9.89971C17.1 10.4997 17.6 10.9997 18.2 10.9997H19.7V12.4997C19.7 13.0997 20.2 13.5997 20.8 13.5997C21.4 13.5997 21.9 13.0997 21.9 12.4997V10.9997H23.4C24 10.9997 24.5 10.4997 24.5 9.89971C24.5 9.29971 24 8.79971 23.4 8.79971Z" fill="white"/>
</svg>
