<svg viewBox="0 0 80 80" fill="none" xmlns="http://www.w3.org/2000/svg">
<path d="M52.002 28V29.3333C52.002 37.3333 46.63 42.6666 40.002 42.6666C33.374 42.6666 28.002 37.3333 28.002 29.3333V22.2186" stroke="white" stroke-width="2" stroke-miterlimit="10"/>
<path d="M34.6686 24C28.0406 24 24.002 20 24.002 14.6667C24.002 8.95868 28.002 4.91602 28.002 4.91602C32.2793 9.43602 37.3353 10.6667 44.002 10.6667C49.3353 10.6667 54.6686 13.512 54.6686 18.6667C54.6686 21.2093 53.6513 23.5147 52.002 25.1987V29.3333" stroke="white" stroke-width="2" stroke-miterlimit="10"/>
<path d="M34.668 41.3933C34.668 47.432 29.752 48.032 22.1893 52.8066C14.7986 57.4746 14.668 70.6666 14.668 76" stroke="white" stroke-width="2" stroke-miterlimit="10"/>
<path d="M45.334 41.3933C45.334 47.432 50.25 48.032 57.8127 52.8066C65.2033 57.4746 65.334 70.6666 65.334 76" stroke="white" stroke-width="2" stroke-miterlimit="10"/>
<path d="M22.668 68V76" stroke="white" stroke-width="2" stroke-miterlimit="10"/>
<path d="M57.334 68V76" stroke="white" stroke-width="2" stroke-miterlimit="10"/>
<path d="M48.026 47.048C47.426 48.96 43.9953 50.6666 40.002 50.6666C36.0153 50.6666 32.61 48.956 32.002 47.048" stroke="white" stroke-width="2" stroke-miterlimit="10"/>
<path d="M48.0254 47.048C50.3854 48.8306 50.6681 53.3333 50.6681 57.3333" stroke="white" stroke-width="2" stroke-miterlimit="10"/>
<path d="M32.0013 47.048V54.6666L28.532 57.2693C27.3586 58.1493 26.668 59.5293 26.668 60.996V65.3586C26.668 66.2186 26.8706 67.0666 27.2586 67.8346L28.492 70.3373" stroke="white" stroke-width="2" stroke-miterlimit="10"/>
<path d="M32.002 54.6666L35.4713 57.2693C36.6446 58.1493 37.3353 59.5306 37.3353 60.996V65.6613C37.3353 66.3226 37.178 66.9733 36.8753 67.5613L35.5393 70.2826" stroke="white" stroke-width="2" stroke-miterlimit="10"/>
<path d="M50.668 65.3334C52.8771 65.3334 54.668 63.5425 54.668 61.3334C54.668 59.1242 52.8771 57.3334 50.668 57.3334C48.4588 57.3334 46.668 59.1242 46.668 61.3334C46.668 63.5425 48.4588 65.3334 50.668 65.3334Z" stroke="white" stroke-width="2" stroke-miterlimit="10"/>
</svg>
