<svg viewBox="0 0 32 32" fill="none" xmlns="http://www.w3.org/2000/svg">
<path d="M30.5 14.9002H29.4V14.8002C29.4 12.8502 27.8 11.2002 25.8 11.2002C23.8 11.2002 22.2 12.8002 22.2 14.8002V14.9002H9.8V14.8002C9.8 12.8502 8.2 11.2002 6.2 11.2002C4.2 11.2002 2.6 12.8002 2.6 14.8002V14.9002H1.5C0.900002 14.9002 0.400002 15.4002 0.400002 16.0002C0.400002 16.6002 0.900002 17.1002 1.5 17.1002H2.65V17.2002C2.65 19.1502 4.25 20.8002 6.25 20.8002C8.25 20.8002 9.85 19.2002 9.85 17.2002V17.1002H22.3V17.2002C22.3 19.1502 23.9 20.8002 25.9 20.8002C27.9 20.8002 29.5 19.2002 29.5 17.2002V17.1002H30.5C31.1 17.1002 31.6 16.6002 31.6 16.0002C31.6 15.4002 31.1 14.9002 30.5 14.9002ZM7.55 17.2502C7.55 18.0002 6.95 18.6002 6.2 18.6002C5.45 18.6002 4.85 18.0002 4.85 17.2502V14.8002C4.85 14.0502 5.45 13.4502 6.2 13.4502C6.95 13.4502 7.55 14.0502 7.55 14.8002V17.2502ZM27.15 17.2502C27.15 18.0002 26.55 18.6002 25.8 18.6002C25.05 18.6002 24.5 17.9502 24.5 17.2502V14.8002C24.5 14.0502 25.1 13.4502 25.85 13.4502C26.6 13.4502 27.2 14.0502 27.2 14.8002V17.2502H27.15Z" fill="white"/>
</svg>
