<svg viewBox="0 0 60 60" fill="none" xmlns="http://www.w3.org/2000/svg">
<path d="M30 50.54V57" stroke="white" stroke-width="2" stroke-miterlimit="10"/>
<path d="M30.008 33.312C28.017 36.14 24.721 38 21 38C14.925 38 10 33.075 10 27V18.501" stroke="white" stroke-width="2" stroke-miterlimit="10"/>
<path d="M14 20C10 20 7 16 7 12C7 6.537 12 3 12 3C12 3 12.322 10 21 10C31 10 32 15 32 19V23.993" stroke="white" stroke-width="2" stroke-miterlimit="10"/>
<path d="M3 58C3 49 4.561 45.882 11 44C17 42.246 17 37.25 17 37.25" stroke="white" stroke-width="2" stroke-miterlimit="10"/>
<path d="M29.5 44.3609C25.944 41.8299 25.439 37.0669 25.439 37.0669" stroke="white" stroke-width="2" stroke-miterlimit="10"/>
<path d="M10 24C8 24 6 25 6 28V32" stroke="white" stroke-width="2" stroke-miterlimit="10"/>
<path d="M14.28 57H7.72C7.322 57 7 56.678 7 56.28V53.72C7 53.322 7.322 53 7.72 53H14.28C14.678 53 15 53.322 15 53.72V56.28C15 56.678 14.678 57 14.28 57Z" stroke="white" stroke-width="2" stroke-miterlimit="10"/>
<path d="M49.999 20.04C49.984 19.045 49.853 17.675 49.308 16.91C48.786 16.177 48.317 16 47.526 16C46.151 16 41.187 18.453 39.999 19.5C39.429 20.002 38.999 20.533 38.999 21.5C38.999 22.881 40.118 24 41.499 24C42.061 24 42.764 23.813 43.182 23.5" stroke="white" stroke-width="2" stroke-miterlimit="10"/>
<path d="M53 24.193C53 23.193 52.847 21.693 52.254 20.903C51.626 20.067 51.166 20 50.375 20C49.229 20 45.146 21.729 44 22.5C43.393 22.956 43 23.533 43 24.5C43 25.881 44.119 27 45.5 27C46.062 27 46.571 26.833 46.989 26.52" stroke="white" stroke-width="2" stroke-miterlimit="10"/>
<path d="M48.511 31C47.131 31 46 29.881 46 28.5C46 27.464 46.549 26.665 47.527 26.196C48.115 25.914 52.92 24 54 24C55.161 24 56 24.853 56 26V29.247" stroke="white" stroke-width="2" stroke-miterlimit="10"/>
<path d="M45.001 52.598C45.01 49.673 45.144 46.173 46.791 44.137C50 40.167 57 39.315 57 31C57 30.128 56.368 29 55 29C53.14 29 51.091 29.378 49.718 30.033C48.741 30.499 48 31.39 48 32.5C48 33.881 49.112 35 50.582 35C52.203 35 52.734 34.443 53.55 33.354" stroke="white" stroke-width="2" stroke-miterlimit="10"/>
<path d="M35.986 52.748C35.901 51.562 35.351 46.395 32 42C30.398 39.898 29.99 38.234 30 36C30.011 33.452 30.306 30.68 28.267 26.64C28.095 26.285 28 25.824 28 25.5C28 24.119 29.119 23 30.5 23C31.065 23 31.582 23.186 32 23.502" stroke="white" stroke-width="2" stroke-miterlimit="10"/>
<path d="M39.001 31.938C41.142 33.127 42 35.965 42 38" stroke="white" stroke-width="2" stroke-miterlimit="10"/>
<path d="M45.384 47.4719C48.16 48.0049 50 48.9379 50 49.9999C50 51.6569 45.523 52.9999 40 52.9999C34.963 52.9999 30.795 51.8829 30.101 50.4289" stroke="white" stroke-width="2" stroke-miterlimit="10"/>
<path d="M50 50V57" stroke="white" stroke-width="2" stroke-miterlimit="10"/>
<path d="M32.082 42.109C29.339 45.114 25.39 47 21 47C12.716 47 6 40.284 6 32" stroke="white" stroke-width="2" stroke-miterlimit="10"/>
<path d="M38 31.7471C38 39.0001 30.227 54.0001 24.609 54.0001C21.561 54.0001 21 51.3201 21 50.3201C21 49.0701 21 47.0001 21 47.0001" stroke="white" stroke-width="2" stroke-miterlimit="10"/>
<path d="M46.096 29.181C44.629 30.906 42.442 32 40 32C35.582 32 32 28.418 32 24C32 19.582 35.582 16 40 16C41.514 16 42.929 16.42 44.136 17.151" stroke="white" stroke-width="2" stroke-miterlimit="10"/>
</svg>
