<svg viewBox="0 0 32 32" fill="none" xmlns="http://www.w3.org/2000/svg">
<path d="M13.45 15.8504H14.85V17.2504C14.85 17.8504 15.35 18.3504 15.95 18.3504C16.55 18.3504 17.05 17.8504 17.05 17.2504V15.8504H18.45C19.05 15.8504 19.55 15.3504 19.55 14.7504C19.55 14.1504 19.05 13.6504 18.45 13.6504H17.05V12.2504C17.05 11.6504 16.55 11.1504 15.95 11.1504C15.35 11.1504 14.85 11.6504 14.85 12.2504V13.6504H13.45C12.85 13.6504 12.35 14.1504 12.35 14.7504C12.35 15.3504 12.85 15.8504 13.45 15.8504Z" fill="white"/>
<path d="M28.05 7.2502H20.95V5.8502C20.95 3.8502 19.3 2.2002 17.3 2.2002H14.75C12.75 2.2002 11.1 3.8502 11.1 5.8502V7.2502H3.94999C2.24999 7.2502 0.899994 8.6002 0.899994 10.3002V16.3502C0.899994 17.3502 1.39999 18.2502 2.14999 18.7502V27.0002C2.14999 28.5502 3.39999 29.8502 4.94999 29.8502H27.1C28.65 29.8502 29.9 28.5502 29.9 27.0002V18.7502C30.65 18.2002 31.15 17.3002 31.15 16.3002V10.3002C31.1 8.6002 29.75 7.2502 28.05 7.2502ZM13.3 5.8002C13.3 5.0002 13.95 4.4002 14.7 4.4002H17.25C18.05 4.4002 18.65 5.0502 18.65 5.8002V7.2002H13.3V5.8002ZM3.09999 10.3002C3.09999 9.8502 3.49999 9.5002 3.94999 9.5002H11.1H21H28.15C28.6 9.5002 28.95 9.8502 28.95 10.3002V16.3502C28.95 16.7002 28.7 17.0002 28.45 17.0502C27.95 17.1002 27.55 17.2002 27.2 17.3002L19.8 19.3502C17.35 20.0502 14.75 20.0502 12.3 19.3502L4.84999 17.2502C4.49999 17.1502 4.14999 17.1002 3.84999 17.0502H3.74999C3.39999 16.9502 3.14999 16.7002 3.14999 16.3502V10.3002H3.09999ZM27.05 27.6002H4.94999C4.64999 27.6002 4.39999 27.3502 4.39999 27.0002V19.5002L11.6 21.5002C13.05 21.9002 14.5 22.1002 15.95 22.1002C17.4 22.1002 18.9 21.9002 20.3 21.5002L27.55 19.4502V27.0002C27.6 27.3502 27.35 27.6002 27.05 27.6002Z" fill="white"/>
</svg>
