<svg viewBox="0 0 32 32" fill="none" xmlns="http://www.w3.org/2000/svg">
<path d="M21.15 8.4999L19.9 2.7999C19.65 1.6499 18.65 0.899902 17.5 0.899902H14.5C13.35 0.899902 12.35 1.6999 12.1 2.7999L10.8 8.4999C9.15001 8.5999 7.85001 9.9499 7.85001 11.5999V20.3499C7.85001 21.9999 9.15001 23.3499 10.8 23.4499L12.1 29.1999C12.35 30.3499 13.35 31.0999 14.5 31.0999H17.5C18.65 31.0999 19.65 30.2999 19.9 29.1999L21.15 23.4999C22.8 23.3999 24.1 22.0499 24.1 20.3999V11.6499C24.1 9.9499 22.8 8.5999 21.15 8.4999ZM14.3 3.2999C14.3 3.1999 14.4 3.1499 14.5 3.1499H17.5C17.6 3.1499 17.7 3.1999 17.7 3.2999L18.85 8.4999H13.1L14.3 3.2999ZM11 10.7499H21C21.5 10.7499 21.9 11.1499 21.9 11.6499V15.7999L18.4 13.7999C18.05 13.5999 17.65 13.5999 17.3 13.7999L13.5 15.9499L10.15 14.0499V11.6499C10.1 11.1499 10.5 10.7499 11 10.7499ZM17.7 28.6999C17.7 28.7999 17.6 28.8499 17.5 28.8499H14.5C14.4 28.8499 14.3 28.7999 14.3 28.6999L13.1 23.4999H18.85L17.7 28.6999ZM21 21.2499H11C10.5 21.2499 10.1 20.8499 10.1 20.3499V16.6499L12.85 18.2499C13.2 18.4499 13.6 18.4499 13.95 18.2499L17.75 16.0999L21.85 18.4499V20.3999C21.9 20.8499 21.5 21.2499 21 21.2499Z" fill="white"/>
</svg>
