<svg viewBox="0 0 32 32" fill="none" xmlns="http://www.w3.org/2000/svg">
<path d="M27.65 10.15L17.85 1.55C16.8 0.65 15.2 0.65 14.15 1.55L4.34999 10.15C3.74999 10.7 3.39999 11.45 3.39999 12.25V28.35C3.39999 29.9 4.64999 31.15 6.19999 31.15H10.5C12.05 31.15 13.3 29.9 13.3 28.35V22.75C13.3 22.45 13.55 22.2 13.85 22.2H18.15C18.45 22.2 18.7 22.45 18.7 22.75V28.3C18.7 29.85 19.95 31.1 21.5 31.1H25.8C27.35 31.1 28.6 29.85 28.6 28.3V12.25C28.6 11.45 28.25 10.65 27.65 10.15ZM26.35 28.35C26.35 28.65 26.1 28.9 25.8 28.9H21.5C21.2 28.9 20.95 28.65 20.95 28.35V22.75C20.95 21.2 19.7 19.95 18.15 19.95H13.85C12.3 19.95 11.05 21.2 11.05 22.75V28.3C11.05 28.6 10.8 28.85 10.5 28.85H6.19999C5.89999 28.85 5.64999 28.6 5.64999 28.3V12.25C5.64999 12.1 5.69999 11.95 5.84999 11.85L15.65 3.25C15.85 3.05 16.15 3.05 16.35 3.25L26.15 11.8C26.25 11.9 26.35 12.05 26.35 12.2V28.35Z" fill="white"/>
<path d="M18.55 9.75C17.95 9.75 17.45 10.25 17.45 10.85V12.25H14.6V10.85C14.6 10.25 14.1 9.75 13.5 9.75C12.9 9.75 12.4 10.25 12.4 10.85V16C12.4 16.6 12.9 17.1 13.5 17.1C14.1 17.1 14.6 16.6 14.6 16V14.6H17.45V16C17.45 16.6 17.95 17.1 18.55 17.1C19.15 17.1 19.65 16.6 19.65 16V10.9C19.65 10.25 19.15 9.75 18.55 9.75Z" fill="white"/>
</svg>
