<svg viewBox="0 0 32 32" fill="none" xmlns="http://www.w3.org/2000/svg">
<path d="M23.75 28.85H18.45V26C18.6 26 18.7 26 18.85 25.95C23.75 25.35 27.45 20.9 27.45 15.65C27.45 12.65 26.3 9.95 24.25 8C24.05 7.8 23.85 7.65 23.65 7.45L24.45 6.2C24.9 5.5 25.05 4.65 24.9 3.85C24.75 3.05 24.25 2.35 23.55 1.9L22.75 1.35C22.05 0.9 21.2 0.75 20.4 0.9C19.6 1.05 18.9 1.55 18.45 2.25L12.85 10.75C11.9 12.2 12.3 14.15 13.75 15.05L14.55 15.6C15.1 15.95 15.65 16.1 16.25 16.1C17.25 16.1 18.25 15.6 18.85 14.7L22.35 9.35C22.45 9.45 22.55 9.5 22.65 9.6C24.3 11.15 25.15 13.3 25.15 15.65C25.15 19.8 22.3 23.25 18.55 23.7C18.25 23.75 17.95 23.75 17.65 23.75C17.25 23.75 16.9 23.75 16.55 23.65C14.65 23.35 12.95 22.3 11.8 20.7H15.3C15.9 20.7 16.4 20.2 16.4 19.6C16.4 19 15.9 18.5 15.3 18.5H5.70001C5.10001 18.5 4.60001 19 4.60001 19.6C4.60001 20.2 5.10001 20.7 5.70001 20.7H9.15001C10.6 23.45 13.2 25.4 16.15 25.85V28.75H10.85C10.25 28.75 9.75001 29.25 9.75001 29.85C9.75001 30.45 10.25 30.95 10.85 30.95H23.75C24.35 30.95 24.85 30.45 24.85 29.85C24.85 29.25 24.4 28.85 23.75 28.85ZM17 13.5C16.75 13.9 16.2 14 15.8 13.75L15 13.2C14.6 12.95 14.5 12.4 14.75 12L20.25 3.55C20.4 3.35 20.55 3.2 20.8 3.15C20.85 3.15 20.9 3.15 21 3.15C21.15 3.15 21.35 3.2 21.5 3.3L22.3 3.85C22.5 4 22.65 4.15 22.7 4.4C22.75 4.65 22.7 4.85 22.6 5.05L17 13.5Z" fill="white"/>
</svg>
