<svg viewBox="0 0 32 32" fill="none" xmlns="http://www.w3.org/2000/svg">
<path d="M17.8 24.7502C16.7 24.7502 15.85 24.1002 15.5 23.1002L11.1 9.45022L6.14999 20.8002C5.74999 21.6502 4.89999 22.2502 3.94999 22.2502H1.99999C1.39999 22.2502 0.899994 21.7502 0.899994 21.1502C0.899994 20.5502 1.39999 20.0002 1.99999 20.0002H3.94999C3.99999 20.0002 4.04999 19.9502 4.09999 19.9002L9.04999 8.60022C9.34999 7.75022 10.25 7.20022 11.2 7.25022C12.15 7.25022 13 7.85022 13.3 8.75022L17.7 22.4002C17.7 22.4502 17.75 22.5002 17.85 22.5002C17.95 22.5002 18 22.4502 18 22.4002L19.8 17.5002C20.15 16.7502 20.85 16.2002 21.7 16.1002H21.8C22.6 16.0502 23.4 16.4502 23.9 17.2002L23.95 17.3002L26 21.2002C26 21.2502 26.1 21.3002 26.15 21.3002H30.15C30.75 21.3002 31.25 21.8002 31.25 22.4002C31.25 23.0002 30.6 23.5002 30 23.5002H26C25.1 23.5002 24.3 23.0002 23.85 22.2002L21.85 18.3502C21.85 18.3502 21.8 18.3502 21.8 18.4002L20.05 23.2002C19.7 24.1502 18.85 24.7502 17.8 24.7502ZM11.1 9.45022C11.1 9.50022 11.1 9.50022 11.1 9.45022V9.45022Z" fill="white"/>
</svg>
