<svg viewBox="0 0 32 32" fill="none" xmlns="http://www.w3.org/2000/svg">
<g clip-path="url(#clip0_45068_2857)">
<path d="M10.45 31.0999C8 31.0999 5.55 30.1499 3.7 28.2999C1.85 26.4999 0.9 24.0999 0.9 21.5499C0.9 18.9999 1.9 16.5999 3.7 14.7999L14.8 3.6999C16.6 1.8999 19 0.899902 21.55 0.899902C24.1 0.899902 26.5 1.8999 28.3 3.6999C32.05 7.4499 32.05 13.4999 28.3 17.2499L17.2 28.2999C15.35 30.1999 12.9 31.0999 10.45 31.0999ZM10 11.5999L5.25 16.3499C3.85 17.7499 3.1 19.5499 3.1 21.5499C3.1 23.4999 3.85 25.3499 5.25 26.7499C6.65 28.1499 8.45 28.8999 10.45 28.8999C12.4 28.8999 14.25 28.1499 15.65 26.7499L20.4 21.9999L10 11.5999ZM11.6 9.9999L22 20.3999L26.75 15.6499C28.15 14.2499 28.9 12.4499 28.9 10.4499C28.9 8.4999 28.15 6.6499 26.75 5.2499C25.35 3.8499 23.5 3.0999 21.55 3.0999C19.6 3.0999 17.75 3.8499 16.35 5.2499L11.6 9.9999Z" fill="white"/>
</g>
<defs>
<clipPath id="clip0_45068_2857">
<rect width="32" height="32" fill="white"/>
</clipPath>
</defs>
</svg>
