<svg viewBox="0 0 32 32" fill="none" xmlns="http://www.w3.org/2000/svg">
<path d="M27.3 21.2501H23.8C22.15 21.2501 20.7 22.3001 20.2 23.8001H9.7C7.85001 23.8001 6.35001 22.3001 6.35001 20.4501C6.35001 18.6001 7.85001 17.1001 9.7 17.1001H22.35C25.45 17.1001 27.95 14.6001 27.95 11.5001C27.95 8.4001 25.45 5.9001 22.35 5.9001H12.05C12.05 3.8001 10.3 2.1001 8.20001 2.1001H4.70001C2.60001 2.1001 0.850006 3.8001 0.850006 5.9501V6.9001C0.850006 9.0001 2.55001 10.7501 4.70001 10.7501H8.20001C9.85001 10.7501 11.3 9.7001 11.8 8.2001H22.3C24.15 8.2001 25.65 9.7001 25.65 11.5501C25.65 13.4001 24.15 14.9001 22.3 14.9001H9.65C6.55 14.9001 4.05001 17.4001 4.05001 20.5001C4.05001 23.6001 6.55 26.1001 9.65 26.1001H19.95C19.95 28.2001 21.7 29.9001 23.8 29.9001H27.3C29.4 29.9001 31.15 28.2001 31.15 26.0501V25.1001C31.1 22.9501 29.4 21.2501 27.3 21.2501ZM9.8 6.9001C9.8 7.8001 9.10001 8.5001 8.20001 8.5001H4.70001C3.80001 8.5001 3.10001 7.8001 3.10001 6.9001V6.0001C3.10001 5.1001 3.80001 4.4001 4.70001 4.4001H8.20001C9.10001 4.4001 9.8 5.1001 9.8 6.0001V6.9001ZM28.9 26.0001C28.9 26.9001 28.2 27.6001 27.3 27.6001H23.8C22.9 27.6001 22.2 26.9001 22.2 26.0001V25.0501C22.2 24.1501 22.9 23.4501 23.8 23.4501H27.3C28.2 23.4501 28.9 24.1501 28.9 25.0501V26.0001Z" fill="white"/>
</svg>
