<svg viewBox="0 0 32 32" fill="none" xmlns="http://www.w3.org/2000/svg">
<path d="M27.7 0.899902H24.5C23.9 0.899902 23.4 1.3999 23.4 1.9999V3.2499C23.4 3.8499 23.9 4.3499 24.5 4.3499C25.1 4.3499 25.6 3.8499 25.6 3.2499V3.0999H27.15V11.7999C27.15 14.8999 24.65 17.3999 21.55 17.3999H21C17.9 17.3999 15.4 14.8999 15.4 11.7999V3.0999H16.95V3.2499C16.95 3.8499 17.45 4.3499 18.05 4.3499C18.65 4.3499 19.15 3.8499 19.15 3.2499V1.9999C19.15 1.3999 18.65 0.899902 18.05 0.899902H14.85C13.9 0.899902 13.1 1.6999 13.1 2.6499V11.8499C13.1 16.0999 16.5 19.5499 20.75 19.6999V25.9999C20.75 27.5999 19.55 28.8999 18.05 28.8999H10.7C9.1 28.8999 7.8 27.5999 7.8 25.9999V21.8999C9.6 21.3999 10.95 19.7999 10.95 17.8499C10.95 15.5499 9.05 13.6499 6.75 13.6499C4.45 13.6499 2.55 15.5499 2.55 17.8499C2.55 19.7499 3.85 21.3999 5.6 21.8999V25.9999C5.6 28.8499 7.9 31.1499 10.75 31.1499H18.15C20.9 31.1499 23.1 28.8499 23.1 25.9999V19.4999C26.7 18.7999 29.45 15.5999 29.45 11.7999V2.6499C29.45 1.6499 28.65 0.899902 27.7 0.899902ZM4.8 17.7999C4.8 16.6999 5.7 15.8499 6.75 15.8499C7.8 15.8499 8.7 16.7499 8.7 17.7999C8.7 18.8999 7.8 19.7499 6.75 19.7499C5.7 19.7499 4.8 18.8999 4.8 17.7999Z" fill="white"/>
</svg>
