<svg viewBox="0 0 32 32" fill="none" xmlns="http://www.w3.org/2000/svg">
<g clip-path="url(#clip0_45068_2861)">
<path d="M30.8 7.6498L24.35 1.1998C23.9 0.749805 23.2 0.749805 22.75 1.1998C22.3 1.6498 22.3 2.3498 22.75 2.7998L25.15 5.1998L22.7 7.6498L22.2 7.1498C20.7 5.6498 18.25 5.6498 16.75 7.1498L7.79999 16.1998C6.89999 17.0998 6.54999 18.3498 6.74999 19.5498L5.49999 20.7498C4.79999 21.4998 4.39999 22.4498 4.39999 23.4998C4.39999 24.1998 4.59999 24.8998 4.94999 25.4998L1.19999 29.2498C0.749988 29.6998 0.749988 30.3998 1.19999 30.8498C1.39999 31.0498 1.69999 31.1998 1.99999 31.1998C2.29999 31.1998 2.59999 31.0998 2.79999 30.8498L6.54999 27.0998C7.14999 27.4498 7.79999 27.6498 8.54999 27.6498C9.59999 27.6498 10.55 27.2498 11.3 26.4998L12.5 25.2998C12.7 25.3498 12.9 25.3498 13.15 25.3498C14.15 25.3498 15.1 24.9498 15.9 24.1998L24.95 15.1498C26.45 13.6498 26.45 11.1998 24.95 9.6998L24.45 9.1998L26.9 6.7498L29.3 9.1498C29.5 9.3498 29.8 9.4998 30.1 9.4998C30.4 9.4998 30.7 9.3998 30.9 9.1498C31.25 8.7998 31.25 8.0498 30.8 7.6498ZM7.39999 24.8998L7.14999 24.6498C6.84999 24.3498 6.69999 23.9498 6.69999 23.4998C6.69999 23.0498 6.84999 22.6498 7.14999 22.3498L7.84999 21.6498L10.4 24.1998L9.69999 24.8998C9.04999 25.4998 7.99999 25.4998 7.39999 24.8998ZM23.25 13.5998L14.2 22.5998C13.55 23.1998 12.55 23.2498 11.95 22.5998L9.39999 20.0498C8.74999 19.3998 8.74999 18.3998 9.39999 17.7998L18.45 8.7498C19.1 8.0998 20.1 8.0998 20.7 8.7498L23.25 11.2998C23.9 11.9498 23.9 12.9498 23.25 13.5998Z" fill="white"/>
</g>
<defs>
<clipPath id="clip0_45068_2861">
<rect width="32" height="32" fill="white"/>
</clipPath>
</defs>
</svg>
