<svg viewBox="0 0 32 32" fill="none" xmlns="http://www.w3.org/2000/svg">
<path d="M26.75 0.899902H5.25002C3.55002 0.899902 2.15002 2.2999 2.15002 3.9999V27.9999C2.15002 29.6999 3.55002 31.0999 5.25002 31.0999H26.7C28.4 31.0999 29.8 29.6999 29.8 27.9999V3.9999C29.85 2.2999 28.45 0.899902 26.75 0.899902ZM27.6 27.9999C27.6 28.4999 27.2 28.8999 26.7 28.8999H5.25002C4.75002 28.8999 4.35002 28.4999 4.35002 27.9999V3.9999C4.35002 3.4999 4.75002 3.0999 5.25002 3.0999H26.7C27.2 3.0999 27.6 3.4999 27.6 3.9999V27.9999Z" fill="white"/>
<path d="M22.9 6.9998C18.3 6.1498 13.65 6.1498 9.10004 6.9998C8.65004 7.0998 8.20004 7.3498 7.95004 7.7498C7.70004 8.0998 7.65004 8.5498 7.70004 8.9498L8.65004 13.5998C8.80004 14.3498 9.50004 14.8998 10.25 14.8998C10.35 14.8998 10.45 14.8998 10.55 14.8498C14.15 14.1498 17.8 14.1498 21.4 14.8498C22.25 14.9998 23.15 14.4498 23.3 13.5998L24.25 8.9498C24.35 8.5498 24.25 8.0998 24 7.7498C23.8 7.3998 23.4 7.0998 22.9 6.9998ZM21.25 12.5498C19.8 12.2998 18.3 12.1498 16.85 12.0998L16.25 10.2998C16.05 9.6998 15.4 9.39981 14.8 9.59981C14.2 9.79981 13.9 10.4498 14.1 11.0498L14.45 12.0998C13.2 12.1498 11.95 12.2998 10.7 12.4998L10 9.0498C13.95 8.3498 17.95 8.3498 21.9 9.0498L21.25 12.5498Z" fill="white"/>
</svg>
