<svg viewBox="0 0 32 32" fill="none" xmlns="http://www.w3.org/2000/svg">
<path d="M20.1 26.1502C18.55 27.9002 16.3 28.8502 13.95 28.8502C9.35002 28.8502 5.60002 25.1002 5.60002 20.5002C5.60002 17.8002 6.85002 15.3502 9.00002 13.8002C9.50002 13.4502 9.60002 12.7502 9.25002 12.2502C8.90002 11.7502 8.20002 11.6502 7.70002 12.0002C5.00002 13.9502 3.40002 17.1502 3.40002 20.5002C3.40002 26.3502 8.15002 31.1002 14 31.1002C17 31.1002 19.85 29.8502 21.85 27.6502C22.25 27.2002 22.25 26.5002 21.75 26.0502C21.25 25.6502 20.5 25.7002 20.1 26.1502Z" fill="white"/>
<path d="M27.45 24.4502L25.45 24.6002L24.8 17.5002C24.75 16.7502 24.15 16.1502 23.35 16.1502H13.4L13.15 12.0502H19.8C20.4 12.0502 20.9 11.5502 20.9 10.9502C20.9 10.3502 20.4 9.85019 19.8 9.85019H13.05L12.95 8.40019C14.75 8.10019 16.15 6.55019 16.15 4.70019C16.15 2.6502 14.45 0.950195 12.4 0.950195C10.35 0.950195 8.65002 2.6502 8.65002 4.70019C8.65002 6.15019 9.50002 7.4502 10.7 8.0502L11.25 17.1002C11.25 17.8502 11.9 18.4502 12.7 18.4502H22.7L23.3 25.6502V25.8002C23.45 26.5002 24.05 27.0002 24.75 27.0002H24.8L27.65 26.7502C28.25 26.7002 28.75 26.1502 28.7 25.5502C28.6 24.8502 28.05 24.4002 27.45 24.4502ZM12.35 3.10019C13.2 3.10019 13.85 3.80019 13.85 4.60019C13.85 5.4002 13.15 6.10019 12.35 6.10019C11.55 6.10019 10.85 5.4002 10.85 4.60019C10.85 3.80019 11.55 3.10019 12.35 3.10019Z" fill="white"/>
</svg>
