<svg width="61" height="60" viewBox="0 0 61 60" fill="none" xmlns="http://www.w3.org/2000/svg">
<path d="M49 12H51C52.657 12 54 13.343 54 15V41" stroke="black" stroke-width="2" stroke-miterlimit="10"/>
<path d="M51 12C51 12 10.888 12 10 12C8.343 12 7 13.343 7 15V41" stroke="black" stroke-width="2" stroke-miterlimit="10"/>
<path d="M8 48C5.791 48 4 46.209 4 44V43C4 42.447 4.456 42 5.019 42H55.98C56.543 42 57 42.447 57 43V44C57 46.209 55.209 48 53 48H8Z" stroke="black" stroke-width="2" stroke-miterlimit="10"/>
<path d="M25 43H36" stroke="black" stroke-width="2" stroke-miterlimit="10"/>
</svg>
