<svg width="60" height="60" viewBox="0 0 60 60" fill="none" xmlns="http://www.w3.org/2000/svg">
<path d="M43.1758 37.4444L44.7921 33.3571H49.4589L47.2437 27.1569L50.0139 20.1523L57.9475 41.2172H52.0967L50.7411 37.4444H43.1758Z" stroke="black" stroke-width="2" stroke-miterlimit="10"/>
<path d="M38.187 40.0648L46.6801 19L41.0496 19.0004L35.2397 32.613L31.108 19.0003H26.7803L22.3445 32.6129L19.2159 26.4096L16.3848 35.1318L19.2594 40.0648H24.8006L28.8094 27.8572L32.6311 40.0647L38.187 40.0648Z" stroke="black" stroke-width="2" stroke-miterlimit="10"/>
<path d="M7.34468 32.8362H10.8128C11.8635 32.8362 12.7988 32.7192 13.6193 32.4845L14.5161 29.7215L17.0229 21.9984C16.8306 21.6935 16.6117 21.4062 16.3689 21.1397C15.0818 19.7149 13.1985 19.0029 10.7195 19.0029H2V40.0677H7.34462L7.34468 32.8362ZM11.9352 23.8488C12.4382 24.3548 12.6894 25.0323 12.6894 25.8801C12.6894 26.7352 12.4682 27.413 12.0263 27.9141C11.5414 28.4708 10.6491 28.7494 9.34906 28.7494H7.34468V23.0902H9.36383C10.5755 23.0902 11.4328 23.3428 11.9352 23.8488Z" stroke="black" stroke-width="2" stroke-miterlimit="10"/>
</svg>
