<svg width="60" height="60" viewBox="0 0 60 60" fill="none" xmlns="http://www.w3.org/2000/svg">
<path d="M2 33V43C2 44.105 2.895 45 4 45H56C57.105 45 58 44.105 58 43V11C58 9.895 57.105 9 56 9H4C2.895 9 2 9.895 2 11V33Z" stroke="black" stroke-width="2" stroke-miterlimit="10"/>
<rect x="29" y="45" width="2" height="6" fill="black"/>
<rect width="2" height="20" transform="matrix(0 -1 -1 0 40 51)" fill="black"/>
<path d="M22.8266 24.4565H20.5V23.0222H22.8266V20H24.348V23.0222H27.5221V24.4565H24.348V30.7394C24.348 32.065 24.9355 32.5866 26.1523 32.5866C26.5868 32.5866 27.1743 32.4995 27.5221 32.348V33.7172C27.0213 33.913 26.5003 34 25.9131 34C24.0657 34 22.8266 32.934 22.8266 30.8688V24.4565Z" fill="black"/>
<path d="M39.8906 23L34.8042 33.8695H33.6086L28.5215 23H30.2172L34.1954 31.6301L38.1735 23H39.8906Z" fill="black"/>
</svg>
