<svg width="100%" height="100%" viewBox="0 0 160 160" fill="none" xmlns="http://www.w3.org/2000/svg">
<path d="M106.5 33.5V43.1129H44H43.5V43.6129V105.274H35.5V33.5H106.5ZM44.5 44.1129H106.5V53.7258H53H52.5V54.2258V105.274H44.5V44.1129ZM107.5 53.7258V44.1129H115.5V53.7258H107.5ZM53.5 54.7258H106.5V105.274H53.5V54.7258ZM53.5 106.274H107H107.5V105.774V54.7258H115.5V115.887H53.5V106.274ZM44.5 106.274H52.5V115.887H44.5V106.274ZM53.5 126.5V116.887H116H116.5V116.387V54.7258H124.5V126.5H53.5Z" stroke="black"/>
</svg>
