<svg width="100%" height="100%" viewBox="0 0 160 160" fill="none" xmlns="http://www.w3.org/2000/svg">
<path fill-rule="evenodd" clip-rule="evenodd" d="M96.574 34.5421L50.0889 35.07L27.8689 73.5562L49.1609 116.619L96.9396 116.831L120.634 75.7907L96.574 34.5421ZM107.008 96.4833L118.537 76.5142L100.109 76.4322L88.4373 96.6487L107.008 96.4833ZM106.164 97.9454L96.102 115.373L77.6742 115.291L87.5931 98.1108L106.164 97.9454ZM85.9049 98.1258L75.9989 115.283L50.8701 115.172L60.5812 98.3514L85.9049 98.1258ZM59.3254 97.6174L49.6632 114.353L38.4283 91.6304L47.5046 75.9099L59.3254 97.6174ZM48.3569 74.4336L60.1777 96.1411L72.0493 75.5789L60.0963 54.3218L59.9672 54.324L48.3569 74.4336ZM46.6893 74.4128L37.6534 90.0634L29.5178 73.6093L38.1294 58.6935L46.6893 74.4128ZM38.9817 57.2173L47.5416 72.9365L59.1193 52.8835L59.2859 52.8807L50.5032 37.2615L38.9817 57.2173ZM61.4253 96.8892L86.749 96.6637L98.434 76.4247L73.3051 76.3128L61.4253 96.8892ZM98.2116 74.9692L73.3128 74.8583L61.7494 54.294L85.9146 53.8875L98.2116 74.9692ZM85.0743 52.4469L60.939 52.8529L51.747 36.5058L75.6177 36.2347L85.0743 52.4469ZM77.2905 36.2158L86.7418 52.4188L105.137 52.1094L95.7441 36.0062L77.2905 36.2158ZM105.977 53.55L87.5821 53.8594L99.8999 74.9767L118.524 75.0596L105.977 53.55Z" fill="black"/>
</svg>
