<svg width="100%" height="100%" viewBox="0 0 160 160" fill="none" xmlns="http://www.w3.org/2000/svg">
<path fill-rule="evenodd" clip-rule="evenodd" d="M52.8492 58.1817L39.2734 36.3635H120.728L107.152 58.1817H120.728L107.152 79.9999L120.728 101.818H107.152L120.728 123.636H39.2734L52.8492 101.818H39.2734L52.8492 79.9999L39.2734 58.1817H52.8492ZM79.0957 37.8181H41.8916L54.5623 58.1817H66.425L79.0957 37.8181ZM105.439 58.1817H93.5765L80.9058 37.8181H118.11L105.439 58.1817ZM104.534 59.6363L99.5078 67.7142L94.4815 59.6363H104.534ZM100.364 69.0908L106.247 59.6363H118.11L106.296 78.6233L100.364 69.0908ZM98.6512 69.0908L92.7684 59.6363H80.9058L92.7199 78.6233L98.6512 69.0908ZM93.5765 79.9999L99.5078 70.4674L105.439 79.9999L99.5078 89.5324L93.5765 79.9999ZM91.8633 79.9999L80.0007 60.935L68.1381 79.9999L80.0007 99.0648L91.8633 79.9999ZM67.2815 78.6233L79.0957 59.6363H67.233L61.3502 69.0908L67.2815 78.6233ZM60.4936 70.4674L66.425 79.9999L60.4936 89.5324L54.5623 79.9999L60.4936 70.4674ZM59.6371 69.0908L53.7058 78.6233L41.8916 59.6363H53.7542L59.6371 69.0908ZM60.4936 67.7142L55.4674 59.6363H65.5199L60.4936 67.7142ZM67.2815 81.3765L79.0957 100.364H67.233L61.3502 90.909L67.2815 81.3765ZM80.9058 100.364L92.7199 81.3765L98.6512 90.909L92.7684 100.364H80.9058ZM68.1381 101.818L80.0007 120.883L91.8633 101.818H68.1381ZM80.0007 39.1168L91.8633 58.1817H68.1381L80.0007 39.1168ZM53.7058 81.3765L59.6371 90.909L53.7542 100.364H41.8916L53.7058 81.3765ZM65.5199 100.364L60.4936 92.2856L55.4674 100.364H65.5199ZM41.8916 122.182L54.5623 101.818H66.425L79.0957 122.182H41.8916ZM105.439 101.818L118.11 122.182H80.9058L93.5765 101.818H105.439ZM99.5078 92.2856L104.534 100.364H94.4815L99.5078 92.2856ZM106.247 100.364L100.364 90.909L106.296 81.3765L118.11 100.364H106.247Z" fill="black"/>
</svg>
