<svg width="100%" height="100%" viewBox="0 0 160 160" fill="none" xmlns="http://www.w3.org/2000/svg">
<path fill-rule="evenodd" clip-rule="evenodd" d="M80 35L18 125H142L80 35ZM132.256 124.016H27.7443L80 113.349L132.256 124.016ZM25.6421 123.44L80 112.344L134.358 123.44L80 104.946L25.6421 123.44ZM80 96.5595L26.015 122.273L80 103.906L133.985 122.273L80 96.5595ZM26.4866 120.958L80 95.4688L133.513 120.958L80 88.1862L26.4866 120.958ZM80 79.8242L27.0417 119.463L80 87.0312L132.958 119.463L80 79.8242ZM27.6658 117.765L80 78.5938L132.334 117.765L80 71.4716L27.6658 117.765ZM80 63.1268L28.3464 115.848L80 70.1562L131.654 115.848L80 63.1268ZM29.073 113.698L80 61.7188L130.927 113.698L80 54.7882L29.073 113.698ZM80 45.0662L28.2583 113.134L80 53.2812L131.742 113.134L80 45.0662ZM30.7678 108.204L80 43.4375L129.232 108.204L80 36.7376L30.7678 108.204Z" fill="black"/>
</svg>
