<svg viewBox="0 0 80 80" fill="none" xmlns="http://www.w3.org/2000/svg">
<path d="M51.7459 59.73L49.2578 70.4604" stroke="white" stroke-width="1.64062" stroke-miterlimit="10" stroke-linecap="round" stroke-linejoin="round"/>
<path d="M49.7151 55.7236L37.3076 50.4051" stroke="white" stroke-width="1.64062" stroke-miterlimit="10" stroke-linecap="round" stroke-linejoin="round"/>
<path d="M55.2601 76.2397L51.2773 74.4897" stroke="white" stroke-width="1.64062" stroke-miterlimit="10" stroke-linecap="square" stroke-linejoin="round"/>
<path d="M33.4678 51.9455L28.8857 62.6948" stroke="white" stroke-width="1.64062" stroke-miterlimit="10" stroke-linecap="round" stroke-linejoin="round"/>
<path d="M9.28833 65.6408L7.84473 68.4102" stroke="white" stroke-width="1.64062" stroke-miterlimit="10" stroke-linecap="square" stroke-linejoin="round"/>
<path d="M24.8368 64.9902L13.542 63.4415" stroke="white" stroke-width="1.64062" stroke-miterlimit="10" stroke-linecap="round" stroke-linejoin="round"/>
<path d="M25.6465 7.61226C27.8996 5.23955 31.0846 3.7608 34.6152 3.7608C41.449 3.7608 46.9892 9.30101 46.9892 16.1333C46.9892 21.9652 42.954 26.855 37.523 28.1631" stroke="white" stroke-width="2" stroke-miterlimit="10" stroke-linecap="round" stroke-linejoin="round"/>
<path d="M23.2465 11.2474C22.6005 12.7466 22.2432 14.3974 22.2432 16.1328C22.2432 21.9647 26.2769 26.8545 31.7077 28.1626" stroke="white" stroke-width="2" stroke-miterlimit="10" stroke-linecap="round" stroke-linejoin="round"/>
<path d="M34.6162 31.4337V34.9205V46.3247" stroke="white" stroke-width="2" stroke-miterlimit="10" stroke-linecap="round" stroke-linejoin="round"/>
<path d="M37.543 28.5068C37.543 26.8898 36.2323 25.5789 34.6153 25.5789C32.9983 25.5789 31.6875 26.8898 31.6875 28.5068C31.6875 30.1238 32.9983 31.4346 34.6153 31.4346C36.2323 31.4346 37.543 30.1238 37.543 28.5068Z" stroke="white" stroke-width="2" stroke-miterlimit="10" stroke-linecap="round" stroke-linejoin="round"/>
<path d="M37.543 49.2524C37.543 47.6354 36.2323 46.3245 34.6153 46.3245C32.9983 46.3245 31.6875 47.6354 31.6875 49.2524C31.6875 50.8694 32.9983 52.1802 34.6153 52.1802C36.2323 52.1802 37.543 50.8694 37.543 49.2524Z" stroke="white" stroke-width="2" stroke-miterlimit="10" stroke-linecap="round" stroke-linejoin="round"/>
<path d="M58.5469 21.8443L58.6312 21.9286C59.7258 23.0232 59.7458 24.7916 58.6761 25.9107L50.7812 34.1704" stroke="white" stroke-width="2" stroke-miterlimit="10" stroke-linecap="square" stroke-linejoin="round"/>
<path d="M11.7822 52.5591H12.3892C13.6292 52.5591 14.7066 51.707 14.9923 50.5002L17.0687 41.728" stroke="white" stroke-width="2" stroke-miterlimit="10" stroke-linecap="square" stroke-linejoin="round"/>
<path d="M20.67 38.8794C20.67 37.2624 19.3592 35.9515 17.7422 35.9515C16.1252 35.9515 14.8145 37.2624 14.8145 38.8794C14.8145 40.4964 16.1252 41.8071 17.7422 41.8071C19.3592 41.8071 20.67 40.4964 20.67 38.8794Z" stroke="white" stroke-width="2" stroke-miterlimit="10" stroke-linecap="round" stroke-linejoin="round"/>
<path d="M51.5244 36.0155C51.5244 34.3985 50.2137 33.0877 48.5967 33.0877C46.9797 33.0877 45.6689 34.3985 45.6689 36.0155C45.6689 37.6325 46.9797 38.9434 48.5967 38.9434C50.2137 38.9434 51.5244 37.6325 51.5244 36.0155Z" stroke="white" stroke-width="2" stroke-miterlimit="10" stroke-linecap="round" stroke-linejoin="round"/>
<path d="M55.3332 56.8773C55.3332 55.2603 54.0223 53.9494 52.4053 53.9494C50.7883 53.9494 49.4775 55.2603 49.4775 56.8773C49.4775 58.4943 50.7883 59.8052 52.4053 59.8052C54.0223 59.8052 55.3332 58.4943 55.3332 56.8773Z" stroke="white" stroke-width="2" stroke-miterlimit="10" stroke-linecap="round" stroke-linejoin="round"/>
<path d="M59.7218 56.8774C59.7218 52.8366 56.4461 49.5609 52.4053 49.5609C48.3646 49.5609 45.0889 52.8366 45.0889 56.8774C45.0889 60.9181 48.3646 64.1938 52.4053 64.1938C56.4461 64.1938 59.7218 60.9181 59.7218 56.8774Z" stroke="white" stroke-width="2" stroke-miterlimit="10" stroke-linecap="round" stroke-linejoin="round"/>
<path d="M30.6631 65.3875C30.6631 63.7705 29.3524 62.4596 27.7354 62.4596C26.1184 62.4596 24.8076 63.7705 24.8076 65.3875C24.8076 67.0045 26.1184 68.3154 27.7354 68.3154C29.3524 68.3154 30.6631 67.0045 30.6631 65.3875Z" stroke="white" stroke-width="2" stroke-miterlimit="10" stroke-linecap="round" stroke-linejoin="round"/>
<path d="M13.5684 63.0439C13.5684 61.4269 12.2576 60.116 10.6406 60.116C9.02364 60.116 7.71289 61.4269 7.71289 63.0439C7.71289 64.6609 9.02364 65.9717 10.6406 65.9717C12.2576 65.9717 13.5684 64.6609 13.5684 63.0439Z" stroke="white" stroke-width="2" stroke-miterlimit="10" stroke-linecap="round" stroke-linejoin="round"/>
<path d="M51.5244 73.3119C51.5244 71.6949 50.2137 70.3841 48.5967 70.3841C46.9797 70.3841 45.6689 71.6949 45.6689 73.3119C45.6689 74.9289 46.9797 76.2397 48.5967 76.2397C50.2137 76.2397 51.5244 74.9289 51.5244 73.3119Z" stroke="white" stroke-width="2" stroke-miterlimit="10" stroke-linecap="round" stroke-linejoin="round"/>
<path d="M34.0947 18.6567C35.9639 20.5259 38.9944 20.5259 40.8636 18.6567" stroke="white" stroke-width="2" stroke-miterlimit="10" stroke-linecap="round" stroke-linejoin="round"/>
<path d="M35.1055 12.2088V14.0459" stroke="white" stroke-width="2" stroke-miterlimit="10" stroke-linecap="round" stroke-linejoin="round"/>
<path d="M39.8525 12.2088V14.0459" stroke="white" stroke-width="2" stroke-miterlimit="10" stroke-linecap="round" stroke-linejoin="round"/>
<path d="M20.5938 38.2109L34.6156 34.1918L45.6689 36.0156" stroke="white" stroke-width="2" stroke-miterlimit="10" stroke-linecap="round" stroke-linejoin="round"/>
<path d="M68.5256 61.722L71.5311 63.0403C72.7284 63.5653 72.4325 65.3401 71.13 65.4495L67.1548 65.7805C66.5421 65.8316 66.0552 66.3187 66.0041 66.9312L65.673 70.9066C65.565 72.2089 63.7889 72.5049 63.2639 71.3076L59.1339 61.8882C58.3071 60.0026 60.2277 58.0835 62.1132 58.9103L64.5252 59.9676" stroke="white" stroke-width="2" stroke-miterlimit="10" stroke-linecap="square" stroke-linejoin="round"/>
</svg>
