<svg viewBox="0 0 80 80" fill="none" xmlns="http://www.w3.org/2000/svg">
<path d="M6.6665 53.333H73.3332" stroke="white" stroke-width="2" stroke-miterlimit="10"/>
<path d="M29.4372 61.333L23.2212 73.333" stroke="white" stroke-width="2" stroke-miterlimit="10"/>
<path d="M52.6665 61.333L58.2078 73.333" stroke="white" stroke-width="2" stroke-miterlimit="10"/>
<path d="M16 73.333H65.3333" stroke="white" stroke-width="2" stroke-miterlimit="10"/>
<path d="M47.633 28.3558L44.8986 36.988L42.9687 22C38.6629 22 36.347 25.0844 35.1393 28.3369L31.8044 37.0069L31.3361 28.4296C31.0822 24.4428 27.442 22.0172 24.5 22.0172L28.0579 43.7006C32.5695 43.6835 35.0055 40.6162 36.2801 37.3637L39.1003 29.9923C39.1261 30.2926 41.0491 43.7023 41.0491 43.7023C45.5814 43.7023 48.0173 40.8255 49.3228 37.6845L55.67 22.0189C51.2012 22.0189 48.8459 25.0844 47.6296 28.3558H47.633Z" stroke="white" stroke-width="2" stroke-miterlimit="10" stroke-linejoin="round"/>
<path d="M6.6665 9.33317V58.6665C6.6665 60.1385 7.86117 61.3332 9.33317 61.3332H70.6665C72.1385 61.3332 73.3332 60.1385 73.3332 58.6665V9.33317C73.3332 7.86117 72.1385 6.6665 70.6665 6.6665H9.33317C7.86117 6.6665 6.6665 7.86117 6.6665 9.33317Z" stroke="white" stroke-width="2" stroke-miterlimit="10"/>
</svg>
