<svg viewBox="0 0 80 80" fill="none" xmlns="http://www.w3.org/2000/svg">
<path d="M49.334 58.666H1.33398V61.3327C1.33398 64.278 3.72198 66.666 6.66732 66.666H53.334" stroke="white" stroke-width="2" stroke-miterlimit="10"/>
<path d="M66.6667 38.6654V18.6654C66.6667 15.72 64.2787 13.332 61.3333 13.332H9.33333C6.388 13.332 4 15.72 4 18.6654V58.6654" stroke="white" stroke-width="2" stroke-miterlimit="10"/>
<path d="M56.8486 51.8242C56.3024 53.1067 56 54.5175 56 55.9994C56 61.8905 60.7755 66.666 66.6664 66.666C72.5574 66.666 77.3333 61.8905 77.3333 55.9994C77.3333 50.1084 72.5574 45.3329 66.6664 45.3329C65.0392 45.3329 63.4979 45.6986 62.118 46.3504" stroke="white" stroke-width="2" stroke-miterlimit="10" stroke-linecap="square"/>
<path d="M63.0352 52.5088V52.485" stroke="white" stroke-width="2" stroke-miterlimit="10" stroke-linecap="round"/>
<path d="M70.3008 52.5088V52.485" stroke="white" stroke-width="2" stroke-miterlimit="10" stroke-linecap="round"/>
<path d="M63.4141 58.0533C64.1788 59.0041 65.3508 59.6133 66.6659 59.6133C67.981 59.6133 69.153 59.0041 69.9177 58.0533" stroke="white" stroke-width="2" stroke-miterlimit="10" stroke-linecap="round"/>
<path d="M50.668 31.9987V21.332H30.668V43.9987H44.668" stroke="white" stroke-width="2" stroke-miterlimit="10"/>
<path d="M26.0013 23.998H18.668V41.3314H26.0013" stroke="white" stroke-width="2" stroke-miterlimit="10"/>
<path d="M14.0013 26.666H10.668V38.666H14.0013" stroke="white" stroke-width="2" stroke-miterlimit="10"/>
<path d="M55.1945 33.72L58.2 35.0384C59.3973 35.5634 59.1014 37.3382 57.799 37.4475L53.8237 37.7786C53.2111 37.8296 52.7241 38.3167 52.6731 38.9292L52.3419 42.9046C52.234 44.2069 50.4579 44.503 49.9329 43.3057L45.8029 33.8863C44.976 32.0007 46.8966 30.0815 48.7821 30.9084L51.1942 31.9657" stroke="white" stroke-width="2" stroke-miterlimit="10" stroke-linecap="square" stroke-linejoin="round"/>
</svg>
