<svg viewBox="0 0 80 80" fill="none" xmlns="http://www.w3.org/2000/svg">
<path d="M19.7121 10.5257C19.7121 11.2579 19.1185 11.8516 18.3864 11.8516C17.6541 11.8516 17.0605 11.2579 17.0605 10.5257C17.0605 9.79345 17.6541 9.19988 18.3864 9.19988C19.1185 9.19988 19.7121 9.79345 19.7121 10.5257Z" fill="white"/>
<path d="M15.182 10.5257C15.182 11.2579 14.5883 11.8516 13.8561 11.8516C13.1239 11.8516 12.5303 11.2579 12.5303 10.5257C12.5303 9.79345 13.1239 9.19988 13.8561 9.19988C14.5883 9.19988 15.182 9.79345 15.182 10.5257Z" fill="white"/>
<path d="M10.6517 10.5257C10.6517 11.2579 10.0581 11.8516 9.32584 11.8516C8.59369 11.8516 8 11.2579 8 10.5257C8 9.79345 8.59369 9.19988 9.32584 9.19988C10.0581 9.19988 10.6517 9.79345 10.6517 10.5257Z" fill="white"/>
<path d="M69.3793 77.334H7.33398C5.12465 77.334 3.33398 75.5433 3.33398 73.334L3.33398 9.33398C3.33398 7.12465 5.12465 5.33398 7.33398 5.33398L74.0007 5.33398C76.21 5.33398 78.0007 7.12465 78.0007 9.33398V73.334C78.0007 75.5433 76.21 77.334 74.0007 77.334H65.466" stroke="white" stroke-width="2" stroke-miterlimit="10"/>
<rect x="4" y="14.668" width="73.3333" height="2" fill="white"/>
<rect x="4" y="52" width="73.3333" height="2" fill="white"/>
<path d="M26.3346 28.334V22.9533H9.66797V28.334H26.3346Z" stroke="white" stroke-width="2" stroke-miterlimit="10" stroke-linecap="round"/>
<rect x="8.66602" y="36.001" width="24" height="2" fill="white"/>
<rect x="8.66602" y="42.667" width="16" height="2" fill="white"/>
<rect x="38" y="22" width="8" height="2" fill="white"/>
<rect x="50" y="22" width="8" height="2" fill="white"/>
<rect x="62" y="22" width="8" height="2" fill="white"/>
<path d="M64.1787 36.0647L67.7242 32.5193C68.3345 31.9089 69.3239 31.9089 69.934 32.5193L77.8025 40.3877" stroke="white" stroke-width="2" stroke-miterlimit="10" stroke-linecap="round" stroke-linejoin="bevel"/>
<path d="M31.7921 53.1612L31.085 53.8683L29.6707 52.4541L30.3779 51.747L31.7921 53.1612ZM41.298 42.2411L40.5909 41.534L41.298 42.2411ZM43.5077 42.2411L44.2147 41.5339L44.2147 41.5339L43.5077 42.2411ZM50.7558 49.488L51.4629 50.1951L50.7559 50.9021L50.0487 50.1951L50.7558 49.488ZM54.3107 44.5188C54.7012 44.1283 55.3344 44.1283 55.7249 44.5188C56.1155 44.9093 56.1155 45.5425 55.7249 45.933L54.3107 44.5188ZM30.3779 51.747L40.5909 41.534L42.0051 42.9482L31.7921 53.1612L30.3779 51.747ZM40.5909 41.534C41.5914 40.5335 43.2139 40.5333 44.2147 41.5339L42.8007 42.9483C42.5809 42.7285 42.2246 42.7287 42.0051 42.9482L40.5909 41.534ZM44.2147 41.5339L51.4628 48.7808L50.0487 50.1951L42.8006 42.9483L44.2147 41.5339ZM50.0487 48.7808L54.3107 44.5188L55.7249 45.933L51.4629 50.1951L50.0487 48.7808Z" fill="white"/>
<path d="M36.9993 77.2998V61.2524H9.66602V77.2998H36.9993Z" stroke="white" stroke-width="2" stroke-miterlimit="10" stroke-linecap="round"/>
<path d="M17.332 76.4521L22.2117 70.2391C22.8217 69.6291 23.8111 69.629 24.4214 70.2391L29.0029 76.1527" stroke="white" stroke-width="2" stroke-miterlimit="10" stroke-linecap="square"/>
<path d="M70.9993 77.2998V61.2524H43.666V77.2998H70.9993Z" stroke="white" stroke-width="2" stroke-miterlimit="10" stroke-linecap="round"/>
<path d="M51.332 76.4521L56.2117 70.2391C56.8217 69.6291 57.8111 69.629 58.4214 70.2391L63.0029 76.1527" stroke="white" stroke-width="2" stroke-miterlimit="10" stroke-linecap="square"/>
<path d="M50.6794 35.5124C50.3125 36.3738 50.1094 37.3214 50.1094 38.3168C50.1094 42.2738 53.317 45.4814 57.2739 45.4814C61.2308 45.4814 64.4387 42.2738 64.4387 38.3168C64.4387 34.3599 61.2308 31.1522 57.2739 31.1522C56.1809 31.1522 55.1456 31.3979 54.2187 31.8357" stroke="white" stroke-width="2" stroke-miterlimit="10" stroke-linecap="round"/>
<path d="M54.4854 36.6611V36.6429" stroke="white" stroke-width="2" stroke-miterlimit="10" stroke-linecap="round"/>
<path d="M60.0625 36.6611V36.6429" stroke="white" stroke-width="2" stroke-miterlimit="10" stroke-linecap="round"/>
<path d="M54.7764 39.8933C55.3634 40.6232 56.2631 41.0908 57.2726 41.0908C58.2821 41.0908 59.1818 40.6232 59.7689 39.8933" stroke="white" stroke-width="2" stroke-miterlimit="10" stroke-linecap="round"/>
</svg>
