<svg width="54" height="54" viewBox="0 0 54 54" fill="none" xmlns="http://www.w3.org/2000/svg">
<g style="mix-blend-mode:difference">
<path fill-rule="evenodd" clip-rule="evenodd" d="M27 54C41.9117 54 54 41.9117 54 27C54 12.0883 41.9117 0 27 0C12.0883 0 0 12.0883 0 27C0 41.9117 12.0883 54 27 54ZM29.1213 24.8787C28.5587 24.3161 27.7956 24 27 24C26.2044 24 25.4413 24.3161 24.8787 24.8787C24.3161 25.4413 24 26.2044 24 27C24 27.7956 24.3161 28.5587 24.8787 29.1213C25.4413 29.6839 26.2044 30 27 30C27.7956 30 28.5587 29.6839 29.1213 29.1213C29.6839 28.5587 30 27.7956 30 27C30 26.2044 29.6839 25.4413 29.1213 24.8787ZM38 27C36.27 22.61 32 19.5 27 19.5C22 19.5 17.73 22.61 16 27C17.73 31.39 22 34.5 27 34.5C32 34.5 36.27 31.39 38 27ZM21.8025 31.0133C20.2433 30.0407 18.9883 28.6503 18.18 27C18.9883 25.3497 20.2433 23.9593 21.8025 22.9867C23.3617 22.0142 25.1624 21.4987 27 21.4987C28.8376 21.4987 30.6383 22.0142 32.1975 22.9867C33.7567 23.9593 35.0117 25.3497 35.82 27C35.0117 28.6503 33.7567 30.0407 32.1975 31.0133C30.6383 31.9858 28.8376 32.5013 27 32.5013C25.1624 32.5013 23.3617 31.9858 21.8025 31.0133Z" fill="currentColor"/>
</g>
</svg>
