<svg viewBox="0 0 80 80" fill="none" xmlns="http://www.w3.org/2000/svg">
<path d="M44.7877 77.3315H62.8986C62.8986 77.3315 60.6139 59.2571 60.4198 56.5638C60.2025 53.5494 61.4604 51.1589 63.0902 48.6058C63.4665 48.0163 63.8589 47.4331 64.2579 46.8516C65.9268 44.4199 67.7138 42.0197 68.9481 39.322C70.7683 35.3433 71.4919 31.0797 71.1668 26.8045C70.5762 19.0314 66.3186 11.8294 59.8185 7.53329C53.0727 3.07477 45.2174 2.74238 37.4839 3.90044C34.6855 4.31916 31.9136 5.00224 29.2979 6.09316C23.9942 8.30478 19.7347 12.2254 17.1874 17.3888C15.3951 21.0218 14.8857 25.1362 15.6892 29.1038C16.0255 30.7647 16.3333 32.2271 15.9238 33.9452C15.4249 36.0377 14.1906 37.8204 12.8761 39.4844C11.6191 41.076 10.341 42.7047 9.6584 44.6145C9.49049 45.0843 9.35906 45.5892 9.45566 46.0787C9.67641 47.1994 10.9522 47.7591 12.0848 47.9099C13.1777 48.0553 14.3917 48.0946 15.11 49.001C17.0726 51.4777 15.6276 55.9724 15.7851 58.928C16.0488 63.8725 18.7628 66.1782 23.5524 66.3165C26.1469 66.3915 29.1033 66.061 31.7672 65.2242C33.3293 64.7336 34.8976 65.9606 34.7964 67.5949L34.3216 77.3315H39.59" stroke="white" stroke-width="2" stroke-miterlimit="10" stroke-linecap="round" stroke-linejoin="round"/>
<path d="M62.9638 27.871C62.9638 38.4211 54.4113 46.9736 43.8612 46.9736C33.3113 46.9736 24.7588 38.4211 24.7588 27.871C24.7588 17.321 33.3113 8.76846 43.8612 8.76846C54.4113 8.76846 62.9638 17.321 62.9638 27.871Z" stroke="white" stroke-width="2" stroke-miterlimit="10" stroke-linecap="round" stroke-linejoin="round"/>
<path d="M52.1673 32.7077C54.3663 33.3754 55.7308 34.3065 55.7308 35.3362C55.7308 37.3685 50.4166 39.0161 43.8612 39.0161C41.6475 39.0161 39.5753 38.8281 37.8016 38.5011C37.5617 38.4567 37.3511 38.2881 37.2253 38.042L36.7836 37.1784C36.591 36.8018 36.2098 36.6242 35.8524 36.7448L34.2566 37.2835C34.0734 37.3453 33.8776 37.3301 33.7027 37.2406C32.6169 36.6851 31.9917 36.0333 31.9917 35.3362C31.9917 34.3202 33.3203 33.4001 35.4681 32.7343" stroke="white" stroke-width="2" stroke-miterlimit="10" stroke-linecap="round" stroke-linejoin="round"/>
<path d="M47.0439 33.6066C47.4682 33.7694 47.904 33.8651 48.3272 33.8766C53.4916 34.0174 55.3761 28.8367 55.6786 24.4984C55.7541 23.4175 55.7362 22.3268 55.62 21.2494C55.6121 21.1759 55.5863 20.8953 55.561 20.617C55.5302 20.2786 55.2127 20.0414 54.8797 20.1084C53.6094 20.3635 52.3514 20.6353 51.1239 21.092C50.1436 21.4565 49.1762 21.8986 48.2676 22.4339" stroke="white" stroke-width="2" stroke-miterlimit="10" stroke-linecap="round" stroke-linejoin="round"/>
<path d="M40.7161 33.5921C40.2803 33.7636 39.8315 33.8648 39.3959 33.8766C34.2316 34.0173 32.347 28.8367 32.0445 24.4983C31.969 23.4175 31.9868 22.3267 32.1032 21.2495C32.111 21.1759 32.1368 20.8953 32.1621 20.617C32.1929 20.2786 32.5104 20.0414 32.8435 20.1084C34.1137 20.3635 35.3718 20.6353 36.5992 21.0918C37.5931 21.4616 38.5732 21.9105 39.4927 22.4559" stroke="white" stroke-width="2" stroke-miterlimit="10" stroke-linecap="round" stroke-linejoin="round"/>
<path d="M48.9067 23.901C48.4313 22.6493 47.794 21.4437 47.098 20.3636C46.4362 19.337 45.6839 18.3644 44.8514 17.4702C44.7947 17.4094 44.5819 17.1734 44.3711 16.9391C44.1151 16.6545 43.6682 16.6545 43.4126 16.94C42.4383 18.028 41.4859 19.1228 40.6861 20.3636C39.6036 22.0435 38.7048 23.8981 38.2423 25.8493C37.494 29.0063 38.2507 31.8586 40.9905 33.7938C42.5806 34.9169 45.2343 34.895 46.7935 33.7939C48.6108 32.5104 49.4717 30.8491 49.6935 29.056" stroke="white" stroke-width="2" stroke-miterlimit="10" stroke-linecap="round" stroke-linejoin="round"/>
</svg>
