<svg width="54" height="54" viewBox="0 0 54 54" fill="none" xmlns="http://www.w3.org/2000/svg">
<circle cx="27" cy="27" r="27" fill="black" fill-opacity="0.2"/>
<circle cx="27" cy="27" r="26.5" stroke="black" stroke-opacity="0.05"/>
<path d="M27 24C27.7956 24 28.5587 24.3161 29.1213 24.8787C29.6839 25.4413 30 26.2044 30 27C30 27.7956 29.6839 28.5587 29.1213 29.1213C28.5587 29.6839 27.7956 30 27 30C26.2044 30 25.4413 29.6839 24.8787 29.1213C24.3161 28.5587 24 27.7956 24 27C24 26.2044 24.3161 25.4413 24.8787 24.8787C25.4413 24.3161 26.2044 24 27 24ZM27 19.5C32 19.5 36.27 22.61 38 27C36.27 31.39 32 34.5 27 34.5C22 34.5 17.73 31.39 16 27C17.73 22.61 22 19.5 27 19.5ZM18.18 27C18.9883 28.6503 20.2433 30.0407 21.8025 31.0133C23.3617 31.9858 25.1624 32.5013 27 32.5013C28.8376 32.5013 30.6383 31.9858 32.1975 31.0133C33.7567 30.0407 35.0117 28.6503 35.82 27C35.0117 25.3497 33.7567 23.9593 32.1975 22.9867C30.6383 22.0142 28.8376 21.4987 27 21.4987C25.1624 21.4987 23.3617 22.0142 21.8025 22.9867C20.2433 23.9593 18.9883 25.3497 18.18 27Z" fill="black"/>
</svg>
