<svg width="24" height="24" viewBox="0 0 24 24" fill="none" xmlns="http://www.w3.org/2000/svg">
<path d="M7.79998 18.6C6.25358 18.6 4.99998 17.3464 4.99998 15.8C4.99998 14.2536 6.25358 13 7.79998 13C9.34637 13 10.6 14.2536 10.6 15.8C10.6 17.3464 9.34637 18.6 7.79998 18.6Z" stroke="#666666" stroke-width="2" stroke-miterlimit="10"/>
<path d="M2 15.8H5" stroke="#666666" stroke-width="2" stroke-miterlimit="10"/>
<path d="M22 15.8H12.8" stroke="#666666" stroke-width="2" stroke-miterlimit="10"/>
<path d="M16.2 10.6C17.7464 10.6 19 9.3464 19 7.8C19 6.2536 17.7464 5 16.2 5C14.6536 5 13.4 6.2536 13.4 7.8C13.4 9.3464 14.6536 10.6 16.2 10.6Z" stroke="#666666" stroke-width="2" stroke-miterlimit="10"/>
<path d="M22 7.80005H19" stroke="#666666" stroke-width="2" stroke-miterlimit="10"/>
<path d="M2 7.80005H11.2" stroke="#666666" stroke-width="2" stroke-miterlimit="10"/>
</svg>
