<svg width="40" height="40" viewBox="0 0 40 40" fill="none" xmlns="http://www.w3.org/2000/svg">
<rect width="40" height="40" rx="20" fill="white"/>
<path d="M16.3844 30.263C17.1107 30.263 17.316 29.9788 17.316 29.6156C17.316 29.2524 17.316 28.463 17.3002 27.3419C13.5265 28.1472 12.7213 25.5419 12.7213 25.5419C12.1055 24.0103 11.2055 23.584 11.2055 23.584C9.9739 22.763 11.3002 22.7788 11.3002 22.7788C12.6581 22.8735 13.3844 24.1524 13.3844 24.1524C14.6002 26.2051 16.5581 25.6051 17.3318 25.2577C17.395 24.5788 17.695 23.9314 18.2002 23.4577C15.1844 23.1261 12.0107 21.9735 12.0107 16.8577C11.995 15.5314 12.5002 14.2367 13.416 13.2735C13.2581 12.9419 12.8002 11.584 13.5265 9.73665C13.5265 9.73665 14.6634 9.3735 17.2686 11.1103C19.495 10.5103 21.8318 10.5103 24.0581 11.1103C26.6318 9.38929 27.7844 9.73665 27.7844 9.73665C28.5107 11.5682 28.0529 12.9261 27.9265 13.2735C28.8423 14.2367 29.3318 15.5314 29.316 16.8577C29.316 21.9893 26.1423 23.1103 23.1107 23.4419C23.5844 23.8367 24.0265 24.6577 24.0265 25.9051C24.0265 27.7051 24.0107 29.1261 24.0107 29.5524C24.0107 29.8998 24.1686 30.184 24.9423 30.184L16.3844 30.263Z" fill="black"/>
</svg>
