<svg width="40" height="40" viewBox="0 0 40 40" fill="none" xmlns="http://www.w3.org/2000/svg">
<rect width="40" height="40" rx="20" fill="white"/>
<path fill-rule="evenodd" clip-rule="evenodd" d="M11.7574 11.7574C12.8826 10.6321 14.4087 10 16 10H24C25.5913 10 27.1174 10.6321 28.2426 11.7574C29.3679 12.8826 30 14.4087 30 16V24C30 25.5913 29.3679 27.1174 28.2426 28.2426C27.1174 29.3679 25.5913 30 24 30H16C14.4087 30 12.8826 29.3679 11.7574 28.2426C10.6321 27.1174 10 25.5913 10 24V16C10 14.4087 10.6321 12.8826 11.7574 11.7574ZM20 15C18.6739 15 17.4021 15.5268 16.4645 16.4645C15.5268 17.4021 15 18.6739 15 20C15 21.3261 15.5268 22.5979 16.4645 23.5355C17.4021 24.4732 18.6739 25 20 25C21.3261 25 22.5979 24.4732 23.5355 23.5355C24.4732 22.5979 25 21.3261 25 20C25 18.6739 24.4732 17.4021 23.5355 16.4645C22.5979 15.5268 21.3261 15 20 15ZM20 17C19.2044 17 18.4413 17.3161 17.8787 17.8787C17.3161 18.4413 17 19.2044 17 20C17 20.7956 17.3161 21.5587 17.8787 22.1213C18.4413 22.6839 19.2044 23 20 23C20.7956 23 21.5587 22.6839 22.1213 22.1213C22.6839 21.5587 23 20.7956 23 20C23 19.2044 22.6839 18.4413 22.1213 17.8787C21.5587 17.3161 20.7956 17 20 17ZM26.1827 13.7601C26.5913 14.1316 26.6214 14.764 26.2499 15.1727L26.2399 15.1837C25.8684 15.5923 25.236 15.6224 24.8273 15.2509C24.4187 14.8794 24.3886 14.247 24.7601 13.8383L24.7701 13.8273C25.1416 13.4187 25.774 13.3886 26.1827 13.7601Z" fill="black"/>
</svg>
