<svg width="40" height="40" viewBox="0 0 40 40" fill="none" xmlns="http://www.w3.org/2000/svg">
<rect width="40" height="40" rx="20" fill="white"/>
<path d="M29.5999 29.6007V22.5687C29.5999 19.1127 28.8559 16.4727 24.8239 16.4727C22.8799 16.4727 21.5839 17.5287 21.0559 18.5367H21.0079V16.7847H17.1919V29.6007H21.1759V23.2407C21.1759 21.5607 21.4879 19.9527 23.5519 19.9527C25.5919 19.9527 25.6159 21.8487 25.6159 23.3367V29.5767H29.5999V29.6007Z" fill="black"/>
<path d="M10.7119 16.7852H14.6959V29.6012H10.7119V16.7852Z" fill="black"/>
<path d="M12.7039 10.4004C11.4319 10.4004 10.3999 11.4324 10.3999 12.7044C10.3999 13.9764 11.4319 15.0324 12.7039 15.0324C13.9759 15.0324 15.0079 13.9764 15.0079 12.7044C15.0079 11.4324 13.9759 10.4004 12.7039 10.4004Z" fill="black"/>
</svg>
