<svg viewBox="0 0 128 32" fill="none" xmlns="http://www.w3.org/2000/svg">
<g style="mix-blend-mode:difference">
<path fill-rule="evenodd" clip-rule="evenodd" d="M16.6957 32C7.4749 32 0 24.8366 0 16C0 7.16344 7.4749 0 16.6957 0C25.9164 0 33.3913 7.16344 33.3913 16C33.3913 24.8366 25.9164 32 16.6957 32ZM16.6957 24.32C21.2156 24.32 24.8798 20.595 24.8798 16C24.8798 11.405 21.2156 7.67998 16.6957 7.67998C12.1757 7.67998 8.51152 11.405 8.51152 16C8.51152 20.595 12.1757 24.32 16.6957 24.32ZM62.542 21.4498C61.8571 19.8502 58.283 11.2003 57.6272 9.60007C54.7289 2.52848 50.8284 0.940021 46.8136 0.960199C42.5918 0.980761 37.5897 4.45043 37.6476 11.2001L37.6722 30.72L45.8315 30.7198V10.8785C45.831 9.75956 46.6683 9.2718 47.3226 9.28028C47.9768 9.28877 48.6135 9.4399 49.4228 11.2178C50.1249 12.7604 51.8442 17.0119 52.9974 19.8636L52.9979 19.865L52.998 19.8651L52.9989 19.8674L52.9998 19.8696C53.4785 21.0532 53.8592 21.9948 54.0288 22.4001C56.8892 29.4717 60.7631 31.0602 64.8182 31.0398C68.9432 31.0194 74.0412 27.5765 73.9842 20.7999V1.2802H65.8003L65.8055 21.1201C65.8037 22.2523 65.0935 22.7218 64.163 22.7197C63.8462 22.7237 63.0172 22.5597 62.542 21.4498ZM88.7161 30.72H80.2046V1.27998H88.7161V30.72ZM94.2813 3.35998C94.2813 8.4365 96.6295 12.9769 100.322 16C96.6684 18.9912 94.3309 23.4681 94.2821 28.4799L94.2813 28.48V30.72H102.465V28.48H102.467C102.551 23.6937 106.402 19.84 111.141 19.84C115.879 19.84 119.73 23.6937 119.814 28.48H119.816V30.72H128V28.48L127.999 28.4796C127.95 23.4679 125.613 18.9912 121.959 16C125.652 12.9769 128 8.4365 128 3.35998C128 3.30665 128 3.25338 127.999 3.20018L128 3.19998V1.27998H119.816V3.19998H119.814C119.815 3.2532 119.816 3.30653 119.816 3.35998C119.816 8.22009 115.932 12.16 111.141 12.16C106.35 12.16 102.465 8.22009 102.465 3.35998C102.465 3.30653 102.466 3.2532 102.467 3.19998H102.465V1.27998H94.2813V3.19998L94.2821 3.20014C94.2816 3.25336 94.2813 3.30664 94.2813 3.35998Z" fill="currentColor"/>
</g>
</svg>
