<svg width="40" height="40" viewBox="0 0 40 40" fill="none" xmlns="http://www.w3.org/2000/svg">
<rect width="40" height="40" rx="20" fill="white"/>
<path d="M21.5373 20.0007C21.5373 23.7645 18.5069 26.8158 14.7687 26.8158C11.0304 26.8158 8 23.7645 8 20.0007C8 16.2368 11.0304 13.1855 14.7687 13.1855C18.5068 13.1855 21.5373 16.2368 21.5373 20.0007Z" fill="black"/>
<path d="M28.963 20.0012C28.963 23.5442 27.4478 26.4164 25.5787 26.4164C23.7096 26.4164 22.1943 23.5442 22.1943 20.0012C22.1943 16.4581 23.7096 13.5859 25.5787 13.5859C27.4478 13.5859 28.963 16.4581 28.963 20.0012Z" fill="black"/>
<path d="M32.0002 20.0017C32.0002 23.1761 31.4673 25.7494 30.8099 25.7494C30.1525 25.7494 29.6196 23.1761 29.6196 20.0017C29.6196 16.8273 30.1525 14.2539 30.8099 14.2539C31.4673 14.2539 32.0002 16.8273 32.0002 20.0017Z" fill="black"/>
</svg>
