<?xml version="1.0" encoding="utf-8"?>
<!-- Generator: Adobe Illustrator 21.1.0, SVG Export Plug-In . SVG Version: 6.00 Build 0)  -->
<svg version="1.1" id="Слой_1" xmlns="http://www.w3.org/2000/svg" xmlns:xlink="http://www.w3.org/1999/xlink" x="0px" y="0px"
	 viewBox="0 0 48 48" style="enable-background:new 0 0 48 48;" xml:space="preserve">
<style type="text/css">
	.st0{opacity:0.2;enable-background:new    ;}
	.st1{fill:#FFFFFF;}
</style>
<g id="arrowup">
	<path id="circle" class="st0" d="M24,0C10.7,0,0,10.7,0,24s10.7,24,24,24s24-10.7,24-24S37.3,0,24,0z"/>
	<path id="arrow" class="st1" d="M36.6,29.3c-0.8,0.8-2,0.8-2.8,0l-9.8-9l-9.8,9c-0.8,0.8-2,0.8-2.8,0c-0.8-0.8-0.8-2,0-2.8l11.2-11
		c0.8-0.8,2-0.8,2.8,0l11.2,11C37.4,27.3,37.4,28.5,36.6,29.3L36.6,29.3z"/>
</g>
</svg>
