<svg width="16" height="12" viewBox="3 1 16 12" fill="none" xmlns="http://www.w3.org/2000/svg">
<g filter="url(#filter0_d_8690_1626)">
<g clip-path="url(#clip0_8690_1626)">
<mask id="mask0_8690_1626" style="mask-type:luminance" maskUnits="userSpaceOnUse" x="3" y="1" width="16" height="12">
<rect x="3" y="1" width="16" height="12" fill="white"/>
</mask>
<g mask="url(#mask0_8690_1626)">
<path fill-rule="evenodd" clip-rule="evenodd" d="M7 1H19V13H7V1Z" fill="#EF0000"/>
<path fill-rule="evenodd" clip-rule="evenodd" d="M3 1H9V13H3V1Z" fill="#2F8D00"/>
<mask id="mask1_8690_1626" style="mask-type:luminance" maskUnits="userSpaceOnUse" x="5" y="3" width="8" height="8">
<path fill-rule="evenodd" clip-rule="evenodd" d="M8.95236 10.9029C6.82212 10.9029 5.09521 9.15522 5.09521 6.99932C5.09521 4.84341 6.82212 3.0957 8.95236 3.0957C11.0826 3.0957 12.8095 4.84341 12.8095 6.99932C12.8095 9.15522 11.0826 10.9029 8.95236 10.9029Z" fill="white"/>
</mask>
<g mask="url(#mask1_8690_1626)">
<path fill-rule="evenodd" clip-rule="evenodd" d="M8.71436 3H9.21436V4.3494H8.71436V3Z" fill="#FFE017"/>
<path fill-rule="evenodd" clip-rule="evenodd" d="M8.71436 9.74609H9.21436V10.9991H8.71436V9.74609Z" fill="#FFE017"/>
<path d="M5.15737 7.20201L5.01758 6.84337C6.56017 6.22753 7.72445 5.83037 8.51445 5.65138C9.67351 5.38878 10.947 5.19449 12.3351 5.06836L12.3692 5.45236C10.997 5.57704 9.73983 5.76884 8.59767 6.02761C7.83119 6.20127 6.68308 6.59291 5.15737 7.20201Z" fill="#FFE017"/>
<path d="M12.5702 4.83156L12.4567 5.19961C11.2909 4.83155 10.3412 4.67334 9.61115 4.72234L9.58594 4.33765C10.3697 4.28503 11.3633 4.45055 12.5702 4.83156Z" fill="#FFE017"/>
<path d="M12.9738 6.88869L12.7583 7.20662C12.164 6.79398 11.4317 6.58671 10.5566 6.58671V6.20117C11.5053 6.20117 12.3127 6.42971 12.9738 6.88869Z" fill="#FFE017"/>
<path d="M12.6511 7.00391L12.7496 7.37634C11.4683 7.72341 10.2653 7.92032 9.14061 7.96669C8.00813 8.01338 6.6882 7.81576 5.17969 7.37534L5.28528 7.0049C6.75713 7.43462 8.03745 7.62631 9.1251 7.58147C10.2205 7.5363 11.3959 7.34391 12.6511 7.00391Z" fill="#FFE017"/>
<path d="M12.5058 8.81738L11.9036 9.43472C10.7593 8.29144 9.7518 7.47395 8.88742 6.98277C8.00826 6.48319 6.86177 5.9759 5.44971 5.46295L5.73928 4.64648C7.19298 5.17456 8.38165 5.70051 9.30706 6.22637C10.2472 6.76063 11.3114 7.62413 12.5058 8.81738Z" fill="#FFE017"/>
<path d="M5.72891 9.16638L5.50098 8.85746C5.53281 8.83341 5.5896 8.79329 5.66785 8.74246C5.79705 8.65852 5.94052 8.57472 6.09488 8.49642C6.52003 8.28075 6.9465 8.14609 7.35326 8.13372C7.37315 8.13312 7.39296 8.13281 7.41269 8.13281V8.51835C7.3968 8.51835 7.3808 8.5186 7.3647 8.51909C7.02192 8.52951 6.64548 8.64837 6.26559 8.84109C6.12399 8.91292 5.99205 8.98998 5.87364 9.0669C5.83243 9.09368 5.79596 9.11844 5.76471 9.14051C5.74649 9.15338 5.7344 9.16222 5.72891 9.16638Z" fill="#FFE017"/>
<path d="M5.90625 9.30103L6.00219 8.92791C7.27224 9.26239 8.25139 9.42906 8.93473 9.42906C9.61552 9.42906 10.6288 9.23246 11.968 8.83789L12.0745 9.20807C10.7036 9.61197 9.65922 9.8146 8.93473 9.8146C8.21279 9.8146 7.20492 9.64304 5.90625 9.30103Z" fill="#FFE017"/>
<path d="M5.41113 5.84644L6.01467 5.23047L6.89833 6.11729L6.29479 6.73326L5.41113 5.84644Z" fill="#FFE017"/>
<path d="M10.418 8.92257L10.8669 8.18359L12.2687 9.05582L11.8198 9.7948L10.418 8.92257Z" fill="#FFE017"/>
</g>
<path fill-rule="evenodd" clip-rule="evenodd" d="M5.09521 6.99932C5.09521 9.15522 6.82212 10.9029 8.95236 10.9029C11.0826 10.9029 12.8095 9.15522 12.8095 6.99932C12.8095 4.84341 11.0826 3.0957 8.95236 3.0957C6.82212 3.0957 5.09521 4.84341 5.09521 6.99932ZM12.3333 7.04751C12.3333 8.91064 10.8409 10.421 8.99998 10.421C7.15903 10.421 5.66664 8.91064 5.66664 7.04751C5.66664 5.18438 7.15903 3.67402 8.99998 3.67402C10.8409 3.67402 12.3333 5.18438 12.3333 7.04751Z" fill="#F9E813"/>
<path d="M6.82812 4.5918V7.72215C7.03419 8.96119 7.72842 9.58071 8.91082 9.58071C10.0932 9.58071 10.7874 8.96119 10.9935 7.72215V4.5918H6.82812Z" fill="white"/>
<path d="M6.04248 4H11.5793V7.71137L11.5747 7.73706C11.3072 9.21984 10.359 10 8.81089 10C7.26276 10 6.31458 9.21984 6.04711 7.73706L6.04248 7.71137V4Z" fill="#C51918"/>
<path fill-rule="evenodd" clip-rule="evenodd" d="M7.52354 4.95312H6.62354V5.85312H7.52354V4.95312ZM11.0235 4.95312H10.1235V5.85312H11.0235V4.95312Z" fill="#F9E813"/>
<path fill-rule="evenodd" clip-rule="evenodd" d="M6.62354 6.95312H7.52354V7.85312H6.62354V6.95312ZM10.1733 6.96729H11.0733V7.86729H10.1733V6.96729ZM10.1869 8.42475H9.28694V9.32475H10.1869V8.42475Z" fill="#F9E813"/>
<path fill-rule="evenodd" clip-rule="evenodd" d="M7.32422 8.41992H8.22422V9.31992H7.32422V8.41992Z" fill="#F9E813"/>
<path d="M7.42578 5.35547H10.3956V7.57592C10.3956 7.57592 10.1753 8.72257 8.91071 8.72257C7.64617 8.72257 7.42578 7.57592 7.42578 7.57592V5.35547Z" fill="#F7FCFF"/>
<path d="M8.61865 5.60156H9.27882V6.0823C9.27882 6.0823 9.22983 6.33055 8.94874 6.33055C8.66764 6.33055 8.61865 6.0823 8.61865 6.0823V5.60156Z" fill="#013399"/>
<path d="M8.61865 6.66211H9.27882V7.14285C9.27882 7.14285 9.22983 7.3911 8.94874 7.3911C8.66764 7.3911 8.61865 7.14285 8.61865 7.14285V6.66211Z" fill="#013399"/>
<path d="M9.47607 6.66211H10.1362V7.14285C10.1362 7.14285 10.0873 7.3911 9.80616 7.3911C9.52506 7.3911 9.47607 7.14285 9.47607 7.14285V6.66211Z" fill="#013399"/>
<path d="M7.76172 6.66211H8.42188V7.14285C8.42188 7.14285 8.3729 7.3911 8.0918 7.3911C7.81071 7.3911 7.76172 7.14285 7.76172 7.14285V6.66211Z" fill="#013399"/>
<path d="M8.61865 7.72266H9.27882V8.20339C9.27882 8.20339 9.22983 8.45165 8.94874 8.45165C8.66764 8.45165 8.61865 8.20339 8.61865 8.20339V7.72266Z" fill="#013399"/>
</g>
<rect x="3" y="1" width="16" height="12" fill="url(#paint0_linear_8690_1626)" style="mix-blend-mode:overlay"/>
</g>
<rect x="3.5" y="1.5" width="15" height="11" rx="0.5" stroke="black" stroke-opacity="0.1" style="mix-blend-mode:multiply"/>
</g>
<defs>
<filter id="filter0_d_8690_1626" x="0" y="0" width="22" height="18" filterUnits="userSpaceOnUse" color-interpolation-filters="sRGB">
<feFlood flood-opacity="0" result="BackgroundImageFix"/>
<feColorMatrix in="SourceAlpha" type="matrix" values="0 0 0 0 0 0 0 0 0 0 0 0 0 0 0 0 0 0 127 0" result="hardAlpha"/>
<feOffset dy="2"/>
<feGaussianBlur stdDeviation="1.5"/>
<feColorMatrix type="matrix" values="0 0 0 0 0 0 0 0 0 0 0 0 0 0 0 0 0 0 0.1 0"/>
<feBlend mode="normal" in2="BackgroundImageFix" result="effect1_dropShadow_8690_1626"/>
<feBlend mode="normal" in="SourceGraphic" in2="effect1_dropShadow_8690_1626" result="shape"/>
</filter>
<linearGradient id="paint0_linear_8690_1626" x1="11" y1="1" x2="11" y2="13" gradientUnits="userSpaceOnUse">
<stop offset="0" stop-color="white" stop-opacity="0.7"/>
<stop offset="1" stop-opacity="0.3"/>
</linearGradient>
<clipPath id="clip0_8690_1626">
<rect x="3" y="1" width="16" height="12" rx="1" fill="white"/>
</clipPath>
</defs>
</svg>
