<svg viewBox="0 0 24 16" fill="none" xmlns="http://www.w3.org/2000/svg">
<g clip-path="url(#clip0_42204_155457)">
<path d="M1.5 2C1.5 1.44772 1.94772 1 2.5 1H21.5C22.0523 1 22.5 1.44772 22.5 2V14C22.5 14.5523 22.0523 15 21.5 15H2.5C1.94772 15 1.5 14.5523 1.5 14V2Z" fill="white"/>
<path d="M7.30067 7.33408C7.30067 7.33408 7.30885 10.0809 10.3586 10.0072L10.5428 10.5762H10.9071C10.9071 10.5762 10.6042 8.89372 13.3673 8.87735C13.3673 8.87735 13.3673 7.74753 14.4972 7.74753H16.196C16.196 7.74753 13.4942 5.62706 18.6071 2.91712L18.6808 2.38086C18.6808 2.38086 13.3632 5.28729 10.5387 4.72238C10.5387 4.72238 10.9767 6.46215 10.0966 6.46215C9.65447 6.46215 9.6995 6.13057 8.77435 6.13057C8.00885 6.13057 8.06616 6.937 7.69774 6.92881C7.33341 6.92063 6.92815 6.4253 6.8954 6.51127C6.86675 6.59723 7.30067 7.33408 7.30067 7.33408V7.33408Z" fill="#DB7D00"/>
<path d="M11.21 13.6131C11.4924 13.4084 11.7421 13.3429 12.1269 13.2734C12.5117 13.2038 12.9211 13.0932 13.1339 13.0359C13.3468 12.9786 12.4094 13.3061 12.1719 13.3757C11.9345 13.4412 11.21 13.6131 11.21 13.6131ZM12.7614 13.0114C12.6836 12.5242 12.876 12.0166 13.3141 11.8119C13.4164 12.164 13.1012 12.7617 12.7614 13.0114ZM13.5065 12.7576C13.269 12.3564 13.6702 11.8324 13.9608 11.5786C14.0959 11.8242 13.8585 12.5488 13.5065 12.7576ZM14.1983 12.4465C13.9445 12.1026 14.2433 11.4967 14.5585 11.2593C14.6854 11.595 14.5626 12.209 14.1983 12.4465ZM14.8901 12.0125C14.6608 11.685 14.8205 11.1774 15.148 10.85C15.3854 11.1201 15.1848 11.7096 14.8901 12.0125ZM15.4427 11.5745C15.2503 11.2675 15.4877 10.5348 15.7948 10.3301C15.9298 10.6003 15.8275 11.3698 15.4427 11.5745ZM15.8848 11.4599C15.8275 11.0178 16.5971 10.5307 16.9164 10.5429C16.8796 10.9073 16.5521 11.3043 15.8848 11.4599ZM15.455 11.9593C15.8152 11.5868 16.5193 11.5868 16.769 11.6646C16.6994 11.8815 15.8725 12.3564 15.455 11.9593Z" fill="#006651"/>
<path d="M14.9554 12.3318C15.463 12.1967 15.7946 12.0821 16.0975 12.4014C15.8847 12.6716 15.0578 12.5938 14.9554 12.3318ZM14.2309 12.6593C14.718 12.3973 15.3075 12.7821 15.3975 13.0114C14.8531 13.2365 14.2227 12.7166 14.2309 12.6593ZM13.5636 13.0359C14.0057 12.8681 14.5133 13.0932 14.718 13.3429C14.4806 13.4535 13.8584 13.5763 13.5636 13.0359ZM12.9537 13.2283C13.4613 13.171 13.9525 13.5558 14.0589 13.7769C13.4081 13.8383 13.1583 13.6459 12.9537 13.2283ZM12.7899 13.6131C12.5075 13.4084 12.2578 13.3429 11.873 13.2734C11.4882 13.2038 11.0788 13.0932 10.866 13.0359C10.649 12.9786 11.5905 13.3061 11.8279 13.3757C12.0654 13.4412 12.7899 13.6131 12.7899 13.6131ZM11.2385 13.0114C11.3162 12.5242 11.1238 12.0166 10.6858 11.8119C10.5835 12.164 10.8987 12.7617 11.2385 13.0114ZM10.4934 12.7576C10.7309 12.3564 10.3297 11.8324 10.0391 11.5786C9.90396 11.8242 10.1414 12.5488 10.4934 12.7576ZM9.80162 12.4465C10.0554 12.1026 9.7566 11.4967 9.44139 11.2593C9.31449 11.595 9.4373 12.209 9.80162 12.4465ZM9.10981 12.0125C9.33905 11.685 9.1794 11.1774 8.85192 10.85C8.61449 11.1201 8.81507 11.7096 9.10981 12.0125ZM8.55718 11.5745C8.74958 11.2675 8.51215 10.5348 8.20513 10.3301C8.07005 10.6003 8.17238 11.3698 8.55718 11.5745ZM8.11508 11.4599C8.17239 11.0178 7.40279 10.5307 7.0835 10.5429C7.12034 10.9073 7.44782 11.3043 8.11508 11.4599ZM8.5449 11.9593C8.18467 11.5868 7.48057 11.5868 7.23086 11.6646C7.30046 11.8815 8.12736 12.3564 8.5449 11.9593Z" fill="#006651"/>
<path d="M9.04445 12.3313C8.53685 12.1962 8.20527 12.0816 7.90234 12.4009C8.11521 12.6711 8.94211 12.5933 9.04445 12.3313ZM9.76901 12.6588C9.28188 12.3968 8.6924 12.7816 8.60234 13.0109C9.14679 13.236 9.7772 12.7161 9.76901 12.6588ZM10.4363 13.0354C9.99416 12.8676 9.48655 13.0927 9.28188 13.3424C9.5193 13.453 10.1415 13.5758 10.4363 13.0354ZM11.0462 13.2278C10.5386 13.1705 10.0474 13.5553 9.94094 13.7764C10.5918 13.8378 10.8415 13.6454 11.0462 13.2278Z" fill="#006651"/>
</g>
<rect x="1.15" y="0.65" width="21.7" height="14.7" stroke="#D3D3D3" stroke-width="0.7"/>
<defs>
<clipPath id="clip0_42204_155457">
<rect x="1.5" y="1" width="21" height="14" fill="white"/>
</clipPath>
</defs>
</svg>
