<svg viewBox="0 0 21 14" fill="none" xmlns="http://www.w3.org/2000/svg">
<g clip-path="url(#clip0_42250_158972)">
<path d="M0 0H21V14H0V0Z" fill="#ED1C24"/>
<path d="M0 3.5H21V10.5H0V3.5Z" fill="white"/>
<path d="M10.4046 3.5C10.2544 3.8164 9.97141 4.03753 9.70095 4.24681C9.65646 4.28566 9.54583 4.36091 9.62608 4.41819C9.69484 4.34135 9.88354 4.44311 9.77387 4.52576C9.67564 4.61769 9.54037 4.65136 9.43129 4.72724C9.33469 4.77974 9.23669 4.83453 9.16009 4.91486C9.15488 5.0404 9.31581 4.97091 9.38112 5.0232C9.46617 5.11411 9.34507 5.26741 9.23345 5.23234C9.09074 5.23672 8.99218 5.3623 8.93819 5.4821C8.82656 5.65472 8.61502 5.70586 8.44658 5.8041C8.35021 5.86026 8.25671 5.92242 8.16702 5.98796C8.05136 6.06706 8.15197 6.22363 8.27505 6.1852C8.40789 6.17195 8.5274 6.06758 8.66495 6.09765C8.78967 6.14147 8.82467 6.30448 8.78218 6.4183C8.75068 6.50942 8.67438 6.57361 8.61327 6.64477C8.51403 6.74532 8.38425 6.81058 8.2474 6.84171C8.11517 6.88611 7.99629 6.96712 7.90954 7.07651C7.80888 7.17787 7.70859 7.28086 7.59286 7.36538C7.55629 7.45866 7.65947 7.53811 7.74546 7.53564C7.92671 7.52421 8.05229 7.3759 8.20664 7.29967C8.33474 7.24211 8.48547 7.38017 8.45414 7.51359C8.44422 7.64342 8.32268 7.70929 8.21462 7.74923C7.89694 7.90893 7.62109 8.14053 7.37618 8.39603C7.32553 8.49938 7.18625 8.46895 7.11128 8.54098C7.06244 8.63212 7.18501 8.68019 7.25816 8.67083C7.57246 8.63303 7.86576 8.50017 8.14359 8.35401C8.24691 8.30461 8.34393 8.23961 8.45136 8.20024C8.55225 8.1753 8.69295 8.21914 8.71099 8.33399C8.71085 8.45523 8.59075 8.52236 8.49565 8.56973C8.20235 8.72382 7.88046 8.80901 7.56698 8.91088C7.44961 8.87808 7.36118 9.08689 7.48993 9.12443C7.62606 9.1711 7.7708 9.13367 7.91005 9.12756C8.34067 9.06159 8.71727 8.82859 9.11977 8.67797C9.28711 8.62342 9.48463 8.69953 9.56721 8.85633C9.65018 8.9961 9.64257 9.17989 9.55507 9.31569C9.41675 9.61161 9.20647 9.88358 8.92419 10.0537C8.74699 10.1415 8.54017 10.175 8.38829 10.3093C8.24782 10.3556 8.45871 10.5454 8.48918 10.3948C8.57358 10.2797 8.72245 10.2452 8.85745 10.2405C9.06038 10.2184 9.27589 10.181 9.43355 10.0405C9.57491 9.93074 9.71421 9.7793 9.90615 9.77695C10.0122 9.78952 10.1172 9.87476 10.2249 9.82275C10.3191 9.77958 10.467 9.80488 10.4916 9.92077C10.5366 10.0564 10.6764 10.1181 10.7872 10.1906C10.8273 10.2469 10.9606 10.3922 10.9913 10.2641C10.9665 10.1728 11.002 10.033 11.1218 10.0635C11.2265 10.0682 11.3262 10.1068 11.4307 10.1131C11.5698 10.1419 11.6859 10.2372 11.7649 10.3522C11.8192 10.4272 11.9383 10.5562 12.0268 10.4567C12.0816 10.3537 11.9769 10.2679 11.8916 10.2312C11.7672 10.1541 11.6609 10.0514 11.5521 9.95426C11.3918 9.80455 11.2534 9.61415 11.2279 9.39052C11.1934 9.16757 11.2116 8.94014 11.2407 8.71778C11.2773 8.57463 11.4604 8.49646 11.5884 8.57253C11.7685 8.65471 11.9474 8.77231 12.1539 8.75957C12.4523 8.76598 12.7589 8.70886 13.0505 8.79531C13.3343 8.8847 13.5372 9.12417 13.8136 9.2278C13.8755 9.26541 13.9546 9.22962 13.9773 9.16351C14.0047 9.10413 13.9854 9.02816 13.9281 8.9943C13.6078 8.67092 13.17 8.51384 12.7993 8.26117C12.6826 8.23153 12.6613 8.04377 12.7692 7.98957C12.9111 7.8865 13.1118 7.9345 13.2376 8.04076C13.3438 8.10299 13.4635 8.14963 13.5882 8.14973C13.7159 8.10976 13.654 7.92498 13.5397 7.91107C13.3325 7.7941 13.1841 7.60214 13.0046 7.45001C12.9013 7.36251 12.7882 7.27391 12.6493 7.25695C12.5734 7.24311 12.4957 7.2401 12.4188 7.24526C12.3467 7.16686 12.4428 7.04681 12.5361 7.05663C12.6318 7.06307 12.7269 7.07019 12.8225 7.05686C12.9294 7.04905 13.0361 7.03799 13.1433 7.03726C13.2298 7.09618 13.4028 6.9944 13.3247 6.89278C13.2393 6.81802 13.116 6.82451 13.014 6.78615C12.835 6.72763 12.6527 6.67971 12.4681 6.64265C12.339 6.63495 12.3549 6.46504 12.4684 6.44628C12.5427 6.41858 12.6072 6.47563 12.6785 6.48447C12.8003 6.51065 12.9259 6.5103 13.0476 6.53683C13.1508 6.4859 13.0711 6.33516 12.9777 6.32637C12.7575 6.24762 12.5672 6.10549 12.3811 5.96722C12.1757 5.81273 11.9893 5.63407 11.7814 5.48312C11.7059 5.43639 11.5822 5.42292 11.5624 5.3193C11.5554 5.22396 11.6676 5.18056 11.7471 5.20284C11.86 5.23616 11.9651 5.29419 12.0802 5.32268C12.1704 5.33804 12.2634 5.36473 12.3504 5.35337C12.4608 5.28397 12.303 5.23964 12.2459 5.21558C12.0988 5.13618 11.968 5.03041 11.8355 4.92952C11.7235 4.83397 11.9304 4.79176 12.0016 4.82855C12.1206 4.87832 12.1342 4.70493 12.0452 4.6613C11.9404 4.61673 11.8503 4.54277 11.7552 4.47823C11.5835 4.35601 11.3891 4.25924 11.178 4.23236C10.9413 4.20859 10.7204 4.07251 10.5949 3.87011C10.517 3.75478 10.4598 3.62721 10.4046 3.5ZM9.62745 4.82769C9.74942 4.83131 9.73066 5.05115 9.61058 5.03648C9.49396 5.02896 9.5011 4.80408 9.62745 4.82769ZM10.778 4.94608C10.8967 4.92485 10.9218 5.14143 10.8032 5.1516C10.6796 5.17372 10.6339 4.93236 10.778 4.94608ZM10.441 4.97432C10.5613 4.99798 10.5399 5.2076 10.4185 5.20942C10.3296 5.22921 10.2339 5.28985 10.144 5.24442C10.0709 5.1671 10.1765 5.05279 10.2581 5.02766C10.3207 5.01503 10.3783 4.98661 10.441 4.97432ZM11.2165 4.97523C11.3325 5.01751 11.2916 5.22221 11.1693 5.2196C11.0536 5.23511 10.9998 5.04215 11.1076 4.99639C11.1425 4.98402 11.1791 4.97359 11.2165 4.97523ZM9.90825 5.20742C9.99353 5.28857 9.94315 5.44518 9.83801 5.48261C9.76225 5.52475 9.65893 5.62448 9.5764 5.54241C9.5316 5.4422 9.64402 5.36674 9.71015 5.31111C9.76916 5.26524 9.83428 5.22359 9.90825 5.20742ZM10.882 5.66001C11.0041 5.71765 10.9421 5.93766 10.8082 5.92398C10.6981 5.8961 10.7125 5.70736 10.8233 5.69231C10.8443 5.68428 10.8635 5.67247 10.882 5.66001ZM10.4947 5.68185C10.6089 5.73531 10.5217 5.92585 10.4067 5.89839C10.2874 5.88439 10.2896 5.67476 10.4211 5.69368C10.4459 5.69247 10.4715 5.69182 10.4947 5.68185ZM11.3297 5.79115C11.4548 5.75232 11.6055 5.88121 11.5649 6.01197C11.5091 6.11333 11.3712 6.12614 11.2724 6.08827C11.159 6.08267 11.0827 5.91213 11.1837 5.83991C11.2256 5.80834 11.2783 5.79535 11.3297 5.79115ZM9.48125 5.82393C9.58473 5.76763 9.69458 5.93682 9.60659 6.01144C9.54831 6.09714 9.39862 6.13214 9.33264 6.03687C9.2778 5.94377 9.36645 5.78741 9.48125 5.82393ZM9.00385 5.90406C9.12121 5.92011 9.1977 6.02672 9.2411 6.12824C9.25167 6.25193 9.06913 6.31981 8.98952 6.22981C8.89997 6.17365 8.82159 6.05813 8.86854 5.95091C8.89747 5.90833 8.95508 5.89076 9.00387 5.90406H9.00385ZM11.8599 6.35117C11.9873 6.31762 12.0798 6.52118 11.9704 6.59482C11.8704 6.68565 11.676 6.56532 11.7281 6.43571C11.754 6.38764 11.8059 6.35572 11.8599 6.35117ZM10.2386 6.58338C10.3454 6.59699 10.3108 6.78211 10.2121 6.77588C10.1061 6.75624 10.1304 6.57295 10.2386 6.58338ZM9.69682 6.68173C9.78393 6.62009 9.8963 6.77054 9.82383 6.84063C9.73698 6.90181 9.62433 6.75376 9.69682 6.68173ZM10.5583 6.69993C10.6593 6.7613 10.7192 6.8757 10.7318 6.99113C10.6834 7.099 10.4965 7.07301 10.4754 6.95814C10.4385 6.8673 10.4725 6.75047 10.5583 6.69996L10.5583 6.69993ZM10.8589 6.87843C10.989 6.84574 10.9423 7.11774 10.8337 7.0234C10.7976 6.98052 10.8169 6.90996 10.8589 6.87843H10.8589ZM8.97083 7.06783C9.057 7.04261 9.1826 7.06914 9.20638 7.16802C9.21641 7.26096 9.11421 7.30931 9.03931 7.33234C8.91931 7.36939 8.80192 7.4302 8.67284 7.42203C8.57608 7.36673 8.54136 7.25356 8.50687 7.15486C8.60023 7.06732 8.73773 7.09301 8.85346 7.0711C8.89255 7.06909 8.9317 7.06813 8.97083 7.06783ZM11.8996 7.49401C12.0095 7.44011 12.1277 7.6146 12.0357 7.69608C11.9206 7.82857 11.699 7.85318 11.5613 7.74188C11.5448 7.62466 11.6619 7.53949 11.766 7.52267C11.8097 7.5103 11.8532 7.49184 11.8996 7.49401ZM12.5174 7.62788C12.6423 7.60639 12.7407 7.78454 12.6515 7.87675C12.5671 8.00403 12.3658 8.0374 12.2507 7.93308C12.2058 7.82756 12.2968 7.71762 12.3937 7.68376C12.4353 7.66603 12.4748 7.64332 12.5174 7.62788ZM9.41104 7.8173C9.5267 7.80586 9.63266 7.92062 9.61749 8.03465C9.70121 8.11704 9.55295 8.27055 9.46953 8.18522C9.39603 8.09615 9.39641 7.97533 9.36794 7.86872C9.36666 7.84504 9.3842 7.81438 9.41104 7.8173ZM10.2989 7.88377C10.4185 7.83207 10.5732 7.97512 10.5081 8.09622C10.4616 8.19485 10.2803 8.16179 10.2863 8.04755C10.286 7.99288 10.2816 7.93683 10.2989 7.88375V7.88377ZM9.86697 7.96117C9.98686 7.93368 10.0969 8.08911 10.0302 8.1928C9.9107 8.20344 9.84865 8.06157 9.86697 7.96117Z" fill="#00A651"/>
</g>
<defs>
<clipPath id="clip0_42250_158972">
<rect width="21" height="14" fill="white"/>
</clipPath>
</defs>
</svg>
