<svg viewBox="0 0 22 16" fill="none" xmlns="http://www.w3.org/2000/svg">
<g clip-path="url(#clip0_42204_155480)">
<path d="M0.5 1H21.5V15H0.5V1Z" fill="#D80027"/>
<path d="M6.14893 1H21.5817V5.66667H6.14893V1Z" fill="white"/>
<path d="M6.14893 10.4141H21.5817V15.0807H6.14893V10.4141Z" fill="#4A7C3A"/>
<path fill-rule="evenodd" clip-rule="evenodd" d="M1.98779 2.56483C1.98777 2.5648 1.98776 2.56479 2.14971 2.43962C2.31165 2.31445 2.31165 2.31445 2.31165 2.31445L2.3158 2.3198C2.31861 2.32342 2.32283 2.32885 2.32837 2.33598C2.33947 2.35022 2.35588 2.37123 2.377 2.39811C2.41925 2.45189 2.48033 2.52913 2.55541 2.6227C2.70566 2.80995 2.91154 3.06206 3.13454 3.32209C3.35793 3.58259 3.59655 3.84877 3.81257 4.06516C4.03626 4.28924 4.21326 4.43648 4.31697 4.48569C4.58961 4.61504 4.75064 4.66732 4.83713 4.68799C4.88004 4.69824 4.90223 4.70015 4.90892 4.70048C4.91032 4.70055 4.91091 4.70054 4.91076 4.70055C4.91056 4.70055 4.9091 4.70056 4.90652 4.70075C4.90421 4.70093 4.90098 4.70126 4.89693 4.70187C4.8949 4.70218 4.89266 4.70256 4.89023 4.70302C4.88902 4.70326 4.88775 4.70351 4.88644 4.70379L4.88443 4.70423L4.8834 4.70447L4.88288 4.70459C4.88262 4.70465 4.88236 4.70471 4.92924 4.90395C4.97612 5.10318 4.97585 5.10324 4.97559 5.10331L4.97506 5.10343L4.97399 5.10367L4.97183 5.10414C4.97038 5.10445 4.96891 5.10475 4.96741 5.10504C4.96442 5.10561 4.96133 5.10614 4.95815 5.10662C4.95178 5.10759 4.94502 5.10836 4.93781 5.10891C4.92343 5.11001 4.90712 5.11026 4.88854 5.10933C4.8516 5.10749 4.80395 5.10095 4.74196 5.08613C4.61866 5.05666 4.42968 4.99226 4.1415 4.85553C3.96481 4.7717 3.74166 4.57355 3.52286 4.35437C3.29639 4.12751 3.05018 3.85256 2.82379 3.58857C2.59701 3.32412 2.38816 3.06837 2.23613 2.87889C2.16006 2.78409 2.09811 2.70574 2.05512 2.65102C2.03362 2.62366 2.01685 2.60219 2.00542 2.58752C1.99971 2.58019 1.99533 2.57455 1.99236 2.57073L1.98779 2.56483Z" fill="white"/>
<path fill-rule="evenodd" clip-rule="evenodd" d="M1.91645 4.90398L1.93438 5.10787L1.77783 4.75339L2.73047 3.8765H2.61645V3.46714H3.17519L3.18955 3.45392V2.43965H3.59891V3.07711L4.45503 2.28906L4.75213 2.56917L4.59364 2.43965C4.75213 2.56917 4.75215 2.56915 4.75213 2.56917L4.73476 2.59038C4.72347 2.60416 4.70688 2.62436 4.68564 2.65016C4.64317 2.70175 4.58211 2.77571 4.50762 2.86534C4.37272 3.02766 4.19362 3.24157 4.00109 3.46714H4.16791V3.8765H3.64725C3.52652 4.01412 3.40741 4.14744 3.29697 4.26732C3.10232 4.4786 2.92004 4.66439 2.80254 4.75007C2.58424 4.90924 2.37146 4.99809 2.21232 5.04733C2.13263 5.07198 2.06586 5.08686 2.0178 5.09569C1.99374 5.10012 1.9743 5.10304 1.96018 5.10491C1.95312 5.10585 1.94738 5.10653 1.94305 5.107C1.94088 5.10724 1.93907 5.10743 1.93762 5.10757L1.93572 5.10775L1.93498 5.10782L1.93451 5.10786C1.93444 5.10787 1.93438 5.10787 1.91645 4.90398Z" fill="white"/>
</g>
<rect x="0.25" y="0.75" width="21.5" height="14.5" stroke="#D3D3D3" stroke-width="0.5"/>
<defs>
<clipPath id="clip0_42204_155480">
<rect x="0.5" y="1" width="21" height="14" fill="white"/>
</clipPath>
</defs>
</svg>
