<svg viewBox="0 0 22 14" fill="none" xmlns="http://www.w3.org/2000/svg">
<g clip-path="url(#clip0_42204_155426)">
<path d="M0.5 0H21.5V14H0.5V0Z" fill="#055E1C"/>
<path d="M8.02834 8.37011C8.02834 8.8744 8.42746 9.28316 8.91985 9.28316H11.5944C11.5944 9.70333 11.927 10.044 12.3374 10.044H13.2289C13.6392 10.044 13.9718 9.70337 13.9718 9.28316V8.37011H8.02834ZM14.046 3.95703V6.08747C14.046 6.4231 13.7794 6.69614 13.4516 6.69614V7.60919C14.271 7.60919 14.9375 6.92657 14.9375 6.08747V3.95703H14.046ZM7.65686 6.08751C7.65686 6.42314 7.39026 6.69618 7.0625 6.69618V7.60923C7.88183 7.60923 8.54833 6.92661 8.54833 6.08751V3.95707H7.65682V6.08751H7.65686Z" fill="white"/>
<path d="M12.7088 3.95703H13.6004V6.08747H12.7088V3.95703ZM11.3716 5.17458C11.3716 5.2585 11.3049 5.32675 11.223 5.32675C11.141 5.32675 11.0744 5.2585 11.0744 5.17458V3.95715H10.1829V5.17458C10.1829 5.2585 10.1162 5.32675 10.0343 5.32675C9.95231 5.32675 9.88566 5.2585 9.88566 5.17458V3.95715H8.99414V5.17458C8.99414 5.76193 9.46073 6.2398 10.0342 6.2398C10.2551 6.2398 10.46 6.16872 10.6286 6.04797C10.7971 6.16872 11.0021 6.2398 11.2229 6.2398C11.2674 6.2398 11.3111 6.2366 11.3542 6.23098C11.291 6.49754 11.0566 6.6963 10.7772 6.6963V7.60935C11.5965 7.60935 12.263 6.92673 12.263 6.08763V3.95715H11.3715L11.3716 5.17458V5.17458Z" fill="white"/>
<path d="M8.99414 6.69531H10.3313V7.60836H8.99414V6.69531Z" fill="white"/>
</g>
<defs>
<clipPath id="clip0_42204_155426">
<rect width="21" height="14" fill="white" transform="translate(0.5)"/>
</clipPath>
</defs>
</svg>
