<svg viewBox="0 0 22 14" fill="none" xmlns="http://www.w3.org/2000/svg">
<g clip-path="url(#clip0_42204_155553)">
<path d="M0.5 0H21.5V13.9997H0.5V0Z" fill="white"/>
<path d="M5.17677 6.99917L0.5 2.32031V11.6789L5.17677 6.99917Z" fill="black"/>
<path d="M7.1114 6.99864L0.5 0.382812V2.31982L5.17677 6.99868L0.5 11.6784V13.6118L7.1114 6.99864Z" fill="#FFB915"/>
<path d="M21.4111 8.36941C21.4135 8.35136 21.4441 8.3334 21.5 8.31535V5.6303H9.63017L3.99987 0H0.5V0.38403L7.1114 6.99986L0.5 13.613V13.9997H3.99987L9.63017 8.36941H21.4111V8.36941Z" fill="#007847"/>
<path d="M21.1381 9.73828H10.1973L5.93652 13.999H21.4998V9.73828H21.1381Z" fill="#000C8A"/>
<path d="M21.1381 4.26071H21.4998V0H5.93652L10.1973 4.26071H21.1381Z" fill="#E1392D"/>
</g>
<defs>
<clipPath id="clip0_42204_155553">
<rect width="21" height="14" fill="white" transform="translate(0.5)"/>
</clipPath>
</defs>
</svg>
