<svg viewBox="0 0 22 14" fill="none" xmlns="http://www.w3.org/2000/svg">
<g clip-path="url(#clip0_42204_155527)">
<path d="M0.5 0H21.5V14H0.5V0Z" fill="#FFDA44"/>
<path d="M9.6123 0.912109H20.5462V13.0618H9.6123V0.912109Z" fill="#A2001D"/>
<path d="M1.41309 0.912109H9.6125V13.0618H1.41309V0.912109Z" fill="#D80027"/>
<path d="M8.69922 0H9.61208V14H8.69922V0Z" fill="#FFDA44"/>
<path d="M1.41309 0.912109H5.05636V13.0618H1.41309V0.912109Z" fill="#6DA544"/>
<path d="M5.05615 0.912109H8.69943V13.0618H5.05615V0.912109Z" fill="#FF9811"/>
<path d="M15.5723 6.41774C15.515 6.33586 15.5723 4.86627 15.5723 4.86627C15.6092 4.56335 15.5764 4.52241 15.6132 4.39961C15.6501 4.28089 15.8343 3.92475 15.8343 3.92475C15.8343 3.92475 15.5887 3.8306 15.4127 3.90019C15.2366 3.96978 14.4016 3.59317 14.1355 4.03937C13.9554 4.32592 13.1694 4.70253 13.1285 4.61247C13.0875 4.52241 12.8869 4.40779 12.846 4.49376C12.8051 4.57972 12.8173 5.06276 12.846 5.14873C12.8787 5.25516 13.2472 5.2306 13.3495 5.27563C13.501 5.34931 13.8489 5.6113 13.8366 5.71364C13.8244 5.81598 12.9156 5.46803 12.846 5.52943C12.7887 5.57855 12.7682 6.06978 12.8296 6.14347C12.9033 6.22943 13.7875 6.37271 13.853 6.45048C13.9185 6.52826 13.3168 6.75341 13.3495 7.47388C13.3782 8.07563 13.677 8.18616 13.677 8.18616C13.677 8.18616 13.5787 8.33352 13.3577 8.31306C13.1039 8.2885 12.2361 7.5885 12.2361 7.5885C12.2361 7.5885 12.0928 3.12651 12.3834 2.6189C12.584 2.27095 11.4542 3.03236 11.4542 4.69844V6.18031C11.4542 6.45048 11.3969 7.09727 11.5606 7.57212C11.5606 7.57212 11.5442 9.492 11.622 9.60253C11.6998 9.71306 12.1419 9.69259 12.2279 9.60253C12.3138 9.51247 12.2279 8.37446 12.2279 8.37446C12.5431 8.38265 12.977 9.09083 13.5583 9.04581C14.4016 8.98031 14.7331 8.64054 14.9624 8.84113C15.2939 9.13177 15.1875 9.79083 14.9787 10.1306C14.8887 10.2739 14.3934 10.323 14.3361 10.4417C14.2787 10.5604 14.3565 10.6628 14.3565 10.6628H15.5723C15.5723 10.6628 15.6296 9.82358 15.6828 9.59434C15.7361 9.36101 15.6583 9.15633 15.9244 9.16861C16.8863 9.21364 17.5536 8.5423 17.7869 8.84113C17.9179 9.00896 18.0162 10.0651 17.922 10.2043C17.832 10.3435 17.3571 10.3189 17.2998 10.4786C17.2425 10.6423 17.3325 10.6587 17.3325 10.6587H18.5483C18.5483 10.6587 18.532 9.79083 18.6507 9.52475C18.7694 9.25867 18.8513 9.09902 19.0314 8.82066C19.2115 8.5423 19.4939 8.17797 19.4939 7.33879C19.4939 6.7575 19.1624 6.40545 19.1624 6.40545H17.57C16.9928 6.41364 15.6296 6.49961 15.5723 6.41774ZM10.0051 1.32124C10.4431 0.887326 10.832 1.21072 10.9138 1.40721C10.9916 1.6037 10.9998 1.74288 11.0285 1.96393C11.0653 2.24639 11.229 2.53703 11.229 2.53703C11.229 2.53703 10.9384 2.38148 10.6273 2.3651C10.4349 2.35282 10.2589 2.34054 10.0706 2.26276C9.83722 2.16861 9.59161 1.73469 10.0051 1.32124ZM20.1735 1.31715C20.6115 1.75107 20.2881 2.14405 20.0916 2.22592C19.8951 2.30779 19.7559 2.31189 19.5349 2.34054C19.2524 2.37738 18.9618 2.54522 18.9618 2.54522C18.9618 2.54522 19.1132 2.25458 19.1337 1.94347C19.146 1.75107 19.1583 1.57095 19.232 1.38674C19.322 1.15341 19.7559 0.9037 20.1735 1.31715V1.31715ZM20.1776 12.6522C19.7396 13.0862 19.3507 12.7587 19.2688 12.5622C19.191 12.3657 19.1828 12.2265 19.1583 12.0055C19.1255 11.723 18.9577 11.4283 18.9577 11.4283C18.9577 11.4283 19.2442 11.5838 19.5594 11.6043C19.7518 11.6166 19.9279 11.6288 20.1162 11.7066C20.3495 11.8049 20.5951 12.2429 20.1776 12.6522V12.6522ZM10.0173 12.6481C9.58342 12.2101 9.90681 11.8212 10.1033 11.7394C10.2998 11.6616 10.439 11.6534 10.66 11.6248C10.9425 11.5879 11.2331 11.4242 11.2331 11.4242C11.2331 11.4242 11.0776 11.7148 11.0612 12.0259C11.0489 12.2183 11.0366 12.3943 10.9589 12.5826C10.8647 12.816 10.4308 13.0657 10.0173 12.6481V12.6481Z" fill="#FFDA44"/>
<path fill-rule="evenodd" clip-rule="evenodd" d="M16.4255 4.51777C16.3377 4.59326 16.2725 4.71511 16.2725 4.92058C16.2725 5.09703 16.38 5.25596 16.5946 5.35506C16.8111 5.45499 17.1299 5.48823 17.5135 5.39866C17.9286 5.30138 18.3564 5.33225 18.6809 5.4355C18.8428 5.48701 18.986 5.55875 19.0895 5.64797C19.1921 5.73631 19.2703 5.85559 19.2605 5.99736C19.2405 6.29701 19.1459 6.48752 19.0458 6.60532C18.9963 6.66352 18.9471 6.70199 18.9084 6.72652C18.8891 6.73876 18.8725 6.7475 18.8597 6.7535C18.8533 6.75651 18.8479 6.75883 18.8437 6.76056C18.8415 6.76142 18.8397 6.76214 18.8381 6.76273C18.8373 6.76302 18.8366 6.76328 18.836 6.76351L18.8351 6.76383L18.8347 6.76397L18.8345 6.76403C18.8344 6.76407 18.8343 6.7641 18.7941 6.64806C18.7539 6.53203 18.7538 6.53206 18.7537 6.53209L18.7535 6.53215L18.7532 6.53226L18.7527 6.53246L18.7519 6.53275C18.7515 6.5329 18.7513 6.53296 18.7515 6.53291C18.7517 6.53281 18.7529 6.53231 18.755 6.53132C18.7592 6.52934 18.7668 6.52545 18.7769 6.51908C18.7969 6.50638 18.8268 6.48371 18.8587 6.44622C18.9212 6.37266 18.9986 6.2337 19.0154 5.98083L19.0155 5.98045C19.0178 5.94628 19.0009 5.89574 18.9293 5.83407C18.8586 5.77323 18.7485 5.71475 18.6064 5.66955C18.323 5.57938 17.9403 5.55089 17.5695 5.63781L17.5694 5.63783C17.1466 5.73655 16.7695 5.70634 16.4917 5.57806C16.212 5.44895 16.0269 5.21488 16.0269 4.92058C16.0269 4.65734 16.1136 4.46193 16.2655 4.33147C16.4131 4.20469 16.6065 4.15274 16.7964 4.14001C17.1736 4.11472 17.5943 4.24019 17.7998 4.34961L17.8003 4.34988L17.8003 4.34988C17.8842 4.39505 17.9892 4.46597 18.0981 4.53948C18.119 4.5536 18.14 4.56781 18.1611 4.58196C18.296 4.67252 18.4375 4.76453 18.5724 4.83235C18.7109 4.90193 18.8243 4.9365 18.9065 4.93178C18.9444 4.92961 18.9724 4.91927 18.9948 4.9023C19.0177 4.88501 19.0429 4.85454 19.0642 4.79888L19.2936 4.88672C19.2596 4.97536 19.2102 5.04736 19.1431 5.09812C19.0756 5.14921 18.9986 5.17251 18.9206 5.17699C18.7709 5.18558 18.6087 5.12549 18.4621 5.05179C18.312 4.97634 18.1591 4.87646 18.0242 4.78588C18.0012 4.77048 17.979 4.75545 17.9574 4.74087C17.8481 4.66715 17.7561 4.60506 17.6841 4.56627C17.5128 4.47513 17.1376 4.36329 16.8129 4.38507C16.6517 4.39587 16.5177 4.43859 16.4255 4.51777Z" fill="#FFDA44"/>
</g>
<defs>
<clipPath id="clip0_42204_155527">
<rect width="21" height="14" fill="white" transform="translate(0.5)"/>
</clipPath>
</defs>
</svg>
