<svg viewBox="0 0 80 80" fill="none" xmlns="http://www.w3.org/2000/svg">
<path d="M53.3337 22.6665C53.3337 14.4998 44.371 2.6665 40.0003 2.6665C35.6297 2.6665 26.667 14.4998 26.667 22.6665V51.9998H53.3337V22.6665Z" stroke="white" stroke-width="2" stroke-miterlimit="10"/>
<path d="M26.6668 52V56C26.6668 56.736 26.0695 57.3333 25.3335 57.3333H17.3335C16.5815 57.3333 15.9815 56.716 16.0015 55.9653C16.1841 48.8067 17.9241 38.6867 26.6668 36.604" stroke="white" stroke-width="2" stroke-miterlimit="10"/>
<path d="M53.333 52V56C53.333 56.736 53.9303 57.3333 54.6663 57.3333H62.6663C63.4183 57.3333 64.0183 56.716 63.9983 55.9653C63.8157 48.8067 62.077 38.6853 53.333 36.604" stroke="white" stroke-width="2" stroke-miterlimit="10"/>
<path d="M40 58.6665V71.9998" stroke="white" stroke-width="2" stroke-miterlimit="10"/>
<path d="M46.667 56V61.3333" stroke="white" stroke-width="2" stroke-miterlimit="10"/>
<path d="M33.333 56V61.3333" stroke="white" stroke-width="2" stroke-miterlimit="10"/>
<path d="M33.333 64V66.6667" stroke="white" stroke-width="2" stroke-miterlimit="10"/>
<path d="M40 40C44.4183 40 48 36.4183 48 32C48 27.5817 44.4183 24 40 24C35.5817 24 32 27.5817 32 32C32 36.4183 35.5817 40 40 40Z" stroke="white" stroke-width="2" stroke-miterlimit="10"/>
<path d="M21.791 72.7922C20.3577 70.6362 17.4497 69.3335 14.667 69.3335C10.2483 69.3335 6.66699 72.9148 6.66699 77.3335H30.0003" stroke="white" stroke-width="2" stroke-miterlimit="10"/>
<path d="M15.5938 69.3812C15.5938 65.6998 18.9858 62.6665 22.6671 62.6665C24.6124 62.6665 26.3617 63.4998 27.5804 64.8278" stroke="white" stroke-width="2" stroke-miterlimit="10"/>
<path d="M54.041 71.4732C55.949 68.5772 58.9397 66.6665 62.6663 66.6665C68.557 66.6665 73.333 71.4425 73.333 77.3332H37.333" stroke="white" stroke-width="2" stroke-miterlimit="10"/>
<path d="M49.5537 64.092C49.9164 64.032 50.2884 64 50.667 64C53.5324 64 56.0364 65.8867 56.979 68.424" stroke="white" stroke-width="2" stroke-miterlimit="10"/>
</svg>
