<svg viewBox="0 0 80 80" fill="none" xmlns="http://www.w3.org/2000/svg">
<path d="M55.3333 22V7.33333C55.3333 6.59733 54.736 6 54 6H3.33333C2.59733 6 2 6.59733 2 7.33333V63.3333C2 64.0693 2.59733 64.6667 3.33333 64.6667H44.6667" stroke="white" stroke-width="2" stroke-miterlimit="10"/>
<path d="M19.3327 10H16.666V12.6667H19.3327V10Z" fill="white"/>
<path d="M13.9997 10H11.333V12.6667H13.9997V10Z" fill="white"/>
<path d="M8.66667 10H6V12.6667H8.66667V10Z" fill="white"/>
<path d="M62.6667 26H60V28.6667H62.6667V26Z" fill="white"/>
<path d="M57.3327 26H54.666V28.6667H57.3327V26Z" fill="white"/>
<path d="M51.9997 26H49.333V28.6667H51.9997V26Z" fill="white"/>
<path d="M2 16.6665H55.3333" stroke="white" stroke-width="2" stroke-miterlimit="10"/>
<path d="M40.6663 26H7.33301V36.6667H40.6663" stroke="white" stroke-width="2" stroke-miterlimit="10"/>
<path d="M6 45.6665H40.6667" stroke="white" stroke-width="2" stroke-miterlimit="10"/>
<path d="M6 51.6665H32.6667" stroke="white" stroke-width="2" stroke-miterlimit="10"/>
<path d="M6 57.6665H12.6667" stroke="white" stroke-width="2" stroke-miterlimit="10"/>
<path d="M17 57.6665H28.6667" stroke="white" stroke-width="2" stroke-miterlimit="10"/>
<path d="M76.6687 74C77.4047 74 78.002 73.4027 78.002 72.6667V23.3333C78.002 22.5973 77.4047 22 76.6687 22H45.9993C45.2633 22 44.666 22.5973 44.666 23.3333V72.6667C44.666 73.4027 45.2633 74 45.9993 74H76.6687Z" stroke="white" stroke-width="2" stroke-miterlimit="10"/>
<path d="M72.6667 47.333V35.333H50V45.9997H68.6667" stroke="white" stroke-width="2" stroke-miterlimit="10"/>
<path d="M49 54.6665H73.6667" stroke="white" stroke-width="2" stroke-miterlimit="10"/>
<path d="M49 60.6665H65.6667" stroke="white" stroke-width="2" stroke-miterlimit="10"/>
<path d="M49 66.6665H53" stroke="white" stroke-width="2" stroke-miterlimit="10"/>
<path d="M57 66.6665H63.6667" stroke="white" stroke-width="2" stroke-miterlimit="10"/>
</svg>
