<svg viewBox="0 0 80 80" fill="none" xmlns="http://www.w3.org/2000/svg">
<path d="M13.3333 40.0002C11.8333 40.0002 9.33333 41.2255 9.33333 44.0002C9.33333 46.7762 12 49.3335 16 49.3335C25.3333 49.3335 37.3333 40.0388 37.3333 26.6668C37.3333 17.5468 29.7867 9.3335 20.6667 9.3335C11.5467 9.3335 4 15.1802 4 26.6668C4 29.3895 6.16667 33.3335 10.6667 33.3335C13.292 33.3335 17.3333 33.2775 17.3333 36.7082C17.3333 38.6668 16 40.0002 13.3333 40.0002Z" stroke="white" stroke-width="2" stroke-miterlimit="10"/>
<path d="M54.7855 36.0622C55.346 36.0622 55.8004 35.6078 55.8004 35.0472C55.8004 34.4866 55.346 34.0322 54.7855 34.0322C54.2249 34.0322 53.7705 34.4866 53.7705 35.0472C53.7705 35.6078 54.2249 36.0622 54.7855 36.0622Z" stroke="white" stroke-width="2" stroke-miterlimit="10"/>
<path d="M61.833 21.7944L67.459 27.4214" stroke="white" stroke-width="2" stroke-miterlimit="10"/>
<path d="M46.667 43.1678L54.0692 35.7646" stroke="white" stroke-width="2" stroke-miterlimit="10"/>
<path d="M64.6472 19.2549C64.6472 19.2549 61.1598 22.3576 60.4229 23.13C60.1022 23.468 59.7134 23.7512 59.2364 23.8436C59.2364 23.8436 52.9669 25.3609 50.1169 25.9212C49.9423 25.9567 49.8012 26.0826 49.7424 26.247L46.667 43.1676C46.667 43.1676 58.3534 40.3815 62.9065 39.1067C63.1288 39.0438 63.2476 38.8469 63.3003 38.6124C63.8789 36.0415 64.4077 33.2503 64.9365 30.6378C65.0552 30.0511 65.2734 29.5518 65.6865 29.1559C66.0286 28.8281 68.1519 26.7372 70.667 24.2861" stroke="white" stroke-width="2" stroke-miterlimit="10"/>
<path d="M64 50.667H76" stroke="white" stroke-width="2" stroke-miterlimit="10"/>
<path d="M58.6667 50.667H20" stroke="white" stroke-width="2" stroke-miterlimit="10"/>
<path d="M39.0633 58.667L35.5967 70.667" stroke="white" stroke-width="2" stroke-miterlimit="10"/>
<path d="M55.6953 58.667L59.0006 70.667" stroke="white" stroke-width="2" stroke-miterlimit="10"/>
<path d="M26.667 70.667H68.0003" stroke="white" stroke-width="2" stroke-miterlimit="10"/>
<path d="M29.3333 26.6667C30.0697 26.6667 30.6667 26.0697 30.6667 25.3333C30.6667 24.597 30.0697 24 29.3333 24C28.597 24 28 24.597 28 25.3333C28 26.0697 28.597 26.6667 29.3333 26.6667Z" stroke="white" stroke-width="2" stroke-miterlimit="10"/>
<path d="M20.0003 18.6667C20.7367 18.6667 21.3337 18.0697 21.3337 17.3333C21.3337 16.597 20.7367 16 20.0003 16C19.2639 16 18.667 16.597 18.667 17.3333C18.667 18.0697 19.2639 18.6667 20.0003 18.6667Z" stroke="white" stroke-width="2" stroke-miterlimit="10"/>
<path d="M12.0003 25.3337C12.7367 25.3337 13.3337 24.7367 13.3337 24.0003C13.3337 23.2639 12.7367 22.667 12.0003 22.667C11.2639 22.667 10.667 23.2639 10.667 24.0003C10.667 24.7367 11.2639 25.3337 12.0003 25.3337Z" stroke="white" stroke-width="2" stroke-miterlimit="10"/>
<path d="M26.6663 37.3337C27.4027 37.3337 27.9997 36.7367 27.9997 36.0003C27.9997 35.2639 27.4027 34.667 26.6663 34.667C25.93 34.667 25.333 35.2639 25.333 36.0003C25.333 36.7367 25.93 37.3337 26.6663 37.3337Z" stroke="white" stroke-width="2" stroke-miterlimit="10"/>
<path d="M29.3493 12H71.5453C74.0053 12 76 14.0893 76 16.6667V54C76 56.5787 74.0053 58.6667 71.5453 58.6667H24.4547C21.9947 58.6667 20 56.5787 20 54V48.8093" stroke="white" stroke-width="2" stroke-miterlimit="10"/>
</svg>
