<svg width="40" height="40" viewBox="0 0 40 40" fill="none" xmlns="http://www.w3.org/2000/svg">
<path d="M32.5894 6.48244C32.5917 4.5647 31.0387 3.00259 29.1262 3H19.0189C19.0171 3 19.0156 3 19.014 3C18.0924 3 17.2244 3.35849 16.5694 4.00958C15.9118 4.66379 15.5489 5.53381 15.5476 6.45961C15.5461 7.70239 16.193 8.7955 17.166 9.41573V21.1341L11.6144 23.6246C8.0964 25.1766 6.49435 29.3062 8.04322 32.8302C8.79159 34.5331 10.1633 35.8439 11.9057 36.5209C12.7285 36.8405 13.5853 37 14.44 37C15.3925 37 16.3424 36.8018 17.2392 36.4062L26.4998 32.2753C26.8147 32.1365 27.1215 31.9728 27.4121 31.7889C29.7015 30.564 31.1197 28.2027 31.1163 25.617V9.31975C31.2763 9.20587 31.4286 9.07851 31.5702 8.93661C32.2263 8.2793 32.5881 7.40771 32.5894 6.48244ZM29.1249 4.99193C29.9378 4.99323 30.5983 5.6604 30.5972 6.47984C30.5967 6.87491 30.4416 7.24767 30.1604 7.52937C29.8808 7.80952 29.5124 7.96361 29.1228 7.96361C29.1218 7.96361 29.1207 7.96361 29.1194 7.96361H19.0122C18.213 7.96257 17.5385 7.27516 17.5396 6.46246C17.5401 6.06973 17.6944 5.70035 17.9741 5.42227C18.2529 5.14471 18.6223 4.99193 19.0153 4.99193H19.0174H29.1249ZM9.8668 32.0286C9.16668 30.4354 9.36746 28.6699 10.2463 27.3055C11.4084 27.2551 12.5391 27.6142 13.4675 28.3381C14.5036 29.1462 15.1635 30.3101 15.3261 31.6156C15.4766 32.8252 15.185 34.0135 14.5046 35.0057C13.8722 35.014 13.2367 34.9009 12.6271 34.6641C11.3812 34.1798 10.4009 33.2439 9.8668 32.0286ZM17.0387 34.3144C17.3352 33.3777 17.4286 32.3788 17.3027 31.3697C17.0747 29.5366 16.1476 27.9021 14.6924 26.7672C13.9482 26.1869 13.1116 25.7732 12.2268 25.5377C12.2917 25.5055 12.357 25.4741 12.424 25.4445L18.5697 22.6879C18.9279 22.5273 19.1582 22.1714 19.1582 21.779V17.9111C19.3318 17.8506 19.4908 17.7414 19.613 17.586L21.5123 15.1656L23.4116 17.586C23.6004 17.8268 23.8923 17.9671 24.1981 17.9671C24.2017 17.9671 24.2054 17.9671 24.2093 17.9668C24.5112 17.9637 24.7952 17.8234 24.9817 17.5858L26.8811 15.1656L28.7804 17.5858C28.8759 17.7074 28.9944 17.7998 29.1246 17.8638V21.3193C27.5529 21.5263 26.0995 22.2386 24.9574 23.3779C23.5812 24.7501 22.8209 26.5771 22.8165 28.522C22.8142 29.5428 23.0243 30.5423 23.4282 31.4642L17.0387 34.3144ZM26.4453 30.0468C26.4204 30.0598 26.396 30.0743 26.3721 30.0893C26.1573 30.2273 25.9296 30.3495 25.692 30.4543L25.2471 30.6528C24.9574 29.9864 24.8064 29.2645 24.8082 28.5267C24.8116 27.113 25.3638 25.7854 26.3638 24.7885C27.1285 24.0256 28.0855 23.5276 29.1244 23.3367V25.6183C29.1267 27.4769 28.1 29.1739 26.4453 30.0468ZM29.1244 14.7975L27.6932 12.9739C27.5036 12.707 27.1892 12.5475 26.8577 12.5545C26.5324 12.5615 26.2346 12.7264 26.0554 12.9905L24.1965 15.3596L22.3245 12.9739C22.1348 12.707 21.8204 12.5464 21.4889 12.5545C21.1639 12.5615 20.8661 12.7264 20.6869 12.9905L19.1582 14.9383V9.9558H29.1197H29.1231C29.1233 9.9558 29.1238 9.95554 29.1244 9.95554V14.7975Z" fill="black"/>
</svg>
