<svg width="40" height="40" viewBox="0 0 40 40" fill="none" xmlns="http://www.w3.org/2000/svg">
<path d="M33.0819 31.4997L28.0054 23.3743H28.6057C28.9758 23.3743 29.3154 23.1691 29.4874 22.8415C29.6596 22.5138 29.6357 22.1177 29.4259 21.8129L25.8822 16.6698C26.2332 16.6491 26.5492 16.4439 26.7105 16.1282C26.8807 15.7946 26.8493 15.3938 26.6296 15.0906L21.4699 7.97502C22.2154 7.49332 22.7106 6.6552 22.7106 5.70294C22.7106 4.21243 21.4989 3 20.01 3C18.5208 3 17.3094 4.21243 17.3094 5.70294C17.3094 6.6552 17.8045 7.49332 18.5501 7.97502L13.3904 15.0906C13.1706 15.3938 13.1393 15.7946 13.3094 16.1279C13.4705 16.4439 13.7865 16.6488 14.1377 16.6698L10.594 21.8129C10.3839 22.1177 10.3603 22.5138 10.5323 22.8415C10.7045 23.1691 11.0441 23.3743 11.4142 23.3743H12.0142L6.9378 31.4997C6.7461 31.8068 6.73599 32.1938 6.9116 32.5103C7.08721 32.827 7.42054 33.0237 7.78266 33.0237H8.76916C8.79562 33.0257 8.82207 33.0276 8.84905 33.0276H8.8641C8.91753 33.0268 8.97045 33.0247 9.02389 33.0237H17.0715V36.0039C17.0715 36.5541 17.5174 37 18.0676 37H21.9523C22.5023 37 22.9484 36.5541 22.9484 36.0039V33.0237H32.2373C32.5991 33.0237 32.933 32.827 33.1083 32.5103C33.2839 32.1938 33.2738 31.8068 33.0819 31.4997ZM21.7785 11.7944C21.0512 13.3199 19.4152 15.887 16.2915 17.055L16.8526 16.2405C17.0627 15.936 17.0863 15.5399 16.9143 15.2123C16.7597 14.9181 16.4702 14.7225 16.1449 14.6857L20.01 9.35555L21.7785 11.7944ZM26.2086 21.3821C25.8464 21.3821 25.5129 21.5784 25.3375 21.8952C25.1619 22.2119 25.172 22.5989 25.3637 22.9061L26.0109 23.9416C23.1375 23.7159 20.529 22.3815 18.7301 21.194C17.6795 20.5006 16.7926 19.787 16.1278 19.2044C17.8009 18.7284 19.3083 17.8815 20.6268 16.6745C21.7254 15.6683 22.5191 14.5715 23.0828 13.5931L23.875 14.6857C23.5497 14.7228 23.2602 14.9181 23.1056 15.2123C22.9334 15.5399 22.9573 15.936 23.1671 16.2408L26.7097 21.3821H26.2086ZM14.1761 20.1253C14.9128 20.8171 16.0889 21.8332 17.5885 22.8275C20.0572 24.4645 22.5687 25.4793 24.985 25.8292C24.2117 26.3579 23.2408 26.9649 22.0942 27.5714C19.3233 29.0372 14.9499 30.7866 9.59119 31.0128L14.656 22.9058C14.8477 22.5989 14.8578 22.2119 14.6824 21.8952C14.5068 21.5784 14.1732 21.3821 13.8111 21.3821H13.3102L14.1761 20.1253ZM19.2455 31.0315C20.7295 30.4745 22.0211 29.8665 23.0895 29.2984C25.1536 28.2007 26.6713 27.1138 27.5577 26.4175L30.4404 31.0315H19.2455ZM20.01 4.99219C20.4006 4.99219 20.7184 5.31099 20.7184 5.70294C20.7184 6.09464 20.4006 6.41344 20.01 6.41344C19.6193 6.41344 19.3015 6.09464 19.3015 5.70294C19.3015 5.31099 19.6193 4.99219 20.01 4.99219ZM20.9562 35.0078H19.0637V33.0237H20.9562V35.0078Z" fill="black"/>
<path d="M23.2224 19.5401C23.2224 18.8024 22.6279 18.2045 21.8943 18.2045C21.1607 18.2045 20.5662 18.8024 20.5662 19.5401C20.5662 20.2776 21.1607 20.8758 21.8943 20.8758C22.6279 20.8758 23.2224 20.2776 23.2224 19.5401Z" fill="black"/>
<path d="M17.8311 26.6245C17.8311 25.8868 17.2362 25.2889 16.5029 25.2889C15.7693 25.2889 15.1748 25.8868 15.1748 26.6245C15.1748 27.362 15.7693 27.9599 16.5029 27.9599C17.2362 27.9599 17.8311 27.362 17.8311 26.6245Z" fill="black"/>
</svg>
