<svg width="40" height="40" viewBox="0 0 40 40" fill="none" xmlns="http://www.w3.org/2000/svg">
<path d="M21.8948 8.97412V22.8353" stroke="black" stroke-width="1.9917" stroke-miterlimit="10" stroke-linecap="round" stroke-linejoin="round"/>
<path d="M15.6409 8.84143L18.6948 14.2798H12.5869L15.6409 8.84143ZM15.6409 8.84143H28.1487M28.1487 8.84143L31.2027 14.2798H25.0948L28.1487 8.84143Z" stroke="black" stroke-width="1.9917" stroke-miterlimit="10" stroke-linecap="round" stroke-linejoin="round"/>
<path d="M18.6948 14.2798V15.2083C18.6948 16.8932 17.3275 18.2591 15.6409 18.2591C13.9542 18.2591 12.5869 16.8932 12.5869 15.2083V14.2798" stroke="black" stroke-width="1.9917" stroke-miterlimit="10" stroke-linecap="round" stroke-linejoin="round"/>
<path d="M25.0947 14.2798V15.2083C25.0947 16.8932 26.462 18.2591 28.1487 18.2591C29.8353 18.2591 31.2026 16.8932 31.2026 15.2083V14.2798" stroke="black" stroke-width="1.9917" stroke-miterlimit="10" stroke-linecap="round" stroke-linejoin="round"/>
<path d="M17.314 26.9472V25.4177C17.314 24.0647 18.4119 22.9679 19.7663 22.9679H24.0235C25.3778 22.9679 26.4758 24.0647 26.4758 25.4177V26.9472H17.314Z" stroke="black" stroke-width="1.9917" stroke-miterlimit="10" stroke-linecap="round" stroke-linejoin="round"/>
<path d="M5.60278 33.8114V5.98964C5.60278 4.89082 6.49447 4 7.59448 4H35.0534V31.6228" stroke="black" stroke-width="1.9917" stroke-miterlimit="10" stroke-linecap="round" stroke-linejoin="round"/>
<path d="M35.0534 36H7.79167C7.18686 36 6.6398 35.755 6.24412 35.3587C5.83708 34.9523 5.58965 34.3863 5.60332 33.7619C5.62955 32.5655 6.63788 31.6229 7.83462 31.6229H35.0534C34.1056 32.928 34.1056 34.6949 35.0534 36Z" stroke="black" stroke-width="1.9917" stroke-miterlimit="10" stroke-linecap="round" stroke-linejoin="round"/>
<path d="M8.81421 4V31.0207" stroke="black" stroke-width="1.9917" stroke-miterlimit="10" stroke-linecap="round" stroke-linejoin="round"/>
</svg>
