<svg width="40" height="41" viewBox="0 0 40 41" fill="none" xmlns="http://www.w3.org/2000/svg">
    <g clip-path="url(#clip0_44215_105170)">
        <path d="M24.6167 12.48C26.5643 13.5211 28.3952 15.5518 28.3952 19.2072C28.3952 27.3302 20.0913 27.3334 20.0913 27.3334C15.6226 27.3334 12 23.7107 12 19.2421C12 16.4499 13.4145 13.9343 15.5658 12.48C14.3665 11.3051 13.6183 9.67188 13.6183 7.86034C13.6183 4.28535 16.5163 1.33337 20.0913 1.33337C23.6663 1.33337 26.5643 4.28535 26.5643 7.86034C26.5643 9.67188 25.816 11.3051 24.6167 12.48Z" stroke="black" stroke-width="1.99219" stroke-miterlimit="10" stroke-linecap="round" stroke-linejoin="round"/>
        <path d="M23.3278 7.86035C23.3278 9.64782 21.8787 11.0969 20.0913 11.0969C18.3038 11.0969 16.8547 9.64782 16.8547 7.86035C16.8547 6.07287 18.3038 4.56989 20.0913 4.56989C21.8787 4.56989 23.3278 6.07287 23.3278 7.86035Z" stroke="black" stroke-width="1.99219" stroke-miterlimit="10" stroke-linecap="round" stroke-linejoin="round"/>
        <path d="M23.5 22.5C23.5 22.5 22.5 24.0969 20.0913 24.0969C17.6827 24.0969 15.2366 21.9233 15.2366 19.2421C15.2366 16.5609 17.4101 14.3334 20.0913 14.3334C22.7725 14.3334 24.9461 16.5609 24.9461 19.2421C24.9461 19.2619 24.946 19.2816 24.9457 19.3013" stroke="black" stroke-width="1.99219" stroke-miterlimit="10" stroke-linecap="round" stroke-linejoin="round"/>
        <path d="M12 39.2184V34.2186L14.1616 36.43" stroke="black" stroke-width="1.87" stroke-miterlimit="22.926" stroke-linecap="round" stroke-linejoin="round"/>
        <path d="M16.3451 39.2185V34.2187L14.1836 36.4301" stroke="black" stroke-width="1.87" stroke-miterlimit="22.926" stroke-linecap="round" stroke-linejoin="round"/>
        <path d="M18.9585 39.2186L21.3278 34.2186" stroke="black" stroke-width="1.87" stroke-miterlimit="22.926" stroke-linecap="round" stroke-linejoin="round"/>
        <path d="M23.8503 39.2186L21.481 34.2186" stroke="black" stroke-width="1.87" stroke-miterlimit="22.926" stroke-linecap="round" stroke-linejoin="round"/>
        <path d="M20.0403 38.2065H23.1359" stroke="black" stroke-width="1.87" stroke-miterlimit="22.926" stroke-linecap="round" stroke-linejoin="round"/>
        <path d="M25.6304 34.2187L27.3565 36.7186" stroke="black" stroke-width="1.87" stroke-miterlimit="22.926" stroke-linecap="round" stroke-linejoin="round"/>
        <path d="M29.0826 34.2187L27.3564 36.7186" stroke="black" stroke-width="1.87" stroke-miterlimit="22.926" stroke-linecap="round" stroke-linejoin="round"/>
        <path d="M27.3564 36.7185V39.2184" stroke="black" stroke-width="1.87" stroke-miterlimit="22.926" stroke-linecap="round" stroke-linejoin="round"/>
    </g>
    <defs>
        <clipPath id="clip0_44215_105170">
            <rect width="40" height="40" fill="white" transform="translate(0 0.333374)"/>
        </clipPath>
    </defs>
</svg>
