<svg width="40" height="40" viewBox="0 0 40 40" fill="none" xmlns="http://www.w3.org/2000/svg">
<path d="M16.0156 22.9883C16.5658 22.9883 17.0117 22.5423 17.0117 21.9922C17.0117 21.4421 16.5658 20.9961 16.0156 20.9961C15.4655 20.9961 15.0195 21.4421 15.0195 21.9922C15.0195 22.5423 15.4655 22.9883 16.0156 22.9883Z" fill="black"/>
<path d="M23.9844 22.9883C24.5345 22.9883 24.9805 22.5423 24.9805 21.9922C24.9805 21.4421 24.5345 20.9961 23.9844 20.9961C23.4342 20.9961 22.9883 21.4421 22.9883 21.9922C22.9883 22.5423 23.4342 22.9883 23.9844 22.9883Z" fill="black"/>
<path d="M23.5217 28.0896C23.1328 27.7006 22.502 27.7006 22.113 28.0896C21.5486 28.6541 20.7982 28.9648 20 28.9648C19.2461 28.9648 18.5262 28.6833 17.9729 28.1722C17.5688 27.7989 16.9386 27.8239 16.5652 28.2279C16.1919 28.632 16.2169 29.2622 16.621 29.6355C17.5435 30.4877 18.7435 30.957 20 30.957C21.3303 30.957 22.581 30.4389 23.5217 29.4983C23.9107 29.1093 23.9107 28.4786 23.5217 28.0896Z" fill="black"/>
<path d="M32.9492 14.0234C32.9492 11.9868 31.7198 10.2327 29.9647 9.46173C28.2226 5.65173 24.3928 3 20 3C15.0694 3 10.7427 6.36202 9.43855 11.0958C8.07762 11.3746 7.05078 12.5813 7.05078 14.0234V16.0156C7.05078 16.8136 7.36581 17.539 7.87727 18.0755C7.32876 19.6423 7.05078 21.2913 7.05078 22.9883C7.05078 30.7144 12.8598 37 20 37C27.1402 37 32.9492 30.7144 32.9492 22.9883C32.9492 20.9972 32.5489 19.0159 31.789 17.2144C32.5127 16.3495 32.9492 15.2367 32.9492 14.0234ZM20 4.99219C23.05 4.99219 25.8331 6.54769 27.4796 9.06727C26.1568 9.19683 24.9848 9.84642 24.1697 10.8079L22.6965 9.33469C22.3076 8.94568 21.6768 8.94568 21.2878 9.33469C20.8988 9.7237 20.8988 10.3544 21.2878 10.7434L21.5795 11.0351H11.5436C12.7933 7.4704 16.1747 4.99219 20 4.99219ZM26.9012 19.0039C26.9482 19.3326 26.9727 19.6656 26.9727 20C26.9727 21.7228 26.3336 23.3765 25.197 24.6482C24.2996 24.0099 23.2865 23.5378 22.2233 23.2664C21.9461 23.1956 21.6519 23.2475 21.4154 23.4088C21.179 23.5701 21.0235 23.8252 20.9884 24.1092C20.927 24.6059 20.502 24.9805 20 24.9805C19.498 24.9805 19.073 24.6059 19.0115 24.1092C18.9764 23.8253 18.8208 23.5701 18.5845 23.4088C18.3481 23.2475 18.0538 23.1956 17.7766 23.2664C16.7134 23.5378 15.7003 24.01 14.803 24.6482C13.6664 23.3765 13.0273 21.7228 13.0273 20C13.0273 19.6656 13.0518 19.3326 13.0988 19.0039H26.9012ZM9.04297 14.0234C9.04297 13.4742 9.48982 13.0207 10.0391 13.0207C10.6577 13.0207 22.4572 13.0207 23.0885 13.0207C23.0229 13.3426 22.9883 13.6757 22.9883 14.0168C22.9883 15.099 23.3334 16.1412 23.9868 17.0117H10.0391C9.48982 17.0117 9.04297 16.5649 9.04297 16.0156V14.0234ZM20 35.0078C13.9583 35.0078 9.04297 29.6159 9.04297 22.9883C9.04297 21.606 9.25507 20.262 9.67389 18.9808C9.79369 18.9955 9.91535 18.9973 10.0391 18.9973H11.0912C11.0547 19.3272 11.0352 19.6664 11.0352 20C11.0352 22.5706 12.1413 25.0212 14.0699 26.7234C14.4465 27.0557 15.0116 27.0557 15.3882 26.7234C15.9862 26.1956 16.6741 25.773 17.411 25.4773C17.9312 26.3769 18.9045 26.9727 20 26.9727C21.0955 26.9727 22.0688 26.3769 22.589 25.4773C23.3259 25.773 24.0138 26.1955 24.6118 26.7234C24.9884 27.0557 25.5536 27.0557 25.9301 26.7234C27.8587 25.0212 28.9648 22.5706 28.9648 20C28.9648 19.6384 28.9425 19.278 28.8996 18.9208C28.9057 18.9181 28.9115 18.9149 28.9175 18.9122C29.3529 18.8279 29.7682 18.6871 30.1553 18.4971C30.6813 19.9157 30.957 21.4477 30.957 22.9883C30.957 29.6159 26.0417 35.0078 20 35.0078ZM27.9688 17.0117C26.3806 17.0117 24.9805 15.722 24.9805 14.0234C24.9805 12.3757 26.321 11.0352 27.9688 11.0352C29.6165 11.0352 30.957 12.3757 30.957 14.0234C30.957 15.6712 29.6165 17.0117 27.9688 17.0117Z" fill="black"/>
</svg>
