<svg width="40" height="40" viewBox="0 0 40 40" fill="none" xmlns="http://www.w3.org/2000/svg">
<path d="M33.4999 24C34.6354 23.5669 35.442 23.1559 35.4999 22.5C35.6516 20.7801 37.0871 20.9596 38.4023 19.8964C39.7175 18.8331 38.5034 16.3565 38.1494 14.5233C37.7953 12.6901 35.3186 14.4869 33.9003 13.6249C33.1333 13.1587 32.6357 12.3097 31.5734 12.8661C30.5112 13.4225 28.9431 13.372 28.4372 12.8155C27.9314 12.259 28.2855 10.9945 26.768 10.6404C25.2504 10.2863 26.5151 9.62868 25.3011 7.75712C24.087 5.88548 22.519 8.06059 20.3273 8.16182C18.1356 8.26297 19.5878 10.0645 18.4722 10.8934C17.5297 11.5937 15.5272 11.0313 13.3145 10.2726" stroke="black" stroke-width="1.95735" stroke-miterlimit="10" stroke-linecap="round" stroke-linejoin="round"/>
<path d="M10.7866 9.39428C10.3929 9.26201 10.0026 9.13592 9.6201 9.02169C6.23099 8.00999 4.2582 9.57809 4.76405 10.6404C5.2699 11.7027 5.77575 13.1191 3.90412 14.5232C2.03248 15.9274 0.666696 18.0257 1.07139 19.7757C1.56807 21.9235 6.4333 22.8818 8.45663 22.052C10.48 21.2222 12.5016 19.9039 14.2738 21.1517C16.7018 22.8613 18.294 25.3446 17.5858 25.901C16.8777 26.4574 16.2466 25.8157 15.6396 26.0686C15.0325 26.3215 16.1454 27.2826 14.9819 28.3955C13.8185 29.5083 14.7689 30.9367 15.9324 30.6332C17.0958 30.3297 19.0492 29.759 19.6573 27.4214C20.0904 25.7568 20.7596 25.2549 21.5579 25.9675C22.4267 26.7429 23.2008 27.5652 24.4917 27.1309C25.5488 26.7752 26.0809 27.6495 25.0987 28.0948C24.6548 28.2962 24.2198 28.512 23.859 28.7525C23.4173 29.0469 23.545 29.7281 24.0644 29.8382C24.9856 30.0336 25.7646 30.44 25.9081 31.2497C26.1759 32.7617 27.2738 32.6445 27.8302 31.7339C28.3866 30.8234 29.2742 30.5506 31.4999 30.5C33.7257 30.4494 33.1341 27.0617 31.0602 27.8204C28.9862 28.5792 27.7335 27.7064 28.4999 26.5C28.9348 25.8156 29.9244 25.4299 31.0602 25" stroke="black" stroke-width="1.95735" stroke-miterlimit="10" stroke-linecap="round" stroke-linejoin="round"/>
</svg>
