<svg width="40" height="40" viewBox="0 0 40 40" fill="none" xmlns="http://www.w3.org/2000/svg">
<mask id="mask0_23821_30789" style="mask-type:luminance" maskUnits="userSpaceOnUse" x="3" y="3" width="34" height="34">
<path d="M3 3H37V37H3V3Z" fill="white"/>
</mask>
<g mask="url(#mask0_23821_30799)">
<path d="M27.0409 24.0604C26.5151 21.457 24.9739 19.1552 22.8485 17.7184C24.3249 16.272 25.2461 14.2614 25.2461 12.0312C25.2461 7.63018 21.6784 3.99609 17.2773 3.99609C12.8763 3.99609 9.30859 7.63018 9.30859 12.0312C9.30859 14.2614 10.2298 16.272 11.7062 17.7184C9.05771 19.5087 7.31641 22.6056 7.31641 26.043C7.31641 31.5442 11.7761 36.0039 17.2773 36.0039C19.5524 36.0039 21.6493 35.2412 23.3263 33.9575" stroke="black" stroke-width="1.99219" stroke-miterlimit="10" stroke-linecap="round" stroke-linejoin="round"/>
<path d="M31.6849 30.2942L31.2226 30.0273L31.6849 29.7605C32.6377 29.2102 32.9642 27.9919 32.4141 27.0391C31.864 26.0861 30.6455 25.7597 29.6927 26.3099L29.2304 26.5767V26.043C29.2304 24.9427 28.3385 24.0508 27.2382 24.0508C26.1379 24.0508 25.246 24.9427 25.246 26.043V26.5767L24.7837 26.3099C23.831 25.7597 22.6124 26.0861 22.0624 27.0391C21.5123 27.9919 21.8388 29.2102 22.7915 29.7605L23.2538 30.0273L22.7915 30.2942C21.8388 30.8443 21.5123 32.0627 22.0624 33.0156C22.6124 33.9684 23.831 34.2949 24.7837 33.7448L25.246 33.4779V34.0117C25.246 35.1119 26.1379 36.0039 27.2382 36.0039C28.3385 36.0039 29.2304 35.1119 29.2304 34.0117V33.4779L29.6927 33.7448C30.6455 34.2949 31.864 33.9684 32.4141 33.0156C32.9642 32.0627 32.6377 30.8443 31.6849 30.2942Z" stroke="black" stroke-width="1.99219" stroke-miterlimit="10" stroke-linecap="round" stroke-linejoin="round"/>
<path d="M26.2422 30.0273C26.2422 29.4772 26.6882 29.0312 27.2383 29.0312C27.7884 29.0312 28.2344 29.4772 28.2344 30.0273C28.2344 30.5775 27.7884 31.0234 27.2383 31.0234C26.6882 31.0234 26.2422 30.5775 26.2422 30.0273Z" fill="black"/>
<path d="M21.2617 12.0312C21.2617 14.2318 19.4778 16.0156 17.2773 16.0156C15.0768 16.0156 13.293 14.2318 13.293 12.0312C13.293 9.83075 15.0768 7.98047 17.2773 7.98047C19.4778 7.98047 21.2617 9.83075 21.2617 12.0312Z" stroke="black" stroke-width="1.99219" stroke-miterlimit="10" stroke-linecap="round" stroke-linejoin="round"/>
<path d="M22.2711 29.3277C21.2023 30.9493 19.3648 32.0195 17.2773 32.0195C13.9766 32.0195 11.3008 29.3437 11.3008 26.0429C11.3008 22.7422 13.9766 19.9999 17.2773 19.9999C20.5781 19.9999 23.2539 22.7422 23.2539 26.0429C23.2539 26.0673 23.2538 26.0916 23.2534 26.1158" stroke="black" stroke-width="1.99219" stroke-miterlimit="10" stroke-linecap="round" stroke-linejoin="round"/>
</g>
</svg>
