<svg width="100%" height="100%" viewBox="0 0 36 31" fill="none" xmlns="http://www.w3.org/2000/svg">
<g opacity="0.8">
<path opacity="0.9" d="M7.48 29.36C8.76 29.36 9.88 29.04 10.84 28.4C11.8 27.76 12.56 26.96 13.12 26C13.68 25.04 13.96 24 13.96 22.88C13.96 21.28 13.44 19.84 12.4 18.56C11.36 17.2 10.04 16.48 8.44 16.4C8.6 14.24 9.36 12.44 10.72 11C12.08 9.48 13.72 8.04 15.64 6.68L13.12 2C10.96 3.12 8.92 4.76 7 6.92C5.16 9 3.68 11.36 2.56 14C1.52 16.64 1 19.24 1 21.8C1 24.04 1.6 25.88 2.8 27.32C4 28.68 5.56 29.36 7.48 29.36ZM26.2 29.36C27.4 29.36 28.48 29.04 29.44 28.4C30.48 27.76 31.28 26.96 31.84 26C32.48 25.04 32.8 24 32.8 22.88C32.8 21.84 32.52 20.84 31.96 19.88C31.48 18.92 30.84 18.12 30.04 17.48C29.24 16.84 28.32 16.48 27.28 16.4C27.52 14.24 28.28 12.44 29.56 11C30.84 9.48 32.48 8.04 34.48 6.68L31.96 2C29.72 3.12 27.64 4.76 25.72 6.92C23.88 9 22.44 11.36 21.4 14C20.36 16.64 19.84 19.24 19.84 21.8C19.84 24.04 20.44 25.88 21.64 27.32C22.92 28.68 24.44 29.36 26.2 29.36Z" fill="white" fill-opacity="0.28"/>
</g>
</svg>
