<svg fill="none" height="20" viewBox="0 0 20 20" width="20" xmlns="http://www.w3.org/2000/svg"><path d="m17.8571 0h-15.71424c-1.214289 0-2.14286.928571-2.14286 2.14286v15.71424c0 1.1429.928571 2.1429 2.14286 2.1429h15.71424c1.1429 0 2.1429-1 2.1429-2.1429v-15.71424c0-1.214289-1-2.14286-2.1429-2.14286zm-4.6428 7.14286c-.3572 0-.7143-.28572-.7143-.71429s.3571-.71428.7143-.71428h.7143v-2.14286c0-.42857.3571-.71429.7143-.71429.3571 0 .7142.28572.7142.71429v2.14286h.7143c.3572 0 .7143.28571.7143.71428s-.3571.71429-.7143.71429h-.7143v9.28574c0 .3571-.3571.7143-.7142.7143-.3572 0-.7143-.3572-.7143-.7143v-9.28574zm-4.64287 7.14284c-.42857 0-.71429-.3571-.71429-.7143 0-.3571.28572-.7143.71429-.7143h.71428v-9.28567c0-.42857.28572-.71429.71429-.71429.3571 0 .7143.28572.7143.71429v9.28567h.7143c.3571 0 .7143.3572.7143.7143 0 .3572-.3572.7143-.7143.7143h-.7143v2.1429c0 .3571-.3572.7143-.7143.7143-.35714 0-.71429-.3572-.71429-.7143v-2.1429zm-4.71429-3.5714c-.42857 0-.71428-.3572-.71428-.7143 0-.35714.28571-.71429.71428-.71429h.78572v-5.71428c0-.42857.28571-.71429.71428-.71429s.71429.28572.71429.71429v5.71428h.64286c.42857 0 .71428.28572.71428.71429 0 .3571-.28571.7143-.71428.7143h-.64286v5.7143c0 .3571-.28572.7143-.71429.7143s-.71428-.3572-.71428-.7143v-5.7143z" fill="#fff"/></svg>