<svg fill="none" height="20" viewBox="0 0 20 20" width="20" xmlns="http://www.w3.org/2000/svg"><path d="m18.4417 13.8128v-13.043048c0-.245722-.1177-.476678-.3163-.621438-.1998-.14542801-.4559-.1871205-.6891-.1107949l-10.08485 3.2477009c-.31762.1021-.53345.39821-.53345.73225v9.49233c0 .5629-.4568 1.0203-1.02029 1.0203h-1.12274c-2.02962 0-3.67497 1.2242-3.67497 2.7346 0 1.5105 1.64535 2.7353 3.67513 2.7353 2.02962 0 3.67497-1.2248 3.67497-2.7353v-.0011l.0064.0011v-10.63571l8.5469-2.75216v6.23837c-.0134.5513-.4625.9953-1.0177.9953h-1.1163c-2.0298 0-3.6749 1.2244-3.6749 2.7348 0 1.5109 1.645 2.7346 3.6749 2.7346 2.0298 0 3.6747-1.2237 3.6747-2.7346-.0004-.0112-.002-.0217-.0022-.0325z" fill="#fff"/></svg>