<svg fill="none" height="20" viewBox="0 0 20 20" width="20" xmlns="http://www.w3.org/2000/svg"><path d="m19.5917 4.05459-9.3326-3.999683c-.1654-.0732093-.3544-.0732093-.51985 0l-9.332586 3.999683c-.117251.0555-.217095.14195-.288815.24998-.0717195.10817-.11248943.23376-.117849.36336v10.66577c.00014879.1308.0386865.2588.111004.3679.072315.109.175137.1945.29566.2455l9.332586 3.9997c.16606.0709.35385.0709.51985 0l9.3326-3.9997c.1205-.051.2234-.1365.2957-.2455.0723-.1091.1108-.2371.111-.3679v-10.66577c-.0054-.1296-.0461-.25519-.1179-.36336-.0717-.10803-.1715-.19448-.2888-.24998zm-10.25897 14.26551-7.99936-3.4263v-9.21264l7.99936 3.42636z" fill="#fff"/></svg>