<svg fill="none" height="20" viewBox="0 0 20 20" width="20" xmlns="http://www.w3.org/2000/svg"><g fill="#fff"><path d="m17.9999 16.7142h-15.42852c-.47147 0-.85715.3857-.85715.8572 0 .4714.38568.8571.85715.8571h15.42852c.4715 0 .8572-.3857.8572-.8571 0-.4715-.3857-.8572-.8572-.8572z"/><path d="m18.8571 1h-17.71424c-.628493 0-1.14286.51437-1.14286 1.14286v12.00004c0 .6284.514367 1.1428 1.14286 1.1428h17.71424c.6285 0 1.1429-.5144 1.1429-1.1428v-12.00004c0-.62849-.5144-1.14286-1.1429-1.14286zm-11.71424 2c.78571 0 1.42857.64286 1.42857 1.42857 0 .78572-.64286 1.42857-1.42857 1.42857-.78572 0-1.42857-.64285-1.42857-1.42857 0-.78571.64285-1.42857 1.42857-1.42857zm8.69304 10.2857h-11.67141c-.77135 0-1.25-.8499-.84278-1.5072l1.71429-2.78568c.34279-.55706 1.15004-.53572 1.47147.03571l1.42139 2.55707 3.55704-5.33593c.3358-.5 1.0714-.50718 1.4142-.00717l3.7644 5.5c.4429.6502-.0285 1.5431-.8285 1.5431z"/></g></svg>