<svg viewBox="0 0 68 68" fill="none" xmlns="http://www.w3.org/2000/svg">
<path d="M34 9.00098C23.564 9.00098 13 11.405 13 16.001V28.001V40.001V52.001C13 56.597 23.564 59.001 34 59.001C44.436 59.001 55 56.597 55 52.001V40.001V28.001V16.001C55 11.405 44.436 9.00098 34 9.00098ZM53 52.001C53 54.089 45.772 57.001 34 57.001C22.228 57.001 15 54.089 15 52.001V43.171C15.06 43.213 15.144 43.249 15.206 43.293C15.546 43.521 15.918 43.737 16.326 43.947C16.4399 44.0029 16.546 44.063 16.664 44.1189C17.1859 44.3689 17.7479 44.601 18.356 44.817C18.388 44.829 18.422 44.839 18.454 44.851C22.492 46.2689 28.26 47.001 34 47.001C39.74 47.001 45.508 46.2689 49.546 44.851C49.578 44.839 49.612 44.829 49.644 44.817C50.252 44.601 50.8141 44.3689 51.336 44.1189C51.454 44.063 51.5601 44.0029 51.674 43.947C52.082 43.737 52.454 43.521 52.794 43.293C52.8561 43.2489 52.94 43.213 53 43.171V52.001ZM53 40.001C53 42.089 45.772 45.001 34 45.001C22.228 45.001 15 42.089 15 40.001V31.171C15.06 31.213 15.144 31.249 15.206 31.293C15.546 31.521 15.918 31.737 16.326 31.947C16.4399 32.0029 16.546 32.063 16.664 32.1189C17.1859 32.3689 17.7479 32.601 18.356 32.817C18.388 32.829 18.422 32.839 18.454 32.851C22.492 34.2689 28.26 35.001 34 35.001C39.74 35.001 45.508 34.2689 49.546 32.851C49.578 32.839 49.612 32.829 49.644 32.817C50.252 32.601 50.8141 32.3689 51.336 32.1189C51.454 32.063 51.5601 32.0029 51.674 31.947C52.082 31.737 52.454 31.521 52.794 31.293C52.8561 31.2489 52.94 31.213 53 31.171V40.001ZM53 28.001C53 30.089 45.772 33.001 34 33.001C22.228 33.001 15 30.089 15 28.001V19.171C15.06 19.213 15.144 19.249 15.206 19.293C15.546 19.521 15.918 19.737 16.326 19.947C16.4399 20.0029 16.546 20.063 16.664 20.1189C17.1859 20.3689 17.7479 20.601 18.356 20.817C18.388 20.829 18.422 20.839 18.454 20.851C22.492 22.2689 28.26 23.001 34 23.001C39.74 23.001 45.508 22.2689 49.546 20.851C49.578 20.839 49.612 20.829 49.644 20.817C50.252 20.601 50.8141 20.3689 51.336 20.1189C51.454 20.063 51.5601 20.0029 51.674 19.947C52.082 19.737 52.454 19.521 52.794 19.293C52.8561 19.2489 52.94 19.213 53 19.171V28.001ZM34 21.001C22.228 21.001 15 18.089 15 16.001C15 13.913 22.228 11.001 34 11.001C45.772 11.001 53 13.913 53 16.001C53 18.089 45.772 21.001 34 21.001Z" fill="#EC6770"/>
</svg>
