<svg viewBox="0 0 68 68" fill="none" xmlns="http://www.w3.org/2000/svg">
<path d="M63.0676 40.4113H58.0603V33.9384C58.0603 33.2056 57.5718 32.7171 56.839 32.7171H35.222V27.4655H40.2294C41.6949 27.4655 42.7941 26.3664 42.7941 24.9008V12.5657C42.7941 11.1001 41.6949 10.001 40.2294 10.001H27.7721C26.3066 10.001 25.2074 11.1001 25.2074 12.5657V25.0229C25.2074 26.4885 26.3066 27.5877 27.7721 27.5877H32.7794V32.7171H11.1625C10.4297 32.7171 9.94118 33.2056 9.94118 33.9384V40.4113H4.93386C3.46831 40.4113 2.36914 41.5104 2.36914 42.976V55.4332C2.36914 56.8988 3.46831 57.998 4.93386 57.998H17.3911C18.8567 57.998 19.9558 56.8988 19.9558 55.4332V42.976C19.9558 41.5104 18.8567 40.4113 17.3911 40.4113H12.3838V35.1597H32.7794V40.4113H27.7721C26.3066 40.4113 25.2074 41.5104 25.2074 42.976V55.4332C25.2074 56.8988 26.3066 57.998 27.7721 57.998H40.2294C41.6949 57.998 42.7941 56.8988 42.7941 55.4332V42.976C42.7941 41.5104 41.6949 40.4113 40.2294 40.4113H35.222V35.1597H55.6177V40.4113H50.6104C49.1448 40.4113 48.0457 41.5104 48.0457 42.976V55.4332C48.0457 56.8988 49.1448 57.998 50.6104 57.998H63.0676C64.5332 57.998 65.6323 56.8988 65.6323 55.4332V42.976C65.6323 41.5104 64.411 40.4113 63.0676 40.4113ZM17.5132 42.976C17.3911 42.8539 17.5132 42.8539 17.5132 42.976V55.4332C17.5132 55.5554 17.5132 55.5554 17.3911 55.5554H4.93386C4.81174 55.5554 4.81174 55.5554 4.81174 55.4332V42.976C4.81174 42.8539 4.81174 42.8539 4.93386 42.8539L17.5132 42.976ZM40.3515 42.976C40.2294 42.8539 40.3515 42.8539 40.3515 42.976V55.4332C40.3515 55.5554 40.3515 55.5554 40.2294 55.5554H27.7721C27.65 55.5554 27.65 55.5554 27.65 55.4332V42.976C27.65 42.8539 27.65 42.8539 27.7721 42.8539L40.3515 42.976ZM27.65 24.9008C27.7721 25.0229 27.65 25.0229 27.65 24.9008V12.5657C27.65 12.4436 27.65 12.4436 27.7721 12.4436H40.2294C40.3515 12.4436 40.3515 12.4436 40.3515 12.5657V25.0229C40.3515 25.1451 40.3515 25.1451 40.2294 25.1451L27.65 24.9008ZM63.1897 55.3111C63.1897 55.4332 63.0676 55.4332 63.1897 55.3111L50.6104 55.4332C50.4883 55.4332 50.4883 55.4332 50.4883 55.3111V42.976C50.4883 42.8539 50.4883 42.8539 50.6104 42.8539H63.0676C63.1897 42.8539 63.1897 42.8539 63.1897 42.976V55.3111Z" fill="#EC6770"/>
</svg>
