<svg viewBox="0 0 68 68" fill="none" xmlns="http://www.w3.org/2000/svg">
<path d="M54.4868 52.0133L42.5432 40.0697C44.8567 37.212 46.2496 33.5808 46.2496 29.6258C46.2496 20.4594 38.7912 13.001 29.6248 13.001C20.4584 13.001 13 20.4593 13 29.6258C13 38.7922 20.4585 46.2506 29.6249 46.2506C33.5798 46.2506 37.211 44.8577 40.0687 42.5442L52.0124 54.4878C52.3536 54.829 52.8016 55.0006 53.2496 55.0006C53.6977 55.0006 54.1457 54.829 54.4869 54.4878C55.1711 53.8036 55.1711 52.6976 54.4868 52.0133ZM29.6249 42.7506C22.3869 42.7506 16.5 36.8637 16.5 29.6258C16.5 22.3878 22.3869 16.5009 29.6249 16.5009C36.8628 16.5009 42.7497 22.3878 42.7497 29.6258C42.7497 36.8637 36.8627 42.7506 29.6249 42.7506Z" fill="#EC6770"/>
</svg>
