<svg viewBox="0 0 68 68" fill="none" xmlns="http://www.w3.org/2000/svg">
<path d="M33.6166 33.049C37.0578 33.049 40.0373 31.8147 42.4724 29.3796C44.9068 26.9448 46.1414 23.9657 46.1414 20.5241C46.1414 17.0836 44.9072 14.1041 42.472 11.6686C40.0369 9.23424 37.0574 8 33.6166 8C30.1749 8 27.1958 9.23424 24.7611 11.669C22.3263 14.1037 21.0917 17.0832 21.0917 20.5241C21.0917 23.9657 22.3263 26.9452 24.7611 29.38C27.1966 31.8143 30.1761 33.049 33.6166 33.049ZM26.9161 13.8237C28.7843 11.9554 30.9759 11.0473 33.6166 11.0473C36.2568 11.0473 38.4488 11.9554 40.3174 13.8237C42.1856 15.6923 43.0941 17.8842 43.0941 20.5241C43.0941 23.1647 42.1856 25.3563 40.3174 27.2249C38.4488 29.0935 36.2568 30.0016 33.6166 30.0016C30.9767 30.0016 28.7851 29.0931 26.9161 27.2249C25.0475 25.3567 24.139 23.1647 24.139 20.5241C24.139 17.8842 25.0475 15.6923 26.9161 13.8237Z" fill="#EC6770"/>
<path d="M55.5312 47.9848C55.461 46.9715 55.319 45.8662 55.1099 44.699C54.8988 43.5231 54.6271 42.4115 54.3017 41.3954C53.9653 40.3453 53.5087 39.3082 52.9433 38.3144C52.3573 37.2829 51.6686 36.3847 50.8958 35.6456C50.0876 34.8723 49.0982 34.2507 47.954 33.7972C46.8138 33.3461 45.5502 33.1176 44.1985 33.1176C43.6677 33.1176 43.1543 33.3354 42.1629 33.9809C41.5527 34.3788 40.839 34.839 40.0423 35.348C39.3611 35.782 38.4383 36.1887 37.2985 36.5569C36.1865 36.9167 35.0574 37.0992 33.9426 37.0992C32.8285 37.0992 31.6994 36.9167 30.5866 36.5569C29.448 36.1891 28.5248 35.7824 27.8448 35.3484C27.0557 34.8442 26.3415 34.384 25.7222 33.9805C24.7316 33.335 24.2182 33.1172 23.6874 33.1172C22.3353 33.1172 21.0721 33.3461 19.9323 33.7976C18.7889 34.2503 17.7991 34.8719 16.9901 35.646C16.2173 36.3855 15.5286 37.2833 14.943 38.3144C14.3784 39.3082 13.9214 40.3449 13.585 41.3958C13.2601 42.4119 12.9883 43.5231 12.7772 44.699C12.5678 45.8646 12.4261 46.9703 12.3559 47.986C12.2869 48.979 12.252 50.0125 12.252 51.0567C12.252 53.7711 13.1148 55.9686 14.8164 57.5893C16.497 59.1885 18.7203 59.9995 21.4248 59.9995H46.4635C49.1672 59.9995 51.3905 59.1885 53.0715 57.5893C54.7734 55.9698 55.6363 53.7715 55.6363 51.0563C55.6359 50.0085 55.6006 48.975 55.5312 47.9848ZM50.9704 55.3815C49.8599 56.4384 48.3856 56.9521 46.4631 56.9521H21.4248C19.5019 56.9521 18.0276 56.4384 16.9175 55.3819C15.8285 54.3452 15.2993 52.9301 15.2993 51.0567C15.2993 50.0823 15.3314 49.1202 15.3957 48.1966C15.4584 47.2905 15.5865 46.2951 15.7765 45.2374C15.9642 44.1928 16.203 43.2125 16.4871 42.325C16.7596 41.474 17.1314 40.6313 17.5924 39.8196C18.0324 39.046 18.5386 38.3822 19.0972 37.8474C19.6197 37.3472 20.2783 36.9377 21.0543 36.6307C21.772 36.3466 22.5785 36.1911 23.4541 36.1677C23.5608 36.2244 23.7509 36.3327 24.0587 36.5335C24.6852 36.9417 25.4072 37.4075 26.2055 37.9173C27.1053 38.4909 28.2645 39.0091 29.6495 39.4562C31.0654 39.914 32.5096 40.1465 33.943 40.1465C35.3764 40.1465 36.8209 39.914 38.236 39.4566C39.6222 39.0087 40.7811 38.4909 41.682 37.9165C42.4989 37.3944 43.2007 36.9421 43.8272 36.5335C44.135 36.3331 44.3251 36.2244 44.4318 36.1677C45.3078 36.1911 46.1143 36.3466 46.8324 36.6307C47.608 36.9377 48.2666 37.3476 48.7891 37.8474C49.3477 38.3818 49.854 39.0456 50.2939 39.82C50.7553 40.6313 51.1275 41.4744 51.3996 42.3246C51.6841 43.2133 51.9233 44.1932 52.1106 45.237C52.3002 46.2967 52.4288 47.2925 52.4914 48.197V48.1978C52.5561 49.1178 52.5886 50.0795 52.589 51.0567C52.5886 52.9305 52.0594 54.3452 50.9704 55.3815Z" fill="#EC6770"/>
</svg>
