<svg viewBox="0 0 68 68" fill="none" xmlns="http://www.w3.org/2000/svg">
<path d="M33.9989 9.00098C20.1767 9.00098 8.99414 20.221 8.99414 34.0058C8.99414 47.7586 20.1363 59.0106 33.9989 59.0106C47.8165 59.0106 59.0038 47.7939 59.0038 34.0058C59.0038 20.2299 47.8278 9.00098 33.9989 9.00098ZM51.656 48.7497C49.6989 47.7438 47.4808 46.958 45.3253 46.3985C46.3354 42.9521 46.9094 39.0635 46.9905 35.006H56.9816C56.7632 40.0519 54.8966 44.873 51.656 48.7497ZM16.3418 48.7497C13.1013 44.8729 11.2347 40.0519 11.0162 35.006H21.0072C21.0885 39.0635 21.6625 42.9521 22.6725 46.3985C20.515 46.9592 18.3341 47.7297 16.3418 48.7497ZM16.3418 19.2617C18.3309 20.2808 20.5182 21.0523 22.6725 21.6131C21.6625 25.0595 21.0885 28.948 21.0072 33.0056H11.0162C11.2347 27.9595 13.1013 23.1386 16.3418 19.2617ZM44.7072 19.71C43.6944 16.8867 42.1872 13.9381 40.0784 11.8226C43.8952 12.871 47.4111 14.8944 50.2503 17.7265C48.5148 18.564 46.5243 19.2557 44.7072 19.71ZM34.9991 20.9917V11.1001C37.4416 11.5787 39.7522 13.8008 41.5912 17.4793C42.0119 18.3207 42.3961 19.2162 42.7429 20.1576C40.1935 20.6692 37.5782 20.9371 34.9991 20.9917ZM32.9988 20.9917C30.3978 20.9367 27.7754 20.6644 25.255 20.1576C25.6017 19.2161 25.986 18.3206 26.4066 17.4793C28.2458 13.8008 30.5563 11.5786 32.9988 11.1001V20.9917ZM32.9988 22.9925V33.0056H23.0079C23.089 29.0917 23.6455 25.3558 24.6218 22.0675C27.2126 22.6037 30.0475 22.9325 32.9988 22.9925ZM32.9988 35.006V45.0191C30.2113 45.0758 27.3408 45.3791 24.6219 45.9441C23.6455 42.6557 23.089 38.9198 23.0079 35.006H32.9988ZM32.9988 47.0199V56.9115C30.5563 56.4329 28.2458 54.2107 26.4066 50.5323C25.9859 49.6909 25.6017 48.7953 25.255 47.8539C27.6782 47.3647 30.3152 47.0767 32.9988 47.0199ZM34.9991 47.0199C37.6765 47.0765 40.3028 47.3623 42.7429 47.8539C42.3961 48.7953 42.0119 49.6909 41.5912 50.5323C39.7521 54.2107 37.4416 56.4329 34.9991 56.9115V47.0199ZM34.9991 45.0191V35.006H44.9901C44.9088 38.9198 44.3525 42.6557 43.3759 45.9441C40.8005 45.4092 37.9465 45.0791 34.9991 45.0191ZM34.9991 33.0056V22.9925C37.9836 22.9318 40.8076 22.5983 43.376 22.0675C44.3525 25.3557 44.9088 29.0917 44.9901 33.0056H34.9991ZM23.2907 19.71C21.4153 19.2364 19.4839 18.5657 17.7475 17.7265C20.5868 14.8944 24.1026 12.871 27.9196 11.8226C25.8076 13.9412 24.301 16.8936 23.2907 19.71ZM23.2907 48.3015C24.3006 51.1173 25.8074 54.0702 27.9196 56.1889C24.1026 55.1405 20.5868 53.1171 17.7475 50.2851C19.4865 49.4441 21.4188 48.7765 23.2907 48.3015ZM44.7071 48.3015C46.4995 48.7495 48.5156 49.4456 50.2504 50.2851C47.4111 53.1171 43.8952 55.1405 40.0784 56.1889C42.1904 54.0701 43.6974 51.1171 44.7071 48.3015ZM46.9906 33.0056C46.9094 28.948 46.3354 25.0595 45.3254 21.6131C47.5169 21.044 49.7117 20.2589 51.6561 19.2618C54.8966 23.1386 56.7633 27.9596 56.9817 33.0057H46.9906V33.0056Z" fill="#EC6770"/>
</svg>
