<svg viewBox="0 0 440 92" fill="none" xmlns="http://www.w3.org/2000/svg">
<path d="M126.426 64.8832V75.7775H119.896C115.242 75.7775 111.615 74.6505 109.013 72.3965C106.411 70.0924 105.11 66.3608 105.11 61.2016V44.522H100.006V33.8531H105.11V23.635H117.945V33.8531H126.351V44.522H117.945V61.3519C117.945 62.6041 118.245 63.5057 118.845 64.0567C119.446 64.6077 120.446 64.8832 121.847 64.8832H126.426Z" fill="#AAACB1"/>
<path d="M147.477 40.8405C148.978 38.5364 150.854 36.7332 153.106 35.4309C155.358 34.0785 157.86 33.4023 160.612 33.4023V47.0014H157.084C153.882 47.0014 151.48 47.7027 149.879 49.1052C148.277 50.4576 147.477 52.8618 147.477 56.318V75.7775H134.642V33.8531H147.477V40.8405Z" fill="#AAACB1"/>
<path d="M163.65 54.7402C163.65 50.4325 164.451 46.6508 166.052 43.395C167.704 40.1393 169.93 37.6348 172.732 35.8817C175.535 34.1286 178.662 33.252 182.115 33.252C185.067 33.252 187.644 33.8531 189.845 35.0552C192.097 36.2574 193.823 37.8352 195.024 39.7886V33.8531H207.859V75.7775H195.024V69.842C193.773 71.7954 192.022 73.3732 189.77 74.5754C187.569 75.7775 184.992 76.3786 182.039 76.3786C178.637 76.3786 175.535 75.502 172.732 73.7489C169.93 71.9457 167.704 69.4162 166.052 66.1604C164.451 62.8546 163.65 59.0478 163.65 54.7402ZM195.024 54.8153C195.024 51.6096 194.124 49.0801 192.322 47.2268C190.571 45.3735 188.419 44.4469 185.867 44.4469C183.315 44.4469 181.139 45.3735 179.337 47.2268C177.586 49.03 176.71 51.5345 176.71 54.7402C176.71 57.9459 177.586 60.5004 179.337 62.4038C181.139 64.2571 183.315 65.1837 185.867 65.1837C188.419 65.1837 190.571 64.2571 192.322 62.4038C194.124 60.5505 195.024 58.021 195.024 54.8153Z" fill="#AAACB1"/>
<path d="M235.648 63.7562L244.73 33.8531H258.39L243.529 75.7775H227.692L212.83 33.8531H226.566L235.648 63.7562Z" fill="#AAACB1"/>
<path d="M302.13 54.1391C302.13 55.3412 302.055 56.5935 301.905 57.8958H272.858C273.058 60.5004 273.883 62.5039 275.335 63.9064C276.836 65.2588 278.662 65.935 280.814 65.935C284.016 65.935 286.243 64.5826 287.494 61.8778H301.154C300.454 64.6327 299.178 67.1121 297.326 69.316C295.525 71.5199 293.248 73.248 290.496 74.5002C287.744 75.7525 284.667 76.3786 281.264 76.3786C277.161 76.3786 273.508 75.502 270.306 73.7489C267.103 71.9958 264.601 69.4913 262.8 66.2356C260.999 62.9798 260.098 59.173 260.098 54.8153C260.098 50.4576 260.974 46.6508 262.725 43.395C264.526 40.1393 267.028 37.6348 270.231 35.8817C273.433 34.1286 277.111 33.252 281.264 33.252C285.317 33.252 288.92 34.1035 292.072 35.8066C295.225 37.5096 297.677 39.9389 299.428 43.0945C301.229 46.2501 302.13 49.9316 302.13 54.1391ZM288.995 50.7581C288.995 48.5542 288.244 46.8011 286.743 45.4988C285.242 44.1965 283.366 43.5453 281.114 43.5453C278.962 43.5453 277.136 44.1714 275.635 45.4236C274.184 46.6759 273.283 48.454 272.933 50.7581H288.995Z" fill="#AAACB1"/>
<path d="M320.034 20.1788V75.7775H307.199V20.1788H320.034Z" fill="#AAACB1"/>
<path d="M340.88 39.7886C342.081 37.8352 343.807 36.2574 346.059 35.0552C348.311 33.8531 350.887 33.252 353.79 33.252C357.242 33.252 360.37 34.1286 363.172 35.8817C365.974 37.6348 368.176 40.1393 369.777 43.395C371.428 46.6508 372.254 50.4325 372.254 54.7402C372.254 59.0478 371.428 62.8546 369.777 66.1604C368.176 69.4162 365.974 71.9457 363.172 73.7489C360.37 75.502 357.242 76.3786 353.79 76.3786C350.837 76.3786 348.26 75.8025 346.059 74.6505C343.857 73.4484 342.131 71.8706 340.88 69.9171V75.7775H328.045V20.1788H340.88V39.7886ZM359.194 54.7402C359.194 51.5345 358.293 49.03 356.492 47.2268C354.74 45.3735 352.564 44.4469 349.962 44.4469C347.41 44.4469 345.233 45.3735 343.432 47.2268C341.68 49.0801 340.805 51.6096 340.805 54.8153C340.805 58.021 341.68 60.5505 343.432 62.4038C345.233 64.2571 347.41 65.1837 349.962 65.1837C352.514 65.1837 354.69 64.2571 356.492 62.4038C358.293 60.5004 359.194 57.9459 359.194 54.7402Z" fill="#AAACB1"/>
<path d="M383.373 29.4954C381.122 29.4954 379.27 28.8442 377.819 27.5419C376.418 26.1895 375.718 24.5366 375.718 22.5831C375.718 20.5795 376.418 18.9266 377.819 17.6243C379.27 16.2719 381.122 15.5957 383.373 15.5957C385.575 15.5957 387.376 16.2719 388.777 17.6243C390.229 18.9266 390.954 20.5795 390.954 22.5831C390.954 24.5366 390.229 26.1895 388.777 27.5419C387.376 28.8442 385.575 29.4954 383.373 29.4954ZM389.753 33.8531V75.7775H376.918V33.8531H389.753Z" fill="#AAACB1"/>
<path d="M395.792 54.7402C395.792 50.4325 396.592 46.6508 398.193 43.395C399.845 40.1393 402.071 37.6348 404.874 35.8817C407.676 34.1286 410.803 33.252 414.256 33.252C417.008 33.252 419.51 33.8281 421.761 34.9801C424.063 36.1321 425.865 37.6849 427.165 39.6384V20.1788H440V75.7775H427.165V69.7668C425.965 71.7704 424.238 73.3732 421.987 74.5754C419.785 75.7775 417.208 76.3786 414.256 76.3786C410.803 76.3786 407.676 75.502 404.874 73.7489C402.071 71.9457 399.845 69.4162 398.193 66.1604C396.592 62.8546 395.792 59.0478 395.792 54.7402ZM427.165 54.8153C427.165 51.6096 426.265 49.0801 424.463 47.2268C422.712 45.3735 420.56 44.4469 418.009 44.4469C415.457 44.4469 413.28 45.3735 411.479 47.2268C409.727 49.03 408.852 51.5345 408.852 54.7402C408.852 57.9459 409.727 60.5004 411.479 62.4038C413.28 64.2571 415.457 65.1837 418.009 65.1837C420.56 65.1837 422.712 64.2571 424.463 62.4038C426.265 60.5505 427.165 58.021 427.165 54.8153Z" fill="#AAACB1"/>
<path fill-rule="evenodd" clip-rule="evenodd" d="M35.0276 0V1.87071L35.1795 25.3281H44.7366C53.8538 25.3281 62.1554 29.0752 68.185 35.1056C74.2 41.1508 77.9284 49.4793 77.9284 58.6567C77.9284 67.8342 74.2 76.1627 68.185 82.2078C62.1699 88.2529 53.8829 92 44.7512 92H23.837C20.9096 92 18.2735 90.8144 16.351 88.8823C14.4431 86.9502 13.2488 84.2863 13.2488 81.3588V80.4513C15.9432 83.1299 19.6425 84.7839 23.7205 84.7839H44.722C51.8585 84.7839 58.3541 81.8419 63.0729 77.0994C67.7917 72.3717 70.7191 65.8435 70.7191 58.6567C70.7191 51.4845 67.7917 44.9564 63.0729 40.214C58.3687 35.4862 51.8731 32.5442 44.722 32.5442H35.1795V32.5732H28.0191V32.5442H20.4148V32.5732H13.2544V32.5442H7.16259V32.5455C3.2068 32.5455 0 29.2837 0 25.3279L13.2544 25.3281L13.2544 0H35.0276ZM13.168 40.1659H11.9668V40.17H7.90617H7.16259H0C0 44.1258 3.2068 47.4012 7.16259 47.4012V47.4007H11.9668V47.4123H13.2343V70.0443C13.2343 72.0057 14.0353 73.7914 15.3169 75.0794C16.5986 76.3675 18.3754 77.1726 20.327 77.1726H45.159C50.2273 77.1726 54.8296 75.0941 58.1648 71.7422C61.5 68.3903 63.5681 63.765 63.5681 58.6713C63.5681 53.5776 61.5 48.9522 58.1648 45.6003C54.8296 42.2485 50.2273 40.17 45.159 40.17H38.0957V40.1663H13.168V40.1659ZM20.429 69.9565V47.4123H28.0169V69.9565H20.429ZM35.1825 69.9711V47.4123H38.0957V47.4007H45.1444C48.232 47.4007 51.0283 48.6741 53.0673 50.7233C55.1063 52.7725 56.3588 55.5828 56.3588 58.6859C56.3588 61.789 55.0917 64.5993 53.0673 66.6485C51.0283 68.6977 48.232 69.9711 45.1444 69.9711H35.1825ZM20.4148 7.18649L28.0191 7.18649V25.3281H20.4148V7.18649Z" fill="#AAACB1"/>
</svg>
