<svg viewBox="0 0 438 65" fill="none" xmlns="http://www.w3.org/2000/svg">
<path fill-rule="evenodd" clip-rule="evenodd" d="M59.5493 0H0.705078C0.705078 6.62204 6.07362 11.9856 12.6907 11.9856H74.6812L73.128 8.6496C70.666 3.37095 65.3723 0 59.5493 0ZM71.0156 16.9796H10.6931C10.6931 23.6016 16.0616 28.9652 22.6787 28.9702H69.3575L80.4374 52.7333C83.847 60.0457 91.1845 64.7204 99.2528 64.7204L82.5816 28.9652H82.5966H115.412C115.412 22.3481 110.049 16.9796 103.427 16.9796H71.0156ZM80.5232 64.7204C72.4544 64.7204 65.1163 60.0457 61.7061 52.7329L58.5406 45.9448H32.6667C26.0496 45.9448 20.6811 40.5762 20.6811 33.9592H66.1814L71.7696 45.9448L80.5232 64.7204Z" fill="#AAACB1"/>
<path d="M151.544 49.1208V60.4915H145.757C135.998 60.4915 131.118 55.6573 131.118 45.9888V33.3925H126.42V22.2941H131.118V13.0342H144.531V22.2941H151.476V33.3925H144.531V46.193C144.531 47.2371 144.758 47.986 145.212 48.4399C145.712 48.8939 146.529 49.1208 147.663 49.1208H151.544Z" fill="#AAACB1"/>
<path d="M146.949 22.498H153.853V33.5811H146.949V22.498Z" fill="#AAACB1"/>
<path d="M172.062 29.0353C173.56 26.8564 175.376 25.1315 177.509 23.8606C179.643 22.5896 181.935 21.9541 184.386 21.9541V36.1845H180.641C177.736 36.1845 175.58 36.7519 174.173 37.8867C172.766 39.0215 172.062 40.9961 172.062 43.8104V60.4919H158.717V22.2945H172.062V29.0353Z" fill="#AAACB1"/>
<path d="M125.344 20.835H131.119V37.1146H125.344V20.835Z" fill="white"/>
<path d="M186.785 41.3586C186.785 37.4095 187.489 33.9597 188.896 31.0093C190.348 28.0588 192.3 25.7892 194.751 24.2005C197.248 22.6117 200.017 21.8174 203.058 21.8174C205.691 21.8174 207.961 22.3394 209.867 23.3834C211.773 24.4274 213.249 25.8346 214.293 27.6049V22.294H227.638V60.4914H214.293V55.1805C213.249 56.9508 211.751 58.3579 209.799 59.402C207.892 60.446 205.646 60.968 203.058 60.968C200.017 60.968 197.248 60.1736 194.751 58.5849C192.3 56.9962 190.348 54.7266 188.896 51.7761C187.489 48.7802 186.785 45.3077 186.785 41.3586ZM214.293 41.3586C214.293 38.9075 213.612 36.9783 212.25 35.5712C210.934 34.164 209.3 33.4604 207.348 33.4604C205.35 33.4604 203.694 34.164 202.377 35.5712C201.061 36.9329 200.403 38.8621 200.403 41.3586C200.403 43.8098 201.061 45.7617 202.377 47.2142C203.694 48.6214 205.35 49.3249 207.348 49.3249C209.3 49.3249 210.934 48.6214 212.25 47.2142C213.612 45.8071 214.293 43.8552 214.293 41.3586Z" fill="#AAACB1"/>
<path d="M252.647 47.895L259.796 22.2939H274.026L260.885 60.4913H244.272L231.131 22.2939H245.361L252.647 47.895Z" fill="#AAACB1"/>
<path d="M311.873 40.9501C311.873 41.9941 311.805 43.0381 311.669 44.0822H286.408C286.544 46.1702 287.112 47.7362 288.11 48.7802C289.155 49.7789 290.471 50.2782 292.06 50.2782C294.284 50.2782 295.873 49.2795 296.826 47.2823H311.056C310.466 49.915 309.309 52.2754 307.584 54.3635C305.904 56.4061 303.771 58.0175 301.183 59.1977C298.596 60.3779 295.736 60.968 292.604 60.968C288.837 60.968 285.478 60.1736 282.527 58.5849C279.622 56.9962 277.33 54.7266 275.65 51.7761C274.016 48.8256 273.199 45.3531 273.199 41.3586C273.199 37.3641 274.016 33.9144 275.65 31.0093C277.284 28.0588 279.554 25.7892 282.459 24.2005C285.41 22.6117 288.791 21.8174 292.604 21.8174C296.372 21.8174 299.708 22.589 302.613 24.1324C305.518 25.6757 307.788 27.8999 309.422 30.805C311.056 33.6647 311.873 37.0464 311.873 40.9501ZM298.256 37.6138C298.256 35.9797 297.711 34.7087 296.621 33.8009C295.532 32.8476 294.17 32.371 292.536 32.371C290.902 32.371 289.563 32.8249 288.519 33.7328C287.475 34.5952 286.794 35.8889 286.476 37.6138H298.256Z" fill="#AAACB1"/>
<path d="M329.673 10.1064V60.4916H316.328V10.1064H329.673Z" fill="#AAACB1"/>
<path d="M348.585 27.6051C349.63 25.7894 351.105 24.3822 353.011 23.3836C354.918 22.3396 357.165 21.8176 359.752 21.8176C362.793 21.8176 365.539 22.6119 367.991 24.2007C370.487 25.7894 372.439 28.059 373.846 31.0095C375.299 33.9599 376.025 37.4097 376.025 41.3588C376.025 45.3079 375.299 48.7804 373.846 51.7763C372.439 54.7268 370.487 56.9964 367.991 58.5851C365.539 60.1738 362.793 60.9682 359.752 60.9682C357.165 60.9682 354.918 60.4689 353.011 59.4703C351.105 58.4262 349.63 56.9964 348.585 55.1807V60.4916H335.24V10.1064H348.585V27.6051ZM362.475 41.3588C362.475 38.8623 361.795 36.9331 360.433 35.5714C359.116 34.1642 357.482 33.4606 355.53 33.4606C353.579 33.4606 351.922 34.1642 350.56 35.5714C349.244 36.9785 348.585 38.9077 348.585 41.3588C348.585 43.8554 349.244 45.8073 350.56 47.2144C351.922 48.6216 353.579 49.3251 355.53 49.3251C357.482 49.3251 359.116 48.6216 360.433 47.2144C361.795 45.7619 362.475 43.81 362.475 41.3588Z" fill="#AAACB1"/>
<path d="M385.779 18.7538C383.419 18.7538 381.512 18.1183 380.06 16.8473C378.653 15.5309 377.949 13.8968 377.949 11.945C377.949 9.94773 378.653 8.29092 380.06 6.97455C381.512 5.65818 383.419 5 385.779 5C388.094 5 389.955 5.65818 391.363 6.97455C392.815 8.29092 393.541 9.94773 393.541 11.945C393.541 13.8968 392.815 15.5309 391.363 16.8473C389.955 18.1183 388.094 18.7538 385.779 18.7538ZM392.384 22.2944V60.4917H379.039V22.2944H392.384Z" fill="#AAACB1"/>
<path d="M396.293 41.3588C396.293 37.4097 396.997 33.9599 398.404 31.0095C399.856 28.059 401.831 25.7894 404.327 24.2007C406.824 22.6119 409.593 21.8176 412.634 21.8176C415.085 21.8176 417.264 22.3396 419.171 23.3836C421.122 24.3822 422.643 25.7667 423.732 27.537V10.1064H437.146V60.4916H423.732V55.1807C422.688 56.951 421.213 58.3582 419.307 59.4022C417.4 60.4462 415.153 60.9682 412.566 60.9682C409.525 60.9682 406.756 60.1738 404.259 58.5851C401.808 56.9964 399.856 54.7268 398.404 51.7763C396.997 48.7804 396.293 45.3079 396.293 41.3588ZM423.801 41.3588C423.801 38.9077 423.12 36.9785 421.758 35.5714C420.442 34.1642 418.807 33.4606 416.856 33.4606C414.858 33.4606 413.201 34.1642 411.885 35.5714C410.569 36.9331 409.911 38.8623 409.911 41.3588C409.911 43.81 410.569 45.7619 411.885 47.2144C413.201 48.6216 414.858 49.3251 416.856 49.3251C418.807 49.3251 420.442 48.6216 421.758 47.2144C423.12 45.8073 423.801 43.8554 423.801 41.3588Z" fill="#AAACB1"/>
</svg>
