<svg width="25" height="24" viewBox="0 0 25 24" fill="none" xmlns="http://www.w3.org/2000/svg">
<g clip-path="url(#clip0_75_109299)">
<path d="M15.7506 12C14.7869 12 13.855 11.5697 13.1256 10.7888C12.4163 10.027 11.9831 9.01125 11.9067 7.92938C11.8251 6.77531 12.177 5.71406 12.8975 4.94063C13.6179 4.16719 14.6252 3.75 15.7502 3.75C16.8672 3.75 17.8774 4.17469 18.5956 4.94625C19.3208 5.72531 19.6738 6.78469 19.5923 7.92891C19.5141 9.01219 19.0815 10.0275 18.3737 10.7883C17.6462 11.5697 16.7149 12 15.7506 12Z" fill="url(#paint0_linear_75_109299)"/>
<path d="M21.9306 20.25L9.57199 20.25C9.37329 20.2511 9.177 20.2065 8.99821 20.1198C8.81942 20.0331 8.66291 19.9065 8.54072 19.7498C8.4111 19.58 8.32158 19.383 8.27887 19.1736C8.23617 18.9643 8.24137 18.748 8.29409 18.5409C8.68869 16.9561 9.66643 15.6417 11.1214 14.7403C12.4127 13.9406 14.0566 13.5 15.7507 13.5C17.478 13.5 19.0788 13.9219 20.3778 14.7211C21.8361 15.6178 22.8154 16.9397 23.2083 18.5438C23.2604 18.751 23.265 18.9673 23.2219 19.1765C23.1787 19.3857 23.0888 19.5825 22.959 19.7522C22.8369 19.9082 22.6808 20.0341 22.5025 20.1204C22.3243 20.2067 22.1286 20.251 21.9306 20.25Z" fill="url(#paint1_linear_75_109299)"/>
<path d="M6.89129 12.1875C5.24176 12.1875 3.79136 10.6538 3.65673 8.76891C3.59012 7.80328 3.89101 6.91031 4.50035 6.25547C5.10313 5.60719 5.95342 5.25 6.89092 5.25C7.82842 5.25 8.67219 5.60906 9.27831 6.26109C9.89241 6.92109 10.1925 7.81219 10.1222 8.76984C9.98776 10.6542 8.538 12.1875 6.89129 12.1875Z" fill="url(#paint2_linear_75_109299)"/>
<path d="M9.96916 13.6618C9.1446 13.2587 8.07443 13.0571 6.89178 13.0571C5.51084 13.0571 4.16976 13.4171 3.11511 14.0706C1.91937 14.8126 1.11505 15.8931 0.790273 17.1976C0.742745 17.3852 0.738259 17.5812 0.777151 17.7708C0.816043 17.9604 0.897307 18.1388 1.01486 18.2926C1.12641 18.4358 1.26931 18.5515 1.43257 18.6308C1.59583 18.7101 1.77511 18.7509 1.95661 18.7501L7.15974 18.7501C7.24756 18.7501 7.33258 18.7193 7.4 18.663C7.46741 18.6067 7.51293 18.5285 7.52863 18.4421C7.53378 18.4126 7.54034 18.3831 7.54784 18.354C7.94526 16.7575 8.87659 15.4084 10.2528 14.4249C10.3034 14.3885 10.3441 14.3399 10.3712 14.2837C10.3984 14.2275 10.411 14.1654 10.4081 14.1031C10.4051 14.0408 10.3867 13.9802 10.3544 13.9268C10.3221 13.8734 10.277 13.8289 10.2232 13.7973C10.1496 13.7542 10.0653 13.7087 9.96916 13.6618Z" fill="url(#paint3_linear_75_109299)"/>
</g>
<defs>
<linearGradient id="paint0_linear_75_109299" x1="11.8951" y1="6.96429" x2="19.6038" y2="6.84355" gradientUnits="userSpaceOnUse">
<stop stop-color="#FF0289"/>
<stop offset="1" stop-color="#FF6E04"/>
</linearGradient>
<linearGradient id="paint1_linear_75_109299" x1="8.25014" y1="16.1299" x2="23.2341" y2="15.5728" gradientUnits="userSpaceOnUse">
<stop stop-color="#FF0289"/>
<stop offset="1" stop-color="#FF6E04"/>
</linearGradient>
<linearGradient id="paint2_linear_75_109299" x1="3.6476" y1="7.95292" x2="10.1323" y2="7.85133" gradientUnits="userSpaceOnUse">
<stop stop-color="#FF0289"/>
<stop offset="1" stop-color="#FF6E04"/>
</linearGradient>
<linearGradient id="paint3_linear_75_109299" x1="0.75085" y1="15.2752" x2="10.4032" y2="15.0011" gradientUnits="userSpaceOnUse">
<stop stop-color="#FF0289"/>
<stop offset="1" stop-color="#FF6E04"/>
</linearGradient>
<clipPath id="clip0_75_109299">
<rect width="24" height="24" fill="white" transform="matrix(1 0 5.29412e-05 1 0 0)"/>
</clipPath>
</defs>
</svg>
