<svg width="22" height="22" viewBox="0 0 22 22" fill="none" xmlns="http://www.w3.org/2000/svg">
<path d="M11.273 21.0554C16.7956 21.0293 21.2168 16.5312 21.1482 11.0085C21.0795 5.48592 16.5469 1.03012 11.0243 1.05623C5.50172 1.08235 1.08044 5.58048 1.14911 11.1031C1.21777 16.6257 5.75038 21.0815 11.273 21.0554Z" fill="url(#paint0_linear_75_109287)" stroke="#FFF1E4" stroke-width="1.5" stroke-linecap="round" stroke-linejoin="round"/>
<path d="M11.0243 1.05615C13.5306 3.6215 15.1 7.14373 15.1484 11.0369C15.1968 14.93 13.7152 18.4667 11.2729 21.0553" fill="url(#paint1_linear_75_109287)"/>
<path d="M11.0243 1.05615C13.5306 3.6215 15.1 7.14373 15.1484 11.0369C15.1968 14.93 13.7152 18.4667 11.2729 21.0553" stroke="#FFF1E4" stroke-width="1.5" stroke-linecap="round" stroke-linejoin="round"/>
<path d="M11.0243 1.05628C8.58214 3.64502 7.10046 7.18169 7.14887 11.0748C7.19727 14.9679 8.76671 18.4902 11.273 21.0554" fill="url(#paint2_linear_75_109287)"/>
<path d="M11.0243 1.05628C8.58214 3.64502 7.10046 7.18169 7.14887 11.0748C7.19727 14.9679 8.76671 18.4902 11.273 21.0554" stroke="#FFF1E4" stroke-width="1.5" stroke-linecap="round" stroke-linejoin="round"/>
<path d="M1.14917 11.103L21.1491 11.4252L1.14917 11.103Z" fill="url(#paint3_linear_75_109287)"/>
<path d="M1.14917 11.103L21.1491 11.4252" stroke="#FFF1E4" stroke-width="1.5" stroke-linecap="round" stroke-linejoin="round"/>
<defs>
<linearGradient id="paint0_linear_75_109287" x1="1.12166" y1="8.8954" x2="21.1116" y2="8.31289" gradientUnits="userSpaceOnUse">
<stop stop-color="#FF0289"/>
<stop offset="1" stop-color="#FF6E04"/>
</linearGradient>
<linearGradient id="paint1_linear_75_109287" x1="11.1212" y1="8.84803" x2="15.1213" y2="8.78493" gradientUnits="userSpaceOnUse">
<stop stop-color="#FF0289"/>
<stop offset="1" stop-color="#FF6E04"/>
</linearGradient>
<linearGradient id="paint2_linear_75_109287" x1="7.12142" y1="8.86708" x2="11.1215" y2="8.80398" gradientUnits="userSpaceOnUse">
<stop stop-color="#FF0289"/>
<stop offset="1" stop-color="#FF6E04"/>
</linearGradient>
<linearGradient id="paint3_linear_75_109287" x1="1.14589" y1="11.4926" x2="19.1559" y2="5.65751" gradientUnits="userSpaceOnUse">
<stop stop-color="#FF0289"/>
<stop offset="1" stop-color="#FF6E04"/>
</linearGradient>
</defs>
</svg>
