<svg width="32" height="32" viewBox="0 0 32 32" fill="none" xmlns="http://www.w3.org/2000/svg">
<path d="M1.33325 21.333V5.33301H25.3333" stroke="#CB1900" stroke-width="2" stroke-linecap="round" stroke-linejoin="round"/>
<path d="M21.3334 10.667H29.8667C30.0789 10.667 30.2824 10.7513 30.4324 10.9013C30.5825 11.0513 30.6667 11.2548 30.6667 11.467V25.867C30.6667 26.0792 30.5825 26.2826 30.4324 26.4327C30.2824 26.5827 30.0789 26.667 29.8667 26.667H21.3334M21.3334 10.667V26.667M21.3334 10.667H16.0001M21.3334 26.667H16.0001M16.0001 26.667H7.46675C7.25457 26.667 7.05109 26.5827 6.90106 26.4327C6.75103 26.2826 6.66675 26.0792 6.66675 25.867V11.467C6.66675 11.2548 6.75103 11.0513 6.90106 10.9013C7.05109 10.7513 7.25457 10.667 7.46675 10.667H16.0001M16.0001 26.667V10.667" stroke="#CB1900" stroke-width="2" stroke-linecap="round" stroke-linejoin="round"/>
</svg>
