<svg width="32" height="32" viewBox="0 0 32 32" fill="none" xmlns="http://www.w3.org/2000/svg">
<path d="M26.6666 13.3337C26.6666 19.2243 15.9999 29.3337 15.9999 29.3337C15.9999 29.3337 5.33325 19.2243 5.33325 13.3337C5.33325 10.5047 6.45706 7.79157 8.45745 5.79119C10.4578 3.7908 13.1709 2.66699 15.9999 2.66699C18.8289 2.66699 21.542 3.7908 23.5424 5.79119C25.5428 7.79157 26.6666 10.5047 26.6666 13.3337V13.3337Z" stroke="#CB1900" stroke-width="2"/>
<path d="M16.0001 14.6667C16.3537 14.6667 16.6928 14.5262 16.9429 14.2761C17.1929 14.0261 17.3334 13.687 17.3334 13.3333C17.3334 12.9797 17.1929 12.6406 16.9429 12.3905C16.6928 12.1405 16.3537 12 16.0001 12C15.6465 12 15.3073 12.1405 15.0573 12.3905C14.8072 12.6406 14.6667 12.9797 14.6667 13.3333C14.6667 13.687 14.8072 14.0261 15.0573 14.2761C15.3073 14.5262 15.6465 14.6667 16.0001 14.6667Z" fill="#CB1900" stroke="#CB1900" stroke-width="2" stroke-linecap="round" stroke-linejoin="round"/>
</svg>
