<svg width="32" height="32" viewBox="0 0 32 32" fill="none" xmlns="http://www.w3.org/2000/svg">
<path d="M10.6667 20.5337V11.467C10.6667 11.2548 10.751 11.0513 10.9011 10.9013C11.0511 10.7513 11.2546 10.667 11.4667 10.667H20.5334C20.7456 10.667 20.9491 10.7513 21.0991 10.9013C21.2491 11.0513 21.3334 11.2548 21.3334 11.467V20.5337C21.3334 20.7458 21.2491 20.9493 21.0991 21.0993C20.9491 21.2494 20.7456 21.3337 20.5334 21.3337H11.4667C11.2546 21.3337 11.0511 21.2494 10.9011 21.0993C10.751 20.9493 10.6667 20.7458 10.6667 20.5337V20.5337Z" stroke="#CB1900" stroke-width="2" stroke-linecap="round" stroke-linejoin="round"/>
<path d="M22.6667 5.33366V2.66699M16.0001 5.33366V2.66699M9.33341 5.33366V2.66699M9.33341 26.667V29.3337M16.0001 26.667V29.3337M22.6667 26.667V29.3337M26.6667 22.667H29.3334M26.6667 16.0003H29.3334M26.6667 9.33366H29.3334M5.33341 22.667H2.66675M5.33341 16.0003H2.66675M5.33341 9.33366H2.66675M26.6667 6.13366V25.867C26.6667 26.0792 26.5825 26.2826 26.4324 26.4327C26.2824 26.5827 26.0789 26.667 25.8667 26.667H6.13341C5.92124 26.667 5.71776 26.5827 5.56773 26.4327C5.4177 26.2826 5.33341 26.0792 5.33341 25.867V6.13366C5.33341 5.92149 5.4177 5.718 5.56773 5.56797C5.71776 5.41794 5.92124 5.33366 6.13341 5.33366H25.8667C26.0789 5.33366 26.2824 5.41794 26.4324 5.56797C26.5825 5.718 26.6667 5.92149 26.6667 6.13366V6.13366Z" stroke="#CB1900" stroke-width="2" stroke-linecap="round" stroke-linejoin="round"/>
</svg>
