<svg viewBox="0 0 60 60" fill="none" xmlns="http://www.w3.org/2000/svg">
<path fill-rule="evenodd" clip-rule="evenodd" d="M60 30C60 46.5685 46.5685 60 30 60C13.4315 60 0 46.5685 0 30C0 13.4315 13.4315 0 30 0C46.5685 0 60 13.4315 60 30ZM36.0939 35.0055L38.8127 26.4367H38.7939C39.9939 23.193 42.3564 20.1367 46.8564 20.1367L40.4814 35.6242C39.9278 37.3791 38.8298 38.912 37.3464 40.0009C35.8631 41.0898 34.0716 41.6781 32.2314 41.6805C32.2314 41.6805 30.3564 28.368 30.3564 28.068L27.5439 35.3805C26.2877 38.6242 23.8502 41.6805 19.3502 41.6805L15.8252 20.1555C17.541 20.1985 19.1814 20.8692 20.4358 22.0407C21.6902 23.2121 22.4714 24.8029 22.6314 26.5117C22.6314 26.5117 23.1002 34.4055 23.1002 35.0242L26.4189 26.4367C27.6189 23.193 29.9064 20.1367 34.2189 20.1367C34.2189 20.1367 36.0939 34.3492 36.0939 35.0055Z" fill="white"/>
</svg>
