<svg viewBox="0 0 60 60" fill="none" xmlns="http://www.w3.org/2000/svg">
<path fill-rule="evenodd" clip-rule="evenodd" d="M11.0016 30.0016C11.0016 27.6287 11.9454 25.3531 13.6254 23.6752C15.3054 21.9974 17.584 21.0548 19.9599 21.0548H28.9213V38.9484H19.9599C17.584 38.9484 15.3054 38.0058 13.6254 36.3279C11.9454 34.6501 11.0016 32.3744 11.0016 30.0016ZM19.9599 17.8967H28.9213V0H19.9599C17.5836 3.53642e-08 15.3046 0.942771 13.6243 2.62092C11.944 4.29906 11 6.57511 11 8.94837C11 11.3216 11.944 13.5977 13.6243 15.2758C15.3046 16.954 17.5836 17.8967 19.9599 17.8967ZM50 8.94679C50.0004 10.122 49.769 11.2857 49.319 12.3715C48.869 13.4574 48.2092 14.444 47.3773 15.2752C46.5454 16.1063 45.5577 16.7656 44.4706 17.2154C43.3836 17.6652 42.2184 17.8967 41.0417 17.8967H32.0834V0H41.0417C43.4176 0 45.6962 0.942605 47.3762 2.62045C49.0562 4.2983 50 6.57395 50 8.94679ZM32.0834 30.0016C32.0834 27.6287 33.0272 25.3531 34.7072 23.6752C36.3873 21.9974 38.6658 21.0548 41.0417 21.0548C43.4176 21.0548 45.6962 21.9974 47.3762 23.6752C49.0562 25.3531 50 27.6287 50 30.0016C50 32.3744 49.0562 34.6501 47.3762 36.3279C45.6962 38.0058 43.4176 38.9484 41.0417 38.9484C38.6658 38.9484 36.3873 38.0058 34.7072 36.3279C33.0272 34.6501 32.0834 32.3744 32.0834 30.0016ZM19.9599 42.1064H28.9213V51.0564C28.9207 52.8256 28.3948 54.5549 27.4102 56.0257C26.4257 57.4966 25.0265 58.6428 23.3898 59.3196C21.753 59.9963 19.952 60.1732 18.2146 59.8279C16.4771 59.4826 14.8812 58.6306 13.6286 57.3795C12.3759 56.1285 11.5228 54.5346 11.177 52.7994C10.8313 51.0642 11.0084 49.2656 11.686 47.6309C12.3637 45.9962 13.5114 44.5989 14.9841 43.6155C16.4568 42.6322 18.1884 42.107 19.9599 42.1064Z" fill="white"/>
</svg>
