<svg viewBox="0 0 54 60" fill="none" xmlns="http://www.w3.org/2000/svg">
<path d="M53.7616 20.9998C53.7616 32.0949 48.8162 37.9386 43.4526 41.7824L42.4105 42.5023L41.3653 43.1775L40.3241 43.8132L39.2945 44.4146L35.4008 46.5997C35.1982 46.7154 34.9983 46.8307 34.8013 46.9458L33.6549 47.6364C29.5835 50.1779 26.9941 52.9212 26.7766 59.1314L26.7618 60H15.24C15.24 49.2629 19.8726 43.4435 25.0326 39.5954L26.0704 38.8511C26.2441 38.7312 26.4181 38.6132 26.5922 38.4971L27.6375 37.8219L28.6785 37.1862L30.7188 36.0122L33.6012 34.3998L34.7829 33.7088C39.1783 31.0642 41.9981 28.3608 42.2255 21.8684L42.2403 20.9998H53.7616ZM38.7608 0C38.7608 10.7363 34.1291 16.5558 28.9691 20.4041L27.9313 21.1483C27.7576 21.2683 27.5835 21.3863 27.4094 21.5024L26.3641 22.1776L25.323 22.8133L23.2823 23.9873L20.3996 25.5999L19.2179 26.291C19.0268 26.406 18.8387 26.5211 18.6536 26.6367L17.5807 27.3373C14.1311 29.7057 11.9731 32.4862 11.7754 38.1318L11.7605 39.0005H0.238281C0.238281 27.5474 5.50817 21.6905 11.0679 17.852L12.1125 17.1551L13.1566 16.5002L14.1929 15.8822L18.5996 13.4L19.7812 12.7089C24.1766 10.064 26.9964 7.36068 27.2238 0.868588L27.2386 0H38.7608Z" fill="white"/>
</svg>
