<svg viewBox="0 0 52 60" fill="none" xmlns="http://www.w3.org/2000/svg">
<path d="M37.5908 7.15889V52.1576C37.5908 57.1927 41.0681 59.9983 44.7499 59.9983C48.1589 59.9983 51.9089 57.612 51.9089 52.1576V7.49979C51.9089 2.88401 48.4998 0 44.7499 0C40.9999 0 37.5908 3.18059 37.5908 7.15889Z" fill="white"/>
<path d="M18.8408 29.9997V52.1582C18.8408 57.1933 22.3181 59.9989 25.9999 59.9989C29.4089 59.9989 33.1589 57.6126 33.1589 52.1582V30.3406C33.1589 25.7248 29.7498 22.8408 25.9999 22.8408C22.2499 22.8408 18.8408 26.0214 18.8408 29.9997Z" fill="white"/>
<path d="M7.25084 60.0004C11.2047 60.0004 14.4099 56.7953 14.4099 52.8415C14.4099 48.8878 11.2047 45.6826 7.25084 45.6826C3.29701 45.6826 0.0917969 48.8878 0.0917969 52.8415C0.0917969 56.7953 3.29701 60.0004 7.25084 60.0004Z" fill="white"/>
</svg>
