<svg width="33" height="34" viewBox="0 0 33 34" fill="none" xmlns="http://www.w3.org/2000/svg">
<g clip-path="url(#clip0_12504_73060)">
<path d="M13.4062 11.5396H13.3785L11.6737 17.2733H15.1665L13.4062 11.5396ZM13.4062 11.5396H13.3785L11.6737 17.2733H15.1665L13.4062 11.5396ZM27.156 0.759766H5.84396C2.61229 0.759766 0 3.37205 0 6.60373V27.0908C0 30.3225 2.61229 32.9348 5.84396 32.9348H27.156C30.3877 32.9348 33 30.3225 33 27.0908V6.60373C33 3.37205 30.3877 0.759766 27.156 0.759766ZM20.2125 23.4885H17.3385C17.2425 23.5021 17.1465 23.4337 17.1187 23.3371L15.9915 20.0648H10.8765L9.83103 23.2958C9.80396 23.4195 9.69375 23.5021 9.57 23.4885H6.98479C6.83396 23.4885 6.79271 23.406 6.83396 23.241L11.2613 10.4948C11.3025 10.3575 11.3438 10.206 11.3985 10.041C11.454 9.75227 11.481 9.44998 11.481 9.14705C11.4675 9.07873 11.5223 9.00977 11.5912 8.99623H15.1523C15.2625 8.99623 15.3173 9.03748 15.3315 9.1058L20.3498 23.2687C20.391 23.4196 20.3498 23.4885 20.2125 23.4885ZM24.8873 23.2823C24.8873 23.4337 24.8325 23.5021 24.7087 23.5021H22.014C21.876 23.5021 21.8077 23.4196 21.8077 23.2823V12.6946C21.8077 12.5573 21.8625 12.5025 21.9862 12.5025H24.7087C24.8325 12.5025 24.8873 12.5708 24.8873 12.6946V23.2823ZM24.5985 10.866C24.2827 11.196 23.8148 11.3746 23.3475 11.3475C22.8937 11.361 22.4535 11.1825 22.1235 10.866C21.8077 10.5225 21.6427 10.0687 21.6562 9.6008C21.6427 9.13352 21.8212 8.6933 22.1512 8.37748C22.4812 8.06102 22.9215 7.89602 23.3752 7.89602C23.9115 7.89602 24.324 8.06102 24.6262 8.37748C24.9307 8.71078 25.0935 9.14955 25.08 9.6008C25.0935 10.0687 24.9285 10.5225 24.5985 10.866ZM13.3785 11.5396L11.6737 17.2733H15.1665L13.4062 11.5396H13.3785Z" fill="white"/>
</g>
<defs>
<clipPath id="clip0_12504_73060">
<rect width="33" height="33" fill="white" transform="translate(0 0.347168)"/>
</clipPath>
</defs>
</svg>
