<svg width="34" height="34" viewBox="0 0 34 34" fill="none" xmlns="http://www.w3.org/2000/svg">
<g clip-path="url(#clip0_12504_73052)">
<path fill-rule="evenodd" clip-rule="evenodd" d="M6.50085 16.848C6.50085 15.543 7.00906 14.2914 7.91368 13.3686C8.81829 12.4457 10.0452 11.9273 11.3245 11.9273H16.1499V21.7688H11.3245C10.0452 21.7688 8.81829 21.2503 7.91368 20.3275C7.00906 19.4047 6.50085 18.1531 6.50085 16.848ZM11.3245 10.1904H16.1499V0.347168H11.3245C10.045 0.347168 8.81785 0.865692 7.91308 1.78867C7.0083 2.71165 6.5 3.96348 6.5 5.26877C6.5 6.57406 7.0083 7.82589 7.91308 8.74887C8.81785 9.67185 10.045 10.1904 11.3245 10.1904ZM27.5 5.2679C27.5002 5.91425 27.3756 6.55431 27.1333 7.15152C26.891 7.74873 26.5357 8.29139 26.0878 8.74851C25.6398 9.20562 25.108 9.56824 24.5226 9.81564C23.9373 10.063 23.3099 10.1904 22.6763 10.1904H17.8526V0.347168H22.6763C23.9556 0.347168 25.1826 0.865601 26.0872 1.78842C26.9918 2.71123 27.5 3.96284 27.5 5.2679ZM17.8526 16.848C17.8526 15.543 18.3608 14.2914 19.2654 13.3686C20.1701 12.4457 21.397 11.9273 22.6763 11.9273C23.9556 11.9273 25.1826 12.4457 26.0872 13.3686C26.9918 14.2914 27.5 15.543 27.5 16.848C27.5 18.1531 26.9918 19.4047 26.0872 20.3275C25.1826 21.2503 23.9556 21.7688 22.6763 21.7688C21.397 21.7688 20.1701 21.2503 19.2654 20.3275C18.3608 19.4047 17.8526 18.1531 17.8526 16.848ZM11.3245 23.5057H16.1499V28.4282C16.1496 29.4013 15.8665 30.3524 15.3363 31.1613C14.8061 31.9703 14.0528 32.6007 13.1714 32.9729C12.2901 33.3452 11.3203 33.4425 10.3848 33.2525C9.44923 33.0626 8.58988 32.594 7.91538 31.9059C7.24088 31.2178 6.7815 30.3412 6.59532 29.3868C6.40915 28.4325 6.50453 27.4432 6.86941 26.5442C7.23429 25.6451 7.85229 24.8765 8.64528 24.3357C9.43828 23.7949 10.3707 23.506 11.3245 23.5057Z" fill="white"/>
</g>
<defs>
<clipPath id="clip0_12504_73052">
<rect width="33" height="33" fill="white" transform="translate(0.5 0.347168)"/>
</clipPath>
</defs>
</svg>
