<svg viewBox="0 0 60 60" fill="none" xmlns="http://www.w3.org/2000/svg">
<g clip-path="url(#clip0_11875_57866)">
<path d="M19.3935 20.3611L22.6142 30.786H16.2548L19.3935 20.3611Z" fill="white"/>
<path d="M49.3748 0.749756L10.6241 0.749756C4.7567 0.749756 0 5.50645 0 11.375L0 48.6249C0 54.4934 4.7567 59.2501 10.6241 59.2501H49.3748C55.2433 59.2501 60 54.4934 60 48.6249V11.375C60 5.50645 55.2433 0.749756 49.3748 0.749756ZM31.7914 42.0006H26.559C26.469 42.0103 26.3786 41.9871 26.3045 41.9352C26.2303 41.8832 26.1776 41.8062 26.156 41.7183L24.1033 35.7501H14.8055L12.9134 41.6374C12.8878 41.7447 12.8256 41.8397 12.7375 41.9061C12.6494 41.9724 12.5409 42.0058 12.4307 42.0006H7.72202C7.45255 42.0006 7.35882 41.853 7.43966 41.5578L15.4897 18.469C15.5706 18.2277 15.6514 17.9922 15.7311 17.6829C15.8365 17.1463 15.8904 16.6003 15.8928 16.0532C15.8872 16.0149 15.8906 15.9759 15.9028 15.9392C15.9149 15.9025 15.9354 15.8691 15.9627 15.8417C15.99 15.8143 16.0233 15.7936 16.06 15.7813C16.0966 15.769 16.1357 15.7654 16.1739 15.7708H22.5744C22.7607 15.7708 22.8685 15.8376 22.8954 15.9724L32.0327 41.5976C32.1136 41.8659 32.0327 42.0006 31.7914 42.0006ZM51.4133 32.0338C51.3735 32.5165 51.3395 32.8657 51.3126 33.0801C51.3023 33.1689 51.2598 33.2508 51.193 33.3102C51.1262 33.3696 51.0399 33.4024 50.9506 33.4023C50.7901 33.4023 50.5147 33.4222 50.1258 33.462C49.7356 33.503 49.2529 33.53 48.6765 33.5429C48.0989 33.5569 47.4885 33.4585 46.8453 33.4585H38.9159C39.0129 34.2432 39.2736 34.9987 39.6809 35.6763C40.1308 36.3477 40.767 36.8714 41.5121 37.1854C42.5212 37.6221 43.6126 37.8359 44.7118 37.8122C45.5835 37.7958 46.4528 37.7009 47.3081 37.5275C48.0731 37.4244 48.8218 37.2287 49.54 36.9464C49.6735 36.8386 49.7415 36.9053 49.7415 37.1467V40.9708C49.7485 41.0751 49.7274 41.1793 49.6805 41.2731C49.6349 41.3457 49.5728 41.4078 49.5001 41.4535C48.7036 41.8061 47.8654 42.0557 47.0058 42.1963C45.8389 42.4166 44.652 42.5173 43.464 42.4986C40.4565 42.4986 37.5088 41.6269 35.5346 39.238C33.9799 37.3564 33.2805 34.7555 33.2805 32.315C33.2817 29.6672 34.0772 26.9877 35.776 24.9292C37.6154 22.7007 40.1484 21.7706 42.9813 21.7706C45.4136 21.7706 47.9337 22.5884 49.5013 24.5274C50.8182 26.1547 51.4743 28.348 51.4743 30.4241C51.4743 31.0145 51.4532 31.5511 51.4133 32.0338ZM42.7798 26.1172C42.1026 26.0762 41.428 26.2332 40.8384 26.5689C40.2489 26.9047 39.7697 27.4048 39.4595 28.0082C39.1834 28.5694 38.9998 29.1716 38.9159 29.7914H44.1881C44.8325 29.7914 45.3093 29.7855 45.6174 29.7715C45.8236 29.7516 46.0228 29.6848 46.2009 29.5782V29.3368C46.1927 29.0216 46.1388 28.71 46.0404 28.4112C45.594 26.9995 44.2596 26.0598 42.7798 26.1172Z" fill="white"/>
</g>
<defs>
<clipPath id="clip0_11875_57866">
<rect width="60" height="60" fill="white"/>
</clipPath>
</defs>
</svg>
