<svg width="34" height="34" viewBox="0 0 34 34" fill="none" xmlns="http://www.w3.org/2000/svg">
<g clip-path="url(#clip0_12504_73057)">
<path d="M11.1662 11.5459L12.9376 17.2796H9.43994L11.1662 11.5459Z" fill="white"/>
<path d="M27.6561 0.759521H6.34324C3.11618 0.759521 0.5 3.3757 0.5 6.60341V27.0908C0.5 30.3185 3.11618 32.9347 6.34324 32.9347H27.6561C30.8838 32.9347 33.5 30.3185 33.5 27.0908V6.60341C33.5 3.3757 30.8838 0.759521 27.6561 0.759521ZM17.9853 23.4475H15.1075C15.058 23.4528 15.0082 23.44 14.9675 23.4115C14.9267 23.3829 14.8977 23.3405 14.8858 23.2922L13.7568 20.0097H8.64303L7.60236 23.2477C7.58831 23.3068 7.5541 23.359 7.50563 23.3955C7.45715 23.432 7.39747 23.4504 7.33687 23.4475H4.74711C4.5989 23.4475 4.54735 23.3663 4.59181 23.2039L9.01935 10.5051C9.06381 10.3724 9.10828 10.2429 9.15209 10.0727C9.21009 9.77762 9.23973 9.47734 9.24102 9.17642C9.23796 9.15537 9.23984 9.1339 9.24652 9.11371C9.2532 9.09351 9.26449 9.07515 9.2795 9.06008C9.2945 9.04501 9.31282 9.03365 9.33298 9.02688C9.35315 9.02012 9.37461 9.01815 9.39567 9.02112H12.9159C13.0184 9.02112 13.0777 9.05785 13.0925 9.13195L18.118 23.2258C18.1625 23.3734 18.118 23.4475 17.9853 23.4475ZM28.7773 17.9658C28.7554 18.2312 28.7367 18.4233 28.7219 18.5412C28.7163 18.59 28.6929 18.6351 28.6562 18.6678C28.6194 18.7004 28.572 18.7185 28.5228 18.7184C28.4345 18.7184 28.2831 18.7294 28.0692 18.7513C27.8546 18.7738 27.5891 18.7886 27.2721 18.7957C26.9544 18.8035 26.6187 18.7493 26.2649 18.7493H21.9037C21.9571 19.1809 22.1005 19.5965 22.3245 19.9691C22.572 20.3384 22.9219 20.6264 23.3317 20.7991C23.8866 21.0393 24.4869 21.1569 25.0915 21.1438C25.5709 21.1348 26.049 21.0826 26.5194 20.9873C26.9402 20.9306 27.352 20.8229 27.747 20.6677C27.8204 20.6084 27.8578 20.6451 27.8578 20.7778V22.8811C27.8617 22.9384 27.8501 22.9958 27.8243 23.0473C27.7992 23.0873 27.765 23.1214 27.7251 23.1466C27.287 23.3405 26.826 23.4778 26.3532 23.5551C25.7114 23.6763 25.0586 23.7317 24.4052 23.7214C22.7511 23.7214 21.1298 23.2419 20.0441 21.9281C19.189 20.8932 18.8043 19.4627 18.8043 18.1204C18.8049 16.6641 19.2424 15.1904 20.1768 14.0582C21.1885 12.8326 22.5816 12.321 24.1397 12.321C25.4775 12.321 26.8635 12.7708 27.7257 13.8372C28.45 14.7323 28.8108 15.9385 28.8108 17.0804C28.8108 17.4052 28.7992 17.7003 28.7773 17.9658ZM24.0289 14.7116C23.6564 14.6891 23.2854 14.7754 22.9611 14.9601C22.6369 15.1447 22.3734 15.4198 22.2027 15.7517C22.0509 16.0603 21.9499 16.3915 21.9037 16.7324H24.8034C25.1579 16.7324 25.4201 16.7292 25.5896 16.7215C25.703 16.7105 25.8125 16.6738 25.9105 16.6151V16.4824C25.906 16.3091 25.8763 16.1377 25.8222 15.9733C25.5767 15.1969 24.8428 14.6801 24.0289 14.7116Z" fill="white"/>
</g>
<defs>
<clipPath id="clip0_12504_73057">
<rect width="33" height="33" fill="white" transform="translate(0.5 0.347168)"/>
</clipPath>
</defs>
</svg>
