<svg viewBox="0 0 60 60" fill="none" xmlns="http://www.w3.org/2000/svg">
<path d="M24.375 20.3496H24.3246L21.225 30.7746H27.5754L24.375 20.3496ZM24.375 20.3496H24.3246L21.225 30.7746H27.5754L24.375 20.3496ZM49.3746 0.75L10.6254 0.75C4.74961 0.75 0 5.49961 0 11.3754L0 48.6246C0 54.5004 4.74961 59.25 10.6254 59.25H49.3746C55.2504 59.25 60 54.5004 60 48.6246V11.3754C60 5.49961 55.2504 0.75 49.3746 0.75ZM36.75 42.075H31.5246C31.35 42.0996 31.1754 41.9754 31.125 41.7996L29.0754 35.85H19.7754L17.8746 41.7246C17.8254 41.9496 17.625 42.0996 17.4 42.075H12.6996C12.4254 42.075 12.3504 41.925 12.4254 41.625L20.475 18.45C20.55 18.2004 20.625 17.925 20.7246 17.625C20.8254 17.1 20.8746 16.5504 20.8746 15.9996C20.85 15.8754 20.9496 15.75 21.075 15.7254H27.5496C27.75 15.7254 27.8496 15.8004 27.8754 15.9246L36.9996 41.6754C37.0746 41.9496 36.9996 42.075 36.75 42.075ZM45.2496 41.7C45.2496 41.9754 45.15 42.0996 44.925 42.0996H40.0254C39.7746 42.0996 39.6504 41.9496 39.6504 41.7V22.4496C39.6504 22.2 39.75 22.1004 39.975 22.1004H44.925C45.15 22.1004 45.2496 22.2246 45.2496 22.4496V41.7ZM44.7246 19.125C44.1504 19.725 43.2996 20.0496 42.45 20.0004C41.625 20.025 40.8246 19.7004 40.2246 19.125C39.6504 18.5004 39.3504 17.6754 39.375 16.8246C39.3504 15.975 39.675 15.1746 40.275 14.6004C40.875 14.025 41.6754 13.725 42.5004 13.725C43.4754 13.725 44.2254 14.025 44.775 14.6004C45.3286 15.2064 45.6245 16.0042 45.6 16.8246C45.6246 17.6754 45.3246 18.5004 44.7246 19.125ZM24.3246 20.3496L21.225 30.7746H27.5754L24.375 20.3496H24.3246Z" fill="white"/>
</svg>
