<svg viewBox="0 0 144 144" fill="none" xmlns="http://www.w3.org/2000/svg">
<rect x="0.5" y="0.5" width="143" height="143" rx="71.5" fill="white"/>
<rect x="0.5" y="0.5" width="143" height="143" rx="71.5" stroke="black"/>
<path fill-rule="evenodd" clip-rule="evenodd" d="M94.1212 84.2667L84.4145 79.1818H44.4242V63.4242H99.5758V79.1818H94.1212V84.2667ZM42 61V81.6061H83.8182L96.5455 88.2727V81.6061H102V61H42ZM46.8485 65.8485H57.1515V71.2988L53.8267 72.5921L57.2303 76.7576H54.0994L51.4497 73.5152L49.2727 74.363V76.7576H46.8485V65.8485ZM62 76.7576H59.5758V65.8485H70.4848V76.7576H68.0606V73.1212H62V76.7576ZM72.9091 72.5152V65.8485H83.8182V68.2727H75.3333V70.0909H83.8182V76.7576H72.9091V74.3333H81.3939V72.5152H72.9091ZM86.2424 71.9091V65.8485H97.1515V76.7576H94.7273V73.1212H88.6667V76.7576H86.2424V71.9091ZM49.2727 71.7612L54.7273 69.64V68.2727H49.2727V71.7612ZM62 68.2727V70.697H68.0606V68.2727H62ZM88.6667 70.697V68.2727H94.7273V70.697H88.6667Z" fill="black"/>
</svg>
