<svg viewBox="0 0 144 144" fill="none" xmlns="http://www.w3.org/2000/svg">
<rect x="0.5" y="0.5" width="143" height="143" rx="71.5" fill="white"/>
<rect x="0.5" y="0.5" width="143" height="143" rx="71.5" stroke="black"/>
<g clip-path="url(#clip0_46342_1792)">
<path d="M90.8872 64.3391C87.0388 57.5423 79.8018 53.3199 72.0002 53.3199C64.1987 53.3199 56.9616 57.5421 53.1131 64.3391C52.9441 64.6375 52.9441 65.0029 53.1131 65.3014C56.9616 72.0983 64.1987 76.3206 72.0002 76.3206C74.5742 76.3206 77.0937 75.8738 79.4886 74.9927C79.9946 74.8065 80.254 74.2453 80.0679 73.7392C79.8817 73.2332 79.3206 72.9735 78.8144 73.16C76.6363 73.9614 74.3437 74.3677 72.0004 74.3677C65.087 74.3677 58.6604 70.7235 55.0941 64.8203C56.8224 61.9595 59.2236 59.6315 62.0252 57.9894C61.7245 58.9731 61.5687 60.002 61.5687 61.0483C61.5687 66.8091 66.2556 71.496 72.0165 71.496C77.7766 71.496 82.463 66.8092 82.463 61.0483C82.463 60.0096 82.3097 58.9881 82.0134 58.0116C84.7989 59.6525 87.1863 61.9724 88.9069 64.8205C87.1072 67.8009 84.5569 70.2531 81.5017 71.9348C81.0292 72.1948 80.857 72.7886 81.1169 73.261C81.3771 73.7335 81.9708 73.9055 82.4432 73.6457C85.9786 71.6999 88.8986 68.8147 90.8875 65.3017C91.0562 65.0029 91.0562 64.6376 90.8872 64.3391ZM72.0161 69.543C67.332 69.543 63.5212 65.7322 63.5212 61.048C63.5212 59.493 63.9412 57.9844 64.7383 56.6649C67.0173 55.7605 69.4758 55.2729 72.0001 55.2729C74.5385 55.2729 77.0107 55.7659 79.3005 56.68C80.0926 57.9941 80.5097 59.4975 80.5097 61.0482C80.5097 65.7322 76.6994 69.543 72.0161 69.543Z" fill="black"/>
<path d="M97.2243 44.9023H46.7759C44.1425 44.9023 42 47.0448 42 49.6781V56.6188C42 57.1581 42.4372 57.5952 42.9764 57.5952C43.5156 57.5952 43.9528 57.158 43.9528 56.6188V49.6781C43.9528 48.1214 45.2193 46.8551 46.7759 46.8551H97.2243C98.781 46.8551 100.047 48.1215 100.047 49.6781V83.0076H93.9289C93.3896 83.0076 92.9525 83.4449 92.9525 83.984C92.9525 84.5232 93.3898 84.9604 93.9289 84.9604H100.047V86.7502C100.047 88.307 98.7809 89.5733 97.2243 89.5733H79.0121H64.988H46.7759C45.2191 89.5733 43.9528 88.3069 43.9528 86.7502V84.9604H90.6742C91.2135 84.9604 91.6506 84.5232 91.6506 83.984C91.6506 83.4449 91.2133 83.0076 90.6742 83.0076H43.9528V59.8737C43.9528 59.3344 43.5156 58.8973 42.9764 58.8973C42.4372 58.8973 42 59.3344 42 59.8737V86.7505C42 89.3839 44.1425 91.5263 46.7759 91.5263H63.5086L61.107 97.1449H56.4155C55.8762 97.1449 55.4391 97.5821 55.4391 98.1213C55.4391 98.6605 55.8763 99.0977 56.4155 99.0977H87.5845C88.1238 99.0977 88.5609 98.6605 88.5609 98.1213C88.5609 97.5821 88.1237 97.1449 87.5845 97.1449H82.893L80.4914 91.5263H97.2241C99.8576 91.5263 102 89.3839 102 86.7505V49.6781C102 47.0448 99.8576 44.9023 97.2243 44.9023ZM80.7692 97.1448H63.2309L65.5 91.5L78.5 91.5263L80.7692 97.1448Z" fill="black"/>
</g>
<defs>
<clipPath id="clip0_46342_1792">
<rect width="60" height="60" fill="white" transform="translate(42 42)"/>
</clipPath>
</defs>
</svg>
