<svg viewBox="0 0 144 144" fill="none" xmlns="http://www.w3.org/2000/svg">
<rect x="0.88916" y="0.5" width="142.221" height="143" rx="71.1107" fill="white"/>
<rect x="0.88916" y="0.5" width="142.221" height="143" rx="71.1107" stroke="black"/>
<path fill-rule="evenodd" clip-rule="evenodd" d="M65.9629 42.156C62.7109 42.6633 59.5753 44.5494 57.5812 47.1975C57.0867 47.8542 56.3291 49.21 55.9537 50.1098C55.5737 51.021 55.0793 52.9792 55.0793 53.5736V53.954L54.1098 54.0384C52.8091 54.1518 51.7433 54.4008 50.5929 54.8603C47.0015 56.2948 44.4638 58.8328 43.1302 62.3238C42.4793 64.0275 42.3812 64.6534 42.3896 67.0482C42.3968 69.1232 42.424 69.3884 42.7363 70.4258C43.4959 72.9501 44.9822 75.259 46.8785 76.8608C47.4031 77.3038 47.8055 77.726 47.7729 77.799C46.8403 79.8867 46.4657 81.2148 46.3295 82.9173C46.1367 85.3262 46.543 87.4709 47.5989 89.6163C48.8456 92.1498 50.6009 93.9945 53.011 95.3043C55.2629 96.5282 57.0383 96.9399 59.6724 96.8488C61.7139 96.7782 61.8833 96.7491 63.5816 96.1746C64.3639 95.9101 64.9082 95.7841 64.9339 95.8615C65.041 96.1828 66.26 97.6473 67.0416 98.394C68.9868 100.252 71.0585 101.285 73.791 101.759C75.5225 102.06 76.2526 102.073 77.8573 101.831C83.1552 101.032 87.336 97.1494 88.6072 91.8467C88.7431 91.2803 88.8546 90.6654 88.8551 90.4803C88.8556 90.2951 88.8996 90.1166 88.9529 90.0837C89.0062 90.0508 89.5945 89.9631 90.2603 89.8888C92.3986 89.6504 94.8955 88.6372 96.6121 87.3113C97.5412 86.5936 98.8314 85.2285 99.4577 84.3005C100.115 83.3261 100.897 81.588 101.252 80.3086C101.6 79.0561 101.725 76.2581 101.491 74.9324C100.918 71.6721 99.357 69.0261 96.693 66.7976L96.0944 66.297L96.4876 65.4215C97.7286 62.6585 97.9908 59.5907 97.2358 56.665C96.7482 54.7749 95.103 51.9222 93.842 50.7802C91.6286 48.7758 89.2327 47.593 86.6163 47.2132C84.4827 46.9034 81.511 47.2419 79.8932 47.9789C79.6011 48.112 79.2888 48.2207 79.1989 48.2206C79.1091 48.2205 78.8676 47.9531 78.6621 47.6264C78.0974 46.7285 76.4483 45.0702 75.3983 44.3444C72.6045 42.413 69.2711 41.6399 65.9629 42.156ZM70.7166 44.2815C72.0216 44.6215 73.9317 45.5916 74.9182 46.4155C75.8133 47.1631 77.3469 48.8974 77.3469 49.1618C77.3469 49.2406 76.9388 49.5292 76.4399 49.8032C75.1913 50.4889 69.5571 53.7329 69.4031 53.8548C69.3343 53.9092 68.6869 54.287 67.9644 54.6944C67.242 55.1018 66.088 55.7618 65.3999 56.161C64.7119 56.5603 63.9956 56.9671 63.808 57.0651C63.6205 57.163 63.3531 57.3881 63.2138 57.5652C62.9651 57.8813 62.9605 58.0422 62.9605 66.377C62.9605 71.0464 62.9285 74.8668 62.8892 74.8668C62.85 74.8668 62.4137 74.6224 61.9197 74.3235C61.4257 74.0247 60.7681 73.6371 60.4585 73.4621C59.1791 72.7393 57.5003 71.7721 57.2372 71.6064L56.9558 71.429L56.9569 62.4832L56.958 53.5375L57.2764 52.2865C57.6225 50.9266 58.3901 49.3432 59.2334 48.25C60.707 46.3396 63.0778 44.7875 65.2748 44.295C65.7565 44.187 66.2631 44.0722 66.4007 44.0399C66.9518 43.9102 69.9319 44.0771 70.7166 44.2815ZM87.4467 49.3428C88.7069 49.648 90.1392 50.3531 91.3699 51.2746C94.5185 53.632 96.1845 57.7129 95.6034 61.6449C95.5303 62.1398 95.4137 62.7417 95.3444 62.9825C95.1474 63.667 94.4617 65.2342 94.3594 65.2342C94.2687 65.2342 93.0106 64.5296 90.795 63.2378C90.1757 62.8768 89.4439 62.4542 89.1687 62.2988C88.8935 62.1434 87.9881 61.6193 87.157 61.134C86.3257 60.6488 85.1998 60.0006 84.655 59.6938C84.1101 59.3869 82.8881 58.6848 81.9395 58.1335C79.9042 56.951 80.0225 56.954 78.1552 58.0388C77.4698 58.4371 76.5994 58.9333 76.221 59.1414C75.8425 59.3496 75.2363 59.7079 74.8738 59.9377C74.5111 60.1674 74.19 60.3554 74.16 60.3554C74.1298 60.3554 73.8073 60.5324 73.443 60.7487C73.0787 60.9649 71.6549 61.7892 70.2788 62.5803C64.8227 65.717 65.0298 65.6079 64.9621 65.3812C64.9277 65.266 64.917 63.7025 64.9383 61.907L64.9772 58.6422L65.7514 58.2056C66.5487 57.7561 69.5069 56.0505 69.8409 55.8478C69.9441 55.7852 70.5071 55.4598 71.0919 55.1246C72.162 54.5115 73.4209 53.7862 75.8457 52.386C76.5681 51.9688 77.497 51.4252 77.9098 51.1782C79.915 49.9777 81.6595 49.3021 83.4141 49.0464C84.1806 48.9345 86.4494 49.1014 87.4467 49.3428ZM54.9542 64.0399C54.9542 69.5059 54.9973 72.1976 55.0882 72.397C55.2284 72.7046 55.2906 72.753 56.2052 73.2661C56.8602 73.6335 60.7913 75.9108 65.7781 78.8118C67.7062 79.9333 69.4372 80.921 69.6249 81.0066C69.8125 81.092 69.966 81.1963 69.966 81.2385C69.966 81.2806 69.7555 81.4264 69.4982 81.5625C69.2408 81.6985 68.4105 82.1702 67.6529 82.6107C66.8955 83.0512 65.7539 83.7091 65.1164 84.0726L63.9573 84.7337L63.24 84.3237C62.0886 83.6655 61.1609 83.1276 60.9589 83.0009C60.8557 82.9362 60.2928 82.6094 59.7079 82.2749C57.9699 81.2809 53.6917 78.8087 52.9784 78.3864C52.6141 78.1707 52.2916 77.9943 52.2614 77.9943C52.2314 77.9943 51.9103 77.8054 51.5476 77.5745C51.1851 77.3435 50.6351 77.0192 50.3255 76.8534C48.6737 75.9696 47.0372 74.5327 46.1453 73.1829C43.7354 69.5359 43.5718 65.1727 45.704 61.4116C46.3105 60.3418 47.9648 58.5526 48.9826 57.8658C50.5862 56.7836 52.7686 56.022 54.36 55.9892L54.9542 55.9769V64.0399ZM80.6812 59.6477C81.0834 59.8778 82.0881 60.4602 82.9137 60.9422C83.7394 61.4241 84.6683 61.9613 84.9779 62.136C86.0372 62.7338 88.9176 64.3931 90.3571 65.2351C95.6631 68.3384 95.9183 68.5161 97.1361 69.9535C99.6186 72.8839 100.385 77.1735 99.0714 80.7914C98.3145 82.8764 96.538 85.093 94.673 86.2795C93.0988 87.2808 90.9203 88.0022 89.4704 88.0022H88.981V79.9392C88.981 74.4585 88.938 71.7818 88.8467 71.5812C88.755 71.3801 87.5523 70.6154 85.0624 69.1751C83.055 68.0139 80.4837 66.521 79.3484 65.8572C78.2132 65.1936 77.031 64.5068 76.7214 64.3312C74.5271 63.0861 74.089 62.8105 74.1263 62.6989C74.1627 62.5895 76.1015 61.4394 78.3476 60.1945C78.7261 59.9847 79.2327 59.6851 79.4735 59.5286C79.7143 59.3722 79.92 59.2409 79.9306 59.2369C79.9413 59.2328 80.279 59.4177 80.6812 59.6477ZM72.5065 64.158C76.2582 66.3032 78.7681 67.7726 78.9559 67.9339C79.0528 68.0171 78.9884 76.0275 78.8899 76.1251C78.8325 76.1821 78.3914 76.4466 77.9098 76.7129C77.4282 76.9791 75.8886 77.8576 74.4883 78.665L71.9426 80.133L70.6103 79.3535C69.8776 78.9247 68.6721 78.2184 67.9317 77.7838C67.1911 77.349 66.5551 76.9935 66.5183 76.9935C66.4604 76.9935 65.1051 76.1597 64.9788 76.0465C64.9442 76.0154 64.925 69.2254 64.9564 68.0981C64.9618 67.9047 65.2487 67.7221 68.2772 65.9835C68.9652 65.5885 70.063 64.9514 70.7166 64.5676C71.3703 64.1839 71.9223 63.8673 71.9436 63.864C71.9647 63.8608 72.2181 63.9931 72.5065 64.158ZM83.3646 70.4401C84.6304 71.1704 85.9615 71.9423 86.3227 72.1553L86.9795 72.5429L86.9793 81.4922L86.9792 90.4416L86.6217 91.7738C85.3005 96.6972 81.0102 100.012 75.9588 100.012C73.5662 100.012 71.1412 99.2064 69.322 97.8077C68.1866 96.9349 66.3957 94.8974 66.5986 94.7095C66.6274 94.6827 68.396 93.6632 70.529 92.4437C72.6619 91.2242 74.8855 89.9427 75.4704 89.596C77.0668 88.6492 77.7819 88.2358 79.1944 87.4431C79.901 87.0466 80.5905 86.5803 80.7269 86.4071C80.9685 86.0999 80.9747 85.8758 80.9747 77.6021C80.9747 72.9327 80.9947 69.1123 81.019 69.1123C81.0434 69.1123 82.099 69.7098 83.3646 70.4401ZM78.9968 82.1348L78.9579 85.3371L78.1836 85.7736C77.2602 86.2942 74.369 87.9654 73.8051 88.3046C73.5858 88.4364 73.0403 88.7493 72.5931 88.9999C71.658 89.5238 68.0585 91.6098 66.4007 92.5884C63.9176 94.0543 62.4081 94.6552 60.6065 94.895C55.0954 95.6283 49.8062 91.9299 48.5078 86.4348C48.0898 84.6652 48.1208 82.6291 48.5908 80.9967C48.7878 80.3121 49.4735 78.7449 49.5758 78.7449C49.6763 78.7449 50.5258 79.2259 54.8916 81.7544C56.4741 82.6709 58.3318 83.7412 59.0199 84.133C59.7079 84.5247 61.059 85.3038 62.0223 85.8644C63.3823 86.6559 63.8436 86.8668 64.0864 86.8083C64.2584 86.7668 64.9902 86.3921 65.7127 85.9753C66.4351 85.5586 67.3358 85.0471 67.7142 84.8385C68.0927 84.6299 68.6989 84.2713 69.0614 84.0414C69.4241 83.8118 69.7447 83.6237 69.774 83.6237C69.8034 83.6237 70.4638 83.2503 71.2415 82.7938C72.0193 82.3374 73.4438 81.5152 74.407 80.9669C76.6214 79.7063 76.9625 79.5109 78.0349 78.888C78.8906 78.3911 78.912 78.3859 78.9731 78.6561C79.0075 78.8081 79.0182 80.3736 78.9968 82.1348Z" fill="black"/>
</svg>
