<svg viewBox="0 0 144 144" fill="none" xmlns="http://www.w3.org/2000/svg">
<rect x="0.5" y="0.5" width="143" height="143" rx="71.5" fill="white"/>
<rect x="0.5" y="0.5" width="143" height="143" rx="71.5" stroke="black"/>
<g clip-path="url(#clip0_46342_1750)">
<path d="M94.6331 90.7514L93.1487 87.316C93.3183 86.3331 93.8698 83.0436 94.284 79.4523C94.6668 76.1332 93.6303 73.9681 92.9485 72.9422C93.8121 71.6559 95.318 68.7181 93.2934 66.0916C91.3689 63.5952 88.9051 64.0204 87.5208 64.7603C86.1234 64.2593 84.9816 64.3413 84.1212 65.0061C83.0181 65.8585 82.7928 67.4242 82.7887 68.5394C78.6266 68.2694 69.2073 68.5165 66.0288 68.6116C66.044 67.6474 66.04 66.675 66.0169 65.7091C66.0038 65.1609 65.5486 64.7248 65.0005 64.74C64.4523 64.7532 64.0184 65.2082 64.0315 65.7564C64.0621 67.0406 64.0581 68.3361 64.0195 69.607C64.0112 69.8812 64.1167 70.1466 64.3111 70.3402C64.5053 70.5338 64.7695 70.6382 65.0454 70.6293C65.197 70.6243 80.245 70.1279 83.7177 70.6201C84.0295 70.664 84.3424 70.5575 84.5633 70.334C84.784 70.1105 84.886 69.7947 84.8384 69.4842C84.6985 68.574 84.7601 67.0205 85.3368 66.577C85.7853 66.2315 86.7092 66.5543 87.2198 66.777C87.5424 66.9179 87.9152 66.8773 88.1999 66.6708C88.2049 66.6672 88.716 66.3141 89.3982 66.2115C90.2907 66.0772 91.0504 66.4347 91.7206 67.3042C93.3595 69.43 91.0501 72.1908 90.9528 72.3051C90.6141 72.6987 90.6357 73.2865 91.0025 73.654C91.0199 73.6715 92.7396 75.511 92.3114 79.2246C91.8257 83.4351 91.1489 87.224 91.1422 87.2619C91.1076 87.454 91.1306 87.6519 91.208 87.8312L92.6944 91.271L91.5665 98.0819L90.2324 100.014H89.9401C90.2186 99.5437 90.4919 98.9729 90.7197 98.2895C91.0253 97.3727 91.7827 92.1319 91.9315 91.0904C91.9915 90.6704 91.7777 90.2584 91.3997 90.0655C91.3751 90.0527 88.8996 88.7802 86.4228 86.7772C84.2307 85.0045 81.5802 82.2815 81.4013 79.3749C81.3675 78.8275 80.9004 78.4095 80.3492 78.4448C79.8018 78.4784 79.3854 78.9495 79.4192 79.4969C79.4886 80.6245 79.8256 81.7098 80.3412 82.7375C75.4632 85.9856 70.3017 84.7319 70.2503 84.7188C69.9757 84.6477 69.6842 84.6973 69.4486 84.8552C69.2131 85.0131 69.0563 85.264 69.0177 85.5447L67.371 97.5053L65.9074 100.014H63.5456C63.9757 99.4425 64.5942 98.7458 65.2302 98.1423C65.4441 97.9396 65.5568 97.6523 65.5381 97.3582L65.2532 92.9049C65.2181 92.3578 64.7476 91.9434 64.1987 91.9774C63.6516 92.0124 63.2361 92.4845 63.2712 93.0319L63.5269 97.0282C62.7983 97.7518 61.7169 98.9359 61.2316 100.014H59.4239C60.0439 99.0602 60.8347 98.0668 61.1988 97.637C61.3807 97.4222 61.4631 97.1401 61.4251 96.8613L59.3747 81.7776C60.9527 84.1582 62.36 86.0136 62.8642 86.6658L63.094 90.2591C63.1276 90.7848 63.5645 91.1886 64.0839 91.1886C64.1052 91.1886 64.1266 91.1879 64.1482 91.1865C64.6954 91.1515 65.1108 90.6794 65.0758 90.132L64.8263 86.2333C64.8134 86.0322 64.7395 85.8397 64.6147 85.6815C64.5757 85.6319 60.6718 80.6664 57.9758 75.6117C56.9339 73.6583 56.613 69.8655 57.0483 64.6434C57.3135 61.4603 57.7921 58.6344 57.9872 57.5582C58.3214 57.3716 58.7947 57.0837 59.2787 56.7093C60.5613 55.7174 61.2791 54.6365 61.4123 53.4967C61.5698 52.1465 60.9056 50.8743 59.4377 49.7154C59.3548 49.6499 59.2618 49.598 59.1625 49.5618C59.021 49.5101 58.3519 49.2774 57.4917 49.155C57.9321 49.1237 58.5904 49.1108 59.2853 49.2161C59.2894 49.2168 59.2934 49.2174 59.2975 49.2181C59.7046 49.2805 60.1233 49.3829 60.5167 49.5475C61.5875 49.995 62.1718 50.7851 62.3026 51.9628C62.3084 52.014 62.3181 52.065 62.3316 52.1148C62.3428 52.1558 63.4568 56.2964 63.8844 62.5633C63.9202 63.0875 64.3565 63.4887 64.8741 63.4887C64.8967 63.4887 64.9197 63.4879 64.9426 63.4864C65.4898 63.449 65.903 62.9753 65.8657 62.4282C65.4504 56.3383 64.4285 52.2783 64.2673 51.6661C64.1244 50.5113 63.6861 49.6157 63.0564 48.9374C64.0429 47.983 65.3843 46.393 65.2116 44.9326C65.1449 44.3692 64.8386 43.5908 63.7574 43.0833C63.0141 42.7344 62.2433 42.7295 61.5279 43.0696C61.4136 43.1238 61.3011 43.1871 61.1904 43.2591C60.7505 42.4069 60.0377 42.143 59.739 42.0679C58.5574 41.7709 57.1836 42.4791 56.6763 43.6463C56.2311 44.6706 56.23 46.3579 56.2816 47.3961C55.0648 47.8512 54.3475 48.9034 54.0159 49.7412C53.5776 49.9375 53.0385 50.0945 52.5115 50.2467C51.186 50.6295 49.8153 51.0253 49.4835 52.2696C49.1367 53.5695 49.2451 54.6124 49.8056 55.3696C50.6653 56.5308 52.2178 56.5864 53.2452 56.623C53.3707 56.6275 53.4914 56.6318 53.5963 56.6379L55.9724 57.538C55.7456 58.8234 55.3214 61.4582 55.0705 64.4596C54.5944 70.1534 54.9824 74.2201 56.2233 76.5467C56.4114 76.8996 56.6051 77.2508 56.8019 77.5998L59.3985 96.6977C58.7709 97.4699 57.353 99.2967 56.8329 100.651C56.7157 100.957 56.7564 101.3 56.9416 101.57C57.1269 101.839 57.433 102 57.76 102H61.9726H66.4776C66.8306 102 67.1572 101.812 67.3354 101.507L69.1851 98.3364C69.2505 98.2242 69.2932 98.1001 69.3109 97.9714L70.8435 86.8398C72.0817 87.0033 74.2482 87.1155 76.7364 86.4851C77.2758 87.9481 78.5512 90.7599 80.7971 92.2229L80.1815 98.3794C79.2362 99.0885 78.2332 100.017 78.0955 100.844C78.0475 101.132 78.1286 101.426 78.3173 101.649C78.5059 101.871 78.7831 102 79.075 102H83.2963C83.7251 102 84.1055 101.724 84.2396 101.317L87.8699 90.2836C88.6903 90.8197 89.3926 91.2301 89.8662 91.4947C89.5061 93.9623 89.0016 97.1623 88.8352 97.6615C88.2388 99.4506 87.2828 100.17 87.2521 100.193C86.8968 100.441 86.7439 100.892 86.8741 101.305C87.0043 101.718 87.3876 102 87.8211 102H90.753C91.0792 102 91.3848 101.839 91.5701 101.571L93.3265 99.0278C93.4096 98.9074 93.4652 98.7701 93.4891 98.6257L94.7009 91.3074C94.7323 91.1195 94.7087 90.9263 94.6331 90.7514ZM61.3822 45.9948C61.3992 45.9686 61.415 45.9416 61.4295 45.9136C61.7245 45.4146 62.0516 45.0189 62.3811 44.8627C62.5088 44.8022 62.6616 44.7623 62.9136 44.8807C63.1188 44.977 63.2285 45.0728 63.2397 45.1654C63.292 45.6062 62.5611 46.7236 61.3924 47.7767C61.1672 47.6768 60.9347 47.5889 60.6955 47.5143C60.8823 46.9958 61.1183 46.4562 61.3822 45.9948ZM58.498 44.4376C58.626 44.1429 59.0333 43.9375 59.2553 43.9936C59.4411 44.0404 59.598 44.4561 59.5704 45.1695C59.4307 45.4252 59.2959 45.7006 59.1664 45.9968C58.98 46.4232 58.8314 46.8301 58.7197 47.1649C58.5661 47.1557 58.4123 47.1509 58.2584 47.1488C58.219 46.1427 58.2653 44.9728 58.498 44.4376ZM54.1646 54.729C54.08 54.6971 53.9914 54.6768 53.9013 54.6687C53.7207 54.6525 53.5242 54.6455 53.3164 54.6381C52.6698 54.615 51.6926 54.5801 51.4022 54.1879C51.2266 53.9508 51.2247 53.4599 51.3967 52.8045C51.5767 52.5838 52.5048 52.3158 53.0628 52.1545C53.8008 51.9414 54.5616 51.7197 55.2238 51.3571C55.2694 51.3373 55.3133 51.314 55.3553 51.2876C56.1726 50.8426 57.685 51.1735 58.3365 51.3791C59.1364 52.0431 59.5076 52.6769 59.4401 53.2644C59.3176 54.3301 57.8692 55.3494 57.0362 55.817L54.1646 54.729ZM82.578 100.014H81.318C81.4436 99.9165 81.5717 99.8214 81.6984 99.7317C81.9334 99.5657 82.085 99.3057 82.1137 99.0194L82.8373 91.7829C82.8783 91.3729 82.6619 90.9801 82.2934 90.7959C80.3272 89.8127 79.1355 87.2203 78.6293 85.871C79.5338 85.5107 80.4585 85.0424 81.3793 84.4337C82.7085 86.274 84.5143 87.8662 86.1697 89.0981L82.578 100.014Z" fill="black"/>
<path d="M56.3747 51.6333C55.7422 51.6333 55.2275 52.1471 55.2275 52.7785C55.2275 53.41 55.7421 53.9236 56.3747 53.9236C57.0072 53.9237 57.5218 53.4101 57.5218 52.7785C57.5217 52.1469 57.0072 51.6333 56.3747 51.6333Z" fill="black"/>
</g>
<defs>
<clipPath id="clip0_46342_1750">
<rect width="60" height="60" fill="white" transform="translate(42 42)"/>
</clipPath>
</defs>
</svg>
