<svg viewBox="0 0 144 144" fill="none" xmlns="http://www.w3.org/2000/svg">
<rect x="0.5" y="0.5" width="143" height="143" rx="71.5" fill="white"/>
<rect x="0.5" y="0.5" width="143" height="143" rx="71.5" stroke="black"/>
<path d="M49.3352 77.5465H47.052V73.6413H49.1756C50.1163 73.6413 50.7557 73.758 51.1588 73.9277L51.1732 73.9338L51.1879 73.9394C51.6301 74.1095 51.8338 74.3098 51.9326 74.4826L51.9392 74.4941L51.9461 74.5054C52.0951 74.751 52.1885 75.0669 52.1885 75.4913C52.1885 76.1803 51.9847 76.6488 51.6377 76.9958C51.3669 77.2666 50.7108 77.5465 49.3352 77.5465ZM55.756 73.0616C55.3848 72.4429 54.8837 71.948 54.2669 71.5842C54.7367 71.1955 55.1091 70.7258 55.3679 70.1761C55.684 69.5215 55.8301 68.8009 55.8301 68.0356C55.8301 66.894 55.5571 65.8648 54.9111 65.0485C54.2902 64.2447 53.3908 63.7239 52.319 63.4249C51.2898 63.1336 50.0595 63 48.6512 63H44H43V64V80.2793V81.2793H44H49.7228C50.9888 81.2793 52.1301 81.0907 53.1183 80.6775L53.1183 80.6775L53.1264 80.674C54.1326 80.2428 54.9485 79.6017 55.5253 78.7364L55.5254 78.7364L55.5309 78.728C56.111 77.8384 56.3773 76.7967 56.3773 75.6509C56.3773 74.6832 56.1969 73.7964 55.756 73.0616ZM51.2165 67.1929L51.2284 67.2005L51.2406 67.2077C51.5091 67.3676 51.7097 67.6338 51.7097 68.2636C51.7097 68.9376 51.5212 69.2974 51.2797 69.5141C51.0521 69.703 50.4212 69.9312 49.0616 69.9312H47.052V66.7556H48.7424C50.0767 66.7556 50.841 66.9548 51.2165 67.1929ZM69.2943 81.2793H70.2943V80.2793V78.4781V77.4781H69.2943H63.249V73.6641H68.8839H69.8839V72.6641V70.8856V69.8856H68.8839H63.249V66.8012H69.2943H70.2943V65.8012V64V63H69.2943H60.197H59.197V64V80.2793V81.2793H60.197H69.2943ZM78.7259 70.8204H77.2862V66.7784H78.6119C79.4453 66.7784 80.0629 66.8715 80.4998 67.021C80.9097 67.1612 81.1311 67.3512 81.2591 67.5504L81.2658 67.5608L81.2728 67.5711C81.4132 67.7781 81.5335 68.1301 81.5335 68.7196C81.5335 69.2733 81.4228 69.6531 81.2656 69.9151L81.2592 69.9258L81.2531 69.9366C81.1205 70.1705 80.8967 70.3847 80.5056 70.556C80.104 70.7165 79.525 70.8204 78.7259 70.8204ZM82.8367 73.4249C83.067 73.2983 83.2916 73.1598 83.5104 73.0093L83.5157 73.0056C84.1527 72.5617 84.6631 71.9789 85.0503 71.2781C85.473 70.5133 85.6539 69.6128 85.6539 68.6284C85.6539 67.4602 85.4131 66.4054 84.8646 65.5237C84.306 64.626 83.4649 63.9918 82.4192 63.5931C81.3951 63.1819 80.1498 63 78.7259 63H74.2342H73.2342V64V80.2793V81.2793H74.2342H76.2862H77.2862V80.2793V74.5533H78.951L82.6057 80.7852L82.8955 81.2793H83.4683H85.8623H87.6475L86.7151 79.757L82.8367 73.4249ZM94.9384 81.2793H95.9384V80.2793V66.8012H100H101V65.8012V64V63H100H87.8019H86.8019V64V65.8012V66.8012H87.8019H91.8864V80.2793V81.2793H92.8864H94.9384Z" stroke="black" stroke-width="2"/>
</svg>
