<svg fill="none" height="20" viewBox="0 0 20 20" width="20" xmlns="http://www.w3.org/2000/svg"><g fill="#fff"><path d="m18.1759 10.7064-5.3898-7.21915c-.445-.59637-1.2892-.71886-1.8854-.27388-.5965.44573-.7194 1.28954-.2735 1.88567l1.5242 2.04134-.2622.19531-1.5243-2.04077c-.44441-.59598-1.28857-.71886-1.88532-.27388-.59636.44555-.71848 1.28973-.2735 1.88567l1.52414 2.04076-.26215.19587-1.52376-2.04114c-.44517-.59599-1.28916-.71887-1.88553-.27388-.59598.44517-.7179 1.28954-.27332 1.88552l1.52376 2.04136-.26178.1953-4.61927-6.18627c-.44573-.59599-1.28954-.71848-1.885525-.27351-.5968911.44555-.719053 1.28973-.273508 1.88567l6.805883 9.11571-5.33165 1.5112c-.71233.2141-1.119711.9658-.901888 1.677.310928 1.0168 1.295878 1.0252 1.676998.903 6.33306-2.0279 7.95272 2.5087 12.51172-.895l2.2292-1.6641c1.5254-1.1394 3.1065-3.3852.9166-6.3178z"/><path d="m.0127392 2.63264c.0037236.0134.0087503.02588.0135915.03835.0040961.01006.006889.02011.0117298.02998.0059579.0121.0135916.0229.0204804.03444.0055857.00913.0109851.01862.0173153.02756.0085647.01117.0186182.02141.0284868.03202.006888.00689.013033.0149.02048.0216.014151.01247.029045.0229.044871.03333.005027.00297.00875.00688.013964.01005.000558.00019.000745.00019.001117.00056.02588.01527.05418.02662.084155.03556.008751.00261.017874.00428.027183.00614.011172.00242.021597.00615.033141.00745l2.492666.30981c.01582.00187.03128.00298.04636.00298.1873 0 .34984-.13926.37311-.32992.02588-.20629-.12064-.39471-.32731-.42003l-1.40832-.17502c1.38635-.62244 4.20093-1.396973 7.34973.50976.06088.03705.1281.05437.19456.05437.12754 0 .25135-.06424.32266-.18153.10725-.178.05046-.40943-.12698-.51725-3.26681-1.977849-6.22534-1.30441-7.83018-.64031l.56677-.953466c.10594-.178924.04729-.409983-.13163-.516292-.17892-.1059419-.40998-.04747729-.51629.131261l-1.191212 2.006157c-.1014712.08006-.15081264.20146-.14168982.32266-.00111714.0162-.00204803.03259-.00111712.04878.0007448.0121.00372365.02346.00558558.03519.00316515.01192.00390978.02402.00707506.03575z"/></g></svg>