<svg width="19" height="20" viewBox="0 0 19 20" fill="none" xmlns="http://www.w3.org/2000/svg">
<path d="M11.3592 16.3751H6.68056C6.55413 16.3751 6.44873 16.4805 6.44873 16.607V18.2508C6.44873 18.3772 6.55413 18.4826 6.68056 18.4826H7.22847C7.37606 19.3467 8.11361 20 9.0199 20C9.92604 20 10.6637 19.3467 10.8113 18.4826H11.3592C11.4857 18.4826 11.5911 18.3772 11.5911 18.2508V16.607C11.6121 16.5015 11.5067 16.3751 11.3592 16.3751H11.3592Z" fill="white"/>
<path d="M9.01991 2.71857C9.35714 2.71857 9.631 2.44456 9.631 2.10748V0.611094C9.631 0.273863 9.35698 0 9.01991 0C8.68268 0 8.40881 0.274018 8.40881 0.611094V2.10748C8.40881 2.44471 8.68268 2.71857 9.01991 2.71857Z" fill="white"/>
<path d="M5.03667 3.32986C5.14208 3.5195 5.35273 3.6249 5.56354 3.6249C5.66895 3.6249 5.77435 3.60388 5.85858 3.54066C6.15362 3.37205 6.23785 2.99276 6.09041 2.71875L5.33172 1.41215C5.1631 1.11711 4.78381 1.03287 4.5098 1.18032C4.21476 1.34893 4.13053 1.72822 4.27797 2.00223L5.03667 3.32986Z" fill="white"/>
<path d="M3.32959 5.03692L2.02299 4.27822C1.72795 4.10961 1.36971 4.21501 1.20107 4.51005C1.03246 4.80509 1.13786 5.16333 1.4329 5.33197L2.7395 6.09066C2.84491 6.15388 2.92914 6.1749 3.03454 6.1749C3.24535 6.1749 3.456 6.06949 3.56141 5.87986C3.73003 5.5638 3.62463 5.20554 3.32958 5.03694L3.32959 5.03692Z" fill="white"/>
<path d="M2.71857 9.02003C2.71857 8.6828 2.44456 8.40894 2.10748 8.40894H0.611094C0.273863 8.40894 0 8.68295 0 9.02003C0 9.35726 0.274017 9.63112 0.611094 9.63112H2.10748C2.44471 9.63127 2.71857 9.35725 2.71857 9.02003Z" fill="white"/>
<path d="M2.71858 11.9495L1.43302 12.7082C1.13798 12.8768 1.05375 13.2561 1.20119 13.5301C1.30659 13.7197 1.51725 13.8251 1.72806 13.8251C1.83346 13.8251 1.93887 13.8041 2.0231 13.7409L3.3297 12.9822C3.62474 12.8136 3.70897 12.4343 3.56153 12.1603C3.39306 11.8863 3.01362 11.7809 2.71861 11.9495L2.71858 11.9495Z" fill="white"/>
<path d="M16.6069 12.7081L15.3003 11.9494C15.0053 11.7807 14.6471 11.8862 14.4784 12.1812C14.3098 12.4762 14.4152 12.8345 14.7102 13.0031L16.0168 13.7618C16.1223 13.825 16.2065 13.846 16.3119 13.846C16.5227 13.846 16.7333 13.7406 16.8388 13.551C17.0072 13.2349 16.902 12.8767 16.6069 12.7081L16.6069 12.7081Z" fill="white"/>
<path d="M17.4288 8.40881H15.9324C15.5952 8.40881 15.3213 8.68283 15.3213 9.01991C15.3213 9.35714 15.5953 9.631 15.9324 9.631H17.4288C17.766 9.631 18.0399 9.35698 18.0399 9.01991C18.0399 8.68268 17.7658 8.40881 17.4288 8.40881Z" fill="white"/>
<path d="M15.0052 6.17489C15.1106 6.17489 15.216 6.15387 15.3002 6.09066L16.6068 5.33196C16.9018 5.16335 16.9861 4.78406 16.8386 4.51005C16.67 4.21501 16.2907 4.13078 16.0167 4.27822L14.7101 5.03691C14.4151 5.20553 14.3308 5.58482 14.4783 5.85883C14.6047 6.04847 14.7945 6.17489 15.0052 6.17489L15.0052 6.17489Z" fill="white"/>
<path d="M12.1812 3.56164C12.2866 3.62486 12.3708 3.64588 12.4762 3.64588C12.6871 3.64588 12.8977 3.54048 13.0031 3.35084L13.7618 2.04424C13.9304 1.7492 13.825 1.39096 13.53 1.22232C13.2349 1.05369 12.8767 1.15911 12.7081 1.45415L11.9494 2.76075C11.7807 3.01361 11.8862 3.39303 12.1812 3.56163L12.1812 3.56164Z" fill="white"/>
<path d="M9.25169 3.87772C7.56567 3.79348 5.98506 4.531 4.91028 5.90097C4.34123 6.61748 3.98296 7.50262 3.89873 8.40891C3.75114 9.79989 4.13056 11.1275 4.97351 12.2024C5.5846 12.9821 6.02725 13.7408 6.28011 14.5207L6.38551 14.8367C6.4277 14.9843 6.57515 15.0896 6.72274 15.0896H11.317C11.4646 15.0896 11.6121 14.9842 11.6543 14.8367L11.7597 14.5207C12.0125 13.762 12.413 13.0243 13.0031 12.2656C13.4667 11.6755 13.825 11.001 14.0146 10.2635C14.8155 7.01794 12.3708 4.00432 9.25171 3.87787L9.25169 3.87772ZM8.3454 6.97571C8.3454 6.59644 8.66146 6.30124 9.01987 6.30124C9.39914 6.30124 9.69434 6.61731 9.69434 6.97571V9.96833C9.69434 10.3476 9.37828 10.6428 9.01987 10.6428C8.6406 10.6428 8.3454 10.3267 8.3454 9.96833V6.97571ZM9.01987 12.8134C8.61941 12.8134 8.30336 12.4974 8.30336 12.0969C8.30336 11.6965 8.61943 11.3804 9.01987 11.3804C9.42031 11.3804 9.73637 11.6965 9.73637 12.0969C9.73637 12.4972 9.42031 12.8134 9.01987 12.8134Z" fill="white"/>
</svg>
