<svg width="17" height="18" viewBox="0 0 17 18" fill="none" xmlns="http://www.w3.org/2000/svg">
<path d="M15.5172 3.51722H14.4827C14.1169 3.51722 13.7661 3.3719 13.5073 3.11328C13.2487 2.8545 13.1034 2.50366 13.1034 2.13791V1.10343C13.1034 0.82911 12.9944 0.565855 12.8004 0.371925C12.6065 0.177994 12.3432 0.0689697 12.0689 0.0689697H1.03446C0.760141 0.0689697 0.496886 0.177959 0.302955 0.371925C0.109024 0.565891 0 0.829145 0 1.10343V16.9655C0 17.2398 0.108989 17.503 0.302955 17.697C0.496921 17.8909 0.760176 17.9999 1.03446 17.9999H15.5172C15.7915 17.9999 16.0548 17.8909 16.2487 17.697C16.4426 17.503 16.5517 17.2398 16.5517 16.9655V4.5517C16.5517 4.27738 16.4427 4.01412 16.2487 3.82019C16.0547 3.62626 15.7915 3.51724 15.5172 3.51724L15.5172 3.51722ZM0.689614 1.44826H10.3448C10.5332 1.45103 10.6845 1.60466 10.6845 1.79308C10.6845 1.98151 10.5332 2.13514 10.3448 2.13791H0.689614C0.501193 2.13514 0.349867 1.98151 0.349867 1.79308C0.349867 1.60466 0.501189 1.45103 0.689614 1.44826ZM0.689614 3.51722C0.501808 3.51352 0.351562 3.3602 0.351562 3.17239C0.351562 2.98459 0.501808 2.83126 0.689614 2.82756H6.8965C7.08431 2.83126 7.23455 2.98459 7.23455 3.17239C7.23455 3.3602 7.08431 3.51352 6.8965 3.51722H0.689614ZM14.1347 8.3448H11.7209V13.1724C11.7188 13.1925 11.7148 13.2125 11.7089 13.2319C12.02 13.338 12.2622 13.5859 12.3607 13.8995C12.4594 14.213 12.4027 14.5548 12.2083 14.8198C12.0139 15.0848 11.7048 15.2413 11.3761 15.2413C11.0473 15.2413 10.7383 15.0848 10.5439 14.8197C10.3495 14.5548 10.2928 14.2129 10.3915 13.8993C10.49 13.5857 10.7322 13.338 11.0433 13.2319C11.0374 13.2125 11.0334 13.1925 11.0313 13.1724V8.3448H8.61749V13.1724C8.61533 13.1925 8.61133 13.2125 8.60548 13.2319C8.9166 13.338 9.15874 13.5859 9.25726 13.8995C9.35594 14.213 9.29929 14.5548 9.10486 14.8198C8.91043 15.0848 8.60134 15.2413 8.27267 15.2413C7.94385 15.2413 7.63488 15.0848 7.44047 14.8197C7.24604 14.5548 7.18939 14.2129 7.28807 13.8993C7.38659 13.5857 7.62874 13.338 7.93985 13.2319C7.934 13.2125 7.93 13.1925 7.92784 13.1724V8.3448H5.5096C5.5113 8.40098 5.49898 8.45656 5.47373 8.50674L3.20726 12.7692C3.19679 12.7867 3.18478 12.8032 3.17123 12.8186C3.39537 13.0589 3.49158 13.3914 3.43062 13.7143C3.36951 14.0371 3.15861 14.3115 2.86227 14.4535C2.56609 14.5954 2.21987 14.5879 1.93017 14.4332C1.6403 14.2785 1.44142 13.9951 1.39461 13.6699C1.34766 13.3448 1.45834 13.0168 1.69264 12.7865C1.92678 12.5562 2.25665 12.4512 2.58103 12.5035C2.58503 12.4837 2.59073 12.4641 2.59842 12.4452L4.77868 8.3447H2.4106C2.16661 8.34116 1.94262 8.20892 1.82164 7.99694C1.70064 7.78512 1.70064 7.52495 1.82164 7.313C1.94263 7.10118 2.16662 6.96895 2.4106 6.96541H14.1347C14.3787 6.9691 14.6025 7.10118 14.7235 7.31316C14.8444 7.52498 14.8444 7.78516 14.7235 7.99698C14.6025 8.20896 14.3787 8.34104 14.1347 8.34473L14.1347 8.3448Z" fill="white"/>
</svg>
