<svg width="18" height="20" viewBox="0 0 18 20" fill="none" xmlns="http://www.w3.org/2000/svg">
<path d="M3.19381 13.7193L0.412842 15.3397L3.19381 16.939V13.7193Z" fill="white"/>
<path d="M8.52274 9.79525V8.0552L7.33296 8.63208C7.21113 8.68291 6.9087 8.67615 6.83397 8.40282C6.78818 8.23562 6.88697 8.06166 7.04308 7.98604L8.52292 7.26844L8.52278 5.5674L5.45713 6.98041C5.25552 7.04982 4.99343 6.9624 4.96132 6.7353C4.93756 6.56811 5.01863 6.40336 5.172 6.3325L8.52295 4.78799V3.10354L7.33317 3.68042C7.19118 3.77014 6.89538 3.68273 6.83186 3.44209C6.78895 3.27994 6.88385 3.11173 7.03463 3.03874L8.5231 2.31697V0L0 4.901V14.7612L8.52274 9.79525Z" fill="white"/>
<path d="M9.23242 0.00753784V9.80105L17.7419 14.6873V4.90079L9.23242 0.00753784Z" fill="white"/>
<path d="M6.56482 11.7554V18.8776L8.51644 19.9998V10.6181L6.56482 11.7554Z" fill="white"/>
<path d="M5.85519 12.1691L3.90356 13.3062V17.3474L5.85519 18.4697V12.1691Z" fill="white"/>
<path d="M11.1776 11.7344L9.22595 10.6139V20L11.1776 18.8778V11.7344Z" fill="white"/>
<path d="M14.5485 13.6699V16.939L17.3931 15.3032L14.5485 13.6699Z" fill="white"/>
<path d="M13.8388 13.2625L11.8872 12.142V18.4697L13.8388 17.3475V13.2625Z" fill="white"/>
</svg>
