<svg width="20" height="20" viewBox="0 0 20 20" fill="none" xmlns="http://www.w3.org/2000/svg">
<path d="M19.9917 9.49721C19.99 9.45975 19.9866 9.42009 19.9846 9.38178C19.9799 9.29872 19.9753 9.21551 19.9682 9.12991C19.9644 9.08431 19.9588 9.03669 19.9543 8.99042C19.9465 8.90974 19.9385 8.82889 19.9285 8.74533C19.9227 8.69601 19.9148 8.64414 19.9083 8.59346C19.8992 8.52482 19.8899 8.45651 19.8792 8.38634L17.0583 7.55515L18.8564 5.21988C18.3947 4.33853 17.8195 3.54409 17.1452 2.85579L14.3624 3.84596L14.4431 0.899486C13.5709 0.46558 12.6361 0.163365 11.6637 0L9.99978 2.42783L8.33788 0.00151866C8.32161 0.00423057 8.30567 0.00728147 8.28974 0.010163C8.06669 0.0486383 7.84586 0.093386 7.62704 0.146266C7.6128 0.149825 7.59924 0.153554 7.585 0.157114C7.12841 0.269998 6.68244 0.414576 6.24888 0.589665C6.23651 0.59475 6.22379 0.599326 6.21142 0.604411C6.00481 0.688988 5.80159 0.781531 5.60126 0.880349C5.58635 0.887467 5.57143 0.894756 5.55652 0.901874L5.63771 3.84631L2.85785 2.85749C2.75921 2.958 2.66548 3.06376 2.57141 3.16885C2.50768 3.2397 2.44073 3.30749 2.37903 3.38038C2.25327 3.52902 2.13496 3.68428 2.01784 3.84053C1.95682 3.92206 1.89682 4.00409 1.83835 4.08749C1.72292 4.25173 1.60936 4.418 1.50292 4.59021C1.44868 4.67852 1.40037 4.77123 1.34851 4.86123C1.27986 4.98072 1.21003 5.09886 1.14579 5.22191L2.94159 7.55533L0.120172 8.38686C0.110511 8.45059 0.102375 8.51262 0.0939001 8.57466C0.0861033 8.63313 0.0774592 8.69313 0.0706794 8.75008C0.0613574 8.8272 0.054408 8.90178 0.0471197 8.9767C0.0418656 9.0289 0.0357635 9.08229 0.0313568 9.13331C0.024577 9.2145 0.0205091 9.29349 0.0155938 9.37247C0.0133903 9.4145 0.0094919 9.45772 0.00779707 9.49925C0.00254291 9.61841 0 9.73536 0 9.8501C0 9.96451 0.00271213 10.0815 0.00779707 10.2001C0.00949199 10.2421 0.0130511 10.2862 0.0155938 10.3288C0.0201702 10.4074 0.024238 10.4854 0.0310178 10.5662C0.0352551 10.6186 0.041696 10.673 0.0469506 10.7259C0.0540692 10.7996 0.060849 10.8727 0.0700018 10.9484C0.0771204 11.0076 0.0862731 11.07 0.0942391 11.1305C0.102375 11.1906 0.110172 11.2506 0.119494 11.3125L2.94075 12.144L1.14512 14.477C1.21681 14.6139 1.29393 14.7468 1.37139 14.8793C1.41495 14.9546 1.45495 15.0324 1.50054 15.1061C1.63122 15.3182 1.76852 15.5248 1.91309 15.725C1.92479 15.7412 1.93733 15.7562 1.94937 15.7726C2.087 15.9609 2.23039 16.1445 2.38022 16.3219C2.43717 16.3892 2.49887 16.4516 2.55734 16.5168C2.65582 16.6277 2.75395 16.7379 2.85752 16.8436L5.6372 15.8544L5.55618 18.7994C5.57161 18.8067 5.58703 18.8138 5.60228 18.8216C5.80195 18.9196 6.00415 19.0114 6.20975 19.096C6.22416 19.1013 6.23856 19.1069 6.25297 19.1128C6.46857 19.1999 6.68688 19.2804 6.90826 19.352C6.90876 19.352 6.90927 19.352 6.90995 19.3525C7.13097 19.4237 7.3547 19.4864 7.58064 19.5423C7.59657 19.5464 7.61233 19.5506 7.62827 19.5547C7.84437 19.607 8.06334 19.6511 8.28386 19.6891C8.30131 19.6921 8.31911 19.6954 8.33657 19.6984L9.33151 18.2465L9.99981 17.2704L11.6625 19.6977C11.6795 19.6952 11.6964 19.6919 11.7132 19.6889C11.9347 19.6509 12.1546 19.6064 12.3719 19.5535C12.3873 19.5499 12.4021 19.5457 12.4175 19.5421C12.6438 19.4857 12.8678 19.423 13.089 19.3518C13.0897 19.3513 13.0907 19.3513 13.0916 19.3508C13.3133 19.2791 13.5314 19.1984 13.7473 19.1116C13.7612 19.1063 13.7755 19.1008 13.7894 19.0953C13.9965 19.0102 14.2002 18.9179 14.4009 18.8189C14.4152 18.8121 14.4292 18.8055 14.4435 18.7987L14.3628 15.8538L17.1425 16.8429C17.2435 16.7397 17.3394 16.6314 17.436 16.5234C17.4965 16.4556 17.5606 16.3911 17.6196 16.3212C17.7674 16.1468 17.9084 15.9658 18.0443 15.7798C18.0632 15.7541 18.0823 15.729 18.1013 15.7027C18.2399 15.5093 18.3728 15.3112 18.4988 15.1066C18.5461 15.03 18.5881 14.949 18.6332 14.8707C18.7089 14.7405 18.7849 14.6107 18.8552 14.4761L17.0586 12.1432L19.8795 11.3116C19.8898 11.2425 19.899 11.1747 19.9081 11.1074C19.9149 11.056 19.923 11.0032 19.9292 10.9528C19.939 10.8698 19.9466 10.7901 19.9544 10.7096C19.9592 10.663 19.9647 10.6152 19.9686 10.5691C19.9758 10.4835 19.9805 10.4009 19.9851 10.3181C19.9871 10.2796 19.9903 10.2399 19.9922 10.202C19.9975 10.0823 20 9.965 20 9.84991C19.9995 9.73466 19.9968 9.61704 19.9917 9.49721ZM9.99975 13.3863C8.04974 13.3863 6.46325 11.7998 6.46325 9.84975C6.46325 7.89987 8.0497 6.31308 9.99975 6.31308C11.9498 6.31308 13.5363 7.89987 13.5363 9.84975C13.5363 11.7998 11.9498 13.3863 9.99975 13.3863Z" fill="white"/>
</svg>
