<svg width="20" height="13" viewBox="0 0 20 13" fill="none" xmlns="http://www.w3.org/2000/svg">
<path d="M18.571 0H1.42854C0.639987 0 0 0.639987 0 1.42854V11.4283C0 12.2169 0.639987 12.8569 1.42854 12.8569H6.11294C6.72725 12.8569 7.27426 12.464 7.46862 11.8797L8.64431 8.35126C9.07863 7.04834 10.9199 7.04834 11.3543 8.35126L12.5299 11.8797C12.7257 12.464 13.2713 12.8569 13.8871 12.8569H18.5715C19.36 12.8569 20 12.2169 20 11.4283V1.42854C20 0.639987 19.36 0 18.5715 0H18.571ZM4.9999 8.57125C3.81706 8.57125 2.85708 7.61127 2.85708 6.42844C2.85708 5.24561 3.81706 4.28563 4.9999 4.28563C6.18273 4.28563 7.14271 5.24561 7.14271 6.42844C7.14271 7.61127 6.18273 8.57125 4.9999 8.57125ZM14.9997 8.57125C13.8169 8.57125 12.8569 7.61127 12.8569 6.42844C12.8569 5.24561 13.8169 4.28563 14.9997 4.28563C16.1825 4.28563 17.1425 5.24561 17.1425 6.42844C17.1425 7.61127 16.1825 8.57125 14.9997 8.57125Z" fill="white"/>
</svg>
