<svg xmlns="http://www.w3.org/2000/svg" width="60" height="60" viewBox="0 0 48 48" fill="none">
    <g clip-path="url(#clip0_11365_56052)">
        <path d="M36.7997 19.2H43.9997C44.4413 19.2 44.7997 19.5584 44.7997 20V21.6C44.7997 22.0416 44.4413 22.4 43.9997 22.4H41.5997C41.5997 22.4 45.5997 28.8 45.5997 35.2C45.5997 41.6 44.7997 44 43.9997 47.2H36.7997C36.3581 47.2 35.9997 46.8416 35.9997 46.4V44.8C35.9997 44.3584 36.3581 44 36.7997 44H41.5845C42.0373 41.9048 42.3997 39.328 42.3997 35.2C42.3997 31.6312 40.6245 27.7248 39.4741 25.6032L29.7885 25.6C29.1829 25.6 28.6285 25.2576 28.3581 24.7152L27.1997 22.4" stroke="white" stroke-width="2" stroke-miterlimit="10"/>
        <path d="M33.5975 22.4H23.1999C22.7583 22.4 22.3999 22.0416 22.3999 21.6V20C22.3999 19.5584 22.7583 19.2 23.1999 19.2H38.3983" stroke="white" stroke-width="2" stroke-miterlimit="10"/>
        <path d="M32 19.2H30.4C29.0744 19.2 28 18.1256 28 16.8V12C28 11.5584 28.3584 11.2 28.8 11.2H33.6C34.0416 11.2 34.4 11.5584 34.4 12V16.8C34.4 18.1256 33.3256 19.2 32 19.2Z" stroke="white" stroke-width="2" stroke-miterlimit="10"/>
        <path d="M27.9998 16H25.5998C25.1582 16 24.7998 15.6416 24.7998 15.2V13.6C24.7998 13.1584 25.1582 12.8 25.5998 12.8H27.9998" stroke="white" stroke-width="2" stroke-miterlimit="10"/>
        <path d="M32.3997 8.35044C32.3997 8.35044 31.1997 6.95044 31.1997 4.80004C31.1997 4.00004 31.7269 2.77844 31.7269 2.77844" stroke="white" stroke-width="2" stroke-miterlimit="10"/>
        <path d="M28.3997 8.3504C28.3997 8.3504 27.1997 6.9504 27.1997 4.8C27.1997 3.2 28.7997 1.6 28.7997 0" stroke="white" stroke-width="2" stroke-miterlimit="10"/>
        <path d="M7.1999 47.2C6.7583 47.2 6.3999 46.8416 6.3999 46.4C6.3999 46.3272 6.4095 46.2568 6.4279 46.1896L8.5519 38.4C5.5999 38.4 2.3999 32.3112 2.3999 24.8C2.3999 15.3152 5.5999 11.2 10.3999 11.2C12.7999 11.2 12.7999 13.6 12.7999 14.4C12.7999 17.3752 11.1999 19.3568 11.1999 24C11.1999 24.884 11.1999 28.8 14.3999 28.8H20.8239C22.1359 28.8 23.1999 29.864 23.1999 31.176V33.6H27.9999V36.8C27.9999 37.684 27.2839 38.4 26.3999 38.4H11.8111L9.5719 46.6104C9.4791 46.9504 9.1687 47.2 8.7999 47.2H7.1999Z" stroke="white" stroke-width="2" stroke-miterlimit="10"/>
        <path d="M23.3892 38.4L25.6284 46.6104C25.7212 46.9504 26.0316 47.2 26.4004 47.2H28.0004C28.442 47.2 28.8004 46.8416 28.8004 46.4C28.8004 46.3272 28.7908 46.2568 28.7724 46.1896L26.6484 38.4" stroke="white" stroke-width="2" stroke-miterlimit="10"/>
        <path d="M24.7998 28.8H25.5998H25.6238C26.9358 28.8 27.9998 29.864 27.9998 31.176V33.6" stroke="white" stroke-width="2" stroke-miterlimit="10"/>
    </g>
    <defs>
        <clipPath id="clip0_11365_56052">
            <rect width="48" height="48" fill="white"/>
        </clipPath>
    </defs>
</svg>