<svg xmlns="http://www.w3.org/2000/svg" width="60" height="60" viewBox="0 0 48 48" fill="none">
    <path d="M33.9266 15.6736L41.0346 8.5656C41.397 8.2032 41.8882 8 42.4002 8C42.9122 8 43.4034 8.2032 43.7658 8.5656L45.0346 9.8344C45.397 10.1968 45.6002 10.688 45.6002 11.2C45.6002 11.712 45.397 12.2032 45.0346 12.5656L23.7658 33.8344C23.4034 34.1968 22.9122 34.4 22.4002 34.4C21.8882 34.4 21.397 34.1968 21.0346 33.8344L11.7658 24.5656C11.4034 24.2032 11.2002 23.712 11.2002 23.2C11.2002 22.688 11.4034 22.1968 11.7658 21.8344L13.0346 20.5656C13.397 20.2032 13.8882 20 14.4002 20C14.9122 20 15.4034 20.2032 15.7658 20.5656L22.4002 27.2L30.0826 19.5176" stroke="white" stroke-width="2" stroke-miterlimit="10"/>
    <path d="M39.2008 6.82318C38.3512 6.06238 37.2296 5.59998 36 5.59998H8.8C6.1488 5.59998 4 7.74878 4 10.4V37.6C4 40.2512 6.1488 42.4 8.8 42.4H36C38.6512 42.4 40.8 40.2512 40.8 37.6V20" stroke="white" stroke-width="2" stroke-miterlimit="10"/>
    <path d="M15.9999 8H14.3999V9.6H15.9999V8Z" fill="white"/>
    <path d="M12.8002 8H11.2002V9.6H12.8002V8Z" fill="white"/>
    <path d="M9.6 8H8V9.6H9.6V8Z" fill="white"/>
</svg>