<svg width="42" height="42" viewBox="0 0 42 42" fill="none" xmlns="http://www.w3.org/2000/svg">
<path d="M24.9638 2.84727C24.9638 9.05102 28.2345 12.1695 31.052 15.134C33.747 17.969 36.3125 20.6693 36.3125 25.8125C36.3125 34.2335 29.7448 40.25 21.3238 40.25C12.901 40.25 5.6875 34.2633 5.6875 25.8125C5.6875 22.2443 7.371 18.7933 10.0782 17.2393C10.612 16.933 11.2542 17.2515 11.4835 17.8238C13.2352 22.197 15.3948 22.12 16.5148 21C17.1938 20.3228 17.3372 19.047 16.5077 17.3915C12.299 8.97052 19.768 2.90327 23.8577 1.89702C24.4458 1.75352 24.934 2.24352 24.9638 2.84727ZM21.3238 37.625C28.427 37.625 33.6875 32.655 33.6875 25.8125C33.6875 21.7228 31.7748 19.7068 29.001 16.786L28.9643 16.7458C26.4443 14.091 23.471 10.8815 22.5785 5.27102C21.2571 6.04774 20.1169 7.09785 19.2343 8.35102C17.857 10.353 17.227 12.9588 18.8562 16.2173C19.9115 18.326 20.216 21.0123 18.3715 22.8568C17.2218 24.0065 15.288 24.7818 13.1985 23.8823C11.8825 23.3153 10.8307 22.211 9.982 20.7498C8.98975 21.9853 8.3125 23.7948 8.3125 25.8125C8.3125 32.5448 14.0665 37.625 21.3238 37.625Z" fill="white"/>
</svg>
