<svg xmlns="http://www.w3.org/2000/svg" width="60" height="60" viewBox="0 0 48 48" fill="none">
    <g clip-path="url(#clip0_11365_55960)">
        <path d="M17.6001 47.2001H32.0001" stroke="white" stroke-width="2" stroke-miterlimit="10"/>
        <path d="M43.1999 19.2C43.1999 9.03765 34.9623 0.800049 24.7999 0.800049C14.6375 0.800049 6.3999 9.03765 6.3999 19.2C6.3999 27.7496 12.2319 34.936 20.1343 37.0016L24.7999 43.7369L29.4655 37.0016C37.3679 34.936 43.1999 27.7496 43.1999 19.2V19.2Z" stroke="white" stroke-width="2" stroke-miterlimit="10"/>
        <path d="M35.0021 26.9313C36.6325 24.7833 37.5997 22.1049 37.5997 19.2001C37.5997 12.4265 32.3389 6.88169 25.6797 6.42969" stroke="white" stroke-width="2" stroke-miterlimit="10"/>
        <path d="M16.2544 28.7305C18.5208 30.7633 21.516 32.0001 24.8 32.0001C28.0808 32.0001 31.0736 30.7657 33.3392 28.7361" stroke="white" stroke-width="2" stroke-miterlimit="10"/>
        <path d="M23.9104 6.43042C17.256 6.88722 12 12.4296 12 19.2C12 22.1048 12.9672 24.7832 14.5976 26.9312" stroke="white" stroke-width="2" stroke-miterlimit="10"/>
    </g>
    <defs>
        <clipPath id="clip0_11365_55960">
            <rect width="48" height="48" fill="white"/>
        </clipPath>
    </defs>
</svg>