<svg xmlns="http://www.w3.org/2000/svg" width="60" height="60" viewBox="0 0 48 48" fill="none">
    <g clip-path="url(#clip0_11365_56040)">
        <path d="M30.2339 40.2104C31.4507 38.9936 32.8883 38.02 34.4691 37.3424L37.6027 35.9992C39.1843 35.3216 40.6211 34.348 41.8379 33.132C42.8659 32.104 43.7211 30.9176 44.3715 29.6168L45.5995 27.2L34.2739 15.8704L33.0579 18.3032C32.4075 19.6032 31.5523 20.7904 30.5243 21.8184C29.3075 23.0352 27.8707 24.008 26.2891 24.6856L23.1555 26.0288C21.5739 26.7064 20.1371 27.68 18.9203 28.896C17.8923 29.924 17.0363 31.1112 16.3867 32.4112L15.0107 35.0112L26.3995 46.4L27.7011 43.7256C28.3507 42.4248 29.2067 41.2384 30.2339 40.2104V40.2104Z" stroke="white" stroke-width="2" stroke-miterlimit="10"/>
        <path d="M38.3998 24H36.7998V25.6H38.3998V24Z" fill="white"/>
        <path d="M23.9999 36.8H22.3999V38.4H23.9999V36.8Z" fill="white"/>
        <path d="M30.3997 34.4C32.167 34.4 33.5997 32.9673 33.5997 31.2C33.5997 29.4327 32.167 28 30.3997 28C28.6324 28 27.1997 29.4327 27.1997 31.2C27.1997 32.9673 28.6324 34.4 30.3997 34.4Z" stroke="white" stroke-width="2" stroke-miterlimit="10"/>
        <path d="M28.7063 18.8304C27.7863 17.6096 26.5959 16.3904 25.5055 15.1792C25.0647 14.6888 24.7999 14.0568 24.7999 13.3976C24.7999 12.8712 24.9487 12.364 25.2271 11.9224L27.0079 9.10322C27.1335 8.90482 27.1999 8.67522 27.1999 8.44082C27.1999 7.75522 26.6447 7.20002 25.9591 7.20002C25.2119 7.20002 24.4719 7.33842 23.7727 7.60242C23.1823 7.82482 22.5543 8.00002 21.5999 8.00002C19.3695 8.00002 18.3999 7.38322 18.3999 6.40002C18.3999 5.00002 19.9999 5.13362 19.9999 4.00002C19.9999 3.15282 19.1543 2.40002 17.5999 2.40002C15.5863 2.40002 13.1583 3.34882 11.5519 4.10082C10.8463 4.43042 10.3999 5.13922 10.3999 5.91842C10.3999 6.23522 10.4751 6.54722 10.6183 6.82882L13.3167 12.1336C13.5023 12.4984 13.5999 12.9008 13.5999 13.3096C13.6007 13.8848 13.4087 14.4432 13.0575 14.8984C7.6831 21.8608 2.3999 29.1288 2.3999 35.2C2.3999 40.06 5.9815 44 10.3999 44H19.9999" stroke="white" stroke-width="2" stroke-miterlimit="10"/>
        <path d="M16 13.6H24.8088" stroke="white" stroke-width="2" stroke-miterlimit="10"/>
        <path d="M19.2001 13.6C18.2625 14.6872 17.1337 16.7936 16.5737 18.2208" stroke="white" stroke-width="2" stroke-miterlimit="10"/>
    </g>
    <defs>
        <clipPath id="clip0_11365_56040">
            <rect width="48" height="48" fill="white"/>
        </clipPath>
    </defs>
</svg>