<svg xmlns="http://www.w3.org/2000/svg" width="60" height="60" viewBox="0 0 48 48" fill="none">
    <path d="M11.2001 36.8V40.4C11.2001 41.9464 9.9465 43.2 8.4001 43.2C6.8537 43.2 5.6001 41.9464 5.6001 40.4V39.2" stroke="white" stroke-width="2" stroke-miterlimit="10"/>
    <path d="M27.5997 15.2001L13.5997 15.2001C12.2741 15.2001 11.1997 16.2745 11.1997 17.6001V32.8001" stroke="white" stroke-width="2" stroke-miterlimit="10"/>
    <path d="M43.9997 24.8001V17.6001C43.9997 16.2745 42.9253 15.2001 41.5997 15.2001H27.1997" stroke="white" stroke-width="2" stroke-miterlimit="10"/>
    <path d="M28.7999 43.2001H8.3999" stroke="white" stroke-width="2" stroke-miterlimit="10"/>
    <path d="M41.5999 15.2V12H7.9999L2.3999 17.6V39.2H8.7999" stroke="white" stroke-width="2" stroke-miterlimit="10"/>
    <path d="M7.9999 12V17.6H2.3999" stroke="white" stroke-width="2" stroke-miterlimit="10"/>
    <path d="M39.2001 12V10.4C39.2001 9.0744 38.1257 8 36.8001 8H33.6001" stroke="white" stroke-width="2" stroke-miterlimit="10"/>
    <path d="M5.6001 10.4V7.20005C5.6001 5.87445 6.6745 4.80005 8.0001 4.80005H16.6057C17.2425 4.80005 17.8529 5.05285 18.3025 5.50325L20.0969 7.29765C20.5473 7.74725 21.1577 8.00005 21.7945 8.00005H28.8001" stroke="white" stroke-width="2" stroke-miterlimit="10"/>
    <path d="M46.4001 28C41.6785 28 38.4001 23.9248 36.0001 20.4C33.4249 23.9504 30.3217 28 25.6001 28C25.6001 37.2784 32.8001 44.8 36.0001 44.8C39.2001 44.8 46.4001 37.2784 46.4001 28Z" stroke="white" stroke-width="2" stroke-miterlimit="10"/>
    <path d="M41.6 31.2001L35.7161 37.6001L32 33.558" stroke="white" stroke-width="2" stroke-miterlimit="10"/>
</svg>