<svg width="18" height="18" viewBox="0 0 18 18" fill="none" xmlns="http://www.w3.org/2000/svg">
<g clip-path="url(#clip0_46481_39355)">
<path fill-rule="evenodd" clip-rule="evenodd" d="M12.3236 10.2242C13.5628 9.23734 14.4081 8.22618 14.7766 6.96308C15.3679 7.98103 15.7292 9.24522 15.7537 10.6201C15.9209 20.0296 2.08906 19.4799 2.24645 10.6201C2.27088 9.24522 2.63225 7.98103 3.22344 6.96312C3.51324 7.95621 4.09774 8.94565 4.93664 9.80293C4.93664 5.62497 9.1182 4.99219 8.1957 0.527344C12.7393 2.84766 13.2965 6.67965 12.3236 10.2242Z" stroke="black" stroke-width="1.2" stroke-miterlimit="22.9256" stroke-linecap="round" stroke-linejoin="round"/>
<path fill-rule="evenodd" clip-rule="evenodd" d="M8.89803 17.4661C8.64118 17.4574 8.3845 17.4358 8.12948 17.4015C7.05222 17.2562 6.20401 16.5725 5.83318 15.5507C5.46235 14.5288 5.67477 13.4603 6.4082 12.6579C7.54037 11.4194 8.59766 9.93852 8.61696 7.05859C10.0595 9.43853 11.3346 11.6929 11.7915 14.0859C11.9594 14.9653 11.7399 15.7917 11.1577 16.4718C10.5754 17.152 9.79283 17.4963 8.89803 17.4661Z" stroke="black" stroke-width="1.2" stroke-miterlimit="22.9256" stroke-linecap="round" stroke-linejoin="round"/>
</g>
<defs>
<clipPath id="clip0_46481_39355">
<rect width="18" height="18" fill="white"/>
</clipPath>
</defs>
</svg>
