<svg viewBox="0 0 348 348" fill="none" xmlns="http://www.w3.org/2000/svg">
<path fill-rule="evenodd" clip-rule="evenodd" d="M198.083 188.548C198.083 201.846 187.303 212.626 174.004 212.626C160.706 212.626 149.926 201.846 149.926 188.548C149.926 175.249 160.706 164.469 174.004 164.469C187.303 164.469 198.083 175.249 198.083 188.548ZM174.004 172.495L177.608 183.587H189.271L179.836 190.442L183.439 201.534L174.004 194.679L164.569 201.534L168.173 190.442L158.738 183.587H170.401L174.004 172.495Z" fill="white"/>
<path fill-rule="evenodd" clip-rule="evenodd" d="M279.349 21H68.66V261.787L174.004 327L279.349 261.787V21ZM74.6797 53.1049H273.329V176.508H209.119L219.152 188.548L209.119 200.587H273.329V258.434L174.004 319.92L74.6797 258.434V200.587H138.89L128.857 188.548L138.89 176.508H74.6797V53.1049ZM92.5339 186.067L90.7321 180.521L88.9303 186.067H83.0988L87.8164 189.495L86.0146 195.041L90.7321 191.613L95.4497 195.041L93.6479 189.495L98.3655 186.067H92.5339ZM112.804 180.521L114.606 186.067H120.438L115.72 189.495L117.522 195.041L112.804 191.613L108.087 195.041L109.888 189.495L105.171 186.067H111.002L112.804 180.521ZM235.204 180.521L237.006 186.067H242.838L238.12 189.495L239.922 195.041L235.204 191.613L230.487 195.041L232.288 189.495L227.571 186.067H233.402L235.204 180.521ZM259.078 186.067L257.276 180.521L255.475 186.067H249.643L254.361 189.495L252.559 195.041L257.276 191.613L261.994 195.041L260.192 189.495L264.91 186.067H259.078Z" fill="white"/>
<path d="M125.39 116.562C125.39 116.129 125.339 115.747 125.238 115.416C125.136 115.076 124.957 114.77 124.703 114.499C124.448 114.227 124.091 113.968 123.633 113.722C123.174 113.475 122.593 113.225 121.888 112.97C121.124 112.698 120.431 112.397 119.812 112.066C119.192 111.726 118.661 111.34 118.22 110.907C117.786 110.474 117.451 109.977 117.213 109.417C116.976 108.856 116.857 108.215 116.857 107.493C116.857 106.772 116.98 106.105 117.226 105.494C117.481 104.882 117.837 104.352 118.296 103.901C118.763 103.443 119.323 103.086 119.977 102.832C120.631 102.577 121.361 102.449 122.168 102.449C123.374 102.449 124.388 102.717 125.212 103.252C126.044 103.778 126.673 104.47 127.097 105.328C127.522 106.177 127.734 107.086 127.734 108.054H125.39C125.39 107.357 125.276 106.742 125.047 106.207C124.826 105.663 124.478 105.239 124.002 104.933C123.535 104.619 122.924 104.462 122.168 104.462C121.489 104.462 120.928 104.594 120.487 104.857C120.054 105.12 119.731 105.477 119.519 105.927C119.315 106.377 119.213 106.89 119.213 107.468C119.213 107.858 119.281 108.215 119.417 108.538C119.553 108.852 119.761 109.145 120.041 109.417C120.33 109.688 120.686 109.939 121.111 110.168C121.544 110.397 122.053 110.618 122.639 110.83C123.548 111.128 124.325 111.459 124.97 111.824C125.615 112.189 126.142 112.601 126.549 113.059C126.957 113.509 127.254 114.023 127.441 114.601C127.636 115.169 127.734 115.815 127.734 116.537C127.734 117.292 127.607 117.976 127.352 118.587C127.106 119.199 126.745 119.721 126.269 120.154C125.794 120.587 125.221 120.922 124.55 121.16C123.879 121.389 123.123 121.504 122.283 121.504C121.552 121.504 120.835 121.385 120.13 121.147C119.434 120.91 118.801 120.553 118.232 120.077C117.663 119.602 117.209 119.016 116.869 118.32C116.53 117.615 116.36 116.8 116.36 115.874H118.704C118.704 116.511 118.797 117.059 118.984 117.517C119.171 117.967 119.43 118.341 119.761 118.638C120.092 118.935 120.47 119.156 120.894 119.3C121.327 119.436 121.79 119.504 122.283 119.504C122.962 119.504 123.531 119.385 123.989 119.148C124.456 118.91 124.805 118.57 125.034 118.129C125.272 117.687 125.39 117.165 125.39 116.562Z" fill="white"/>
<path d="M142.865 110.372V113.594C142.865 114.902 142.721 116.053 142.432 117.046C142.152 118.031 141.74 118.855 141.197 119.517C140.653 120.179 140 120.676 139.235 121.007C138.471 121.338 137.609 121.504 136.65 121.504C135.724 121.504 134.879 121.338 134.115 121.007C133.351 120.676 132.693 120.179 132.141 119.517C131.589 118.855 131.16 118.031 130.855 117.046C130.557 116.053 130.409 114.902 130.409 113.594V110.372C130.409 109.064 130.557 107.918 130.855 106.933C131.152 105.939 131.576 105.111 132.128 104.449C132.68 103.787 133.338 103.29 134.102 102.959C134.867 102.619 135.712 102.449 136.637 102.449C137.597 102.449 138.458 102.619 139.223 102.959C139.995 103.29 140.649 103.787 141.184 104.449C141.728 105.111 142.144 105.939 142.432 106.933C142.721 107.918 142.865 109.064 142.865 110.372ZM140.547 113.594V110.346C140.547 109.327 140.462 108.453 140.293 107.723C140.123 106.984 139.872 106.381 139.541 105.914C139.21 105.447 138.802 105.103 138.318 104.882C137.834 104.653 137.274 104.538 136.637 104.538C136.034 104.538 135.491 104.653 135.007 104.882C134.531 105.103 134.124 105.447 133.784 105.914C133.444 106.381 133.181 106.984 132.994 107.723C132.816 108.453 132.727 109.327 132.727 110.346V113.594C132.727 114.622 132.816 115.505 132.994 116.244C133.181 116.974 133.444 117.577 133.784 118.052C134.132 118.519 134.548 118.867 135.032 119.097C135.516 119.317 136.055 119.428 136.65 119.428C137.287 119.428 137.847 119.317 138.331 119.097C138.824 118.867 139.231 118.519 139.554 118.052C139.885 117.577 140.131 116.974 140.293 116.244C140.462 115.505 140.547 114.622 140.547 113.594Z" fill="white"/>
<path d="M148.839 102.704V121.249H146.496V102.704H148.839ZM155.093 111.047V113.059H148.393V111.047H155.093ZM156.15 102.704V104.717H148.393V102.704H156.15Z" fill="white"/>
<path d="M165.27 102.704V121.249H162.952V102.704H165.27ZM170.148 102.704V104.717H158.086V102.704H170.148Z" fill="white"/>
<path d="M177.255 115.645L180.223 102.704H181.891L181.013 107.735L177.79 121.249H176.122L177.255 115.645ZM174.326 102.704L176.644 115.39L177.332 121.249H175.689L171.995 102.704H174.326ZM185.674 115.377L187.941 102.704H190.272L186.591 121.249H184.948L185.674 115.377ZM182.159 102.704L185.037 115.645L186.146 121.249H184.477L181.395 107.735L180.516 102.704H182.159Z" fill="white"/>
<path d="M198.411 104.347L193.342 121.249H190.947L196.921 102.704H198.424L198.411 104.347ZM202.513 121.249L197.443 104.347L197.418 102.704H198.933L204.907 121.249H202.513ZM202.513 114.384V116.396H193.571V114.384H202.513Z" fill="white"/>
<path d="M207.467 102.704H212.651C213.857 102.704 214.867 102.916 215.683 103.341C216.506 103.766 217.126 104.394 217.542 105.226C217.967 106.05 218.179 107.064 218.179 108.27C218.179 109.119 218.039 109.896 217.759 110.601C217.478 111.297 217.071 111.892 216.536 112.384C216.001 112.868 215.351 113.229 214.587 113.467L213.95 113.734H209.327L209.301 111.735H212.626C213.339 111.735 213.933 111.582 214.409 111.276C214.884 110.962 215.241 110.542 215.479 110.015C215.717 109.489 215.835 108.907 215.835 108.27C215.835 107.557 215.729 106.933 215.517 106.398C215.305 105.863 214.965 105.451 214.498 105.162C214.039 104.865 213.424 104.717 212.651 104.717H209.811V121.249H207.467V102.704ZM216.37 121.249L212.677 112.843L215.109 112.83L218.88 121.096V121.249H216.37Z" fill="white"/>
<path d="M231.285 119.249V121.249H223.236V119.249H231.285ZM223.656 102.704V121.249H221.312V102.704H223.656ZM230.203 110.678V112.677H223.236V110.678H230.203ZM231.158 102.704V104.717H223.236V102.704H231.158Z" fill="white"/>
<path d="M111.214 152.249H108.055L108.081 150.249H111.214C112.327 150.249 113.231 150.037 113.927 149.613C114.623 149.18 115.137 148.543 115.468 147.702C115.799 146.853 115.965 145.804 115.965 144.556V141.385C115.965 140.4 115.872 139.55 115.685 138.837C115.498 138.124 115.218 137.538 114.844 137.079C114.471 136.621 113.999 136.281 113.43 136.061C112.862 135.831 112.195 135.717 111.431 135.717H107.992V133.704H111.431C112.475 133.704 113.418 133.87 114.258 134.201C115.099 134.524 115.821 135.012 116.424 135.666C117.026 136.311 117.485 137.113 117.799 138.073C118.122 139.032 118.283 140.145 118.283 141.41V144.556C118.283 145.821 118.122 146.934 117.799 147.893C117.485 148.853 117.022 149.655 116.411 150.3C115.799 150.946 115.057 151.434 114.182 151.765C113.316 152.088 112.327 152.249 111.214 152.249ZM109.355 133.704V152.249H107.011V133.704H109.355Z" fill="white"/>
<path d="M131.886 150.249V152.249H123.837V150.249H131.886ZM124.257 133.704V152.249H121.913V133.704H124.257ZM130.804 141.678V143.677H123.837V141.678H130.804ZM131.759 133.704V135.717H123.837V133.704H131.759Z" fill="white"/>
<path d="M139.974 149.434L144.432 133.704H146.98L141.222 152.249H139.427L139.974 149.434ZM135.975 133.704L140.395 149.434L140.98 152.249H139.185L133.427 133.704H135.975Z" fill="white"/>
<path d="M159.474 150.249V152.249H151.425V150.249H159.474ZM151.845 133.704V152.249H149.501V133.704H151.845ZM158.392 141.678V143.677H151.425V141.678H158.392ZM159.347 133.704V135.717H151.425V133.704H159.347Z" fill="white"/>
<path d="M172.084 150.249V152.249H164.391V150.249H172.084ZM164.811 133.704V152.249H162.468V133.704H164.811Z" fill="white"/>
<path d="M186.095 141.372V144.594C186.095 145.902 185.95 147.053 185.662 148.046C185.381 149.031 184.97 149.855 184.426 150.517C183.883 151.179 183.229 151.676 182.465 152.007C181.7 152.338 180.839 152.504 179.879 152.504C178.953 152.504 178.109 152.338 177.344 152.007C176.58 151.676 175.922 151.179 175.37 150.517C174.818 149.855 174.389 149.031 174.084 148.046C173.787 147.053 173.638 145.902 173.638 144.594V141.372C173.638 140.064 173.787 138.918 174.084 137.933C174.381 136.939 174.805 136.111 175.357 135.449C175.909 134.787 176.567 134.29 177.332 133.959C178.096 133.619 178.941 133.449 179.866 133.449C180.826 133.449 181.688 133.619 182.452 133.959C183.225 134.29 183.878 134.787 184.413 135.449C184.957 136.111 185.373 136.939 185.662 137.933C185.95 138.918 186.095 140.064 186.095 141.372ZM183.777 144.594V141.346C183.777 140.327 183.692 139.453 183.522 138.723C183.352 137.984 183.101 137.381 182.77 136.914C182.439 136.447 182.032 136.103 181.548 135.882C181.064 135.653 180.503 135.538 179.866 135.538C179.263 135.538 178.72 135.653 178.236 135.882C177.76 136.103 177.353 136.447 177.013 136.914C176.674 137.381 176.41 137.984 176.224 138.723C176.045 139.453 175.956 140.327 175.956 141.346V144.594C175.956 145.622 176.045 146.505 176.224 147.244C176.41 147.974 176.674 148.577 177.013 149.052C177.361 149.519 177.777 149.867 178.261 150.097C178.745 150.317 179.285 150.428 179.879 150.428C180.516 150.428 181.076 150.317 181.56 150.097C182.053 149.867 182.46 149.519 182.783 149.052C183.114 148.577 183.36 147.974 183.522 147.244C183.692 146.505 183.777 145.622 183.777 144.594Z" fill="white"/>
<path d="M195.635 144.976H191.584V142.977H195.635C196.399 142.977 197.014 142.824 197.481 142.518C197.957 142.212 198.301 141.788 198.513 141.244C198.734 140.701 198.844 140.081 198.844 139.385C198.844 138.748 198.734 138.149 198.513 137.589C198.301 137.029 197.957 136.579 197.481 136.239C197.014 135.891 196.399 135.717 195.635 135.717H192.068V152.249H189.725V133.704H195.635C196.832 133.704 197.842 133.946 198.666 134.43C199.49 134.914 200.114 135.585 200.538 136.443C200.971 137.292 201.188 138.264 201.188 139.359C201.188 140.548 200.971 141.563 200.538 142.404C200.114 143.244 199.49 143.885 198.666 144.327C197.842 144.76 196.832 144.976 195.635 144.976Z" fill="white"/>
<path d="M214.167 150.249V152.249H206.117V150.249H214.167ZM206.537 133.704V152.249H204.194V133.704H206.537ZM213.084 141.678V143.677H206.117V141.678H213.084ZM214.039 133.704V135.717H206.117V133.704H214.039Z" fill="white"/>
<path d="M217.173 133.704H222.357C223.562 133.704 224.573 133.916 225.388 134.341C226.212 134.766 226.832 135.394 227.248 136.226C227.672 137.05 227.885 138.064 227.885 139.27C227.885 140.119 227.744 140.896 227.464 141.601C227.184 142.297 226.776 142.892 226.241 143.384C225.706 143.868 225.057 144.229 224.293 144.467L223.656 144.734H219.032L219.007 142.735H222.331C223.044 142.735 223.639 142.582 224.114 142.276C224.59 141.962 224.947 141.542 225.184 141.015C225.422 140.489 225.541 139.907 225.541 139.27C225.541 138.557 225.435 137.933 225.223 137.398C225.01 136.863 224.671 136.451 224.204 136.162C223.745 135.865 223.129 135.717 222.357 135.717H219.516V152.249H217.173V133.704ZM226.076 152.249L222.382 143.843L224.815 143.83L228.585 152.096V152.249H226.076Z" fill="white"/>
<path d="M239.131 147.562C239.131 147.129 239.08 146.747 238.978 146.416C238.876 146.076 238.698 145.77 238.443 145.499C238.189 145.227 237.832 144.968 237.374 144.722C236.915 144.475 236.333 144.225 235.629 143.97C234.864 143.698 234.172 143.397 233.552 143.066C232.933 142.726 232.402 142.34 231.96 141.907C231.527 141.474 231.192 140.977 230.954 140.417C230.716 139.856 230.597 139.215 230.597 138.493C230.597 137.772 230.721 137.105 230.967 136.494C231.222 135.882 231.578 135.352 232.037 134.901C232.504 134.443 233.064 134.086 233.718 133.832C234.372 133.577 235.102 133.449 235.909 133.449C237.115 133.449 238.129 133.717 238.953 134.252C239.785 134.778 240.413 135.47 240.838 136.328C241.263 137.177 241.475 138.086 241.475 139.054H239.131C239.131 138.357 239.017 137.742 238.787 137.207C238.567 136.663 238.218 136.239 237.743 135.933C237.276 135.619 236.665 135.462 235.909 135.462C235.229 135.462 234.669 135.594 234.228 135.857C233.794 136.12 233.472 136.477 233.26 136.927C233.056 137.377 232.954 137.89 232.954 138.468C232.954 138.858 233.022 139.215 233.158 139.538C233.293 139.852 233.502 140.145 233.782 140.417C234.07 140.688 234.427 140.939 234.852 141.168C235.285 141.397 235.794 141.618 236.38 141.83C237.289 142.128 238.066 142.459 238.711 142.824C239.356 143.189 239.883 143.601 240.29 144.059C240.698 144.509 240.995 145.023 241.182 145.601C241.377 146.169 241.475 146.815 241.475 147.537C241.475 148.292 241.347 148.976 241.093 149.587C240.846 150.199 240.486 150.721 240.01 151.154C239.535 151.587 238.961 151.922 238.291 152.16C237.62 152.389 236.864 152.504 236.023 152.504C235.293 152.504 234.576 152.385 233.871 152.147C233.175 151.91 232.542 151.553 231.973 151.077C231.404 150.602 230.95 150.016 230.61 149.32C230.271 148.615 230.101 147.8 230.101 146.874H232.444C232.444 147.511 232.538 148.059 232.725 148.517C232.911 148.967 233.17 149.341 233.502 149.638C233.833 149.935 234.211 150.156 234.635 150.3C235.068 150.436 235.531 150.504 236.023 150.504C236.703 150.504 237.272 150.385 237.73 150.148C238.197 149.91 238.545 149.57 238.775 149.129C239.012 148.687 239.131 148.165 239.131 147.562Z" fill="white"/>
<path d="M114.663 73.3185H115.677L119.565 84.6054L123.472 73.3185H124.468L119.962 86.1574H119.186L114.663 73.3185ZM114.354 73.3185H115.236L115.359 80.5668V86.1574H114.354V73.3185ZM123.913 73.3185H124.803V86.1574H123.798V80.5668L123.913 73.3185Z" fill="white"/>
<path d="M135.808 78.3536V81.1312C135.808 81.9836 135.711 82.736 135.517 83.3886C135.329 84.0352 135.056 84.576 134.697 85.011C134.344 85.4461 133.912 85.7782 133.401 86.0075C132.889 86.2309 132.313 86.3426 131.672 86.3426C131.038 86.3426 130.464 86.2309 129.953 86.0075C129.447 85.7782 129.012 85.4461 128.648 85.011C128.283 84.576 128.001 84.0352 127.801 83.3886C127.607 82.736 127.51 81.9836 127.51 81.1312V78.3536C127.51 77.507 127.607 76.7575 127.801 76.105C127.995 75.4525 128.272 74.9087 128.63 74.4737C128.995 74.0387 129.43 73.7095 129.935 73.4861C130.447 73.2568 131.02 73.1422 131.655 73.1422C132.296 73.1422 132.872 73.2568 133.383 73.4861C133.895 73.7095 134.332 74.0387 134.697 74.4737C135.061 74.9087 135.338 75.4525 135.526 76.105C135.714 76.7575 135.808 77.507 135.808 78.3536ZM134.812 81.1312V78.3359C134.812 77.6305 134.741 77.0162 134.6 76.493C134.465 75.9639 134.265 75.523 134 75.1703C133.736 74.8176 133.407 74.553 133.013 74.3767C132.619 74.2003 132.166 74.1122 131.655 74.1122C131.161 74.1122 130.717 74.2003 130.323 74.3767C129.935 74.553 129.606 74.8176 129.336 75.1703C129.071 75.523 128.868 75.9639 128.727 76.493C128.586 77.0162 128.516 77.6305 128.516 78.3359V81.1312C128.516 81.8425 128.586 82.4627 128.727 82.9918C128.868 83.5149 129.074 83.9558 129.345 84.3144C129.621 84.6672 129.953 84.9317 130.341 85.108C130.735 85.2844 131.179 85.3726 131.672 85.3726C132.184 85.3726 132.634 85.2844 133.022 85.108C133.415 84.9317 133.745 84.6672 134.009 84.3144C134.274 83.9558 134.474 83.5149 134.609 82.9918C134.744 82.4627 134.812 81.8425 134.812 81.1312Z" fill="white"/>
<path d="M144.547 82.9918C144.547 82.639 144.499 82.3275 144.405 82.0571C144.311 81.7866 144.156 81.5427 143.938 81.3252C143.721 81.1018 143.427 80.896 143.056 80.7079C142.686 80.5139 142.224 80.3229 141.672 80.1348C141.131 79.9525 140.643 79.7527 140.208 79.5351C139.779 79.3176 139.409 79.0678 139.097 78.7856C138.791 78.5035 138.556 78.1743 138.392 77.798C138.233 77.4159 138.154 76.9721 138.154 76.4665C138.154 75.9727 138.242 75.523 138.418 75.1174C138.594 74.7059 138.844 74.3532 139.168 74.0592C139.497 73.7653 139.882 73.539 140.323 73.3803C140.764 73.2215 141.252 73.1422 141.787 73.1422C142.551 73.1422 143.209 73.3156 143.762 73.6624C144.32 74.0034 144.746 74.4649 145.04 75.0468C145.34 75.623 145.49 76.2667 145.49 76.978H144.494C144.494 76.4195 144.388 75.9228 144.176 75.4877C143.97 75.0527 143.665 74.7118 143.259 74.4649C142.853 74.2121 142.363 74.0857 141.787 74.0857C141.21 74.0857 140.725 74.1945 140.332 74.412C139.944 74.6236 139.653 74.9087 139.459 75.2673C139.265 75.62 139.168 76.0109 139.168 76.4401C139.168 76.7458 139.215 77.0279 139.309 77.2866C139.409 77.5452 139.567 77.7833 139.785 78.0008C140.008 78.2183 140.299 78.4241 140.658 78.6181C141.022 78.8062 141.466 78.9855 141.989 79.156C142.571 79.3382 143.083 79.544 143.524 79.7732C143.97 80.0025 144.344 80.267 144.644 80.5668C144.949 80.8666 145.178 81.2135 145.331 81.6073C145.49 82.0012 145.569 82.4568 145.569 82.9741C145.569 83.4973 145.478 83.9676 145.296 84.385C145.114 84.7965 144.855 85.1492 144.52 85.4431C144.185 85.7312 143.791 85.9516 143.338 86.1045C142.886 86.2573 142.389 86.3337 141.848 86.3337C141.366 86.3337 140.887 86.2603 140.411 86.1133C139.935 85.9663 139.5 85.7371 139.106 85.4255C138.712 85.1139 138.398 84.7142 138.162 84.2263C137.927 83.7383 137.81 83.1564 137.81 82.4803H138.824C138.824 83.0153 138.912 83.4709 139.088 83.8471C139.265 84.2174 139.497 84.5173 139.785 84.7465C140.079 84.9699 140.405 85.1345 140.764 85.2403C141.122 85.3403 141.484 85.3902 141.848 85.3902C142.401 85.3902 142.877 85.2903 143.277 85.0904C143.682 84.8905 143.994 84.6113 144.211 84.2527C144.435 83.8941 144.547 83.4738 144.547 82.9918Z" fill="white"/>
<path d="M151.539 73.3185V86.1574H150.543V73.3185H151.539ZM155.199 73.3185V74.2621H146.901V73.3185H155.199Z" fill="white"/>
<path d="M160.965 73.3185H164.484C165.236 73.3185 165.886 73.4655 166.433 73.7594C166.985 74.0475 167.411 74.4737 167.711 75.038C168.011 75.5965 168.161 76.2843 168.161 77.1014C168.161 77.7069 168.052 78.2566 167.835 78.7504C167.623 79.2442 167.332 79.6557 166.962 79.9849C166.591 80.3141 166.153 80.5404 165.648 80.6638L165.321 80.8137H161.653L161.636 79.8702H164.651C165.21 79.8702 165.674 79.7409 166.045 79.4822C166.415 79.2236 166.691 78.8826 166.873 78.4594C167.062 78.0361 167.156 77.5835 167.156 77.1014C167.156 76.5194 167.053 76.0168 166.847 75.5936C166.647 75.1644 166.347 74.8352 165.948 74.606C165.554 74.3767 165.066 74.2621 164.484 74.2621H161.971V86.1574H160.965V73.3185ZM167.552 86.1574L164.792 80.4169L165.868 80.4081L168.619 86.0427V86.1574H167.552Z" fill="white"/>
<path d="M177.64 85.2139V86.1574H171.644V85.2139H177.64ZM171.917 73.3185V86.1574H170.912V73.3185H171.917ZM176.891 79.0678V80.0113H171.644V79.0678H176.891ZM177.596 73.3185V74.2621H171.644V73.3185H177.596Z" fill="white"/>
<path d="M183.301 84.5525L186.652 73.3185H187.745L183.733 86.1574H182.931L183.301 84.5525ZM179.889 73.3185L183.231 84.5525L183.592 86.1574H182.798L178.795 73.3185H179.889Z" fill="white"/>
<path d="M190.867 73.3185V86.1574H189.853V73.3185H190.867Z" fill="white"/>
<path d="M200.813 85.2139V86.1574H194.817V85.2139H200.813ZM195.091 73.3185V86.1574H194.085V73.3185H195.091ZM200.064 79.0678V80.0113H194.817V79.0678H200.064ZM200.769 73.3185V74.2621H194.817V73.3185H200.769Z" fill="white"/>
<path d="M205.831 82.7537L208.132 73.3185H208.926L208.326 76.1403L205.866 86.1574H205.108L205.831 82.7537ZM203.212 73.3185L205.125 82.6655L205.707 86.1574H204.914L202.18 73.3185H203.212ZM212.003 82.6567L213.899 73.3185H214.922L212.197 86.1574H211.404L212.003 82.6567ZM209.023 73.3185L211.289 82.7537L212.003 86.1574H211.236L208.838 76.1403L208.238 73.3185H209.023Z" fill="white"/>
<path d="M223.74 85.2139V86.1574H217.744V85.2139H223.74ZM218.017 73.3185V86.1574H217.012V73.3185H218.017ZM222.99 79.0678V80.0113H217.744V79.0678H222.99ZM223.696 73.3185V74.2621H217.744V73.3185H223.696Z" fill="white"/>
<path d="M228.951 86.1574H226.544L226.553 85.2139H228.951C229.721 85.2139 230.377 85.0522 230.918 84.7289C231.458 84.4056 231.87 83.9323 232.152 83.3092C232.44 82.6861 232.584 81.9277 232.584 81.0342V78.4241C232.584 77.7422 232.502 77.1426 232.337 76.6252C232.179 76.1021 231.943 75.667 231.632 75.3202C231.326 74.9675 230.953 74.7029 230.512 74.5266C230.071 74.3502 229.574 74.2621 229.022 74.2621H226.5V73.3185H229.022C229.704 73.3185 230.324 73.4302 230.882 73.6536C231.441 73.877 231.92 74.2062 232.32 74.6412C232.725 75.0762 233.037 75.6112 233.254 76.2461C233.472 76.881 233.581 77.6129 233.581 78.4417V81.0342C233.581 81.8572 233.472 82.5891 233.254 83.2298C233.037 83.8706 232.725 84.4085 232.32 84.8435C231.914 85.2726 231.426 85.5989 230.856 85.8223C230.286 86.0457 229.651 86.1574 228.951 86.1574ZM227.011 73.3185V86.1574H226.006V73.3185H227.011Z" fill="white"/>
<path d="M149.068 227.823H150.073V236.871C150.073 237.835 149.899 238.608 149.553 239.19C149.212 239.772 148.75 240.195 148.168 240.459C147.592 240.718 146.954 240.847 146.255 240.847C145.537 240.847 144.891 240.718 144.315 240.459C143.739 240.195 143.283 239.772 142.948 239.19C142.613 238.608 142.445 237.835 142.445 236.871V227.823H143.451V236.871C143.451 237.623 143.571 238.22 143.812 238.661C144.053 239.102 144.385 239.419 144.808 239.613C145.232 239.807 145.714 239.904 146.255 239.904C146.807 239.904 147.292 239.807 147.71 239.613C148.133 239.419 148.465 239.102 148.706 238.661C148.947 238.22 149.068 237.623 149.068 236.871V227.823Z" fill="white"/>
<path d="M153.926 227.823V240.662H152.921V227.823H153.926ZM160.566 227.823L155.945 233.705L153.573 236.465L153.459 235.23L155.328 232.903L159.314 227.823H160.566ZM159.693 240.662L155.258 234.084L155.857 233.185L160.91 240.662H159.693Z" fill="white"/>
<path d="M162.815 227.823H166.333C167.085 227.823 167.735 227.97 168.282 228.264C168.834 228.552 169.26 228.979 169.56 229.543C169.86 230.101 170.01 230.789 170.01 231.606C170.01 232.212 169.901 232.761 169.684 233.255C169.472 233.749 169.181 234.161 168.811 234.49C168.44 234.819 168.002 235.045 167.497 235.169L167.171 235.319H163.502L163.485 234.375H166.5C167.059 234.375 167.523 234.246 167.894 233.987C168.264 233.729 168.54 233.388 168.723 232.964C168.911 232.541 169.005 232.088 169.005 231.606C169.005 231.024 168.902 230.522 168.696 230.098C168.496 229.669 168.196 229.34 167.797 229.111C167.403 228.882 166.915 228.767 166.333 228.767H163.82V240.662H162.815V227.823ZM169.402 240.662L166.642 234.922L167.717 234.913L170.469 240.548V240.662H169.402Z" fill="white"/>
<path d="M176.376 228.599L172.682 240.662H171.641L175.724 227.823H176.438L176.376 228.599ZM179.701 240.662L175.997 228.599L175.953 227.823H176.659L180.741 240.662H179.701ZM179.119 236.13V237.073H173.334V236.13H179.119Z" fill="white"/>
<path d="M183.863 227.823V240.662H182.849V227.823H183.863Z" fill="white"/>
<path d="M195.159 227.823V240.662H194.145L188.095 229.719V240.662H187.081V227.823H188.095L194.153 238.766V227.823H195.159Z" fill="white"/>
<path d="M204.955 239.719V240.662H198.959V239.719H204.955ZM199.232 227.823V240.662H198.227V227.823H199.232ZM204.206 233.573V234.516H198.959V233.573H204.206ZM204.911 227.823V228.767H198.959V227.823H204.911Z" fill="white"/>
<path d="M161.819 271.054H165.804V271.907H162.757V273.291H165.456V274.144H162.757V275.583H165.841V276.436H161.819V271.054Z" fill="white"/>
<path d="M159.495 276.436V274.167H156.913V276.436H155.975V271.054H156.913V273.291H159.495V271.054H160.435V276.436H159.495Z" fill="white"/>
<path d="M154.973 271.93H153.267V276.436H152.313V271.93H150.606V271.054H154.973V271.93Z" fill="white"/>
<path fill-rule="evenodd" clip-rule="evenodd" d="M173.641 288.937V277.957H174.542V289.829H142.372V285.881H137.886V253.711H170.056V257.661H174.54V269.542H173.638V258.563H170.054V269.542H169.153V258.563H143.275V284.982H169.155V277.957H170.056V285.881H143.275V288.937H173.641ZM138.787 284.977H142.372V257.661H169.153V254.614H138.787V284.977Z" fill="white"/>
<path fill-rule="evenodd" clip-rule="evenodd" d="M177.863 271.015H178.739L181.118 276.436H180.109L179.563 275.136H177.017L176.463 276.436H175.493L177.863 271.015ZM177.362 274.297H179.215L178.277 272.145L177.362 274.297Z" fill="white"/>
<path d="M209.532 271.93H207.826V276.436H206.872V271.93H205.166V271.053H209.532V271.93Z" fill="white"/>
<path d="M201.596 272.211C201.556 272.291 201.536 272.378 201.536 272.467C201.531 272.568 201.55 272.668 201.59 272.76C201.636 272.848 201.704 272.922 201.787 272.975C201.909 273.054 202.042 273.117 202.181 273.16L202.816 273.336C203.071 273.396 203.322 273.473 203.567 273.565C203.765 273.64 203.949 273.749 204.111 273.885C204.251 274.006 204.363 274.156 204.438 274.324C204.517 274.51 204.555 274.711 204.55 274.912C204.554 275.149 204.506 275.383 204.409 275.599C204.317 275.795 204.182 275.968 204.015 276.106C203.837 276.251 203.632 276.358 203.411 276.422C203.159 276.496 202.897 276.532 202.633 276.529C202.227 276.531 201.823 276.46 201.442 276.319C201.052 276.172 200.694 275.951 200.387 275.669L200.957 274.983C201.194 275.199 201.461 275.38 201.751 275.518C202.039 275.644 202.351 275.706 202.666 275.699C202.908 275.71 203.148 275.645 203.352 275.514C203.434 275.459 203.5 275.384 203.546 275.297C203.591 275.209 203.613 275.111 203.61 275.013C203.612 274.923 203.594 274.835 203.56 274.752C203.518 274.666 203.454 274.594 203.375 274.542C203.259 274.466 203.135 274.405 203.004 274.361L202.391 274.185C202.13 274.125 201.874 274.048 201.622 273.956C201.419 273.886 201.229 273.782 201.06 273.65C200.909 273.527 200.79 273.37 200.712 273.192C200.627 272.99 200.587 272.773 200.593 272.554C200.59 272.332 200.637 272.113 200.73 271.911C200.82 271.721 200.949 271.552 201.108 271.415C201.277 271.271 201.474 271.162 201.687 271.095C201.924 271.018 202.173 270.98 202.423 270.983C202.786 270.977 203.147 271.036 203.489 271.156C203.81 271.275 204.11 271.445 204.376 271.66L203.869 272.376C203.644 272.208 203.399 272.069 203.139 271.964C202.907 271.871 202.659 271.823 202.409 271.822C202.179 271.808 201.951 271.874 201.764 272.01C201.693 272.063 201.636 272.132 201.596 272.211Z" fill="white"/>
<path d="M195.588 271.053H199.573V271.907H196.528V273.291H199.228V274.144H196.528V275.583H199.612V276.436H195.588V271.053Z" fill="white"/>
<path d="M190.545 271.053H194.543V271.907H191.482V273.391H194.198V274.244H191.482V276.436H190.545V271.053Z" fill="white"/>
<path d="M189.099 271.054H188.161V276.438H189.099V271.054Z" fill="white"/>
<path d="M185.785 274.775L182.907 271.054H182.031V276.436H182.969V272.607L185.931 276.436H186.723V271.054H185.785V274.775Z" fill="white"/>
<path d="M173.632 272.575V276.436H174.572V271.054H173.563L171.925 273.597L170.288 271.054H169.279V276.436H170.217V272.591L171.902 275.114H171.932L173.632 272.575Z" fill="white"/>
</svg>
