<svg viewBox="0 0 348 348" fill="none" xmlns="http://www.w3.org/2000/svg">
<path fill-rule="evenodd" clip-rule="evenodd" d="M125.211 58L58 125.211V222.789L125.211 290H222.789L290 222.789V125.211L222.789 58H125.211ZM227.76 46H120.24L46 120.24V227.76L120.24 302H227.76L302 227.76V120.24L227.76 46Z" fill="white"/>
<path fill-rule="evenodd" clip-rule="evenodd" d="M182.188 102.979C182.163 97.342 186.649 92.815 192.157 92.7885L192.155 92.7908C197.665 92.7644 202.196 97.2523 202.222 102.887C202.249 108.521 197.761 113.049 192.253 113.075C186.745 113.1 182.213 108.615 182.188 102.979ZM188.061 107.239C189.171 108.337 190.672 108.95 192.233 108.941C195.365 108.925 198.107 106.16 198.091 103.027C198.073 101.465 197.458 99.9695 196.349 98.8714C195.239 97.7732 193.738 97.1523 192.177 97.1695C190.615 97.1868 189.119 97.802 188.021 98.9116C186.923 100.021 186.302 101.522 186.319 103.083C186.337 104.645 186.952 106.141 188.061 107.239Z" fill="white"/>
<path d="M209.362 102.85C209.348 99.9695 211.591 97.5801 214.472 97.5663L216.229 97.5559L216.208 93.2991L214.955 93.306C211.197 93.3232 209.334 96.3359 209.334 96.3359L209.319 93.3313L204.936 93.352L205.024 112.512L209.408 112.492L209.362 102.85Z" fill="white"/>
<path d="M174.065 106.649L170.747 93.5152L166.615 93.5451L163.545 106.709L159.727 93.5773L155.47 93.5969L161.195 112.731L165.453 112.711L168.771 99.298L172.214 112.68L176.471 112.661L181.893 93.4635L177.51 93.483L174.065 106.649Z" fill="white"/>
<path d="M234.111 93.2186C234.128 96.9752 232.012 100.242 229.017 102.008L236.33 112.366L231.196 112.389L225.021 104.03C224.893 103.655 224.391 103.406 223.889 103.409L223.389 103.411L223.431 112.426L219.049 112.446L218.915 84.0207L223.298 84L223.367 99.1519L223.994 99.1496C227.124 99.1381 229.743 96.4957 229.727 93.2393L234.111 93.2186Z" fill="white"/>
<path fill-rule="evenodd" clip-rule="evenodd" d="M135.596 101.194C136.949 96.1795 140.567 93.0323 145.324 93.0093L145.325 93.0081C147.979 93.0041 150.527 94.0503 152.413 95.9183C154.299 97.7863 155.369 100.325 155.39 102.979C155.419 108.74 150.931 113.267 145.42 113.293C142.78 113.306 140.535 112.566 138.526 111.322L136.318 121.977L131.185 122L134.247 107.336C132.859 105.462 131.597 103.34 130.587 101.342L130.599 103.596C130.624 109.105 126.261 113.508 120.875 113.535C115.489 113.561 111.089 109.196 111.062 103.688L111 90.4152L116.01 90.3922L116.073 103.665C116.08 104.927 116.587 106.135 117.483 107.023C118.38 107.911 119.592 108.407 120.854 108.402C122.116 108.395 123.324 107.888 124.212 106.991C125.1 106.095 125.596 104.882 125.591 103.62L125.529 90.3473L130.536 90.3243C131.553 93.7004 133.325 97.6985 135.596 101.194ZM139.752 105.933C141.386 107.303 143.392 108.17 145.395 108.161L145.396 108.16C148.027 108.147 150.395 105.882 150.507 103.002C150.494 101.677 149.957 100.411 149.014 99.4798C148.072 98.5487 146.799 98.0275 145.474 98.0297C141.717 98.0458 140.61 101.682 140.243 103.814V103.929L139.752 105.933Z" fill="white"/>
<path d="M93.5742 149C93.5742 150.688 93.2695 152.146 92.6602 153.375C92.0508 154.604 91.2148 155.552 90.1523 156.219C89.0898 156.885 87.8763 157.219 86.5117 157.219C85.1471 157.219 83.9336 156.885 82.8711 156.219C81.8086 155.552 80.9727 154.604 80.3633 153.375C79.7539 152.146 79.4492 150.688 79.4492 149C79.4492 147.312 79.7539 145.854 80.3633 144.625C80.9727 143.396 81.8086 142.448 82.8711 141.781C83.9336 141.115 85.1471 140.781 86.5117 140.781C87.8763 140.781 89.0898 141.115 90.1523 141.781C91.2148 142.448 92.0508 143.396 92.6602 144.625C93.2695 145.854 93.5742 147.312 93.5742 149ZM91.6992 149C91.6992 147.615 91.4674 146.445 91.0039 145.492C90.5456 144.539 89.9232 143.818 89.1367 143.328C88.3555 142.839 87.4805 142.594 86.5117 142.594C85.543 142.594 84.6654 142.839 83.8789 143.328C83.0977 143.818 82.4753 144.539 82.0117 145.492C81.5534 146.445 81.3242 147.615 81.3242 149C81.3242 150.385 81.5534 151.555 82.0117 152.508C82.4753 153.461 83.0977 154.182 83.8789 154.672C84.6654 155.161 85.543 155.406 86.5117 155.406C87.4805 155.406 88.3555 155.161 89.1367 154.672C89.9232 154.182 90.5456 153.461 91.0039 152.508C91.4674 151.555 91.6992 150.385 91.6992 149Z" fill="white"/>
<path d="M98.4258 149.781V157H96.582V145H98.3633V146.875H98.5195C98.8008 146.266 99.2279 145.776 99.8008 145.406C100.374 145.031 101.113 144.844 102.02 144.844C102.832 144.844 103.543 145.01 104.152 145.344C104.762 145.672 105.236 146.172 105.574 146.844C105.913 147.51 106.082 148.354 106.082 149.375V157H104.238V149.5C104.238 148.557 103.993 147.823 103.504 147.297C103.014 146.766 102.342 146.5 101.488 146.5C100.9 146.5 100.374 146.628 99.9102 146.883C99.4518 147.138 99.0898 147.51 98.8242 148C98.5586 148.49 98.4258 149.083 98.4258 149.781Z" fill="white"/>
<path d="M109.451 157V145H111.295V157H109.451ZM110.389 143C110.029 143 109.719 142.878 109.459 142.633C109.204 142.388 109.076 142.094 109.076 141.75C109.076 141.406 109.204 141.112 109.459 140.867C109.719 140.622 110.029 140.5 110.389 140.5C110.748 140.5 111.055 140.622 111.311 140.867C111.571 141.112 111.701 141.406 111.701 141.75C111.701 142.094 111.571 142.388 111.311 142.633C111.055 142.878 110.748 143 110.389 143Z" fill="white"/>
<path d="M116.047 145L118.922 149.906L121.797 145H123.922L120.047 151L123.922 157H121.797L118.922 152.344L116.047 157H113.922L117.734 151L113.922 145H116.047Z" fill="white"/>
<path d="M132.934 149.281V151H125.934V149.281H132.934Z" fill="white"/>
<path d="M145.178 145C145.084 144.208 144.704 143.594 144.037 143.156C143.37 142.719 142.553 142.5 141.584 142.5C140.876 142.5 140.256 142.615 139.725 142.844C139.199 143.073 138.787 143.388 138.49 143.789C138.199 144.19 138.053 144.646 138.053 145.156C138.053 145.583 138.154 145.951 138.357 146.258C138.566 146.56 138.831 146.812 139.154 147.016C139.477 147.214 139.816 147.378 140.17 147.508C140.524 147.633 140.85 147.734 141.146 147.812L142.771 148.25C143.188 148.359 143.652 148.51 144.162 148.703C144.678 148.896 145.17 149.159 145.639 149.492C146.113 149.82 146.503 150.242 146.811 150.758C147.118 151.273 147.271 151.906 147.271 152.656C147.271 153.521 147.045 154.302 146.592 155C146.144 155.698 145.488 156.253 144.623 156.664C143.764 157.076 142.719 157.281 141.49 157.281C140.344 157.281 139.352 157.096 138.514 156.727C137.68 156.357 137.024 155.841 136.545 155.18C136.071 154.518 135.803 153.75 135.74 152.875H137.74C137.792 153.479 137.995 153.979 138.35 154.375C138.709 154.766 139.162 155.057 139.709 155.25C140.261 155.438 140.855 155.531 141.49 155.531C142.23 155.531 142.894 155.411 143.482 155.172C144.071 154.927 144.537 154.589 144.881 154.156C145.225 153.719 145.396 153.208 145.396 152.625C145.396 152.094 145.248 151.661 144.951 151.328C144.654 150.995 144.264 150.724 143.779 150.516C143.295 150.307 142.771 150.125 142.209 149.969L140.24 149.406C138.99 149.047 138.001 148.534 137.271 147.867C136.542 147.201 136.178 146.328 136.178 145.25C136.178 144.354 136.42 143.573 136.904 142.906C137.394 142.234 138.05 141.714 138.873 141.344C139.701 140.969 140.626 140.781 141.646 140.781C142.678 140.781 143.594 140.966 144.396 141.336C145.199 141.701 145.834 142.201 146.303 142.836C146.777 143.471 147.027 144.193 147.053 145H145.178Z" fill="white"/>
<path d="M151.395 161.5C151.082 161.5 150.803 161.474 150.559 161.422C150.314 161.375 150.145 161.328 150.051 161.281L150.52 159.656C150.967 159.771 151.363 159.812 151.707 159.781C152.051 159.75 152.355 159.596 152.621 159.32C152.892 159.049 153.139 158.609 153.363 158L153.707 157.062L149.27 145H151.27L154.582 154.562H154.707L158.02 145H160.02L154.926 158.75C154.697 159.37 154.413 159.883 154.074 160.289C153.736 160.701 153.342 161.005 152.895 161.203C152.452 161.401 151.952 161.5 151.395 161.5Z" fill="white"/>
<path d="M170.953 147.688L169.297 148.156C169.193 147.88 169.039 147.612 168.836 147.352C168.638 147.086 168.367 146.867 168.023 146.695C167.68 146.523 167.24 146.438 166.703 146.438C165.969 146.438 165.357 146.607 164.867 146.945C164.383 147.279 164.141 147.703 164.141 148.219C164.141 148.677 164.307 149.039 164.641 149.305C164.974 149.57 165.495 149.792 166.203 149.969L167.984 150.406C169.057 150.667 169.857 151.065 170.383 151.602C170.909 152.133 171.172 152.818 171.172 153.656C171.172 154.344 170.974 154.958 170.578 155.5C170.188 156.042 169.641 156.469 168.938 156.781C168.234 157.094 167.417 157.25 166.484 157.25C165.26 157.25 164.247 156.984 163.445 156.453C162.643 155.922 162.135 155.146 161.922 154.125L163.672 153.688C163.839 154.333 164.154 154.818 164.617 155.141C165.086 155.464 165.698 155.625 166.453 155.625C167.312 155.625 167.995 155.443 168.5 155.078C169.01 154.708 169.266 154.266 169.266 153.75C169.266 153.333 169.12 152.984 168.828 152.703C168.536 152.417 168.089 152.203 167.484 152.062L165.484 151.594C164.385 151.333 163.578 150.93 163.062 150.383C162.552 149.831 162.297 149.141 162.297 148.312C162.297 147.635 162.487 147.036 162.867 146.516C163.253 145.995 163.776 145.586 164.438 145.289C165.104 144.992 165.859 144.844 166.703 144.844C167.891 144.844 168.823 145.104 169.5 145.625C170.182 146.146 170.667 146.833 170.953 147.688Z" fill="white"/>
<path d="M194.615 157V145H196.396V146.875H196.553C196.803 146.234 197.206 145.737 197.764 145.383C198.321 145.023 198.99 144.844 199.771 144.844C200.563 144.844 201.222 145.023 201.748 145.383C202.279 145.737 202.693 146.234 202.99 146.875H203.115C203.423 146.255 203.883 145.763 204.498 145.398C205.113 145.029 205.85 144.844 206.709 144.844C207.782 144.844 208.66 145.18 209.342 145.852C210.024 146.518 210.365 147.557 210.365 148.969V157H208.521V148.969C208.521 148.083 208.279 147.451 207.795 147.07C207.311 146.69 206.74 146.5 206.084 146.5C205.24 146.5 204.587 146.755 204.123 147.266C203.66 147.771 203.428 148.411 203.428 149.188V157H201.553V148.781C201.553 148.099 201.331 147.549 200.889 147.133C200.446 146.711 199.876 146.5 199.178 146.5C198.699 146.5 198.251 146.628 197.834 146.883C197.423 147.138 197.089 147.492 196.834 147.945C196.584 148.393 196.459 148.911 196.459 149.5V157H194.615Z" fill="white"/>
<path d="M222.236 147.688L220.58 148.156C220.476 147.88 220.322 147.612 220.119 147.352C219.921 147.086 219.65 146.867 219.307 146.695C218.963 146.523 218.523 146.438 217.986 146.438C217.252 146.438 216.64 146.607 216.15 146.945C215.666 147.279 215.424 147.703 215.424 148.219C215.424 148.677 215.59 149.039 215.924 149.305C216.257 149.57 216.778 149.792 217.486 149.969L219.268 150.406C220.34 150.667 221.14 151.065 221.666 151.602C222.192 152.133 222.455 152.818 222.455 153.656C222.455 154.344 222.257 154.958 221.861 155.5C221.471 156.042 220.924 156.469 220.221 156.781C219.518 157.094 218.7 157.25 217.768 157.25C216.544 157.25 215.531 156.984 214.729 156.453C213.926 155.922 213.419 155.146 213.205 154.125L214.955 153.688C215.122 154.333 215.437 154.818 215.9 155.141C216.369 155.464 216.981 155.625 217.736 155.625C218.596 155.625 219.278 155.443 219.783 155.078C220.294 154.708 220.549 154.266 220.549 153.75C220.549 153.333 220.403 152.984 220.111 152.703C219.82 152.417 219.372 152.203 218.768 152.062L216.768 151.594C215.669 151.333 214.861 150.93 214.346 150.383C213.835 149.831 213.58 149.141 213.58 148.312C213.58 147.635 213.77 147.036 214.15 146.516C214.536 145.995 215.059 145.586 215.721 145.289C216.387 144.992 217.143 144.844 217.986 144.844C219.174 144.844 220.106 145.104 220.783 145.625C221.465 146.146 221.95 146.833 222.236 147.688Z" fill="white"/>
<path d="M231.668 157V141H233.605V155.281H241.043V157H231.668Z" fill="white"/>
<path d="M244.043 157V141H245.98V155.281H253.418V157H244.043Z" fill="white"/>
<path d="M268.67 146H266.732C266.618 145.443 266.417 144.953 266.131 144.531C265.85 144.109 265.506 143.755 265.1 143.469C264.699 143.177 264.253 142.958 263.764 142.812C263.274 142.667 262.764 142.594 262.232 142.594C261.264 142.594 260.386 142.839 259.6 143.328C258.818 143.818 258.196 144.539 257.732 145.492C257.274 146.445 257.045 147.615 257.045 149C257.045 150.385 257.274 151.555 257.732 152.508C258.196 153.461 258.818 154.182 259.6 154.672C260.386 155.161 261.264 155.406 262.232 155.406C262.764 155.406 263.274 155.333 263.764 155.188C264.253 155.042 264.699 154.826 265.1 154.539C265.506 154.247 265.85 153.891 266.131 153.469C266.417 153.042 266.618 152.552 266.732 152H268.67C268.524 152.818 268.258 153.549 267.873 154.195C267.488 154.841 267.008 155.391 266.436 155.844C265.863 156.292 265.219 156.633 264.506 156.867C263.798 157.102 263.04 157.219 262.232 157.219C260.868 157.219 259.654 156.885 258.592 156.219C257.529 155.552 256.693 154.604 256.084 153.375C255.475 152.146 255.17 150.688 255.17 149C255.17 147.312 255.475 145.854 256.084 144.625C256.693 143.396 257.529 142.448 258.592 141.781C259.654 141.115 260.868 140.781 262.232 140.781C263.04 140.781 263.798 140.898 264.506 141.133C265.219 141.367 265.863 141.711 266.436 142.164C267.008 142.612 267.488 143.159 267.873 143.805C268.258 144.445 268.524 145.177 268.67 146Z" fill="white"/>
<path fill-rule="evenodd" clip-rule="evenodd" d="M179.166 146.562V145H176.604V142.125H174.76V145H172.947V146.562H174.76V154.062C174.76 154.76 174.921 155.339 175.244 155.797C175.572 156.255 175.984 156.596 176.479 156.82C176.979 157.044 177.489 157.156 178.01 157.156C178.354 157.156 178.637 157.13 178.861 157.078C179.085 157.031 179.26 156.984 179.385 156.938L179.01 155.281L178.697 155.344C178.567 155.365 178.4 155.375 178.197 155.375C177.926 155.375 177.669 155.333 177.424 155.25C177.184 155.161 176.986 154.99 176.83 154.734C176.679 154.474 176.604 154.083 176.604 153.562V146.562H179.166Z" fill="white"/>
<path fill-rule="evenodd" clip-rule="evenodd" d="M183.85 156.484C184.688 156.995 185.686 157.25 186.842 157.25C187.654 157.25 188.386 157.125 189.037 156.875C189.688 156.62 190.235 156.266 190.678 155.812C191.12 155.354 191.436 154.823 191.623 154.219L189.842 153.719C189.686 154.135 189.464 154.484 189.178 154.766C188.891 155.042 188.55 155.25 188.154 155.391C187.764 155.526 187.326 155.594 186.842 155.594C186.097 155.594 185.443 155.432 184.881 155.109C184.318 154.781 183.878 154.305 183.561 153.68C183.277 153.108 183.122 152.423 183.096 151.625H191.811V150.844C191.811 149.724 191.662 148.781 191.365 148.016C191.068 147.25 190.67 146.635 190.17 146.172C189.67 145.703 189.115 145.365 188.506 145.156C187.896 144.948 187.279 144.844 186.654 144.844C185.571 144.844 184.623 145.109 183.811 145.641C183.003 146.167 182.373 146.901 181.92 147.844C181.472 148.781 181.248 149.865 181.248 151.094C181.248 152.323 181.472 153.401 181.92 154.328C182.373 155.25 183.016 155.969 183.85 156.484ZM183.101 150.031H189.936C189.936 149.354 189.8 148.75 189.529 148.219C189.264 147.688 188.883 147.268 188.389 146.961C187.899 146.654 187.321 146.5 186.654 146.5C185.92 146.5 185.285 146.682 184.748 147.047C184.217 147.406 183.808 147.875 183.521 148.453C183.276 148.949 183.136 149.475 183.101 150.031Z" fill="white"/>
<path d="M117.465 192V178.909H122.259C123.188 178.909 123.957 179.063 124.566 179.369C125.176 179.672 125.632 180.083 125.934 180.603C126.237 181.119 126.388 181.7 126.388 182.348C126.388 182.894 126.288 183.354 126.088 183.729C125.887 184.1 125.619 184.398 125.282 184.624C124.95 184.845 124.583 185.007 124.183 185.109V185.237C124.618 185.259 125.042 185.399 125.455 185.659C125.873 185.915 126.218 186.279 126.49 186.752C126.763 187.225 126.9 187.801 126.9 188.478C126.9 189.147 126.742 189.748 126.426 190.281C126.115 190.809 125.634 191.229 124.982 191.54C124.33 191.847 123.497 192 122.483 192H117.465ZM119.44 190.306H122.291C123.237 190.306 123.914 190.123 124.324 189.756C124.733 189.39 124.937 188.932 124.937 188.382C124.937 187.969 124.833 187.59 124.624 187.244C124.415 186.899 124.117 186.624 123.729 186.42C123.346 186.215 122.89 186.113 122.361 186.113H119.44V190.306ZM119.44 184.573H122.086C122.529 184.573 122.928 184.487 123.282 184.317C123.64 184.146 123.923 183.908 124.132 183.601C124.345 183.29 124.451 182.923 124.451 182.502C124.451 181.96 124.262 181.506 123.882 181.14C123.503 180.774 122.922 180.59 122.137 180.59H119.44V184.573Z" fill="white"/>
<path d="M129.089 192V182.182H130.936V183.742H131.038C131.217 183.213 131.533 182.798 131.984 182.495C132.44 182.188 132.956 182.035 133.531 182.035C133.651 182.035 133.791 182.039 133.953 182.048C134.119 182.056 134.249 182.067 134.343 182.08V183.908C134.266 183.886 134.13 183.863 133.934 183.837C133.738 183.808 133.542 183.793 133.346 183.793C132.894 183.793 132.491 183.889 132.138 184.08C131.788 184.268 131.511 184.53 131.307 184.867C131.102 185.199 131 185.578 131 186.004V192H129.089Z" fill="white"/>
<path d="M149.067 192.217C148.445 192.217 147.882 192.102 147.38 191.872C146.877 191.638 146.478 191.299 146.184 190.856C145.895 190.413 145.75 189.869 145.75 189.226C145.75 188.672 145.856 188.216 146.069 187.858C146.282 187.5 146.57 187.217 146.932 187.008C147.294 186.799 147.699 186.641 148.147 186.535C148.594 186.428 149.05 186.347 149.515 186.292C150.103 186.224 150.58 186.168 150.946 186.126C151.313 186.079 151.579 186.004 151.745 185.902C151.912 185.8 151.995 185.634 151.995 185.404V185.359C151.995 184.801 151.837 184.368 151.522 184.061C151.211 183.754 150.746 183.601 150.128 183.601C149.485 183.601 148.978 183.744 148.607 184.029C148.24 184.31 147.987 184.624 147.846 184.969L146.05 184.56C146.263 183.963 146.574 183.482 146.983 183.115C147.397 182.744 147.872 182.476 148.409 182.31C148.946 182.139 149.51 182.054 150.103 182.054C150.495 182.054 150.91 182.101 151.349 182.195C151.792 182.284 152.206 182.45 152.589 182.693C152.977 182.936 153.294 183.283 153.542 183.735C153.789 184.183 153.912 184.764 153.912 185.48V192H152.046V190.658H151.969C151.846 190.905 151.66 191.148 151.413 191.386C151.166 191.625 150.848 191.823 150.461 191.981C150.073 192.139 149.608 192.217 149.067 192.217ZM149.483 190.683C150.011 190.683 150.463 190.579 150.838 190.37C151.217 190.161 151.505 189.889 151.701 189.552C151.901 189.211 152.001 188.847 152.001 188.459V187.193C151.933 187.261 151.801 187.325 151.605 187.385C151.413 187.44 151.194 187.489 150.946 187.532C150.699 187.57 150.458 187.607 150.224 187.641C149.99 187.671 149.794 187.696 149.636 187.717C149.265 187.764 148.926 187.843 148.62 187.954C148.317 188.065 148.074 188.225 147.891 188.433C147.712 188.638 147.623 188.911 147.623 189.252C147.623 189.725 147.797 190.082 148.147 190.325C148.496 190.564 148.941 190.683 149.483 190.683Z" fill="white"/>
<path d="M175.297 186.171V192H173.386V178.909H175.271V183.78H175.393C175.623 183.252 175.974 182.832 176.447 182.521C176.92 182.21 177.538 182.054 178.301 182.054C178.974 182.054 179.562 182.193 180.065 182.47C180.572 182.747 180.964 183.16 181.241 183.71C181.523 184.255 181.663 184.937 181.663 185.755V192H179.752V185.985C179.752 185.265 179.567 184.707 179.196 184.31C178.825 183.91 178.31 183.71 177.649 183.71C177.197 183.71 176.793 183.805 176.435 183.997C176.081 184.189 175.802 184.47 175.597 184.841C175.397 185.207 175.297 185.651 175.297 186.171Z" fill="white"/>
<path d="M184.214 192V182.182H186.061V183.742H186.163C186.342 183.213 186.658 182.798 187.109 182.495C187.565 182.188 188.081 182.035 188.656 182.035C188.776 182.035 188.916 182.039 189.078 182.048C189.244 182.056 189.374 182.067 189.468 182.08V183.908C189.391 183.886 189.255 183.863 189.059 183.837C188.863 183.808 188.667 183.793 188.471 183.793C188.019 183.793 187.616 183.889 187.263 184.08C186.913 184.268 186.636 184.53 186.432 184.867C186.227 185.199 186.125 185.578 186.125 186.004V192H184.214Z" fill="white"/>
<path d="M194.906 192.198C193.986 192.198 193.182 191.987 192.496 191.565C191.81 191.144 191.278 190.553 190.898 189.795C190.519 189.036 190.329 188.15 190.329 187.136C190.329 186.117 190.519 185.227 190.898 184.464C191.278 183.701 191.81 183.109 192.496 182.687C193.182 182.265 193.986 182.054 194.906 182.054C195.827 182.054 196.63 182.265 197.316 182.687C198.002 183.109 198.535 183.701 198.914 184.464C199.293 185.227 199.483 186.117 199.483 187.136C199.483 188.15 199.293 189.036 198.914 189.795C198.535 190.553 198.002 191.144 197.316 191.565C196.63 191.987 195.827 192.198 194.906 192.198ZM194.912 190.594C195.509 190.594 196.003 190.436 196.395 190.121C196.787 189.805 197.077 189.386 197.265 188.862C197.456 188.337 197.552 187.76 197.552 187.129C197.552 186.503 197.456 185.928 197.265 185.404C197.077 184.875 196.787 184.451 196.395 184.131C196.003 183.812 195.509 183.652 194.912 183.652C194.312 183.652 193.813 183.812 193.417 184.131C193.025 184.451 192.733 184.875 192.541 185.404C192.354 185.928 192.26 186.503 192.26 187.129C192.26 187.76 192.354 188.337 192.541 188.862C192.733 189.386 193.025 189.805 193.417 190.121C193.813 190.436 194.312 190.594 194.912 190.594Z" fill="white"/>
<path d="M207.836 187.928V182.182H209.753V192H207.874V190.3H207.772C207.546 190.824 207.184 191.261 206.685 191.61C206.191 191.955 205.575 192.128 204.838 192.128C204.207 192.128 203.649 191.989 203.163 191.712C202.681 191.431 202.302 191.016 202.025 190.466C201.752 189.916 201.616 189.237 201.616 188.427V182.182H203.527V188.197C203.527 188.866 203.713 189.399 204.083 189.795C204.454 190.191 204.936 190.389 205.528 190.389C205.886 190.389 206.242 190.3 206.596 190.121C206.953 189.942 207.25 189.671 207.484 189.309C207.723 188.947 207.84 188.487 207.836 187.928Z" fill="white"/>
<path d="M216.438 195.886C215.658 195.886 214.987 195.784 214.424 195.58C213.866 195.375 213.41 195.105 213.056 194.768C212.703 194.431 212.438 194.063 212.264 193.662L213.906 192.984C214.021 193.172 214.175 193.37 214.367 193.579C214.563 193.792 214.827 193.973 215.159 194.122C215.496 194.271 215.928 194.346 216.457 194.346C217.181 194.346 217.78 194.169 218.253 193.815C218.726 193.466 218.963 192.908 218.963 192.141V190.21H218.841C218.726 190.419 218.56 190.651 218.342 190.907C218.129 191.163 217.835 191.384 217.46 191.572C217.085 191.759 216.597 191.853 215.997 191.853C215.221 191.853 214.522 191.672 213.9 191.31C213.282 190.943 212.792 190.404 212.43 189.693C212.072 188.977 211.893 188.097 211.893 187.053C211.893 186.009 212.07 185.114 212.423 184.368C212.781 183.622 213.271 183.051 213.894 182.655C214.516 182.254 215.221 182.054 216.009 182.054C216.619 182.054 217.111 182.156 217.486 182.361C217.861 182.561 218.153 182.796 218.362 183.064C218.575 183.332 218.739 183.569 218.854 183.774H218.995V182.182H220.867V192.217C220.867 193.061 220.671 193.754 220.279 194.295C219.887 194.836 219.357 195.237 218.688 195.497C218.023 195.756 217.273 195.886 216.438 195.886ZM216.419 190.268C216.968 190.268 217.433 190.14 217.812 189.884C218.195 189.624 218.485 189.254 218.681 188.772C218.882 188.286 218.982 187.705 218.982 187.027C218.982 186.367 218.884 185.785 218.688 185.282C218.492 184.779 218.204 184.387 217.825 184.106C217.445 183.82 216.977 183.678 216.419 183.678C215.843 183.678 215.364 183.827 214.98 184.125C214.597 184.419 214.307 184.82 214.111 185.327C213.919 185.834 213.823 186.401 213.823 187.027C213.823 187.671 213.921 188.235 214.117 188.721C214.313 189.207 214.603 189.586 214.987 189.859C215.374 190.131 215.852 190.268 216.419 190.268Z" fill="white"/>
<path d="M225.342 186.171V192H223.431V178.909H225.316V183.78H225.438C225.668 183.252 226.019 182.832 226.492 182.521C226.965 182.21 227.583 182.054 228.346 182.054C229.019 182.054 229.607 182.193 230.11 182.47C230.617 182.747 231.009 183.16 231.286 183.71C231.568 184.255 231.708 184.937 231.708 185.755V192H229.797V185.985C229.797 185.265 229.612 184.707 229.241 184.31C228.87 183.91 228.355 183.71 227.694 183.71C227.242 183.71 226.838 183.805 226.48 183.997C226.126 184.189 225.847 184.47 225.642 184.841C225.442 185.207 225.342 185.651 225.342 186.171Z" fill="white"/>
<path d="M133.049 212.198C132.128 212.198 131.325 211.987 130.639 211.565C129.953 211.144 129.42 210.553 129.041 209.795C128.662 209.036 128.472 208.15 128.472 207.136C128.472 206.117 128.662 205.227 129.041 204.464C129.42 203.701 129.953 203.109 130.639 202.687C131.325 202.265 132.128 202.054 133.049 202.054C133.969 202.054 134.772 202.265 135.458 202.687C136.145 203.109 136.677 203.701 137.056 204.464C137.436 205.227 137.625 206.117 137.625 207.136C137.625 208.15 137.436 209.036 137.056 209.795C136.677 210.553 136.145 211.144 135.458 211.565C134.772 211.987 133.969 212.198 133.049 212.198ZM133.055 210.594C133.652 210.594 134.146 210.436 134.538 210.121C134.93 209.805 135.22 209.386 135.407 208.862C135.599 208.337 135.695 207.76 135.695 207.129C135.695 206.503 135.599 205.928 135.407 205.404C135.22 204.875 134.93 204.451 134.538 204.131C134.146 203.812 133.652 203.652 133.055 203.652C132.454 203.652 131.956 203.812 131.559 204.131C131.167 204.451 130.875 204.875 130.684 205.404C130.496 205.928 130.402 206.503 130.402 207.129C130.402 207.76 130.496 208.337 130.684 208.862C130.875 209.386 131.167 209.805 131.559 210.121C131.956 210.436 132.454 210.594 133.055 210.594Z" fill="white"/>
<path d="M159.986 206.171V212H158.075V198.909H159.961V203.78H160.082C160.312 203.252 160.664 202.832 161.137 202.521C161.61 202.21 162.228 202.054 162.991 202.054C163.664 202.054 164.252 202.193 164.755 202.47C165.262 202.747 165.654 203.16 165.931 203.71C166.212 204.255 166.353 204.937 166.353 205.755V212H164.442V205.985C164.442 205.265 164.256 204.707 163.885 204.31C163.515 203.91 162.999 203.71 162.339 203.71C161.887 203.71 161.482 203.805 161.124 203.997C160.77 204.189 160.491 204.47 160.287 204.841C160.086 205.207 159.986 205.651 159.986 206.171Z" fill="white"/>
<path d="M183.375 198.909H185.618L189.038 204.86H189.179L192.599 198.909H194.842L190.093 206.861V212H188.124V206.861L183.375 198.909Z" fill="white"/>
<path d="M208.358 212.217C207.736 212.217 207.173 212.102 206.671 211.872C206.168 211.638 205.769 211.299 205.475 210.856C205.186 210.413 205.041 209.869 205.041 209.226C205.041 208.672 205.147 208.216 205.36 207.858C205.573 207.5 205.861 207.217 206.223 207.008C206.585 206.799 206.99 206.641 207.438 206.535C207.885 206.428 208.341 206.347 208.806 206.292C209.394 206.224 209.871 206.168 210.237 206.126C210.604 206.079 210.87 206.004 211.036 205.902C211.203 205.8 211.286 205.634 211.286 205.404V205.359C211.286 204.801 211.128 204.368 210.813 204.061C210.502 203.754 210.037 203.601 209.419 203.601C208.776 203.601 208.269 203.744 207.898 204.029C207.531 204.31 207.278 204.624 207.137 204.969L205.341 204.56C205.554 203.963 205.865 203.482 206.274 203.115C206.688 202.744 207.163 202.476 207.7 202.31C208.237 202.139 208.801 202.054 209.394 202.054C209.786 202.054 210.201 202.101 210.64 202.195C211.083 202.284 211.497 202.45 211.88 202.693C212.268 202.936 212.585 203.283 212.833 203.735C213.08 204.183 213.203 204.764 213.203 205.48V212H211.337V210.658H211.26C211.137 210.905 210.951 211.148 210.704 211.386C210.457 211.625 210.139 211.823 209.752 211.981C209.364 212.139 208.899 212.217 208.358 212.217ZM208.774 210.683C209.302 210.683 209.754 210.579 210.129 210.37C210.508 210.161 210.796 209.889 210.992 209.552C211.192 209.211 211.292 208.847 211.292 208.459V207.193C211.224 207.261 211.092 207.325 210.896 207.385C210.704 207.44 210.485 207.489 210.237 207.532C209.99 207.57 209.749 207.607 209.515 207.641C209.281 207.671 209.085 207.696 208.927 207.717C208.556 207.764 208.218 207.843 207.911 207.954C207.608 208.065 207.365 208.225 207.182 208.433C207.003 208.638 206.914 208.911 206.914 209.252C206.914 209.725 207.088 210.082 207.438 210.325C207.787 210.564 208.232 210.683 208.774 210.683Z" fill="white"/>
<path d="M215.749 212V202.182H217.596V203.742H217.699C217.877 203.213 218.193 202.798 218.645 202.495C219.1 202.188 219.616 202.035 220.191 202.035C220.311 202.035 220.451 202.039 220.613 202.048C220.779 202.056 220.909 202.067 221.003 202.08V203.908C220.926 203.886 220.79 203.863 220.594 203.837C220.398 203.808 220.202 203.793 220.006 203.793C219.554 203.793 219.152 203.889 218.798 204.08C218.449 204.268 218.172 204.53 217.967 204.867C217.762 205.199 217.66 205.578 217.66 206.004V212H215.749Z" fill="white"/>
<path d="M153.101 232V230.568L157.531 225.979C158.004 225.48 158.394 225.043 158.701 224.668C159.012 224.289 159.244 223.929 159.397 223.588C159.551 223.247 159.628 222.885 159.628 222.502C159.628 222.067 159.525 221.692 159.321 221.377C159.116 221.057 158.837 220.812 158.483 220.641C158.13 220.467 157.731 220.379 157.288 220.379C156.819 220.379 156.41 220.475 156.061 220.667C155.711 220.859 155.443 221.129 155.255 221.479C155.068 221.828 154.974 222.237 154.974 222.706H153.089C153.089 221.909 153.272 221.212 153.638 220.616C154.005 220.019 154.508 219.557 155.147 219.229C155.786 218.896 156.513 218.73 157.326 218.73C158.149 218.73 158.873 218.894 159.5 219.222C160.13 219.546 160.623 219.989 160.976 220.552C161.33 221.11 161.507 221.741 161.507 222.444C161.507 222.93 161.415 223.405 161.232 223.869C161.053 224.334 160.74 224.852 160.292 225.423C159.845 225.989 159.223 226.678 158.426 227.487L155.824 230.21V230.306H161.718V232H153.101Z" fill="white"/>
<path d="M168.698 232.217C167.688 232.213 166.825 231.947 166.109 231.418C165.393 230.89 164.846 230.121 164.466 229.111C164.087 228.101 163.897 226.884 163.897 225.461C163.897 224.042 164.087 222.83 164.466 221.824C164.85 220.818 165.4 220.051 166.116 219.523C166.836 218.994 167.696 218.73 168.698 218.73C169.699 218.73 170.558 218.997 171.274 219.529C171.99 220.058 172.537 220.825 172.917 221.83C173.3 222.832 173.492 224.042 173.492 225.461C173.492 226.889 173.302 228.107 172.923 229.117C172.544 230.123 171.996 230.892 171.28 231.425C170.564 231.953 169.704 232.217 168.698 232.217ZM168.698 230.511C169.584 230.511 170.277 230.078 170.775 229.213C171.278 228.348 171.53 227.097 171.53 225.461C171.53 224.374 171.415 223.456 171.184 222.706C170.959 221.952 170.633 221.381 170.206 220.993C169.785 220.601 169.282 220.405 168.698 220.405C167.816 220.405 167.123 220.84 166.62 221.709C166.118 222.578 165.864 223.829 165.86 225.461C165.86 226.552 165.973 227.475 166.199 228.229C166.429 228.979 166.755 229.548 167.177 229.935C167.598 230.319 168.106 230.511 168.698 230.511Z" fill="white"/>
<path d="M175.759 232V230.568L180.189 225.979C180.662 225.48 181.052 225.043 181.359 224.668C181.67 224.289 181.902 223.929 182.056 223.588C182.209 223.247 182.286 222.885 182.286 222.502C182.286 222.067 182.184 221.692 181.979 221.377C181.774 221.057 181.495 220.812 181.142 220.641C180.788 220.467 180.389 220.379 179.946 220.379C179.478 220.379 179.068 220.475 178.719 220.667C178.37 220.859 178.101 221.129 177.914 221.479C177.726 221.828 177.632 222.237 177.632 222.706H175.747C175.747 221.909 175.93 221.212 176.296 220.616C176.663 220.019 177.166 219.557 177.805 219.229C178.444 218.896 179.171 218.73 179.985 218.73C180.807 218.73 181.532 218.894 182.158 219.222C182.789 219.546 183.281 219.989 183.634 220.552C183.988 221.11 184.165 221.741 184.165 222.444C184.165 222.93 184.073 223.405 183.89 223.869C183.711 224.334 183.398 224.852 182.951 225.423C182.503 225.989 181.881 226.678 181.084 227.487L178.483 230.21V230.306H184.376V232H175.759Z" fill="white"/>
<path d="M191.356 232.217C190.346 232.213 189.483 231.947 188.767 231.418C188.051 230.89 187.504 230.121 187.125 229.111C186.745 228.101 186.556 226.884 186.556 225.461C186.556 224.042 186.745 222.83 187.125 221.824C187.508 220.818 188.058 220.051 188.774 219.523C189.494 218.994 190.355 218.73 191.356 218.73C192.358 218.73 193.216 218.997 193.932 219.529C194.648 220.058 195.196 220.825 195.575 221.83C195.958 222.832 196.15 224.042 196.15 225.461C196.15 226.889 195.96 228.107 195.581 229.117C195.202 230.123 194.654 230.892 193.938 231.425C193.223 231.953 192.362 232.217 191.356 232.217ZM191.356 230.511C192.242 230.511 192.935 230.078 193.434 229.213C193.936 228.348 194.188 227.097 194.188 225.461C194.188 224.374 194.073 223.456 193.843 222.706C193.617 221.952 193.291 221.381 192.865 220.993C192.443 220.601 191.94 220.405 191.356 220.405C190.474 220.405 189.782 220.84 189.279 221.709C188.776 222.578 188.522 223.829 188.518 225.461C188.518 226.552 188.631 227.475 188.857 228.229C189.087 228.979 189.413 229.548 189.835 229.935C190.257 230.319 190.764 230.511 191.356 230.511Z" fill="white"/>
<path fill-rule="evenodd" clip-rule="evenodd" d="M137.378 191.578C138.077 191.992 138.91 192.198 139.877 192.198C140.593 192.198 141.23 192.09 141.788 191.872C142.351 191.651 142.817 191.342 143.188 190.945C143.563 190.545 143.823 190.078 143.968 189.546L142.159 189.22C142.044 189.526 141.878 189.784 141.66 189.993C141.443 190.202 141.185 190.359 140.887 190.466C140.589 190.568 140.258 190.619 139.896 190.619C139.338 190.619 138.85 190.5 138.432 190.261C138.015 190.019 137.689 189.667 137.454 189.207C137.24 188.778 137.126 188.265 137.111 187.666H144.089V186.989C144.089 186.098 143.97 185.342 143.731 184.72C143.493 184.093 143.167 183.584 142.753 183.192C142.34 182.8 141.873 182.512 141.354 182.329C140.834 182.146 140.297 182.054 139.743 182.054C138.831 182.054 138.034 182.269 137.352 182.7C136.675 183.13 136.146 183.729 135.767 184.496C135.392 185.263 135.204 186.149 135.204 187.155C135.204 188.173 135.392 189.062 135.767 189.82C136.146 190.575 136.683 191.161 137.378 191.578ZM137.114 186.234H142.216C142.216 185.732 142.114 185.286 141.91 184.899C141.705 184.506 141.417 184.198 141.047 183.972C140.68 183.746 140.25 183.633 139.756 183.633C139.219 183.633 138.75 183.765 138.349 184.029C137.953 184.289 137.646 184.63 137.429 185.052C137.242 185.418 137.137 185.812 137.114 186.234Z" fill="white"/>
<path fill-rule="evenodd" clip-rule="evenodd" d="M171.061 183.716V182.182H169.047V179.83H167.136V182.182H165.698V183.716H167.136V189.514C167.136 190.106 167.27 190.598 167.539 190.99C167.807 191.382 168.159 191.672 168.593 191.859C169.028 192.047 169.497 192.136 169.999 192.128C170.306 192.124 170.562 192.098 170.767 192.051C170.971 192.009 171.129 191.966 171.24 191.923L170.894 190.345C170.83 190.357 170.741 190.374 170.626 190.396C170.511 190.417 170.377 190.428 170.223 190.428C170.014 190.428 169.82 190.396 169.642 190.332C169.467 190.264 169.324 190.138 169.213 189.955C169.102 189.767 169.047 189.488 169.047 189.117V183.716H171.061Z" fill="white"/>
<path fill-rule="evenodd" clip-rule="evenodd" d="M155.75 203.716V202.182H153.737V199.83H151.825V202.182H150.387V203.716H151.825V209.514C151.825 210.106 151.96 210.598 152.228 210.99C152.496 211.382 152.848 211.672 153.283 211.859C153.717 212.047 154.186 212.136 154.689 212.128C154.996 212.124 155.251 212.098 155.456 212.051C155.661 212.009 155.818 211.966 155.929 211.923L155.584 210.345C155.52 210.357 155.43 210.374 155.315 210.396C155.2 210.417 155.066 210.428 154.913 210.428C154.704 210.428 154.51 210.396 154.331 210.332C154.156 210.264 154.013 210.138 153.903 209.955C153.792 209.767 153.737 209.488 153.737 209.117V203.716H155.75Z" fill="white"/>
<path fill-rule="evenodd" clip-rule="evenodd" d="M158.369 192V188.516L159.318 187.567L162.658 192H165.004L160.761 186.396L164.736 182.182H162.447L158.535 186.337H158.369V178.909H156.458V192H158.369Z" fill="white"/>
<path fill-rule="evenodd" clip-rule="evenodd" d="M144.431 203.716V202.182H142.316V201.3C142.316 200.865 142.414 200.533 142.61 200.303C142.81 200.073 143.142 199.957 143.607 199.957C143.807 199.957 143.977 199.977 144.118 200.015C144.259 200.049 144.374 200.079 144.463 200.104L144.911 198.558C144.779 198.506 144.576 198.451 144.303 198.391C144.031 198.327 143.703 198.296 143.319 198.296C142.799 198.296 142.318 198.398 141.874 198.602C141.431 198.803 141.075 199.107 140.807 199.516C140.539 199.921 140.404 200.43 140.404 201.044V202.182H138.883V203.716H140.404V212H142.316V203.716H144.431Z" fill="white"/>
<path fill-rule="evenodd" clip-rule="evenodd" d="M196.669 211.578C197.368 211.992 198.201 212.198 199.168 212.198C199.884 212.198 200.521 212.09 201.079 211.872C201.642 211.651 202.108 211.342 202.479 210.945C202.854 210.545 203.114 210.078 203.259 209.546L201.45 209.22C201.335 209.526 201.169 209.784 200.951 209.993C200.734 210.202 200.476 210.359 200.178 210.466C199.88 210.568 199.549 210.619 199.187 210.619C198.629 210.619 198.141 210.5 197.723 210.261C197.306 210.019 196.98 209.667 196.745 209.207C196.531 208.778 196.417 208.265 196.402 207.666H203.38V206.989C203.38 206.098 203.261 205.342 203.022 204.72C202.784 204.093 202.458 203.584 202.044 203.192C201.631 202.8 201.164 202.512 200.645 202.329C200.125 202.146 199.588 202.054 199.034 202.054C198.122 202.054 197.325 202.269 196.643 202.7C195.966 203.13 195.437 203.729 195.058 204.496C194.683 205.263 194.495 206.149 194.495 207.155C194.495 208.173 194.683 209.062 195.058 209.82C195.437 210.575 195.974 211.161 196.669 211.578ZM196.405 206.234H201.507C201.507 205.732 201.405 205.286 201.201 204.899C200.996 204.506 200.708 204.198 200.338 203.972C199.971 203.746 199.541 203.633 199.047 203.633C198.51 203.633 198.041 203.765 197.64 204.029C197.244 204.289 196.937 204.63 196.72 205.052C196.533 205.418 196.428 205.812 196.405 206.234Z" fill="white"/>
<path fill-rule="evenodd" clip-rule="evenodd" d="M170.635 211.578C171.334 211.992 172.167 212.198 173.135 212.198C173.851 212.198 174.488 212.09 175.046 211.872C175.608 211.651 176.075 211.342 176.446 210.945C176.821 210.545 177.081 210.078 177.226 209.546L175.417 209.22C175.302 209.526 175.135 209.784 174.918 209.993C174.701 210.202 174.443 210.359 174.145 210.466C173.846 210.568 173.516 210.619 173.154 210.619C172.596 210.619 172.108 210.5 171.69 210.261C171.273 210.019 170.947 209.667 170.712 209.207C170.498 208.778 170.383 208.265 170.369 207.666H177.347V206.989C177.347 206.098 177.228 205.342 176.989 204.72C176.751 204.093 176.425 203.584 176.011 203.192C175.598 202.8 175.131 202.512 174.611 202.329C174.091 202.146 173.555 202.054 173.001 202.054C172.089 202.054 171.292 202.269 170.61 202.7C169.932 203.13 169.404 203.729 169.025 204.496C168.65 205.263 168.462 206.149 168.462 207.155C168.462 208.173 168.65 209.062 169.025 209.82C169.404 210.575 169.941 211.161 170.635 211.578ZM170.372 206.234H175.474C175.474 205.732 175.372 205.286 175.167 204.899C174.963 204.506 174.675 204.198 174.305 203.972C173.938 203.746 173.508 203.633 173.013 203.633C172.476 203.633 172.008 203.765 171.607 204.029C171.211 204.289 170.904 204.63 170.687 205.052C170.5 205.418 170.395 205.812 170.372 206.234Z" fill="white"/>
<path d="M149.474 257.091H151.126V264.266C151.126 265.029 150.946 265.706 150.588 266.295C150.229 266.881 149.725 267.343 149.075 267.68C148.425 268.014 147.663 268.181 146.79 268.181C145.92 268.181 145.16 268.014 144.51 267.68C143.86 267.343 143.356 266.881 142.997 266.295C142.638 265.706 142.459 265.029 142.459 264.266V257.091H144.105V264.133C144.105 264.626 144.213 265.065 144.43 265.448C144.65 265.832 144.961 266.134 145.362 266.354C145.763 266.571 146.239 266.679 146.79 266.679C147.344 266.679 147.821 266.571 148.222 266.354C148.627 266.134 148.936 265.832 149.149 265.448C149.366 265.065 149.474 264.626 149.474 264.133V257.091Z" fill="white"/>
<path d="M153.519 268V257.091H155.165V262.3H155.298L159.873 257.091H161.945L157.546 262.002L161.961 268H159.98L156.454 263.126L155.165 264.607V268H153.519Z" fill="white"/>
<path d="M185.296 257.091V268H183.65V257.091H185.296Z" fill="white"/>
<path d="M196.498 257.091V268H194.986L189.441 259.999H189.339V268H187.693V257.091H189.217L194.767 265.102H194.868V257.091H196.498Z" fill="white"/>
<path d="M198.899 268V257.091H205.739V258.508H200.545V261.832H205.382V263.243H200.545V266.583H205.803V268H198.899Z" fill="white"/>
<path fill-rule="evenodd" clip-rule="evenodd" d="M163.479 268V257.091H167.368C168.213 257.091 168.915 257.236 169.472 257.528C170.033 257.819 170.452 258.222 170.729 258.737C171.006 259.248 171.145 259.839 171.145 260.511C171.145 261.178 171.004 261.766 170.724 262.274C170.447 262.778 170.028 263.17 169.467 263.451C169.365 263.502 169.258 263.549 169.146 263.591L171.56 268H169.685L167.469 263.871C166.688 263.882 165.906 263.872 165.125 263.872V268H163.479ZM168.513 262.226C168.179 262.378 167.746 262.455 167.214 262.455H165.125V258.502H167.192C167.736 258.502 168.174 258.584 168.508 258.747C168.845 258.907 169.092 259.138 169.248 259.44C169.408 259.742 169.488 260.099 169.488 260.511C169.488 260.919 169.41 261.269 169.254 261.56C169.097 261.851 168.851 262.073 168.513 262.226Z" fill="white"/>
<path fill-rule="evenodd" clip-rule="evenodd" d="M174.069 268H172.322L176.248 257.091H178.149L182.075 268H180.328L179.33 265.113H175.068L174.069 268ZM177.158 259.072H177.244L178.852 263.728H175.547L177.158 259.072Z" fill="white"/>
</svg>
