<svg viewBox="0 0 348 348" fill="none" xmlns="http://www.w3.org/2000/svg">
<path fill-rule="evenodd" clip-rule="evenodd" d="M163.928 230.48V234.562C163.928 235.254 163.912 235.945 163.895 236.636C163.879 237.328 163.862 238.019 163.862 238.711C163.994 241.805 165.377 243.386 168.142 243.452C171.435 243.517 173.081 242.2 173.213 239.04C173.344 236.142 173.344 233.245 173.213 230.348C173.081 227.516 171.171 225.936 168.274 226.002C165.64 226.068 163.994 227.714 163.928 230.48ZM170.842 230.15C170.886 231.162 170.871 232.204 170.857 233.235V233.238C170.849 233.75 170.842 234.258 170.842 234.76C170.842 236.274 170.842 237.789 170.776 239.369C170.776 241.015 170.052 241.674 168.472 241.674C166.957 241.674 166.299 240.752 166.299 239.369C166.299 238.337 166.291 237.304 166.284 236.275L166.284 236.269C166.269 234.213 166.255 232.167 166.299 230.15C166.365 228.57 167.221 227.78 168.669 227.78C169.92 227.78 170.776 228.702 170.842 230.15Z" fill="white"/>
<path d="M147.005 236.735C146.693 236.501 146.278 236.513 145.895 236.525C145.307 236.543 144.792 236.558 144.832 235.681C144.883 234.508 145.685 234.639 146.411 234.758C146.623 234.792 146.827 234.825 147.005 234.825C147.327 234.816 147.602 234.797 147.837 234.782C149.194 234.691 149.234 234.688 149.178 236.933V242.991C147.993 243.715 147.598 243.056 147.466 241.871C146.544 242.793 145.754 243.452 144.569 243.517C142.33 243.649 140.486 242.135 140.223 239.962C139.894 236.603 139.96 233.179 140.223 229.821C140.355 227.319 142.001 226.002 144.635 226.002C147.269 226.002 148.717 227.319 148.915 229.755C148.926 229.853 148.94 229.95 148.955 230.048C149.028 230.545 149.102 231.049 148.717 231.599C147.466 231.928 146.676 231.731 146.742 230.084C146.808 228.767 146.149 227.846 144.701 227.911C143.252 227.911 142.528 228.57 142.462 230.084C142.396 233.245 142.33 236.406 142.528 239.566C142.594 240.883 143.186 241.608 144.503 241.674C145.886 241.739 146.676 240.949 146.939 239.698C147.137 238.71 147.203 237.723 147.005 236.735Z" fill="white"/>
<path fill-rule="evenodd" clip-rule="evenodd" d="M180.366 226.209C179.511 226.218 178.648 226.226 177.756 226.134V243.254C178.378 243.254 178.993 243.261 179.6 243.269C180.792 243.283 181.955 243.298 183.09 243.254C184.67 243.122 185.79 242.266 186.251 240.752C187.041 238.184 187.107 235.813 184.209 234.299C184.328 234.18 184.429 234.071 184.522 233.969C184.689 233.789 184.831 233.635 184.999 233.508C186.514 232.323 186.382 230.743 186.053 229.163C185.79 227.648 184.934 226.594 183.287 226.331C182.305 226.191 181.341 226.2 180.366 226.209ZM180.91 241.582C180.675 241.564 180.4 241.542 180.061 241.542V236.142C179.995 235.286 180.324 235.089 181.114 235.089C183.287 235.089 184.341 236.011 184.407 238.052C184.473 240.883 183.88 241.542 181.378 241.608C181.237 241.608 181.084 241.596 180.91 241.582ZM180.127 233.245V227.911C180.491 227.945 180.855 227.936 181.209 227.928C182.262 227.903 183.223 227.881 183.814 228.965C184.473 230.15 184.341 231.467 183.617 232.521C182.925 233.532 181.932 233.425 180.882 233.312C180.633 233.285 180.38 233.258 180.127 233.245Z" fill="white"/>
<path fill-rule="evenodd" clip-rule="evenodd" d="M199.288 243.122C197.05 243.847 196.918 242.332 196.918 241.015C196.852 239.435 196.325 238.974 194.679 238.908C192.699 238.846 192.638 240.121 192.583 241.259L192.577 241.383L192.572 241.476C192.506 243.188 191.65 243.517 190.07 243.188C190.3 241.97 190.547 240.752 190.794 239.534C191.041 238.315 191.288 237.097 191.518 235.879C192.045 233.245 192.638 230.545 193.23 227.911C193.266 227.771 193.29 227.623 193.315 227.476C193.429 226.798 193.543 226.122 194.679 226.068C196.002 226.005 196.119 226.846 196.243 227.726L196.259 227.846C197.313 232.916 198.301 237.986 199.288 243.122ZM194.481 230.282C194.514 231.42 194.274 232.526 194.03 233.648C193.78 234.797 193.526 235.963 193.56 237.196C193.793 237.196 194.018 237.209 194.24 237.221C194.894 237.258 195.522 237.293 196.259 236.998C196.016 236.173 195.863 235.329 195.71 234.487C195.449 233.047 195.188 231.612 194.481 230.282Z" fill="white"/>
<path d="M153.985 226.265C155.763 225.87 156.356 226.331 156.29 227.977C156.215 230.31 156.225 232.642 156.236 234.975V234.976C156.244 236.726 156.252 238.475 156.224 240.225C156.224 241.344 156.487 241.739 157.607 241.674C158.397 241.608 159.121 241.608 159.911 241.608C160.57 241.608 160.767 242.003 160.767 242.53C160.767 243.122 160.438 243.254 159.911 243.254H154.051C153.985 237.459 153.985 231.862 153.985 226.265Z" fill="white"/>
<path d="M210.087 243.188H203.503V233.311C203.503 231.336 203.503 229.36 203.437 227.385C203.437 226.463 203.7 226.134 204.688 226.134C205.676 226.134 205.873 226.594 205.873 227.45C205.845 229.257 205.853 231.063 205.861 232.869V232.87C205.872 235.278 205.883 237.685 205.807 240.093C205.807 241.41 206.202 241.739 207.388 241.674C207.618 241.641 207.865 241.641 208.112 241.641C208.359 241.641 208.606 241.641 208.836 241.608C210.087 241.41 210.417 241.937 210.087 243.188Z" fill="white"/>
<path d="M162.331 278V276.219H155.277L159.062 271.262C159.429 270.785 159.773 270.301 160.093 269.809C160.413 269.316 160.691 268.816 160.925 268.309C161.167 267.801 161.355 267.293 161.488 266.785C161.628 266.27 161.699 265.762 161.699 265.262C161.699 264.348 161.523 263.551 161.171 262.871C160.827 262.184 160.327 261.652 159.671 261.277C159.023 260.895 158.242 260.703 157.327 260.703C156.265 260.703 155.378 260.941 154.667 261.418C153.956 261.887 153.421 262.52 153.062 263.316C152.71 264.113 152.535 264.992 152.535 265.953H154.609C154.609 265.273 154.702 264.672 154.89 264.148C155.077 263.625 155.37 263.219 155.769 262.93C156.175 262.633 156.695 262.484 157.327 262.484C157.812 262.484 158.226 262.621 158.57 262.895C158.913 263.168 159.175 263.535 159.355 263.996C159.535 264.449 159.624 264.957 159.624 265.52C159.624 265.965 159.566 266.402 159.449 266.832C159.331 267.254 159.12 267.734 158.816 268.273C158.511 268.805 158.07 269.453 157.492 270.219L152.792 276.441V278H162.331Z" fill="white"/>
<path fill-rule="evenodd" clip-rule="evenodd" d="M174.009 270.711V268.109C174.009 266.992 173.939 266.02 173.798 265.191C173.665 264.363 173.466 263.664 173.2 263.094C172.935 262.516 172.614 262.055 172.239 261.711C171.872 261.359 171.45 261.105 170.974 260.949C170.505 260.785 169.993 260.703 169.439 260.703C168.751 260.703 168.126 260.828 167.564 261.078C167.009 261.328 166.528 261.742 166.122 262.32C165.724 262.891 165.415 263.648 165.196 264.594C164.978 265.539 164.868 266.711 164.868 268.109V270.711C164.868 271.828 164.939 272.805 165.079 273.641C165.22 274.477 165.423 275.188 165.689 275.773C165.954 276.359 166.275 276.836 166.65 277.203C167.025 277.562 167.446 277.824 167.915 277.988C168.392 278.152 168.903 278.234 169.45 278.234C170.146 278.234 170.771 278.105 171.325 277.848C171.888 277.582 172.368 277.156 172.767 276.57C173.165 275.984 173.47 275.211 173.681 274.25C173.9 273.289 174.009 272.109 174.009 270.711ZM171.946 267.746V271.062C171.946 272.016 171.892 272.836 171.782 273.523C171.681 274.203 171.525 274.762 171.314 275.199C171.103 275.629 170.841 275.945 170.528 276.148C170.224 276.352 169.864 276.453 169.45 276.453C169.138 276.453 168.849 276.391 168.583 276.266C168.318 276.133 168.083 275.93 167.88 275.656C167.677 275.383 167.505 275.035 167.364 274.613C167.232 274.184 167.126 273.676 167.048 273.09C166.978 272.504 166.943 271.828 166.943 271.062V267.746C166.943 266.785 166.997 265.969 167.107 265.297C167.216 264.625 167.376 264.082 167.587 263.668C167.806 263.254 168.068 262.953 168.372 262.766C168.685 262.57 169.04 262.473 169.439 262.473C169.759 262.473 170.052 262.535 170.318 262.66C170.583 262.777 170.818 262.965 171.021 263.223C171.224 263.48 171.392 263.816 171.525 264.23C171.665 264.645 171.771 265.145 171.841 265.73C171.911 266.309 171.946 266.98 171.946 267.746Z" fill="white"/>
<path d="M186.53 278V276.219H179.475L183.261 271.262C183.628 270.785 183.972 270.301 184.292 269.809C184.612 269.316 184.89 268.816 185.124 268.309C185.366 267.801 185.554 267.293 185.686 266.785C185.827 266.27 185.897 265.762 185.897 265.262C185.897 264.348 185.722 263.551 185.37 262.871C185.026 262.184 184.526 261.652 183.87 261.277C183.222 260.895 182.44 260.703 181.526 260.703C180.464 260.703 179.577 260.941 178.866 261.418C178.155 261.887 177.62 262.52 177.261 263.316C176.909 264.113 176.733 264.992 176.733 265.953H178.807C178.807 265.273 178.901 264.672 179.089 264.148C179.276 263.625 179.569 263.219 179.968 262.93C180.374 262.633 180.893 262.484 181.526 262.484C182.011 262.484 182.425 262.621 182.768 262.895C183.112 263.168 183.374 263.535 183.554 263.996C183.733 264.449 183.823 264.957 183.823 265.52C183.823 265.965 183.765 266.402 183.647 266.832C183.53 267.254 183.319 267.734 183.015 268.273C182.71 268.805 182.268 269.453 181.69 270.219L176.991 276.441V278H186.53Z" fill="white"/>
<path d="M198.63 278V276.219H191.575L195.36 271.262C195.727 270.785 196.071 270.301 196.391 269.809C196.712 269.316 196.989 268.816 197.223 268.309C197.465 267.801 197.653 267.293 197.786 266.785C197.926 266.27 197.997 265.762 197.997 265.262C197.997 264.348 197.821 263.551 197.469 262.871C197.126 262.184 196.626 261.652 195.969 261.277C195.321 260.895 194.54 260.703 193.626 260.703C192.563 260.703 191.676 260.941 190.965 261.418C190.255 261.887 189.719 262.52 189.36 263.316C189.008 264.113 188.833 264.992 188.833 265.953H190.907C190.907 265.273 191.001 264.672 191.188 264.148C191.376 263.625 191.669 263.219 192.067 262.93C192.473 262.633 192.993 262.484 193.626 262.484C194.11 262.484 194.524 262.621 194.868 262.895C195.212 263.168 195.473 263.535 195.653 263.996C195.833 264.449 195.923 264.957 195.923 265.52C195.923 265.965 195.864 266.402 195.747 266.832C195.63 267.254 195.419 267.734 195.114 268.273C194.809 268.805 194.368 269.453 193.79 270.219L189.09 276.441V278H198.63Z" fill="white"/>
<path fill-rule="evenodd" clip-rule="evenodd" d="M174.993 80.8013C174.978 80.2525 174.963 79.7038 174.963 79.1551C175.029 77.6406 175.095 76.0602 175.029 74.6116C174.766 71.385 173.317 70.0681 170.288 70.0022C167.128 69.9364 165.481 71.3192 165.284 74.5457C165.02 77.7723 164.955 81.0647 165.35 84.357C165.745 87.1226 167.457 88.5054 170.354 88.4396C173.054 88.3737 174.766 86.8592 174.963 84.0936C175.051 82.9962 175.022 81.8987 174.993 80.8013ZM167.712 80.2582C167.716 79.8466 167.72 79.435 167.72 79.0234C167.72 78.7078 167.718 78.3922 167.715 78.0761C167.704 76.8093 167.694 75.534 167.852 74.2165C167.918 72.4386 168.642 71.7801 170.222 71.7801C171.803 71.7801 172.461 72.3069 172.527 74.2165V74.2176C172.593 77.4438 172.659 80.6699 172.593 83.8961C172.593 85.674 171.803 86.3325 170.222 86.3325C168.51 86.3325 167.918 85.8057 167.786 83.962C167.687 82.7276 167.7 81.4926 167.712 80.2582Z" fill="white"/>
<path fill-rule="evenodd" clip-rule="evenodd" d="M171.737 119.125C172.198 117.149 172.198 115.108 172.132 113.462C172.132 113.216 172.135 112.982 172.138 112.756C172.148 111.892 172.157 111.15 172 110.367C172 109.511 171.934 108.655 171.737 107.799C171.21 105.099 169.761 104.046 166.864 104.111C164.164 104.243 162.584 105.428 162.321 108.062C161.991 111.684 161.991 115.305 162.387 118.861C162.65 121.298 164.23 122.549 166.93 122.615C169.564 122.746 171.21 121.495 171.737 119.125ZM164.835 115.788C164.843 115.04 164.851 114.29 164.823 113.528C164.823 112.956 164.816 112.383 164.808 111.814L164.808 111.811C164.794 110.677 164.779 109.552 164.823 108.457C164.889 107.009 165.613 106.087 167.193 106.087C168.774 106.087 169.432 106.943 169.498 108.326C169.696 111.816 169.761 115.305 169.432 118.795C169.301 120.178 168.51 120.771 167.259 120.771C165.942 120.771 164.955 120.178 164.889 118.795C164.814 117.78 164.824 116.785 164.835 115.788Z" fill="white"/>
<path d="M226.061 104.638V114.713C225.864 114.713 225.666 114.713 225.469 114.779C225.038 113.789 224.601 112.8 224.163 111.811L224.149 111.778L224.137 111.75C223.245 109.73 222.352 107.711 221.518 105.692L221.503 105.646C221.246 104.876 221.037 104.246 220.003 104.375C219.031 104.528 219.132 105.159 219.226 105.741C219.253 105.908 219.279 106.072 219.279 106.218V121.166C219.279 121.269 219.261 121.377 219.243 121.486C219.191 121.797 219.136 122.125 219.477 122.417C219.575 122.427 219.673 122.44 219.772 122.452C220.336 122.526 220.921 122.602 221.65 122.154V111.157C223.362 114.581 224.81 117.939 226.193 121.363C226.588 122.417 227.115 122.944 228.234 122.285V104.506L228.147 104.491C227.462 104.365 226.883 104.259 226.061 104.638Z" fill="white"/>
<path d="M177.005 104.572C178.37 104.362 179.009 104.264 179.378 104.534C179.703 104.773 179.818 105.297 180.034 106.284C180.577 108.711 181.095 111.137 181.619 113.597L181.62 113.6L181.621 113.604L181.628 113.641C181.927 115.038 182.227 116.447 182.536 117.873C183.268 117.648 183.374 117.134 183.472 116.661L183.472 116.659L183.472 116.658C183.489 116.579 183.505 116.5 183.524 116.425C183.886 114.746 184.231 113.067 184.577 111.388C184.923 109.708 185.269 108.029 185.631 106.35C185.847 105.363 185.961 104.839 186.286 104.6C186.655 104.33 187.294 104.428 188.66 104.638V122.483C188.423 122.673 188.015 122.623 187.461 122.556C187.245 122.53 187.008 122.501 186.75 122.483V111.42C186.651 111.42 186.569 111.404 186.487 111.387C186.404 111.371 186.322 111.355 186.223 111.355C186.193 111.462 186.162 111.568 186.132 111.674L186.079 111.855C185.866 112.592 185.66 113.301 185.499 114.054C185.418 114.418 185.337 114.783 185.256 115.149C184.809 117.17 184.355 119.225 183.853 121.232C183.827 121.346 183.812 121.471 183.796 121.597C183.73 122.121 183.662 122.668 182.865 122.615C182.063 122.561 181.956 122.029 181.838 121.443C181.811 121.308 181.783 121.17 181.746 121.034C181.153 118.071 180.495 115.042 179.836 112.079C179.77 111.881 179.639 111.75 179.112 111.618V122.154C178.37 122.63 177.842 122.596 177.355 122.564C177.237 122.556 177.121 122.549 177.005 122.549V104.572Z" fill="white"/>
<path fill-rule="evenodd" clip-rule="evenodd" d="M122.615 113.857C122.552 114.401 122.582 115.018 122.615 115.681C122.685 117.104 122.765 118.737 121.956 120.31C120.968 122.219 119.586 122.944 117.215 122.549C115.437 122.285 114.054 120.902 113.857 119.059C113.462 115.437 113.528 111.815 113.791 108.26C113.989 105.56 115.569 104.177 118.005 104.177C120.705 104.177 122.417 105.757 122.615 108.457C122.699 109.471 122.675 110.485 122.647 111.673V111.678C122.631 112.34 122.615 113.056 122.615 113.857ZM120.178 113.396C120.178 112.823 120.186 112.25 120.193 111.679V111.671C120.208 110.54 120.222 109.418 120.178 108.326C120.112 107.206 119.651 106.153 118.269 106.087C116.952 106.021 116.359 106.877 116.293 107.996C115.964 111.552 116.03 115.108 116.293 118.598C116.359 119.849 116.952 120.902 118.466 120.705C119.783 120.507 120.178 119.454 120.244 118.334C120.178 116.688 120.178 115.042 120.178 113.396Z" fill="white"/>
<path fill-rule="evenodd" clip-rule="evenodd" d="M108.868 114.747C108.882 115.839 108.895 116.824 108.852 117.808C108.655 121.232 106.548 123.01 103.387 122.549C101.675 122.285 100.556 121.298 100.226 119.651C99.4361 115.569 99.4361 111.42 100.16 107.272C100.49 105.297 101.872 104.309 103.848 104.177C106.153 104.045 107.404 104.836 108.26 106.745C108.922 108.202 108.874 109.659 108.83 110.996C108.808 111.654 108.787 112.283 108.852 112.869C108.852 113.531 108.86 114.145 108.868 114.728V114.747ZM106.35 113.462C106.35 112.889 106.357 112.323 106.365 111.759V111.755C106.379 110.638 106.394 109.529 106.35 108.391C106.284 107.272 105.889 106.218 104.506 106.087C102.926 105.955 102.399 107.074 102.399 108.26C102.268 111.684 102.268 115.174 102.399 118.598C102.465 119.783 103.124 120.902 104.572 120.771C105.889 120.639 106.35 119.586 106.416 118.4C106.416 117.536 106.399 116.705 106.383 115.882V115.878C106.366 115.073 106.35 114.275 106.35 113.462Z" fill="white"/>
<path d="M155.604 110.696C155.573 110.254 155.556 109.843 155.54 109.447C155.523 109.017 155.507 108.605 155.473 108.194C155.341 106.943 154.88 106.021 153.3 106.087C151.851 106.153 151.192 106.877 151.127 108.194C151.094 108.852 151.077 109.511 151.061 110.169C151.044 110.828 151.028 111.486 150.995 112.145C150.995 112.803 150.988 113.462 150.98 114.12C150.966 115.437 150.951 116.754 150.995 118.071C151.061 119.915 151.785 120.705 153.168 120.771C154.617 120.771 155.341 119.981 155.407 118.137C155.44 117.775 155.456 117.396 155.473 117.018C155.489 116.639 155.505 116.26 155.538 115.898C156.329 115.569 156.987 115.701 157.646 115.898C157.874 116.583 157.805 117.318 157.74 118.016L157.74 118.017C157.73 118.124 157.72 118.23 157.711 118.334C157.448 121.232 156.065 122.615 153.431 122.746C150.534 122.878 148.888 121.561 148.559 118.598C148.163 115.174 148.163 111.684 148.559 108.26C148.954 105.231 150.468 104.111 153.761 104.243C156.394 104.375 157.646 105.823 157.777 108.852C157.841 109.833 157.873 110.343 157.635 110.586C157.377 110.848 156.802 110.799 155.604 110.696Z" fill="white"/>
<path fill-rule="evenodd" clip-rule="evenodd" d="M127.619 113.396C127.619 112.823 127.612 112.257 127.604 111.694V111.689C127.59 110.572 127.575 109.463 127.619 108.326C127.751 105.823 129.265 104.375 131.636 104.243C134.27 104.111 136.047 105.494 136.311 107.996C136.64 111.552 136.574 115.108 136.311 118.598C136.113 121.298 134.335 122.746 131.899 122.614C129.265 122.549 127.685 120.968 127.619 118.203C127.553 116.622 127.553 114.976 127.619 113.396ZM129.989 113.198C129.989 113.788 129.982 114.386 129.975 114.986V114.988C129.96 116.194 129.946 117.411 129.989 118.598C130.055 119.717 130.582 120.639 131.833 120.705C133.15 120.771 133.743 119.849 133.875 118.795C134.204 115.24 134.204 111.618 133.875 107.996C133.809 106.877 133.15 106.087 131.833 106.087C130.45 106.087 130.055 107.074 129.989 108.128C129.945 109.273 129.96 110.419 129.975 111.544V111.546C129.982 112.102 129.989 112.654 129.989 113.198Z" fill="white"/>
<path d="M254.112 116.952C254.341 117.375 254.423 117.815 254.505 118.247C254.588 118.688 254.67 119.121 254.903 119.52C255.561 120.639 256.549 121.034 257.668 120.573C258.722 120.178 258.985 119.19 258.919 118.137C258.853 117.215 258.327 116.491 257.668 115.898C257.046 115.342 256.424 114.768 255.802 114.195L255.793 114.187L255.79 114.185L255.78 114.175C255.158 113.603 254.536 113.03 253.915 112.474C252.269 111.025 251.808 109.182 252.203 107.14C252.598 105.099 254.442 103.98 257.01 104.243C259.117 104.441 260.895 106.218 260.829 108.062C260.777 108.943 260.195 109.09 259.596 109.241C259.434 109.282 259.271 109.323 259.117 109.379C258.67 109.111 258.617 108.721 258.568 108.354C258.544 108.181 258.522 108.013 258.458 107.865C258.129 106.943 257.668 106.153 256.549 106.087C255.759 106.021 254.968 106.153 254.573 106.943C254.112 107.93 253.981 109.05 254.837 109.84C256.022 111.025 257.273 112.145 258.59 113.264C260.697 115.108 261.619 117.742 260.895 119.981C260.17 122.088 257.997 123.01 255.298 122.417C253.52 122.022 251.808 119.717 252.071 118.005C252.137 117.281 252.334 117.215 254.112 116.952Z" fill="white"/>
<path fill-rule="evenodd" clip-rule="evenodd" d="M205.122 122.154C206.307 116.622 207.492 111.091 208.612 105.494C208.862 104.303 209.531 104.306 210.389 104.309C210.433 104.309 210.477 104.309 210.521 104.309C211.401 104.309 211.427 104.716 211.461 105.274C211.471 105.426 211.481 105.589 211.509 105.758C211.758 107.087 212.086 108.417 212.41 109.731L212.41 109.732L212.411 109.733C212.6 110.5 212.788 111.261 212.957 112.013C213.748 115.371 214.472 118.795 215.196 122.219C214.435 122.537 213.796 122.487 212.984 122.424L212.892 122.417C212.826 122.066 212.753 121.715 212.679 121.363C212.533 120.661 212.387 119.958 212.299 119.256C212.167 118.4 211.97 117.742 210.916 117.874C210.629 117.927 210.308 117.908 209.986 117.888C209.125 117.836 208.258 117.783 208.019 119.125C207.887 119.651 207.821 120.178 207.756 120.771C207.426 122.68 207.163 122.812 205.122 122.154ZM211.706 116.096C211.399 115.199 211.281 114.283 211.162 113.362C210.976 111.916 210.788 110.458 209.863 109.05C209.778 109.521 209.696 109.976 209.616 110.42C209.259 112.393 208.946 114.124 208.677 115.898C208.778 115.948 208.859 115.999 208.929 116.042C209.041 116.111 209.123 116.161 209.204 116.161C209.863 116.096 210.587 116.096 211.706 116.096Z" fill="white"/>
<path fill-rule="evenodd" clip-rule="evenodd" d="M195.615 104.419H195.618C197.001 104.392 198.362 104.366 199.722 104.506C201.039 104.638 202.027 105.428 202.488 106.811C202.949 108.194 203.014 109.643 202.685 111.025C202.224 113.001 200.71 114.186 198.405 113.988C196.693 113.857 196.364 114.515 196.43 116.03C196.517 117.43 196.488 118.83 196.459 120.249C196.445 120.966 196.43 121.688 196.43 122.417C195.508 122.68 194.718 122.614 193.928 122.483V104.441C194.495 104.441 195.057 104.43 195.615 104.419ZM196.444 109.584V109.586C196.459 109.915 196.474 110.255 196.43 110.564C196.166 112.079 196.957 112.342 198.208 112.211C200.117 112.013 200.71 110.894 200.381 108.128C200.183 106.416 199.393 105.889 197.417 106.021C196.261 106.113 196.339 106.726 196.42 107.356C196.454 107.623 196.489 107.893 196.43 108.128C196.386 108.347 196.4 108.567 196.415 108.786C196.422 108.896 196.43 109.006 196.43 109.116C196.43 109.266 196.437 109.424 196.444 109.584Z" fill="white"/>
<path fill-rule="evenodd" clip-rule="evenodd" d="M179.902 88.0445V70.134C180.416 70.134 180.925 70.1298 181.431 70.1257C182.937 70.1133 184.416 70.1013 185.894 70.1998C186.684 70.2657 187.409 70.7925 187.87 71.5826C189.055 73.4922 189.187 75.5335 188.265 77.5089C187.343 79.4185 185.565 79.8794 183.59 79.6819H182.404V86.2667C182.404 87.2596 182.404 87.7846 182.142 88.0278C181.849 88.3007 181.225 88.2186 179.902 88.0445ZM182.536 71.9777V77.8382C185.697 78.0357 186.487 77.3772 186.421 74.8092C186.421 72.1094 185.763 71.6485 182.536 71.9777Z" fill="white"/>
<path d="M241.206 122.417V104.572H248.12C248.384 104.967 248.384 105.494 248.12 106.218C247.769 106.218 247.418 106.226 247.067 106.233C246.364 106.248 245.662 106.262 244.96 106.218C244.104 106.153 243.774 106.548 243.84 107.404C243.906 108.589 243.906 109.84 243.84 111.025C243.774 112.013 244.169 112.342 245.157 112.408C245.361 112.425 245.613 112.385 245.875 112.344C246.628 112.224 247.462 112.092 247.462 113.264C247.462 114.383 246.598 114.245 245.84 114.124C245.617 114.088 245.403 114.054 245.223 114.054C244.104 114.054 243.774 114.449 243.84 115.503C243.906 116.886 243.906 118.269 243.84 119.586C243.774 120.639 244.235 120.903 245.157 120.837C245.821 120.792 246.485 120.808 247.129 120.822H247.131C247.444 120.83 247.753 120.837 248.054 120.837C248.384 121.429 248.45 121.956 248.186 122.549C245.816 122.417 243.577 122.417 241.206 122.417Z" fill="white"/>
<path d="M152.904 70.1998H161.399C161.794 71.4509 161.596 72.2411 160.214 71.9777C158.633 71.7143 158.567 72.5045 158.567 73.7556C158.611 76.9163 158.597 80.077 158.582 83.2377C158.575 84.818 158.567 86.3983 158.567 87.9787C156.197 88.6372 155.999 88.5055 155.999 86.135C155.999 85.0813 155.995 84.0277 155.991 82.9741C155.979 79.8135 155.966 76.6528 156.065 73.4922C156.065 72.2411 155.736 71.7802 154.485 71.9777C153.168 72.1753 152.707 71.5168 152.904 70.1998Z" fill="white"/>
<path d="M93.6416 122.219C93.106 122.377 92.8267 122.459 92.544 122.473C92.2358 122.488 91.9236 122.423 91.2711 122.285V107.865C90.6832 107.424 90.2411 107.603 89.8091 107.777C89.6606 107.837 89.5132 107.897 89.3615 107.931C89.2862 107.949 89.2096 107.972 89.133 107.995C88.6735 108.132 88.2139 108.269 88.0446 107.535C87.9129 106.877 88.0446 106.35 88.8347 106.153C89.8224 105.889 90.7443 105.362 91.6003 104.704C92.1271 104.309 92.7197 104.243 93.3124 104.441C93.8647 104.641 93.8044 105.072 93.7446 105.499C93.726 105.632 93.7075 105.764 93.7075 105.889C93.6416 111.289 93.6416 116.754 93.6416 122.219Z" fill="white"/>
<path d="M235.938 122.351C235.082 122.549 234.358 122.615 233.502 122.285V104.572C234.202 104.222 234.901 104.337 235.647 104.46C235.743 104.475 235.84 104.491 235.938 104.506V122.351Z" fill="white"/>
<path fill-rule="evenodd" clip-rule="evenodd" d="M174 40C236.978 40 289.808 83.4453 304.155 142H339L320.177 174.5L339 207H303.906C289.205 265.049 236.619 308 174 308C111.381 308 58.7947 265.049 44.0939 207H9L27.8235 174.5L9 142H43.8448C58.192 83.4453 111.022 40 174 40ZM174 296C229.943 296 277.092 258.346 291.484 207H56.5156C70.9084 258.346 118.057 296 174 296ZM56.2399 142H291.76C277.702 90.1433 230.306 52 174 52C117.694 52 70.2977 90.1433 56.2399 142ZM122.4 194.936C111.931 194.936 104 186.622 104 175.561C104 164.467 111.896 156.12 122.4 156.12C127.549 156.12 132.349 158.101 135.896 161.753L136.835 162.728L132.557 167.006L131.584 166.032C129.114 163.561 125.845 162.206 122.4 162.206C115.27 162.206 110.086 167.806 110.086 175.528C110.086 183.214 115.27 188.814 122.4 188.814C125.878 188.814 129.184 187.457 131.618 184.954L132.627 183.946L136.87 188.292L135.931 189.267C132.384 192.92 127.584 194.936 122.4 194.936ZM146.978 155H140.578V195H146.978V155ZM162.699 188.85C164.23 188.85 169.378 188.362 169.378 182.24V167.8H175.778V195H169.378V192.816C167.778 194.277 164.773 194.937 162.651 194.937C159.659 194.937 156.898 193.93 155.055 192.085C152.968 189.999 151.778 186.869 151.778 183.077V167.8H158.178V183.109C158.178 185.269 158.874 188.85 162.699 188.85ZM188.578 158.2H182.178V167.8H177.378V174.2H182.178V195H188.578V174.2H193.378V167.8H188.578V158.2ZM208.28 188.814C210.299 188.814 212.139 188.12 213.533 186.867L214.506 186L218.888 190.311L217.845 191.285C215.338 193.614 211.931 194.901 208.278 194.901C200.417 194.901 194.469 188.921 194.469 181.024C194.469 173.093 200.278 167.32 208.278 167.32C211.864 167.32 215.235 168.606 217.774 170.899L218.854 171.874L214.539 176.187L213.568 175.352C212.139 174.099 210.264 173.438 208.28 173.438C203.725 173.438 200.56 176.57 200.56 181.057C200.56 185.546 203.829 188.814 208.28 188.814ZM241.698 170.171C239.854 168.328 237.694 167.32 234.702 167.32C232.581 167.32 230.178 167.981 228.578 169.44V155H222.178V195H228.578V180.016C228.578 173.895 232.927 173.408 234.458 173.408C238.185 173.408 238.18 176.808 238.178 178.978V195H244.578V179.181C244.578 175.389 243.785 172.259 241.698 170.171ZM211.341 177.856C210.473 176.988 209.296 176.501 208.069 176.501C206.841 176.501 205.664 176.988 204.797 177.856C203.929 178.724 203.441 179.901 203.441 181.128C203.441 182.355 203.929 183.532 204.797 184.4C205.664 185.268 206.841 185.755 208.069 185.755C209.296 185.755 210.473 185.268 211.341 184.4C212.208 183.532 212.696 182.355 212.696 181.128C212.696 179.901 212.208 178.724 211.341 177.856Z" fill="white"/>
</svg>
