<svg viewBox="0 0 348 348" fill="none" xmlns="http://www.w3.org/2000/svg">
<path d="M166.462 81.1084V82.7922H162.092V95H160.147V82.7922H155.777V81.1084H166.462Z" fill="white"/>
<path fill-rule="evenodd" clip-rule="evenodd" d="M167.405 88.0442C167.405 86.8548 167.579 85.8057 167.927 84.897C168.287 83.9883 168.769 83.2332 169.37 82.6318C169.985 82.0171 170.693 81.5561 171.495 81.2487C172.31 80.9413 173.172 80.7877 174.081 80.7877C174.976 80.7877 175.818 80.9413 176.606 81.2487C177.408 81.5561 178.11 82.0171 178.711 82.6318C179.313 83.2332 179.787 83.9883 180.134 84.897C180.495 85.8057 180.676 86.8548 180.676 88.0442C180.676 89.2335 180.495 90.2826 180.134 91.1913C179.787 92.1001 179.313 92.8618 178.711 93.4765C178.11 94.0779 177.408 94.5323 176.606 94.8396C175.818 95.147 174.976 95.3007 174.081 95.3007C173.172 95.3007 172.31 95.147 171.495 94.8396C170.693 94.5323 169.985 94.0779 169.37 93.4765C168.769 92.8618 168.287 92.1001 167.927 91.1913C167.579 90.2826 167.405 89.2335 167.405 88.0442ZM169.45 88.0442C169.45 88.8861 169.557 89.6545 169.771 90.3494C169.985 91.031 170.285 91.6123 170.673 92.0934C171.074 92.5745 171.555 92.9487 172.116 93.2159C172.691 93.4699 173.332 93.5968 174.041 93.5968C174.749 93.5968 175.384 93.4699 175.945 93.2159C176.506 92.9487 176.981 92.5745 177.368 92.0934C177.769 91.6123 178.076 91.031 178.29 90.3494C178.504 89.6545 178.611 88.8861 178.611 88.0442C178.611 87.2023 178.504 86.4405 178.29 85.759C178.076 85.0641 177.769 84.476 177.368 83.9949C176.981 83.5139 176.506 83.1464 175.945 82.8924C175.384 82.6252 174.749 82.4915 174.041 82.4915C173.332 82.4915 172.691 82.6252 172.116 82.8924C171.555 83.1464 171.074 83.5139 170.673 83.9949C170.285 84.476 169.985 85.0641 169.771 85.759C169.557 86.4405 169.45 87.2023 169.45 88.0442Z" fill="white"/>
<path fill-rule="evenodd" clip-rule="evenodd" d="M187.257 80.9681C189.208 80.9681 190.705 81.3422 191.747 82.0906C192.803 82.8256 193.331 83.9281 193.331 85.3981C193.331 86.2 193.184 86.8882 192.89 87.4628C192.609 88.0241 192.195 88.4852 191.647 88.846C191.113 89.1935 190.458 89.4474 189.683 89.6077C188.908 89.7681 188.032 89.8483 187.057 89.8483H185.513V95H183.569V81.3088C184.117 81.1752 184.725 81.0883 185.393 81.0482C186.074 80.9948 186.696 80.9681 187.257 80.9681ZM187.417 82.6719C186.589 82.6719 185.954 82.692 185.513 82.7321V88.1845H186.976C187.645 88.1845 188.246 88.1444 188.781 88.0642C189.315 87.9707 189.763 87.8237 190.124 87.6232C190.498 87.4094 190.785 87.1221 190.986 86.7612C191.186 86.4004 191.286 85.9394 191.286 85.3781C191.286 84.8435 191.179 84.4025 190.966 84.0551C190.765 83.7076 190.484 83.4337 190.124 83.2332C189.776 83.0194 189.369 82.8724 188.901 82.7922C188.433 82.712 187.939 82.6719 187.417 82.6719Z" fill="white"/>
<path fill-rule="evenodd" clip-rule="evenodd" d="M101.996 122.1C102.33 122.114 102.638 122.12 102.918 122.12C105.137 122.12 106.754 121.773 107.769 121.078C108.798 120.37 109.313 119.321 109.313 117.931C109.313 116.982 109.072 116.247 108.591 115.726C108.11 115.205 107.462 114.824 106.647 114.583C107.248 114.343 107.729 113.982 108.09 113.501C108.451 113.006 108.631 112.378 108.631 111.616C108.631 110.935 108.484 110.36 108.19 109.892C107.896 109.425 107.489 109.051 106.967 108.77C106.46 108.476 105.852 108.269 105.143 108.148C104.448 108.028 103.7 107.968 102.898 107.968C102.618 107.968 102.317 107.975 101.996 107.988C101.675 108.001 101.348 108.022 101.014 108.048C100.693 108.075 100.372 108.108 100.052 108.148C99.731 108.189 99.437 108.242 99.1697 108.309V121.779C99.437 121.846 99.731 121.9 100.052 121.94C100.372 121.98 100.693 122.013 101.014 122.04C101.348 122.067 101.675 122.087 101.996 122.1ZM101.094 120.416V115.525H103.6C104.161 115.525 104.669 115.565 105.123 115.646C105.578 115.726 105.965 115.859 106.286 116.046C106.62 116.234 106.874 116.487 107.048 116.808C107.221 117.116 107.308 117.496 107.308 117.951C107.308 118.459 107.188 118.88 106.947 119.214C106.72 119.548 106.413 119.808 106.025 119.995C105.638 120.183 105.183 120.316 104.662 120.396C104.154 120.463 103.613 120.497 103.039 120.497H102.217C101.989 120.483 101.789 120.47 101.615 120.456C101.415 120.443 101.241 120.43 101.094 120.416ZM103.139 113.962H101.094V109.672C101.321 109.645 101.575 109.625 101.856 109.612C102.136 109.598 102.524 109.592 103.018 109.592C103.513 109.592 103.981 109.632 104.422 109.712C104.863 109.792 105.244 109.919 105.564 110.093C105.898 110.253 106.159 110.474 106.346 110.754C106.533 111.022 106.627 111.356 106.627 111.757C106.627 112.184 106.533 112.538 106.346 112.819C106.172 113.1 105.925 113.327 105.604 113.501C105.297 113.674 104.929 113.795 104.502 113.861C104.074 113.928 103.62 113.962 103.139 113.962Z" fill="white"/>
<path d="M119.387 113.06C119.588 112.605 119.688 112.138 119.688 111.656C119.688 110.427 119.32 109.478 118.585 108.81C117.864 108.128 116.775 107.788 115.318 107.788C114.837 107.788 114.389 107.848 113.975 107.968C113.561 108.088 113.187 108.235 112.852 108.409C112.518 108.583 112.231 108.77 111.99 108.97C111.75 109.157 111.57 109.318 111.449 109.451L112.371 110.774C112.465 110.694 112.599 110.581 112.772 110.434C112.946 110.273 113.16 110.126 113.414 109.993C113.668 109.846 113.955 109.719 114.276 109.612C114.596 109.505 114.951 109.451 115.338 109.451C115.659 109.451 115.959 109.498 116.24 109.592C116.534 109.672 116.788 109.806 117.002 109.993C117.216 110.18 117.383 110.414 117.503 110.694C117.637 110.975 117.703 111.316 117.703 111.717C117.703 112.091 117.63 112.445 117.483 112.779C117.349 113.113 117.162 113.441 116.922 113.761C116.695 114.069 116.427 114.383 116.12 114.703C115.826 115.011 115.512 115.325 115.178 115.646C114.777 116.046 114.369 116.461 113.955 116.888C113.541 117.316 113.166 117.77 112.832 118.251C112.498 118.733 112.224 119.247 112.011 119.795C111.81 120.33 111.71 120.911 111.71 121.539V121.759C111.71 121.84 111.717 121.92 111.73 122H120.149V120.416H113.754C113.754 120.189 113.841 119.922 114.015 119.615C114.202 119.307 114.429 118.986 114.697 118.652C114.964 118.318 115.245 117.998 115.539 117.69L116.34 116.888C116.741 116.487 117.142 116.08 117.543 115.666C117.944 115.238 118.305 114.81 118.626 114.383C118.946 113.942 119.2 113.501 119.387 113.06Z" fill="white"/>
<path fill-rule="evenodd" clip-rule="evenodd" d="M126.192 122.1C126.526 122.114 126.833 122.12 127.114 122.12C129.332 122.12 130.949 121.773 131.965 121.078C132.994 120.37 133.508 119.321 133.508 117.931C133.508 116.982 133.268 116.247 132.787 115.726C132.306 115.205 131.658 114.824 130.842 114.583C131.444 114.343 131.925 113.982 132.286 113.501C132.647 113.006 132.827 112.378 132.827 111.616C132.827 110.935 132.68 110.36 132.386 109.892C132.092 109.425 131.684 109.051 131.163 108.77C130.655 108.476 130.047 108.269 129.339 108.148C128.644 108.028 127.896 107.968 127.094 107.968C126.813 107.968 126.513 107.975 126.192 107.988C125.871 108.001 125.544 108.022 125.21 108.048C124.889 108.075 124.568 108.108 124.247 108.148C123.927 108.189 123.633 108.242 123.365 108.309V121.779C123.633 121.846 123.927 121.9 124.247 121.94C124.568 121.98 124.889 122.013 125.21 122.04C125.544 122.067 125.871 122.087 126.192 122.1ZM125.29 120.416V115.525H127.796C128.357 115.525 128.865 115.565 129.319 115.646C129.773 115.726 130.161 115.859 130.482 116.046C130.816 116.234 131.07 116.487 131.243 116.808C131.417 117.116 131.504 117.496 131.504 117.951C131.504 118.459 131.384 118.88 131.143 119.214C130.916 119.548 130.609 119.808 130.221 119.995C129.833 120.183 129.379 120.316 128.858 120.396C128.35 120.463 127.809 120.497 127.234 120.497H126.412C126.185 120.483 125.985 120.47 125.811 120.456C125.611 120.443 125.437 120.43 125.29 120.416ZM127.334 113.962H125.29V109.672C125.517 109.645 125.771 109.625 126.052 109.612C126.332 109.598 126.72 109.592 127.214 109.592C127.709 109.592 128.176 109.632 128.617 109.712C129.058 109.792 129.439 109.919 129.76 110.093C130.094 110.253 130.355 110.474 130.542 110.754C130.729 111.022 130.822 111.356 130.822 111.757C130.822 112.184 130.729 112.538 130.542 112.819C130.368 113.1 130.121 113.327 129.8 113.501C129.493 113.674 129.125 113.795 128.698 113.861C128.27 113.928 127.816 113.962 127.334 113.962Z" fill="white"/>
<path d="M144.193 121.82C144.995 122.14 145.884 122.301 146.859 122.301C147.421 122.301 147.942 122.267 148.423 122.2C148.904 122.134 149.325 122.053 149.686 121.96C150.047 121.866 150.347 121.773 150.588 121.679C150.828 121.572 150.995 121.485 151.089 121.419L150.588 119.815C150.294 119.962 149.853 120.129 149.265 120.316C148.677 120.503 147.935 120.597 147.04 120.597C146.265 120.597 145.583 120.463 144.995 120.196C144.42 119.929 143.939 119.554 143.552 119.073C143.164 118.579 142.87 117.991 142.67 117.309C142.483 116.628 142.389 115.873 142.389 115.044C142.389 114.189 142.496 113.42 142.71 112.739C142.937 112.044 143.258 111.456 143.672 110.975C144.086 110.494 144.588 110.126 145.176 109.872C145.764 109.618 146.425 109.492 147.16 109.492C147.507 109.492 147.848 109.525 148.182 109.592C148.53 109.645 148.844 109.719 149.125 109.812C149.419 109.906 149.679 109.999 149.906 110.093C150.133 110.186 150.307 110.273 150.427 110.353L150.989 108.75C150.909 108.696 150.762 108.616 150.548 108.509C150.334 108.402 150.053 108.295 149.706 108.189C149.372 108.082 148.971 107.988 148.503 107.908C148.049 107.828 147.534 107.788 146.96 107.788C146.051 107.788 145.196 107.948 144.394 108.269C143.592 108.589 142.89 109.057 142.289 109.672C141.688 110.287 141.206 111.048 140.846 111.957C140.498 112.853 140.324 113.882 140.324 115.044C140.324 116.207 140.478 117.243 140.786 118.151C141.106 119.047 141.554 119.802 142.129 120.416C142.703 121.031 143.391 121.499 144.193 121.82Z" fill="white"/>
<path fill-rule="evenodd" clip-rule="evenodd" d="M152.885 111.897C152.537 112.806 152.364 113.855 152.364 115.044C152.364 116.234 152.537 117.283 152.885 118.191C153.246 119.1 153.727 119.862 154.328 120.477C154.943 121.078 155.651 121.532 156.453 121.84C157.268 122.147 158.13 122.301 159.039 122.301C159.934 122.301 160.776 122.147 161.565 121.84C162.366 121.532 163.068 121.078 163.669 120.477C164.271 119.862 164.745 119.1 165.093 118.191C165.453 117.283 165.634 116.234 165.634 115.044C165.634 113.855 165.453 112.806 165.093 111.897C164.745 110.988 164.271 110.233 163.669 109.632C163.068 109.017 162.366 108.556 161.565 108.249C160.776 107.941 159.934 107.788 159.039 107.788C158.13 107.788 157.268 107.941 156.453 108.249C155.651 108.556 154.943 109.017 154.328 109.632C153.727 110.233 153.246 110.988 152.885 111.897ZM154.729 117.349C154.515 116.655 154.408 115.886 154.408 115.044C154.408 114.202 154.515 113.441 154.729 112.759C154.943 112.064 155.243 111.476 155.631 110.995C156.032 110.514 156.513 110.146 157.074 109.892C157.649 109.625 158.29 109.492 158.999 109.492C159.707 109.492 160.342 109.625 160.903 109.892C161.464 110.146 161.939 110.514 162.326 110.995C162.727 111.476 163.035 112.064 163.248 112.759C163.462 113.441 163.569 114.202 163.569 115.044C163.569 115.886 163.462 116.655 163.248 117.349C163.035 118.031 162.727 118.612 162.326 119.093C161.939 119.574 161.464 119.949 160.903 120.216C160.342 120.47 159.707 120.597 158.999 120.597C158.29 120.597 157.649 120.47 157.074 120.216C156.513 119.949 156.032 119.574 155.631 119.093C155.243 118.612 154.943 118.031 154.729 117.349Z" fill="white"/>
<path d="M174.22 118.853C174.447 119.347 174.627 119.755 174.761 120.076H176.325C176.458 119.755 176.632 119.347 176.846 118.853C177.073 118.358 177.313 117.824 177.567 117.249C177.821 116.675 178.089 116.087 178.369 115.485C178.663 114.87 178.937 114.296 179.191 113.761C179.445 113.213 179.679 112.726 179.893 112.298C180.12 111.87 180.3 111.543 180.434 111.316C180.581 112.893 180.701 114.603 180.795 116.447C180.888 118.278 180.968 120.129 181.035 122H182.94C182.712 117.216 182.372 112.585 181.917 108.108H180.213C179.853 108.696 179.465 109.391 179.051 110.193C178.636 110.995 178.222 111.837 177.808 112.719C177.394 113.588 176.993 114.463 176.605 115.345C176.218 116.213 175.863 117.009 175.543 117.73C175.222 117.009 174.868 116.213 174.48 115.345C174.093 114.463 173.692 113.588 173.278 112.719C172.863 111.837 172.449 110.995 172.035 110.193C171.621 109.391 171.233 108.696 170.872 108.108H169.168C169.048 109.111 168.934 110.173 168.827 111.296C168.734 112.418 168.64 113.574 168.547 114.764C168.467 115.94 168.393 117.142 168.326 118.372C168.26 119.588 168.199 120.797 168.146 122H170.05C170.117 120.129 170.197 118.278 170.291 116.447C170.384 114.603 170.505 112.893 170.652 111.316C170.785 111.543 170.959 111.87 171.173 112.298C171.4 112.726 171.641 113.213 171.894 113.761C172.148 114.296 172.416 114.87 172.696 115.485C172.99 116.087 173.264 116.675 173.518 117.249C173.772 117.824 174.006 118.358 174.22 118.853Z" fill="white"/>
<path fill-rule="evenodd" clip-rule="evenodd" d="M194.167 109.091C193.125 108.342 191.628 107.968 189.677 107.968C189.116 107.968 188.494 107.995 187.813 108.048C187.144 108.088 186.536 108.175 185.988 108.309V122H187.933V116.848H189.476C190.452 116.848 191.327 116.768 192.102 116.608C192.877 116.447 193.532 116.193 194.067 115.846C194.615 115.485 195.029 115.024 195.31 114.463C195.604 113.888 195.751 113.2 195.751 112.398C195.751 110.928 195.223 109.826 194.167 109.091ZM187.933 109.732C188.374 109.692 189.009 109.672 189.837 109.672C190.358 109.672 190.853 109.712 191.321 109.792C191.788 109.872 192.196 110.019 192.543 110.233C192.904 110.434 193.185 110.708 193.385 111.055C193.599 111.403 193.706 111.844 193.706 112.378C193.706 112.939 193.606 113.4 193.405 113.761C193.205 114.122 192.918 114.409 192.543 114.623C192.183 114.824 191.735 114.971 191.2 115.064C190.666 115.144 190.064 115.184 189.396 115.184H187.933V109.732Z" fill="white"/>
<path fill-rule="evenodd" clip-rule="evenodd" d="M205.825 120.236C206.026 120.811 206.24 121.399 206.467 122H208.592C208.057 120.53 207.556 119.174 207.088 117.931C206.621 116.675 206.16 115.485 205.705 114.363C205.264 113.24 204.823 112.171 204.382 111.155C203.941 110.126 203.48 109.111 202.999 108.108H201.215C200.734 109.111 200.273 110.126 199.832 111.155C199.391 112.171 198.943 113.24 198.489 114.363C198.048 115.485 197.593 116.675 197.126 117.931C196.658 119.174 196.157 120.53 195.622 122H197.647L198.91 118.452H205.204C205.418 119.053 205.625 119.648 205.825 120.236ZM203.36 113.481C203.787 114.563 204.215 115.686 204.643 116.848H199.471C199.885 115.686 200.3 114.563 200.714 113.481C201.141 112.385 201.589 111.336 202.057 110.333C202.511 111.336 202.946 112.385 203.36 113.481Z" fill="white"/>
<path d="M218.977 120.336C219.365 120.951 219.705 121.506 219.999 122H221.623V108.108H219.719V118.392C219.291 117.684 218.763 116.875 218.135 115.966C217.52 115.058 216.859 114.135 216.151 113.2C215.456 112.251 214.747 111.336 214.026 110.454C213.318 109.558 212.649 108.777 212.021 108.108H210.478V122H212.382V111.155C212.756 111.583 213.164 112.077 213.605 112.639C214.046 113.2 214.5 113.801 214.968 114.443C215.436 115.071 215.903 115.726 216.371 116.407C216.852 117.089 217.313 117.764 217.754 118.432C218.195 119.087 218.603 119.721 218.977 120.336Z" fill="white"/>
<path d="M227.006 108.108H225.062V122H227.006V108.108Z" fill="white"/>
<path d="M230.445 108.108V122H239.426V120.336H232.39V115.525H238.203V113.902H232.39V109.772H238.924V108.108H230.445Z" fill="white"/>
<path d="M248.171 118.532C248.171 119.922 247.156 120.617 245.124 120.617C244.216 120.617 243.447 120.51 242.819 120.296C242.191 120.082 241.723 119.889 241.416 119.715L240.835 121.318C240.982 121.399 241.182 121.499 241.436 121.619C241.703 121.726 242.017 121.833 242.378 121.94C242.739 122.033 243.146 122.114 243.601 122.18C244.069 122.261 244.576 122.301 245.124 122.301C246.741 122.301 247.991 121.973 248.873 121.318C249.768 120.664 250.216 119.728 250.216 118.512C250.216 117.857 250.116 117.303 249.915 116.848C249.715 116.381 249.427 115.98 249.053 115.646C248.692 115.311 248.258 115.024 247.75 114.784C247.256 114.543 246.708 114.302 246.107 114.062C245.679 113.902 245.285 113.741 244.924 113.581C244.576 113.42 244.269 113.247 244.002 113.06C243.734 112.859 243.527 112.632 243.38 112.378C243.233 112.124 243.16 111.81 243.16 111.436C243.16 111.102 243.227 110.815 243.36 110.574C243.507 110.32 243.701 110.113 243.942 109.953C244.182 109.792 244.463 109.672 244.783 109.592C245.104 109.512 245.452 109.471 245.826 109.471C246.561 109.471 247.202 109.558 247.75 109.732C248.312 109.892 248.732 110.059 249.013 110.233L249.635 108.65C249.314 108.436 248.806 108.242 248.111 108.068C247.43 107.881 246.668 107.788 245.826 107.788C244.369 107.788 243.227 108.128 242.398 108.81C241.57 109.492 241.155 110.44 241.155 111.656C241.155 112.244 241.249 112.746 241.436 113.16C241.636 113.574 241.904 113.935 242.238 114.242C242.572 114.536 242.966 114.797 243.42 115.024C243.875 115.238 244.356 115.432 244.864 115.605C245.305 115.766 245.719 115.926 246.107 116.087C246.507 116.247 246.862 116.441 247.169 116.668C247.476 116.882 247.717 117.142 247.891 117.45C248.078 117.744 248.171 118.104 248.171 118.532Z" fill="white"/>
<path d="M160.971 257.656C160.971 258.138 160.871 258.605 160.67 259.06C160.483 259.501 160.229 259.942 159.909 260.383C159.588 260.81 159.227 261.238 158.826 261.666C158.425 262.08 158.024 262.487 157.624 262.888L156.822 263.69C156.528 263.998 156.247 264.318 155.98 264.652C155.713 264.986 155.485 265.307 155.298 265.615C155.125 265.922 155.038 266.189 155.038 266.416H161.432V268H153.013C153 267.92 152.993 267.84 152.993 267.759V267.539C152.993 266.911 153.093 266.33 153.294 265.795C153.508 265.247 153.781 264.733 154.116 264.251C154.45 263.77 154.824 263.316 155.238 262.888C155.652 262.461 156.06 262.046 156.461 261.646C156.795 261.325 157.109 261.011 157.403 260.703C157.71 260.383 157.978 260.069 158.205 259.761C158.445 259.441 158.633 259.113 158.766 258.779C158.913 258.445 158.987 258.091 158.987 257.717C158.987 257.316 158.92 256.975 158.786 256.694C158.666 256.414 158.499 256.18 158.285 255.993C158.071 255.806 157.817 255.672 157.523 255.592C157.243 255.498 156.942 255.451 156.621 255.451C156.234 255.451 155.88 255.505 155.559 255.612C155.238 255.719 154.951 255.846 154.697 255.993C154.443 256.126 154.229 256.273 154.055 256.434C153.882 256.581 153.748 256.694 153.655 256.774L152.732 255.451C152.853 255.318 153.033 255.157 153.274 254.97C153.514 254.77 153.802 254.583 154.136 254.409C154.47 254.235 154.844 254.088 155.258 253.968C155.672 253.848 156.12 253.788 156.601 253.788C158.058 253.788 159.147 254.128 159.869 254.81C160.604 255.478 160.971 256.427 160.971 257.656Z" fill="white"/>
<path fill-rule="evenodd" clip-rule="evenodd" d="M163.927 261.044C163.927 258.719 164.335 256.928 165.15 255.672C165.978 254.416 167.121 253.788 168.578 253.788C170.034 253.788 171.17 254.416 171.985 255.672C172.814 256.928 173.228 258.719 173.228 261.044C173.228 263.369 172.814 265.16 171.985 266.416C171.17 267.673 170.034 268.301 168.578 268.301C167.121 268.301 165.978 267.673 165.15 266.416C164.335 265.16 163.927 263.369 163.927 261.044ZM171.264 261.044C171.264 260.282 171.217 259.561 171.123 258.879C171.043 258.198 170.896 257.603 170.682 257.095C170.482 256.587 170.208 256.186 169.86 255.892C169.513 255.585 169.085 255.431 168.578 255.431C168.07 255.431 167.642 255.585 167.295 255.892C166.947 256.186 166.667 256.587 166.453 257.095C166.252 257.603 166.105 258.198 166.012 258.879C165.932 259.561 165.891 260.282 165.891 261.044C165.891 261.806 165.932 262.528 166.012 263.209C166.105 263.891 166.252 264.485 166.453 264.993C166.667 265.501 166.947 265.909 167.295 266.216C167.642 266.51 168.07 266.657 168.578 266.657C169.085 266.657 169.513 266.51 169.86 266.216C170.208 265.909 170.482 265.501 170.682 264.993C170.896 264.485 171.043 263.891 171.123 263.209C171.217 262.528 171.264 261.806 171.264 261.044Z" fill="white"/>
<path d="M183.601 257.656C183.601 258.138 183.501 258.605 183.3 259.06C183.113 259.501 182.859 259.942 182.538 260.383C182.218 260.81 181.857 261.238 181.456 261.666C181.055 262.08 180.654 262.487 180.253 262.888L179.451 263.69C179.157 263.998 178.877 264.318 178.609 264.652C178.342 264.986 178.115 265.307 177.928 265.615C177.754 265.922 177.667 266.189 177.667 266.416H184.062V268H175.643C175.629 267.92 175.623 267.84 175.623 267.759V267.539C175.623 266.911 175.723 266.33 175.923 265.795C176.137 265.247 176.411 264.733 176.745 264.251C177.079 263.77 177.453 263.316 177.868 262.888C178.282 262.461 178.69 262.046 179.091 261.646C179.425 261.325 179.739 261.011 180.033 260.703C180.34 260.383 180.607 260.069 180.835 259.761C181.075 259.441 181.262 259.113 181.396 258.779C181.543 258.445 181.616 258.091 181.616 257.717C181.616 257.316 181.549 256.975 181.416 256.694C181.296 256.414 181.129 256.18 180.915 255.993C180.701 255.806 180.447 255.672 180.153 255.592C179.872 255.498 179.572 255.451 179.251 255.451C178.863 255.451 178.509 255.505 178.188 255.612C177.868 255.719 177.58 255.846 177.327 255.993C177.073 256.126 176.859 256.273 176.685 256.434C176.511 256.581 176.378 256.694 176.284 256.774L175.362 255.451C175.482 255.318 175.663 255.157 175.903 254.97C176.144 254.77 176.431 254.583 176.765 254.409C177.099 254.235 177.474 254.088 177.888 253.968C178.302 253.848 178.75 253.788 179.231 253.788C180.688 253.788 181.777 254.128 182.498 254.81C183.233 255.478 183.601 256.427 183.601 257.656Z" fill="white"/>
<path d="M194.916 257.656C194.916 258.138 194.815 258.605 194.615 259.06C194.428 259.501 194.174 259.942 193.853 260.383C193.532 260.81 193.172 261.238 192.771 261.666C192.37 262.08 191.969 262.487 191.568 262.888L190.766 263.69C190.472 263.998 190.192 264.318 189.924 264.652C189.657 264.986 189.43 265.307 189.243 265.615C189.069 265.922 188.982 266.189 188.982 266.416H195.377V268H186.958C186.944 267.92 186.937 267.84 186.937 267.759V267.539C186.937 266.911 187.038 266.33 187.238 265.795C187.452 265.247 187.726 264.733 188.06 264.251C188.394 263.77 188.768 263.316 189.183 262.888C189.597 262.461 190.004 262.046 190.405 261.646C190.739 261.325 191.053 261.011 191.348 260.703C191.655 260.383 191.922 260.069 192.149 259.761C192.39 259.441 192.577 259.113 192.711 258.779C192.858 258.445 192.931 258.091 192.931 257.717C192.931 257.316 192.864 256.975 192.731 256.694C192.61 256.414 192.443 256.18 192.23 255.993C192.016 255.806 191.762 255.672 191.468 255.592C191.187 255.498 190.886 255.451 190.566 255.451C190.178 255.451 189.824 255.505 189.503 255.612C189.183 255.719 188.895 255.846 188.641 255.993C188.387 256.126 188.174 256.273 188 256.434C187.826 256.581 187.693 256.694 187.599 256.774L186.677 255.451C186.797 255.318 186.978 255.157 187.218 254.97C187.459 254.77 187.746 254.583 188.08 254.409C188.414 254.235 188.788 254.088 189.203 253.968C189.617 253.848 190.065 253.788 190.546 253.788C192.002 253.788 193.091 254.128 193.813 254.81C194.548 255.478 194.916 256.427 194.916 257.656Z" fill="white"/>
<path d="M148.778 234.164H146.834V239.336C146.66 239.39 146.372 239.45 145.972 239.517C145.584 239.57 145.11 239.597 144.548 239.597C143.76 239.597 143.072 239.463 142.484 239.196C141.909 238.929 141.421 238.554 141.02 238.073C140.633 237.579 140.339 236.991 140.138 236.309C139.951 235.628 139.858 234.873 139.858 234.044C139.858 233.189 139.971 232.42 140.198 231.739C140.426 231.044 140.74 230.456 141.141 229.975C141.555 229.494 142.049 229.126 142.624 228.872C143.212 228.618 143.86 228.492 144.568 228.492C145.237 228.492 145.891 228.578 146.533 228.752C147.174 228.912 147.689 229.12 148.076 229.374L148.698 227.75C148.618 227.696 148.464 227.616 148.237 227.509C148.023 227.402 147.742 227.295 147.395 227.189C147.047 227.082 146.626 226.988 146.132 226.908C145.651 226.828 145.096 226.788 144.468 226.788C143.546 226.788 142.677 226.948 141.862 227.269C141.06 227.589 140.359 228.057 139.757 228.672C139.156 229.287 138.675 230.048 138.314 230.957C137.967 231.853 137.793 232.882 137.793 234.044C137.793 235.207 137.947 236.236 138.254 237.131C138.575 238.027 139.022 238.782 139.597 239.396C140.172 240.011 140.86 240.479 141.662 240.8C142.464 241.12 143.352 241.281 144.328 241.281C144.809 241.281 145.283 241.254 145.751 241.2C146.219 241.16 146.646 241.107 147.034 241.04C147.435 240.973 147.782 240.906 148.076 240.84C148.384 240.773 148.618 240.713 148.778 240.659V234.164Z" fill="white"/>
<path d="M160.181 241V239.316H153.767V227.108H151.822V241H160.181Z" fill="white"/>
<path fill-rule="evenodd" clip-rule="evenodd" d="M161.277 230.897C160.929 231.806 160.755 232.855 160.755 234.044C160.755 235.234 160.929 236.283 161.277 237.191C161.637 238.1 162.118 238.862 162.72 239.477C163.335 240.078 164.043 240.532 164.845 240.84C165.66 241.147 166.522 241.301 167.431 241.301C168.326 241.301 169.168 241.147 169.956 240.84C170.758 240.532 171.46 240.078 172.061 239.477C172.662 238.862 173.137 238.1 173.484 237.191C173.845 236.283 174.026 235.234 174.026 234.044C174.026 232.855 173.845 231.806 173.484 230.897C173.137 229.988 172.662 229.233 172.061 228.632C171.46 228.017 170.758 227.556 169.956 227.249C169.168 226.941 168.326 226.788 167.431 226.788C166.522 226.788 165.66 226.941 164.845 227.249C164.043 227.556 163.335 228.017 162.72 228.632C162.118 229.233 161.637 229.988 161.277 230.897ZM163.121 236.349C162.907 235.654 162.8 234.886 162.8 234.044C162.8 233.202 162.907 232.441 163.121 231.759C163.335 231.064 163.635 230.476 164.023 229.995C164.424 229.514 164.905 229.146 165.466 228.892C166.041 228.625 166.682 228.492 167.39 228.492C168.099 228.492 168.734 228.625 169.295 228.892C169.856 229.146 170.331 229.514 170.718 229.995C171.119 230.476 171.426 231.064 171.64 231.759C171.854 232.441 171.961 233.202 171.961 234.044C171.961 234.886 171.854 235.654 171.64 236.349C171.426 237.031 171.119 237.612 170.718 238.093C170.331 238.574 169.856 238.949 169.295 239.216C168.734 239.47 168.099 239.597 167.39 239.597C166.682 239.597 166.041 239.47 165.466 239.216C164.905 238.949 164.424 238.574 164.023 238.093C163.635 237.612 163.335 237.031 163.121 236.349Z" fill="white"/>
<path fill-rule="evenodd" clip-rule="evenodd" d="M179.745 241.1C180.079 241.114 180.386 241.12 180.667 241.12C182.885 241.12 184.503 240.773 185.518 240.078C186.547 239.37 187.062 238.321 187.062 236.931C187.062 235.982 186.821 235.247 186.34 234.726C185.859 234.205 185.211 233.824 184.396 233.583C184.997 233.343 185.478 232.982 185.839 232.501C186.2 232.006 186.38 231.378 186.38 230.616C186.38 229.935 186.233 229.36 185.939 228.892C185.645 228.425 185.238 228.051 184.716 227.77C184.209 227.476 183.6 227.269 182.892 227.148C182.197 227.028 181.449 226.968 180.647 226.968C180.366 226.968 180.066 226.975 179.745 226.988C179.424 227.001 179.097 227.022 178.763 227.048C178.442 227.075 178.121 227.108 177.801 227.148C177.48 227.189 177.186 227.242 176.919 227.309V240.779C177.186 240.846 177.48 240.9 177.801 240.94C178.121 240.98 178.442 241.013 178.763 241.04C179.097 241.067 179.424 241.087 179.745 241.1ZM178.843 239.416V234.525H181.349C181.91 234.525 182.418 234.565 182.872 234.646C183.326 234.726 183.714 234.859 184.035 235.046C184.369 235.234 184.623 235.487 184.797 235.808C184.97 236.116 185.057 236.496 185.057 236.951C185.057 237.459 184.937 237.88 184.696 238.214C184.469 238.548 184.162 238.808 183.774 238.995C183.387 239.183 182.932 239.316 182.411 239.396C181.903 239.463 181.362 239.497 180.787 239.497H179.966C179.738 239.483 179.538 239.47 179.364 239.456C179.164 239.443 178.99 239.43 178.843 239.416ZM180.888 232.962H178.843V228.672C179.07 228.645 179.324 228.625 179.605 228.612C179.885 228.598 180.273 228.592 180.767 228.592C181.262 228.592 181.73 228.632 182.171 228.712C182.612 228.792 182.992 228.919 183.313 229.093C183.647 229.253 183.908 229.474 184.095 229.754C184.282 230.022 184.376 230.356 184.376 230.757C184.376 231.184 184.282 231.538 184.095 231.819C183.921 232.1 183.674 232.327 183.353 232.501C183.046 232.674 182.678 232.795 182.251 232.861C181.823 232.928 181.369 232.962 180.888 232.962Z" fill="white"/>
<path fill-rule="evenodd" clip-rule="evenodd" d="M198.439 239.236C198.64 239.811 198.853 240.399 199.081 241H201.205C200.671 239.53 200.17 238.174 199.702 236.931C199.234 235.675 198.773 234.485 198.319 233.363C197.878 232.24 197.437 231.171 196.996 230.155C196.555 229.126 196.094 228.111 195.613 227.108H193.829C193.348 228.111 192.886 229.126 192.445 230.155C192.004 231.171 191.557 232.24 191.102 233.363C190.661 234.485 190.207 235.675 189.739 236.931C189.272 238.174 188.77 239.53 188.236 241H190.261L191.523 237.452H197.818C198.032 238.053 198.239 238.648 198.439 239.236ZM195.974 232.481C196.401 233.563 196.829 234.686 197.256 235.848H192.085C192.499 234.686 192.913 233.563 193.327 232.481C193.755 231.385 194.203 230.336 194.671 229.333C195.125 230.336 195.559 231.385 195.974 232.481Z" fill="white"/>
<path d="M211.45 241V239.316H205.036V227.108H203.091V241H211.45Z" fill="white"/>
<path fill-rule="evenodd" clip-rule="evenodd" d="M174.339 33L302.679 103.226V244.774L174.339 315L46 244.774V103.226L174.339 33ZM290.652 110.355L174.339 46.7102L58.0274 110.355V140.925H290.652V110.355ZM58.0274 237.645V207.075H290.652V237.645L174.339 301.29L58.0274 237.645ZM140.793 154.276H147.208V194.367H140.793V154.276ZM169.659 181.578C169.659 187.714 164.5 188.203 162.965 188.203C159.131 188.203 158.434 184.614 158.434 182.449V167.105H152.019V182.417C152.019 186.217 153.212 189.354 155.303 191.445C157.151 193.295 159.919 194.305 162.917 194.305C165.044 194.305 168.055 193.642 169.659 192.178V194.367H176.074V167.105H169.659V181.578ZM182.488 157.483H188.903V167.105H193.714V173.52H188.903V194.367H182.488V173.52H177.677V167.105H182.488V157.483ZM213.915 186.216C212.518 187.471 210.674 188.168 208.65 188.168C204.189 188.168 200.913 184.891 200.913 180.393C200.913 175.895 204.085 172.756 208.65 172.756C210.639 172.756 212.518 173.419 213.95 174.674L214.924 175.511L219.249 171.188L218.166 170.211C215.621 167.913 212.242 166.624 208.649 166.624C200.63 166.624 194.807 172.41 194.807 180.359C194.807 188.275 200.77 194.268 208.649 194.268C212.31 194.268 215.724 192.979 218.237 190.643L219.283 189.667L214.89 185.347L213.915 186.216ZM235.133 166.624C238.132 166.624 240.297 167.635 242.144 169.482C244.237 171.575 245.031 174.711 245.031 178.512V194.367H238.616V178.309C238.619 176.134 238.623 172.726 234.888 172.726C233.353 172.726 228.994 173.214 228.994 179.349V194.367H222.58V154.276H228.994V168.749C230.598 167.287 233.006 166.624 235.133 166.624ZM208.438 175.826C209.668 175.826 210.848 176.314 211.718 177.184C212.587 178.054 213.076 179.234 213.076 180.464C213.076 181.693 212.587 182.873 211.718 183.743C210.848 184.613 209.668 185.101 208.438 185.101C207.208 185.101 206.029 184.613 205.159 183.743C204.289 182.873 203.801 181.693 203.801 180.464C203.801 179.234 204.289 178.054 205.159 177.184C206.029 176.314 207.208 175.826 208.438 175.826ZM131.813 184.298C129.374 186.808 126.061 188.168 122.574 188.168C115.428 188.168 110.233 182.555 110.233 174.851C110.233 167.111 115.428 161.499 122.574 161.499C126.027 161.499 129.303 162.857 131.779 165.333L132.754 166.31L137.042 162.021L136.101 161.045C132.546 157.384 127.735 155.398 122.574 155.398C112.046 155.398 104.132 163.765 104.132 174.884C104.132 185.97 112.082 194.303 122.574 194.303C127.77 194.303 132.581 192.282 136.136 188.621L137.078 187.644L132.825 183.288L131.813 184.298Z" fill="white"/>
</svg>
