<svg viewBox="0 0 348 348" fill="none" xmlns="http://www.w3.org/2000/svg">
<path fill-rule="evenodd" clip-rule="evenodd" d="M198.083 188.548C198.083 201.846 187.303 212.626 174.004 212.626C160.706 212.626 149.926 201.846 149.926 188.548C149.926 175.249 160.706 164.469 174.004 164.469C187.303 164.469 198.083 175.249 198.083 188.548ZM174.004 172.495L177.608 183.587H189.271L179.836 190.442L183.44 201.534L174.004 194.679L164.569 201.534L168.173 190.442L158.738 183.587H170.401L174.004 172.495Z" fill="white"/>
<path fill-rule="evenodd" clip-rule="evenodd" d="M279.349 21H68.6602V261.787L174.004 327L279.349 261.787V21ZM74.6798 53.1049H273.329V176.508H209.119L219.152 188.548L209.119 200.587H273.329V258.434L174.004 319.92L74.6798 258.434V200.587H138.89L128.857 188.548L138.89 176.508H74.6798V53.1049ZM92.5341 186.067L90.7323 180.521L88.9305 186.067H83.0989L87.8165 189.495L86.0147 195.041L90.7323 191.613L95.4499 195.041L93.6481 189.495L98.3656 186.067H92.5341ZM112.804 180.521L114.606 186.067H120.438L115.72 189.495L117.522 195.041L112.804 191.613L108.087 195.041L109.889 189.495L105.171 186.067H111.003L112.804 180.521ZM235.204 180.521L237.006 186.067H242.838L238.12 189.495L239.922 195.041L235.204 191.613L230.487 195.041L232.289 189.495L227.571 186.067H233.403L235.204 180.521ZM259.078 186.067L257.277 180.521L255.475 186.067H249.643L254.361 189.495L252.559 195.041L257.277 191.613L261.994 195.041L260.192 189.495L264.91 186.067H259.078Z" fill="white"/>
<path d="M140.278 121.249H137.12L137.145 119.249H140.278C141.391 119.249 142.295 119.037 142.991 118.613C143.688 118.18 144.201 117.543 144.532 116.702C144.864 115.853 145.029 114.804 145.029 113.556V110.385C145.029 109.4 144.936 108.55 144.749 107.837C144.562 107.124 144.282 106.538 143.908 106.079C143.535 105.621 143.063 105.281 142.494 105.061C141.926 104.831 141.259 104.717 140.495 104.717H137.056V102.704H140.495C141.539 102.704 142.482 102.87 143.322 103.201C144.163 103.524 144.885 104.012 145.488 104.666C146.091 105.311 146.549 106.113 146.863 107.073C147.186 108.032 147.347 109.145 147.347 110.41V113.556C147.347 114.821 147.186 115.934 146.863 116.893C146.549 117.853 146.086 118.655 145.475 119.3C144.864 119.946 144.121 120.434 143.246 120.765C142.38 121.088 141.391 121.249 140.278 121.249ZM138.419 102.704V121.249H136.075V102.704H138.419Z" fill="white"/>
<path d="M160.95 119.249V121.249H152.901V119.249H160.95ZM153.321 102.704V121.249H150.977V102.704H153.321ZM159.868 110.678V112.677H152.901V110.678H159.868ZM160.823 102.704V104.717H152.901V102.704H160.823Z" fill="white"/>
<path d="M172.057 116.562C172.057 116.129 172.006 115.747 171.904 115.416C171.802 115.076 171.624 114.77 171.369 114.499C171.114 114.227 170.758 113.968 170.299 113.722C169.841 113.475 169.259 113.225 168.554 112.97C167.79 112.698 167.098 112.397 166.478 112.066C165.858 111.726 165.328 111.34 164.886 110.907C164.453 110.474 164.118 109.977 163.88 109.417C163.642 108.856 163.523 108.215 163.523 107.493C163.523 106.772 163.646 106.105 163.893 105.494C164.147 104.882 164.504 104.352 164.962 103.901C165.429 103.443 165.99 103.086 166.644 102.832C167.298 102.577 168.028 102.449 168.834 102.449C170.04 102.449 171.055 102.717 171.879 103.252C172.711 103.778 173.339 104.47 173.764 105.328C174.188 106.177 174.401 107.086 174.401 108.054H172.057C172.057 107.357 171.942 106.742 171.713 106.207C171.492 105.663 171.144 105.239 170.669 104.933C170.202 104.619 169.59 104.462 168.834 104.462C168.155 104.462 167.595 104.594 167.153 104.857C166.72 105.12 166.397 105.477 166.185 105.927C165.981 106.377 165.88 106.89 165.88 107.468C165.88 107.858 165.947 108.215 166.083 108.538C166.219 108.852 166.427 109.145 166.707 109.417C166.996 109.688 167.353 109.939 167.777 110.168C168.21 110.397 168.72 110.618 169.306 110.83C170.214 111.128 170.991 111.459 171.637 111.824C172.282 112.189 172.808 112.601 173.216 113.059C173.624 113.509 173.921 114.023 174.108 114.601C174.303 115.169 174.401 115.815 174.401 116.537C174.401 117.292 174.273 117.976 174.018 118.587C173.772 119.199 173.411 119.721 172.936 120.154C172.46 120.587 171.887 120.922 171.216 121.16C170.545 121.389 169.79 121.504 168.949 121.504C168.219 121.504 167.501 121.385 166.797 121.147C166.1 120.91 165.468 120.553 164.899 120.077C164.33 119.602 163.876 119.016 163.536 118.32C163.196 117.615 163.026 116.8 163.026 115.874H165.37C165.37 116.511 165.463 117.059 165.65 117.517C165.837 117.967 166.096 118.341 166.427 118.638C166.758 118.935 167.136 119.156 167.561 119.3C167.994 119.436 168.457 119.504 168.949 119.504C169.628 119.504 170.197 119.385 170.656 119.148C171.123 118.91 171.471 118.57 171.7 118.129C171.938 117.687 172.057 117.165 172.057 116.562Z" fill="white"/>
<path d="M179.916 102.704V121.249H177.572V102.704H179.916Z" fill="white"/>
<path d="M195.608 112.015V118.931C195.404 119.203 195.094 119.542 194.678 119.95C194.27 120.358 193.697 120.718 192.958 121.033C192.219 121.347 191.251 121.504 190.054 121.504C189.095 121.504 188.216 121.343 187.418 121.02C186.628 120.697 185.944 120.213 185.367 119.568C184.798 118.914 184.357 118.103 184.042 117.135C183.728 116.159 183.571 115.017 183.571 113.709V110.232C183.571 108.933 183.703 107.795 183.966 106.818C184.229 105.842 184.62 105.031 185.138 104.385C185.664 103.74 186.314 103.256 187.087 102.933C187.868 102.611 188.776 102.449 189.812 102.449C191.009 102.449 192.028 102.674 192.869 103.125C193.71 103.575 194.359 104.224 194.818 105.073C195.285 105.922 195.548 106.941 195.608 108.13H193.264C193.204 107.366 193.043 106.712 192.78 106.169C192.517 105.617 192.143 105.196 191.659 104.908C191.175 104.611 190.559 104.462 189.812 104.462C189.099 104.462 188.496 104.581 188.004 104.819C187.511 105.056 187.108 105.413 186.794 105.888C186.488 106.364 186.263 106.963 186.119 107.684C185.983 108.406 185.915 109.247 185.915 110.206V113.709C185.915 114.694 186.012 115.552 186.208 116.282C186.403 117.012 186.679 117.615 187.036 118.09C187.401 118.566 187.838 118.923 188.347 119.16C188.857 119.39 189.43 119.504 190.067 119.504C190.789 119.504 191.358 119.428 191.774 119.275C192.19 119.122 192.508 118.948 192.729 118.753C192.958 118.557 193.141 118.4 193.277 118.281V114.002H189.876V112.015H195.608Z" fill="white"/>
<path d="M211.529 102.704V121.249H209.172L201.747 106.946V121.249H199.403V102.704H201.747L209.211 117.046V102.704H211.529Z" fill="white"/>
<path d="M131.362 146.352H133.706C133.647 147.626 133.388 148.725 132.929 149.651C132.479 150.568 131.821 151.273 130.955 151.765C130.097 152.258 129.023 152.504 127.732 152.504C126.807 152.504 125.97 152.321 125.223 151.956C124.476 151.591 123.835 151.069 123.3 150.39C122.773 149.702 122.37 148.878 122.09 147.919C121.81 146.959 121.67 145.881 121.67 144.683V141.257C121.67 140.068 121.81 138.994 122.09 138.035C122.379 137.075 122.79 136.256 123.325 135.577C123.869 134.889 124.527 134.362 125.3 133.997C126.081 133.632 126.964 133.449 127.949 133.449C129.155 133.449 130.174 133.691 131.006 134.175C131.846 134.651 132.492 135.352 132.942 136.277C133.4 137.194 133.655 138.319 133.706 139.652H131.362C131.303 138.676 131.15 137.882 130.904 137.271C130.658 136.651 130.293 136.196 129.809 135.908C129.333 135.611 128.713 135.462 127.949 135.462C127.27 135.462 126.679 135.598 126.178 135.869C125.686 136.141 125.278 136.532 124.956 137.041C124.642 137.542 124.404 138.149 124.242 138.863C124.09 139.567 124.013 140.357 124.013 141.232V144.683C124.013 145.499 124.077 146.259 124.204 146.963C124.34 147.668 124.552 148.288 124.841 148.823C125.138 149.349 125.525 149.761 126 150.058C126.476 150.356 127.053 150.504 127.732 150.504C128.59 150.504 129.269 150.364 129.77 150.084C130.271 149.804 130.641 149.358 130.878 148.747C131.125 148.135 131.286 147.337 131.362 146.352Z" fill="white"/>
<path d="M148.939 141.372V144.594C148.939 145.902 148.795 147.053 148.506 148.046C148.226 149.031 147.814 149.855 147.271 150.517C146.727 151.179 146.074 151.676 145.309 152.007C144.545 152.338 143.683 152.504 142.724 152.504C141.798 152.504 140.953 152.338 140.189 152.007C139.425 151.676 138.767 151.179 138.215 150.517C137.663 149.855 137.234 149.031 136.928 148.046C136.631 147.053 136.483 145.902 136.483 144.594V141.372C136.483 140.064 136.631 138.918 136.928 137.933C137.226 136.939 137.65 136.111 138.202 135.449C138.754 134.787 139.412 134.29 140.176 133.959C140.941 133.619 141.785 133.449 142.711 133.449C143.671 133.449 144.532 133.619 145.297 133.959C146.069 134.29 146.723 134.787 147.258 135.449C147.802 136.111 148.218 136.939 148.506 137.933C148.795 138.918 148.939 140.064 148.939 141.372ZM146.621 144.594V141.346C146.621 140.327 146.536 139.453 146.367 138.723C146.197 137.984 145.946 137.381 145.615 136.914C145.284 136.447 144.876 136.103 144.392 135.882C143.908 135.653 143.348 135.538 142.711 135.538C142.108 135.538 141.565 135.653 141.081 135.882C140.605 136.103 140.198 136.447 139.858 136.914C139.518 137.381 139.255 137.984 139.068 138.723C138.89 139.453 138.801 140.327 138.801 141.346V144.594C138.801 145.622 138.89 146.505 139.068 147.244C139.255 147.974 139.518 148.577 139.858 149.052C140.206 149.519 140.622 149.867 141.106 150.097C141.59 150.317 142.129 150.428 142.724 150.428C143.361 150.428 143.921 150.317 144.405 150.097C144.898 149.867 145.305 149.519 145.628 149.052C145.959 148.577 146.205 147.974 146.367 147.244C146.536 146.505 146.621 145.622 146.621 144.594Z" fill="white"/>
<path d="M153.308 133.704H155.575L160.428 148.823L165.268 133.704H167.535L161.307 152.249H159.524L153.308 133.704ZM152.569 133.704H154.556L154.9 145.015V152.249H152.569V133.704ZM166.274 133.704H168.261V152.249H165.93V145.015L166.274 133.704Z" fill="white"/>
<path d="M178.196 144.976H174.146V142.977H178.196C178.96 142.977 179.576 142.824 180.043 142.518C180.518 142.212 180.862 141.788 181.075 141.244C181.295 140.701 181.406 140.081 181.406 139.385C181.406 138.748 181.295 138.149 181.075 137.589C180.862 137.029 180.518 136.579 180.043 136.239C179.576 135.891 178.96 135.717 178.196 135.717H174.63V152.249H172.286V133.704H178.196C179.393 133.704 180.404 133.946 181.228 134.43C182.051 134.914 182.675 135.585 183.1 136.443C183.533 137.292 183.749 138.264 183.749 139.359C183.749 140.548 183.533 141.563 183.1 142.404C182.675 143.244 182.051 143.885 181.228 144.327C180.404 144.76 179.393 144.976 178.196 144.976Z" fill="white"/>
<path d="M191.009 135.347L185.94 152.249H183.546L189.519 133.704H191.022L191.009 135.347ZM195.111 152.249L190.041 135.347L190.016 133.704H191.532L197.505 152.249H195.111ZM195.111 145.384V147.396H186.169V145.384H195.111Z" fill="white"/>
<path d="M212.178 133.704V152.249H209.822L202.396 137.946V152.249H200.053V133.704H202.396L209.86 148.046V133.704H212.178Z" fill="white"/>
<path d="M216.916 133.704L220.699 143.015L224.495 133.704H227.144L221.871 145.32V152.249H219.527V145.32L214.254 133.704H216.916Z" fill="white"/>
<path d="M114.663 73.3185H115.677L119.566 84.6054L123.472 73.3185H124.468L119.962 86.1574H119.186L114.663 73.3185ZM114.354 73.3185H115.236L115.36 80.5668V86.1574H114.354V73.3185ZM123.913 73.3185H124.803V86.1574H123.798V80.5668L123.913 73.3185Z" fill="white"/>
<path d="M135.808 78.3536V81.1312C135.808 81.9836 135.711 82.736 135.517 83.3886C135.329 84.0352 135.056 84.576 134.697 85.011C134.344 85.4461 133.912 85.7782 133.401 86.0075C132.889 86.2309 132.313 86.3426 131.673 86.3426C131.038 86.3426 130.465 86.2309 129.953 86.0075C129.448 85.7782 129.013 85.4461 128.648 85.011C128.284 84.576 128.001 84.0352 127.802 83.3886C127.608 82.736 127.511 81.9836 127.511 81.1312V78.3536C127.511 77.507 127.608 76.7575 127.802 76.105C127.996 75.4525 128.272 74.9087 128.63 74.4737C128.995 74.0387 129.43 73.7095 129.935 73.4861C130.447 73.2568 131.02 73.1422 131.655 73.1422C132.296 73.1422 132.872 73.2568 133.383 73.4861C133.895 73.7095 134.333 74.0387 134.697 74.4737C135.062 74.9087 135.338 75.4525 135.526 76.105C135.714 76.7575 135.808 77.507 135.808 78.3536ZM134.812 81.1312V78.3359C134.812 77.6305 134.741 77.0162 134.6 76.493C134.465 75.9639 134.265 75.523 134.001 75.1703C133.736 74.8176 133.407 74.553 133.013 74.3767C132.619 74.2003 132.166 74.1122 131.655 74.1122C131.161 74.1122 130.717 74.2003 130.323 74.3767C129.935 74.553 129.606 74.8176 129.336 75.1703C129.071 75.523 128.868 75.9639 128.727 76.493C128.586 77.0162 128.516 77.6305 128.516 78.3359V81.1312C128.516 81.8425 128.586 82.4627 128.727 82.9918C128.868 83.5149 129.074 83.9558 129.345 84.3144C129.621 84.6672 129.953 84.9317 130.341 85.108C130.735 85.2844 131.179 85.3726 131.673 85.3726C132.184 85.3726 132.634 85.2844 133.022 85.108C133.416 84.9317 133.745 84.6672 134.009 84.3144C134.274 83.9558 134.474 83.5149 134.609 82.9918C134.744 82.4627 134.812 81.8425 134.812 81.1312Z" fill="white"/>
<path d="M144.547 82.9918C144.547 82.639 144.5 82.3275 144.406 82.0571C144.312 81.7866 144.156 81.5427 143.938 81.3252C143.721 81.1018 143.427 80.896 143.056 80.7079C142.686 80.5139 142.225 80.3229 141.672 80.1348C141.131 79.9525 140.643 79.7527 140.208 79.5351C139.779 79.3176 139.409 79.0678 139.097 78.7856C138.792 78.5035 138.556 78.1743 138.392 77.798C138.233 77.4159 138.154 76.9721 138.154 76.4665C138.154 75.9727 138.242 75.523 138.418 75.1174C138.595 74.7059 138.844 74.3532 139.168 74.0592C139.497 73.7653 139.882 73.539 140.323 73.3803C140.764 73.2215 141.252 73.1422 141.787 73.1422C142.551 73.1422 143.209 73.3156 143.762 73.6624C144.32 74.0034 144.747 74.4649 145.04 75.0468C145.34 75.623 145.49 76.2667 145.49 76.978H144.494C144.494 76.4195 144.388 75.9228 144.176 75.4877C143.971 75.0527 143.665 74.7118 143.259 74.4649C142.854 74.2121 142.363 74.0857 141.787 74.0857C141.211 74.0857 140.726 74.1945 140.332 74.412C139.944 74.6236 139.653 74.9087 139.459 75.2673C139.265 75.62 139.168 76.0109 139.168 76.4401C139.168 76.7458 139.215 77.0279 139.309 77.2866C139.409 77.5452 139.568 77.7833 139.785 78.0008C140.008 78.2183 140.299 78.4241 140.658 78.6181C141.022 78.8062 141.466 78.9855 141.99 79.156C142.571 79.3382 143.083 79.544 143.524 79.7732C143.971 80.0025 144.344 80.267 144.644 80.5668C144.949 80.8666 145.179 81.2135 145.331 81.6073C145.49 82.0012 145.57 82.4568 145.57 82.9741C145.57 83.4973 145.478 83.9676 145.296 84.385C145.114 84.7965 144.855 85.1492 144.52 85.4431C144.185 85.7312 143.791 85.9516 143.339 86.1045C142.886 86.2573 142.389 86.3337 141.848 86.3337C141.366 86.3337 140.887 86.2603 140.411 86.1133C139.935 85.9663 139.5 85.7371 139.106 85.4255C138.712 85.1139 138.398 84.7142 138.163 84.2263C137.927 83.7383 137.81 83.1564 137.81 82.4803H138.824C138.824 83.0153 138.912 83.4709 139.088 83.8471C139.265 84.2174 139.497 84.5173 139.785 84.7465C140.079 84.9699 140.405 85.1345 140.764 85.2403C141.122 85.3403 141.484 85.3902 141.848 85.3902C142.401 85.3902 142.877 85.2903 143.277 85.0904C143.683 84.8905 143.994 84.6113 144.212 84.2527C144.435 83.8941 144.547 83.4738 144.547 82.9918Z" fill="white"/>
<path d="M151.539 73.3185V86.1574H150.543V73.3185H151.539ZM155.199 73.3185V74.2621H146.901V73.3185H155.199Z" fill="white"/>
<path d="M160.966 73.3185H164.484C165.236 73.3185 165.886 73.4655 166.433 73.7594C166.985 74.0475 167.411 74.4737 167.711 75.038C168.011 75.5965 168.161 76.2843 168.161 77.1014C168.161 77.7069 168.052 78.2566 167.835 78.7504C167.623 79.2442 167.332 79.6557 166.962 79.9849C166.591 80.3141 166.153 80.5404 165.648 80.6638L165.322 80.8137H161.653L161.636 79.8702H164.651C165.21 79.8702 165.674 79.7409 166.045 79.4822C166.415 79.2236 166.691 78.8826 166.874 78.4594C167.062 78.0361 167.156 77.5835 167.156 77.1014C167.156 76.5194 167.053 76.0168 166.847 75.5936C166.647 75.1644 166.347 74.8352 165.948 74.606C165.554 74.3767 165.066 74.2621 164.484 74.2621H161.971V86.1574H160.966V73.3185ZM167.553 86.1574L164.793 80.4169L165.868 80.4081L168.619 86.0427V86.1574H167.553Z" fill="white"/>
<path d="M177.64 85.2139V86.1574H171.644V85.2139H177.64ZM171.917 73.3185V86.1574H170.912V73.3185H171.917ZM176.891 79.0678V80.0113H171.644V79.0678H176.891ZM177.596 73.3185V74.2621H171.644V73.3185H177.596Z" fill="white"/>
<path d="M183.301 84.5525L186.652 73.3185H187.745L183.733 86.1574H182.931L183.301 84.5525ZM179.889 73.3185L183.231 84.5525L183.592 86.1574H182.799L178.795 73.3185H179.889Z" fill="white"/>
<path d="M190.867 73.3185V86.1574H189.853V73.3185H190.867Z" fill="white"/>
<path d="M200.814 85.2139V86.1574H194.817V85.2139H200.814ZM195.091 73.3185V86.1574H194.086V73.3185H195.091ZM200.064 79.0678V80.0113H194.817V79.0678H200.064ZM200.769 73.3185V74.2621H194.817V73.3185H200.769Z" fill="white"/>
<path d="M205.831 82.7537L208.132 73.3185H208.926L208.326 76.1403L205.866 86.1574H205.108L205.831 82.7537ZM203.212 73.3185L205.126 82.6655L205.707 86.1574H204.914L202.18 73.3185H203.212ZM212.003 82.6567L213.899 73.3185H214.922L212.197 86.1574H211.404L212.003 82.6567ZM209.023 73.3185L211.289 82.7537L212.003 86.1574H211.236L208.838 76.1403L208.238 73.3185H209.023Z" fill="white"/>
<path d="M223.74 85.2139V86.1574H217.744V85.2139H223.74ZM218.017 73.3185V86.1574H217.012V73.3185H218.017ZM222.991 79.0678V80.0113H217.744V79.0678H222.991ZM223.696 73.3185V74.2621H217.744V73.3185H223.696Z" fill="white"/>
<path d="M228.951 86.1574H226.544L226.553 85.2139H228.951C229.722 85.2139 230.377 85.0522 230.918 84.7289C231.459 84.4056 231.87 83.9323 232.152 83.3092C232.44 82.6861 232.584 81.9277 232.584 81.0342V78.4241C232.584 77.7422 232.502 77.1426 232.337 76.6252C232.179 76.1021 231.944 75.667 231.632 75.3202C231.326 74.9675 230.953 74.7029 230.512 74.5266C230.071 74.3502 229.575 74.2621 229.022 74.2621H226.5V73.3185H229.022C229.704 73.3185 230.324 73.4302 230.883 73.6536C231.441 73.877 231.92 74.2062 232.32 74.6412C232.725 75.0762 233.037 75.6112 233.255 76.2461C233.472 76.881 233.581 77.6129 233.581 78.4417V81.0342C233.581 81.8572 233.472 82.5891 233.255 83.2298C233.037 83.8706 232.725 84.4085 232.32 84.8435C231.914 85.2726 231.426 85.5989 230.856 85.8223C230.286 86.0457 229.651 86.1574 228.951 86.1574ZM227.011 73.3185V86.1574H226.006V73.3185H227.011Z" fill="white"/>
<path d="M149.068 227.823H150.073V236.871C150.073 237.835 149.9 238.608 149.553 239.19C149.212 239.772 148.75 240.195 148.168 240.459C147.592 240.718 146.954 240.847 146.255 240.847C145.538 240.847 144.891 240.718 144.315 240.459C143.739 240.195 143.283 239.772 142.948 239.19C142.613 238.608 142.445 237.835 142.445 236.871V227.823H143.451V236.871C143.451 237.623 143.571 238.22 143.812 238.661C144.053 239.102 144.385 239.419 144.809 239.613C145.232 239.807 145.714 239.904 146.255 239.904C146.807 239.904 147.292 239.807 147.71 239.613C148.133 239.419 148.465 239.102 148.706 238.661C148.947 238.22 149.068 237.623 149.068 236.871V227.823Z" fill="white"/>
<path d="M153.926 227.823V240.662H152.921V227.823H153.926ZM160.566 227.823L155.946 233.705L153.574 236.465L153.459 235.23L155.328 232.903L159.314 227.823H160.566ZM159.693 240.662L155.258 234.084L155.857 233.185L160.91 240.662H159.693Z" fill="white"/>
<path d="M162.815 227.823H166.333C167.086 227.823 167.735 227.97 168.282 228.264C168.834 228.552 169.261 228.979 169.56 229.543C169.86 230.101 170.01 230.789 170.01 231.606C170.01 232.212 169.901 232.761 169.684 233.255C169.472 233.749 169.181 234.161 168.811 234.49C168.441 234.819 168.003 235.045 167.497 235.169L167.171 235.319H163.503L163.485 234.375H166.501C167.059 234.375 167.524 234.246 167.894 233.987C168.264 233.729 168.541 233.388 168.723 232.964C168.911 232.541 169.005 232.088 169.005 231.606C169.005 231.024 168.902 230.522 168.696 230.098C168.496 229.669 168.197 229.34 167.797 229.111C167.403 228.882 166.915 228.767 166.333 228.767H163.82V240.662H162.815V227.823ZM169.402 240.662L166.642 234.922L167.718 234.913L170.469 240.548V240.662H169.402Z" fill="white"/>
<path d="M176.377 228.599L172.682 240.662H171.641L175.724 227.823H176.438L176.377 228.599ZM179.701 240.662L175.997 228.599L175.953 227.823H176.659L180.742 240.662H179.701ZM179.119 236.13V237.073H173.334V236.13H179.119Z" fill="white"/>
<path d="M183.863 227.823V240.662H182.849V227.823H183.863Z" fill="white"/>
<path d="M195.159 227.823V240.662H194.145L188.096 229.719V240.662H187.082V227.823H188.096L194.154 238.766V227.823H195.159Z" fill="white"/>
<path d="M204.955 239.719V240.662H198.959V239.719H204.955ZM199.233 227.823V240.662H198.227V227.823H199.233ZM204.206 233.573V234.516H198.959V233.573H204.206ZM204.911 227.823V228.767H198.959V227.823H204.911Z" fill="white"/>
<path d="M161.819 271.054H165.804V271.907H162.757V273.291H165.456V274.144H162.757V275.583H165.841V276.436H161.819V271.054Z" fill="white"/>
<path d="M159.495 276.436V274.167H156.913V276.436H155.975V271.054H156.913V273.291H159.495V271.054H160.436V276.436H159.495Z" fill="white"/>
<path d="M154.973 271.93H153.267V276.436H152.313V271.93H150.607V271.054H154.973V271.93Z" fill="white"/>
<path fill-rule="evenodd" clip-rule="evenodd" d="M173.641 288.937V277.957H174.542V289.829H142.372V285.881H137.886V253.711H170.056V257.661H174.54V269.542H173.638V258.563H170.054V269.542H169.153V258.563H143.275V284.982H169.155V277.957H170.056V285.881H143.275V288.937H173.641ZM138.788 284.977H142.372V257.661H169.153V254.614H138.788V284.977Z" fill="white"/>
<path fill-rule="evenodd" clip-rule="evenodd" d="M177.863 271.015H178.739L181.118 276.436H180.11L179.563 275.136H177.017L176.463 276.436H175.494L177.863 271.015ZM177.362 274.297H179.215L178.277 272.145L177.362 274.297Z" fill="white"/>
<path d="M209.532 271.93H207.826V276.436H206.872V271.93H205.166V271.053H209.532V271.93Z" fill="white"/>
<path d="M201.596 272.211C201.556 272.291 201.536 272.378 201.536 272.467C201.531 272.568 201.55 272.668 201.591 272.76C201.636 272.848 201.704 272.922 201.787 272.975C201.909 273.054 202.042 273.117 202.181 273.16L202.817 273.336C203.071 273.396 203.322 273.473 203.567 273.565C203.765 273.64 203.949 273.749 204.111 273.885C204.251 274.006 204.363 274.156 204.438 274.324C204.517 274.51 204.555 274.711 204.55 274.912C204.554 275.149 204.506 275.383 204.409 275.599C204.317 275.795 204.182 275.968 204.015 276.106C203.837 276.251 203.632 276.358 203.411 276.422C203.159 276.496 202.897 276.532 202.634 276.529C202.227 276.531 201.823 276.46 201.442 276.319C201.052 276.172 200.694 275.951 200.387 275.669L200.957 274.983C201.194 275.199 201.462 275.38 201.751 275.518C202.039 275.644 202.351 275.706 202.666 275.699C202.908 275.71 203.148 275.645 203.352 275.514C203.434 275.459 203.5 275.384 203.546 275.297C203.591 275.209 203.613 275.111 203.61 275.013C203.612 274.923 203.595 274.835 203.56 274.752C203.519 274.666 203.454 274.594 203.375 274.542C203.26 274.466 203.135 274.405 203.004 274.361L202.391 274.185C202.131 274.125 201.874 274.048 201.623 273.956C201.419 273.886 201.229 273.782 201.06 273.65C200.909 273.527 200.79 273.37 200.712 273.192C200.627 272.99 200.587 272.773 200.593 272.554C200.59 272.332 200.637 272.113 200.731 271.911C200.82 271.721 200.949 271.552 201.108 271.415C201.278 271.271 201.474 271.162 201.687 271.095C201.925 271.018 202.173 270.98 202.423 270.983C202.786 270.977 203.147 271.036 203.489 271.156C203.81 271.275 204.11 271.445 204.377 271.66L203.869 272.376C203.644 272.208 203.399 272.069 203.139 271.964C202.907 271.871 202.659 271.823 202.409 271.822C202.179 271.808 201.951 271.874 201.764 272.01C201.693 272.063 201.636 272.132 201.596 272.211Z" fill="white"/>
<path d="M195.588 271.053H199.573V271.907H196.529V273.291H199.228V274.144H196.529V275.583H199.612V276.436H195.588V271.053Z" fill="white"/>
<path d="M190.545 271.053H194.543V271.907H191.483V273.391H194.198V274.244H191.483V276.436H190.545V271.053Z" fill="white"/>
<path d="M189.099 271.054H188.161V276.438H189.099V271.054Z" fill="white"/>
<path d="M185.785 274.775L182.907 271.054H182.031V276.436H182.969V272.607L185.931 276.436H186.723V271.054H185.785V274.775Z" fill="white"/>
<path d="M173.632 272.575V276.436H174.572V271.054H173.563L171.926 273.597L170.288 271.054H169.279V276.436H170.217V272.591L171.903 275.114H171.932L173.632 272.575Z" fill="white"/>
</svg>
