<svg viewBox="0 0 348 348" fill="none" xmlns="http://www.w3.org/2000/svg">
<path d="M44.1975 160.595L47.4383 171.302L50.695 160.595H52.4429V180.271H50.6286V166.261L48.0865 174.972H46.7636L44.2665 166.558V180.271H42.4496V160.595H44.1975Z" fill="white"/>
<path d="M96.8974 160.595H98.9162V180.271H96.8974V160.595Z" fill="white"/>
<path d="M111.629 160.595H113.645L113.648 178.318H118.419L117.76 180.271H111.629V160.595Z" fill="white"/>
<path d="M132.206 180.271H126.781L126.779 160.595H132.862L132.203 162.548H128.627V169.441H132.283L131.625 171.394H128.631V178.318H132.864L132.206 180.271Z" fill="white"/>
<path d="M162.978 160.595H164.555L167.849 180.271H166.017L163.737 165.454L161.471 180.271H159.617L162.978 160.595Z" fill="white"/>
<path fill-rule="evenodd" clip-rule="evenodd" d="M64.7605 160.38C64.2889 160.37 63.8222 160.478 63.4029 160.694C62.9835 160.91 62.6247 161.228 62.3591 161.618C61.379 162.983 61.278 164.508 61.278 170.432C61.278 176.355 61.379 177.88 62.3591 179.245C62.6247 179.636 62.9833 179.954 63.4026 180.17C63.8219 180.387 64.2886 180.496 64.7605 180.486C65.2352 180.494 65.7045 180.385 66.127 180.169C66.5496 179.952 66.9122 179.635 67.1831 179.245C68.166 177.88 68.2643 176.358 68.2643 170.432C68.2643 164.508 68.1633 162.983 67.1831 161.62C66.9119 161.231 66.5491 160.914 66.1266 160.697C65.7042 160.481 65.2351 160.372 64.7605 160.38ZM64.1445 178.388C64.3336 178.49 64.5461 178.539 64.7605 178.531C64.9787 178.539 65.1951 178.489 65.3883 178.387C65.5815 178.286 65.7451 178.136 65.8629 177.952C66.4234 177.073 66.5217 175.949 66.5217 170.434C66.5217 164.92 66.4234 163.796 65.8629 162.912C65.7462 162.727 65.5832 162.577 65.3903 162.476C65.1972 162.374 64.981 162.325 64.7632 162.332C64.5475 162.324 64.3336 162.374 64.1439 162.477C63.9541 162.58 63.7955 162.732 63.6846 162.917C63.1242 163.79 63.0259 164.917 63.0259 170.432C63.0259 175.946 63.1215 177.069 63.6846 177.954C63.7967 178.137 63.9554 178.287 64.1445 178.388Z" fill="white"/>
<path fill-rule="evenodd" clip-rule="evenodd" d="M84.3247 169.47C84.16 169.682 83.9661 169.874 83.751 170.036C84.0011 170.201 84.2219 170.411 84.4044 170.65C85.2784 171.786 85.3979 173.258 85.3979 174.687C85.3979 176.988 85.1456 178.135 84.4283 179.07C83.7589 179.915 82.9089 180.276 81.5807 180.276H78.6189V160.6H81.6046C82.9514 160.6 83.7589 160.951 84.3938 161.809C85.0526 162.696 85.2757 163.7 85.2757 165.812C85.2757 167.287 85.1163 168.474 84.3247 169.47ZM81.6258 169.114H80.4012V162.543H81.6285C82.7787 162.543 83.4906 163.092 83.4906 165.828C83.4906 167.363 83.2754 169.114 81.6258 169.114ZM80.4012 178.313H81.6258C83.2834 178.313 83.6208 176.924 83.6208 174.674C83.6208 171.414 82.4838 171.038 81.6285 171.038H80.4012V178.313Z" fill="white"/>
<path fill-rule="evenodd" clip-rule="evenodd" d="M180.796 160.595H177.205V180.271H179.144V171.797H180.801C183.554 171.797 184.728 170.118 184.728 166.181C184.728 162.247 183.546 160.595 180.796 160.595ZM180.844 169.847C182.555 169.847 182.789 168.099 182.789 166.208L182.791 166.214C182.791 163.61 182.225 162.548 180.844 162.548H179.131V169.847H180.844Z" fill="white"/>
<path fill-rule="evenodd" clip-rule="evenodd" d="M198.159 160.595H194.567V180.271H196.495V171.797H198.159C200.908 171.797 202.082 170.118 202.082 166.181C202.082 162.247 200.908 160.595 198.159 160.595ZM198.207 169.847C199.914 169.847 200.151 168.099 200.151 166.208V166.214C200.151 163.61 199.588 162.548 198.207 162.548H196.493V169.847H198.207Z" fill="white"/>
<path d="M173.672 67.9252L169.847 78.7365L157.98 79.2652L168.133 85.8557L164.311 96.93L173.669 90.6026L183.03 96.93L179.867 85.5927L187.777 78.7365H177.231L173.672 67.9252Z" fill="white"/>
<path d="M195.897 86.5808L197.795 81.2203L199.558 86.5808H204.791L200.867 89.981L202.435 95.6072L197.795 92.4673L193.151 95.6072L195.047 90.1111L190.011 86.8438L195.897 86.5808Z" fill="white"/>
<path d="M150.992 81.2203L149.092 86.5808L143.209 86.8438L148.242 90.1111L146.348 95.6072L150.992 92.4673L155.633 95.6072L154.065 89.981L157.988 86.5808H152.755L150.992 81.2203Z" fill="white"/>
<path d="M232.922 177.758C233.496 176.918 233.581 175.957 233.581 170.431C233.581 164.903 233.494 163.942 232.917 163.105C232.792 162.93 232.627 162.787 232.435 162.69C232.242 162.593 232.03 162.544 231.814 162.548H230.375V178.315H231.82C232.035 178.319 232.248 178.269 232.439 178.172C232.631 178.075 232.797 177.932 232.922 177.758Z" fill="white"/>
<path fill-rule="evenodd" clip-rule="evenodd" d="M33.7784 136.946C50.1547 74.8151 106.722 29 174 29C241.278 29 297.844 74.8151 314.221 136.946H325.946V204.183H315.853C301.962 269.778 243.734 319 174 319C104.265 319 46.0374 269.778 32.1465 204.183H22.0537V136.946H33.7784ZM44.5828 136.946C60.6732 80.6376 112.528 39.4192 174 39.4192C235.471 39.4192 287.326 80.6376 303.416 136.946H44.5828ZM42.8154 204.183C56.5146 263.978 110.054 308.581 174 308.581C237.945 308.581 291.484 263.978 305.184 204.183H42.8154ZM215.662 151.842H32.6662V187.437H215.664L215.662 151.842ZM312.3 151.183H306.103V187.833H312.3V151.183ZM228.651 160.595H231.879C232.341 160.587 232.8 160.694 233.212 160.905C233.625 161.116 233.978 161.426 234.243 161.806C235.209 163.142 235.305 164.635 235.305 170.431C235.305 176.228 235.209 177.721 234.243 179.057C233.979 179.438 233.625 179.748 233.212 179.96C232.8 180.172 232.342 180.278 231.879 180.271H228.651V160.595ZM262.549 160.595H264.568V180.271H262.549V160.595ZM277.281 160.595H279.297V178.318H284.071L283.412 180.271H277.281V160.595ZM294.407 168.569L296.474 160.595H298.668L295.427 172.028V180.271H293.408V172.028L290.168 160.595H292.362L294.407 168.569ZM248.014 160.595H249.591L252.888 180.271H251.055L248.773 165.454L246.51 180.271H244.653L248.014 160.595Z" fill="white"/>
<path d="M100.476 215.118V227.204H98.9649V215.118H100.476ZM103.655 215.118V216.429H95.794V215.118H103.655Z" fill="white"/>
<path d="M113.408 220.115V222.215C113.408 223.067 113.314 223.817 113.126 224.464C112.943 225.106 112.675 225.643 112.321 226.075C111.966 226.506 111.54 226.83 111.042 227.046C110.544 227.262 109.982 227.37 109.357 227.37C108.754 227.37 108.203 227.262 107.705 227.046C107.207 226.83 106.778 226.506 106.419 226.075C106.059 225.643 105.78 225.106 105.58 224.464C105.387 223.817 105.29 223.067 105.29 222.215V220.115C105.29 219.263 105.387 218.515 105.58 217.874C105.774 217.226 106.051 216.687 106.41 216.255C106.77 215.823 107.199 215.5 107.697 215.284C108.195 215.062 108.746 214.952 109.349 214.952C109.974 214.952 110.536 215.062 111.034 215.284C111.537 215.5 111.964 215.823 112.312 216.255C112.666 216.687 112.938 217.226 113.126 217.874C113.314 218.515 113.408 219.263 113.408 220.115ZM111.897 222.215V220.098C111.897 219.434 111.842 218.864 111.731 218.388C111.62 217.907 111.457 217.514 111.241 217.209C111.026 216.905 110.76 216.681 110.445 216.537C110.129 216.388 109.764 216.313 109.349 216.313C108.956 216.313 108.602 216.388 108.286 216.537C107.976 216.681 107.711 216.905 107.489 217.209C107.268 217.514 107.097 217.907 106.975 218.388C106.859 218.864 106.801 219.434 106.801 220.098V222.215C106.801 222.884 106.859 223.46 106.975 223.941C107.097 224.417 107.268 224.81 107.489 225.12C107.716 225.424 107.988 225.651 108.303 225.801C108.618 225.945 108.97 226.017 109.357 226.017C109.772 226.017 110.137 225.945 110.453 225.801C110.774 225.651 111.039 225.424 111.25 225.12C111.466 224.81 111.626 224.417 111.731 223.941C111.842 223.46 111.897 222.884 111.897 222.215Z" fill="white"/>
<path d="M119.965 222.464H117.326V221.161H119.965C120.463 221.161 120.864 221.061 121.169 220.862C121.479 220.663 121.703 220.386 121.841 220.032C121.985 219.678 122.057 219.274 122.057 218.82C122.057 218.405 121.985 218.015 121.841 217.649C121.703 217.284 121.479 216.991 121.169 216.77C120.864 216.543 120.463 216.429 119.965 216.429H117.641V227.204H116.114V215.118H119.965C120.745 215.118 121.404 215.275 121.941 215.591C122.478 215.906 122.884 216.343 123.161 216.902C123.443 217.456 123.584 218.089 123.584 218.803C123.584 219.578 123.443 220.239 123.161 220.787C122.884 221.335 122.478 221.753 121.941 222.041C121.404 222.323 120.745 222.464 119.965 222.464Z" fill="white"/>
<path d="M133.445 225.369L136.35 215.118H138.01L134.258 227.204H133.088L133.445 225.369ZM130.839 215.118L133.719 225.369L134.101 227.204H132.93L129.178 215.118H130.839Z" fill="white"/>
<path d="M141.588 215.118V227.204H140.06V215.118H141.588Z" fill="white"/>
<path d="M144.592 215.118H147.971C148.757 215.118 149.415 215.256 149.946 215.533C150.483 215.809 150.887 216.219 151.158 216.761C151.435 217.298 151.573 217.959 151.573 218.745C151.573 219.299 151.482 219.805 151.299 220.264C151.117 220.718 150.851 221.105 150.502 221.426C150.154 221.742 149.73 221.977 149.232 222.132L148.817 222.306H145.804L145.788 221.003H147.954C148.419 221.003 148.806 220.903 149.116 220.704C149.426 220.499 149.659 220.225 149.813 219.882C149.968 219.539 150.046 219.16 150.046 218.745C150.046 218.28 149.977 217.874 149.838 217.525C149.7 217.176 149.479 216.908 149.174 216.72C148.876 216.526 148.474 216.429 147.971 216.429H146.12V227.204H144.592V215.118ZM150.395 227.204L147.987 221.725L149.573 221.717L152.03 227.104V227.204H150.395Z" fill="white"/>
<path d="M157.176 215.118V227.204H155.665V215.118H157.176ZM160.355 215.118V216.429H152.494V215.118H160.355Z" fill="white"/>
<path d="M168.166 215.118H169.693V223.626C169.693 224.534 169.519 225.261 169.17 225.809C168.822 226.357 168.362 226.755 167.792 227.004C167.228 227.248 166.619 227.37 165.966 227.37C165.269 227.37 164.641 227.248 164.082 227.004C163.523 226.755 163.077 226.357 162.745 225.809C162.419 225.261 162.256 224.534 162.256 223.626V215.118H163.775V223.626C163.775 224.257 163.863 224.749 164.04 225.104C164.223 225.458 164.478 225.707 164.804 225.851C165.136 225.994 165.523 226.066 165.966 226.066C166.414 226.066 166.802 225.994 167.128 225.851C167.46 225.707 167.715 225.458 167.892 225.104C168.075 224.749 168.166 224.257 168.166 223.626V215.118Z" fill="white"/>
<path d="M176.101 216.188L172.797 227.204H171.237L175.13 215.118H176.109L176.101 216.188ZM178.774 227.204L175.47 216.188L175.454 215.118H176.441L180.334 227.204H178.774ZM178.774 222.729V224.041H172.947V222.729H178.774Z" fill="white"/>
<path d="M188.602 225.9V227.204H183.588V225.9H188.602ZM183.862 215.118V227.204H182.335V215.118H183.862Z" fill="white"/>
<path d="M195.009 215.118H198.388C199.173 215.118 199.832 215.256 200.363 215.533C200.9 215.809 201.304 216.219 201.575 216.761C201.852 217.298 201.99 217.959 201.99 218.745C201.99 219.299 201.899 219.805 201.716 220.264C201.534 220.718 201.268 221.105 200.919 221.426C200.571 221.742 200.147 221.977 199.649 222.132L199.234 222.306H196.221L196.205 221.003H198.371C198.836 221.003 199.223 220.903 199.533 220.704C199.843 220.499 200.076 220.225 200.23 219.882C200.385 219.539 200.463 219.16 200.463 218.745C200.463 218.28 200.394 217.874 200.255 217.525C200.117 217.176 199.896 216.908 199.591 216.72C199.292 216.526 198.891 216.429 198.388 216.429H196.537V227.204H195.009V215.118ZM200.812 227.204L198.404 221.725L199.99 221.717L202.447 227.104V227.204H200.812Z" fill="white"/>
<path d="M210.872 225.9V227.204H205.626V225.9H210.872ZM205.9 215.118V227.204H204.372V215.118H205.9ZM210.166 220.314V221.617H205.626V220.314H210.166ZM210.789 215.118V216.429H205.626V215.118H210.789Z" fill="white"/>
<path d="M217.08 216.188L213.777 227.204H212.216L216.109 215.118H217.089L217.08 216.188ZM219.753 227.204L216.45 216.188L216.433 215.118H217.421L221.314 227.204H219.753ZM219.753 222.729V224.041H213.926V222.729H219.753Z" fill="white"/>
<path d="M229.581 225.9V227.204H224.567V225.9H229.581ZM224.841 215.118V227.204H223.314V215.118H224.841Z" fill="white"/>
<path d="M233.333 215.118V227.204H231.805V215.118H233.333Z" fill="white"/>
<path d="M239.965 215.118V227.204H238.454V215.118H239.965ZM243.144 215.118V216.429H235.283V215.118H243.144Z" fill="white"/>
<path d="M246.082 215.118L248.547 221.186L251.021 215.118H252.747L249.311 222.688V227.204H247.784V222.688L244.347 215.118H246.082Z" fill="white"/>
<path d="M108.826 236.188L105.522 247.204H103.961L107.854 235.118H108.834L108.826 236.188ZM111.498 247.204L108.195 236.188L108.178 235.118H109.166L113.059 247.204H111.498ZM111.498 242.729V244.041H105.671V242.729H111.498Z" fill="white"/>
<path d="M118.911 242.464H116.271V241.161H118.911C119.409 241.161 119.81 241.061 120.114 240.862C120.424 240.663 120.648 240.386 120.787 240.032C120.931 239.678 121.002 239.274 121.002 238.82C121.002 238.405 120.931 238.015 120.787 237.649C120.648 237.284 120.424 236.991 120.114 236.77C119.81 236.543 119.409 236.429 118.911 236.429H116.586V247.204H115.059V235.118H118.911C119.691 235.118 120.349 235.275 120.886 235.591C121.423 235.906 121.83 236.343 122.106 236.902C122.389 237.456 122.53 238.089 122.53 238.803C122.53 239.578 122.389 240.239 122.106 240.787C121.83 241.335 121.423 241.753 120.886 242.041C120.349 242.323 119.691 242.464 118.911 242.464Z" fill="white"/>
<path d="M128.68 242.464H126.041V241.161H128.68C129.178 241.161 129.58 241.061 129.884 240.862C130.194 240.663 130.418 240.386 130.556 240.032C130.7 239.678 130.772 239.274 130.772 238.82C130.772 238.405 130.7 238.015 130.556 237.649C130.418 237.284 130.194 236.991 129.884 236.77C129.58 236.543 129.178 236.429 128.68 236.429H126.356V247.204H124.829V235.118H128.68C129.461 235.118 130.119 235.275 130.656 235.591C131.193 235.906 131.599 236.343 131.876 236.902C132.158 237.456 132.3 238.089 132.3 238.803C132.3 239.578 132.158 240.239 131.876 240.787C131.599 241.335 131.193 241.753 130.656 242.041C130.119 242.323 129.461 242.464 128.68 242.464Z" fill="white"/>
<path d="M141.579 247.204H139.521L139.537 245.9H141.579C142.304 245.9 142.893 245.762 143.347 245.485C143.801 245.203 144.136 244.788 144.352 244.24C144.567 243.687 144.675 243.003 144.675 242.19V240.123C144.675 239.481 144.614 238.928 144.493 238.463C144.371 237.998 144.188 237.616 143.945 237.317C143.701 237.019 143.394 236.797 143.023 236.653C142.653 236.504 142.218 236.429 141.72 236.429H139.479V235.118H141.72C142.401 235.118 143.015 235.226 143.563 235.441C144.111 235.652 144.581 235.97 144.974 236.396C145.367 236.817 145.666 237.34 145.871 237.965C146.081 238.59 146.186 239.315 146.186 240.14V242.19C146.186 243.014 146.081 243.739 145.871 244.365C145.666 244.99 145.364 245.513 144.966 245.934C144.567 246.354 144.083 246.672 143.513 246.888C142.949 247.098 142.304 247.204 141.579 247.204ZM140.367 235.118V247.204H138.84V235.118H140.367Z" fill="white"/>
<path d="M155.391 245.9V247.204H150.145V245.9H155.391ZM150.419 235.118V247.204H148.892V235.118H150.419ZM154.686 240.314V241.617H150.145V240.314H154.686ZM155.308 235.118V236.429H150.145V235.118H155.308Z" fill="white"/>
<path d="M161.002 245.369L163.908 235.118H165.568L161.816 247.204H160.645L161.002 245.369ZM158.396 235.118L161.276 245.369L161.658 247.204H160.488L156.736 235.118H158.396Z" fill="white"/>
<path d="M174.051 245.9V247.204H168.805V245.9H174.051ZM169.079 235.118V247.204H167.551V235.118H169.079ZM173.345 240.314V241.617H168.805V240.314H173.345ZM173.968 235.118V236.429H168.805V235.118H173.968Z" fill="white"/>
<path d="M182.609 245.9V247.204H177.595V245.9H182.609ZM177.869 235.118V247.204H176.341V235.118H177.869Z" fill="white"/>
<path d="M192.079 240.115V242.215C192.079 243.067 191.985 243.817 191.797 244.464C191.615 245.106 191.346 245.643 190.992 246.075C190.638 246.506 190.212 246.83 189.714 247.046C189.216 247.262 188.654 247.37 188.029 247.37C187.425 247.37 186.875 247.262 186.377 247.046C185.879 246.83 185.45 246.506 185.09 246.075C184.73 245.643 184.451 245.106 184.252 244.464C184.058 243.817 183.961 243.067 183.961 242.215V240.115C183.961 239.263 184.058 238.515 184.252 237.874C184.445 237.226 184.722 236.687 185.082 236.255C185.442 235.823 185.87 235.5 186.368 235.284C186.867 235.062 187.417 234.952 188.02 234.952C188.646 234.952 189.207 235.062 189.705 235.284C190.209 235.5 190.635 235.823 190.984 236.255C191.338 236.687 191.609 237.226 191.797 237.874C191.985 238.515 192.079 239.263 192.079 240.115ZM190.569 242.215V240.098C190.569 239.434 190.513 238.864 190.403 238.388C190.292 237.907 190.129 237.514 189.913 237.209C189.697 236.905 189.431 236.681 189.116 236.537C188.801 236.388 188.435 236.313 188.02 236.313C187.627 236.313 187.273 236.388 186.958 236.537C186.648 236.681 186.382 236.905 186.161 237.209C185.94 237.514 185.768 237.907 185.646 238.388C185.53 238.864 185.472 239.434 185.472 240.098V242.215C185.472 242.884 185.53 243.46 185.646 243.941C185.768 244.417 185.94 244.81 186.161 245.12C186.388 245.424 186.659 245.651 186.974 245.801C187.29 245.945 187.641 246.017 188.029 246.017C188.444 246.017 188.809 245.945 189.124 245.801C189.445 245.651 189.711 245.424 189.921 245.12C190.137 244.81 190.298 244.417 190.403 243.941C190.513 243.46 190.569 242.884 190.569 242.215Z" fill="white"/>
<path d="M198.637 242.464H195.997V241.161H198.637C199.135 241.161 199.536 241.061 199.84 240.862C200.15 240.663 200.374 240.386 200.513 240.032C200.657 239.678 200.729 239.274 200.729 238.82C200.729 238.405 200.657 238.015 200.513 237.649C200.374 237.284 200.15 236.991 199.84 236.77C199.536 236.543 199.135 236.429 198.637 236.429H196.312V247.204H194.785V235.118H198.637C199.417 235.118 200.076 235.275 200.612 235.591C201.149 235.906 201.556 236.343 201.833 236.902C202.115 237.456 202.256 238.089 202.256 238.803C202.256 239.578 202.115 240.239 201.833 240.787C201.556 241.335 201.149 241.753 200.612 242.041C200.076 242.323 199.417 242.464 198.637 242.464Z" fill="white"/>
<path d="M205.036 235.118H206.514L209.676 244.971L212.831 235.118H214.308L210.249 247.204H209.087L205.036 235.118ZM204.555 235.118H205.85L206.074 242.489V247.204H204.555V235.118ZM213.486 235.118H214.781V247.204H213.262V242.489L213.486 235.118Z" fill="white"/>
<path d="M224.244 245.9V247.204H218.998V245.9H224.244ZM219.272 235.118V247.204H217.744V235.118H219.272ZM223.538 240.314V241.617H218.998V240.314H223.538ZM224.161 235.118V236.429H218.998V235.118H224.161Z" fill="white"/>
<path d="M234.437 235.118V247.204H232.901L228.062 237.882V247.204H226.535V235.118H228.062L232.926 244.464V235.118H234.437Z" fill="white"/>
<path d="M241.052 235.118V247.204H239.542V235.118H241.052ZM244.232 235.118V236.429H236.371V235.118H244.232Z" fill="white"/>
<path d="M138.716 263.36H140.243C140.204 264.19 140.036 264.907 139.737 265.51C139.443 266.108 139.015 266.567 138.45 266.888C137.891 267.209 137.191 267.37 136.35 267.37C135.747 267.37 135.202 267.251 134.715 267.013C134.228 266.775 133.81 266.434 133.461 265.992C133.118 265.543 132.855 265.007 132.673 264.381C132.49 263.756 132.399 263.053 132.399 262.273V260.04C132.399 259.265 132.49 258.565 132.673 257.94C132.861 257.315 133.129 256.781 133.478 256.338C133.832 255.89 134.261 255.547 134.765 255.309C135.274 255.071 135.849 254.952 136.491 254.952C137.277 254.952 137.941 255.109 138.483 255.425C139.031 255.735 139.452 256.191 139.745 256.794C140.044 257.392 140.21 258.125 140.243 258.994H138.716C138.677 258.358 138.577 257.84 138.417 257.442C138.256 257.038 138.018 256.742 137.703 256.554C137.393 256.36 136.989 256.263 136.491 256.263C136.048 256.263 135.664 256.352 135.337 256.529C135.016 256.706 134.751 256.96 134.54 257.292C134.336 257.619 134.181 258.015 134.076 258.479C133.976 258.939 133.926 259.453 133.926 260.023V262.273C133.926 262.804 133.968 263.299 134.051 263.759C134.139 264.218 134.278 264.622 134.466 264.971C134.659 265.314 134.911 265.582 135.221 265.776C135.531 265.97 135.907 266.066 136.35 266.066C136.909 266.066 137.352 265.975 137.678 265.792C138.005 265.61 138.245 265.319 138.4 264.921C138.561 264.522 138.666 264.002 138.716 263.36Z" fill="white"/>
<path d="M150.511 260.115V262.215C150.511 263.067 150.417 263.817 150.229 264.464C150.046 265.106 149.778 265.643 149.423 266.075C149.069 266.506 148.643 266.83 148.145 267.046C147.647 267.262 147.085 267.37 146.46 267.37C145.857 267.37 145.306 267.262 144.808 267.046C144.31 266.83 143.881 266.506 143.521 266.075C143.162 265.643 142.882 265.106 142.683 264.464C142.489 263.817 142.393 263.067 142.393 262.215V260.115C142.393 259.263 142.489 258.515 142.683 257.874C142.877 257.226 143.153 256.687 143.513 256.255C143.873 255.823 144.302 255.5 144.8 255.284C145.298 255.062 145.848 254.952 146.452 254.952C147.077 254.952 147.639 255.062 148.137 255.284C148.64 255.5 149.066 255.823 149.415 256.255C149.769 256.687 150.04 257.226 150.229 257.874C150.417 258.515 150.511 259.263 150.511 260.115ZM149 262.215V260.098C149 259.434 148.945 258.864 148.834 258.388C148.723 257.907 148.56 257.514 148.344 257.209C148.128 256.905 147.863 256.681 147.547 256.537C147.232 256.388 146.867 256.313 146.452 256.313C146.059 256.313 145.705 256.388 145.389 256.537C145.079 256.681 144.814 256.905 144.592 257.209C144.371 257.514 144.199 257.907 144.078 258.388C143.961 258.864 143.903 259.434 143.903 260.098V262.215C143.903 262.884 143.961 263.46 144.078 263.941C144.199 264.417 144.371 264.81 144.592 265.12C144.819 265.424 145.09 265.651 145.406 265.801C145.721 265.945 146.073 266.017 146.46 266.017C146.875 266.017 147.24 265.945 147.556 265.801C147.877 265.651 148.142 265.424 148.353 265.12C148.568 264.81 148.729 264.417 148.834 263.941C148.945 263.46 149 262.884 149 262.215Z" fill="white"/>
<path d="M153.698 255.118H155.175L158.338 264.971L161.492 255.118H162.97L158.911 267.204H157.749L153.698 255.118ZM153.216 255.118H154.511L154.736 262.489V267.204H153.216V255.118ZM162.148 255.118H163.443V267.204H161.924V262.489L162.148 255.118Z" fill="white"/>
<path d="M170.258 262.464H167.618V261.161H170.258C170.756 261.161 171.157 261.061 171.461 260.862C171.771 260.663 171.995 260.386 172.134 260.032C172.278 259.678 172.349 259.274 172.349 258.82C172.349 258.405 172.278 258.015 172.134 257.649C171.995 257.284 171.771 256.991 171.461 256.77C171.157 256.543 170.756 256.429 170.258 256.429H167.933V267.204H166.406V255.118H170.258C171.038 255.118 171.696 255.275 172.233 255.591C172.77 255.906 173.177 256.343 173.453 256.902C173.736 257.456 173.877 258.089 173.877 258.803C173.877 259.578 173.736 260.239 173.453 260.787C173.177 261.335 172.77 261.753 172.233 262.041C171.696 262.323 171.038 262.464 170.258 262.464Z" fill="white"/>
<path d="M178.948 256.188L175.645 267.204H174.084L177.977 255.118H178.957L178.948 256.188ZM181.621 267.204L178.317 256.188L178.301 255.118H179.289L183.182 267.204H181.621ZM181.621 262.729V264.041H175.794V262.729H181.621Z" fill="white"/>
<path d="M193.084 255.118V267.204H191.548L186.709 257.882V267.204H185.182V255.118H186.709L191.573 264.464V255.118H193.084Z" fill="white"/>
<path d="M197.658 255.118V267.204H196.13V255.118H197.658Z" fill="white"/>
<path d="M207.153 265.9V267.204H201.907V265.9H207.153ZM202.181 255.118V267.204H200.654V255.118H202.181ZM206.448 260.314V261.617H201.907V260.314H206.448ZM207.07 255.118V256.429H201.907V255.118H207.07Z" fill="white"/>
<path d="M214.732 264.149C214.732 263.867 214.698 263.618 214.632 263.402C214.566 263.18 214.449 262.981 214.283 262.804C214.117 262.627 213.885 262.458 213.586 262.298C213.287 262.137 212.908 261.974 212.449 261.808C211.951 261.631 211.5 261.435 211.096 261.219C210.692 260.997 210.346 260.746 210.058 260.463C209.776 260.181 209.557 259.857 209.402 259.492C209.248 259.127 209.17 258.709 209.17 258.239C209.17 257.768 209.25 257.334 209.411 256.936C209.577 256.537 209.809 256.191 210.108 255.898C210.412 255.599 210.778 255.367 211.204 255.201C211.63 255.035 212.106 254.952 212.631 254.952C213.417 254.952 214.079 255.126 214.615 255.475C215.158 255.818 215.567 256.269 215.844 256.828C216.121 257.381 216.259 257.973 216.259 258.604H214.732C214.732 258.15 214.657 257.749 214.507 257.4C214.364 257.046 214.137 256.77 213.827 256.57C213.522 256.366 213.124 256.263 212.631 256.263C212.189 256.263 211.824 256.349 211.536 256.521C211.254 256.692 211.043 256.924 210.905 257.218C210.772 257.511 210.706 257.846 210.706 258.222C210.706 258.477 210.75 258.709 210.839 258.919C210.927 259.124 211.063 259.315 211.245 259.492C211.433 259.669 211.666 259.833 211.943 259.982C212.225 260.131 212.557 260.275 212.939 260.414C213.531 260.607 214.037 260.823 214.458 261.061C214.878 261.299 215.221 261.567 215.487 261.866C215.753 262.16 215.946 262.494 216.068 262.871C216.195 263.241 216.259 263.662 216.259 264.132C216.259 264.625 216.176 265.07 216.01 265.469C215.849 265.867 215.614 266.208 215.304 266.49C214.994 266.772 214.621 266.991 214.184 267.146C213.747 267.295 213.254 267.37 212.706 267.37C212.23 267.37 211.763 267.292 211.303 267.137C210.85 266.982 210.437 266.75 210.067 266.44C209.696 266.13 209.4 265.748 209.178 265.294C208.957 264.835 208.846 264.304 208.846 263.701H210.374C210.374 264.116 210.435 264.473 210.556 264.771C210.678 265.065 210.847 265.308 211.063 265.502C211.278 265.696 211.525 265.84 211.801 265.934C212.084 266.022 212.385 266.066 212.706 266.066C213.149 266.066 213.52 265.989 213.818 265.834C214.123 265.679 214.35 265.458 214.499 265.17C214.654 264.882 214.732 264.542 214.732 264.149Z" fill="white"/>
<path d="M130.48 108.164V119.539H129.043V108.164H130.48ZM134.316 113.281V114.515H130.207V113.281H134.316ZM134.965 108.164V109.398H130.207V108.164H134.965Z" fill="white"/>
<path d="M143.183 118.312V119.539H138.246V118.312H143.183ZM138.503 108.164V119.539H137.066V108.164H138.503ZM142.519 113.055V114.281H138.246V113.055H142.519ZM143.105 108.164V109.398H138.246V108.164H143.105Z" fill="white"/>
<path d="M149.026 109.172L145.917 119.539H144.448L148.112 108.164H149.034L149.026 109.172ZM151.542 119.539L148.433 109.172L148.417 108.164H149.347L153.011 119.539H151.542ZM151.542 115.328V116.562H146.058V115.328H151.542Z" fill="white"/>
<path d="M157.534 108.164V119.539H156.112V108.164H157.534ZM160.526 108.164V109.398H153.128V108.164H160.526Z" fill="white"/>
<path d="M167.877 108.164H169.315V116.172C169.315 117.026 169.151 117.711 168.823 118.226C168.495 118.742 168.062 119.117 167.526 119.351C166.995 119.581 166.422 119.695 165.807 119.695C165.151 119.695 164.56 119.581 164.034 119.351C163.508 119.117 163.088 118.742 162.776 118.226C162.469 117.711 162.315 117.026 162.315 116.172V108.164H163.745V116.172C163.745 116.765 163.828 117.229 163.995 117.562C164.166 117.896 164.406 118.13 164.713 118.265C165.026 118.401 165.39 118.469 165.807 118.469C166.229 118.469 166.594 118.401 166.901 118.265C167.213 118.13 167.453 117.896 167.62 117.562C167.791 117.229 167.877 116.765 167.877 116.172V108.164Z" fill="white"/>
<path d="M171.838 108.164H175.018C175.757 108.164 176.377 108.294 176.877 108.555C177.382 108.815 177.763 109.2 178.018 109.711C178.278 110.216 178.408 110.838 178.408 111.578C178.408 112.099 178.322 112.575 178.151 113.008C177.979 113.435 177.729 113.799 177.401 114.101C177.072 114.398 176.674 114.62 176.205 114.765L175.815 114.93H172.979L172.963 113.703H175.002C175.44 113.703 175.804 113.609 176.096 113.422C176.388 113.229 176.606 112.971 176.752 112.648C176.898 112.325 176.971 111.969 176.971 111.578C176.971 111.14 176.906 110.758 176.776 110.43C176.645 110.101 176.437 109.849 176.151 109.672C175.869 109.489 175.492 109.398 175.018 109.398H173.276V119.539H171.838V108.164ZM177.299 119.539L175.033 114.383L176.526 114.375L178.838 119.445V119.539H177.299Z" fill="white"/>
<path d="M186.767 118.312V119.539H181.83V118.312H186.767ZM182.088 108.164V119.539H180.65V108.164H182.088ZM186.103 113.055V114.281H181.83V113.055H186.103ZM186.689 108.164V109.398H181.83V108.164H186.689Z" fill="white"/>
<path d="M191.501 119.539H189.564L189.58 118.312H191.501C192.184 118.312 192.738 118.182 193.166 117.922C193.593 117.656 193.908 117.265 194.111 116.75C194.314 116.229 194.416 115.586 194.416 114.82V112.875C194.416 112.271 194.358 111.75 194.244 111.312C194.129 110.875 193.957 110.515 193.728 110.234C193.499 109.953 193.21 109.745 192.861 109.609C192.512 109.469 192.103 109.398 191.634 109.398H189.525V108.164H191.634C192.275 108.164 192.853 108.265 193.369 108.469C193.884 108.667 194.327 108.966 194.697 109.367C195.067 109.763 195.348 110.255 195.541 110.844C195.738 111.432 195.837 112.114 195.837 112.89V114.82C195.837 115.596 195.738 116.279 195.541 116.867C195.348 117.456 195.064 117.948 194.689 118.344C194.314 118.739 193.858 119.039 193.322 119.242C192.791 119.44 192.184 119.539 191.501 119.539ZM190.361 108.164V119.539H188.923V108.164H190.361Z" fill="white"/>
<path d="M209.774 112.867V114.844C209.774 115.646 209.686 116.351 209.509 116.961C209.337 117.565 209.084 118.07 208.751 118.476C208.418 118.883 208.016 119.187 207.548 119.39C207.079 119.594 206.55 119.695 205.962 119.695C205.394 119.695 204.876 119.594 204.407 119.39C203.938 119.187 203.535 118.883 203.196 118.476C202.858 118.07 202.595 117.565 202.407 116.961C202.225 116.351 202.134 115.646 202.134 114.844V112.867C202.134 112.065 202.225 111.362 202.407 110.758C202.589 110.148 202.85 109.64 203.188 109.234C203.527 108.828 203.931 108.523 204.399 108.32C204.868 108.112 205.386 108.008 205.954 108.008C206.543 108.008 207.071 108.112 207.54 108.32C208.014 108.523 208.415 108.828 208.743 109.234C209.076 109.64 209.332 110.148 209.509 110.758C209.686 111.362 209.774 112.065 209.774 112.867ZM208.352 114.844V112.851C208.352 112.226 208.3 111.69 208.196 111.242C208.092 110.789 207.938 110.419 207.735 110.133C207.532 109.846 207.282 109.635 206.985 109.5C206.688 109.359 206.345 109.289 205.954 109.289C205.584 109.289 205.251 109.359 204.954 109.5C204.662 109.635 204.412 109.846 204.204 110.133C203.996 110.419 203.834 110.789 203.72 111.242C203.61 111.69 203.556 112.226 203.556 112.851V114.844C203.556 115.474 203.61 116.015 203.72 116.469C203.834 116.917 203.996 117.286 204.204 117.578C204.418 117.864 204.673 118.078 204.97 118.219C205.266 118.354 205.597 118.422 205.962 118.422C206.352 118.422 206.696 118.354 206.993 118.219C207.295 118.078 207.545 117.864 207.743 117.578C207.946 117.286 208.097 116.917 208.196 116.469C208.3 116.015 208.352 115.474 208.352 114.844Z" fill="white"/>
<path d="M219.758 108.164V119.539H218.313L213.758 110.765V119.539H212.321V108.164H213.758L218.336 116.961V108.164H219.758Z" fill="white"/>
<path d="M162.42 293.086V294.719H153.676V293.29L157.984 287.586C158.514 286.884 158.918 286.29 159.198 285.803C159.477 285.308 159.67 284.868 159.778 284.481C159.885 284.087 159.939 283.686 159.939 283.278C159.939 282.763 159.857 282.297 159.692 281.882C159.527 281.459 159.287 281.123 158.972 280.872C158.657 280.621 158.278 280.496 157.833 280.496C157.253 280.496 156.777 280.632 156.405 280.904C156.04 281.169 155.771 281.541 155.599 282.021C155.427 282.501 155.341 283.053 155.341 283.676H153.44C153.44 282.795 153.601 281.989 153.923 281.259C154.253 280.528 154.743 279.948 155.395 279.518C156.047 279.082 156.86 278.863 157.833 278.863C158.671 278.863 159.388 279.039 159.982 279.389C160.583 279.733 161.042 280.22 161.357 280.85C161.679 281.473 161.84 282.204 161.84 283.042C161.84 283.5 161.776 283.966 161.647 284.438C161.525 284.904 161.353 285.369 161.131 285.835C160.917 286.3 160.662 286.759 160.369 287.21C160.075 287.661 159.76 288.105 159.423 288.542L155.954 293.086H162.42Z" fill="white"/>
<path d="M172.905 285.652V288.037C172.905 289.319 172.805 290.4 172.604 291.281C172.411 292.162 172.131 292.871 171.766 293.408C171.401 293.945 170.96 294.335 170.445 294.579C169.936 294.815 169.363 294.933 168.726 294.933C168.225 294.933 167.756 294.858 167.319 294.708C166.889 294.557 166.502 294.318 166.159 293.988C165.815 293.652 165.521 293.215 165.278 292.678C165.034 292.14 164.848 291.489 164.719 290.722C164.59 289.956 164.526 289.061 164.526 288.037V285.652C164.526 284.37 164.626 283.296 164.827 282.43C165.027 281.563 165.31 280.868 165.675 280.346C166.048 279.816 166.488 279.436 166.997 279.207C167.512 278.978 168.085 278.863 168.715 278.863C169.224 278.863 169.693 278.938 170.123 279.089C170.559 279.232 170.946 279.465 171.283 279.787C171.626 280.102 171.92 280.525 172.164 281.055C172.407 281.577 172.59 282.218 172.711 282.977C172.84 283.736 172.905 284.628 172.905 285.652ZM171.014 288.359V285.319C171.014 284.617 170.982 284.001 170.917 283.471C170.853 282.934 170.756 282.476 170.627 282.096C170.506 281.717 170.352 281.409 170.166 281.173C169.979 280.936 169.764 280.764 169.521 280.657C169.278 280.542 169.009 280.485 168.715 280.485C168.35 280.485 168.024 280.575 167.738 280.754C167.458 280.926 167.219 281.201 167.018 281.581C166.825 281.96 166.678 282.458 166.578 283.074C166.477 283.69 166.427 284.438 166.427 285.319V288.359C166.427 289.061 166.459 289.68 166.524 290.218C166.596 290.755 166.692 291.22 166.814 291.614C166.943 292.001 167.1 292.319 167.287 292.57C167.473 292.821 167.688 293.007 167.931 293.129C168.175 293.243 168.44 293.301 168.726 293.301C169.106 293.301 169.435 293.207 169.714 293.021C170.001 292.835 170.241 292.545 170.434 292.151C170.627 291.75 170.771 291.238 170.864 290.615C170.964 289.985 171.014 289.233 171.014 288.359Z" fill="white"/>
<path d="M184.163 293.086V294.719H175.418V293.29L179.726 287.586C180.256 286.884 180.661 286.29 180.94 285.803C181.219 285.308 181.413 284.868 181.52 284.481C181.627 284.087 181.681 283.686 181.681 283.278C181.681 282.763 181.599 282.297 181.434 281.882C181.269 281.459 181.029 281.123 180.714 280.872C180.399 280.621 180.02 280.496 179.576 280.496C178.996 280.496 178.519 280.632 178.147 280.904C177.782 281.169 177.513 281.541 177.341 282.021C177.169 282.501 177.083 283.053 177.083 283.676H175.182C175.182 282.795 175.343 281.989 175.666 281.259C175.995 280.528 176.486 279.948 177.137 279.518C177.789 279.082 178.602 278.863 179.576 278.863C180.414 278.863 181.13 279.039 181.724 279.389C182.326 279.733 182.784 280.22 183.099 280.85C183.421 281.473 183.583 282.204 183.583 283.042C183.583 283.5 183.518 283.966 183.389 284.438C183.267 284.904 183.096 285.369 182.874 285.835C182.659 286.3 182.404 286.759 182.111 287.21C181.817 287.661 181.502 288.105 181.166 288.542L177.696 293.086H184.163Z" fill="white"/>
<path d="M194.647 285.652V288.037C194.647 289.319 194.547 290.4 194.346 291.281C194.153 292.162 193.874 292.871 193.508 293.408C193.143 293.945 192.703 294.335 192.187 294.579C191.679 294.815 191.106 294.933 190.468 294.933C189.967 294.933 189.498 294.858 189.061 294.708C188.631 294.557 188.245 294.318 187.901 293.988C187.557 293.652 187.264 293.215 187.02 292.678C186.777 292.14 186.59 291.489 186.461 290.722C186.333 289.956 186.268 289.061 186.268 288.037V285.652C186.268 284.37 186.368 283.296 186.569 282.43C186.769 281.563 187.052 280.868 187.417 280.346C187.79 279.816 188.23 279.436 188.739 279.207C189.254 278.978 189.827 278.863 190.458 278.863C190.966 278.863 191.435 278.938 191.865 279.089C192.302 279.232 192.688 279.465 193.025 279.787C193.369 280.102 193.662 280.525 193.906 281.055C194.149 281.577 194.332 282.218 194.454 282.977C194.583 283.736 194.647 284.628 194.647 285.652ZM192.756 288.359V285.319C192.756 284.617 192.724 284.001 192.66 283.471C192.595 282.934 192.499 282.476 192.37 282.096C192.248 281.717 192.094 281.409 191.908 281.173C191.722 280.936 191.507 280.764 191.263 280.657C191.02 280.542 190.751 280.485 190.458 280.485C190.092 280.485 189.766 280.575 189.48 280.754C189.201 280.926 188.961 281.201 188.76 281.581C188.567 281.96 188.42 282.458 188.32 283.074C188.22 283.69 188.169 284.438 188.169 285.319V288.359C188.169 289.061 188.202 289.68 188.266 290.218C188.338 290.755 188.434 291.22 188.556 291.614C188.685 292.001 188.843 292.319 189.029 292.57C189.215 292.821 189.43 293.007 189.673 293.129C189.917 293.243 190.182 293.301 190.468 293.301C190.848 293.301 191.177 293.207 191.457 293.021C191.743 292.835 191.983 292.545 192.176 292.151C192.37 291.75 192.513 291.238 192.606 290.615C192.706 289.985 192.756 289.233 192.756 288.359Z" fill="white"/>
</svg>
