<svg viewBox="0 0 348 348" fill="none" xmlns="http://www.w3.org/2000/svg">
<path d="M154.378 246.74C154.678 246.04 154.828 245.33 154.828 244.61C154.828 242.79 154.298 241.36 153.238 240.32C152.198 239.26 150.568 238.73 148.348 238.73C147.048 238.73 145.828 238.98 144.688 239.48C143.568 239.96 142.588 240.6 141.748 241.4L143.548 243.95C143.688 243.81 143.898 243.63 144.178 243.41C144.458 243.17 144.778 242.94 145.138 242.72C145.518 242.5 145.948 242.31 146.428 242.15C146.908 241.99 147.428 241.91 147.988 241.91C148.848 241.91 149.578 242.13 150.178 242.57C150.778 243.01 151.078 243.75 151.078 244.79C151.078 245.27 150.978 245.74 150.778 246.2C150.578 246.64 150.308 247.08 149.968 247.52C149.648 247.94 149.268 248.37 148.828 248.81C148.388 249.25 147.928 249.7 147.448 250.16C146.828 250.76 146.208 251.37 145.588 251.99C144.968 252.61 144.408 253.27 143.908 253.97C143.408 254.67 142.998 255.43 142.678 256.25C142.378 257.05 142.228 257.93 142.228 258.89V259.43C142.228 259.65 142.238 259.84 142.258 260H155.488V256.94H146.248C146.268 256.68 146.408 256.36 146.668 255.98C146.928 255.58 147.238 255.17 147.598 254.75C147.958 254.33 148.338 253.91 148.738 253.49C149.138 253.07 149.498 252.71 149.818 252.41C150.418 251.83 151.018 251.24 151.618 250.64C152.218 250.02 152.748 249.39 153.208 248.75C153.688 248.09 154.078 247.42 154.378 246.74Z" fill="white"/>
<path fill-rule="evenodd" clip-rule="evenodd" d="M171.279 257.66C172.559 255.78 173.199 253.09 173.199 249.59C173.199 246.09 172.559 243.41 171.279 241.55C169.999 239.67 168.229 238.73 165.969 238.73C164.849 238.73 163.839 238.97 162.939 239.45C162.059 239.93 161.299 240.63 160.659 241.55C160.039 242.47 159.559 243.61 159.219 244.97C158.899 246.31 158.739 247.85 158.739 249.59C158.739 253.09 159.379 255.78 160.659 257.66C161.939 259.52 163.709 260.45 165.969 260.45C168.229 260.45 169.999 259.52 171.279 257.66ZM169.269 246.56C169.389 247.5 169.449 248.51 169.449 249.59C169.449 250.67 169.389 251.68 169.269 252.62C169.149 253.56 168.949 254.38 168.669 255.08C168.409 255.76 168.059 256.3 167.619 256.7C167.179 257.1 166.629 257.3 165.969 257.3C165.309 257.3 164.749 257.1 164.289 256.7C163.849 256.3 163.489 255.76 163.209 255.08C162.949 254.38 162.759 253.56 162.639 252.62C162.539 251.68 162.489 250.67 162.489 249.59C162.489 248.51 162.539 247.5 162.639 246.56C162.759 245.62 162.949 244.81 163.209 244.13C163.489 243.43 163.849 242.88 164.289 242.48C164.749 242.08 165.309 241.88 165.969 241.88C166.629 241.88 167.179 242.08 167.619 242.48C168.059 242.88 168.409 243.43 168.669 244.13C168.949 244.81 169.149 245.62 169.269 246.56Z" fill="white"/>
<path d="M188.93 244.61C188.93 245.33 188.78 246.04 188.48 246.74C188.18 247.42 187.79 248.09 187.31 248.75C186.85 249.39 186.32 250.02 185.72 250.64C185.12 251.24 184.52 251.83 183.92 252.41C183.6 252.71 183.24 253.07 182.84 253.49C182.44 253.91 182.06 254.33 181.7 254.75C181.34 255.17 181.03 255.58 180.77 255.98C180.51 256.36 180.37 256.68 180.35 256.94H189.59V260H176.36C176.34 259.84 176.33 259.65 176.33 259.43V258.89C176.33 257.93 176.48 257.05 176.78 256.25C177.1 255.43 177.51 254.67 178.01 253.97C178.51 253.27 179.07 252.61 179.69 251.99C180.31 251.37 180.93 250.76 181.55 250.16C182.03 249.7 182.49 249.25 182.93 248.81C183.37 248.37 183.75 247.94 184.07 247.52C184.41 247.08 184.68 246.64 184.88 246.2C185.08 245.74 185.18 245.27 185.18 244.79C185.18 243.75 184.88 243.01 184.28 242.57C183.68 242.13 182.95 241.91 182.09 241.91C181.53 241.91 181.01 241.99 180.53 242.15C180.05 242.31 179.62 242.5 179.24 242.72C178.88 242.94 178.56 243.17 178.28 243.41C178 243.63 177.79 243.81 177.65 243.95L175.85 241.4C176.69 240.6 177.67 239.96 178.79 239.48C179.93 238.98 181.15 238.73 182.45 238.73C184.67 238.73 186.3 239.26 187.34 240.32C188.4 241.36 188.93 242.79 188.93 244.61Z" fill="white"/>
<path d="M196.951 260.33C197.531 260.41 198.091 260.45 198.631 260.45C200.031 260.45 201.231 260.29 202.231 259.97C203.251 259.63 204.091 259.18 204.751 258.62C205.411 258.04 205.901 257.36 206.221 256.58C206.541 255.78 206.701 254.92 206.701 254C206.701 252.62 206.341 251.49 205.621 250.61C204.921 249.73 204.031 249.1 202.951 248.72C203.791 248.32 204.471 247.74 204.991 246.98C205.531 246.22 205.801 245.36 205.801 244.4C205.801 243.58 205.661 242.83 205.381 242.15C205.121 241.45 204.711 240.85 204.151 240.35C203.611 239.83 202.921 239.43 202.081 239.15C201.241 238.87 200.241 238.73 199.081 238.73C198.461 238.73 197.871 238.79 197.311 238.91C196.751 239.01 196.221 239.15 195.721 239.33C195.241 239.51 194.801 239.7 194.401 239.9C194.001 240.1 193.661 240.29 193.381 240.47L194.701 243.17C195.241 242.83 195.861 242.53 196.561 242.27C197.261 241.99 198.061 241.85 198.961 241.85C199.381 241.85 199.781 241.9 200.161 242C200.541 242.1 200.871 242.26 201.151 242.48C201.451 242.7 201.691 242.98 201.871 243.32C202.051 243.66 202.141 244.07 202.141 244.55C202.141 245.15 202.021 245.64 201.781 246.02C201.541 246.4 201.231 246.71 200.851 246.95C200.471 247.17 200.041 247.33 199.561 247.43C199.101 247.51 198.641 247.55 198.181 247.55H196.681V250.49H197.911C198.591 250.49 199.231 250.55 199.831 250.67C200.451 250.77 200.991 250.96 201.451 251.24C201.931 251.5 202.301 251.85 202.561 252.29C202.841 252.73 202.981 253.28 202.981 253.94C202.981 254.96 202.631 255.78 201.931 256.4C201.231 257 200.091 257.3 198.511 257.3C197.331 257.3 196.341 257.18 195.541 256.94C194.741 256.68 194.131 256.45 193.711 256.25L192.991 259.34C193.211 259.46 193.531 259.59 193.951 259.73C194.371 259.85 194.831 259.96 195.331 260.06C195.851 260.18 196.391 260.27 196.951 260.33Z" fill="white"/>
<path d="M153.233 82H148.433V112H153.233V82Z" fill="white"/>
<path d="M170.033 102.43C170.033 107.021 166.173 107.387 165.024 107.387C162.155 107.387 161.633 104.702 161.633 103.082V91.6H156.833V103.058C156.833 105.901 157.726 108.249 159.291 109.814C160.673 111.197 162.745 111.953 164.988 111.953C166.58 111.953 168.833 111.458 170.033 110.362V112H174.833V91.6H170.033V102.43Z" fill="white"/>
<path d="M184.433 84.4H179.633V91.6H176.033V96.4H179.633V112H184.433V96.4H188.033V91.6H184.433V84.4Z" fill="white"/>
<path d="M203.15 105.9C202.105 106.84 200.724 107.361 199.21 107.361C195.872 107.361 193.42 104.909 193.42 101.543C193.42 98.1772 195.794 95.8287 199.21 95.8287C200.698 95.8287 202.105 96.3243 203.176 97.264L203.904 97.8903L207.141 94.6552L206.331 93.9244C204.426 92.2047 201.898 91.2399 199.209 91.2399C193.209 91.2399 188.852 95.5698 188.852 101.518C188.852 107.441 193.313 111.926 199.209 111.926C201.948 111.926 204.503 110.961 206.384 109.214L207.166 108.483L203.879 105.25L203.15 105.9Z" fill="white"/>
<path d="M224.273 93.3784C222.891 91.9961 221.271 91.2399 219.027 91.2399C217.436 91.2399 215.633 91.7357 214.433 92.83V82H209.633V112H214.433V100.762C214.433 96.1709 217.695 95.8058 218.843 95.8058C221.638 95.8058 221.635 98.3561 221.633 99.9833V112H226.433V100.136C226.433 97.2915 225.839 94.9445 224.273 93.3784Z" fill="white"/>
<path d="M199.051 98.1255C199.972 98.1255 200.854 98.4912 201.505 99.1422C202.156 99.7929 202.522 100.676 202.522 101.596C202.522 102.516 202.156 103.399 201.505 104.05C200.854 104.701 199.972 105.066 199.051 105.066C198.131 105.066 197.248 104.701 196.598 104.05C195.947 103.399 195.581 102.516 195.581 101.596C195.581 100.676 195.947 99.7929 196.598 99.1422C197.248 98.4912 198.131 98.1255 199.051 98.1255Z" fill="white"/>
<path d="M134.8 107.361C137.409 107.361 139.888 106.343 141.713 104.465L142.47 103.709L145.653 106.969L144.948 107.7C142.288 110.44 138.688 111.952 134.8 111.952C126.948 111.952 121 105.717 121 97.421C121 89.1005 126.922 82.8399 134.8 82.8399C138.662 82.8399 142.262 84.3256 144.922 87.0651L145.626 87.7958L142.417 91.0048L141.688 90.274C139.835 88.421 137.384 87.4047 134.8 87.4047C129.453 87.4047 125.565 91.6046 125.565 97.3959C125.565 103.161 129.453 107.361 134.8 107.361Z" fill="white"/>
<path d="M143.796 185.698C148.173 185.698 151.721 180.909 151.721 175C151.721 169.091 148.173 164.302 143.796 164.302C139.419 164.302 135.872 169.091 135.872 175C135.872 180.909 139.419 185.698 143.796 185.698Z" fill="white"/>
<path d="M185.589 185.698C189.965 185.698 193.513 180.909 193.513 175C193.513 169.091 189.965 164.302 185.589 164.302C181.212 164.302 177.664 169.091 177.664 175C177.664 180.909 181.212 185.698 185.589 185.698Z" fill="white"/>
<path d="M227.381 185.698C231.758 185.698 235.306 180.909 235.306 175C235.306 169.091 231.758 164.302 227.381 164.302C223.004 164.302 219.457 169.091 219.457 175C219.457 180.909 223.004 185.698 227.381 185.698Z" fill="white"/>
<path fill-rule="evenodd" clip-rule="evenodd" d="M174 40C236.978 40 289.808 83.4453 304.155 142H339L319.529 174.5L339 207H303.906C289.205 265.049 236.619 308 174 308C111.381 308 58.7947 265.049 44.0939 207H9L28.4706 174.5L9 142H43.8448C58.192 83.4453 111.022 40 174 40ZM174 296C229.943 296 277.092 258.346 291.484 207H56.5156C70.9084 258.346 118.057 296 174 296ZM56.2399 142H291.76C277.702 90.1433 230.306 52 174 52C117.694 52 70.2977 90.1433 56.2399 142ZM143.796 196C153.862 196 162.023 186.598 162.023 175C162.023 163.402 153.862 154 143.796 154C133.73 154 125.57 163.402 125.57 175C125.57 186.598 133.73 196 143.796 196ZM102.4 163.906V154.396H117.853V194.811H107.551V163.906H102.4ZM185.589 196C195.655 196 203.815 186.598 203.815 175C203.815 163.402 195.655 154 185.589 154C175.522 154 167.362 163.402 167.362 175C167.362 186.598 175.522 196 185.589 196ZM227.381 196C237.447 196 245.607 186.598 245.607 175C245.607 163.402 237.447 154 227.381 154C217.315 154 209.155 163.402 209.155 175C209.155 186.598 217.315 196 227.381 196Z" fill="white"/>
</svg>
