<svg viewBox="0 0 348 348" fill="none" xmlns="http://www.w3.org/2000/svg">
<path fill-rule="evenodd" clip-rule="evenodd" d="M174 33L302 103.226V244.774L174 315L46 244.774V103.226L174 33ZM290.004 110.355L174 46.7102L57.9956 110.355V140.925H290.004V110.355ZM57.9956 237.645V207.075H290.004V237.645L174 301.29L57.9956 237.645ZM140.543 154.276H146.94V194.367H140.543V154.276ZM169.332 181.578C169.332 187.714 164.187 188.203 162.656 188.203C158.832 188.203 158.136 184.614 158.136 182.449V167.105H151.738V182.417C151.738 186.217 152.928 189.354 155.014 191.445C156.857 193.295 159.617 194.305 162.608 194.305C164.729 194.305 167.733 193.642 169.332 192.178V194.367H175.73V167.105H169.332V181.578ZM182.127 157.483H188.525V167.105H193.323V173.52H188.525V194.367H182.127V173.52H177.329V167.105H182.127V157.483ZM213.471 186.216C212.078 187.471 210.238 188.168 208.22 188.168C203.77 188.168 200.503 184.891 200.503 180.393C200.503 175.895 203.667 172.756 208.22 172.756C210.203 172.756 212.078 173.419 213.506 174.674L214.477 175.511L218.791 171.188L217.711 170.211C215.173 167.913 211.803 166.624 208.218 166.624C200.221 166.624 194.414 172.41 194.414 180.359C194.414 188.275 200.36 194.268 208.218 194.268C211.87 194.268 215.275 192.979 217.781 190.643L218.824 189.667L214.444 185.347L213.471 186.216ZM234.632 166.624C237.623 166.624 239.783 167.635 241.625 169.482C243.712 171.575 244.504 174.711 244.504 178.512V194.367H238.107V178.309C238.109 176.134 238.113 172.726 234.388 172.726C232.857 172.726 228.51 173.214 228.51 179.349V194.367H222.113V154.276H228.51V168.749C230.11 167.287 232.512 166.624 234.632 166.624ZM208.009 175.826C209.235 175.826 210.412 176.314 211.279 177.184C212.147 178.054 212.634 179.234 212.634 180.464C212.634 181.693 212.147 182.873 211.279 183.743C210.412 184.613 209.235 185.101 208.009 185.101C206.782 185.101 205.605 184.613 204.738 183.743C203.87 182.873 203.383 181.693 203.383 180.464C203.383 179.234 203.87 178.054 204.738 177.184C205.605 176.314 206.782 175.826 208.009 175.826ZM131.586 184.298C129.153 186.808 125.849 188.168 122.372 188.168C115.245 188.168 110.063 182.555 110.063 174.851C110.063 167.111 115.245 161.499 122.372 161.499C125.815 161.499 129.083 162.857 131.552 165.333L132.525 166.31L136.802 162.021L135.863 161.045C132.317 157.384 127.519 155.398 122.372 155.398C111.872 155.398 103.979 163.765 103.979 174.884C103.979 185.97 111.907 194.303 122.372 194.303C127.554 194.303 132.352 192.282 135.898 188.621L136.837 187.644L132.595 183.288L131.586 184.298Z" fill="white"/>
<path d="M144.738 86.7223C144.178 88.513 143.612 90.1701 143.039 91.6936C142.466 93.2171 141.892 94.7004 141.319 96.1437H139.38C138.674 94.0991 138.047 91.9408 137.501 89.669C136.968 87.3971 136.468 84.9248 136.001 82.2521H138.041C138.227 83.2945 138.42 84.3368 138.62 85.3792C138.82 86.4216 139.027 87.4372 139.24 88.4261C139.453 89.4017 139.667 90.3372 139.88 91.2325C140.093 92.1279 140.313 92.9565 140.54 93.7182C141.073 92.315 141.639 90.7782 142.239 89.1077C142.839 87.4239 143.399 85.6866 143.918 83.8958H145.598C146.118 85.6866 146.684 87.4239 147.297 89.1077C147.91 90.7782 148.483 92.315 149.016 93.7182C149.23 92.9698 149.443 92.148 149.656 91.2526C149.87 90.3572 150.076 89.4217 150.276 88.4462C150.489 87.4573 150.696 86.4416 150.896 85.3993C151.096 84.3435 151.289 83.2945 151.476 82.2521H153.455C152.975 84.9248 152.462 87.3971 151.915 89.669C151.382 91.9408 150.769 94.0991 150.076 96.1437H148.137C147.55 94.7004 146.977 93.2171 146.417 91.6936C145.858 90.1701 145.298 88.513 144.738 86.7223Z" fill="white"/>
<path d="M155.728 82.2521H157.668V96.1437H155.728V82.2521Z" fill="white"/>
<path d="M170.594 96.1437C170.301 95.6493 169.961 95.0947 169.574 94.4799C169.201 93.8652 168.794 93.2304 168.355 92.5756C167.915 91.9074 167.455 91.2325 166.975 90.551C166.509 89.8694 166.042 89.2146 165.576 88.5865C165.109 87.9451 164.656 87.3437 164.216 86.7824C163.776 86.2211 163.37 85.7267 162.997 85.299V96.1437H161.097V82.2521H162.637C163.263 82.9203 163.93 83.7021 164.636 84.5974C165.356 85.4794 166.062 86.3949 166.755 87.3437C167.462 88.2791 168.121 89.2012 168.735 90.11C169.361 91.0187 169.887 91.8272 170.314 92.5355V82.2521H172.213V96.1437H170.594Z" fill="white"/>
<path d="M185.139 96.1437C184.846 95.6493 184.506 95.0947 184.12 94.4799C183.746 93.8652 183.34 93.2304 182.9 92.5756C182.46 91.9074 182 91.2325 181.521 90.551C181.054 89.8694 180.588 89.2146 180.121 88.5865C179.655 87.9451 179.201 87.3437 178.762 86.7824C178.322 86.2211 177.915 85.7267 177.542 85.299V96.1437H175.643V82.2521H177.182C177.809 82.9203 178.475 83.7021 179.181 84.5974C179.901 85.4794 180.608 86.3949 181.301 87.3437C182.007 88.2791 182.667 89.2012 183.28 90.11C183.906 91.0187 184.433 91.8272 184.859 92.5355V82.2521H186.759V96.1437H185.139Z" fill="white"/>
<path d="M190.188 96.1437V82.2521H198.645V83.9159H192.127V88.0453H197.925V89.669H192.127V94.4799H199.145V96.1437H190.188Z" fill="white"/>
<path d="M208.387 90.3305C208.6 90.5978 208.867 90.9519 209.187 91.3929C209.52 91.8205 209.86 92.3016 210.207 92.8362C210.553 93.3574 210.893 93.9053 211.226 94.4799C211.573 95.0546 211.866 95.6092 212.106 96.1437H209.987C209.72 95.6359 209.427 95.1214 209.107 94.6002C208.8 94.079 208.487 93.5846 208.167 93.1168C207.847 92.6357 207.527 92.188 207.208 91.7738C206.901 91.3595 206.621 90.9987 206.368 90.6913C206.195 90.7047 206.015 90.7113 205.828 90.7113C205.655 90.7113 205.475 90.7113 205.288 90.7113H203.549V96.1437H201.61V82.4526C202.156 82.3189 202.763 82.2321 203.429 82.192C204.109 82.1385 204.729 82.1118 205.288 82.1118C207.234 82.1118 208.714 82.4793 209.727 83.2143C210.753 83.9493 211.266 85.0451 211.266 86.5018C211.266 87.4239 211.02 88.2123 210.526 88.8672C210.047 89.522 209.333 90.0098 208.387 90.3305ZM205.448 83.8157C204.622 83.8157 203.989 83.8357 203.549 83.8758V89.1077H204.928C205.595 89.1077 206.195 89.0743 206.728 89.0075C207.261 88.9407 207.707 88.8137 208.067 88.6266C208.44 88.4395 208.727 88.1789 208.927 87.8448C209.127 87.4974 209.227 87.043 209.227 86.4817C209.227 85.9605 209.127 85.5262 208.927 85.1788C208.727 84.8313 208.454 84.5573 208.107 84.3569C207.774 84.1564 207.374 84.0161 206.908 83.9359C206.455 83.8557 205.968 83.8157 205.448 83.8157Z" fill="white"/>
<path d="M88.0885 121.281C87.9552 120.96 87.7753 120.553 87.5487 120.058C87.3354 119.564 87.1022 119.029 86.8489 118.454C86.5957 117.88 86.3225 117.292 86.0293 116.69C85.7494 116.076 85.4828 115.501 85.2295 114.967C84.9763 114.419 84.7364 113.931 84.5098 113.503C84.2966 113.076 84.1233 112.748 83.99 112.521C83.8434 114.098 83.7234 115.808 83.6301 117.653C83.5368 119.484 83.4569 121.334 83.3902 123.205H81.4909C81.5442 122.003 81.6042 120.793 81.6709 119.577C81.7375 118.348 81.8108 117.145 81.8908 115.969C81.9841 114.779 82.0774 113.623 82.1707 112.501C82.2773 111.378 82.3906 110.316 82.5106 109.314H84.2099C84.5698 109.902 84.9563 110.597 85.3695 111.398C85.7827 112.2 86.1959 113.042 86.609 113.924C87.0222 114.793 87.4221 115.668 87.8086 116.55C88.1951 117.419 88.5483 118.214 88.8682 118.936C89.1881 118.214 89.5413 117.419 89.9278 116.55C90.3143 115.668 90.7142 114.793 91.1274 113.924C91.5405 113.042 91.9537 112.2 92.3669 111.398C92.7801 110.597 93.1666 109.902 93.5265 109.314H95.2258C95.679 113.791 96.0189 118.421 96.2455 123.205H94.3462C94.2795 121.334 94.1996 119.484 94.1063 117.653C94.013 115.808 93.893 114.098 93.7464 112.521C93.6131 112.748 93.4332 113.076 93.2066 113.503C92.9933 113.931 92.7601 114.419 92.5069 114.967C92.2536 115.501 91.9804 116.076 91.6872 116.69C91.4073 117.292 91.1407 117.88 90.8875 118.454C90.6342 119.029 90.3943 119.564 90.1677 120.058C89.9545 120.553 89.7812 120.96 89.6479 121.281H88.0885Z" fill="white"/>
<path d="M108.543 123.205C108.316 122.604 108.103 122.016 107.903 121.441C107.703 120.853 107.497 120.259 107.283 119.657H101.006L99.746 123.205H97.7268C98.2599 121.735 98.7597 120.379 99.2262 119.136C99.6927 117.88 100.146 116.69 100.586 115.568C101.039 114.445 101.485 113.376 101.925 112.361C102.365 111.332 102.825 110.316 103.305 109.314H105.084C105.564 110.316 106.024 111.332 106.464 112.361C106.903 113.376 107.343 114.445 107.783 115.568C108.236 116.69 108.696 117.88 109.163 119.136C109.629 120.379 110.129 121.735 110.662 123.205H108.543ZM106.723 118.054C106.297 116.891 105.87 115.768 105.444 114.686C105.031 113.59 104.598 112.541 104.144 111.539C103.678 112.541 103.231 113.59 102.805 114.686C102.392 115.768 101.979 116.891 101.565 118.054H106.723Z" fill="white"/>
<path d="M118.13 123.506C117.157 123.506 116.271 123.346 115.471 123.025C114.671 122.704 113.985 122.236 113.412 121.622C112.838 121.007 112.392 120.252 112.072 119.357C111.766 118.448 111.612 117.412 111.612 116.249C111.612 115.087 111.786 114.058 112.132 113.162C112.492 112.254 112.972 111.492 113.572 110.877C114.171 110.263 114.871 109.795 115.671 109.474C116.47 109.153 117.324 108.993 118.23 108.993C118.803 108.993 119.316 109.033 119.769 109.113C120.236 109.193 120.636 109.287 120.969 109.394C121.315 109.501 121.595 109.608 121.809 109.715C122.022 109.822 122.168 109.902 122.248 109.955L121.689 111.559C121.569 111.479 121.395 111.392 121.169 111.298C120.942 111.205 120.682 111.111 120.389 111.018C120.109 110.924 119.796 110.851 119.449 110.797C119.116 110.73 118.776 110.697 118.43 110.697C117.697 110.697 117.037 110.824 116.45 111.078C115.864 111.332 115.364 111.699 114.951 112.18C114.538 112.661 114.218 113.249 113.991 113.944C113.778 114.626 113.672 115.394 113.672 116.249C113.672 117.078 113.765 117.833 113.951 118.515C114.151 119.196 114.445 119.784 114.831 120.279C115.218 120.76 115.697 121.134 116.271 121.401C116.857 121.668 117.537 121.802 118.31 121.802C119.203 121.802 119.943 121.709 120.529 121.521C121.115 121.334 121.555 121.167 121.848 121.02L122.348 122.624C122.255 122.691 122.088 122.778 121.848 122.885C121.609 122.978 121.309 123.072 120.949 123.165C120.589 123.259 120.169 123.339 119.689 123.406C119.209 123.473 118.69 123.506 118.13 123.506Z" fill="white"/>
<path d="M133.287 109.314H135.226V123.205H133.287V116.791H126.509V123.205H124.57V109.314H126.509V115.107H133.287V109.314Z" fill="white"/>
<path d="M138.666 109.314H140.605V123.205H138.666V109.314Z" fill="white"/>
<path d="M153.532 123.205C153.239 122.711 152.899 122.156 152.512 121.542C152.139 120.927 151.732 120.292 151.293 119.637C150.853 118.969 150.393 118.294 149.913 117.613C149.447 116.931 148.98 116.276 148.514 115.648C148.047 115.007 147.594 114.405 147.154 113.844C146.714 113.283 146.308 112.788 145.935 112.361V123.205H144.035V109.314H145.575C146.201 109.982 146.868 110.764 147.574 111.659C148.294 112.541 149 113.456 149.693 114.405C150.4 115.341 151.059 116.263 151.672 117.172C152.299 118.08 152.825 118.889 153.252 119.597V109.314H155.151V123.205H153.532Z" fill="white"/>
<path d="M158.581 123.205V109.314H167.038V110.977H160.52V115.107H166.318V116.731H160.52V121.542H167.537V123.205H158.581Z" fill="white"/>
<path d="M182.966 121.521V123.205H174.629V109.314H176.569V121.521H182.966Z" fill="white"/>
<path d="M184.997 123.205V109.314H193.454V110.977H186.936V115.107H192.734V116.731H186.936V121.542H193.953V123.205H184.997Z" fill="white"/>
<path d="M206.007 123.205C205.78 122.604 205.567 122.016 205.367 121.441C205.167 120.853 204.96 120.259 204.747 119.657H198.47L197.21 123.205H195.191C195.724 121.735 196.224 120.379 196.69 119.136C197.157 117.88 197.61 116.69 198.05 115.568C198.503 114.445 198.949 113.376 199.389 112.361C199.829 111.332 200.289 110.316 200.769 109.314H202.548C203.028 110.316 203.488 111.332 203.927 112.361C204.367 113.376 204.807 114.445 205.247 115.568C205.7 116.69 206.16 117.88 206.627 119.136C207.093 120.379 207.593 121.735 208.126 123.205H206.007ZM204.187 118.054C203.761 116.891 203.334 115.768 202.908 114.686C202.495 113.59 202.062 112.541 201.608 111.539C201.142 112.541 200.695 113.59 200.269 114.686C199.856 115.768 199.442 116.891 199.029 118.054H204.187Z" fill="white"/>
<path d="M216.784 117.392C216.998 117.659 217.264 118.013 217.584 118.454C217.917 118.882 218.257 119.363 218.604 119.898C218.95 120.419 219.29 120.967 219.623 121.542C219.97 122.116 220.263 122.671 220.503 123.205H218.384C218.117 122.697 217.824 122.183 217.504 121.662C217.198 121.141 216.884 120.646 216.565 120.178C216.245 119.697 215.925 119.25 215.605 118.835C215.298 118.421 215.018 118.06 214.765 117.753C214.592 117.766 214.412 117.773 214.225 117.773C214.052 117.773 213.872 117.773 213.686 117.773H211.946V123.205H210.007V109.514C210.553 109.381 211.16 109.294 211.826 109.254C212.506 109.2 213.126 109.173 213.686 109.173C215.632 109.173 217.111 109.541 218.124 110.276C219.15 111.011 219.663 112.107 219.663 113.563C219.663 114.485 219.417 115.274 218.924 115.929C218.444 116.584 217.731 117.071 216.784 117.392ZM213.846 110.877C213.019 110.877 212.386 110.897 211.946 110.937V116.169H213.326C213.992 116.169 214.592 116.136 215.125 116.069C215.658 116.002 216.105 115.875 216.465 115.688C216.838 115.501 217.124 115.241 217.324 114.906C217.524 114.559 217.624 114.105 217.624 113.543C217.624 113.022 217.524 112.588 217.324 112.24C217.124 111.893 216.851 111.619 216.505 111.418C216.171 111.218 215.771 111.078 215.305 110.998C214.852 110.917 214.365 110.877 213.846 110.877Z" fill="white"/>
<path d="M232.077 123.205C231.784 122.711 231.444 122.156 231.057 121.542C230.684 120.927 230.278 120.292 229.838 119.637C229.398 118.969 228.938 118.294 228.458 117.613C227.992 116.931 227.525 116.276 227.059 115.648C226.592 115.007 226.139 114.405 225.699 113.844C225.259 113.283 224.853 112.788 224.48 112.361V123.205H222.58V109.314H224.12C224.746 109.982 225.413 110.764 226.119 111.659C226.839 112.541 227.545 113.456 228.238 114.405C228.945 115.341 229.605 116.263 230.218 117.172C230.844 118.08 231.371 118.889 231.797 119.597V109.314H233.696V123.205H232.077Z" fill="white"/>
<path d="M237.126 109.314H239.065V123.205H237.126V109.314Z" fill="white"/>
<path d="M251.991 123.205C251.698 122.711 251.358 122.156 250.972 121.542C250.599 120.927 250.192 120.292 249.752 119.637C249.312 118.969 248.853 118.294 248.373 117.613C247.906 116.931 247.44 116.276 246.973 115.648C246.507 115.007 246.054 114.405 245.614 113.844C245.174 113.283 244.767 112.788 244.394 112.361V123.205H242.495V109.314H244.034C244.661 109.982 245.327 110.764 246.034 111.659C246.753 112.541 247.46 113.456 248.153 114.405C248.859 115.341 249.519 116.263 250.132 117.172C250.759 118.08 251.285 118.889 251.712 119.597V109.314H253.611V123.205H251.991Z" fill="white"/>
<path d="M265.497 116.37H267.436V122.865C267.277 122.918 267.043 122.978 266.737 123.045C266.444 123.112 266.097 123.179 265.697 123.245C265.311 123.312 264.884 123.366 264.418 123.406C263.951 123.459 263.478 123.486 262.998 123.486C262.025 123.486 261.139 123.326 260.339 123.005C259.539 122.684 258.853 122.216 258.28 121.602C257.707 120.987 257.26 120.232 256.94 119.337C256.634 118.441 256.481 117.412 256.481 116.249C256.481 115.087 256.654 114.058 257 113.162C257.36 112.254 257.84 111.492 258.44 110.877C259.04 110.263 259.739 109.795 260.539 109.474C261.352 109.153 262.218 108.993 263.138 108.993C263.765 108.993 264.318 109.033 264.797 109.113C265.291 109.193 265.71 109.287 266.057 109.394C266.404 109.501 266.683 109.608 266.897 109.715C267.123 109.822 267.277 109.902 267.357 109.955L266.737 111.579C266.35 111.325 265.837 111.118 265.197 110.957C264.558 110.784 263.904 110.697 263.238 110.697C262.532 110.697 261.885 110.824 261.299 111.078C260.726 111.332 260.232 111.699 259.819 112.18C259.419 112.661 259.106 113.249 258.88 113.944C258.653 114.626 258.54 115.394 258.54 116.249C258.54 117.078 258.633 117.833 258.82 118.515C259.02 119.196 259.313 119.784 259.699 120.279C260.099 120.76 260.586 121.134 261.159 121.401C261.745 121.668 262.432 121.802 263.218 121.802C263.778 121.802 264.251 121.775 264.638 121.722C265.037 121.655 265.324 121.595 265.497 121.542V116.37Z" fill="white"/>
<path d="M160.719 257.19C160.719 257.671 160.619 258.139 160.42 258.593C160.233 259.034 159.98 259.475 159.66 259.916C159.34 260.344 158.98 260.772 158.58 261.199C158.18 261.614 157.781 262.021 157.381 262.422C157.154 262.649 156.888 262.917 156.581 263.224C156.288 263.531 156.008 263.852 155.741 264.186C155.475 264.52 155.248 264.841 155.062 265.148C154.888 265.456 154.802 265.723 154.802 265.95H161.179V267.534H152.782C152.769 267.454 152.762 267.373 152.762 267.293C152.762 267.213 152.762 267.14 152.762 267.073C152.762 266.445 152.862 265.863 153.062 265.329C153.276 264.781 153.549 264.266 153.882 263.785C154.215 263.304 154.588 262.85 155.002 262.422C155.415 261.995 155.821 261.58 156.221 261.179C156.554 260.859 156.868 260.545 157.161 260.237C157.467 259.916 157.734 259.602 157.96 259.295C158.2 258.974 158.387 258.647 158.52 258.313C158.667 257.979 158.74 257.625 158.74 257.25C158.74 256.849 158.674 256.509 158.54 256.228C158.42 255.947 158.254 255.714 158.04 255.526C157.827 255.339 157.574 255.206 157.281 255.126C157.001 255.032 156.701 254.985 156.381 254.985C155.995 254.985 155.641 255.039 155.321 255.146C155.002 255.253 154.715 255.379 154.462 255.526C154.209 255.66 153.995 255.807 153.822 255.967C153.649 256.114 153.515 256.228 153.422 256.308L152.502 254.985C152.622 254.852 152.802 254.691 153.042 254.504C153.282 254.304 153.569 254.117 153.902 253.943C154.235 253.769 154.608 253.622 155.022 253.502C155.435 253.382 155.881 253.321 156.361 253.321C157.814 253.321 158.9 253.662 159.62 254.344C160.353 255.012 160.719 255.961 160.719 257.19Z" fill="white"/>
<path d="M163.667 260.578C163.667 258.253 164.074 256.462 164.887 255.206C165.713 253.95 166.853 253.321 168.306 253.321C169.758 253.321 170.891 253.95 171.704 255.206C172.531 256.462 172.944 258.253 172.944 260.578C172.944 262.903 172.531 264.694 171.704 265.95C170.891 267.206 169.758 267.834 168.306 267.834C166.853 267.834 165.713 267.206 164.887 265.95C164.074 264.694 163.667 262.903 163.667 260.578ZM170.985 260.578C170.985 259.816 170.938 259.095 170.845 258.413C170.765 257.731 170.618 257.137 170.405 256.629C170.205 256.121 169.932 255.72 169.585 255.426C169.239 255.119 168.812 254.965 168.306 254.965C167.799 254.965 167.373 255.119 167.026 255.426C166.68 255.72 166.4 256.121 166.186 256.629C165.987 257.137 165.84 257.731 165.747 258.413C165.667 259.095 165.627 259.816 165.627 260.578C165.627 261.34 165.667 262.061 165.747 262.743C165.84 263.424 165.987 264.019 166.186 264.527C166.4 265.035 166.68 265.442 167.026 265.75C167.373 266.044 167.799 266.191 168.306 266.191C168.812 266.191 169.239 266.044 169.585 265.75C169.932 265.442 170.205 265.035 170.405 264.527C170.618 264.019 170.765 263.424 170.845 262.743C170.938 262.061 170.985 261.34 170.985 260.578Z" fill="white"/>
<path d="M183.289 257.19C183.289 257.671 183.189 258.139 182.989 258.593C182.803 259.034 182.549 259.475 182.23 259.916C181.91 260.344 181.55 260.772 181.15 261.199C180.75 261.614 180.35 262.021 179.95 262.422C179.724 262.649 179.457 262.917 179.151 263.224C178.857 263.531 178.578 263.852 178.311 264.186C178.044 264.52 177.818 264.841 177.631 265.148C177.458 265.456 177.371 265.723 177.371 265.95H183.749V267.534H175.352C175.339 267.454 175.332 267.373 175.332 267.293C175.332 267.213 175.332 267.14 175.332 267.073C175.332 266.445 175.432 265.863 175.632 265.329C175.845 264.781 176.119 264.266 176.452 263.785C176.785 263.304 177.158 262.85 177.571 262.422C177.984 261.995 178.391 261.58 178.791 261.179C179.124 260.859 179.437 260.545 179.731 260.237C180.037 259.916 180.304 259.602 180.53 259.295C180.77 258.974 180.957 258.647 181.09 258.313C181.237 257.979 181.31 257.625 181.31 257.25C181.31 256.849 181.243 256.509 181.11 256.228C180.99 255.947 180.823 255.714 180.61 255.526C180.397 255.339 180.144 255.206 179.85 255.126C179.571 255.032 179.271 254.985 178.951 254.985C178.564 254.985 178.211 255.039 177.891 255.146C177.571 255.253 177.285 255.379 177.032 255.526C176.778 255.66 176.565 255.807 176.392 255.967C176.218 256.114 176.085 256.228 175.992 256.308L175.072 254.985C175.192 254.852 175.372 254.691 175.612 254.504C175.852 254.304 176.139 254.117 176.472 253.943C176.805 253.769 177.178 253.622 177.591 253.502C178.004 253.382 178.451 253.321 178.931 253.321C180.384 253.321 181.47 253.662 182.19 254.344C182.923 255.012 183.289 255.961 183.289 257.19Z" fill="white"/>
<path d="M189.216 258.994C191.229 259.075 192.701 259.516 193.634 260.317C194.581 261.119 195.054 262.208 195.054 263.585C195.054 264.2 194.947 264.768 194.734 265.289C194.534 265.81 194.221 266.258 193.794 266.632C193.381 267.006 192.855 267.3 192.215 267.514C191.575 267.728 190.815 267.834 189.936 267.834C189.589 267.834 189.236 267.808 188.876 267.754C188.516 267.701 188.183 267.634 187.877 267.554C187.57 267.474 187.297 267.393 187.057 267.313C186.817 267.233 186.644 267.166 186.537 267.113L186.897 265.489C187.124 265.596 187.49 265.736 187.997 265.91C188.516 266.084 189.149 266.171 189.896 266.171C190.496 266.171 190.995 266.104 191.395 265.97C191.808 265.837 192.142 265.656 192.395 265.429C192.648 265.202 192.828 264.941 192.935 264.647C193.055 264.34 193.115 264.019 193.115 263.685C193.115 263.177 193.028 262.73 192.855 262.342C192.681 261.941 192.375 261.607 191.935 261.34C191.495 261.072 190.909 260.872 190.176 260.738C189.443 260.591 188.516 260.518 187.397 260.518C187.477 259.863 187.537 259.248 187.577 258.674C187.63 258.099 187.677 257.538 187.717 256.99C187.757 256.442 187.79 255.901 187.817 255.366C187.843 254.818 187.87 254.244 187.897 253.642H194.574V255.226H189.516C189.503 255.426 189.483 255.7 189.456 256.048C189.429 256.382 189.403 256.736 189.376 257.11C189.349 257.471 189.323 257.825 189.296 258.173C189.269 258.52 189.243 258.794 189.216 258.994Z" fill="white"/>
<path d="M147.162 233.637H149.101V240.131C148.941 240.185 148.708 240.245 148.402 240.312C148.108 240.379 147.762 240.445 147.362 240.512C146.976 240.579 146.549 240.633 146.082 240.673C145.616 240.726 145.143 240.753 144.663 240.753C143.69 240.753 142.804 240.592 142.004 240.272C141.204 239.951 140.518 239.483 139.945 238.869C139.372 238.254 138.925 237.499 138.605 236.603C138.299 235.708 138.145 234.679 138.145 233.516C138.145 232.354 138.319 231.325 138.665 230.429C139.025 229.521 139.505 228.759 140.105 228.144C140.704 227.529 141.404 227.062 142.204 226.741C143.017 226.42 143.883 226.26 144.803 226.26C145.429 226.26 145.983 226.3 146.462 226.38C146.956 226.46 147.375 226.554 147.722 226.661C148.068 226.768 148.348 226.875 148.562 226.981C148.788 227.088 148.941 227.169 149.021 227.222L148.402 228.846C148.015 228.592 147.502 228.385 146.862 228.224C146.222 228.051 145.569 227.964 144.903 227.964C144.197 227.964 143.55 228.091 142.964 228.345C142.391 228.599 141.897 228.966 141.484 229.447C141.084 229.928 140.771 230.516 140.545 231.211C140.318 231.893 140.205 232.661 140.205 233.516C140.205 234.345 140.298 235.1 140.485 235.782C140.684 236.463 140.978 237.051 141.364 237.546C141.764 238.027 142.251 238.401 142.824 238.668C143.41 238.935 144.097 239.069 144.883 239.069C145.443 239.069 145.916 239.042 146.302 238.989C146.702 238.922 146.989 238.862 147.162 238.808V233.637Z" fill="white"/>
<path d="M160.475 238.788V240.472H152.138V226.581H154.077V238.788H160.475Z" fill="white"/>
<path d="M161.047 233.516C161.047 232.327 161.22 231.278 161.567 230.369C161.927 229.46 162.407 228.705 163.006 228.104C163.619 227.489 164.326 227.028 165.126 226.721C165.939 226.414 166.798 226.26 167.705 226.26C168.598 226.26 169.437 226.414 170.224 226.721C171.023 227.028 171.723 227.489 172.323 228.104C172.923 228.705 173.396 229.46 173.742 230.369C174.102 231.278 174.282 232.327 174.282 233.516C174.282 234.706 174.102 235.755 173.742 236.664C173.396 237.572 172.923 238.334 172.323 238.949C171.723 239.55 171.023 240.004 170.224 240.312C169.437 240.619 168.598 240.773 167.705 240.773C166.798 240.773 165.939 240.619 165.126 240.312C164.326 240.004 163.619 239.55 163.006 238.949C162.407 238.334 161.927 237.572 161.567 236.664C161.22 235.755 161.047 234.706 161.047 233.516ZM163.086 233.516C163.086 234.358 163.193 235.127 163.406 235.822C163.619 236.503 163.919 237.085 164.306 237.566C164.706 238.047 165.186 238.421 165.745 238.688C166.318 238.942 166.958 239.069 167.665 239.069C168.371 239.069 169.004 238.942 169.564 238.688C170.124 238.421 170.597 238.047 170.983 237.566C171.383 237.085 171.69 236.503 171.903 235.822C172.116 235.127 172.223 234.358 172.223 233.516C172.223 232.674 172.116 231.913 171.903 231.231C171.69 230.536 171.383 229.948 170.983 229.467C170.597 228.986 170.124 228.619 169.564 228.365C169.004 228.097 168.371 227.964 167.665 227.964C166.958 227.964 166.318 228.097 165.745 228.365C165.186 228.619 164.706 228.986 164.306 229.467C163.919 229.948 163.619 230.536 163.406 231.231C163.193 231.913 163.086 232.674 163.086 233.516Z" fill="white"/>
<path d="M180.906 240.592C180.626 240.592 180.32 240.586 179.987 240.572C179.667 240.559 179.34 240.539 179.007 240.512C178.687 240.486 178.367 240.452 178.047 240.412C177.727 240.372 177.434 240.319 177.168 240.252V226.781C177.434 226.714 177.727 226.661 178.047 226.621C178.367 226.581 178.687 226.547 179.007 226.52C179.34 226.494 179.667 226.474 179.987 226.46C180.306 226.447 180.606 226.44 180.886 226.44C181.686 226.44 182.432 226.5 183.125 226.621C183.832 226.741 184.438 226.948 184.945 227.242C185.464 227.523 185.871 227.897 186.164 228.365C186.457 228.832 186.604 229.407 186.604 230.089C186.604 230.85 186.424 231.478 186.064 231.973C185.704 232.454 185.225 232.815 184.625 233.055C185.438 233.296 186.084 233.677 186.564 234.198C187.044 234.719 187.284 235.454 187.284 236.403C187.284 237.793 186.771 238.842 185.744 239.55C184.731 240.245 183.119 240.592 180.906 240.592ZM179.087 233.997V238.889C179.233 238.902 179.407 238.915 179.607 238.929C179.78 238.942 179.98 238.955 180.206 238.969C180.446 238.969 180.72 238.969 181.026 238.969C181.599 238.969 182.139 238.935 182.646 238.869C183.165 238.788 183.618 238.655 184.005 238.468C184.392 238.281 184.698 238.02 184.925 237.686C185.165 237.352 185.285 236.931 185.285 236.423C185.285 235.969 185.198 235.588 185.025 235.28C184.851 234.96 184.598 234.706 184.265 234.519C183.945 234.332 183.559 234.198 183.105 234.118C182.652 234.038 182.146 233.997 181.586 233.997H179.087ZM179.087 232.434H181.126C181.606 232.434 182.059 232.401 182.486 232.334C182.912 232.267 183.279 232.147 183.585 231.973C183.905 231.799 184.152 231.572 184.325 231.291C184.512 231.011 184.605 230.657 184.605 230.229C184.605 229.828 184.512 229.494 184.325 229.227C184.138 228.946 183.878 228.725 183.545 228.565C183.225 228.391 182.845 228.264 182.406 228.184C181.966 228.104 181.499 228.064 181.006 228.064C180.513 228.064 180.126 228.071 179.847 228.084C179.567 228.097 179.313 228.117 179.087 228.144V232.434Z" fill="white"/>
<path d="M199.271 240.472C199.044 239.871 198.831 239.283 198.631 238.708C198.431 238.12 198.225 237.526 198.011 236.924H191.734L190.474 240.472H188.455C188.988 239.002 189.488 237.646 189.954 236.403C190.421 235.147 190.874 233.957 191.314 232.835C191.767 231.712 192.214 230.643 192.653 229.628C193.093 228.599 193.553 227.583 194.033 226.581H195.812C196.292 227.583 196.752 228.599 197.192 229.628C197.632 230.643 198.071 231.712 198.511 232.835C198.964 233.957 199.424 235.147 199.891 236.403C200.357 237.646 200.857 239.002 201.39 240.472H199.271ZM197.452 235.32C197.025 234.158 196.599 233.035 196.172 231.953C195.759 230.857 195.326 229.808 194.873 228.806C194.406 229.808 193.96 230.857 193.533 231.953C193.12 233.035 192.707 234.158 192.294 235.32H197.452Z" fill="white"/>
<path d="M211.608 238.788V240.472H203.271V226.581H205.21V238.788H211.608Z" fill="white"/>
</svg>
