<svg viewBox="0 0 348 348" fill="none" xmlns="http://www.w3.org/2000/svg">
<path d="M153.466 240V226.14H161.826V227.8H155.406V231.98H161.106V233.62H155.406V240H153.466Z" fill="white"/>
<path fill-rule="evenodd" clip-rule="evenodd" d="M172.55 240C172.324 239.4 172.11 238.813 171.91 238.24C171.71 237.653 171.504 237.06 171.29 236.46H165.01L163.75 240H161.73C162.264 238.533 162.764 237.18 163.23 235.94C163.697 234.687 164.15 233.5 164.59 232.38C165.044 231.26 165.49 230.193 165.93 229.18C166.37 228.153 166.83 227.14 167.31 226.14H169.09C169.57 227.14 170.03 228.153 170.47 229.18C170.91 230.193 171.35 231.26 171.79 232.38C172.244 233.5 172.704 234.687 173.17 235.94C173.637 237.18 174.137 238.533 174.67 240H172.55ZM170.73 234.86C170.304 233.7 169.877 232.58 169.45 231.5C169.037 230.407 168.604 229.36 168.15 228.36C167.684 229.36 167.237 230.407 166.81 231.5C166.397 232.58 165.984 233.7 165.57 234.86H170.73Z" fill="white"/>
<path d="M184.892 238.32V240H176.552V226.14H178.492V238.32H184.892Z" fill="white"/>
<path d="M195.263 238.32V240H186.923V226.14H188.863V238.32H195.263Z" fill="white"/>
<path d="M160.122 258.08C160.322 257.627 160.422 257.16 160.422 256.68C160.422 255.453 160.055 254.507 159.322 253.84C158.602 253.16 157.515 252.82 156.062 252.82C155.582 252.82 155.135 252.88 154.722 253C154.309 253.12 153.935 253.267 153.602 253.44C153.269 253.613 152.982 253.8 152.742 254C152.502 254.187 152.322 254.347 152.202 254.48L153.122 255.8C153.215 255.72 153.349 255.607 153.522 255.46C153.695 255.3 153.909 255.153 154.162 255.02C154.415 254.873 154.702 254.747 155.022 254.64C155.342 254.533 155.695 254.48 156.082 254.48C156.402 254.48 156.702 254.527 156.982 254.62C157.275 254.7 157.529 254.833 157.742 255.02C157.955 255.207 158.122 255.44 158.242 255.72C158.375 256 158.442 256.34 158.442 256.74C158.442 257.113 158.369 257.467 158.222 257.8C158.089 258.133 157.902 258.46 157.662 258.78C157.435 259.087 157.169 259.4 156.862 259.72C156.569 260.027 156.255 260.34 155.922 260.66C155.522 261.06 155.115 261.473 154.702 261.9C154.289 262.327 153.915 262.78 153.582 263.26C153.249 263.74 152.975 264.253 152.762 264.8C152.562 265.333 152.462 265.913 152.462 266.54V266.76C152.462 266.84 152.469 266.92 152.482 267H160.882V265.42H154.502C154.502 265.193 154.589 264.927 154.762 264.62C154.949 264.313 155.175 263.993 155.442 263.66C155.709 263.327 155.989 263.007 156.282 262.7L157.082 261.9C157.482 261.5 157.882 261.093 158.282 260.68C158.682 260.253 159.042 259.827 159.362 259.4C159.682 258.96 159.935 258.52 160.122 258.08Z" fill="white"/>
<path fill-rule="evenodd" clip-rule="evenodd" d="M164.591 254.7C163.778 255.953 163.371 257.74 163.371 260.06C163.371 262.38 163.778 264.167 164.591 265.42C165.418 266.673 166.558 267.3 168.011 267.3C169.464 267.3 170.598 266.673 171.411 265.42C172.238 264.167 172.651 262.38 172.651 260.06C172.651 257.74 172.238 255.953 171.411 254.7C170.598 253.447 169.464 252.82 168.011 252.82C166.558 252.82 165.418 253.447 164.591 254.7ZM170.551 257.9C170.644 258.58 170.691 259.3 170.691 260.06C170.691 260.82 170.644 261.54 170.551 262.22C170.471 262.9 170.324 263.493 170.111 264C169.911 264.507 169.638 264.913 169.291 265.22C168.944 265.513 168.518 265.66 168.011 265.66C167.504 265.66 167.078 265.513 166.731 265.22C166.384 264.913 166.104 264.507 165.891 264C165.691 263.493 165.544 262.9 165.451 262.22C165.371 261.54 165.331 260.82 165.331 260.06C165.331 259.3 165.371 258.58 165.451 257.9C165.544 257.22 165.691 256.627 165.891 256.12C166.104 255.613 166.384 255.213 166.731 254.92C167.078 254.613 167.504 254.46 168.011 254.46C168.518 254.46 168.944 254.613 169.291 254.92C169.638 255.213 169.911 255.613 170.111 256.12C170.324 256.627 170.471 257.22 170.551 257.9Z" fill="white"/>
<path d="M182.7 258.08C182.9 257.627 183 257.16 183 256.68C183 255.453 182.633 254.507 181.9 253.84C181.18 253.16 180.093 252.82 178.64 252.82C178.16 252.82 177.713 252.88 177.3 253C176.887 253.12 176.513 253.267 176.18 253.44C175.847 253.613 175.56 253.8 175.32 254C175.08 254.187 174.9 254.347 174.78 254.48L175.7 255.8C175.793 255.72 175.927 255.607 176.1 255.46C176.273 255.3 176.487 255.153 176.74 255.02C176.993 254.873 177.28 254.747 177.6 254.64C177.92 254.533 178.273 254.48 178.66 254.48C178.98 254.48 179.28 254.527 179.56 254.62C179.853 254.7 180.107 254.833 180.32 255.02C180.533 255.207 180.7 255.44 180.82 255.72C180.953 256 181.02 256.34 181.02 256.74C181.02 257.113 180.947 257.467 180.8 257.8C180.667 258.133 180.48 258.46 180.24 258.78C180.013 259.087 179.747 259.4 179.44 259.72C179.147 260.027 178.833 260.34 178.5 260.66C178.1 261.06 177.693 261.473 177.28 261.9C176.867 262.327 176.493 262.78 176.16 263.26C175.827 263.74 175.553 264.253 175.34 264.8C175.14 265.333 175.04 265.913 175.04 266.54V266.76C175.04 266.84 175.047 266.92 175.06 267H183.46V265.42H177.08C177.08 265.193 177.167 264.927 177.34 264.62C177.527 264.313 177.753 263.993 178.02 263.66C178.287 263.327 178.567 263.007 178.86 262.7L179.66 261.9C180.06 261.5 180.46 261.093 180.86 260.68C181.26 260.253 181.62 259.827 181.94 259.4C182.26 258.96 182.513 258.52 182.7 258.08Z" fill="white"/>
<path d="M192.009 264.94C191.503 265.407 190.656 265.64 189.469 265.64C188.709 265.64 188.063 265.553 187.529 265.38C187.009 265.207 186.636 265.067 186.409 264.96L186.049 266.58C186.156 266.633 186.329 266.7 186.569 266.78C186.809 266.86 187.089 266.94 187.409 267.02C187.729 267.1 188.069 267.167 188.429 267.22C188.803 267.273 189.163 267.3 189.509 267.3C190.403 267.3 191.176 267.193 191.829 266.98C192.483 266.767 193.023 266.473 193.449 266.1C193.889 265.727 194.209 265.287 194.409 264.78C194.623 264.26 194.729 263.7 194.729 263.1C194.729 262.607 194.649 262.16 194.489 261.76C194.343 261.36 194.143 261.007 193.889 260.7C193.649 260.393 193.363 260.14 193.029 259.94C192.696 259.74 192.349 259.587 191.989 259.48C192.576 259.213 193.076 258.827 193.489 258.32C193.903 257.8 194.109 257.18 194.109 256.46C194.109 255.94 194.023 255.46 193.849 255.02C193.676 254.567 193.416 254.18 193.069 253.86C192.723 253.527 192.283 253.273 191.749 253.1C191.216 252.913 190.583 252.82 189.849 252.82C189.463 252.82 189.089 252.86 188.729 252.94C188.383 253.007 188.056 253.093 187.749 253.2C187.443 253.307 187.163 253.427 186.909 253.56C186.669 253.68 186.469 253.793 186.309 253.9L187.029 255.32C187.336 255.12 187.709 254.927 188.149 254.74C188.603 254.553 189.149 254.46 189.789 254.46C190.109 254.46 190.409 254.5 190.689 254.58C190.983 254.647 191.236 254.767 191.449 254.94C191.676 255.113 191.856 255.333 191.989 255.6C192.123 255.867 192.189 256.187 192.189 256.56C192.189 257.013 192.096 257.393 191.909 257.7C191.723 257.993 191.483 258.227 191.189 258.4C190.896 258.573 190.569 258.693 190.209 258.76C189.863 258.827 189.523 258.86 189.189 258.86H188.529V260.38H189.009C189.489 260.38 189.956 260.427 190.409 260.52C190.876 260.6 191.283 260.747 191.629 260.96C191.976 261.16 192.256 261.433 192.469 261.78C192.683 262.127 192.789 262.553 192.789 263.06C192.789 263.847 192.529 264.473 192.009 264.94Z" fill="white"/>
<path d="M153.494 85H148.693V115H153.494V85Z" fill="white"/>
<path d="M165.285 110.387C166.433 110.387 170.294 110.021 170.294 105.43V94.6H175.093V115H170.294V113.362C169.093 114.458 166.84 114.953 165.249 114.953C163.005 114.953 160.934 114.197 159.551 112.814C157.986 111.249 157.093 108.901 157.093 106.058V94.6H161.894V106.082C161.894 107.702 162.416 110.387 165.285 110.387Z" fill="white"/>
<path d="M184.693 87.4H179.894V94.6H176.294V99.4H179.894V115H184.693V99.4H188.294V94.6H184.693V87.4Z" fill="white"/>
<path d="M199.47 110.361C200.985 110.361 202.365 109.84 203.41 108.9L204.14 108.25L207.426 111.483L206.644 112.214C204.764 113.961 202.209 114.926 199.469 114.926C193.573 114.926 189.112 110.441 189.112 104.518C189.112 98.5698 193.469 94.2399 199.469 94.2399C202.158 94.2399 204.687 95.2047 206.591 96.9244L207.401 97.6552L204.165 100.89L203.436 100.264C202.365 99.3243 200.958 98.8287 199.47 98.8287C196.054 98.8287 193.68 101.177 193.68 104.543C193.68 107.909 196.132 110.361 199.47 110.361Z" fill="white"/>
<path d="M224.533 96.3784C223.151 94.9961 221.531 94.2399 219.287 94.2399C217.696 94.2399 215.894 94.7357 214.693 95.83V85H209.894V115H214.693V103.762C214.693 99.1709 217.955 98.8058 219.104 98.8058C221.899 98.8058 221.896 101.356 221.894 102.983V115H226.693V103.136C226.693 100.292 226.099 97.9445 224.533 96.3784Z" fill="white"/>
<path d="M201.766 102.142C201.115 101.491 200.232 101.126 199.312 101.126C198.391 101.126 197.508 101.491 196.858 102.142C196.207 102.793 195.841 103.676 195.841 104.596C195.841 105.516 196.207 106.399 196.858 107.05C197.508 107.701 198.391 108.066 199.312 108.066C200.232 108.066 201.115 107.701 201.766 107.05C202.416 106.399 202.782 105.516 202.782 104.596C202.782 103.676 202.416 102.793 201.766 102.142Z" fill="white"/>
<path d="M135.06 110.361C137.669 110.361 140.148 109.343 141.974 107.465L142.731 106.709L145.913 109.969L145.209 110.7C142.548 113.44 138.948 114.952 135.06 114.952C127.209 114.952 121.26 108.717 121.26 100.421C121.26 92.1005 127.182 85.8399 135.06 85.8399C138.922 85.8399 142.522 87.3256 145.182 90.0651L145.887 90.7958L142.678 94.0048L141.948 93.274C140.096 91.421 137.644 90.4047 135.06 90.4047C129.713 90.4047 125.825 94.6046 125.825 100.396C125.825 106.161 129.713 110.361 135.06 110.361Z" fill="white"/>
<path d="M216.581 162.535L219.488 177.536H213.558L216.465 162.535H216.581Z" fill="white"/>
<path d="M185.296 167.594V156.198H187.738C188.206 156.198 188.639 156.224 189.037 156.276C189.477 156.333 189.874 156.422 190.229 156.543C190.913 156.776 191.439 157.126 191.809 157.593C192.584 158.523 192.972 159.919 192.972 161.779C192.972 163.679 192.622 165.132 191.925 166.14C191.266 167.109 189.948 167.594 187.971 167.594H185.296Z" fill="white"/>
<path d="M185.296 172.826V186.083H187.855C189.057 186.083 189.987 185.909 190.646 185.56C191.343 185.211 191.867 184.727 192.215 184.106C192.565 183.486 192.778 182.75 192.855 181.897C192.933 181.044 192.972 180.114 192.972 179.106C192.972 178.06 192.913 177.149 192.797 176.373C192.681 175.598 192.448 174.939 192.1 174.396C191.712 173.854 191.189 173.466 190.53 173.234C189.87 172.962 188.998 172.826 187.913 172.826H185.296Z" fill="white"/>
<path d="M157.284 185.444C156.509 184.746 156.121 183.68 156.121 182.246V160.384C156.121 158.95 156.509 157.903 157.284 157.244C157.639 156.94 158.019 156.702 158.426 156.53C158.952 156.308 159.522 156.197 160.133 156.197C161.218 156.197 162.149 156.546 162.924 157.244C163.738 157.903 164.145 158.95 164.145 160.384V182.246C164.145 183.68 163.738 184.746 162.924 185.444C162.149 186.102 161.218 186.432 160.133 186.432C159.048 186.432 158.098 186.102 157.284 185.444Z" fill="white"/>
<path fill-rule="evenodd" clip-rule="evenodd" d="M173.999 33L302.339 103.226V244.774L173.999 315L45.6602 244.774V103.226L173.999 33ZM57.6875 237.644V212.408H290.312V237.644L173.999 301.289L57.6875 237.644ZM290.312 110.355V130.221H57.6875V110.355L173.999 46.7099L290.312 110.355ZM235.258 150.616V192.014H252.934V186.083H241.188V150.616H235.258ZM204.836 192.014L214.08 150.616H219.023L228.268 192.014H222.338L220.593 183.118H212.51L210.766 192.014H204.836ZM179.366 150.616V192.014H187.448C191.325 192.014 194.135 191.045 195.879 189.107C197.662 187.169 198.553 184.378 198.553 180.734V178.408C198.553 176.199 198.224 174.455 197.564 173.175C196.906 171.896 195.879 170.927 194.483 170.268C195.84 169.493 196.848 168.563 197.507 167.477C197.6 167.323 197.686 167.161 197.765 166.993C197.826 166.864 197.882 166.73 197.935 166.593C198.071 166.237 198.18 165.853 198.262 165.442C198.349 165.094 198.417 164.71 198.464 164.29L198.493 164.011C198.533 163.574 198.553 163.101 198.553 162.593V161.081C198.553 159.725 198.359 158.426 197.972 157.186C197.623 155.907 197.022 154.783 196.17 153.814C195.317 152.844 194.212 152.069 192.855 151.488C191.537 150.906 189.929 150.616 188.029 150.616H179.366ZM150.191 160.384C150.191 158.717 150.482 157.244 151.063 155.965C151.644 154.686 152.42 153.62 153.389 152.767C153.92 152.302 154.49 151.9 155.098 151.561C155.364 151.412 155.638 151.276 155.919 151.152C156.118 151.064 156.322 150.982 156.529 150.906C157.73 150.48 158.932 150.267 160.133 150.267C161.334 150.267 162.517 150.48 163.68 150.906C164.882 151.333 165.967 151.953 166.936 152.767C167.401 153.193 167.822 153.673 168.2 154.206C168.578 154.739 168.912 155.325 169.203 155.965C169.784 157.244 170.076 158.717 170.076 160.384V182.246C170.076 183.99 169.784 185.482 169.203 186.723C168.622 187.963 167.866 188.99 166.936 189.805C166.571 190.126 166.189 190.417 165.791 190.678C165.132 191.109 164.428 191.457 163.68 191.723C163.44 191.811 163.198 191.89 162.956 191.96C162.578 192.069 162.198 192.157 161.815 192.221C161.259 192.316 160.698 192.363 160.133 192.363C158.932 192.363 157.73 192.149 156.529 191.723C155.912 191.497 155.328 191.211 154.777 190.865C154.288 190.559 153.825 190.205 153.389 189.805C152.42 188.99 151.644 187.963 151.063 186.723C150.967 186.518 150.879 186.306 150.799 186.087C150.598 185.542 150.448 184.955 150.348 184.324C150.243 183.677 150.191 182.984 150.191 182.246V160.384ZM124.95 150.616V192.014H142.625V186.083H130.88V150.616H124.95ZM95.7742 160.384C95.7742 158.717 96.0649 157.244 96.6463 155.965C96.9389 155.32 97.2815 154.73 97.673 154.194C98.0577 153.666 98.4913 153.19 98.9719 152.767C99.9027 151.953 100.949 151.333 102.112 150.906C103.314 150.48 104.515 150.267 105.717 150.267C106.919 150.267 108.101 150.48 109.264 150.906C110.465 151.333 111.55 151.953 112.519 152.767C113.45 153.62 114.206 154.686 114.787 155.965C115.369 157.244 115.659 158.717 115.659 160.384V162.477H109.729V160.384C109.729 159.887 109.68 159.438 109.582 159.034C109.398 158.271 109.04 157.675 108.507 157.244C107.732 156.546 106.802 156.197 105.717 156.197C104.631 156.197 103.682 156.546 102.867 157.244C102.092 157.903 101.705 158.95 101.705 160.384V182.246C101.705 183.68 102.092 184.746 102.867 185.444C103.682 186.102 104.631 186.432 105.717 186.432C106.802 186.432 107.732 186.102 108.507 185.444C109.322 184.746 109.729 183.68 109.729 182.246V174.455H105.019V169.222H115.659V182.246C115.659 183.99 115.369 185.482 114.787 186.723C114.206 187.963 113.45 188.99 112.519 189.805C111.55 190.657 110.465 191.297 109.264 191.723C108.101 192.149 106.919 192.363 105.717 192.363C104.515 192.363 103.314 192.149 102.112 191.723C100.949 191.297 99.9027 190.657 98.9719 189.805C98.0029 188.99 97.2277 187.963 96.6463 186.723C96.0649 185.482 95.7742 183.99 95.7742 182.246V160.384Z" fill="white"/>
</svg>
