<svg viewBox="0 0 348 348" fill="none" xmlns="http://www.w3.org/2000/svg">
<path d="M169.18 67.2891L173.527 55L177.574 67.2891H189.561L180.569 75.0824L184.165 87.9695L173.524 80.7771L162.887 87.9695L167.232 75.3814L155.691 67.8901L169.18 67.2891Z" fill="white"/>
<path d="M200.948 70.1124L198.791 76.2057L192.101 76.5046L197.825 80.2185L195.669 86.4659L200.948 82.8968L206.222 86.4659L204.44 80.0706L208.9 76.2057H202.952L200.948 70.1124Z" fill="white"/>
<path d="M145.588 76.2057L147.747 70.1124L149.752 76.2057H155.7L151.241 80.0706L153.023 86.4659L147.747 82.8968L142.469 86.4659L144.622 80.2185L138.9 76.5046L145.588 76.2057Z" fill="white"/>
<path d="M156.219 255.807V257H163.399V255.588H158.488V255.509L160.656 253.239C161.32 252.565 161.838 251.991 162.211 251.519C162.584 251.043 162.845 250.612 162.994 250.224C163.147 249.837 163.223 249.441 163.223 249.037C163.223 248.451 163.076 247.925 162.781 247.46C162.487 246.991 162.076 246.622 161.551 246.352C161.029 246.078 160.425 245.942 159.74 245.942C159.061 245.942 158.456 246.08 157.923 246.357C157.391 246.631 156.972 247.016 156.666 247.513C156.361 248.01 156.208 248.591 156.208 249.255H157.78C157.78 248.864 157.858 248.523 158.014 248.232C158.17 247.941 158.394 247.716 158.685 247.556C158.976 247.396 159.317 247.316 159.708 247.316C160.077 247.316 160.409 247.389 160.704 247.534C160.999 247.676 161.231 247.881 161.402 248.147C161.572 248.41 161.657 248.722 161.657 249.085C161.657 249.404 161.593 249.706 161.466 249.99C161.338 250.274 161.144 250.574 160.885 250.89C160.629 251.203 160.304 251.567 159.91 251.982L156.219 255.807Z" fill="white"/>
<path fill-rule="evenodd" clip-rule="evenodd" d="M169.216 257.181C168.374 257.178 167.655 256.956 167.059 256.515C166.462 256.075 166.006 255.434 165.69 254.592C165.374 253.751 165.216 252.737 165.216 251.551C165.216 250.368 165.374 249.358 165.69 248.52C166.009 247.682 166.467 247.043 167.064 246.602C167.664 246.162 168.381 245.942 169.216 245.942C170.05 245.942 170.766 246.164 171.363 246.608C171.959 247.048 172.416 247.687 172.732 248.525C173.051 249.36 173.211 250.368 173.211 251.551C173.211 252.74 173.053 253.756 172.737 254.598C172.421 255.436 171.965 256.077 171.368 256.521C170.771 256.961 170.054 257.181 169.216 257.181ZM169.216 255.759C169.955 255.759 170.532 255.398 170.947 254.678C171.366 253.957 171.576 252.914 171.576 251.551C171.576 250.645 171.48 249.88 171.288 249.255C171.1 248.626 170.828 248.151 170.473 247.827C170.121 247.501 169.702 247.337 169.216 247.337C168.481 247.337 167.904 247.7 167.485 248.424C167.066 249.148 166.854 250.191 166.851 251.551C166.851 252.46 166.945 253.229 167.133 253.857C167.325 254.482 167.597 254.956 167.948 255.279C168.3 255.599 168.722 255.759 169.216 255.759Z" fill="white"/>
<path d="M175.101 255.807V257H182.281V255.588H177.37V255.509L179.538 253.239C180.202 252.565 180.72 251.991 181.093 251.519C181.466 251.043 181.727 250.612 181.876 250.224C182.029 249.837 182.105 249.441 182.105 249.037C182.105 248.451 181.958 247.925 181.663 247.46C181.368 246.991 180.958 246.622 180.433 246.352C179.911 246.078 179.307 245.942 178.622 245.942C177.943 245.942 177.338 246.08 176.805 246.357C176.273 246.631 175.853 247.016 175.548 247.513C175.243 248.01 175.09 248.591 175.09 249.255H176.661C176.661 248.864 176.739 248.523 176.896 248.232C177.052 247.941 177.276 247.716 177.567 247.556C177.858 247.396 178.199 247.316 178.59 247.316C178.959 247.316 179.291 247.389 179.586 247.534C179.88 247.676 180.113 247.881 180.284 248.147C180.454 248.41 180.539 248.722 180.539 249.085C180.539 249.404 180.475 249.706 180.347 249.99C180.22 250.274 180.026 250.574 179.767 250.89C179.511 251.203 179.186 251.567 178.792 251.982L175.101 255.807Z" fill="white"/>
<path fill-rule="evenodd" clip-rule="evenodd" d="M183.836 254.869V253.538L188.551 246.091H190.58V253.474H192.024V254.869H190.58V257H189.009V254.869H183.836ZM188.934 248.051H189.019V253.474H185.562V253.388L188.934 248.051Z" fill="white"/>
<path d="M124.879 273.514V271.636H134.744V273.514H130.922V284H128.701V273.514H124.879Z" fill="white"/>
<path d="M135.586 274.727V284H137.771V278.549C137.771 278.154 137.862 277.806 138.043 277.504C138.224 277.202 138.472 276.967 138.786 276.798C139.104 276.625 139.462 276.538 139.86 276.538C140.045 276.538 140.236 276.552 140.434 276.581C140.635 276.605 140.782 276.633 140.874 276.665V274.655C140.774 274.635 140.647 274.621 140.494 274.613C140.345 274.6 140.21 274.594 140.09 274.594C139.558 274.594 139.085 274.741 138.671 275.035C138.26 275.325 137.971 275.737 137.802 276.273H137.705V274.727H135.586Z" fill="white"/>
<path d="M148.236 280.1V274.727H150.422V284H148.303V282.352H148.206C147.997 282.871 147.653 283.296 147.174 283.626C146.699 283.956 146.113 284.121 145.417 284.121C144.809 284.121 144.272 283.986 143.805 283.716C143.342 283.443 142.98 283.046 142.719 282.527C142.457 282.004 142.326 281.372 142.326 280.631V274.727H144.512V280.293C144.512 280.881 144.673 281.348 144.995 281.694C145.317 282.04 145.739 282.213 146.262 282.213C146.584 282.213 146.896 282.135 147.198 281.978C147.5 281.821 147.747 281.587 147.941 281.277C148.138 280.963 148.236 280.571 148.236 280.1Z" fill="white"/>
<path fill-rule="evenodd" clip-rule="evenodd" d="M154.365 283.602C155.042 283.988 155.844 284.181 156.774 284.181C157.495 284.181 158.134 284.072 158.694 283.855C159.253 283.634 159.712 283.324 160.07 282.925C160.432 282.523 160.678 282.052 160.807 281.513L158.766 281.283C158.67 281.545 158.527 281.764 158.338 281.941C158.149 282.118 157.925 282.253 157.668 282.346C157.41 282.434 157.122 282.479 156.804 282.479C156.329 282.479 155.915 282.378 155.561 282.177C155.207 281.972 154.931 281.678 154.734 281.295C154.543 280.922 154.445 280.477 154.438 279.961H160.897V279.291C160.897 278.478 160.785 277.778 160.559 277.19C160.334 276.599 160.024 276.112 159.63 275.729C159.239 275.347 158.788 275.065 158.277 274.884C157.77 274.699 157.231 274.607 156.659 274.607C155.774 274.607 155.003 274.81 154.347 275.216C153.691 275.619 153.18 276.182 152.814 276.907C152.452 277.627 152.271 278.464 152.271 279.418C152.271 280.388 152.452 281.231 152.814 281.947C153.176 282.66 153.693 283.211 154.365 283.602ZM154.442 278.488C154.463 278.125 154.556 277.789 154.722 277.48C154.911 277.13 155.174 276.848 155.512 276.635C155.85 276.418 156.243 276.309 156.69 276.309C157.108 276.309 157.474 276.404 157.788 276.593C158.106 276.782 158.354 277.041 158.531 277.371C158.708 277.697 158.798 278.07 158.803 278.488H154.442Z" fill="white"/>
<path d="M162.843 284V271.636H170.763V273.514H165.082V276.87H170.22V278.748H165.082V284H162.843Z" fill="white"/>
<path d="M172.707 274.727V284H174.892V274.727H172.707Z" fill="white"/>
<path d="M173.806 273.411C173.46 273.411 173.162 273.297 172.912 273.067C172.663 272.834 172.538 272.554 172.538 272.228C172.538 271.898 172.663 271.618 172.912 271.389C173.162 271.155 173.46 271.039 173.806 271.039C174.156 271.039 174.454 271.155 174.699 271.389C174.949 271.618 175.074 271.898 175.074 272.228C175.074 272.554 174.949 272.834 174.699 273.067C174.454 273.297 174.156 273.411 173.806 273.411Z" fill="white"/>
<path d="M177.14 274.727V284H179.325V278.549C179.325 278.154 179.416 277.806 179.597 277.504C179.778 277.202 180.025 276.967 180.339 276.798C180.657 276.625 181.015 276.538 181.414 276.538C181.599 276.538 181.79 276.552 181.987 276.581C182.189 276.605 182.335 276.633 182.428 276.665V274.655C182.327 274.635 182.201 274.621 182.048 274.613C181.899 274.6 181.764 274.594 181.643 274.594C181.112 274.594 180.639 274.741 180.225 275.035C179.814 275.325 179.524 275.737 179.355 276.273H179.259V274.727H177.14Z" fill="white"/>
<path d="M183.88 284V274.727H185.969V276.303H186.077C186.271 275.772 186.591 275.357 187.037 275.059C187.484 274.757 188.017 274.607 188.637 274.607C189.265 274.607 189.794 274.759 190.225 275.065C190.659 275.367 190.965 275.78 191.142 276.303H191.239C191.444 275.788 191.79 275.377 192.277 275.071C192.768 274.761 193.35 274.607 194.022 274.607C194.875 274.607 195.571 274.876 196.111 275.415C196.65 275.955 196.92 276.742 196.92 277.776V284H194.728V278.114C194.728 277.538 194.575 277.118 194.269 276.852C193.964 276.583 193.589 276.448 193.147 276.448C192.619 276.448 192.207 276.613 191.909 276.943C191.615 277.269 191.468 277.693 191.468 278.217V284H189.325V278.023C189.325 277.544 189.18 277.162 188.891 276.876C188.605 276.591 188.231 276.448 187.768 276.448C187.454 276.448 187.168 276.528 186.91 276.689C186.653 276.846 186.448 277.07 186.295 277.359C186.142 277.645 186.065 277.979 186.065 278.362V284H183.88Z" fill="white"/>
<path d="M204.473 277.396L206.466 277.178C206.317 276.389 205.928 275.764 205.3 275.301C204.677 274.838 203.821 274.607 202.735 274.607C201.994 274.607 201.34 274.723 200.773 274.957C200.209 275.186 199.769 275.512 199.451 275.935C199.137 276.353 198.982 276.848 198.986 277.42C198.982 278.096 199.193 278.655 199.62 279.098C200.046 279.537 200.704 279.849 201.594 280.034L203.175 280.366C203.602 280.458 203.916 280.591 204.117 280.764C204.322 280.937 204.425 281.157 204.425 281.422C204.425 281.736 204.266 282 203.948 282.213C203.634 282.426 203.218 282.533 202.699 282.533C202.195 282.533 201.787 282.426 201.473 282.213C201.159 282 200.954 281.684 200.857 281.265L198.726 281.471C198.859 282.324 199.272 282.99 199.964 283.469C200.656 283.944 201.57 284.181 202.705 284.181C203.477 284.181 204.161 284.056 204.757 283.807C205.353 283.557 205.818 283.211 206.152 282.768C206.49 282.322 206.661 281.807 206.665 281.223C206.661 280.559 206.443 280.022 206.013 279.611C205.586 279.201 204.934 278.901 204.057 278.712L202.475 278.374C202.004 278.265 201.666 278.126 201.461 277.957C201.26 277.788 201.161 277.569 201.165 277.299C201.161 276.985 201.312 276.73 201.618 276.532C201.928 276.335 202.31 276.237 202.765 276.237C203.103 276.237 203.389 276.291 203.622 276.4C203.856 276.508 204.041 276.651 204.178 276.828C204.318 277.005 204.417 277.194 204.473 277.396Z" fill="white"/>
<path d="M207.706 272.875V271.582H213.799V272.875H211.528V279H209.977V272.875H207.706Z" fill="white"/>
<path d="M217.042 271.582H215.108V279H216.629V274.154H216.691L218.611 278.964H219.647L221.566 274.172H221.628V279H223.149V271.582H221.215L219.172 276.566H219.085L217.042 271.582Z" fill="white"/>
<path d="M70.0052 196.439C70.3336 197.159 70.4977 198.043 70.4977 199.091C70.4977 200.139 70.3336 201.025 70.0052 201.749C69.6813 202.469 69.2315 203.016 68.6558 203.389C68.08 203.758 67.4165 203.942 66.6654 203.942C65.9142 203.942 65.2507 203.758 64.6749 203.389C64.0992 203.016 63.6471 202.469 63.3188 201.749C62.9949 201.025 62.833 200.139 62.833 199.091C62.833 198.043 62.9949 197.159 63.3188 196.439C63.6471 195.715 64.0992 195.169 64.6749 194.8C65.2507 194.426 65.9142 194.24 66.6654 194.24C67.4165 194.24 68.08 194.426 68.6558 194.8C69.2315 195.169 69.6813 195.715 70.0052 196.439Z" fill="white"/>
<path d="M124.325 200.582L122.454 195.016H122.346L120.479 200.582H124.325Z" fill="white"/>
<path d="M133.14 198.862H135.448C136.068 198.862 136.577 198.776 136.972 198.605C137.368 198.43 137.661 198.176 137.85 197.843C138.043 197.505 138.14 197.092 138.14 196.601C138.14 196.111 138.043 195.693 137.85 195.346C137.656 194.995 137.362 194.73 136.966 194.55C136.57 194.366 136.059 194.273 135.434 194.273H133.14V198.862Z" fill="white"/>
<path d="M163.809 203.834H161.751V194.348H163.883C164.819 194.348 165.602 194.523 166.231 194.874C166.866 195.22 167.345 195.744 167.669 196.446C167.992 197.143 168.154 198.02 168.154 199.077C168.154 200.134 167.992 201.016 167.669 201.722C167.345 202.424 166.861 202.953 166.218 203.308C165.575 203.659 164.772 203.834 163.809 203.834Z" fill="white"/>
<path d="M229.409 196.439C229.737 197.159 229.901 198.043 229.901 199.091C229.901 200.139 229.737 201.025 229.409 201.749C229.085 202.469 228.635 203.016 228.059 203.389C227.483 203.758 226.82 203.942 226.069 203.942C225.317 203.942 224.654 203.758 224.078 203.389C223.503 203.016 223.05 202.469 222.722 201.749C222.398 201.025 222.236 200.139 222.236 199.091C222.236 198.043 222.398 197.159 222.722 196.439C223.05 195.715 223.503 195.169 224.078 194.8C224.654 194.426 225.317 194.24 226.069 194.24C226.82 194.24 227.483 194.426 228.059 194.8C228.635 195.169 229.085 195.715 229.409 196.439Z" fill="white"/>
<path d="M237.288 199.273H239.595C240.216 199.273 240.724 199.165 241.12 198.949C241.516 198.733 241.808 198.436 241.997 198.059C242.19 197.681 242.287 197.247 242.287 196.756C242.287 196.266 242.19 195.834 241.997 195.461C241.808 195.088 241.513 194.797 241.113 194.591C240.717 194.379 240.207 194.273 239.582 194.273H237.288V199.273Z" fill="white"/>
<path fill-rule="evenodd" clip-rule="evenodd" d="M173.9 21L177.082 23.6789C182.835 28.2662 186.51 30.9516 190.118 33.2039C194.22 35.7651 203.756 40.6832 208.369 42.6167C231.217 52.1949 259.982 58.3176 290.782 60.1586L301.609 60.5478L301.8 171H334L315.176 199L334 227H290.892C282.012 251.878 262.787 273.295 241.056 290.399C220.177 306.833 196.064 319.285 173.901 326.999V327L173.9 326.999L173.898 327V326.999C151.736 319.285 127.622 306.833 106.743 290.399C85.0128 273.295 65.7875 251.878 56.9074 227H14L32.8235 199L14 171H46.0002L46.1913 60.5478L57.0182 60.1586C87.8177 58.3176 116.583 52.1949 139.431 42.6167C144.044 40.6832 153.58 35.7651 157.682 33.2039C161.29 30.9516 164.965 28.2662 170.718 23.6789L173.9 21ZM64.9792 171H58.5531L57.7843 170.928V71.3667L77.4065 69.5581C89.9368 67.9132 112.195 63.8922 121.964 60.8809C140.963 55.0241 157.504 46.9218 169.282 39.8382L173.9 36.9345L178.517 39.8382C190.295 46.9218 206.837 55.0241 225.836 60.8809C235.605 63.8922 257.863 67.9132 270.393 69.5581L290.016 71.3667V170.928L289.247 171H282.821C282.39 170.98 282.138 170.96 282.121 170.943C282.065 170.887 282.451 169.668 282.978 168.234C283.505 166.8 284.185 164.47 284.488 163.057C285.191 159.789 285.594 153.434 285.168 152.336C284.849 151.512 284.804 151.526 282.88 153.091C278.332 156.787 274.862 162.905 274.169 168.446C274.026 169.593 273.74 170.492 273.533 170.445C273.11 170.347 272.066 158.913 272.369 157.704C272.477 157.275 273.482 155.865 274.604 154.57C277.737 150.951 278.439 148.418 278.439 140.727C278.439 136.065 278.275 134.022 277.719 131.752C277.323 130.136 276.867 128.732 276.705 128.632C276.261 128.357 273.831 131.715 272.584 134.33C271.027 137.592 270.34 140.898 270.334 145.16C270.331 147.183 270.17 148.838 269.978 148.838C269.785 148.838 269.351 147.862 269.013 146.669C268.676 145.476 267.9 143.169 267.289 141.544C265.89 137.822 265.895 136.904 267.319 135.177C270.282 131.582 270.588 125.423 268.247 116.502C267.326 112.989 265.325 108.47 264.691 108.47C264.325 108.47 263.262 111.097 262.258 114.481C261.454 117.195 261.427 124.966 262.213 127.557C262.873 129.734 262.895 129.975 262.439 129.975C262.249 129.975 261.314 128.659 260.36 127.051C258.148 123.32 257.86 122.858 256.897 121.486C255.619 119.667 255.562 118.001 256.701 115.827C257.552 114.203 257.686 113.494 257.662 110.734C257.63 107.07 256.987 104.579 255.04 100.581C253.063 96.5218 248.878 91.3132 248.165 92.0263C248.008 92.1825 247.887 94.7155 247.894 97.6552C247.91 103.503 248.766 108.102 250.416 111.208C252.261 114.679 252.067 114.824 249.454 111.924C248.589 110.964 246.757 109.072 245.384 107.721C243.042 105.415 242.876 105.14 242.702 103.258C242.469 100.75 240.386 97.5706 237.826 95.8201C236.207 94.7124 227.853 91.1159 226.899 91.1159C226.277 91.1159 226.77 92.7612 228.456 96.3173C230.94 101.554 234.557 104.576 239.606 105.633C242.289 106.194 243.274 106.803 245.98 109.572C247.948 111.587 247.763 111.953 245.298 110.923C244.553 110.611 242.877 110.357 241.573 110.358C238.827 110.36 232.645 111.294 232.157 111.782C231.709 112.229 235.42 115.898 237.28 116.848C241.25 118.873 245.441 119.274 249.201 117.988C250.342 117.598 251.682 117.38 252.179 117.503C252.781 117.653 253.938 118.981 255.656 121.494C257.072 123.565 258.236 125.386 258.243 125.542C258.265 126.039 257.501 125.847 256.448 125.091C254.541 123.721 251.094 122.874 246.277 122.593C243.735 122.444 241.656 122.441 241.656 122.585C241.656 122.73 242.328 123.839 243.151 125.049C244.972 127.731 247.564 130.022 250.333 131.397C252.233 132.34 252.778 132.427 256.806 132.431C260.538 132.435 261.319 132.54 261.968 133.127C262.593 133.693 263.769 136.306 266.45 143.085C266.784 143.929 265.74 143.582 264.959 142.588C264.54 142.056 263.526 141.196 262.705 140.678C260.91 139.545 251.072 135.146 250.844 135.375C250.577 135.641 252.174 139.408 253.831 142.425C256.725 147.693 260.766 150.903 265.272 151.514C266.38 151.665 267.769 152.132 268.36 152.553C269.32 153.237 269.519 153.767 270.243 157.585C271.259 162.948 271.656 166.572 271.226 166.563C271.043 166.56 270.48 165.601 269.974 164.433C268.836 161.806 266.274 159.004 261.25 154.892L257.382 151.726L257.635 154.715C257.945 158.38 258.567 160.732 260.071 163.929C261.268 166.472 263.735 170.028 264.927 170.928C264.96 170.953 264.902 170.977 264.753 171H194.193L190.888 163.447H184.176L184.173 163.445L182.566 162.541C179.797 160.977 178.075 153.766 178.075 150.58V144.796C180.365 143.942 182.511 142.382 184.441 140.25H186.626C197.875 140.25 207 131.11 207 119.861V112.932C207 112.042 206.268 111.31 205.364 111.31H193.938C193.943 111.102 193.947 110.893 193.95 110.684C193.955 110.349 193.958 110.012 193.958 109.675V109.094H196.129V102.494H151.871V109.094H154.042V109.675C154.042 110.218 154.049 110.759 154.062 111.296H142.636C141.732 111.296 141 112.028 141 112.932V119.862C141 131.125 150.125 140.25 161.374 140.25H163.559C165.489 142.383 167.635 143.942 169.925 144.796V150.58C169.925 153.766 168.218 160.977 165.435 162.541L163.827 163.445L163.824 163.447H157.112L153.807 171H83.0471C82.8974 170.977 82.8399 170.953 82.8731 170.928C84.0653 170.028 86.5323 166.472 87.7286 163.929C89.2324 160.732 89.8545 158.38 90.165 154.715L90.4181 151.726L86.55 154.892C81.5255 159.004 78.9635 161.806 77.8256 164.433C77.3197 165.601 76.7564 166.56 76.5742 166.563C76.1438 166.572 76.5406 162.948 77.557 157.585C78.281 153.767 78.4794 153.237 79.44 152.553C80.0304 152.132 81.4199 151.665 82.5275 151.514C87.034 150.903 91.0746 147.693 93.9686 142.425C95.626 139.408 97.2226 135.641 96.9562 135.375C96.728 135.146 86.8895 139.545 85.0949 140.678C84.2739 141.196 83.2594 142.056 82.8407 142.588C82.0593 143.582 81.0162 143.929 81.3501 143.085C84.0306 136.306 85.2065 133.693 85.8317 133.127C86.481 132.54 87.2615 132.435 90.9942 132.431C95.0216 132.427 95.5667 132.34 97.467 131.397C100.236 130.022 102.828 127.731 104.649 125.049C105.472 123.839 106.144 122.73 106.144 122.585C106.144 122.441 104.065 122.444 101.523 122.593C96.7057 122.874 93.259 123.721 91.3515 125.091C90.2985 125.847 89.5349 126.039 89.5568 125.542C89.5636 125.386 90.7275 123.565 92.1434 121.494C93.8615 118.981 95.0186 117.653 95.6211 117.503C96.1175 117.38 97.4576 117.598 98.5988 117.988C102.359 119.274 106.55 118.873 110.519 116.848C112.38 115.898 116.091 112.229 115.643 111.782C115.155 111.294 108.973 110.36 106.226 110.358C104.923 110.357 103.247 110.611 102.502 110.923C100.037 111.953 99.8518 111.587 101.82 109.572C104.525 106.803 105.51 106.194 108.194 105.633C113.243 104.576 116.86 101.554 119.344 96.3173C121.03 92.7612 121.522 91.1159 120.9 91.1159C119.947 91.1159 111.593 94.7124 109.974 95.8201C107.414 97.5706 105.33 100.75 105.098 103.258C104.923 105.14 104.758 105.415 102.416 107.721C101.042 109.072 99.2112 110.964 98.3457 111.924C95.7331 114.824 95.5384 114.679 97.3837 111.208C99.0342 108.102 99.8899 103.503 99.9053 97.6552C99.9129 94.7155 99.7914 92.1825 99.6348 92.0263C98.9222 91.3132 94.7364 96.5218 92.7595 100.581C90.8131 104.579 90.1699 107.07 90.1382 110.734C90.1141 113.494 90.248 114.203 91.0987 115.827C92.2381 118.001 92.1804 119.667 90.9029 121.486C89.9401 122.858 89.6523 123.32 87.4396 127.051C86.4859 128.659 85.5506 129.975 85.3612 129.975C84.9043 129.975 84.9266 129.734 85.5872 127.557C86.373 124.966 86.3459 117.195 85.5415 114.481C84.538 111.097 83.4753 108.47 83.1093 108.47C82.4751 108.47 80.4741 112.989 79.5524 116.502C77.2114 125.423 77.5178 131.582 80.4812 135.177C81.905 136.904 81.9096 137.822 80.511 141.544C79.8999 143.169 79.1238 145.476 78.7865 146.669C78.4489 147.862 78.015 148.838 77.8222 148.838C77.6294 148.838 77.4691 147.183 77.4661 145.16C77.4597 140.898 76.773 137.592 75.216 134.33C73.9684 131.715 71.5392 128.357 71.0947 128.632C70.9329 128.732 70.4764 130.136 70.0807 131.752C69.5246 134.022 69.3605 136.065 69.3605 140.727C69.3605 148.418 70.0625 150.951 73.1961 154.57C74.3174 155.865 75.3228 157.275 75.4303 157.704C75.734 158.913 74.6898 170.347 74.2665 170.445C74.0601 170.492 73.7737 169.593 73.6304 168.446C72.9381 162.905 69.468 156.787 64.92 153.091C62.9955 151.526 62.951 151.512 62.6318 152.336C62.2059 153.434 62.6088 159.789 63.3113 163.057C63.615 164.47 64.2948 166.8 64.8219 168.234C65.3489 169.668 65.7345 170.887 65.6787 170.943C65.6617 170.96 65.4095 170.98 64.9792 171ZM69.1587 227C75.6395 246.794 99.3755 270.571 111.446 280C131.499 295.665 155.499 309.999 173.9 314.267C192.301 309.999 216.3 295.665 236.354 280C248.424 270.571 272.16 246.794 278.641 227H256.7L255.289 229.097C254.356 230.484 253.016 232.267 252.313 233.059C251.609 233.85 251.13 234.595 251.249 234.713C251.367 234.832 252.537 234.408 253.848 233.773C258.024 231.749 263.23 231.371 267.813 232.761C270.106 233.456 271.135 234.018 271.135 234.576C271.135 234.822 270.138 235.972 268.921 237.13C264.821 241.031 257.342 243.933 252.877 243.354C250.898 243.098 248.568 242.074 247.767 241.108C246.884 240.044 245.579 240.439 243.127 242.515C241.828 243.615 239.699 245.237 238.397 246.12C236.061 247.703 235.514 248.765 237.407 248.046C238.834 247.503 242.763 247.608 245.307 248.256C248.059 248.957 251.526 250.705 253.738 252.507L255.394 253.856L254.229 254.896C253.561 255.493 251.727 256.364 249.932 256.937C242.202 259.403 234.451 258.113 231.345 253.844C229.753 251.655 228.915 251.555 224.339 253.006C220.407 254.252 219.414 254.23 219.149 252.888C219.07 252.484 219.705 252.161 221.413 251.736C224.307 251.017 227.731 249.753 228.699 249.045C229.311 248.597 229.452 247.817 229.675 243.669C230.04 236.864 231.642 232.97 235.775 228.836L237.611 227H110.189L112.024 228.836C116.158 232.97 117.76 236.864 118.125 243.669C118.347 247.817 118.489 248.597 119.101 249.045C120.069 249.753 123.493 251.017 126.387 251.736C128.095 252.161 128.73 252.484 128.651 252.888C128.386 254.23 127.393 254.252 123.461 253.006C118.885 251.555 118.047 251.655 116.455 253.844C113.349 258.113 105.598 259.403 97.8673 256.937C96.0726 256.364 94.2383 255.493 93.5706 254.896L92.4056 253.856L94.0614 252.507C96.2741 250.705 99.7412 248.957 102.493 248.256C105.037 247.608 108.966 247.503 110.393 248.046C112.285 248.765 111.739 247.703 109.403 246.12C108.101 245.237 105.972 243.615 104.672 242.515C102.221 240.439 100.916 240.044 100.033 241.108C99.2315 242.074 96.9019 243.098 94.9231 243.354C90.4581 243.933 82.9784 241.031 78.879 237.13C77.6615 235.972 76.6651 234.822 76.6651 234.576C76.6651 234.018 77.6936 233.456 79.9866 232.761C84.5697 231.371 89.7756 231.749 93.9516 233.773C95.263 234.408 96.4325 234.832 96.551 234.713C96.6695 234.595 96.1907 233.85 95.4871 233.059C94.7839 232.267 93.4442 230.484 92.5105 229.097L91.0996 227H69.1587ZM93.1404 227C93.2799 227.341 93.7284 227.944 94.533 229.008C95.1604 229.838 95.7263 230.588 95.7901 230.674C95.8538 230.761 96.0002 230.737 96.1156 230.621C96.2311 230.506 96.0421 229.544 95.695 228.483C95.4528 227.743 95.2829 227.283 95.0903 227H93.1404ZM103.484 227C103.392 227.209 103.342 227.517 103.274 227.97C103.158 228.749 102.787 230.489 102.449 231.837C102.111 233.186 101.821 235.018 101.804 235.908C101.777 237.419 101.919 237.655 103.947 239.45C107.141 242.277 112.282 245.9 112.438 245.434C112.512 245.211 112.066 244.452 111.446 243.746C109.593 241.635 108.482 237.911 107.191 229.479L106.811 227H103.484ZM240.988 227L240.609 229.479C239.318 237.911 238.207 241.635 236.354 243.746C235.734 244.452 235.288 245.211 235.362 245.434C235.517 245.9 240.659 242.277 243.853 239.45C245.881 237.655 246.023 237.419 245.995 235.908C245.979 235.018 245.689 233.186 245.351 231.837C245.013 230.489 244.642 228.749 244.525 227.97C244.458 227.517 244.408 227.209 244.316 227H240.988ZM252.71 227C252.517 227.283 252.347 227.743 252.105 228.483C251.758 229.544 251.569 230.506 251.684 230.621C251.8 230.737 251.946 230.761 252.01 230.674C252.074 230.588 252.639 229.838 253.267 229.008C254.071 227.944 254.52 227.341 254.659 227H252.71ZM193.774 114.567C193.096 123.508 190.582 131.398 186.941 136.978C196.239 136.806 203.743 129.202 203.743 119.861V114.567H193.774ZM161.047 136.964C157.41 131.382 154.902 123.491 154.225 114.553H144.257V119.847C144.257 129.184 151.755 136.786 161.047 136.964ZM55.0417 194.604C55.5095 194.932 55.7749 195.391 55.8378 195.98H58.2466C58.2331 195.202 58.0149 194.514 57.5921 193.916C57.1693 193.313 56.5868 192.843 55.8446 192.506C55.1069 192.164 54.2478 191.993 53.2672 191.993C52.3001 191.993 51.4342 192.164 50.6695 192.506C49.9048 192.843 49.2999 193.318 48.8545 193.929C48.4137 194.541 48.1933 195.254 48.1933 196.068C48.1933 197.058 48.5217 197.852 49.1784 198.45C49.8396 199.044 50.7392 199.487 51.8773 199.779L53.4494 200.184C53.9441 200.31 54.376 200.454 54.7448 200.616C55.1181 200.773 55.4083 200.971 55.6152 201.21C55.8221 201.443 55.9278 201.74 55.9323 202.1C55.9278 202.496 55.8086 202.842 55.5747 203.139C55.3408 203.432 55.0169 203.661 54.6031 203.827C54.1938 203.989 53.717 204.07 53.1727 204.07C52.6509 204.07 52.1786 203.992 51.7558 203.834C51.3375 203.677 50.9979 203.438 50.737 203.119C50.4761 202.8 50.3277 202.399 50.2917 201.918H47.829C47.865 202.836 48.1034 203.614 48.5442 204.252C48.9895 204.891 49.6057 205.377 50.3929 205.71C51.1846 206.043 52.1179 206.209 53.193 206.209C54.2995 206.209 55.2418 206.038 56.02 205.696C56.8027 205.35 57.4009 204.871 57.8148 204.259C58.2286 203.643 58.4355 202.93 58.4355 202.12C58.4355 201.522 58.3231 201 58.0981 200.555C57.8732 200.11 57.5674 199.73 57.1805 199.415C56.7982 199.1 56.3641 198.839 55.8783 198.632C55.397 198.425 54.8955 198.261 54.3737 198.14L53.0783 197.816C52.7949 197.748 52.5137 197.665 52.2349 197.566C51.956 197.467 51.7018 197.346 51.4724 197.202C51.243 197.053 51.0609 196.873 50.9259 196.662C50.7955 196.451 50.7302 196.201 50.7302 195.913C50.7347 195.567 50.836 195.259 51.0339 194.989C51.2318 194.719 51.5174 194.505 51.8908 194.348C52.2641 194.19 52.7117 194.112 53.2334 194.112C53.9756 194.112 54.5784 194.276 55.0417 194.604ZM72.1778 202.917C72.7355 201.855 73.0144 200.58 73.0144 199.091C73.0144 197.602 72.7355 196.329 72.1778 195.272C71.6245 194.21 70.8688 193.399 69.9107 192.836C68.9571 192.274 67.8753 191.993 66.6654 191.993C65.4554 191.993 64.3713 192.274 63.4132 192.836C62.4596 193.399 61.7039 194.21 61.1462 195.272C60.5929 196.329 60.3163 197.602 60.3163 199.091C60.3163 200.575 60.5929 201.848 61.1462 202.91C61.7039 203.967 62.4596 204.779 63.4132 205.346C64.3713 205.908 65.4554 206.189 66.6654 206.189C67.8753 206.189 68.9571 205.908 69.9107 205.346C70.8688 204.783 71.6245 203.974 72.1778 202.917ZM84.2333 192.182H75.381V206H77.8842V200.13H83.626V198.032H77.8842V194.28H84.2333V192.182ZM85.9066 192.182V194.28H90.1775V206H92.6605V194.28H96.9314V192.182H85.9066ZM100.757 192.182H98.0649L101.965 206H104.434L107.207 196.304H107.315L110.082 206H112.551L116.451 192.182H113.759L111.269 202.343H111.148L108.483 192.182H106.033L103.375 202.336H103.247L100.757 192.182ZM115.99 206H118.662L119.805 202.593H125L126.145 206H128.817L123.945 192.182H120.855L115.99 206ZM135.819 192.182H130.637V206H133.14V200.94H135.687L138.403 206H141.196L138.207 200.529C138.297 200.493 138.385 200.454 138.47 200.413C139.199 200.058 139.75 199.556 140.123 198.909C140.501 198.257 140.69 197.487 140.69 196.601C140.69 195.72 140.503 194.948 140.13 194.287C139.761 193.621 139.215 193.104 138.491 192.735C137.771 192.366 136.88 192.182 135.819 192.182ZM151.981 192.182H142.994V206H152.035V203.902H145.497V200.13H151.516V198.032H145.497V194.28H151.981V192.182ZM159.248 206H163.931C165.334 206 166.535 205.723 167.534 205.17C168.537 204.617 169.304 203.823 169.834 202.788C170.37 201.754 170.637 200.517 170.637 199.077C170.637 197.643 170.372 196.41 169.841 195.38C169.31 194.35 168.55 193.56 167.561 193.012C166.576 192.458 165.397 192.182 164.025 192.182H159.248V206ZM173.016 192.182V206H182.057V203.902H175.519V200.13H181.537V198.032H175.519V194.28H182.003V192.182H173.016ZM190.002 203.058L186.406 192.182H183.659L188.524 206H191.614L196.486 192.182H193.733L190.143 203.058H190.002ZM198.306 192.182V206H207.347V203.902H200.809V200.13H206.827V198.032H200.809V194.28H207.293V192.182H198.306ZM209.847 192.182V206H218.436V203.902H212.35V192.182H209.847ZM231.581 202.917C232.139 201.855 232.418 200.58 232.418 199.091C232.418 197.602 232.139 196.329 231.581 195.272C231.028 194.21 230.272 193.399 229.314 192.836C228.36 192.274 227.279 191.993 226.069 191.993C224.859 191.993 223.775 192.274 222.817 192.836C221.863 193.399 221.107 194.21 220.549 195.272C219.996 196.329 219.72 197.602 219.72 199.091C219.72 200.575 219.996 201.848 220.549 202.91C221.107 203.967 221.863 204.779 222.817 205.346C223.775 205.908 224.859 206.189 226.069 206.189C227.279 206.189 228.36 205.908 229.314 205.346C230.272 204.783 231.028 203.974 231.581 202.917ZM239.966 192.182H234.784V206H237.288V201.331H239.932C240.998 201.331 241.896 201.135 242.625 200.744C243.353 200.348 243.904 199.806 244.278 199.118C244.651 198.43 244.838 197.643 244.838 196.756C244.838 195.879 244.651 195.097 244.278 194.408C243.909 193.716 243.362 193.171 242.638 192.776C241.918 192.38 241.028 192.182 239.966 192.182ZM250.075 192.182H247.012V206H249.414V196.487H249.542L253.361 205.96H255.156L258.975 196.507H259.103V206H261.505V192.182H258.442L254.339 202.195H254.177L250.075 192.182ZM273.218 192.182H264.231V206H273.272V203.902H266.734V200.13H272.752V198.032H266.734V194.28H273.218V192.182ZM284.901 206H287.127V192.182H284.637V201.601H284.516L278.012 192.182H275.772V206H278.275V196.588H278.39L284.901 206ZM289.247 192.182V194.28H293.518V206H296.001V194.28H300.272V192.182H289.247Z" fill="white"/>
</svg>
