<svg viewBox="0 0 348 348" fill="none" xmlns="http://www.w3.org/2000/svg">
<path fill-rule="evenodd" clip-rule="evenodd" d="M173.999 33L302.339 103.226V244.774L173.999 315L45.6599 244.774V103.226L173.999 33ZM290.311 110.355L173.999 46.7102L57.6873 110.355V140.925H290.311V110.355ZM57.6873 237.645V207.075H290.311V237.645L173.999 301.29L57.6873 237.645ZM140.453 154.276H146.868V194.367H140.453V154.276ZM169.319 181.578C169.319 187.714 164.16 188.203 162.625 188.203C158.791 188.203 158.094 184.614 158.094 182.449V167.105H151.679V182.417C151.679 186.217 152.872 189.354 154.963 191.445C156.811 193.295 159.579 194.305 162.577 194.305C164.704 194.305 167.715 193.642 169.319 192.178V194.367H175.734V167.105H169.319V181.578ZM182.148 157.483H188.563V167.105H193.374V173.52H188.563V194.367H182.148V173.52H177.337V167.105H182.148V157.483ZM213.575 186.216C212.178 187.471 210.334 188.168 208.31 188.168C203.849 188.168 200.573 184.891 200.573 180.393C200.573 175.895 203.745 172.756 208.31 172.756C210.299 172.756 212.178 173.419 213.61 174.674L214.584 175.511L218.909 171.188L217.826 170.211C215.281 167.913 211.902 166.624 208.308 166.624C200.29 166.624 194.467 172.41 194.467 180.359C194.467 188.275 200.43 194.268 208.308 194.268C211.97 194.268 215.384 192.979 217.897 190.643L218.943 189.667L214.55 185.347L213.575 186.216ZM234.793 166.624C237.792 166.624 239.957 167.635 241.804 169.482C243.897 171.575 244.691 174.711 244.691 178.512V194.367H238.276V178.309C238.279 176.134 238.283 172.726 234.548 172.726C233.013 172.726 228.654 173.214 228.654 179.349V194.367H222.24V154.276H228.654V168.749C230.258 167.287 232.666 166.624 234.793 166.624ZM208.098 175.826C209.328 175.826 210.508 176.314 211.378 177.184C212.247 178.054 212.736 179.234 212.736 180.464C212.736 181.693 212.247 182.873 211.378 183.743C210.508 184.613 209.328 185.101 208.098 185.101C206.868 185.101 205.688 184.613 204.819 183.743C203.949 182.873 203.46 181.693 203.46 180.464C203.46 179.234 203.949 178.054 204.819 177.184C205.688 176.314 206.868 175.826 208.098 175.826ZM131.473 184.298C129.034 186.808 125.721 188.168 122.234 188.168C115.088 188.168 109.893 182.555 109.893 174.851C109.893 167.111 115.088 161.499 122.234 161.499C125.687 161.499 128.963 162.857 131.439 165.333L132.414 166.31L136.702 162.021L135.761 161.045C132.206 157.384 127.395 155.398 122.234 155.398C111.706 155.398 103.792 163.765 103.792 174.884C103.792 185.97 111.741 194.303 122.234 194.303C127.43 194.303 132.241 192.282 135.796 188.621L136.738 187.644L132.485 183.288L131.473 184.298Z" fill="white"/>
<path fill-rule="evenodd" clip-rule="evenodd" d="M167.11 89.1879C167.11 87.9985 167.284 86.9495 167.631 86.0407C167.992 85.132 168.473 84.3769 169.074 83.7756C169.689 83.1608 170.397 82.6998 171.199 82.3924C172.014 82.0851 172.876 81.9314 173.785 81.9314C174.681 81.9314 175.522 82.0851 176.311 82.3924C177.113 82.6998 177.814 83.1608 178.416 83.7756C179.017 84.3769 179.491 85.132 179.839 86.0407C180.2 86.9495 180.38 87.9985 180.38 89.1879C180.38 90.3773 180.2 91.4263 179.839 92.3351C179.491 93.2438 179.017 94.0055 178.416 94.6203C177.814 95.2216 177.113 95.676 176.311 95.9834C175.522 96.2907 174.681 96.4444 173.785 96.4444C172.876 96.4444 172.014 96.2907 171.199 95.9834C170.397 95.676 169.689 95.2216 169.074 94.6203C168.473 94.0055 167.992 93.2438 167.631 92.3351C167.284 91.4263 167.11 90.3773 167.11 89.1879ZM169.155 89.1879C169.155 90.0298 169.262 90.7982 169.475 91.4931C169.689 92.1747 169.99 92.756 170.377 93.2371C170.778 93.7182 171.259 94.0924 171.821 94.3597C172.395 94.6136 173.037 94.7405 173.745 94.7405C174.453 94.7405 175.088 94.6136 175.649 94.3597C176.211 94.0924 176.685 93.7182 177.073 93.2371C177.474 92.756 177.781 92.1747 177.995 91.4931C178.209 90.7982 178.315 90.0298 178.315 89.1879C178.315 88.346 178.209 87.5842 177.995 86.9027C177.781 86.2078 177.474 85.6198 177.073 85.1387C176.685 84.6576 176.211 84.2901 175.649 84.0362C175.088 83.7689 174.453 83.6353 173.745 83.6353C173.037 83.6353 172.395 83.7689 171.821 84.0362C171.259 84.2901 170.778 84.6576 170.377 85.1387C169.99 85.6198 169.689 86.2078 169.475 86.9027C169.262 87.5842 169.155 88.346 169.155 89.1879Z" fill="white"/>
<path d="M166.166 82.2521V83.9359H161.796V96.1437H159.852V83.9359H155.482V82.2521H166.166Z" fill="white"/>
<path fill-rule="evenodd" clip-rule="evenodd" d="M191.452 83.2343C190.409 82.486 188.913 82.1118 186.962 82.1118C186.4 82.1118 185.779 82.1385 185.097 82.192C184.429 82.2321 183.821 82.3189 183.273 82.4526V96.1437H185.218V90.992H186.761C187.737 90.992 188.612 90.9118 189.387 90.7515C190.162 90.5911 190.817 90.3372 191.352 89.9897C191.899 89.6289 192.314 89.1678 192.594 88.6066C192.888 88.0319 193.035 87.3437 193.035 86.5419C193.035 85.0719 192.508 83.9693 191.452 83.2343ZM185.218 83.8758C185.659 83.8357 186.293 83.8157 187.122 83.8157C187.643 83.8157 188.138 83.8558 188.605 83.9359C189.073 84.0161 189.481 84.1631 189.828 84.3769C190.189 84.5774 190.47 84.8514 190.67 85.1988C190.884 85.5463 190.991 85.9873 190.991 86.5218C190.991 87.0831 190.891 87.5441 190.69 87.905C190.49 88.2658 190.202 88.5531 189.828 88.7669C189.467 88.9674 189.02 89.1144 188.485 89.2079C187.95 89.2881 187.349 89.3282 186.681 89.3282H185.218V83.8758Z" fill="white"/>
<path fill-rule="evenodd" clip-rule="evenodd" d="M198.089 113.102C197.742 114.011 197.568 115.06 197.568 116.249C197.568 117.439 197.742 118.488 198.089 119.397C198.45 120.305 198.931 121.067 199.533 121.682C200.147 122.283 200.856 122.738 201.657 123.045C202.473 123.352 203.335 123.506 204.243 123.506C205.139 123.506 205.981 123.352 206.769 123.045C207.571 122.738 208.272 122.283 208.874 121.682C209.475 121.067 209.95 120.305 210.297 119.397C210.658 118.488 210.838 117.439 210.838 116.249C210.838 115.06 210.658 114.011 210.297 113.102C209.95 112.194 209.475 111.439 208.874 110.837C208.272 110.222 207.571 109.761 206.769 109.454C205.981 109.147 205.139 108.993 204.243 108.993C203.335 108.993 202.473 109.147 201.657 109.454C200.856 109.761 200.147 110.222 199.533 110.837C198.931 111.439 198.45 112.194 198.089 113.102ZM199.933 118.555C199.72 117.86 199.613 117.091 199.613 116.249C199.613 115.408 199.72 114.646 199.933 113.964C200.147 113.269 200.448 112.681 200.836 112.2C201.236 111.719 201.718 111.352 202.279 111.098C202.853 110.83 203.495 110.697 204.203 110.697C204.911 110.697 205.546 110.83 206.108 111.098C206.669 111.352 207.143 111.719 207.531 112.2C207.932 112.681 208.239 113.269 208.453 113.964C208.667 114.646 208.774 115.408 208.774 116.249C208.774 117.091 208.667 117.86 208.453 118.555C208.239 119.236 207.932 119.818 207.531 120.299C207.143 120.78 206.669 121.154 206.108 121.421C205.546 121.675 204.911 121.802 204.203 121.802C203.495 121.802 202.853 121.675 202.279 121.421C201.718 121.154 201.236 120.78 200.836 120.299C200.448 119.818 200.147 119.236 199.933 118.555Z" fill="white"/>
<path fill-rule="evenodd" clip-rule="evenodd" d="M123.592 123.306C123.926 123.319 124.234 123.326 124.514 123.326C126.733 123.326 128.35 122.978 129.365 122.283C130.394 121.575 130.909 120.526 130.909 119.136C130.909 118.187 130.668 117.452 130.187 116.931C129.706 116.41 129.058 116.029 128.243 115.788C128.844 115.548 129.325 115.187 129.686 114.706C130.047 114.212 130.227 113.583 130.227 112.822C130.227 112.14 130.08 111.565 129.786 111.098C129.492 110.63 129.085 110.256 128.564 109.975C128.056 109.681 127.448 109.474 126.739 109.354C126.044 109.234 125.296 109.173 124.494 109.173C124.214 109.173 123.913 109.18 123.592 109.193C123.271 109.207 122.944 109.227 122.61 109.254C122.289 109.28 121.968 109.314 121.648 109.354C121.327 109.394 121.033 109.447 120.766 109.514V122.985C121.033 123.052 121.327 123.105 121.648 123.145C121.968 123.185 122.289 123.219 122.61 123.245C122.944 123.272 123.271 123.292 123.592 123.306ZM122.69 121.622V116.731H125.196C125.757 116.731 126.265 116.771 126.719 116.851C127.174 116.931 127.561 117.065 127.882 117.252C128.216 117.439 128.47 117.693 128.644 118.013C128.817 118.321 128.904 118.702 128.904 119.156C128.904 119.664 128.784 120.085 128.543 120.419C128.316 120.753 128.009 121.014 127.621 121.201C127.234 121.388 126.779 121.521 126.258 121.602C125.75 121.668 125.209 121.702 124.635 121.702H123.813C123.586 121.689 123.385 121.675 123.211 121.662C123.011 121.648 122.837 121.635 122.69 121.622ZM124.735 115.167H122.69V110.877C122.917 110.851 123.171 110.83 123.452 110.817C123.733 110.804 124.12 110.797 124.615 110.797C125.109 110.797 125.577 110.837 126.018 110.917C126.459 110.998 126.84 111.124 127.16 111.298C127.494 111.459 127.755 111.679 127.942 111.96C128.129 112.227 128.223 112.561 128.223 112.962C128.223 113.39 128.129 113.744 127.942 114.024C127.768 114.305 127.521 114.532 127.2 114.706C126.893 114.88 126.526 115 126.098 115.067C125.67 115.134 125.216 115.167 124.735 115.167Z" fill="white"/>
<path d="M98.2946 113.784C97.7333 115.575 97.1654 117.232 96.5907 118.755C96.0161 120.279 95.4415 121.762 94.8668 123.205H92.9224C92.2141 121.161 91.586 119.002 91.0381 116.731C90.5036 114.459 90.0024 111.986 89.5347 109.314H91.5793C91.7664 110.356 91.9602 111.398 92.1607 112.441C92.3611 113.483 92.5682 114.499 92.7821 115.488C92.9959 116.463 93.2097 117.399 93.4235 118.294C93.6374 119.19 93.8579 120.018 94.085 120.78C94.6196 119.377 95.1875 117.84 95.7889 116.169C96.3903 114.485 96.9516 112.748 97.4727 110.957H99.1566C99.6778 112.748 100.246 114.485 100.86 116.169C101.475 117.84 102.05 119.377 102.584 120.78C102.798 120.031 103.012 119.21 103.226 118.314C103.44 117.419 103.647 116.483 103.847 115.508C104.061 114.519 104.268 113.503 104.469 112.461C104.669 111.405 104.863 110.356 105.05 109.314H107.035C106.553 111.986 106.039 114.459 105.491 116.731C104.956 119.002 104.342 121.161 103.647 123.205H101.702C101.114 121.762 100.54 120.279 99.9784 118.755C99.4172 117.232 98.8559 115.575 98.2946 113.784Z" fill="white"/>
<path d="M109.314 123.205V109.314H117.793V110.977H111.258V115.107H117.072V116.731H111.258V121.542H118.294V123.205H109.314Z" fill="white"/>
<path fill-rule="evenodd" clip-rule="evenodd" d="M149.692 116.249C149.692 117.452 149.505 118.501 149.131 119.397C148.757 120.279 148.229 121.014 147.547 121.602C146.866 122.176 146.05 122.611 145.102 122.905C144.153 123.185 143.11 123.326 141.975 123.326C141.413 123.326 140.792 123.299 140.11 123.245C139.442 123.205 138.834 123.118 138.286 122.985V109.514C138.834 109.381 139.442 109.294 140.11 109.254C140.792 109.2 141.413 109.173 141.975 109.173C143.11 109.173 144.153 109.32 145.102 109.614C146.05 109.895 146.866 110.329 147.547 110.917C148.229 111.492 148.757 112.227 149.131 113.122C149.505 114.004 149.692 115.047 149.692 116.249ZM142.135 121.622C143.979 121.622 145.356 121.154 146.264 120.219C147.173 119.27 147.627 117.947 147.627 116.249C147.627 114.552 147.173 113.236 146.264 112.3C145.356 111.352 143.979 110.877 142.135 110.877C141.587 110.877 141.159 110.884 140.852 110.897C140.558 110.911 140.351 110.924 140.231 110.937V121.562C140.351 121.575 140.558 121.588 140.852 121.602C141.159 121.615 141.587 121.622 142.135 121.622Z" fill="white"/>
<path d="M152.576 109.314V123.205H161.557V121.542H154.521V116.731H160.334V115.107H154.521V110.977H161.056V109.314H152.576Z" fill="white"/>
<path d="M175.254 109.314C174.746 110.784 174.258 112.147 173.791 113.403C173.336 114.646 172.888 115.829 172.447 116.951C172.006 118.074 171.565 119.149 171.124 120.178C170.697 121.194 170.256 122.203 169.801 123.205H167.977C167.523 122.203 167.075 121.194 166.634 120.178C166.207 119.149 165.766 118.074 165.311 116.951C164.87 115.829 164.416 114.646 163.948 113.403C163.48 112.147 162.999 110.784 162.505 109.314H164.65C165.371 111.425 166.08 113.456 166.775 115.408C167.469 117.359 168.184 119.19 168.919 120.9C169.654 119.203 170.369 117.379 171.064 115.428C171.759 113.463 172.461 111.425 173.169 109.314H175.254Z" fill="white"/>
<path d="M177.183 109.314V123.205H186.164V121.542H179.128V116.731H184.941V115.107H179.128V110.977H185.663V109.314H177.183Z" fill="white"/>
<path d="M196.994 121.521V123.205H188.635V109.314H190.58V121.521H196.994Z" fill="white"/>
<path fill-rule="evenodd" clip-rule="evenodd" d="M217.42 109.173C219.371 109.173 220.868 109.548 221.91 110.296C222.966 111.031 223.493 112.133 223.493 113.603C223.493 114.405 223.346 115.094 223.052 115.668C222.772 116.229 222.358 116.69 221.81 117.051C221.275 117.399 220.62 117.653 219.845 117.813C219.07 117.973 218.195 118.054 217.219 118.054H215.676V123.205H213.731V109.514C214.279 109.381 214.887 109.294 215.555 109.254C216.237 109.2 216.858 109.173 217.42 109.173ZM217.58 110.877C216.751 110.877 216.117 110.897 215.676 110.937V116.39H217.139C217.807 116.39 218.409 116.35 218.943 116.27C219.478 116.176 219.925 116.029 220.286 115.829C220.66 115.615 220.948 115.327 221.148 114.967C221.349 114.606 221.449 114.145 221.449 113.583C221.449 113.049 221.342 112.608 221.128 112.26C220.928 111.913 220.647 111.639 220.286 111.439C219.939 111.225 219.531 111.078 219.063 110.998C218.596 110.917 218.101 110.877 217.58 110.877Z" fill="white"/>
<path d="M225.927 109.314V123.205H234.907V121.542H227.871V116.731H233.685V115.107H227.871V110.977H234.406V109.314H225.927Z" fill="white"/>
<path fill-rule="evenodd" clip-rule="evenodd" d="M244.174 117.392C244.388 117.659 244.655 118.013 244.976 118.455C245.31 118.882 245.651 119.363 245.998 119.898C246.346 120.419 246.687 120.967 247.021 121.542C247.368 122.116 247.662 122.671 247.903 123.205H245.778C245.511 122.697 245.217 122.183 244.896 121.662C244.589 121.141 244.275 120.646 243.954 120.178C243.633 119.697 243.312 119.25 242.992 118.835C242.684 118.421 242.404 118.06 242.15 117.753C241.976 117.766 241.796 117.773 241.608 117.773H239.323V123.205H237.379V109.514C237.927 109.381 238.535 109.294 239.203 109.254C239.885 109.2 240.506 109.173 241.067 109.173C243.018 109.173 244.502 109.541 245.517 110.276C246.546 111.011 247.061 112.107 247.061 113.563C247.061 114.485 246.814 115.274 246.319 115.929C245.838 116.584 245.123 117.071 244.174 117.392ZM241.228 110.877C240.399 110.877 239.764 110.897 239.323 110.937V116.169H240.706C241.375 116.169 241.976 116.136 242.511 116.069C243.045 116.002 243.493 115.875 243.854 115.688C244.228 115.501 244.515 115.241 244.716 114.906C244.916 114.559 245.016 114.105 245.016 113.543C245.016 113.022 244.916 112.588 244.716 112.24C244.515 111.893 244.241 111.619 243.894 111.418C243.56 111.218 243.159 111.078 242.691 110.998C242.237 110.917 241.749 110.877 241.228 110.877Z" fill="white"/>
<path d="M256.26 119.737C256.26 121.127 255.244 121.822 253.213 121.822C252.304 121.822 251.536 121.715 250.908 121.501C250.28 121.288 249.812 121.094 249.505 120.92L248.923 122.524C249.07 122.604 249.271 122.704 249.525 122.824C249.792 122.931 250.106 123.038 250.467 123.145C250.828 123.239 251.235 123.319 251.69 123.386C252.157 123.466 252.665 123.506 253.213 123.506C254.83 123.506 256.08 123.179 256.962 122.524C257.857 121.869 258.305 120.933 258.305 119.717C258.305 119.063 258.204 118.508 258.004 118.054C257.803 117.586 257.516 117.185 257.142 116.851C256.781 116.517 256.347 116.229 255.839 115.989C255.345 115.748 254.797 115.508 254.195 115.267C253.768 115.107 253.373 114.947 253.013 114.786C252.665 114.626 252.358 114.452 252.09 114.265C251.823 114.065 251.616 113.837 251.469 113.583C251.322 113.33 251.249 113.015 251.249 112.641C251.249 112.307 251.315 112.02 251.449 111.779C251.596 111.525 251.79 111.318 252.03 111.158C252.271 110.998 252.552 110.877 252.872 110.797C253.193 110.717 253.54 110.677 253.915 110.677C254.65 110.677 255.291 110.764 255.839 110.937C256.4 111.098 256.821 111.265 257.102 111.439L257.723 109.855C257.403 109.641 256.895 109.447 256.2 109.274C255.518 109.087 254.757 108.993 253.915 108.993C252.458 108.993 251.315 109.334 250.487 110.015C249.658 110.697 249.244 111.646 249.244 112.862C249.244 113.45 249.338 113.951 249.525 114.365C249.725 114.779 249.992 115.14 250.326 115.448C250.661 115.742 251.055 116.002 251.509 116.229C251.964 116.443 252.445 116.637 252.952 116.811C253.393 116.971 253.808 117.131 254.195 117.292C254.596 117.452 254.95 117.646 255.258 117.873C255.565 118.087 255.806 118.348 255.979 118.655C256.166 118.949 256.26 119.31 256.26 119.737Z" fill="white"/>
<path d="M160.684 252.179C160.684 252.66 160.583 253.128 160.383 253.582C160.196 254.023 159.942 254.464 159.621 254.905C159.3 255.333 158.94 255.76 158.539 256.188C158.138 256.602 157.737 257.01 157.336 257.411L156.534 258.213C156.24 258.52 155.96 258.841 155.692 259.175C155.425 259.509 155.198 259.83 155.011 260.137C154.837 260.444 154.75 260.712 154.75 260.939H161.145V262.522H152.725C152.712 262.442 152.705 262.362 152.705 262.282V262.061C152.705 261.433 152.806 260.852 153.006 260.317C153.22 259.769 153.494 259.255 153.828 258.774C154.162 258.293 154.536 257.838 154.951 257.411C155.365 256.983 155.772 256.569 156.173 256.168C156.507 255.847 156.821 255.533 157.115 255.226C157.423 254.905 157.69 254.591 157.917 254.284C158.158 253.963 158.345 253.636 158.479 253.301C158.626 252.967 158.699 252.613 158.699 252.239C158.699 251.838 158.632 251.497 158.499 251.217C158.378 250.936 158.211 250.702 157.997 250.515C157.784 250.328 157.53 250.194 157.236 250.114C156.955 250.021 156.654 249.974 156.334 249.974C155.946 249.974 155.592 250.027 155.271 250.134C154.951 250.241 154.663 250.368 154.409 250.515C154.155 250.649 153.942 250.796 153.768 250.956L153.555 251.137C153.48 251.2 153.418 251.253 153.367 251.297L152.445 249.974C152.565 249.84 152.746 249.68 152.986 249.493C153.227 249.292 153.514 249.105 153.848 248.931C154.182 248.758 154.556 248.611 154.971 248.49C155.385 248.37 155.833 248.31 156.314 248.31C157.77 248.31 158.859 248.651 159.581 249.332C160.316 250.001 160.684 250.949 160.684 252.179Z" fill="white"/>
<path fill-rule="evenodd" clip-rule="evenodd" d="M163.639 255.567C163.639 253.241 164.047 251.451 164.862 250.194C165.691 248.938 166.833 248.31 168.29 248.31C169.747 248.31 170.883 248.938 171.698 250.194C172.526 251.451 172.941 253.241 172.941 255.567C172.941 257.892 172.526 259.683 171.698 260.939C170.883 262.195 169.747 262.823 168.29 262.823C166.833 262.823 165.691 262.195 164.862 260.939C164.047 259.683 163.639 257.892 163.639 255.567ZM170.976 255.567C170.976 254.805 170.929 254.083 170.836 253.402C170.756 252.72 170.609 252.125 170.395 251.618C170.194 251.11 169.92 250.709 169.573 250.415C169.225 250.107 168.798 249.954 168.29 249.954C167.782 249.954 167.355 250.107 167.007 250.415C166.66 250.709 166.379 251.11 166.165 251.618C165.965 252.125 165.818 252.72 165.724 253.402C165.644 254.083 165.604 254.805 165.604 255.567C165.604 256.328 165.644 257.05 165.724 257.731C165.818 258.413 165.965 259.008 166.165 259.516C166.379 260.023 166.66 260.431 167.007 260.738C167.355 261.032 167.782 261.179 168.29 261.179C168.798 261.179 169.225 261.032 169.573 260.738C169.92 260.431 170.194 260.023 170.395 259.516C170.609 259.008 170.756 258.413 170.836 257.731C170.929 257.05 170.976 256.328 170.976 255.567Z" fill="white"/>
<path d="M183.013 253.582C183.213 253.128 183.313 252.66 183.313 252.179C183.313 250.949 182.946 250.001 182.211 249.332C181.489 248.651 180.4 248.31 178.943 248.31C178.462 248.31 178.014 248.37 177.6 248.49C177.186 248.611 176.812 248.758 176.478 248.931C176.144 249.105 175.856 249.292 175.616 249.493C175.375 249.68 175.195 249.84 175.074 249.974L175.997 251.297C176.09 251.217 176.224 251.103 176.397 250.956C176.571 250.796 176.785 250.649 177.039 250.515C177.293 250.368 177.58 250.241 177.901 250.134C178.222 250.027 178.576 249.974 178.963 249.974C179.284 249.974 179.585 250.021 179.865 250.114C180.159 250.194 180.413 250.328 180.627 250.515C180.841 250.702 181.008 250.936 181.128 251.217C181.262 251.497 181.329 251.838 181.329 252.239C181.329 252.613 181.255 252.967 181.108 253.301C180.975 253.636 180.787 253.963 180.547 254.284C180.32 254.591 180.052 254.905 179.745 255.226C179.451 255.533 179.137 255.847 178.803 256.168C178.402 256.569 177.994 256.983 177.58 257.411C177.166 257.838 176.792 258.293 176.458 258.774C176.124 259.255 175.85 259.769 175.636 260.317C175.435 260.852 175.335 261.433 175.335 262.061V262.282C175.335 262.362 175.342 262.442 175.355 262.522H183.774V260.939H177.38C177.38 260.712 177.467 260.444 177.64 260.137C177.827 259.83 178.055 259.509 178.322 259.175C178.589 258.841 178.87 258.52 179.164 258.213L179.966 257.411C180.367 257.01 180.767 256.602 181.168 256.188C181.569 255.76 181.93 255.333 182.251 254.905C182.572 254.464 182.825 254.023 183.013 253.582Z" fill="white"/>
<path d="M189.797 261.159C190.986 261.159 191.835 260.925 192.343 260.458C192.864 259.99 193.125 259.362 193.125 258.573C193.125 258.066 193.018 257.638 192.804 257.29C192.59 256.943 192.309 256.669 191.962 256.469C191.615 256.255 191.207 256.108 190.739 256.028C190.285 255.934 189.817 255.887 189.336 255.887H188.855V254.364H189.516C189.85 254.364 190.191 254.33 190.539 254.264C190.9 254.197 191.227 254.077 191.521 253.903C191.815 253.729 192.056 253.495 192.243 253.201C192.43 252.894 192.523 252.513 192.523 252.059C192.523 251.684 192.456 251.364 192.323 251.096C192.189 250.829 192.009 250.609 191.782 250.435C191.568 250.261 191.314 250.141 191.02 250.074C190.739 249.994 190.439 249.954 190.118 249.954C189.476 249.954 188.928 250.047 188.474 250.234C188.033 250.422 187.659 250.615 187.351 250.816L186.63 249.393C186.79 249.286 186.991 249.172 187.231 249.052C187.485 248.918 187.766 248.798 188.073 248.691C188.38 248.584 188.708 248.497 189.055 248.43C189.416 248.35 189.79 248.31 190.178 248.31C190.913 248.31 191.548 248.404 192.082 248.591C192.617 248.764 193.058 249.018 193.405 249.352C193.753 249.673 194.013 250.061 194.187 250.515C194.361 250.956 194.448 251.437 194.448 251.958C194.448 252.68 194.24 253.301 193.826 253.823C193.412 254.33 192.911 254.718 192.323 254.985C192.684 255.092 193.031 255.246 193.365 255.446C193.699 255.647 193.987 255.901 194.227 256.208C194.481 256.515 194.682 256.87 194.828 257.27C194.989 257.671 195.069 258.119 195.069 258.613C195.069 259.215 194.962 259.776 194.748 260.297C194.548 260.805 194.227 261.246 193.786 261.62C193.358 261.995 192.817 262.289 192.162 262.502C191.508 262.716 190.733 262.823 189.837 262.823C189.49 262.823 189.129 262.796 188.755 262.743C188.394 262.689 188.053 262.623 187.732 262.542C187.412 262.462 187.131 262.382 186.89 262.302C186.65 262.222 186.476 262.155 186.369 262.101L186.73 260.478C186.957 260.585 187.331 260.725 187.853 260.899C188.387 261.072 189.035 261.159 189.797 261.159Z" fill="white"/>
<path fill-rule="evenodd" clip-rule="evenodd" d="M92.7397 227.892C92.7397 226.94 92.8787 226.101 93.1567 225.374C93.4453 224.647 93.8302 224.043 94.3113 223.562C94.8031 223.07 95.3697 222.701 96.0112 222.455C96.6633 222.209 97.3529 222.086 98.0799 222.086C98.7962 222.086 99.4697 222.209 100.1 222.455C100.742 222.701 101.303 223.07 101.784 223.562C102.265 224.043 102.645 224.647 102.923 225.374C103.212 226.101 103.356 226.94 103.356 227.892C103.356 228.843 103.212 229.682 102.923 230.409C102.645 231.136 102.265 231.746 101.784 232.237C101.303 232.719 100.742 233.082 100.1 233.328C99.4697 233.574 98.7962 233.697 98.0799 233.697C97.3529 233.697 96.6633 233.574 96.0112 233.328C95.3697 233.082 94.8031 232.719 94.3113 232.237C93.8302 231.746 93.4453 231.136 93.1567 230.409C92.8787 229.682 92.7397 228.843 92.7397 227.892ZM94.3754 227.892C94.3754 228.565 94.461 229.18 94.632 229.736C94.8031 230.281 95.0436 230.746 95.3537 231.131C95.6744 231.516 96.0593 231.815 96.5083 232.029C96.968 232.232 97.4812 232.334 98.0478 232.334C98.6144 232.334 99.1222 232.232 99.5713 232.029C100.02 231.815 100.4 231.516 100.71 231.131C101.031 230.746 101.276 230.281 101.448 229.736C101.619 229.18 101.704 228.565 101.704 227.892C101.704 227.218 101.619 226.609 101.448 226.063C101.276 225.507 101.031 225.037 100.71 224.652C100.4 224.267 100.02 223.973 99.5713 223.77C99.1222 223.556 98.6144 223.449 98.0478 223.449C97.4812 223.449 96.968 223.556 96.5083 223.77C96.0593 223.973 95.6744 224.267 95.3537 224.652C95.0436 225.037 94.8031 225.507 94.632 226.063C94.461 226.609 94.3754 227.218 94.3754 227.892Z" fill="white"/>
<path d="M88.2322 222.343H89.7877V233.456H88.2322V228.325H82.7958V233.456H81.2403V222.343H82.7958V226.978H88.2322V222.343Z" fill="white"/>
<path d="M111.175 230.682C111.175 231.794 110.362 232.35 108.737 232.35C108.01 232.35 107.395 232.264 106.893 232.093C106.39 231.922 106.016 231.767 105.77 231.628L105.305 232.911C105.423 232.975 105.583 233.055 105.786 233.152C106 233.237 106.251 233.323 106.54 233.408C106.829 233.483 107.155 233.547 107.518 233.601C107.892 233.665 108.299 233.697 108.737 233.697C110.031 233.697 111.03 233.435 111.736 232.911C112.452 232.387 112.81 231.639 112.81 230.666C112.81 230.142 112.73 229.698 112.57 229.335C112.409 228.961 112.18 228.64 111.88 228.373C111.591 228.105 111.244 227.876 110.838 227.683C110.442 227.491 110.004 227.298 109.523 227.106C109.181 226.978 108.865 226.849 108.577 226.721C108.299 226.593 108.053 226.454 107.839 226.304C107.625 226.144 107.459 225.962 107.342 225.759C107.224 225.556 107.165 225.304 107.165 225.005C107.165 224.738 107.219 224.508 107.326 224.315C107.443 224.112 107.598 223.947 107.791 223.818C107.983 223.69 108.208 223.594 108.464 223.53C108.721 223.466 108.999 223.433 109.298 223.433C109.886 223.433 110.399 223.503 110.838 223.642C111.287 223.77 111.624 223.904 111.848 224.043L112.345 222.776C112.089 222.605 111.682 222.45 111.126 222.311C110.581 222.161 109.972 222.086 109.298 222.086C108.133 222.086 107.219 222.359 106.556 222.904C105.893 223.449 105.562 224.209 105.562 225.181C105.562 225.652 105.637 226.053 105.786 226.384C105.947 226.716 106.16 227.004 106.428 227.25C106.695 227.485 107.01 227.694 107.374 227.876C107.737 228.047 108.122 228.202 108.529 228.341C108.881 228.469 109.213 228.597 109.523 228.725C109.844 228.854 110.127 229.009 110.373 229.191C110.619 229.362 110.811 229.57 110.95 229.816C111.1 230.051 111.175 230.34 111.175 230.682Z" fill="white"/>
<path fill-rule="evenodd" clip-rule="evenodd" d="M118.282 222.231C119.843 222.231 121.041 222.53 121.875 223.129C122.719 223.717 123.141 224.599 123.141 225.775C123.141 226.416 123.024 226.967 122.789 227.427C122.564 227.876 122.233 228.244 121.794 228.533C121.367 228.811 120.843 229.014 120.223 229.142C119.603 229.271 118.902 229.335 118.122 229.335H116.887V233.456H115.332V222.503C115.77 222.396 116.256 222.327 116.791 222.295C117.336 222.252 117.833 222.231 118.282 222.231ZM118.411 223.594C117.748 223.594 117.24 223.61 116.887 223.642V228.004H118.058C118.592 228.004 119.073 227.972 119.501 227.908C119.929 227.833 120.287 227.715 120.576 227.555C120.875 227.384 121.105 227.154 121.265 226.865C121.425 226.577 121.506 226.208 121.506 225.759C121.506 225.331 121.42 224.978 121.249 224.7C121.089 224.422 120.864 224.203 120.576 224.043C120.298 223.872 119.972 223.754 119.597 223.69C119.223 223.626 118.828 223.594 118.411 223.594Z" fill="white"/>
<path d="M127.285 222.343H125.73V233.456H127.285V222.343Z" fill="white"/>
<path d="M138.103 222.343V223.69H134.607V233.456H133.051V223.69H129.555V222.343H138.103Z" fill="white"/>
<path fill-rule="evenodd" clip-rule="evenodd" d="M146.265 232.045C146.425 232.505 146.596 232.975 146.778 233.456H148.478C148.05 232.28 147.649 231.195 147.275 230.201C146.901 229.196 146.532 228.244 146.169 227.346C145.816 226.448 145.463 225.593 145.11 224.781C144.757 223.957 144.389 223.145 144.004 222.343H142.577C142.192 223.145 141.823 223.957 141.47 224.781C141.117 225.593 140.759 226.448 140.396 227.346C140.043 228.244 139.679 229.196 139.305 230.201C138.931 231.195 138.53 232.28 138.102 233.456H139.722L140.732 230.618H145.768C145.939 231.099 146.105 231.575 146.265 232.045ZM144.292 226.641C144.635 227.507 144.977 228.405 145.319 229.335H141.181C141.513 228.405 141.844 227.507 142.176 226.641C142.518 225.764 142.876 224.925 143.25 224.123C143.614 224.925 143.961 225.764 144.292 226.641Z" fill="white"/>
<path d="M157.315 232.109V233.456H150.628V222.343H152.184V232.109H157.315Z" fill="white"/>
<path d="M161.141 222.343H159.585V233.456H161.141V222.343Z" fill="white"/>
<path d="M171.959 222.343V223.69H168.463V233.456H166.907V223.69H163.411V222.343H171.959Z" fill="white"/>
<path d="M177.358 228.998V233.456H178.914V228.966C179.641 227.833 180.331 226.716 180.983 225.614C181.635 224.503 182.25 223.412 182.827 222.343H181.095C180.678 223.22 180.218 224.112 179.716 225.021C179.213 225.919 178.7 226.785 178.176 227.619C177.642 226.785 177.123 225.919 176.621 225.021C176.118 224.112 175.664 223.22 175.258 222.343H173.429C174.007 223.412 174.622 224.503 175.274 225.614C175.926 226.726 176.621 227.854 177.358 228.998Z" fill="white"/>
<path fill-rule="evenodd" clip-rule="evenodd" d="M188.65 230.506C188.65 230.089 188.714 229.72 188.842 229.399C188.97 229.068 189.142 228.774 189.355 228.517C189.58 228.25 189.836 228.02 190.125 227.827C190.414 227.624 190.713 227.448 191.023 227.298C190.232 226.507 189.836 225.689 189.836 224.845C189.836 224.417 189.906 224.032 190.045 223.69C190.195 223.348 190.392 223.059 190.638 222.824C190.895 222.589 191.194 222.407 191.536 222.279C191.889 222.151 192.274 222.086 192.691 222.086C193.119 222.086 193.498 222.151 193.83 222.279C194.172 222.407 194.455 222.578 194.679 222.792C194.915 223.006 195.091 223.262 195.209 223.562C195.326 223.861 195.385 224.176 195.385 224.508C195.385 224.882 195.321 225.219 195.193 225.518C195.075 225.818 194.909 226.09 194.696 226.336C194.492 226.582 194.257 226.806 193.99 227.01C193.723 227.213 193.439 227.394 193.14 227.555L195.738 230.201C196.101 229.527 196.337 228.779 196.444 227.956L197.678 228.116C197.636 228.554 197.523 229.036 197.342 229.559C197.17 230.073 196.925 230.586 196.604 231.099C196.978 231.505 197.32 231.906 197.63 232.302C197.951 232.697 198.213 233.082 198.416 233.456H196.844C196.716 233.242 196.556 233.023 196.363 232.799C196.182 232.574 195.989 232.35 195.786 232.125C195.348 232.564 194.84 232.922 194.263 233.2C193.685 233.467 193.022 233.601 192.274 233.601C191.579 233.601 191.002 233.504 190.542 233.312C190.082 233.109 189.708 232.858 189.42 232.558C189.142 232.248 188.944 231.911 188.826 231.548C188.709 231.184 188.65 230.837 188.65 230.506ZM190.141 230.473C190.141 230.666 190.179 230.874 190.253 231.099C190.328 231.323 190.451 231.532 190.622 231.724C190.793 231.906 191.012 232.061 191.28 232.189C191.558 232.307 191.9 232.366 192.306 232.366C192.83 232.366 193.311 232.27 193.749 232.077C194.198 231.885 194.594 231.612 194.936 231.259L191.809 228.1C191.617 228.196 191.419 228.309 191.216 228.437C191.023 228.565 190.847 228.725 190.686 228.918C190.526 229.1 190.392 229.319 190.285 229.575C190.189 229.832 190.141 230.131 190.141 230.473ZM194.038 224.556C194.038 224.192 193.915 223.888 193.669 223.642C193.434 223.385 193.108 223.257 192.691 223.257C192.221 223.257 191.857 223.401 191.6 223.69C191.355 223.968 191.232 224.315 191.232 224.732C191.232 225.427 191.595 226.106 192.322 226.769C192.557 226.651 192.776 226.523 192.98 226.384C193.193 226.245 193.375 226.085 193.525 225.903C193.685 225.721 193.808 225.524 193.894 225.31C193.99 225.085 194.038 224.834 194.038 224.556Z" fill="white"/>
<path d="M211.654 233.456V232.109H206.522V222.343H204.966V233.456H211.654Z" fill="white"/>
<path d="M213.924 233.456V222.343H220.707V223.674H215.479V226.978H220.13V228.276H215.479V232.125H221.108V233.456H213.924Z" fill="white"/>
<path d="M225.282 222.343H223.726V233.456H225.282V222.343Z" fill="white"/>
<path d="M231.257 232.35C232.882 232.35 233.694 231.794 233.694 230.682C233.694 230.34 233.619 230.051 233.47 229.816C233.331 229.57 233.138 229.362 232.892 229.191C232.646 229.009 232.363 228.854 232.042 228.725C231.732 228.597 231.401 228.469 231.048 228.341C230.642 228.202 230.257 228.047 229.893 227.876C229.53 227.694 229.215 227.485 228.947 227.25C228.68 227.004 228.466 226.716 228.306 226.384C228.156 226.053 228.081 225.652 228.081 225.181C228.081 224.209 228.413 223.449 229.076 222.904C229.738 222.359 230.652 222.086 231.818 222.086C232.491 222.086 233.101 222.161 233.646 222.311C234.202 222.45 234.608 222.605 234.865 222.776L234.368 224.043C234.143 223.904 233.806 223.77 233.357 223.642C232.919 223.503 232.406 223.433 231.818 223.433C231.518 223.433 231.24 223.466 230.984 223.53C230.727 223.594 230.503 223.69 230.31 223.818C230.118 223.947 229.963 224.112 229.845 224.315C229.738 224.508 229.685 224.738 229.685 225.005C229.685 225.304 229.744 225.556 229.861 225.759C229.979 225.962 230.145 226.144 230.358 226.304C230.572 226.454 230.818 226.593 231.096 226.721C231.385 226.849 231.7 226.978 232.042 227.106C232.523 227.298 232.962 227.491 233.357 227.683C233.764 227.876 234.111 228.105 234.4 228.373C234.699 228.64 234.929 228.961 235.089 229.335C235.25 229.698 235.33 230.142 235.33 230.666C235.33 231.639 234.972 232.387 234.255 232.911C233.55 233.435 232.55 233.697 231.257 233.697C230.818 233.697 230.412 233.665 230.038 233.601C229.674 233.547 229.348 233.483 229.059 233.408C228.771 233.323 228.52 233.237 228.306 233.152C228.103 233.055 227.942 232.975 227.825 232.911L228.29 231.628C228.536 231.767 228.91 231.922 229.412 232.093C229.915 232.264 230.53 232.35 231.257 232.35Z" fill="white"/>
<path d="M240.096 233.36C240.631 233.585 241.262 233.697 241.989 233.697C242.716 233.697 243.341 233.585 243.865 233.36C244.399 233.136 244.838 232.831 245.18 232.446C245.533 232.05 245.789 231.585 245.95 231.051C246.121 230.516 246.206 229.939 246.206 229.319V222.343H244.651V229.142C244.651 229.698 244.586 230.179 244.458 230.586C244.33 230.981 244.148 231.307 243.913 231.564C243.678 231.821 243.394 232.013 243.063 232.141C242.742 232.259 242.384 232.318 241.989 232.318C241.197 232.318 240.556 232.066 240.064 231.564C239.572 231.061 239.326 230.254 239.326 229.142V222.343H237.771V229.319C237.771 229.939 237.851 230.516 238.011 231.051C238.183 231.585 238.439 232.05 238.781 232.446C239.123 232.831 239.562 233.136 240.096 233.36Z" fill="white"/>
<path fill-rule="evenodd" clip-rule="evenodd" d="M254.97 228.806C255.141 229.019 255.355 229.303 255.611 229.656C255.878 229.998 256.151 230.383 256.429 230.81C256.707 231.227 256.98 231.665 257.247 232.125C257.525 232.585 257.76 233.029 257.953 233.456H256.253C256.039 233.05 255.804 232.638 255.547 232.221C255.301 231.804 255.05 231.409 254.793 231.035C254.537 230.65 254.28 230.292 254.024 229.96C253.778 229.629 253.553 229.34 253.35 229.094C253.211 229.105 253.067 229.11 252.917 229.11H251.089V233.456H249.533V222.503C249.972 222.396 250.458 222.327 250.993 222.295C251.538 222.252 252.035 222.231 252.484 222.231C254.045 222.231 255.232 222.525 256.044 223.113C256.867 223.701 257.279 224.577 257.279 225.743C257.279 226.48 257.081 227.111 256.686 227.635C256.301 228.159 255.729 228.549 254.97 228.806ZM252.612 223.594C251.95 223.594 251.442 223.61 251.089 223.642V227.827H252.195C252.73 227.827 253.211 227.801 253.639 227.747C254.066 227.694 254.424 227.592 254.713 227.443C255.012 227.293 255.242 227.084 255.403 226.817C255.563 226.539 255.643 226.176 255.643 225.727C255.643 225.31 255.563 224.962 255.403 224.684C255.242 224.406 255.023 224.187 254.745 224.027C254.478 223.866 254.157 223.754 253.783 223.69C253.42 223.626 253.029 223.594 252.612 223.594Z" fill="white"/>
<path d="M260.26 222.343V233.456H267.445V232.125H261.816V228.276H266.466V226.978H261.816V223.674H267.044V222.343H260.26Z" fill="white"/>
</svg>
