<svg viewBox="0 0 348 348" fill="none" xmlns="http://www.w3.org/2000/svg">
<path fill-rule="evenodd" clip-rule="evenodd" d="M173.999 33L302.339 103.226V244.774L173.999 315L45.66 244.774V103.226L173.999 33ZM290.312 110.355L173.999 46.7102L57.6873 110.355V140.925H290.312V110.355ZM57.6873 237.645V207.075H290.312V237.645L173.999 301.29L57.6873 237.645ZM140.453 154.276H146.868V194.367H140.453V154.276ZM169.319 181.578C169.319 187.714 164.16 188.203 162.625 188.203C158.791 188.203 158.094 184.614 158.094 182.449V167.105H151.679V182.417C151.679 186.217 152.872 189.354 154.963 191.445C156.811 193.295 159.579 194.305 162.577 194.305C164.704 194.305 167.715 193.642 169.319 192.178V194.367H175.734V167.105H169.319V181.578ZM182.148 157.483H188.563V167.105H193.374V173.52H188.563V194.367H182.148V173.52H177.337V167.105H182.148V157.483ZM213.575 186.216C212.178 187.471 210.334 188.168 208.31 188.168C203.849 188.168 200.573 184.891 200.573 180.393C200.573 175.895 203.745 172.756 208.31 172.756C210.299 172.756 212.178 173.419 213.61 174.674L214.584 175.511L218.909 171.188L217.826 170.211C215.281 167.913 211.902 166.624 208.309 166.624C200.29 166.624 194.467 172.41 194.467 180.359C194.467 188.275 200.43 194.268 208.309 194.268C211.97 194.268 215.384 192.979 217.897 190.643L218.943 189.667L214.55 185.347L213.575 186.216ZM234.793 166.624C237.792 166.624 239.957 167.635 241.804 169.482C243.897 171.575 244.691 174.711 244.691 178.512V194.367H238.276V178.309C238.279 176.134 238.283 172.726 234.548 172.726C233.013 172.726 228.654 173.214 228.654 179.349V194.367H222.24V154.276H228.654V168.749C230.258 167.287 232.666 166.624 234.793 166.624ZM208.098 175.826C209.328 175.826 210.508 176.314 211.378 177.184C212.247 178.054 212.736 179.234 212.736 180.464C212.736 181.693 212.247 182.873 211.378 183.743C210.508 184.613 209.328 185.101 208.098 185.101C206.868 185.101 205.689 184.613 204.819 183.743C203.949 182.873 203.461 181.693 203.461 180.464C203.461 179.234 203.949 178.054 204.819 177.184C205.689 176.314 206.868 175.826 208.098 175.826ZM131.473 184.298C129.034 186.808 125.721 188.168 122.234 188.168C115.088 188.168 109.893 182.555 109.893 174.851C109.893 167.111 115.088 161.499 122.234 161.499C125.687 161.499 128.963 162.857 131.439 165.333L132.414 166.31L136.702 162.021L135.761 161.045C132.206 157.384 127.395 155.398 122.234 155.398C111.706 155.398 103.792 163.765 103.792 174.884C103.792 185.97 111.742 194.303 122.234 194.303C127.43 194.303 132.241 192.282 135.796 188.621L136.738 187.644L132.485 183.288L131.473 184.298Z" fill="white"/>
<path d="M166.122 82.2088V83.8926H161.752V96.1004H159.807V83.8926H155.437V82.2088H166.122Z" fill="white"/>
<path d="M167.066 89.1445C167.066 87.9552 167.239 86.9061 167.587 85.9974C167.948 85.0886 168.429 84.3336 169.03 83.7322C169.645 83.1175 170.353 82.6564 171.155 82.3491C171.97 82.0417 172.832 81.888 173.741 81.888C174.636 81.888 175.478 82.0417 176.267 82.3491C177.068 82.6564 177.77 83.1175 178.371 83.7322C178.973 84.3336 179.447 85.0886 179.795 85.9974C180.155 86.9061 180.336 87.9552 180.336 89.1445C180.336 90.3339 180.155 91.383 179.795 92.2917C179.447 93.2004 178.973 93.9622 178.371 94.5769C177.77 95.1783 177.068 95.6326 176.267 95.94C175.478 96.2474 174.636 96.4011 173.741 96.4011C172.832 96.4011 171.97 96.2474 171.155 95.94C170.353 95.6326 169.645 95.1783 169.03 94.5769C168.429 93.9622 167.948 93.2004 167.587 92.2917C167.239 91.383 167.066 90.3339 167.066 89.1445ZM169.11 89.1445C169.11 89.9865 169.217 90.7549 169.431 91.4498C169.645 92.1313 169.945 92.7127 170.333 93.1938C170.734 93.6749 171.215 94.049 171.776 94.3163C172.351 94.5702 172.992 94.6972 173.701 94.6972C174.409 94.6972 175.044 94.5702 175.605 94.3163C176.166 94.049 176.641 93.6749 177.028 93.1938C177.429 92.7127 177.737 92.1313 177.95 91.4498C178.164 90.7549 178.271 89.9865 178.271 89.1445C178.271 88.3026 178.164 87.5409 177.95 86.8593C177.737 86.1644 177.429 85.5764 177.028 85.0953C176.641 84.6142 176.166 84.2467 175.605 83.9928C175.044 83.7255 174.409 83.5919 173.701 83.5919C172.992 83.5919 172.351 83.7255 171.776 83.9928C171.215 84.2467 170.734 84.6142 170.333 85.0953C169.945 85.5764 169.645 86.1644 169.431 86.8593C169.217 87.5409 169.11 88.3026 169.11 89.1445Z" fill="white"/>
<path d="M186.917 82.0684C188.868 82.0684 190.365 82.4426 191.407 83.191C192.463 83.926 192.991 85.0285 192.991 86.4985C192.991 87.3003 192.844 87.9886 192.55 88.5632C192.269 89.1245 191.855 89.5855 191.307 89.9464C190.773 90.2938 190.118 90.5477 189.343 90.7081C188.568 90.8685 187.692 90.9487 186.717 90.9487H185.173V96.1004H183.229V82.4092C183.777 82.2756 184.385 82.1887 185.053 82.1486C185.734 82.0952 186.356 82.0684 186.917 82.0684ZM187.078 83.7723C186.249 83.7723 185.614 83.7924 185.173 83.8325V89.2849H186.637C187.305 89.2849 187.906 89.2448 188.441 89.1646C188.975 89.071 189.423 88.924 189.784 88.7236C190.158 88.5098 190.445 88.2224 190.646 87.8616C190.846 87.5008 190.946 87.0398 190.946 86.4785C190.946 85.9439 190.839 85.5029 190.626 85.1555C190.425 84.808 190.145 84.534 189.784 84.3336C189.436 84.1198 189.029 83.9728 188.561 83.8926C188.093 83.8124 187.599 83.7723 187.078 83.7723Z" fill="white"/>
<path d="M126.259 116.206C126.259 117.409 126.071 118.458 125.697 119.353C125.323 120.235 124.795 120.97 124.114 121.558C123.432 122.133 122.617 122.567 121.668 122.861C120.719 123.142 119.677 123.282 118.541 123.282C117.98 123.282 117.358 123.256 116.677 123.202C116.009 123.162 115.4 123.075 114.853 122.941V109.471C115.4 109.337 116.009 109.25 116.677 109.21C117.358 109.157 117.98 109.13 118.541 109.13C119.677 109.13 120.719 109.277 121.668 109.571C122.617 109.852 123.432 110.286 124.114 110.874C124.795 111.449 125.323 112.184 125.697 113.079C126.071 113.961 126.259 115.003 126.259 116.206ZM118.701 121.578C120.546 121.578 121.922 121.111 122.831 120.175C123.739 119.226 124.194 117.903 124.194 116.206C124.194 114.509 123.739 113.193 122.831 112.257C121.922 111.308 120.546 110.834 118.701 110.834C118.153 110.834 117.726 110.841 117.418 110.854C117.124 110.867 116.917 110.881 116.797 110.894V121.518C116.917 121.532 117.124 121.545 117.418 121.558C117.726 121.572 118.153 121.578 118.701 121.578Z" fill="white"/>
<path d="M129.143 123.162V109.27H137.622V110.934H131.087V115.064H136.901V116.687H131.087V121.498H138.123V123.162H129.143Z" fill="white"/>
<path d="M151.82 109.27C151.312 110.74 150.825 112.103 150.357 113.36C149.903 114.602 149.455 115.785 149.014 116.908C148.573 118.03 148.132 119.106 147.691 120.135C147.263 121.151 146.822 122.16 146.368 123.162H144.544C144.089 122.16 143.642 121.151 143.201 120.135C142.773 119.106 142.332 118.03 141.878 116.908C141.437 115.785 140.982 114.602 140.515 113.36C140.047 112.103 139.566 110.74 139.071 109.27H141.216C141.938 111.382 142.646 113.413 143.341 115.364C144.036 117.315 144.751 119.146 145.486 120.857C146.221 119.16 146.936 117.335 147.631 115.384C148.326 113.42 149.027 111.382 149.736 109.27H151.82Z" fill="white"/>
<path d="M153.75 123.162V109.27H162.229V110.934H155.694V115.064H161.507V116.687H155.694V121.498H162.73V123.162H153.75Z" fill="white"/>
<path d="M173.561 121.478V123.162H165.202V109.27H167.146V121.478H173.561Z" fill="white"/>
<path d="M174.135 116.206C174.135 115.017 174.308 113.968 174.656 113.059C175.017 112.15 175.498 111.395 176.099 110.794C176.714 110.179 177.422 109.718 178.224 109.411C179.039 109.103 179.901 108.95 180.81 108.95C181.705 108.95 182.547 109.103 183.335 109.411C184.137 109.718 184.839 110.179 185.44 110.794C186.042 111.395 186.516 112.15 186.863 113.059C187.224 113.968 187.405 115.017 187.405 116.206C187.405 117.396 187.224 118.445 186.863 119.353C186.516 120.262 186.042 121.024 185.44 121.638C184.839 122.24 184.137 122.694 183.335 123.002C182.547 123.309 181.705 123.463 180.81 123.463C179.901 123.463 179.039 123.309 178.224 123.002C177.422 122.694 176.714 122.24 176.099 121.638C175.498 121.024 175.017 120.262 174.656 119.353C174.308 118.445 174.135 117.396 174.135 116.206ZM176.179 116.206C176.179 117.048 176.286 117.816 176.5 118.511C176.714 119.193 177.014 119.774 177.402 120.255C177.803 120.736 178.284 121.111 178.845 121.378C179.42 121.632 180.061 121.759 180.77 121.759C181.478 121.759 182.113 121.632 182.674 121.378C183.235 121.111 183.71 120.736 184.097 120.255C184.498 119.774 184.805 119.193 185.019 118.511C185.233 117.816 185.34 117.048 185.34 116.206C185.34 115.364 185.233 114.602 185.019 113.921C184.805 113.226 184.498 112.638 184.097 112.157C183.71 111.676 183.235 111.308 182.674 111.054C182.113 110.787 181.478 110.653 180.77 110.653C180.061 110.653 179.42 110.787 178.845 111.054C178.284 111.308 177.803 111.676 177.402 112.157C177.014 112.638 176.714 113.226 176.5 113.921C176.286 114.602 176.179 115.364 176.179 116.206Z" fill="white"/>
<path d="M193.986 109.13C195.937 109.13 197.434 109.504 198.476 110.253C199.532 110.988 200.06 112.09 200.06 113.56C200.06 114.362 199.913 115.05 199.619 115.625C199.338 116.186 198.924 116.647 198.376 117.008C197.842 117.355 197.187 117.609 196.412 117.77C195.637 117.93 194.761 118.01 193.786 118.01H192.242V123.162H190.298V109.471C190.846 109.337 191.454 109.25 192.122 109.21C192.803 109.157 193.425 109.13 193.986 109.13ZM194.146 110.834C193.318 110.834 192.683 110.854 192.242 110.894V116.346H193.705C194.374 116.346 194.975 116.306 195.51 116.226C196.044 116.133 196.492 115.986 196.853 115.785C197.227 115.571 197.514 115.284 197.715 114.923C197.915 114.562 198.015 114.101 198.015 113.54C198.015 113.006 197.908 112.565 197.695 112.217C197.494 111.87 197.213 111.596 196.853 111.395C196.505 111.181 196.098 111.034 195.63 110.954C195.162 110.874 194.668 110.834 194.146 110.834Z" fill="white"/>
<path d="M202.493 123.162V109.27H210.973V110.934H204.438V115.064H210.251V116.687H204.438V121.498H211.474V123.162H202.493Z" fill="white"/>
<path d="M220.741 117.349C220.955 117.616 221.222 117.97 221.543 118.411C221.877 118.839 222.217 119.32 222.565 119.854C222.912 120.376 223.253 120.924 223.587 121.498C223.935 122.073 224.229 122.627 224.469 123.162H222.344C222.077 122.654 221.783 122.14 221.462 121.618C221.155 121.097 220.841 120.603 220.52 120.135C220.2 119.654 219.879 119.206 219.558 118.792C219.251 118.378 218.97 118.017 218.716 117.71C218.542 117.723 218.362 117.73 218.175 117.73C218.001 117.73 217.821 117.73 217.634 117.73H215.89V123.162H213.945V109.471C214.493 109.337 215.101 109.25 215.769 109.21C216.451 109.157 217.072 109.13 217.634 109.13C219.585 109.13 221.068 109.498 222.084 110.233C223.113 110.968 223.627 112.063 223.627 113.52C223.627 114.442 223.38 115.231 222.886 115.885C222.405 116.54 221.69 117.028 220.741 117.349ZM217.794 110.834C216.965 110.834 216.331 110.854 215.89 110.894V116.126H217.273C217.941 116.126 218.542 116.093 219.077 116.026C219.612 115.959 220.059 115.832 220.42 115.645C220.794 115.458 221.082 115.197 221.282 114.863C221.482 114.516 221.583 114.061 221.583 113.5C221.583 112.979 221.482 112.544 221.282 112.197C221.082 111.85 220.808 111.576 220.46 111.375C220.126 111.175 219.725 111.034 219.257 110.954C218.803 110.874 218.315 110.834 217.794 110.834Z" fill="white"/>
<path d="M229.779 121.779C231.811 121.779 232.826 121.084 232.826 119.694C232.826 119.266 232.733 118.906 232.546 118.612C232.372 118.304 232.131 118.044 231.824 117.83C231.517 117.603 231.163 117.409 230.762 117.249C230.374 117.088 229.96 116.928 229.519 116.767C229.011 116.594 228.53 116.4 228.076 116.186C227.621 115.959 227.227 115.698 226.893 115.404C226.559 115.097 226.292 114.736 226.091 114.322C225.904 113.908 225.81 113.406 225.81 112.818C225.81 111.602 226.225 110.653 227.053 109.972C227.882 109.29 229.024 108.95 230.481 108.95C231.323 108.95 232.085 109.043 232.766 109.23C233.461 109.404 233.969 109.598 234.29 109.812L233.668 111.395C233.388 111.221 232.967 111.054 232.405 110.894C231.858 110.72 231.216 110.633 230.481 110.633C230.107 110.633 229.759 110.674 229.439 110.754C229.118 110.834 228.837 110.954 228.597 111.115C228.356 111.275 228.162 111.482 228.015 111.736C227.882 111.977 227.815 112.264 227.815 112.598C227.815 112.972 227.888 113.286 228.035 113.54C228.182 113.794 228.39 114.021 228.657 114.222C228.924 114.409 229.232 114.582 229.579 114.743C229.94 114.903 230.334 115.064 230.762 115.224C231.363 115.464 231.911 115.705 232.405 115.946C232.913 116.186 233.348 116.473 233.708 116.808C234.083 117.142 234.37 117.543 234.57 118.01C234.771 118.465 234.871 119.019 234.871 119.674C234.871 120.89 234.423 121.826 233.528 122.48C232.646 123.135 231.396 123.463 229.779 123.463C229.232 123.463 228.724 123.423 228.256 123.342C227.802 123.276 227.394 123.195 227.033 123.102C226.672 122.995 226.358 122.888 226.091 122.781C225.837 122.661 225.637 122.561 225.49 122.48L226.071 120.877C226.378 121.05 226.846 121.244 227.474 121.458C228.102 121.672 228.871 121.779 229.779 121.779Z" fill="white"/>
<path d="M160.631 257.147C160.631 257.628 160.531 258.096 160.331 258.55C160.143 258.991 159.89 259.432 159.569 259.873C159.248 260.301 158.887 260.728 158.486 261.156C158.085 261.57 157.684 261.978 157.284 262.379C157.056 262.606 156.789 262.873 156.482 263.181C156.188 263.488 155.907 263.809 155.64 264.143C155.373 264.477 155.145 264.798 154.958 265.105C154.785 265.412 154.698 265.68 154.698 265.907H161.092V267.49H152.673C152.66 267.41 152.653 267.33 152.653 267.25C152.653 267.17 152.653 267.096 152.653 267.029C152.653 266.401 152.753 265.82 152.954 265.285C153.168 264.738 153.441 264.223 153.776 263.742C154.11 263.261 154.484 262.806 154.898 262.379C155.312 261.951 155.72 261.537 156.121 261.136C156.455 260.815 156.769 260.501 157.063 260.194C157.37 259.873 157.638 259.559 157.865 259.252C158.105 258.931 158.293 258.604 158.426 258.269C158.573 257.935 158.647 257.581 158.647 257.207C158.647 256.806 158.58 256.465 158.446 256.185C158.326 255.904 158.159 255.67 157.945 255.483C157.731 255.296 157.477 255.162 157.183 255.082C156.903 254.989 156.602 254.942 156.281 254.942C155.894 254.942 155.54 254.995 155.219 255.102C154.898 255.209 154.611 255.336 154.357 255.483C154.103 255.617 153.889 255.764 153.715 255.924C153.542 256.071 153.408 256.185 153.315 256.265L152.392 254.942C152.513 254.808 152.693 254.648 152.934 254.461C153.174 254.26 153.462 254.073 153.796 253.9C154.13 253.726 154.504 253.579 154.918 253.459C155.332 253.338 155.78 253.278 156.261 253.278C157.718 253.278 158.807 253.619 159.529 254.3C160.264 254.969 160.631 255.917 160.631 257.147Z" fill="white"/>
<path d="M163.587 260.535C163.587 258.209 163.995 256.419 164.81 255.162C165.638 253.906 166.781 253.278 168.238 253.278C169.694 253.278 170.83 253.906 171.645 255.162C172.474 256.419 172.888 258.209 172.888 260.535C172.888 262.86 172.474 264.651 171.645 265.907C170.83 267.163 169.694 267.791 168.238 267.791C166.781 267.791 165.638 267.163 164.81 265.907C163.995 264.651 163.587 262.86 163.587 260.535ZM170.924 260.535C170.924 259.773 170.877 259.051 170.783 258.37C170.703 257.688 170.556 257.093 170.342 256.586C170.142 256.078 169.868 255.677 169.52 255.383C169.173 255.076 168.745 254.922 168.238 254.922C167.73 254.922 167.302 255.076 166.955 255.383C166.607 255.677 166.327 256.078 166.113 256.586C165.912 257.093 165.765 257.688 165.672 258.37C165.592 259.051 165.551 259.773 165.551 260.535C165.551 261.296 165.592 262.018 165.672 262.7C165.765 263.381 165.912 263.976 166.113 264.484C166.327 264.991 166.607 265.399 166.955 265.706C167.302 266 167.73 266.147 168.238 266.147C168.745 266.147 169.173 266 169.52 265.706C169.868 265.399 170.142 264.991 170.342 264.484C170.556 263.976 170.703 263.381 170.783 262.7C170.877 262.018 170.924 261.296 170.924 260.535Z" fill="white"/>
<path d="M183.261 257.147C183.261 257.628 183.161 258.096 182.96 258.55C182.773 258.991 182.519 259.432 182.198 259.873C181.878 260.301 181.517 260.728 181.116 261.156C180.715 261.57 180.314 261.978 179.913 262.379C179.686 262.606 179.419 262.873 179.111 263.181C178.817 263.488 178.537 263.809 178.269 264.143C178.002 264.477 177.775 264.798 177.588 265.105C177.414 265.412 177.327 265.68 177.327 265.907H183.722V267.49H175.303C175.289 267.41 175.283 267.33 175.283 267.25C175.283 267.17 175.283 267.096 175.283 267.029C175.283 266.401 175.383 265.82 175.583 265.285C175.797 264.738 176.071 264.223 176.405 263.742C176.739 263.261 177.113 262.806 177.528 262.379C177.942 261.951 178.35 261.537 178.751 261.136C179.085 260.815 179.399 260.501 179.693 260.194C180 259.873 180.267 259.559 180.495 259.252C180.735 258.931 180.922 258.604 181.056 258.269C181.203 257.935 181.276 257.581 181.276 257.207C181.276 256.806 181.209 256.465 181.076 256.185C180.956 255.904 180.789 255.67 180.575 255.483C180.361 255.296 180.107 255.162 179.813 255.082C179.532 254.989 179.232 254.942 178.911 254.942C178.523 254.942 178.169 254.995 177.848 255.102C177.528 255.209 177.24 255.336 176.987 255.483C176.733 255.617 176.519 255.764 176.345 255.924C176.171 256.071 176.038 256.185 175.944 256.265L175.022 254.942C175.142 254.808 175.323 254.648 175.563 254.461C175.804 254.26 176.091 254.073 176.425 253.9C176.759 253.726 177.134 253.579 177.548 253.459C177.962 253.338 178.41 253.278 178.891 253.278C180.348 253.278 181.437 253.619 182.158 254.3C182.893 254.969 183.261 255.917 183.261 257.147Z" fill="white"/>
<path d="M187.079 256.465C187.84 256.171 188.582 255.797 189.304 255.343C190.025 254.875 190.687 254.294 191.288 253.599H192.611V267.49H190.747V256.185C190.587 256.332 190.386 256.485 190.146 256.646C189.918 256.806 189.664 256.96 189.384 257.107C189.117 257.254 188.829 257.394 188.522 257.528C188.228 257.661 187.941 257.775 187.66 257.869L187.079 256.465Z" fill="white"/>
<path d="M139.105 240.73C138.196 240.73 137.408 240.589 136.74 240.309C136.072 240.028 135.524 239.647 135.096 239.166C134.668 238.672 134.348 238.09 134.134 237.422C133.933 236.754 133.833 236.032 133.833 235.257V226.537H135.778V235.037C135.778 236.426 136.085 237.435 136.7 238.063C137.314 238.692 138.116 239.006 139.105 239.006C139.6 239.006 140.047 238.932 140.448 238.785C140.862 238.625 141.217 238.384 141.511 238.063C141.805 237.743 142.032 237.335 142.192 236.841C142.353 236.333 142.433 235.732 142.433 235.037V226.537H144.377V235.257C144.377 236.032 144.27 236.754 144.056 237.422C143.856 238.09 143.535 238.672 143.094 239.166C142.667 239.647 142.119 240.028 141.45 240.309C140.796 240.589 140.014 240.73 139.105 240.73Z" fill="white"/>
<path d="M158.018 226.537C157.603 226.992 157.136 227.499 156.615 228.061C156.093 228.609 155.545 229.177 154.971 229.765C154.41 230.339 153.848 230.907 153.287 231.468C152.726 232.03 152.198 232.551 151.703 233.032C152.278 233.433 152.886 233.927 153.528 234.515C154.169 235.103 154.797 235.732 155.412 236.4C156.027 237.068 156.601 237.749 157.136 238.444C157.684 239.139 158.138 239.801 158.499 240.429H156.214C155.813 239.801 155.352 239.173 154.83 238.545C154.309 237.903 153.755 237.295 153.167 236.72C152.592 236.132 152.004 235.591 151.403 235.097C150.815 234.602 150.24 234.181 149.679 233.834V240.429H147.734V226.537H149.679V232.671C150.146 232.23 150.661 231.736 151.222 231.188C151.784 230.627 152.338 230.065 152.886 229.504C153.434 228.943 153.948 228.408 154.43 227.9C154.924 227.379 155.338 226.925 155.672 226.537H158.018Z" fill="white"/>
<path d="M167.137 234.616C167.35 234.883 167.618 235.237 167.938 235.678C168.273 236.106 168.613 236.587 168.961 237.121C169.308 237.643 169.649 238.19 169.983 238.765C170.331 239.34 170.625 239.894 170.865 240.429H168.74C168.473 239.921 168.179 239.407 167.858 238.885C167.551 238.364 167.237 237.87 166.916 237.402C166.595 236.921 166.275 236.473 165.954 236.059C165.647 235.645 165.366 235.284 165.112 234.976C164.938 234.99 164.758 234.997 164.571 234.997C164.397 234.997 164.217 234.997 164.03 234.997H162.286V240.429H160.341V226.738C160.889 226.604 161.497 226.517 162.165 226.477C162.847 226.424 163.468 226.397 164.03 226.397C165.981 226.397 167.464 226.764 168.48 227.499C169.509 228.234 170.023 229.33 170.023 230.787C170.023 231.709 169.776 232.497 169.281 233.152C168.8 233.807 168.085 234.295 167.137 234.616ZM164.19 228.101C163.361 228.101 162.727 228.121 162.286 228.161V233.393H163.669C164.337 233.393 164.938 233.359 165.473 233.293C166.007 233.226 166.455 233.099 166.816 232.912C167.19 232.725 167.477 232.464 167.678 232.13C167.878 231.783 167.979 231.328 167.979 230.767C167.979 230.246 167.878 229.811 167.678 229.464C167.477 229.116 167.203 228.842 166.856 228.642C166.522 228.442 166.121 228.301 165.653 228.221C165.199 228.141 164.711 228.101 164.19 228.101Z" fill="white"/>
<path d="M182.797 240.429C182.57 239.828 182.356 239.24 182.155 238.665C181.955 238.077 181.748 237.482 181.534 236.881H175.24L173.977 240.429H171.952C172.487 238.959 172.988 237.602 173.456 236.36C173.923 235.103 174.378 233.914 174.819 232.791C175.273 231.669 175.721 230.6 176.162 229.584C176.603 228.555 177.064 227.54 177.545 226.537H179.329C179.81 227.54 180.271 228.555 180.712 229.584C181.153 230.6 181.594 231.669 182.035 232.791C182.489 233.914 182.95 235.103 183.418 236.36C183.886 237.602 184.387 238.959 184.922 240.429H182.797ZM180.973 235.277C180.545 234.115 180.117 232.992 179.69 231.909C179.275 230.814 178.841 229.765 178.387 228.762C177.919 229.765 177.471 230.814 177.044 231.909C176.629 232.992 176.215 234.115 175.801 235.277H180.973Z" fill="white"/>
<path d="M186.808 226.537H188.752V240.429H186.808V226.537Z" fill="white"/>
<path d="M201.713 240.429C201.419 239.934 201.078 239.38 200.69 238.765C200.316 238.15 199.909 237.516 199.468 236.861C199.027 236.193 198.565 235.518 198.084 234.836C197.617 234.155 197.149 233.5 196.681 232.872C196.213 232.23 195.759 231.629 195.318 231.068C194.877 230.506 194.47 230.012 194.095 229.584V240.429H192.191V226.537H193.734C194.363 227.205 195.031 227.987 195.739 228.883C196.461 229.765 197.169 230.68 197.864 231.629C198.572 232.564 199.234 233.486 199.848 234.395C200.477 235.304 201.004 236.112 201.432 236.821V226.537H203.336V240.429H201.713Z" fill="white"/>
<path d="M206.775 240.429V226.537H215.254V228.201H208.719V232.33H214.533V233.954H208.719V238.765H215.755V240.429H206.775Z" fill="white"/>
</svg>
