<svg viewBox="0 0 348 348" fill="none" xmlns="http://www.w3.org/2000/svg">
<path fill-rule="evenodd" clip-rule="evenodd" d="M198.083 188.548C198.083 201.846 187.303 212.626 174.004 212.626C160.706 212.626 149.926 201.846 149.926 188.548C149.926 175.249 160.706 164.469 174.004 164.469C187.303 164.469 198.083 175.249 198.083 188.548ZM174.004 172.495L177.608 183.587H189.271L179.836 190.442L183.439 201.534L174.004 194.679L164.569 201.534L168.173 190.442L158.738 183.587H170.401L174.004 172.495Z" fill="white"/>
<path fill-rule="evenodd" clip-rule="evenodd" d="M279.349 21H68.66V261.787L174.004 327L279.349 261.787V21ZM74.6797 53.1049H273.329V176.508H209.119L219.152 188.548L209.119 200.587H273.329V258.434L174.004 319.92L74.6797 258.434V200.587H138.89L128.857 188.548L138.89 176.508H74.6797V53.1049ZM92.5339 186.067L90.7321 180.521L88.9303 186.067H83.0988L87.8164 189.495L86.0146 195.041L90.7321 191.613L95.4497 195.041L93.6479 189.495L98.3655 186.067H92.5339ZM112.804 180.521L114.606 186.067H120.438L115.72 189.495L117.522 195.041L112.804 191.613L108.087 195.041L109.888 189.495L105.171 186.067H111.002L112.804 180.521ZM235.204 180.521L237.006 186.067H242.838L238.12 189.495L239.922 195.041L235.204 191.613L230.487 195.041L232.288 189.495L227.571 186.067H233.402L235.204 180.521ZM259.078 186.067L257.276 180.521L255.475 186.067H249.643L254.361 189.495L252.559 195.041L257.276 191.613L261.994 195.041L260.192 189.495L264.91 186.067H259.078Z" fill="white"/>
<path d="M90.8223 107.261L86.9228 120.262H85.0808L89.6759 105.997H90.8321L90.8223 107.261ZM93.9771 120.262L90.0776 107.261L90.058 105.997H91.224L95.8191 120.262H93.9771ZM93.9771 114.981V116.529H87.0992V114.981H93.9771Z" fill="white"/>
<path d="M97.7884 105.997H101.776C102.704 105.997 103.481 106.16 104.108 106.487C104.741 106.813 105.218 107.297 105.538 107.937C105.865 108.57 106.028 109.351 106.028 110.279C106.028 110.932 105.92 111.529 105.705 112.071C105.489 112.607 105.176 113.064 104.764 113.443C104.353 113.815 103.853 114.093 103.265 114.276L102.775 114.482H99.2188L99.1992 112.943H101.756C102.305 112.943 102.762 112.826 103.128 112.591C103.494 112.349 103.768 112.026 103.951 111.621C104.134 111.216 104.225 110.768 104.225 110.279C104.225 109.73 104.144 109.25 103.98 108.838C103.817 108.427 103.556 108.11 103.197 107.888C102.844 107.659 102.37 107.545 101.776 107.545H99.5911V120.262H97.7884V105.997ZM104.637 120.262L101.796 113.796L103.667 113.786L106.567 120.145V120.262H104.637Z" fill="white"/>
<path d="M113.67 105.997L108.674 121.487H107.214L112.22 105.997H113.67Z" fill="white"/>
<path d="M119.804 118.097L123.233 105.997H125.192L120.764 120.262H119.382L119.804 118.097ZM116.727 105.997L120.127 118.097L120.578 120.262H119.196L114.768 105.997H116.727Z" fill="white"/>
<path d="M127.142 105.997H131.13C132.057 105.997 132.835 106.16 133.462 106.487C134.095 106.813 134.572 107.297 134.892 107.937C135.219 108.57 135.382 109.351 135.382 110.279C135.382 110.932 135.274 111.529 135.059 112.071C134.843 112.607 134.53 113.064 134.118 113.443C133.707 113.815 133.207 114.093 132.619 114.276L132.129 114.482H128.573L128.553 112.943H131.11C131.659 112.943 132.116 112.826 132.482 112.591C132.848 112.349 133.122 112.026 133.305 111.621C133.488 111.216 133.579 110.768 133.579 110.279C133.579 109.73 133.498 109.25 133.334 108.838C133.171 108.427 132.91 108.11 132.55 107.888C132.198 107.659 131.724 107.545 131.13 107.545H128.945V120.262H127.142V105.997ZM133.991 120.262L131.149 113.796L133.021 113.786L135.921 120.145V120.262H133.991Z" fill="white"/>
<path d="M145.63 120.262H143.2L143.22 118.724H145.63C146.486 118.724 147.182 118.561 147.717 118.234C148.253 117.901 148.648 117.411 148.903 116.765C149.157 116.111 149.285 115.305 149.285 114.345V111.905C149.285 111.147 149.213 110.494 149.069 109.945C148.926 109.397 148.71 108.946 148.423 108.593C148.135 108.241 147.773 107.979 147.335 107.809C146.897 107.633 146.385 107.545 145.797 107.545H143.151V105.997H145.797C146.6 105.997 147.325 106.124 147.972 106.379C148.619 106.627 149.174 107.003 149.638 107.506C150.101 108.002 150.454 108.619 150.696 109.358C150.944 110.096 151.068 110.951 151.068 111.925V114.345C151.068 115.318 150.944 116.173 150.696 116.912C150.454 117.65 150.098 118.267 149.628 118.763C149.157 119.26 148.586 119.635 147.913 119.89C147.247 120.138 146.486 120.262 145.63 120.262ZM144.2 105.997V120.262H142.397V105.997H144.2Z" fill="white"/>
<path d="M161.532 118.724V120.262H155.34V118.724H161.532ZM155.663 105.997V120.262H153.86V105.997H155.663ZM160.699 112.13V113.668H155.34V112.13H160.699ZM161.434 105.997V107.545H155.34V105.997H161.434Z" fill="white"/>
<path d="M167.753 118.097L171.183 105.997H173.142L168.714 120.262H167.332L167.753 118.097ZM164.677 105.997L168.077 118.097L168.527 120.262H167.146L162.717 105.997H164.677Z" fill="white"/>
<path d="M182.754 118.724V120.262H176.561V118.724H182.754ZM176.885 105.997V120.262H175.082V105.997H176.885ZM181.921 112.13V113.668H176.561V112.13H181.921ZM182.656 105.997V107.545H176.561V105.997H182.656Z" fill="white"/>
<path d="M192.453 118.724V120.262H186.535V118.724H192.453ZM186.859 105.997V120.262H185.056V105.997H186.859Z" fill="white"/>
<path d="M203.231 111.895V114.374C203.231 115.38 203.12 116.265 202.897 117.029C202.682 117.787 202.365 118.42 201.947 118.93C201.529 119.439 201.026 119.821 200.438 120.076C199.85 120.331 199.187 120.458 198.449 120.458C197.737 120.458 197.087 120.331 196.5 120.076C195.912 119.821 195.406 119.439 194.981 118.93C194.556 118.42 194.227 117.787 193.991 117.029C193.763 116.265 193.649 115.38 193.649 114.374V111.895C193.649 110.889 193.763 110.007 193.991 109.25C194.22 108.486 194.547 107.849 194.971 107.339C195.396 106.83 195.902 106.448 196.49 106.193C197.078 105.932 197.728 105.801 198.44 105.801C199.178 105.801 199.841 105.932 200.428 106.193C201.023 106.448 201.526 106.83 201.937 107.339C202.355 107.849 202.675 108.486 202.897 109.25C203.12 110.007 203.231 110.889 203.231 111.895ZM201.447 114.374V111.876C201.447 111.092 201.382 110.419 201.251 109.857C201.121 109.289 200.928 108.825 200.673 108.466C200.419 108.107 200.105 107.842 199.733 107.672C199.361 107.496 198.929 107.408 198.44 107.408C197.976 107.408 197.558 107.496 197.185 107.672C196.82 107.842 196.506 108.107 196.245 108.466C195.984 108.825 195.781 109.289 195.637 109.857C195.5 110.419 195.432 111.092 195.432 111.876V114.374C195.432 115.164 195.5 115.844 195.637 116.412C195.781 116.974 195.984 117.437 196.245 117.803C196.513 118.162 196.833 118.43 197.205 118.606C197.577 118.776 197.992 118.861 198.449 118.861C198.939 118.861 199.37 118.776 199.743 118.606C200.122 118.43 200.435 118.162 200.683 117.803C200.938 117.437 201.127 116.974 201.251 116.412C201.382 115.844 201.447 115.164 201.447 114.374Z" fill="white"/>
<path d="M210.569 114.668H207.453V113.13H210.569C211.157 113.13 211.63 113.012 211.99 112.777C212.355 112.542 212.62 112.215 212.783 111.797C212.953 111.379 213.038 110.902 213.038 110.367C213.038 109.877 212.953 109.416 212.783 108.985C212.62 108.554 212.355 108.208 211.99 107.947C211.63 107.679 211.157 107.545 210.569 107.545H207.826V120.262H206.023V105.997H210.569C211.49 105.997 212.267 106.183 212.901 106.555C213.534 106.928 214.015 107.444 214.341 108.103C214.674 108.757 214.841 109.504 214.841 110.347C214.841 111.262 214.674 112.042 214.341 112.689C214.015 113.335 213.534 113.829 212.901 114.168C212.267 114.501 211.49 114.668 210.569 114.668Z" fill="white"/>
<path d="M217.721 105.997H219.465L223.198 117.627L226.921 105.997H228.665L223.874 120.262H222.503L217.721 105.997ZM217.153 105.997H218.682L218.946 114.697V120.262H217.153V105.997ZM227.695 105.997H229.224V120.262H227.431V114.697L227.695 105.997Z" fill="white"/>
<path d="M239.991 118.724V120.262H233.799V118.724H239.991ZM234.123 105.997V120.262H232.32V105.997H234.123ZM239.159 112.13V113.668H233.799V112.13H239.159ZM239.893 105.997V107.545H233.799V105.997H239.893Z" fill="white"/>
<path d="M251.621 105.997V120.262H249.809L244.097 109.26V120.262H242.294V105.997H244.097L249.838 117.029V105.997H251.621Z" fill="white"/>
<path d="M259.028 105.997V120.262H257.245V105.997H259.028ZM262.781 105.997V107.545H253.502V105.997H262.781Z" fill="white"/>
<path d="M141.339 139.726H143.142C143.096 140.706 142.897 141.552 142.544 142.264C142.198 142.969 141.692 143.511 141.025 143.89C140.366 144.269 139.539 144.458 138.547 144.458C137.835 144.458 137.191 144.318 136.616 144.037C136.042 143.756 135.548 143.354 135.137 142.832C134.732 142.303 134.422 141.669 134.206 140.931C133.991 140.193 133.883 139.363 133.883 138.442V135.807C133.883 134.892 133.991 134.066 134.206 133.328C134.428 132.59 134.745 131.96 135.157 131.437C135.575 130.908 136.081 130.503 136.675 130.222C137.276 129.941 137.955 129.801 138.713 129.801C139.641 129.801 140.424 129.987 141.065 130.359C141.711 130.725 142.208 131.264 142.554 131.976C142.907 132.681 143.102 133.547 143.142 134.572H141.339C141.293 133.821 141.176 133.211 140.986 132.74C140.797 132.263 140.516 131.914 140.144 131.692C139.778 131.463 139.301 131.349 138.713 131.349C138.191 131.349 137.737 131.454 137.351 131.663C136.972 131.872 136.659 132.172 136.411 132.564C136.169 132.949 135.986 133.416 135.862 133.965C135.744 134.507 135.686 135.115 135.686 135.787V138.442C135.686 139.07 135.735 139.654 135.833 140.196C135.937 140.738 136.1 141.215 136.323 141.627C136.551 142.032 136.848 142.348 137.214 142.577C137.58 142.806 138.024 142.92 138.547 142.92C139.206 142.92 139.729 142.812 140.114 142.597C140.5 142.381 140.784 142.038 140.967 141.568C141.156 141.098 141.28 140.484 141.339 139.726Z" fill="white"/>
<path d="M154.86 135.895V138.374C154.86 139.38 154.749 140.265 154.527 141.029C154.311 141.787 153.994 142.42 153.576 142.93C153.158 143.439 152.655 143.821 152.067 144.076C151.479 144.331 150.816 144.458 150.078 144.458C149.366 144.458 148.717 144.331 148.129 144.076C147.541 143.821 147.035 143.439 146.61 142.93C146.185 142.42 145.856 141.787 145.62 141.029C145.392 140.265 145.278 139.38 145.278 138.374V135.895C145.278 134.889 145.392 134.007 145.62 133.25C145.849 132.486 146.176 131.849 146.6 131.339C147.025 130.83 147.531 130.448 148.119 130.193C148.707 129.932 149.357 129.801 150.069 129.801C150.807 129.801 151.47 129.932 152.058 130.193C152.652 130.448 153.155 130.83 153.566 131.339C153.984 131.849 154.304 132.486 154.527 133.25C154.749 134.007 154.86 134.889 154.86 135.895ZM153.076 138.374V135.876C153.076 135.092 153.011 134.419 152.881 133.857C152.75 133.289 152.557 132.825 152.302 132.466C152.048 132.107 151.734 131.842 151.362 131.672C150.99 131.496 150.558 131.408 150.069 131.408C149.605 131.408 149.187 131.496 148.814 131.672C148.449 131.842 148.135 132.107 147.874 132.466C147.613 132.825 147.41 133.289 147.266 133.857C147.129 134.419 147.061 135.092 147.061 135.876V138.374C147.061 139.164 147.129 139.844 147.266 140.412C147.41 140.974 147.613 141.437 147.874 141.803C148.142 142.162 148.462 142.43 148.834 142.606C149.206 142.776 149.621 142.861 150.078 142.861C150.568 142.861 150.999 142.776 151.372 142.606C151.751 142.43 152.064 142.162 152.312 141.803C152.567 141.437 152.756 140.974 152.881 140.412C153.011 139.844 153.076 139.164 153.076 138.374Z" fill="white"/>
<path d="M158.22 129.997H159.964L163.697 141.627L167.42 129.997H169.164L164.373 144.262H163.001L158.22 129.997ZM157.652 129.997H159.18L159.445 138.697V144.262H157.652V129.997ZM168.194 129.997H169.723V144.262H167.93V138.697L168.194 129.997Z" fill="white"/>
<path d="M177.365 138.668H174.249V137.13H177.365C177.953 137.13 178.426 137.012 178.785 136.777C179.151 136.542 179.416 136.215 179.579 135.797C179.749 135.379 179.834 134.902 179.834 134.367C179.834 133.877 179.749 133.416 179.579 132.985C179.416 132.554 179.151 132.208 178.785 131.947C178.426 131.679 177.953 131.545 177.365 131.545H174.621V144.262H172.819V129.997H177.365C178.286 129.997 179.063 130.183 179.697 130.555C180.33 130.928 180.81 131.444 181.137 132.103C181.47 132.757 181.637 133.504 181.637 134.347C181.637 135.262 181.47 136.042 181.137 136.689C180.81 137.335 180.33 137.829 179.697 138.168C179.063 138.501 178.286 138.668 177.365 138.668Z" fill="white"/>
<path d="M187.221 131.261L183.322 144.262H181.48L186.075 129.997H187.231L187.221 131.261ZM190.376 144.262L186.477 131.261L186.457 129.997H187.623L192.218 144.262H190.376ZM190.376 138.981V140.529H183.498V138.981H190.376Z" fill="white"/>
<path d="M203.505 129.997V144.262H201.692L195.98 133.26V144.262H194.178V129.997H195.98L201.722 141.029V129.997H203.505Z" fill="white"/>
<path d="M207.15 129.997L210.06 137.159L212.979 129.997H215.017L210.961 138.932V144.262H209.158V138.932L205.102 129.997H207.15Z" fill="white"/>
<path d="M114.663 73.3185H115.677L119.565 84.6054L123.472 73.3185H124.468L119.962 86.1574H119.186L114.663 73.3185ZM114.354 73.3185H115.236L115.359 80.5668V86.1574H114.354V73.3185ZM123.913 73.3185H124.803V86.1574H123.798V80.5668L123.913 73.3185Z" fill="white"/>
<path d="M135.808 78.3536V81.1312C135.808 81.9836 135.711 82.736 135.517 83.3886C135.329 84.0352 135.056 84.576 134.697 85.011C134.344 85.4461 133.912 85.7782 133.401 86.0075C132.889 86.2309 132.313 86.3426 131.672 86.3426C131.038 86.3426 130.464 86.2309 129.953 86.0075C129.447 85.7782 129.012 85.4461 128.648 85.011C128.283 84.576 128.001 84.0352 127.801 83.3886C127.607 82.736 127.51 81.9836 127.51 81.1312V78.3536C127.51 77.507 127.607 76.7575 127.801 76.105C127.995 75.4525 128.272 74.9087 128.63 74.4737C128.995 74.0387 129.43 73.7095 129.935 73.4861C130.447 73.2568 131.02 73.1422 131.655 73.1422C132.296 73.1422 132.872 73.2568 133.383 73.4861C133.895 73.7095 134.332 74.0387 134.697 74.4737C135.061 74.9087 135.338 75.4525 135.526 76.105C135.714 76.7575 135.808 77.507 135.808 78.3536ZM134.812 81.1312V78.3359C134.812 77.6305 134.741 77.0162 134.6 76.493C134.465 75.9639 134.265 75.523 134 75.1703C133.736 74.8176 133.407 74.553 133.013 74.3767C132.619 74.2003 132.166 74.1122 131.655 74.1122C131.161 74.1122 130.717 74.2003 130.323 74.3767C129.935 74.553 129.606 74.8176 129.336 75.1703C129.071 75.523 128.868 75.9639 128.727 76.493C128.586 77.0162 128.516 77.6305 128.516 78.3359V81.1312C128.516 81.8425 128.586 82.4627 128.727 82.9918C128.868 83.5149 129.074 83.9558 129.344 84.3144C129.621 84.6672 129.953 84.9317 130.341 85.108C130.735 85.2844 131.179 85.3726 131.672 85.3726C132.184 85.3726 132.634 85.2844 133.022 85.108C133.415 84.9317 133.745 84.6672 134.009 84.3144C134.274 83.9558 134.474 83.5149 134.609 82.9918C134.744 82.4627 134.812 81.8425 134.812 81.1312Z" fill="white"/>
<path d="M144.547 82.9918C144.547 82.639 144.499 82.3275 144.405 82.0571C144.311 81.7866 144.156 81.5427 143.938 81.3252C143.721 81.1018 143.427 80.896 143.056 80.7079C142.686 80.5139 142.224 80.3229 141.672 80.1348C141.131 79.9525 140.643 79.7527 140.208 79.5351C139.779 79.3176 139.409 79.0678 139.097 78.7856C138.791 78.5035 138.556 78.1743 138.392 77.798C138.233 77.4159 138.154 76.9721 138.154 76.4665C138.154 75.9727 138.242 75.523 138.418 75.1174C138.594 74.7059 138.844 74.3532 139.168 74.0592C139.497 73.7653 139.882 73.539 140.323 73.3803C140.764 73.2215 141.252 73.1422 141.787 73.1422C142.551 73.1422 143.209 73.3156 143.762 73.6624C144.32 74.0034 144.746 74.4649 145.04 75.0468C145.34 75.623 145.49 76.2667 145.49 76.978H144.494C144.494 76.4195 144.388 75.9228 144.176 75.4877C143.97 75.0527 143.665 74.7118 143.259 74.4649C142.853 74.2121 142.363 74.0857 141.787 74.0857C141.21 74.0857 140.725 74.1945 140.332 74.412C139.944 74.6236 139.653 74.9087 139.459 75.2673C139.265 75.62 139.168 76.0109 139.168 76.4401C139.168 76.7458 139.215 77.0279 139.309 77.2866C139.409 77.5452 139.567 77.7833 139.785 78.0008C140.008 78.2183 140.299 78.4241 140.658 78.6181C141.022 78.8062 141.466 78.9855 141.989 79.156C142.571 79.3382 143.083 79.544 143.524 79.7732C143.97 80.0025 144.344 80.267 144.644 80.5668C144.949 80.8666 145.178 81.2135 145.331 81.6073C145.49 82.0012 145.569 82.4568 145.569 82.9741C145.569 83.4973 145.478 83.9676 145.296 84.385C145.114 84.7965 144.855 85.1492 144.52 85.4431C144.185 85.7312 143.791 85.9516 143.338 86.1045C142.886 86.2573 142.389 86.3337 141.848 86.3337C141.366 86.3337 140.887 86.2603 140.411 86.1133C139.935 85.9663 139.5 85.7371 139.106 85.4255C138.712 85.1139 138.398 84.7142 138.162 84.2263C137.927 83.7383 137.81 83.1564 137.81 82.4803H138.824C138.824 83.0153 138.912 83.4709 139.088 83.8471C139.265 84.2174 139.497 84.5173 139.785 84.7465C140.079 84.9699 140.405 85.1345 140.764 85.2403C141.122 85.3403 141.484 85.3902 141.848 85.3902C142.401 85.3902 142.877 85.2903 143.277 85.0904C143.682 84.8905 143.994 84.6113 144.211 84.2527C144.435 83.8941 144.547 83.4738 144.547 82.9918Z" fill="white"/>
<path d="M151.539 73.3185V86.1574H150.543V73.3185H151.539ZM155.199 73.3185V74.2621H146.901V73.3185H155.199Z" fill="white"/>
<path d="M160.965 73.3185H164.484C165.236 73.3185 165.886 73.4655 166.432 73.7594C166.985 74.0475 167.411 74.4737 167.711 75.038C168.011 75.5965 168.161 76.2843 168.161 77.1014C168.161 77.7069 168.052 78.2566 167.835 78.7504C167.623 79.2442 167.332 79.6557 166.962 79.9849C166.591 80.3141 166.153 80.5404 165.648 80.6638L165.321 80.8137H161.653L161.636 79.8702H164.651C165.21 79.8702 165.674 79.7409 166.045 79.4822C166.415 79.2236 166.691 78.8826 166.873 78.4594C167.062 78.0361 167.156 77.5835 167.156 77.1014C167.156 76.5194 167.053 76.0168 166.847 75.5936C166.647 75.1644 166.347 74.8352 165.948 74.606C165.554 74.3767 165.066 74.2621 164.484 74.2621H161.971V86.1574H160.965V73.3185ZM167.552 86.1574L164.792 80.4169L165.868 80.4081L168.619 86.0427V86.1574H167.552Z" fill="white"/>
<path d="M177.64 85.2139V86.1574H171.644V85.2139H177.64ZM171.917 73.3185V86.1574H170.912V73.3185H171.917ZM176.89 79.0678V80.0113H171.644V79.0678H176.89ZM177.596 73.3185V74.2621H171.644V73.3185H177.596Z" fill="white"/>
<path d="M183.301 84.5525L186.652 73.3185H187.745L183.733 86.1574H182.931L183.301 84.5525ZM179.889 73.3185L183.231 84.5525L183.592 86.1574H182.798L178.795 73.3185H179.889Z" fill="white"/>
<path d="M190.867 73.3185V86.1574H189.853V73.3185H190.867Z" fill="white"/>
<path d="M200.813 85.2139V86.1574H194.817V85.2139H200.813ZM195.091 73.3185V86.1574H194.085V73.3185H195.091ZM200.064 79.0678V80.0113H194.817V79.0678H200.064ZM200.769 73.3185V74.2621H194.817V73.3185H200.769Z" fill="white"/>
<path d="M205.831 82.7537L208.132 73.3185H208.926L208.326 76.1403L205.866 86.1574H205.108L205.831 82.7537ZM203.212 73.3185L205.125 82.6655L205.707 86.1574H204.914L202.18 73.3185H203.212ZM212.003 82.6567L213.899 73.3185H214.922L212.197 86.1574H211.404L212.003 82.6567ZM209.023 73.3185L211.289 82.7537L212.003 86.1574H211.236L208.838 76.1403L208.238 73.3185H209.023Z" fill="white"/>
<path d="M223.74 85.2139V86.1574H217.744V85.2139H223.74ZM218.017 73.3185V86.1574H217.012V73.3185H218.017ZM222.99 79.0678V80.0113H217.744V79.0678H222.99ZM223.696 73.3185V74.2621H217.744V73.3185H223.696Z" fill="white"/>
<path d="M228.951 86.1574H226.544L226.553 85.2139H228.951C229.721 85.2139 230.377 85.0522 230.918 84.7289C231.458 84.4056 231.87 83.9323 232.152 83.3092C232.44 82.6861 232.584 81.9277 232.584 81.0342V78.4241C232.584 77.7422 232.502 77.1426 232.337 76.6252C232.179 76.1021 231.943 75.667 231.632 75.3202C231.326 74.9675 230.953 74.7029 230.512 74.5266C230.071 74.3502 229.574 74.2621 229.022 74.2621H226.5V73.3185H229.022C229.704 73.3185 230.324 73.4302 230.882 73.6536C231.441 73.877 231.92 74.2062 232.32 74.6412C232.725 75.0762 233.037 75.6112 233.254 76.2461C233.472 76.881 233.581 77.6129 233.581 78.4417V81.0342C233.581 81.8572 233.472 82.5891 233.254 83.2298C233.037 83.8706 232.725 84.4085 232.32 84.8435C231.914 85.2726 231.426 85.5989 230.856 85.8223C230.286 86.0457 229.651 86.1574 228.951 86.1574ZM227.011 73.3185V86.1574H226.006V73.3185H227.011Z" fill="white"/>
<path d="M150.071 227.823H151.076V236.871C151.076 237.835 150.903 238.608 150.556 239.19C150.215 239.772 149.753 240.195 149.171 240.459C148.595 240.718 147.957 240.847 147.258 240.847C146.541 240.847 145.894 240.718 145.318 240.459C144.742 240.195 144.286 239.772 143.951 239.19C143.616 238.608 143.449 237.835 143.449 236.871V227.823H144.454V236.871C144.454 237.623 144.574 238.22 144.815 238.661C145.056 239.102 145.389 239.419 145.812 239.613C146.235 239.807 146.717 239.904 147.258 239.904C147.81 239.904 148.295 239.807 148.713 239.613C149.136 239.419 149.468 239.102 149.709 238.661C149.95 238.22 150.071 237.623 150.071 236.871V227.823Z" fill="white"/>
<path d="M154.929 227.823V240.662H153.924V227.823H154.929ZM161.569 227.823L156.949 233.705L154.577 236.465L154.462 235.23L156.331 232.903L160.317 227.823H161.569ZM160.696 240.662L156.261 234.084L156.861 233.185L161.913 240.662H160.696Z" fill="white"/>
<path d="M163.818 227.823H167.336C168.089 227.823 168.738 227.97 169.285 228.264C169.838 228.552 170.264 228.979 170.564 229.543C170.863 230.101 171.013 230.789 171.013 231.606C171.013 232.212 170.905 232.761 170.687 233.255C170.475 233.749 170.184 234.161 169.814 234.49C169.444 234.819 169.006 235.045 168.5 235.169L168.174 235.319H164.506L164.488 234.375H167.504C168.062 234.375 168.527 234.246 168.897 233.987C169.267 233.729 169.544 233.388 169.726 232.964C169.914 232.541 170.008 232.088 170.008 231.606C170.008 231.024 169.905 230.522 169.699 230.098C169.5 229.669 169.2 229.34 168.8 229.111C168.406 228.882 167.918 228.767 167.336 228.767H164.823V240.662H163.818V227.823ZM170.405 240.662L167.645 234.922L168.721 234.913L171.472 240.548V240.662H170.405Z" fill="white"/>
<path d="M177.38 228.599L173.685 240.662H172.645L176.727 227.823H177.441L177.38 228.599ZM180.704 240.662L177.001 228.599L176.957 227.823H177.662L181.745 240.662H180.704ZM180.122 236.13V237.073H174.338V236.13H180.122Z" fill="white"/>
<path d="M184.866 227.823V240.662H183.852V227.823H184.866Z" fill="white"/>
<path d="M196.162 227.823V240.662H195.148L189.099 229.719V240.662H188.085V227.823H189.099L195.157 238.766V227.823H196.162Z" fill="white"/>
<path d="M205.959 239.719V240.662H199.962V239.719H205.959ZM200.236 227.823V240.662H199.23V227.823H200.236ZM205.209 233.573V234.516H199.962V233.573H205.209ZM205.914 227.823V228.767H199.962V227.823H205.914Z" fill="white"/>
<path d="M165.832 271.054H169.817V271.907H166.77V273.291H169.469V274.144H166.77V275.583H169.854V276.436H165.832V271.054Z" fill="white"/>
<path d="M163.508 276.436V274.167H160.926V276.436H159.988V271.054H160.926V273.291H163.508V271.054H164.449V276.436H163.508Z" fill="white"/>
<path d="M158.986 271.93H157.28V276.436H156.326V271.93H154.62V271.054H158.986V271.93Z" fill="white"/>
<path fill-rule="evenodd" clip-rule="evenodd" d="M177.654 288.937V277.957H178.555V289.829H146.385V285.881H141.899V253.711H174.069V257.661H178.553V269.542H177.651V258.562H174.067V269.542H173.166V258.562H147.288V284.982H173.168V277.957H174.069V285.881H147.288V288.937H177.654ZM142.801 284.977H146.385V257.661H173.166V254.614H142.801V284.977Z" fill="white"/>
<path fill-rule="evenodd" clip-rule="evenodd" d="M181.876 271.014H182.752L185.131 276.435H184.123L183.576 275.136H181.03L180.477 276.435H179.507L181.876 271.014ZM181.375 274.297H183.228L182.29 272.144L181.375 274.297Z" fill="white"/>
<path d="M213.546 271.929H211.839V276.435H210.885V271.929H209.179V271.053H213.546V271.929Z" fill="white"/>
<path d="M205.609 272.211C205.569 272.29 205.549 272.378 205.549 272.467C205.544 272.567 205.563 272.668 205.604 272.76C205.649 272.847 205.717 272.921 205.8 272.975C205.922 273.054 206.055 273.116 206.194 273.16L206.83 273.336C207.084 273.396 207.335 273.472 207.58 273.565C207.778 273.64 207.962 273.748 208.124 273.885C208.264 274.006 208.376 274.156 208.451 274.324C208.53 274.51 208.568 274.71 208.564 274.912C208.568 275.148 208.519 275.383 208.422 275.598C208.33 275.795 208.196 275.968 208.028 276.106C207.85 276.25 207.645 276.358 207.424 276.422C207.172 276.496 206.91 276.532 206.647 276.529C206.24 276.531 205.836 276.46 205.455 276.319C205.065 276.172 204.707 275.951 204.4 275.669L204.97 274.983C205.207 275.199 205.475 275.379 205.764 275.518C206.052 275.644 206.364 275.705 206.679 275.699C206.921 275.71 207.161 275.645 207.365 275.514C207.447 275.459 207.513 275.384 207.559 275.296C207.604 275.209 207.626 275.111 207.623 275.013C207.625 274.923 207.608 274.834 207.573 274.752C207.532 274.666 207.468 274.593 207.388 274.541C207.273 274.465 207.148 274.405 207.017 274.361L206.404 274.185C206.144 274.124 205.887 274.048 205.636 273.956C205.433 273.885 205.242 273.782 205.073 273.649C204.922 273.527 204.803 273.37 204.725 273.192C204.641 272.99 204.6 272.773 204.606 272.554C204.603 272.332 204.65 272.112 204.744 271.911C204.834 271.721 204.962 271.552 205.121 271.415C205.291 271.27 205.487 271.162 205.7 271.094C205.938 271.018 206.186 270.98 206.436 270.982C206.799 270.977 207.16 271.036 207.502 271.156C207.823 271.275 208.123 271.445 208.39 271.659L207.882 272.375C207.657 272.208 207.412 272.069 207.152 271.964C206.92 271.871 206.673 271.823 206.423 271.822C206.192 271.808 205.964 271.874 205.777 272.009C205.706 272.063 205.649 272.132 205.609 272.211Z" fill="white"/>
<path d="M199.601 271.053H203.586V271.906H200.542V273.29H203.241V274.143H200.542V275.582H203.625V276.435H199.601V271.053Z" fill="white"/>
<path d="M194.558 271.053H198.556V271.906H195.496V273.391H198.211V274.244H195.496V276.435H194.558V271.053Z" fill="white"/>
<path d="M193.112 271.053H192.174V276.438H193.112V271.053Z" fill="white"/>
<path d="M189.798 274.775L186.92 271.053H186.044V276.436H186.982V272.607L189.944 276.436H190.736V271.053H189.798V274.775Z" fill="white"/>
<path d="M177.645 272.575V276.436H178.585V271.053H177.576L175.939 273.597L174.301 271.053H173.292V276.436H174.23V272.591L175.916 275.114H175.945L177.645 272.575Z" fill="white"/>
</svg>
