<svg viewBox="0 0 348 348" fill="none" xmlns="http://www.w3.org/2000/svg">
<path d="M153.166 240V226.14H161.526V227.8H155.106V231.98H160.806V233.62H155.106V240H153.166Z" fill="white"/>
<path fill-rule="evenodd" clip-rule="evenodd" d="M172.25 240C172.024 239.4 171.81 238.813 171.61 238.24C171.41 237.653 171.204 237.06 170.99 236.46H164.71L163.45 240H161.43C161.964 238.533 162.464 237.18 162.93 235.94C163.397 234.687 163.85 233.5 164.29 232.38C164.744 231.26 165.19 230.193 165.63 229.18C166.07 228.153 166.53 227.14 167.01 226.14H168.79C169.27 227.14 169.73 228.153 170.17 229.18C170.61 230.193 171.05 231.26 171.49 232.38C171.944 233.5 172.404 234.687 172.87 235.94C173.337 237.18 173.837 238.533 174.37 240H172.25ZM170.43 234.86C170.004 233.7 169.577 232.58 169.15 231.5C168.737 230.407 168.304 229.36 167.85 228.36C167.384 229.36 166.937 230.407 166.51 231.5C166.097 232.58 165.684 233.7 165.27 234.86H170.43Z" fill="white"/>
<path d="M184.592 240V238.32H178.192V226.14H176.252V240H184.592Z" fill="white"/>
<path d="M194.963 238.32V240H186.623V226.14H188.563V238.32H194.963Z" fill="white"/>
<path d="M160.122 256.68C160.122 257.16 160.022 257.627 159.822 258.08C159.635 258.52 159.382 258.96 159.062 259.4C158.742 259.827 158.382 260.253 157.982 260.68C157.582 261.093 157.182 261.5 156.782 261.9L155.982 262.7C155.689 263.007 155.409 263.327 155.142 263.66C154.875 263.993 154.649 264.313 154.462 264.62C154.289 264.927 154.202 265.193 154.202 265.42H160.582V267H152.182C152.169 266.92 152.162 266.84 152.162 266.76V266.54C152.162 265.913 152.262 265.333 152.462 264.8C152.675 264.253 152.949 263.74 153.282 263.26C153.615 262.78 153.989 262.327 154.402 261.9C154.815 261.473 155.222 261.06 155.622 260.66C155.955 260.34 156.269 260.027 156.562 259.72C156.869 259.4 157.135 259.087 157.362 258.78C157.602 258.46 157.789 258.133 157.922 257.8C158.069 257.467 158.142 257.113 158.142 256.74C158.142 256.34 158.075 256 157.942 255.72C157.822 255.44 157.655 255.207 157.442 255.02C157.229 254.833 156.975 254.7 156.682 254.62C156.402 254.527 156.102 254.48 155.782 254.48C155.395 254.48 155.042 254.533 154.722 254.64C154.402 254.747 154.115 254.873 153.862 255.02C153.609 255.153 153.395 255.3 153.222 255.46C153.049 255.607 152.915 255.72 152.822 255.8L151.902 254.48C152.022 254.347 152.202 254.187 152.442 254C152.682 253.8 152.969 253.613 153.302 253.44C153.635 253.267 154.009 253.12 154.422 253C154.835 252.88 155.282 252.82 155.762 252.82C157.215 252.82 158.302 253.16 159.022 253.84C159.755 254.507 160.122 255.453 160.122 256.68Z" fill="white"/>
<path fill-rule="evenodd" clip-rule="evenodd" d="M164.291 254.7C163.478 255.953 163.071 257.74 163.071 260.06C163.071 262.38 163.478 264.167 164.291 265.42C165.118 266.673 166.258 267.3 167.711 267.3C169.164 267.3 170.298 266.673 171.111 265.42C171.938 264.167 172.351 262.38 172.351 260.06C172.351 257.74 171.938 255.953 171.111 254.7C170.298 253.447 169.164 252.82 167.711 252.82C166.258 252.82 165.118 253.447 164.291 254.7ZM170.251 257.9C170.344 258.58 170.391 259.3 170.391 260.06C170.391 260.82 170.344 261.54 170.251 262.22C170.171 262.9 170.024 263.493 169.811 264C169.611 264.507 169.338 264.913 168.991 265.22C168.644 265.513 168.218 265.66 167.711 265.66C167.204 265.66 166.778 265.513 166.431 265.22C166.084 264.913 165.804 264.507 165.591 264C165.391 263.493 165.244 262.9 165.151 262.22C165.071 261.54 165.031 260.82 165.031 260.06C165.031 259.3 165.071 258.58 165.151 257.9C165.244 257.22 165.391 256.627 165.591 256.12C165.804 255.613 166.084 255.213 166.431 254.92C166.778 254.613 167.204 254.46 167.711 254.46C168.218 254.46 168.644 254.613 168.991 254.92C169.338 255.213 169.611 255.613 169.811 256.12C170.024 256.627 170.171 257.22 170.251 257.9Z" fill="white"/>
<path d="M182.7 256.68C182.7 257.16 182.6 257.627 182.4 258.08C182.213 258.52 181.96 258.96 181.64 259.4C181.32 259.827 180.96 260.253 180.56 260.68C180.16 261.093 179.76 261.5 179.36 261.9L178.56 262.7C178.267 263.007 177.987 263.327 177.72 263.66C177.453 263.993 177.227 264.313 177.04 264.62C176.867 264.927 176.78 265.193 176.78 265.42H183.16V267H174.76C174.747 266.92 174.74 266.84 174.74 266.76V266.54C174.74 265.913 174.84 265.333 175.04 264.8C175.253 264.253 175.527 263.74 175.86 263.26C176.193 262.78 176.567 262.327 176.98 261.9C177.393 261.473 177.8 261.06 178.2 260.66C178.533 260.34 178.847 260.027 179.14 259.72C179.447 259.4 179.713 259.087 179.94 258.78C180.18 258.46 180.367 258.133 180.5 257.8C180.647 257.467 180.72 257.113 180.72 256.74C180.72 256.34 180.653 256 180.52 255.72C180.4 255.44 180.233 255.207 180.02 255.02C179.807 254.833 179.553 254.7 179.26 254.62C178.98 254.527 178.68 254.48 178.36 254.48C177.973 254.48 177.62 254.533 177.3 254.64C176.98 254.747 176.693 254.873 176.44 255.02C176.187 255.153 175.973 255.3 175.8 255.46C175.627 255.607 175.493 255.72 175.4 255.8L174.48 254.48C174.6 254.347 174.78 254.187 175.02 254C175.26 253.8 175.547 253.613 175.88 253.44C176.213 253.267 176.587 253.12 177 253C177.413 252.88 177.86 252.82 178.34 252.82C179.793 252.82 180.88 253.16 181.6 253.84C182.333 254.507 182.7 255.453 182.7 256.68Z" fill="white"/>
<path d="M191.709 264.94C191.202 265.407 190.356 265.64 189.169 265.64C188.409 265.64 187.762 265.553 187.229 265.38C186.709 265.207 186.336 265.067 186.109 264.96L185.749 266.58C185.856 266.633 186.029 266.7 186.269 266.78C186.509 266.86 186.789 266.94 187.109 267.02C187.429 267.1 187.769 267.167 188.129 267.22C188.503 267.273 188.863 267.3 189.209 267.3C190.103 267.3 190.876 267.193 191.529 266.98C192.183 266.767 192.723 266.473 193.149 266.1C193.589 265.727 193.909 265.287 194.109 264.78C194.323 264.26 194.429 263.7 194.429 263.1C194.429 262.607 194.349 262.16 194.189 261.76C194.043 261.36 193.842 261.007 193.589 260.7C193.349 260.393 193.062 260.14 192.729 259.94C192.396 259.74 192.049 259.587 191.689 259.48C192.276 259.213 192.776 258.827 193.189 258.32C193.603 257.8 193.809 257.18 193.809 256.46C193.809 255.94 193.723 255.46 193.549 255.02C193.376 254.567 193.116 254.18 192.769 253.86C192.423 253.527 191.982 253.273 191.449 253.1C190.916 252.913 190.283 252.82 189.549 252.82C189.163 252.82 188.789 252.86 188.429 252.94C188.083 253.007 187.756 253.093 187.449 253.2C187.143 253.307 186.863 253.427 186.609 253.56C186.369 253.68 186.169 253.793 186.009 253.9L186.729 255.32C187.036 255.12 187.409 254.927 187.849 254.74C188.303 254.553 188.849 254.46 189.489 254.46C189.809 254.46 190.109 254.5 190.389 254.58C190.683 254.647 190.936 254.767 191.149 254.94C191.376 255.113 191.556 255.333 191.689 255.6C191.823 255.867 191.889 256.187 191.889 256.56C191.889 257.013 191.796 257.393 191.609 257.7C191.423 257.993 191.183 258.227 190.889 258.4C190.596 258.573 190.269 258.693 189.909 258.76C189.562 258.827 189.223 258.86 188.889 258.86H188.229V260.38H188.709C189.189 260.38 189.656 260.427 190.109 260.52C190.576 260.6 190.982 260.747 191.329 260.96C191.676 261.16 191.956 261.433 192.169 261.78C192.383 262.127 192.489 262.553 192.489 263.06C192.489 263.847 192.229 264.473 191.709 264.94Z" fill="white"/>
<path d="M153.494 85H148.693V115H153.494V85Z" fill="white"/>
<path d="M170.294 105.43C170.294 110.021 166.433 110.387 165.285 110.387C162.416 110.387 161.894 107.702 161.894 106.082V94.6H157.093V106.058C157.093 108.901 157.986 111.249 159.551 112.814C160.934 114.197 163.005 114.953 165.249 114.953C166.84 114.953 169.093 114.458 170.294 113.362V115H175.093V94.6H170.294V105.43Z" fill="white"/>
<path d="M184.693 87.4H179.894V94.6H176.294V99.4H179.894V115H184.693V99.4H188.294V94.6H184.693V87.4Z" fill="white"/>
<path d="M203.41 108.9C202.365 109.84 200.985 110.361 199.47 110.361C196.132 110.361 193.68 107.909 193.68 104.543C193.68 101.177 196.054 98.8287 199.47 98.8287C200.958 98.8287 202.365 99.3243 203.436 100.264L204.165 100.89L207.401 97.6552L206.591 96.9244C204.687 95.2047 202.158 94.2399 199.469 94.2399C193.469 94.2399 189.112 98.5698 189.112 104.518C189.112 110.441 193.573 114.926 199.469 114.926C202.209 114.926 204.764 113.961 206.644 112.214L207.426 111.483L204.14 108.25L203.41 108.9Z" fill="white"/>
<path d="M224.533 96.3784C223.151 94.9961 221.531 94.2399 219.287 94.2399C217.696 94.2399 215.894 94.7357 214.693 95.83V85H209.894V115H214.693V103.762C214.693 99.1709 217.955 98.8058 219.104 98.8058C221.899 98.8058 221.896 101.356 221.894 102.983V115H226.693V103.136C226.693 100.292 226.099 97.9445 224.533 96.3784Z" fill="white"/>
<path d="M199.312 101.126C200.232 101.126 201.115 101.491 201.766 102.142C202.416 102.793 202.782 103.676 202.782 104.596C202.782 105.516 202.416 106.399 201.766 107.05C201.115 107.701 200.232 108.066 199.312 108.066C198.391 108.066 197.508 107.701 196.858 107.05C196.207 106.399 195.841 105.516 195.841 104.596C195.841 103.676 196.207 102.793 196.858 102.142C197.508 101.491 198.391 101.126 199.312 101.126Z" fill="white"/>
<path d="M135.06 110.361C137.669 110.361 140.148 109.343 141.974 107.465L142.731 106.709L145.913 109.969L145.209 110.7C142.548 113.44 138.948 114.952 135.06 114.952C127.209 114.952 121.26 108.717 121.26 100.421C121.26 92.1005 127.182 85.8399 135.06 85.8399C138.922 85.8399 142.522 87.3256 145.182 90.0651L145.887 90.7958L142.678 94.0048L141.948 93.274C140.096 91.421 137.644 90.4047 135.06 90.4047C129.713 90.4047 125.825 94.6046 125.825 100.396C125.825 106.161 129.713 110.361 135.06 110.361Z" fill="white"/>
<path d="M237.737 160.24C238.19 158.88 239.639 158.57 239.639 158.57C240.26 158.34 241.88 158.62 242.81 159.184C244.633 160.287 244.582 162.471 244.523 164.99C244.512 165.448 244.501 165.917 244.501 166.392V178.019C244.501 178.019 244.551 181.45 244.48 183.071C243.95 184.44 242.81 184.783 242.81 184.783C242.51 184.996 240.89 185.34 239.639 184.783C237.504 183.196 237.503 180.972 237.504 177.596V165.737C237.504 165.13 237.48 164.537 237.457 163.969C237.397 162.495 237.344 161.188 237.737 160.24Z" fill="white"/>
<path d="M138.783 177.363H133.942C133.942 177.363 136.268 162.989 136.247 162.989H136.268C136.247 162.989 138.783 177.363 138.783 177.363Z" fill="white"/>
<path d="M161.614 154.533L161.648 154.691C161.643 154.722 161.635 154.744 161.635 154.744L161.614 154.533Z" fill="white"/>
<path d="M194.613 169.542L194.591 158.972C197.913 158.938 199.018 158.976 200.933 160.24C202.01 161.76 202.73 166.08 200.088 168.717C199.49 169.542 194.613 169.542 194.613 169.542Z" fill="white"/>
<path fill-rule="evenodd" clip-rule="evenodd" d="M173.999 33L302.339 103.227V244.773L173.999 315L45.6602 244.773V103.227L173.999 33ZM57.6875 237.645V212.408H290.312V237.645L173.999 301.289L57.6875 237.645ZM290.312 110.354V130.222H57.6875V110.354L173.999 46.71L290.312 110.354ZM89.3172 176.328H83.208L83.2126 176.383C83.5228 180.072 83.9413 185.049 80.4387 185.185C79.4925 185.222 78.8158 185.154 78.1345 184.762C76.4612 184.137 76.383 181.666 76.3003 179.049C76.2827 178.495 76.265 177.935 76.232 177.385C76.2929 176.084 76.2639 174.147 76.2322 172.023C76.1643 167.477 76.0837 162.079 76.845 160.262C77.0001 159.334 78.1134 158.972 78.1134 158.972C80.4201 157.804 82.5738 159.627 82.5738 159.627C83.0661 161.406 83.1024 163.58 83.126 164.991C83.1379 165.699 83.1465 166.215 83.208 166.392V167.005C84.3496 167.005 85.3663 166.976 86.3603 166.948C87.3111 166.921 88.2412 166.894 89.2401 166.894C89.2401 166.835 89.2438 166.729 89.2488 166.583C89.305 164.951 89.5337 158.302 86.7805 155.822C85.4352 154.937 83.5701 154.415 81.9396 154.131C80.2123 153.83 77.4893 154.206 75.9994 154.744C70.0622 156.887 70.0071 162.007 69.9298 169.187C69.9204 170.058 69.9107 170.959 69.8901 171.888C69.9413 173.089 69.9455 174.331 69.9496 175.563C69.9608 178.913 69.9717 182.189 70.926 184.361C72.8217 189.14 80.827 192.175 86.1463 188.166C89.3667 186.044 89.4561 180.513 89.3172 176.328ZM250.843 164.468C250.058 156.655 247.852 153.744 239.407 154.11C238.73 154.139 237.839 154.283 236.891 154.533C235.142 155.172 233.017 156.772 232.029 158.549C230.763 161.796 231.163 171.465 231.163 171.465C231.163 171.465 230.371 186.659 236.891 189.201C238.357 189.685 241.154 190.322 243.212 189.645C249.679 188.307 250.43 185.07 250.843 179.076C250.843 178.859 250.841 178.533 250.837 178.131C250.827 176.964 250.812 175.161 250.843 173.558C250.885 171.411 250.875 168.062 250.875 168.062C250.875 168.062 250.892 164.77 250.843 164.468ZM104.538 169.119V154.533H98.1958V189.223H104.538V173.558H111.725V189.223H118.067V154.533H111.725V169.119H104.538ZM139.65 154.533H132.674C130.61 166.158 128.354 177.787 126.1 189.223H131.829C131.951 188.505 132.088 187.771 132.228 187.026C132.574 185.189 132.931 183.284 133.097 181.38H139.439C139.589 182.33 139.763 183.28 139.935 184.222C140.249 185.934 140.557 187.618 140.707 189.223H146.626L139.65 154.533ZM161.614 154.533H154.87L154.236 189.201V189.223H159.098C159.264 185.878 159.31 181.38 159.31 181.38L159.733 165.737L164.785 189.223H168.59L173.452 165.737L173.663 170.176C173.663 170.176 173.949 177.004 174.086 181.38C174.182 184.442 174.298 189.223 174.298 189.223L178.917 189.201L177.98 154.533H171.761L166.687 178.019V178.23L161.648 154.691C161.655 154.644 161.656 154.575 161.614 154.533ZM190.243 154.498C189.595 154.51 188.937 154.523 188.271 154.533V189.223H194.591V173.981L200.32 173.579C202.164 173.385 204.527 171.867 204.527 171.867C204.527 171.867 206.96 169.95 207.275 166.392C209.248 154.139 201.14 154.292 190.243 154.498ZM221.671 154.533H215.519C215.692 158.257 215.519 164.68 215.519 164.68V170.197L215.541 172.522L215.519 179.076V189.223H221.671V154.533ZM267.311 160.262L264.774 154.533H260.335V162.354C260.335 163.341 260.344 164.175 260.353 164.964C260.369 166.42 260.383 167.722 260.335 169.542C260.297 170.969 260.317 172.183 260.337 173.394C260.358 174.644 260.378 175.89 260.335 177.363C260.233 180.821 260.335 186.06 260.335 186.06V189.201L265.429 189.223V168.506H265.641C266.61 171.755 269.235 177.363 269.235 177.363L271.983 184.762L273.885 189.223H278.113V154.533H273.04V174.192H273.019C271.037 169.613 267.311 160.262 267.311 160.262Z" fill="white"/>
</svg>
