<svg viewBox="0 0 348 348" fill="none" xmlns="http://www.w3.org/2000/svg">
<path d="M159.961 60.6114V59L165.435 59.0111V59.0056L180.14 59C184.248 59 186.667 62.26 186.667 63.6969H163.85C163.85 62.1816 162.786 60.6114 159.961 60.6114Z" fill="white"/>
<path d="M181.03 72.0177H177.273V67.3202H186.667C186.667 68.2487 184.279 72.0177 181.03 72.0177Z" fill="white"/>
<path d="M163.85 67.3202H173.112V72.0172H163.85V67.3202Z" fill="white"/>
<path d="M173.112 80.3368H163.85V75.6411H173.112V80.3368Z" fill="white"/>
<path d="M177.273 75.64H181.433C185.649 75.6411 187.743 79.0171 187.743 80.3368H177.273V75.64Z" fill="white"/>
<path d="M163.85 83.9613H173.112V85.9744H177.273V83.9613L187.743 83.9646C187.743 85.6216 184.731 88.6587 181.57 88.6587H159.961V87.0473C162.764 87.0479 163.85 85.566 163.85 83.9613Z" fill="white"/>
<path fill-rule="evenodd" clip-rule="evenodd" d="M177.412 105.482C177.298 105.48 177.185 105.455 177.08 105.41C176.974 105.364 176.879 105.298 176.799 105.216C176.72 105.133 176.657 105.036 176.615 104.929C176.573 104.823 176.552 104.709 176.554 104.594C176.556 104.48 176.58 104.366 176.626 104.261C176.672 104.156 176.738 104.061 176.82 103.981C176.903 103.901 177 103.839 177.107 103.797C177.213 103.755 177.327 103.734 177.442 103.736C177.522 103.737 177.602 103.737 177.681 103.737L177.687 103.737C177.722 103.736 177.757 103.736 177.792 103.736C178.056 102.616 178.833 101.481 180.117 100.351C181.503 99.1621 183.058 98.1873 184.732 97.4588C184.841 97.4105 184.958 97.3849 185.077 97.3836C185.196 97.3823 185.314 97.4053 185.424 97.4514C185.534 97.4974 185.633 97.5654 185.715 97.6512C185.798 97.7369 185.862 97.8387 185.903 97.9501C186.469 99.462 186.114 101.13 184.934 102.569C186.025 102.203 187.087 101.756 188.111 101.232C187.844 100.098 188.026 98.7383 188.659 97.1758C189.361 95.5023 190.34 93.959 191.555 92.6109C191.634 92.5221 191.729 92.4503 191.837 92.3998C191.944 92.3492 192.06 92.321 192.178 92.3169C192.297 92.3127 192.415 92.3327 192.525 92.3757C192.635 92.4187 192.736 92.4836 192.82 92.5666C193.952 93.6805 194.333 95.3247 193.889 97.1124C194.691 96.3452 195.443 95.5275 196.141 94.6643L196.164 94.6346L196.178 94.6166C195.473 93.6979 195.078 92.3803 195.027 90.7436C194.996 88.9386 195.278 87.1419 195.859 85.4327C195.895 85.322 195.953 85.2196 196.03 85.1316C196.106 85.0436 196.199 84.9718 196.304 84.9205C196.408 84.8691 196.522 84.8391 196.638 84.8324C196.754 84.8257 196.871 84.8423 196.981 84.8814C198.483 85.416 199.507 86.7441 199.818 88.5497C200.267 87.5004 200.644 86.4215 200.946 85.3206C199.923 84.7864 199.037 83.7739 198.307 82.2946C197.536 80.6521 197.034 78.8963 196.82 77.0943C196.804 76.9777 196.812 76.8591 196.843 76.7455C196.875 76.6321 196.928 76.526 197.002 76.4338C197.075 76.3416 197.166 76.2652 197.269 76.209C197.373 76.1529 197.486 76.1183 197.604 76.1071C199.191 75.9566 200.735 76.7714 201.781 78.2943C201.733 76.9753 201.567 75.6632 201.287 74.3733C199.933 72.7577 198.768 70.9921 197.815 69.1113C196.696 67.0635 195.754 64.9216 195.005 62.7113C194.954 62.5544 194.949 62.3863 194.989 62.2264C195.03 62.0666 195.115 61.9215 195.235 61.8081C195.355 61.6947 195.505 61.6176 195.666 61.5857C195.828 61.5537 195.996 61.5683 196.15 61.6277C198.444 62.5119 200.671 64.5614 201.947 66.9705C203.193 69.2925 203.578 71.9004 202.995 74.0017C203.296 75.3947 203.473 76.8116 203.524 78.2358C204.626 76.2604 205.828 75.1853 207.191 74.9572C207.308 74.9376 207.428 74.942 207.543 74.9702C207.658 74.9985 207.767 75.05 207.861 75.1217C207.956 75.1932 208.035 75.2833 208.093 75.3866C208.152 75.4898 208.189 75.6039 208.202 75.7218C208.503 78.4428 207.875 81.234 206.525 83.182C205.456 84.7328 204.052 85.6315 202.647 85.7039C202.32 86.9111 201.909 88.0938 201.416 89.2432C203.201 87.9673 204.776 87.5036 206.097 87.8688C206.212 87.9008 206.32 87.9562 206.413 88.0315C206.506 88.1068 206.582 88.2005 206.638 88.3067C206.693 88.4129 206.726 88.5293 206.734 88.6488C206.742 88.7682 206.726 88.888 206.686 89.0008C205.785 91.5474 204.062 93.7825 202.076 94.978C200.026 96.2198 198.491 96.0409 197.564 95.6735C197.542 95.7018 197.52 95.7306 197.497 95.7589C196.734 96.7028 195.911 97.5958 195.031 98.4324C197.158 97.986 198.766 98.2094 199.813 99.1015C199.903 99.1779 199.976 99.2716 200.029 99.3771C200.081 99.4825 200.112 99.5975 200.118 99.7151C200.125 99.8326 200.108 99.9504 200.069 100.061C200.029 100.172 199.967 100.274 199.887 100.36C198.042 102.35 195.583 103.709 193.307 103.992C192.3 104.145 191.27 104.04 190.314 103.686C189.794 103.483 189.324 103.171 188.936 102.77C187.8 103.353 186.621 103.847 185.409 104.248C187.558 104.744 188.942 105.63 189.52 106.886C189.569 106.993 189.596 107.108 189.599 107.225C189.603 107.342 189.583 107.459 189.54 107.568C189.497 107.677 189.433 107.777 189.351 107.861C189.27 107.945 189.172 108.011 189.063 108.057C186.542 109.111 183.685 109.293 181.424 108.545C181.256 108.49 181.092 108.431 180.933 108.367C179.352 107.736 178.262 106.704 177.858 105.479C177.708 105.483 177.56 105.484 177.412 105.482ZM184.413 99.5482C183.283 100.125 182.227 100.835 181.267 101.664C180.616 102.197 180.077 102.854 179.682 103.597C181.112 103.363 182.43 102.674 183.438 101.633C183.988 101.068 184.331 100.332 184.413 99.5482ZM198.132 89.0773L198.132 89.0749C198.079 88.3045 197.751 87.5788 197.21 87.0284C196.893 88.2229 196.746 89.4558 196.77 90.6913C196.768 91.5055 196.934 92.3114 197.256 93.0589C197.947 91.8517 198.252 90.4627 198.132 89.0773ZM193.088 102.262C194.817 101.968 196.427 101.19 197.732 100.018C196.847 99.9022 195.949 99.9671 195.09 100.208C193.54 100.604 192.039 101.171 190.614 101.896C191.376 102.286 192.246 102.414 193.088 102.262ZM192.134 96.9136C192.386 96.1778 192.387 95.3794 192.138 94.6428C191.377 95.6179 190.751 96.6906 190.276 97.8321C189.941 98.5882 189.759 99.4032 189.74 100.23C190.855 99.3933 191.69 98.2378 192.133 96.9164L192.134 96.9148L192.134 96.9136ZM200.457 79.4614L200.455 79.4583C200.086 78.8165 199.523 78.3087 198.846 78.0083C198.825 77.9999 198.804 77.9915 198.783 77.9835C198.764 77.9764 198.745 77.9697 198.726 77.9635C198.949 79.1957 199.334 80.393 199.872 81.524C200.21 82.2666 200.699 82.9312 201.307 83.4761C201.453 82.0818 201.156 80.6769 200.457 79.4614ZM200.405 67.7949C199.689 66.4545 198.691 65.2851 197.48 64.3668C197.984 65.5758 198.611 66.8874 199.355 68.2883C200 69.5187 200.721 70.7072 201.515 71.8467C201.459 70.4292 201.079 69.0431 200.405 67.7949ZM206.529 77.157C205.852 77.778 205.3 78.5229 204.903 79.3514C204.172 80.7881 203.584 82.2933 203.148 83.8453C203.952 83.5098 204.631 82.932 205.091 82.1921C206.047 80.6877 206.546 78.9389 206.529 77.157ZM201.174 93.485C202.639 92.5195 203.809 91.1667 204.552 89.577C203.689 89.8426 202.885 90.2732 202.186 90.8448C200.925 91.8288 199.776 92.9479 198.759 94.182C199.617 94.2093 200.462 93.9654 201.174 93.485ZM181.968 106.89C183.696 107.388 185.531 107.373 187.251 106.847C186.486 106.362 185.629 106.036 184.735 105.891C183.103 105.589 181.447 105.446 179.788 105.465C180.121 105.944 180.756 106.493 181.968 106.89Z" fill="white"/>
<path fill-rule="evenodd" clip-rule="evenodd" d="M171.897 105.41C171.791 105.455 171.678 105.48 171.564 105.482C171.416 105.484 171.268 105.483 171.118 105.479C170.714 106.704 169.624 107.736 168.043 108.367C167.884 108.431 167.72 108.49 167.552 108.545C165.291 109.293 162.434 109.111 159.913 108.057C159.804 108.011 159.707 107.945 159.625 107.861C159.543 107.777 159.479 107.677 159.436 107.568C159.393 107.459 159.373 107.342 159.377 107.225C159.38 107.108 159.407 106.993 159.456 106.886C160.034 105.63 161.418 104.744 163.567 104.248C162.355 103.847 161.176 103.353 160.04 102.77C159.652 103.171 159.182 103.483 158.662 103.686C157.706 104.04 156.676 104.145 155.669 103.992C153.393 103.709 150.934 102.35 149.089 100.36C149.009 100.274 148.947 100.172 148.907 100.061C148.868 99.9504 148.851 99.8326 148.858 99.7151C148.864 99.5975 148.895 99.4825 148.948 99.3771C149 99.2716 149.073 99.1779 149.163 99.1015C150.21 98.2094 151.818 97.986 153.945 98.4324C153.066 97.5958 152.242 96.7028 151.479 95.7589C151.468 95.7451 151.457 95.7313 151.446 95.7175L151.43 95.6969L151.412 95.6735C150.485 96.0409 148.95 96.2198 146.9 94.978C144.914 93.7825 143.191 91.5474 142.29 89.0008C142.25 88.888 142.234 88.7682 142.242 88.6488C142.25 88.5293 142.283 88.4129 142.339 88.3067C142.394 88.2005 142.47 88.1068 142.563 88.0315C142.656 87.9562 142.764 87.9008 142.879 87.8688C144.2 87.5036 145.775 87.9673 147.56 89.2432C147.067 88.0938 146.656 86.9111 146.329 85.7039C144.924 85.6315 143.52 84.7328 142.451 83.182C141.101 81.234 140.473 78.4428 140.774 75.7218C140.787 75.6039 140.824 75.4898 140.883 75.3866C140.941 75.2833 141.02 75.1932 141.115 75.1217C141.209 75.05 141.318 74.9985 141.433 74.9702C141.548 74.942 141.668 74.9376 141.785 74.9572C143.148 75.1853 144.35 76.2604 145.452 78.2358C145.503 76.8116 145.68 75.3947 145.981 74.0017C145.398 71.9004 145.783 69.2925 147.029 66.9705C148.305 64.5614 150.532 62.5119 152.826 61.6277C152.98 61.5683 153.148 61.5537 153.31 61.5857C153.471 61.6176 153.621 61.6947 153.741 61.8081C153.861 61.9215 153.946 62.0666 153.987 62.2264C154.027 62.3863 154.022 62.5544 153.971 62.7113C153.222 64.9216 152.282 67.0626 151.163 69.1104C150.21 70.9913 149.043 72.7577 147.689 74.3733C147.409 75.6632 147.244 76.9753 147.195 78.2943C148.241 76.7714 149.785 75.9566 151.372 76.1071C151.49 76.1183 151.603 76.1529 151.707 76.209C151.81 76.2652 151.901 76.3416 151.974 76.4338C152.048 76.526 152.101 76.6321 152.133 76.7455C152.164 76.8591 152.172 76.9777 152.156 77.0943C151.942 78.8963 151.44 80.6521 150.669 82.2946C149.939 83.7739 149.053 84.7864 148.031 85.3206C148.332 86.4215 148.709 87.5004 149.158 88.5497C149.469 86.7441 150.493 85.416 151.995 84.8814C152.105 84.8423 152.222 84.8257 152.338 84.8324C152.454 84.8391 152.568 84.8691 152.672 84.9205C152.777 84.9718 152.87 85.0436 152.947 85.1316C153.023 85.2196 153.081 85.322 153.117 85.4327C153.698 87.1419 153.98 88.9386 153.949 90.7436C153.898 92.3803 153.503 93.6979 152.798 94.6166L152.81 94.6324C152.819 94.6431 152.827 94.6535 152.835 94.6643C153.533 95.5275 154.285 96.3452 155.087 97.1124C154.643 95.3247 155.024 93.6805 156.156 92.5666C156.24 92.4836 156.341 92.4187 156.451 92.3757C156.561 92.3327 156.679 92.3127 156.798 92.3169C156.916 92.321 157.032 92.3492 157.139 92.3998C157.247 92.4503 157.342 92.5221 157.421 92.6109C158.636 93.959 159.615 95.5023 160.317 97.1758C160.95 98.7383 161.132 100.098 160.865 101.232C161.889 101.756 162.951 102.203 164.042 102.569C162.862 101.13 162.507 99.462 163.073 97.9501C163.114 97.8387 163.178 97.7369 163.261 97.6512C163.343 97.5654 163.442 97.4974 163.552 97.4514C163.662 97.4053 163.78 97.3823 163.899 97.3836C164.018 97.3849 164.135 97.4105 164.244 97.4588C165.918 98.1873 167.473 99.1621 168.859 100.351C170.143 101.481 170.92 102.616 171.184 103.736L171.234 103.736L171.295 103.737C171.375 103.737 171.454 103.737 171.534 103.736C171.649 103.734 171.763 103.755 171.869 103.797C171.976 103.839 172.073 103.901 172.156 103.981C172.238 104.061 172.304 104.156 172.35 104.261C172.396 104.366 172.42 104.48 172.422 104.594C172.424 104.709 172.403 104.823 172.361 104.929C172.319 105.036 172.256 105.133 172.177 105.216C172.097 105.298 172.002 105.364 171.897 105.41ZM167.709 101.664C166.749 100.835 165.693 100.125 164.563 99.5482C164.645 100.332 164.988 101.066 165.537 101.631C166.546 102.672 167.864 103.363 169.294 103.597C168.899 102.854 168.361 102.197 167.709 101.664ZM150.844 89.0749L150.844 89.0773C150.724 90.4627 151.03 91.8517 151.72 93.0589C152.042 92.3114 152.208 91.5055 152.206 90.6913C152.231 89.4558 152.083 88.2229 151.766 87.0284C151.225 87.5788 150.897 88.3045 150.844 89.0749ZM151.244 100.018C152.549 101.19 154.159 101.968 155.888 102.262C156.731 102.414 157.6 102.286 158.362 101.896C156.937 101.171 155.436 100.604 153.886 100.208C153.027 99.9671 152.129 99.9022 151.244 100.018ZM156.842 96.9136L156.842 96.9148L156.843 96.9164C157.287 98.2378 158.121 99.3933 159.236 100.23C159.217 99.4032 159.035 98.5882 158.7 97.8321C158.225 96.6906 157.599 95.6179 156.838 94.6428C156.589 95.3794 156.59 96.1778 156.842 96.9136ZM148.521 79.4583L148.519 79.4614C147.821 80.6769 147.523 82.0818 147.669 83.4761C148.277 82.9312 148.766 82.2666 149.104 81.524C149.642 80.393 150.027 79.1957 150.25 77.9635C150.227 77.971 150.204 77.9793 150.181 77.9881L150.146 78.0017L150.13 78.0083C149.453 78.3087 148.89 78.8165 148.521 79.4583ZM151.496 64.3668C150.285 65.2851 149.287 66.4545 148.571 67.7949C147.897 69.0431 147.517 70.4292 147.461 71.8467C148.255 70.7072 148.976 69.5187 149.621 68.2883C150.365 66.8874 150.992 65.5758 151.496 64.3668ZM144.073 79.3514C143.676 78.5229 143.124 77.778 142.447 77.157C142.43 78.9389 142.929 80.6877 143.885 82.1921C144.345 82.932 145.024 83.5098 145.828 83.8453C145.392 82.2933 144.804 80.7881 144.073 79.3514ZM144.424 89.577C145.167 91.1667 146.337 92.5195 147.802 93.485C148.514 93.9654 149.359 94.2093 150.217 94.182C149.2 92.9479 148.051 91.8288 146.79 90.8448C146.091 90.2732 145.287 89.8426 144.424 89.577ZM161.725 106.847C163.445 107.373 165.28 107.388 167.008 106.89C168.22 106.493 168.855 105.944 169.188 105.465C167.529 105.446 165.873 105.589 164.241 105.891C163.347 106.036 162.491 106.362 161.725 106.847Z" fill="white"/>
<path d="M91.376 131.719V130H103.376V131.719H98.3447V146H96.4072V131.719H91.376Z" fill="white"/>
<path fill-rule="evenodd" clip-rule="evenodd" d="M106.415 145.484C107.254 145.995 108.251 146.25 109.407 146.25C110.22 146.25 110.951 146.125 111.603 145.875C112.254 145.62 112.8 145.266 113.243 144.812C113.686 144.354 114.001 143.823 114.188 143.219L112.407 142.719C112.251 143.135 112.03 143.484 111.743 143.766C111.457 144.042 111.116 144.25 110.72 144.391C110.329 144.526 109.892 144.594 109.407 144.594C108.662 144.594 108.009 144.432 107.446 144.109C106.884 143.781 106.444 143.305 106.126 142.68C105.843 142.108 105.688 141.423 105.661 140.625H114.376V139.844C114.376 138.724 114.228 137.781 113.931 137.016C113.634 136.25 113.235 135.635 112.735 135.172C112.235 134.703 111.681 134.365 111.071 134.156C110.462 133.948 109.845 133.844 109.22 133.844C108.136 133.844 107.188 134.109 106.376 134.641C105.569 135.167 104.938 135.901 104.485 136.844C104.037 137.781 103.813 138.865 103.813 140.094C103.813 141.323 104.037 142.401 104.485 143.328C104.938 144.25 105.582 144.969 106.415 145.484ZM105.666 139.031C105.701 138.475 105.841 137.949 106.087 137.453C106.373 136.875 106.782 136.406 107.313 136.047C107.85 135.682 108.485 135.5 109.22 135.5C109.886 135.5 110.465 135.654 110.954 135.961C111.449 136.268 111.829 136.688 112.095 137.219C112.366 137.75 112.501 138.354 112.501 139.031H105.666Z" fill="white"/>
<path d="M122.056 146.25C120.931 146.25 119.962 145.984 119.149 145.453C118.337 144.922 117.712 144.19 117.274 143.258C116.837 142.326 116.618 141.26 116.618 140.062C116.618 138.844 116.842 137.768 117.29 136.836C117.743 135.898 118.373 135.167 119.181 134.641C119.993 134.109 120.941 133.844 122.024 133.844C122.868 133.844 123.629 134 124.306 134.312C124.983 134.625 125.537 135.062 125.97 135.625C126.402 136.188 126.67 136.844 126.774 137.594H124.931C124.79 137.047 124.478 136.562 123.993 136.141C123.514 135.714 122.868 135.5 122.056 135.5C121.337 135.5 120.707 135.688 120.165 136.062C119.629 136.432 119.209 136.956 118.907 137.633C118.61 138.305 118.462 139.094 118.462 140C118.462 140.927 118.608 141.734 118.899 142.422C119.196 143.109 119.613 143.643 120.149 144.023C120.691 144.404 121.326 144.594 122.056 144.594C122.535 144.594 122.97 144.51 123.36 144.344C123.751 144.177 124.082 143.938 124.353 143.625C124.623 143.312 124.816 142.938 124.931 142.5H126.774C126.67 143.208 126.412 143.846 126.001 144.414C125.595 144.977 125.056 145.424 124.384 145.758C123.717 146.086 122.941 146.25 122.056 146.25Z" fill="white"/>
<path d="M131.313 146V138.781C131.313 138.083 131.449 137.49 131.72 137C131.996 136.51 132.371 136.138 132.845 135.883C133.324 135.628 133.866 135.5 134.47 135.5C135.34 135.5 136.019 135.763 136.509 136.289C137.004 136.81 137.251 137.547 137.251 138.5V146H139.095V138.375C139.095 137.344 138.923 136.495 138.579 135.828C138.241 135.156 137.764 134.659 137.149 134.336C136.535 134.008 135.819 133.844 135.001 133.844C134.058 133.844 133.303 134.029 132.735 134.398C132.173 134.763 131.751 135.255 131.47 135.875H131.313V130H129.47V146H131.313Z" fill="white"/>
<path fill-rule="evenodd" clip-rule="evenodd" d="M142.718 146V130H148.312C149.426 130 150.345 130.193 151.069 130.578C151.793 130.958 152.332 131.471 152.687 132.117C153.041 132.758 153.218 133.469 153.218 134.25C153.218 134.938 153.095 135.505 152.851 135.953C152.611 136.401 152.293 136.755 151.897 137.016C151.507 137.276 151.082 137.469 150.624 137.594V137.75C151.114 137.781 151.606 137.953 152.101 138.266C152.595 138.578 153.009 139.026 153.343 139.609C153.676 140.193 153.843 140.906 153.843 141.75C153.843 142.552 153.66 143.273 153.296 143.914C152.931 144.555 152.356 145.062 151.569 145.438C150.783 145.812 149.759 146 148.499 146H142.718ZM144.655 144.281H148.499C149.765 144.281 150.663 144.036 151.194 143.547C151.731 143.052 151.999 142.453 151.999 141.75C151.999 141.208 151.861 140.708 151.585 140.25C151.309 139.786 150.916 139.417 150.405 139.141C149.895 138.859 149.291 138.719 148.593 138.719H144.655V144.281ZM144.655 137.031H148.249C148.832 137.031 149.358 136.917 149.827 136.688C150.301 136.458 150.676 136.135 150.952 135.719C151.233 135.302 151.374 134.812 151.374 134.25C151.374 133.547 151.129 132.951 150.64 132.461C150.15 131.966 149.374 131.719 148.312 131.719H144.655V137.031Z" fill="white"/>
<path fill-rule="evenodd" clip-rule="evenodd" d="M158.815 145.484C159.654 145.995 160.651 146.25 161.808 146.25C162.62 146.25 163.352 146.125 164.003 145.875C164.654 145.62 165.201 145.266 165.644 144.812C166.086 144.354 166.401 143.823 166.589 143.219L164.808 142.719C164.651 143.135 164.43 143.484 164.144 143.766C163.857 144.042 163.516 144.25 163.12 144.391C162.729 144.526 162.292 144.594 161.808 144.594C161.063 144.594 160.409 144.432 159.847 144.109C159.284 143.781 158.844 143.305 158.526 142.68C158.243 142.108 158.088 141.423 158.062 140.625H166.776V139.844C166.776 138.724 166.628 137.781 166.331 137.016C166.034 136.25 165.636 135.635 165.136 135.172C164.636 134.703 164.081 134.365 163.472 134.156C162.862 133.948 162.245 133.844 161.62 133.844C160.537 133.844 159.589 134.109 158.776 134.641C157.969 135.167 157.339 135.901 156.886 136.844C156.438 137.781 156.214 138.865 156.214 140.094C156.214 141.323 156.438 142.401 156.886 143.328C157.339 144.25 157.982 144.969 158.815 145.484ZM158.066 139.031C158.102 138.475 158.242 137.949 158.487 137.453C158.774 136.875 159.183 136.406 159.714 136.047C160.25 135.682 160.886 135.5 161.62 135.5C162.287 135.5 162.865 135.654 163.354 135.961C163.849 136.268 164.229 136.688 164.495 137.219C164.766 137.75 164.901 138.354 164.901 139.031H158.066Z" fill="white"/>
<path d="M171.425 138.781V146H169.581V130H171.425V135.875H171.581C171.862 135.255 172.284 134.763 172.847 134.398C173.414 134.029 174.17 133.844 175.112 133.844C175.93 133.844 176.646 134.008 177.261 134.336C177.875 134.659 178.352 135.156 178.69 135.828C179.034 136.495 179.206 137.344 179.206 138.375V146H177.362V138.5C177.362 137.547 177.115 136.81 176.62 136.289C176.131 135.763 175.451 135.5 174.581 135.5C173.977 135.5 173.435 135.628 172.956 135.883C172.482 136.138 172.107 136.51 171.831 137C171.56 137.49 171.425 138.083 171.425 138.781Z" fill="white"/>
<path fill-rule="evenodd" clip-rule="evenodd" d="M184.618 145.484C185.457 145.995 186.454 146.25 187.61 146.25C188.423 146.25 189.155 146.125 189.806 145.875C190.457 145.62 191.004 145.266 191.446 144.812C191.889 144.354 192.204 143.823 192.392 143.219L190.61 142.719C190.454 143.135 190.233 143.484 189.946 143.766C189.66 144.042 189.319 144.25 188.923 144.391C188.532 144.526 188.095 144.594 187.61 144.594C186.866 144.594 186.212 144.432 185.649 144.109C185.087 143.781 184.647 143.305 184.329 142.68C184.046 142.108 183.891 141.423 183.864 140.625H192.579V139.844C192.579 138.724 192.431 137.781 192.134 137.016C191.837 136.25 191.438 135.635 190.938 135.172C190.438 134.703 189.884 134.365 189.274 134.156C188.665 133.948 188.048 133.844 187.423 133.844C186.34 133.844 185.392 134.109 184.579 134.641C183.772 135.167 183.142 135.901 182.688 136.844C182.241 137.781 182.017 138.865 182.017 140.094C182.017 141.323 182.241 142.401 182.688 143.328C183.142 144.25 183.785 144.969 184.618 145.484ZM183.869 139.031C183.904 138.475 184.045 137.949 184.29 137.453C184.576 136.875 184.985 136.406 185.517 136.047C186.053 135.682 186.688 135.5 187.423 135.5C188.09 135.5 188.668 135.654 189.157 135.961C189.652 136.268 190.032 136.688 190.298 137.219C190.569 137.75 190.704 138.354 190.704 139.031H183.869Z" fill="white"/>
<path d="M195.384 134H197.165V135.875H197.321C197.571 135.234 197.975 134.737 198.532 134.383C199.09 134.023 199.759 133.844 200.54 133.844C201.332 133.844 201.991 134.023 202.517 134.383C203.048 134.737 203.462 135.234 203.759 135.875H203.884C204.191 135.255 204.652 134.763 205.267 134.398C205.881 134.029 206.618 133.844 207.478 133.844C208.55 133.844 209.428 134.18 210.11 134.852C210.793 135.518 211.134 136.557 211.134 137.969V146H209.29V137.969C209.29 137.083 209.048 136.451 208.563 136.07C208.079 135.69 207.509 135.5 206.853 135.5C206.009 135.5 205.355 135.755 204.892 136.266C204.428 136.771 204.196 137.411 204.196 138.188V146H202.321V137.781C202.321 137.099 202.1 136.549 201.657 136.133C201.215 135.711 200.644 135.5 199.946 135.5C199.467 135.5 199.019 135.628 198.603 135.883C198.191 136.138 197.858 136.492 197.603 136.945C197.353 137.393 197.228 137.911 197.228 138.5V146H195.384V134Z" fill="white"/>
<path fill-rule="evenodd" clip-rule="evenodd" d="M216.528 145.477C217.346 145.992 218.297 146.25 219.38 146.25C220.463 146.25 221.411 145.992 222.224 145.477C223.041 144.961 223.677 144.24 224.13 143.312C224.588 142.385 224.817 141.302 224.817 140.062C224.817 138.812 224.588 137.721 224.13 136.789C223.677 135.857 223.041 135.133 222.224 134.617C221.411 134.102 220.463 133.844 219.38 133.844C218.297 133.844 217.346 134.102 216.528 134.617C215.716 135.133 215.08 135.857 214.622 136.789C214.169 137.721 213.942 138.812 213.942 140.062C213.942 141.302 214.169 142.385 214.622 143.312C215.08 144.24 215.716 144.961 216.528 145.477ZM221.411 143.961C220.88 144.383 220.203 144.594 219.38 144.594C218.557 144.594 217.88 144.383 217.349 143.961C216.817 143.539 216.424 142.984 216.169 142.297C215.914 141.609 215.786 140.865 215.786 140.062C215.786 139.26 215.914 138.513 216.169 137.82C216.424 137.128 216.817 136.568 217.349 136.141C217.88 135.714 218.557 135.5 219.38 135.5C220.203 135.5 220.88 135.714 221.411 136.141C221.942 136.568 222.336 137.128 222.591 137.82C222.846 138.513 222.974 139.26 222.974 140.062C222.974 140.865 222.846 141.609 222.591 142.297C222.336 142.984 221.942 143.539 221.411 143.961Z" fill="white"/>
<path d="M232.851 134V135.562H230.288V142.562C230.288 143.083 230.364 143.474 230.515 143.734C230.671 143.99 230.869 144.161 231.108 144.25C231.353 144.333 231.611 144.375 231.882 144.375C232.085 144.375 232.252 144.365 232.382 144.344L232.694 144.281L233.069 145.938C232.944 145.984 232.77 146.031 232.546 146.078C232.322 146.13 232.038 146.156 231.694 146.156C231.174 146.156 230.663 146.044 230.163 145.82C229.668 145.596 229.257 145.255 228.929 144.797C228.606 144.339 228.444 143.76 228.444 143.062V135.562H226.632V134H228.444V131.125H230.288V134H232.851Z" fill="white"/>
<path d="M237.726 146V138.781C237.726 138.083 237.861 137.49 238.132 137C238.408 136.51 238.783 136.138 239.257 135.883C239.736 135.628 240.278 135.5 240.882 135.5C241.752 135.5 242.431 135.763 242.921 136.289C243.416 136.81 243.663 137.547 243.663 138.5V146H245.507V138.375C245.507 137.344 245.335 136.495 244.991 135.828C244.653 135.156 244.176 134.659 243.562 134.336C242.947 134.008 242.231 133.844 241.413 133.844C240.47 133.844 239.715 134.029 239.147 134.398C238.585 134.763 238.163 135.255 237.882 135.875H237.726V130H235.882V146H237.726Z" fill="white"/>
<path d="M257.38 136.688L255.724 137.156C255.619 136.88 255.466 136.612 255.263 136.352C255.065 136.086 254.794 135.867 254.45 135.695C254.106 135.523 253.666 135.438 253.13 135.438C252.396 135.438 251.784 135.607 251.294 135.945C250.81 136.279 250.567 136.703 250.567 137.219C250.567 137.677 250.734 138.039 251.067 138.305C251.401 138.57 251.922 138.792 252.63 138.969L254.411 139.406C255.484 139.667 256.284 140.065 256.81 140.602C257.336 141.133 257.599 141.818 257.599 142.656C257.599 143.344 257.401 143.958 257.005 144.5C256.614 145.042 256.067 145.469 255.364 145.781C254.661 146.094 253.843 146.25 252.911 146.25C251.687 146.25 250.674 145.984 249.872 145.453C249.07 144.922 248.562 144.146 248.349 143.125L250.099 142.688C250.265 143.333 250.58 143.818 251.044 144.141C251.513 144.464 252.125 144.625 252.88 144.625C253.739 144.625 254.422 144.443 254.927 144.078C255.437 143.708 255.692 143.266 255.692 142.75C255.692 142.333 255.547 141.984 255.255 141.703C254.963 141.417 254.515 141.203 253.911 141.062L251.911 140.594C250.812 140.333 250.005 139.93 249.489 139.383C248.979 138.831 248.724 138.141 248.724 137.312C248.724 136.635 248.914 136.036 249.294 135.516C249.679 134.995 250.203 134.586 250.864 134.289C251.531 133.992 252.286 133.844 253.13 133.844C254.317 133.844 255.25 134.104 255.927 134.625C256.609 135.146 257.093 135.833 257.38 136.688Z" fill="white"/>
<path d="M127.201 167.909H129.183V176.519C129.183 177.435 128.968 178.247 128.537 178.955C128.107 179.658 127.502 180.212 126.722 180.616C125.942 181.017 125.028 181.217 123.98 181.217C122.936 181.217 122.024 181.017 121.244 180.616C120.464 180.212 119.859 179.658 119.429 178.955C118.998 178.247 118.783 177.435 118.783 176.519V167.909H120.758V176.359C120.758 176.952 120.888 177.478 121.148 177.938C121.412 178.398 121.785 178.761 122.267 179.025C122.748 179.285 123.319 179.415 123.98 179.415C124.644 179.415 125.218 179.285 125.699 179.025C126.185 178.761 126.556 178.398 126.811 177.938C127.071 177.478 127.201 176.952 127.201 176.359V167.909Z" fill="white"/>
<path d="M136.561 173.029L133.429 167.909H131.14L135.289 174.455L131.115 181H133.416L136.561 175.95H136.663L139.808 181H142.109L138.005 174.455L142.084 167.909H139.795L136.663 173.029H136.561Z" fill="white"/>
<path d="M148.875 167.295L144.656 182.969H142.95L147.168 167.295H148.875Z" fill="white"/>
<path d="M161.052 167.909H159.07V176.359C159.07 176.952 158.94 177.478 158.68 177.938C158.425 178.398 158.054 178.761 157.568 179.025C157.087 179.285 156.514 179.415 155.849 179.415C155.188 179.415 154.617 179.285 154.136 179.025C153.654 178.761 153.281 178.398 153.017 177.938C152.757 177.478 152.627 176.952 152.627 176.359V167.909H150.652V176.519C150.652 177.435 150.867 178.247 151.298 178.955C151.728 179.658 152.333 180.212 153.113 180.616C153.893 181.017 154.805 181.217 155.849 181.217C156.897 181.217 157.811 181.017 158.591 180.616C159.371 180.212 159.976 179.658 160.406 178.955C160.837 178.247 161.052 177.435 161.052 176.519V167.909Z" fill="white"/>
<path d="M165.899 181H163.924V167.909H165.899V181Z" fill="white"/>
<path fill-rule="evenodd" clip-rule="evenodd" d="M173.539 181H177.777C179.106 181 180.24 180.738 181.177 180.214C182.115 179.685 182.831 178.931 183.325 177.951C183.824 176.971 184.073 175.799 184.073 174.435C184.073 173.076 183.826 171.911 183.331 170.939C182.841 169.963 182.136 169.215 181.216 168.695C180.295 168.171 179.194 167.909 177.911 167.909H173.539V181ZM177.668 179.274H175.514V169.635H177.79C178.744 169.635 179.543 169.82 180.187 170.191C180.83 170.562 181.314 171.105 181.638 171.821C181.966 172.537 182.13 173.408 182.13 174.435C182.13 175.471 181.966 176.349 181.638 177.069C181.309 177.785 180.815 178.332 180.155 178.712C179.494 179.087 178.665 179.274 177.668 179.274Z" fill="white"/>
<path fill-rule="evenodd" clip-rule="evenodd" d="M190.607 181.198C189.64 181.198 188.807 180.991 188.108 180.578C187.413 180.161 186.876 179.575 186.497 178.82C186.122 178.062 185.935 177.173 185.935 176.155C185.935 175.149 186.122 174.263 186.497 173.496C186.876 172.729 187.405 172.13 188.082 171.7C188.764 171.269 189.561 171.054 190.473 171.054C191.027 171.054 191.564 171.146 192.084 171.329C192.604 171.512 193.07 171.8 193.484 172.192C193.897 172.584 194.223 173.093 194.462 173.719C194.7 174.342 194.82 175.098 194.82 175.989V176.666H187.841C187.856 177.265 187.97 177.778 188.185 178.207C188.419 178.667 188.745 179.018 189.163 179.261C189.58 179.5 190.068 179.619 190.626 179.619C190.989 179.619 191.319 179.568 191.617 179.466C191.915 179.359 192.173 179.202 192.391 178.993C192.608 178.784 192.774 178.526 192.889 178.219L194.698 178.545C194.553 179.078 194.293 179.545 193.918 179.945C193.548 180.342 193.081 180.651 192.518 180.872C191.96 181.089 191.323 181.198 190.607 181.198ZM188.159 174.052C187.972 174.418 187.867 174.812 187.844 175.234H192.947C192.947 174.732 192.844 174.286 192.64 173.898C192.435 173.506 192.148 173.197 191.777 172.972C191.41 172.746 190.98 172.633 190.486 172.633C189.949 172.633 189.48 172.765 189.079 173.029C188.683 173.289 188.376 173.63 188.159 174.052Z" fill="white"/>
<path d="M202.565 173.886L204.297 173.579C204.101 172.812 203.699 172.2 203.089 171.744C202.48 171.284 201.645 171.054 200.584 171.054C199.846 171.054 199.192 171.178 198.621 171.425C198.05 171.668 197.603 172.006 197.279 172.441C196.955 172.876 196.793 173.383 196.793 173.962C196.793 174.661 197.01 175.239 197.445 175.695C197.884 176.151 198.562 176.483 199.478 176.692L201.14 177.056C201.608 177.163 201.956 177.32 202.182 177.529C202.412 177.738 202.527 177.996 202.527 178.303C202.527 178.682 202.339 179.004 201.964 179.268C201.589 179.528 201.089 179.658 200.462 179.658C199.887 179.658 199.42 179.536 199.062 179.293C198.704 179.046 198.468 178.682 198.353 178.2L196.505 178.482C196.663 179.351 197.089 180.022 197.784 180.495C198.478 180.964 199.375 181.198 200.475 181.198C201.267 181.198 201.964 181.068 202.565 180.808C203.17 180.548 203.641 180.19 203.978 179.734C204.319 179.274 204.489 178.75 204.489 178.162C204.489 177.467 204.267 176.903 203.824 176.468C203.381 176.033 202.708 175.712 201.804 175.503L200.245 175.145C199.704 175.017 199.312 174.853 199.069 174.653C198.826 174.452 198.704 174.188 198.704 173.86C198.704 173.481 198.885 173.172 199.248 172.933C199.61 172.69 200.062 172.569 200.603 172.569C200.999 172.569 201.329 172.633 201.593 172.761C201.858 172.888 202.066 173.053 202.22 173.253C202.378 173.453 202.493 173.664 202.565 173.886Z" fill="white"/>
<path d="M206.59 181V171.182H208.502V181H206.59Z" fill="white"/>
<path d="M206.699 169.335C206.938 169.556 207.223 169.667 207.556 169.667C207.888 169.667 208.171 169.556 208.406 169.335C208.644 169.109 208.764 168.84 208.764 168.529C208.764 168.214 208.644 167.945 208.406 167.724C208.171 167.498 207.888 167.385 207.556 167.385C207.223 167.385 206.938 167.498 206.699 167.724C206.465 167.945 206.348 168.214 206.348 168.529C206.348 168.84 206.465 169.109 206.699 169.335Z" fill="white"/>
<path fill-rule="evenodd" clip-rule="evenodd" d="M215.189 184.886C214.41 184.886 213.738 184.784 213.176 184.58C212.618 184.375 212.162 184.104 211.808 183.768C211.454 183.431 211.19 183.062 211.015 182.662L212.658 181.984C212.773 182.172 212.927 182.37 213.118 182.579C213.314 182.792 213.579 182.973 213.911 183.122C214.248 183.271 214.68 183.346 215.209 183.346C215.933 183.346 216.532 183.169 217.005 182.815C217.478 182.466 217.714 181.908 217.714 181.141V179.21H217.593C217.478 179.419 217.312 179.651 217.094 179.907C216.881 180.163 216.587 180.384 216.212 180.572C215.837 180.759 215.349 180.853 214.748 180.853C213.973 180.853 213.274 180.672 212.652 180.31C212.034 179.943 211.544 179.404 211.182 178.692C210.824 177.977 210.645 177.097 210.645 176.053C210.645 175.009 210.821 174.114 211.175 173.368C211.533 172.622 212.023 172.051 212.645 171.655C213.267 171.254 213.973 171.054 214.761 171.054C215.37 171.054 215.863 171.156 216.238 171.361C216.613 171.561 216.905 171.795 217.113 172.064C217.326 172.332 217.49 172.569 217.606 172.773H217.746V171.182H219.619V181.217C219.619 182.061 219.423 182.754 219.031 183.295C218.639 183.836 218.108 184.237 217.439 184.496C216.775 184.756 216.025 184.886 215.189 184.886ZM215.17 179.268C215.72 179.268 216.184 179.14 216.564 178.884C216.947 178.624 217.237 178.254 217.433 177.772C217.633 177.286 217.733 176.705 217.733 176.027C217.733 175.366 217.635 174.785 217.439 174.282C217.243 173.779 216.956 173.387 216.576 173.106C216.197 172.82 215.728 172.678 215.17 172.678C214.595 172.678 214.115 172.827 213.732 173.125C213.348 173.419 213.059 173.82 212.863 174.327C212.671 174.834 212.575 175.401 212.575 176.027C212.575 176.67 212.673 177.235 212.869 177.721C213.065 178.207 213.355 178.586 213.738 178.859C214.126 179.131 214.603 179.268 215.17 179.268Z" fill="white"/>
<path d="M224.093 181V175.17C224.093 174.651 224.191 174.207 224.388 173.841C224.588 173.47 224.858 173.189 225.199 172.997C225.544 172.805 225.939 172.71 226.382 172.71C227.03 172.71 227.539 172.912 227.91 173.317C228.28 173.717 228.466 174.273 228.466 174.985V181H230.377V174.755C230.377 173.945 230.238 173.266 229.961 172.716C229.684 172.166 229.294 171.753 228.792 171.476C228.289 171.195 227.703 171.054 227.034 171.054C226.297 171.054 225.685 171.212 225.199 171.527C224.718 171.842 224.364 172.26 224.138 172.78H224.017V171.182H222.182V181H224.093Z" fill="white"/>
<path d="M146.878 193.579L145.146 193.886C145.074 193.664 144.959 193.453 144.801 193.253C144.648 193.053 144.439 192.888 144.175 192.761C143.91 192.633 143.58 192.569 143.184 192.569C142.643 192.569 142.191 192.69 141.829 192.933C141.466 193.172 141.285 193.481 141.285 193.86C141.285 194.188 141.407 194.452 141.65 194.653C141.893 194.853 142.285 195.017 142.826 195.145L144.385 195.503C145.289 195.712 145.962 196.033 146.405 196.468C146.849 196.903 147.07 197.467 147.07 198.162C147.07 198.75 146.9 199.274 146.559 199.734C146.222 200.19 145.751 200.548 145.146 200.808C144.545 201.068 143.849 201.198 143.056 201.198C141.956 201.198 141.059 200.964 140.365 200.495C139.67 200.022 139.244 199.351 139.086 198.482L140.934 198.2C141.049 198.682 141.285 199.046 141.643 199.293C142.001 199.536 142.468 199.658 143.043 199.658C143.67 199.658 144.17 199.528 144.545 199.268C144.92 199.004 145.108 198.682 145.108 198.303C145.108 197.996 144.993 197.738 144.763 197.529C144.537 197.32 144.189 197.163 143.721 197.056L142.059 196.692C141.143 196.483 140.465 196.151 140.026 195.695C139.591 195.239 139.374 194.661 139.374 193.962C139.374 193.383 139.536 192.876 139.86 192.441C140.184 192.006 140.631 191.668 141.202 191.425C141.773 191.178 142.427 191.054 143.165 191.054C144.226 191.054 145.061 191.284 145.67 191.744C146.28 192.2 146.682 192.812 146.878 193.579Z" fill="white"/>
<path fill-rule="evenodd" clip-rule="evenodd" d="M150.904 200.578C151.603 200.991 152.436 201.198 153.403 201.198C154.119 201.198 154.756 201.089 155.314 200.872C155.877 200.651 156.343 200.342 156.714 199.945C157.089 199.545 157.349 199.078 157.494 198.545L155.685 198.219C155.57 198.526 155.404 198.784 155.186 198.993C154.969 199.202 154.711 199.359 154.413 199.466C154.115 199.568 153.784 199.619 153.422 199.619C152.864 199.619 152.376 199.5 151.958 199.261C151.541 199.018 151.215 198.667 150.98 198.207C150.766 197.778 150.652 197.265 150.637 196.666H157.615V195.989C157.615 195.098 157.496 194.342 157.257 193.719C157.019 193.093 156.693 192.584 156.279 192.192C155.866 191.8 155.4 191.512 154.88 191.329C154.36 191.146 153.823 191.054 153.269 191.054C152.357 191.054 151.56 191.269 150.878 191.7C150.201 192.13 149.672 192.729 149.293 193.496C148.918 194.263 148.73 195.149 148.73 196.155C148.73 197.173 148.918 198.062 149.293 198.82C149.672 199.575 150.209 200.161 150.904 200.578ZM150.64 195.234C150.663 194.812 150.768 194.418 150.955 194.052C151.172 193.63 151.479 193.289 151.875 193.029C152.276 192.765 152.745 192.633 153.282 192.633C153.776 192.633 154.206 192.746 154.573 192.972C154.944 193.197 155.231 193.506 155.436 193.898C155.64 194.286 155.743 194.732 155.743 195.234H150.64Z" fill="white"/>
<path d="M159.736 201V191.182H161.583V192.741H161.686C161.865 192.213 162.18 191.798 162.632 191.495C163.088 191.188 163.603 191.035 164.178 191.035C164.298 191.035 164.438 191.039 164.6 191.048C164.767 191.056 164.896 191.067 164.99 191.08V192.908C164.914 192.886 164.777 192.863 164.581 192.837C164.385 192.808 164.189 192.793 163.993 192.793C163.541 192.793 163.139 192.888 162.785 193.08C162.436 193.268 162.159 193.53 161.954 193.866C161.749 194.199 161.647 194.578 161.647 195.004V201H159.736Z" fill="white"/>
<path d="M171.782 201L175.342 191.182H173.29L170.81 198.737H170.708L168.221 191.182H166.17L169.736 201H171.782Z" fill="white"/>
<path d="M177.138 201V191.182H179.05V201H177.138Z" fill="white"/>
<path d="M177.247 189.335C177.486 189.556 177.771 189.667 178.104 189.667C178.436 189.667 178.719 189.556 178.954 189.335C179.192 189.109 179.312 188.84 179.312 188.529C179.312 188.214 179.192 187.945 178.954 187.724C178.719 187.498 178.436 187.385 178.104 187.385C177.771 187.385 177.486 187.498 177.247 187.724C177.013 187.945 176.895 188.214 176.895 188.529C176.895 188.84 177.013 189.109 177.247 189.335Z" fill="white"/>
<path d="M185.756 201.198C184.806 201.198 183.988 200.983 183.302 200.553C182.62 200.118 182.096 199.519 181.729 198.756C181.363 197.994 181.18 197.12 181.18 196.136C181.18 195.138 181.367 194.259 181.742 193.496C182.117 192.729 182.646 192.13 183.327 191.7C184.009 191.269 184.812 191.054 185.737 191.054C186.483 191.054 187.148 191.192 187.732 191.469C188.315 191.742 188.786 192.126 189.144 192.62C189.506 193.114 189.722 193.692 189.79 194.352H187.93C187.827 193.892 187.593 193.496 187.227 193.163C186.864 192.831 186.379 192.665 185.769 192.665C185.237 192.665 184.77 192.805 184.369 193.087C183.973 193.364 183.664 193.76 183.442 194.276C183.221 194.787 183.11 195.392 183.11 196.091C183.11 196.807 183.219 197.425 183.436 197.945C183.653 198.464 183.96 198.867 184.357 199.153C184.757 199.438 185.228 199.581 185.769 199.581C186.131 199.581 186.46 199.515 186.754 199.383C187.052 199.246 187.301 199.053 187.501 198.801C187.706 198.55 187.849 198.247 187.93 197.893H189.79C189.722 198.528 189.515 199.095 189.17 199.594C188.825 200.092 188.362 200.484 187.783 200.77C187.207 201.055 186.532 201.198 185.756 201.198Z" fill="white"/>
<path fill-rule="evenodd" clip-rule="evenodd" d="M193.566 200.578C194.265 200.991 195.098 201.198 196.065 201.198C196.781 201.198 197.418 201.089 197.976 200.872C198.539 200.651 199.006 200.342 199.376 199.945C199.751 199.545 200.011 199.078 200.156 198.545L198.347 198.219C198.232 198.526 198.066 198.784 197.849 198.993C197.631 199.202 197.373 199.359 197.075 199.466C196.777 199.568 196.447 199.619 196.084 199.619C195.526 199.619 195.038 199.5 194.621 199.261C194.203 199.018 193.877 198.667 193.643 198.207C193.428 197.778 193.314 197.265 193.299 196.666H200.278V195.989C200.278 195.098 200.158 194.342 199.92 193.719C199.681 193.093 199.355 192.584 198.942 192.192C198.528 191.8 198.062 191.512 197.542 191.329C197.022 191.146 196.485 191.054 195.931 191.054C195.019 191.054 194.222 191.269 193.54 191.7C192.863 192.13 192.334 192.729 191.955 193.496C191.58 194.263 191.393 195.149 191.393 196.155C191.393 197.173 191.58 198.062 191.955 198.82C192.334 199.575 192.871 200.161 193.566 200.578ZM193.302 195.234C193.325 194.812 193.43 194.418 193.617 194.052C193.834 193.63 194.141 193.289 194.537 193.029C194.938 192.765 195.407 192.633 195.944 192.633C196.438 192.633 196.868 192.746 197.235 192.972C197.606 193.197 197.893 193.506 198.098 193.898C198.302 194.286 198.405 194.732 198.405 195.234H193.302Z" fill="white"/>
<path d="M209.755 193.579L208.023 193.886C207.951 193.664 207.836 193.453 207.678 193.253C207.525 193.053 207.316 192.888 207.051 192.761C206.787 192.633 206.457 192.569 206.061 192.569C205.52 192.569 205.068 192.69 204.706 192.933C204.343 193.172 204.162 193.481 204.162 193.86C204.162 194.188 204.284 194.452 204.527 194.653C204.77 194.853 205.162 195.017 205.703 195.145L207.262 195.503C208.166 195.712 208.839 196.033 209.282 196.468C209.725 196.903 209.947 197.467 209.947 198.162C209.947 198.75 209.777 199.274 209.436 199.734C209.099 200.19 208.628 200.548 208.023 200.808C207.422 201.068 206.725 201.198 205.933 201.198C204.833 201.198 203.936 200.964 203.242 200.495C202.547 200.022 202.121 199.351 201.963 198.482L203.811 198.2C203.926 198.682 204.162 199.046 204.52 199.293C204.878 199.536 205.345 199.658 205.92 199.658C206.547 199.658 207.047 199.528 207.422 199.268C207.797 199.004 207.985 198.682 207.985 198.303C207.985 197.996 207.87 197.738 207.64 197.529C207.414 197.32 207.066 197.163 206.598 197.056L204.936 196.692C204.02 196.483 203.342 196.151 202.903 195.695C202.468 195.239 202.251 194.661 202.251 193.962C202.251 193.383 202.413 192.876 202.737 192.441C203.061 192.006 203.508 191.668 204.079 191.425C204.65 191.178 205.304 191.054 206.042 191.054C207.103 191.054 207.938 191.284 208.547 191.744C209.157 192.2 209.559 192.812 209.755 193.579Z" fill="white"/>
<path d="M154.06 290V288.227L158.202 284.392C158.555 284.051 158.85 283.744 159.089 283.472C159.331 283.199 159.515 282.932 159.64 282.67C159.765 282.405 159.827 282.119 159.827 281.812C159.827 281.472 159.75 281.178 159.594 280.932C159.439 280.682 159.227 280.491 158.958 280.358C158.689 280.222 158.384 280.153 158.043 280.153C157.687 280.153 157.377 280.225 157.112 280.369C156.846 280.513 156.642 280.72 156.498 280.989C156.354 281.258 156.282 281.578 156.282 281.949H153.947C153.947 281.188 154.119 280.527 154.464 279.966C154.808 279.405 155.291 278.972 155.913 278.665C156.534 278.358 157.25 278.205 158.06 278.205C158.894 278.205 159.619 278.352 160.237 278.648C160.858 278.939 161.341 279.345 161.685 279.864C162.03 280.383 162.202 280.977 162.202 281.648C162.202 282.087 162.115 282.521 161.941 282.949C161.771 283.377 161.466 283.852 161.026 284.375C160.587 284.894 159.968 285.517 159.168 286.244L157.469 287.909V287.989H162.356V290H154.06Z" fill="white"/>
<path fill-rule="evenodd" clip-rule="evenodd" d="M166.178 289.534C166.883 290.011 167.724 290.252 168.701 290.256C169.678 290.256 170.517 290.017 171.218 289.54C171.919 289.062 172.457 288.371 172.832 287.466C173.21 286.561 173.4 285.47 173.4 284.193C173.404 282.924 173.216 281.845 172.837 280.955C172.459 280.061 171.917 279.379 171.212 278.909C170.512 278.439 169.674 278.205 168.701 278.205C167.728 278.205 166.888 278.439 166.184 278.909C165.483 279.375 164.943 280.055 164.565 280.949C164.19 281.843 164.002 282.924 164.002 284.193C163.998 285.466 164.184 286.555 164.559 287.46C164.938 288.366 165.478 289.057 166.178 289.534ZM170.298 287.21C169.9 287.881 169.368 288.216 168.701 288.216C168.258 288.216 167.871 288.068 167.542 287.773C167.212 287.473 166.957 287.027 166.775 286.432C166.597 285.833 166.508 285.087 166.508 284.193C166.512 282.871 166.712 281.879 167.11 281.216C167.508 280.553 168.038 280.222 168.701 280.222C169.144 280.222 169.529 280.369 169.854 280.665C170.184 280.96 170.438 281.402 170.616 281.989C170.798 282.576 170.888 283.311 170.888 284.193C170.892 285.534 170.695 286.54 170.298 287.21Z" fill="white"/>
<path d="M175.154 290V288.227L179.296 284.392C179.648 284.051 179.944 283.744 180.183 283.472C180.425 283.199 180.609 282.932 180.734 282.67C180.859 282.405 180.921 282.119 180.921 281.812C180.921 281.472 180.844 281.178 180.688 280.932C180.533 280.682 180.321 280.491 180.052 280.358C179.783 280.222 179.478 280.153 179.137 280.153C178.781 280.153 178.47 280.225 178.205 280.369C177.94 280.513 177.736 280.72 177.592 280.989C177.448 281.258 177.376 281.578 177.376 281.949H175.04C175.04 281.188 175.213 280.527 175.558 279.966C175.902 279.405 176.385 278.972 177.006 278.665C177.628 278.358 178.344 278.205 179.154 278.205C179.987 278.205 180.713 278.352 181.33 278.648C181.951 278.939 182.434 279.345 182.779 279.864C183.124 280.383 183.296 280.977 183.296 281.648C183.296 282.087 183.209 282.521 183.035 282.949C182.864 283.377 182.559 283.852 182.12 284.375C181.681 284.894 181.061 285.517 180.262 286.244L178.563 287.909V287.989H183.45V290H175.154Z" fill="white"/>
<path fill-rule="evenodd" clip-rule="evenodd" d="M184.806 286.017V287.955H190.391V290H192.744V287.955H194.187V285.983H192.744V278.364H189.664L184.806 286.017ZM190.437 281.045H190.346L187.283 285.892V285.983H190.437V281.045Z" fill="white"/>
<path d="M205.771 242.372H207.859C208.446 242.372 208.934 242.292 209.322 242.131C209.711 241.97 209.999 241.728 210.189 241.406C210.383 241.084 210.48 240.684 210.48 240.206C210.48 239.723 210.383 239.316 210.189 238.984C209.999 238.653 209.708 238.402 209.315 238.232C208.927 238.056 208.437 237.969 207.845 237.969H205.771V242.372Z" fill="white"/>
<path fill-rule="evenodd" clip-rule="evenodd" d="M174.114 21L65.5991 73.293V229.533H52L57.1543 247.666L52 265.8H65.5991V274.064L174.682 327L283.2 274.064L283.201 265.8H296.988L291.836 247.666L296.991 229.533H283.201L283.2 73.293L174.114 21ZM72.3989 79.2588L174.207 30.0654L276.547 79.2559V224.998H72.3989V79.2588ZM72.3989 261.266H276.547V268.134L174.738 317.935L72.3989 268.134V261.266ZM133.82 235.455L137.982 250H140.979L143.742 240.49H143.855L146.625 250H149.622L153.784 235.455H150.425L148.017 245.582H147.889L145.24 235.455H142.364L139.708 245.561H139.587L137.179 235.455H133.82ZM158.506 250V235.455H155.43V250H158.506ZM173.202 250V235.455H170.141V244.602H170.013L163.735 235.455H161.036V250H164.111V240.845H164.218L170.546 250H173.202ZM187.909 250V235.455H184.848V244.602H184.72L178.442 235.455H175.743V250H178.818V240.845H178.925L185.253 250H187.909ZM190.45 235.455V250H200.279V247.464H193.525V243.991H199.747V241.456H193.525V237.99H200.251V235.455H190.45ZM202.696 235.455V250H205.771V244.844H208.016L210.771 250H214.166L211.08 244.349C211.124 244.33 211.168 244.31 211.211 244.29C212.002 243.92 212.606 243.39 213.023 242.699C213.439 242.003 213.648 241.172 213.648 240.206C213.648 239.245 213.442 238.409 213.03 237.699C212.622 236.984 212.028 236.432 211.247 236.044C210.47 235.651 209.533 235.455 208.434 235.455H202.696Z" fill="white"/>
</svg>
