<svg viewBox="0 0 348 348" fill="none" xmlns="http://www.w3.org/2000/svg">
<path d="M186.069 262.722C186.322 262.134 186.67 261.453 187.111 260.678C187.552 259.889 188.046 259.081 188.594 258.252C189.156 257.424 189.75 256.609 190.378 255.807C191.02 255.005 191.661 254.283 192.303 253.642H194.087V262.462H195.731V263.985H194.087V267.533H192.283V263.985H186.069V262.722ZM192.283 255.847C191.882 256.274 191.474 256.756 191.06 257.29C190.659 257.811 190.265 258.359 189.877 258.934C189.49 259.509 189.122 260.097 188.775 260.698C188.441 261.299 188.14 261.887 187.873 262.462H192.283V255.847Z" fill="white"/>
<path d="M183.313 257.19C183.313 257.671 183.213 258.139 183.013 258.593C182.825 259.034 182.572 259.475 182.251 259.916C181.93 260.344 181.569 260.771 181.168 261.199C180.767 261.613 180.367 262.021 179.966 262.422C179.738 262.649 179.471 262.916 179.164 263.224C178.87 263.531 178.589 263.852 178.322 264.186C178.055 264.52 177.827 264.841 177.64 265.148C177.467 265.455 177.38 265.723 177.38 265.95H183.774V267.533H175.355C175.342 267.453 175.335 267.373 175.335 267.293C175.335 267.213 175.335 267.139 175.335 267.072C175.335 266.444 175.435 265.863 175.636 265.328C175.85 264.78 176.124 264.266 176.458 263.785C176.792 263.304 177.166 262.849 177.58 262.422C177.994 261.994 178.402 261.58 178.803 261.179C179.137 260.858 179.451 260.544 179.745 260.237C180.053 259.916 180.32 259.602 180.547 259.295C180.788 258.974 180.975 258.647 181.108 258.312C181.255 257.978 181.329 257.624 181.329 257.25C181.329 256.849 181.262 256.508 181.128 256.228C181.008 255.947 180.841 255.713 180.627 255.526C180.413 255.339 180.159 255.205 179.865 255.125C179.585 255.032 179.284 254.985 178.963 254.985C178.576 254.985 178.222 255.038 177.901 255.145C177.58 255.252 177.293 255.379 177.039 255.526C176.785 255.66 176.571 255.807 176.398 255.967C176.224 256.114 176.09 256.228 175.997 256.308L175.075 254.985C175.195 254.851 175.375 254.691 175.616 254.504C175.856 254.303 176.144 254.116 176.478 253.943C176.812 253.769 177.186 253.622 177.6 253.501C178.015 253.381 178.462 253.321 178.943 253.321C180.4 253.321 181.489 253.662 182.211 254.343C182.946 255.012 183.313 255.96 183.313 257.19Z" fill="white"/>
<path d="M163.639 260.578C163.639 258.252 164.047 256.462 164.862 255.205C165.691 253.949 166.833 253.321 168.29 253.321C169.747 253.321 170.883 253.949 171.698 255.205C172.526 256.462 172.941 258.252 172.941 260.578C172.941 262.903 172.526 264.694 171.698 265.95C170.883 267.206 169.747 267.834 168.29 267.834C166.833 267.834 165.691 267.206 164.862 265.95C164.047 264.694 163.639 262.903 163.639 260.578ZM170.976 260.578C170.976 259.816 170.929 259.094 170.836 258.413C170.756 257.731 170.609 257.136 170.395 256.629C170.194 256.121 169.92 255.72 169.573 255.426C169.225 255.119 168.798 254.965 168.29 254.965C167.782 254.965 167.355 255.119 167.007 255.426C166.66 255.72 166.379 256.121 166.165 256.629C165.965 257.136 165.818 257.731 165.724 258.413C165.644 259.094 165.604 259.816 165.604 260.578C165.604 261.339 165.644 262.061 165.724 262.743C165.818 263.424 165.965 264.019 166.165 264.527C166.379 265.034 166.66 265.442 167.007 265.749C167.355 266.043 167.782 266.19 168.29 266.19C168.798 266.19 169.225 266.043 169.573 265.749C169.92 265.442 170.194 265.034 170.395 264.527C170.609 264.019 170.756 263.424 170.836 262.743C170.929 262.061 170.976 261.339 170.976 260.578Z" fill="white"/>
<path d="M160.684 257.19C160.684 257.671 160.583 258.139 160.383 258.593C160.196 259.034 159.942 259.475 159.621 259.916C159.3 260.344 158.94 260.771 158.539 261.199C158.138 261.613 157.737 262.021 157.336 262.422C157.109 262.649 156.842 262.916 156.534 263.224C156.24 263.531 155.96 263.852 155.692 264.186C155.425 264.52 155.198 264.841 155.011 265.148C154.837 265.455 154.75 265.723 154.75 265.95H161.145V267.533H152.726C152.712 267.453 152.705 267.373 152.705 267.293C152.705 267.213 152.705 267.139 152.705 267.072C152.705 266.444 152.806 265.863 153.006 265.328C153.22 264.78 153.494 264.266 153.828 263.785C154.162 263.304 154.536 262.849 154.951 262.422C155.365 261.994 155.772 261.58 156.173 261.179C156.507 260.858 156.822 260.544 157.116 260.237C157.423 259.916 157.69 259.602 157.917 259.295C158.158 258.974 158.345 258.647 158.479 258.312C158.626 257.978 158.699 257.624 158.699 257.25C158.699 256.849 158.632 256.508 158.499 256.228C158.378 255.947 158.211 255.713 157.998 255.526C157.784 255.339 157.53 255.205 157.236 255.125C156.955 255.032 156.654 254.985 156.334 254.985C155.946 254.985 155.592 255.038 155.271 255.145C154.951 255.252 154.663 255.379 154.409 255.526C154.155 255.66 153.942 255.807 153.768 255.967C153.594 256.114 153.461 256.228 153.367 256.308L152.445 254.985C152.565 254.851 152.746 254.691 152.986 254.504C153.227 254.303 153.514 254.116 153.848 253.943C154.182 253.769 154.556 253.622 154.971 253.501C155.385 253.381 155.833 253.321 156.314 253.321C157.77 253.321 158.859 253.662 159.581 254.343C160.316 255.012 160.684 255.96 160.684 257.19Z" fill="white"/>
<path d="M205.642 233.636H207.586V240.131C207.426 240.185 207.192 240.245 206.884 240.311C206.59 240.378 206.243 240.445 205.842 240.512C205.454 240.579 205.027 240.632 204.559 240.672C204.091 240.726 203.617 240.753 203.136 240.753C202.16 240.753 201.272 240.592 200.47 240.271C199.668 239.951 198.98 239.483 198.405 238.868C197.83 238.253 197.383 237.498 197.062 236.603C196.755 235.708 196.601 234.679 196.601 233.516C196.601 232.353 196.775 231.324 197.122 230.429C197.483 229.52 197.964 228.759 198.565 228.144C199.167 227.529 199.868 227.061 200.67 226.741C201.485 226.42 202.354 226.26 203.276 226.26C203.904 226.26 204.459 226.3 204.94 226.38C205.434 226.46 205.855 226.554 206.203 226.66C206.55 226.767 206.831 226.874 207.045 226.981C207.272 227.088 207.426 227.168 207.506 227.222L206.884 228.845C206.497 228.591 205.982 228.384 205.341 228.224C204.699 228.05 204.045 227.963 203.376 227.963C202.668 227.963 202.02 228.09 201.432 228.344C200.857 228.598 200.363 228.966 199.949 229.447C199.548 229.928 199.234 230.516 199.006 231.211C198.779 231.892 198.666 232.661 198.666 233.516C198.666 234.345 198.759 235.1 198.946 235.781C199.147 236.463 199.441 237.051 199.828 237.545C200.229 238.026 200.717 238.4 201.292 238.668C201.88 238.935 202.568 239.069 203.356 239.069C203.918 239.069 204.392 239.042 204.78 238.988C205.181 238.922 205.468 238.862 205.642 238.808V233.636Z" fill="white"/>
<path d="M192.1 240.472C191.806 239.977 191.465 239.423 191.078 238.808C190.703 238.193 190.296 237.559 189.855 236.904C189.414 236.236 188.953 235.561 188.472 234.879C188.004 234.198 187.536 233.543 187.069 232.915C186.601 232.273 186.146 231.672 185.705 231.111C185.264 230.549 184.857 230.055 184.483 229.627V240.472H182.578V226.58H184.122C184.75 227.248 185.418 228.03 186.126 228.926C186.848 229.808 187.556 230.723 188.251 231.672C188.959 232.607 189.621 233.529 190.236 234.438C190.864 235.347 191.392 236.155 191.819 236.864V226.58H193.724V240.472H192.1Z" fill="white"/>
<path d="M177.195 226.58H179.139V240.472H177.195V226.58Z" fill="white"/>
<path d="M171.384 234.659C171.597 234.926 171.865 235.28 172.185 235.721C172.52 236.149 172.86 236.63 173.208 237.164C173.555 237.686 173.896 238.233 174.23 238.808C174.578 239.383 174.872 239.937 175.112 240.472H172.987C172.72 239.964 172.426 239.45 172.105 238.928C171.798 238.407 171.484 237.913 171.163 237.445C170.842 236.964 170.522 236.516 170.201 236.102C169.894 235.688 169.613 235.327 169.359 235.019C169.185 235.033 169.005 235.039 168.818 235.039C168.644 235.039 168.464 235.039 168.277 235.039H166.533V240.472H164.588V226.781C165.136 226.647 165.744 226.56 166.412 226.52C167.094 226.467 167.715 226.44 168.277 226.44C170.228 226.44 171.711 226.807 172.727 227.542C173.756 228.277 174.27 229.373 174.27 230.83C174.27 231.752 174.023 232.54 173.528 233.195C173.047 233.85 172.332 234.338 171.384 234.659ZM168.437 228.144C167.608 228.144 166.974 228.164 166.533 228.204V233.436H167.916C168.584 233.436 169.185 233.402 169.72 233.336C170.254 233.269 170.702 233.142 171.063 232.955C171.437 232.768 171.724 232.507 171.925 232.173C172.125 231.826 172.226 231.371 172.226 230.81C172.226 230.289 172.125 229.854 171.925 229.507C171.724 229.159 171.45 228.885 171.103 228.685C170.769 228.485 170.368 228.344 169.9 228.264C169.446 228.184 168.958 228.144 168.437 228.144Z" fill="white"/>
<path d="M156.081 226.44C158.032 226.44 159.529 226.814 160.571 227.562C161.627 228.298 162.155 229.4 162.155 230.87C162.155 231.672 162.008 232.36 161.714 232.935C161.433 233.496 161.019 233.957 160.471 234.318C159.936 234.665 159.281 234.919 158.506 235.08C157.731 235.24 156.856 235.32 155.88 235.32H154.337V240.472H152.392V226.781C152.94 226.647 153.548 226.56 154.217 226.52C154.898 226.467 155.52 226.44 156.081 226.44ZM156.241 228.144C155.413 228.144 154.778 228.164 154.337 228.204V233.656H155.8C156.468 233.656 157.07 233.616 157.604 233.536C158.139 233.443 158.587 233.296 158.947 233.095C159.322 232.881 159.609 232.594 159.809 232.233C160.01 231.872 160.11 231.411 160.11 230.85C160.11 230.315 160.003 229.874 159.789 229.527C159.589 229.179 159.308 228.906 158.947 228.705C158.6 228.491 158.192 228.344 157.725 228.264C157.257 228.184 156.762 228.144 156.241 228.144Z" fill="white"/>
<path d="M144.951 239.089C146.982 239.089 147.998 238.394 147.998 237.004C147.998 236.576 147.904 236.215 147.717 235.922C147.544 235.614 147.303 235.354 146.996 235.14C146.688 234.913 146.334 234.719 145.933 234.558C145.546 234.398 145.131 234.238 144.69 234.077C144.183 233.904 143.701 233.71 143.247 233.496C142.793 233.269 142.398 233.008 142.064 232.714C141.73 232.407 141.463 232.046 141.263 231.632C141.075 231.217 140.982 230.716 140.982 230.128C140.982 228.912 141.396 227.963 142.225 227.282C143.053 226.6 144.196 226.26 145.653 226.26C146.494 226.26 147.256 226.353 147.938 226.54C148.633 226.714 149.141 226.908 149.461 227.121L148.84 228.705C148.559 228.531 148.138 228.364 147.577 228.204C147.029 228.03 146.388 227.943 145.653 227.943C145.278 227.943 144.931 227.983 144.61 228.064C144.289 228.144 144.009 228.264 143.768 228.424C143.528 228.585 143.334 228.792 143.187 229.046C143.053 229.286 142.987 229.574 142.987 229.908C142.987 230.282 143.06 230.596 143.207 230.85C143.354 231.104 143.561 231.331 143.828 231.532C144.096 231.719 144.403 231.892 144.751 232.053C145.111 232.213 145.506 232.373 145.933 232.534C146.535 232.774 147.082 233.015 147.577 233.255C148.085 233.496 148.519 233.783 148.88 234.117C149.254 234.451 149.541 234.852 149.742 235.32C149.942 235.775 150.043 236.329 150.043 236.984C150.043 238.2 149.595 239.135 148.7 239.79C147.817 240.445 146.568 240.773 144.951 240.773C144.403 240.773 143.895 240.732 143.428 240.652C142.973 240.585 142.566 240.505 142.205 240.412C141.844 240.305 141.53 240.198 141.263 240.091C141.009 239.971 140.808 239.87 140.661 239.79L141.243 238.187C141.55 238.36 142.018 238.554 142.646 238.768C143.274 238.982 144.042 239.089 144.951 239.089Z" fill="white"/>
<path fill-rule="evenodd" clip-rule="evenodd" d="M148.327 85.1186H153.138V115.187H148.327V85.1186ZM169.976 105.595C169.976 110.197 166.107 110.564 164.956 110.564C162.08 110.564 161.557 107.872 161.557 106.248V94.7405H156.746V106.224C156.746 109.075 157.641 111.427 159.209 112.996C160.595 114.382 162.671 115.14 164.92 115.14C166.515 115.14 168.773 114.643 169.976 113.545V115.187H174.787V94.7405H169.976V105.595ZM179.598 87.524H184.409V94.7405H188.017V99.5514H184.409V115.187H179.598V99.5514H175.99V94.7405H179.598V87.524ZM203.168 109.073C202.12 110.015 200.737 110.537 199.219 110.537C195.873 110.537 193.416 108.08 193.416 104.706C193.416 101.333 195.795 98.9788 199.219 98.9788C200.711 98.9788 202.12 99.4756 203.194 100.417L203.924 101.045L207.168 97.8026L206.356 97.0701C204.448 95.3465 201.913 94.3795 199.218 94.3795C193.204 94.3795 188.837 98.7193 188.837 104.681C188.837 110.618 193.309 115.112 199.218 115.112C201.964 115.112 204.525 114.145 206.409 112.394L207.194 111.662L203.899 108.422L203.168 109.073ZM219.081 94.3795C221.33 94.3795 222.954 95.1375 224.34 96.5229C225.909 98.0926 226.505 100.445 226.505 103.296V115.187H221.694V103.143C221.696 101.512 221.699 98.9558 218.897 98.9558C217.746 98.9558 214.477 99.3218 214.477 103.923V115.187H209.666V85.1186H214.477V95.9732C215.68 94.8765 217.486 94.3795 219.081 94.3795ZM199.06 101.281C199.983 101.281 200.868 101.647 201.52 102.3C202.172 102.952 202.538 103.837 202.538 104.759C202.538 105.682 202.172 106.566 201.52 107.219C200.868 107.871 199.983 108.238 199.06 108.238C198.138 108.238 197.253 107.871 196.601 107.219C195.948 106.566 195.582 105.682 195.582 104.759C195.582 103.837 195.948 102.952 196.601 102.3C197.253 101.647 198.138 101.281 199.06 101.281ZM141.591 107.635C139.762 109.517 137.277 110.537 134.662 110.537C129.303 110.537 125.406 106.328 125.406 100.55C125.406 94.7451 129.303 90.5356 134.662 90.5356C137.252 90.5356 139.709 91.5542 141.566 93.4114L142.297 94.1439L145.513 90.9276L144.807 90.1952C142.141 87.4495 138.533 85.9604 134.662 85.9604C126.766 85.9604 120.831 92.2352 120.831 100.575C120.831 108.889 126.793 115.139 134.662 115.139C138.559 115.139 142.168 113.623 144.834 110.878L145.54 110.145L142.35 106.877L141.591 107.635Z" fill="white"/>
<path d="M216.581 162.535L219.488 177.536H213.558L216.465 162.535H216.581Z" fill="white"/>
<path d="M185.296 172.826V186.083H187.855C189.056 186.083 189.986 185.909 190.646 185.56C191.343 185.211 191.867 184.727 192.215 184.106C192.564 183.486 192.778 182.75 192.855 181.897C192.932 181.044 192.972 180.114 192.972 179.106C192.972 178.06 192.913 177.149 192.796 176.373C192.681 175.598 192.448 174.939 192.1 174.396C191.712 173.854 191.188 173.466 190.53 173.234C189.87 172.962 188.998 172.826 187.913 172.826H185.296Z" fill="white"/>
<path d="M185.296 156.198V167.594H187.971C189.948 167.594 191.266 167.109 191.924 166.14C192.622 165.132 192.972 163.679 192.972 161.779C192.972 159.919 192.584 158.523 191.809 157.593C191.439 157.126 190.912 156.776 190.229 156.543C189.874 156.422 189.476 156.333 189.037 156.276C188.639 156.224 188.206 156.198 187.738 156.198H185.296Z" fill="white"/>
<path d="M157.284 185.444C156.509 184.746 156.121 183.68 156.121 182.246V160.384C156.121 158.95 156.509 157.903 157.284 157.244C157.638 156.94 158.019 156.702 158.426 156.53C158.952 156.308 159.522 156.197 160.133 156.197C161.218 156.197 162.149 156.546 162.924 157.244C163.738 157.903 164.144 158.95 164.144 160.384V182.246C164.144 183.68 163.738 184.746 162.924 185.444C162.149 186.102 161.218 186.432 160.133 186.432C159.048 186.432 158.097 186.102 157.284 185.444Z" fill="white"/>
<path fill-rule="evenodd" clip-rule="evenodd" d="M302.339 103.226L173.999 33L45.6599 103.226V244.774L173.999 315L302.339 244.774V103.226ZM57.6873 212.408V237.644L173.999 301.289L290.311 237.644V212.408H57.6873ZM290.311 130.221V110.355L173.999 46.7099L57.6873 110.355V130.221H290.311ZM235.257 192.014V150.616H241.188V186.083H252.933V192.014H235.257ZM214.08 150.616L204.836 192.014H210.766L212.51 183.118H220.593L222.337 192.014H228.268L219.023 150.616H214.08ZM179.365 192.014V150.616H188.029C189.929 150.616 191.537 150.906 192.855 151.488C194.212 152.069 195.317 152.844 196.169 153.814C197.022 154.783 197.623 155.907 197.971 157.186C198.359 158.426 198.553 159.725 198.553 161.081V162.593C198.553 163.101 198.533 163.574 198.493 164.011L198.464 164.29C198.417 164.71 198.349 165.094 198.262 165.442C198.18 165.853 198.071 166.237 197.935 166.593C197.882 166.73 197.825 166.864 197.765 166.993C197.685 167.161 197.599 167.323 197.506 167.477C196.848 168.563 195.839 169.493 194.483 170.268C195.879 170.927 196.905 171.896 197.564 173.175C198.224 174.455 198.553 176.199 198.553 178.408V180.734C198.553 184.378 197.662 187.169 195.879 189.107C194.134 191.045 191.324 192.014 187.447 192.014H179.365ZM151.063 155.965C150.481 157.244 150.191 158.717 150.191 160.384V182.246C150.191 182.984 150.243 183.677 150.347 184.324C150.448 184.955 150.598 185.542 150.799 186.087C150.879 186.306 150.967 186.518 151.063 186.723C151.644 187.963 152.419 188.99 153.388 189.805C153.825 190.205 154.288 190.559 154.776 190.865C155.327 191.211 155.912 191.497 156.528 191.723C157.729 192.149 158.931 192.363 160.133 192.363C160.698 192.363 161.259 192.316 161.815 192.221C162.198 192.157 162.577 192.069 162.956 191.96C163.198 191.89 163.44 191.811 163.679 191.723C164.428 191.457 165.132 191.109 165.791 190.678C166.189 190.417 166.571 190.126 166.936 189.805C167.866 188.99 168.621 187.963 169.203 186.723C169.784 185.482 170.076 183.99 170.076 182.246V160.384C170.076 158.717 169.784 157.244 169.203 155.965C168.912 155.325 168.577 154.739 168.199 154.206C167.822 153.673 167.401 153.193 166.936 152.767C165.967 151.953 164.881 151.333 163.679 150.906C162.517 150.48 161.334 150.267 160.133 150.267C158.931 150.267 157.729 150.48 156.528 150.906C156.322 150.982 156.118 151.064 155.919 151.152C155.638 151.276 155.364 151.412 155.097 151.561C154.49 151.9 153.92 152.302 153.388 152.767C152.419 153.62 151.644 154.686 151.063 155.965ZM124.95 192.014V150.616H130.88V186.083H142.625V192.014H124.95ZM96.646 155.965C96.0646 157.244 95.7739 158.717 95.7739 160.384V182.246C95.7739 183.99 96.0646 185.482 96.646 186.723C97.2274 187.963 98.0026 188.99 98.9716 189.805C99.9025 190.657 100.949 191.297 102.112 191.723C103.314 192.149 104.515 192.363 105.716 192.363C106.918 192.363 108.101 192.149 109.264 191.723C110.465 191.297 111.55 190.657 112.519 189.805C113.45 188.99 114.206 187.963 114.787 186.723C115.368 185.482 115.659 183.99 115.659 182.246V169.222H105.019V174.455H109.729V182.246C109.729 183.68 109.321 184.746 108.507 185.444C107.732 186.102 106.802 186.432 105.716 186.432C104.631 186.432 103.682 186.102 102.867 185.444C102.092 184.746 101.704 183.68 101.704 182.246V160.384C101.704 158.95 102.092 157.903 102.867 157.244C103.682 156.546 104.631 156.197 105.716 156.197C106.802 156.197 107.732 156.546 108.507 157.244C109.039 157.675 109.398 158.271 109.582 159.034C109.68 159.438 109.729 159.887 109.729 160.384V162.477H115.659V160.384C115.659 158.717 115.368 157.244 114.787 155.965C114.206 154.686 113.45 153.62 112.519 152.767C111.55 151.953 110.465 151.333 109.264 150.906C108.101 150.48 106.918 150.267 105.716 150.267C104.515 150.267 103.314 150.48 102.112 150.906C100.949 151.333 99.9025 151.953 98.9716 152.767C98.4911 153.19 98.0574 153.666 97.6728 154.194C97.2813 154.73 96.9387 155.32 96.646 155.965Z" fill="white"/>
</svg>
