<svg viewBox="0 0 348 348" fill="none" xmlns="http://www.w3.org/2000/svg">
<path fill-rule="evenodd" clip-rule="evenodd" d="M198.079 188.548C198.079 201.846 187.298 212.626 174 212.626C160.702 212.626 149.921 201.846 149.921 188.548C149.921 175.249 160.702 164.469 174 164.469C187.298 164.469 198.079 175.249 198.079 188.548ZM174 172.495L177.604 183.587H189.267L179.832 190.442L183.435 201.534L174 194.679L164.565 201.534L168.168 190.442L158.733 183.587H170.396L174 172.495Z" fill="white"/>
<path fill-rule="evenodd" clip-rule="evenodd" d="M279.344 21H68.6558V261.787L174 327L279.344 261.787V21ZM74.6754 53.1049H273.325V176.508H209.115L219.148 188.548L209.115 200.587H273.325V258.434L174 319.92L74.6754 258.434V200.587H138.885L128.852 188.548L138.885 176.508H74.6754V53.1049ZM92.5297 186.067L90.7279 180.521L88.9261 186.067H83.0945L87.8121 189.495L86.0103 195.041L90.7279 191.613L95.4455 195.041L93.6437 189.495L98.3612 186.067H92.5297ZM112.8 180.521L114.602 186.067H120.433L115.716 189.495L117.518 195.041L112.8 191.613L108.082 195.041L109.884 189.495L105.167 186.067H110.998L112.8 180.521ZM235.2 180.521L237.002 186.067H242.833L238.116 189.495L239.918 195.041L235.2 191.613L230.482 195.041L232.284 189.495L227.567 186.067H233.398L235.2 180.521ZM259.074 186.067L257.272 180.521L255.47 186.067H249.639L254.356 189.495L252.555 195.041L257.272 191.613L261.99 195.041L260.188 189.495L264.906 186.067H259.074Z" fill="white"/>
<path fill-rule="evenodd" clip-rule="evenodd" d="M136.004 78.4093V81.1869C136.004 82.0276 135.907 82.7741 135.713 83.4267C135.525 84.0733 135.248 84.6171 134.884 85.058C134.525 85.4989 134.09 85.8339 133.579 86.0632C133.073 86.2866 132.5 86.3983 131.859 86.3983C131.23 86.3983 130.66 86.2866 130.149 86.0632C129.637 85.8339 129.199 85.4989 128.835 85.058C128.47 84.6171 128.188 84.0733 127.988 83.4267C127.794 82.7741 127.697 82.0276 127.697 81.1869V78.4093C127.697 77.5628 127.794 76.8133 127.988 76.1607C128.182 75.5082 128.459 74.9644 128.817 74.5294C129.182 74.0944 129.62 73.7652 130.131 73.5418C130.643 73.3126 131.213 73.1979 131.842 73.1979C132.488 73.1979 133.067 73.3126 133.579 73.5418C134.09 73.7652 134.525 74.0944 134.884 74.5294C135.248 74.9644 135.525 75.5082 135.713 76.1607C135.907 76.8133 136.004 77.5628 136.004 78.4093ZM134.999 81.1869V78.3917C134.999 77.6921 134.928 77.0778 134.787 76.5487C134.652 76.0196 134.452 75.5788 134.187 75.226C133.923 74.8733 133.594 74.6088 133.2 74.4324C132.806 74.2561 132.353 74.1679 131.842 74.1679C131.348 74.1679 130.904 74.2561 130.51 74.4324C130.122 74.6088 129.793 74.8763 129.523 75.2349C129.258 75.5876 129.055 76.0285 128.914 76.5575C128.773 77.0807 128.703 77.6921 128.703 78.3917V81.1869C128.703 81.8924 128.773 82.5096 128.914 83.0387C129.061 83.5619 129.27 84.0028 129.54 84.3614C129.811 84.7141 130.14 84.9786 130.528 85.155C130.922 85.3313 131.366 85.4195 131.859 85.4195C132.371 85.4195 132.821 85.3313 133.209 85.155C133.602 84.9786 133.932 84.7141 134.196 84.3614C134.461 84.0028 134.661 83.5619 134.796 83.0387C134.931 82.5096 134.999 81.8924 134.999 81.1869Z" fill="white"/>
<path d="M144.733 83.0387C144.733 82.6918 144.686 82.3832 144.592 82.1128C144.498 81.8365 144.343 81.5896 144.125 81.3721C143.908 81.1546 143.611 80.9518 143.234 80.7637C142.864 80.5697 142.406 80.3786 141.859 80.1905C141.318 80.0083 140.83 79.8084 140.395 79.5909C139.966 79.3734 139.596 79.1235 139.284 78.8414C138.978 78.5592 138.743 78.23 138.579 77.8538C138.42 77.4775 138.341 77.0366 138.341 76.5311C138.341 76.0314 138.429 75.5788 138.605 75.1731C138.787 74.7616 139.04 74.4089 139.363 74.115C139.687 73.8211 140.069 73.5947 140.51 73.436C140.951 73.2773 141.439 73.1979 141.973 73.1979C142.738 73.1979 143.396 73.3713 143.949 73.7182C144.507 74.0591 144.936 74.5206 145.236 75.1026C145.536 75.6787 145.686 76.3224 145.686 77.0337H144.681C144.681 76.4752 144.575 75.9785 144.363 75.5435C144.157 75.1085 143.852 74.7675 143.446 74.5206C143.046 74.2678 142.558 74.1414 141.982 74.1414C141.406 74.1414 140.921 74.2502 140.527 74.4677C140.139 74.6793 139.848 74.9644 139.654 75.323C139.46 75.6758 139.363 76.0667 139.363 76.4958C139.363 76.8015 139.41 77.0837 139.504 77.3423C139.599 77.601 139.754 77.8391 139.972 78.0566C140.195 78.2741 140.489 78.4798 140.854 78.6738C141.218 78.8619 141.659 79.0383 142.176 79.2029C142.758 79.391 143.27 79.5997 143.711 79.829C144.157 80.0524 144.531 80.3169 144.83 80.6226C145.136 80.9224 145.365 81.2692 145.518 81.6631C145.677 82.057 145.756 82.5096 145.756 83.021C145.756 83.5501 145.665 84.0233 145.483 84.4407C145.301 84.8522 145.042 85.2049 144.707 85.4989C144.372 85.7869 143.978 86.0074 143.525 86.1602C143.073 86.3131 142.573 86.3895 142.026 86.3895C141.55 86.3895 141.071 86.316 140.589 86.169C140.113 86.0221 139.678 85.7928 139.284 85.4812C138.896 85.1697 138.584 84.7699 138.349 84.282C138.114 83.7941 137.997 83.2121 137.997 82.5361H139.011C139.011 83.071 139.099 83.5266 139.275 83.9028C139.457 84.2732 139.693 84.573 139.981 84.8023C140.269 85.0256 140.592 85.1902 140.951 85.2961C141.309 85.396 141.671 85.446 142.035 85.446C142.588 85.446 143.064 85.346 143.464 85.1462C143.869 84.9463 144.181 84.667 144.398 84.3085C144.622 83.944 144.733 83.5207 144.733 83.0387Z" fill="white"/>
<path d="M191.08 86.2131V73.3743H190.057V86.2131H191.08Z" fill="white"/>
<path d="M114.85 73.3743H115.864L119.752 84.6612L123.659 73.3743H124.664H124.99V86.2131H123.985V80.6226L124.073 75.0547L120.149 86.2131H119.373L115.461 75.11L115.555 80.6226V86.2131H114.541V73.3743H114.85Z" fill="white"/>
<path d="M150.73 86.2131H151.735V74.3178H155.385V73.3743H147.088V74.3178H150.73V86.2131Z" fill="white"/>
<path fill-rule="evenodd" clip-rule="evenodd" d="M161.17 73.3743H164.688C165.447 73.3743 166.099 73.5212 166.646 73.8152C167.199 74.1032 167.622 74.5294 167.916 75.0938C168.215 75.6522 168.365 76.34 168.365 77.1572C168.365 77.7626 168.26 78.3123 168.048 78.8061C167.836 79.2999 167.542 79.7114 167.166 80.0406C166.871 80.3026 166.536 80.4995 166.159 80.6312L168.833 86.0985V86.2131H167.757L165.192 80.8695H162.184V86.2131H161.17V73.3743ZM166.249 79.538C165.879 79.7966 165.414 79.926 164.856 79.926H162.184V74.3178H164.688C165.27 74.3178 165.758 74.4354 166.152 74.6705C166.552 74.8998 166.852 75.226 167.052 75.6493C167.257 76.0726 167.36 76.5752 167.36 77.1572C167.36 77.6392 167.266 78.0919 167.078 78.5151C166.896 78.9325 166.619 79.2734 166.249 79.538Z" fill="white"/>
<path d="M186.856 73.3743L183.506 84.6083L183.47 84.7611L183.435 84.6083L180.102 73.3743H179L183.003 86.2131H183.947L187.959 73.3743H186.856Z" fill="white"/>
<path d="M201.018 85.2696V86.2131H194.29V73.3743H195.304H200.974V74.3178H195.304V79.1147H200.268V80.0671H195.304V85.2696H201.018Z" fill="white"/>
<path d="M208.337 73.3743L206.035 82.8006L205.651 84.6168L205.339 82.7124L203.416 73.3743H202.394L205.118 86.2131H206.079L208.54 76.196L208.789 75.0046L209.042 76.196L211.441 86.2131H212.402L215.127 73.3743H214.104L212.208 82.7036L211.878 84.6358L211.494 82.8006L209.227 73.3743H209.13H208.337Z" fill="white"/>
<path d="M223.945 85.2696V86.2131H217.216V73.3743H218.231H223.9V74.3178H218.231V79.1147H223.195V80.0671H218.231V85.2696H223.945Z" fill="white"/>
<path fill-rule="evenodd" clip-rule="evenodd" d="M229.156 86.2131C229.861 86.2131 230.496 86.1014 231.061 85.878C231.631 85.6547 232.119 85.3255 232.524 84.8904C232.93 84.4554 233.241 83.9205 233.459 83.2856C233.676 82.6448 233.785 81.91 233.785 81.0811V78.4975C233.785 77.6745 233.676 76.9455 233.459 76.3106C233.241 75.6699 232.93 75.132 232.524 74.697C232.119 74.262 231.637 73.9328 231.078 73.7094C230.526 73.486 229.908 73.3743 229.226 73.3743H226.696H226.211V86.2131H229.156ZM229.156 85.2696C229.926 85.2696 230.581 85.1079 231.122 84.7846C231.663 84.4613 232.075 83.9881 232.357 83.3649C232.645 82.7418 232.789 81.9805 232.789 81.0811V78.4798C232.789 77.7979 232.707 77.1983 232.542 76.681C232.383 76.1578 232.148 75.7228 231.837 75.3759C231.531 75.0232 231.158 74.7587 230.717 74.5823C230.276 74.406 229.779 74.3178 229.226 74.3178H227.225V85.2696H229.156Z" fill="white"/>
<path d="M177.845 85.2696V86.2131H171.117V73.3743H172.131H177.801V74.3178H172.131V79.1147H177.095V80.0671H172.131V85.2696H177.845Z" fill="white"/>
<path fill-rule="evenodd" clip-rule="evenodd" d="M195.883 115.854V113.127C195.883 112.021 195.761 111.051 195.517 110.217C195.272 109.377 194.92 108.676 194.46 108.116C194.008 107.555 193.455 107.135 192.801 106.855C192.154 106.567 191.425 106.424 190.613 106.424C189.83 106.424 189.115 106.567 188.468 106.855C187.822 107.135 187.265 107.555 186.798 108.116C186.331 108.676 185.971 109.377 185.72 110.217C185.468 111.051 185.343 112.021 185.343 113.127V115.854C185.343 116.96 185.468 117.934 185.72 118.775C185.979 119.608 186.341 120.305 186.808 120.865C187.276 121.426 187.832 121.846 188.479 122.126C189.126 122.407 189.841 122.547 190.624 122.547C191.436 122.547 192.165 122.407 192.812 122.126C193.458 121.846 194.011 121.426 194.471 120.865C194.931 120.305 195.28 119.608 195.517 118.775C195.761 117.934 195.883 116.96 195.883 115.854ZM193.922 113.106V115.854C193.922 116.723 193.85 117.471 193.706 118.096C193.57 118.714 193.361 119.224 193.081 119.626C192.808 120.021 192.463 120.316 192.046 120.51C191.637 120.697 191.163 120.79 190.624 120.79C190.121 120.79 189.665 120.697 189.255 120.51C188.845 120.316 188.493 120.021 188.199 119.626C187.911 119.224 187.689 118.714 187.531 118.096C187.38 117.471 187.304 116.723 187.304 115.854V113.106C187.304 112.243 187.38 111.503 187.531 110.886C187.689 110.26 187.911 109.75 188.199 109.355C188.486 108.96 188.831 108.669 189.233 108.482C189.643 108.288 190.103 108.191 190.613 108.191C191.152 108.191 191.626 108.288 192.036 108.482C192.445 108.669 192.79 108.96 193.07 109.355C193.35 109.75 193.562 110.26 193.706 110.886C193.85 111.503 193.922 112.243 193.922 113.106Z" fill="white"/>
<path d="M247.119 122.331H249.113V106.639H247.151V118.775L240.836 106.639H238.853V122.331H240.836V110.228L247.119 122.331Z" fill="white"/>
<path d="M129.246 143.426H131.229C131.179 144.504 130.96 145.435 130.572 146.218C130.191 146.994 129.634 147.59 128.901 148.007C128.176 148.424 127.267 148.632 126.175 148.632C125.392 148.632 124.684 148.477 124.052 148.169C123.419 147.86 122.877 147.418 122.424 146.843C121.979 146.261 121.638 145.564 121.4 144.752C121.163 143.94 121.045 143.028 121.045 142.015V139.115C121.045 138.11 121.163 137.201 121.4 136.389C121.645 135.577 121.993 134.884 122.446 134.309C122.906 133.727 123.462 133.281 124.116 132.972C124.777 132.663 125.525 132.509 126.358 132.509C127.378 132.509 128.24 132.714 128.945 133.123C129.656 133.526 130.202 134.118 130.583 134.902C130.971 135.678 131.186 136.63 131.229 137.758H129.246C129.196 136.931 129.067 136.259 128.858 135.742C128.65 135.218 128.341 134.833 127.932 134.589C127.529 134.338 127.005 134.212 126.358 134.212C125.783 134.212 125.284 134.327 124.86 134.557C124.443 134.787 124.098 135.117 123.825 135.548C123.559 135.972 123.358 136.486 123.222 137.089C123.092 137.686 123.028 138.354 123.028 139.094V142.015C123.028 142.704 123.082 143.347 123.189 143.944C123.304 144.54 123.484 145.065 123.728 145.517C123.98 145.963 124.307 146.311 124.709 146.563C125.111 146.814 125.6 146.94 126.175 146.94C126.9 146.94 127.475 146.821 127.899 146.584C128.323 146.347 128.636 145.97 128.837 145.453C129.045 144.935 129.182 144.26 129.246 143.426Z" fill="white"/>
<path fill-rule="evenodd" clip-rule="evenodd" d="M144.119 141.939V139.212C144.119 138.106 143.997 137.136 143.753 136.303C143.508 135.462 143.156 134.761 142.697 134.201C142.244 133.641 141.691 133.22 141.037 132.94C140.39 132.653 139.661 132.509 138.849 132.509C138.066 132.509 137.351 132.653 136.704 132.94C136.058 133.22 135.501 133.641 135.034 134.201C134.567 134.761 134.208 135.462 133.956 136.303C133.705 137.136 133.579 138.106 133.579 139.212V141.939C133.579 143.046 133.705 144.019 133.956 144.86C134.215 145.693 134.578 146.39 135.045 146.951C135.512 147.511 136.068 147.931 136.715 148.212C137.362 148.492 138.077 148.632 138.86 148.632C139.672 148.632 140.401 148.492 141.048 148.212C141.694 147.931 142.247 147.511 142.707 146.951C143.167 146.39 143.516 145.693 143.753 144.86C143.997 144.019 144.119 143.046 144.119 141.939ZM142.158 139.191V141.939C142.158 142.809 142.086 143.556 141.942 144.181C141.806 144.799 141.597 145.309 141.317 145.711C141.044 146.106 140.699 146.401 140.282 146.595C139.873 146.782 139.399 146.875 138.86 146.875C138.357 146.875 137.901 146.782 137.491 146.595C137.082 146.401 136.729 146.106 136.435 145.711C136.147 145.309 135.925 144.799 135.767 144.181C135.616 143.556 135.54 142.809 135.54 141.939V139.191C135.54 138.329 135.616 137.589 135.767 136.971C135.925 136.346 136.147 135.836 136.435 135.44C136.722 135.045 137.067 134.754 137.47 134.567C137.879 134.373 138.339 134.276 138.849 134.276C139.388 134.276 139.862 134.373 140.272 134.567C140.681 134.754 141.026 135.045 141.306 135.44C141.586 135.836 141.798 136.346 141.942 136.971C142.086 137.589 142.158 138.329 142.158 139.191Z" fill="white"/>
<path d="M195.668 132.724H197.629V148.416H195.635L189.352 136.313V148.416H187.369V132.724H189.352L195.668 144.86V132.724Z" fill="white"/>
<path d="M201.142 148.416H203.125V132.724H201.142V148.416Z" fill="white"/>
<path d="M224.411 144.45C224.411 144.084 224.368 143.761 224.282 143.48C224.195 143.193 224.044 142.934 223.829 142.704C223.613 142.474 223.312 142.255 222.924 142.047C222.536 141.839 222.043 141.627 221.447 141.411C220.8 141.181 220.215 140.926 219.69 140.646C219.166 140.358 218.717 140.032 218.343 139.665C217.977 139.299 217.693 138.878 217.492 138.404C217.291 137.93 217.19 137.388 217.19 136.777C217.19 136.166 217.294 135.602 217.503 135.085C217.718 134.567 218.02 134.118 218.408 133.738C218.803 133.35 219.277 133.048 219.83 132.832C220.384 132.617 221.002 132.509 221.684 132.509C222.704 132.509 223.563 132.735 224.26 133.188C224.964 133.633 225.496 134.219 225.855 134.945C226.214 135.663 226.394 136.432 226.394 137.251H224.411C224.411 136.662 224.314 136.141 224.12 135.688C223.933 135.228 223.638 134.869 223.236 134.611C222.841 134.345 222.324 134.212 221.684 134.212C221.109 134.212 220.635 134.323 220.262 134.546C219.895 134.769 219.622 135.07 219.442 135.451C219.27 135.832 219.184 136.267 219.184 136.755C219.184 137.086 219.241 137.388 219.356 137.661C219.471 137.926 219.647 138.174 219.884 138.404C220.129 138.634 220.43 138.846 220.79 139.04C221.156 139.234 221.587 139.421 222.083 139.6C222.852 139.852 223.509 140.132 224.055 140.441C224.601 140.75 225.047 141.099 225.392 141.487C225.736 141.867 225.988 142.302 226.146 142.791C226.311 143.272 226.394 143.818 226.394 144.429C226.394 145.068 226.286 145.647 226.071 146.164C225.862 146.681 225.557 147.123 225.155 147.49C224.752 147.856 224.267 148.14 223.7 148.341C223.132 148.535 222.492 148.632 221.781 148.632C221.163 148.632 220.556 148.531 219.96 148.33C219.371 148.129 218.835 147.827 218.354 147.425C217.873 147.023 217.488 146.527 217.201 145.938C216.913 145.341 216.77 144.651 216.77 143.868H218.753C218.753 144.407 218.832 144.871 218.99 145.259C219.148 145.639 219.367 145.956 219.647 146.207C219.927 146.459 220.247 146.645 220.606 146.767C220.973 146.882 221.364 146.94 221.781 146.94C222.356 146.94 222.837 146.839 223.225 146.638C223.621 146.437 223.915 146.15 224.109 145.776C224.31 145.402 224.411 144.96 224.411 144.45Z" fill="white"/>
<path fill-rule="evenodd" clip-rule="evenodd" d="M203.955 116.177H200.938V122.331H198.955V106.639H203.955C204.968 106.639 205.823 106.844 206.52 107.254C207.217 107.663 207.745 108.231 208.105 108.956C208.471 109.675 208.654 110.498 208.654 111.424C208.654 112.43 208.471 113.289 208.105 114C207.745 114.712 207.217 115.254 206.52 115.628C205.823 115.994 204.968 116.177 203.955 116.177ZM203.955 114.485H200.938V108.342H203.955C204.602 108.342 205.123 108.489 205.518 108.784C205.92 109.071 206.211 109.452 206.391 109.926C206.578 110.401 206.671 110.907 206.671 111.446C206.671 112.035 206.578 112.56 206.391 113.019C206.211 113.479 205.92 113.839 205.518 114.097C205.123 114.356 204.602 114.485 203.955 114.485Z" fill="white"/>
<path fill-rule="evenodd" clip-rule="evenodd" d="M87.4731 122.331H85.447L90.5016 106.639H92.2044L97.259 122.331H95.2329L94.0013 118.225H88.7047L87.4731 122.331ZM91.353 109.395L93.4906 116.522H89.2154L91.353 109.395Z" fill="white"/>
<path fill-rule="evenodd" clip-rule="evenodd" d="M99.4145 122.331H101.398V116.177H104.415C105.428 116.177 106.283 115.994 106.98 115.628C107.677 115.254 108.205 114.712 108.565 114C108.931 113.289 109.114 112.43 109.114 111.424C109.114 110.498 108.931 109.675 108.565 108.956C108.205 108.231 107.677 107.663 106.98 107.254C106.283 106.844 105.428 106.639 104.415 106.639H99.4145V122.331ZM104.415 114.485C105.062 114.485 105.583 114.356 105.978 114.097C106.38 113.839 106.671 113.479 106.851 113.019C107.038 112.56 107.131 112.035 107.131 111.446C107.131 110.907 107.038 110.401 106.851 109.926C106.671 109.452 106.38 109.071 105.978 108.784C105.583 108.489 105.062 108.342 104.415 108.342H101.398V114.485H104.415Z" fill="white"/>
<path fill-rule="evenodd" clip-rule="evenodd" d="M113.641 122.331H111.658V106.639H116.658C117.671 106.639 118.526 106.844 119.223 107.254C119.92 107.663 120.448 108.231 120.808 108.956C121.174 109.675 121.357 110.498 121.357 111.424C121.357 112.43 121.174 113.289 120.808 114C120.448 114.712 119.92 115.254 119.223 115.628C118.526 115.994 117.671 116.177 116.658 116.177H113.641V122.331ZM118.221 114.097C117.826 114.356 117.305 114.485 116.658 114.485H113.641V108.342H116.658C117.305 108.342 117.826 108.489 118.221 108.784C118.623 109.071 118.914 109.452 119.094 109.926C119.281 110.401 119.374 110.907 119.374 111.446C119.374 112.035 119.281 112.56 119.094 113.019C118.914 113.479 118.623 113.839 118.221 114.097Z" fill="white"/>
<path fill-rule="evenodd" clip-rule="evenodd" d="M132.523 122.331C133.464 122.331 134.301 122.195 135.034 121.922C135.774 121.641 136.403 121.228 136.92 120.682C137.437 120.136 137.829 119.457 138.095 118.645C138.368 117.833 138.504 116.892 138.504 115.822V113.16C138.504 112.089 138.368 111.148 138.095 110.336C137.829 109.524 137.441 108.845 136.931 108.299C136.421 107.746 135.81 107.333 135.098 107.06C134.387 106.779 133.59 106.639 132.706 106.639H129.796H128.966V122.331H132.523ZM132.523 120.639C133.464 120.639 134.229 120.459 134.818 120.1C135.407 119.734 135.842 119.195 136.122 118.484C136.403 117.765 136.543 116.878 136.543 115.822V113.138C136.543 112.305 136.464 111.586 136.306 110.983C136.147 110.379 135.91 109.883 135.594 109.495C135.278 109.107 134.879 108.82 134.398 108.633C133.917 108.439 133.353 108.342 132.706 108.342H130.949V120.639H132.523Z" fill="white"/>
<path d="M150.014 120.639V122.331H141.576V106.639H149.907V108.342H143.559V113.386H149.098V115.078H143.559V120.639H150.014Z" fill="white"/>
<path d="M162.786 106.639H160.63L157.037 119.319L153.474 106.639H151.318L156.19 122.331H157.914L162.786 106.639Z" fill="white"/>
<path d="M173.358 120.639V122.331H164.92V106.639H173.251V108.342H166.903V113.386H172.442V115.078H166.903V120.639H173.358Z" fill="white"/>
<path d="M184.028 122.331V120.639H177.874V106.639H175.891V122.331H184.028Z" fill="white"/>
<path d="M213.741 106.639L217.847 119.432L221.943 106.639H224.476V122.331H222.503V116.21L222.688 110.132L218.591 122.331H217.082L212.984 110.105L213.17 116.21V122.331H211.198V106.639H213.741Z" fill="white"/>
<path d="M236.32 122.331V120.639H229.864V115.078H235.404V113.386H229.864V108.342H236.212V106.639H227.881V122.331H236.32Z" fill="white"/>
<path d="M257.26 122.331H255.299V108.342H251.182V106.639H261.388V108.342H257.26V122.331Z" fill="white"/>
<path fill-rule="evenodd" clip-rule="evenodd" d="M168.875 142.262H165.857V148.416H163.874V132.724H168.875C169.888 132.724 170.743 132.929 171.44 133.339C172.137 133.748 172.665 134.316 173.024 135.042C173.391 135.76 173.574 136.583 173.574 137.51C173.574 138.516 173.391 139.374 173.024 140.085C172.665 140.797 172.137 141.339 171.44 141.713C170.743 142.079 169.888 142.262 168.875 142.262ZM168.875 140.57H165.857V134.427H168.875C169.522 134.427 170.042 134.575 170.438 134.869C170.84 135.157 171.131 135.537 171.311 136.012C171.497 136.486 171.591 136.992 171.591 137.531C171.591 138.12 171.497 138.645 171.311 139.105C171.131 139.565 170.84 139.924 170.438 140.182C170.042 140.441 169.522 140.57 168.875 140.57Z" fill="white"/>
<path d="M215.013 146.724V148.416H206.574V132.724H214.905V134.427H208.557V139.471H214.097V141.163H208.557V146.724H215.013Z" fill="white"/>
<path fill-rule="evenodd" clip-rule="evenodd" d="M173.401 148.416H175.428L176.659 144.31H181.956L183.187 148.416H185.213L180.159 132.724H178.456L173.401 148.416ZM179.307 135.48L177.17 142.607H181.445L179.307 135.48Z" fill="white"/>
<path d="M149.734 132.724L153.84 145.517L157.936 132.724H160.469V148.416H158.496V142.295L158.681 136.218L154.584 148.416H153.075L148.977 136.19L149.163 142.295V148.416H147.191V132.724H149.734Z" fill="white"/>
<path d="M149.521 227.879H150.526V236.926C150.526 237.89 150.352 238.663 150.006 239.245C149.665 239.822 149.203 240.242 148.621 240.506C148.045 240.771 147.407 240.903 146.708 240.903C145.991 240.903 145.344 240.774 144.768 240.515C144.192 240.251 143.736 239.827 143.401 239.245C143.066 238.663 142.898 237.89 142.898 236.926V227.879H143.904V236.926C143.904 237.673 144.024 238.27 144.265 238.716C144.506 239.157 144.838 239.475 145.262 239.669C145.685 239.863 146.167 239.96 146.708 239.96C147.26 239.96 147.745 239.863 148.163 239.669C148.586 239.469 148.918 239.148 149.159 238.708C149.4 238.267 149.521 237.673 149.521 236.926V227.879Z" fill="white"/>
<path d="M184.325 227.879V240.718H183.302V227.879H184.325Z" fill="white"/>
<path d="M195.612 240.718V227.879H194.606V238.822L188.557 227.879H187.534V240.718H188.557V229.775L194.598 240.718H195.612Z" fill="white"/>
<path d="M205.408 239.775V240.718H198.68V227.879H205.364V228.823H199.694V233.62H204.659V234.572H199.694V239.775H205.408Z" fill="white"/>
<path fill-rule="evenodd" clip-rule="evenodd" d="M172.094 240.718H173.135L174.237 237.129H179.052L180.154 240.718H181.203L177.112 227.879H176.177L172.094 240.718ZM174.529 236.177L176.644 229.287L178.76 236.177H174.529Z" fill="white"/>
<path d="M154.388 240.718H153.374V227.879H154.388V234.687L159.767 227.879H161.019L156.552 233.576L161.372 240.718H160.146L155.873 234.38L154.388 236.102V240.718Z" fill="white"/>
<path fill-rule="evenodd" clip-rule="evenodd" d="M166.786 227.879H163.268V240.718H164.282V235.374H167.289L169.855 240.718H170.93V240.603L168.257 235.136C168.633 235.004 168.969 234.808 169.264 234.546C169.64 234.216 169.934 233.805 170.146 233.311C170.357 232.817 170.463 232.268 170.463 231.662C170.463 230.845 170.313 230.157 170.013 229.599C169.719 229.034 169.296 228.608 168.744 228.32C168.197 228.026 167.544 227.879 166.786 227.879ZM166.954 234.431C167.512 234.431 167.976 234.302 168.347 234.043C168.717 233.778 168.993 233.437 169.176 233.02C169.364 232.597 169.458 232.144 169.458 231.662C169.458 231.08 169.355 230.577 169.149 230.154C168.949 229.731 168.65 229.405 168.25 229.175C167.856 228.94 167.368 228.823 166.786 228.823H164.282V234.431H166.954Z" fill="white"/>
<path d="M166.831 271.054H170.816V271.907H167.769V273.291H170.468V274.144H167.769V275.583H170.853V276.436H166.831V271.054Z" fill="white"/>
<path d="M164.507 276.436V274.167H161.925V276.436H160.987V271.054H161.925V273.291H164.507V271.054H165.448V276.436H164.507Z" fill="white"/>
<path d="M159.985 271.93H158.279V276.436H157.325V271.93H155.619V271.054H159.985V271.93Z" fill="white"/>
<path fill-rule="evenodd" clip-rule="evenodd" d="M178.653 288.937V277.957H179.554V289.829H147.384V285.881H142.898V253.711H175.068V257.661H179.552V269.542H178.65V258.562H175.066V269.542H174.165V258.562H148.288V284.982H174.167V277.957H175.068V285.881H148.288V288.937H178.653ZM143.8 284.977H147.384V257.661H174.165V254.614H143.8V284.977Z" fill="white"/>
<path fill-rule="evenodd" clip-rule="evenodd" d="M182.875 271.014H183.751L186.13 276.435H185.122L184.575 275.136H182.029L181.476 276.435H180.506L182.875 271.014ZM182.374 274.297H184.227L183.289 272.144L182.374 274.297Z" fill="white"/>
<path d="M214.544 271.929H212.838V276.435H211.884V271.929H210.178V271.053H214.544V271.929Z" fill="white"/>
<path d="M206.608 272.211C206.568 272.29 206.548 272.378 206.548 272.467C206.543 272.567 206.562 272.668 206.603 272.76C206.648 272.847 206.716 272.921 206.799 272.975C206.921 273.054 207.054 273.116 207.193 273.16L207.829 273.336C208.083 273.396 208.334 273.472 208.579 273.565C208.777 273.64 208.961 273.748 209.123 273.885C209.263 274.006 209.375 274.156 209.45 274.324C209.529 274.51 209.567 274.71 209.563 274.912C209.567 275.148 209.518 275.383 209.421 275.598C209.329 275.795 209.195 275.968 209.027 276.106C208.849 276.25 208.644 276.358 208.423 276.422C208.171 276.496 207.909 276.532 207.646 276.529C207.239 276.531 206.835 276.46 206.454 276.319C206.064 276.172 205.706 275.951 205.399 275.669L205.969 274.983C206.206 275.199 206.474 275.379 206.763 275.518C207.051 275.644 207.363 275.705 207.678 275.699C207.92 275.71 208.16 275.645 208.364 275.514C208.446 275.459 208.512 275.384 208.558 275.296C208.603 275.209 208.625 275.111 208.622 275.013C208.624 274.923 208.607 274.834 208.572 274.752C208.531 274.666 208.467 274.594 208.387 274.542C208.272 274.465 208.147 274.405 208.016 274.361L207.403 274.185C207.143 274.124 206.886 274.048 206.635 273.956C206.432 273.885 206.241 273.782 206.072 273.649C205.921 273.527 205.802 273.37 205.724 273.192C205.64 272.99 205.599 272.773 205.605 272.554C205.602 272.332 205.649 272.112 205.743 271.911C205.833 271.721 205.961 271.552 206.12 271.415C206.29 271.27 206.486 271.162 206.699 271.094C206.937 271.018 207.185 270.98 207.435 270.982C207.798 270.977 208.159 271.036 208.501 271.156C208.822 271.275 209.122 271.445 209.389 271.659L208.881 272.375C208.656 272.208 208.411 272.069 208.151 271.964C207.919 271.871 207.672 271.823 207.422 271.822C207.191 271.808 206.963 271.874 206.776 272.009C206.705 272.063 206.648 272.132 206.608 272.211Z" fill="white"/>
<path d="M200.6 271.053H204.585V271.906H201.541V273.29H204.24V274.143H201.541V275.582H204.624V276.435H200.6V271.053Z" fill="white"/>
<path d="M195.557 271.053H199.555V271.906H196.495V273.391H199.21V274.244H196.495V276.435H195.557V271.053Z" fill="white"/>
<path d="M194.111 271.054H193.173V276.438H194.111V271.054Z" fill="white"/>
<path d="M190.797 274.775L187.919 271.054H187.043V276.436H187.981V272.607L190.943 276.436H191.735V271.054H190.797V274.775Z" fill="white"/>
<path d="M178.644 272.575V276.436H179.584V271.054H178.575L176.938 273.597L175.3 271.054H174.291V276.436H175.229V272.591L176.915 275.114H176.944L178.644 272.575Z" fill="white"/>
</svg>
