<svg viewBox="0 0 348 348" fill="none" xmlns="http://www.w3.org/2000/svg">
<path fill-rule="evenodd" clip-rule="evenodd" d="M173.45 284.318C173.45 287.046 172.085 289.791 169.071 289.791C166.05 289.791 164.692 287.049 164.692 284.318C164.692 281.587 166.05 278.856 169.074 278.856C172.093 278.856 173.45 281.589 173.45 284.318ZM166.977 284.318C166.977 286.268 167.548 287.791 169.071 287.791C170.583 287.791 171.148 286.271 171.148 284.318C171.148 282.362 170.594 280.856 169.071 280.856C167.548 280.856 166.977 282.368 166.977 284.318Z" fill="white"/>
<path d="M162.088 287.63V289.6L154.123 289.614V287.849C158.452 284.645 159.726 283.565 159.726 282.254C159.726 281.329 158.884 280.87 158.009 280.87C157.476 280.861 156.948 280.966 156.459 281.177C155.97 281.388 155.53 281.699 155.17 282.091L153.882 280.601C154.401 280.041 155.033 279.597 155.737 279.299C156.44 279.001 157.198 278.856 157.962 278.873C160.214 278.873 162.009 280.141 162.009 282.251C162.009 284.057 160.516 285.631 157.768 287.63H162.088Z" fill="white"/>
<path d="M183.978 289.6V287.63H179.66C182.404 285.631 183.897 284.057 183.897 282.251C183.897 280.141 182.103 278.873 179.851 278.873C179.088 278.856 178.33 279.001 177.627 279.299C176.924 279.597 176.292 280.041 175.774 280.601L177.057 282.091C177.417 281.7 177.857 281.388 178.346 281.178C178.835 280.968 179.363 280.863 179.895 280.87C180.771 280.87 181.613 281.329 181.613 282.254C181.613 283.565 180.344 284.645 176.009 287.849V289.614L183.978 289.6Z" fill="white"/>
<path d="M194.763 287.63V289.6L186.797 289.614V287.849C191.13 284.645 192.398 283.565 192.398 282.254C192.398 281.329 191.559 280.87 190.686 280.87C190.153 280.861 189.625 280.966 189.135 281.176C188.645 281.386 188.205 281.698 187.845 282.091L186.559 280.601C187.078 280.041 187.71 279.598 188.412 279.3C189.115 279.001 189.873 278.856 190.636 278.873C192.888 278.873 194.683 280.141 194.683 282.251C194.683 284.057 193.19 285.631 190.445 287.63H194.763Z" fill="white"/>
<path d="M89.1278 246.178H91.5909L91.5935 246.176C94.2819 246.176 95.8515 244.237 95.8515 241.936C95.8515 239.544 94.3894 237.68 91.5909 237.68H89.1278V246.178Z" fill="white"/>
<path d="M165.378 241.346H168.412C169.576 241.346 170.451 240.652 170.451 239.512C170.451 238.372 169.576 237.678 168.412 237.678H165.378V241.346Z" fill="white"/>
<path d="M237.373 243.791C237.373 245.339 238.269 246.663 239.878 246.663C241.487 246.663 242.404 245.319 242.404 243.791C242.404 242.261 241.487 240.94 239.878 240.94C238.269 240.94 237.373 242.24 237.373 243.791Z" fill="white"/>
<path fill-rule="evenodd" clip-rule="evenodd" d="M173.619 21L65.1034 73.2926V229.534H51.5045L56.659 247.666L51.5045 265.8H65.1034V274.064L174.187 327L282.704 274.064L282.705 265.8H296.493L291.341 247.666L296.495 229.534H282.705L282.704 73.2926L173.619 21ZM71.9036 79.2584L173.711 30.0652L276.052 79.2556V224.998H71.9036V79.2584ZM71.9036 261.265H276.052V268.134L174.242 317.935L71.9036 268.134V261.265ZM98.8046 241.936C98.8046 246.034 95.8515 248.72 91.5909 248.72H86.235V235.133H91.5935C95.8515 235.133 98.8046 237.838 98.8046 241.936ZM110.879 246.178V248.72L101.281 248.728V235.144H110.879V237.688H104.158V240.56H110.735V243.097H104.158V246.178H110.879ZM123.805 244.616C123.805 247.1 122.031 248.966 118.365 248.966C115.766 248.966 113.895 248.088 112.648 246.799L114.199 244.598C114.754 245.182 115.422 245.648 116.162 245.967C116.903 246.286 117.7 246.451 118.506 246.453C120.094 246.453 120.87 245.72 120.87 244.941C120.87 243.965 119.576 243.659 118.041 243.295C115.802 242.764 113.048 242.111 113.048 239.08C113.048 236.806 115.003 234.939 118.2 234.939C120.362 234.939 122.154 235.592 123.498 236.837L121.892 238.954C120.805 237.982 119.394 237.451 117.935 237.466C116.693 237.466 116.001 238.021 116.001 238.833C116.001 239.686 117.218 239.976 118.69 240.327C120.947 240.865 123.805 241.547 123.805 244.616ZM129.063 235.133V248.72H126.171V235.133H129.063ZM141.925 248.34C140.927 248.783 139.843 249.004 138.751 248.987V248.984C134.776 248.984 131.519 246.233 131.519 241.936C131.519 237.636 134.781 234.911 138.753 234.911C139.874 234.876 140.985 235.138 141.972 235.671C142.96 236.204 143.788 236.988 144.374 237.945L141.971 239.25C141.625 238.709 141.149 238.263 140.587 237.953C140.024 237.643 139.393 237.479 138.751 237.476C136.283 237.476 134.49 239.368 134.49 241.936C134.49 244.504 136.283 246.398 138.751 246.398C139.805 246.394 140.826 246.027 141.641 245.358V243.728H138.057V241.205H144.534V246.42C143.814 247.241 142.923 247.896 141.925 248.34ZM159.399 235.133V248.72H156.624L150.144 239.858V248.717H147.251V235.131H150.212L156.508 243.665V235.133H159.399ZM170.435 243.545L173.485 248.72H170.173L167.5 243.891H165.381V248.712H162.491V235.128H168.845C171.678 235.128 173.407 236.981 173.407 239.507C173.407 241.918 171.903 243.199 170.435 243.545ZM188.248 243.28C188.248 246.663 186.251 248.966 182.117 248.966C177.979 248.966 175.983 246.642 175.983 243.293V235.123H178.933V243.202C178.933 245.096 180.02 246.409 182.117 246.409C184.215 246.409 185.295 245.104 185.295 243.209V235.133H188.248V243.28ZM201.599 244.616C201.599 247.1 199.825 248.966 196.161 248.966C193.552 248.966 191.67 248.091 190.425 246.807L191.982 244.598C192.538 245.184 193.209 245.651 193.953 245.969C194.696 246.287 195.496 246.45 196.306 246.448C197.893 246.448 198.669 245.717 198.669 244.939C198.669 243.963 197.375 243.656 195.839 243.292C193.599 242.761 190.844 242.109 190.844 239.077C190.844 236.803 192.802 234.937 195.999 234.937C198.16 234.937 199.953 235.59 201.297 236.831L199.688 238.954C198.602 237.982 197.19 237.451 195.731 237.466C194.489 237.466 193.798 238.021 193.798 238.833C193.798 239.686 195.014 239.976 196.486 240.327C198.742 240.865 201.599 241.547 201.599 244.616ZM216.175 235.133V248.72H213.267V243.016H206.849V248.72H203.954V235.133H206.847V240.471H213.267V235.133H216.175ZM221.442 248.667C221.171 248.848 220.851 248.945 220.524 248.945C220.088 248.941 219.671 248.768 219.362 248.46C219.053 248.151 218.878 247.733 218.874 247.297C218.874 246.97 218.97 246.651 219.151 246.379C219.332 246.108 219.589 245.896 219.891 245.77C220.193 245.645 220.524 245.612 220.845 245.675C221.165 245.739 221.46 245.896 221.691 246.126C221.922 246.357 222.079 246.651 222.144 246.971C222.207 247.292 222.175 247.624 222.05 247.925C221.925 248.227 221.714 248.486 221.442 248.667ZM233.217 247.174C232.565 248.088 231.341 248.966 229.323 248.966C226.289 248.966 224.109 246.82 224.109 243.807C224.109 240.793 226.289 238.652 229.323 238.652C231.354 238.652 232.565 239.528 233.215 240.427L231.527 242.014C231.301 241.675 230.991 241.399 230.626 241.213C230.263 241.027 229.858 240.938 229.449 240.954C227.88 240.954 226.776 242.093 226.776 243.807C226.776 245.518 227.895 246.678 229.449 246.678C229.856 246.685 230.258 246.592 230.62 246.408C230.982 246.223 231.294 245.953 231.527 245.62L233.217 247.174ZM245.092 243.791C245.092 246.603 243.137 248.966 239.878 248.966C236.639 248.966 234.682 246.579 234.682 243.791C234.682 241.001 236.621 238.637 239.878 238.637C243.137 238.637 245.092 240.979 245.092 243.791ZM262.232 241.611V248.72L259.632 248.704V242.491C259.632 241.59 259.224 240.94 258.165 240.94C257.76 240.96 257.366 241.072 257.011 241.27C256.658 241.468 256.355 241.745 256.127 242.08V248.715H253.522V242.505C253.522 241.606 253.113 240.951 252.055 240.951C251.648 240.974 251.252 241.091 250.899 241.293C250.545 241.495 250.243 241.776 250.016 242.114V248.72H247.43V238.881H250.018V240.164C250.414 239.695 250.906 239.315 251.461 239.052C252.017 238.788 252.622 238.646 253.236 238.637C254.682 238.637 255.6 239.308 255.966 240.429C256.346 239.883 256.849 239.437 257.436 239.125C258.023 238.813 258.675 238.646 259.339 238.637C261.149 238.637 262.232 239.593 262.232 241.611Z" fill="white"/>
<path d="M110.2 170.626V162.344H113.163V160.831H105.518V162.344H108.483V170.626H110.2ZM118.825 170.8C121.742 170.8 123.826 168.659 123.826 165.74C123.826 162.823 121.742 160.679 118.822 160.679C115.906 160.679 113.821 162.823 113.821 165.74C113.821 168.659 115.889 170.795 118.822 170.795L118.825 170.8ZM118.825 169.277C116.842 169.277 115.579 167.75 115.579 165.729C115.579 163.707 116.844 162.181 118.822 162.181C120.803 162.181 122.065 163.691 122.065 165.729C122.065 167.767 120.787 169.268 118.822 169.268L118.825 169.277ZM127.178 170.626V166.95H129.763C131.803 166.95 132.946 165.557 132.946 163.9C132.946 162.24 131.814 160.831 129.763 160.831H125.474V170.626H127.18H127.178ZM129.545 165.448H127.178V162.352H129.545C130.511 162.352 131.202 162.967 131.202 163.906C131.202 164.844 130.511 165.44 129.542 165.44L129.545 165.448ZM142.769 170.8C145.69 170.8 147.774 168.659 147.774 165.74C147.774 162.823 145.69 160.679 142.769 160.679C139.846 160.679 137.765 162.823 137.765 165.74C137.765 168.659 139.832 170.795 142.766 170.795L142.769 170.8ZM142.769 169.277C140.788 169.277 139.528 167.75 139.528 165.729C139.528 163.707 140.788 162.181 142.766 162.181C144.749 162.181 146.011 163.691 146.011 165.729C146.011 167.767 144.732 169.268 142.766 169.268L142.769 169.277ZM153.651 170.8C156.497 170.8 157.89 169.189 157.89 166.755V160.831H156.147V166.703C156.147 168.256 155.278 169.282 153.649 169.282C152.022 169.282 151.157 168.27 151.157 166.703V160.831H149.412V166.757C149.409 169.165 150.814 170.795 153.646 170.795L153.651 170.8ZM164.018 170.626V162.344H166.981V160.831H159.341V162.344H162.304V170.626H164.018ZM171.723 170.8C174.348 170.8 175.505 169.396 175.505 167.767C175.505 164.126 169.816 165.258 169.816 163.422C169.816 162.703 170.461 162.205 171.459 162.205C171.984 162.196 172.506 162.292 172.995 162.486C173.483 162.68 173.928 162.968 174.305 163.334L175.271 162.044C174.784 161.584 174.21 161.225 173.582 160.989C172.955 160.752 172.287 160.642 171.617 160.665C169.46 160.665 168.053 161.912 168.053 163.541C168.053 167.138 173.748 165.859 173.748 167.913C173.748 168.561 173.203 169.263 171.794 169.263C171.211 169.263 170.635 169.142 170.102 168.907C169.568 168.672 169.09 168.328 168.698 167.897L167.732 169.233C168.61 170.15 169.919 170.795 171.723 170.795V170.8ZM181.654 170.8C184.573 170.8 186.657 168.659 186.657 165.74C186.657 162.823 184.573 160.679 181.652 160.679C178.729 160.679 176.651 162.823 176.651 165.74C176.651 168.659 178.718 170.795 181.652 170.795L181.654 170.8ZM181.654 169.277C179.671 169.277 178.427 167.75 178.427 165.729C178.427 163.707 179.687 162.181 181.652 162.181C183.616 162.181 184.897 163.691 184.897 165.729C184.897 167.767 183.618 169.268 181.652 169.268L181.654 169.277ZM192.534 170.8C195.38 170.8 196.776 169.189 196.776 166.755V160.831H195.03V166.703C195.03 168.256 194.161 169.282 192.534 169.282C190.905 169.282 190.04 168.27 190.04 166.703V160.831H188.298V166.757C188.298 169.165 189.702 170.795 192.534 170.795V170.8ZM206.427 170.626L204.022 166.781C204.698 166.678 205.312 166.325 205.743 165.793C206.173 165.262 206.391 164.589 206.353 163.906C206.353 162.086 205.064 160.839 203.129 160.839H198.858V170.626H200.572V166.966H202.286L204.444 170.626H206.427ZM200.558 165.467V162.357H202.92C203.886 162.357 204.593 162.962 204.593 163.9C204.593 164.839 203.902 165.467 202.934 165.467H200.558ZM212.778 170.809C213.571 170.822 214.354 170.623 215.045 170.233C215.737 169.844 216.312 169.277 216.712 168.591L215.246 167.859C214.988 168.287 214.627 168.641 214.196 168.89C213.764 169.139 213.276 169.274 212.778 169.282C210.846 169.282 209.404 167.785 209.404 165.734C209.404 163.682 210.846 162.186 212.778 162.186C213.276 162.191 213.766 162.324 214.198 162.574C214.63 162.823 214.991 163.18 215.246 163.609L216.698 162.845C216.302 162.161 215.73 161.597 215.04 161.212C214.35 160.827 213.57 160.635 212.78 160.657C209.877 160.657 207.643 162.698 207.643 165.72C207.643 168.743 209.901 170.795 212.791 170.795L212.778 170.809ZM219.787 170.634V160.831H218.072V170.626L219.787 170.634ZM230.346 170.634V160.831H228.631V167.606L223.628 160.831H221.868V170.626H223.581V163.628L228.702 170.626L230.346 170.634ZM237.121 170.824C237.887 170.835 238.646 170.678 239.345 170.365C240.044 170.053 240.668 169.592 241.172 169.015V165.367H236.53V166.88H239.466V168.39C238.825 168.956 238 169.268 237.145 169.268C235.213 169.268 233.771 167.772 233.771 165.72C233.771 163.669 235.213 162.172 237.145 162.172C237.64 162.174 238.127 162.291 238.569 162.516C239.009 162.74 239.391 163.065 239.683 163.465L241.082 162.657C240.65 162.014 240.063 161.492 239.375 161.137C238.686 160.784 237.919 160.61 237.145 160.633C234.302 160.633 232.011 162.616 232.011 165.694C232.011 168.776 234.302 170.809 237.145 170.809L237.121 170.824ZM85.5332 187.313C88.1615 187.313 89.3179 185.906 89.3179 184.279C89.3179 180.639 83.6259 181.771 83.6259 179.937C83.6259 179.215 84.2707 178.715 85.2665 178.715C85.7925 178.707 86.3149 178.803 86.8038 178.997C87.2926 179.191 87.7383 179.48 88.1152 179.847L89.0839 178.557C88.5965 178.097 88.0225 177.738 87.3952 177.501C86.768 177.264 86.0999 177.154 85.4298 177.178C83.2749 177.178 81.8655 178.427 81.8655 180.054C81.8655 183.645 87.5574 182.374 87.5574 184.429C87.5574 185.074 87.0133 185.776 85.6066 185.776C85.0241 185.776 84.4479 185.655 83.9148 185.42C83.3817 185.186 82.9033 184.842 82.5104 184.412L81.5417 185.746C82.4424 186.657 83.7483 187.302 85.5522 187.302L85.5332 187.313ZM95.4641 187.313C98.3809 187.313 100.465 185.174 100.465 182.252C100.465 179.336 98.3809 177.191 95.4641 177.191C92.5447 177.191 90.4796 179.336 90.4796 182.239C90.4796 185.142 92.5474 187.299 95.4778 187.299L95.4641 187.313ZM95.4641 185.789C93.4834 185.789 92.2372 184.265 92.2372 182.242C92.2372 180.22 93.4997 178.694 95.4641 178.694C97.4258 178.694 98.7019 180.206 98.7019 182.242C98.7019 184.276 97.4476 185.786 95.4778 185.786L95.4641 185.789ZM103.817 187.142V182.883H108.706V181.37H103.836V178.851H108.826V177.338H102.122V187.128L103.817 187.142ZM114.42 187.142V178.851H117.413V177.338H109.767V178.851H112.733V187.128L114.42 187.142ZM128.157 187.142L130.96 177.352H129.025L127.115 184.881L125.091 177.352H123.725L121.704 184.881L119.794 177.352H117.889L120.675 187.142H122.509L124.413 179.904L126.31 187.142H128.157ZM140.251 187.142L136.443 177.338H134.299L130.44 187.128H132.391L133.112 185.234H137.601L138.32 187.128L140.251 187.142ZM137.117 183.721H133.596L135.357 179.058L137.117 183.721ZM148.912 187.128L146.506 183.283C147.183 183.179 147.796 182.827 148.227 182.295C148.658 181.764 148.876 181.091 148.838 180.408C148.838 178.587 147.549 177.338 145.611 177.338H141.329V187.128H143.043V183.474H144.76L146.918 187.128H148.914H148.912ZM145.408 181.967H143.04V178.851H145.408C146.373 178.851 147.078 179.45 147.078 180.394C147.078 181.335 146.373 181.961 145.408 181.961V181.967ZM157.259 187.128V185.615H152.267V182.883H157.153V181.37H152.267V178.851H157.257V177.338H150.552V187.128H157.259ZM166.455 187.128C169.508 187.128 171.562 185.114 171.562 182.225C171.562 179.336 169.508 177.338 166.444 177.338H162.804V187.128H166.455ZM166.455 185.615H164.524V178.84H166.455C168.627 178.84 169.802 180.337 169.802 182.214C169.802 184.091 168.57 185.615 166.434 185.615H166.455ZM179.94 187.128V185.615H174.936V182.883H179.823V181.37H174.936V178.851H179.926V177.338H173.206V187.128H179.94ZM186.677 187.128L190.521 177.338H188.587L185.621 185.248L182.658 177.338H180.708L184.552 187.128H186.677ZM198.286 187.128V185.615H193.28V182.883H198.164V181.37H193.277V178.851H198.267V177.338H191.564V187.128H198.286ZM205.959 187.128V185.615H201.63V177.338H199.913V187.128H205.959ZM211.605 187.302C214.508 187.302 216.608 185.16 216.608 182.242C216.608 179.322 214.491 177.178 211.588 177.178C208.685 177.178 206.582 179.336 206.582 182.239C206.582 185.142 208.65 187.299 211.588 187.299L211.605 187.302ZM211.605 185.778C209.624 185.778 208.38 184.249 208.38 182.228C208.38 180.206 209.64 178.68 211.605 178.68C213.569 178.68 214.829 180.193 214.829 182.228C214.829 184.262 213.553 185.786 211.591 185.786L211.605 185.778ZM219.961 187.128V183.455H222.553C224.594 183.455 225.736 182.064 225.736 180.408C225.736 178.748 224.61 177.338 222.553 177.338H218.227V187.128H219.961ZM222.327 181.947H219.941V178.851H222.309C223.274 178.851 223.962 179.468 223.962 180.408C223.962 181.344 223.274 181.947 222.306 181.947H222.327ZM237.354 187.128V177.338H234.933L232.278 184.059L229.608 177.338H227.168V187.128H228.884V179.57L231.908 187.128H232.642L235.635 179.57V187.128H237.354ZM246.143 187.128V185.615H241.136V182.883H246.023V181.37H241.136V178.851H246.123V177.338H239.42V187.128H246.143ZM256.387 187.128V177.338H254.673V184.113L249.666 177.338H247.906V187.128H249.625V180.13L254.73 187.128H256.387ZM262.517 187.128V178.851H265.449V177.338H257.807V178.851H260.772V187.128H262.517ZM137.922 203.806C138.712 203.815 139.491 203.615 140.178 203.225C140.865 202.836 141.437 202.271 141.835 201.589L140.366 200.857C140.11 201.284 139.751 201.639 139.319 201.888C138.888 202.138 138.401 202.272 137.904 202.28C135.969 202.28 134.53 200.784 134.53 198.732C134.53 196.681 135.969 195.184 137.904 195.184C138.402 195.189 138.891 195.323 139.323 195.572C139.755 195.821 140.115 196.178 140.369 196.607L141.824 195.845C141.428 195.162 140.856 194.598 140.166 194.213C139.476 193.828 138.696 193.636 137.906 193.658C135.001 193.658 132.769 195.698 132.769 198.721C132.769 201.747 135.014 203.809 137.904 203.809L137.922 203.806ZM147.794 203.806C150.713 203.806 152.795 201.668 152.795 198.746C152.795 195.829 150.713 193.685 147.794 193.685C144.874 193.685 142.79 195.826 142.79 198.746C142.79 201.671 144.825 203.806 147.774 203.806H147.794ZM147.794 202.283C145.813 202.283 144.55 200.759 144.55 198.735C144.55 196.713 145.813 195.187 147.794 195.187C149.775 195.187 151.034 196.699 151.034 198.735C151.034 200.77 149.742 202.283 147.774 202.283H147.794ZM164.603 203.632V193.848H162.181L159.526 200.568L156.838 193.848H154.416V203.635H156.13V196.076L159.139 203.632H159.874L162.867 196.076V203.632H164.603ZM168.401 203.632V199.979H170.983C173.021 199.979 174.166 198.585 174.166 196.926C174.166 195.266 173.037 193.859 170.983 193.859H166.668V203.643L168.401 203.632ZM170.763 198.455H168.368V195.358H170.73C171.698 195.358 172.389 195.976 172.389 196.915C172.389 197.85 171.715 198.455 170.743 198.455H170.763ZM183.341 203.632L179.477 193.848H177.336L173.492 203.635H175.442L176.164 201.744H180.652L181.371 203.635L183.341 203.632ZM180.188 200.232H176.645L178.408 195.562L180.188 200.232ZM192.875 203.632V193.848H191.141V200.623L186.138 193.848H184.377V203.635H186.108V196.635L191.215 203.635L192.875 203.632ZM196.673 203.632V193.848H194.956V203.635L196.673 203.632ZM205.459 203.632V202.12H200.45V199.391H205.336V197.878H200.45V195.356H205.44V193.846H198.733V203.632H205.459ZM210.579 203.809C213.207 203.809 214.366 202.4 214.366 200.77C214.366 197.133 208.672 198.262 208.672 196.43C208.672 195.709 209.319 195.211 210.318 195.211C210.843 195.202 211.366 195.298 211.854 195.492C212.343 195.686 212.788 195.976 213.163 196.343L214.13 195.054C213.643 194.593 213.069 194.234 212.443 193.996C211.816 193.759 211.148 193.648 210.478 193.671C208.321 193.671 206.914 194.92 206.914 196.55C206.914 200.141 212.606 198.868 212.606 200.92C212.606 201.564 212.062 202.269 210.652 202.269C210.07 202.27 209.494 202.149 208.961 201.914C208.427 201.679 207.949 201.336 207.556 200.906L206.591 202.239C207.45 203.164 208.756 203.809 210.56 203.809H210.579Z" fill="white"/>
<path d="M134.396 129.773L136.012 134.759L136.009 134.762H141.257L137.018 137.842L138.636 142.828L134.394 139.747L130.157 142.828L131.773 137.842L127.536 134.759H132.773L134.396 129.773Z" fill="white"/>
<path d="M153.832 129.773L155.453 134.759L160.692 134.762L156.452 137.842L158.074 142.828L153.832 139.747L149.592 142.828L151.213 137.842L146.968 134.759H152.213L153.832 129.773Z" fill="white"/>
<path d="M173.336 129.773L174.951 134.759L174.954 134.762H180.196L175.954 137.842L177.575 142.828L173.336 139.747L169.093 142.828L170.715 137.842L166.475 134.759H171.714L173.336 129.773Z" fill="white"/>
<path d="M192.77 129.773L194.394 134.759L199.631 134.762L195.391 137.842L197.013 142.828L192.77 139.747L188.531 142.828L190.152 137.842L185.909 134.759H191.154L192.77 129.773Z" fill="white"/>
<path d="M212.211 129.773L213.829 134.759L213.826 134.762H219.071L214.831 137.842L216.45 142.828L212.211 139.747L207.971 142.828L209.589 137.842L205.347 134.759H210.589L212.211 129.773Z" fill="white"/>
<path d="M168.547 84.739C164.865 79.881 167.481 75.0175 173.294 70.3072C179.107 65.5913 178.926 58.6693 178.926 58.6693C179.808 59.7902 180.543 61.0193 181.113 62.3267C181.113 62.3267 181.154 62.4159 181.213 62.5783C181.721 63.7487 182.127 64.9617 182.425 66.2032C183.586 70.9832 182.177 73.6294 178.876 76.1476C175.844 78.4676 176.699 81.338 179.134 80.9626L179.196 80.9451C179.514 80.8879 179.824 80.7915 180.118 80.6582C183.422 79.1846 185.399 73.2989 185.399 73.2989C185.809 76.5746 185.14 79.8949 183.494 82.7584C180.686 87.7752 172.23 89.5969 168.547 84.739Z" fill="white"/>
<path d="M161.731 90.97C159.09 88.3293 145.525 87.2235 145.525 87.2235L173.227 126.807L200.923 87.2263C200.611 87.2653 187.341 88.3516 184.726 90.97C182.1 93.5923 173.35 106.48 173.228 106.659L173.227 106.66L161.731 90.97Z" fill="white"/>
<path d="M173.324 91.388L165.575 89.8337L173.324 100.561L181.074 89.8364L173.324 91.388Z" fill="white"/>
<path d="M165.541 84.9536C165.541 84.9536 161.669 76.7001 169.867 70.6165C177.071 65.3018 181.525 59.2322 173.321 48.962C171.41 51.3425 169.277 54.2925 169.327 57.4874C169.361 59.6137 169.995 61.1789 170.489 62.3984C170.809 63.1902 171.071 63.8362 171.071 64.3955C171.073 64.7352 171.008 65.072 170.879 65.3862C170.75 65.7005 170.56 65.9861 170.32 66.2263C170.079 66.4665 169.794 66.6566 169.479 66.7856C169.165 66.9146 168.828 66.9799 168.489 66.9776L167.962 66.9396C165.065 66.4912 165.541 62.5023 165.541 62.5023C165.541 62.5023 155.338 74.5664 165.541 84.9536Z" fill="white"/>
</svg>
