<svg viewBox="0 0 348 348" fill="none" xmlns="http://www.w3.org/2000/svg">
<path fill-rule="evenodd" clip-rule="evenodd" d="M173.999 33L302.339 103.226V244.774L173.999 315L45.66 244.774V103.226L173.999 33ZM290.312 110.355L173.999 46.7102L57.6874 110.355V140.925H290.312V110.355ZM57.6874 237.645V207.075H290.312V237.645L173.999 301.29L57.6874 237.645ZM140.453 154.276H146.868V194.367H140.453V154.276ZM169.319 181.578C169.319 187.714 164.16 188.203 162.625 188.203C158.791 188.203 158.094 184.614 158.094 182.449V167.105H151.679V182.417C151.679 186.217 152.872 189.354 154.963 191.445C156.811 193.295 159.579 194.305 162.577 194.305C164.704 194.305 167.715 193.642 169.319 192.178V194.367H175.734V167.105H169.319V181.578ZM182.148 157.483H188.563V167.105H193.374V173.52H188.563V194.367H182.148V173.52H177.337V167.105H182.148V157.483ZM213.575 186.216C212.178 187.471 210.334 188.168 208.31 188.168C203.849 188.168 200.573 184.891 200.573 180.393C200.573 175.895 203.745 172.756 208.31 172.756C210.299 172.756 212.178 173.419 213.61 174.674L214.584 175.511L218.909 171.188L217.826 170.211C215.281 167.913 211.902 166.624 208.309 166.624C200.29 166.624 194.467 172.41 194.467 180.359C194.467 188.275 200.43 194.268 208.309 194.268C211.97 194.268 215.384 192.979 217.897 190.643L218.943 189.667L214.55 185.347L213.575 186.216ZM234.793 166.624C237.792 166.624 239.957 167.635 241.804 169.482C243.897 171.575 244.691 174.711 244.691 178.512V194.367H238.276V178.309C238.279 176.134 238.283 172.726 234.548 172.726C233.013 172.726 228.654 173.214 228.654 179.349V194.367H222.24V154.276H228.654V168.749C230.258 167.287 232.666 166.624 234.793 166.624ZM208.098 175.826C209.328 175.826 210.508 176.314 211.378 177.184C212.247 178.054 212.736 179.234 212.736 180.464C212.736 181.693 212.247 182.873 211.378 183.743C210.508 184.613 209.328 185.101 208.098 185.101C206.868 185.101 205.689 184.613 204.819 183.743C203.949 182.873 203.461 181.693 203.461 180.464C203.461 179.234 203.949 178.054 204.819 177.184C205.689 176.314 206.868 175.826 208.098 175.826ZM131.473 184.298C129.034 186.808 125.721 188.168 122.234 188.168C115.088 188.168 109.893 182.555 109.893 174.851C109.893 167.111 115.088 161.499 122.234 161.499C125.687 161.499 128.963 162.857 131.439 165.333L132.414 166.31L136.702 162.021L135.761 161.045C132.206 157.384 127.395 155.398 122.234 155.398C111.706 155.398 103.792 163.765 103.792 174.884C103.792 185.97 111.742 194.303 122.234 194.303C127.43 194.303 132.241 192.282 135.796 188.621L136.738 187.644L132.485 183.288L131.473 184.298Z" fill="white"/>
<path d="M166.122 82.2088V83.8926H161.752V96.1004H159.807V83.8926H155.437V82.2088H166.122Z" fill="white"/>
<path d="M167.066 89.1445C167.066 87.9552 167.239 86.9061 167.587 85.9974C167.948 85.0886 168.429 84.3336 169.03 83.7322C169.645 83.1175 170.353 82.6564 171.155 82.3491C171.97 82.0417 172.832 81.888 173.741 81.888C174.636 81.888 175.478 82.0417 176.267 82.3491C177.068 82.6564 177.77 83.1175 178.371 83.7322C178.973 84.3336 179.447 85.0886 179.795 85.9974C180.155 86.9061 180.336 87.9552 180.336 89.1445C180.336 90.3339 180.155 91.383 179.795 92.2917C179.447 93.2004 178.973 93.9622 178.371 94.5769C177.77 95.1783 177.068 95.6326 176.267 95.94C175.478 96.2474 174.636 96.4011 173.741 96.4011C172.832 96.4011 171.97 96.2474 171.155 95.94C170.353 95.6326 169.645 95.1783 169.03 94.5769C168.429 93.9622 167.948 93.2004 167.587 92.2917C167.239 91.383 167.066 90.3339 167.066 89.1445ZM169.11 89.1445C169.11 89.9865 169.217 90.7549 169.431 91.4498C169.645 92.1313 169.946 92.7127 170.333 93.1938C170.734 93.6749 171.215 94.049 171.776 94.3163C172.351 94.5702 172.992 94.6972 173.701 94.6972C174.409 94.6972 175.044 94.5702 175.605 94.3163C176.166 94.049 176.641 93.6749 177.028 93.1938C177.429 92.7127 177.737 92.1313 177.95 91.4498C178.164 90.7549 178.271 89.9865 178.271 89.1445C178.271 88.3026 178.164 87.5409 177.95 86.8593C177.737 86.1644 177.429 85.5764 177.028 85.0953C176.641 84.6142 176.166 84.2467 175.605 83.9928C175.044 83.7255 174.409 83.5919 173.701 83.5919C172.992 83.5919 172.351 83.7255 171.776 83.9928C171.215 84.2467 170.734 84.6142 170.333 85.0953C169.946 85.5764 169.645 86.1644 169.431 86.8593C169.217 87.5409 169.11 88.3026 169.11 89.1445Z" fill="white"/>
<path d="M186.917 82.0684C188.868 82.0684 190.365 82.4426 191.407 83.191C192.463 83.926 192.991 85.0285 192.991 86.4985C192.991 87.3003 192.844 87.9886 192.55 88.5632C192.269 89.1245 191.855 89.5855 191.307 89.9464C190.773 90.2938 190.118 90.5477 189.343 90.7081C188.568 90.8685 187.692 90.9487 186.717 90.9487H185.173V96.1004H183.229V82.4092C183.777 82.2756 184.385 82.1887 185.053 82.1486C185.735 82.0952 186.356 82.0684 186.917 82.0684ZM187.078 83.7723C186.249 83.7723 185.614 83.7924 185.173 83.8325V89.2849H186.637C187.305 89.2849 187.906 89.2448 188.441 89.1646C188.975 89.071 189.423 88.924 189.784 88.7236C190.158 88.5098 190.445 88.2224 190.646 87.8616C190.846 87.5008 190.946 87.0398 190.946 86.4785C190.946 85.9439 190.839 85.5029 190.626 85.1555C190.425 84.808 190.145 84.534 189.784 84.3336C189.436 84.1198 189.029 83.9728 188.561 83.8926C188.093 83.8124 187.599 83.7723 187.078 83.7723Z" fill="white"/>
<path d="M114.608 123.282C114.327 123.282 114.019 123.276 113.685 123.262C113.365 123.249 113.037 123.229 112.703 123.202C112.382 123.175 112.062 123.142 111.741 123.102C111.42 123.062 111.126 123.008 110.859 122.941V109.471C111.126 109.404 111.42 109.351 111.741 109.31C112.062 109.27 112.382 109.237 112.703 109.21C113.037 109.183 113.365 109.163 113.685 109.15C114.006 109.137 114.307 109.13 114.587 109.13C115.389 109.13 116.138 109.19 116.833 109.31C117.541 109.431 118.149 109.638 118.657 109.932C119.178 110.212 119.585 110.587 119.88 111.054C120.174 111.522 120.321 112.097 120.321 112.778C120.321 113.54 120.14 114.168 119.779 114.663C119.418 115.144 118.937 115.505 118.336 115.745C119.151 115.986 119.799 116.366 120.28 116.888C120.762 117.409 121.002 118.144 121.002 119.093C121.002 120.483 120.488 121.532 119.459 122.24C118.443 122.935 116.826 123.282 114.608 123.282ZM112.783 116.687V121.578C112.93 121.592 113.104 121.605 113.305 121.618C113.478 121.632 113.679 121.645 113.906 121.659C114.146 121.659 114.42 121.659 114.728 121.659C115.302 121.659 115.844 121.625 116.351 121.558C116.873 121.478 117.327 121.344 117.715 121.157C118.102 120.97 118.409 120.71 118.637 120.376C118.877 120.042 118.997 119.621 118.997 119.113C118.997 118.658 118.911 118.278 118.737 117.97C118.563 117.649 118.309 117.396 117.975 117.208C117.654 117.021 117.267 116.888 116.813 116.808C116.358 116.727 115.85 116.687 115.289 116.687H112.783ZM112.783 115.124H114.828C115.309 115.124 115.763 115.09 116.191 115.023C116.619 114.957 116.986 114.836 117.294 114.663C117.614 114.489 117.862 114.262 118.035 113.981C118.222 113.7 118.316 113.346 118.316 112.919C118.316 112.518 118.222 112.184 118.035 111.916C117.848 111.636 117.588 111.415 117.254 111.255C116.933 111.081 116.552 110.954 116.111 110.874C115.67 110.794 115.202 110.754 114.708 110.754C114.213 110.754 113.826 110.76 113.545 110.774C113.264 110.787 113.011 110.807 112.783 110.834V115.124Z" fill="white"/>
<path d="M131.377 112.818C131.377 113.3 131.277 113.767 131.077 114.222C130.889 114.663 130.636 115.104 130.315 115.545C129.994 115.972 129.633 116.4 129.232 116.828C128.831 117.242 128.431 117.649 128.03 118.05C127.802 118.278 127.535 118.545 127.228 118.852C126.934 119.16 126.653 119.48 126.386 119.814C126.119 120.148 125.891 120.469 125.704 120.777C125.531 121.084 125.444 121.351 125.444 121.578H131.838V123.162H123.419C123.406 123.082 123.399 123.002 123.399 122.921C123.399 122.841 123.399 122.768 123.399 122.701C123.399 122.073 123.499 121.492 123.7 120.957C123.914 120.409 124.188 119.895 124.522 119.413C124.856 118.932 125.23 118.478 125.644 118.05C126.058 117.623 126.466 117.208 126.867 116.808C127.201 116.487 127.515 116.173 127.809 115.865C128.116 115.545 128.384 115.231 128.611 114.923C128.851 114.602 129.039 114.275 129.172 113.941C129.319 113.607 129.393 113.253 129.393 112.879C129.393 112.478 129.326 112.137 129.192 111.856C129.072 111.576 128.905 111.342 128.691 111.155C128.477 110.968 128.223 110.834 127.929 110.754C127.649 110.66 127.348 110.613 127.027 110.613C126.64 110.613 126.286 110.667 125.965 110.774C125.644 110.881 125.357 111.008 125.103 111.155C124.849 111.288 124.635 111.435 124.461 111.596C124.288 111.743 124.154 111.856 124.061 111.936L123.138 110.613C123.259 110.48 123.439 110.319 123.68 110.132C123.92 109.932 124.208 109.745 124.542 109.571C124.876 109.397 125.25 109.25 125.664 109.13C126.079 109.01 126.526 108.95 127.007 108.95C128.464 108.95 129.553 109.29 130.275 109.972C131.01 110.64 131.377 111.589 131.377 112.818Z" fill="white"/>
<path d="M138.803 123.282C138.523 123.282 138.215 123.276 137.881 123.262C137.56 123.249 137.233 123.229 136.899 123.202C136.578 123.175 136.257 123.142 135.937 123.102C135.616 123.062 135.322 123.008 135.055 122.941V109.471C135.322 109.404 135.616 109.351 135.937 109.31C136.257 109.27 136.578 109.237 136.899 109.21C137.233 109.183 137.56 109.163 137.881 109.15C138.202 109.137 138.503 109.13 138.783 109.13C139.585 109.13 140.333 109.19 141.028 109.31C141.737 109.431 142.345 109.638 142.852 109.932C143.374 110.212 143.781 110.587 144.075 111.054C144.369 111.522 144.516 112.097 144.516 112.778C144.516 113.54 144.336 114.168 143.975 114.663C143.614 115.144 143.133 115.505 142.532 115.745C143.347 115.986 143.995 116.366 144.476 116.888C144.957 117.409 145.198 118.144 145.198 119.093C145.198 120.483 144.683 121.532 143.654 122.24C142.639 122.935 141.022 123.282 138.803 123.282ZM136.979 116.687V121.578C137.126 121.592 137.3 121.605 137.5 121.618C137.674 121.632 137.874 121.645 138.102 121.659C138.342 121.659 138.616 121.659 138.923 121.659C139.498 121.659 140.039 121.625 140.547 121.558C141.068 121.478 141.523 121.344 141.91 121.157C142.298 120.97 142.605 120.71 142.832 120.376C143.073 120.042 143.193 119.621 143.193 119.113C143.193 118.658 143.106 118.278 142.933 117.97C142.759 117.649 142.505 117.396 142.171 117.208C141.85 117.021 141.463 116.888 141.008 116.808C140.554 116.727 140.046 116.687 139.485 116.687H136.979ZM136.979 115.124H139.024C139.505 115.124 139.959 115.09 140.387 115.023C140.814 114.957 141.182 114.836 141.489 114.663C141.81 114.489 142.057 114.262 142.231 113.981C142.418 113.7 142.512 113.346 142.512 112.919C142.512 112.518 142.418 112.184 142.231 111.916C142.044 111.636 141.783 111.415 141.449 111.255C141.128 111.081 140.748 110.954 140.307 110.874C139.866 110.794 139.398 110.754 138.903 110.754C138.409 110.754 138.021 110.76 137.741 110.774C137.46 110.787 137.206 110.807 136.979 110.834V115.124Z" fill="white"/>
<path d="M155.802 121.779C157.834 121.779 158.849 121.084 158.849 119.694C158.849 119.266 158.756 118.906 158.569 118.612C158.395 118.304 158.154 118.044 157.847 117.83C157.54 117.603 157.186 117.409 156.785 117.249C156.397 117.088 155.983 116.928 155.542 116.767C155.034 116.594 154.553 116.4 154.098 116.186C153.644 115.959 153.25 115.698 152.916 115.404C152.582 115.097 152.314 114.736 152.114 114.322C151.927 113.908 151.833 113.406 151.833 112.818C151.833 111.602 152.248 110.653 153.076 109.972C153.905 109.29 155.047 108.95 156.504 108.95C157.346 108.95 158.108 109.043 158.789 109.23C159.484 109.404 159.992 109.598 160.313 109.812L159.691 111.395C159.411 111.221 158.99 111.054 158.428 110.894C157.88 110.72 157.239 110.633 156.504 110.633C156.13 110.633 155.782 110.674 155.462 110.754C155.141 110.834 154.86 110.954 154.62 111.115C154.379 111.275 154.185 111.482 154.038 111.736C153.905 111.977 153.838 112.264 153.838 112.598C153.838 112.972 153.911 113.286 154.058 113.54C154.205 113.794 154.413 114.021 154.68 114.222C154.947 114.409 155.254 114.582 155.602 114.743C155.963 114.903 156.357 115.064 156.785 115.224C157.386 115.464 157.934 115.705 158.428 115.946C158.936 116.186 159.37 116.473 159.731 116.808C160.105 117.142 160.393 117.543 160.593 118.01C160.794 118.465 160.894 119.019 160.894 119.674C160.894 120.89 160.446 121.826 159.551 122.48C158.669 123.135 157.419 123.463 155.802 123.463C155.254 123.463 154.747 123.423 154.279 123.342C153.825 123.276 153.417 123.195 153.056 123.102C152.695 122.995 152.381 122.888 152.114 122.781C151.86 122.661 151.66 122.561 151.513 122.48L152.094 120.877C152.401 121.05 152.869 121.244 153.497 121.458C154.125 121.672 154.894 121.779 155.802 121.779Z" fill="white"/>
<path d="M163.244 123.162V109.27H171.723V110.934H165.188V115.064H171.001V116.687H165.188V121.498H172.224V123.162H163.244Z" fill="white"/>
<path d="M181.491 117.349C181.705 117.616 181.972 117.97 182.293 118.411C182.627 118.839 182.968 119.32 183.315 119.854C183.663 120.376 184.004 120.924 184.338 121.498C184.685 122.073 184.979 122.627 185.22 123.162H183.095C182.828 122.654 182.534 122.14 182.213 121.618C181.905 121.097 181.591 120.603 181.271 120.135C180.95 119.654 180.629 119.206 180.308 118.792C180.001 118.378 179.72 118.017 179.467 117.71C179.293 117.723 179.112 117.73 178.925 117.73C178.752 117.73 178.571 117.73 178.384 117.73H176.64V123.162H174.696V109.471C175.244 109.337 175.852 109.25 176.52 109.21C177.201 109.157 177.823 109.13 178.384 109.13C180.335 109.13 181.819 109.498 182.834 110.233C183.863 110.968 184.378 112.063 184.378 113.52C184.378 114.442 184.13 115.231 183.636 115.885C183.155 116.54 182.44 117.028 181.491 117.349ZM178.544 110.834C177.716 110.834 177.081 110.854 176.64 110.894V116.126H178.023C178.691 116.126 179.293 116.093 179.827 116.026C180.362 115.959 180.81 115.832 181.17 115.645C181.545 115.458 181.832 115.197 182.032 114.863C182.233 114.516 182.333 114.061 182.333 113.5C182.333 112.979 182.233 112.544 182.032 112.197C181.832 111.85 181.558 111.576 181.211 111.375C180.876 111.175 180.476 111.034 180.008 110.954C179.553 110.874 179.066 110.834 178.544 110.834Z" fill="white"/>
<path d="M198.332 109.27C197.824 110.74 197.337 112.103 196.869 113.36C196.415 114.602 195.967 115.785 195.526 116.908C195.085 118.03 194.644 119.106 194.203 120.135C193.775 121.151 193.334 122.16 192.88 123.162H191.056C190.601 122.16 190.154 121.151 189.713 120.135C189.285 119.106 188.844 118.03 188.39 116.908C187.949 115.785 187.494 114.602 187.027 113.36C186.559 112.103 186.078 110.74 185.583 109.27H187.728C188.45 111.382 189.158 113.413 189.853 115.364C190.548 117.315 191.263 119.146 191.998 120.857C192.733 119.16 193.448 117.335 194.143 115.384C194.838 113.42 195.539 111.382 196.248 109.27H198.332Z" fill="white"/>
<path d="M200.262 109.27H202.206V123.162H200.262V109.27Z" fill="white"/>
<path d="M211.619 123.463C210.643 123.463 209.754 123.302 208.953 122.982C208.151 122.661 207.463 122.193 206.888 121.578C206.313 120.964 205.866 120.209 205.545 119.313C205.237 118.404 205.084 117.369 205.084 116.206C205.084 115.043 205.257 114.014 205.605 113.119C205.966 112.21 206.447 111.449 207.048 110.834C207.65 110.219 208.351 109.751 209.153 109.431C209.955 109.11 210.81 108.95 211.719 108.95C212.293 108.95 212.808 108.99 213.262 109.07C213.73 109.15 214.131 109.244 214.465 109.351C214.813 109.457 215.093 109.564 215.307 109.671C215.521 109.778 215.668 109.858 215.748 109.912L215.187 111.515C215.066 111.435 214.893 111.348 214.666 111.255C214.438 111.161 214.178 111.068 213.884 110.974C213.603 110.881 213.289 110.807 212.942 110.754C212.608 110.687 212.267 110.653 211.919 110.653C211.184 110.653 210.523 110.78 209.935 111.034C209.347 111.288 208.846 111.656 208.431 112.137C208.017 112.618 207.696 113.206 207.469 113.901C207.255 114.582 207.148 115.351 207.148 116.206C207.148 117.035 207.242 117.79 207.429 118.471C207.63 119.153 207.924 119.741 208.311 120.235C208.699 120.716 209.18 121.091 209.754 121.358C210.342 121.625 211.024 121.759 211.799 121.759C212.694 121.759 213.436 121.665 214.024 121.478C214.612 121.291 215.053 121.124 215.347 120.977L215.848 122.581C215.755 122.647 215.588 122.734 215.347 122.841C215.107 122.935 214.806 123.028 214.445 123.122C214.084 123.215 213.663 123.296 213.182 123.362C212.701 123.429 212.18 123.463 211.619 123.463Z" fill="white"/>
<path d="M218.076 123.162V109.27H226.555V110.934H220.02V115.064H225.833V116.687H220.02V121.498H227.056V123.162H218.076Z" fill="white"/>
<path d="M232.755 121.779C234.786 121.779 235.802 121.084 235.802 119.694C235.802 119.266 235.708 118.906 235.521 118.612C235.347 118.304 235.107 118.044 234.8 117.83C234.492 117.603 234.138 117.409 233.737 117.249C233.35 117.088 232.935 116.928 232.494 116.767C231.986 116.594 231.505 116.4 231.051 116.186C230.597 115.959 230.202 115.698 229.868 115.404C229.534 115.097 229.267 114.736 229.066 114.322C228.879 113.908 228.786 113.406 228.786 112.818C228.786 111.602 229.2 110.653 230.029 109.972C230.857 109.29 232 108.95 233.456 108.95C234.298 108.95 235.06 109.043 235.742 109.23C236.437 109.404 236.944 109.598 237.265 109.812L236.644 111.395C236.363 111.221 235.942 111.054 235.381 110.894C234.833 110.72 234.191 110.633 233.456 110.633C233.082 110.633 232.735 110.674 232.414 110.754C232.093 110.834 231.813 110.954 231.572 111.115C231.332 111.275 231.138 111.482 230.991 111.736C230.857 111.977 230.79 112.264 230.79 112.598C230.79 112.972 230.864 113.286 231.011 113.54C231.158 113.794 231.365 114.021 231.632 114.222C231.9 114.409 232.207 114.582 232.554 114.743C232.915 114.903 233.309 115.064 233.737 115.224C234.338 115.464 234.886 115.705 235.381 115.946C235.889 116.186 236.323 116.473 236.684 116.808C237.058 117.142 237.345 117.543 237.546 118.01C237.746 118.465 237.846 119.019 237.846 119.674C237.846 120.89 237.399 121.826 236.503 122.48C235.621 123.135 234.372 123.463 232.755 123.463C232.207 123.463 231.699 123.423 231.231 123.342C230.777 123.276 230.369 123.195 230.009 123.102C229.648 122.995 229.334 122.888 229.066 122.781C228.813 122.661 228.612 122.561 228.465 122.48L229.046 120.877C229.354 121.05 229.822 121.244 230.45 121.458C231.078 121.672 231.846 121.779 232.755 121.779Z" fill="white"/>
<path d="M160.631 257.147C160.631 257.628 160.531 258.096 160.331 258.55C160.143 258.991 159.89 259.432 159.569 259.873C159.248 260.301 158.887 260.728 158.486 261.156C158.085 261.57 157.685 261.978 157.284 262.379C157.056 262.606 156.789 262.873 156.482 263.181C156.188 263.488 155.907 263.809 155.64 264.143C155.373 264.477 155.145 264.798 154.958 265.105C154.785 265.412 154.698 265.68 154.698 265.907H161.092V267.49H152.673C152.66 267.41 152.653 267.33 152.653 267.25C152.653 267.17 152.653 267.096 152.653 267.029C152.653 266.401 152.753 265.82 152.954 265.285C153.168 264.738 153.442 264.223 153.776 263.742C154.11 263.261 154.484 262.806 154.898 262.379C155.312 261.951 155.72 261.537 156.121 261.136C156.455 260.815 156.769 260.501 157.063 260.194C157.37 259.873 157.638 259.559 157.865 259.252C158.105 258.931 158.293 258.604 158.426 258.269C158.573 257.935 158.647 257.581 158.647 257.207C158.647 256.806 158.58 256.465 158.446 256.185C158.326 255.904 158.159 255.67 157.945 255.483C157.731 255.296 157.477 255.162 157.183 255.082C156.903 254.989 156.602 254.942 156.281 254.942C155.894 254.942 155.54 254.995 155.219 255.102C154.898 255.209 154.611 255.336 154.357 255.483C154.103 255.617 153.889 255.764 153.715 255.924C153.542 256.071 153.408 256.185 153.315 256.265L152.392 254.942C152.513 254.808 152.693 254.648 152.934 254.461C153.174 254.26 153.462 254.073 153.796 253.9C154.13 253.726 154.504 253.579 154.918 253.459C155.332 253.338 155.78 253.278 156.261 253.278C157.718 253.278 158.807 253.619 159.529 254.3C160.264 254.969 160.631 255.917 160.631 257.147Z" fill="white"/>
<path d="M163.587 260.535C163.587 258.209 163.995 256.419 164.81 255.162C165.638 253.906 166.781 253.278 168.238 253.278C169.694 253.278 170.83 253.906 171.645 255.162C172.474 256.419 172.888 258.209 172.888 260.535C172.888 262.86 172.474 264.651 171.645 265.907C170.83 267.163 169.694 267.791 168.238 267.791C166.781 267.791 165.638 267.163 164.81 265.907C163.995 264.651 163.587 262.86 163.587 260.535ZM170.924 260.535C170.924 259.773 170.877 259.051 170.783 258.37C170.703 257.688 170.556 257.093 170.342 256.586C170.142 256.078 169.868 255.677 169.521 255.383C169.173 255.076 168.745 254.922 168.238 254.922C167.73 254.922 167.302 255.076 166.955 255.383C166.607 255.677 166.327 256.078 166.113 256.586C165.912 257.093 165.765 257.688 165.672 258.37C165.592 259.051 165.551 259.773 165.551 260.535C165.551 261.296 165.592 262.018 165.672 262.7C165.765 263.381 165.912 263.976 166.113 264.484C166.327 264.991 166.607 265.399 166.955 265.706C167.302 266 167.73 266.147 168.238 266.147C168.745 266.147 169.173 266 169.521 265.706C169.868 265.399 170.142 264.991 170.342 264.484C170.556 263.976 170.703 263.381 170.783 262.7C170.877 262.018 170.924 261.296 170.924 260.535Z" fill="white"/>
<path d="M183.261 257.147C183.261 257.628 183.161 258.096 182.96 258.55C182.773 258.991 182.519 259.432 182.198 259.873C181.878 260.301 181.517 260.728 181.116 261.156C180.715 261.57 180.314 261.978 179.913 262.379C179.686 262.606 179.419 262.873 179.111 263.181C178.817 263.488 178.537 263.809 178.269 264.143C178.002 264.477 177.775 264.798 177.588 265.105C177.414 265.412 177.327 265.68 177.327 265.907H183.722V267.49H175.303C175.289 267.41 175.283 267.33 175.283 267.25C175.283 267.17 175.283 267.096 175.283 267.029C175.283 266.401 175.383 265.82 175.583 265.285C175.797 264.738 176.071 264.223 176.405 263.742C176.739 263.261 177.114 262.806 177.528 262.379C177.942 261.951 178.35 261.537 178.751 261.136C179.085 260.815 179.399 260.501 179.693 260.194C180 259.873 180.267 259.559 180.495 259.252C180.735 258.931 180.922 258.604 181.056 258.269C181.203 257.935 181.276 257.581 181.276 257.207C181.276 256.806 181.21 256.465 181.076 256.185C180.956 255.904 180.789 255.67 180.575 255.483C180.361 255.296 180.107 255.162 179.813 255.082C179.532 254.989 179.232 254.942 178.911 254.942C178.523 254.942 178.169 254.995 177.849 255.102C177.528 255.209 177.24 255.336 176.987 255.483C176.733 255.617 176.519 255.764 176.345 255.924C176.171 256.071 176.038 256.185 175.944 256.265L175.022 254.942C175.142 254.808 175.323 254.648 175.563 254.461C175.804 254.26 176.091 254.073 176.425 253.9C176.759 253.726 177.134 253.579 177.548 253.459C177.962 253.338 178.41 253.278 178.891 253.278C180.348 253.278 181.437 253.619 182.158 254.3C182.893 254.969 183.261 255.917 183.261 257.147Z" fill="white"/>
<path d="M194.576 257.147C194.576 257.628 194.475 258.096 194.275 258.55C194.088 258.991 193.834 259.432 193.513 259.873C193.193 260.301 192.832 260.728 192.431 261.156C192.03 261.57 191.629 261.978 191.228 262.379C191.001 262.606 190.734 262.873 190.426 263.181C190.132 263.488 189.852 263.809 189.584 264.143C189.317 264.477 189.09 264.798 188.903 265.105C188.729 265.412 188.642 265.68 188.642 265.907H195.037V267.49H186.618C186.604 267.41 186.598 267.33 186.598 267.25C186.598 267.17 186.598 267.096 186.598 267.029C186.598 266.401 186.698 265.82 186.898 265.285C187.112 264.738 187.386 264.223 187.72 263.742C188.054 263.261 188.428 262.806 188.843 262.379C189.257 261.951 189.664 261.537 190.065 261.136C190.399 260.815 190.714 260.501 191.008 260.194C191.315 259.873 191.582 259.559 191.809 259.252C192.05 258.931 192.237 258.604 192.371 258.269C192.518 257.935 192.591 257.581 192.591 257.207C192.591 256.806 192.524 256.465 192.391 256.185C192.27 255.904 192.103 255.67 191.89 255.483C191.676 255.296 191.422 255.162 191.128 255.082C190.847 254.989 190.546 254.942 190.226 254.942C189.838 254.942 189.484 254.995 189.163 255.102C188.843 255.209 188.555 255.336 188.301 255.483C188.047 255.617 187.834 255.764 187.66 255.924C187.486 256.071 187.353 256.185 187.259 256.265L186.337 254.942C186.457 254.808 186.638 254.648 186.878 254.461C187.119 254.26 187.406 254.073 187.74 253.9C188.074 253.726 188.448 253.579 188.863 253.459C189.277 253.338 189.725 253.278 190.206 253.278C191.662 253.278 192.752 253.619 193.473 254.3C194.208 254.969 194.576 255.917 194.576 257.147Z" fill="white"/>
<path d="M139.105 240.73C138.196 240.73 137.408 240.589 136.74 240.309C136.072 240.028 135.524 239.647 135.096 239.166C134.668 238.672 134.348 238.09 134.134 237.422C133.933 236.754 133.833 236.032 133.833 235.257V226.537H135.778V235.037C135.778 236.426 136.085 237.435 136.7 238.063C137.314 238.692 138.116 239.006 139.105 239.006C139.6 239.006 140.047 238.932 140.448 238.785C140.863 238.625 141.217 238.384 141.511 238.063C141.805 237.743 142.032 237.335 142.192 236.841C142.353 236.333 142.433 235.732 142.433 235.037V226.537H144.377V235.257C144.377 236.032 144.27 236.754 144.056 237.422C143.856 238.09 143.535 238.672 143.094 239.166C142.667 239.647 142.119 240.028 141.451 240.309C140.796 240.589 140.014 240.73 139.105 240.73Z" fill="white"/>
<path d="M158.018 226.537C157.603 226.992 157.136 227.499 156.615 228.061C156.093 228.609 155.545 229.177 154.971 229.765C154.41 230.339 153.848 230.907 153.287 231.468C152.726 232.03 152.198 232.551 151.703 233.032C152.278 233.433 152.886 233.927 153.528 234.515C154.169 235.103 154.797 235.732 155.412 236.4C156.027 237.068 156.601 237.749 157.136 238.444C157.684 239.139 158.138 239.801 158.499 240.429H156.214C155.813 239.801 155.352 239.173 154.831 238.545C154.309 237.903 153.755 237.295 153.167 236.72C152.592 236.132 152.004 235.591 151.403 235.097C150.815 234.602 150.24 234.181 149.679 233.834V240.429H147.734V226.537H149.679V232.671C150.147 232.23 150.661 231.736 151.222 231.188C151.784 230.627 152.338 230.065 152.886 229.504C153.434 228.943 153.948 228.408 154.43 227.9C154.924 227.379 155.338 226.925 155.672 226.537H158.018Z" fill="white"/>
<path d="M167.137 234.616C167.35 234.883 167.618 235.237 167.938 235.678C168.273 236.106 168.613 236.587 168.961 237.121C169.308 237.643 169.649 238.19 169.983 238.765C170.331 239.34 170.625 239.894 170.865 240.429H168.74C168.473 239.921 168.179 239.407 167.858 238.885C167.551 238.364 167.237 237.87 166.916 237.402C166.595 236.921 166.275 236.473 165.954 236.059C165.647 235.645 165.366 235.284 165.112 234.976C164.938 234.99 164.758 234.997 164.571 234.997C164.397 234.997 164.217 234.997 164.03 234.997H162.286V240.429H160.341V226.738C160.889 226.604 161.497 226.517 162.165 226.477C162.847 226.424 163.468 226.397 164.03 226.397C165.981 226.397 167.464 226.764 168.48 227.499C169.509 228.234 170.023 229.33 170.023 230.787C170.023 231.709 169.776 232.497 169.282 233.152C168.8 233.807 168.085 234.295 167.137 234.616ZM164.19 228.101C163.361 228.101 162.727 228.121 162.286 228.161V233.393H163.669C164.337 233.393 164.938 233.359 165.473 233.293C166.007 233.226 166.455 233.099 166.816 232.912C167.19 232.725 167.477 232.464 167.678 232.13C167.878 231.783 167.979 231.328 167.979 230.767C167.979 230.246 167.878 229.811 167.678 229.464C167.477 229.116 167.203 228.842 166.856 228.642C166.522 228.442 166.121 228.301 165.653 228.221C165.199 228.141 164.711 228.101 164.19 228.101Z" fill="white"/>
<path d="M182.797 240.429C182.57 239.828 182.356 239.24 182.155 238.665C181.955 238.077 181.748 237.482 181.534 236.881H175.24L173.977 240.429H171.952C172.487 238.959 172.988 237.602 173.456 236.36C173.923 235.103 174.378 233.914 174.819 232.791C175.273 231.669 175.721 230.6 176.162 229.584C176.603 228.555 177.064 227.54 177.545 226.537H179.329C179.81 227.54 180.271 228.555 180.712 229.584C181.153 230.6 181.594 231.669 182.035 232.791C182.489 233.914 182.95 235.103 183.418 236.36C183.886 237.602 184.387 238.959 184.922 240.429H182.797ZM180.973 235.277C180.545 234.115 180.117 232.992 179.69 231.909C179.275 230.814 178.841 229.765 178.387 228.762C177.919 229.765 177.471 230.814 177.044 231.909C176.629 232.992 176.215 234.115 175.801 235.277H180.973Z" fill="white"/>
<path d="M186.808 226.537H188.752V240.429H186.808V226.537Z" fill="white"/>
<path d="M201.713 240.429C201.419 239.934 201.078 239.38 200.69 238.765C200.316 238.15 199.909 237.516 199.468 236.861C199.027 236.193 198.566 235.518 198.084 234.836C197.617 234.155 197.149 233.5 196.681 232.872C196.213 232.23 195.759 231.629 195.318 231.068C194.877 230.506 194.47 230.012 194.095 229.584V240.429H192.191V226.537H193.735C194.363 227.205 195.031 227.987 195.739 228.883C196.461 229.765 197.169 230.68 197.864 231.629C198.572 232.564 199.234 233.486 199.848 234.395C200.477 235.304 201.004 236.112 201.432 236.821V226.537H203.336V240.429H201.713Z" fill="white"/>
<path d="M206.775 240.429V226.537H215.254V228.201H208.719V232.33H214.533V233.954H208.719V238.765H215.755V240.429H206.775Z" fill="white"/>
</svg>
