<svg viewBox="0 0 348 348" fill="none" xmlns="http://www.w3.org/2000/svg">
<path d="M159.961 59V60.6114C162.786 60.6114 163.85 62.1816 163.85 63.6969H186.667C186.667 62.26 184.248 59 180.14 59L165.435 59.0056V59.0111L159.961 59Z" fill="white"/>
<path d="M177.273 72.0177H181.03C184.279 72.0177 186.667 68.2487 186.667 67.3202H177.273V72.0177Z" fill="white"/>
<path d="M173.112 67.3202H163.85V72.0172H173.112V67.3202Z" fill="white"/>
<path d="M163.85 80.3368H173.112V75.6411H163.85V80.3368Z" fill="white"/>
<path d="M181.433 75.64H177.273V80.3368H187.743C187.743 79.0171 185.649 75.6411 181.433 75.64Z" fill="white"/>
<path d="M173.112 83.9613H163.85C163.85 85.566 162.764 87.0479 159.961 87.0473V88.6587H181.57C184.731 88.6587 187.743 85.6216 187.743 83.9646L177.273 83.9613V85.9744H173.112V83.9613Z" fill="white"/>
<path fill-rule="evenodd" clip-rule="evenodd" d="M177.08 105.41C177.185 105.455 177.298 105.48 177.412 105.482C177.56 105.484 177.708 105.483 177.858 105.479C178.262 106.704 179.352 107.736 180.933 108.367C181.092 108.431 181.256 108.49 181.424 108.545C183.685 109.293 186.542 109.111 189.063 108.057C189.172 108.011 189.27 107.945 189.351 107.861C189.433 107.777 189.497 107.677 189.54 107.568C189.583 107.459 189.603 107.342 189.599 107.225C189.596 107.108 189.569 106.993 189.52 106.886C188.942 105.63 187.558 104.744 185.409 104.248C186.621 103.847 187.8 103.353 188.936 102.77C189.324 103.171 189.794 103.483 190.314 103.686C191.27 104.04 192.3 104.145 193.307 103.992C195.583 103.709 198.042 102.35 199.887 100.36C199.967 100.274 200.029 100.172 200.069 100.061C200.108 99.9504 200.125 99.8326 200.118 99.7151C200.112 99.5975 200.081 99.4825 200.029 99.3771C199.976 99.2716 199.903 99.1779 199.813 99.1015C198.766 98.2094 197.158 97.986 195.031 98.4324C195.911 97.5958 196.734 96.7028 197.497 95.7589C197.52 95.7306 197.542 95.7018 197.564 95.6735C198.491 96.0409 200.026 96.2198 202.076 94.978C204.062 93.7825 205.785 91.5474 206.686 89.0008C206.726 88.888 206.742 88.7682 206.734 88.6488C206.726 88.5293 206.693 88.4129 206.638 88.3067C206.582 88.2005 206.506 88.1068 206.413 88.0315C206.32 87.9562 206.212 87.9008 206.097 87.8688C204.776 87.5036 203.201 87.9673 201.416 89.2432C201.909 88.0938 202.32 86.9111 202.647 85.7039C204.052 85.6315 205.456 84.7328 206.525 83.182C207.875 81.234 208.503 78.4428 208.202 75.7218C208.189 75.6039 208.152 75.4898 208.093 75.3866C208.035 75.2833 207.956 75.1932 207.861 75.1217C207.767 75.05 207.658 74.9985 207.543 74.9702C207.428 74.942 207.308 74.9376 207.191 74.9572C205.828 75.1853 204.626 76.2604 203.524 78.2358C203.473 76.8116 203.296 75.3947 202.995 74.0017C203.578 71.9004 203.193 69.2925 201.947 66.9705C200.671 64.5614 198.444 62.5119 196.15 61.6277C195.996 61.5683 195.828 61.5537 195.666 61.5857C195.505 61.6176 195.355 61.6947 195.235 61.8081C195.115 61.9215 195.03 62.0666 194.989 62.2264C194.949 62.3863 194.954 62.5544 195.005 62.7113C195.754 64.9216 196.696 67.0635 197.815 69.1113C198.768 70.9921 199.933 72.7577 201.287 74.3733C201.567 75.6632 201.733 76.9753 201.781 78.2943C200.735 76.7714 199.191 75.9566 197.604 76.1071C197.486 76.1183 197.373 76.1529 197.269 76.209C197.166 76.2652 197.075 76.3416 197.002 76.4338C196.928 76.526 196.875 76.6321 196.843 76.7455C196.812 76.8591 196.804 76.9777 196.82 77.0943C197.034 78.8963 197.536 80.6521 198.307 82.2946C199.037 83.7739 199.923 84.7864 200.946 85.3206C200.644 86.4215 200.267 87.5004 199.818 88.5497C199.507 86.7441 198.483 85.416 196.981 84.8814C196.871 84.8423 196.754 84.8257 196.638 84.8324C196.522 84.8391 196.408 84.8691 196.304 84.9205C196.199 84.9718 196.106 85.0436 196.03 85.1316C195.953 85.2196 195.895 85.322 195.859 85.4327C195.278 87.1419 194.996 88.9386 195.027 90.7436C195.078 92.3803 195.473 93.6979 196.178 94.6166L196.164 94.6346L196.141 94.6643C195.443 95.5275 194.691 96.3452 193.889 97.1124C194.333 95.3247 193.952 93.6805 192.82 92.5666C192.736 92.4836 192.635 92.4187 192.525 92.3757C192.415 92.3327 192.297 92.3127 192.178 92.3169C192.06 92.321 191.944 92.3492 191.837 92.3998C191.729 92.4503 191.634 92.5221 191.555 92.6109C190.34 93.959 189.361 95.5023 188.659 97.1758C188.026 98.7383 187.844 100.098 188.111 101.232C187.087 101.756 186.025 102.203 184.934 102.569C186.114 101.13 186.469 99.462 185.903 97.9501C185.862 97.8387 185.798 97.7369 185.715 97.6512C185.633 97.5654 185.534 97.4974 185.424 97.4514C185.314 97.4053 185.196 97.3823 185.077 97.3836C184.958 97.3849 184.841 97.4105 184.732 97.4588C183.058 98.1873 181.503 99.1621 180.117 100.351C178.833 101.481 178.056 102.616 177.792 103.736C177.757 103.736 177.722 103.736 177.687 103.737L177.681 103.737C177.602 103.737 177.522 103.737 177.442 103.736C177.327 103.734 177.213 103.755 177.107 103.797C177 103.839 176.903 103.901 176.82 103.981C176.738 104.061 176.672 104.156 176.626 104.261C176.58 104.366 176.556 104.48 176.554 104.594C176.552 104.709 176.573 104.823 176.615 104.929C176.657 105.036 176.72 105.133 176.799 105.216C176.879 105.298 176.974 105.364 177.08 105.41ZM181.267 101.664C182.227 100.835 183.283 100.125 184.413 99.5482C184.331 100.332 183.988 101.068 183.438 101.633C182.43 102.674 181.112 103.363 179.682 103.597C180.077 102.854 180.616 102.197 181.267 101.664ZM198.132 89.0749L198.132 89.0773C198.252 90.4627 197.947 91.8517 197.256 93.0589C196.934 92.3114 196.768 91.5055 196.77 90.6913C196.746 89.4558 196.893 88.2229 197.21 87.0284C197.751 87.5788 198.079 88.3045 198.132 89.0749ZM197.732 100.018C196.427 101.19 194.817 101.968 193.088 102.262C192.246 102.414 191.376 102.286 190.614 101.896C192.039 101.171 193.54 100.604 195.09 100.208C195.949 99.9671 196.847 99.9022 197.732 100.018ZM192.138 94.6428C192.387 95.3794 192.386 96.1778 192.134 96.9136L192.134 96.9148L192.133 96.9164C191.69 98.2378 190.855 99.3933 189.74 100.23C189.759 99.4032 189.941 98.5882 190.276 97.8321C190.751 96.6906 191.377 95.6179 192.138 94.6428ZM200.455 79.4583L200.457 79.4614C201.156 80.6769 201.453 82.0818 201.307 83.4761C200.699 82.9312 200.21 82.2666 199.872 81.524C199.334 80.393 198.949 79.1957 198.726 77.9635C198.745 77.9697 198.764 77.9764 198.783 77.9835C198.804 77.9915 198.825 77.9999 198.846 78.0083C199.523 78.3087 200.086 78.8165 200.455 79.4583ZM197.48 64.3668C198.691 65.2851 199.689 66.4545 200.405 67.7949C201.079 69.0431 201.459 70.4292 201.515 71.8467C200.721 70.7072 200 69.5187 199.355 68.2883C198.611 66.8874 197.984 65.5758 197.48 64.3668ZM204.903 79.3514C205.3 78.5229 205.852 77.778 206.529 77.157C206.546 78.9389 206.047 80.6877 205.091 82.1921C204.631 82.932 203.952 83.5098 203.148 83.8453C203.584 82.2933 204.172 80.7881 204.903 79.3514ZM204.552 89.577C203.809 91.1667 202.639 92.5195 201.174 93.485C200.462 93.9654 199.617 94.2093 198.759 94.182C199.776 92.9479 200.925 91.8288 202.186 90.8448C202.885 90.2732 203.689 89.8426 204.552 89.577ZM187.251 106.847C185.531 107.373 183.696 107.388 181.968 106.89C180.756 106.493 180.121 105.944 179.788 105.465C181.447 105.446 183.103 105.589 184.735 105.891C185.629 106.036 186.486 106.362 187.251 106.847Z" fill="white"/>
<path fill-rule="evenodd" clip-rule="evenodd" d="M171.564 105.482C171.678 105.48 171.791 105.455 171.897 105.41C172.002 105.364 172.097 105.298 172.177 105.216C172.256 105.133 172.319 105.036 172.361 104.929C172.403 104.823 172.424 104.709 172.422 104.594C172.42 104.48 172.396 104.366 172.35 104.261C172.304 104.156 172.238 104.061 172.156 103.981C172.073 103.901 171.976 103.839 171.869 103.797C171.763 103.755 171.649 103.734 171.534 103.736C171.454 103.737 171.375 103.737 171.295 103.737L171.234 103.736L171.184 103.736C170.92 102.616 170.143 101.481 168.859 100.351C167.473 99.1621 165.918 98.1873 164.244 97.4588C164.135 97.4105 164.018 97.3849 163.899 97.3836C163.78 97.3823 163.662 97.4053 163.552 97.4514C163.442 97.4974 163.343 97.5654 163.261 97.6512C163.178 97.7369 163.114 97.8387 163.073 97.9501C162.507 99.462 162.862 101.13 164.042 102.569C162.951 102.203 161.889 101.756 160.865 101.232C161.132 100.098 160.95 98.7383 160.317 97.1758C159.615 95.5023 158.636 93.959 157.421 92.6109C157.342 92.5221 157.247 92.4503 157.139 92.3998C157.032 92.3492 156.916 92.321 156.798 92.3169C156.679 92.3127 156.561 92.3327 156.451 92.3757C156.341 92.4187 156.24 92.4836 156.156 92.5666C155.024 93.6805 154.643 95.3247 155.087 97.1124C154.285 96.3452 153.533 95.5275 152.835 94.6643C152.827 94.6535 152.819 94.6431 152.81 94.6324L152.798 94.6166C153.503 93.6979 153.898 92.3803 153.949 90.7436C153.98 88.9386 153.698 87.1419 153.117 85.4327C153.081 85.322 153.023 85.2196 152.947 85.1316C152.87 85.0436 152.777 84.9718 152.672 84.9205C152.568 84.8691 152.454 84.8391 152.338 84.8324C152.222 84.8257 152.105 84.8423 151.995 84.8814C150.493 85.416 149.469 86.7441 149.158 88.5497C148.709 87.5004 148.332 86.4215 148.031 85.3206C149.053 84.7864 149.939 83.7739 150.669 82.2946C151.44 80.6521 151.942 78.8963 152.156 77.0943C152.172 76.9777 152.164 76.8591 152.133 76.7455C152.101 76.6321 152.048 76.526 151.974 76.4338C151.901 76.3416 151.81 76.2652 151.707 76.209C151.603 76.1529 151.49 76.1183 151.372 76.1071C149.785 75.9566 148.241 76.7714 147.195 78.2943C147.244 76.9753 147.409 75.6632 147.689 74.3733C149.043 72.7577 150.21 70.9913 151.163 69.1104C152.282 67.0626 153.222 64.9216 153.971 62.7113C154.022 62.5544 154.027 62.3863 153.987 62.2264C153.946 62.0666 153.861 61.9215 153.741 61.8081C153.621 61.6947 153.471 61.6176 153.31 61.5857C153.148 61.5537 152.98 61.5683 152.826 61.6277C150.532 62.5119 148.305 64.5614 147.029 66.9705C145.783 69.2925 145.398 71.9004 145.981 74.0017C145.68 75.3947 145.503 76.8116 145.452 78.2358C144.35 76.2604 143.148 75.1853 141.785 74.9572C141.668 74.9376 141.548 74.942 141.433 74.9702C141.318 74.9985 141.209 75.05 141.115 75.1217C141.02 75.1932 140.941 75.2833 140.883 75.3866C140.824 75.4898 140.787 75.6039 140.774 75.7218C140.473 78.4428 141.101 81.234 142.451 83.182C143.52 84.7328 144.924 85.6315 146.329 85.7039C146.656 86.9111 147.067 88.0938 147.56 89.2432C145.775 87.9673 144.2 87.5036 142.879 87.8688C142.764 87.9008 142.656 87.9562 142.563 88.0315C142.47 88.1068 142.394 88.2005 142.339 88.3067C142.283 88.4129 142.25 88.5293 142.242 88.6488C142.234 88.7682 142.25 88.888 142.29 89.0008C143.191 91.5474 144.914 93.7825 146.9 94.978C148.95 96.2198 150.485 96.0409 151.412 95.6735L151.43 95.6969L151.446 95.7175C151.457 95.7313 151.468 95.7451 151.479 95.7589C152.242 96.7028 153.066 97.5958 153.945 98.4324C151.818 97.986 150.21 98.2094 149.163 99.1015C149.073 99.1779 149 99.2716 148.948 99.3771C148.895 99.4825 148.864 99.5975 148.858 99.7151C148.851 99.8326 148.868 99.9504 148.907 100.061C148.947 100.172 149.009 100.274 149.089 100.36C150.934 102.35 153.393 103.709 155.669 103.992C156.676 104.145 157.706 104.04 158.662 103.686C159.182 103.483 159.652 103.171 160.04 102.77C161.176 103.353 162.355 103.847 163.567 104.248C161.418 104.744 160.034 105.63 159.456 106.886C159.407 106.993 159.38 107.108 159.377 107.225C159.373 107.342 159.393 107.459 159.436 107.568C159.479 107.677 159.543 107.777 159.625 107.861C159.707 107.945 159.804 108.011 159.913 108.057C162.434 109.111 165.291 109.293 167.552 108.545C167.72 108.49 167.884 108.431 168.043 108.367C169.624 107.736 170.714 106.704 171.118 105.479C171.268 105.483 171.416 105.484 171.564 105.482ZM164.563 99.5482C165.693 100.125 166.749 100.835 167.709 101.664C168.361 102.197 168.899 102.854 169.294 103.597C167.864 103.363 166.546 102.672 165.537 101.631C164.988 101.066 164.645 100.332 164.563 99.5482ZM150.844 89.0773L150.844 89.0749C150.897 88.3045 151.225 87.5788 151.766 87.0284C152.083 88.2229 152.231 89.4558 152.206 90.6913C152.208 91.5055 152.042 92.3114 151.72 93.0589C151.03 91.8517 150.724 90.4627 150.844 89.0773ZM155.888 102.262C154.159 101.968 152.549 101.19 151.244 100.018C152.129 99.9022 153.027 99.9671 153.886 100.208C155.436 100.604 156.937 101.171 158.362 101.896C157.6 102.286 156.731 102.414 155.888 102.262ZM156.842 96.9148L156.842 96.9136C156.59 96.1778 156.589 95.3794 156.838 94.6428C157.599 95.6179 158.225 96.6906 158.7 97.8321C159.035 98.5882 159.217 99.4032 159.236 100.23C158.121 99.3933 157.287 98.2378 156.843 96.9164L156.842 96.9148ZM148.519 79.4614L148.521 79.4583C148.89 78.8165 149.453 78.3087 150.13 78.0083L150.146 78.0017L150.181 77.9881C150.204 77.9793 150.227 77.971 150.25 77.9635C150.027 79.1957 149.642 80.393 149.104 81.524C148.766 82.2666 148.277 82.9312 147.669 83.4761C147.523 82.0818 147.821 80.6769 148.519 79.4614ZM148.571 67.7949C149.287 66.4545 150.285 65.2851 151.496 64.3668C150.992 65.5758 150.365 66.8874 149.621 68.2883C148.976 69.5187 148.255 70.7072 147.461 71.8467C147.517 70.4292 147.897 69.0431 148.571 67.7949ZM142.447 77.157C143.124 77.778 143.676 78.5229 144.073 79.3514C144.804 80.7881 145.392 82.2933 145.828 83.8453C145.024 83.5098 144.345 82.932 143.885 82.1921C142.929 80.6877 142.43 78.9389 142.447 77.157ZM147.802 93.485C146.337 92.5195 145.167 91.1667 144.424 89.577C145.287 89.8426 146.091 90.2732 146.79 90.8448C148.051 91.8288 149.2 92.9479 150.217 94.182C149.359 94.2093 148.514 93.9654 147.802 93.485ZM167.008 106.89C165.28 107.388 163.445 107.373 161.725 106.847C162.491 106.362 163.347 106.036 164.241 105.891C165.873 105.589 167.529 105.446 169.188 105.465C168.855 105.944 168.22 106.493 167.008 106.89Z" fill="white"/>
<path d="M91.376 130V131.719H96.4072V146H98.3447V131.719H103.376V130H91.376Z" fill="white"/>
<path fill-rule="evenodd" clip-rule="evenodd" d="M109.407 146.25C108.251 146.25 107.254 145.995 106.415 145.484C105.582 144.969 104.938 144.25 104.485 143.328C104.037 142.401 103.813 141.323 103.813 140.094C103.813 138.865 104.037 137.781 104.485 136.844C104.938 135.901 105.569 135.167 106.376 134.641C107.188 134.109 108.136 133.844 109.22 133.844C109.845 133.844 110.462 133.948 111.071 134.156C111.681 134.365 112.235 134.703 112.735 135.172C113.235 135.635 113.634 136.25 113.931 137.016C114.228 137.781 114.376 138.724 114.376 139.844V140.625H105.661C105.688 141.423 105.843 142.108 106.126 142.68C106.444 143.305 106.884 143.781 107.446 144.109C108.009 144.432 108.662 144.594 109.407 144.594C109.892 144.594 110.329 144.526 110.72 144.391C111.116 144.25 111.457 144.042 111.743 143.766C112.03 143.484 112.251 143.135 112.407 142.719L114.188 143.219C114.001 143.823 113.686 144.354 113.243 144.812C112.8 145.266 112.254 145.62 111.603 145.875C110.951 146.125 110.22 146.25 109.407 146.25ZM106.087 137.453C105.841 137.949 105.701 138.475 105.666 139.031H112.501C112.501 138.354 112.366 137.75 112.095 137.219C111.829 136.688 111.449 136.268 110.954 135.961C110.465 135.654 109.886 135.5 109.22 135.5C108.485 135.5 107.85 135.682 107.313 136.047C106.782 136.406 106.373 136.875 106.087 137.453Z" fill="white"/>
<path d="M119.149 145.453C119.962 145.984 120.931 146.25 122.056 146.25C122.941 146.25 123.717 146.086 124.384 145.758C125.056 145.424 125.595 144.977 126.001 144.414C126.412 143.846 126.67 143.208 126.774 142.5H124.931C124.816 142.938 124.623 143.312 124.353 143.625C124.082 143.938 123.751 144.177 123.36 144.344C122.97 144.51 122.535 144.594 122.056 144.594C121.326 144.594 120.691 144.404 120.149 144.023C119.613 143.643 119.196 143.109 118.899 142.422C118.608 141.734 118.462 140.927 118.462 140C118.462 139.094 118.61 138.305 118.907 137.633C119.209 136.956 119.629 136.432 120.165 136.062C120.707 135.688 121.337 135.5 122.056 135.5C122.868 135.5 123.514 135.714 123.993 136.141C124.478 136.562 124.79 137.047 124.931 137.594H126.774C126.67 136.844 126.402 136.188 125.97 135.625C125.537 135.062 124.983 134.625 124.306 134.312C123.629 134 122.868 133.844 122.024 133.844C120.941 133.844 119.993 134.109 119.181 134.641C118.373 135.167 117.743 135.898 117.29 136.836C116.842 137.768 116.618 138.844 116.618 140.062C116.618 141.26 116.837 142.326 117.274 143.258C117.712 144.19 118.337 144.922 119.149 145.453Z" fill="white"/>
<path d="M131.313 138.781V146H129.47V130H131.313V135.875H131.47C131.751 135.255 132.173 134.763 132.735 134.398C133.303 134.029 134.058 133.844 135.001 133.844C135.819 133.844 136.535 134.008 137.149 134.336C137.764 134.659 138.241 135.156 138.579 135.828C138.923 136.495 139.095 137.344 139.095 138.375V146H137.251V138.5C137.251 137.547 137.004 136.81 136.509 136.289C136.019 135.763 135.34 135.5 134.47 135.5C133.866 135.5 133.324 135.628 132.845 135.883C132.371 136.138 131.996 136.51 131.72 137C131.449 137.49 131.313 138.083 131.313 138.781Z" fill="white"/>
<path fill-rule="evenodd" clip-rule="evenodd" d="M142.718 130V146H148.499C149.759 146 150.783 145.812 151.569 145.438C152.356 145.062 152.931 144.555 153.296 143.914C153.66 143.273 153.843 142.552 153.843 141.75C153.843 140.906 153.676 140.193 153.343 139.609C153.009 139.026 152.595 138.578 152.101 138.266C151.606 137.953 151.114 137.781 150.624 137.75V137.594C151.082 137.469 151.507 137.276 151.897 137.016C152.293 136.755 152.611 136.401 152.851 135.953C153.095 135.505 153.218 134.938 153.218 134.25C153.218 133.469 153.041 132.758 152.687 132.117C152.332 131.471 151.793 130.958 151.069 130.578C150.345 130.193 149.426 130 148.312 130H142.718ZM148.499 144.281H144.655V138.719H148.593C149.291 138.719 149.895 138.859 150.405 139.141C150.916 139.417 151.309 139.786 151.585 140.25C151.861 140.708 151.999 141.208 151.999 141.75C151.999 142.453 151.731 143.052 151.194 143.547C150.663 144.036 149.765 144.281 148.499 144.281ZM148.249 137.031H144.655V131.719H148.312C149.374 131.719 150.15 131.966 150.64 132.461C151.129 132.951 151.374 133.547 151.374 134.25C151.374 134.812 151.233 135.302 150.952 135.719C150.676 136.135 150.301 136.458 149.827 136.688C149.358 136.917 148.832 137.031 148.249 137.031Z" fill="white"/>
<path fill-rule="evenodd" clip-rule="evenodd" d="M161.808 146.25C160.651 146.25 159.654 145.995 158.815 145.484C157.982 144.969 157.339 144.25 156.886 143.328C156.438 142.401 156.214 141.323 156.214 140.094C156.214 138.865 156.438 137.781 156.886 136.844C157.339 135.901 157.969 135.167 158.776 134.641C159.589 134.109 160.537 133.844 161.62 133.844C162.245 133.844 162.862 133.948 163.472 134.156C164.081 134.365 164.636 134.703 165.136 135.172C165.636 135.635 166.034 136.25 166.331 137.016C166.628 137.781 166.776 138.724 166.776 139.844V140.625H158.062C158.088 141.423 158.243 142.108 158.526 142.68C158.844 143.305 159.284 143.781 159.847 144.109C160.409 144.432 161.063 144.594 161.808 144.594C162.292 144.594 162.729 144.526 163.12 144.391C163.516 144.25 163.857 144.042 164.144 143.766C164.43 143.484 164.651 143.135 164.808 142.719L166.589 143.219C166.401 143.823 166.086 144.354 165.644 144.812C165.201 145.266 164.654 145.62 164.003 145.875C163.352 146.125 162.62 146.25 161.808 146.25ZM158.487 137.453C158.242 137.949 158.102 138.475 158.066 139.031H164.901C164.901 138.354 164.766 137.75 164.495 137.219C164.229 136.688 163.849 136.268 163.354 135.961C162.865 135.654 162.287 135.5 161.62 135.5C160.886 135.5 160.25 135.682 159.714 136.047C159.183 136.406 158.774 136.875 158.487 137.453Z" fill="white"/>
<path d="M171.425 146V138.781C171.425 138.083 171.56 137.49 171.831 137C172.107 136.51 172.482 136.138 172.956 135.883C173.435 135.628 173.977 135.5 174.581 135.5C175.451 135.5 176.131 135.763 176.62 136.289C177.115 136.81 177.362 137.547 177.362 138.5V146H179.206V138.375C179.206 137.344 179.034 136.495 178.69 135.828C178.352 135.156 177.875 134.659 177.261 134.336C176.646 134.008 175.93 133.844 175.112 133.844C174.17 133.844 173.414 134.029 172.847 134.398C172.284 134.763 171.862 135.255 171.581 135.875H171.425V130H169.581V146H171.425Z" fill="white"/>
<path fill-rule="evenodd" clip-rule="evenodd" d="M187.61 146.25C186.454 146.25 185.457 145.995 184.618 145.484C183.785 144.969 183.142 144.25 182.688 143.328C182.241 142.401 182.017 141.323 182.017 140.094C182.017 138.865 182.241 137.781 182.688 136.844C183.142 135.901 183.772 135.167 184.579 134.641C185.392 134.109 186.34 133.844 187.423 133.844C188.048 133.844 188.665 133.948 189.274 134.156C189.884 134.365 190.438 134.703 190.938 135.172C191.438 135.635 191.837 136.25 192.134 137.016C192.431 137.781 192.579 138.724 192.579 139.844V140.625H183.864C183.891 141.423 184.046 142.108 184.329 142.68C184.647 143.305 185.087 143.781 185.649 144.109C186.212 144.432 186.866 144.594 187.61 144.594C188.095 144.594 188.532 144.526 188.923 144.391C189.319 144.25 189.66 144.042 189.946 143.766C190.233 143.484 190.454 143.135 190.61 142.719L192.392 143.219C192.204 143.823 191.889 144.354 191.446 144.812C191.004 145.266 190.457 145.62 189.806 145.875C189.155 146.125 188.423 146.25 187.61 146.25ZM184.29 137.453C184.045 137.949 183.904 138.475 183.869 139.031H190.704C190.704 138.354 190.569 137.75 190.298 137.219C190.032 136.688 189.652 136.268 189.157 135.961C188.668 135.654 188.09 135.5 187.423 135.5C186.688 135.5 186.053 135.682 185.517 136.047C184.985 136.406 184.576 136.875 184.29 137.453Z" fill="white"/>
<path d="M197.165 134H195.384V146H197.228V138.5C197.228 137.911 197.353 137.393 197.603 136.945C197.858 136.492 198.191 136.138 198.603 135.883C199.019 135.628 199.467 135.5 199.946 135.5C200.644 135.5 201.215 135.711 201.657 136.133C202.1 136.549 202.321 137.099 202.321 137.781V146H204.196V138.188C204.196 137.411 204.428 136.771 204.892 136.266C205.355 135.755 206.009 135.5 206.853 135.5C207.509 135.5 208.079 135.69 208.563 136.07C209.048 136.451 209.29 137.083 209.29 137.969V146H211.134V137.969C211.134 136.557 210.793 135.518 210.11 134.852C209.428 134.18 208.55 133.844 207.478 133.844C206.618 133.844 205.881 134.029 205.267 134.398C204.652 134.763 204.191 135.255 203.884 135.875H203.759C203.462 135.234 203.048 134.737 202.517 134.383C201.991 134.023 201.332 133.844 200.54 133.844C199.759 133.844 199.09 134.023 198.532 134.383C197.975 134.737 197.571 135.234 197.321 135.875H197.165V134Z" fill="white"/>
<path fill-rule="evenodd" clip-rule="evenodd" d="M219.38 146.25C218.297 146.25 217.346 145.992 216.528 145.477C215.716 144.961 215.08 144.24 214.622 143.312C214.169 142.385 213.942 141.302 213.942 140.062C213.942 138.812 214.169 137.721 214.622 136.789C215.08 135.857 215.716 135.133 216.528 134.617C217.346 134.102 218.297 133.844 219.38 133.844C220.463 133.844 221.411 134.102 222.224 134.617C223.041 135.133 223.677 135.857 224.13 136.789C224.588 137.721 224.817 138.812 224.817 140.062C224.817 141.302 224.588 142.385 224.13 143.312C223.677 144.24 223.041 144.961 222.224 145.477C221.411 145.992 220.463 146.25 219.38 146.25ZM219.38 144.594C220.203 144.594 220.88 144.383 221.411 143.961C221.942 143.539 222.336 142.984 222.591 142.297C222.846 141.609 222.974 140.865 222.974 140.062C222.974 139.26 222.846 138.513 222.591 137.82C222.336 137.128 221.942 136.568 221.411 136.141C220.88 135.714 220.203 135.5 219.38 135.5C218.557 135.5 217.88 135.714 217.349 136.141C216.817 136.568 216.424 137.128 216.169 137.82C215.914 138.513 215.786 139.26 215.786 140.062C215.786 140.865 215.914 141.609 216.169 142.297C216.424 142.984 216.817 143.539 217.349 143.961C217.88 144.383 218.557 144.594 219.38 144.594Z" fill="white"/>
<path d="M232.851 135.562V134H230.288V131.125H228.444V134H226.632V135.562H228.444V143.062C228.444 143.76 228.606 144.339 228.929 144.797C229.257 145.255 229.668 145.596 230.163 145.82C230.663 146.044 231.174 146.156 231.694 146.156C232.038 146.156 232.322 146.13 232.546 146.078C232.77 146.031 232.944 145.984 233.069 145.938L232.694 144.281L232.382 144.344C232.252 144.365 232.085 144.375 231.882 144.375C231.611 144.375 231.353 144.333 231.108 144.25C230.869 144.161 230.671 143.99 230.515 143.734C230.364 143.474 230.288 143.083 230.288 142.562V135.562H232.851Z" fill="white"/>
<path d="M237.726 138.781V146H235.882V130H237.726V135.875H237.882C238.163 135.255 238.585 134.763 239.147 134.398C239.715 134.029 240.47 133.844 241.413 133.844C242.231 133.844 242.947 134.008 243.562 134.336C244.176 134.659 244.653 135.156 244.991 135.828C245.335 136.495 245.507 137.344 245.507 138.375V146H243.663V138.5C243.663 137.547 243.416 136.81 242.921 136.289C242.431 135.763 241.752 135.5 240.882 135.5C240.278 135.5 239.736 135.628 239.257 135.883C238.783 136.138 238.408 136.51 238.132 137C237.861 137.49 237.726 138.083 237.726 138.781Z" fill="white"/>
<path d="M255.724 137.156L257.38 136.688C257.093 135.833 256.609 135.146 255.927 134.625C255.25 134.104 254.317 133.844 253.13 133.844C252.286 133.844 251.531 133.992 250.864 134.289C250.203 134.586 249.679 134.995 249.294 135.516C248.914 136.036 248.724 136.635 248.724 137.312C248.724 138.141 248.979 138.831 249.489 139.383C250.005 139.93 250.812 140.333 251.911 140.594L253.911 141.062C254.515 141.203 254.963 141.417 255.255 141.703C255.547 141.984 255.692 142.333 255.692 142.75C255.692 143.266 255.437 143.708 254.927 144.078C254.422 144.443 253.739 144.625 252.88 144.625C252.125 144.625 251.513 144.464 251.044 144.141C250.58 143.818 250.265 143.333 250.099 142.688L248.349 143.125C248.562 144.146 249.07 144.922 249.872 145.453C250.674 145.984 251.687 146.25 252.911 146.25C253.843 146.25 254.661 146.094 255.364 145.781C256.067 145.469 256.614 145.042 257.005 144.5C257.401 143.958 257.599 143.344 257.599 142.656C257.599 141.818 257.336 141.133 256.81 140.602C256.284 140.065 255.484 139.667 254.411 139.406L252.63 138.969C251.922 138.792 251.401 138.57 251.067 138.305C250.734 138.039 250.567 137.677 250.567 137.219C250.567 136.703 250.81 136.279 251.294 135.945C251.784 135.607 252.396 135.438 253.13 135.438C253.666 135.438 254.106 135.523 254.45 135.695C254.794 135.867 255.065 136.086 255.263 136.352C255.466 136.612 255.619 136.88 255.724 137.156Z" fill="white"/>
<path d="M128.254 167.909L131.884 181H133.879L136.634 171.195H136.736L139.491 181H141.479L145.116 167.909H143.032L140.488 178.053H140.366L137.714 167.909H135.656L133.003 178.047H132.881L130.331 167.909H128.254Z" fill="white"/>
<path fill-rule="evenodd" clip-rule="evenodd" d="M149.932 181.198C149.012 181.198 148.208 180.987 147.522 180.565C146.836 180.143 146.304 179.553 145.924 178.795C145.545 178.036 145.355 177.15 145.355 176.136C145.355 175.117 145.545 174.227 145.924 173.464C146.304 172.701 146.836 172.109 147.522 171.687C148.208 171.265 149.012 171.054 149.932 171.054C150.853 171.054 151.656 171.265 152.342 171.687C153.028 172.109 153.561 172.701 153.94 173.464C154.319 174.227 154.509 175.117 154.509 176.136C154.509 177.15 154.319 178.036 153.94 178.795C153.561 179.553 153.028 180.143 152.342 180.565C151.656 180.987 150.853 181.198 149.932 181.198ZM149.939 179.594C150.535 179.594 151.029 179.436 151.422 179.121C151.814 178.805 152.103 178.386 152.291 177.862C152.483 177.337 152.578 176.76 152.578 176.129C152.578 175.503 152.483 174.928 152.291 174.403C152.103 173.875 151.814 173.451 151.422 173.131C151.029 172.812 150.535 172.652 149.939 172.652C149.338 172.652 148.839 172.812 148.443 173.131C148.051 173.451 147.759 173.875 147.567 174.403C147.38 174.928 147.286 175.503 147.286 176.129C147.286 176.76 147.38 177.337 147.567 177.862C147.759 178.386 148.051 178.805 148.443 179.121C148.839 179.436 149.338 179.594 149.939 179.594Z" fill="white"/>
<path d="M156.642 171.182V181H158.553V175.004C158.553 174.578 158.656 174.199 158.86 173.866C159.065 173.53 159.342 173.268 159.691 173.08C160.045 172.888 160.448 172.793 160.899 172.793C161.095 172.793 161.291 172.808 161.487 172.837C161.683 172.863 161.82 172.886 161.896 172.908V171.08C161.803 171.067 161.673 171.056 161.507 171.048C161.345 171.039 161.204 171.035 161.085 171.035C160.509 171.035 159.994 171.188 159.538 171.495C159.086 171.798 158.771 172.213 158.592 172.741H158.49V171.182H156.642Z" fill="white"/>
<path fill-rule="evenodd" clip-rule="evenodd" d="M166.874 181.192C166.082 181.192 165.374 180.989 164.752 180.585C164.134 180.175 163.648 179.594 163.295 178.839C162.945 178.081 162.771 177.171 162.771 176.11C162.771 175.049 162.947 174.141 163.301 173.387C163.659 172.633 164.149 172.055 164.771 171.655C165.393 171.254 166.099 171.054 166.887 171.054C167.496 171.054 167.987 171.156 168.357 171.361C168.732 171.561 169.022 171.795 169.227 172.064C169.435 172.332 169.597 172.569 169.712 172.773H169.827V167.909H171.739V181H169.872V179.472H169.712C169.597 179.681 169.431 179.92 169.214 180.188C169.001 180.457 168.707 180.691 168.332 180.891C167.957 181.092 167.471 181.192 166.874 181.192ZM167.296 179.562C167.846 179.562 168.31 179.417 168.69 179.127C169.073 178.833 169.363 178.426 169.559 177.906C169.759 177.386 169.859 176.781 169.859 176.091C169.859 175.409 169.761 174.812 169.565 174.301C169.369 173.79 169.082 173.391 168.702 173.106C168.323 172.82 167.854 172.678 167.296 172.678C166.721 172.678 166.241 172.827 165.858 173.125C165.474 173.423 165.185 173.83 164.989 174.346C164.797 174.862 164.701 175.443 164.701 176.091C164.701 176.747 164.799 177.337 164.995 177.862C165.191 178.386 165.481 178.801 165.864 179.108C166.252 179.411 166.729 179.562 167.296 179.562Z" fill="white"/>
<path fill-rule="evenodd" clip-rule="evenodd" d="M174.62 167.909V181H176.595V176.398H179.28C180.294 176.398 181.135 176.212 181.805 175.842C182.478 175.467 182.981 174.96 183.313 174.32C183.65 173.677 183.818 172.952 183.818 172.147C183.818 171.346 183.652 170.626 183.319 169.987C182.987 169.343 182.486 168.836 181.817 168.465C181.148 168.094 180.305 167.909 179.286 167.909H174.62ZM176.595 174.723H179.101C179.744 174.723 180.266 174.612 180.667 174.391C181.067 174.165 181.361 173.858 181.549 173.47C181.736 173.082 181.83 172.641 181.83 172.147C181.83 171.653 181.736 171.214 181.549 170.83C181.361 170.447 181.065 170.146 180.66 169.929C180.26 169.712 179.731 169.603 179.075 169.603H176.595V174.723Z" fill="white"/>
<path d="M185.98 171.182H187.827V172.741H187.93C188.109 172.213 188.424 171.798 188.876 171.495C189.332 171.188 189.847 171.035 190.423 171.035C190.542 171.035 190.683 171.039 190.844 171.048C191.011 171.056 191.141 171.067 191.234 171.08V172.908C191.158 172.886 191.021 172.863 190.825 172.837C190.629 172.808 190.433 172.793 190.237 172.793C189.786 172.793 189.383 172.888 189.029 173.08C188.68 173.268 188.403 173.53 188.198 173.866C187.994 174.199 187.891 174.578 187.891 175.004V181H185.98V171.182Z" fill="white"/>
<path fill-rule="evenodd" clip-rule="evenodd" d="M194.269 180.578C194.968 180.991 195.801 181.198 196.768 181.198C197.484 181.198 198.121 181.089 198.68 180.872C199.242 180.651 199.709 180.342 200.079 179.945C200.454 179.545 200.714 179.078 200.859 178.545L199.05 178.219C198.935 178.526 198.769 178.784 198.552 178.993C198.334 179.202 198.077 179.359 197.778 179.466C197.48 179.568 197.15 179.619 196.787 179.619C196.229 179.619 195.741 179.5 195.324 179.261C194.906 179.018 194.58 178.667 194.346 178.207C194.131 177.778 194.017 177.265 194.002 176.666H200.981V175.989C200.981 175.098 200.861 174.342 200.623 173.719C200.384 173.093 200.058 172.584 199.645 172.192C199.231 171.8 198.765 171.512 198.245 171.329C197.725 171.146 197.188 171.054 196.634 171.054C195.722 171.054 194.925 171.269 194.243 171.7C193.566 172.13 193.037 172.729 192.658 173.496C192.283 174.263 192.096 175.149 192.096 176.155C192.096 177.173 192.283 178.062 192.658 178.82C193.037 179.575 193.574 180.161 194.269 180.578ZM194.005 175.234C194.028 174.812 194.133 174.418 194.32 174.052C194.537 173.63 194.844 173.289 195.241 173.029C195.641 172.765 196.11 172.633 196.647 172.633C197.141 172.633 197.572 172.746 197.938 172.972C198.309 173.197 198.596 173.506 198.801 173.898C199.006 174.286 199.108 174.732 199.108 175.234H194.005Z" fill="white"/>
<path d="M210.458 173.579L208.726 173.886C208.654 173.664 208.539 173.453 208.381 173.253C208.228 173.053 208.019 172.888 207.755 172.761C207.49 172.633 207.16 172.569 206.764 172.569C206.223 172.569 205.771 172.69 205.409 172.933C205.047 173.172 204.865 173.481 204.865 173.86C204.865 174.188 204.987 174.452 205.23 174.653C205.473 174.853 205.865 175.017 206.406 175.145L207.966 175.503C208.869 175.712 209.542 176.033 209.985 176.468C210.429 176.903 210.65 177.467 210.65 178.162C210.65 178.75 210.48 179.274 210.139 179.734C209.802 180.19 209.331 180.548 208.726 180.808C208.125 181.068 207.429 181.198 206.636 181.198C205.537 181.198 204.64 180.964 203.945 180.495C203.25 180.022 202.824 179.351 202.667 178.482L204.514 178.2C204.629 178.682 204.865 179.046 205.223 179.293C205.581 179.536 206.048 179.658 206.623 179.658C207.25 179.658 207.75 179.528 208.125 179.268C208.5 179.004 208.688 178.682 208.688 178.303C208.688 177.996 208.573 177.738 208.343 177.529C208.117 177.32 207.77 177.163 207.301 177.056L205.639 176.692C204.723 176.483 204.045 176.151 203.606 175.695C203.172 175.239 202.954 174.661 202.954 173.962C202.954 173.383 203.116 172.876 203.44 172.441C203.764 172.006 204.211 171.668 204.782 171.425C205.353 171.178 206.007 171.054 206.745 171.054C207.806 171.054 208.641 171.284 209.25 171.744C209.86 172.2 210.262 172.812 210.458 173.579Z" fill="white"/>
<path d="M218.377 173.886L220.109 173.579C219.913 172.812 219.51 172.2 218.901 171.744C218.291 171.284 217.456 171.054 216.395 171.054C215.658 171.054 215.004 171.178 214.433 171.425C213.862 171.668 213.414 172.006 213.09 172.441C212.767 172.876 212.605 173.383 212.605 173.962C212.605 174.661 212.822 175.239 213.257 175.695C213.695 176.151 214.373 176.483 215.289 176.692L216.951 177.056C217.42 177.163 217.767 177.32 217.993 177.529C218.223 177.738 218.338 177.996 218.338 178.303C218.338 178.682 218.151 179.004 217.776 179.268C217.401 179.528 216.9 179.658 216.274 179.658C215.698 179.658 215.232 179.536 214.874 179.293C214.516 179.046 214.279 178.682 214.164 178.2L212.317 178.482C212.475 179.351 212.901 180.022 213.595 180.495C214.29 180.964 215.187 181.198 216.286 181.198C217.079 181.198 217.776 181.068 218.377 180.808C218.982 180.548 219.453 180.19 219.789 179.734C220.13 179.274 220.301 178.75 220.301 178.162C220.301 177.467 220.079 176.903 219.636 176.468C219.193 176.033 218.519 175.712 217.616 175.503L216.056 175.145C215.515 175.017 215.123 174.853 214.88 174.653C214.637 174.452 214.516 174.188 214.516 173.86C214.516 173.481 214.697 173.172 215.059 172.933C215.421 172.69 215.873 172.569 216.414 172.569C216.811 172.569 217.141 172.633 217.405 172.761C217.669 172.888 217.878 173.053 218.031 173.253C218.189 173.453 218.304 173.664 218.377 173.886Z" fill="white"/>
<path d="M146.878 193.579L145.146 193.886C145.074 193.664 144.959 193.453 144.801 193.253C144.648 193.053 144.439 192.888 144.175 192.761C143.91 192.633 143.58 192.569 143.184 192.569C142.643 192.569 142.191 192.69 141.829 192.933C141.466 193.172 141.285 193.481 141.285 193.86C141.285 194.188 141.407 194.452 141.65 194.653C141.893 194.853 142.285 195.017 142.826 195.145L144.385 195.503C145.289 195.712 145.962 196.033 146.405 196.468C146.849 196.903 147.07 197.467 147.07 198.162C147.07 198.75 146.9 199.274 146.559 199.734C146.222 200.19 145.751 200.548 145.146 200.808C144.545 201.068 143.849 201.198 143.056 201.198C141.956 201.198 141.059 200.964 140.365 200.495C139.67 200.022 139.244 199.351 139.086 198.482L140.934 198.2C141.049 198.682 141.285 199.046 141.643 199.293C142.001 199.536 142.468 199.658 143.043 199.658C143.67 199.658 144.17 199.528 144.545 199.268C144.92 199.004 145.108 198.682 145.108 198.303C145.108 197.996 144.993 197.738 144.763 197.529C144.537 197.32 144.189 197.163 143.721 197.056L142.059 196.692C141.143 196.483 140.465 196.151 140.026 195.695C139.591 195.239 139.374 194.661 139.374 193.962C139.374 193.383 139.536 192.876 139.86 192.441C140.184 192.006 140.631 191.668 141.202 191.425C141.773 191.178 142.427 191.054 143.165 191.054C144.226 191.054 145.061 191.284 145.67 191.744C146.28 192.2 146.682 192.812 146.878 193.579Z" fill="white"/>
<path fill-rule="evenodd" clip-rule="evenodd" d="M150.904 200.578C151.603 200.991 152.436 201.198 153.403 201.198C154.119 201.198 154.756 201.089 155.314 200.872C155.877 200.651 156.343 200.342 156.714 199.945C157.089 199.545 157.349 199.078 157.494 198.545L155.685 198.219C155.57 198.526 155.404 198.784 155.186 198.993C154.969 199.202 154.711 199.359 154.413 199.466C154.115 199.568 153.784 199.619 153.422 199.619C152.864 199.619 152.376 199.5 151.958 199.261C151.541 199.018 151.215 198.667 150.98 198.207C150.766 197.778 150.652 197.265 150.637 196.666H157.615V195.989C157.615 195.098 157.496 194.342 157.257 193.719C157.019 193.093 156.693 192.584 156.279 192.192C155.866 191.8 155.4 191.512 154.88 191.329C154.36 191.146 153.823 191.054 153.269 191.054C152.357 191.054 151.56 191.269 150.878 191.7C150.201 192.13 149.672 192.729 149.293 193.496C148.918 194.263 148.73 195.149 148.73 196.155C148.73 197.173 148.918 198.062 149.293 198.82C149.672 199.575 150.209 200.161 150.904 200.578ZM150.64 195.234C150.663 194.812 150.768 194.418 150.955 194.052C151.172 193.63 151.479 193.289 151.875 193.029C152.276 192.765 152.745 192.633 153.282 192.633C153.776 192.633 154.206 192.746 154.573 192.972C154.944 193.197 155.231 193.506 155.436 193.898C155.64 194.286 155.743 194.732 155.743 195.234H150.64Z" fill="white"/>
<path d="M159.736 201V191.182H161.583V192.741H161.686C161.865 192.213 162.18 191.798 162.632 191.495C163.088 191.188 163.603 191.035 164.178 191.035C164.298 191.035 164.438 191.039 164.6 191.048C164.767 191.056 164.896 191.067 164.99 191.08V192.908C164.914 192.886 164.777 192.863 164.581 192.837C164.385 192.808 164.189 192.793 163.993 192.793C163.541 192.793 163.139 192.888 162.785 193.08C162.436 193.268 162.159 193.53 161.954 193.866C161.749 194.199 161.647 194.578 161.647 195.004V201H159.736Z" fill="white"/>
<path d="M171.782 201L175.342 191.182H173.29L170.81 198.737H170.708L168.221 191.182H166.17L169.736 201H171.782Z" fill="white"/>
<path d="M177.138 201V191.182H179.05V201H177.138Z" fill="white"/>
<path d="M177.247 189.335C177.486 189.556 177.771 189.667 178.104 189.667C178.436 189.667 178.719 189.556 178.954 189.335C179.192 189.109 179.312 188.84 179.312 188.529C179.312 188.214 179.192 187.945 178.954 187.724C178.719 187.498 178.436 187.385 178.104 187.385C177.771 187.385 177.486 187.498 177.247 187.724C177.013 187.945 176.895 188.214 176.895 188.529C176.895 188.84 177.013 189.109 177.247 189.335Z" fill="white"/>
<path d="M185.756 201.198C184.806 201.198 183.988 200.983 183.302 200.553C182.62 200.118 182.096 199.519 181.729 198.756C181.363 197.994 181.18 197.12 181.18 196.136C181.18 195.138 181.367 194.259 181.742 193.496C182.117 192.729 182.646 192.13 183.327 191.7C184.009 191.269 184.812 191.054 185.737 191.054C186.483 191.054 187.148 191.192 187.732 191.469C188.315 191.742 188.786 192.126 189.144 192.62C189.506 193.114 189.722 193.692 189.79 194.352H187.93C187.827 193.892 187.593 193.496 187.227 193.163C186.864 192.831 186.379 192.665 185.769 192.665C185.237 192.665 184.77 192.805 184.369 193.087C183.973 193.364 183.664 193.76 183.442 194.276C183.221 194.787 183.11 195.392 183.11 196.091C183.11 196.807 183.219 197.425 183.436 197.945C183.653 198.464 183.96 198.867 184.357 199.153C184.757 199.438 185.228 199.581 185.769 199.581C186.131 199.581 186.46 199.515 186.754 199.383C187.052 199.246 187.301 199.053 187.501 198.801C187.706 198.55 187.849 198.247 187.93 197.893H189.79C189.722 198.528 189.515 199.095 189.17 199.594C188.825 200.092 188.362 200.484 187.783 200.77C187.207 201.055 186.532 201.198 185.756 201.198Z" fill="white"/>
<path fill-rule="evenodd" clip-rule="evenodd" d="M193.566 200.578C194.265 200.991 195.098 201.198 196.065 201.198C196.781 201.198 197.418 201.089 197.976 200.872C198.539 200.651 199.006 200.342 199.376 199.945C199.751 199.545 200.011 199.078 200.156 198.545L198.347 198.219C198.232 198.526 198.066 198.784 197.849 198.993C197.631 199.202 197.373 199.359 197.075 199.466C196.777 199.568 196.447 199.619 196.084 199.619C195.526 199.619 195.038 199.5 194.621 199.261C194.203 199.018 193.877 198.667 193.643 198.207C193.428 197.778 193.314 197.265 193.299 196.666H200.278V195.989C200.278 195.098 200.158 194.342 199.92 193.719C199.681 193.093 199.355 192.584 198.942 192.192C198.528 191.8 198.062 191.512 197.542 191.329C197.022 191.146 196.485 191.054 195.931 191.054C195.019 191.054 194.222 191.269 193.54 191.7C192.863 192.13 192.334 192.729 191.955 193.496C191.58 194.263 191.393 195.149 191.393 196.155C191.393 197.173 191.58 198.062 191.955 198.82C192.334 199.575 192.871 200.161 193.566 200.578ZM193.302 195.234C193.325 194.812 193.43 194.418 193.617 194.052C193.834 193.63 194.141 193.289 194.537 193.029C194.938 192.765 195.407 192.633 195.944 192.633C196.438 192.633 196.868 192.746 197.235 192.972C197.606 193.197 197.893 193.506 198.098 193.898C198.302 194.286 198.405 194.732 198.405 195.234H193.302Z" fill="white"/>
<path d="M209.755 193.579L208.023 193.886C207.951 193.664 207.836 193.453 207.678 193.253C207.525 193.053 207.316 192.888 207.051 192.761C206.787 192.633 206.457 192.569 206.061 192.569C205.52 192.569 205.068 192.69 204.706 192.933C204.343 193.172 204.162 193.481 204.162 193.86C204.162 194.188 204.284 194.452 204.527 194.653C204.77 194.853 205.162 195.017 205.703 195.145L207.262 195.503C208.166 195.712 208.839 196.033 209.282 196.468C209.725 196.903 209.947 197.467 209.947 198.162C209.947 198.75 209.777 199.274 209.436 199.734C209.099 200.19 208.628 200.548 208.023 200.808C207.422 201.068 206.725 201.198 205.933 201.198C204.833 201.198 203.936 200.964 203.242 200.495C202.547 200.022 202.121 199.351 201.963 198.482L203.811 198.2C203.926 198.682 204.162 199.046 204.52 199.293C204.878 199.536 205.345 199.658 205.92 199.658C206.547 199.658 207.047 199.528 207.422 199.268C207.797 199.004 207.985 198.682 207.985 198.303C207.985 197.996 207.87 197.738 207.64 197.529C207.414 197.32 207.066 197.163 206.598 197.056L204.936 196.692C204.02 196.483 203.342 196.151 202.903 195.695C202.468 195.239 202.251 194.661 202.251 193.962C202.251 193.383 202.413 192.876 202.737 192.441C203.061 192.006 203.508 191.668 204.079 191.425C204.65 191.178 205.304 191.054 206.042 191.054C207.103 191.054 207.938 191.284 208.547 191.744C209.157 192.2 209.559 192.812 209.755 193.579Z" fill="white"/>
<path d="M154.06 290V288.227L158.202 284.392C158.555 284.051 158.85 283.744 159.089 283.472C159.331 283.199 159.515 282.932 159.64 282.67C159.765 282.405 159.827 282.119 159.827 281.812C159.827 281.472 159.75 281.178 159.594 280.932C159.439 280.682 159.227 280.491 158.958 280.358C158.689 280.222 158.384 280.153 158.043 280.153C157.687 280.153 157.377 280.225 157.112 280.369C156.846 280.513 156.642 280.72 156.498 280.989C156.354 281.258 156.282 281.578 156.282 281.949H153.947C153.947 281.188 154.119 280.527 154.464 279.966C154.808 279.405 155.291 278.972 155.913 278.665C156.534 278.358 157.25 278.205 158.06 278.205C158.894 278.205 159.619 278.352 160.237 278.648C160.858 278.939 161.341 279.345 161.685 279.864C162.03 280.383 162.202 280.977 162.202 281.648C162.202 282.087 162.115 282.521 161.941 282.949C161.771 283.377 161.466 283.852 161.026 284.375C160.587 284.894 159.968 285.517 159.168 286.244L157.469 287.909V287.989H162.356V290H154.06Z" fill="white"/>
<path fill-rule="evenodd" clip-rule="evenodd" d="M166.178 289.534C166.883 290.011 167.724 290.252 168.701 290.256C169.678 290.256 170.517 290.017 171.218 289.54C171.919 289.062 172.457 288.371 172.832 287.466C173.21 286.561 173.4 285.47 173.4 284.193C173.404 282.924 173.216 281.845 172.837 280.955C172.459 280.061 171.917 279.379 171.212 278.909C170.512 278.439 169.674 278.205 168.701 278.205C167.728 278.205 166.888 278.439 166.184 278.909C165.483 279.375 164.943 280.055 164.565 280.949C164.19 281.843 164.002 282.924 164.002 284.193C163.998 285.466 164.184 286.555 164.559 287.46C164.938 288.366 165.478 289.057 166.178 289.534ZM170.298 287.21C169.9 287.881 169.368 288.216 168.701 288.216C168.258 288.216 167.871 288.068 167.542 287.773C167.212 287.473 166.957 287.027 166.775 286.432C166.597 285.833 166.508 285.087 166.508 284.193C166.512 282.871 166.712 281.879 167.11 281.216C167.508 280.553 168.038 280.222 168.701 280.222C169.144 280.222 169.529 280.369 169.854 280.665C170.184 280.96 170.438 281.402 170.616 281.989C170.798 282.576 170.888 283.311 170.888 284.193C170.892 285.534 170.695 286.54 170.298 287.21Z" fill="white"/>
<path d="M175.154 290V288.227L179.296 284.392C179.648 284.051 179.944 283.744 180.183 283.472C180.425 283.199 180.609 282.932 180.734 282.67C180.859 282.405 180.921 282.119 180.921 281.812C180.921 281.472 180.844 281.178 180.688 280.932C180.533 280.682 180.321 280.491 180.052 280.358C179.783 280.222 179.478 280.153 179.137 280.153C178.781 280.153 178.47 280.225 178.205 280.369C177.94 280.513 177.736 280.72 177.592 280.989C177.448 281.258 177.376 281.578 177.376 281.949H175.04C175.04 281.188 175.213 280.527 175.558 279.966C175.902 279.405 176.385 278.972 177.006 278.665C177.628 278.358 178.344 278.205 179.154 278.205C179.987 278.205 180.713 278.352 181.33 278.648C181.951 278.939 182.434 279.345 182.779 279.864C183.124 280.383 183.296 280.977 183.296 281.648C183.296 282.087 183.209 282.521 183.035 282.949C182.864 283.377 182.559 283.852 182.12 284.375C181.681 284.894 181.061 285.517 180.262 286.244L178.563 287.909V287.989H183.45V290H175.154Z" fill="white"/>
<path fill-rule="evenodd" clip-rule="evenodd" d="M184.806 286.017V287.955H190.391V290H192.744V287.955H194.187V285.983H192.744V278.364H189.664L184.806 286.017ZM190.437 281.045H190.346L187.283 285.892V285.983H190.437V281.045Z" fill="white"/>
<path d="M205.771 242.372H207.859C208.446 242.372 208.934 242.292 209.322 242.131C209.711 241.97 209.999 241.728 210.189 241.406C210.383 241.084 210.48 240.684 210.48 240.206C210.48 239.723 210.383 239.316 210.189 238.984C209.999 238.653 209.708 238.402 209.315 238.232C208.927 238.056 208.437 237.969 207.845 237.969H205.771V242.372Z" fill="white"/>
<path fill-rule="evenodd" clip-rule="evenodd" d="M174.114 21L65.5991 73.293V229.533H52L57.1543 247.666L52 265.8H65.5991V274.064L174.682 327L283.2 274.064L283.201 265.8H296.988L291.836 247.666L296.991 229.533H283.201L283.2 73.293L174.114 21ZM72.3989 79.2588L174.207 30.0654L276.547 79.2559V224.998H72.3989V79.2588ZM72.3989 261.266H276.547V268.134L174.738 317.935L72.3989 268.134V261.266ZM133.82 235.455L137.982 250H140.979L143.742 240.49H143.855L146.625 250H149.622L153.784 235.455H150.425L148.017 245.582H147.889L145.24 235.455H142.364L139.708 245.561H139.587L137.179 235.455H133.82ZM158.506 250V235.455H155.43V250H158.506ZM173.202 250V235.455H170.141V244.602H170.013L163.735 235.455H161.036V250H164.111V240.845H164.218L170.546 250H173.202ZM187.909 250V235.455H184.848V244.602H184.72L178.442 235.455H175.743V250H178.818V240.845H178.925L185.253 250H187.909ZM190.45 235.455V250H200.279V247.464H193.525V243.991H199.747V241.456H193.525V237.99H200.251V235.455H190.45ZM202.696 235.455V250H205.771V244.844H208.016L210.771 250H214.166L211.08 244.349C211.124 244.33 211.168 244.31 211.211 244.29C212.002 243.92 212.606 243.39 213.023 242.699C213.439 242.003 213.648 241.172 213.648 240.206C213.648 239.245 213.442 238.409 213.03 237.699C212.622 236.984 212.028 236.432 211.247 236.044C210.47 235.651 209.533 235.455 208.434 235.455H202.696Z" fill="white"/>
</svg>
