<svg viewBox="0 0 348 348" fill="none" xmlns="http://www.w3.org/2000/svg">
<path d="M136.001 269.163C136.188 269.435 136.335 269.744 136.442 270.09H138.858C138.76 269.446 138.553 268.858 138.238 268.325C137.923 267.793 137.52 267.333 137.03 266.945C136.544 266.557 135.988 266.259 135.362 266.05C134.735 265.837 134.06 265.73 133.335 265.73C132.479 265.73 131.686 265.884 130.958 266.19C130.229 266.493 129.594 266.936 129.053 267.52C128.512 268.1 128.09 268.805 127.787 269.636C127.489 270.467 127.34 271.411 127.34 272.467C127.34 273.848 127.593 275.041 128.1 276.047C128.612 277.048 129.321 277.822 130.229 278.367C131.141 278.909 132.2 279.179 133.406 279.179C134.488 279.179 135.447 278.96 136.282 278.521C137.117 278.078 137.774 277.447 138.251 276.629C138.728 275.81 138.967 274.841 138.967 273.72V272.148H133.655V274.002H136.671C136.66 274.602 136.528 275.128 136.276 275.58C136.012 276.049 135.634 276.411 135.144 276.667C134.659 276.923 134.083 277.051 133.419 277.051C132.686 277.051 132.042 276.874 131.488 276.52C130.934 276.162 130.502 275.64 130.191 274.954C129.879 274.268 129.724 273.431 129.724 272.442C129.724 271.462 129.879 270.631 130.191 269.949C130.506 269.263 130.938 268.743 131.488 268.389C132.038 268.036 132.664 267.859 133.367 267.859C133.759 267.859 134.122 267.91 134.454 268.012C134.786 268.11 135.08 268.257 135.336 268.453C135.596 268.649 135.818 268.886 136.001 269.163Z" fill="white"/>
<path fill-rule="evenodd" clip-rule="evenodd" d="M142.947 278.559C143.651 278.981 144.482 279.192 145.44 279.192C146.399 279.192 147.23 278.981 147.933 278.559C148.636 278.137 149.18 277.547 149.563 276.788C149.951 276.03 150.145 275.144 150.145 274.129C150.145 273.115 149.951 272.227 149.563 271.464C149.18 270.701 148.636 270.109 147.933 269.687C147.23 269.265 146.399 269.054 145.44 269.054C144.482 269.054 143.651 269.265 142.947 269.687C142.244 270.109 141.699 270.701 141.311 271.464C140.928 272.227 140.736 273.115 140.736 274.129C140.736 275.144 140.928 276.03 141.311 276.788C141.699 277.547 142.244 278.137 142.947 278.559ZM146.757 276.91C146.408 277.195 145.973 277.338 145.453 277.338C144.92 277.338 144.477 277.195 144.124 276.91C143.774 276.62 143.512 276.232 143.337 275.747C143.167 275.261 143.082 274.72 143.082 274.123C143.082 273.522 143.167 272.979 143.337 272.493C143.512 272.003 143.774 271.613 144.124 271.323C144.477 271.034 144.92 270.889 145.453 270.889C145.973 270.889 146.408 271.034 146.757 271.323C147.107 271.613 147.366 272.003 147.537 272.493C147.712 272.979 147.799 273.522 147.799 274.123C147.799 274.72 147.712 275.261 147.537 275.747C147.366 276.232 147.107 276.62 146.757 276.91Z" fill="white"/>
<path fill-rule="evenodd" clip-rule="evenodd" d="M153.899 278.559C154.602 278.981 155.433 279.192 156.392 279.192C157.35 279.192 158.181 278.981 158.884 278.559C159.588 278.137 160.131 277.547 160.514 276.788C160.902 276.03 161.096 275.144 161.096 274.129C161.096 273.115 160.902 272.227 160.514 271.464C160.131 270.701 159.588 270.109 158.884 269.687C158.181 269.265 157.35 269.054 156.392 269.054C155.433 269.054 154.602 269.265 153.899 269.687C153.195 270.109 152.65 270.701 152.262 271.464C151.879 272.227 151.687 273.115 151.687 274.129C151.687 275.144 151.879 276.03 152.262 276.788C152.65 277.547 153.195 278.137 153.899 278.559ZM157.708 276.91C157.359 277.195 156.924 277.338 156.404 277.338C155.872 277.338 155.428 277.195 155.075 276.91C154.725 276.62 154.463 276.232 154.289 275.747C154.118 275.261 154.033 274.72 154.033 274.123C154.033 273.522 154.118 272.979 154.289 272.493C154.463 272.003 154.725 271.613 155.075 271.323C155.428 271.034 155.872 270.889 156.404 270.889C156.924 270.889 157.359 271.034 157.708 271.323C158.058 271.613 158.318 272.003 158.488 272.493C158.663 272.979 158.75 273.522 158.75 274.123C158.75 274.72 158.663 275.261 158.488 275.747C158.318 276.232 158.058 276.62 157.708 276.91Z" fill="white"/>
<path fill-rule="evenodd" clip-rule="evenodd" d="M164.632 278.578C165.242 278.975 165.932 279.173 166.703 279.173C167.266 279.173 167.733 279.079 168.103 278.891C168.474 278.704 168.772 278.478 168.998 278.214C169.224 277.945 169.397 277.692 169.516 277.453H169.657V279H171.932V265.909H169.612V270.806H169.516C169.397 270.567 169.228 270.313 169.011 270.045C168.794 269.772 168.5 269.54 168.129 269.348C167.758 269.152 167.285 269.054 166.71 269.054C165.956 269.054 165.272 269.248 164.658 269.636C164.044 270.019 163.556 270.588 163.194 271.342C162.836 272.092 162.657 273.013 162.657 274.104C162.657 275.182 162.834 276.098 163.188 276.852C163.542 277.607 164.023 278.182 164.632 278.578ZM168.602 276.878C168.257 277.142 167.839 277.274 167.349 277.274C166.842 277.274 166.414 277.138 166.064 276.865C165.719 276.588 165.457 276.211 165.278 275.734C165.103 275.252 165.016 274.705 165.016 274.091C165.016 273.482 165.103 272.94 165.278 272.467C165.453 271.994 165.713 271.624 166.058 271.355C166.403 271.087 166.833 270.953 167.349 270.953C167.848 270.953 168.267 271.083 168.608 271.342C168.953 271.602 169.213 271.967 169.388 272.435C169.567 272.904 169.657 273.456 169.657 274.091C169.657 274.726 169.567 275.282 169.388 275.759C169.209 276.237 168.947 276.609 168.602 276.878Z" fill="white"/>
<path d="M174.5 265.909V279H176.872V273.439H182.311V271.451H176.872V267.897H182.887V265.909H174.5Z" fill="white"/>
<path d="M187.259 269.182H184.945V279H187.259V269.182Z" fill="white"/>
<path d="M185.162 267.424C185.426 267.667 185.742 267.788 186.108 267.788C186.479 267.788 186.794 267.667 187.054 267.424C187.318 267.177 187.45 266.881 187.45 266.536C187.45 266.186 187.318 265.89 187.054 265.647C186.794 265.4 186.479 265.276 186.108 265.276C185.742 265.276 185.426 265.4 185.162 265.647C184.898 265.89 184.766 266.186 184.766 266.536C184.766 266.881 184.898 267.177 185.162 267.424Z" fill="white"/>
<path d="M191.882 269.182H189.638V279H191.952V273.228C191.952 272.81 192.048 272.442 192.24 272.122C192.431 271.803 192.694 271.553 193.026 271.374C193.363 271.191 193.742 271.1 194.164 271.1C194.36 271.1 194.562 271.114 194.771 271.144C194.984 271.17 195.14 271.2 195.238 271.234V269.105C195.131 269.084 194.997 269.069 194.835 269.06C194.677 269.048 194.534 269.041 194.407 269.041C193.844 269.041 193.343 269.197 192.904 269.508C192.47 269.815 192.163 270.252 191.984 270.818H191.882V269.182Z" fill="white"/>
<path d="M198.987 269.182H196.775V279H199.089V273.03C199.089 272.625 199.17 272.271 199.332 271.969C199.494 271.662 199.711 271.426 199.984 271.259C200.256 271.089 200.559 271.004 200.891 271.004C201.381 271.004 201.778 271.155 202.08 271.458C202.387 271.76 202.54 272.165 202.54 272.672V279H204.81V272.877C204.81 272.323 204.965 271.873 205.276 271.528C205.592 271.178 206.028 271.004 206.587 271.004C207.055 271.004 207.452 271.146 207.776 271.432C208.099 271.713 208.261 272.159 208.261 272.768V279H210.582V272.41C210.582 271.315 210.296 270.482 209.725 269.911C209.154 269.34 208.417 269.054 207.513 269.054C206.802 269.054 206.186 269.218 205.666 269.546C205.151 269.87 204.784 270.305 204.567 270.85H204.464C204.277 270.296 203.953 269.859 203.493 269.54C203.037 269.216 202.477 269.054 201.812 269.054C201.156 269.054 200.591 269.214 200.118 269.534C199.645 269.849 199.306 270.288 199.102 270.85H198.987V269.182Z" fill="white"/>
<path d="M218.58 272.007L220.689 271.777C220.531 270.942 220.12 270.279 219.455 269.789C218.795 269.299 217.889 269.054 216.739 269.054C215.955 269.054 215.262 269.178 214.661 269.425C214.065 269.668 213.598 270.013 213.262 270.46C212.929 270.904 212.765 271.428 212.769 272.033C212.765 272.749 212.989 273.341 213.441 273.81C213.892 274.274 214.589 274.605 215.531 274.801L217.205 275.152C217.657 275.25 217.99 275.391 218.203 275.574C218.42 275.757 218.529 275.989 218.529 276.271C218.529 276.603 218.36 276.882 218.024 277.108C217.691 277.334 217.25 277.447 216.7 277.447C216.168 277.447 215.735 277.334 215.403 277.108C215.07 276.882 214.853 276.548 214.751 276.105L212.494 276.322C212.635 277.225 213.072 277.931 213.805 278.438C214.538 278.94 215.505 279.192 216.707 279.192C217.525 279.192 218.249 279.06 218.88 278.796C219.511 278.531 220.003 278.165 220.357 277.696C220.715 277.223 220.896 276.678 220.9 276.06C220.896 275.357 220.666 274.788 220.21 274.353C219.758 273.918 219.068 273.601 218.139 273.401L216.464 273.043C215.965 272.928 215.607 272.781 215.39 272.602C215.177 272.423 215.073 272.19 215.077 271.905C215.073 271.573 215.232 271.302 215.556 271.093C215.884 270.884 216.289 270.78 216.771 270.78C217.129 270.78 217.431 270.837 217.678 270.953C217.926 271.068 218.122 271.219 218.267 271.406C218.416 271.594 218.52 271.794 218.58 272.007Z" fill="white"/>
<path d="M169.18 68.2893L173.527 56.0001L177.574 68.2893H189.561L180.569 76.0826L184.165 88.9696L173.524 81.7772L162.887 88.9696L167.232 76.3815L155.691 68.8902L169.18 68.2893Z" fill="white"/>
<path d="M200.948 71.1125L198.791 77.2058L192.101 77.5047L197.825 81.2186L195.669 87.466L200.948 83.8969L206.222 87.466L204.44 81.0707L208.9 77.2058H202.952L200.948 71.1125Z" fill="white"/>
<path d="M147.747 71.1125L145.588 77.2058L138.9 77.5047L144.622 81.2186L142.469 87.466L147.747 83.8969L153.023 87.466L151.241 81.0707L155.7 77.2058H149.752L147.747 71.1125Z" fill="white"/>
<path d="M75.2608 189.546C75.2608 188.718 75.1312 188.02 74.872 187.452C74.6163 186.88 74.2612 186.449 73.8066 186.158C73.3521 185.863 72.8283 185.716 72.2353 185.716C71.6422 185.716 71.1184 185.863 70.6639 186.158C70.2093 186.449 69.8525 186.88 69.5932 187.452C69.3375 188.02 69.2097 188.718 69.2097 189.546C69.2097 190.373 69.3375 191.073 69.5932 191.644C69.8525 192.212 70.2093 192.644 70.6639 192.939C71.1184 193.23 71.6422 193.375 72.2353 193.375C72.8283 193.375 73.3521 193.23 73.8066 192.939C74.2612 192.644 74.6163 192.212 74.872 191.644C75.1312 191.073 75.2608 190.373 75.2608 189.546Z" fill="white"/>
<path d="M82.914 189.689H81.0922V185.742H82.9033C83.3969 185.742 83.8 185.826 84.1125 185.993C84.4285 186.156 84.6611 186.385 84.8103 186.68C84.963 186.974 85.0393 187.315 85.0393 187.702C85.0393 188.09 84.963 188.432 84.8103 188.731C84.6611 189.029 84.4303 189.263 84.1178 189.434C83.8053 189.604 83.404 189.689 82.914 189.689Z" fill="white"/>
<path d="M109.603 187.452C109.863 188.02 109.992 188.718 109.992 189.546C109.992 190.373 109.863 191.073 109.603 191.644C109.348 192.212 108.993 192.644 108.538 192.939C108.084 193.23 107.56 193.375 106.967 193.375C106.374 193.375 105.85 193.23 105.395 192.939C104.941 192.644 104.584 192.212 104.325 191.644C104.069 191.073 103.941 190.373 103.941 189.546C103.941 188.718 104.069 188.02 104.325 187.452C104.584 186.88 104.941 186.449 105.395 186.158C105.85 185.863 106.374 185.716 106.967 185.716C107.56 185.716 108.084 185.863 108.538 186.158C108.993 186.449 109.348 186.88 109.603 187.452Z" fill="white"/>
<path d="M151.011 186.328L152.487 190.723H149.451L150.925 186.328H151.011Z" fill="white"/>
<path d="M159.447 189.364H161.268C161.759 189.364 162.16 189.297 162.472 189.162C162.785 189.023 163.016 188.823 163.165 188.56C163.317 188.294 163.394 187.967 163.394 187.58C163.394 187.193 163.317 186.863 163.165 186.589C163.012 186.312 162.779 186.103 162.467 185.961C162.154 185.815 161.751 185.742 161.258 185.742H159.447V189.364Z" fill="white"/>
<path d="M182.035 193.29H183.659C184.419 193.29 185.053 193.152 185.561 192.875C186.069 192.594 186.45 192.177 186.706 191.623C186.962 191.065 187.09 190.369 187.09 189.535C187.09 188.7 186.962 188.008 186.706 187.457C186.45 186.903 186.072 186.49 185.572 186.216C185.074 185.939 184.456 185.801 183.718 185.801H182.035V193.29Z" fill="white"/>
<path d="M235.448 187.452C235.707 188.02 235.837 188.718 235.837 189.546C235.837 190.373 235.707 191.073 235.448 191.644C235.192 192.212 234.837 192.644 234.383 192.939C233.928 193.23 233.404 193.375 232.811 193.375C232.218 193.375 231.695 193.23 231.24 192.939C230.786 192.644 230.429 192.212 230.169 191.644C229.914 191.073 229.786 190.373 229.786 189.546C229.786 188.718 229.914 188.02 230.169 187.452C230.429 186.88 230.786 186.449 231.24 186.158C231.695 185.863 232.218 185.716 232.811 185.716C233.404 185.716 233.928 185.863 234.383 186.158C234.837 186.449 235.192 186.88 235.448 187.452Z" fill="white"/>
<path d="M241.668 185.742V189.689H243.49C243.98 189.689 244.381 189.604 244.694 189.434C245.006 189.263 245.237 189.029 245.386 188.731C245.539 188.432 245.615 188.09 245.615 187.702C245.615 187.315 245.539 186.974 245.386 186.68C245.237 186.385 245.005 186.156 244.689 185.993C244.376 185.826 243.973 185.742 243.479 185.742H241.668Z" fill="white"/>
<path d="M111.039 207.452C111.298 208.02 111.428 208.718 111.428 209.546C111.428 210.373 111.298 211.073 111.039 211.644C110.783 212.212 110.428 212.644 109.974 212.939C109.519 213.23 108.995 213.375 108.402 213.375C107.809 213.375 107.285 213.23 106.831 212.939C106.376 212.644 106.019 212.212 105.76 211.644C105.505 211.073 105.377 210.373 105.377 209.546C105.377 208.718 105.505 208.02 105.76 207.452C106.019 206.88 106.376 206.449 106.831 206.158C107.285 205.863 107.809 205.716 108.402 205.716C108.995 205.716 109.519 205.863 109.974 206.158C110.428 206.449 110.783 206.88 111.039 207.452Z" fill="white"/>
<path d="M132.675 209.689H130.853V205.742H132.664C133.158 205.742 133.561 205.826 133.873 205.993C134.189 206.156 134.422 206.385 134.571 206.68C134.724 206.974 134.8 207.315 134.8 207.702C134.8 208.09 134.724 208.432 134.571 208.731C134.422 209.029 134.191 209.263 133.879 209.434C133.566 209.604 133.165 209.689 132.675 209.689Z" fill="white"/>
<path d="M143.185 210.723L141.709 206.328H141.624L140.15 210.723H143.185Z" fill="white"/>
<path d="M217.475 209.364H215.653V205.742H217.464C217.957 205.742 218.361 205.815 218.673 205.961C218.986 206.103 219.218 206.312 219.371 206.589C219.524 206.863 219.6 207.193 219.6 207.58C219.6 207.967 219.524 208.294 219.371 208.56C219.222 208.823 218.991 209.023 218.678 209.162C218.366 209.297 217.965 209.364 217.475 209.364Z" fill="white"/>
<path d="M229.304 210.723L227.827 206.328H227.742L226.268 210.723H229.304Z" fill="white"/>
<path fill-rule="evenodd" clip-rule="evenodd" d="M301.035 228C280.018 277.379 231.052 312 174 312C116.948 312 67.982 277.379 46.9653 228H14L32.8235 200L14 172H36.0142C37.0838 96.7068 98.4525 36 174 36C249.548 36 310.916 96.7068 311.986 172H334L315.176 200L334 228H301.035ZM244.274 228H240.989L240.599 230.544C239.308 238.975 238.198 242.698 236.345 244.808C235.725 245.514 235.279 246.273 235.353 246.496C235.509 246.962 240.65 243.339 243.843 240.513C245.87 238.718 246.013 238.482 245.985 236.972C245.968 236.082 245.678 234.25 245.341 232.901C245.003 231.553 244.632 229.813 244.515 229.035C244.44 228.533 244.387 228.209 244.274 228ZM237.667 228H110.133L112.033 229.9C116.166 234.033 117.768 237.927 118.133 244.731C118.355 248.878 118.497 249.659 119.109 250.107C120.077 250.814 123.5 252.079 126.394 252.798C128.101 253.222 128.737 253.545 128.657 253.949C128.392 255.291 127.4 255.313 123.468 254.067C118.892 252.616 118.055 252.717 116.463 254.905C113.357 259.173 105.607 260.463 97.8782 257.997C96.0838 257.425 94.2497 256.554 93.5821 255.957L92.4172 254.916L94.0728 253.568C96.2852 251.766 99.7518 250.018 102.503 249.317C105.046 248.669 108.975 248.565 110.402 249.107C112.294 249.827 111.748 248.764 109.412 247.182C108.11 246.299 105.982 244.678 104.682 243.577C102.231 241.502 100.926 241.107 100.043 242.171C99.2422 243.136 96.9129 244.16 94.9344 244.417C90.47 244.995 82.9914 242.094 78.8925 238.194C77.6753 237.035 76.679 235.886 76.679 235.64C76.679 235.082 77.7073 234.52 80 233.825C84.5824 232.436 89.7876 232.813 93.963 234.837C95.2742 235.472 96.4436 235.895 96.5621 235.777C96.6805 235.659 96.2018 234.914 95.4983 234.123C94.7952 233.331 93.4557 231.549 92.5221 230.161L91.0679 228H60.1254C80.3478 270.569 123.737 300 174 300C224.263 300 267.652 270.569 287.875 228H256.732L255.278 230.161C254.344 231.549 253.005 233.331 252.301 234.123C251.598 234.914 251.119 235.659 251.238 235.777C251.356 235.895 252.525 235.472 253.837 234.837C258.012 232.813 263.217 232.436 267.8 233.825C270.092 234.52 271.121 235.082 271.121 235.64C271.121 235.886 270.124 237.035 268.907 238.194C264.808 242.094 257.33 244.995 252.865 244.417C250.887 244.16 248.558 243.136 247.756 242.171C246.873 241.107 245.569 241.502 243.117 243.577C241.818 244.678 239.69 246.299 238.388 247.182C236.052 248.764 235.506 249.827 237.398 249.107C238.825 248.565 242.753 248.669 245.297 249.317C248.048 250.018 251.515 251.766 253.727 253.568L255.383 254.916L254.218 255.957C253.55 256.554 251.716 257.425 249.922 257.997C242.192 260.463 234.443 259.173 231.337 254.905C229.745 252.717 228.907 252.616 224.332 254.067C220.4 255.313 219.408 255.291 219.143 253.949C219.063 253.545 219.699 253.222 221.406 252.798C224.3 252.079 227.723 250.814 228.691 250.107C229.303 249.659 229.444 248.878 229.667 244.731C230.032 237.927 231.633 234.033 235.767 229.9L237.667 228ZM254.672 228C254.566 228.328 254.113 228.938 253.255 230.072C252.628 230.902 252.062 231.652 251.999 231.738C251.935 231.825 251.788 231.801 251.673 231.686C251.558 231.57 251.747 230.608 252.094 229.548C252.355 228.748 252.532 228.276 252.745 228H254.672ZM299.984 172C298.916 103.334 242.92 48 174 48C105.08 48 49.084 103.334 48.0155 172H65.6992C65.713 171.844 65.3394 170.673 64.8375 169.307C64.3105 167.873 63.6308 165.544 63.3271 164.131C62.6248 160.863 62.2219 154.51 62.6478 153.412C62.9669 152.587 63.0114 152.602 64.9356 154.166C69.4829 157.862 72.9525 163.978 73.6447 169.519C73.7881 170.666 74.0744 171.565 74.2807 171.518C74.704 171.42 75.7481 159.988 75.4444 158.779C75.3369 158.35 74.3316 156.94 73.2106 155.645C70.0774 152.027 69.3754 149.494 69.3754 141.804C69.3754 137.143 69.5395 135.1 70.0955 132.831C70.4912 131.215 70.9476 129.811 71.1095 129.711C71.5538 129.436 73.9827 132.794 75.2302 135.408C76.7869 138.669 77.4735 141.975 77.4799 146.236C77.4829 148.259 77.6432 149.914 77.836 149.914C78.0287 149.914 78.4625 148.938 78.8001 147.745C79.1374 146.552 79.9133 144.246 80.5244 142.621C81.9227 138.9 81.9182 137.982 80.4946 136.254C77.5316 132.66 77.2253 126.502 79.5659 117.583C80.4874 114.07 82.4882 109.552 83.1223 109.552C83.4882 109.552 84.5508 112.178 85.5542 115.562C86.3584 118.275 86.3856 126.045 85.5998 128.636C84.9393 130.813 84.9171 131.053 85.3739 131.053C85.5632 131.053 86.4984 129.738 87.452 128.13C89.6643 124.4 89.9521 123.937 90.9148 122.566C92.192 120.747 92.2497 119.081 91.1106 116.908C90.2599 115.284 90.126 114.576 90.1502 111.815C90.1819 108.152 90.825 105.661 92.7711 101.664C94.7477 97.6054 98.9329 92.3975 99.6455 93.1104C99.802 93.2666 99.9234 95.7993 99.9159 98.7385C99.9004 104.586 99.0449 109.184 97.3946 112.289C95.5497 115.76 95.7443 115.904 98.3565 113.006C99.2218 112.045 101.053 110.153 102.426 108.803C104.768 106.497 104.933 106.222 105.108 104.341C105.34 101.832 107.424 98.654 109.983 96.9037C111.602 95.7962 119.955 92.2002 120.908 92.2002C121.53 92.2002 121.038 93.8452 119.352 97.4009C116.868 102.637 113.252 105.659 108.203 106.715C105.52 107.276 104.535 107.885 101.83 110.654C99.8623 112.668 100.048 113.034 102.512 112.004C103.257 111.693 104.933 111.439 106.236 111.44C108.982 111.441 115.164 112.376 115.651 112.863C116.099 113.311 112.389 116.979 110.528 117.928C106.56 119.953 102.369 120.354 98.6096 119.068C97.4685 118.678 96.1287 118.46 95.6322 118.584C95.0298 118.734 93.8729 120.061 92.1551 122.574C90.7394 124.644 89.5757 126.465 89.5689 126.621C89.547 127.118 90.3105 126.926 91.3633 126.17C93.2705 124.8 96.7168 123.954 101.533 123.672C104.075 123.524 106.154 123.52 106.154 123.665C106.154 123.809 105.481 124.918 104.659 126.129C102.838 128.811 100.247 131.101 97.478 132.475C95.5779 133.419 95.0329 133.506 91.0061 133.509C87.2739 133.513 86.4934 133.618 85.8443 134.205C85.2192 134.771 84.0434 137.384 81.3633 144.162C81.0295 145.006 82.0725 144.658 82.8537 143.665C83.2724 143.133 84.2867 142.273 85.1076 141.755C86.902 140.622 96.739 136.224 96.9672 136.453C97.2335 136.718 95.6371 140.485 93.98 143.502C91.0864 148.769 87.0464 151.979 82.5406 152.59C81.4331 152.741 80.0438 153.208 79.4535 153.628C78.4931 154.312 78.2947 154.842 77.5708 158.66C76.5546 164.022 76.1577 167.645 76.5881 167.637C76.7703 167.633 77.3335 166.675 77.8394 165.507C78.977 162.88 81.5387 160.079 86.5625 155.967L90.4301 152.802L90.1769 155.79C89.8665 159.454 89.2445 161.806 87.7409 165.003C86.5452 167.544 84.0801 171.098 82.8875 172H153.807L157.112 164.447H163.824L163.827 164.445L165.435 163.541C168.218 161.978 169.925 154.766 169.925 151.58V145.796C167.635 144.942 165.489 143.383 163.559 141.25H161.374C150.125 141.25 141 132.125 141 120.862V113.932C141 113.028 141.732 112.296 142.636 112.296H154.062C154.049 111.759 154.042 111.218 154.042 110.675V110.094H151.871V103.494H196.129V110.094H193.958V110.675C193.958 111.012 193.955 111.349 193.95 111.684C193.947 111.893 193.943 112.102 193.938 112.31H205.364C206.268 112.31 207 113.042 207 113.932V120.862C207 132.11 197.875 141.25 186.626 141.25H184.441C182.511 143.383 180.365 144.942 178.075 145.796V151.58C178.075 154.766 179.797 161.978 182.566 163.541L184.173 164.445L184.176 164.447H190.888L194.193 172H264.912C263.72 171.098 261.255 167.544 260.059 165.003C258.555 161.806 257.933 159.454 257.623 155.79L257.37 152.802L261.237 155.967C266.261 160.079 268.823 162.88 269.96 165.507C270.466 166.675 271.029 167.633 271.212 167.637C271.642 167.645 271.245 164.022 270.229 158.66C269.505 154.842 269.307 154.312 268.346 153.628C267.756 153.208 266.367 152.741 265.259 152.59C260.753 151.979 256.713 148.769 253.82 143.502C252.163 140.485 250.566 136.718 250.833 136.453C251.061 136.224 260.898 140.622 262.692 141.755C263.513 142.273 264.527 143.133 264.946 143.665C265.727 144.658 266.77 145.006 266.436 144.162C263.756 137.384 262.581 134.771 261.955 134.205C261.306 133.618 260.526 133.513 256.794 133.509C252.767 133.506 252.222 133.419 250.322 132.475C247.553 131.101 244.962 128.811 243.141 126.129C242.318 124.918 241.646 123.809 241.646 123.665C241.646 123.52 243.725 123.524 246.267 123.672C251.083 123.954 254.529 124.8 256.436 126.17C257.489 126.926 258.253 127.118 258.231 126.621C258.224 126.465 257.06 124.644 255.645 122.574C253.927 120.061 252.77 118.734 252.167 118.584C251.671 118.46 250.331 118.678 249.19 119.068C245.43 120.354 241.24 119.953 237.271 117.928C235.411 116.979 231.701 113.311 232.149 112.863C232.636 112.376 238.817 111.441 241.564 111.44C242.867 111.439 244.543 111.693 245.287 112.004C247.752 113.034 247.937 112.668 245.969 110.654C243.264 107.885 242.28 107.276 239.596 106.715C234.548 105.659 230.931 102.637 228.448 97.4009C226.762 93.8452 226.27 92.2002 226.892 92.2002C227.845 92.2002 236.198 95.7962 237.817 96.9037C240.376 98.654 242.459 101.832 242.692 104.341C242.867 106.222 243.032 106.497 245.374 108.803C246.747 110.153 248.578 112.045 249.443 113.006C252.055 115.904 252.25 115.76 250.405 112.289C248.755 109.184 247.899 104.586 247.884 98.7385C247.876 95.7993 247.998 93.2666 248.154 93.1104C248.867 92.3975 253.052 97.6054 255.029 101.664C256.975 105.661 257.618 108.152 257.65 111.815C257.674 114.576 257.54 115.284 256.689 116.908C255.55 119.081 255.608 120.747 256.885 122.566C257.848 123.937 258.135 124.4 260.348 128.13C261.301 129.738 262.237 131.053 262.426 131.053C262.883 131.053 262.86 130.813 262.2 128.636C261.414 126.045 261.441 118.275 262.246 115.562C263.249 112.178 264.312 109.552 264.677 109.552C265.312 109.552 267.312 114.07 268.234 117.583C270.574 126.502 270.268 132.66 267.305 136.254C265.882 137.982 265.877 138.9 267.275 142.621C267.886 144.246 268.662 146.552 269 147.745C269.337 148.938 269.771 149.914 269.964 149.914C270.157 149.914 270.317 148.259 270.32 146.236C270.326 141.975 271.013 138.669 272.57 135.408C273.817 132.794 276.246 129.436 276.69 129.711C276.852 129.811 277.309 131.215 277.704 132.831C278.26 135.1 278.424 137.143 278.424 141.804C278.424 149.494 277.722 152.027 274.589 155.645C273.468 156.94 272.463 158.35 272.355 158.779C272.052 159.988 273.096 171.42 273.519 171.518C273.725 171.565 274.012 170.666 274.155 169.519C274.847 163.978 278.317 157.862 282.864 154.166C284.788 152.602 284.833 152.587 285.152 153.412C285.578 154.51 285.175 160.863 284.473 164.131C284.169 165.544 283.489 167.873 282.962 169.307C282.46 170.673 282.087 171.844 282.101 172H299.984ZM95.0548 228H93.1282C93.2334 228.328 93.6863 228.938 94.5443 230.072C95.1716 230.902 95.7375 231.652 95.8012 231.738C95.865 231.825 96.0113 231.801 96.1268 231.686C96.2422 231.57 96.0532 230.608 95.7062 229.548C95.4446 228.748 95.2674 228.276 95.0548 228ZM106.811 228H103.526C103.412 228.209 103.359 228.533 103.284 229.035C103.168 229.813 102.797 231.553 102.459 232.901C102.121 234.25 101.831 236.082 101.815 236.972C101.787 238.482 101.929 238.718 103.957 240.513C107.15 243.339 112.291 246.962 112.447 246.496C112.521 246.273 112.075 245.514 111.455 244.808C109.602 242.698 108.492 238.975 107.2 230.544L106.811 228ZM57.6015 185.748V184.091H66.3053V185.748H62.9335V195H60.9733V185.748H57.6015ZM77.2477 189.546C77.2477 190.721 77.0275 191.728 76.5872 192.566C76.1504 193.4 75.5538 194.039 74.7974 194.483C74.0446 194.927 73.1905 195.149 72.2353 195.149C71.28 195.149 70.4242 194.927 69.6678 194.483C68.915 194.036 68.3184 193.395 67.878 192.56C67.4412 191.722 67.2228 190.717 67.2228 189.546C67.2228 188.37 67.4412 187.365 67.878 186.531C68.3184 185.693 68.915 185.052 69.6678 184.608C70.4242 184.164 71.28 183.942 72.2353 183.942C73.1905 183.942 74.0446 184.164 74.7974 184.608C75.5538 185.052 76.1504 185.693 76.5872 186.531C77.0275 187.365 77.2477 188.37 77.2477 189.546ZM79.116 184.091H83.2069C84.045 184.091 84.7481 184.247 85.3163 184.56C85.8881 184.872 86.3195 185.302 86.6107 185.849C86.9054 186.392 87.0528 187.01 87.0528 187.702C87.0528 188.402 86.9054 189.023 86.6107 189.567C86.316 190.11 85.881 190.538 85.3057 190.851C84.7304 191.16 84.0219 191.314 83.1803 191.314H81.0922V195H79.116V184.091ZM98.4187 187.09C98.369 186.625 98.1594 186.262 97.7901 186.003C97.4244 185.744 96.9485 185.614 96.3626 185.614C95.9506 185.614 95.5973 185.677 95.3026 185.801C95.0078 185.925 94.7823 186.094 94.6261 186.307C94.4698 186.52 94.3899 186.763 94.3864 187.037C94.3864 187.264 94.4379 187.461 94.5408 187.628C94.6474 187.795 94.7912 187.937 94.9723 188.054C95.1534 188.168 95.354 188.264 95.5742 188.342C95.7944 188.42 96.0163 188.486 96.2401 188.539L97.2628 188.794C97.6747 188.89 98.0707 189.02 98.4506 189.183C98.8342 189.347 99.1768 189.553 99.4787 189.801C99.7841 190.05 100.026 190.35 100.203 190.701C100.381 191.053 100.469 191.465 100.469 191.937C100.469 192.576 100.306 193.139 99.9794 193.626C99.6527 194.109 99.1804 194.487 98.5625 194.76C97.9482 195.03 97.2042 195.165 96.3306 195.165C95.4819 195.165 94.745 195.034 94.12 194.771C93.4986 194.508 93.0121 194.125 92.6605 193.62C92.3125 193.116 92.1243 192.502 92.0959 191.777H94.0401C94.0685 192.157 94.1857 192.473 94.3917 192.726C94.5977 192.978 94.8658 193.166 95.196 193.29C95.5298 193.414 95.9027 193.477 96.3146 193.477C96.7443 193.477 97.1207 193.413 97.4439 193.285C97.7706 193.153 98.0263 192.972 98.2109 192.742C98.3956 192.507 98.4897 192.234 98.4933 191.921C98.4897 191.637 98.4062 191.403 98.2429 191.218C98.0795 191.03 97.8505 190.874 97.5558 190.749C97.2646 190.622 96.9237 190.508 96.533 190.408L95.2919 190.089C94.3935 189.858 93.6832 189.508 93.1612 189.039C92.6428 188.567 92.3835 187.94 92.3835 187.159C92.3835 186.516 92.5575 185.954 92.9055 185.471C93.2571 184.988 93.7347 184.613 94.3384 184.347C94.9421 184.077 95.6257 183.942 96.3892 183.942C97.1634 183.942 97.8416 184.077 98.424 184.347C99.0099 184.613 99.4698 184.984 99.8036 185.46C100.137 185.932 100.31 186.476 100.32 187.09H98.4187ZM111.979 189.546C111.979 190.721 111.759 191.728 111.319 192.566C110.882 193.4 110.285 194.039 109.529 194.483C108.776 194.927 107.922 195.149 106.967 195.149C106.011 195.149 105.156 194.927 104.399 194.483C103.646 194.036 103.05 193.395 102.609 192.56C102.173 191.722 101.954 190.717 101.954 189.546C101.954 188.37 102.173 187.365 102.609 186.531C103.05 185.693 103.646 185.052 104.399 184.608C105.156 184.164 106.011 183.942 106.967 183.942C107.922 183.942 108.776 184.164 109.529 184.608C110.285 185.052 110.882 185.693 111.319 186.531C111.759 187.365 111.979 188.37 111.979 189.546ZM113.847 184.091H120.836V185.748H115.824V188.709H120.357V190.366H115.824V195H113.847V184.091ZM122.157 185.748V184.091H130.861V185.748H127.489V195H125.529V185.748H122.157ZM131.756 184.091H133.881L135.847 192.108H135.948L138.047 184.091H139.98L142.084 192.113H142.18L144.146 184.091H146.271L143.192 195H141.243L139.059 187.346H138.974L136.784 195H134.835L131.756 184.091ZM148.017 195H145.908L149.748 184.091H152.188L156.034 195H153.924L153.02 192.31H148.919L148.017 195ZM157.471 184.091H161.561C162.4 184.091 163.103 184.237 163.671 184.528C164.243 184.819 164.674 185.227 164.965 185.753C165.26 186.275 165.407 186.884 165.407 187.58C165.407 188.28 165.258 188.887 164.96 189.402C164.665 189.913 164.23 190.309 163.655 190.59C163.587 190.622 163.518 190.653 163.447 190.681L165.807 195H163.602L161.458 191.005H159.447V195H157.471V184.091ZM167.226 184.091H174.322V185.748H169.203V188.709H173.954V190.366H169.203V193.343H174.364V195H167.226V184.091ZM183.755 195H180.058V184.091H183.83C184.913 184.091 185.843 184.309 186.621 184.746C187.402 185.179 188.002 185.803 188.421 186.616C188.84 187.429 189.05 188.402 189.05 189.535C189.05 190.671 188.839 191.648 188.416 192.465C187.997 193.281 187.392 193.908 186.6 194.345C185.811 194.782 184.863 195 183.755 195ZM190.928 184.091H198.023V185.748H192.904V188.709H197.655V190.366H192.904V193.343H198.065V195H190.928V184.091ZM201.498 184.091L204.338 192.678H204.449L207.283 184.091H209.456L205.611 195H203.171L199.33 184.091H201.498ZM210.893 184.091H217.989V185.748H212.87V188.709H217.621V190.366H212.87V193.343H218.031V195H210.893V184.091ZM220.005 184.091H221.981V193.343H226.786V195H220.005V184.091ZM237.824 189.546C237.824 190.721 237.604 191.728 237.163 192.566C236.727 193.4 236.13 194.039 235.374 194.483C234.621 194.927 233.767 195.149 232.811 195.149C231.856 195.149 231 194.927 230.244 194.483C229.491 194.036 228.895 193.395 228.454 192.56C228.017 191.722 227.799 190.717 227.799 189.546C227.799 188.37 228.017 187.365 228.454 186.531C228.895 185.693 229.491 185.052 230.244 184.608C231 184.164 231.856 183.942 232.811 183.942C233.767 183.942 234.621 184.164 235.374 184.608C236.13 185.052 236.727 185.693 237.163 186.531C237.604 187.365 237.824 188.37 237.824 189.546ZM239.692 195V184.091H243.783C244.621 184.091 245.324 184.247 245.892 184.56C246.464 184.872 246.896 185.302 247.187 185.849C247.482 186.392 247.629 187.01 247.629 187.702C247.629 188.402 247.482 189.023 247.187 189.567C246.892 190.11 246.457 190.538 245.882 190.851C245.307 191.16 244.598 191.314 243.756 191.314H241.668V195H239.692ZM249.346 184.091H251.764L255.002 191.996H255.13L258.369 184.091H260.787V195H258.891V187.505H258.79L255.775 194.968H254.358L251.343 187.489H251.242V195H249.346V184.091ZM262.939 184.091H270.034V185.748H264.915V188.709H269.667V190.366H264.915V193.343H270.077V195H262.939V184.091ZM281.015 195H279.258L274.117 187.569H274.027V195H272.051V184.091H273.819L278.954 191.527H279.05V184.091H281.015V195ZM282.689 185.748V184.091H291.393V185.748H288.021V195H286.061V185.748H282.689ZM101.857 207.772H99.8649C99.8081 207.445 99.7033 207.156 99.5506 206.903C99.3979 206.648 99.2079 206.431 98.9806 206.254C98.7534 206.076 98.4941 205.943 98.2029 205.854C97.9153 205.762 97.6046 205.716 97.2708 205.716C96.6777 205.716 96.1522 205.865 95.6941 206.163C95.236 206.458 94.8773 206.891 94.6181 207.463C94.3588 208.031 94.2292 208.725 94.2292 209.546C94.2292 210.38 94.3588 211.083 94.6181 211.655C94.8809 212.223 95.2395 212.653 95.6941 212.944C96.1522 213.232 96.676 213.375 97.2654 213.375C97.5922 213.375 97.8976 213.333 98.1816 213.248C98.4693 213.159 98.7267 213.029 98.954 212.859C99.1848 212.688 99.3784 212.479 99.5346 212.23C99.6944 211.982 99.8045 211.698 99.8649 211.378L101.857 211.389C101.782 211.907 101.621 212.394 101.372 212.848C101.127 213.303 100.806 213.704 100.408 214.052C100.01 214.396 99.5453 214.666 99.0126 214.862C98.4799 215.053 97.8887 215.149 97.2388 215.149C96.28 215.149 95.4242 214.927 94.6713 214.483C93.9185 214.039 93.3255 213.398 92.8922 212.56C92.459 211.722 92.2424 210.717 92.2424 209.546C92.2424 208.37 92.4608 207.365 92.8976 206.531C93.3343 205.693 93.9292 205.052 94.682 204.608C95.4348 204.164 96.2871 203.942 97.2388 203.942C97.8461 203.942 98.4107 204.027 98.9327 204.198C99.4547 204.368 99.9199 204.618 100.328 204.949C100.737 205.275 101.072 205.677 101.335 206.152C101.601 206.625 101.775 207.164 101.857 207.772ZM113.415 209.546C113.415 210.721 113.195 211.728 112.754 212.566C112.317 213.4 111.721 214.039 110.964 214.483C110.212 214.927 109.358 215.149 108.402 215.149C107.447 215.149 106.591 214.927 105.835 214.483C105.082 214.036 104.485 213.395 104.045 212.56C103.608 211.722 103.39 210.717 103.39 209.546C103.39 208.37 103.608 207.365 104.045 206.531C104.485 205.693 105.082 205.052 105.835 204.608C106.591 204.164 107.447 203.942 108.402 203.942C109.358 203.942 110.212 204.164 110.964 204.608C111.721 205.052 112.317 205.693 112.754 206.531C113.195 207.365 113.415 208.37 113.415 209.546ZM115.283 204.091H117.701L120.94 211.996H121.068L124.306 204.091H126.725V215H124.828V207.505H124.727L121.712 214.968H120.295L117.281 207.489H117.179V215H115.283V204.091ZM128.877 204.091H132.968C133.806 204.091 134.509 204.247 135.077 204.56C135.649 204.872 136.08 205.302 136.371 205.849C136.666 206.392 136.814 207.01 136.814 207.702C136.814 208.402 136.666 209.023 136.371 209.567C136.077 210.11 135.642 210.538 135.066 210.851C134.491 211.16 133.783 211.314 132.941 211.314H130.853V215H128.877V204.091ZM138.715 215H136.606L140.446 204.091H142.886L146.732 215H144.623L143.719 212.31H139.617L138.715 215ZM157.134 215H155.376L150.236 207.569H150.145V215H148.169V204.091H149.937L155.072 211.527H155.168V204.091H157.134V215ZM158.541 204.091H160.773L163.442 208.917H163.548L166.217 204.091H168.449L164.48 210.93V215H162.51V210.93L158.541 204.091ZM175.545 215H173.569V204.091H175.545V215ZM186.65 215H184.892L179.752 207.569H179.662V215H177.685V204.091H179.454L184.589 211.527H184.685V204.091H186.65V215ZM199.401 204.091H201.377V211.218C201.377 211.999 201.193 212.686 200.823 213.28C200.457 213.873 199.943 214.336 199.279 214.67C198.614 215 197.839 215.165 196.951 215.165C196.059 215.165 195.282 215 194.618 214.67C193.954 214.336 193.439 213.873 193.073 213.28C192.707 212.686 192.524 211.999 192.524 211.218V204.091H194.5V211.053C194.5 211.508 194.6 211.912 194.799 212.267C195.001 212.623 195.285 212.901 195.651 213.104C196.017 213.303 196.45 213.402 196.951 213.402C197.451 213.402 197.885 213.303 198.25 213.104C198.62 212.901 198.904 212.623 199.103 212.267C199.302 211.912 199.401 211.508 199.401 211.053V204.091ZM203.525 204.091H205.501V209.103H205.635L209.891 204.091H212.304L208.085 208.986L212.341 215H209.965L206.711 210.323L205.501 211.751V215H203.525V204.091ZM213.677 204.091H217.767C218.606 204.091 219.309 204.237 219.877 204.528C220.449 204.819 220.88 205.227 221.171 205.753C221.466 206.275 221.613 206.884 221.613 207.58C221.613 208.28 221.464 208.887 221.166 209.402C220.871 209.913 220.436 210.309 219.861 210.59C219.794 210.622 219.724 210.653 219.653 210.681L222.013 215H219.808L217.664 211.005H215.653V215H213.677V204.091ZM224.833 215H222.724L226.565 204.091H229.004L232.85 215H230.741L229.837 212.31H225.736L224.833 215ZM236.263 215H234.287V204.091H236.263V215ZM247.368 204.091V215H245.61L240.47 207.569H240.379V215H238.403V204.091H240.172L245.307 211.527H245.402V204.091H247.368ZM249.521 215V204.091H256.616V205.748H251.498V208.709H256.249V210.366H251.498V213.343H256.659V215H249.521ZM193.774 115.567C193.096 124.508 190.582 132.398 186.941 137.979C196.239 137.806 203.743 130.202 203.743 120.862V115.567H193.774ZM161.047 137.964C157.41 132.382 154.902 124.492 154.225 115.553H144.257V120.847C144.257 130.184 151.755 137.786 161.047 137.964ZM168.875 110H184.754L184.73 116.047H170.325C170.325 116.047 169.096 116.268 169.096 117.497V132H163V116.072C163 116.072 163.123 111.352 168.875 110ZM170.817 118.677C170.817 117.596 172.046 117.719 172.046 117.719H185V125.683C184.951 131.164 179.617 131.976 179.617 131.976H170.817V125.683H178.142C178.904 125.683 178.879 124.97 178.879 124.97V123.52H170.817V118.677Z" fill="white"/>
</svg>
