<svg viewBox="0 0 348 348" fill="none" xmlns="http://www.w3.org/2000/svg">
<path fill-rule="evenodd" clip-rule="evenodd" d="M173.999 33L302.339 103.226V244.774L173.999 315L45.66 244.774V103.226L173.999 33ZM290.312 110.355L173.999 46.7102L57.6873 110.355V140.925H290.312V110.355ZM57.6873 237.645V207.075H290.312V237.645L173.999 301.29L57.6873 237.645ZM140.453 154.276H146.868V194.367H140.453V154.276ZM169.319 181.578C169.319 187.714 164.16 188.203 162.625 188.203C158.791 188.203 158.094 184.614 158.094 182.449V167.105H151.679V182.417C151.679 186.217 152.872 189.354 154.963 191.445C156.811 193.295 159.579 194.305 162.577 194.305C164.704 194.305 167.715 193.642 169.319 192.178V194.367H175.734V167.105H169.319V181.578ZM182.148 157.483H188.563V167.105H193.374V173.52H188.563V194.367H182.148V173.52H177.337V167.105H182.148V157.483ZM213.575 186.216C212.178 187.471 210.334 188.168 208.31 188.168C203.849 188.168 200.573 184.891 200.573 180.393C200.573 175.895 203.745 172.756 208.31 172.756C210.299 172.756 212.178 173.419 213.61 174.674L214.584 175.511L218.909 171.188L217.826 170.211C215.281 167.913 211.902 166.624 208.309 166.624C200.29 166.624 194.467 172.41 194.467 180.359C194.467 188.275 200.43 194.268 208.309 194.268C211.97 194.268 215.384 192.979 217.897 190.643L218.943 189.667L214.55 185.347L213.575 186.216ZM234.793 166.624C237.792 166.624 239.957 167.635 241.804 169.482C243.897 171.575 244.691 174.711 244.691 178.512V194.367H238.276V178.309C238.279 176.134 238.283 172.726 234.548 172.726C233.013 172.726 228.654 173.214 228.654 179.349V194.367H222.24V154.276H228.654V168.749C230.258 167.287 232.666 166.624 234.793 166.624ZM208.098 175.826C209.328 175.826 210.508 176.314 211.378 177.184C212.247 178.054 212.736 179.234 212.736 180.464C212.736 181.693 212.247 182.873 211.378 183.743C210.508 184.613 209.328 185.101 208.098 185.101C206.868 185.101 205.689 184.613 204.819 183.743C203.949 182.873 203.461 181.693 203.461 180.464C203.461 179.234 203.949 178.054 204.819 177.184C205.689 176.314 206.868 175.826 208.098 175.826ZM131.473 184.298C129.034 186.808 125.721 188.168 122.234 188.168C115.088 188.168 109.893 182.555 109.893 174.851C109.893 167.111 115.088 161.499 122.234 161.499C125.687 161.499 128.963 162.857 131.439 165.333L132.414 166.31L136.702 162.021L135.761 161.045C132.206 157.384 127.395 155.398 122.234 155.398C111.706 155.398 103.792 163.765 103.792 174.884C103.792 185.97 111.742 194.303 122.234 194.303C127.43 194.303 132.241 192.282 135.796 188.621L136.738 187.644L132.485 183.288L131.473 184.298Z" fill="white"/>
<path d="M190.146 105.31H188.527L194.303 88.816H195.888L190.146 105.31Z" fill="white"/>
<path fill-rule="evenodd" clip-rule="evenodd" d="M140.139 96.2449C140.139 95.2339 140.286 94.3423 140.582 93.5698C140.889 92.7974 141.297 92.1556 141.809 91.6444C142.331 91.1219 142.933 90.73 143.615 90.4688C144.308 90.2075 145.04 90.0769 145.813 90.0769C146.574 90.0769 147.289 90.2075 147.96 90.4688C148.641 90.73 149.238 91.1219 149.749 91.6444C150.26 92.1556 150.663 92.7974 150.958 93.5698C151.265 94.3423 151.419 95.2339 151.419 96.2449C151.419 97.2559 151.265 98.1476 150.958 98.92C150.663 99.6924 150.26 100.34 149.749 100.862C149.238 101.374 148.641 101.76 147.96 102.021C147.289 102.282 146.574 102.413 145.813 102.413C145.04 102.413 144.308 102.282 143.615 102.021C142.933 101.76 142.331 101.374 141.809 100.862C141.297 100.34 140.889 99.6924 140.582 98.92C140.286 98.1476 140.139 97.2559 140.139 96.2449ZM141.877 96.2449C141.877 96.9605 141.968 97.6137 142.149 98.2044C142.331 98.7837 142.587 99.2778 142.916 99.6868C143.257 100.096 143.666 100.414 144.143 100.641C144.631 100.857 145.177 100.965 145.779 100.965C146.381 100.965 146.92 100.857 147.397 100.641C147.874 100.414 148.278 100.096 148.607 99.6868C148.948 99.2778 149.209 98.7837 149.391 98.2044C149.573 97.6137 149.664 96.9605 149.664 96.2449C149.664 95.5293 149.573 94.8818 149.391 94.3025C149.209 93.7118 148.948 93.212 148.607 92.8031C148.278 92.3941 147.874 92.0818 147.397 91.8659C146.92 91.6388 146.381 91.5252 145.779 91.5252C145.177 91.5252 144.631 91.6388 144.143 91.8659C143.666 92.0818 143.257 92.3941 142.916 92.8031C142.587 93.212 142.331 93.7118 142.149 94.3025C141.968 94.8818 141.877 95.5293 141.877 96.2449Z" fill="white"/>
<path d="M139.337 90.3495V91.7808H135.622V102.157H133.969V91.7808H130.255V90.3495H139.337Z" fill="white"/>
<path fill-rule="evenodd" clip-rule="evenodd" d="M160.829 91.1844C159.943 90.5483 158.671 90.2302 157.013 90.2302C156.536 90.2302 156.007 90.2529 155.428 90.2984C154.86 90.3325 154.343 90.4063 153.878 90.5199V102.157H155.53V97.7784H156.842C157.672 97.7784 158.416 97.7103 159.074 97.5739C159.733 97.4376 160.29 97.2218 160.744 96.9265C161.21 96.6198 161.562 96.2279 161.801 95.7508C162.05 95.2623 162.175 94.6773 162.175 93.9958C162.175 92.7463 161.727 91.8092 160.829 91.1844ZM155.53 91.7296C155.905 91.6956 156.445 91.6785 157.149 91.6785C157.592 91.6785 158.012 91.7126 158.41 91.7808C158.807 91.8489 159.154 91.9739 159.449 92.1556C159.756 92.326 159.994 92.5589 160.165 92.8542C160.347 93.1495 160.437 93.5244 160.437 93.9788C160.437 94.4558 160.352 94.8477 160.182 95.1544C160.012 95.4611 159.767 95.7054 159.449 95.8871C159.143 96.0575 158.762 96.1824 158.308 96.262C157.853 96.3301 157.342 96.3642 156.774 96.3642H155.53V91.7296Z" fill="white"/>
<path fill-rule="evenodd" clip-rule="evenodd" d="M176.076 102.157C175.883 101.646 175.702 101.146 175.531 100.658C175.361 100.158 175.185 99.6527 175.003 99.1415H169.653L168.579 102.157H166.858C167.313 100.908 167.739 99.7549 168.136 98.6985C168.534 97.6307 168.92 96.6198 169.295 95.6656C169.681 94.7114 170.062 93.8027 170.437 92.9394C170.811 92.0647 171.203 91.2014 171.612 90.3495H173.129C173.538 91.2014 173.93 92.0647 174.304 92.9394C174.679 93.8027 175.054 94.7114 175.429 95.6656C175.815 96.6198 176.207 97.6307 176.605 98.6985C177.002 99.7549 177.428 100.908 177.883 102.157H176.076ZM174.526 97.7784C174.162 96.7902 173.799 95.836 173.435 94.9159C173.083 93.9844 172.714 93.0927 172.328 92.2408C171.93 93.0927 171.55 93.9844 171.186 94.9159C170.834 95.836 170.482 96.7902 170.13 97.7784H174.526Z" fill="white"/>
<path fill-rule="evenodd" clip-rule="evenodd" d="M185.943 98.1192C185.671 97.7443 185.444 97.4433 185.262 97.2161C186.068 96.9435 186.676 96.5289 187.085 95.9723C187.505 95.4157 187.715 94.7455 187.715 93.9617C187.715 92.7236 187.278 91.7921 186.403 91.1674C185.54 90.5426 184.279 90.2302 182.621 90.2302C182.144 90.2302 181.615 90.2529 181.036 90.2984C180.468 90.3325 179.951 90.4063 179.486 90.5199V102.157H181.138V97.5399H183.081C183.24 97.5399 183.393 97.5342 183.541 97.5228C183.757 97.7841 183.995 98.0908 184.256 98.4429C184.529 98.7951 184.802 99.1756 185.074 99.5845C185.347 99.9821 185.614 100.402 185.875 100.845C186.148 101.288 186.398 101.726 186.625 102.157H188.431C188.227 101.703 187.977 101.232 187.681 100.743C187.397 100.255 187.108 99.789 186.812 99.346C186.517 98.8916 186.227 98.4827 185.943 98.1192ZM181.138 91.7296C181.513 91.6956 182.053 91.6785 182.757 91.6785C183.2 91.6785 183.615 91.7126 184.001 91.7808C184.398 91.8489 184.739 91.9682 185.023 92.1386C185.319 92.309 185.551 92.5418 185.722 92.8372C185.892 93.1325 185.977 93.5017 185.977 93.9447C185.977 94.4218 185.892 94.808 185.722 95.1033C185.551 95.3873 185.307 95.6088 184.989 95.7678C184.682 95.9269 184.302 96.0348 183.848 96.0916C183.393 96.1484 182.882 96.1768 182.314 96.1768H181.138V91.7296Z" fill="white"/>
<path d="M204.646 96.8413C205.021 95.8871 205.401 94.8818 205.787 93.8254C206.185 92.7576 206.6 91.599 207.031 90.3495H205.259C204.657 92.1442 204.061 93.8765 203.47 95.5463C202.879 97.2048 202.272 98.7553 201.647 100.198C201.022 98.7439 200.415 97.1877 199.824 95.5293C199.233 93.8708 198.631 92.1442 198.018 90.3495H196.195C196.615 91.599 197.024 92.7576 197.421 93.8254C197.819 94.8818 198.205 95.8871 198.58 96.8413C198.966 97.7954 199.341 98.7099 199.705 99.5845C200.079 100.448 200.46 101.305 200.846 102.157H202.397C202.783 101.305 203.158 100.448 203.521 99.5845C203.896 98.7099 204.271 97.7954 204.646 96.8413Z" fill="white"/>
<path fill-rule="evenodd" clip-rule="evenodd" d="M214.447 97.2161C214.629 97.4433 214.856 97.7443 215.129 98.1192C215.413 98.4827 215.703 98.8916 215.998 99.346C216.293 99.789 216.583 100.255 216.867 100.743C217.162 101.232 217.412 101.703 217.617 102.157H215.81C215.583 101.726 215.333 101.288 215.061 100.845C214.799 100.402 214.533 99.9821 214.26 99.5845C213.987 99.1756 213.715 98.7951 213.442 98.4429C213.181 98.0908 212.942 97.7841 212.726 97.5228C212.579 97.5342 212.425 97.5399 212.266 97.5399H210.324V102.157H208.671V90.5199C209.137 90.4063 209.654 90.3325 210.222 90.2984C210.801 90.2529 211.329 90.2302 211.806 90.2302C213.465 90.2302 214.726 90.5426 215.589 91.1674C216.464 91.7921 216.901 92.7236 216.901 93.9617C216.901 94.7455 216.691 95.4157 216.271 95.9723C215.862 96.5289 215.254 96.9435 214.447 97.2161ZM211.943 91.6785C211.238 91.6785 210.699 91.6956 210.324 91.7296V96.1768H211.5C212.068 96.1768 212.579 96.1484 213.033 96.0916C213.488 96.0348 213.868 95.9269 214.175 95.7678C214.493 95.6088 214.737 95.3873 214.907 95.1033C215.078 94.808 215.163 94.4218 215.163 93.9447C215.163 93.5017 215.078 93.1325 214.907 92.8372C214.737 92.5418 214.504 92.309 214.209 92.1386C213.925 91.9682 213.584 91.8489 213.186 91.7808C212.8 91.7126 212.386 91.6785 211.943 91.6785Z" fill="white"/>
<path fill-rule="evenodd" clip-rule="evenodd" d="M122.919 120.3C122.919 119.289 123.067 118.397 123.362 117.625C123.669 116.852 124.078 116.21 124.589 115.699C125.111 115.177 125.713 114.785 126.395 114.524C127.088 114.262 127.821 114.132 128.593 114.132C129.354 114.132 130.07 114.262 130.74 114.524C131.421 114.785 132.018 115.177 132.529 115.699C133.04 116.21 133.443 116.852 133.739 117.625C134.045 118.397 134.199 119.289 134.199 120.3C134.199 121.311 134.045 122.202 133.739 122.975C133.443 123.747 133.04 124.395 132.529 124.917C132.018 125.428 131.421 125.815 130.74 126.076C130.07 126.337 129.354 126.468 128.593 126.468C127.821 126.468 127.088 126.337 126.395 126.076C125.713 125.815 125.111 125.428 124.589 124.917C124.078 124.395 123.669 123.747 123.362 122.975C123.067 122.202 122.919 121.311 122.919 120.3ZM124.657 120.3C124.657 121.015 124.748 121.668 124.93 122.259C125.111 122.838 125.367 123.333 125.696 123.741C126.037 124.15 126.446 124.468 126.923 124.696C127.412 124.911 127.957 125.019 128.559 125.019C129.161 125.019 129.7 124.911 130.178 124.696C130.655 124.468 131.058 124.15 131.387 123.741C131.728 123.333 131.989 122.838 132.171 122.259C132.353 121.668 132.444 121.015 132.444 120.3C132.444 119.584 132.353 118.937 132.171 118.357C131.989 117.767 131.728 117.267 131.387 116.858C131.058 116.449 130.655 116.137 130.178 115.921C129.7 115.694 129.161 115.58 128.559 115.58C127.957 115.58 127.412 115.694 126.923 115.921C126.446 116.137 126.037 116.449 125.696 116.858C125.367 117.267 125.111 117.767 124.93 118.357C124.748 118.937 124.657 119.584 124.657 120.3Z" fill="white"/>
<path fill-rule="evenodd" clip-rule="evenodd" d="M82.2244 120.3C82.2244 121.322 82.0654 122.214 81.7473 122.975C81.4293 123.724 80.9806 124.349 80.4013 124.849C79.822 125.337 79.1291 125.707 78.3226 125.957C77.5161 126.195 76.63 126.314 75.6645 126.314C75.1874 126.314 74.6592 126.292 74.0799 126.246C73.5119 126.212 72.9951 126.138 72.5294 126.025V114.575C72.9951 114.461 73.5119 114.387 74.0799 114.353C74.6592 114.308 75.1874 114.285 75.6645 114.285C76.63 114.285 77.5161 114.41 78.3226 114.66C79.1291 114.898 79.822 115.268 80.4013 115.767C80.9806 116.256 81.4293 116.881 81.7473 117.642C82.0654 118.391 82.2244 119.277 82.2244 120.3ZM75.8008 124.866C77.3684 124.866 78.5384 124.468 79.3108 123.673C80.0832 122.867 80.4694 121.742 80.4694 120.3C80.4694 118.857 80.0832 117.738 79.3108 116.943C78.5384 116.137 77.3684 115.733 75.8008 115.733C75.3351 115.733 74.9716 115.739 74.7103 115.75C74.4604 115.762 74.2844 115.773 74.1821 115.784V124.815C74.2844 124.826 74.4604 124.838 74.7103 124.849C74.9716 124.86 75.3351 124.866 75.8008 124.866Z" fill="white"/>
<path d="M84.6762 126.212V114.404H91.8836V115.818H86.3289V119.328H91.2702V120.709H86.3289V124.798H92.3095V126.212H84.6762Z" fill="white"/>
<path d="M102.708 117.88C103.106 116.812 103.52 115.654 103.952 114.404H102.18C101.578 116.199 100.982 117.931 100.391 119.601C99.8002 121.26 99.1924 122.81 98.5677 124.253C97.9429 122.799 97.3352 121.242 96.7445 119.584C96.1539 117.926 95.5518 116.199 94.9384 114.404H93.1153C93.5356 115.654 93.9445 116.812 94.3421 117.88C94.7396 118.937 95.1258 119.942 95.5007 120.896C95.8869 121.85 96.2618 122.765 96.6253 123.639C97.0001 124.503 97.3806 125.36 97.7669 126.212H99.3174C99.7036 125.36 100.078 124.503 100.442 123.639C100.817 122.765 101.192 121.85 101.567 120.896C101.941 119.942 102.322 118.937 102.708 117.88Z" fill="white"/>
<path d="M105.592 126.212V114.404H112.799V115.818H107.245V119.328H112.186V120.709H107.245V124.798H113.225V126.212H105.592Z" fill="white"/>
<path d="M122.431 126.212V124.781H116.979V114.404H115.326V126.212H122.431Z" fill="white"/>
<path fill-rule="evenodd" clip-rule="evenodd" d="M143.61 115.239C142.724 114.603 141.451 114.285 139.793 114.285C139.316 114.285 138.788 114.308 138.208 114.353C137.64 114.387 137.123 114.461 136.658 114.575V126.212H138.311V121.833H139.622C140.452 121.833 141.196 121.765 141.855 121.629C142.513 121.492 143.07 121.277 143.524 120.981C143.99 120.675 144.342 120.283 144.581 119.806C144.831 119.317 144.956 118.732 144.956 118.051C144.956 116.801 144.507 115.864 143.61 115.239ZM138.311 115.784C138.685 115.75 139.225 115.733 139.929 115.733C140.372 115.733 140.792 115.767 141.19 115.836C141.588 115.904 141.934 116.029 142.229 116.21C142.536 116.381 142.775 116.614 142.945 116.909C143.127 117.204 143.218 117.579 143.218 118.034C143.218 118.511 143.132 118.902 142.962 119.209C142.792 119.516 142.548 119.76 142.229 119.942C141.923 120.112 141.542 120.237 141.088 120.317C140.633 120.385 140.122 120.419 139.554 120.419H138.311V115.784Z" fill="white"/>
<path d="M152.323 124.576C152.21 124.304 152.056 123.957 151.863 123.537C151.681 123.117 151.483 122.662 151.267 122.174C151.051 121.685 150.818 121.186 150.568 120.675C150.33 120.152 150.102 119.664 149.887 119.209C149.671 118.743 149.466 118.329 149.273 117.965C149.091 117.602 148.944 117.324 148.83 117.13C148.705 118.471 148.603 119.925 148.524 121.492C148.444 123.049 148.376 124.622 148.319 126.212H146.7C146.746 125.19 146.797 124.162 146.854 123.128C146.911 122.083 146.973 121.061 147.041 120.061C147.121 119.05 147.2 118.068 147.28 117.113C147.371 116.159 147.467 115.256 147.569 114.404H149.018C149.324 114.904 149.654 115.495 150.006 116.176C150.358 116.858 150.71 117.573 151.062 118.323C151.414 119.062 151.755 119.806 152.085 120.555C152.414 121.294 152.715 121.969 152.988 122.583C153.26 121.969 153.561 121.294 153.891 120.555C154.22 119.806 154.561 119.062 154.913 118.323C155.265 117.573 155.617 116.858 155.969 116.176C156.322 115.495 156.651 114.904 156.958 114.404H158.406C158.792 118.21 159.082 122.146 159.275 126.212H157.656C157.6 124.622 157.531 123.049 157.452 121.492C157.372 119.925 157.27 118.471 157.145 117.13C157.032 117.324 156.878 117.602 156.685 117.965C156.503 118.329 156.305 118.743 156.089 119.209C155.873 119.664 155.64 120.152 155.39 120.675C155.152 121.186 154.924 121.685 154.709 122.174C154.493 122.662 154.288 123.117 154.095 123.537C153.913 123.957 153.766 124.304 153.652 124.576H152.323Z" fill="white"/>
<path d="M161.866 114.404V126.212H169.5V124.798H163.519V120.709H168.461V119.328H163.519V115.818H169.074V114.404H161.866Z" fill="white"/>
<path d="M179.694 126.212C179.444 125.792 179.154 125.32 178.825 124.798C178.507 124.275 178.16 123.736 177.786 123.179C177.411 122.611 177.019 122.038 176.61 121.458C176.212 120.879 175.815 120.322 175.417 119.788C175.02 119.243 174.633 118.732 174.259 118.255C173.884 117.778 173.537 117.358 173.219 116.994V126.212H171.601V114.404H172.913C173.446 114.972 174.014 115.637 174.616 116.398C175.23 117.147 175.832 117.926 176.423 118.732C177.025 119.527 177.587 120.311 178.109 121.083C178.643 121.856 179.092 122.543 179.455 123.145V114.404H181.074V126.212H179.694Z" fill="white"/>
<path d="M191.886 115.836V114.404H182.804V115.836H186.519V126.212H188.171V115.836H191.886Z" fill="white"/>
<path d="M202.652 126.468C201.823 126.468 201.068 126.331 200.386 126.059C199.705 125.786 199.12 125.389 198.631 124.866C198.143 124.344 197.762 123.702 197.49 122.941C197.228 122.168 197.098 121.288 197.098 120.3C197.098 119.311 197.245 118.437 197.541 117.676C197.847 116.903 198.256 116.256 198.767 115.733C199.279 115.211 199.875 114.813 200.557 114.541C201.238 114.268 201.965 114.132 202.737 114.132C203.226 114.132 203.663 114.166 204.049 114.234C204.447 114.302 204.788 114.382 205.072 114.472C205.367 114.563 205.606 114.654 205.787 114.745C205.969 114.836 206.094 114.904 206.162 114.949L205.685 116.313C205.583 116.244 205.435 116.171 205.242 116.091C205.049 116.012 204.828 115.932 204.578 115.853C204.339 115.773 204.072 115.711 203.777 115.665C203.493 115.608 203.203 115.58 202.908 115.58C202.283 115.58 201.721 115.688 201.221 115.904C200.721 116.119 200.295 116.432 199.943 116.841C199.591 117.25 199.318 117.75 199.125 118.34C198.944 118.92 198.853 119.573 198.853 120.3C198.853 121.004 198.932 121.646 199.091 122.225C199.262 122.804 199.511 123.304 199.841 123.724C200.17 124.133 200.579 124.451 201.068 124.679C201.567 124.906 202.147 125.019 202.806 125.019C203.567 125.019 204.197 124.94 204.697 124.781C205.197 124.622 205.572 124.48 205.821 124.355L206.247 125.718C206.168 125.775 206.026 125.849 205.821 125.939C205.617 126.019 205.361 126.099 205.055 126.178C204.748 126.258 204.39 126.326 203.981 126.383C203.572 126.439 203.129 126.468 202.652 126.468Z" fill="white"/>
<path fill-rule="evenodd" clip-rule="evenodd" d="M207.774 117.625C207.479 118.397 207.331 119.289 207.331 120.3C207.331 121.311 207.479 122.202 207.774 122.975C208.081 123.747 208.49 124.395 209.001 124.917C209.523 125.428 210.125 125.815 210.807 126.076C211.5 126.337 212.232 126.468 213.005 126.468C213.766 126.468 214.481 126.337 215.152 126.076C215.833 125.815 216.43 125.428 216.941 124.917C217.452 124.395 217.855 123.747 218.151 122.975C218.457 122.202 218.611 121.311 218.611 120.3C218.611 119.289 218.457 118.397 218.151 117.625C217.855 116.852 217.452 116.21 216.941 115.699C216.43 115.177 215.833 114.785 215.152 114.524C214.481 114.262 213.766 114.132 213.005 114.132C212.232 114.132 211.5 114.262 210.807 114.524C210.125 114.785 209.523 115.177 209.001 115.699C208.49 116.21 208.081 116.852 207.774 117.625ZM209.341 122.259C209.16 121.668 209.069 121.015 209.069 120.3C209.069 119.584 209.16 118.937 209.341 118.357C209.523 117.767 209.779 117.267 210.108 116.858C210.449 116.449 210.858 116.137 211.335 115.921C211.823 115.694 212.369 115.58 212.971 115.58C213.573 115.58 214.112 115.694 214.589 115.921C215.066 116.137 215.47 116.449 215.799 116.858C216.14 117.267 216.401 117.767 216.583 118.357C216.765 118.937 216.856 119.584 216.856 120.3C216.856 121.015 216.765 121.668 216.583 122.259C216.401 122.838 216.14 123.333 215.799 123.741C215.47 124.15 215.066 124.468 214.589 124.696C214.112 124.911 213.573 125.019 212.971 125.019C212.369 125.019 211.823 124.911 211.335 124.696C210.858 124.468 210.449 124.15 210.108 123.741C209.779 123.333 209.523 122.838 209.341 122.259Z" fill="white"/>
<path d="M226.369 124.576C226.255 124.304 226.102 123.957 225.909 123.537C225.727 123.117 225.528 122.662 225.312 122.174C225.096 121.685 224.864 121.186 224.614 120.675C224.375 120.152 224.148 119.664 223.932 119.209C223.716 118.743 223.512 118.329 223.319 117.965C223.137 117.602 222.989 117.324 222.876 117.13C222.751 118.471 222.649 119.925 222.569 121.492C222.489 123.049 222.421 124.622 222.365 126.212H220.746C220.791 125.19 220.842 124.162 220.899 123.128C220.956 122.083 221.018 121.061 221.087 120.061C221.166 119.05 221.246 118.068 221.325 117.113C221.416 116.159 221.513 115.256 221.615 114.404H223.063C223.37 114.904 223.699 115.495 224.051 116.176C224.404 116.858 224.756 117.573 225.108 118.323C225.46 119.062 225.801 119.806 226.13 120.555C226.46 121.294 226.761 121.969 227.033 122.583C227.306 121.969 227.607 121.294 227.936 120.555C228.266 119.806 228.606 119.062 228.959 118.323C229.311 117.573 229.663 116.858 230.015 116.176C230.367 115.495 230.697 114.904 231.003 114.404H232.452C232.838 118.21 233.127 122.146 233.32 126.212H231.702C231.645 124.622 231.577 123.049 231.497 121.492C231.418 119.925 231.316 118.471 231.191 117.13C231.077 117.324 230.924 117.602 230.731 117.965C230.549 118.329 230.35 118.743 230.134 119.209C229.918 119.664 229.686 120.152 229.436 120.675C229.197 121.186 228.97 121.685 228.754 122.174C228.538 122.662 228.334 123.117 228.141 123.537C227.959 123.957 227.811 124.304 227.698 124.576H226.369Z" fill="white"/>
<path fill-rule="evenodd" clip-rule="evenodd" d="M242.864 115.239C241.978 114.603 240.706 114.285 239.047 114.285C238.57 114.285 238.042 114.308 237.463 114.353C236.895 114.387 236.378 114.461 235.912 114.575V126.212H237.565V121.833H238.877C239.706 121.833 240.45 121.765 241.109 121.629C241.768 121.492 242.324 121.277 242.779 120.981C243.244 120.675 243.596 120.283 243.835 119.806C244.085 119.317 244.21 118.732 244.21 118.051C244.21 116.801 243.761 115.864 242.864 115.239ZM237.565 115.784C237.94 115.75 238.479 115.733 239.183 115.733C239.626 115.733 240.047 115.767 240.444 115.836C240.842 115.904 241.188 116.029 241.484 116.21C241.79 116.381 242.029 116.614 242.199 116.909C242.381 117.204 242.472 117.579 242.472 118.034C242.472 118.511 242.387 118.902 242.216 119.209C242.046 119.516 241.802 119.76 241.484 119.942C241.177 120.112 240.796 120.237 240.342 120.317C239.888 120.385 239.377 120.419 238.809 120.419H237.565V115.784Z" fill="white"/>
<path fill-rule="evenodd" clip-rule="evenodd" d="M253.319 126.212C253.126 125.701 252.944 125.201 252.773 124.713C252.603 124.213 252.427 123.707 252.245 123.196H246.895L245.822 126.212H244.101C244.555 124.963 244.981 123.81 245.379 122.753C245.776 121.685 246.162 120.675 246.537 119.72C246.923 118.766 247.304 117.857 247.679 116.994C248.054 116.119 248.446 115.256 248.855 114.404H250.371C250.78 115.256 251.172 116.119 251.547 116.994C251.922 117.857 252.296 118.766 252.671 119.72C253.057 120.675 253.449 121.685 253.847 122.753C254.244 123.81 254.67 124.963 255.125 126.212H253.319ZM251.768 121.833C251.405 120.845 251.041 119.891 250.678 118.971C250.326 118.039 249.956 117.147 249.57 116.296C249.173 117.147 248.792 118.039 248.429 118.971C248.076 119.891 247.724 120.845 247.372 121.833H251.768Z" fill="white"/>
<path d="M263.952 124.798C264.282 125.32 264.571 125.792 264.821 126.212H266.201V114.404H264.583V123.145C264.219 122.543 263.771 121.856 263.237 121.083C262.714 120.311 262.152 119.527 261.55 118.732C260.959 117.926 260.357 117.147 259.744 116.398C259.142 115.637 258.574 114.972 258.04 114.404H256.728V126.212H258.347V116.994C258.665 117.358 259.011 117.778 259.386 118.255C259.761 118.732 260.147 119.243 260.545 119.788C260.942 120.322 261.34 120.879 261.737 121.458C262.146 122.038 262.538 122.611 262.913 123.179C263.288 123.736 263.634 124.275 263.952 124.798Z" fill="white"/>
<path d="M271.936 126.212V121.475C271.152 120.26 270.414 119.062 269.721 117.88C269.028 116.699 268.375 115.54 267.761 114.404H269.704C270.135 115.336 270.618 116.284 271.152 117.25C271.686 118.204 272.237 119.124 272.805 120.01C273.361 119.124 273.907 118.204 274.44 117.25C274.974 116.284 275.463 115.336 275.906 114.404H277.746C277.133 115.54 276.479 116.699 275.786 117.88C275.094 119.05 274.361 120.237 273.588 121.441V126.212H271.936Z" fill="white"/>
<path d="M160.383 238.548C160.583 238.093 160.684 237.626 160.684 237.145C160.684 235.915 160.316 234.966 159.581 234.298C158.86 233.617 157.77 233.276 156.314 233.276C155.833 233.276 155.385 233.336 154.971 233.456C154.556 233.577 154.182 233.724 153.848 233.897C153.514 234.071 153.227 234.258 152.986 234.459C152.746 234.646 152.565 234.806 152.445 234.94L153.367 236.263C153.461 236.182 153.594 236.069 153.768 235.922C153.942 235.761 154.155 235.614 154.409 235.481C154.663 235.334 154.951 235.207 155.271 235.1C155.592 234.993 155.946 234.94 156.334 234.94C156.654 234.94 156.955 234.986 157.236 235.08C157.53 235.16 157.784 235.294 157.998 235.481C158.211 235.668 158.378 235.902 158.499 236.182C158.632 236.463 158.699 236.804 158.699 237.205C158.699 237.579 158.626 237.933 158.479 238.267C158.345 238.601 158.158 238.929 157.917 239.249C157.69 239.557 157.423 239.871 157.116 240.192C156.822 240.499 156.507 240.813 156.173 241.134C155.772 241.535 155.365 241.949 154.951 242.377C154.536 242.804 154.162 243.259 153.828 243.74C153.494 244.221 153.22 244.735 153.006 245.283C152.806 245.818 152.705 246.399 152.705 247.027V247.248C152.705 247.328 152.712 247.408 152.726 247.488H161.145V245.905H154.75C154.75 245.677 154.837 245.41 155.011 245.103C155.198 244.795 155.425 244.475 155.692 244.141C155.96 243.806 156.24 243.486 156.534 243.178L157.336 242.377C157.737 241.976 158.138 241.568 158.539 241.154C158.94 240.726 159.301 240.298 159.621 239.871C159.942 239.43 160.196 238.989 160.383 238.548Z" fill="white"/>
<path fill-rule="evenodd" clip-rule="evenodd" d="M164.862 235.16C164.047 236.416 163.639 238.207 163.639 240.532C163.639 242.858 164.047 244.648 164.862 245.905C165.691 247.161 166.833 247.789 168.29 247.789C169.747 247.789 170.883 247.161 171.698 245.905C172.526 244.648 172.941 242.858 172.941 240.532C172.941 238.207 172.526 236.416 171.698 235.16C170.883 233.904 169.747 233.276 168.29 233.276C166.833 233.276 165.691 233.904 164.862 235.16ZM170.836 238.367C170.929 239.049 170.976 239.771 170.976 240.532C170.976 241.294 170.929 242.016 170.836 242.697C170.756 243.379 170.609 243.974 170.395 244.481C170.194 244.989 169.92 245.397 169.573 245.704C169.225 245.998 168.798 246.145 168.29 246.145C167.782 246.145 167.355 245.998 167.007 245.704C166.66 245.397 166.379 244.989 166.165 244.481C165.965 243.974 165.818 243.379 165.724 242.697C165.644 242.016 165.604 241.294 165.604 240.532C165.604 239.771 165.644 239.049 165.724 238.367C165.818 237.686 165.965 237.091 166.165 236.583C166.379 236.076 166.66 235.675 167.007 235.381C167.355 235.073 167.782 234.92 168.29 234.92C168.798 234.92 169.225 235.073 169.573 235.381C169.92 235.675 170.194 236.076 170.395 236.583C170.609 237.091 170.756 237.686 170.836 238.367Z" fill="white"/>
<path d="M183.313 237.145C183.313 237.626 183.213 238.093 183.013 238.548C182.826 238.989 182.572 239.43 182.251 239.871C181.93 240.298 181.569 240.726 181.168 241.154C180.768 241.568 180.367 241.976 179.966 242.377L179.164 243.178C178.87 243.486 178.589 243.806 178.322 244.141C178.055 244.475 177.827 244.795 177.64 245.103C177.467 245.41 177.38 245.677 177.38 245.905H183.774V247.488H175.355C175.342 247.408 175.335 247.328 175.335 247.248V247.027C175.335 246.399 175.435 245.818 175.636 245.283C175.85 244.735 176.124 244.221 176.458 243.74C176.792 243.259 177.166 242.804 177.58 242.377C177.995 241.949 178.402 241.535 178.803 241.134C179.137 240.813 179.451 240.499 179.745 240.192C180.053 239.871 180.32 239.557 180.547 239.249C180.788 238.929 180.975 238.601 181.108 238.267C181.255 237.933 181.329 237.579 181.329 237.205C181.329 236.804 181.262 236.463 181.128 236.182C181.008 235.902 180.841 235.668 180.627 235.481C180.413 235.294 180.159 235.16 179.865 235.08C179.585 234.986 179.284 234.94 178.963 234.94C178.576 234.94 178.222 234.993 177.901 235.1C177.58 235.207 177.293 235.334 177.039 235.481C176.785 235.614 176.571 235.761 176.398 235.922C176.224 236.069 176.09 236.182 175.997 236.263L175.075 234.94C175.195 234.806 175.375 234.646 175.616 234.459C175.856 234.258 176.144 234.071 176.478 233.897C176.812 233.724 177.186 233.577 177.6 233.456C178.015 233.336 178.462 233.276 178.943 233.276C180.4 233.276 181.489 233.617 182.211 234.298C182.946 234.966 183.313 235.915 183.313 237.145Z" fill="white"/>
<path d="M192.343 245.423C191.835 245.891 190.986 246.125 189.797 246.125C189.035 246.125 188.387 246.038 187.853 245.864C187.331 245.691 186.957 245.55 186.73 245.444L186.369 247.067C186.476 247.121 186.65 247.188 186.89 247.268C187.131 247.348 187.412 247.428 187.732 247.508C188.053 247.588 188.394 247.655 188.755 247.709C189.129 247.762 189.49 247.789 189.837 247.789C190.733 247.789 191.508 247.682 192.162 247.468C192.817 247.254 193.359 246.96 193.786 246.586C194.227 246.212 194.548 245.771 194.748 245.263C194.962 244.742 195.069 244.181 195.069 243.579C195.069 243.085 194.989 242.637 194.829 242.236C194.682 241.835 194.481 241.481 194.227 241.174C193.987 240.866 193.699 240.613 193.365 240.412C193.031 240.212 192.684 240.058 192.323 239.951C192.911 239.684 193.412 239.296 193.826 238.788C194.241 238.267 194.448 237.646 194.448 236.924C194.448 236.403 194.361 235.922 194.187 235.481C194.013 235.026 193.753 234.639 193.405 234.318C193.058 233.984 192.617 233.73 192.082 233.556C191.548 233.369 190.913 233.276 190.178 233.276C189.79 233.276 189.416 233.316 189.055 233.396C188.708 233.463 188.381 233.55 188.073 233.657C187.766 233.764 187.485 233.884 187.231 234.018C186.991 234.138 186.79 234.251 186.63 234.358L187.352 235.782C187.659 235.581 188.033 235.387 188.474 235.2C188.928 235.013 189.476 234.92 190.118 234.92C190.439 234.92 190.739 234.96 191.02 235.04C191.314 235.107 191.568 235.227 191.782 235.401C192.009 235.574 192.189 235.795 192.323 236.062C192.456 236.329 192.523 236.65 192.523 237.024C192.523 237.479 192.43 237.86 192.243 238.167C192.056 238.461 191.815 238.695 191.521 238.869C191.227 239.042 190.9 239.163 190.539 239.229C190.191 239.296 189.851 239.33 189.516 239.33H188.855V240.853H189.336C189.817 240.853 190.285 240.9 190.739 240.993C191.207 241.074 191.615 241.221 191.962 241.434C192.309 241.635 192.59 241.909 192.804 242.256C193.018 242.604 193.125 243.031 193.125 243.539C193.125 244.328 192.864 244.956 192.343 245.423Z" fill="white"/>
</svg>
