<svg viewBox="0 0 348 348" fill="none" xmlns="http://www.w3.org/2000/svg">
<path d="M166.122 82.1084V83.7922H161.752V96H159.808V83.7922H155.438V82.1084H166.122Z" fill="white"/>
<path fill-rule="evenodd" clip-rule="evenodd" d="M167.066 89.0442C167.066 87.8548 167.24 86.8057 167.587 85.897C167.948 84.9883 168.429 84.2332 169.03 83.6318C169.645 83.0171 170.353 82.5561 171.155 82.2487C171.97 81.9413 172.832 81.7877 173.741 81.7877C174.636 81.7877 175.478 81.9413 176.267 82.2487C177.069 82.5561 177.77 83.0171 178.372 83.6318C178.973 84.2332 179.447 84.9883 179.795 85.897C180.156 86.8057 180.336 87.8548 180.336 89.0442C180.336 90.2335 180.156 91.2826 179.795 92.1913C179.447 93.1001 178.973 93.8618 178.372 94.4765C177.77 95.0779 177.069 95.5323 176.267 95.8396C175.478 96.147 174.636 96.3007 173.741 96.3007C172.832 96.3007 171.97 96.147 171.155 95.8396C170.353 95.5323 169.645 95.0779 169.03 94.4765C168.429 93.8618 167.948 93.1001 167.587 92.1913C167.24 91.2826 167.066 90.2335 167.066 89.0442ZM169.11 89.0442C169.11 89.8861 169.217 90.6545 169.431 91.3494C169.645 92.031 169.946 92.6123 170.333 93.0934C170.734 93.5745 171.215 93.9487 171.776 94.2159C172.351 94.4699 172.993 94.5968 173.701 94.5968C174.409 94.5968 175.044 94.4699 175.605 94.2159C176.166 93.9487 176.641 93.5745 177.028 93.0934C177.429 92.6123 177.737 92.031 177.951 91.3494C178.164 90.6545 178.271 89.8861 178.271 89.0442C178.271 88.2023 178.164 87.4405 177.951 86.759C177.737 86.0641 177.429 85.476 177.028 84.9949C176.641 84.5139 176.166 84.1464 175.605 83.8924C175.044 83.6252 174.409 83.4915 173.701 83.4915C172.993 83.4915 172.351 83.6252 171.776 83.8924C171.215 84.1464 170.734 84.5139 170.333 84.9949C169.946 85.476 169.645 86.0641 169.431 86.759C169.217 87.4405 169.11 88.2023 169.11 89.0442Z" fill="white"/>
<path fill-rule="evenodd" clip-rule="evenodd" d="M186.917 81.9681C188.868 81.9681 190.365 82.3422 191.408 83.0906C192.463 83.8256 192.991 84.9281 192.991 86.3981C192.991 87.2 192.844 87.8882 192.55 88.4628C192.27 89.0241 191.855 89.4852 191.307 89.846C190.773 90.1935 190.118 90.4474 189.343 90.6077C188.568 90.7681 187.692 90.8483 186.717 90.8483H185.173V96H183.229V82.3088C183.777 82.1752 184.385 82.0883 185.053 82.0482C185.735 81.9948 186.356 81.9681 186.917 81.9681ZM187.078 83.6719C186.249 83.6719 185.614 83.692 185.173 83.7321V89.1845H186.637C187.305 89.1845 187.906 89.1444 188.441 89.0642C188.975 88.9707 189.423 88.8237 189.784 88.6232C190.158 88.4094 190.445 88.1221 190.646 87.7612C190.846 87.4004 190.947 86.9394 190.947 86.3781C190.947 85.8435 190.84 85.4025 190.626 85.0551C190.425 84.7076 190.145 84.4337 189.784 84.2332C189.436 84.0194 189.029 83.8724 188.561 83.7922C188.093 83.712 187.599 83.6719 187.078 83.6719Z" fill="white"/>
<path fill-rule="evenodd" clip-rule="evenodd" d="M101.656 123.1C101.99 123.114 102.298 123.12 102.578 123.12C104.797 123.12 106.414 122.773 107.429 122.078C108.458 121.37 108.973 120.321 108.973 118.931C108.973 117.982 108.732 117.247 108.251 116.726C107.77 116.205 107.122 115.824 106.307 115.583C106.908 115.343 107.389 114.982 107.75 114.501C108.111 114.006 108.291 113.378 108.291 112.616C108.291 111.935 108.144 111.36 107.85 110.892C107.556 110.425 107.149 110.051 106.627 109.77C106.12 109.476 105.512 109.269 104.803 109.148C104.108 109.028 103.36 108.968 102.558 108.968C102.278 108.968 101.977 108.975 101.656 108.988C101.335 109.001 101.008 109.022 100.674 109.048C100.353 109.075 100.032 109.108 99.7118 109.148C99.391 109.189 99.097 109.242 98.8298 109.309V122.779C99.097 122.846 99.391 122.9 99.7118 122.94C100.032 122.98 100.353 123.013 100.674 123.04C101.008 123.067 101.335 123.087 101.656 123.1ZM100.754 121.416V116.525H103.26C103.821 116.525 104.329 116.565 104.783 116.646C105.238 116.726 105.625 116.859 105.946 117.046C106.28 117.234 106.534 117.487 106.708 117.808C106.881 118.116 106.968 118.496 106.968 118.951C106.968 119.459 106.848 119.88 106.607 120.214C106.38 120.548 106.073 120.808 105.685 120.995C105.298 121.183 104.843 121.316 104.322 121.396C103.814 121.463 103.273 121.497 102.699 121.497H101.877C101.65 121.483 101.449 121.47 101.275 121.456C101.075 121.443 100.901 121.43 100.754 121.416ZM102.799 114.962H100.754V110.672C100.981 110.645 101.235 110.625 101.516 110.612C101.797 110.598 102.184 110.592 102.679 110.592C103.173 110.592 103.641 110.632 104.082 110.712C104.523 110.792 104.904 110.919 105.224 111.093C105.558 111.253 105.819 111.474 106.006 111.754C106.193 112.022 106.287 112.356 106.287 112.757C106.287 113.184 106.193 113.538 106.006 113.819C105.832 114.1 105.585 114.327 105.264 114.501C104.957 114.674 104.59 114.795 104.162 114.861C103.734 114.928 103.28 114.962 102.799 114.962Z" fill="white"/>
<path d="M119.047 114.06C119.248 113.605 119.348 113.138 119.348 112.656C119.348 111.427 118.981 110.478 118.246 109.81C117.524 109.128 116.435 108.788 114.978 108.788C114.497 108.788 114.049 108.848 113.635 108.968C113.221 109.088 112.847 109.235 112.512 109.409C112.178 109.583 111.891 109.77 111.65 109.97C111.41 110.157 111.23 110.318 111.109 110.451L112.031 111.774C112.125 111.694 112.259 111.581 112.432 111.434C112.606 111.273 112.82 111.126 113.074 110.993C113.328 110.846 113.615 110.719 113.936 110.612C114.256 110.505 114.611 110.451 114.998 110.451C115.319 110.451 115.62 110.498 115.9 110.592C116.194 110.672 116.448 110.806 116.662 110.993C116.876 111.18 117.043 111.414 117.163 111.694C117.297 111.975 117.363 112.316 117.363 112.717C117.363 113.091 117.29 113.445 117.143 113.779C117.009 114.113 116.822 114.441 116.582 114.761C116.355 115.069 116.087 115.383 115.78 115.703C115.486 116.011 115.172 116.325 114.838 116.646C114.437 117.046 114.029 117.461 113.615 117.888C113.201 118.316 112.827 118.77 112.492 119.251C112.158 119.733 111.884 120.247 111.671 120.795C111.47 121.33 111.37 121.911 111.37 122.539V122.759C111.37 122.84 111.377 122.92 111.39 123H119.809V121.416H113.415C113.415 121.189 113.501 120.922 113.675 120.615C113.862 120.307 114.089 119.986 114.357 119.652C114.624 119.318 114.905 118.998 115.199 118.69L116 117.888C116.401 117.487 116.802 117.08 117.203 116.666C117.604 116.238 117.965 115.81 118.286 115.383C118.606 114.942 118.86 114.501 119.047 114.06Z" fill="white"/>
<path fill-rule="evenodd" clip-rule="evenodd" d="M125.852 123.1C126.186 123.114 126.493 123.12 126.774 123.12C128.992 123.12 130.609 122.773 131.625 122.078C132.654 121.37 133.169 120.321 133.169 118.931C133.169 117.982 132.928 117.247 132.447 116.726C131.966 116.205 131.318 115.824 130.502 115.583C131.104 115.343 131.585 114.982 131.946 114.501C132.307 114.006 132.487 113.378 132.487 112.616C132.487 111.935 132.34 111.36 132.046 110.892C131.752 110.425 131.344 110.051 130.823 109.77C130.315 109.476 129.707 109.269 128.999 109.148C128.304 109.028 127.556 108.968 126.754 108.968C126.473 108.968 126.173 108.975 125.852 108.988C125.531 109.001 125.204 109.022 124.87 109.048C124.549 109.075 124.228 109.108 123.907 109.148C123.587 109.189 123.293 109.242 123.025 109.309V122.779C123.293 122.846 123.587 122.9 123.907 122.94C124.228 122.98 124.549 123.013 124.87 123.04C125.204 123.067 125.531 123.087 125.852 123.1ZM124.95 121.416V116.525H127.456C128.017 116.525 128.525 116.565 128.979 116.646C129.433 116.726 129.821 116.859 130.142 117.046C130.476 117.234 130.73 117.487 130.903 117.808C131.077 118.116 131.164 118.496 131.164 118.951C131.164 119.459 131.044 119.88 130.803 120.214C130.576 120.548 130.269 120.808 129.881 120.995C129.494 121.183 129.039 121.316 128.518 121.396C128.01 121.463 127.469 121.497 126.894 121.497H126.072C125.845 121.483 125.645 121.47 125.471 121.456C125.271 121.443 125.097 121.43 124.95 121.416ZM126.994 114.962H124.95V110.672C125.177 110.645 125.431 110.625 125.712 110.612C125.992 110.598 126.38 110.592 126.874 110.592C127.369 110.592 127.836 110.632 128.277 110.712C128.718 110.792 129.099 110.919 129.42 111.093C129.754 111.253 130.015 111.474 130.202 111.754C130.389 112.022 130.482 112.356 130.482 112.757C130.482 113.184 130.389 113.538 130.202 113.819C130.028 114.1 129.781 114.327 129.46 114.501C129.153 114.674 128.785 114.795 128.358 114.861C127.93 114.928 127.476 114.962 126.994 114.962Z" fill="white"/>
<path d="M143.853 122.82C144.655 123.14 145.544 123.301 146.519 123.301C147.081 123.301 147.602 123.267 148.083 123.2C148.564 123.134 148.985 123.053 149.346 122.96C149.707 122.866 150.007 122.773 150.248 122.679C150.488 122.572 150.655 122.485 150.749 122.419L150.248 120.815C149.954 120.962 149.513 121.129 148.925 121.316C148.337 121.503 147.595 121.597 146.7 121.597C145.925 121.597 145.243 121.463 144.655 121.196C144.081 120.929 143.599 120.554 143.212 120.073C142.824 119.579 142.53 118.991 142.33 118.309C142.143 117.628 142.049 116.873 142.049 116.044C142.049 115.189 142.156 114.42 142.37 113.739C142.597 113.044 142.918 112.456 143.332 111.975C143.746 111.494 144.248 111.126 144.836 110.872C145.424 110.618 146.085 110.492 146.82 110.492C147.168 110.492 147.508 110.525 147.842 110.592C148.19 110.645 148.504 110.719 148.785 110.812C149.079 110.906 149.339 110.999 149.566 111.093C149.794 111.186 149.967 111.273 150.088 111.353L150.649 109.75C150.569 109.696 150.422 109.616 150.208 109.509C149.994 109.402 149.713 109.295 149.366 109.189C149.032 109.082 148.631 108.988 148.163 108.908C147.709 108.828 147.194 108.788 146.62 108.788C145.711 108.788 144.856 108.948 144.054 109.269C143.252 109.589 142.55 110.057 141.949 110.672C141.348 111.287 140.867 112.048 140.506 112.957C140.158 113.853 139.985 114.882 139.985 116.044C139.985 117.207 140.138 118.243 140.446 119.151C140.766 120.047 141.214 120.802 141.789 121.416C142.363 122.031 143.051 122.499 143.853 122.82Z" fill="white"/>
<path fill-rule="evenodd" clip-rule="evenodd" d="M152.545 112.897C152.197 113.806 152.024 114.855 152.024 116.044C152.024 117.234 152.197 118.283 152.545 119.191C152.906 120.1 153.387 120.862 153.988 121.477C154.603 122.078 155.311 122.532 156.113 122.84C156.928 123.147 157.79 123.301 158.699 123.301C159.594 123.301 160.436 123.147 161.225 122.84C162.026 122.532 162.728 122.078 163.329 121.477C163.931 120.862 164.405 120.1 164.753 119.191C165.113 118.283 165.294 117.234 165.294 116.044C165.294 114.855 165.113 113.806 164.753 112.897C164.405 111.988 163.931 111.233 163.329 110.632C162.728 110.017 162.026 109.556 161.225 109.249C160.436 108.941 159.594 108.788 158.699 108.788C157.79 108.788 156.928 108.941 156.113 109.249C155.311 109.556 154.603 110.017 153.988 110.632C153.387 111.233 152.906 111.988 152.545 112.897ZM154.389 118.349C154.175 117.655 154.068 116.886 154.068 116.044C154.068 115.202 154.175 114.441 154.389 113.759C154.603 113.064 154.904 112.476 155.291 111.995C155.692 111.514 156.173 111.146 156.734 110.892C157.309 110.625 157.95 110.492 158.659 110.492C159.367 110.492 160.002 110.625 160.563 110.892C161.124 111.146 161.599 111.514 161.986 111.995C162.387 112.476 162.695 113.064 162.908 113.759C163.122 114.441 163.229 115.202 163.229 116.044C163.229 116.886 163.122 117.655 162.908 118.349C162.695 119.031 162.387 119.612 161.986 120.093C161.599 120.574 161.124 120.949 160.563 121.216C160.002 121.47 159.367 121.597 158.659 121.597C157.95 121.597 157.309 121.47 156.734 121.216C156.173 120.949 155.692 120.574 155.291 120.093C154.904 119.612 154.603 119.031 154.389 118.349Z" fill="white"/>
<path d="M173.88 119.853C174.107 120.347 174.287 120.755 174.421 121.076H175.985C176.118 120.755 176.292 120.347 176.506 119.853C176.733 119.358 176.973 118.824 177.227 118.249C177.481 117.675 177.749 117.087 178.029 116.485C178.323 115.87 178.597 115.296 178.851 114.761C179.105 114.213 179.339 113.726 179.553 113.298C179.78 112.87 179.96 112.543 180.094 112.316C180.241 113.893 180.361 115.603 180.455 117.447C180.548 119.278 180.628 121.129 180.695 123H182.6C182.372 118.216 182.032 113.585 181.577 109.108H179.873C179.513 109.696 179.125 110.391 178.711 111.193C178.297 111.995 177.882 112.837 177.468 113.719C177.054 114.588 176.653 115.463 176.265 116.345C175.878 117.213 175.524 118.009 175.203 118.73C174.882 118.009 174.528 117.213 174.14 116.345C173.753 115.463 173.352 114.588 172.938 113.719C172.523 112.837 172.109 111.995 171.695 111.193C171.281 110.391 170.893 109.696 170.532 109.108H168.828C168.708 110.111 168.594 111.173 168.488 112.296C168.394 113.418 168.3 114.574 168.207 115.764C168.127 116.94 168.053 118.142 167.986 119.372C167.92 120.588 167.859 121.797 167.806 123H169.71C169.777 121.129 169.857 119.278 169.951 117.447C170.044 115.603 170.165 113.893 170.312 112.316C170.445 112.543 170.619 112.87 170.833 113.298C171.06 113.726 171.301 114.213 171.554 114.761C171.808 115.296 172.076 115.87 172.356 116.485C172.65 117.087 172.924 117.675 173.178 118.249C173.432 118.824 173.666 119.358 173.88 119.853Z" fill="white"/>
<path fill-rule="evenodd" clip-rule="evenodd" d="M193.827 110.091C192.785 109.342 191.288 108.968 189.337 108.968C188.776 108.968 188.154 108.995 187.473 109.048C186.804 109.088 186.196 109.175 185.648 109.309V123H187.593V117.848H189.136C190.112 117.848 190.987 117.768 191.762 117.608C192.537 117.447 193.192 117.193 193.727 116.846C194.275 116.485 194.689 116.024 194.97 115.463C195.264 114.888 195.411 114.2 195.411 113.398C195.411 111.928 194.883 110.826 193.827 110.091ZM187.593 110.732C188.034 110.692 188.669 110.672 189.497 110.672C190.018 110.672 190.513 110.712 190.981 110.792C191.448 110.872 191.856 111.019 192.203 111.233C192.564 111.434 192.845 111.708 193.045 112.055C193.259 112.403 193.366 112.844 193.366 113.378C193.366 113.939 193.266 114.4 193.065 114.761C192.865 115.122 192.578 115.409 192.203 115.623C191.843 115.824 191.395 115.971 190.86 116.064C190.326 116.144 189.724 116.184 189.056 116.184H187.593V110.732Z" fill="white"/>
<path fill-rule="evenodd" clip-rule="evenodd" d="M205.485 121.236C205.686 121.811 205.9 122.399 206.127 123H208.252C207.717 121.53 207.216 120.174 206.748 118.931C206.281 117.675 205.82 116.485 205.365 115.363C204.924 114.24 204.483 113.171 204.042 112.155C203.601 111.126 203.14 110.111 202.659 109.108H200.875C200.394 110.111 199.933 111.126 199.492 112.155C199.051 113.171 198.603 114.24 198.149 115.363C197.708 116.485 197.253 117.675 196.786 118.931C196.318 120.174 195.817 121.53 195.282 123H197.307L198.57 119.452H204.864C205.078 120.053 205.285 120.648 205.485 121.236ZM203.02 114.481C203.448 115.563 203.875 116.686 204.303 117.848H199.131C199.545 116.686 199.96 115.563 200.374 114.481C200.801 113.385 201.249 112.336 201.717 111.333C202.171 112.336 202.606 113.385 203.02 114.481Z" fill="white"/>
<path d="M218.637 121.336C219.025 121.951 219.365 122.506 219.659 123H221.283V109.108H219.379V119.392C218.951 118.684 218.423 117.875 217.795 116.966C217.18 116.058 216.519 115.135 215.811 114.2C215.116 113.251 214.408 112.336 213.686 111.454C212.978 110.558 212.309 109.777 211.681 109.108H210.138V123H212.042V112.155C212.416 112.583 212.824 113.077 213.265 113.639C213.706 114.2 214.16 114.801 214.628 115.443C215.096 116.071 215.563 116.726 216.031 117.407C216.512 118.089 216.973 118.764 217.414 119.432C217.855 120.087 218.263 120.721 218.637 121.336Z" fill="white"/>
<path d="M226.666 109.108H224.722V123H226.666V109.108Z" fill="white"/>
<path d="M230.105 109.108V123H239.086V121.336H232.05V116.525H237.863V114.902H232.05V110.772H238.584V109.108H230.105Z" fill="white"/>
<path d="M247.831 119.532C247.831 120.922 246.816 121.617 244.784 121.617C243.876 121.617 243.107 121.51 242.479 121.296C241.851 121.082 241.383 120.889 241.076 120.715L240.495 122.318C240.642 122.399 240.842 122.499 241.096 122.619C241.363 122.726 241.677 122.833 242.038 122.94C242.399 123.033 242.806 123.114 243.261 123.18C243.729 123.261 244.236 123.301 244.784 123.301C246.401 123.301 247.651 122.973 248.533 122.318C249.428 121.664 249.876 120.728 249.876 119.512C249.876 118.857 249.776 118.303 249.575 117.848C249.375 117.381 249.087 116.98 248.713 116.646C248.352 116.311 247.918 116.024 247.41 115.784C246.916 115.543 246.368 115.302 245.767 115.062C245.339 114.902 244.945 114.741 244.584 114.581C244.236 114.42 243.929 114.247 243.662 114.06C243.394 113.859 243.187 113.632 243.04 113.378C242.893 113.124 242.82 112.81 242.82 112.436C242.82 112.102 242.887 111.815 243.02 111.574C243.167 111.32 243.361 111.113 243.602 110.953C243.842 110.792 244.123 110.672 244.444 110.592C244.764 110.512 245.112 110.471 245.486 110.471C246.221 110.471 246.862 110.558 247.41 110.732C247.972 110.892 248.393 111.059 248.673 111.233L249.295 109.65C248.974 109.436 248.466 109.242 247.771 109.068C247.09 108.881 246.328 108.788 245.486 108.788C244.029 108.788 242.887 109.128 242.058 109.81C241.23 110.492 240.815 111.44 240.815 112.656C240.815 113.244 240.909 113.746 241.096 114.16C241.296 114.574 241.564 114.935 241.898 115.242C242.232 115.536 242.626 115.797 243.08 116.024C243.535 116.238 244.016 116.432 244.524 116.605C244.965 116.766 245.379 116.926 245.767 117.087C246.167 117.247 246.522 117.441 246.829 117.668C247.136 117.882 247.377 118.142 247.551 118.45C247.738 118.744 247.831 119.104 247.831 119.532Z" fill="white"/>
<path d="M160.631 256.656C160.631 257.138 160.531 257.605 160.331 258.06C160.144 258.501 159.89 258.942 159.569 259.383C159.248 259.81 158.887 260.238 158.486 260.666C158.086 261.08 157.685 261.487 157.284 261.888L156.482 262.69C156.188 262.998 155.907 263.318 155.64 263.652C155.373 263.986 155.146 264.307 154.958 264.615C154.785 264.922 154.698 265.189 154.698 265.416H161.092V267H152.673C152.66 266.92 152.653 266.84 152.653 266.759V266.539C152.653 265.911 152.753 265.33 152.954 264.795C153.168 264.247 153.442 263.733 153.776 263.251C154.11 262.77 154.484 262.316 154.898 261.888C155.313 261.461 155.72 261.046 156.121 260.646C156.455 260.325 156.769 260.011 157.063 259.703C157.371 259.383 157.638 259.069 157.865 258.761C158.106 258.441 158.293 258.113 158.426 257.779C158.573 257.445 158.647 257.091 158.647 256.717C158.647 256.316 158.58 255.975 158.446 255.694C158.326 255.414 158.159 255.18 157.945 254.993C157.731 254.806 157.477 254.672 157.183 254.592C156.903 254.498 156.602 254.451 156.281 254.451C155.894 254.451 155.54 254.505 155.219 254.612C154.898 254.719 154.611 254.846 154.357 254.993C154.103 255.126 153.889 255.273 153.716 255.434C153.542 255.581 153.408 255.694 153.315 255.774L152.393 254.451C152.513 254.318 152.693 254.157 152.934 253.97C153.174 253.77 153.462 253.583 153.796 253.409C154.13 253.235 154.504 253.088 154.918 252.968C155.333 252.848 155.78 252.788 156.261 252.788C157.718 252.788 158.807 253.128 159.529 253.81C160.264 254.478 160.631 255.427 160.631 256.656Z" fill="white"/>
<path fill-rule="evenodd" clip-rule="evenodd" d="M163.587 260.044C163.587 257.719 163.995 255.928 164.81 254.672C165.638 253.416 166.781 252.788 168.238 252.788C169.694 252.788 170.83 253.416 171.645 254.672C172.474 255.928 172.888 257.719 172.888 260.044C172.888 262.369 172.474 264.16 171.645 265.416C170.83 266.673 169.694 267.301 168.238 267.301C166.781 267.301 165.638 266.673 164.81 265.416C163.995 264.16 163.587 262.369 163.587 260.044ZM170.924 260.044C170.924 259.282 170.877 258.561 170.784 257.879C170.703 257.198 170.556 256.603 170.342 256.095C170.142 255.587 169.868 255.186 169.521 254.892C169.173 254.585 168.746 254.431 168.238 254.431C167.73 254.431 167.302 254.585 166.955 254.892C166.607 255.186 166.327 255.587 166.113 256.095C165.912 256.603 165.765 257.198 165.672 257.879C165.592 258.561 165.552 259.282 165.552 260.044C165.552 260.806 165.592 261.528 165.672 262.209C165.765 262.891 165.912 263.485 166.113 263.993C166.327 264.501 166.607 264.909 166.955 265.216C167.302 265.51 167.73 265.657 168.238 265.657C168.746 265.657 169.173 265.51 169.521 265.216C169.868 264.909 170.142 264.501 170.342 263.993C170.556 263.485 170.703 262.891 170.784 262.209C170.877 261.528 170.924 260.806 170.924 260.044Z" fill="white"/>
<path d="M175.764 255.975C176.526 255.681 177.267 255.307 177.989 254.852C178.711 254.385 179.372 253.803 179.973 253.108H181.296V267H179.432V255.694C179.272 255.841 179.071 255.995 178.831 256.155C178.604 256.316 178.35 256.469 178.069 256.616C177.802 256.763 177.515 256.904 177.207 257.037C176.913 257.171 176.626 257.285 176.345 257.378L175.764 255.975Z" fill="white"/>
<path fill-rule="evenodd" clip-rule="evenodd" d="M195.257 258.661C195.257 261.414 194.569 263.499 193.193 264.915C191.83 266.318 189.798 267.027 187.099 267.04L187.039 265.477C187.881 265.477 188.636 265.396 189.304 265.236C189.985 265.076 190.58 264.822 191.088 264.474C191.596 264.113 192.017 263.652 192.351 263.091C192.698 262.53 192.952 261.842 193.112 261.026C192.765 261.187 192.371 261.32 191.93 261.427C191.489 261.521 191.034 261.568 190.567 261.568C189.778 261.568 189.11 261.454 188.562 261.227C188.014 260.986 187.566 260.672 187.219 260.285C186.872 259.884 186.618 259.429 186.457 258.922C186.31 258.4 186.237 257.859 186.237 257.298C186.237 256.803 186.324 256.289 186.497 255.754C186.671 255.22 186.932 254.732 187.279 254.291C187.64 253.85 188.094 253.489 188.642 253.209C189.19 252.928 189.838 252.788 190.587 252.788C191.348 252.788 192.017 252.921 192.591 253.189C193.179 253.456 193.667 253.843 194.055 254.351C194.456 254.859 194.756 255.48 194.957 256.215C195.157 256.937 195.257 257.752 195.257 258.661ZM190.767 260.044C191.235 260.044 191.676 260.004 192.09 259.924C192.504 259.83 192.905 259.697 193.293 259.523C193.306 259.376 193.313 259.236 193.313 259.102V258.661C193.313 258.086 193.273 257.538 193.193 257.017C193.112 256.483 192.965 256.022 192.752 255.634C192.551 255.233 192.277 254.919 191.93 254.692C191.582 254.451 191.141 254.331 190.607 254.331C190.166 254.331 189.792 254.425 189.484 254.612C189.177 254.799 188.923 255.039 188.722 255.333C188.522 255.614 188.375 255.928 188.281 256.276C188.201 256.61 188.161 256.937 188.161 257.258C188.161 258.167 188.375 258.861 188.803 259.343C189.244 259.81 189.898 260.044 190.767 260.044Z" fill="white"/>
<path d="M136.74 239.88C137.408 240.16 138.197 240.301 139.105 240.301C140.014 240.301 140.796 240.16 141.451 239.88C142.119 239.599 142.667 239.218 143.094 238.737C143.535 238.243 143.856 237.661 144.057 236.993C144.27 236.325 144.377 235.603 144.377 234.828V226.108H142.433V234.608C142.433 235.303 142.353 235.904 142.192 236.412C142.032 236.906 141.805 237.314 141.511 237.635C141.217 237.955 140.863 238.196 140.448 238.356C140.047 238.503 139.6 238.577 139.105 238.577C138.116 238.577 137.315 238.263 136.7 237.635C136.085 237.007 135.778 235.998 135.778 234.608V226.108H133.833V234.828C133.833 235.603 133.934 236.325 134.134 236.993C134.348 237.661 134.669 238.243 135.096 238.737C135.524 239.218 136.072 239.599 136.74 239.88Z" fill="white"/>
<path d="M156.615 227.632C157.136 227.071 157.604 226.563 158.018 226.108H155.673C155.338 226.496 154.924 226.95 154.43 227.471C153.949 227.979 153.434 228.514 152.886 229.075C152.338 229.636 151.784 230.198 151.222 230.759C150.661 231.307 150.147 231.801 149.679 232.242V226.108H147.734V240H149.679V233.405C150.24 233.752 150.815 234.173 151.403 234.668C152.004 235.162 152.592 235.704 153.167 236.292C153.755 236.866 154.309 237.474 154.831 238.116C155.352 238.744 155.813 239.372 156.214 240H158.499C158.138 239.372 157.684 238.71 157.136 238.015C156.601 237.321 156.027 236.639 155.412 235.971C154.797 235.303 154.169 234.675 153.528 234.087C152.886 233.499 152.278 233.004 151.704 232.603C152.198 232.122 152.726 231.601 153.287 231.04C153.848 230.478 154.41 229.91 154.971 229.336C155.546 228.748 156.094 228.18 156.615 227.632Z" fill="white"/>
<path fill-rule="evenodd" clip-rule="evenodd" d="M167.939 235.249C167.618 234.808 167.351 234.454 167.137 234.187C168.086 233.866 168.801 233.378 169.282 232.723C169.776 232.069 170.023 231.28 170.023 230.358C170.023 228.901 169.509 227.806 168.48 227.071C167.464 226.336 165.981 225.968 164.03 225.968C163.468 225.968 162.847 225.995 162.165 226.048C161.497 226.088 160.889 226.175 160.341 226.309V240H162.286V234.568H164.571C164.758 234.568 164.938 234.561 165.112 234.548C165.366 234.855 165.647 235.216 165.954 235.63C166.275 236.044 166.596 236.492 166.916 236.973C167.237 237.441 167.551 237.935 167.858 238.456C168.179 238.978 168.473 239.492 168.74 240H170.865C170.625 239.465 170.331 238.911 169.983 238.336C169.649 237.762 169.308 237.214 168.961 236.692C168.613 236.158 168.273 235.677 167.939 235.249ZM162.286 227.732C162.727 227.692 163.362 227.672 164.19 227.672C164.711 227.672 165.199 227.712 165.653 227.792C166.121 227.872 166.522 228.013 166.856 228.213C167.204 228.414 167.478 228.688 167.678 229.035C167.878 229.382 167.979 229.817 167.979 230.338C167.979 230.899 167.878 231.354 167.678 231.701C167.478 232.035 167.19 232.296 166.816 232.483C166.455 232.67 166.008 232.797 165.473 232.864C164.938 232.931 164.337 232.964 163.669 232.964H162.286V227.732Z" fill="white"/>
<path fill-rule="evenodd" clip-rule="evenodd" d="M182.155 238.236C182.356 238.811 182.57 239.399 182.797 240H184.922C184.387 238.53 183.886 237.174 183.418 235.931C182.951 234.675 182.49 233.485 182.035 232.363C181.594 231.24 181.153 230.171 180.712 229.155C180.271 228.126 179.81 227.111 179.329 226.108H177.545C177.064 227.111 176.603 228.126 176.162 229.155C175.721 230.171 175.273 231.24 174.819 232.363C174.378 233.485 173.923 234.675 173.456 235.931C172.988 237.174 172.487 238.53 171.952 240H173.977L175.24 236.452H181.534C181.748 237.053 181.955 237.648 182.155 238.236ZM179.69 231.481C180.118 232.563 180.545 233.686 180.973 234.848H175.801C176.215 233.686 176.63 232.563 177.044 231.481C177.471 230.385 177.919 229.336 178.387 228.333C178.841 229.336 179.276 230.385 179.69 231.481Z" fill="white"/>
<path d="M188.752 226.108H186.808V240H188.752V226.108Z" fill="white"/>
<path d="M200.69 238.336C201.078 238.951 201.419 239.506 201.713 240H203.337V226.108H201.432V236.392C201.005 235.684 200.477 234.875 199.849 233.966C199.234 233.058 198.572 232.135 197.864 231.2C197.169 230.251 196.461 229.336 195.739 228.454C195.031 227.558 194.363 226.777 193.735 226.108H192.191V240H194.095V229.155C194.47 229.583 194.877 230.077 195.318 230.639C195.759 231.2 196.214 231.801 196.681 232.443C197.149 233.071 197.617 233.726 198.085 234.407C198.566 235.089 199.027 235.764 199.468 236.432C199.909 237.087 200.316 237.721 200.69 238.336Z" fill="white"/>
<path d="M206.775 226.108V240H215.756V238.336H208.72V233.525H214.533V231.902H208.72V227.772H215.254V226.108H206.775Z" fill="white"/>
<path fill-rule="evenodd" clip-rule="evenodd" d="M174 33L302.339 103.226V244.774L174 315L45.6602 244.774V103.226L174 33ZM290.312 110.355L174 46.7102L57.6875 110.355V140.925H290.312V110.355ZM57.6875 237.645V207.075H290.312V237.645L174 301.29L57.6875 237.645ZM140.454 154.276H146.868V194.367H140.454V154.276ZM169.319 181.578C169.319 187.714 164.16 188.203 162.626 188.203C158.791 188.203 158.094 184.614 158.094 182.449V167.105H151.679V182.417C151.679 186.217 152.872 189.354 154.964 191.445C156.811 193.295 159.579 194.305 162.577 194.305C164.704 194.305 167.716 193.642 169.319 192.178V194.367H175.734V167.105H169.319V181.578ZM182.149 157.483H188.563V167.105H193.374V173.52H188.563V194.367H182.149V173.52H177.338V167.105H182.149V157.483ZM213.575 186.216C212.179 187.471 210.334 188.168 208.31 188.168C203.849 188.168 200.573 184.891 200.573 180.393C200.573 175.895 203.745 172.756 208.31 172.756C210.299 172.756 212.179 173.419 213.61 174.674L214.584 175.511L218.909 171.188L217.826 170.211C215.281 167.913 211.903 166.624 208.309 166.624C200.29 166.624 194.468 172.41 194.468 180.359C194.468 188.275 200.43 194.268 208.309 194.268C211.97 194.268 215.384 192.979 217.897 190.643L218.943 189.667L214.55 185.347L213.575 186.216ZM234.793 166.624C237.792 166.624 239.957 167.635 241.804 169.482C243.897 171.575 244.691 174.711 244.691 178.512V194.367H238.276V178.309C238.279 176.134 238.283 172.726 234.548 172.726C233.013 172.726 228.654 173.214 228.654 179.349V194.367H222.24V154.276H228.654V168.749C230.258 167.287 232.667 166.624 234.793 166.624ZM208.098 175.826C209.328 175.826 210.508 176.314 211.378 177.184C212.247 178.054 212.736 179.234 212.736 180.464C212.736 181.693 212.247 182.873 211.378 183.743C210.508 184.613 209.328 185.101 208.098 185.101C206.868 185.101 205.689 184.613 204.819 183.743C203.949 182.873 203.461 181.693 203.461 180.464C203.461 179.234 203.949 178.054 204.819 177.184C205.689 176.314 206.868 175.826 208.098 175.826ZM131.473 184.298C129.034 186.808 125.721 188.168 122.234 188.168C115.088 188.168 109.893 182.555 109.893 174.851C109.893 167.111 115.088 161.499 122.234 161.499C125.687 161.499 128.964 162.857 131.439 165.333L132.414 166.31L136.703 162.021L135.761 161.045C132.206 157.384 127.395 155.398 122.234 155.398C111.706 155.398 103.792 163.765 103.792 174.884C103.792 185.97 111.742 194.303 122.234 194.303C127.43 194.303 132.241 192.282 135.796 188.621L136.738 187.644L132.485 183.288L131.473 184.298Z" fill="white"/>
</svg>
