<svg viewBox="0 0 348 348" fill="none" xmlns="http://www.w3.org/2000/svg">
<path fill-rule="evenodd" clip-rule="evenodd" d="M174 33L302.339 103.226V244.774L174 315L45.66 244.774V103.226L174 33ZM290.312 110.355L174 46.7102L57.6874 110.355V140.925H290.312V110.355ZM57.6874 237.645V207.075H290.312V237.645L174 301.29L57.6874 237.645ZM140.453 154.276H146.868V194.367H140.453V154.276ZM169.319 181.578C169.319 187.714 164.16 188.203 162.625 188.203C158.791 188.203 158.094 184.614 158.094 182.449V167.105H151.679V182.417C151.679 186.217 152.872 189.354 154.964 191.445C156.811 193.295 159.579 194.305 162.577 194.305C164.704 194.305 167.715 193.642 169.319 192.178V194.367H175.734V167.105H169.319V181.578ZM182.148 157.483H188.563V167.105H193.374V173.52H188.563V194.367H182.148V173.52H177.337V167.105H182.148V157.483ZM213.575 186.216C212.178 187.471 210.334 188.168 208.31 188.168C203.849 188.168 200.573 184.891 200.573 180.393C200.573 175.895 203.745 172.756 208.31 172.756C210.299 172.756 212.178 173.419 213.61 174.674L214.584 175.511L218.909 171.188L217.826 170.211C215.281 167.913 211.902 166.624 208.309 166.624C200.29 166.624 194.467 172.41 194.467 180.359C194.467 188.275 200.43 194.268 208.309 194.268C211.97 194.268 215.384 192.979 217.897 190.643L218.943 189.667L214.55 185.347L213.575 186.216ZM234.793 166.624C237.792 166.624 239.957 167.635 241.804 169.482C243.897 171.575 244.691 174.711 244.691 178.512V194.367H238.276V178.309C238.279 176.134 238.283 172.726 234.548 172.726C233.013 172.726 228.654 173.214 228.654 179.349V194.367H222.24V154.276H228.654V168.749C230.258 167.287 232.666 166.624 234.793 166.624ZM208.098 175.826C209.328 175.826 210.508 176.314 211.378 177.184C212.247 178.054 212.736 179.234 212.736 180.464C212.736 181.693 212.247 182.873 211.378 183.743C210.508 184.613 209.328 185.101 208.098 185.101C206.868 185.101 205.689 184.613 204.819 183.743C203.949 182.873 203.461 181.693 203.461 180.464C203.461 179.234 203.949 178.054 204.819 177.184C205.689 176.314 206.868 175.826 208.098 175.826ZM131.473 184.298C129.034 186.808 125.721 188.168 122.234 188.168C115.088 188.168 109.893 182.555 109.893 174.851C109.893 167.111 115.088 161.499 122.234 161.499C125.687 161.499 128.963 162.857 131.439 165.333L132.414 166.31L136.702 162.021L135.761 161.045C132.206 157.384 127.395 155.398 122.234 155.398C111.706 155.398 103.792 163.765 103.792 174.884C103.792 185.97 111.742 194.303 122.234 194.303C127.43 194.303 132.241 192.282 135.796 188.621L136.738 187.644L132.485 183.288L131.473 184.298Z" fill="white"/>
<path fill-rule="evenodd" clip-rule="evenodd" d="M150.667 93.5698C150.372 94.3423 150.224 95.234 150.224 96.2449C150.224 97.2559 150.372 98.1476 150.667 98.92C150.974 99.6925 151.383 100.34 151.894 100.862C152.417 101.374 153.019 101.76 153.7 102.021C154.393 102.282 155.126 102.413 155.898 102.413C156.659 102.413 157.375 102.282 158.045 102.021C158.727 101.76 159.323 101.374 159.834 100.862C160.345 100.34 160.749 99.6925 161.044 98.92C161.351 98.1476 161.504 97.2559 161.504 96.2449C161.504 95.234 161.351 94.3423 161.044 93.5698C160.749 92.7974 160.345 92.1556 159.834 91.6445C159.323 91.1219 158.727 90.73 158.045 90.4688C157.375 90.2075 156.659 90.0769 155.898 90.0769C155.126 90.0769 154.393 90.2075 153.7 90.4688C153.019 90.73 152.417 91.1219 151.894 91.6445C151.383 92.1556 150.974 92.7974 150.667 93.5698ZM152.235 98.2044C152.053 97.6137 151.962 96.9606 151.962 96.2449C151.962 95.5293 152.053 94.8818 152.235 94.3025C152.417 93.7118 152.672 93.212 153.002 92.8031C153.342 92.3942 153.751 92.0818 154.228 91.866C154.717 91.6388 155.262 91.5252 155.864 91.5252C156.466 91.5252 157.006 91.6388 157.483 91.866C157.96 92.0818 158.363 92.3942 158.693 92.8031C159.033 93.212 159.295 93.7118 159.476 94.3025C159.658 94.8818 159.749 95.5293 159.749 96.2449C159.749 96.9606 159.658 97.6137 159.476 98.2044C159.295 98.7837 159.033 99.2778 158.693 99.6868C158.363 100.096 157.96 100.414 157.483 100.641C157.006 100.857 156.466 100.965 155.864 100.965C155.262 100.965 154.717 100.857 154.228 100.641C153.751 100.414 153.342 100.096 153.002 99.6868C152.672 99.2778 152.417 98.7837 152.235 98.2044Z" fill="white"/>
<path d="M149.422 91.7808V90.3495H140.34V91.7808H144.055V102.157H145.708V91.7808H149.422Z" fill="white"/>
<path fill-rule="evenodd" clip-rule="evenodd" d="M167.098 90.2302C168.757 90.2302 170.029 90.5483 170.915 91.1844C171.812 91.8092 172.261 92.7463 172.261 93.9958C172.261 94.6774 172.136 95.2624 171.886 95.7508C171.648 96.2279 171.295 96.6198 170.83 96.9265C170.375 97.2218 169.819 97.4377 169.16 97.574C168.501 97.7103 167.757 97.7784 166.928 97.7784H165.616V102.157H163.963V90.5199C164.429 90.4063 164.946 90.3325 165.514 90.2984C166.093 90.253 166.621 90.2302 167.098 90.2302ZM167.235 91.6785C166.53 91.6785 165.991 91.6956 165.616 91.7297V96.3642H166.86C167.428 96.3642 167.939 96.3301 168.393 96.262C168.848 96.1825 169.228 96.0575 169.535 95.8871C169.853 95.7054 170.097 95.4612 170.267 95.1545C170.438 94.8478 170.523 94.4559 170.523 93.9788C170.523 93.5244 170.432 93.1496 170.25 92.8542C170.08 92.5589 169.841 92.326 169.535 92.1556C169.239 91.9739 168.893 91.8489 168.495 91.7808C168.098 91.7126 167.678 91.6785 167.235 91.6785Z" fill="white"/>
<path fill-rule="evenodd" clip-rule="evenodd" d="M185.617 100.658C185.787 101.146 185.969 101.646 186.162 102.157H187.968C187.514 100.908 187.088 99.7549 186.69 98.6985C186.293 97.6308 185.901 96.6198 185.514 95.6656C185.14 94.7114 184.765 93.8027 184.39 92.9394C184.015 92.0648 183.623 91.2015 183.214 90.3495H181.698C181.289 91.2015 180.897 92.0648 180.522 92.9394C180.147 93.8027 179.767 94.7114 179.38 95.6656C179.006 96.6198 178.619 97.6308 178.222 98.6985C177.824 99.7549 177.398 100.908 176.944 102.157H178.665L179.738 99.1415H185.088C185.27 99.6527 185.446 100.158 185.617 100.658ZM183.521 94.9159C183.884 95.836 184.248 96.7902 184.611 97.7784H180.215C180.568 96.7902 180.92 95.836 181.272 94.9159C181.635 93.9845 182.016 93.0928 182.413 92.2408C182.8 93.0928 183.169 93.9845 183.521 94.9159Z" fill="white"/>
<path fill-rule="evenodd" clip-rule="evenodd" d="M192.706 90.2302C194.365 90.2302 195.637 90.5483 196.523 91.1844C197.42 91.8092 197.869 92.7463 197.869 93.9958C197.869 94.6774 197.744 95.2624 197.494 95.7508C197.256 96.2279 196.904 96.6198 196.438 96.9265C195.983 97.2218 195.427 97.4377 194.768 97.574C194.109 97.7103 193.365 97.7784 192.536 97.7784H191.224V102.157H189.571V90.5199C190.037 90.4063 190.554 90.3325 191.122 90.2984C191.701 90.253 192.229 90.2302 192.706 90.2302ZM192.843 91.6785C192.138 91.6785 191.599 91.6956 191.224 91.7297V96.3642H192.468C193.036 96.3642 193.547 96.3301 194.001 96.262C194.456 96.1825 194.836 96.0575 195.143 95.8871C195.461 95.7054 195.705 95.4612 195.875 95.1545C196.046 94.8478 196.131 94.4559 196.131 93.9788C196.131 93.5244 196.04 93.1496 195.858 92.8542C195.688 92.5589 195.45 92.326 195.143 92.1556C194.847 91.9739 194.501 91.8489 194.103 91.7808C193.706 91.7126 193.286 91.6785 192.843 91.6785Z" fill="white"/>
<path fill-rule="evenodd" clip-rule="evenodd" d="M206.889 91.1844C206.003 90.5483 204.731 90.2302 203.073 90.2302C202.596 90.2302 202.067 90.253 201.488 90.2984C200.92 90.3325 200.403 90.4063 199.938 90.5199V102.157H201.59V97.7784H202.902C203.731 97.7784 204.476 97.7103 205.134 97.574C205.793 97.4377 206.35 97.2218 206.804 96.9265C207.27 96.6198 207.622 96.2279 207.861 95.7508C208.11 95.2624 208.235 94.6774 208.235 93.9958C208.235 92.7463 207.787 91.8092 206.889 91.1844ZM201.59 91.7297C201.965 91.6956 202.505 91.6785 203.209 91.6785C203.652 91.6785 204.072 91.7126 204.47 91.7808C204.867 91.8489 205.214 91.9739 205.509 92.1556C205.816 92.326 206.054 92.5589 206.225 92.8542C206.407 93.1496 206.497 93.5244 206.497 93.9788C206.497 94.4559 206.412 94.8478 206.242 95.1545C206.071 95.4612 205.827 95.7054 205.509 95.8871C205.202 96.0575 204.822 96.1825 204.368 96.262C203.913 96.3301 203.402 96.3642 202.834 96.3642H201.59V91.7297Z" fill="white"/>
<path fill-rule="evenodd" clip-rule="evenodd" d="M123.362 117.625C123.067 118.397 122.919 119.289 122.919 120.3C122.919 121.311 123.067 122.202 123.362 122.975C123.669 123.747 124.078 124.395 124.589 124.917C125.111 125.428 125.713 125.815 126.395 126.076C127.088 126.337 127.821 126.468 128.593 126.468C129.354 126.468 130.07 126.337 130.74 126.076C131.421 125.815 132.018 125.428 132.529 124.917C133.04 124.395 133.443 123.747 133.739 122.975C134.045 122.202 134.199 121.311 134.199 120.3C134.199 119.289 134.045 118.397 133.739 117.625C133.443 116.852 133.04 116.21 132.529 115.699C132.018 115.177 131.421 114.785 130.74 114.524C130.07 114.262 129.354 114.132 128.593 114.132C127.821 114.132 127.088 114.262 126.395 114.524C125.713 114.785 125.111 115.177 124.589 115.699C124.078 116.21 123.669 116.852 123.362 117.625ZM124.93 122.259C124.748 121.668 124.657 121.015 124.657 120.3C124.657 119.584 124.748 118.937 124.93 118.357C125.111 117.767 125.367 117.267 125.696 116.858C126.037 116.449 126.446 116.137 126.923 115.921C127.412 115.694 127.957 115.58 128.559 115.58C129.161 115.58 129.701 115.694 130.178 115.921C130.655 116.137 131.058 116.449 131.387 116.858C131.728 117.267 131.989 117.767 132.171 118.357C132.353 118.937 132.444 119.584 132.444 120.3C132.444 121.015 132.353 121.668 132.171 122.259C131.989 122.838 131.728 123.333 131.387 123.742C131.058 124.15 130.655 124.469 130.178 124.696C129.701 124.912 129.161 125.019 128.559 125.019C127.957 125.019 127.412 124.912 126.923 124.696C126.446 124.469 126.037 124.15 125.696 123.742C125.367 123.333 125.111 122.838 124.93 122.259Z" fill="white"/>
<path fill-rule="evenodd" clip-rule="evenodd" d="M81.7474 122.975C82.0655 122.214 82.2245 121.322 82.2245 120.3C82.2245 119.277 82.0655 118.391 81.7474 117.642C81.4293 116.881 80.9807 116.256 80.4013 115.767C79.822 115.268 79.1291 114.898 78.3226 114.66C77.5161 114.41 76.6301 114.285 75.6646 114.285C75.1875 114.285 74.6593 114.308 74.08 114.353C73.512 114.387 72.9951 114.461 72.5294 114.575V126.025C72.9951 126.138 73.512 126.212 74.08 126.246C74.6593 126.292 75.1875 126.314 75.6646 126.314C76.6301 126.314 77.5161 126.195 78.3226 125.957C79.1291 125.707 79.822 125.337 80.4013 124.849C80.9807 124.349 81.4293 123.724 81.7474 122.975ZM79.3109 123.673C78.5384 124.469 77.3684 124.866 75.8009 124.866C75.3351 124.866 74.9716 124.86 74.7104 124.849C74.4605 124.838 74.2844 124.826 74.1822 124.815V115.784C74.2844 115.773 74.4605 115.762 74.7104 115.75C74.9716 115.739 75.3351 115.733 75.8009 115.733C77.3684 115.733 78.5384 116.137 79.3109 116.943C80.0833 117.738 80.4695 118.857 80.4695 120.3C80.4695 121.742 80.0833 122.867 79.3109 123.673Z" fill="white"/>
<path d="M84.6762 114.404V126.212H92.3096V124.798H86.329V120.709H91.2702V119.328H86.329V115.818H91.8836V114.404H84.6762Z" fill="white"/>
<path d="M103.952 114.404C103.52 115.654 103.106 116.812 102.708 117.88C102.322 118.937 101.941 119.942 101.567 120.896C101.192 121.85 100.817 122.765 100.442 123.639C100.079 124.503 99.7037 125.36 99.3174 126.212H97.7669C97.3807 125.36 97.0002 124.503 96.6253 123.639C96.2618 122.765 95.887 121.85 95.5008 120.896C95.1259 119.942 94.7397 118.937 94.3421 117.88C93.9445 116.812 93.5356 115.654 93.1153 114.404H94.9385C95.5519 116.199 96.1539 117.926 96.7446 119.584C97.3353 121.243 97.943 122.799 98.5677 124.253C99.1925 122.81 99.8002 121.26 100.391 119.601C100.982 117.931 101.578 116.199 102.18 114.404H103.952Z" fill="white"/>
<path d="M105.592 114.404V126.212H113.225V124.798H107.245V120.709H112.186V119.328H107.245V115.818H112.799V114.404H105.592Z" fill="white"/>
<path d="M122.431 124.781V126.212H115.326V114.404H116.979V124.781H122.431Z" fill="white"/>
<path fill-rule="evenodd" clip-rule="evenodd" d="M139.793 114.285C141.451 114.285 142.724 114.603 143.61 115.239C144.507 115.864 144.956 116.801 144.956 118.051C144.956 118.732 144.831 119.317 144.581 119.806C144.342 120.283 143.99 120.675 143.524 120.981C143.07 121.277 142.513 121.492 141.855 121.629C141.196 121.765 140.452 121.833 139.623 121.833H138.311V126.212H136.658V114.575C137.124 114.461 137.64 114.387 138.208 114.353C138.788 114.308 139.316 114.285 139.793 114.285ZM139.929 115.733C139.225 115.733 138.685 115.75 138.311 115.784V120.419H139.554C140.122 120.419 140.634 120.385 141.088 120.317C141.542 120.237 141.923 120.112 142.229 119.942C142.548 119.76 142.792 119.516 142.962 119.209C143.133 118.903 143.218 118.511 143.218 118.034C143.218 117.579 143.127 117.204 142.945 116.909C142.775 116.614 142.536 116.381 142.229 116.21C141.934 116.029 141.588 115.904 141.19 115.836C140.793 115.767 140.372 115.733 139.929 115.733Z" fill="white"/>
<path d="M151.863 123.537C152.056 123.957 152.21 124.304 152.323 124.576H153.652C153.766 124.304 153.914 123.957 154.095 123.537C154.288 123.117 154.493 122.662 154.709 122.174C154.924 121.686 155.152 121.186 155.39 120.675C155.64 120.152 155.873 119.664 156.089 119.209C156.305 118.743 156.503 118.329 156.685 117.965C156.878 117.602 157.032 117.324 157.145 117.13C157.27 118.471 157.372 119.925 157.452 121.492C157.531 123.049 157.6 124.622 157.656 126.212H159.275C159.082 122.146 158.792 118.21 158.406 114.404H156.958C156.651 114.904 156.322 115.495 155.97 116.176C155.617 116.858 155.265 117.573 154.913 118.323C154.561 119.062 154.22 119.806 153.891 120.555C153.561 121.294 153.26 121.969 152.988 122.583C152.715 121.969 152.414 121.294 152.085 120.555C151.755 119.806 151.414 119.062 151.062 118.323C150.71 117.573 150.358 116.858 150.006 116.176C149.654 115.495 149.324 114.904 149.018 114.404H147.569C147.467 115.256 147.371 116.159 147.28 117.113C147.2 118.068 147.121 119.05 147.041 120.061C146.973 121.061 146.911 122.083 146.854 123.128C146.797 124.162 146.746 125.19 146.7 126.212H148.319C148.376 124.622 148.444 123.049 148.524 121.492C148.603 119.925 148.705 118.471 148.83 117.13C148.944 117.324 149.092 117.602 149.273 117.965C149.466 118.329 149.671 118.743 149.887 119.209C150.103 119.664 150.33 120.152 150.568 120.675C150.818 121.186 151.051 121.686 151.267 122.174C151.483 122.662 151.681 123.117 151.863 123.537Z" fill="white"/>
<path d="M161.867 126.212V114.404H169.074V115.818H163.519V119.328H168.461V120.709H163.519V124.798H169.5V126.212H161.867Z" fill="white"/>
<path d="M178.825 124.798C179.154 125.32 179.444 125.792 179.694 126.212H181.074V114.404H179.456V123.145C179.092 122.543 178.643 121.856 178.109 121.083C177.587 120.311 177.025 119.527 176.423 118.732C175.832 117.926 175.23 117.148 174.616 116.398C174.014 115.637 173.446 114.972 172.913 114.404H171.601V126.212H173.219V116.994C173.537 117.358 173.884 117.778 174.259 118.255C174.634 118.732 175.02 119.243 175.417 119.789C175.815 120.322 176.212 120.879 176.61 121.458C177.019 122.038 177.411 122.611 177.786 123.179C178.161 123.736 178.507 124.275 178.825 124.798Z" fill="white"/>
<path d="M191.886 114.404V115.836H188.172V126.212H186.519V115.836H182.804V114.404H191.886Z" fill="white"/>
<path d="M200.386 126.059C201.068 126.331 201.823 126.468 202.652 126.468C203.129 126.468 203.572 126.439 203.981 126.383C204.39 126.326 204.748 126.258 205.055 126.178C205.361 126.099 205.617 126.019 205.822 125.94C206.026 125.849 206.168 125.775 206.248 125.718L205.822 124.355C205.572 124.48 205.197 124.622 204.697 124.781C204.197 124.94 203.567 125.019 202.806 125.019C202.147 125.019 201.568 124.906 201.068 124.679C200.579 124.451 200.17 124.133 199.841 123.724C199.512 123.304 199.262 122.804 199.091 122.225C198.932 121.646 198.853 121.004 198.853 120.3C198.853 119.573 198.944 118.92 199.125 118.34C199.318 117.75 199.591 117.25 199.943 116.841C200.295 116.432 200.721 116.12 201.221 115.904C201.721 115.688 202.283 115.58 202.908 115.58C203.203 115.58 203.493 115.608 203.777 115.665C204.072 115.711 204.339 115.773 204.578 115.853C204.828 115.932 205.049 116.012 205.242 116.091C205.435 116.171 205.583 116.244 205.685 116.313L206.162 114.95C206.094 114.904 205.969 114.836 205.787 114.745C205.606 114.654 205.367 114.563 205.072 114.472C204.788 114.382 204.447 114.302 204.05 114.234C203.663 114.166 203.226 114.132 202.738 114.132C201.965 114.132 201.238 114.268 200.557 114.541C199.875 114.813 199.279 115.211 198.768 115.733C198.256 116.256 197.847 116.903 197.541 117.676C197.245 118.437 197.098 119.311 197.098 120.3C197.098 121.288 197.228 122.168 197.49 122.941C197.762 123.702 198.143 124.344 198.631 124.866C199.12 125.389 199.705 125.786 200.386 126.059Z" fill="white"/>
<path fill-rule="evenodd" clip-rule="evenodd" d="M207.331 120.3C207.331 119.289 207.479 118.397 207.774 117.625C208.081 116.852 208.49 116.21 209.001 115.699C209.523 115.177 210.125 114.785 210.807 114.524C211.5 114.262 212.232 114.132 213.005 114.132C213.766 114.132 214.482 114.262 215.152 114.524C215.833 114.785 216.43 115.177 216.941 115.699C217.452 116.21 217.855 116.852 218.151 117.625C218.457 118.397 218.611 119.289 218.611 120.3C218.611 121.311 218.457 122.202 218.151 122.975C217.855 123.747 217.452 124.395 216.941 124.917C216.43 125.428 215.833 125.815 215.152 126.076C214.482 126.337 213.766 126.468 213.005 126.468C212.232 126.468 211.5 126.337 210.807 126.076C210.125 125.815 209.523 125.428 209.001 124.917C208.49 124.395 208.081 123.747 207.774 122.975C207.479 122.202 207.331 121.311 207.331 120.3ZM209.069 120.3C209.069 121.015 209.16 121.668 209.342 122.259C209.523 122.838 209.779 123.333 210.108 123.742C210.449 124.15 210.858 124.469 211.335 124.696C211.824 124.912 212.369 125.019 212.971 125.019C213.573 125.019 214.112 124.912 214.589 124.696C215.067 124.469 215.47 124.15 215.799 123.742C216.14 123.333 216.401 122.838 216.583 122.259C216.765 121.668 216.856 121.015 216.856 120.3C216.856 119.584 216.765 118.937 216.583 118.357C216.401 117.767 216.14 117.267 215.799 116.858C215.47 116.449 215.067 116.137 214.589 115.921C214.112 115.694 213.573 115.58 212.971 115.58C212.369 115.58 211.824 115.694 211.335 115.921C210.858 116.137 210.449 116.449 210.108 116.858C209.779 117.267 209.523 117.767 209.342 118.357C209.16 118.937 209.069 119.584 209.069 120.3Z" fill="white"/>
<path d="M225.909 123.537C226.102 123.957 226.255 124.304 226.369 124.576H227.698C227.811 124.304 227.959 123.957 228.141 123.537C228.334 123.117 228.538 122.662 228.754 122.174C228.97 121.686 229.197 121.186 229.436 120.675C229.686 120.152 229.918 119.664 230.134 119.209C230.35 118.743 230.549 118.329 230.731 117.965C230.924 117.602 231.077 117.324 231.191 117.13C231.316 118.471 231.418 119.925 231.497 121.492C231.577 123.049 231.645 124.622 231.702 126.212H233.321C233.127 122.146 232.838 118.21 232.452 114.404H231.003C230.697 114.904 230.367 115.495 230.015 116.176C229.663 116.858 229.311 117.573 228.959 118.323C228.606 119.062 228.266 119.806 227.936 120.555C227.607 121.294 227.306 121.969 227.033 122.583C226.761 121.969 226.46 121.294 226.13 120.555C225.801 119.806 225.46 119.062 225.108 118.323C224.756 117.573 224.404 116.858 224.051 116.176C223.699 115.495 223.37 114.904 223.063 114.404H221.615C221.513 115.256 221.416 116.159 221.325 117.113C221.246 118.068 221.166 119.05 221.087 120.061C221.019 121.061 220.956 122.083 220.899 123.128C220.842 124.162 220.791 125.19 220.746 126.212H222.365C222.421 124.622 222.49 123.049 222.569 121.492C222.649 119.925 222.751 118.471 222.876 117.13C222.989 117.324 223.137 117.602 223.319 117.965C223.512 118.329 223.716 118.743 223.932 119.209C224.148 119.664 224.375 120.152 224.614 120.675C224.864 121.186 225.096 121.686 225.312 122.174C225.528 122.662 225.727 123.117 225.909 123.537Z" fill="white"/>
<path fill-rule="evenodd" clip-rule="evenodd" d="M239.047 114.285C240.706 114.285 241.978 114.603 242.864 115.239C243.761 115.864 244.21 116.801 244.21 118.051C244.21 118.732 244.085 119.317 243.835 119.806C243.597 120.283 243.244 120.675 242.779 120.981C242.324 121.277 241.768 121.492 241.109 121.629C240.45 121.765 239.706 121.833 238.877 121.833H237.565V126.212H235.912V114.575C236.378 114.461 236.895 114.387 237.463 114.353C238.042 114.308 238.57 114.285 239.047 114.285ZM239.183 115.733C238.479 115.733 237.94 115.75 237.565 115.784V120.419H238.809C239.377 120.419 239.888 120.385 240.342 120.317C240.796 120.237 241.177 120.112 241.484 119.942C241.802 119.76 242.046 119.516 242.216 119.209C242.387 118.903 242.472 118.511 242.472 118.034C242.472 117.579 242.381 117.204 242.199 116.909C242.029 116.614 241.79 116.381 241.484 116.21C241.188 116.029 240.842 115.904 240.444 115.836C240.047 115.767 239.626 115.733 239.183 115.733Z" fill="white"/>
<path fill-rule="evenodd" clip-rule="evenodd" d="M252.774 124.713C252.944 125.201 253.126 125.701 253.319 126.212H255.125C254.67 124.963 254.245 123.81 253.847 122.753C253.449 121.686 253.057 120.675 252.671 119.72C252.296 118.766 251.922 117.857 251.547 116.994C251.172 116.12 250.78 115.256 250.371 114.404H248.855C248.446 115.256 248.054 116.12 247.679 116.994C247.304 117.857 246.924 118.766 246.537 119.72C246.162 120.675 245.776 121.686 245.379 122.753C244.981 123.81 244.555 124.963 244.101 126.212H245.822L246.895 123.196H252.245C252.427 123.707 252.603 124.213 252.774 124.713ZM250.678 118.971C251.041 119.891 251.405 120.845 251.768 121.833H247.372C247.724 120.845 248.076 119.891 248.429 118.971C248.792 118.039 249.173 117.148 249.57 116.296C249.956 117.148 250.326 118.039 250.678 118.971Z" fill="white"/>
<path d="M264.821 126.212C264.571 125.792 264.282 125.32 263.952 124.798C263.634 124.275 263.288 123.736 262.913 123.179C262.538 122.611 262.146 122.038 261.737 121.458C261.34 120.879 260.942 120.322 260.545 119.789C260.147 119.243 259.761 118.732 259.386 118.255C259.011 117.778 258.665 117.358 258.347 116.994V126.212H256.728V114.404H258.04C258.574 114.972 259.142 115.637 259.744 116.398C260.357 117.148 260.959 117.926 261.55 118.732C262.152 119.527 262.714 120.311 263.237 121.083C263.771 121.856 264.219 122.543 264.583 123.145V114.404H266.202V126.212H264.821Z" fill="white"/>
<path d="M271.936 121.475V126.212H273.589V121.441C274.361 120.237 275.094 119.05 275.786 117.88C276.479 116.699 277.133 115.54 277.746 114.404H275.906C275.463 115.336 274.974 116.284 274.44 117.25C273.907 118.204 273.361 119.124 272.805 120.01C272.237 119.124 271.686 118.204 271.152 117.25C270.618 116.284 270.135 115.336 269.704 114.404H267.761C268.375 115.54 269.028 116.699 269.721 117.88C270.414 119.062 271.152 120.26 271.936 121.475Z" fill="white"/>
<path d="M160.684 252.179C160.684 252.66 160.583 253.128 160.383 253.582C160.196 254.023 159.942 254.464 159.621 254.905C159.301 255.333 158.94 255.76 158.539 256.188C158.138 256.602 157.737 257.01 157.336 257.411L156.534 258.213C156.24 258.52 155.96 258.841 155.692 259.175C155.425 259.509 155.198 259.83 155.011 260.137C154.837 260.444 154.75 260.712 154.75 260.939H161.145V262.522H152.726C152.712 262.442 152.706 262.362 152.706 262.282V262.061C152.706 261.433 152.806 260.852 153.006 260.317C153.22 259.769 153.494 259.255 153.828 258.774C154.162 258.293 154.536 257.838 154.951 257.411C155.365 256.983 155.773 256.569 156.173 256.168C156.508 255.847 156.822 255.533 157.116 255.226C157.423 254.905 157.69 254.591 157.917 254.284C158.158 253.963 158.345 253.636 158.479 253.301C158.626 252.967 158.699 252.613 158.699 252.239C158.699 251.838 158.632 251.497 158.499 251.217C158.378 250.936 158.211 250.702 157.998 250.515C157.784 250.328 157.53 250.194 157.236 250.114C156.955 250.021 156.655 249.974 156.334 249.974C155.946 249.974 155.592 250.027 155.271 250.134C154.951 250.241 154.663 250.368 154.409 250.515C154.156 250.649 153.942 250.796 153.768 250.956C153.594 251.103 153.461 251.217 153.367 251.297L152.445 249.974C152.565 249.84 152.746 249.68 152.986 249.493C153.227 249.292 153.514 249.105 153.848 248.931C154.182 248.758 154.556 248.611 154.971 248.49C155.385 248.37 155.833 248.31 156.314 248.31C157.77 248.31 158.86 248.651 159.581 249.332C160.316 250.001 160.684 250.949 160.684 252.179Z" fill="white"/>
<path fill-rule="evenodd" clip-rule="evenodd" d="M163.639 255.567C163.639 253.241 164.047 251.451 164.862 250.194C165.691 248.938 166.833 248.31 168.29 248.31C169.747 248.31 170.883 248.938 171.698 250.194C172.526 251.451 172.941 253.241 172.941 255.567C172.941 257.892 172.526 259.683 171.698 260.939C170.883 262.195 169.747 262.823 168.29 262.823C166.833 262.823 165.691 262.195 164.862 260.939C164.047 259.683 163.639 257.892 163.639 255.567ZM170.976 255.567C170.976 254.805 170.929 254.083 170.836 253.402C170.756 252.72 170.609 252.125 170.395 251.618C170.194 251.11 169.92 250.709 169.573 250.415C169.226 250.107 168.798 249.954 168.29 249.954C167.782 249.954 167.355 250.107 167.007 250.415C166.66 250.709 166.379 251.11 166.165 251.618C165.965 252.125 165.818 252.72 165.724 253.402C165.644 254.083 165.604 254.805 165.604 255.567C165.604 256.328 165.644 257.05 165.724 257.731C165.818 258.413 165.965 259.008 166.165 259.516C166.379 260.023 166.66 260.431 167.007 260.738C167.355 261.032 167.782 261.179 168.29 261.179C168.798 261.179 169.226 261.032 169.573 260.738C169.92 260.431 170.194 260.023 170.395 259.516C170.609 259.008 170.756 258.413 170.836 257.731C170.929 257.05 170.976 256.328 170.976 255.567Z" fill="white"/>
<path d="M183.013 253.582C183.213 253.128 183.313 252.66 183.313 252.179C183.313 250.949 182.946 250.001 182.211 249.332C181.489 248.651 180.4 248.31 178.943 248.31C178.462 248.31 178.015 248.37 177.6 248.49C177.186 248.611 176.812 248.758 176.478 248.931C176.144 249.105 175.856 249.292 175.616 249.493C175.375 249.68 175.195 249.84 175.075 249.974L175.997 251.297C176.09 251.217 176.224 251.103 176.398 250.956C176.571 250.796 176.785 250.649 177.039 250.515C177.293 250.368 177.58 250.241 177.901 250.134C178.222 250.027 178.576 249.974 178.963 249.974C179.284 249.974 179.585 250.021 179.865 250.114C180.16 250.194 180.413 250.328 180.627 250.515C180.841 250.702 181.008 250.936 181.128 251.217C181.262 251.497 181.329 251.838 181.329 252.239C181.329 252.613 181.255 252.967 181.108 253.301C180.975 253.636 180.788 253.963 180.547 254.284C180.32 254.591 180.053 254.905 179.745 255.226C179.451 255.533 179.137 255.847 178.803 256.168C178.402 256.569 177.995 256.983 177.58 257.411C177.166 257.838 176.792 258.293 176.458 258.774C176.124 259.255 175.85 259.769 175.636 260.317C175.435 260.852 175.335 261.433 175.335 262.061V262.282C175.335 262.362 175.342 262.442 175.355 262.522H183.774V260.939H177.38C177.38 260.712 177.467 260.444 177.64 260.137C177.828 259.83 178.055 259.509 178.322 259.175C178.589 258.841 178.87 258.52 179.164 258.213L179.966 257.411C180.367 257.01 180.768 256.602 181.168 256.188C181.569 255.76 181.93 255.333 182.251 254.905C182.572 254.464 182.826 254.023 183.013 253.582Z" fill="white"/>
<path d="M189.797 261.159C190.987 261.159 191.835 260.925 192.343 260.458C192.864 259.99 193.125 259.362 193.125 258.573C193.125 258.066 193.018 257.638 192.804 257.29C192.59 256.943 192.31 256.669 191.962 256.469C191.615 256.255 191.207 256.108 190.739 256.028C190.285 255.934 189.817 255.887 189.336 255.887H188.855V254.364H189.517C189.851 254.364 190.191 254.33 190.539 254.264C190.9 254.197 191.227 254.077 191.521 253.903C191.815 253.729 192.056 253.495 192.243 253.201C192.43 252.894 192.523 252.513 192.523 252.059C192.523 251.684 192.457 251.364 192.323 251.096C192.189 250.829 192.009 250.609 191.782 250.435C191.568 250.261 191.314 250.141 191.02 250.074C190.739 249.994 190.439 249.954 190.118 249.954C189.476 249.954 188.929 250.047 188.474 250.234C188.033 250.422 187.659 250.615 187.352 250.816L186.63 249.393C186.79 249.286 186.991 249.172 187.231 249.052C187.485 248.918 187.766 248.798 188.073 248.691C188.381 248.584 188.708 248.497 189.055 248.43C189.416 248.35 189.79 248.31 190.178 248.31C190.913 248.31 191.548 248.404 192.082 248.591C192.617 248.764 193.058 249.018 193.405 249.352C193.753 249.673 194.013 250.061 194.187 250.515C194.361 250.956 194.448 251.437 194.448 251.958C194.448 252.68 194.241 253.301 193.826 253.823C193.412 254.33 192.911 254.718 192.323 254.985C192.684 255.092 193.031 255.246 193.365 255.446C193.699 255.647 193.987 255.901 194.227 256.208C194.481 256.515 194.682 256.87 194.829 257.27C194.989 257.671 195.069 258.119 195.069 258.613C195.069 259.215 194.962 259.776 194.748 260.297C194.548 260.805 194.227 261.246 193.786 261.62C193.359 261.995 192.817 262.289 192.163 262.502C191.508 262.716 190.733 262.823 189.837 262.823C189.49 262.823 189.129 262.796 188.755 262.743C188.394 262.689 188.053 262.623 187.732 262.542C187.412 262.462 187.131 262.382 186.891 262.302C186.65 262.222 186.476 262.155 186.369 262.101L186.73 260.478C186.957 260.585 187.332 260.725 187.853 260.899C188.387 261.072 189.035 261.159 189.797 261.159Z" fill="white"/>
<path d="M166.572 233.697C165.792 233.697 165.081 233.568 164.439 233.312C163.798 233.055 163.247 232.681 162.787 232.189C162.328 231.698 161.97 231.094 161.713 230.377C161.467 229.65 161.344 228.822 161.344 227.892C161.344 226.961 161.483 226.138 161.761 225.422C162.05 224.695 162.435 224.086 162.916 223.594C163.397 223.102 163.958 222.728 164.6 222.471C165.241 222.215 165.925 222.086 166.652 222.086C167.112 222.086 167.524 222.118 167.887 222.183C168.261 222.247 168.582 222.322 168.849 222.407C169.127 222.493 169.352 222.578 169.523 222.664C169.694 222.749 169.811 222.813 169.876 222.856L169.427 224.139C169.33 224.075 169.191 224.005 169.01 223.931C168.828 223.856 168.619 223.781 168.384 223.706C168.16 223.631 167.908 223.572 167.631 223.53C167.363 223.476 167.091 223.449 166.813 223.449C166.225 223.449 165.695 223.551 165.225 223.754C164.755 223.957 164.354 224.251 164.022 224.636C163.691 225.021 163.434 225.491 163.253 226.047C163.081 226.593 162.996 227.207 162.996 227.892C162.996 228.554 163.071 229.158 163.22 229.704C163.381 230.249 163.616 230.719 163.926 231.115C164.236 231.5 164.621 231.799 165.081 232.013C165.551 232.227 166.096 232.334 166.716 232.334C167.433 232.334 168.026 232.259 168.496 232.109C168.967 231.96 169.32 231.826 169.555 231.708L169.956 232.991C169.881 233.045 169.747 233.114 169.555 233.2C169.362 233.275 169.122 233.349 168.833 233.424C168.545 233.499 168.208 233.563 167.823 233.617C167.438 233.67 167.021 233.697 166.572 233.697Z" fill="white"/>
<path fill-rule="evenodd" clip-rule="evenodd" d="M147.162 227.892C147.162 228.854 147.012 229.693 146.713 230.409C146.414 231.115 145.991 231.703 145.446 232.173C144.901 232.633 144.249 232.98 143.49 233.216C142.731 233.44 141.897 233.552 140.988 233.552C140.539 233.552 140.042 233.531 139.497 233.488C138.962 233.456 138.476 233.387 138.037 233.28V222.503C138.476 222.396 138.962 222.327 139.497 222.295C140.042 222.252 140.539 222.231 140.988 222.231C141.897 222.231 142.731 222.348 143.49 222.583C144.249 222.808 144.901 223.155 145.446 223.626C145.991 224.086 146.414 224.674 146.713 225.39C147.012 226.095 147.162 226.929 147.162 227.892ZM141.116 232.189C142.592 232.189 143.693 231.815 144.42 231.067C145.147 230.308 145.51 229.249 145.51 227.892C145.51 226.534 145.147 225.481 144.42 224.732C143.693 223.973 142.592 223.594 141.116 223.594C140.678 223.594 140.336 223.599 140.09 223.61C139.855 223.621 139.689 223.631 139.593 223.642V232.141C139.689 232.152 139.855 232.163 140.09 232.173C140.336 232.184 140.678 232.189 141.116 232.189Z" fill="white"/>
<path d="M128.234 233.456V222.343H135.018V223.674H129.79V226.978H134.44V228.276H129.79V232.125H135.419V233.456H128.234Z" fill="white"/>
<path d="M152.356 233.36C152.891 233.585 153.521 233.697 154.248 233.697C154.975 233.697 155.601 233.585 156.125 233.36C156.659 233.136 157.098 232.831 157.44 232.446C157.792 232.05 158.049 231.585 158.209 231.051C158.38 230.516 158.466 229.939 158.466 229.319V222.343H156.91V229.142C156.91 229.698 156.846 230.179 156.718 230.586C156.59 230.981 156.408 231.307 156.173 231.564C155.938 231.821 155.654 232.013 155.323 232.141C155.002 232.259 154.644 232.318 154.248 232.318C153.457 232.318 152.816 232.066 152.324 231.564C151.832 231.061 151.586 230.254 151.586 229.142V222.343H150.031V229.319C150.031 229.939 150.111 230.516 150.271 231.051C150.442 231.585 150.699 232.05 151.041 232.446C151.383 232.831 151.822 233.136 152.356 233.36Z" fill="white"/>
<path fill-rule="evenodd" clip-rule="evenodd" d="M179.651 232.045C179.811 232.505 179.983 232.975 180.164 233.456H181.864C181.437 232.28 181.036 231.195 180.661 230.201C180.287 229.196 179.918 228.244 179.555 227.346C179.202 226.448 178.849 225.593 178.496 224.781C178.144 223.957 177.775 223.145 177.39 222.343H175.963C175.578 223.145 175.209 223.957 174.856 224.781C174.503 225.593 174.145 226.448 173.782 227.346C173.429 228.244 173.065 229.196 172.691 230.201C172.317 231.195 171.916 232.28 171.489 233.456H173.108L174.119 230.618H179.154C179.325 231.099 179.491 231.575 179.651 232.045ZM177.679 226.641C178.021 227.507 178.363 228.405 178.705 229.335H174.568C174.899 228.405 175.23 227.507 175.562 226.641C175.904 225.764 176.262 224.925 176.636 224.123C177 224.925 177.347 225.764 177.679 226.641Z" fill="white"/>
<path d="M190.406 222.343V223.69H186.91V233.456H185.354V223.69H181.858V222.343H190.406Z" fill="white"/>
<path d="M194.245 222.343H192.69V233.456H194.245V222.343Z" fill="white"/>
<path fill-rule="evenodd" clip-rule="evenodd" d="M197.189 227.892C197.189 226.94 197.328 226.101 197.606 225.374C197.895 224.647 198.279 224.043 198.76 223.562C199.252 223.07 199.819 222.701 200.46 222.455C201.113 222.209 201.802 222.086 202.529 222.086C203.245 222.086 203.919 222.209 204.55 222.455C205.191 222.701 205.752 223.07 206.233 223.562C206.715 224.043 207.094 224.647 207.372 225.374C207.661 226.101 207.805 226.94 207.805 227.892C207.805 228.843 207.661 229.682 207.372 230.409C207.094 231.136 206.715 231.746 206.233 232.237C205.752 232.719 205.191 233.082 204.55 233.328C203.919 233.574 203.245 233.697 202.529 233.697C201.802 233.697 201.113 233.574 200.46 233.328C199.819 233.082 199.252 232.719 198.76 232.237C198.279 231.746 197.895 231.136 197.606 230.409C197.328 229.682 197.189 228.843 197.189 227.892ZM198.825 227.892C198.825 228.565 198.91 229.18 199.081 229.736C199.252 230.281 199.493 230.746 199.803 231.131C200.124 231.516 200.508 231.815 200.957 232.029C201.417 232.232 201.93 232.334 202.497 232.334C203.064 232.334 203.571 232.232 204.02 232.029C204.469 231.815 204.849 231.516 205.159 231.131C205.48 230.746 205.726 230.281 205.897 229.736C206.068 229.18 206.153 228.565 206.153 227.892C206.153 227.218 206.068 226.609 205.897 226.063C205.726 225.507 205.48 225.037 205.159 224.652C204.849 224.267 204.469 223.973 204.02 223.77C203.571 223.556 203.064 223.449 202.497 223.449C201.93 223.449 201.417 223.556 200.957 223.77C200.508 223.973 200.124 224.267 199.803 224.652C199.493 225.037 199.252 225.507 199.081 226.063C198.91 226.609 198.825 227.218 198.825 227.892Z" fill="white"/>
<path d="M217.56 232.125C217.87 232.617 218.143 233.061 218.378 233.456H219.677V222.343H218.154V230.57C217.812 230.003 217.389 229.356 216.887 228.629C216.395 227.902 215.866 227.165 215.299 226.416C214.743 225.657 214.177 224.925 213.599 224.219C213.033 223.503 212.498 222.878 211.996 222.343H210.761V233.456H212.284V224.781C212.584 225.123 212.91 225.518 213.263 225.967C213.615 226.416 213.979 226.897 214.353 227.41C214.727 227.913 215.101 228.437 215.476 228.982C215.861 229.527 216.229 230.067 216.582 230.602C216.935 231.126 217.261 231.633 217.56 232.125Z" fill="white"/>
</svg>
