<svg viewBox="0 0 348 348" fill="none" xmlns="http://www.w3.org/2000/svg">
<path fill-rule="evenodd" clip-rule="evenodd" d="M174 33L302 103.226V244.774L174 315L46 244.774V103.226L174 33ZM290.004 110.355L174 46.7102L57.9956 110.355V140.925H290.004V110.355ZM57.9956 237.645V207.075H290.004V237.645L174 301.29L57.9956 237.645ZM140.543 154.276H146.94V194.367H140.543V154.276ZM169.332 181.578C169.332 187.714 164.187 188.203 162.656 188.203C158.832 188.203 158.136 184.614 158.136 182.449V167.105H151.738V182.417C151.738 186.217 152.928 189.354 155.014 191.445C156.857 193.295 159.617 194.305 162.608 194.305C164.729 194.305 167.733 193.642 169.332 192.178V194.367H175.73V167.105H169.332V181.578ZM182.127 157.483H188.525V167.105H193.323V173.52H188.525V194.367H182.127V173.52H177.329V167.105H182.127V157.483ZM213.471 186.216C212.078 187.471 210.238 188.168 208.22 188.168C203.77 188.168 200.503 184.891 200.503 180.393C200.503 175.895 203.667 172.756 208.22 172.756C210.203 172.756 212.078 173.419 213.506 174.674L214.477 175.511L218.791 171.188L217.711 170.211C215.173 167.913 211.803 166.624 208.218 166.624C200.221 166.624 194.414 172.41 194.414 180.359C194.414 188.275 200.36 194.268 208.218 194.268C211.87 194.268 215.275 192.979 217.781 190.643L218.824 189.667L214.444 185.347L213.471 186.216ZM234.632 166.624C237.623 166.624 239.783 167.635 241.625 169.482C243.712 171.575 244.504 174.711 244.504 178.512V194.367H238.107V178.309C238.109 176.134 238.113 172.726 234.388 172.726C232.857 172.726 228.51 173.214 228.51 179.349V194.367H222.113V154.276H228.51V168.749C230.11 167.287 232.512 166.624 234.632 166.624ZM208.009 175.826C209.235 175.826 210.412 176.314 211.279 177.184C212.147 178.054 212.634 179.234 212.634 180.464C212.634 181.693 212.147 182.873 211.279 183.743C210.412 184.613 209.235 185.101 208.009 185.101C206.782 185.101 205.605 184.613 204.738 183.743C203.87 182.873 203.383 181.693 203.383 180.464C203.383 179.234 203.87 178.054 204.738 177.184C205.605 176.314 206.782 175.826 208.009 175.826ZM131.586 184.298C129.153 186.808 125.849 188.168 122.372 188.168C115.245 188.168 110.063 182.555 110.063 174.851C110.063 167.111 115.245 161.499 122.372 161.499C125.815 161.499 129.083 162.857 131.552 165.333L132.525 166.31L136.802 162.021L135.863 161.045C132.317 157.384 127.519 155.398 122.372 155.398C111.872 155.398 103.979 163.765 103.979 174.884C103.979 185.97 111.907 194.303 122.372 194.303C127.554 194.303 132.352 192.282 135.898 188.621L136.837 187.644L132.595 183.288L131.586 184.298Z" fill="white"/>
<path d="M144.738 86.7223C144.178 88.513 143.612 90.1701 143.039 91.6936C142.466 93.2171 141.892 94.7004 141.319 96.1437H139.38C138.674 94.0991 138.047 91.9408 137.501 89.669C136.968 87.3971 136.468 84.9248 136.001 82.2521H138.041C138.227 83.2945 138.42 84.3368 138.62 85.3792C138.82 86.4216 139.027 87.4372 139.24 88.4261C139.453 89.4017 139.667 90.3372 139.88 91.2325C140.093 92.1279 140.313 92.9565 140.54 93.7182C141.073 92.315 141.639 90.7782 142.239 89.1077C142.839 87.4239 143.399 85.6866 143.918 83.8958H145.598C146.118 85.6866 146.684 87.4239 147.297 89.1077C147.91 90.7782 148.483 92.315 149.016 93.7182C149.23 92.9698 149.443 92.148 149.656 91.2526C149.87 90.3572 150.076 89.4217 150.276 88.4462C150.489 87.4573 150.696 86.4416 150.896 85.3993C151.096 84.3435 151.289 83.2945 151.476 82.2521H153.455C152.975 84.9248 152.462 87.3971 151.915 89.669C151.382 91.9408 150.769 94.0991 150.076 96.1437H148.137C147.55 94.7004 146.977 93.2171 146.417 91.6936C145.858 90.1701 145.298 88.513 144.738 86.7223Z" fill="white"/>
<path d="M155.728 82.2521H157.668V96.1437H155.728V82.2521Z" fill="white"/>
<path d="M170.594 96.1437C170.301 95.6493 169.961 95.0947 169.574 94.4799C169.201 93.8652 168.794 93.2304 168.355 92.5756C167.915 91.9074 167.455 91.2325 166.975 90.551C166.509 89.8694 166.042 89.2146 165.576 88.5865C165.109 87.9451 164.656 87.3437 164.216 86.7824C163.776 86.2211 163.37 85.7267 162.997 85.299V96.1437H161.097V82.2521H162.637C163.263 82.9203 163.93 83.7021 164.636 84.5974C165.356 85.4794 166.062 86.3949 166.755 87.3437C167.462 88.2791 168.121 89.2012 168.735 90.11C169.361 91.0187 169.887 91.8272 170.314 92.5355V82.2521H172.213V96.1437H170.594Z" fill="white"/>
<path d="M185.139 96.1437C184.846 95.6493 184.506 95.0947 184.12 94.4799C183.746 93.8652 183.34 93.2304 182.9 92.5756C182.46 91.9074 182 91.2325 181.521 90.551C181.054 89.8694 180.588 89.2146 180.121 88.5865C179.655 87.9451 179.201 87.3437 178.762 86.7824C178.322 86.2211 177.915 85.7267 177.542 85.299V96.1437H175.643V82.2521H177.182C177.809 82.9203 178.475 83.7021 179.181 84.5974C179.901 85.4794 180.608 86.3949 181.301 87.3437C182.007 88.2791 182.667 89.2012 183.28 90.11C183.906 91.0187 184.433 91.8272 184.859 92.5355V82.2521H186.759V96.1437H185.139Z" fill="white"/>
<path d="M190.188 96.1437V82.2521H198.645V83.9159H192.127V88.0453H197.925V89.669H192.127V94.4799H199.145V96.1437H190.188Z" fill="white"/>
<path d="M208.387 90.3305C208.6 90.5978 208.867 90.9519 209.187 91.3929C209.52 91.8205 209.86 92.3016 210.207 92.8362C210.553 93.3574 210.893 93.9053 211.226 94.4799C211.573 95.0546 211.866 95.6092 212.106 96.1437H209.987C209.72 95.6359 209.427 95.1214 209.107 94.6002C208.8 94.079 208.487 93.5846 208.167 93.1168C207.847 92.6357 207.527 92.188 207.208 91.7738C206.901 91.3595 206.621 90.9987 206.368 90.6913C206.195 90.7047 206.015 90.7113 205.828 90.7113C205.655 90.7113 205.475 90.7113 205.288 90.7113H203.549V96.1437H201.61V82.4526C202.156 82.3189 202.763 82.2321 203.429 82.192C204.109 82.1385 204.729 82.1118 205.288 82.1118C207.234 82.1118 208.714 82.4793 209.727 83.2143C210.753 83.9493 211.266 85.0451 211.266 86.5018C211.266 87.4239 211.02 88.2123 210.526 88.8672C210.047 89.522 209.333 90.0098 208.387 90.3305ZM205.448 83.8157C204.622 83.8157 203.989 83.8357 203.549 83.8758V89.1077H204.928C205.595 89.1077 206.195 89.0743 206.728 89.0075C207.261 88.9407 207.707 88.8137 208.067 88.6266C208.44 88.4395 208.727 88.1789 208.927 87.8448C209.127 87.4974 209.227 87.043 209.227 86.4817C209.227 85.9605 209.127 85.5262 208.927 85.1788C208.727 84.8313 208.454 84.5573 208.107 84.3569C207.774 84.1564 207.374 84.0161 206.908 83.9359C206.455 83.8557 205.968 83.8157 205.448 83.8157Z" fill="white"/>
<path d="M74.4727 123.066C76.1441 123.066 76.9798 122.493 76.9798 121.347C76.9798 120.994 76.9028 120.696 76.7488 120.454C76.6059 120.2 76.408 119.985 76.1551 119.809C75.9022 119.621 75.6108 119.461 75.2809 119.329C74.962 119.197 74.6211 119.064 74.2583 118.932C73.8404 118.789 73.4446 118.629 73.0707 118.452C72.6968 118.265 72.3725 118.05 72.0976 117.808C71.8227 117.554 71.6027 117.256 71.4378 116.914C71.2839 116.573 71.2069 116.159 71.2069 115.674C71.2069 114.671 71.5478 113.888 72.2295 113.326C72.9113 112.764 73.8514 112.482 75.05 112.482C75.7427 112.482 76.3695 112.56 76.9303 112.714C77.5021 112.857 77.9199 113.017 78.1838 113.194L77.6725 114.5C77.4416 114.357 77.0952 114.219 76.6334 114.087C76.1825 113.943 75.6547 113.872 75.05 113.872C74.7421 113.872 74.4562 113.905 74.1923 113.971C73.9284 114.037 73.6975 114.136 73.4995 114.268C73.3016 114.401 73.1422 114.572 73.0212 114.781C72.9113 114.98 72.8563 115.217 72.8563 115.492C72.8563 115.801 72.9168 116.06 73.0377 116.27C73.1587 116.479 73.3291 116.666 73.549 116.832C73.7689 116.986 74.0218 117.129 74.3077 117.262C74.6046 117.394 74.929 117.526 75.2809 117.659C75.7757 117.857 76.2265 118.056 76.6334 118.254C77.0512 118.452 77.4086 118.69 77.7055 118.965C78.0134 119.241 78.2498 119.572 78.4147 119.957C78.5797 120.332 78.6621 120.79 78.6621 121.33C78.6621 122.333 78.2938 123.105 77.557 123.645C76.8313 124.186 75.8032 124.456 74.4727 124.456C74.0218 124.456 73.604 124.423 73.2191 124.356C72.8453 124.301 72.5099 124.235 72.213 124.158C71.9161 124.07 71.6577 123.982 71.4378 123.893C71.2289 123.794 71.0639 123.711 70.943 123.645L71.4213 122.322C71.6742 122.466 72.0591 122.625 72.5759 122.802C73.0927 122.978 73.725 123.066 74.4727 123.066Z" fill="white"/>
<path d="M80.1338 118.469C80.1338 117.488 80.2768 116.622 80.5627 115.873C80.8596 115.123 81.2554 114.5 81.7502 114.004C82.256 113.497 82.8388 113.116 83.4986 112.863C84.1693 112.609 84.8786 112.482 85.6263 112.482C86.363 112.482 87.0558 112.609 87.7045 112.863C88.3643 113.116 88.9416 113.497 89.4364 114.004C89.9312 114.5 90.3216 115.123 90.6074 115.873C90.9043 116.622 91.0528 117.488 91.0528 118.469C91.0528 119.45 90.9043 120.316 90.6074 121.065C90.3216 121.815 89.9312 122.444 89.4364 122.951C88.9416 123.447 88.3643 123.822 87.7045 124.075C87.0558 124.329 86.363 124.456 85.6263 124.456C84.8786 124.456 84.1693 124.329 83.4986 124.075C82.8388 123.822 82.256 123.447 81.7502 122.951C81.2554 122.444 80.8596 121.815 80.5627 121.065C80.2768 120.316 80.1338 119.45 80.1338 118.469ZM81.8162 118.469C81.8162 119.164 81.9042 119.798 82.0801 120.371C82.256 120.933 82.5034 121.413 82.8223 121.81C83.1522 122.207 83.5481 122.515 84.0099 122.736C84.4827 122.945 85.0105 123.05 85.5933 123.05C86.1761 123.05 86.6984 122.945 87.1602 122.736C87.6221 122.515 88.0124 122.207 88.3313 121.81C88.6612 121.413 88.9141 120.933 89.09 120.371C89.2659 119.798 89.3539 119.164 89.3539 118.469C89.3539 117.774 89.2659 117.146 89.09 116.584C88.9141 116.01 88.6612 115.525 88.3313 115.128C88.0124 114.732 87.6221 114.428 87.1602 114.219C86.6984 113.998 86.1761 113.888 85.5933 113.888C85.0105 113.888 84.4827 113.998 84.0099 114.219C83.5481 114.428 83.1522 114.732 82.8223 115.128C82.5034 115.525 82.256 116.01 82.0801 116.584C81.9042 117.146 81.8162 117.774 81.8162 118.469Z" fill="white"/>
<path d="M93.4332 124.208V112.747H100.328V114.12H95.0331V117.576H99.7339V118.932H95.0331V124.208H93.4332Z" fill="white"/>
<path d="M110.154 112.747V114.136H106.559V124.208H104.959V114.136H101.363V112.747H110.154Z" fill="white"/>
<path d="M118.369 116.435C117.907 117.912 117.44 119.279 116.967 120.536C116.494 121.793 116.021 123.017 115.548 124.208H113.949C113.366 122.521 112.849 120.74 112.398 118.866C111.958 116.992 111.546 114.952 111.161 112.747H112.843C112.997 113.607 113.157 114.467 113.322 115.327C113.487 116.187 113.657 117.025 113.833 117.841C114.009 118.645 114.185 119.417 114.361 120.156C114.537 120.895 114.718 121.578 114.905 122.207C115.345 121.049 115.812 119.781 116.307 118.403C116.802 117.014 117.264 115.58 117.693 114.103H119.078C119.507 115.58 119.974 117.014 120.48 118.403C120.986 119.781 121.459 121.049 121.899 122.207C122.074 121.589 122.25 120.911 122.426 120.172C122.602 119.434 122.773 118.662 122.938 117.857C123.114 117.041 123.284 116.203 123.449 115.343C123.614 114.472 123.773 113.607 123.927 112.747H125.56C125.164 114.952 124.741 116.992 124.29 118.866C123.85 120.74 123.345 122.521 122.773 124.208H121.173C120.689 123.017 120.216 121.793 119.754 120.536C119.293 119.279 118.831 117.912 118.369 116.435Z" fill="white"/>
<path d="M134.782 124.208C134.596 123.711 134.42 123.226 134.255 122.752C134.09 122.267 133.919 121.777 133.743 121.28H128.564L127.525 124.208H125.859C126.299 122.995 126.711 121.876 127.096 120.85C127.481 119.814 127.855 118.833 128.218 117.907C128.592 116.981 128.96 116.099 129.323 115.261C129.686 114.412 130.065 113.574 130.461 112.747H131.929C132.325 113.574 132.704 114.412 133.067 115.261C133.43 116.099 133.793 116.981 134.156 117.907C134.53 118.833 134.909 119.814 135.294 120.85C135.679 121.876 136.091 122.995 136.531 124.208H134.782ZM133.282 119.957C132.93 118.998 132.578 118.072 132.226 117.179C131.885 116.275 131.528 115.41 131.154 114.583C130.769 115.41 130.401 116.275 130.049 117.179C129.708 118.072 129.367 118.998 129.026 119.957H133.282Z" fill="white"/>
<path d="M143.674 119.412C143.85 119.632 144.07 119.924 144.334 120.288C144.609 120.641 144.889 121.038 145.175 121.479C145.461 121.909 145.741 122.361 146.016 122.835C146.302 123.309 146.544 123.767 146.742 124.208H144.994C144.774 123.789 144.532 123.364 144.268 122.934C144.015 122.504 143.757 122.096 143.493 121.71C143.229 121.313 142.965 120.944 142.701 120.602C142.448 120.261 142.217 119.963 142.008 119.709C141.865 119.72 141.717 119.726 141.563 119.726C141.42 119.726 141.271 119.726 141.118 119.726H139.683V124.208H138.083V112.912C138.534 112.802 139.034 112.73 139.584 112.697C140.144 112.653 140.656 112.631 141.118 112.631C142.723 112.631 143.944 112.934 144.779 113.541C145.626 114.147 146.049 115.051 146.049 116.253C146.049 117.014 145.846 117.664 145.439 118.204C145.043 118.745 144.455 119.147 143.674 119.412ZM141.25 114.037C140.568 114.037 140.045 114.053 139.683 114.087V118.403H140.821C141.37 118.403 141.865 118.375 142.305 118.32C142.745 118.265 143.113 118.16 143.41 118.006C143.718 117.852 143.955 117.637 144.119 117.361C144.284 117.074 144.367 116.699 144.367 116.236C144.367 115.806 144.284 115.448 144.119 115.161C143.955 114.875 143.729 114.649 143.443 114.483C143.168 114.318 142.838 114.202 142.454 114.136C142.08 114.07 141.678 114.037 141.25 114.037Z" fill="white"/>
<path d="M148.456 124.208V112.747H155.433V114.12H150.056V117.526H154.839V118.866H150.056V122.835H155.845V124.208H148.456Z" fill="white"/>
<path d="M171.081 118.469C171.081 119.461 170.927 120.327 170.619 121.065C170.311 121.793 169.877 122.399 169.316 122.885C168.755 123.359 168.085 123.717 167.304 123.96C166.523 124.191 165.666 124.307 164.731 124.307C164.269 124.307 163.758 124.285 163.197 124.241C162.647 124.208 162.147 124.136 161.696 124.026V112.912C162.147 112.802 162.647 112.73 163.197 112.697C163.758 112.653 164.269 112.631 164.731 112.631C165.666 112.631 166.523 112.753 167.304 112.995C168.085 113.227 168.755 113.585 169.316 114.07C169.877 114.544 170.311 115.15 170.619 115.889C170.927 116.617 171.081 117.477 171.081 118.469ZM164.863 122.901C166.38 122.901 167.513 122.515 168.261 121.743C169.008 120.961 169.382 119.869 169.382 118.469C169.382 117.069 169.008 115.983 168.261 115.211C167.513 114.428 166.38 114.037 164.863 114.037C164.412 114.037 164.06 114.042 163.807 114.053C163.565 114.065 163.395 114.076 163.296 114.087V122.852C163.395 122.863 163.565 122.874 163.807 122.885C164.06 122.896 164.412 122.901 164.863 122.901Z" fill="white"/>
<path d="M173.454 124.208V112.747H180.431V114.12H175.054V117.526H179.837V118.866H175.054V122.835H180.844V124.208H173.454Z" fill="white"/>
<path d="M192.114 112.747C191.696 113.96 191.295 115.084 190.91 116.121C190.536 117.146 190.167 118.122 189.805 119.048C189.442 119.974 189.079 120.861 188.716 121.71C188.364 122.548 188.001 123.381 187.627 124.208H186.126C185.753 123.381 185.384 122.548 185.021 121.71C184.669 120.861 184.307 119.974 183.933 119.048C183.57 118.122 183.196 117.146 182.811 116.121C182.426 115.084 182.03 113.96 181.624 112.747H183.388C183.982 114.489 184.565 116.165 185.137 117.774C185.709 119.384 186.297 120.895 186.902 122.306C187.506 120.906 188.095 119.401 188.666 117.791C189.238 116.17 189.816 114.489 190.398 112.747H192.114Z" fill="white"/>
<path d="M193.701 124.208V112.747H200.678V114.12H195.301V117.526H200.084V118.866H195.301V122.835H201.091V124.208H193.701Z" fill="white"/>
<path d="M210.002 122.818V124.208H203.124V112.747H204.724V122.818H210.002Z" fill="white"/>
<path d="M210.474 118.469C210.474 117.488 210.617 116.622 210.903 115.873C211.2 115.123 211.596 114.5 212.091 114.004C212.596 113.497 213.179 113.116 213.839 112.863C214.51 112.609 215.219 112.482 215.967 112.482C216.703 112.482 217.396 112.609 218.045 112.863C218.705 113.116 219.282 113.497 219.777 114.004C220.272 114.5 220.662 115.123 220.948 115.873C221.245 116.622 221.393 117.488 221.393 118.469C221.393 119.45 221.245 120.316 220.948 121.065C220.662 121.815 220.272 122.444 219.777 122.951C219.282 123.447 218.705 123.822 218.045 124.075C217.396 124.329 216.703 124.456 215.967 124.456C215.219 124.456 214.51 124.329 213.839 124.075C213.179 123.822 212.596 123.447 212.091 122.951C211.596 122.444 211.2 121.815 210.903 121.065C210.617 120.316 210.474 119.45 210.474 118.469ZM212.157 118.469C212.157 119.164 212.245 119.798 212.421 120.371C212.596 120.933 212.844 121.413 213.163 121.81C213.493 122.207 213.889 122.515 214.35 122.736C214.823 122.945 215.351 123.05 215.934 123.05C216.517 123.05 217.039 122.945 217.501 122.736C217.962 122.515 218.353 122.207 218.672 121.81C219.002 121.413 219.255 120.933 219.43 120.371C219.606 119.798 219.694 119.164 219.694 118.469C219.694 117.774 219.606 117.146 219.43 116.584C219.255 116.01 219.002 115.525 218.672 115.128C218.353 114.732 217.962 114.428 217.501 114.219C217.039 113.998 216.517 113.888 215.934 113.888C215.351 113.888 214.823 113.998 214.35 114.219C213.889 114.428 213.493 114.732 213.163 115.128C212.844 115.525 212.596 116.01 212.421 116.584C212.245 117.146 212.157 117.774 212.157 118.469Z" fill="white"/>
<path d="M226.809 112.631C228.414 112.631 229.645 112.94 230.503 113.557C231.372 114.164 231.806 115.073 231.806 116.286C231.806 116.948 231.685 117.515 231.443 117.989C231.212 118.452 230.871 118.833 230.421 119.131C229.981 119.417 229.442 119.627 228.804 119.759C228.167 119.891 227.446 119.957 226.644 119.957H225.374V124.208H223.774V112.912C224.224 112.802 224.725 112.73 225.275 112.697C225.835 112.653 226.347 112.631 226.809 112.631ZM226.94 114.037C226.259 114.037 225.736 114.053 225.374 114.087V118.585H226.578C227.127 118.585 227.622 118.552 228.062 118.486C228.502 118.408 228.87 118.287 229.167 118.122C229.475 117.945 229.711 117.708 229.876 117.411C230.041 117.113 230.124 116.733 230.124 116.27C230.124 115.829 230.036 115.465 229.86 115.178C229.695 114.891 229.464 114.665 229.167 114.5C228.881 114.324 228.546 114.202 228.161 114.136C227.776 114.07 227.369 114.037 226.94 114.037Z" fill="white"/>
<path d="M238.938 122.62C238.828 122.355 238.68 122.019 238.493 121.611C238.317 121.203 238.124 120.762 237.915 120.288C237.707 119.814 237.481 119.329 237.239 118.833C237.008 118.326 236.788 117.852 236.579 117.411C236.371 116.959 236.173 116.556 235.986 116.203C235.81 115.851 235.667 115.58 235.557 115.393C235.436 116.694 235.337 118.105 235.26 119.627C235.183 121.137 235.117 122.664 235.062 124.208H233.495C233.539 123.215 233.589 122.218 233.644 121.214C233.699 120.2 233.759 119.208 233.825 118.238C233.902 117.256 233.979 116.303 234.056 115.376C234.144 114.45 234.237 113.574 234.336 112.747H235.738C236.035 113.232 236.354 113.805 236.695 114.467C237.036 115.128 237.377 115.823 237.718 116.551C238.058 117.267 238.388 117.989 238.707 118.717C239.026 119.434 239.317 120.09 239.581 120.685C239.845 120.09 240.137 119.434 240.456 118.717C240.774 117.989 241.104 117.267 241.445 116.551C241.786 115.823 242.127 115.128 242.468 114.467C242.809 113.805 243.128 113.232 243.424 112.747H244.826C245.2 116.44 245.481 120.261 245.668 124.208H244.101C244.046 122.664 243.98 121.137 243.903 119.627C243.826 118.105 243.727 116.694 243.606 115.393C243.496 115.58 243.347 115.851 243.161 116.203C242.985 116.556 242.792 116.959 242.583 117.411C242.374 117.852 242.149 118.326 241.907 118.833C241.676 119.329 241.456 119.814 241.247 120.288C241.038 120.762 240.84 121.203 240.653 121.611C240.478 122.019 240.335 122.355 240.225 122.62H238.938Z" fill="white"/>
<path d="M248.176 124.208V112.747H255.153V114.12H249.776V117.526H254.559V118.866H249.776V122.835H255.565V124.208H248.176Z" fill="white"/>
<path d="M265.434 124.208C265.192 123.8 264.911 123.342 264.592 122.835C264.285 122.328 263.949 121.804 263.586 121.264C263.223 120.713 262.844 120.156 262.448 119.594C262.063 119.031 261.678 118.491 261.294 117.973C260.909 117.444 260.535 116.948 260.172 116.485C259.809 116.021 259.474 115.614 259.166 115.261V124.208H257.599V112.747H258.869C259.386 113.298 259.936 113.943 260.518 114.682C261.112 115.41 261.695 116.165 262.267 116.948C262.85 117.719 263.394 118.48 263.9 119.23C264.416 119.979 264.851 120.646 265.203 121.231V112.747H266.77V124.208H265.434Z" fill="white"/>
<path d="M277.236 112.747V114.136H273.64V124.208H272.04V114.136H268.444V112.747H277.236Z" fill="white"/>
<path d="M160.719 257.19C160.719 257.671 160.619 258.139 160.42 258.593C160.233 259.034 159.98 259.475 159.66 259.916C159.34 260.344 158.98 260.772 158.58 261.199C158.18 261.614 157.781 262.021 157.381 262.422C157.154 262.649 156.888 262.917 156.581 263.224C156.288 263.531 156.008 263.852 155.741 264.186C155.475 264.52 155.248 264.841 155.062 265.148C154.888 265.456 154.802 265.723 154.802 265.95H161.179V267.534H152.782C152.769 267.454 152.762 267.373 152.762 267.293C152.762 267.213 152.762 267.14 152.762 267.073C152.762 266.445 152.862 265.863 153.062 265.329C153.276 264.781 153.549 264.266 153.882 263.785C154.215 263.304 154.588 262.85 155.002 262.422C155.415 261.995 155.821 261.58 156.221 261.179C156.554 260.859 156.868 260.545 157.161 260.237C157.467 259.916 157.734 259.602 157.96 259.295C158.2 258.974 158.387 258.647 158.52 258.313C158.667 257.979 158.74 257.625 158.74 257.25C158.74 256.849 158.674 256.509 158.54 256.228C158.42 255.947 158.254 255.714 158.04 255.526C157.827 255.339 157.574 255.206 157.281 255.126C157.001 255.032 156.701 254.985 156.381 254.985C155.995 254.985 155.641 255.039 155.321 255.146C155.002 255.253 154.715 255.379 154.462 255.526C154.209 255.66 153.995 255.807 153.822 255.967C153.649 256.114 153.515 256.228 153.422 256.308L152.502 254.985C152.622 254.852 152.802 254.691 153.042 254.504C153.282 254.304 153.569 254.117 153.902 253.943C154.235 253.769 154.608 253.622 155.022 253.502C155.435 253.382 155.881 253.321 156.361 253.321C157.814 253.321 158.9 253.662 159.62 254.344C160.353 255.012 160.719 255.961 160.719 257.19Z" fill="white"/>
<path d="M163.667 260.578C163.667 258.253 164.074 256.462 164.887 255.206C165.713 253.95 166.853 253.321 168.306 253.321C169.758 253.321 170.891 253.95 171.704 255.206C172.531 256.462 172.944 258.253 172.944 260.578C172.944 262.903 172.531 264.694 171.704 265.95C170.891 267.206 169.758 267.834 168.306 267.834C166.853 267.834 165.713 267.206 164.887 265.95C164.074 264.694 163.667 262.903 163.667 260.578ZM170.985 260.578C170.985 259.816 170.938 259.095 170.845 258.413C170.765 257.731 170.618 257.137 170.405 256.629C170.205 256.121 169.932 255.72 169.585 255.426C169.239 255.119 168.812 254.965 168.306 254.965C167.799 254.965 167.373 255.119 167.026 255.426C166.68 255.72 166.4 256.121 166.186 256.629C165.987 257.137 165.84 257.731 165.747 258.413C165.667 259.095 165.627 259.816 165.627 260.578C165.627 261.34 165.667 262.061 165.747 262.743C165.84 263.424 165.987 264.019 166.186 264.527C166.4 265.035 166.68 265.442 167.026 265.75C167.373 266.044 167.799 266.191 168.306 266.191C168.812 266.191 169.239 266.044 169.585 265.75C169.932 265.442 170.205 265.035 170.405 264.527C170.618 264.019 170.765 263.424 170.845 262.743C170.938 262.061 170.985 261.34 170.985 260.578Z" fill="white"/>
<path d="M183.289 257.19C183.289 257.671 183.189 258.139 182.989 258.593C182.803 259.034 182.549 259.475 182.23 259.916C181.91 260.344 181.55 260.772 181.15 261.199C180.75 261.614 180.35 262.021 179.95 262.422C179.724 262.649 179.457 262.917 179.151 263.224C178.857 263.531 178.578 263.852 178.311 264.186C178.044 264.52 177.818 264.841 177.631 265.148C177.458 265.456 177.371 265.723 177.371 265.95H183.749V267.534H175.352C175.339 267.454 175.332 267.373 175.332 267.293C175.332 267.213 175.332 267.14 175.332 267.073C175.332 266.445 175.432 265.863 175.632 265.329C175.845 264.781 176.119 264.266 176.452 263.785C176.785 263.304 177.158 262.85 177.571 262.422C177.984 261.995 178.391 261.58 178.791 261.179C179.124 260.859 179.437 260.545 179.731 260.237C180.037 259.916 180.304 259.602 180.53 259.295C180.77 258.974 180.957 258.647 181.09 258.313C181.237 257.979 181.31 257.625 181.31 257.25C181.31 256.849 181.243 256.509 181.11 256.228C180.99 255.947 180.823 255.714 180.61 255.526C180.397 255.339 180.144 255.206 179.85 255.126C179.571 255.032 179.271 254.985 178.951 254.985C178.564 254.985 178.211 255.039 177.891 255.146C177.571 255.253 177.285 255.379 177.032 255.526C176.778 255.66 176.565 255.807 176.392 255.967C176.218 256.114 176.085 256.228 175.992 256.308L175.072 254.985C175.192 254.852 175.372 254.691 175.612 254.504C175.852 254.304 176.139 254.117 176.472 253.943C176.805 253.769 177.178 253.622 177.591 253.502C178.004 253.382 178.451 253.321 178.931 253.321C180.384 253.321 181.47 253.662 182.19 254.344C182.923 255.012 183.289 255.961 183.289 257.19Z" fill="white"/>
<path d="M189.216 258.994C191.229 259.075 192.701 259.516 193.634 260.317C194.581 261.119 195.054 262.208 195.054 263.585C195.054 264.2 194.947 264.768 194.734 265.289C194.534 265.81 194.221 266.258 193.794 266.632C193.381 267.006 192.855 267.3 192.215 267.514C191.575 267.728 190.815 267.834 189.936 267.834C189.589 267.834 189.236 267.808 188.876 267.754C188.516 267.701 188.183 267.634 187.877 267.554C187.57 267.474 187.297 267.393 187.057 267.313C186.817 267.233 186.644 267.166 186.537 267.113L186.897 265.489C187.124 265.596 187.49 265.736 187.997 265.91C188.516 266.084 189.149 266.171 189.896 266.171C190.496 266.171 190.995 266.104 191.395 265.97C191.808 265.837 192.142 265.656 192.395 265.429C192.648 265.202 192.828 264.941 192.935 264.647C193.055 264.34 193.115 264.019 193.115 263.685C193.115 263.177 193.028 262.73 192.855 262.342C192.681 261.941 192.375 261.607 191.935 261.34C191.495 261.072 190.909 260.872 190.176 260.738C189.443 260.591 188.516 260.518 187.397 260.518C187.477 259.863 187.537 259.248 187.577 258.674C187.63 258.099 187.677 257.538 187.717 256.99C187.757 256.442 187.79 255.901 187.817 255.366C187.843 254.818 187.87 254.244 187.897 253.642H194.574V255.226H189.516C189.503 255.426 189.483 255.7 189.456 256.048C189.429 256.382 189.403 256.736 189.376 257.11C189.349 257.471 189.323 257.825 189.296 258.173C189.269 258.52 189.243 258.794 189.216 258.994Z" fill="white"/>
<path d="M147.162 233.637H149.101V240.131C148.941 240.185 148.708 240.245 148.402 240.312C148.108 240.379 147.762 240.445 147.362 240.512C146.976 240.579 146.549 240.633 146.082 240.673C145.616 240.726 145.143 240.753 144.663 240.753C143.69 240.753 142.804 240.592 142.004 240.272C141.204 239.951 140.518 239.483 139.945 238.869C139.372 238.254 138.925 237.499 138.605 236.603C138.299 235.708 138.145 234.679 138.145 233.516C138.145 232.354 138.319 231.325 138.665 230.429C139.025 229.521 139.505 228.759 140.105 228.144C140.704 227.529 141.404 227.062 142.204 226.741C143.017 226.42 143.883 226.26 144.803 226.26C145.429 226.26 145.983 226.3 146.462 226.38C146.956 226.46 147.375 226.554 147.722 226.661C148.068 226.768 148.348 226.875 148.562 226.981C148.788 227.088 148.941 227.169 149.021 227.222L148.402 228.846C148.015 228.592 147.502 228.385 146.862 228.224C146.222 228.051 145.569 227.964 144.903 227.964C144.197 227.964 143.55 228.091 142.964 228.345C142.391 228.599 141.897 228.966 141.484 229.447C141.084 229.928 140.771 230.516 140.545 231.211C140.318 231.893 140.205 232.661 140.205 233.516C140.205 234.345 140.298 235.1 140.485 235.782C140.684 236.463 140.978 237.051 141.364 237.546C141.764 238.027 142.251 238.401 142.824 238.668C143.41 238.935 144.097 239.069 144.883 239.069C145.443 239.069 145.916 239.042 146.302 238.989C146.702 238.922 146.989 238.862 147.162 238.808V233.637Z" fill="white"/>
<path d="M160.475 238.788V240.472H152.138V226.581H154.077V238.788H160.475Z" fill="white"/>
<path d="M161.047 233.516C161.047 232.327 161.22 231.278 161.567 230.369C161.927 229.46 162.407 228.705 163.006 228.104C163.619 227.489 164.326 227.028 165.126 226.721C165.939 226.414 166.798 226.26 167.705 226.26C168.598 226.26 169.437 226.414 170.224 226.721C171.023 227.028 171.723 227.489 172.323 228.104C172.923 228.705 173.396 229.46 173.742 230.369C174.102 231.278 174.282 232.327 174.282 233.516C174.282 234.706 174.102 235.755 173.742 236.664C173.396 237.572 172.923 238.334 172.323 238.949C171.723 239.55 171.023 240.004 170.224 240.312C169.437 240.619 168.598 240.773 167.705 240.773C166.798 240.773 165.939 240.619 165.126 240.312C164.326 240.004 163.619 239.55 163.006 238.949C162.407 238.334 161.927 237.572 161.567 236.664C161.22 235.755 161.047 234.706 161.047 233.516ZM163.086 233.516C163.086 234.358 163.193 235.127 163.406 235.822C163.619 236.503 163.919 237.085 164.306 237.566C164.706 238.047 165.186 238.421 165.745 238.688C166.318 238.942 166.958 239.069 167.665 239.069C168.371 239.069 169.004 238.942 169.564 238.688C170.124 238.421 170.597 238.047 170.983 237.566C171.383 237.085 171.69 236.503 171.903 235.822C172.116 235.127 172.223 234.358 172.223 233.516C172.223 232.674 172.116 231.913 171.903 231.231C171.69 230.536 171.383 229.948 170.983 229.467C170.597 228.986 170.124 228.619 169.564 228.365C169.004 228.097 168.371 227.964 167.665 227.964C166.958 227.964 166.318 228.097 165.745 228.365C165.186 228.619 164.706 228.986 164.306 229.467C163.919 229.948 163.619 230.536 163.406 231.231C163.193 231.913 163.086 232.674 163.086 233.516Z" fill="white"/>
<path d="M180.906 240.592C180.626 240.592 180.32 240.586 179.987 240.572C179.667 240.559 179.34 240.539 179.007 240.512C178.687 240.486 178.367 240.452 178.047 240.412C177.727 240.372 177.434 240.319 177.168 240.252V226.781C177.434 226.714 177.727 226.661 178.047 226.621C178.367 226.581 178.687 226.547 179.007 226.52C179.34 226.494 179.667 226.474 179.987 226.46C180.306 226.447 180.606 226.44 180.886 226.44C181.686 226.44 182.432 226.5 183.125 226.621C183.832 226.741 184.438 226.948 184.945 227.242C185.464 227.523 185.871 227.897 186.164 228.365C186.457 228.832 186.604 229.407 186.604 230.089C186.604 230.85 186.424 231.478 186.064 231.973C185.704 232.454 185.225 232.815 184.625 233.055C185.438 233.296 186.084 233.677 186.564 234.198C187.044 234.719 187.284 235.454 187.284 236.403C187.284 237.793 186.771 238.842 185.744 239.55C184.731 240.245 183.119 240.592 180.906 240.592ZM179.087 233.997V238.889C179.233 238.902 179.407 238.915 179.607 238.929C179.78 238.942 179.98 238.955 180.206 238.969C180.446 238.969 180.72 238.969 181.026 238.969C181.599 238.969 182.139 238.935 182.646 238.869C183.165 238.788 183.618 238.655 184.005 238.468C184.392 238.281 184.698 238.02 184.925 237.686C185.165 237.352 185.285 236.931 185.285 236.423C185.285 235.969 185.198 235.588 185.025 235.28C184.851 234.96 184.598 234.706 184.265 234.519C183.945 234.332 183.559 234.198 183.105 234.118C182.652 234.038 182.146 233.997 181.586 233.997H179.087ZM179.087 232.434H181.126C181.606 232.434 182.059 232.401 182.486 232.334C182.912 232.267 183.279 232.147 183.585 231.973C183.905 231.799 184.152 231.572 184.325 231.291C184.512 231.011 184.605 230.657 184.605 230.229C184.605 229.828 184.512 229.494 184.325 229.227C184.138 228.946 183.878 228.725 183.545 228.565C183.225 228.391 182.845 228.264 182.406 228.184C181.966 228.104 181.499 228.064 181.006 228.064C180.513 228.064 180.126 228.071 179.847 228.084C179.567 228.097 179.313 228.117 179.087 228.144V232.434Z" fill="white"/>
<path d="M199.271 240.472C199.044 239.871 198.831 239.283 198.631 238.708C198.431 238.12 198.225 237.526 198.011 236.924H191.734L190.474 240.472H188.455C188.988 239.002 189.488 237.646 189.954 236.403C190.421 235.147 190.874 233.957 191.314 232.835C191.767 231.712 192.214 230.643 192.653 229.628C193.093 228.599 193.553 227.583 194.033 226.581H195.812C196.292 227.583 196.752 228.599 197.192 229.628C197.632 230.643 198.071 231.712 198.511 232.835C198.964 233.957 199.424 235.147 199.891 236.403C200.357 237.646 200.857 239.002 201.39 240.472H199.271ZM197.452 235.32C197.025 234.158 196.599 233.035 196.172 231.953C195.759 230.857 195.326 229.808 194.873 228.806C194.406 229.808 193.96 230.857 193.533 231.953C193.12 233.035 192.707 234.158 192.294 235.32H197.452Z" fill="white"/>
<path d="M211.608 238.788V240.472H203.271V226.581H205.21V238.788H211.608Z" fill="white"/>
</svg>
