<svg viewBox="0 0 348 348" fill="none" xmlns="http://www.w3.org/2000/svg">
<path d="M195.508 68H163.75C152.246 70.7039 152 80.143 152 80.143V112H164.192V82.9944C164.192 80.5363 166.65 80.0939 166.65 80.0939H195.459L195.508 68Z" fill="white"/>
<path d="M170.092 83.4369C170.092 83.4369 167.634 83.1911 167.634 85.3542V95.0391H183.759V97.9397C183.759 97.9397 183.808 99.3654 182.284 99.3654H167.634V111.951H185.234C185.234 111.951 195.902 110.328 196 99.3654V83.4369H170.092Z" fill="white"/>
<path d="M106.599 151.796C106.767 151.685 106.951 151.564 107.15 151.436V139.677H96.5669L95.4278 143.241H103.402V148.974C103.402 148.974 102.85 149.378 101.785 150.186C100.499 150.921 99.2493 151.325 98.0367 151.325C95.0971 151.325 92.6719 150.407 90.7611 148.606C88.8504 146.806 87.895 144.528 87.895 141.772C87.895 138.979 88.7401 136.627 90.3937 134.606C92.084 132.622 94.1784 131.63 96.6404 131.63C98.0367 131.63 99.286 131.814 100.425 132.144C101.932 132.585 103.255 133.283 104.247 134.276L106.598 131.667C105.202 130.381 103.512 129.352 101.381 128.69C99.7637 128.176 98.1837 127.919 96.7139 127.919C93.1863 127.919 90.1732 129.278 87.7113 131.997C85.2126 134.753 84 137.95 84 141.661C84 145.483 85.3596 148.68 88.1155 151.215C90.8346 153.751 94.2519 155 98.3674 155C99.58 155 100.903 154.706 102.409 154.081C103.438 153.64 104.541 153.089 105.716 152.354C105.942 152.229 106.236 152.035 106.599 151.796Z" fill="white"/>
<path fill-rule="evenodd" clip-rule="evenodd" d="M131.144 144.454C131.144 147.21 130.152 149.598 128.205 151.619C126.257 153.64 123.832 154.669 120.929 154.669C118.247 154.669 115.932 153.677 113.911 151.693C111.89 149.709 110.898 147.32 110.898 144.491C110.898 141.698 111.853 139.31 113.764 137.252C115.674 135.194 118.026 134.202 120.745 134.202C123.795 134.202 126.257 135.194 128.205 137.142C130.152 139.052 131.144 141.514 131.144 144.454ZM127.433 144.528C127.433 142.654 126.808 141.073 125.559 139.787C124.31 138.465 122.766 137.84 120.892 137.84C119.165 137.84 117.695 138.501 116.446 139.861C115.233 141.184 114.609 142.727 114.609 144.454C114.609 146.255 115.233 147.798 116.446 149.084C117.659 150.37 119.202 151.032 121.039 151.032C122.766 151.032 124.236 150.407 125.485 149.121C126.808 147.798 127.433 146.255 127.433 144.528Z" fill="white"/>
<path fill-rule="evenodd" clip-rule="evenodd" d="M151.905 151.619C153.853 149.598 154.845 147.21 154.845 144.454C154.845 141.514 153.853 139.052 151.905 137.142C149.958 135.194 147.496 134.202 144.446 134.202C141.727 134.202 139.375 135.194 137.464 137.252C135.554 139.31 134.598 141.698 134.598 144.491C134.598 147.32 135.59 149.709 137.611 151.693C139.632 153.677 141.947 154.669 144.63 154.669C147.533 154.669 149.958 153.64 151.905 151.619ZM149.223 139.787C150.472 141.073 151.097 142.654 151.097 144.528C151.097 146.255 150.472 147.798 149.149 149.121C147.9 150.407 146.43 151.032 144.703 151.032C142.866 151.032 141.323 150.37 140.11 149.084C138.897 147.798 138.273 146.255 138.273 144.454C138.273 142.727 138.897 141.184 140.11 139.861C141.359 138.501 142.829 137.84 144.556 137.84C146.43 137.84 147.973 138.465 149.223 139.787Z" fill="white"/>
<path fill-rule="evenodd" clip-rule="evenodd" d="M176.745 154.118L173.328 154.633V151.325L172.593 152.171C171.931 152.795 171.197 153.273 170.425 153.677C169.249 154.228 168 154.486 166.714 154.486C164.031 154.486 161.753 153.493 159.916 151.546C158.078 149.598 157.123 147.21 157.123 144.491C157.123 141.661 158.042 139.236 159.879 137.252C161.716 135.231 163.921 134.239 166.603 134.239C168.147 134.239 169.469 134.496 170.572 134.974C171.38 135.341 172.042 135.819 172.63 136.407C172.813 136.664 172.997 136.921 173.217 137.178V128.47L176.855 127.955L176.745 154.118ZM173.548 144.711C173.548 142.764 172.887 141.11 171.564 139.787C170.241 138.428 168.735 137.766 167.008 137.766C165.097 137.766 163.59 138.391 162.414 139.677C161.312 140.89 160.761 142.396 160.761 144.16C160.761 146.144 161.349 147.798 162.488 149.084C163.627 150.37 165.06 150.995 166.861 150.995C168.588 150.995 170.131 150.407 171.49 149.194C172.85 147.982 173.548 146.475 173.548 144.711Z" fill="white"/>
<path d="M185.784 132.071H196L195.228 128.47H181.816V154.669L185.784 154.081V142.58H193.721V139.016H185.784V132.071Z" fill="white"/>
<path d="M204.194 130.05L201.732 133.136L199.38 130.05L201.842 127L204.194 130.05Z" fill="white"/>
<path d="M199.821 154.633L203.459 154.118V134.68L199.821 135.231V154.633Z" fill="white"/>
<path d="M219.921 134.459L218.194 138.428C217.973 138.391 217.753 138.391 217.496 138.391C217.159 138.391 216.853 138.422 216.521 138.455L216.43 138.465C216.062 138.501 215.695 138.648 215.291 138.869C214.519 139.199 213.858 139.934 213.307 141C212.682 142.249 212.351 143.609 212.351 145.005V154.081L208.713 154.669V135.231L212.094 134.606V138.648L212.095 138.647C212.535 137.949 212.976 137.251 213.417 136.517C214.041 135.782 214.776 135.268 215.585 134.937C216.026 134.753 216.797 134.643 218.01 134.533C219.186 134.459 219.847 134.423 219.921 134.459Z" fill="white"/>
<path d="M243.474 154.633L247.112 154.118V141.588C247.112 139.346 246.671 137.619 245.789 136.444C244.687 135.01 243.033 134.312 240.792 134.312C238.44 134.312 236.677 135.304 235.427 137.289C234.803 136.186 234.215 135.415 233.59 135.01C232.855 134.533 231.789 134.312 230.356 134.312C229.07 134.312 227.931 134.753 226.939 135.672C226.608 136.003 226.204 136.48 225.837 137.068V134.57L222.419 135.157V154.669L226.204 154.008V142.47C226.204 141.22 226.425 140.192 226.866 139.383C227.453 138.281 228.372 137.766 229.658 137.766H230.026C230.944 137.766 231.642 138.06 232.194 138.685C232.745 139.31 233.002 140.192 233.002 141.367V154.706L236.64 154.045V141.661C236.64 140.89 236.897 140.118 237.338 139.383C237.999 138.318 238.955 137.803 240.241 137.803C241.306 137.803 242.115 138.097 242.666 138.648C243.217 139.199 243.474 140.118 243.474 141.331V154.633Z" fill="white"/>
<path d="M263.758 148.239C263.758 150.039 263.133 151.509 261.884 152.648C260.634 153.824 259.054 154.375 257.144 154.375C255.711 154.375 254.424 154.045 253.249 153.383C252.073 152.722 251.191 151.95 250.64 151.068L253.212 148.79C253.396 149.084 253.579 149.304 253.726 149.451C254.682 150.444 255.821 150.921 257.144 150.921C258.062 150.921 258.797 150.664 259.312 150.186C259.863 149.709 260.12 149.047 260.12 148.165C260.12 147.173 259.495 146.512 258.246 146.144C255.784 145.409 254.425 144.969 254.241 144.895C253.102 144.307 252.293 143.682 251.779 142.984C251.191 142.176 250.897 141.11 250.897 139.751C250.897 138.06 251.522 136.701 252.734 135.562C253.947 134.459 255.417 133.908 257.107 133.908C258.393 133.908 259.569 134.202 260.671 134.79C261.774 135.378 262.545 136.003 263.023 136.701L260.855 139.052C260.524 138.722 260.157 138.428 259.789 138.171C258.907 137.546 258.062 137.252 257.291 137.252C256.519 137.252 255.894 137.436 255.417 137.766C254.829 138.171 254.535 138.795 254.535 139.604C254.535 140.375 254.792 140.963 255.38 141.331C255.858 141.625 256.886 141.955 258.54 142.323C260.157 142.727 261.443 143.388 262.325 144.344C263.354 145.373 263.758 146.622 263.758 148.239Z" fill="white"/>
<path fill-rule="evenodd" clip-rule="evenodd" d="M93.2381 178V169.273H96.4341C97.0534 169.273 97.5662 169.375 97.9725 169.58C98.3787 169.781 98.6827 170.055 98.8844 170.402C99.0861 170.746 99.187 171.134 99.187 171.565C99.187 171.929 99.1202 172.236 98.9867 172.486C98.8532 172.733 98.6742 172.932 98.4498 173.082C98.2282 173.23 97.9838 173.338 97.7168 173.406V173.491C98.0066 173.506 98.2892 173.599 98.5648 173.773C98.8432 173.943 99.0733 174.186 99.2551 174.501C99.437 174.817 99.5279 175.2 99.5279 175.652C99.5279 176.098 99.4228 176.499 99.2125 176.854C99.0051 177.206 98.6841 177.486 98.2495 177.693C97.8148 177.898 97.2594 178 96.5833 178H93.2381ZM94.5549 176.871H96.4554C97.0861 176.871 97.5378 176.749 97.8105 176.504C98.0833 176.26 98.2196 175.955 98.2196 175.588C98.2196 175.312 98.15 175.06 98.0108 174.83C97.8716 174.599 97.6728 174.416 97.4142 174.28C97.1586 174.143 96.8546 174.075 96.5023 174.075H94.5549V176.871ZM94.5549 173.048H96.3191C96.6145 173.048 96.8801 172.991 97.1159 172.878C97.3546 172.764 97.5435 172.605 97.6827 172.401C97.8248 172.193 97.8958 171.949 97.8958 171.668C97.8958 171.307 97.7694 171.004 97.5165 170.76C97.2637 170.516 96.8759 170.393 96.3532 170.393H94.5549V173.048Z" fill="white"/>
<path d="M100.97 177.045V178H106.715V176.871H102.786V176.807L104.52 174.991C105.051 174.452 105.466 173.993 105.764 173.615C106.063 173.234 106.271 172.889 106.391 172.58C106.513 172.27 106.574 171.953 106.574 171.629C106.574 171.161 106.456 170.74 106.22 170.368C105.985 169.993 105.656 169.697 105.236 169.482C104.818 169.263 104.335 169.153 103.787 169.153C103.244 169.153 102.76 169.264 102.334 169.486C101.908 169.705 101.573 170.013 101.328 170.411C101.084 170.808 100.962 171.273 100.962 171.804H102.219C102.219 171.491 102.281 171.219 102.406 170.986C102.531 170.753 102.71 170.572 102.943 170.445C103.176 170.317 103.449 170.253 103.762 170.253C104.057 170.253 104.323 170.311 104.558 170.428C104.794 170.541 104.98 170.705 105.117 170.918C105.253 171.128 105.321 171.378 105.321 171.668C105.321 171.923 105.27 172.165 105.168 172.392C105.066 172.619 104.911 172.859 104.703 173.112C104.499 173.362 104.239 173.653 103.923 173.986L100.97 177.045Z" fill="white"/>
<path fill-rule="evenodd" clip-rule="evenodd" d="M108.449 178V169.273H111.645C112.264 169.273 112.777 169.375 113.183 169.58C113.59 169.781 113.894 170.055 114.095 170.402C114.297 170.746 114.398 171.134 114.398 171.565C114.398 171.929 114.331 172.236 114.198 172.486C114.064 172.733 113.885 172.932 113.661 173.082C113.439 173.23 113.195 173.338 112.928 173.406V173.491C113.218 173.506 113.5 173.599 113.776 173.773C114.054 173.943 114.284 174.186 114.466 174.501C114.648 174.817 114.739 175.2 114.739 175.652C114.739 176.098 114.634 176.499 114.423 176.854C114.216 177.206 113.895 177.486 113.46 177.693C113.026 177.898 112.47 178 111.794 178H108.449ZM109.766 176.871H111.666C112.297 176.871 112.749 176.749 113.021 176.504C113.294 176.26 113.431 175.955 113.431 175.588C113.431 175.312 113.361 175.06 113.222 174.83C113.083 174.599 112.884 174.416 112.625 174.28C112.369 174.143 112.066 174.075 111.713 174.075H109.766V176.871ZM109.766 173.048H111.53C111.825 173.048 112.091 172.991 112.327 172.878C112.566 172.764 112.754 172.605 112.894 172.401C113.036 172.193 113.107 171.949 113.107 171.668C113.107 171.307 112.98 171.004 112.727 170.76C112.475 170.516 112.087 170.393 111.564 170.393H109.766V173.048Z" fill="white"/>
<path fill-rule="evenodd" clip-rule="evenodd" d="M119.476 169.273V178H120.793V174.697H122.583C122.611 174.697 122.64 174.697 122.668 174.697L124.441 178H125.941L124.009 174.473C124.099 174.439 124.184 174.402 124.266 174.361C124.715 174.136 125.05 173.822 125.272 173.419C125.496 173.013 125.608 172.543 125.608 172.009C125.608 171.472 125.498 170.999 125.276 170.589C125.055 170.178 124.719 169.855 124.27 169.622C123.824 169.389 123.263 169.273 122.587 169.273H119.476ZM120.793 173.564H122.464C122.89 173.564 123.236 173.503 123.503 173.381C123.773 173.259 123.971 173.081 124.096 172.848C124.221 172.615 124.283 172.335 124.283 172.009C124.283 171.679 124.219 171.393 124.091 171.152C123.966 170.911 123.769 170.726 123.499 170.598C123.232 170.467 122.881 170.402 122.447 170.402H120.793V173.564Z" fill="white"/>
<path fill-rule="evenodd" clip-rule="evenodd" d="M129.847 178.132C129.203 178.132 128.647 177.994 128.181 177.719C127.718 177.44 127.36 177.05 127.107 176.547C126.857 176.041 126.732 175.449 126.732 174.77C126.732 174.099 126.857 173.509 127.107 172.997C127.36 172.486 127.713 172.087 128.164 171.8C128.619 171.513 129.15 171.369 129.758 171.369C130.127 171.369 130.485 171.43 130.832 171.553C131.178 171.675 131.49 171.866 131.765 172.128C132.041 172.389 132.258 172.729 132.417 173.146C132.576 173.561 132.656 174.065 132.656 174.659V175.111H128.003C128.013 175.51 128.09 175.852 128.232 176.138C128.389 176.445 128.606 176.679 128.884 176.841C129.163 177 129.488 177.08 129.86 177.08C130.102 177.08 130.322 177.045 130.521 176.977C130.72 176.906 130.892 176.801 131.036 176.662C131.181 176.523 131.292 176.351 131.369 176.146L132.575 176.364C132.478 176.719 132.305 177.03 132.055 177.297C131.808 177.561 131.497 177.767 131.122 177.915C130.749 178.06 130.325 178.132 129.847 178.132ZM128.215 173.368C128.091 173.612 128.021 173.875 128.006 174.156H131.407C131.407 173.821 131.339 173.524 131.203 173.266C131.066 173.004 130.874 172.798 130.627 172.648C130.383 172.497 130.096 172.422 129.767 172.422C129.409 172.422 129.096 172.51 128.829 172.686C128.565 172.859 128.36 173.087 128.215 173.368Z" fill="white"/>
<path d="M137.819 173.257L138.974 173.053C138.844 172.541 138.575 172.134 138.169 171.83C137.763 171.523 137.206 171.369 136.498 171.369C136.007 171.369 135.571 171.452 135.19 171.616C134.809 171.778 134.511 172.004 134.295 172.294C134.079 172.584 133.971 172.922 133.971 173.308C133.971 173.774 134.116 174.159 134.406 174.463C134.699 174.767 135.15 174.989 135.761 175.128L136.869 175.371C137.182 175.442 137.413 175.547 137.564 175.686C137.717 175.825 137.794 175.997 137.794 176.202C137.794 176.455 137.669 176.669 137.419 176.845C137.169 177.018 136.835 177.105 136.417 177.105C136.034 177.105 135.723 177.024 135.484 176.862C135.246 176.697 135.088 176.455 135.011 176.134L133.78 176.321C133.885 176.901 134.169 177.348 134.632 177.663C135.095 177.976 135.693 178.132 136.426 178.132C136.954 178.132 137.419 178.045 137.819 177.872C138.223 177.699 138.537 177.46 138.761 177.156C138.988 176.849 139.102 176.5 139.102 176.108C139.102 175.645 138.954 175.268 138.659 174.979C138.363 174.689 137.915 174.474 137.312 174.335L136.273 174.097C135.912 174.011 135.65 173.902 135.488 173.768C135.327 173.635 135.246 173.459 135.246 173.24C135.246 172.987 135.366 172.781 135.608 172.622C135.849 172.46 136.15 172.379 136.511 172.379C136.775 172.379 136.996 172.422 137.172 172.507C137.348 172.592 137.487 172.702 137.589 172.835C137.694 172.969 137.771 173.109 137.819 173.257Z" fill="white"/>
<path fill-rule="evenodd" clip-rule="evenodd" d="M143.324 178.132C142.679 178.132 142.124 177.994 141.658 177.719C141.195 177.44 140.837 177.05 140.584 176.547C140.334 176.041 140.209 175.449 140.209 174.77C140.209 174.099 140.334 173.509 140.584 172.997C140.837 172.486 141.189 172.087 141.641 171.8C142.095 171.513 142.627 171.369 143.235 171.369C143.604 171.369 143.962 171.43 144.308 171.553C144.655 171.675 144.966 171.866 145.242 172.128C145.517 172.389 145.735 172.729 145.894 173.146C146.053 173.561 146.132 174.065 146.132 174.659V175.111H141.48C141.49 175.51 141.566 175.852 141.709 176.138C141.865 176.445 142.083 176.679 142.361 176.841C142.639 177 142.965 177.08 143.337 177.08C143.578 177.08 143.798 177.045 143.997 176.977C144.196 176.906 144.368 176.801 144.513 176.662C144.658 176.523 144.769 176.351 144.845 176.146L146.051 176.364C145.955 176.719 145.781 177.03 145.531 177.297C145.284 177.561 144.973 177.767 144.598 177.915C144.226 178.06 143.801 178.132 143.324 178.132ZM141.692 173.368C141.567 173.612 141.497 173.875 141.482 174.156H144.884C144.884 173.821 144.816 173.524 144.679 173.266C144.543 173.004 144.351 172.798 144.104 172.648C143.86 172.497 143.573 172.422 143.243 172.422C142.885 172.422 142.573 172.51 142.306 172.686C142.041 172.859 141.837 173.087 141.692 173.368Z" fill="white"/>
<path fill-rule="evenodd" clip-rule="evenodd" d="M148.326 177.915C148.661 178.068 149.036 178.145 149.451 178.145C149.812 178.145 150.121 178.092 150.38 177.987C150.638 177.882 150.85 177.75 151.015 177.591C151.18 177.432 151.303 177.27 151.385 177.105H151.437V178H152.681V173.653C152.681 173.176 152.599 172.788 152.434 172.49C152.269 172.189 152.057 171.957 151.799 171.795C151.543 171.634 151.268 171.523 150.972 171.463C150.68 171.401 150.403 171.369 150.141 171.369C149.746 171.369 149.37 171.426 149.012 171.54C148.654 171.651 148.337 171.83 148.062 172.077C147.789 172.321 147.581 172.642 147.439 173.04L148.637 173.312C148.731 173.082 148.9 172.874 149.144 172.686C149.391 172.496 149.729 172.401 150.158 172.401C150.57 172.401 150.88 172.503 151.087 172.707C151.297 172.912 151.403 173.2 151.403 173.572V173.602C151.403 173.756 151.347 173.866 151.236 173.935C151.126 174.003 150.948 174.053 150.704 174.084L149.749 174.195C149.439 174.232 149.135 174.286 148.837 174.357C148.539 174.428 148.269 174.533 148.028 174.672C147.786 174.811 147.594 175 147.452 175.239C147.31 175.477 147.239 175.781 147.239 176.151C147.239 176.58 147.336 176.942 147.529 177.237C147.725 177.533 147.991 177.759 148.326 177.915ZM150.631 176.913C150.381 177.053 150.08 177.122 149.728 177.122C149.367 177.122 149.07 177.043 148.837 176.884C148.604 176.722 148.488 176.483 148.488 176.168C148.488 175.94 148.547 175.759 148.667 175.622C148.789 175.483 148.951 175.376 149.153 175.303C149.357 175.229 149.583 175.176 149.83 175.145C149.935 175.131 150.066 175.114 150.222 175.094C150.378 175.071 150.539 175.047 150.704 175.021C150.868 174.993 151.015 174.96 151.143 174.923C151.273 174.884 151.361 174.841 151.407 174.795V175.639C151.407 175.898 151.34 176.141 151.206 176.368C151.076 176.592 150.884 176.774 150.631 176.913Z" fill="white"/>
<path d="M154.378 178V171.455H155.61V172.494H155.678C155.797 172.142 156.007 171.865 156.308 171.663C156.612 171.459 156.956 171.357 157.34 171.357C157.419 171.357 157.513 171.359 157.621 171.365C157.732 171.371 157.818 171.378 157.881 171.386V172.605C157.83 172.591 157.739 172.575 157.608 172.558C157.477 172.538 157.347 172.528 157.216 172.528C156.915 172.528 156.646 172.592 156.411 172.72C156.178 172.845 155.993 173.02 155.857 173.244C155.72 173.466 155.652 173.719 155.652 174.003V178H154.378Z" fill="white"/>
<path d="M159.87 177.702C160.327 177.989 160.873 178.132 161.506 178.132C162.023 178.132 162.474 178.037 162.857 177.847C163.243 177.656 163.552 177.395 163.782 177.062C164.012 176.73 164.15 176.352 164.195 175.929H162.955C162.901 176.165 162.806 176.366 162.67 176.534C162.536 176.702 162.37 176.831 162.171 176.922C161.975 177.01 161.756 177.054 161.515 177.054C161.154 177.054 160.84 176.959 160.573 176.768C160.309 176.578 160.104 176.31 159.959 175.963C159.814 175.616 159.742 175.205 159.742 174.727C159.742 174.261 159.816 173.858 159.964 173.517C160.111 173.173 160.317 172.909 160.581 172.724C160.849 172.537 161.16 172.443 161.515 172.443C161.921 172.443 162.245 172.554 162.486 172.776C162.731 172.997 162.887 173.261 162.955 173.568H164.195C164.15 173.128 164.006 172.743 163.765 172.413C163.526 172.084 163.212 171.828 162.823 171.646C162.434 171.462 161.991 171.369 161.493 171.369C160.877 171.369 160.341 171.513 159.887 171.8C159.432 172.087 159.08 172.486 158.83 172.997C158.58 173.506 158.455 174.092 158.455 174.757C158.455 175.413 158.577 175.996 158.822 176.504C159.066 177.013 159.415 177.412 159.87 177.702Z" fill="white"/>
<path d="M166.832 174.114V178H165.558V169.273H166.815V172.52H166.896C167.049 172.168 167.284 171.888 167.599 171.68C167.914 171.473 168.326 171.369 168.835 171.369C169.284 171.369 169.676 171.462 170.011 171.646C170.349 171.831 170.61 172.107 170.795 172.473C170.982 172.837 171.076 173.291 171.076 173.837V178H169.802V173.99C169.802 173.51 169.678 173.138 169.431 172.874C169.184 172.607 168.84 172.473 168.4 172.473C168.099 172.473 167.829 172.537 167.59 172.665C167.355 172.793 167.169 172.98 167.032 173.227C166.899 173.472 166.832 173.767 166.832 174.114Z" fill="white"/>
<path fill-rule="evenodd" clip-rule="evenodd" d="M176.979 177.804C177.403 178.017 177.907 178.124 178.492 178.124C178.898 178.124 179.31 178.053 179.728 177.911C180.12 177.778 180.458 177.577 180.742 177.309L181.33 178H182.77L181.524 176.509C181.548 176.477 181.573 176.444 181.599 176.411C181.78 176.166 181.935 175.851 182.063 175.464C182.191 175.075 182.255 174.599 182.255 174.037H181.104C181.104 174.494 181.03 174.908 180.883 175.277C180.841 175.382 180.795 175.482 180.745 175.578L178.996 173.487L179.591 173.048C179.952 172.784 180.235 172.494 180.439 172.179C180.647 171.861 180.751 171.494 180.751 171.08C180.751 170.739 180.662 170.425 180.486 170.138C180.313 169.848 180.064 169.616 179.741 169.443C179.42 169.267 179.035 169.179 178.586 169.179C178.143 169.179 177.756 169.267 177.427 169.443C177.097 169.619 176.84 169.864 176.655 170.176C176.474 170.486 176.383 170.841 176.383 171.241C176.383 171.594 176.456 171.922 176.604 172.226C176.755 172.527 176.951 172.825 177.192 173.121C177.243 173.182 177.294 173.243 177.346 173.306C177.031 173.527 176.751 173.746 176.506 173.964C176.242 174.2 176.036 174.457 175.888 174.736C175.741 175.011 175.667 175.327 175.667 175.682C175.667 176.148 175.78 176.565 176.008 176.935C176.235 177.301 176.559 177.591 176.979 177.804ZM178.071 174.169L177.84 174.339C177.499 174.589 177.262 174.837 177.128 175.081C176.998 175.322 176.932 175.511 176.932 175.648C176.932 175.898 176.996 176.129 177.124 176.342C177.255 176.555 177.437 176.726 177.67 176.854C177.905 176.982 178.181 177.045 178.496 177.045C178.82 177.045 179.135 176.976 179.442 176.837C179.65 176.741 179.845 176.618 180.026 176.467L178.071 174.169ZM178.293 172.638L178.829 172.26C179.067 172.104 179.253 171.939 179.387 171.766C179.52 171.589 179.587 171.372 179.587 171.114C179.587 170.909 179.499 170.713 179.323 170.526C179.147 170.338 178.911 170.244 178.616 170.244C178.411 170.244 178.231 170.294 178.074 170.393C177.921 170.493 177.8 170.621 177.712 170.777C177.627 170.93 177.584 171.092 177.584 171.263C177.584 171.462 177.638 171.662 177.746 171.864C177.857 172.065 177.999 172.274 178.172 172.49L178.293 172.638Z" fill="white"/>
<path fill-rule="evenodd" clip-rule="evenodd" d="M187.047 178V169.273H190.157C190.834 169.273 191.395 169.389 191.841 169.622C192.29 169.855 192.625 170.178 192.846 170.589C193.068 170.999 193.179 171.472 193.179 172.009C193.179 172.543 193.067 173.013 192.842 173.419C192.621 173.822 192.285 174.136 191.836 174.361C191.755 174.402 191.669 174.439 191.58 174.473L193.511 178H192.011L190.238 174.697L190.187 174.697L190.153 174.697H188.363V178H187.047ZM190.034 173.564H188.363V170.402H190.017C190.452 170.402 190.802 170.467 191.069 170.598C191.339 170.726 191.537 170.911 191.662 171.152C191.79 171.393 191.854 171.679 191.854 172.009C191.854 172.335 191.791 172.615 191.666 172.848C191.541 173.081 191.344 173.259 191.074 173.381C190.807 173.503 190.46 173.564 190.034 173.564Z" fill="white"/>
<path fill-rule="evenodd" clip-rule="evenodd" d="M195.752 177.719C196.218 177.994 196.773 178.132 197.418 178.132C197.895 178.132 198.32 178.06 198.692 177.915C199.067 177.767 199.378 177.561 199.625 177.297C199.875 177.03 200.048 176.719 200.145 176.364L198.939 176.146C198.862 176.351 198.752 176.523 198.607 176.662C198.462 176.801 198.29 176.906 198.091 176.977C197.892 177.045 197.672 177.08 197.431 177.08C197.058 177.08 196.733 177 196.455 176.841C196.176 176.679 195.959 176.445 195.803 176.138C195.66 175.852 195.584 175.51 195.574 175.111H200.226V174.659C200.226 174.065 200.146 173.561 199.987 173.146C199.828 172.729 199.611 172.389 199.335 172.128C199.06 171.866 198.749 171.675 198.402 171.553C198.056 171.43 197.698 171.369 197.328 171.369C196.72 171.369 196.189 171.513 195.735 171.8C195.283 172.087 194.931 172.486 194.678 172.997C194.428 173.509 194.303 174.099 194.303 174.77C194.303 175.449 194.428 176.041 194.678 176.547C194.931 177.05 195.289 177.44 195.752 177.719ZM195.576 174.156C195.591 173.875 195.661 173.612 195.786 173.368C195.931 173.087 196.135 172.859 196.399 172.686C196.666 172.51 196.979 172.422 197.337 172.422C197.666 172.422 197.953 172.497 198.198 172.648C198.445 172.798 198.637 173.004 198.773 173.266C198.909 173.524 198.977 173.821 198.977 174.156H195.576Z" fill="white"/>
<path d="M207.052 171.455L204.678 178H203.314L200.937 171.455H202.305L203.962 176.491H204.03L205.684 171.455H207.052Z" fill="white"/>
<path d="M208.249 171.455V178H209.523V171.455H208.249Z" fill="white"/>
<path d="M208.893 170.445C208.671 170.445 208.481 170.371 208.322 170.223C208.165 170.072 208.087 169.893 208.087 169.686C208.087 169.476 208.165 169.297 208.322 169.149C208.481 168.999 208.671 168.923 208.893 168.923C209.114 168.923 209.303 168.999 209.459 169.149C209.618 169.297 209.698 169.476 209.698 169.686C209.698 169.893 209.618 170.072 209.459 170.223C209.303 170.371 209.114 170.445 208.893 170.445Z" fill="white"/>
<path fill-rule="evenodd" clip-rule="evenodd" d="M212.392 177.719C212.858 177.994 213.414 178.132 214.058 178.132C214.536 178.132 214.96 178.06 215.333 177.915C215.708 177.767 216.019 177.561 216.266 177.297C216.516 177.03 216.689 176.719 216.786 176.364L215.58 176.146C215.503 176.351 215.392 176.523 215.247 176.662C215.102 176.801 214.931 176.906 214.732 176.977C214.533 177.045 214.313 177.08 214.071 177.08C213.699 177.08 213.374 177 213.095 176.841C212.817 176.679 212.6 176.445 212.443 176.138C212.301 175.852 212.224 175.51 212.214 175.111H216.867V174.659C216.867 174.065 216.787 173.561 216.628 173.146C216.469 172.729 216.252 172.389 215.976 172.128C215.7 171.866 215.389 171.675 215.043 171.553C214.696 171.43 214.338 171.369 213.969 171.369C213.361 171.369 212.83 171.513 212.375 171.8C211.923 172.087 211.571 172.486 211.318 172.997C211.068 173.509 210.943 174.099 210.943 174.77C210.943 175.449 211.068 176.041 211.318 176.547C211.571 177.05 211.929 177.44 212.392 177.719ZM212.216 174.156C212.232 173.875 212.302 173.612 212.426 173.368C212.571 173.087 212.776 172.859 213.04 172.686C213.307 172.51 213.619 172.422 213.977 172.422C214.307 172.422 214.594 172.497 214.838 172.648C215.085 172.798 215.277 173.004 215.414 173.266C215.55 173.524 215.618 173.821 215.618 174.156H212.216Z" fill="white"/>
<path d="M219.688 178L217.762 171.455H219.078L220.361 176.261H220.425L221.712 171.455H223.029L224.307 176.24H224.371L225.645 171.455H226.962L225.04 178H223.74L222.411 173.274H222.313L220.983 178H219.688Z" fill="white"/>
<path d="M231.449 169.273V178H232.766V174.195H236.473V173.065H232.766V170.406H236.861V169.273H231.449Z" fill="white"/>
<path d="M238.378 178V171.455H239.652V178H238.378Z" fill="white"/>
<path d="M238.45 170.223C238.61 170.371 238.8 170.445 239.021 170.445C239.243 170.445 239.432 170.371 239.588 170.223C239.747 170.072 239.827 169.893 239.827 169.686C239.827 169.476 239.747 169.297 239.588 169.149C239.432 168.999 239.243 168.923 239.021 168.923C238.8 168.923 238.61 168.999 238.45 169.149C238.294 169.297 238.216 169.476 238.216 169.686C238.216 169.893 238.294 170.072 238.45 170.223Z" fill="white"/>
<path d="M241.366 178V171.455H242.598V172.494H242.666C242.785 172.142 242.996 171.865 243.297 171.663C243.601 171.459 243.944 171.357 244.328 171.357C244.407 171.357 244.501 171.359 244.609 171.365C244.72 171.371 244.807 171.378 244.869 171.386V172.605C244.818 172.591 244.727 172.575 244.596 172.558C244.466 172.538 244.335 172.528 244.204 172.528C243.903 172.528 243.635 172.592 243.399 172.72C243.166 172.845 242.981 173.02 242.845 173.244C242.709 173.466 242.64 173.719 242.64 174.003V178H241.366Z" fill="white"/>
<path d="M245.972 171.455V178H247.246V173.964C247.246 173.669 247.307 173.409 247.429 173.185C247.554 172.96 247.718 172.786 247.919 172.661C248.124 172.533 248.347 172.469 248.588 172.469C248.943 172.469 249.232 172.577 249.453 172.793C249.675 173.009 249.786 173.294 249.786 173.649V178H251.056V173.828C251.056 173.43 251.171 173.105 251.401 172.852C251.631 172.597 251.953 172.469 252.368 172.469C252.703 172.469 252.992 172.568 253.233 172.767C253.475 172.966 253.595 173.287 253.595 173.73V178H254.869V173.611C254.869 172.861 254.681 172.3 254.303 171.928C253.928 171.555 253.443 171.369 252.85 171.369C252.378 171.369 251.972 171.474 251.631 171.685C251.29 171.892 251.041 172.17 250.885 172.52H250.817C250.675 172.162 250.455 171.881 250.156 171.676C249.861 171.472 249.494 171.369 249.057 171.369C248.625 171.369 248.254 171.472 247.945 171.676C247.635 171.878 247.412 172.159 247.276 172.52H247.195V171.455H245.972Z" fill="white"/>
<path d="M70.9589 211.452C71.2181 212.02 71.3477 212.718 71.3477 213.545C71.3477 214.373 71.2181 215.072 70.9589 215.644C70.7032 216.212 70.3481 216.644 69.8936 216.939C69.439 217.23 68.9152 217.375 68.3222 217.375C67.7291 217.375 67.2053 217.23 66.7508 216.939C66.2963 216.644 65.9394 216.212 65.6801 215.644C65.4244 215.072 65.2966 214.373 65.2966 213.545C65.2966 212.718 65.4244 212.02 65.6801 211.452C65.9394 210.88 66.2963 210.449 66.7508 210.158C67.2053 209.863 67.7291 209.716 68.3222 209.716C68.9152 209.716 69.439 209.863 69.8936 210.158C70.3481 210.449 70.7032 210.88 70.9589 211.452Z" fill="white"/>
<path d="M77.1792 213.689H79.0009C79.4909 213.689 79.8922 213.604 80.2047 213.434C80.5172 213.263 80.748 213.029 80.8972 212.73C81.0499 212.432 81.1262 212.089 81.1262 211.702C81.1262 211.315 81.0499 210.974 80.8972 210.68C80.748 210.385 80.5154 210.156 80.1994 209.993C79.8869 209.826 79.4838 209.742 78.9902 209.742H77.1792V213.689Z" fill="white"/>
<path d="M109.543 211.452C109.802 212.02 109.932 212.718 109.932 213.545C109.932 214.373 109.802 215.072 109.543 215.644C109.287 216.212 108.932 216.644 108.478 216.939C108.023 217.23 107.499 217.375 106.906 217.375C106.313 217.375 105.789 217.23 105.335 216.939C104.88 216.644 104.523 216.212 104.264 215.644C104.008 215.072 103.881 214.373 103.881 213.545C103.881 212.718 104.008 212.02 104.264 211.452C104.523 210.88 104.88 210.449 105.335 210.158C105.789 209.863 106.313 209.716 106.906 209.716C107.499 209.716 108.023 209.863 108.478 210.158C108.932 210.449 109.287 210.88 109.543 211.452Z" fill="white"/>
<path d="M117.888 217.349H115.763V214.153H117.942C118.35 214.153 118.702 214.229 118.996 214.382C119.291 214.531 119.518 214.737 119.678 215C119.838 215.259 119.918 215.55 119.918 215.873C119.918 216.306 119.758 216.662 119.439 216.939C119.123 217.212 118.606 217.349 117.888 217.349Z" fill="white"/>
<path d="M117.718 212.73H115.763V209.721H117.761C118.343 209.721 118.782 209.858 119.076 210.131C119.375 210.404 119.524 210.752 119.524 211.175C119.524 211.495 119.444 211.772 119.284 212.006C119.128 212.237 118.913 212.416 118.64 212.544C118.366 212.668 118.059 212.73 117.718 212.73Z" fill="white"/>
<path d="M154.961 214.723L153.484 210.328H153.399L151.925 214.723H154.961Z" fill="white"/>
<path d="M161.92 213.689H163.742C164.232 213.689 164.633 213.604 164.946 213.434C165.258 213.263 165.489 213.029 165.638 212.73C165.791 212.432 165.867 212.089 165.867 211.702C165.867 211.315 165.791 210.974 165.638 210.68C165.489 210.385 165.257 210.156 164.941 209.993C164.628 209.826 164.225 209.742 163.731 209.742H161.92V213.689Z" fill="white"/>
<path d="M171.574 213.689H173.395C173.885 213.689 174.287 213.604 174.599 213.434C174.912 213.263 175.143 213.029 175.292 212.73C175.444 212.432 175.521 212.089 175.521 211.702C175.521 211.315 175.444 210.974 175.292 210.68C175.143 210.385 174.91 210.156 174.594 209.993C174.281 209.826 173.878 209.742 173.385 209.742H171.574V213.689Z" fill="white"/>
<path d="M186.572 217.29H184.948V209.801H186.631C187.37 209.801 187.987 209.939 188.485 210.216C188.985 210.49 189.364 210.903 189.619 211.457C189.875 212.008 190.003 212.7 190.003 213.535C190.003 214.369 189.875 215.065 189.619 215.623C189.364 216.177 188.982 216.594 188.474 216.875C187.966 217.152 187.332 217.29 186.572 217.29Z" fill="white"/>
<path d="M238.361 211.452C238.62 212.02 238.75 212.718 238.75 213.545C238.75 214.373 238.62 215.072 238.361 215.644C238.106 216.212 237.75 216.644 237.296 216.939C236.841 217.23 236.318 217.375 235.725 217.375C235.131 217.375 234.608 217.23 234.153 216.939C233.699 216.644 233.342 216.212 233.082 215.644C232.827 215.072 232.699 214.373 232.699 213.545C232.699 212.718 232.827 212.02 233.082 211.452C233.342 210.88 233.699 210.449 234.153 210.158C234.608 209.863 235.131 209.716 235.725 209.716C236.318 209.716 236.841 209.863 237.296 210.158C237.75 210.449 238.106 210.88 238.361 211.452Z" fill="white"/>
<path d="M244.581 213.689H246.403C246.893 213.689 247.295 213.604 247.607 213.434C247.92 213.263 248.15 213.029 248.3 212.73C248.452 212.432 248.529 212.089 248.529 211.702C248.529 211.315 248.452 210.974 248.3 210.68C248.15 210.385 247.918 210.156 247.602 209.993C247.289 209.826 246.886 209.742 246.393 209.742H244.581V213.689Z" fill="white"/>
<path d="M118.325 231.452C118.584 232.02 118.713 232.718 118.713 233.545C118.713 234.373 118.584 235.072 118.325 235.644C118.069 236.212 117.714 236.644 117.259 236.939C116.805 237.23 116.281 237.375 115.688 237.375C115.095 237.375 114.571 237.23 114.117 236.939C113.662 236.644 113.305 236.212 113.046 235.644C112.79 235.072 112.662 234.373 112.662 233.545C112.662 232.718 112.79 232.02 113.046 231.452C113.305 230.88 113.662 230.449 114.117 230.158C114.571 229.863 115.095 229.716 115.688 229.716C116.281 229.716 116.805 229.863 117.259 230.158C117.714 230.449 118.069 230.88 118.325 231.452Z" fill="white"/>
<path d="M138.139 233.689H139.96C140.45 233.689 140.852 233.604 141.164 233.434C141.477 233.263 141.708 233.029 141.857 232.73C142.009 232.432 142.086 232.089 142.086 231.702C142.086 231.315 142.009 230.974 141.857 230.68C141.708 230.385 141.475 230.156 141.159 229.993C140.846 229.826 140.443 229.742 139.95 229.742H138.139V233.689Z" fill="white"/>
<path d="M150.471 234.723L148.994 230.328H148.909L147.435 234.723H150.471Z" fill="white"/>
<path d="M227.073 236.534C226.679 237.205 226.141 237.54 225.459 237.54C225.005 237.54 224.612 237.391 224.282 237.093C223.952 236.791 223.696 236.344 223.515 235.751C223.337 235.158 223.25 234.426 223.254 233.556C223.258 232.256 223.456 231.271 223.851 230.6C224.245 229.925 224.781 229.588 225.459 229.588C225.91 229.588 226.301 229.739 226.631 230.04C226.961 230.339 227.217 230.783 227.398 231.372C227.579 231.962 227.67 232.69 227.67 233.556C227.67 234.866 227.471 235.859 227.073 236.534Z" fill="white"/>
<path fill-rule="evenodd" clip-rule="evenodd" d="M306.203 196C307.385 188.842 308 181.493 308 174C308 99.9938 248.006 40 174 40C99.9938 40 40 99.9938 40 174C40 181.493 40.615 188.842 41.7972 196H14L32.8235 224L14 252H65.0287C89.343 285.908 129.092 308 174 308C218.908 308 258.657 285.908 282.971 252H334L315.176 224L334 196H306.203ZM267.812 252C245.434 278.886 211.715 296 174 296C136.285 296 102.566 278.886 80.1876 252H267.812ZM294.022 196H53.9784C52.6788 188.864 52 181.511 52 174C52 106.621 106.621 52 174 52C241.379 52 296 106.621 296 174C296 181.511 295.321 188.864 294.022 196ZM53.6884 208.091V209.748H57.0602V219H59.0204V209.748H62.3922V208.091H53.6884ZM72.6741 216.566C73.1144 215.728 73.3346 214.721 73.3346 213.545C73.3346 212.37 73.1144 211.365 72.6741 210.531C72.2373 209.692 71.6407 209.051 70.8843 208.608C70.1315 208.164 69.2774 207.942 68.3222 207.942C67.3669 207.942 66.5111 208.164 65.7547 208.608C65.0019 209.051 64.4053 209.692 63.9649 210.531C63.5281 211.365 63.3097 212.37 63.3097 213.545C63.3097 214.717 63.5281 215.722 63.9649 216.56C64.4053 217.395 65.0019 218.036 65.7547 218.483C66.5111 218.927 67.3669 219.149 68.3222 219.149C69.2774 219.149 70.1315 218.927 70.8843 218.483C71.6407 218.039 72.2373 217.4 72.6741 216.566ZM79.2939 208.091H75.2029V219H77.1792V215.314H79.2672C80.1088 215.314 80.8173 215.159 81.3926 214.85C81.9679 214.538 82.4029 214.11 82.6976 213.567C82.9924 213.023 83.1397 212.402 83.1397 211.702C83.1397 211.01 82.9924 210.392 82.6976 209.849C82.4064 209.302 81.975 208.872 81.4032 208.56C80.8351 208.247 80.1319 208.091 79.2939 208.091ZM90.9953 208.091H88.577V219H90.4733V211.489H90.5745L93.5894 218.968H95.0063L98.0212 211.505H98.1224V219H100.019V208.091H97.6004L94.3618 215.996H94.2339L90.9953 208.091ZM111.258 216.566C111.698 215.728 111.919 214.721 111.919 213.545C111.919 212.37 111.698 211.365 111.258 210.531C110.821 209.692 110.225 209.051 109.468 208.608C108.715 208.164 107.861 207.942 106.906 207.942C105.951 207.942 105.095 208.164 104.339 208.608C103.586 209.051 102.989 209.692 102.549 210.531C102.112 211.365 101.894 212.37 101.894 213.545C101.894 214.717 102.112 215.722 102.549 216.56C102.989 217.395 103.586 218.036 104.339 218.483C105.095 218.927 105.951 219.149 106.906 219.149C107.861 219.149 108.715 218.927 109.468 218.483C110.225 218.039 110.821 217.4 111.258 216.566ZM117.963 208.091H113.787V219H118.203C119.037 219 119.73 218.87 120.28 218.611C120.831 218.352 121.243 217.999 121.516 217.551C121.789 217.1 121.926 216.592 121.926 216.028C121.926 215.474 121.812 215.001 121.585 214.611C121.358 214.22 121.065 213.918 120.706 213.705C120.351 213.489 119.98 213.37 119.593 213.348V213.242C119.948 213.157 120.27 213.016 120.557 212.821C120.845 212.626 121.074 212.372 121.244 212.059C121.415 211.743 121.5 211.363 121.5 210.919C121.5 210.38 121.369 209.897 121.106 209.471C120.847 209.044 120.454 208.709 119.929 208.464C119.407 208.215 118.751 208.091 117.963 208.091ZM123.645 219H125.622V208.091H123.645V219ZM129.738 208.091H127.762V219H134.542V217.343H129.738V208.091ZM143.353 208.091H136.258V219H143.395V217.343H138.234V214.366H142.985V212.709H138.234V209.748H143.353V208.091ZM148.381 219H150.491L151.393 216.31H155.494L156.398 219H158.507L154.661 208.091H152.222L148.381 219ZM164.035 208.091H159.944V219H161.92V215.314H164.008C164.85 215.314 165.559 215.159 166.134 214.85C166.709 214.538 167.144 214.11 167.439 213.567C167.734 213.023 167.881 212.402 167.881 211.702C167.881 211.01 167.734 210.392 167.439 209.849C167.148 209.302 166.716 208.872 166.144 208.56C165.576 208.247 164.873 208.091 164.035 208.091ZM173.688 208.091H169.597V219H171.574V215.314H173.662C174.503 215.314 175.212 215.159 175.787 214.85C176.362 214.538 176.797 214.11 177.092 213.567C177.387 213.023 177.534 212.402 177.534 211.702C177.534 211.01 177.387 210.392 177.092 209.849C176.801 209.302 176.369 208.872 175.798 208.56C175.23 208.247 174.526 208.091 173.688 208.091ZM182.971 219H186.668C187.776 219 188.724 218.782 189.513 218.345C190.305 217.908 190.91 217.281 191.329 216.464C191.752 215.648 191.963 214.671 191.963 213.535C191.963 212.402 191.753 211.429 191.334 210.616C190.915 209.803 190.315 209.179 189.534 208.746C188.756 208.309 187.826 208.091 186.743 208.091H182.971V219ZM200.936 208.091H193.841V219H200.978V217.343H195.817V214.366H200.568V212.709H195.817V209.748H200.936V208.091ZM207.251 216.678L204.411 208.091H202.244L206.084 219H208.524L212.37 208.091H210.196L207.362 216.678H207.251ZM220.902 208.091H213.806V219H220.944V217.343H215.783V214.366H220.534V212.709H215.783V209.748H220.902V208.091ZM222.918 208.091V219H229.699V217.343H224.894V208.091H222.918ZM240.076 216.566C240.517 215.728 240.737 214.721 240.737 213.545C240.737 212.37 240.517 211.365 240.076 210.531C239.64 209.692 239.043 209.051 238.287 208.608C237.534 208.164 236.68 207.942 235.725 207.942C234.769 207.942 233.913 208.164 233.157 208.608C232.404 209.051 231.808 209.692 231.367 210.531C230.93 211.365 230.712 212.37 230.712 213.545C230.712 214.717 230.93 215.722 231.367 216.56C231.808 217.395 232.404 218.036 233.157 218.483C233.913 218.927 234.769 219.149 235.725 219.149C236.68 219.149 237.534 218.927 238.287 218.483C239.043 218.039 239.64 217.4 240.076 216.566ZM246.696 208.091H242.605V219H244.581V215.314H246.67C247.511 215.314 248.22 215.159 248.795 214.85C249.37 214.538 249.805 214.11 250.1 213.567C250.395 213.023 250.542 212.402 250.542 211.702C250.542 211.01 250.395 210.392 250.1 209.849C249.809 209.302 249.377 208.872 248.806 208.56C248.237 208.247 247.534 208.091 246.696 208.091ZM254.677 208.091H252.259V219H254.155V211.489H254.256L257.271 218.968H258.688L261.703 211.505H261.804V219H263.7V208.091H261.282L258.043 215.996H257.916L254.677 208.091ZM272.948 208.091H265.852V219H272.99V217.343H267.829V214.366H272.58V212.709H267.829V209.748H272.948V208.091ZM282.171 219H283.929V208.091H281.963V215.527H281.867L276.732 208.091H274.964V219H276.94V211.569H277.03L282.171 219ZM285.602 208.091V209.748H288.974V219H290.934V209.748H294.306V208.091H285.602ZM107.151 231.772H109.143C109.061 231.164 108.887 230.625 108.621 230.152C108.358 229.676 108.022 229.275 107.614 228.949C107.206 228.618 106.74 228.368 106.218 228.197C105.696 228.027 105.132 227.942 104.524 227.942C103.573 227.942 102.72 228.164 101.968 228.608C101.215 229.051 100.62 229.692 100.183 230.531C99.7464 231.365 99.528 232.37 99.528 233.545C99.528 234.717 99.7446 235.722 100.178 236.56C100.611 237.398 101.204 238.039 101.957 238.483C102.71 238.927 103.566 239.149 104.524 239.149C105.174 239.149 105.766 239.053 106.298 238.862C106.831 238.666 107.296 238.396 107.694 238.052C108.092 237.704 108.413 237.303 108.658 236.848C108.907 236.393 109.068 235.907 109.143 235.388L107.151 235.378C107.09 235.697 106.98 235.982 106.82 236.23C106.664 236.479 106.47 236.688 106.24 236.859C106.012 237.029 105.755 237.159 105.467 237.248C105.183 237.333 104.878 237.375 104.551 237.375C103.962 237.375 103.438 237.232 102.98 236.944C102.525 236.653 102.167 236.223 101.904 235.655C101.644 235.083 101.515 234.38 101.515 233.545C101.515 232.725 101.644 232.031 101.904 231.463C102.163 230.891 102.522 230.458 102.98 230.163C103.438 229.865 103.963 229.716 104.556 229.716C104.89 229.716 105.201 229.762 105.489 229.854C105.78 229.943 106.039 230.076 106.266 230.254C106.494 230.431 106.684 230.648 106.836 230.903C106.989 231.156 107.094 231.445 107.151 231.772ZM120.04 236.566C120.48 235.728 120.7 234.721 120.7 233.545C120.7 232.37 120.48 231.365 120.04 230.531C119.603 229.692 119.006 229.051 118.25 228.608C117.497 228.164 116.643 227.942 115.688 227.942C114.733 227.942 113.877 228.164 113.12 228.608C112.368 229.051 111.771 229.692 111.331 230.531C110.894 231.365 110.675 232.37 110.675 233.545C110.675 234.717 110.894 235.722 111.331 236.56C111.771 237.395 112.368 238.036 113.12 238.483C113.877 238.927 114.733 239.149 115.688 239.149C116.643 239.149 117.497 238.927 118.25 238.483C119.006 238.039 119.603 237.4 120.04 236.566ZM124.987 228.091H122.569V239H124.465V231.489H124.566L127.581 238.968H128.998L132.013 231.505H132.114V239H134.01V228.091H131.592L128.353 235.996H128.226L124.987 228.091ZM140.253 228.091H136.162V239H138.139V235.314H140.227C141.068 235.314 141.777 235.159 142.352 234.85C142.927 234.538 143.362 234.11 143.657 233.567C143.952 233.023 144.099 232.402 144.099 231.702C144.099 231.01 143.952 230.392 143.657 229.849C143.366 229.302 142.934 228.872 142.363 228.56C141.795 228.247 141.091 228.091 140.253 228.091ZM143.891 239H146.001L146.903 236.31H151.004L151.908 239H154.018L150.172 228.091H147.732L143.891 239ZM162.661 239H164.419V228.091H162.454V235.527H162.358L157.223 228.091H155.454V239H157.431V231.569H157.521L162.661 239ZM166.573 239H168.549V228.091H166.573V239ZM177.784 228.091H170.689V239H177.827V237.343H172.665V234.366H177.416V232.709H172.665V229.748H177.784V228.091ZM185.1 230.003C185.469 230.262 185.679 230.625 185.729 231.09H187.63C187.62 230.475 187.447 229.932 187.114 229.46C186.78 228.984 186.32 228.613 185.734 228.347C185.152 228.077 184.473 227.942 183.699 227.942C182.936 227.942 182.252 228.077 181.648 228.347C181.045 228.613 180.567 228.988 180.216 229.471C179.868 229.953 179.694 230.516 179.694 231.159C179.694 231.94 179.953 232.567 180.471 233.039C180.993 233.508 181.704 233.858 182.602 234.089L183.843 234.408C184.234 234.508 184.575 234.621 184.866 234.749C185.161 234.874 185.39 235.03 185.553 235.218C185.716 235.403 185.8 235.637 185.803 235.921C185.8 236.234 185.706 236.507 185.521 236.741C185.336 236.972 185.081 237.153 184.754 237.285C184.431 237.413 184.054 237.477 183.625 237.477C183.213 237.477 182.84 237.414 182.506 237.29C182.176 237.166 181.908 236.978 181.702 236.725C181.496 236.473 181.379 236.157 181.35 235.777H179.406C179.434 236.502 179.623 237.116 179.971 237.62C180.322 238.125 180.809 238.508 181.43 238.771C182.055 239.034 182.792 239.165 183.641 239.165C184.514 239.165 185.258 239.03 185.873 238.76C186.49 238.487 186.963 238.109 187.289 237.626C187.616 237.139 187.78 236.576 187.78 235.937C187.78 235.465 187.691 235.053 187.513 234.701C187.336 234.35 187.094 234.05 186.789 233.801C186.487 233.553 186.144 233.347 185.761 233.183C185.381 233.02 184.985 232.89 184.573 232.794L183.55 232.539C183.326 232.485 183.104 232.42 182.884 232.342C182.664 232.263 182.463 232.168 182.282 232.054C182.101 231.937 181.957 231.795 181.851 231.628C181.748 231.461 181.696 231.264 181.696 231.037C181.7 230.763 181.78 230.52 181.936 230.307C182.092 230.094 182.318 229.925 182.613 229.801C182.907 229.676 183.261 229.614 183.673 229.614C184.259 229.614 184.734 229.744 185.1 230.003ZM193.262 239H195.238V228.091H193.262V239ZM204.585 239H206.343V228.091H204.378V235.527H204.282L199.147 228.091H197.378V239H199.354V231.569H199.445L204.585 239ZM212.111 237.572V239H219.589V237.349H214.838V237.274L216.718 235.362C217.425 234.68 217.973 234.099 218.364 233.62C218.758 233.141 219.034 232.704 219.19 232.31C219.346 231.915 219.424 231.514 219.424 231.106C219.424 230.495 219.27 229.952 218.961 229.476C218.655 229 218.226 228.625 217.672 228.352C217.118 228.078 216.475 227.942 215.743 227.942C215.023 227.942 214.383 228.082 213.826 228.363C213.272 228.643 212.837 229.039 212.521 229.55C212.205 230.062 212.047 230.664 212.047 231.356H213.927C213.927 230.983 214 230.662 214.145 230.392C214.295 230.122 214.504 229.914 214.774 229.769C215.044 229.62 215.358 229.545 215.717 229.545C216.065 229.545 216.375 229.613 216.649 229.748C216.922 229.882 217.137 230.074 217.293 230.323C217.45 230.568 217.528 230.863 217.528 231.207C217.528 231.509 217.467 231.793 217.347 232.059C217.226 232.326 217.045 232.601 216.803 232.885C216.562 233.169 216.26 233.494 215.898 233.86L212.111 237.572ZM223.201 238.542C223.829 238.986 224.582 239.208 225.459 239.208C226.336 239.208 227.087 238.986 227.712 238.542C228.341 238.098 228.822 237.455 229.156 236.614C229.493 235.768 229.662 234.749 229.662 233.556C229.662 232.37 229.493 231.358 229.156 230.52C228.822 229.682 228.341 229.043 227.712 228.602C227.084 228.162 226.333 227.942 225.459 227.942C224.586 227.942 223.835 228.162 223.206 228.602C222.581 229.043 222.1 229.682 221.763 230.52C221.429 231.354 221.26 232.366 221.257 233.556C221.257 234.746 221.423 235.763 221.757 236.608C222.095 237.45 222.576 238.094 223.201 238.542ZM231.432 237.572V239H238.911V237.349H234.159V237.274L236.039 235.362C236.746 234.68 237.295 234.099 237.685 233.62C238.08 233.141 238.355 232.704 238.511 232.31C238.667 231.915 238.745 231.514 238.745 231.106C238.745 230.495 238.591 229.952 238.282 229.476C237.977 229 237.547 228.625 236.993 228.352C236.439 228.078 235.796 227.942 235.065 227.942C234.344 227.942 233.705 228.082 233.147 228.363C232.593 228.643 232.158 229.039 231.842 229.55C231.526 230.062 231.368 230.664 231.368 231.356H233.248C233.248 230.983 233.321 230.662 233.467 230.392C233.616 230.122 233.825 229.914 234.095 229.769C234.365 229.62 234.679 229.545 235.038 229.545C235.386 229.545 235.697 229.613 235.97 229.748C236.244 229.882 236.458 230.074 236.615 230.323C236.771 230.568 236.849 230.863 236.849 231.207C236.849 231.509 236.789 231.793 236.668 232.059C236.547 232.326 236.366 232.601 236.125 232.885C235.883 233.169 235.581 233.494 235.219 233.86L231.432 237.572ZM242.634 238.75C243.195 239.016 243.831 239.149 244.541 239.149C245.311 239.149 245.99 238.989 246.576 238.67C247.165 238.347 247.625 237.904 247.955 237.343C248.289 236.779 248.456 236.136 248.456 235.415C248.456 234.716 248.307 234.094 248.009 233.551C247.71 233.007 247.302 232.581 246.783 232.272C246.265 231.96 245.675 231.804 245.015 231.804C244.575 231.804 244.17 231.884 243.8 232.043C243.431 232.2 243.145 232.397 242.943 232.635H242.879L243.193 229.742H247.886V228.091H241.558L240.988 233.716L242.772 234.009C242.957 233.806 243.207 233.643 243.523 233.519C243.84 233.395 244.161 233.334 244.488 233.338C244.889 233.338 245.244 233.43 245.553 233.615C245.862 233.796 246.105 234.046 246.283 234.366C246.46 234.685 246.547 235.051 246.544 235.463C246.547 235.868 246.462 236.228 246.288 236.544C246.114 236.86 245.876 237.107 245.574 237.285C245.272 237.462 244.928 237.551 244.541 237.551C244.047 237.551 243.625 237.411 243.273 237.13C242.922 236.846 242.728 236.48 242.693 236.033H240.775C240.796 236.637 240.97 237.173 241.297 237.642C241.627 238.11 242.073 238.48 242.634 238.75Z" fill="white"/>
</svg>
