<svg width="769" height="881" viewBox="0 0 769 881" fill="none" xmlns="http://www.w3.org/2000/svg">
<path opacity="0.2" d="M139.93 65.1064C326.27 -121.233 629.464 -121.233 815.804 65.1064C1002.14 251.446 1002.14 554.64 815.804 740.98C629.464 927.32 326.27 927.32 139.93 740.98C-46.4093 554.64 -46.4093 251.446 139.93 65.1064ZM147.357 72.5336C-34.8842 254.775 -34.8878 551.308 147.357 733.553C147.766 733.961 148.197 734.333 148.606 734.74C87.3544 649.521 56.1029 546.365 60.2187 440.266C64.8534 320.786 113.997 208.388 198.604 123.78C283.212 39.1729 395.61 -9.97056 515.094 -14.6089C621.183 -18.721 724.332 12.5268 809.55 73.7675C809.148 73.3627 808.78 72.937 808.377 72.5336C626.132 -109.712 329.603 -109.712 147.357 72.5336ZM267.916 820.545C187.381 641.501 225.754 429.744 365.161 290.337C504.566 150.932 716.329 112.556 895.368 193.088C889.784 181.963 883.749 171.015 877.221 160.276C693.373 55.9045 462.032 86.8816 311.869 237.045C161.706 387.208 130.725 618.551 235.099 802.396C245.84 808.925 256.789 814.961 267.916 820.545ZM308.274 838.465C248.372 667.012 291.952 474.577 420.676 345.852C549.396 217.132 741.829 173.552 913.288 233.445C908.679 221.56 903.553 209.84 897.936 198.292C719.427 115.945 507.142 153.549 367.758 292.934C228.375 432.316 190.77 644.605 273.12 823.113C284.668 828.73 296.388 833.855 308.274 838.465ZM351.465 852.83C311.156 691.433 358.461 519.106 476.195 401.371C593.932 283.634 766.258 236.33 927.654 276.637C924.071 263.804 919.913 251.11 915.217 238.564C744.45 177.476 552.062 220.414 423.65 348.826C295.229 477.247 252.292 669.636 313.393 840.393C325.939 845.089 338.633 849.248 351.465 852.83ZM397.862 863.261C375.763 714.627 425.432 563.172 531.714 456.89C637.997 350.608 789.449 300.943 938.086 323.038C935.698 309.187 932.683 295.434 929.046 281.805C768.525 240.761 596.722 287.532 479.539 404.715C362.361 521.893 315.591 693.693 356.624 854.22C370.255 857.858 384.01 860.874 397.862 863.261ZM448.249 869.187C442.552 736.207 492.872 606.401 587.048 512.224C681.224 418.049 811.029 367.728 944.011 373.421C943.064 358.373 941.391 343.373 938.999 328.457C791.462 305.969 640.937 355.095 535.428 460.604C429.916 566.116 380.792 716.638 403.281 864.174C418.198 866.566 433.2 868.24 448.249 869.187ZM309.642 234.818C459.437 85.0234 689.482 53.0304 873.74 154.7C867.041 144.024 859.925 133.543 852.281 123.324C764.48 64.1857 658.417 36.1987 552.099 44.5619C440.448 53.3418 335.286 101.851 255.98 181.156C176.675 260.462 128.162 365.628 119.389 477.272C111.023 583.593 139.01 689.656 198.148 777.457C208.367 785.1 218.848 792.217 229.524 798.916C127.855 614.658 159.841 384.62 309.642 234.818ZM116.764 477.069C125.598 364.79 174.375 259.047 254.123 179.299C333.868 99.555 439.618 50.7706 551.889 41.9436C656.116 33.7462 760.144 60.2037 847.108 116.64C837.957 104.858 828.166 93.427 817.731 82.3747C731.143 16.8387 624.724 -16.7613 515.177 -12.5091C396.223 -7.89252 284.322 41.0369 200.091 125.267C115.861 209.498 66.9314 321.399 62.3184 440.35C58.0662 549.903 91.6672 656.333 157.214 742.922C168.263 753.352 179.689 763.138 191.465 772.286C135.03 685.318 108.57 581.293 116.764 477.069ZM568.357 861.437C587.396 770.989 632.029 688.565 697.709 622.885C763.394 557.2 845.811 512.571 936.261 493.539C939.935 474.781 942.348 455.836 943.714 436.826C831.966 445.268 726.997 493.33 647.575 572.752C568.151 652.176 520.096 757.138 511.651 868.888C530.659 867.522 549.601 865.11 568.357 861.437ZM647.299 838.526C671.314 778.371 706.835 724.427 753.043 678.219C799.251 632.011 853.199 596.486 913.351 572.475C922.192 549.654 929.158 526.284 934.289 502.578C846.899 521.703 767.286 565.203 703.657 628.833C640.032 692.457 596.531 772.074 577.397 859.464C601.104 854.334 624.477 847.367 647.299 838.526ZM908.368 584.825C852.833 608.264 802.833 641.803 759.73 684.906C716.63 728.007 683.088 778.01 659.654 833.541C713.73 810.788 764.399 777.53 808.377 733.553C852.356 689.574 885.615 638.903 908.368 584.825ZM504.225 869.42C512.569 755.519 561.46 648.481 642.382 567.558C723.309 486.632 830.34 437.748 944.244 429.402C945.171 412.861 945.282 396.285 944.463 379.74C812.988 373.907 684.601 423.579 591.502 516.678C498.398 609.781 448.734 738.163 454.568 869.639C471.111 870.457 487.686 870.346 504.225 869.42Z" fill="white"/>
</svg>
