<svg width="639" height="100" viewBox="0 0 639 100" fill="none" xmlns="http://www.w3.org/2000/svg">
<path d="M157.674 77.4521V94.0326H147.726C140.637 94.0326 135.11 92.3173 131.146 88.8869C127.182 85.3802 125.2 79.7009 125.2 71.849V46.4637H117.424V30.2263H125.2V14.6749H144.753V30.2263H157.56V46.4637H144.753V72.0777C144.753 73.9835 145.21 75.3557 146.125 76.1942C147.04 77.0328 148.565 77.4521 150.699 77.4521H157.674Z" fill="#19191B"/>
<path d="M188.84 40.8607C191.126 37.354 193.985 34.6096 197.416 32.6276C200.846 30.5693 204.658 29.5402 208.85 29.5402V50.2372H203.476C198.597 50.2372 194.938 51.3045 192.499 53.4389C190.059 55.4972 188.84 59.1564 188.84 64.4164V94.0326H169.286V30.2263H188.84V40.8607Z" fill="#19191B"/>
<path d="M217.105 62.0151C217.105 55.4591 218.325 49.7036 220.765 44.7485C223.28 39.7934 226.673 35.9818 230.942 33.3137C235.211 30.6455 239.975 29.3115 245.235 29.3115C249.733 29.3115 253.659 30.2263 257.013 32.0558C260.443 33.8854 263.073 36.2867 264.903 39.2598V30.2263H284.456V94.0326H264.903V84.999C262.997 87.9721 260.329 90.3734 256.899 92.203C253.544 94.0326 249.618 94.9473 245.121 94.9473C239.937 94.9473 235.211 93.6133 230.942 90.9452C226.673 88.2008 223.28 84.3511 220.765 79.396C218.325 74.3647 217.105 68.571 217.105 62.0151ZM264.903 62.1294C264.903 57.2506 263.531 53.4008 260.786 50.5802C258.118 47.7597 254.84 46.3494 250.952 46.3494C247.065 46.3494 243.749 47.7597 241.004 50.5802C238.336 53.3246 237.002 57.1362 237.002 62.0151C237.002 66.8939 238.336 70.7818 241.004 73.6786C243.749 76.4992 247.065 77.9095 250.952 77.9095C254.84 77.9095 258.118 76.4992 260.786 73.6786C263.531 70.858 264.903 67.0083 264.903 62.1294Z" fill="#19191B"/>
<path d="M326.789 75.7368L340.625 30.2263H361.436L338.796 94.0326H314.668L292.027 30.2263H312.953L326.789 75.7368Z" fill="#19191B"/>
<path d="M428.076 61.1003C428.076 62.9298 427.961 64.8357 427.733 66.8177H383.48C383.785 70.7818 385.043 73.831 387.253 75.9655C389.54 78.0238 392.323 79.0529 395.601 79.0529C400.48 79.0529 403.872 76.9947 405.778 72.8781H426.589C425.522 77.0709 423.578 80.8444 420.757 84.1986C418.013 87.5528 414.544 90.1828 410.352 92.0886C406.159 93.9944 401.471 94.9473 396.287 94.9473C390.036 94.9473 384.471 93.6133 379.592 90.9452C374.713 88.277 370.901 84.4654 368.157 79.5103C365.413 74.5552 364.041 68.7616 364.041 62.1294C364.041 55.4972 365.375 49.7036 368.043 44.7485C370.787 39.7934 374.599 35.9818 379.478 33.3137C384.356 30.6455 389.959 29.3115 396.287 29.3115C402.462 29.3115 407.95 30.6074 412.753 33.1993C417.556 35.7912 421.291 39.4885 423.959 44.2911C426.703 49.0937 428.076 54.6968 428.076 61.1003ZM408.065 55.9546C408.065 52.6004 406.921 49.9323 404.634 47.9502C402.347 45.9682 399.488 44.9772 396.058 44.9772C392.78 44.9772 389.998 45.9301 387.711 47.8359C385.5 49.7417 384.128 52.4479 383.594 55.9546H408.065Z" fill="#19191B"/>
<path d="M455.35 9.41491V94.0326H435.797V9.41491H455.35Z" fill="#19191B"/>
<path d="M487.11 39.2598C488.94 36.2867 491.57 33.8854 495 32.0558C498.431 30.2263 502.357 29.3115 506.778 29.3115C512.038 29.3115 516.803 30.6455 521.072 33.3137C525.341 35.9818 528.695 39.7934 531.134 44.7485C533.65 49.7036 534.908 55.4591 534.908 62.0151C534.908 68.571 533.65 74.3647 531.134 79.396C528.695 84.3511 525.341 88.2008 521.072 90.9452C516.803 93.6133 512.038 94.9473 506.778 94.9473C502.281 94.9473 498.355 94.0707 495 92.3173C491.646 90.4878 489.016 88.0864 487.11 85.1134V94.0326H467.557V9.41491H487.11V39.2598ZM515.011 62.0151C515.011 57.1362 513.639 53.3246 510.895 50.5802C508.227 47.7597 504.911 46.3494 500.947 46.3494C497.059 46.3494 493.743 47.7597 490.998 50.5802C488.33 53.4008 486.996 57.2506 486.996 62.1294C486.996 67.0083 488.33 70.858 490.998 73.6786C493.743 76.4992 497.059 77.9095 500.947 77.9095C504.834 77.9095 508.15 76.4992 510.895 73.6786C513.639 70.7818 515.011 66.8939 515.011 62.0151Z" fill="#19191B"/>
<path d="M551.85 23.5941C548.42 23.5941 545.599 22.6031 543.388 20.621C541.254 18.5628 540.187 16.0471 540.187 13.0741C540.187 10.0248 541.254 7.5091 543.388 5.52707C545.599 3.4688 548.42 2.43967 551.85 2.43967C555.204 2.43967 557.949 3.4688 560.083 5.52707C562.294 7.5091 563.399 10.0248 563.399 13.0741C563.399 16.0471 562.294 18.5628 560.083 20.621C557.949 22.6031 555.204 23.5941 551.85 23.5941ZM561.57 30.2263V94.0326H542.016V30.2263H561.57Z" fill="#19191B"/>
<path d="M570.769 62.0151C570.769 55.4591 571.988 49.7036 574.428 44.7485C576.944 39.7934 580.336 35.9818 584.605 33.3137C588.874 30.6455 593.638 29.3115 598.898 29.3115C603.091 29.3115 606.903 30.1882 610.333 31.9415C613.84 33.6948 616.584 36.058 618.566 39.0311V9.41491H638.12V94.0326H618.566V84.8847C616.737 87.934 614.107 90.3734 610.676 92.203C607.322 94.0326 603.396 94.9473 598.898 94.9473C593.638 94.9473 588.874 93.6133 584.605 90.9452C580.336 88.2008 576.944 84.3511 574.428 79.396C571.988 74.3647 570.769 68.571 570.769 62.0151ZM618.566 62.1294C618.566 57.2506 617.194 53.4008 614.45 50.5802C611.782 47.7597 608.504 46.3494 604.616 46.3494C600.728 46.3494 597.412 47.7597 594.667 50.5802C591.999 53.3246 590.665 57.1362 590.665 62.0151C590.665 66.8939 591.999 70.7818 594.667 73.6786C597.412 76.4992 600.728 77.9095 604.616 77.9095C608.504 77.9095 611.782 76.4992 614.45 73.6786C617.194 70.858 618.566 67.0083 618.566 62.1294Z" fill="#19191B"/>
<path fill-rule="evenodd" clip-rule="evenodd" d="M20.0367 28.6364C20.0367 18.7986 12.0617 10.8236 2.22393 10.8236H0.0332207V29.5897H0.0317752L0.0332207 38.3179C0.0332207 44.6777 5.18885 49.8333 11.5486 49.8333H20.3745L20.3069 49.8859H20.3759V49.7492L77.1893 49.7489C78.5067 49.749 79.8111 49.4875 81.028 48.981C82.2448 48.4739 83.3504 47.7317 84.2818 46.7956C85.213 45.859 85.9517 44.748 86.455 43.5252C86.9589 42.3022 87.2185 40.9912 87.2179 39.6675C87.218 38.3436 86.9586 37.0332 86.454 35.8105C85.95 34.5875 85.2106 33.476 84.2793 32.5406C83.3479 31.6046 82.2418 30.8625 81.0248 30.3561C79.8077 29.8497 78.5034 29.5894 77.186 29.5893L63.7185 29.5873L49.19 6.47091C47.3287 3.50935 44.0762 1.71198 40.5783 1.71198H27.7372L36.4991 29.5921L21.9184 29.5886L20.0367 29.5887V28.6364ZM20.3305 49.9411L0 65.7855V77.1973C0 85.2684 2.02734 91.1062 6.08201 94.7107C10.1367 98.2369 15.7898 100 23.0414 100H33.5471V82.9568H26.4125C24.2292 82.9568 22.6697 82.5258 21.734 81.6638C20.7983 80.8019 20.3305 79.3914 20.3305 77.4324V51.1036V49.9411Z" fill="url(#paint0_linear_124_917)"/>
<defs>
<linearGradient id="paint0_linear_124_917" x1="8.9386e-07" y1="50.492" x2="87.2179" y2="50.492" gradientUnits="userSpaceOnUse">
<stop stop-color="#FF008A"/>
<stop offset="1" stop-color="#FF7B02"/>
</linearGradient>
</defs>
</svg>
