<svg viewBox="0 0 48 49" fill="none" xmlns="http://www.w3.org/2000/svg">
<g clip-path="url(#clip0_37_3095)">
<path d="M15.5571 8.45898C15.5571 7.21656 16.5338 6.20898 17.7428 6.20898C18.9517 6.20898 19.9285 7.21656 19.9285 8.45898V10.709H28.6713V8.45898C28.6713 7.21656 29.6481 6.20898 30.8571 6.20898C32.066 6.20898 33.0428 7.21656 33.0428 8.45898V10.709H36.3213C38.1314 10.709 39.5999 12.22 39.5999 14.084V17.459H8.99991V14.084C8.99991 12.22 10.4678 10.709 12.2785 10.709H15.5571V8.45898ZM39.5999 38.834C39.5999 40.6973 38.1314 42.209 36.3213 42.209H12.2785C10.4678 42.209 8.99991 40.6973 8.99991 38.834V19.709H39.5999V38.834Z" fill="#A390F0"/>
</g>
<defs>
<clipPath id="clip0_37_3095">
<rect width="30.6" height="36" fill="white" transform="translate(8.99991 6.20898)"/>
</clipPath>
</defs>
</svg>
