<svg viewBox="0 0 42 43" fill="none" xmlns="http://www.w3.org/2000/svg">
<g clip-path="url(#clip0_37_3069)">
<path d="M21 29.0952C28.2487 29.0952 34.125 23.219 34.125 15.9702C34.125 8.72148 28.2487 2.84521 21 2.84521C13.7513 2.84521 7.875 8.72148 7.875 15.9702C7.875 23.219 13.7513 29.0952 21 29.0952Z" fill="#A390F0"/>
<path d="M33.9948 28.9639C34.221 28.7142 34.3426 28.3871 34.3343 28.0503C34.326 27.7135 34.1885 27.3928 33.9503 27.1545C33.712 26.9163 33.3913 26.7788 33.0545 26.7705C32.7177 26.7622 32.3906 26.8838 32.1409 27.11C29.1864 30.0644 25.1793 31.7243 21.0011 31.7243C16.8228 31.7243 12.8157 30.0644 9.86122 27.11C6.90675 24.1555 5.24695 20.1484 5.24695 15.9701C5.24695 11.7919 6.90675 7.78476 9.86122 4.83029C9.99298 4.71091 10.0991 4.566 10.1732 4.40436C10.2472 4.24272 10.2877 4.06772 10.292 3.88997C10.2964 3.71223 10.2646 3.53545 10.1986 3.37036C10.1326 3.20527 10.0337 3.05531 9.90802 2.92959C9.78229 2.80387 9.63234 2.705 9.46725 2.63898C9.30216 2.57297 9.12538 2.54119 8.94763 2.54556C8.76989 2.54994 8.59489 2.59038 8.43325 2.66444C8.27161 2.7385 8.1267 2.84463 8.00731 2.97639C5.51707 5.46723 3.79517 8.62131 3.04667 12.063C2.29817 15.5047 2.55461 19.0891 3.78545 22.3892C5.01629 25.6893 7.16966 28.5661 9.98914 30.677C12.8086 32.788 16.1754 34.0442 19.6886 34.2959L19.6886 36.9701H15.7511C15.403 36.9701 15.0691 37.1084 14.823 37.3546C14.5768 37.6007 14.4386 37.9345 14.4386 38.2826C14.4386 38.6307 14.5768 38.9646 14.823 39.2107C15.0691 39.4569 15.403 39.5951 15.7511 39.5951H26.2511C26.5992 39.5951 26.933 39.4569 27.1791 39.2107C27.4253 38.9646 27.5636 38.6307 27.5636 38.2826C27.5636 37.9345 27.4253 37.6007 27.1791 37.3546C26.933 37.1084 26.5992 36.9701 26.2511 36.9701H22.3136L22.3136 34.2959C26.7233 33.987 30.8724 32.0931 33.9948 28.9639Z" fill="#A390F0"/>
</g>
<defs>
<clipPath id="clip0_37_3069">
<rect width="42" height="42" fill="white" transform="translate(0 0.220215)"/>
</clipPath>
</defs>
</svg>
