<svg viewBox="0 0 44 45" fill="none" xmlns="http://www.w3.org/2000/svg">
<path d="M32.3719 9.82669C26.6446 4.19286 17.3588 4.19286 11.6314 9.82669C5.9041 15.4624 5.9041 24.5979 11.6314 30.2317L22.0008 40.4342L32.3719 30.2317C38.0993 24.5979 38.0993 15.4624 32.3719 9.82669ZM22.0008 24.8509C20.7761 24.8509 19.6266 24.3742 18.7594 23.5089C16.9719 21.7214 16.9719 18.8137 18.7594 17.0262C19.6248 16.1609 20.7761 15.6842 22.0008 15.6842C23.2254 15.6842 24.3768 16.1609 25.2421 17.0262C27.0296 18.8137 27.0296 21.7232 25.2421 23.5089C24.3768 24.3742 23.2254 24.8509 22.0008 24.8509Z" fill="#A390F0"/>
</svg>
