<svg viewBox="0 0 100 92" fill="none" xmlns="http://www.w3.org/2000/svg">
<path d="M2.5605 46.0351C2.5605 61.6182 10.0376 71.9604 22.6159 71.9604C35.1244 71.9604 42.6015 61.6182 42.6015 46.0351C42.6015 30.5218 34.9846 20.0399 22.6159 20.0399C10.1774 20.0399 2.5605 30.5218 2.5605 46.0351ZM7.52195 46.0351C7.52195 32.9676 13.0424 24.6519 22.6159 24.6519C32.1894 24.6519 37.7099 32.9676 37.7099 46.0351C37.7099 59.0327 32.1894 67.4182 22.6159 67.4182C13.0424 67.4182 7.52195 59.0327 7.52195 46.0351Z" fill="#9B8CD7"/>
<path d="M63.5517 44.2182C72.4963 44.2182 77.3879 48.4808 77.3879 55.329C77.3879 62.5965 72.5662 67.3483 65.0891 67.3483C58.0312 67.3483 53.5589 63.0158 53.5589 55.8182H48.5975C48.5975 65.811 55.2361 71.8905 65.0891 71.8905C75.2216 71.8905 82.4891 65.3917 82.4891 55.4688C82.4891 46.3845 75.7806 40.4447 66.4168 39.9555L81.371 25.0712V21.0182H51.0433V25.4905H75.012L59.5686 40.7242V44.2182H63.5517Z" fill="#9B8CD7"/>
<path d="M93.0371 71.8206C95.413 71.8206 97.4395 69.864 97.4395 67.558C97.4395 65.1821 95.413 63.1556 93.0371 63.1556C90.6612 63.1556 88.6347 65.1821 88.6347 67.558C88.6347 69.864 90.6612 71.8206 93.0371 71.8206Z" fill="#9B8CD7"/>
</svg>
