<svg viewBox="0 0 100 92" fill="none" xmlns="http://www.w3.org/2000/svg">
<path d="M4.005 46.064C4.005 60.464 11.109 70 23.077 70C34.981 70 42.085 60.464 42.085 46.064C42.085 31.728 34.661 22 23.077 22C11.429 22 4.005 31.728 4.005 46.064ZM10.213 46.064C10.213 34.544 14.949 27.632 23.077 27.632C31.205 27.632 35.877 34.544 35.877 46.064C35.877 57.456 31.205 64.368 23.077 64.368C14.949 64.368 10.213 57.456 10.213 46.064Z" fill="#9B8CD7"/>
<path d="M79.42 69.104V63.28H58.044L67.644 54.96C75.836 47.856 79.1 43.184 79.1 36.592C79.1 27.696 73.148 22.064 63.868 22.064C54.46 22.064 48.188 28.528 47.996 38.448H54.268C54.396 31.856 58.108 27.696 63.804 27.696C69.372 27.696 72.7 31.152 72.7 36.976C72.7 41.904 70.588 45.04 63.1 51.504L48.188 64.368V69.168L79.42 69.104Z" fill="#9B8CD7"/>
<path d="M91.451 69.936C93.883 69.936 95.995 67.888 95.995 65.456C95.995 62.96 93.883 60.912 91.451 60.912C88.955 60.912 86.843 62.96 86.843 65.456C86.843 67.888 88.955 69.936 91.451 69.936Z" fill="#9B8CD7"/>
</svg>
