<svg viewBox="0 0 100 92" fill="none" xmlns="http://www.w3.org/2000/svg">
<path d="M11.0363 46.064C11.0363 60.464 18.1403 70 30.1083 70C42.0123 70 49.1163 60.464 49.1163 46.064C49.1163 31.728 41.6923 22 30.1083 22C18.4603 22 11.0363 31.728 11.0363 46.064ZM17.2443 46.064C17.2443 34.544 21.9803 27.632 30.1083 27.632C38.2363 27.632 42.9083 34.544 42.9083 46.064C42.9083 57.456 38.2363 64.368 30.1083 64.368C21.9803 64.368 17.2443 57.456 17.2443 46.064Z" fill="#9B8CD7"/>
<path d="M64.2433 28.528V69.168H70.2593V22.896H54.5153V28.528H64.2433Z" fill="#9B8CD7"/>
<path d="M84.4198 69.936C86.8518 69.936 88.9638 67.888 88.9638 65.456C88.9638 62.96 86.8518 60.912 84.4198 60.912C81.9238 60.912 79.8118 62.96 79.8118 65.456C79.8118 67.888 81.9238 69.936 84.4198 69.936Z" fill="#9B8CD7"/>
</svg>
