<svg width="24" height="24" viewBox="0 0 24 24" fill="none" xmlns="http://www.w3.org/2000/svg">
<circle cx="12" cy="11.5601" r="7.6" stroke="white" stroke-width="0.8"/>
<path d="M14.7998 11.5601C14.7998 13.7313 14.447 15.6786 13.8912 17.0684C13.6128 17.7643 13.2913 18.3007 12.9548 18.6565C12.619 19.0115 12.2962 19.1601 11.9998 19.1601C11.7034 19.1601 11.3806 19.0115 11.0448 18.6565C10.7083 18.3007 10.3868 17.7643 10.1085 17.0684C9.55257 15.6786 9.1998 13.7313 9.1998 11.5601C9.1998 9.38878 9.55257 7.44148 10.1085 6.05176C10.3868 5.35579 10.7083 4.81942 11.0448 4.46358C11.3806 4.10859 11.7034 3.96006 11.9998 3.96006C12.2962 3.96006 12.619 4.10859 12.9548 4.46358C13.2913 4.81942 13.6128 5.35579 13.8912 6.05176C14.447 7.44148 14.7998 9.38878 14.7998 11.5601Z" stroke="white" stroke-width="0.8"/>
<path d="M12 8.76013C14.1713 8.76013 16.1186 9.11289 17.5083 9.66878C18.2043 9.94717 18.7406 10.2687 19.0965 10.6052C19.4515 10.9409 19.6 11.2637 19.6 11.5601C19.6 11.8565 19.4515 12.1794 19.0965 12.5151C18.7406 12.8516 18.2043 13.1731 17.5083 13.4515C16.1186 14.0074 14.1713 14.3601 12 14.3601C9.82872 14.3601 7.88142 14.0074 6.4917 13.4515C5.79573 13.1731 5.25936 12.8516 4.90352 12.5151C4.54853 12.1794 4.4 11.8565 4.4 11.5601C4.4 11.2637 4.54853 10.9409 4.90352 10.6052C5.25936 10.2687 5.79573 9.94717 6.4917 9.66878C7.88142 9.11289 9.82872 8.76013 12 8.76013Z" stroke="white" stroke-width="0.8"/>
</svg>
