<svg viewBox="0 0 48 49" fill="none" xmlns="http://www.w3.org/2000/svg">
<path d="M6.85 26.8526L25.85 26.8545C27.3307 26.8545 28.5488 27.9824 28.6869 29.423L28.7 29.6966V33.4842C28.6981 40.1158 21.6396 42.0105 16.35 42.0105C11.178 42.0105 4.31293 40.1991 4.01036 33.9192L4 33.4842V29.6947C4 28.2181 5.13101 27.0034 6.57566 26.8657L6.85 26.8526ZM29.6272 26.8526H39.15C40.6307 26.8526 41.8488 27.9788 41.9869 29.4209L42 29.6947V32.5368C41.9981 38.3385 36.5698 40.1158 32.5 40.1158C31.208 40.1158 29.7811 39.9339 28.434 39.5057C29.6743 38.084 30.4788 36.2785 30.5875 34.0147L30.6 33.4842V29.6947C30.6 28.758 30.3163 27.8924 29.8419 27.1588L29.6272 26.8526ZM16.35 6.0105C21.0715 6.0105 24.9 9.82839 24.9 14.5368C24.9 19.2452 21.0715 23.0631 16.35 23.0631C11.6285 23.0631 7.8 19.2452 7.8 14.5368C7.8 9.82839 11.6285 6.0105 16.35 6.0105ZM33.45 9.79997C37.1227 9.79997 40.1 12.769 40.1 16.4316C40.1 20.0941 37.1227 23.0631 33.45 23.0631C29.7773 23.0631 26.8 20.0941 26.8 16.4316C26.8 12.769 29.7773 9.79997 33.45 9.79997Z" fill="#A390F0"/>
</svg>
