<svg width="44" height="30" viewBox="0 0 44 30" fill="none" xmlns="http://www.w3.org/2000/svg">
<path fill-rule="evenodd" clip-rule="evenodd" d="M7.36854 4.375C5.99895 4.375 4.88867 5.50121 4.88867 6.89024V22.4848C4.88867 23.8738 5.99895 25 7.36854 25H15.2653C16.1267 25 16.9006 24.4733 17.2166 23.6719L19.627 17.56C20.0113 16.5855 20.9523 15.9451 21.9998 15.9451C23.0473 15.9451 23.9883 16.5855 24.3726 17.56L26.7829 23.672C27.099 24.4733 27.8728 25 28.7343 25H36.631C38.0006 25 39.1109 23.8738 39.1109 22.4848V6.89024C39.1109 5.50121 38.0006 4.375 36.631 4.375H7.36854ZM18.28 14.436C18.28 16.6587 16.5036 18.4604 14.3122 18.4604C12.1208 18.4604 10.3444 16.6587 10.3444 14.436C10.3444 12.2133 12.1208 10.4116 14.3122 10.4116C16.5036 10.4116 18.28 12.2133 18.28 14.436ZM33.6552 14.436C33.6552 16.6587 31.8788 18.4604 29.6874 18.4604C27.496 18.4604 25.7196 16.6587 25.7196 14.436C25.7196 12.2133 27.496 10.4116 29.6874 10.4116C31.8788 10.4116 33.6552 12.2133 33.6552 14.436Z" fill="black"/>
</svg>
    