<svg width="72" height="48" viewBox="0 0 72 48" fill="none" xmlns="http://www.w3.org/2000/svg">
<path fill-rule="evenodd" clip-rule="evenodd" d="M10.3478 6C7.9466 6 6 7.91114 6 10.2683V36.7317C6 39.0889 7.9466 41 10.3478 41H24.2621C25.7337 41 27.0587 40.1091 27.6139 38.7463L31.8081 28.4526C32.5025 26.7484 34.1597 25.6341 36 25.6341C37.8403 25.6341 39.4975 26.7484 40.1919 28.4526L44.3861 38.7463C44.9413 40.1091 46.2663 41 47.7379 41H61.6522C64.0535 41 66 39.0889 66 36.7317V10.2683C66 7.91114 64.0535 6 61.6522 6H10.3478ZM29.4783 23.0732C29.4783 26.845 26.3638 29.9024 22.5217 29.9024C18.6798 29.9024 15.5652 26.845 15.5652 23.0732C15.5652 19.3013 18.6798 16.2439 22.5217 16.2439C26.3638 16.2439 29.4783 19.3013 29.4783 23.0732ZM56.4348 23.0732C56.4348 26.845 53.3203 29.9024 49.4783 29.9024C45.6362 29.9024 42.5217 26.845 42.5217 23.0732C42.5217 19.3013 45.6362 16.2439 49.4783 16.2439C53.3203 16.2439 56.4348 19.3013 56.4348 23.0732Z" fill="black"/>
</svg>
