<svg width="50" height="50" viewBox="0 0 50 50" fill="none" xmlns="http://www.w3.org/2000/svg">
<path fill-rule="evenodd" clip-rule="evenodd" d="M18.1069 15.0129C22.3603 14.9868 26.6146 15.0098 30.8686 15.0018C32.2997 14.9885 33.7459 15.0866 35.1268 15.4699C38.0961 16.2603 40.6594 18.3486 41.9657 21.0452C43.2714 23.676 43.3458 26.8471 42.1607 29.5318C41.0298 32.1681 38.7157 34.2985 35.9406 35.2717C34.3788 35.8405 32.6912 36.0091 31.0316 35.9995C26.9078 35.998 22.7831 36.0028 18.6593 35.9972C16.8718 35.9918 15.0533 35.7391 13.416 35.0183C11.1213 34.0468 9.20119 32.2695 8.10556 30.0918C6.89509 27.7485 6.67217 24.9543 7.46863 22.4533C8.10304 20.4656 9.35697 18.6583 11.05 17.3706C12.417 16.2967 14.07 15.5847 15.7927 15.2521C16.5589 15.134 17.3292 15.0217 18.1069 15.0129ZM15.7976 22.6798C15.1149 23.1233 14.615 23.8092 14.3863 24.5702C14.1405 25.4596 14.2478 26.4487 14.7511 27.2383C15.3502 28.2362 16.486 28.8594 17.662 28.9624L32.417 28.9552C33.2527 28.8435 34.0896 28.5276 34.6846 27.9329C35.2203 27.4355 35.5835 26.7655 35.6916 26.0543C35.9055 24.9243 35.4556 23.7086 34.563 22.953C33.792 22.2655 32.7159 21.9964 31.6866 21.9979C27.262 21.9979 22.8373 21.9964 18.4128 21.9988C17.5013 21.9884 16.5539 22.1643 15.7976 22.6798Z" fill="black"/>
</svg>
    