<svg width="62" height="37" viewBox="0 0 62 37" fill="none" xmlns="http://www.w3.org/2000/svg">
<path fill-rule="evenodd" clip-rule="evenodd" d="M19.1286 0.022718C26.4538 -0.0233077 33.7806 0.0172587 41.1071 0.00314868C43.5716 -0.0202841 46.0623 0.152648 48.4406 0.827915C53.5544 2.22044 57.9689 5.89998 60.2186 10.6511C62.4675 15.2864 62.5956 20.8735 60.5546 25.6036C58.6069 30.2486 54.6214 34.0022 49.8422 35.7169C47.1524 36.7189 44.2459 37.016 41.3878 36.9991C34.2856 36.9964 27.182 37.005 20.0799 36.995C17.0014 36.9855 13.8696 36.5403 11.0498 35.2703C7.09771 33.5586 3.79094 30.4273 1.90402 26.5904C-0.180679 22.4616 -0.564589 17.5386 0.807086 13.1321C1.89969 9.62982 4.05923 6.44565 6.97495 4.17678C9.32929 2.28461 12.1761 1.03024 15.143 0.444256C16.4625 0.236133 17.7892 0.0381719 19.1286 0.022718ZM15.1515 13.5311C13.9757 14.3125 13.1147 15.5209 12.7209 16.8618C12.2976 18.4288 12.4824 20.1715 13.3492 21.5626C14.3809 23.3209 16.337 24.419 18.3622 24.6003L43.7737 24.5878C45.213 24.3909 46.6544 23.8344 47.679 22.7866C48.6017 21.9101 49.2272 20.7297 49.4134 19.4766C49.7816 17.4856 49.0068 15.3437 47.4697 14.0125C46.1418 12.8011 44.2886 12.327 42.5158 12.3297C34.8957 12.3297 27.2753 12.327 19.6553 12.3311C18.0855 12.3129 16.454 12.6227 15.1515 13.5311Z" fill="black"/>
</svg>
    