<svg width="52" height="53" viewBox="0 0 52 53" fill="none" xmlns="http://www.w3.org/2000/svg">
<path d="M27.5505 0.362152C13.4149 -0.308693 1.42503 10.8804 0.769927 25.3521C0.11482 39.829 11.0414 52.107 25.1735 52.7778C39.3109 53.4487 51.3008 42.2595 51.9541 27.7879C52.6127 13.3109 41.6826 1.033 27.5505 0.362152ZM27.2475 7.04191C37.7782 7.54415 45.9233 16.6938 45.4328 27.4776C45.298 30.4103 44.543 33.16 43.3011 35.6013C39.5281 30.6919 30.8926 19.4633 30.8593 19.4185C27.3701 15.0903 22.1047 12.3154 16.207 12.2706C15.2681 12.2706 14.07 12.3495 13.1119 12.5019C16.7605 8.90378 21.7894 6.78362 27.2492 7.0455V7.04012L27.2475 7.04191ZM25.4766 46.0998C14.9458 45.5976 6.80077 36.4479 7.29122 25.6642C7.37705 23.7664 7.72387 21.9422 8.29665 20.2328C8.35971 20.1844 8.39825 20.1593 8.39825 20.1593C14.0017 15.9405 21.905 17.0095 26.2368 22.6436L39.8767 40.3779C36.2088 44.1393 31.0678 46.3671 25.4748 46.0998H25.4766Z" fill="#040000"/>
</svg>
