<svg width="31" height="32" viewBox="0 0 31 32" fill="none" xmlns="http://www.w3.org/2000/svg">
<path d="M16.1978 0.0173132C7.65755 -0.387989 0.413677 6.37211 0.0178836 15.1154C-0.37791 23.8619 6.22359 31.2798 14.7617 31.6851C23.3031 32.0904 30.5469 25.3303 30.9417 16.587C31.3396 7.84052 24.736 0.422616 16.1978 0.0173132ZM16.0147 4.053C22.3771 4.35644 27.298 9.88437 27.0017 16.3996C26.9202 18.1714 26.4641 19.8327 25.7138 21.3076C23.4343 18.3415 18.217 11.5576 18.1969 11.5305C16.0888 8.91555 12.9076 7.23907 9.34444 7.21198C8.77721 7.21198 8.05335 7.25966 7.47447 7.35177C9.67885 5.17788 12.7172 3.89695 16.0158 4.05517V4.05192L16.0147 4.053ZM14.9448 27.6505C8.58248 27.3471 3.66152 21.8191 3.95783 15.3039C4.00969 14.1574 4.21923 13.0553 4.56528 12.0225C4.60338 11.9932 4.62666 11.9781 4.62666 11.9781C8.01207 9.42922 12.787 10.0751 15.4041 13.479L23.6449 24.1935C21.4289 26.466 18.3228 27.812 14.9438 27.6505H14.9448Z" fill="#040000"/>
</svg>
