<svg width="50" height="50" viewBox="0 0 50 50" fill="none" xmlns="http://www.w3.org/2000/svg">
<path d="M41.65 35.1192L39.4391 38.8936C39.0489 39.6094 38.3337 40 37.5533 40H12.3893C11.609 40 10.8937 39.6094 10.5035 38.8936L8.29262 35.1192C7.90246 34.4684 7.90246 33.6226 8.29262 32.9068L20.9724 11.1064C21.3625 10.3906 22.0778 10 22.8582 10H27.2145C27.9948 10 28.7101 10.3906 29.1003 11.1064L41.715 32.9068C42.1052 33.5575 42.1052 34.4034 41.65 35.1192ZM34.1724 29.7831C33.262 25.618 31.1161 21.909 28.1249 19.1755C26.3692 17.5489 23.7035 17.5489 21.9478 19.1755C18.8915 21.9741 16.7457 25.618 15.9003 29.7831C15.4456 32.0609 16.8107 34.2733 19.0216 34.9891C20.9074 35.5748 22.9232 35.9004 25.004 35.9004C27.0845 35.9004 29.1003 35.5748 30.9861 34.9891C33.262 34.3383 34.5625 32.0609 34.1724 29.7831Z" fill="black"/>
</svg>
    