<svg width="62" height="54" viewBox="0 0 62 54" fill="none" xmlns="http://www.w3.org/2000/svg">
<path d="M55.4853 41.8414L52.234 47.3773C51.6602 48.4271 50.6083 49 49.4608 49H12.4549C11.3073 49 10.2554 48.4271 9.68166 47.3773L6.43032 41.8414C5.85656 40.887 5.85656 39.6464 6.43032 38.5966L25.077 6.62273C25.6508 5.57291 26.7027 5 27.8502 5H34.2567C35.4042 5 36.4561 5.57291 37.0298 6.62273L55.5809 38.5966C56.1547 39.551 56.1547 40.7916 55.4853 41.8414ZM44.4888 34.0152C43.15 27.9064 39.9943 22.4666 35.5954 18.4575C33.0135 16.0717 29.0934 16.0717 26.5115 18.4575C22.017 22.562 18.8613 27.9064 17.6181 34.0152C16.9493 37.356 18.9569 40.6008 22.2082 41.6507C24.9814 42.5097 27.9459 42.9872 31.0059 42.9872C34.0654 42.9872 37.0298 42.5097 39.803 41.6507C43.15 40.6962 45.0625 37.356 44.4888 34.0152Z" fill="black"/>
</svg>
    