<svg width="50" height="50" viewBox="0 0 50 50" fill="none" xmlns="http://www.w3.org/2000/svg">
<path d="M34.6551 34.9359C33.0124 34.768 31.4102 34.1988 29.9743 33.2731C29.0873 32.7012 27.8007 31.4525 27.2115 30.5916C26.4153 29.4283 25.8391 28.0495 25.6035 26.7441C25.5126 26.2405 25.503 26.5862 25.4972 30.5767L25.4908 34.9629L24.8317 34.9146C21.1344 34.6437 17.9388 32.5893 16.3102 29.4362C15.8407 28.5274 15.5184 27.5609 15.3315 26.5019C15.2521 26.0517 15.239 26.5776 15.2326 30.472L15.2253 34.9609L14.5659 34.9118C12.7495 34.7763 11.1207 34.2497 9.67509 33.3304C7.28429 31.81 5.71368 29.5478 5.16295 26.8314C4.9601 25.8309 4.94441 24.2206 5.1284 23.2846C5.7551 20.0963 7.73804 17.514 10.6489 16.0955C11.8389 15.5156 13.1879 15.1593 14.6016 15.0515L15.2253 15.0039L15.235 19.4902C15.2404 21.9577 15.2574 23.8986 15.2729 23.8035C15.744 20.912 17.0952 18.6633 19.3479 17.0217C20.9297 15.869 22.7621 15.214 24.8671 15.0489L25.4908 15L25.4972 19.419C25.503 23.4378 25.5127 23.7879 25.6035 23.2846C25.9661 21.275 26.9389 19.4838 28.4805 17.9868C30.962 15.5771 34.3244 14.5741 37.7168 15.2318C43.9815 16.4464 47.6056 22.8392 45.3026 28.613C44.7566 29.9817 43.9788 31.1071 42.8383 32.1786C41.1408 33.7734 39.046 34.7152 36.6933 34.9413C35.8649 35.0209 35.4765 35.0199 34.6551 34.9359Z" fill="black"/>
</svg>
    