<svg width="93" height="48" viewBox="0 0 93 48" fill="none" xmlns="http://www.w3.org/2000/svg">
<path d="M66.8198 46.8526C63.1739 46.4664 59.6177 45.1573 56.4307 43.0281C54.462 41.7128 51.6064 38.8407 50.2987 36.8606C48.5315 34.185 47.2526 31.0139 46.7297 28.0114C46.528 26.8531 46.5068 27.6482 46.4939 36.8265L46.4797 46.9147L45.0168 46.8037C36.8105 46.1806 29.7179 41.4554 26.1031 34.2033C25.0612 32.113 24.3457 29.8901 23.931 27.4544C23.7546 26.4189 23.7256 27.6285 23.7115 36.5855L23.6953 46.9101L22.2317 46.797C18.2 46.4855 14.585 45.2742 11.3764 43.1598C6.07 39.663 2.58401 34.4599 1.36168 28.2123C0.911439 25.911 0.876622 22.2074 1.28499 20.0545C2.67594 12.7214 7.0771 6.78221 13.5379 3.51971C16.1791 2.18598 19.1731 1.3665 22.3108 1.1185L23.6953 1.00908L23.7168 11.3275C23.7286 17.0026 23.7665 21.4668 23.8009 21.248C24.8465 14.5976 27.8455 9.42562 32.8454 5.64985C36.3561 2.99868 40.4233 1.49222 45.0952 1.11252L46.4797 1L46.4939 11.1638C46.5068 20.4069 46.5281 21.2123 46.7297 20.0545C47.5346 15.4326 49.6935 11.3128 53.1152 7.86965C58.623 2.32728 66.0859 0.0205325 73.6152 1.53322C87.5199 4.32675 95.5636 19.0302 90.452 32.3099C89.2404 35.4578 87.514 38.0464 84.9826 40.5108C81.215 44.1788 76.5655 46.3449 71.3438 46.865C69.505 47.0482 68.643 47.0458 66.8198 46.8526Z" fill="black"/>
</svg>
