<svg width="60" height="48" viewBox="0 0 60 48" fill="none" xmlns="http://www.w3.org/2000/svg">
<path fill-rule="evenodd" clip-rule="evenodd" d="M4 6.31011C4 4.49918 5.26094 2.92879 7.03992 2.52384C21.8212 -0.841281 37.1788 -0.841281 51.9601 2.52384C53.7391 2.92879 55 4.49918 55 6.31011V13.5125C55 21.567 48.4175 28.0964 40.2976 28.0964H38.6299C37.2245 28.0964 35.9013 27.4395 35.0581 26.3243L33.9145 24.8122C31.7072 21.8925 27.2928 21.8925 25.0856 24.8122L23.9419 26.3243C23.0987 27.4395 21.7755 28.0964 20.3701 28.0964H18.7024C10.5825 28.0964 4 21.567 4 13.5125V6.31011ZM25.7377 8.19232C25.7377 7.27632 26.4863 6.53365 27.4098 6.53365H32.4262C33.3498 6.53365 34.0984 7.27632 34.0984 8.19232C34.0984 9.10831 33.3498 9.85099 32.4262 9.85099H27.4098C26.4863 9.85099 25.7377 9.10831 25.7377 8.19232Z" fill="black"/>
<path d="M16.3729 36.2686C15.9694 35.4446 14.9688 35.1012 14.1381 35.5017C13.3075 35.9017 12.9613 36.8943 13.3648 37.7183C16.3439 43.8011 22.635 48 29.918 48C37.2009 48 43.4921 43.8011 46.4713 37.7183C46.8748 36.8943 46.5285 35.9017 45.6979 35.5017C44.8672 35.1012 43.8667 35.4446 43.4632 36.2686C41.0221 41.2527 35.8722 44.6827 29.918 44.6827C23.9637 44.6827 18.8138 41.2527 16.3729 36.2686Z" fill="black"/>
</svg>
    