<svg width="50" height="50" viewBox="0 0 50 50" fill="none" xmlns="http://www.w3.org/2000/svg">
<path fill-rule="evenodd" clip-rule="evenodd" d="M8 14.0753C8 12.9057 8.84062 11.8915 10.0266 11.63C19.8808 9.45667 30.1192 9.45667 39.9734 11.63C41.1594 11.8915 42 12.9057 42 14.0753V18.7268C42 23.9287 37.6117 28.1456 32.1984 28.1456H31.0866C30.1497 28.1456 29.2676 27.7214 28.7054 27.0011L27.943 26.0246C26.4715 24.1389 23.5285 24.1389 22.057 26.0246L21.2946 27.0011C20.7324 27.7214 19.8503 28.1456 18.9134 28.1456H17.8016C12.3883 28.1456 8 23.9287 8 18.7268V14.0753ZM22.4918 15.2909C22.4918 14.6993 22.9909 14.2196 23.6066 14.2196H26.9508C27.5665 14.2196 28.0656 14.6993 28.0656 15.2909C28.0656 15.8825 27.5665 16.3621 26.9508 16.3621H23.6066C22.9909 16.3621 22.4918 15.8825 22.4918 15.2909Z" fill="black"/>
<path d="M16.2486 33.4235C15.9796 32.8913 15.3125 32.6695 14.7587 32.9282C14.205 33.1865 13.9742 33.8276 14.2432 34.3598C16.2293 38.2882 20.4233 41 25.2787 41C30.134 41 34.328 38.2882 36.3142 34.3598C36.5832 33.8276 36.3523 33.1865 35.7986 32.9282C35.2448 32.6695 34.5778 32.8913 34.3088 33.4235C32.6814 36.6424 29.2482 38.8575 25.2787 38.8575C21.3091 38.8575 17.8759 36.6424 16.2486 33.4235Z" fill="black"/>
</svg>
    