<svg width="32" height="32" viewBox="0 0 32 32" fill="none" xmlns="http://www.w3.org/2000/svg">
<path opacity="0.3" fill-rule="evenodd" clip-rule="evenodd" d="M29.8729 5.82651C30.1544 3.67468 28.3811 1.90136 26.2292 2.18279C23.0839 2.59416 17.7406 3.72364 14.2968 6.91765C13.201 7.93391 12.1886 9.16145 11.2891 10.4238L8.70713 10.055C7.98008 9.95112 7.24656 10.1956 6.72723 10.7149L2.48459 14.9576C1.12499 16.3172 1.90108 18.6455 3.80453 18.9174L7.76432 19.4831L7.76458 19.4813C7.93944 19.8426 8.17595 20.1776 8.46781 20.4694L11.5863 23.5879C11.8781 23.8798 12.2131 24.1163 12.5744 24.2911L12.5727 24.2914L13.1384 28.2512C13.4103 30.1546 15.7386 30.9307 17.0982 29.5711L21.3408 25.3285C21.8601 24.8091 22.1046 24.0756 22.0008 23.3486L21.6319 20.7666C22.8943 19.8671 24.1218 18.8547 25.1381 17.7589C28.3321 14.3152 29.4616 8.97185 29.8729 5.82651Z" fill="#FF6644"/>
<path d="M8.61293 24.8558C9.00345 24.4653 9.00345 23.8322 8.61293 23.4416C8.2224 23.0511 7.58924 23.0511 7.19871 23.4416L8.61293 24.8558ZM3.42748 27.2129C3.03695 27.6034 3.03695 28.2366 3.42748 28.6271C3.818 29.0176 4.45117 29.0176 4.84169 28.6271L3.42748 27.2129ZM5.7845 22.0274C6.17502 21.6369 6.17502 21.0037 5.7845 20.6132C5.39398 20.2227 4.76081 20.2227 4.37029 20.6132L5.7845 22.0274ZM2.48467 22.4988C2.09414 22.8893 2.09414 23.5225 2.48467 23.913C2.87519 24.3036 3.50836 24.3036 3.89888 23.913L2.48467 22.4988ZM11.4414 27.6843C11.8319 27.2938 11.8319 26.6606 11.4414 26.2701C11.0508 25.8795 10.4177 25.8795 10.0271 26.2701L11.4414 27.6843ZM8.14152 28.1557C7.751 28.5462 7.751 29.1794 8.14152 29.5699C8.53205 29.9604 9.16521 29.9604 9.55574 29.5699L8.14152 28.1557ZM7.19871 23.4416L3.42748 27.2129L4.84169 28.6271L8.61293 24.8558L7.19871 23.4416ZM4.37029 20.6132L2.48467 22.4988L3.89888 23.913L5.7845 22.0274L4.37029 20.6132ZM10.0271 26.2701L8.14152 28.1557L9.55574 29.5699L11.4414 27.6843L10.0271 26.2701Z" fill="#FF6644"/>
<path d="M18.2765 10.0067C17.2351 11.0481 17.2351 12.7365 18.2765 13.7779C19.3179 14.8193 21.0063 14.8193 22.0477 13.7779C23.0891 12.7366 23.0891 11.0481 22.0477 10.0067C21.0063 8.96531 19.3179 8.96531 18.2765 10.0067Z" fill="#FF6644"/>
</svg>
