<svg width="32" height="32" viewBox="0 0 32 32" fill="none" xmlns="http://www.w3.org/2000/svg">
<path fill-rule="evenodd" clip-rule="evenodd" d="M6.66675 2.66602C4.45761 2.66602 2.66675 4.45688 2.66675 6.66602V25.3327C2.66675 27.5418 4.45761 29.3327 6.66675 29.3327H12.0001C14.2092 29.3327 16.0001 27.5418 16.0001 25.3327V6.66602C16.0001 4.45688 14.2092 2.66602 12.0001 2.66602H6.66675ZM9.33342 25.3327C10.0698 25.3327 10.6667 24.7357 10.6667 23.9994C10.6667 23.263 10.0698 22.666 9.33342 22.666C8.59704 22.666 8.00008 23.263 8.00008 23.9994C8.00008 24.7357 8.59704 25.3327 9.33342 25.3327Z" fill="#FF6644"/>
<path opacity="0.3" d="M18 20.8806C18 21.3297 18.5211 21.5777 18.8696 21.2946L26.7129 14.9234C28.3109 13.3678 28.3281 10.8058 26.7512 9.22879L22.9625 5.44013C21.9842 4.46185 20.623 4.09496 19.3575 4.34422C18.4601 4.52099 18 5.43911 18 6.35381V20.8806Z" fill="#FF6644"/>
<path opacity="0.3" d="M18.4927 24.1762C18.181 24.4294 18 24.8096 18 25.2111V27.9999C18 28.7363 18.597 29.3332 19.3333 29.3332H25.3333C27.5425 29.3332 29.3333 27.5423 29.3333 25.3332V18.9366C29.3333 17.8998 28.796 16.9884 27.9846 16.4658L18.4927 24.1762Z" fill="#FF6644"/>
</svg>
