<svg width="24" height="24" viewBox="0 0 24 24" fill="none" xmlns="http://www.w3.org/2000/svg">
<path d="M18.0092 11.4333L6.01674 4.09927C5.91578 4.037 5.80004 4.00279 5.68146 4.00016C5.56287 3.99754 5.44573 4.0266 5.34212 4.08435C5.23851 4.1421 5.15218 4.22645 5.09204 4.32869C5.0319 4.43094 5.00013 4.54737 5 4.66599V19.334C5.00013 19.4526 5.0319 19.5691 5.09204 19.6713C5.15218 19.7735 5.23851 19.8579 5.34212 19.9156C5.44573 19.9734 5.56287 20.0025 5.68146 19.9998C5.80004 19.9972 5.91578 19.963 6.01674 19.9007L18.0092 12.5667C18.1077 12.5085 18.1893 12.4256 18.246 12.3262C18.3027 12.2268 18.3325 12.1144 18.3325 12C18.3325 11.8856 18.3027 11.7732 18.246 11.6738C18.1893 11.5744 18.1077 11.4915 18.0092 11.4333V11.4333Z" stroke="white" stroke-width="1.5" stroke-linecap="round" stroke-linejoin="round"/>
<path d="M21.8906 5.58301V18.0286" stroke="white" stroke-width="1.5" stroke-linecap="square" stroke-linejoin="round"/>
</svg>
