<svg width="24" height="24" viewBox="0 0 24 24" fill="none" xmlns="http://www.w3.org/2000/svg">
<path d="M5.99072 11.4333L17.9835 4.09927C18.0844 4.037 18.2002 4.00279 18.3188 4.00016C18.4374 3.99754 18.5545 4.0266 18.6581 4.08435C18.7617 4.1421 18.8481 4.22645 18.9082 4.32869C18.9683 4.43094 19.0001 4.54737 19.0002 4.66599V19.334C19.0001 19.4526 18.9683 19.5691 18.9082 19.6713C18.8481 19.7735 18.7617 19.8579 18.6581 19.9156C18.5545 19.9734 18.4374 20.0025 18.3188 19.9998C18.2002 19.9972 18.0844 19.963 17.9835 19.9007L5.99072 12.5667C5.89224 12.5085 5.81064 12.4256 5.75395 12.3262C5.69727 12.2268 5.66745 12.1144 5.66745 12C5.66745 11.8856 5.69727 11.7732 5.75395 11.6738C5.81064 11.5744 5.89224 11.4915 5.99072 11.4333V11.4333Z" stroke="white" stroke-width="1.5" stroke-linecap="round" stroke-linejoin="round"/>
<path d="M2.10962 5.58301V18.0286" stroke="white" stroke-width="1.5" stroke-linecap="square" stroke-linejoin="round"/>
</svg>
