<svg viewBox="0 0 24 24" fill="none" xmlns="http://www.w3.org/2000/svg">
<path d="M20.1466 7.229C20.7742 7.85513 21.2721 8.59891 21.6118 9.41774C21.9515 10.2366 22.1264 11.1144 22.1264 12.0009C22.1264 12.8874 21.9515 13.7652 21.6118 14.584C21.2721 15.4029 20.7742 16.1466 20.1466 16.7728" stroke="white" stroke-width="1.5" stroke-linecap="square" stroke-linejoin="round"/>
<path d="M7.12509 15.75H2.62512C2.42621 15.75 2.23544 15.671 2.09479 15.5303C1.95414 15.3897 1.87512 15.1989 1.87512 15V9C1.87512 8.80109 1.95414 8.61032 2.09479 8.46967C2.23544 8.32902 2.42621 8.25 2.62512 8.25H7.12509L13.875 3V21L7.12509 15.75Z" stroke="white" stroke-width="1.5" stroke-linecap="round" stroke-linejoin="round"/>
<path d="M7.12524 8.25049V15.7505" stroke="white" stroke-width="1.5" stroke-linecap="round" stroke-linejoin="round"/>
<path d="M17.4933 9.88037C17.7722 10.1582 17.9935 10.4884 18.1445 10.852C18.2955 11.2156 18.3733 11.6054 18.3733 11.9991C18.3733 12.3928 18.2955 12.7826 18.1445 13.1462C17.9935 13.5098 17.7722 13.84 17.4933 14.1179" stroke="white" stroke-width="1.5" stroke-linecap="square" stroke-linejoin="round"/>
</svg>
