<svg viewBox="0 0 60 60" fill="none" xmlns="http://www.w3.org/2000/svg">
<g clip-path="url(#clip0_11875_57700)">
<path d="M25.0594 30.9844H19.1531V36.8906H25.0594C25.485 36.8906 28.0125 36.8606 28.0125 33.9375C28.0125 31.0144 25.0594 30.9844 25.0594 30.9844ZM26.4206 25.5412C26.4206 23.1394 24.5681 23.1094 24.5681 23.1094H19.155V28.0312H24.5681C24.5681 28.0312 26.4206 28.0312 26.4206 25.5412ZM39.825 28.0312C36.8063 28.0312 36.8719 30.9844 36.8719 30.9844H42.7781C42.7781 30.9844 42.8419 28.0312 39.825 28.0312Z" fill="white"/>
<path d="M30 0C13.4306 0 0 13.4325 0 30C0 46.5675 13.4306 60 30 60C46.5675 60 60 46.5675 60 30C60 13.4325 46.5694 0 30 0ZM35.8875 22.125H43.7625V24.0938H35.8875V22.125ZM31.4587 33.9375C31.4587 40.0144 26.0456 39.8438 26.0456 39.8438H15.2156V20.1562L25.7981 20.1731C28.8862 20.1731 30.9075 21.93 30.9075 25.4906C30.9075 29.055 27.9281 29.2819 27.9281 29.2819C31.8563 29.2837 31.4587 33.9375 31.4587 33.9375ZM39.825 36.8906C42.7781 36.8906 42.7781 33.9375 42.7781 33.9375H46.7156C46.7156 39.8438 39.825 39.8438 39.825 39.8438C31.95 39.8438 32.4431 32.4619 32.4431 32.4619C32.4431 32.4619 32.43 25.08 39.825 25.08C46.7156 25.08 46.7156 30.9862 46.7156 32.955H36.8719C36.8719 36.8906 39.825 36.8906 39.825 36.8906Z" fill="white"/>
</g>
<defs>
<clipPath id="clip0_11875_57700">
<rect width="60" height="60" fill="white"/>
</clipPath>
</defs>
</svg>
