<svg viewBox="0 0 60 60" fill="none" xmlns="http://www.w3.org/2000/svg">
<path d="M30 1.875C24.4374 1.875 18.9997 3.5245 14.3746 6.61492C9.74945 9.70533 6.1446 14.0979 4.01589 19.237C1.88717 24.3762 1.3302 30.0312 2.41541 35.4869C3.50062 40.9426 6.17927 45.954 10.1126 49.8874C14.046 53.8207 19.0574 56.4994 24.5131 57.5846C29.9688 58.6698 35.6238 58.1128 40.763 55.9841C45.9021 53.8554 50.2947 50.2505 53.3851 45.6254C56.4755 41.0003 58.125 35.5626 58.125 30C58.1225 22.5415 55.1586 15.3893 49.8846 10.1154C44.6107 4.84144 37.4585 1.87748 30 1.875ZM30 13.125C34.0858 13.1204 38.0327 14.6071 41.1 17.3062C40.8207 17.7203 40.5138 18.1149 40.1813 18.4875C37.9841 20.9338 35.2229 22.8068 32.1375 23.9438C30.5143 20.8296 28.6722 17.8346 26.625 14.9812C26.2687 14.4937 25.9312 14.0625 25.65 13.6875C27.0689 13.3092 28.5315 13.1201 30 13.125ZM22.725 14.775C22.9687 15.1125 23.2687 15.4875 23.6437 15.9937C25.7311 18.836 27.611 21.825 29.2687 24.9375C24.6036 26.2246 19.7831 26.8619 14.9437 26.8313C14.3437 26.8313 13.8375 26.8125 13.4437 26.8125C13.9408 24.2197 15.0396 21.7798 16.6516 19.689C18.2636 17.5983 20.3439 15.9151 22.725 14.775ZM17.6437 41.475C14.7316 38.3647 13.1155 34.2608 13.125 30V29.775C13.5187 29.7938 14.025 29.8125 14.6062 29.8312H15.1125C20.3594 29.8624 25.5829 29.1297 30.6187 27.6562C30.9187 28.275 31.2187 28.9312 31.5 29.5875C26.2115 31.757 21.6883 35.4513 18.5062 40.2C18.1687 40.6688 17.8875 41.1 17.6437 41.475ZM30 46.875C26.3436 46.871 22.7862 45.6873 19.8562 43.5C20.0625 43.1438 20.3437 42.6938 20.6625 42.2062C23.4918 37.7293 27.6664 34.2635 32.5875 32.3062C34.0795 36.1961 34.9954 40.283 35.3062 44.4375C35.3438 44.9625 35.3625 45.4688 35.3625 45.9938C33.6341 46.5745 31.8233 46.8721 30 46.875ZM38.3063 44.6813L38.1938 42.9938C37.7961 39.0817 36.8949 35.2374 35.5125 31.5562C38.7679 31.0654 42.0949 31.4272 45.1688 32.6062C45.6187 32.775 46.1063 32.9625 46.575 33.1688C46.1133 35.5722 45.1346 37.8466 43.7069 39.8345C42.2791 41.8223 40.4364 43.4761 38.3063 44.6813ZM46.875 30.075C46.3864 29.8637 45.8855 29.6821 45.375 29.5312C41.8536 28.2972 38.0654 28.0317 34.4062 28.7625C34.125 28.0312 33.8062 27.3188 33.4875 26.6437C36.8176 25.3504 39.8067 23.3106 42.225 20.6812C42.5625 20.3062 42.8813 19.9125 43.2 19.4813C45.5839 22.4685 46.88 26.1782 46.875 30V30.075Z" fill="white"/>
</svg>
