<svg width="60" height="60" viewBox="0 0 60 60" fill="none" xmlns="http://www.w3.org/2000/svg">
<path d="M17 47V7.90909C17 5.7503 15.209 4 13 4C10.791 4 9 5.7503 9 7.90909V12.7955H14" stroke="black" stroke-width="2" stroke-miterlimit="10"/>
<path d="M13 4H46C48.209 4 50 5.791 50 8" stroke="black" stroke-width="2" stroke-miterlimit="10"/>
<path d="M22 30H39" stroke="black" stroke-width="2" stroke-miterlimit="10"/>
<path d="M22 35H45" stroke="black" stroke-width="2" stroke-miterlimit="10"/>
<path d="M22 40H32" stroke="black" stroke-width="2" stroke-miterlimit="10"/>
<path d="M28.9565 8.3999C30.6713 10.9843 33.12 12.1124 35.913 13.1321C35.9113 20.0144 31.0093 24.3999 28.9565 24.3999C26.9038 24.3999 22.0017 20.0144 22 13.1315C24.793 12.1124 27.2417 10.9843 28.9565 8.3999Z" stroke="black" stroke-width="2" stroke-miterlimit="10"/>
<path d="M25.7139 16.5201L28.3765 19.1827L32.7765 14.7827" stroke="black" stroke-width="2" stroke-miterlimit="10"/>
<path d="M44.7382 43.4653C45.693 44.3992 46.2858 45.7016 46.2858 47.1429C46.2858 49.983 43.983 52.2858 41.1429 52.2858C38.3027 52.2858 36 49.983 36 47.1429C36 44.3027 38.3027 42 41.1429 42C42.0305 42 42.8657 42.225 43.5943 42.6206" stroke="black" stroke-width="2" stroke-miterlimit="10"/>
<path d="M44.572 50.9761V57.0001L41.1434 54.7569L37.7148 57.0001V50.9761" stroke="black" stroke-width="2" stroke-miterlimit="10"/>
<path d="M51 8H49V48H51V8Z" fill="black"/>
<rect x="16" y="46" width="16" height="2" fill="black"/>
</svg>
