<svg width="60" height="60" viewBox="0 0 60 60" fill="none" xmlns="http://www.w3.org/2000/svg">
<path d="M48 14H55C56.104 14 57 14.896 57 16V44C57 45.104 56.104 46 55 46H35C33.896 46 33 45.104 33 44V16C33 14.896 33.896 14 35 14H41" stroke="black" stroke-width="2" stroke-miterlimit="10"/>
<path d="M12 46H5C3.896 46 3 45.104 3 44V16C3 14.896 3.896 14 5 14H25C26.104 14 27 14.896 27 16V44C27 45.104 26.104 46 25 46H19" stroke="black" stroke-width="2" stroke-miterlimit="10"/>
<path d="M18 20H12V25H7V31H12V36H18V31H23V25H18V20Z" stroke="black" stroke-width="2"/>
<path d="M36 30.0002L39 22.0002L45 35.0002L48 30.0002H54" stroke="black" stroke-width="2" stroke-miterlimit="10"/>
<path d="M33 41H57" stroke="black" stroke-width="2" stroke-miterlimit="10"/>
<path d="M3 41H27" stroke="black" stroke-width="2" stroke-miterlimit="10"/>
<path d="M45.176 14.823C43.633 9.067 38.243 5 32 5C29.718 5 27.672 5.688 25.844 6.828L26.856 8.481C26.947 8.633 27 8.811 27 9C27 9.553 26.553 10 26 10H17C16.447 10 16 9.553 16 9C16 8.793 16.063 8.602 16.17 8.441L20.888 1.441C21.067 1.176 21.372 1 21.717 1C22.079 1 22.396 1.191 22.571 1.479L23.564 3.104C26.082 1.765 28.95 1 32 1C34.385 1 36.662 1.464 38.744 2.307" stroke="black" stroke-width="2" stroke-miterlimit="10"/>
<path d="M14.8232 45.177C16.3672 50.934 21.7562 55 28.0002 55C30.2822 55 32.3282 54.312 34.1562 53.172L33.1442 51.519C33.0532 51.367 33.0002 51.189 33.0002 51C33.0002 50.447 33.4472 50 34.0002 50H43.0002C43.5532 50 44.0002 50.447 44.0002 51C44.0002 51.207 43.9372 51.398 43.8302 51.559L39.1122 58.559C38.9332 58.824 38.6282 59 38.2822 59C37.9222 59 37.6042 58.809 37.4282 58.521L36.4352 56.897C33.9182 58.235 31.0492 59 28.0002 59C25.6152 59 23.3382 58.536 21.2562 57.693" stroke="black" stroke-width="2" stroke-miterlimit="10"/>
</svg>
