<svg viewBox="0 0 257 97" fill="none" xmlns="http://www.w3.org/2000/svg">
<path fill-rule="evenodd" clip-rule="evenodd" d="M57.6058 9.44682C44.9426 -3.24488 24.5098 -3.13276 11.9759 9.6898C-2.44746 24.4454 -3.65436 47.8145 9.17901 64.0058L34.6768 96.1753L34.6771 96.1749V32.7367L17.9142 15.5727L46.9699 23.409V80.9806L60.4322 64.3407C73.6166 48.0442 72.3923 24.2667 57.6058 9.44682Z" fill="#FCC816"/>
<path d="M92.7388 61.1359V46.1174L106.291 61.1359H111.387L97.17 45.4146L110.205 29.6934H105.515L92.7388 44.9707V29.6934H88.7507V61.1359H92.7388Z" fill="#0E2B4E"/>
<path d="M111.546 50.0015C111.546 56.438 116.273 61.3578 122.403 61.3578C128.496 61.3578 133.185 56.438 133.185 50.0015C133.185 43.602 128.496 38.6822 122.403 38.6822C116.273 38.6822 111.546 43.602 111.546 50.0015ZM122.403 42.6403C126.28 42.6403 129.234 45.8215 129.234 50.0015C129.234 54.2185 126.28 57.3628 122.403 57.3628C118.526 57.3628 115.534 54.2185 115.534 50.0015C115.534 45.8215 118.526 42.6403 122.403 42.6403Z" fill="#0E2B4E"/>
<path d="M134.806 61.1359H151.829V57.2518H140.419L151.607 42.0854V38.9412H135.064V42.8252H146.179L134.806 58.1396V61.1359Z" fill="#0E2B4E"/>
<path d="M175.532 38.9412H171.322L164.638 55.8091L157.955 38.9412H153.708L162.497 61.1359L161.832 62.9484C160.983 65.0939 159.949 65.7598 158.361 65.7598H157.364V69.6808H158.73C163.161 69.6808 164.195 67.6463 165.857 63.4293L175.532 38.9412Z" fill="#0E2B4E"/>
<path d="M176.268 54.0706C176.379 58.5835 180.552 61.3578 184.724 61.3578C189.377 61.3578 192.848 58.7314 192.848 55.0693C192.848 49.8536 188.528 48.8548 185.167 48.004C183.653 47.5971 180.958 46.9682 180.958 44.7858C180.995 43.1951 182.619 42.0484 184.724 42.0854C186.903 42.0854 188.602 43.4541 188.86 45.3036H192.442C192.073 41.3086 189.045 38.6822 184.761 38.6822C180.404 38.6822 177.007 41.0497 177.007 44.8597C177.007 48.9288 180.367 50.2235 183.801 51.1852C187.198 52.11 188.897 52.9978 188.897 55.1063C188.897 56.8819 187.198 57.9916 184.835 57.9546C182.287 57.9176 180.145 56.216 180.035 54.0706H176.268Z" fill="#0E2B4E"/>
<path d="M199.385 34.2433L198.388 38.9412H194.954V42.7143H198.388V53.6637C198.388 58.9904 200.53 61.1359 205.589 61.1359H207.583V57.2148H205.958C203.447 57.2148 202.376 56.0681 202.376 53.4417V42.7143H207.583V38.9412H202.376V34.2433H199.385Z" fill="#0E2B4E"/>
<path d="M227.793 61.1359H231.744V38.9412H227.793V43.0842C226.796 40.4578 223.583 38.6822 220.296 38.6822C213.908 38.6822 209.735 43.1951 209.735 50.0015C209.735 56.8449 213.945 61.3578 220.296 61.3578C223.62 61.3578 226.796 59.5822 227.793 56.9929V61.1359ZM213.724 50.0015C213.724 45.5626 216.567 42.6403 220.74 42.6403C224.838 42.6403 227.793 45.6736 227.793 50.0385C227.793 54.4405 224.912 57.3628 220.777 57.3628C216.604 57.3628 213.724 54.4405 213.724 50.0015Z" fill="#0E2B4E"/>
<path d="M256.309 38.9412H252.099L245.416 55.8091L238.732 38.9412H234.485L243.274 61.1359L242.609 62.9484C241.76 65.0939 240.726 65.7598 239.138 65.7598H238.141V69.6808H239.507C243.939 69.6808 244.972 67.6463 246.634 63.4293L256.309 38.9412Z" fill="#0E2B4E"/>
</svg>
