<svg fill="none" height="152" viewBox="0 0 141 152" width="140"
  xmlns="http://www.w3.org/2000/svg"
  xmlnsXlink="http://www.w3.org/1999/xlink">
<clipPath id="a">
  <path d="m0 0h140v151.667h-140z" />
</clipPath>
<g clip-path="url(#a)">
  <path d="m1.68353 29.0978c21.00857 4.6714 43.20737 14.9371 57.88637
                 31.1818 3.9917 4.4174 23.5161 25.8444 14.1766 31.786-4.4732
                 2.8458-6.8676-2.6731-7.15-6.2082-.5557-6.9586-.3749-12.5228 2.1598-19.2428 3.9125-10.3726
                 12.0643-24.2252 25.0849-20.937 5.6194 1.4192 8.0368 9.4367 7.6838 14.314-.346 4.7818-2.0673
                 8.9121-3.6777 13.3633-1.3088 3.6178-1.3866 2.9195 2.4617 2.6121 9.66-.7716 22.481 8.1731 12.528
                 17.4555-5.585 5.2081-12.411 6.6215-19.469 8.3855-2.6513.662-7.173 1.951-9.895
                 1.494-2.9636-.497-.5429-3.3278 1.4329-3.7563 4.9123-1.0655 7.8881-.1775 10.6077 4.0973 2.4595
                 3.866 2.7164 10.908-1.5263 13.95-2.3539 1.688-1.3643 1.926 1.0065 1.583 1.8393-.267 7.0042-2.234
                 5.4362-1.237-.5521.352-5.1446 3.231-5.8046 2.893-2.3493-1.2-4.0279-3.793-6.0224-5.414" stroke="#07906b" stroke-linecap="round" stroke-width="1.5" />
</g>
</svg>
