<svg fill="none" height="146" viewBox="0 0 91 146" width="90" xmlns="http://www.w3.org/2000/svg">
<g stroke="#00956f" stroke-linecap="round" stroke-width="2">
  <path d="m42.6494
                      64.4701c-7.2805-12.4302-13.6014-27.3039-25.1259-36.4968-7.815-6.2339-20.44522-5.4686-15.34457
                      6.9998 3.67815 8.9911 10.13197 17.1475 15.61957 25.0648 9.1455 13.1945 17.8557 26.5914 26.1347
                      40.3481 6.3948 10.626 12.9985 21.28 17.7593 32.768.8389 2.024 1.7883 4.191
                      2.3536 6.327.5182 1.957-1.4476-3.782-2.1396-5.685" />
  <path d="m43.1997 67.7713c8.8107-20.3373 17.6049-41.7876 32.2175-58.81054 4.2339-4.93233
                      13.2049-14.09573 13.2049-1.89514 0 15.64338-5.1119 31.71058-8.9867 46.70608-7.7925
                      30.1573-14.3333 60.6143-21.0299 91.0283" />
</g>
</svg>
