<svg viewBox="0 0 364 225" fill="none" height="224" width="365" xmlns="http://www.w3.org/2000/svg">
  <g stroke="#00956f" stroke-linecap="round" stroke-width="2">
    <path d="m1 7.14357c35.2348-7.943068 100.119-18.10997 89.8693 40.31263-3.3117
                        18.877-18.3181 65.2508-10.0141 18.4874 4.4237-24.9116 19.2108-65.285334
                        51.8678-59.57037 32.609 5.70667 47.321 43.33977 47.502 72.40887.267
                        43.1019-7.482 90.0809-16.305 132.2359-4.23 20.21-1.65 7.408 3.98-3.852
                        28.016-56.032 72.677-104.841 121.451-143.6617 7.749-6.1672 55.976-48.1124 55.976-19.386" />
    <path d="m248.268 39.4966c-16.255 23.0552-32.42 46.1706-48.529 69.3274" />
    <path d="m211.293 222.059c51.362-26.566 95.33-41.38 152.521-48.529" />
  </g>
</svg>
      