<svg fill="none" viewBox="0 0 120 120" xmlns="http://www.w3.org/2000/svg"><g fill="#07906b"><path d="m104.445 107.837c-1.638-4.997-2.938-10.0968-4.5428-15.1041-1.2333-3.8485-2.3676-8.3334-5.9267-10.6194-4.3263-2.7787-9.6791-4.6649-14.528-6.2865-1.6309-.4449-3.2302-.9983-4.7872-1.6566-.1461-.1321-.3204-.2292-.5097-.2839-.7729-.492-1.4327-1.1422-1.936-1.9077-.5033-.7656-.8386-1.6291-.9839-2.5336-.6538-2.7299-.4746-5.9313-.5278-8.7794 5.1616-4.2101 6.592-11.362 6.5798-18.5932 2.0275-.6 3.7313-3.5791 3.7042-5.4942-.006-.5569-.1262-1.1066-.3534-1.6151-.2271-.5085-.5563-.9649-.9671-1.3409s-.8945-.6636-1.4211-.845c-.5265-.1813-1.0847-.2526-1.6399-.2093-.0786-.6259-.1594-1.2446-.2438-1.8473-.1607-1.1552-2.1786-.8953-2.0542.278.1039.9814.2196 2.0032.3342 3.052-.095.0181-.1875.0354-.2766.0496-.6159.0983-1.2993.15-1.9237.3124-.0139-.1425-.0282-.2862-.0416-.4257-.1561-1.6259-.2458-2.8465-1.8768-3.5284-2.2447-.7592-4.649-.9175-6.9739-.4593-.0915.008-.1801.0358-.2598.0815-.0796.0457-.1483.1081-.2014.1831-.053.0749-.0891.1605-.1057.2508-.0167.0903-.0134.1832.0094.2721-1.8613-.9362-2.472 1.4562-2.6413 3.8726-.4705-.2166-.991-.3015-1.506-.2457-.515.0559-1.0052.2504-1.4184.5629-.0066-.0672-.0134-.1363-.0198-.2026-.1561-1.6259-.2458-2.8466-1.8768-3.5284-2.2448-.759-4.6492-.9172-6.9741-.4586-.0914.0079-.18.0357-.2596.0814s-.1484.1081-.2014.183-.0891.1604-.1058.2507c-.0167.0902-.0135.183.0093.2719-2.1022-1.0574-2.6087 2.1321-2.6867 4.8037-.1646-.0396-.3321-.0658-.5009-.0783-.0207-1.0305-.0544-2.0377-.1202-3.0034-.0057-.1631-.0744-.3176-.1918-.431s-.2742-.1768-.4374-.1768-.32.0634-.4374.1768-.1861.2679-.1917.431c-.0026.5753-.0136 1.1678-.0282 1.768-2.6451-.5195-4.2861 2.5362-4.2281 4.8611.0521 2.0915 1.7427 5.4522 4.0875 5.0583.1602 4.6969.9038 9.3198 3.3715 12.9527.7437 1.0952 1.6351 2.0824 2.6488 2.9336-.0727 2.3665-.1211 4.7336-.3412 7.0927-.4807 5.1501-3.3136 6.2101-7.5619 7.5877-5.1265 1.6622-10.7965 3.6343-15.3562 6.5635-3.3809 2.1719-4.4682 6.1999-5.6787 9.8616-1.7564 5.3129-3.1017 10.7527-4.8554 16.0667-.306.928.8413 1.419 1.4669.952 6.3701 2.047 13.2709 2.496 19.8839 3.201 7.5713.726 15.1768 1.034 22.7821.923 14.8096.061 29.5923-1.265 44.1545-3.959.045-.005.09-.013.133-.024.128-.025.258-.045.386-.07.597-.119.589-.978.149-1.228zm-25.2143-70.1641c-.4614.9251-1.1454 1.7211-1.9906 2.3164-.0774-2.0827-.2544-4.147-.48-6.1279 1.7808.4271 3.3768 1.7193 2.4706 3.8115zm-16.5187-5.9616c.063.0158.1286.0187.1927.0084.0642-.0104.1255-.0337.1803-.0686s.1019-.0807.1384-.1344c.0366-.0537.0617-.1144.074-.1782.0905.0824.1983.1437.3155.1792s.2409.0445.362.0262c1.2236-.1964 2.4661-.2475 3.7017-.1521 2.1071.2043 2.8399.7799 3.2706 2.9932.4416 2.2694.8918 5.9055-1.7122 6.9013-1.1372.3197-2.3255.4166-3.4995.2855-2.1759-.1076-3.0453-.6305-3.5003-2.9209-.1264-.6348-.6553-7.2467.4768-6.9396zm-14.9939.7875c.063.0159.1286.0187.1927.0084s.1255-.0337.1803-.0686c.0548-.0348.1019-.0806.1384-.1343.0366-.0538.0617-.1144.074-.1782.0905.0824.1983.1437.3155.1792s.2409.0445.362.0262c1.2236-.1964 2.4661-.2475 3.7017-.1522 2.1071.2045 2.8398.78 3.2706 2.9934.4416 2.2693.8917 5.9055-1.7123 6.9011-1.1372.3198-2.3254.4168-3.4994.2856-2.1759-.1076-3.0453-.6305-3.5003-2.9208-.1263-.6353-.6556-7.2469.4768-6.9398zm-4.6391 10.2295c-.4842-.1135-.9288-.3555-1.2868-.7006-.3581-.3451-.6164-.7805-.7476-1.2601-.6689-1.5713-.075-4.807 2.3261-4.4467-.0628 2.0664-.15 4.2399-.1493 6.4287zm4.1329 12.5546c-2.4598-4.9334-2.325-11.4306-2.3787-17.3222.1591-.0139.3169-.0396.4722-.0769.0146.7143.0477 1.2843.0638 1.5544.0992 1.6813.2125 3.5306 1.9593 4.2704 2.1883.7231 4.5403.7899 6.766.1921 3.6306-.9281 3.7219-4.3594 3.4621-7.5085.7464-.2467 1.8268-.8256 2.4959-.2063.0691.0633.1511.1108.2405.1392-.0035 1.0682.0492 1.9638.0705 2.3262.0992 1.6813.2127 3.5306 1.9594 4.2704 2.1882.7231 4.5402.7899 6.766.1922 3.5599-.9101 3.7166-4.2267 3.4768-7.3243.689-.0077 1.3749-.093 2.0448-.2545l.1857-.0368c1.0515 10.1746 1.4702 22.3605-9.7494 26.3948-6.7193 2.4166-14.5404-.0036-17.8349-6.6102zm2.2905 18.4521c1.6737-2.8694 1.3627-8.1129 1.0839-11.8939 1.9159 1.1892 4.0485 1.9869 6.2746 2.3472 2.226.3603 4.5014.2759 6.6946-.2482 2.0884-.413 4.0813-1.2119 5.8768-2.3556-.2794 3.8344-.6172 9.0994 1.0634 12.1505.3063.5348.7153 1.0038 1.2035 1.38-8.1523 5.5514-16.6826 4.8111-25.5126 1.1931 1.3531-.4793 2.5155-1.3815 3.3158-2.5731zm-32.0547 34.257c1.6328-5.432 3.1313-10.9147 5.1188-16.2303 1.5233-4.0744 2.6844-6.7305 6.7312-8.9443 3.2703-1.7253 6.6619-3.2102 10.1478-4.443 1.34-.4952 3.1638-.87 4.9243-1.4131 8.4292 7.1203 20.929 5.4594 29.3767-.6649 2.2634.9687 5.0415 1.4256 6.8069 2.078 3.1895 1.1894 6.3152 2.5433 9.3646 4.0563 4.353 2.1433 5.8803 4.9646 7.5141 9.3311 1.9822 5.2976 3.4769 10.7622 5.1029 16.1772-13.9966 1.556-27.8969 2.864-42.0008 3.027-14.3783.166-28.985-.002-43.0865-2.974z"/><path d="m17.4477 107.992c1.6328-5.432 3.1313-10.9147 5.1188-16.2303 1.5233-4.0744 2.6844-6.7305 6.7312-8.9443 3.2703-1.7253 6.6619-3.2102 10.1478-4.443 1.34-.4952 3.1638-.87 4.9243-1.4131 8.4292 7.1203 20.929 5.4594 29.3767-.6649 2.2634.9687 5.0415 1.4256 6.8069 2.078 3.1895 1.1894 6.3152 2.5433 9.3646 4.0563 4.353 2.1433 5.8803 4.9646 7.5141 9.3311 1.9822 5.2976 3.4769 10.7622 5.1029 16.1772-13.9966 1.556-27.8969 2.864-42.0008 3.027-14.3783.166-28.985-.002-43.0865-2.974z"/><path d="m59.8982 47.7387c.0811.0196.1664.0126.2432-.0202.0767-.0327.1409-.0893.1829-.1614.042-.0722.0596-.1559.0501-.2388-.0094-.083-.0454-.1606-.1025-.2214-.6765-.6882-1.4996-1.2147-2.408-1.5404.1732-1.0125.9436-2.1537 1.1836-3.1228.2483-1.0527.3177-2.1398.2054-3.2156-.0041-.0991-.0463-.1928-.1179-.2615-.0716-.0686-.1669-.107-.2661-.107s-.1946.0384-.2661.107c-.0716.0687-.1139.1624-.118.2615-.0807 1.4094-.4122 2.793-.979 4.0859-.3198.6414-.5405 1.3275-.6546 2.0349-.1596 1.4695 1.8135 2.1829 3.047 2.3998z"/><path d="m52.2074 37.432c.0281-.2753.0363-.5523.0245-.8288-.0338-.2694-.0189-.5428.044-.807.0371-.1547.0126-.3177-.0683-.4547-.0809-.1369-.2118-.2371-.3651-.2794s-.3171-.0233-.4567.0528c-.1397.0762-.2442.2036-.2917.3554-.1349.3928-.1949.8073-.1769 1.2222.0434.4046.2346.779.537 1.0514.0625.0595.141.0995.2258.1153s.1724.0066.2522-.0264c.0797-.033.1481-.0885.197-.1596.0488-.0712.076-.155.0782-.2412z"/><path d="m67.6331 36.822c.4349-.4849.265-1.1848.2362-1.7894-.0056-.1631-.0744-.3176-.1917-.431-.1174-.1134-.2742-.1768-.4374-.1768s-.3201.0634-.4374.1768c-.1174.1134-.1862.2679-.1918.431-.0289.6067-.2003 1.3026.2364 1.7894.1046.1033.2458.1612.3928.1612.1471 0 .2882-.0579.3929-.1612z"/><path d="m47.2355 30.3334c2.1457-1.6986 2.2702-5.0588 1.5971-7.5329-.0405-.1235-.1271-.2267-.2417-.2882-.1145-.0615-.2484-.0765-.3738-.042-.1253.0346-.2326.116-.2995.2275-.067.1115-.0884.2445-.06.3713.5084 2.603-.5134 4.4907-1.3687 6.8296-.1711.4668.4381.679.7466.4347z"/><path d="m53.5468 26.9643c.0025.08.028.1575.0735.2234.0455.0658.109.1171.1829.1477s.1551.0393.2338.0249c.0788-.0144.1516-.0512.21-.1059 1.3487-1.1166.9788-3.6375.4205-5.0519-.0325-.1032-.1037-.1898-.1988-.2415-.095-.0517-.2064-.0646-.3108-.0358-.1043.0287-.1934.0968-.2485.19-.0551.0931-.072.204-.047.3093.161.7906.1926 1.6021.0938 2.4029-.1894.7011-.3262 1.4154-.4094 2.1369z"/><path d="m59.0774 22.1031c.0719 1.6624.2992 3.9656 1.6066 5.1553.3038.2764.975.1168.9128-.3781-.1495-.7513-.3777-1.4847-.681-2.1881-.2953-.8387-.4991-1.7067-.6079-2.5891-.0912-.7641-1.2651-.8099-1.2305 0z"/><path d="m64.4395 22.911c.3206.9739.668 1.9377 1.0539 2.8875.2682.8642.7309 1.6554 1.3524 2.3129.076.0717.171.1198.2737.1387s.2086.0077.3051-.0323c.0965-.0399.1793-.1069.2386-.1929.0592-.086.0923-.1872.0954-.2916-.1025-.8317-.355-1.6379-.7451-2.3795-.4021-.9366-.7669-1.8867-1.105-2.8482-.3222-.9154-1.7781-.5335-1.469.4054z"/><path d="m70.468 24.3604c.3864.7588.7727 1.5177 1.1589 2.2767.2541.7396.697 1.4001 1.2848 1.916.1094.0618.2329.094.3585.0936.1256-.0005.249-.0336.3579-.0961s.1997-.1523.2635-.2605c.0637-.1082.0982-.2312.1001-.3567-.0988-.7862-.393-1.5351-.8556-2.1784-.3919-.7558-.7837-1.5114-1.1755-2.2671-.5129-.9893-1.9957-.1162-1.4926.8725z"/><path d="m23.3667 63.6576c4.6557-7.3052 7.8888-15.4245 9.529-23.9304.807-4.0578 1.257-8.2513 2.6676-12.1627 1.2599-3.4936 7.2159-14.4878 12.588-11.5916.1605.0859.3481.1062.5233.0567.1752-.0494.3244-.1649.4163-.3221s.1193-.3438.0764-.5208c-.0428-.1769-.1526-.3304-.3062-.4281-6.2481-4.6975-13.9292 8.4656-15.4252 13.0178-1.8153 5.5234-2.2067 11.4224-3.7999 17.0137-1.8992 6.2665-4.5972 12.2624-8.0275 17.8398-.1252.2325-.1552.5046-.0838.7588s.2387.4708.4667.604c.228.1333.4988.1728.7554.1103.2565-.0625.4788-.2222.6199-.4454z"/><path d="m23.4278 64.6752c6.5099 3.003 16.4454 9.1476 23.4392 4.4841.1019-.0641.1777-.1624.2138-.2773.0362-.1149.0304-.2388-.0164-.3498s-.1314-.2017-.2389-.2561c-.1075-.0543-.2308-.0686-.3479-.0405-8.567 1.4678-14.8461-1.4751-22.6773-4.4437-.5077-.1923-.8694.6539-.3725.8833z"/><path d="m50.9065 15.5653.365.2078c.1152.0627.249.0822.3773.0552.1284-.0271.2429-.099.323-.2028s.1207-.2328.1143-.3638c-.0064-.1311-.0592-.2555-.149-.3511-.9205-.9058 7.7822-3.9056 8.2958-3.9801 3.0299-.4271 6.1173-.1551 9.0257.7953 5.8954 1.9097 10.7576 6.433 13.9528 11.6403 3.2574 5.3084 5.0505 11.4985 7.1953 17.3108 2.3185 6.2833 4.6766 12.5593 7.1318 18.7905.0604.1496.143.2891.2452.414-3.8415 1.0148-7.5 2.9172-11.2556 4.161-4.3209 1.303-8.7318 2.2863-13.197 2.9422-.4905.0856-.3832.9314.1188.8776 4.5563-.4882 8.9937-1.4531 13.4775-2.3719 4.4544-.9126 9.221-1.7669 13.0826-4.289.107-.0638.2-.1495.272-.2515.071-.102.121-.218.145-.3404.024-.1225.022-.2487-.006-.3702-.028-.1216-.082-.2359-.157-.3354.13-.1738.211-.3788.236-.5943.025-.2154-.007-.4336-.094-.6325-3.323-9.082-6.7914-18.1147-10.4052-27.0983-2.6481-6.588-5.8493-12.7852-11.5324-17.2715-2.3554-1.9289-5.072-3.3686-7.9906-4.2346-2.9187-.86609-5.9809-1.14115-9.0072-.80912-2.917.36497-10.6276 1.91852-10.8632 5.78022-.0007.1056.0266.2095.0792.3012.0525.0916.1284.1676.2199.2204z"/><path d="m55.9738 53.4398c-.0332.1025-.0305.2132.0077.314.6187 1.6861 2.0225 3.3345 4.0265 3.01.8536-.2455 1.6132-.7429 2.1794-1.4273s.9126-1.5237.9939-2.4082c.0107-.0038.0218-.0063.0325-.0101.0815-.0254.1514-.0789.1973-.1509.0458-.0721.0647-.158.0532-.2426-.0114-.0846-.0525-.1625-.1158-.2197-.0634-.0572-.145-.0902-.2303-.093-2.323-.0842-4.6489-.0131-6.9624.2126-.121.0034-.2372.0484-.3289.1273-.0917.079-.1535.1872-.1748.3063-.0214.1192-.0011.242.0575.348.0586.1059.1519.1884.2642.2336zm6.0877-.1903c-.3729.7579-.91 1.4233-1.5722 1.9476-1.3631.8519-2.6179-.5906-3.3454-1.6523 1.645.1285 3.3.0292 4.9178-.2953z"/><path d="m73.9076 79.5118c-4.478 2.6259-8.4397 4.937-13.8291 5.106-5.0522.1587-12.2982-1.1509-16.3662-4.3816-.1301-.1218-.3025-.1884-.4807-.1855-.1783.0029-.3484.075-.4745.2011-.1261.126-.1982.2961-.2011.4744-.0029.1782.0636.3506.1854.4807 3.363 4.3009 11.473 5.3328 16.5986 5.3746 5.464.0447 11.6645-1.8497 15.4287-5.9531.1165-.1236.1851-.2847.1935-.4544.0084-.1696-.044-.3367-.1477-.4713-.1037-.1345-.252-.2276-.4183-.2626-.1662-.035-.3395-.0095-.4886.0717z"/></g></svg>