<svg viewBox="0 0 120 120" fill="none" xmlns="http://www.w3.org/2000/svg">
<path d="M95.2015 89.4579C95.0244 81.8324 94.8465 74.2066 94.6692 66.7587C94.3145 51.507 93.9601 36.4336 93.6052 21.1822C93.4281 12.67 94.4921 4.15778 84.0289 3.27109C76.0487 2.56173 67.5365 3.44842 59.5563 3.62576C51.931 3.8031 43.9508 3.44871 36.325 3.98073C27.1034 4.51303 24.4433 10.0102 25.862 18.7001C24.266 30.5817 24.621 42.6407 24.266 54.345C23.9113 69.2414 23.9113 84.1378 24.266 99.0347C24.4433 109.497 26.7487 113.399 37.389 114.818C50.6894 116.591 64.1671 117.123 77.6444 116.591C84.3836 116.236 93.9598 117.478 95.3782 108.966C96.6199 103.113 95.3785 95.8418 95.2015 89.4579ZM89.7037 105.241C87.2213 114.64 62.9257 111.448 54.7687 111.093C49.4486 110.738 39.3403 111.448 34.7295 109.142C28.1677 105.596 30.1187 95.4874 30.1187 89.1032C30.1187 65.1629 32.7788 40.158 30.8281 16.2173C32.0695 9.47849 42.3548 10.3655 47.8525 10.1878C53.882 10.0105 60.0889 10.0105 66.1181 9.83288C71.0838 9.83288 80.8374 7.70483 84.9159 11.0742C88.9947 14.4437 87.3983 24.7293 87.5762 30.0494C87.9309 42.2857 88.2853 54.522 88.6403 66.7589C88.8173 73.1425 88.9949 79.5267 89.1723 86.0888C89.349 91.586 91.1224 99.9209 89.7037 105.241Z" fill="#07906B" stroke="white" stroke-width="2"/>
<path d="M63.2806 14.7979C62.0395 13.5565 60.4432 13.7338 58.8472 13.7338C57.9605 13.7338 56.8967 13.7338 56.0098 13.7338C55.4778 13.7338 54.5911 13.9109 54.0593 13.9109C53.35 13.0239 51.9313 13.3789 51.3993 14.4429C50.5123 16.9256 53.5273 17.4576 55.3007 17.6353C57.6061 17.8123 61.3299 18.6993 63.2806 16.9259C63.8126 16.2163 63.8126 15.3299 63.2806 14.7979Z" fill="#07906B"/>
<path d="M84.5615 25.793C84.7388 24.9064 84.0295 24.3743 83.3201 24.3743C83.3201 24.0194 82.9655 23.665 82.4335 23.4874C68.2464 21.7143 52.641 21.0049 38.2763 21.8913C38.099 21.8913 38.099 21.8913 37.9213 21.8913C37.5667 21.8913 37.3893 22.4233 37.7443 22.6007C33.6655 45.4773 34.7295 70.1278 36.68 93.1812C36.68 93.1812 36.68 93.1812 36.68 93.3585C36.5029 93.7132 36.68 94.2452 37.212 94.4226C51.222 98.1466 67.5365 96.905 81.9014 96.1959C82.6105 96.1959 82.9655 95.6639 83.1425 95.1319C83.8519 95.4866 84.9159 95.1319 84.9159 94.2446C84.2068 70.8369 81.3694 49.0243 84.5615 25.793ZM39.1633 92.8271C38.4539 81.3001 37.5672 69.7726 37.9219 58.0686C38.4539 46.5416 40.0503 34.6599 39.3406 22.9553C53.1727 25.2607 68.4237 25.9701 82.2561 25.4381C77.4683 47.6053 79.7737 71.1913 82.7881 93.5362C82.6111 93.3591 82.4335 93.3591 82.0791 93.3591C67.7144 93.0041 53.3503 92.8271 39.1633 92.8271Z" fill="#07906B"/>
<path d="M60.799 100.275C58.6713 100.63 57.4299 102.757 57.9616 104.708C57.9616 104.886 57.9616 104.886 57.9616 105.063C57.9616 106.127 59.0257 106.837 59.9124 107.191C62.0404 107.901 64.3455 106.482 64.6999 104.354C64.8778 102.226 63.1044 100.098 60.799 100.275Z" fill="#07906B"/>
<path d="M64.8762 49.7331C61.6839 49.0237 59.5564 52.0385 58.4921 54.6986C58.3147 55.0535 58.3147 55.4079 58.1374 55.7629C57.9601 55.5855 57.9601 55.5855 57.7824 55.4079C55.832 53.8119 52.6396 53.4575 51.0436 55.7629C47.1422 61.2604 56.3637 66.2258 60.4425 67.1125C60.7975 67.1125 60.9745 67.1125 61.1516 67.1125C62.2159 67.2898 63.457 66.9352 64.1663 65.8711C65.9397 63.0337 67.7128 60.019 68.0677 56.4719C68.423 53.8119 67.8913 50.2654 64.8762 49.7331Z" fill="#07906B"/>
</svg>
