<svg fill="none" height="102" viewBox="0 0 605 102" width="606" xmlns="http://www.w3.org/2000/svg">
<path d="m1 1c73.4074 13.7531 146.925 13.9909 221.497 13.0952 114.789-1.3788 234.064-10.80347
             347.715 9.6725.211.038 45.034 8.8085 31.236 13.1697-21.512
             6.7996-50.269 2.1408-72.113-.0744-71.993-7.3007-140.731-24.9326-213.726-15.1785-24.542
             3.2795-50.177 6.381-74.131 12.7976-14.885 3.9873-11.37 9.0023 2.242 12.2023 27.73 6.5188
             59.627 4.6131 87.882 4.6131 16.508 0 32.975-.8061 49.47-1.2648 6.289-.1749 13.957-.436
             20.401.0744 1.987.1573 6.571.0853 5.68 1.8601-1.467 2.9199-16.49 4.864-17.711
             5.1339-15.63 3.4527-31.284 6.8157-46.93 10.1934-34.348 7.4149-69.361 12.7036-103.276
             21.9495-6.836 1.8639-35.198 11.756-10.761 11.756 34.424 0 69.3-6.1672 103.425-10.2679" stroke="#00956f" stroke-linecap="round" stroke-width="2" />
</svg>
