<svg viewBox="0 0 21 14" fill="none" xmlns="http://www.w3.org/2000/svg">
<g clip-path="url(#clip0_42204_155657)">
<path d="M0 0H21V14H0V0Z" fill="#D80027"/>
<path d="M9.2843 9.79111L8.88722 9.15251L8.15447 9.33263L8.64161 8.75544L8.24453 8.11684L8.94453 8.3993L9.42757 7.8221L9.37436 8.57532L10.0744 8.85778L9.34161 9.03789L9.2843 9.79111ZM11.896 3.35602L11.4825 3.98643L11.9574 4.57181L11.2328 4.37532L10.8194 5.00982L10.7784 4.25661L10.0539 4.06011L10.758 3.78994L10.717 3.03672L11.1919 3.6221L11.896 3.35602ZM9.66909 1.03906L9.58722 1.78819L10.2749 2.0993L9.5381 2.25485L9.45623 3.00397L9.07962 2.349L8.34687 2.50456L8.85038 1.94374L8.47377 1.29286L9.16149 1.59988L9.66909 1.03906ZM11.9861 6.62269L11.3761 7.06889L11.6135 7.78526L11.0036 7.34316L10.3937 7.79345L10.6229 7.07298L10.013 6.63497L10.7662 6.63088L10.9954 5.91041L11.2328 6.62678L11.9861 6.62269ZM4.70769 1.89462L5.41588 4.08468H7.71646L5.85798 5.43146L6.56617 7.62152L4.70769 6.27064L2.84512 7.62152L3.5574 5.43146L1.69482 4.08468H3.9995L4.70769 1.89462Z" fill="#FFDA44"/>
</g>
<defs>
<clipPath id="clip0_42204_155657">
<rect width="21" height="14" fill="white"/>
</clipPath>
</defs>
</svg>
