<svg viewBox="0 0 21 14" fill="none" xmlns="http://www.w3.org/2000/svg">
<g clip-path="url(#clip0_42204_155697)">
<path d="M0 0H21V14H0V0Z" fill="#D80027"/>
<path d="M11.2251 4.90534C11.0163 5.76909 10.6479 5.60534 10.4678 6.35856C9.39935 6.10067 8.74438 5.02815 8.99818 3.95973C9.25607 2.89131 10.3286 2.23634 11.3929 2.49014C11.0368 4.00067 11.4134 4.13166 11.2251 4.90534V4.90534ZM8.45783 5.54394C9.21514 6.00651 8.94496 6.30944 9.60403 6.7147C9.03093 7.65213 7.80695 7.94277 6.86952 7.36967C5.9321 6.79657 5.64145 5.5726 6.21455 4.63517C7.53677 5.4457 7.7783 5.13049 8.45783 5.54394V5.54394ZM8.21221 8.37669C8.88765 7.7995 9.08824 8.15154 9.67771 7.64803C10.39 8.48312 10.2917 9.73575 9.45666 10.448C8.62157 11.1603 7.36894 11.0621 6.65666 10.227C7.83151 9.21996 7.60637 8.89248 8.21221 8.37669V8.37669ZM10.828 9.48605C10.4882 8.66324 10.8853 8.58137 10.5865 7.86499C11.6017 7.44336 12.7643 7.9264 13.1818 8.9416C13.6034 9.95681 13.1204 11.1194 12.1052 11.5369C11.5116 10.1042 11.1309 10.2188 10.828 9.48605V9.48605ZM12.6906 7.34102C11.8064 7.41061 11.8473 7.00944 11.0736 7.07084C10.9877 5.97786 11.8064 5.01996 12.8993 4.934C13.9923 4.84803 14.9502 5.66675 15.0362 6.75973C13.4929 6.87844 13.4847 7.27961 12.6906 7.34102Z" fill="white"/>
</g>
<defs>
<clipPath id="clip0_42204_155697">
<rect width="21" height="14" fill="white"/>
</clipPath>
</defs>
</svg>
