<svg viewBox="0 0 21 14" fill="none" xmlns="http://www.w3.org/2000/svg">
<g clip-path="url(#clip0_42204_155902)">
<path d="M0.708008 0H20.2916V14H0.708008V0Z" fill="#181A93"/>
<path d="M0 0H21V4.66667H0V0Z" fill="#FFA44A"/>
<path d="M0 9.33203H21V13.9987H0V9.33203Z" fill="#1A9F0B"/>
<path d="M0 4.66602H21V9.33268H0V4.66602Z" fill="white"/>
<path d="M10.5001 8.39961C11.2733 8.39961 11.9001 7.77281 11.9001 6.99961C11.9001 6.22641 11.2733 5.59961 10.5001 5.59961C9.7269 5.59961 9.1001 6.22641 9.1001 6.99961C9.1001 7.77281 9.7269 8.39961 10.5001 8.39961Z" fill="white"/>
<path d="M10.5 8.86615C9.47248 8.86615 8.6333 8.02696 8.6333 6.99948C8.6333 5.97199 9.47248 5.13281 10.5 5.13281C11.5275 5.13281 12.3666 5.97199 12.3666 6.99948C12.3666 8.02696 11.5275 8.86615 10.5 8.86615ZM10.5 8.39948C11.245 8.39948 11.9 7.74451 11.9 6.99948C11.9 6.25445 11.2491 5.59948 10.5 5.59948C9.75085 5.59948 9.09997 6.25445 9.09997 6.99948C9.09997 7.74451 9.75494 8.39948 10.5 8.39948Z" fill="#181A93"/>
<path d="M10.4997 7.93307C11.0152 7.93307 11.4331 7.51521 11.4331 6.99974C11.4331 6.48427 11.0152 6.06641 10.4997 6.06641C9.98427 6.06641 9.56641 6.48427 9.56641 6.99974C9.56641 7.51521 9.98427 7.93307 10.4997 7.93307Z" fill="#181A93"/>
</g>
<defs>
<clipPath id="clip0_42204_155902">
<rect width="21" height="14" fill="white"/>
</clipPath>
</defs>
</svg>
