<svg viewBox="0 0 21 14" fill="none" xmlns="http://www.w3.org/2000/svg">
<g clip-path="url(#clip0_42204_155647)">
<path d="M0 0H21V14H0V0Z" fill="#36B6CC"/>
<path d="M10.5002 9.79727C12.0466 9.79727 13.3002 8.54366 13.3002 6.99727C13.3002 5.45087 12.0466 4.19727 10.5002 4.19727C8.9538 4.19727 7.7002 5.45087 7.7002 6.99727C7.7002 8.54366 8.9538 9.79727 10.5002 9.79727Z" fill="#FFD400"/>
<path d="M10.5003 10.296L9.35816 12.003L9.06751 9.96847L7.29909 11.0123L7.92131 9.0556L5.87453 9.22753L7.28272 7.73338L5.36283 6.99654L7.27862 6.2597L5.87044 4.76555L7.91722 4.93748L7.295 2.98075L9.06342 4.02052L9.35406 1.98602L10.4962 3.69303L11.6383 1.98602L11.9289 4.02052L13.6973 2.98075L13.0751 4.93748L15.1219 4.76555L13.7178 6.26379L15.6336 6.99654L13.7178 7.73338L15.126 9.22753L13.0792 9.0556L13.7014 11.0123L11.933 9.97256L11.6424 12.0071C11.6424 12.003 10.5003 10.296 10.5003 10.296ZM10.5003 10.2632C12.3055 10.2632 13.771 8.79771 13.771 6.99245C13.771 5.18718 12.3055 3.72578 10.5003 3.72578C8.695 3.72578 7.2295 5.19128 7.2295 6.99654C7.2295 8.8018 8.695 10.2632 10.5003 10.2632ZM0.933594 1.15911C0.933594 1.02812 1.03184 0.925781 1.16693 0.925781H1.6295C1.76049 0.925781 1.86283 1.02403 1.86283 1.15911V1.62169C1.86693 1.74859 1.76459 1.85502 1.63359 1.85502H1.16693C1.04003 1.85502 0.933594 1.75268 0.933594 1.62578V1.15911ZM0.933594 3.02987C0.933594 2.89888 1.03184 2.79654 1.16693 2.79654H1.6295C1.76049 2.79654 1.86283 2.89479 1.86283 3.02987V3.49245C1.86693 3.61935 1.76459 3.72578 1.63359 3.72578H1.16693C1.04003 3.72578 0.933594 3.62344 0.933594 3.49654V3.02987ZM0.933594 4.89654C0.933594 4.76555 1.03184 4.66321 1.16693 4.66321H1.6295C1.76049 4.66321 1.86283 4.76145 1.86283 4.89654V5.35911C1.86693 5.48601 1.76459 5.59245 1.63359 5.59245H1.16693C1.04003 5.59245 0.933594 5.49011 0.933594 5.36321V4.89654ZM0.933594 6.76321C0.933594 6.63221 1.03184 6.52987 1.16693 6.52987H1.6295C1.76049 6.52987 1.86283 6.62812 1.86283 6.76321V7.22578C1.86693 7.35268 1.76459 7.45911 1.63359 7.45911H1.16693C1.04003 7.45911 0.933594 7.35677 0.933594 7.22987V6.76321ZM0.933594 8.63397C0.933594 8.50297 1.03184 8.40063 1.16693 8.40063H1.6295C1.76049 8.40063 1.86283 8.49888 1.86283 8.63397V9.09654C1.86693 9.22344 1.76459 9.32987 1.63359 9.32987H1.16693C1.04003 9.32987 0.933594 9.22753 0.933594 9.10063V8.63397ZM0.933594 10.5006C0.933594 10.3696 1.03184 10.2673 1.16693 10.2673H1.6295C1.76049 10.2673 1.86283 10.3655 1.86283 10.5006V10.9632C1.86693 11.0901 1.76459 11.1965 1.63359 11.1965H1.16693C1.04003 11.1965 0.933594 11.0942 0.933594 10.9673V10.5006ZM0.933594 12.3673C0.933594 12.2363 1.03184 12.134 1.16693 12.134H1.6295C1.76049 12.134 1.86283 12.2322 1.86283 12.3673V12.8299C1.86693 12.9568 1.76459 13.0632 1.63359 13.0632H1.16693C1.04003 13.0632 0.933594 12.9609 0.933594 12.834V12.3673ZM1.86693 11.434C1.86693 11.303 1.96517 11.2006 2.10026 11.2006H2.56283C2.69383 11.2006 2.79617 11.2989 2.79617 11.434V11.8965C2.80026 12.0234 2.69792 12.1299 2.56693 12.1299H2.10026C1.97336 12.1299 1.86693 12.0275 1.86693 11.9006V11.434V11.434ZM1.86693 9.5673C1.86693 9.43631 1.96517 9.33397 2.10026 9.33397H2.56283C2.69383 9.33397 2.79617 9.43221 2.79617 9.5673V10.0299C2.80026 10.1568 2.69792 10.2632 2.56693 10.2632H2.10026C1.97336 10.2632 1.86693 10.1609 1.86693 10.034V9.5673V9.5673ZM1.86693 7.69654C1.86693 7.56555 1.96517 7.46321 2.10026 7.46321H2.56283C2.69383 7.46321 2.79617 7.56145 2.79617 7.69654V8.15911C2.80026 8.28601 2.69792 8.39245 2.56693 8.39245H2.10026C1.97336 8.39245 1.86693 8.29011 1.86693 8.16321V7.69654V7.69654ZM1.86693 5.82987C1.86693 5.69888 1.96517 5.59654 2.10026 5.59654H2.56283C2.69383 5.59654 2.79617 5.69479 2.79617 5.82987V6.29245C2.80026 6.41935 2.69792 6.52578 2.56693 6.52578H2.10026C1.97336 6.52578 1.86693 6.42344 1.86693 6.29654V5.82987V5.82987ZM1.86693 3.96321C1.86693 3.83221 1.96517 3.72987 2.10026 3.72987H2.56283C2.69383 3.72987 2.79617 3.82812 2.79617 3.96321V4.42578C2.80026 4.55268 2.69792 4.65911 2.56693 4.65911H2.10026C1.97336 4.65911 1.86693 4.55678 1.86693 4.42987V3.96321V3.96321ZM1.86693 2.09654C1.86693 1.96555 1.96517 1.86321 2.10026 1.86321H2.56283C2.69383 1.86321 2.79617 1.96145 2.79617 2.09654V2.55911C2.80026 2.68602 2.69792 2.79245 2.56693 2.79245H2.10026C1.97336 2.79245 1.86693 2.69011 1.86693 2.56321V2.09654V2.09654Z" fill="#FFD400"/>
</g>
<defs>
<clipPath id="clip0_42204_155647">
<rect width="21" height="14" fill="white"/>
</clipPath>
</defs>
</svg>
