<svg viewBox="0 0 21 14" fill="none" xmlns="http://www.w3.org/2000/svg">
<g clip-path="url(#clip0_42204_155722)">
<path d="M0 0H21V14H0V0Z" fill="white"/>
<path d="M0 0H21V0.99883H0V0ZM0 2.00175H21V3.00059H0V2.00175ZM0 3.99942H21V4.99825H0V3.99942ZM0 6.00117H21V7H0V6.00117ZM0 7.99883H21V8.99766H0V7.99883ZM0 10.0006H21V10.9994H0V10.0006ZM0 11.9982H21V12.9971H0V11.9982Z" fill="#CC0000"/>
<path d="M0 0H10.5V7.99883H0V0Z" fill="#000066"/>
<path d="M6.2755 1.72342C5.01877 1.25675 3.62287 1.89535 3.1562 3.15207C2.68953 4.4088 3.32813 5.8047 4.58486 6.27137C5.1293 6.47605 5.73105 6.47605 6.27959 6.27137C5.02287 7.27429 3.19304 7.07371 2.18602 5.81698C1.17901 4.56026 1.38369 2.73043 2.64041 1.72342C3.70474 0.876049 5.21527 0.876049 6.2755 1.72342V1.72342ZM7.36848 4.79359L6.52521 5.74739L6.74626 4.49476L5.47725 4.42926L6.5948 3.81932L5.85386 2.78365L7.02462 3.27488L7.36848 2.0509L7.71234 3.27488L8.8831 2.78365L8.14626 3.82342L9.2638 4.43336L7.9948 4.49886L8.21585 5.75149L7.36848 4.79359V4.79359Z" fill="#FFCC00"/>
</g>
<defs>
<clipPath id="clip0_42204_155722">
<rect width="21" height="14" fill="white"/>
</clipPath>
</defs>
</svg>
