<svg viewBox="0 0 23 16" fill="none" xmlns="http://www.w3.org/2000/svg">
<g clip-path="url(#clip0_42204_155673)">
<path d="M1 1H22V15H1V1Z" fill="white"/>
<path fill-rule="evenodd" clip-rule="evenodd" d="M4.20605 5.24023L6.1475 2.32806L6.65841 2.66866L4.71696 5.58084L4.20605 5.24023ZM4.9341 5.7256L6.87555 2.81342L7.38646 3.15402L5.44501 6.0662L4.9341 5.7256ZM5.66214 6.21096L7.60359 3.29878L8.1145 3.63938L6.17305 6.55156L5.66214 6.21096ZM14.884 12.3589L16.8255 9.4467L17.3364 9.7873L15.395 12.6995L14.884 12.3589ZM15.6121 12.8442L17.5535 9.93206L18.0644 10.2727L16.123 13.1848L15.6121 12.8442ZM18.7925 10.758L16.851 13.6702L16.3401 13.3296L18.2816 10.4174L18.7925 10.758Z" fill="black"/>
<path fill-rule="evenodd" clip-rule="evenodd" d="M17.9097 12.5808L15.4829 10.9629L15.7667 10.5371L18.1936 12.155L17.9097 12.5808Z" fill="white"/>
<path d="M14.4113 9.94142C15.4835 8.33307 15.0489 6.16003 13.4406 5.08779C11.8322 4.01556 9.65919 4.45017 8.58696 6.05852C7.51472 7.66688 7.94933 9.83992 9.55769 10.9122C11.166 11.9844 13.3391 11.5498 14.4113 9.94142Z" fill="#CA163A"/>
<path d="M8.58696 6.05852C8.05112 6.86229 8.26856 7.9495 9.07232 8.48534C9.87608 9.02118 10.9633 8.80373 11.4991 7.99997C12.035 7.19621 13.1222 6.97877 13.9259 7.51461C14.7297 8.05045 14.9472 9.13766 14.4113 9.94142C13.3396 11.5489 11.1652 11.9838 9.55769 10.9122C7.95016 9.84047 7.51528 7.66605 8.58696 6.05852V6.05852Z" fill="#0E4896"/>
<path fill-rule="evenodd" clip-rule="evenodd" d="M16.851 2.32812L18.7925 5.24031L18.2816 5.58092L16.3401 2.66873L16.851 2.32812ZM16.123 2.8135L18.0644 5.72567L17.5535 6.06628L15.6121 3.15411L16.123 2.8135ZM15.3949 3.29886L17.3364 6.21102L16.8255 6.55163L14.884 3.63947L15.3949 3.29886ZM6.17301 9.44678L8.11446 12.359L7.60355 12.6996L5.6621 9.78738L6.17301 9.44678ZM5.44496 9.93215L7.38641 12.8443L6.87551 13.1849L4.93406 10.2728L5.44496 9.93215ZM4.71696 10.4175L6.65841 13.3297L6.1475 13.6703L4.20605 10.7581L4.71696 10.4175Z" fill="black"/>
<path d="M5.79736 11.8003L6.52541 11.315L5.79736 11.8003ZM15.625 5.24856L16.4753 4.68165L15.625 5.24856ZM17.2034 4.19629L17.9314 3.71094Z" fill="black"/>
<path fill-rule="evenodd" clip-rule="evenodd" d="M18.0737 3.92381L17.3456 4.40916L17.0618 3.9834L17.7898 3.49805L18.0737 3.92381ZM16.6176 4.89452L15.7672 5.46142L15.4834 5.03567L16.3337 4.46876L16.6176 4.89452ZM6.66763 11.5278L5.93959 12.0132L5.65576 11.5874L6.38381 11.1021L6.66763 11.5278Z" fill="white"/>
</g>
<rect x="0.75" y="0.75" width="21.5" height="14.5" stroke="#C3C3C3" stroke-width="0.5"/>
<defs>
<clipPath id="clip0_42204_155673">
<rect x="1" y="1" width="21" height="14" fill="white"/>
</clipPath>
</defs>
</svg>
