<svg viewBox="0 0 23 16" fill="none" xmlns="http://www.w3.org/2000/svg">
<g clip-path="url(#clip0_42204_155878)">
<path d="M1 1H22V14.9997H1V1Z" fill="white"/>
<path d="M1 1H22V7.99986H1V1Z" fill="#D80027"/>
<path d="M4.42375 4.49958C4.42375 3.47972 5.14054 2.62774 6.09768 2.41869C5.94774 2.38581 5.79468 2.3692 5.64118 2.36914C4.46452 2.36914 3.51074 3.32292 3.51074 4.49954C3.51074 5.67615 4.46456 6.62997 5.64118 6.62997C5.79794 6.62997 5.95056 6.61254 6.09768 6.58042C5.14054 6.37145 4.42375 5.51947 4.42375 4.49958ZM7.1629 2.52135L7.314 2.98634H7.80295L7.40735 3.27374L7.55846 3.73874L7.1629 3.45138L6.7673 3.73874L6.91845 3.27374L6.52285 2.98634H7.0118L7.1629 2.52135Z" fill="white"/>
<path d="M5.97696 3.43359L6.12802 3.89859H6.61697L6.22138 4.18598L6.37248 4.65098L5.97696 4.36362L5.58137 4.65098L5.73251 4.18598L5.33691 3.89859H5.82586L5.97696 3.43359ZM8.34906 3.43359L8.50017 3.89859H8.98911L8.59352 4.18598L8.74462 4.65098L8.34906 4.36362L7.95351 4.65098L8.10465 4.18598L7.70906 3.89859H8.198L8.34906 3.43359ZM7.89252 4.80315L8.04362 5.26814H8.53257L8.13701 5.55554L8.28811 6.02053L7.89252 5.73318L7.497 6.02053L7.64811 5.55554L7.25255 5.26814H7.74146L7.89252 4.80315ZM6.43347 4.80315L6.58453 5.26814H7.07348L6.67792 5.55554L6.82902 6.02053L6.43347 5.73318L6.03791 6.02053L6.18901 5.55554L5.79346 5.26814H6.28237L6.43347 4.80315Z" fill="white"/>
</g>
<rect x="0.75" y="0.75" width="21.5" height="14.5" stroke="#C3C3C3" stroke-width="0.5"/>
<defs>
<clipPath id="clip0_42204_155878">
<rect x="1" y="1" width="21" height="14" fill="white"/>
</clipPath>
</defs>
</svg>
