<svg viewBox="0 0 68 48" fill="none" xmlns="http://www.w3.org/2000/svg">
<path d="M19.6225 18.3516C19.6225 19.1648 19.7104 19.8242 19.8643 20.3077C20.0401 20.7912 20.2599 21.3187 20.5676 21.8901C20.6775 22.0659 20.7214 22.2418 20.7214 22.3956C20.7214 22.6154 20.5896 22.8352 20.3038 23.0549L18.9192 23.978C18.7214 24.1099 18.5236 24.1758 18.3478 24.1758C18.128 24.1758 17.9082 24.0659 17.6885 23.8681C17.3808 23.5385 17.117 23.1868 16.8972 22.8352C16.6775 22.4615 16.4577 22.044 16.2159 21.5385C14.5016 23.5604 12.3478 24.5714 9.7544 24.5714C7.90824 24.5714 6.43572 24.044 5.35879 22.989C4.28187 21.9341 3.73242 20.5275 3.73242 18.7692C3.73242 16.9011 4.39176 15.3846 5.73242 14.2418C7.07308 13.0989 8.8533 12.5275 11.117 12.5275C11.8643 12.5275 12.6335 12.5934 13.4467 12.7033C14.2599 12.8132 15.0951 12.989 15.9742 13.1868V11.5824C15.9742 9.91209 15.6225 8.74725 14.9412 8.06593C14.2379 7.38462 13.0511 7.05494 11.3588 7.05494C10.5896 7.05494 9.79835 7.14286 8.98517 7.34066C8.17198 7.53846 7.38077 7.78022 6.61154 8.08791C6.25989 8.24176 5.99616 8.32967 5.84231 8.37363C5.68846 8.41758 5.57857 8.43956 5.49066 8.43956C5.18297 8.43956 5.02912 8.21978 5.02912 7.75824V6.68132C5.02912 6.32967 5.07308 6.06593 5.18297 5.91209C5.29286 5.75824 5.49066 5.6044 5.79835 5.45055C6.56758 5.05494 7.49066 4.72527 8.56758 4.46154C9.64451 4.17582 10.7874 4.04396 11.9962 4.04396C14.6115 4.04396 16.5236 4.63736 17.7544 5.82418C18.9632 7.01099 19.5786 8.81319 19.5786 11.2308V18.3516H19.6225ZM10.6995 21.6923C11.4247 21.6923 12.172 21.5604 12.9632 21.2967C13.7544 21.033 14.4577 20.5494 15.0511 19.8901C15.4027 19.4725 15.6665 19.011 15.7983 18.4835C15.9302 17.956 16.0181 17.3187 16.0181 16.5714V15.6484C15.3808 15.4945 14.6994 15.3626 13.9962 15.2747C13.2929 15.1868 12.6115 15.1429 11.9302 15.1429C10.4577 15.1429 9.38077 15.4286 8.6555 16.022C7.93022 16.6154 7.57857 17.4506 7.57857 18.5495C7.57857 19.5824 7.84231 20.3516 8.39176 20.8791C8.91923 21.4286 9.68846 21.6923 10.6995 21.6923ZM28.3478 24.0659C27.9522 24.0659 27.6885 24 27.5126 23.8462C27.3368 23.7143 27.183 23.4066 27.0511 22.989L21.8863 6C21.7544 5.56044 21.6885 5.27473 21.6885 5.12088C21.6885 4.76923 21.8643 4.57143 22.2159 4.57143H24.3698C24.7874 4.57143 25.0731 4.63736 25.2269 4.79121C25.4027 4.92308 25.5346 5.23077 25.6665 5.64835L29.3588 20.1978L32.7873 5.64835C32.8972 5.20879 33.0291 4.92308 33.2049 4.79121C33.3808 4.65934 33.6884 4.57143 34.084 4.57143H35.8423C36.2599 4.57143 36.5456 4.63736 36.7214 4.79121C36.8972 4.92308 37.0511 5.23077 37.139 5.64835L40.6115 20.3736L44.4137 5.64835C44.5456 5.20879 44.6994 4.92308 44.8533 4.79121C45.0291 4.65934 45.3148 4.57143 45.7104 4.57143H47.7544C48.106 4.57143 48.3038 4.74725 48.3038 5.12088C48.3038 5.23077 48.2818 5.34066 48.2599 5.47253C48.2379 5.6044 48.1939 5.78022 48.106 6.02198L42.8093 23.011C42.6775 23.4505 42.5236 23.7363 42.3478 23.8681C42.172 24 41.8862 24.0879 41.5126 24.0879H39.6225C39.2049 24.0879 38.9192 24.022 38.7434 23.8681C38.5676 23.7143 38.4137 23.4286 38.3258 22.989L34.9192 8.81319L31.5346 22.967C31.4247 23.4066 31.2928 23.6923 31.117 23.8462C30.9412 24 30.6335 24.0659 30.2379 24.0659H28.3478ZM56.5895 24.6593C55.4467 24.6593 54.3038 24.5275 53.2049 24.2637C52.106 24 51.2489 23.7143 50.6774 23.3846C50.3258 23.1868 50.084 22.967 49.9961 22.7692C49.9082 22.5714 49.8643 22.3516 49.8643 22.1538V21.033C49.8643 20.5714 50.0401 20.3516 50.3698 20.3516C50.5016 20.3516 50.6335 20.3736 50.7654 20.4176C50.8972 20.4615 51.095 20.5494 51.3148 20.6374C52.0621 20.967 52.8752 21.2308 53.7324 21.4066C54.6115 21.5824 55.4687 21.6703 56.3478 21.6703C57.7324 21.6703 58.8093 21.4286 59.5566 20.9451C60.3038 20.4615 60.6994 19.7582 60.6994 18.8571C60.6994 18.2418 60.5016 17.7363 60.106 17.3187C59.7104 16.9011 58.9632 16.5275 57.8862 16.1758L54.6994 15.1868C53.095 14.6813 51.9082 13.9341 51.1829 12.9451C50.4577 11.978 50.084 10.9011 50.084 9.75824C50.084 8.83516 50.2818 8.02198 50.6774 7.31868C51.0731 6.61538 51.6005 6 52.2599 5.51648C52.9192 5.01099 53.6665 4.63736 54.5456 4.37363C55.4247 4.10989 56.3478 4 57.3148 4C57.7983 4 58.3038 4.02198 58.7873 4.08791C59.2928 4.15385 59.7544 4.24176 60.2159 4.32967C60.6555 4.43956 61.073 4.54945 61.4686 4.68132C61.8643 4.81319 62.1719 4.94505 62.3917 5.07692C62.6994 5.25275 62.9192 5.42857 63.0511 5.62637C63.1829 5.8022 63.2489 6.04396 63.2489 6.35165V7.38462C63.2489 7.84615 63.073 8.08791 62.7434 8.08791C62.5676 8.08791 62.2818 8 61.9082 7.82418C60.6555 7.25275 59.2489 6.96703 57.6884 6.96703C56.4357 6.96703 55.4467 7.16483 54.7654 7.58242C54.084 8 53.7324 8.63736 53.7324 9.53846C53.7324 10.1538 53.9522 10.6813 54.3917 11.0989C54.8313 11.5165 55.6445 11.9341 56.8093 12.3077L59.9302 13.2967C61.5126 13.8022 62.6555 14.5055 63.3368 15.4066C64.0181 16.3077 64.3478 17.3407 64.3478 18.4835C64.3478 19.4286 64.15 20.2857 63.7763 21.033C63.3807 21.7802 62.8533 22.4396 62.1719 22.967C61.4906 23.5165 60.6774 23.9121 59.7324 24.1978C58.7434 24.5055 57.7104 24.6593 56.5895 24.6593Z" fill="black"/>
<path fill-rule="evenodd" clip-rule="evenodd" d="M60.7433 35.3415C53.5125 40.6821 43.007 43.5173 33.974 43.5173C21.3147 43.5173 9.90813 38.836 1.29275 31.0558C0.611433 30.4404 1.22682 29.6052 2.04 30.0887C11.3587 35.4953 22.8532 38.7701 34.7433 38.7701C42.7653 38.7701 51.5784 37.0997 59.6883 33.6712C60.8971 33.1217 61.9301 34.4624 60.7433 35.3415Z" fill="black"/>
<path fill-rule="evenodd" clip-rule="evenodd" d="M63.7551 31.9131C62.8321 30.7263 57.6453 31.3417 55.2936 31.6274C54.5903 31.7153 54.4804 31.1 55.1178 30.6384C59.2497 27.7373 66.0409 28.5725 66.8321 29.5395C67.6233 30.5285 66.6123 37.3197 62.7442 40.5725C62.1508 41.078 61.5793 40.8142 61.8431 40.1549C62.7222 37.9791 64.6782 33.078 63.7551 31.9131Z" fill="black"/>
</svg>
