<svg width="67" height="40" viewBox="0 0 67 40" fill="none" xmlns="http://www.w3.org/2000/svg">
<g id="Amazon_Web_Services_Logo 1" clip-path="url(#clip0_14170_61590)">
<g id="Group">
<path id="Vector" d="M18.9889 14.5938C18.9889 15.407 19.0768 16.0664 19.2307 16.5499C19.4065 17.0334 19.6263 17.5609 19.934 18.1323C20.0439 18.3081 20.0878 18.4839 20.0878 18.6378C20.0878 18.8576 19.9559 19.0774 19.6702 19.2971L18.2856 20.2202C18.0878 20.3521 17.89 20.418 17.7142 20.418C17.4944 20.418 17.2746 20.3081 17.0549 20.1103C16.7472 19.7806 16.4834 19.429 16.2636 19.0774C16.0439 18.7037 15.8241 18.2861 15.5823 17.7806C13.868 19.8026 11.7142 20.8136 9.12079 20.8136C7.27464 20.8136 5.80211 20.2861 4.72519 19.2312C3.64827 18.1763 3.09882 16.7697 3.09882 15.0114C3.09882 13.1433 3.75816 11.6268 5.09881 10.4839C6.43947 9.34109 8.21969 8.76966 10.4834 8.76966C11.2307 8.76966 11.9999 8.83559 12.8131 8.94548C13.6263 9.05537 14.4614 9.2312 15.3406 9.429V7.8246C15.3406 6.15427 14.9889 4.98944 14.3076 4.30812C13.6043 3.6268 12.4175 3.29713 10.7252 3.29713C9.95595 3.29713 9.16475 3.38504 8.35156 3.58285C7.53837 3.78065 6.74717 4.02241 5.97794 4.3301C5.62629 4.48395 5.36255 4.57186 5.2087 4.61581C5.05486 4.65977 4.94497 4.68175 4.85706 4.68175C4.54936 4.68175 4.39552 4.46197 4.39552 4.00043V2.92351C4.39552 2.57186 4.43947 2.30812 4.54936 2.15428C4.65925 2.00043 4.85706 1.84658 5.16475 1.69274C5.93398 1.29713 6.85705 0.967462 7.93398 0.703726C9.0109 0.418012 10.1538 0.286144 11.3625 0.286144C13.9779 0.286144 15.89 0.87955 17.1208 2.06636C18.3296 3.25318 18.945 5.05537 18.945 7.47296V14.5938H18.9889ZM10.0658 17.9345C10.7911 17.9345 11.5384 17.8026 12.3296 17.5389C13.1208 17.2752 13.8241 16.7916 14.4175 16.1323C14.7691 15.7147 15.0329 15.2532 15.1647 14.7257C15.2966 14.1982 15.3845 13.5609 15.3845 12.8136V11.8905C14.7472 11.7367 14.0658 11.6048 13.3625 11.5169C12.6592 11.429 11.9779 11.385 11.2966 11.385C9.82409 11.385 8.74716 11.6708 8.02189 12.2642C7.29662 12.8576 6.94497 13.6927 6.94497 14.7916C6.94497 15.8246 7.2087 16.5938 7.75815 17.1213C8.28563 17.6708 9.05486 17.9345 10.0658 17.9345ZM27.7142 20.3081C27.3186 20.3081 27.0548 20.2422 26.879 20.0883C26.7032 19.9565 26.5494 19.6488 26.4175 19.2312L21.2527 2.24219C21.1208 1.80263 21.0548 1.51691 21.0548 1.36307C21.0548 1.01142 21.2307 0.813616 21.5823 0.813616H23.7362C24.1537 0.813616 24.4395 0.87955 24.5933 1.0334C24.7691 1.16526 24.901 1.47296 25.0329 1.89054L28.7252 16.44L32.1537 1.89054C32.2636 1.45098 32.3955 1.16526 32.5713 1.0334C32.7471 0.901528 33.0548 0.813616 33.4504 0.813616H35.2087C35.6263 0.813616 35.912 0.87955 36.0878 1.0334C36.2636 1.16526 36.4175 1.47296 36.5054 1.89054L39.9779 16.6158L43.7801 1.89054C43.912 1.45098 44.0658 1.16526 44.2197 1.0334C44.3955 0.901528 44.6812 0.813616 45.0768 0.813616H47.1208C47.4724 0.813616 47.6702 0.98944 47.6702 1.36307C47.6702 1.47296 47.6482 1.58285 47.6263 1.71472C47.6043 1.84658 47.5603 2.02241 47.4724 2.26417L42.1757 19.2532C42.0438 19.6927 41.89 19.9785 41.7142 20.1103C41.5384 20.2422 41.2526 20.3301 40.879 20.3301H38.9889C38.5713 20.3301 38.2856 20.2642 38.1098 20.1103C37.934 19.9565 37.7801 19.6708 37.6922 19.2312L34.2856 5.05537L30.901 19.2092C30.7911 19.6488 30.6592 19.9345 30.4834 20.0883C30.3076 20.2422 29.9999 20.3081 29.6043 20.3081H27.7142ZM55.9559 20.9015C54.8131 20.9015 53.6702 20.7697 52.5713 20.5059C51.4724 20.2422 50.6153 19.9565 50.0438 19.6268C49.6922 19.429 49.4504 19.2092 49.3625 19.0114C49.2746 18.8136 49.2307 18.5938 49.2307 18.396V17.2752C49.2307 16.8136 49.4065 16.5938 49.7361 16.5938C49.868 16.5938 49.9999 16.6158 50.1318 16.6598C50.2636 16.7037 50.4614 16.7916 50.6812 16.8796C51.4285 17.2092 52.2416 17.473 53.0988 17.6488C53.9779 17.8246 54.835 17.9125 55.7142 17.9125C57.0988 17.9125 58.1757 17.6708 58.923 17.1872C59.6702 16.7037 60.0658 16.0004 60.0658 15.0993C60.0658 14.4839 59.868 13.9785 59.4724 13.5609C59.0768 13.1433 58.3296 12.7697 57.2526 12.418L54.0658 11.429C52.4614 10.9235 51.2746 10.1763 50.5493 9.18724C49.8241 8.22021 49.4504 7.14329 49.4504 6.00043C49.4504 5.07735 49.6482 4.26417 50.0438 3.56087C50.4394 2.85757 50.9669 2.24219 51.6263 1.75867C52.2856 1.25318 53.0329 0.87955 53.912 0.615814C54.7911 0.352078 55.7142 0.242188 56.6812 0.242188C57.1647 0.242188 57.6702 0.264166 58.1537 0.3301C58.6592 0.396034 59.1208 0.483946 59.5823 0.571858C60.0219 0.681748 60.4394 0.791638 60.835 0.923506C61.2306 1.05537 61.5383 1.18724 61.7581 1.31911C62.0658 1.49493 62.2856 1.67076 62.4175 1.86856C62.5493 2.04439 62.6153 2.28614 62.6153 2.59384V3.6268C62.6153 4.08834 62.4394 4.3301 62.1098 4.3301C61.9339 4.3301 61.6482 4.24219 61.2746 4.06636C60.0219 3.49493 58.6153 3.20922 57.0548 3.20922C55.8021 3.20922 54.8131 3.40702 54.1318 3.8246C53.4504 4.24219 53.0988 4.87955 53.0988 5.78065C53.0988 6.39603 53.3186 6.92351 53.7581 7.34109C54.1977 7.75867 55.0109 8.17625 56.1757 8.54988L59.2966 9.53889C60.879 10.0444 62.0219 10.7477 62.7032 11.6488C63.3845 12.5499 63.7142 13.5828 63.7142 14.7257C63.7142 15.6708 63.5164 16.5279 63.1427 17.2752C62.7471 18.0224 62.2197 18.6817 61.5383 19.2092C60.857 19.7587 60.0438 20.1543 59.0988 20.44C58.1098 20.7477 57.0768 20.9015 55.9559 20.9015Z" fill="black"/>
<g id="Group_2">
<path id="Vector_2" fill-rule="evenodd" clip-rule="evenodd" d="M60.1098 31.5827C52.879 36.9234 42.3735 39.7585 33.3406 39.7585C20.6812 39.7585 9.27465 35.0772 0.659267 27.297C-0.0220513 26.6816 0.593333 25.8464 1.40652 26.33C10.7252 31.7365 22.2197 35.0113 34.1098 35.0113C42.1318 35.0113 50.945 33.3409 59.0548 29.9124C60.2636 29.3629 61.2966 30.7036 60.1098 31.5827Z" fill="black"/>
<path id="Vector_3" fill-rule="evenodd" clip-rule="evenodd" d="M63.1207 28.1544C62.1977 26.9675 57.0109 27.5829 54.6592 27.8686C53.9559 27.9566 53.846 27.3412 54.4834 26.8796C58.6153 23.9785 65.4065 24.8137 66.1977 25.7807C66.9889 26.7697 65.9779 33.561 62.1098 36.8137C61.5164 37.3192 60.9449 37.0555 61.2087 36.3961C62.0878 34.2203 64.0438 29.3192 63.1207 28.1544Z" fill="black"/>
</g>
</g>
</g>
<defs>
<clipPath id="clip0_14170_61590">
<rect width="66.8131" height="40" fill="white"/>
</clipPath>
</defs>
</svg>
