<svg width="67" height="40" viewBox="0 0 67 40" fill="none" xmlns="http://www.w3.org/2000/svg">
<g clip-path="url(#clip0_524_2727)">
<path d="M18.9887 14.5938C18.9887 15.407 19.0766 16.0664 19.2305 16.5499C19.4063 17.0334 19.6261 17.5609 19.9338 18.1323C20.0437 18.3081 20.0876 18.4839 20.0876 18.6378C20.0876 18.8576 19.9558 19.0774 19.6701 19.2971L18.2854 20.2202C18.0876 20.3521 17.8898 20.418 17.714 20.418C17.4942 20.418 17.2744 20.3081 17.0547 20.1103C16.747 19.7806 16.4832 19.429 16.2635 19.0774C16.0437 18.7037 15.8239 18.2861 15.5821 17.7806C13.8679 19.8026 11.714 20.8136 9.12061 20.8136C7.27445 20.8136 5.80193 20.2861 4.72501 19.2312C3.64808 18.1763 3.09863 16.7697 3.09863 15.0114C3.09863 13.1433 3.75797 11.6268 5.09863 10.4839C6.43929 9.34109 8.21951 8.76966 10.4832 8.76966C11.2305 8.76966 11.9997 8.83559 12.8129 8.94548C13.6261 9.05537 14.4613 9.2312 15.3404 9.429V7.8246C15.3404 6.15427 14.9887 4.98944 14.3074 4.30812C13.6041 3.6268 12.4173 3.29713 10.725 3.29713C9.95577 3.29713 9.16456 3.38504 8.35138 3.58285C7.53819 3.78065 6.74698 4.02241 5.97775 4.3301C5.6261 4.48395 5.36237 4.57186 5.20852 4.61581C5.05468 4.65977 4.94479 4.68175 4.85687 4.68175C4.54918 4.68175 4.39534 4.46197 4.39534 4.00043V2.92351C4.39534 2.57186 4.43929 2.30812 4.54918 2.15428C4.65907 2.00043 4.85687 1.84658 5.16457 1.69274C5.9338 1.29713 6.85687 0.967462 7.93379 0.703726C9.01072 0.418012 10.1536 0.286144 11.3624 0.286144C13.9777 0.286144 15.8898 0.87955 17.1206 2.06636C18.3294 3.25318 18.9448 5.05537 18.9448 7.47296V14.5938H18.9887ZM10.0657 17.9345C10.7909 17.9345 11.5382 17.8026 12.3294 17.5389C13.1206 17.2752 13.8239 16.7916 14.4173 16.1323C14.769 15.7147 15.0327 15.2532 15.1646 14.7257C15.2964 14.1982 15.3843 13.5609 15.3843 12.8136V11.8905C14.747 11.7367 14.0657 11.6048 13.3624 11.5169C12.6591 11.429 11.9777 11.385 11.2964 11.385C9.8239 11.385 8.74698 11.6708 8.02171 12.2642C7.29643 12.8576 6.94478 13.6927 6.94478 14.7916C6.94478 15.8246 7.20852 16.5938 7.75797 17.1213C8.28544 17.6708 9.05467 17.9345 10.0657 17.9345ZM27.714 20.3081C27.3184 20.3081 27.0547 20.2422 26.8788 20.0883C26.703 19.9565 26.5492 19.6488 26.4173 19.2312L21.2525 2.24219C21.1206 1.80263 21.0547 1.51691 21.0547 1.36307C21.0547 1.01142 21.2305 0.813616 21.5821 0.813616H23.736C24.1536 0.813616 24.4393 0.87955 24.5931 1.0334C24.7689 1.16526 24.9008 1.47296 25.0327 1.89054L28.725 16.44L32.1536 1.89054C32.2635 1.45098 32.3953 1.16526 32.5711 1.0334C32.747 0.901528 33.0547 0.813616 33.4503 0.813616H35.2085C35.6261 0.813616 35.9118 0.87955 36.0876 1.0334C36.2634 1.16526 36.4173 1.47296 36.5052 1.89054L39.9777 16.6158L43.7799 1.89054C43.9118 1.45098 44.0656 1.16526 44.2195 1.0334C44.3953 0.901528 44.681 0.813616 45.0766 0.813616H47.1206C47.4722 0.813616 47.67 0.98944 47.67 1.36307C47.67 1.47296 47.6481 1.58285 47.6261 1.71472C47.6041 1.84658 47.5601 2.02241 47.4722 2.26417L42.1755 19.2532C42.0437 19.6927 41.8898 19.9785 41.714 20.1103C41.5382 20.2422 41.2525 20.3301 40.8788 20.3301H38.9887C38.5711 20.3301 38.2854 20.2642 38.1096 20.1103C37.9338 19.9565 37.7799 19.6708 37.692 19.2312L34.2854 5.05537L30.9008 19.2092C30.7909 19.6488 30.6591 19.9345 30.4832 20.0883C30.3074 20.2422 29.9997 20.3081 29.6041 20.3081H27.714ZM55.9557 20.9015C54.8129 20.9015 53.67 20.7697 52.5711 20.5059C51.4722 20.2422 50.6151 19.9565 50.0437 19.6268C49.692 19.429 49.4503 19.2092 49.3623 19.0114C49.2744 18.8136 49.2305 18.5938 49.2305 18.396V17.2752C49.2305 16.8136 49.4063 16.5938 49.736 16.5938C49.8678 16.5938 49.9997 16.6158 50.1316 16.6598C50.2634 16.7037 50.4612 16.7916 50.681 16.8796C51.4283 17.2092 52.2415 17.473 53.0986 17.6488C53.9777 17.8246 54.8349 17.9125 55.714 17.9125C57.0986 17.9125 58.1755 17.6708 58.9228 17.1872C59.67 16.7037 60.0656 16.0004 60.0656 15.0993C60.0656 14.4839 59.8678 13.9785 59.4722 13.5609C59.0766 13.1433 58.3294 12.7697 57.2524 12.418L54.0656 11.429C52.4612 10.9235 51.2744 10.1763 50.5492 9.18724C49.8239 8.22021 49.4503 7.14329 49.4503 6.00043C49.4503 5.07735 49.6481 4.26417 50.0437 3.56087C50.4393 2.85757 50.9667 2.24219 51.6261 1.75867C52.2854 1.25318 53.0327 0.87955 53.9118 0.615814C54.7909 0.352078 55.714 0.242188 56.681 0.242188C57.1645 0.242188 57.67 0.264166 58.1535 0.3301C58.659 0.396034 59.1206 0.483946 59.5821 0.571858C60.0217 0.681748 60.4393 0.791638 60.8349 0.923506C61.2305 1.05537 61.5382 1.18724 61.7579 1.31911C62.0656 1.49493 62.2854 1.67076 62.4173 1.86856C62.5491 2.04439 62.6151 2.28614 62.6151 2.59384V3.6268C62.6151 4.08834 62.4393 4.3301 62.1096 4.3301C61.9338 4.3301 61.648 4.24219 61.2744 4.06636C60.0217 3.49493 58.6151 3.20922 57.0546 3.20922C55.8019 3.20922 54.8129 3.40702 54.1316 3.8246C53.4502 4.24219 53.0986 4.87955 53.0986 5.78065C53.0986 6.39603 53.3184 6.92351 53.7579 7.34109C54.1975 7.75867 55.0107 8.17625 56.1755 8.54988L59.2964 9.53889C60.8788 10.0444 62.0217 10.7477 62.703 11.6488C63.3843 12.5499 63.714 13.5828 63.714 14.7257C63.714 15.6708 63.5162 16.5279 63.1425 17.2752C62.7469 18.0224 62.2195 18.6817 61.5382 19.2092C60.8568 19.7587 60.0437 20.1543 59.0986 20.44C58.1096 20.7477 57.0766 20.9015 55.9557 20.9015Z" fill="black"/>
<path fill-rule="evenodd" clip-rule="evenodd" d="M60.1095 31.5827C52.8787 36.9234 42.3732 39.7585 33.3403 39.7585C20.6809 39.7585 9.27434 35.0772 0.658962 27.297C-0.0223565 26.6816 0.593028 25.8464 1.40621 26.33C10.7249 31.7365 22.2194 35.0113 34.1095 35.0113C42.1315 35.0113 50.9447 33.3409 59.0545 29.9124C60.2633 29.3629 61.2963 30.7036 60.1095 31.5827Z" fill="black"/>
<path fill-rule="evenodd" clip-rule="evenodd" d="M63.1204 28.1544C62.1973 26.9675 57.0105 27.5829 54.6588 27.8686C53.9555 27.9566 53.8457 27.3412 54.483 26.8796C58.6149 23.9785 65.4061 24.8137 66.1973 25.7807C66.9885 26.7697 65.9775 33.561 62.1094 36.8137C61.516 37.3192 60.9446 37.0555 61.2083 36.3961C62.0874 34.2203 64.0435 29.3192 63.1204 28.1544Z" fill="black"/>
</g>
<defs>
<clipPath id="clip0_524_2727">
<rect width="66.8131" height="40" fill="white"/>
</clipPath>
</defs>
</svg>
