<svg width="47" height="47" viewBox="0 0 47 47" fill="none" xmlns="http://www.w3.org/2000/svg">
<g id="Appium 1">
<path id="Vector" d="M36.235 5.07562C30.706 0.301951 18.4717 -2.0618 9.30295 4.79123C0.701103 10.5566 0.276367 21.0956 0.276367 21.0956C1.74079 26.8609 7.55414 32.3899 18.7543 29.6974C17.432 21.9451 20.0266 2.33515 36.235 5.07562Z" fill="#404040"/>
<path id="Vector_2" d="M30.4768 23.8212C24.4271 28.8423 6.01016 36.5042 0.278059 21.0955C-1.09033 28.2698 2.70829 40.2123 13.227 44.7256C22.5213 49.2906 32.2053 44.0035 32.2053 44.0035C36.4656 39.8522 38.4083 32.1737 30.4768 23.8212Z" fill="#656565"/>
<path id="Vector_3" d="M19.5479 16.7778C26.9216 19.5072 42.6831 31.3352 32.205 44.0035C39.1024 41.6009 47.1927 32.41 45.8428 21.0455C45.1502 10.7133 36.2345 5.07543 36.2345 5.07543C30.5098 3.46143 22.8146 5.731 19.5479 16.7778Z" fill="black"/>
</g>
</svg>
