<svg width="50" height="50" viewBox="0 0 50 50" fill="none" xmlns="http://www.w3.org/2000/svg">
<path d="M36.5063 31.9619C35.3563 31.9621 34.4239 31.0301 34.4237 29.8801C34.4235 28.7301 35.3556 27.7977 36.5056 27.7974C37.6556 27.7972 38.5879 28.7293 38.5882 29.8793C38.5869 31.0286 37.6558 31.9601 36.5063 31.9619ZM13.4937 31.9619C12.3437 31.9621 11.4113 31.0301 11.411 29.8801C11.4108 28.7301 12.3429 27.7977 13.4929 27.7974C14.6429 27.7972 15.5752 28.7293 15.5755 29.8793C15.5743 31.0287 14.6431 31.9603 13.4937 31.9619ZM37.253 19.4205L41.4139 12.2139C41.6532 11.7999 41.5116 11.2703 41.0977 11.0309C40.6837 10.7916 40.154 10.9332 39.9147 11.3472L35.7013 18.6448C32.4793 17.1743 28.8607 16.3555 24.9996 16.3555C21.1385 16.3555 17.5203 17.1755 14.2983 18.6448L10.0853 11.3472C9.84629 10.9331 9.3168 10.7911 8.90273 11.0302C8.48867 11.2691 8.34668 11.7986 8.58574 12.2127L12.747 19.4205C5.60195 23.3067 0.714844 30.54 0 39.0861H50C49.2844 30.54 44.3977 23.3067 37.253 19.4205Z" fill="black"/>
</svg>
