<svg width="72" height="48" viewBox="0 0 72 48" fill="none" xmlns="http://www.w3.org/2000/svg">
<path d="M33.6695 45.4366C41.6314 44.0301 48.2075 42.8663 48.283 42.8503L48.4203 42.8212L40.9035 33.8802C36.7693 28.9627 33.3867 24.9202 33.3867 24.8969C33.3867 24.8528 41.1484 3.47884 41.1921 3.40279C41.2067 3.37737 46.4888 12.4967 53.9962 25.5086C61.0249 37.6906 66.8196 47.7347 66.8735 47.8289L66.9714 48L43.0824 47.9969L19.1934 47.9938L33.6695 45.4366ZM5 42.7101C5 42.6975 8.54189 36.5491 12.8709 29.047L20.7417 15.4068L29.9143 7.70924C34.9592 3.47558 39.1004 0.00650067 39.117 0.000173904C39.1336 -0.00615161 39.0673 0.160879 38.9696 0.371354C38.8718 0.58183 34.3898 10.1953 29.0094 21.7346L19.227 42.7151L12.1135 42.724C8.20107 42.7289 5 42.7226 5 42.7101Z" fill="black"/>
</svg>
