<svg width="45" height="45" viewBox="0 0 45 45" fill="none" xmlns="http://www.w3.org/2000/svg">
<g id="pluginIcon 1" clip-path="url(#clip0_4730_34359)">
<g id="Clip path group">
<mask id="mask0_4730_34359" style="mask-type:luminance" maskUnits="userSpaceOnUse" x="0" y="0" width="45" height="45">
<g id="clip0">
<path id="Vector" d="M44.9966 0H0V44.9966H44.9966V0Z" fill="white"/>
</g>
</mask>
<g mask="url(#mask0_4730_34359)">
<g id="Group">
<path id="Vector_2" d="M8.11051 22.1279C8.10674 22.2507 8.10546 22.3748 8.10546 22.4989C8.10546 22.6231 8.10674 22.7459 8.11051 22.87C8.30684 30.6475 14.6734 36.8912 22.4989 36.8912C30.3232 36.8912 36.6898 30.6475 36.8861 22.87C36.7177 31.501 30.6195 38.6769 22.4989 40.4968C21.1944 40.7894 19.8381 40.9439 18.4462 40.9439C8.33847 40.9439 0.129184 32.8144 0.00127551 22.7371C0 22.6585 0 22.5787 0 22.4989C0 22.4191 0 22.3393 0.00127551 22.2608C0.129184 9.94561 10.1533 0 22.4989 0C34.8445 0 44.8675 9.94561 44.9954 22.2609C44.8675 12.1835 36.6582 4.0527 26.5517 4.0527C25.1598 4.0527 23.8034 4.20719 22.499 4.49974C14.377 6.31969 8.27898 13.4968 8.11051 22.1279Z" fill="#6B6B6B"/>
<path id="Vector_3" d="M36.8911 22.4989V39.7914C32.9904 43.0411 27.9739 44.9966 22.4989 44.9966C10.1533 44.9966 0.129129 35.0522 0.0012207 22.737C0.129129 32.8143 8.33839 40.9438 18.4462 40.9438C19.838 40.9438 21.1945 40.7893 22.4989 40.4967C30.6196 38.6768 36.7176 31.5009 36.886 22.8699C36.8899 22.7459 36.8911 22.623 36.8911 22.4989Z" fill="#3E3E3E"/>
<path id="Vector_4" d="M44.9967 22.499V40.9439C44.9967 43.183 43.1818 44.9966 40.944 44.9966C38.7061 44.9966 36.8913 43.183 36.8913 40.9439V22.499C36.8913 14.5493 30.4474 8.10544 22.499 8.10544C14.6735 8.10544 8.30687 14.3492 8.1106 22.1278C8.27901 13.4968 14.3771 6.31967 22.499 4.49978C23.8035 4.20722 25.1599 4.05273 26.5517 4.05273C36.6582 4.05273 44.8675 12.1835 44.9954 22.2608C44.9967 22.3394 44.9967 22.4192 44.9967 22.499Z" fill="black"/>
</g>
</g>
</g>
</g>
<defs>
<clipPath id="clip0_4730_34359">
<rect width="45" height="45" fill="white"/>
</clipPath>
</defs>
</svg>
