<svg width="59" height="59" viewBox="0 0 59 59" fill="none" xmlns="http://www.w3.org/2000/svg">
<path d="M48.6281 22.0892V17.5816L43.8845 12.3896L36.1201 29.4996L43.8845 46.6037L48.6281 41.4058V36.8983L47.0469 37.972V35.8067L48.6281 34.9866V30.4496L47.0469 30.4909V28.4613L48.6281 28.5379V24.1188L47.0469 23.2928V21.7706L48.6281 22.0892Z" fill="#6B6B6B"/>
<path d="M35.4293 50.8398L43.884 46.6036V12.3836L35.4293 8.15918L25.8418 29.8594L35.4293 50.8398Z" fill="#5F5F5F"/>
<path d="M23.5705 50.8398H35.4295V8.15918H23.5705L17.4463 29.8594L23.5705 50.8398Z" fill="#474747"/>
<path d="M23.5704 50.8398L15.039 46.6036L12.3545 29.8594L15.039 12.3836L23.5468 8.15918L23.5704 50.8398Z" fill="#2E2E2E"/>
<path d="M47.0459 35.8068L43.8776 37.3526L35.4288 39.1757H29.6586H23.5698L15.2744 37.3526L15.1269 37.3231L15.0325 37.2995V30.8567L23.558 31.4703H29.6586H35.4288L43.8835 30.8567L48.633 30.4614L47.0459 30.4496V28.5498L48.6094 28.5321L43.8835 28.184L35.4288 27.9126H29.6586H23.6347L15.0325 28.1191V21.6291L15.1269 21.6114L23.6347 19.6113H29.6586H35.4288L43.8835 21.6114L47.0459 23.2988V22.2309L48.6271 22.1011L43.8835 18.7853L35.4288 16.0536H29.6586H23.6347L15.0325 18.8797V12.3838L10.8848 17.5817V22.0952L12.0707 22.2309V23.3165L10.8848 24.0245V28.538L12.0707 28.5498V30.4496L10.8848 30.4673V34.9572L12.0707 35.6652V36.7685L10.873 36.9042L10.8848 41.4L15.0325 46.5979V40.102L23.5639 42.7334H29.6586H35.4288L43.8835 40.1138L48.6271 36.8983L47.0459 36.7685V35.8068Z" fill="black"/>
</svg>
