<svg width="48" height="48" viewBox="0 0 48 48" fill="none" xmlns="http://www.w3.org/2000/svg">
<path d="M34.861 19.904C32.277 19.904 31.189 22.25 31.019 23.949H38.294C38.329 22.42 37.649 19.904 34.861 19.904ZM16.331 14.396H16.263C15.923 15.722 15.583 17.32 15.175 18.679L13.407 24.323H19.288L17.486 18.679C17.045 17.286 16.671 15.722 16.331 14.396ZM0 0V48H47.998V0H0ZM22.077 33.979L20.003 27.486H12.728L10.756 33.979H6.438L13.781 11.065H19.118L26.563 33.979H22.077ZM42.102 26.873H31.019C31.122 29.865 33.467 31.157 36.119 31.157C38.057 31.157 39.451 30.885 40.709 30.409L41.32 33.299C39.892 33.877 37.921 34.319 35.541 34.319C30.17 34.319 27.008 31.021 27.008 25.956C27.008 21.367 29.796 17.049 35.1 17.049C40.471 17.049 42.239 21.468 42.239 25.106C42.238 25.888 42.171 26.499 42.102 26.873Z" fill="black"/>
</svg>
