<svg width="54" height="54" viewBox="0 0 54 54" fill="none" xmlns="http://www.w3.org/2000/svg">
<g id="appcenterms-icon 1" clip-path="url(#clip0_4730_34060)">
<g id="g6">
<path id="path2" d="M54 48.375L40.5 54L0 40.5L40.5 46.35V0L54 5.625V48.375Z" fill="black"/>
<path id="path4" d="M13.5 9L18.675 10.125V18.225L27 12.375V19.125L18.45 23.625L27 28.125V34.875L18.45 29.025V37.125L13.5 38.25L4.5 30.375V27L9.675 23.625L4.5 20.25V16.875L13.5 9ZM7.2 18.225L13.5 21.375V13.5L7.2 18.225ZM13.5 33.75V25.875L7.2 29.025L13.5 33.75ZM27 12.375L33.75 14.625V32.625L27 34.875V12.375Z" fill="black"/>
</g>
</g>
<defs>
<clipPath id="clip0_4730_34060">
<rect width="54" height="54" fill="white"/>
</clipPath>
</defs>
</svg>
