<svg width="132" height="17" viewBox="0 0 132 17" fill="none" xmlns="http://www.w3.org/2000/svg">
<path d="M7.395 13L6.647 10.144H3.4L2.669 13H0.085L3.298 1.134H6.902L10.115 13H7.395ZM5.1 3.599H4.964L3.808 8.087H6.256L5.1 3.599ZM11.2984 13V4.228H13.8144V5.826H13.9164C14.0184 5.57667 14.143 5.34433 14.2904 5.129C14.4377 4.91367 14.6134 4.72667 14.8174 4.568C15.0327 4.398 15.2764 4.26767 15.5484 4.177C15.8317 4.075 16.149 4.024 16.5004 4.024C16.9197 4.024 17.305 4.09767 17.6564 4.245C18.0077 4.381 18.308 4.59067 18.5574 4.874C18.8067 5.15733 18.9994 5.503 19.1354 5.911C19.2827 6.319 19.3564 6.78933 19.3564 7.322V13H16.8404V7.662C16.8404 6.52867 16.3474 5.962 15.3614 5.962C15.1687 5.962 14.976 5.99033 14.7834 6.047C14.602 6.09233 14.4377 6.17167 14.2904 6.285C14.143 6.387 14.024 6.51733 13.9334 6.676C13.854 6.83467 13.8144 7.02167 13.8144 7.237V13H11.2984ZM27.0677 11.402H26.9487C26.7221 11.9347 26.4047 12.371 25.9967 12.711C25.6001 13.0397 25.0504 13.204 24.3477 13.204C23.8604 13.204 23.4127 13.1133 23.0047 12.932C22.6081 12.7507 22.2624 12.473 21.9677 12.099C21.6844 11.725 21.4577 11.249 21.2877 10.671C21.1291 10.093 21.0497 9.40733 21.0497 8.614C21.0497 7.82067 21.1291 7.135 21.2877 6.557C21.4577 5.979 21.6844 5.503 21.9677 5.129C22.2624 4.755 22.6081 4.47733 23.0047 4.296C23.4127 4.11467 23.8604 4.024 24.3477 4.024C24.6991 4.024 25.0107 4.06933 25.2827 4.16C25.5547 4.25067 25.7927 4.37533 25.9967 4.534C26.2121 4.69267 26.3934 4.88533 26.5407 5.112C26.6994 5.32733 26.8354 5.56533 26.9487 5.826H27.0677V0.42H29.5837V13H27.0677V11.402ZM25.4357 11.249C25.8777 11.249 26.2574 11.1413 26.5747 10.926C26.9034 10.7107 27.0677 10.3707 27.0677 9.906V7.322C27.0677 6.85733 26.9034 6.51733 26.5747 6.302C26.2574 6.08667 25.8777 5.979 25.4357 5.979C24.8691 5.979 24.4327 6.15467 24.1267 6.506C23.8207 6.846 23.6677 7.322 23.6677 7.934V9.294C23.6677 9.906 23.8207 10.3877 24.1267 10.739C24.4327 11.079 24.8691 11.249 25.4357 11.249ZM41.2834 13V4.228H43.3064V5.52H43.4254C43.5614 5.112 43.7541 4.76067 44.0034 4.466C44.2641 4.17133 44.6268 4.024 45.0914 4.024C45.9414 4.024 46.4628 4.52267 46.6554 5.52H46.7574C46.8254 5.316 46.9104 5.12333 47.0124 4.942C47.1144 4.76067 47.2391 4.602 47.3864 4.466C47.5338 4.33 47.7094 4.22233 47.9134 4.143C48.1174 4.06367 48.3554 4.024 48.6274 4.024C49.8514 4.024 50.4634 4.925 50.4634 6.727V13H48.4404V6.982C48.4404 6.574 48.3668 6.29067 48.2194 6.132C48.0834 5.962 47.9021 5.877 47.6754 5.877C47.4601 5.877 47.2731 5.95067 47.1144 6.098C46.9671 6.234 46.8934 6.44933 46.8934 6.744V13H44.8534V6.982C44.8534 6.574 44.7854 6.29067 44.6494 6.132C44.5248 5.962 44.3491 5.877 44.1224 5.877C43.8958 5.877 43.7031 5.95067 43.5444 6.098C43.3858 6.234 43.3064 6.44933 43.3064 6.744V13H41.2834ZM59.2458 13C58.7245 13 58.3051 12.8697 57.9878 12.609C57.6705 12.337 57.4835 11.9517 57.4268 11.453H57.3418C57.1831 12.031 56.8658 12.4673 56.3898 12.762C55.9251 13.0567 55.3528 13.204 54.6728 13.204C53.8228 13.204 53.1371 12.9773 52.6158 12.524C52.1058 12.0593 51.8508 11.4133 51.8508 10.586C51.8508 9.668 52.1851 8.988 52.8538 8.546C53.5225 8.104 54.5028 7.883 55.7948 7.883H57.2058V7.441C57.2058 6.91967 57.0811 6.52867 56.8318 6.268C56.5938 5.996 56.1858 5.86 55.6078 5.86C55.0751 5.86 54.6445 5.962 54.3158 6.166C53.9871 6.37 53.7038 6.63633 53.4658 6.965L52.0888 5.741C52.3835 5.24233 52.8425 4.83433 53.4658 4.517C54.1005 4.18833 54.9108 4.024 55.8968 4.024C57.0981 4.024 58.0331 4.30167 58.7018 4.857C59.3818 5.401 59.7218 6.22833 59.7218 7.339V11.181H60.6908V13H59.2458ZM55.6248 11.555C56.0668 11.555 56.4408 11.4473 56.7468 11.232C57.0528 11.0167 57.2058 10.705 57.2058 10.297V9.243H55.8628C54.8315 9.243 54.3158 9.58867 54.3158 10.28V10.62C54.3158 10.926 54.4348 11.1583 54.6728 11.317C54.9108 11.4757 55.2281 11.555 55.6248 11.555ZM62.2652 13V4.228H64.7812V5.826H64.8832C64.9852 5.57667 65.1098 5.34433 65.2572 5.129C65.4045 4.91367 65.5802 4.72667 65.7842 4.568C65.9995 4.398 66.2432 4.26767 66.5152 4.177C66.7985 4.075 67.1158 4.024 67.4672 4.024C67.8865 4.024 68.2718 4.09767 68.6232 4.245C68.9745 4.381 69.2748 4.59067 69.5242 4.874C69.7735 5.15733 69.9662 5.503 70.1022 5.911C70.2495 6.319 70.3232 6.78933 70.3232 7.322V13H67.8072V7.662C67.8072 6.52867 67.3142 5.962 66.3282 5.962C66.1355 5.962 65.9428 5.99033 65.7502 6.047C65.5688 6.09233 65.4045 6.17167 65.2572 6.285C65.1098 6.387 64.9908 6.51733 64.9002 6.676C64.8208 6.83467 64.7812 7.02167 64.7812 7.237V13H62.2652ZM78.6635 4.228H81.2305L77.0995 14.411C76.8388 15.057 76.4932 15.55 76.0625 15.89C75.6318 16.23 75.0425 16.4 74.2945 16.4H72.5605V14.445H74.6685L75.2125 12.949L71.6765 4.228H74.3795L75.6545 7.917L76.4535 10.467H76.5895L77.3545 7.917L78.6635 4.228ZM92.2502 13V4.228H94.2732V5.52H94.3922C94.5282 5.112 94.7209 4.76067 94.9702 4.466C95.2309 4.17133 95.5936 4.024 96.0582 4.024C96.9082 4.024 97.4296 4.52267 97.6222 5.52H97.7242C97.7922 5.316 97.8772 5.12333 97.9792 4.942C98.0812 4.76067 98.2059 4.602 98.3532 4.466C98.5006 4.33 98.6762 4.22233 98.8802 4.143C99.0842 4.06367 99.3222 4.024 99.5942 4.024C100.818 4.024 101.43 4.925 101.43 6.727V13H99.4072V6.982C99.4072 6.574 99.3336 6.29067 99.1862 6.132C99.0502 5.962 98.8689 5.877 98.6422 5.877C98.4269 5.877 98.2399 5.95067 98.0812 6.098C97.9339 6.234 97.8602 6.44933 97.8602 6.744V13H95.8202V6.982C95.8202 6.574 95.7522 6.29067 95.6162 6.132C95.4916 5.962 95.3159 5.877 95.0892 5.877C94.8626 5.877 94.6699 5.95067 94.5112 6.098C94.3526 6.234 94.2732 6.44933 94.2732 6.744V13H92.2502ZM107.034 13.204C106.354 13.204 105.742 13.102 105.198 12.898C104.654 12.6827 104.189 12.3767 103.804 11.98C103.43 11.5833 103.141 11.1017 102.937 10.535C102.733 9.96833 102.631 9.328 102.631 8.614C102.631 7.9 102.733 7.25967 102.937 6.693C103.141 6.12633 103.43 5.64467 103.804 5.248C104.189 4.85133 104.654 4.551 105.198 4.347C105.742 4.13167 106.354 4.024 107.034 4.024C107.714 4.024 108.326 4.13167 108.87 4.347C109.414 4.551 109.873 4.85133 110.247 5.248C110.632 5.64467 110.927 6.12633 111.131 6.693C111.335 7.25967 111.437 7.9 111.437 8.614C111.437 9.328 111.335 9.96833 111.131 10.535C110.927 11.1017 110.632 11.5833 110.247 11.98C109.873 12.3767 109.414 12.6827 108.87 12.898C108.326 13.102 107.714 13.204 107.034 13.204ZM107.034 11.334C107.6 11.334 108.042 11.1583 108.36 10.807C108.677 10.4557 108.836 9.957 108.836 9.311V7.917C108.836 7.271 108.677 6.77233 108.36 6.421C108.042 6.06967 107.6 5.894 107.034 5.894C106.467 5.894 106.025 6.06967 105.708 6.421C105.39 6.77233 105.232 7.271 105.232 7.917V9.311C105.232 9.957 105.39 10.4557 105.708 10.807C106.025 11.1583 106.467 11.334 107.034 11.334ZM113.385 11.045H115.408V6.183H113.385V4.228H117.924V6.71H118.043C118.122 6.39267 118.23 6.08667 118.366 5.792C118.513 5.486 118.695 5.21967 118.91 4.993C119.137 4.755 119.409 4.568 119.726 4.432C120.043 4.296 120.417 4.228 120.848 4.228H121.681V6.54H119.811C119.188 6.54 118.717 6.727 118.4 7.101C118.083 7.46367 117.924 7.91133 117.924 8.444V11.045H120.814V13H113.385V11.045ZM127.658 13.204C126.185 13.204 125.069 12.796 124.309 11.98C123.55 11.164 123.17 10.0533 123.17 8.648C123.17 7.934 123.267 7.29367 123.459 6.727C123.663 6.149 123.947 5.66167 124.309 5.265C124.683 4.857 125.131 4.551 125.652 4.347C126.185 4.13167 126.78 4.024 127.437 4.024C128.095 4.024 128.684 4.13167 129.205 4.347C129.727 4.551 130.169 4.84567 130.531 5.231C130.894 5.61633 131.172 6.08667 131.364 6.642C131.568 7.186 131.67 7.798 131.67 8.478V9.226H125.669V9.379C125.669 9.94567 125.845 10.4047 126.196 10.756C126.548 11.096 127.063 11.266 127.743 11.266C128.265 11.266 128.712 11.1697 129.086 10.977C129.46 10.773 129.783 10.5067 130.055 10.178L131.415 11.657C131.075 12.0763 130.599 12.439 129.987 12.745C129.375 13.051 128.599 13.204 127.658 13.204ZM127.454 5.826C126.91 5.826 126.474 5.996 126.145 6.336C125.828 6.66467 125.669 7.11233 125.669 7.679V7.815H129.205V7.679C129.205 7.101 129.047 6.64767 128.729 6.319C128.423 5.99033 127.998 5.826 127.454 5.826Z" fill="black"/>
</svg>
