<svg width="48" height="48" viewBox="0 0 48 48" fill="none" xmlns="http://www.w3.org/2000/svg">
<path d="M47.8128 26.2165C47.5318 24.2387 46.8467 22.363 45.7762 20.6422C44.8425 19.1405 43.6444 17.8048 42.2145 16.6696L42.2183 16.666L27.2 5.13111C27.1876 5.12023 27.1747 5.11011 27.1662 5.1042C26.6668 4.7217 25.9908 4.51123 25.2633 4.51123C24.5349 4.51123 23.8324 4.72217 23.2863 5.10532C22.6991 5.51548 22.3635 6.0597 22.34 6.63907C22.3186 7.17945 22.5764 7.69948 23.0679 8.10495C24.0345 8.86751 24.999 9.64686 25.9646 10.4269C26.9018 11.1844 27.8675 11.9645 28.8286 12.724L10.4336 12.7115C8.32994 12.7115 6.89753 13.6994 6.60288 15.3532C6.47341 16.0776 6.70188 16.8741 7.21263 17.4842C7.7545 18.1309 8.54125 18.4877 9.42785 18.4877L10.8302 18.4885C12.7674 18.4885 14.7132 18.4838 16.6563 18.4791L18.5094 18.4748L1.8145 30.8262L1.74822 30.8746C0.815689 31.5895 0.205189 32.5915 0.0734701 33.6238C-0.0263736 34.4059 0.156064 35.1205 0.601283 35.6913C1.13191 36.3716 1.96038 36.7459 2.93425 36.7459C3.89097 36.7459 4.86719 36.3833 5.68431 35.7232L14.6999 28.3451C14.6613 28.7054 14.6146 29.234 14.6199 29.6176C14.63 30.225 14.825 31.4437 15.1338 32.4332C15.7716 34.4667 16.8461 36.3272 18.3272 37.961C19.8682 39.6608 21.7451 41.0087 23.9053 41.9661C26.1891 42.9762 28.6441 43.4889 31.2024 43.4889H31.2261C33.7926 43.4827 36.2554 42.9619 38.5466 41.9404C40.7103 40.9715 42.5864 39.6183 44.1216 37.9186C45.6008 36.2765 46.6737 34.4129 47.3103 32.381C47.625 31.376 47.8278 30.3354 47.9119 29.287C47.9906 28.2718 47.9567 27.2387 47.8128 26.2165ZM31.3895 35.9627C25.7512 35.9627 21.179 31.8726 21.179 26.827C21.179 21.7819 25.7513 17.6918 31.3895 17.6918C37.0278 17.6918 41.5996 21.7819 41.5996 26.827C41.5997 31.8726 37.0278 35.9627 31.3895 35.9627ZM37.2776 26.0242C37.3607 27.5302 36.7592 28.9284 35.703 29.9635C34.6285 31.018 33.0952 31.6804 31.3809 31.6804C29.6671 31.6804 28.1337 31.018 27.0588 29.9635C26.003 28.9284 25.4028 27.5303 25.4853 26.0255C25.5664 24.5627 26.28 23.2715 27.3547 22.3572C28.4116 21.4582 29.8307 20.9097 31.3808 20.9097C32.9313 20.9097 34.35 21.4583 35.4069 22.3572C36.4819 23.2715 37.1958 24.5618 37.2776 26.0242Z" fill="black"/>
</svg>
