<svg width="56" height="56" viewBox="0 0 56 56" fill="none" xmlns="http://www.w3.org/2000/svg">
<g id="browserstack-icon 1" clip-path="url(#clip0_4730_34002)">
<g id="Group">
<path id="Vector" d="M28.0655 56.0004C43.4938 56.0004 56.001 43.4933 56.001 28.065C56.001 12.6367 43.4938 0.129608 28.0655 0.129608C12.6372 0.129608 0.130127 12.6367 0.130127 28.065C0.130127 43.4933 12.6372 56.0004 28.0655 56.0004Z" fill="black"/>
<path id="Vector_2" d="M25.2327 50.4648C39.1683 50.4648 50.4653 39.1678 50.4653 25.2321C50.4653 11.2965 39.1683 -0.000518799 25.2327 -0.000518799C11.297 -0.000518799 0 11.2965 0 25.2321C0 39.1678 11.297 50.4648 25.2327 50.4648Z" fill="#676767"/>
<path id="Vector_3" d="M28.708 43.8992C40.7947 43.8992 50.5928 34.101 50.5928 22.0144C50.5928 9.92776 40.7947 0.129608 28.708 0.129608C16.6214 0.129608 6.82324 9.92776 6.82324 22.0144C6.82324 34.101 16.6214 43.8992 28.708 43.8992Z" fill="#575757"/>
<path id="Vector_4" d="M30.3807 43.7691C41.4717 43.7691 50.4627 34.778 50.4627 23.687C50.4627 12.596 41.4717 3.60495 30.3807 3.60495C19.2896 3.60495 10.2986 12.596 10.2986 23.687C10.2986 34.778 19.2896 43.7691 30.3807 43.7691Z" fill="#363636"/>
<path id="Vector_5" d="M28.9655 43.8992C39.275 43.8992 47.6325 35.5417 47.6325 25.2322C47.6325 14.9227 39.275 6.56525 28.9655 6.56525C18.6561 6.56525 10.2986 14.9227 10.2986 25.2322C10.2986 35.5417 18.6561 43.8992 28.9655 43.8992Z" fill="#636363"/>
<path id="Vector_6" d="M26.0052 37.7185C34.6079 37.7185 41.5818 30.7446 41.5818 22.1419C41.5818 13.5391 34.6079 6.56525 26.0052 6.56525C17.4025 6.56525 10.4286 13.5391 10.4286 22.1419C10.4286 30.7446 17.4025 37.7185 26.0052 37.7185Z" fill="#525252"/>
<path id="Vector_7" d="M28.4505 32.698C35.7027 32.698 41.5819 26.8188 41.5819 19.5666C41.5819 12.3143 35.7027 6.43518 28.4505 6.43518C21.1982 6.43518 15.3191 12.3143 15.3191 19.5666C15.3191 26.8188 21.1982 32.698 28.4505 32.698Z" fill="#828282"/>
<path id="Vector_8" d="M30.1231 32.828C36.4515 32.828 41.5818 27.6978 41.5818 21.3693C41.5818 15.0408 36.4515 9.91052 30.1231 9.91052C23.7946 9.91052 18.6643 15.0408 18.6643 21.3693C18.6643 27.6978 23.7946 32.828 30.1231 32.828Z" fill="#B8B8B8"/>
<path id="Vector_9" d="M28.4505 32.698C33.8538 32.698 38.234 28.3177 38.234 22.9144C38.234 17.5112 33.8538 13.1309 28.4505 13.1309C23.0472 13.1309 18.667 17.5112 18.667 22.9144C18.667 28.3177 23.0472 32.698 28.4505 32.698Z" fill="url(#paint0_radial_4730_34002)"/>
<path id="Vector_10" d="M28.4505 32.698C33.8538 32.698 38.234 28.3177 38.234 22.9144C38.234 17.5112 33.8538 13.1309 28.4505 13.1309C23.0472 13.1309 18.667 17.5112 18.667 22.9144C18.667 28.3177 23.0472 32.698 28.4505 32.698Z" fill="#221F1F"/>
<path id="Vector_11" d="M34.1298 20.1682C34.8285 18.611 34.6065 16.9949 33.6339 16.5585C32.6613 16.1221 31.3065 17.0306 30.6078 18.5878C29.9091 20.145 30.1311 21.7611 31.1037 22.1975C32.0762 22.6339 33.4311 21.7253 34.1298 20.1682Z" fill="white"/>
</g>
</g>
<defs>
<radialGradient id="paint0_radial_4730_34002" cx="0" cy="0" r="1" gradientUnits="userSpaceOnUse" gradientTransform="translate(28.466 23.0437) scale(9.86243)">
<stop stop-color="#797979" offset="1"/>
<stop offset="1" stop-color="#4C4C4C"/>
</radialGradient>
<clipPath id="clip0_4730_34002">
<rect width="56" height="56" fill="white"/>
</clipPath>
</defs>
</svg>
