<svg width="59" height="48" viewBox="0 0 59 48" fill="none" xmlns="http://www.w3.org/2000/svg">
<g clip-path="url(#clip0_524_2642)">
<path d="M22.15 26.8927C22.3586 23.1722 24.1775 19.8848 26.9334 17.562C29.6303 15.2785 33.2524 13.8809 37.2288 13.8809C41.1855 13.8809 44.8076 15.2765 47.5045 17.562C50.2604 19.8848 52.0714 23.1722 52.288 26.8927C52.4966 30.7117 50.9592 34.2747 48.2722 36.9125C45.5163 39.5897 41.6186 41.2826 37.2288 41.2826C32.839 41.2826 28.9217 39.6015 26.1854 36.9125C23.4886 34.2747 21.9531 30.7314 22.1696 26.9124L22.15 26.8927Z" fill="white"/>
<path d="M30.3977 26.4376C30.505 24.5257 31.4397 22.8364 32.8559 21.6427C34.2418 20.4692 36.1032 19.751 38.1466 19.751C40.1799 19.751 42.0413 20.4682 43.4272 21.6427C44.8434 22.8364 45.7741 24.5257 45.8853 26.4376C45.9926 28.4001 45.2025 30.2311 43.8217 31.5867C42.4054 32.9625 40.4025 33.8324 38.1466 33.8324C35.8907 33.8324 33.8776 32.9685 32.4715 31.5867C31.0856 30.2311 30.2966 28.4103 30.4078 26.4478L30.3977 26.4376Z" fill="black"/>
<path d="M18.2583 30.4838C18.2714 31.2324 18.5102 32.6891 18.8683 33.8221C19.6209 36.2297 20.9016 38.4552 22.6719 40.4076C24.4928 42.4207 26.7385 44.0393 29.3282 45.1925C32.0494 46.3963 35.0033 47.0134 38.0684 47.0134C41.1336 47.0093 44.0875 46.3821 46.8087 45.1622C49.3984 43.9988 51.6441 42.3802 53.465 40.357C55.2454 38.3844 56.52 36.1589 57.2686 33.7513C57.648 32.5374 57.8877 31.3032 57.9838 30.0691C58.0779 28.8551 58.0385 27.6311 57.8655 26.4071C57.5276 24.0298 56.7021 21.7942 55.4376 19.771C54.2844 17.8995 52.7872 16.2708 51.0068 14.8951L51.0109 14.892L33.1055 1.13427C33.0894 1.12213 33.0762 1.10897 33.059 1.09784C31.8855 0.195495 29.9028 0.198535 28.6181 1.10291C27.3131 2.01739 27.1614 3.53074 28.3247 4.48165L28.3197 4.48671L35.7954 10.5664L13.0344 10.5907H13.004C11.1225 10.5927 9.3117 11.8249 8.95764 13.3929C8.58941 14.9811 9.86807 16.3062 11.8306 16.3062L11.8276 16.3133L23.3598 16.2911L2.72315 32.072C2.69685 32.0913 2.66852 32.1115 2.64424 32.1307C0.701972 33.6178 0.0747778 36.0962 1.29881 37.6541C2.54308 39.2423 5.18336 39.2524 7.14586 37.6631L18.3746 28.4576C18.3746 28.4576 18.2107 29.7019 18.2239 30.4403L18.2583 30.4838ZM47.1901 34.6415C44.8735 36.9985 41.6262 38.3439 38.1261 38.3439C34.6159 38.35 31.3686 37.0289 29.0521 34.6719C27.9191 33.5186 27.0896 32.2035 26.5736 30.7974C26.0709 29.4115 25.8756 27.9447 26.0051 26.4678C26.1275 25.0212 26.5585 23.6353 27.2494 22.391C27.9251 21.167 28.8578 20.0542 30.0009 19.1134C32.2568 17.2825 35.1196 16.2809 38.114 16.2809C41.1184 16.2769 43.9812 17.2612 46.2371 19.0932C47.3802 20.0279 48.3109 21.1366 48.9887 22.3607C49.6796 23.6049 50.1116 24.9807 50.2329 26.4374C50.3604 27.9144 50.1652 29.3812 49.6624 30.7671C49.1485 32.1833 48.317 33.4984 47.184 34.6516L47.1901 34.6415Z" fill="black"/>
</g>
<defs>
<clipPath id="clip0_524_2642">
<rect width="58.7027" height="48" fill="white"/>
</clipPath>
</defs>
</svg>
