<svg width="48" height="48" viewBox="0 0 48 48" fill="none" xmlns="http://www.w3.org/2000/svg">
<path d="M44.625 5.25H3.375C2.67904 5.25077 2.01181 5.52758 1.51969 6.01969C1.02758 6.51181 0.750769 7.17904 0.75 7.875V34.125C0.750769 34.821 1.02758 35.4882 1.51969 35.9803C2.01181 36.4724 2.67904 36.7492 3.375 36.75H18.3919L17.4919 39H13.5C13.3011 39 13.1103 39.079 12.9697 39.2197C12.829 39.3603 12.75 39.5511 12.75 39.75V41.25H8.25C8.05109 41.25 7.86032 41.329 7.71967 41.4697C7.57902 41.6103 7.5 41.8011 7.5 42C7.5 42.1989 7.57902 42.3897 7.71967 42.5303C7.86032 42.671 8.05109 42.75 8.25 42.75H39.75C39.9489 42.75 40.1397 42.671 40.2803 42.5303C40.421 42.3897 40.5 42.1989 40.5 42C40.5 41.8011 40.421 41.6103 40.2803 41.4697C40.1397 41.329 39.9489 41.25 39.75 41.25H35.25V39.75C35.25 39.5511 35.171 39.3603 35.0303 39.2197C34.8897 39.079 34.6989 39 34.5 39H30.5081L29.6081 36.75H44.625C45.321 36.7492 45.9882 36.4724 46.4803 35.9803C46.9724 35.4882 47.2492 34.821 47.25 34.125V7.875C47.2492 7.17904 46.9724 6.51181 46.4803 6.01969C45.9882 5.52758 45.321 5.25077 44.625 5.25ZM33.75 40.5V41.25H14.25V40.5H33.75ZM19.1081 39L20.0081 36.75H27.9919L28.8919 39H19.1081ZM45.75 34.125C45.7498 34.4233 45.6311 34.7093 45.4202 34.9202C45.2093 35.1311 44.9233 35.2498 44.625 35.25H3.375C3.07671 35.2498 2.7907 35.1311 2.57978 34.9202C2.36885 34.7093 2.25025 34.4233 2.25 34.125V32.25H45.75V34.125ZM45.75 30.75H2.25V7.875C2.25025 7.57671 2.36885 7.2907 2.57978 7.07978C2.7907 6.86885 3.07671 6.75025 3.375 6.75H44.625C44.9233 6.75025 45.2093 6.86885 45.4202 7.07978C45.6311 7.2907 45.7498 7.57671 45.75 7.875V30.75Z" fill="black"/>
<path d="M24 24C24.89 24 25.76 23.7361 26.5001 23.2416C27.2401 22.7471 27.8169 22.0443 28.1575 21.2221C28.4981 20.3998 28.5872 19.495 28.4135 18.6221C28.2399 17.7492 27.8113 16.9474 27.182 16.318C26.5526 15.6887 25.7508 15.2601 24.8779 15.0865C24.005 14.9128 23.1002 15.0019 22.2779 15.3425C21.4557 15.6831 20.7529 16.2599 20.2584 16.9999C19.7639 17.74 19.5 18.61 19.5 19.5C19.5013 20.6931 19.9758 21.8369 20.8195 22.6805C21.6631 23.5242 22.8069 23.9987 24 24ZM24 16.5C24.5933 16.5 25.1734 16.6759 25.6667 17.0056C26.1601 17.3352 26.5446 17.8038 26.7716 18.352C26.9987 18.9001 27.0581 19.5033 26.9424 20.0853C26.8266 20.6672 26.5409 21.2018 26.1213 21.6213C25.7018 22.0409 25.1672 22.3266 24.5853 22.4424C24.0033 22.5581 23.4001 22.4987 22.852 22.2716C22.3038 22.0446 21.8352 21.6601 21.5056 21.1667C21.1759 20.6734 21 20.0933 21 19.5C21.0009 18.7046 21.3173 17.9421 21.8797 17.3797C22.4421 16.8173 23.2046 16.5009 24 16.5Z" fill="black"/>
<path d="M13.9974 23.845C17.326 26.4 20.7848 27.75 24 27.75C27.2152 27.75 30.674 26.4 34.0026 23.845C35.4991 22.7049 36.8675 21.4058 38.084 19.9706C38.1914 19.8373 38.25 19.6712 38.25 19.5C38.25 19.3288 38.1914 19.1627 38.084 19.0294C36.8675 17.5942 35.4991 16.2951 34.0026 15.155C30.674 12.6 27.2156 11.25 24 11.25C20.7844 11.25 17.326 12.6 13.9974 15.155C12.5009 16.2951 11.1325 17.5942 9.91604 19.0294C9.80859 19.1627 9.75 19.3288 9.75 19.5C9.75 19.6712 9.80859 19.8373 9.91604 19.9706C11.1325 21.4058 12.5009 22.7049 13.9974 23.845ZM24 12.75C29.9407 12.75 35.0567 17.8961 36.5063 19.5C35.0565 21.1039 29.9405 26.25 24 26.25C18.0595 26.25 12.9432 21.1037 11.4938 19.5C12.9433 17.8961 18.0593 12.75 24 12.75Z" fill="black"/>
</svg>
