<svg width="43" height="48" viewBox="0 0 43 48" fill="none" xmlns="http://www.w3.org/2000/svg">
<g clip-path="url(#clip0_524_2441)">
<path fill-rule="evenodd" clip-rule="evenodd" d="M0 0.0664062H42.2161L38.4931 43.0803L21.2078 47.9999L4.0554 43.0803L0 0.0664062ZM3.50615 3.25754H38.7368L35.5035 40.6132L21.2111 44.6811L7.02808 40.6131L3.50615 3.25754Z" fill="black"/>
<path d="M27.8358 24.6678L27.2209 31.5385L21.3123 33.1333L15.5 31.5385L15 27H9.5L10.5 35.6349L21.3123 38.6449L32.1729 35.6349L32.2526 34.7399L33.4975 20.7927L33.6268 19.3702L34.5832 8.64746H8L8.50015 13.9452H28.7773L28.2953 19.3702H9.00015L9.49999 24.6678H27.8358Z" fill="black"/>
</g>
<defs>
<clipPath id="clip0_524_2441">
<rect width="42.2825" height="48" fill="white"/>
</clipPath>
</defs>
</svg>
