<svg width="133" height="17" viewBox="0 0 133 17" fill="none" xmlns="http://www.w3.org/2000/svg">
<path d="M5.372 13.204C3.78533 13.204 2.60667 12.6713 1.836 11.606C1.07667 10.5293 0.697 9.01633 0.697 7.067C0.697 5.11767 1.07667 3.61033 1.836 2.545C2.60667 1.46833 3.78533 0.929999 5.372 0.929999C5.984 0.929999 6.52233 1.015 6.987 1.185C7.463 1.34367 7.871 1.57033 8.211 1.865C8.551 2.15967 8.82867 2.51667 9.044 2.936C9.27067 3.35533 9.44633 3.82567 9.571 4.347L7.191 4.925C7.123 4.64167 7.04367 4.381 6.953 4.143C6.86233 3.905 6.74333 3.701 6.596 3.531C6.46 3.361 6.28433 3.23067 6.069 3.14C5.865 3.038 5.61567 2.987 5.321 2.987C4.62967 2.987 4.13667 3.259 3.842 3.803C3.55867 4.33567 3.417 5.078 3.417 6.03V8.104C3.417 9.056 3.55867 9.804 3.842 10.348C4.13667 10.8807 4.62967 11.147 5.321 11.147C5.91033 11.147 6.33533 10.9657 6.596 10.603C6.868 10.2403 7.06633 9.77567 7.191 9.209L9.571 9.787C9.44633 10.3083 9.27067 10.7787 9.044 11.198C8.82867 11.6173 8.551 11.98 8.211 12.286C7.871 12.5807 7.463 12.8073 6.987 12.966C6.52233 13.1247 5.984 13.204 5.372 13.204ZM11.2984 0.42H13.8144V5.826H13.9164C14.0184 5.57667 14.143 5.34433 14.2904 5.129C14.4377 4.91367 14.6134 4.72667 14.8174 4.568C15.0327 4.398 15.2764 4.26767 15.5484 4.177C15.8317 4.075 16.149 4.024 16.5004 4.024C16.9197 4.024 17.305 4.09767 17.6564 4.245C18.0077 4.381 18.308 4.59067 18.5574 4.874C18.8067 5.15733 18.9994 5.503 19.1354 5.911C19.2827 6.319 19.3564 6.78933 19.3564 7.322V13H16.8404V7.662C16.8404 6.52867 16.3474 5.962 15.3614 5.962C15.1687 5.962 14.976 5.99033 14.7834 6.047C14.602 6.09233 14.4377 6.17167 14.2904 6.285C14.143 6.387 14.024 6.51733 13.9334 6.676C13.854 6.83467 13.8144 7.02167 13.8144 7.237V13H11.2984V0.42ZM28.6657 13C28.1444 13 27.7251 12.8697 27.4077 12.609C27.0904 12.337 26.9034 11.9517 26.8467 11.453H26.7617C26.6031 12.031 26.2857 12.4673 25.8097 12.762C25.3451 13.0567 24.7727 13.204 24.0927 13.204C23.2427 13.204 22.5571 12.9773 22.0357 12.524C21.5257 12.0593 21.2707 11.4133 21.2707 10.586C21.2707 9.668 21.6051 8.988 22.2737 8.546C22.9424 8.104 23.9227 7.883 25.2147 7.883H26.6257V7.441C26.6257 6.91967 26.5011 6.52867 26.2517 6.268C26.0137 5.996 25.6057 5.86 25.0277 5.86C24.4951 5.86 24.0644 5.962 23.7357 6.166C23.4071 6.37 23.1237 6.63633 22.8857 6.965L21.5087 5.741C21.8034 5.24233 22.2624 4.83433 22.8857 4.517C23.5204 4.18833 24.3307 4.024 25.3167 4.024C26.5181 4.024 27.4531 4.30167 28.1217 4.857C28.8017 5.401 29.1417 6.22833 29.1417 7.339V11.181H30.1107V13H28.6657ZM25.0447 11.555C25.4867 11.555 25.8607 11.4473 26.1667 11.232C26.4727 11.0167 26.6257 10.705 26.6257 10.297V9.243H25.2827C24.2514 9.243 23.7357 9.58867 23.7357 10.28V10.62C23.7357 10.926 23.8547 11.1583 24.0927 11.317C24.3307 11.4757 24.6481 11.555 25.0447 11.555ZM31.8381 11.045H33.8611V6.183H31.8381V4.228H36.3771V6.71H36.4961C36.5754 6.39267 36.6831 6.08667 36.8191 5.792C36.9664 5.486 37.1477 5.21967 37.3631 4.993C37.5897 4.755 37.8617 4.568 38.1791 4.432C38.4964 4.296 38.8704 4.228 39.3011 4.228H40.1341V6.54H38.2641C37.6407 6.54 37.1704 6.727 36.8531 7.101C36.5357 7.46367 36.3771 7.91133 36.3771 8.444V11.045H39.2671V13H31.8381V11.045ZM41.9294 11.045H44.6154V2.375H41.9294V0.42H47.1314V11.045H49.8174V13H41.9294V11.045ZM56.3048 13.204C54.8315 13.204 53.7151 12.796 52.9558 11.98C52.1965 11.164 51.8168 10.0533 51.8168 8.648C51.8168 7.934 51.9131 7.29367 52.1058 6.727C52.3098 6.149 52.5931 5.66167 52.9558 5.265C53.3298 4.857 53.7775 4.551 54.2988 4.347C54.8315 4.13167 55.4265 4.024 56.0838 4.024C56.7411 4.024 57.3305 4.13167 57.8518 4.347C58.3731 4.551 58.8151 4.84567 59.1778 5.231C59.5405 5.61633 59.8181 6.08667 60.0108 6.642C60.2148 7.186 60.3168 7.798 60.3168 8.478V9.226H54.3158V9.379C54.3158 9.94567 54.4915 10.4047 54.8428 10.756C55.1941 11.096 55.7098 11.266 56.3898 11.266C56.9111 11.266 57.3588 11.1697 57.7328 10.977C58.1068 10.773 58.4298 10.5067 58.7018 10.178L60.0618 11.657C59.7218 12.0763 59.2458 12.439 58.6338 12.745C58.0218 13.051 57.2455 13.204 56.3048 13.204ZM56.1008 5.826C55.5568 5.826 55.1205 5.996 54.7918 6.336C54.4745 6.66467 54.3158 7.11233 54.3158 7.679V7.815H57.8518V7.679C57.8518 7.101 57.6931 6.64767 57.3758 6.319C57.0698 5.99033 56.6448 5.826 56.1008 5.826ZM66.1582 13.204C65.1835 13.204 64.3335 13.0567 63.6082 12.762C62.8942 12.4673 62.3558 12.065 61.9932 11.555L63.4042 10.246C63.7442 10.62 64.1408 10.9147 64.5942 11.13C65.0588 11.334 65.5858 11.436 66.1752 11.436C66.6738 11.436 67.0648 11.3623 67.3482 11.215C67.6315 11.0563 67.7732 10.8183 67.7732 10.501C67.7732 10.2517 67.6768 10.0817 67.4842 9.991C67.2915 9.889 67.0252 9.80967 66.6852 9.753L65.2742 9.532C64.8775 9.47533 64.5092 9.39033 64.1692 9.277C63.8292 9.15233 63.5345 8.988 63.2852 8.784C63.0358 8.58 62.8375 8.33067 62.6902 8.036C62.5428 7.74133 62.4692 7.38433 62.4692 6.965C62.4692 6.047 62.8205 5.32733 63.5232 4.806C64.2258 4.28467 65.2118 4.024 66.4812 4.024C67.3425 4.024 68.0735 4.143 68.6742 4.381C69.2862 4.60767 69.7735 4.93633 70.1362 5.367L68.8782 6.795C68.6175 6.51167 68.2832 6.27367 67.8752 6.081C67.4672 5.88833 66.9742 5.792 66.3962 5.792C65.4215 5.792 64.9342 6.08667 64.9342 6.676C64.9342 6.93667 65.0305 7.118 65.2232 7.22C65.4158 7.31067 65.6822 7.38433 66.0222 7.441L67.4162 7.662C67.8128 7.71867 68.1812 7.80933 68.5212 7.934C68.8612 8.04733 69.1558 8.206 69.4052 8.41C69.6658 8.614 69.8698 8.86333 70.0172 9.158C70.1645 9.45267 70.2382 9.80967 70.2382 10.229C70.2382 11.147 69.8812 11.8723 69.1672 12.405C68.4645 12.9377 67.4615 13.204 66.1582 13.204ZM82.8389 13V1.134H87.4289C88.0069 1.134 88.5225 1.22467 88.9759 1.406C89.4292 1.576 89.8089 1.82533 90.1149 2.154C90.4322 2.48267 90.6702 2.87933 90.8289 3.344C90.9875 3.80867 91.0669 4.33 91.0669 4.908C91.0669 5.486 90.9875 6.00733 90.8289 6.472C90.6702 6.93667 90.4322 7.33333 90.1149 7.662C89.8089 7.99067 89.4292 8.24567 88.9759 8.427C88.5225 8.597 88.0069 8.682 87.4289 8.682H85.4059V13H82.8389ZM85.4059 6.625H86.7829C87.3835 6.625 87.7972 6.51167 88.0239 6.285C88.2619 6.05833 88.3809 5.68433 88.3809 5.163V4.653C88.3809 4.13167 88.2619 3.75767 88.0239 3.531C87.7972 3.30433 87.3835 3.191 86.7829 3.191H85.4059V6.625ZM92.9982 11.045H95.0212V6.183H92.9982V4.228H97.5372V6.71H97.6562C97.7356 6.39267 97.8432 6.08667 97.9792 5.792C98.1266 5.486 98.3079 5.21967 98.5232 4.993C98.7499 4.755 99.0219 4.568 99.3392 4.432C99.6566 4.296 100.031 4.228 100.461 4.228H101.294V6.54H99.4242C98.8009 6.54 98.3306 6.727 98.0132 7.101C97.6959 7.46367 97.5372 7.91133 97.5372 8.444V11.045H100.427V13H92.9982V11.045ZM107.034 13.204C106.354 13.204 105.742 13.102 105.198 12.898C104.654 12.6827 104.189 12.3767 103.804 11.98C103.43 11.5833 103.141 11.1017 102.937 10.535C102.733 9.96833 102.631 9.328 102.631 8.614C102.631 7.9 102.733 7.25967 102.937 6.693C103.141 6.12633 103.43 5.64467 103.804 5.248C104.189 4.85133 104.654 4.551 105.198 4.347C105.742 4.13167 106.354 4.024 107.034 4.024C107.714 4.024 108.326 4.13167 108.87 4.347C109.414 4.551 109.873 4.85133 110.247 5.248C110.632 5.64467 110.927 6.12633 111.131 6.693C111.335 7.25967 111.437 7.9 111.437 8.614C111.437 9.328 111.335 9.96833 111.131 10.535C110.927 11.1017 110.632 11.5833 110.247 11.98C109.873 12.3767 109.414 12.6827 108.87 12.898C108.326 13.102 107.714 13.204 107.034 13.204ZM107.034 11.334C107.6 11.334 108.042 11.1583 108.36 10.807C108.677 10.4557 108.836 9.957 108.836 9.311V7.917C108.836 7.271 108.677 6.77233 108.36 6.421C108.042 6.06967 107.6 5.894 107.034 5.894C106.467 5.894 106.025 6.06967 105.708 6.421C105.39 6.77233 105.232 7.271 105.232 7.917V9.311C105.232 9.957 105.39 10.4557 105.708 10.807C106.025 11.1583 106.467 11.334 107.034 11.334ZM112.518 13L115.799 8.546L112.739 4.228H115.612L116.547 5.639L117.261 6.778H117.397L118.128 5.639L119.08 4.228H121.715L118.655 8.41L121.936 13H119.046L117.941 11.351L117.176 10.178H117.04L116.292 11.351L115.17 13H112.518ZM129.63 4.228H132.197L128.066 14.411C127.806 15.057 127.46 15.55 127.029 15.89C126.599 16.23 126.009 16.4 125.261 16.4H123.527V14.445H125.635L126.179 12.949L122.643 4.228H125.346L126.621 7.917L127.42 10.467H127.556L128.321 7.917L129.63 4.228Z" fill="black"/>
</svg>
