<svg width="48" height="48" viewBox="0 0 48 48" fill="none" xmlns="http://www.w3.org/2000/svg">
<path fill-rule="evenodd" clip-rule="evenodd" d="M22.6693 0.0139319C18.2765 0.281275 14.3107 1.60343 10.6779 4.0118C9.36156 4.88444 8.20583 5.83526 7.01958 7.02147C6.2744 7.76665 5.78415 8.31296 5.18474 9.06623C2.38149 12.589 0.639177 16.8052 0.129536 21.2993C0.0200068 22.2653 0.000782952 22.6618 3.27551e-05 23.9718C-0.000717442 25.2528 0.0107231 25.5196 0.107006 26.4685C0.567416 31.0059 2.3361 35.3445 5.18474 38.9243C5.7905 39.6855 6.26711 40.2166 7.01958 40.9689C7.84862 41.7977 8.43131 42.314 9.28501 42.9763C12.9374 45.8097 17.2865 47.5137 21.8957 47.9171C23.3264 48.0423 25.1318 48.0246 26.5727 47.8712C32.5423 47.2357 38.0795 44.3524 42.0599 39.8068C45.014 36.433 46.9536 32.3367 47.6817 27.9337C47.902 26.6014 48.0002 25.3869 48 23.9953C47.9998 22.2972 47.8481 20.7809 47.5157 19.1543C46.7307 15.3131 44.994 11.6977 42.482 8.6753C38.4824 3.86303 32.8379 0.812281 26.6721 0.130326C25.7514 0.0284899 25.3693 0.00879788 24.1697 0.00129614C23.525 -0.00273605 22.8498 0.00296059 22.6693 0.0139319ZM27.4167 8.40575C28.9784 8.49894 30.2384 8.80726 31.3435 9.36661C31.9985 9.69816 32.4769 10.0405 32.9635 10.5257C33.8825 11.4424 34.3678 12.4932 34.4745 13.7976C34.5314 14.4924 34.4361 15.3723 34.2257 16.0965C33.6459 18.0914 32.1458 19.6725 30.4878 20.0364C30.1526 20.1099 29.669 20.1144 29.4835 20.0456C29.1485 19.9214 29.0067 19.6156 29.0928 19.2033C29.146 18.9483 29.2176 18.7777 29.5816 18.0372C30.0434 17.0981 30.2198 16.658 30.3832 16.0364C30.6042 15.1961 30.6643 14.1929 30.537 13.4694C30.2754 11.9828 29.3415 10.9928 27.909 10.6834C27.2289 10.5366 26.3737 10.557 25.5177 10.7406C23.8099 11.1068 22.054 12.1934 20.6534 13.7507C18.6005 16.0332 17.2271 19.1883 16.7041 22.8231C16.5678 23.7704 16.5062 24.493 16.4668 25.6094C16.3745 28.2228 16.7982 30.513 17.7128 32.3436C18.8276 34.5751 20.5455 35.9775 22.6916 36.408C23.5805 36.5863 24.6834 36.5857 25.6547 36.4064C27.2744 36.1075 28.7527 35.386 30.183 34.1962C30.5457 33.8946 31.4027 33.0362 31.7311 32.6457C32.4951 31.7371 33.1282 30.7703 33.7641 29.5412C34.0368 29.0141 34.2065 28.869 34.4694 28.9385C34.7842 29.0218 34.9442 29.3545 34.9093 29.8532C34.8294 30.9948 34.011 32.7585 32.8324 34.3293C30.7422 37.1147 27.9199 38.937 24.914 39.4418C24.2495 39.5534 23.7845 39.59 23.0327 39.5901C20.3938 39.5902 18.0897 38.8639 16.1754 37.4284C13.5462 35.4568 11.9072 32.2327 11.4991 28.2295C11.3645 26.9089 11.3784 25.2001 11.535 23.8312C12.1295 18.6329 14.5676 14.1294 18.3323 11.2752C21.0157 9.24093 24.2567 8.2172 27.4167 8.40575Z" fill="black"/>
</svg>
