<svg width="105" height="42" viewBox="0 0 105 42" fill="none" xmlns="http://www.w3.org/2000/svg">
<g id="navbar-brand 1" clip-path="url(#clip0_4730_34312)">
<path id="Vector" d="M1.18477 26.5639C0.689601 24.7606 0.4375 22.8876 0.4375 21.0011C0.4375 12.3893 5.8461 4.51498 13.8971 1.40979L14.9527 4.14173C8.02259 6.81522 3.36801 13.59 3.36801 21.0011C3.36801 22.6268 3.58407 24.2367 4.00947 25.7882L1.18477 26.5639Z" fill="black"/>
<path id="Vector_2" d="M37.582 12.6816C34.4489 6.66684 28.2818 2.92982 21.4912 2.92982C19.0852 2.92982 16.7466 3.39301 14.5454 4.30365L13.4222 1.59869C15.9814 0.539641 18.6958 0 21.4912 0C29.3801 0 36.5421 4.33963 40.1816 11.328L37.582 12.6816Z" fill="#1B1E2E"/>
<path id="Vector_3" d="M15.2049 16.6682C16.9041 16.6682 18.2884 17.5743 18.9997 19.155L19.0559 19.2788L21.9098 18.3096L21.8491 18.1635C20.744 15.472 18.1984 13.7991 15.2049 13.7991C13.1003 13.7991 11.3898 14.4737 9.97633 15.8587C8.57181 17.2348 7.8606 18.9662 7.8606 21.0056C7.8606 23.027 8.57181 24.7493 9.97633 26.1255C11.3898 27.5106 13.1003 28.1851 15.2049 28.1851C18.1984 28.1851 20.744 26.5122 21.8491 23.823L21.9098 23.6769L19.0514 22.7054L18.9974 22.8336C18.3604 24.3874 16.9425 25.316 15.2049 25.316C14.0209 25.316 13.0216 24.9023 12.2293 24.0883C11.428 23.2631 11.0229 22.2265 11.0229 21.0078C11.0229 19.7801 11.419 18.7638 12.2293 17.9004C13.0193 17.082 14.0209 16.6682 15.2049 16.6682Z" fill="#1B1E2E"/>
<path id="Vector_4" d="M50.373 15.861C49.0563 14.4939 47.4132 13.7991 45.4866 13.7991C43.5734 13.7991 41.9979 14.4804 40.8005 15.8228V14.0645H37.7169V33.224H40.8005V26.1614C41.9979 27.5038 43.5712 28.1851 45.4866 28.1851C47.4132 28.1851 49.0585 27.4903 50.3752 26.121C51.6717 24.7449 52.3266 23.0247 52.3266 21.0056C52.3244 18.9662 51.6694 17.2371 50.373 15.861ZM47.9556 24.0838C47.1656 24.9 46.1641 25.3115 44.9824 25.3115C43.7828 25.3115 42.8104 24.909 42.0069 24.0838C41.2056 23.2586 40.8005 22.2221 40.8005 21.0034C40.8005 19.7487 41.1943 18.7323 42.0069 17.8959C42.8082 17.0684 43.7805 16.6682 44.9824 16.6682C46.1663 16.6682 47.1656 17.082 47.9556 17.8959C48.7501 18.7144 49.1351 19.7307 49.1351 21.0034C49.1351 22.258 48.748 23.2653 47.9556 24.0838Z" fill="#1B1E2E"/>
<path id="Vector_5" d="M57.3458 15.7149V14.0645H54.2622V27.9176H57.3458V20.1017C57.3458 18.8493 57.85 17.8915 58.8448 17.2551C59.8329 16.6233 61.019 16.5064 62.4708 16.9021L62.6576 16.9538V13.9903L62.5429 13.9633C60.5936 13.4978 58.6377 14.1679 57.3458 15.7149Z" fill="#1B1E2E"/>
<path id="Vector_6" d="M70.6569 13.7991C68.6245 13.7991 66.9004 14.4916 65.5319 15.8587C64.1454 17.2439 63.4432 18.9752 63.4432 21.0056C63.4432 23.027 64.1544 24.7493 65.5589 26.1255C66.9725 27.5106 68.683 28.1851 70.7875 28.1851C73.6392 28.1851 76.0903 26.7371 77.3462 24.3109L77.4182 24.1715L74.8096 23.0158L74.7466 23.1394C73.9903 24.6009 72.5386 25.4734 70.8685 25.4734C68.6987 25.4734 67.0376 24.149 66.5875 22.0826H77.7738L77.7874 21.95C78.0305 19.7149 77.4543 17.7767 76.079 16.187C74.7105 14.6018 72.8852 13.7991 70.6569 13.7991ZM66.6798 19.6092C67.2267 17.7183 68.7708 16.5086 70.6569 16.5086C72.5949 16.5086 74.1389 17.7183 74.6385 19.6092H66.6798Z" fill="#1B1E2E"/>
<path id="Vector_7" d="M86.0252 19.6835C84.3439 19.3688 82.8922 19.0944 82.8922 17.9252C82.8922 16.9965 83.8803 16.349 85.2937 16.349C86.8535 16.349 87.7088 17.019 87.9091 18.3973L87.9317 18.5526L91.0148 17.9072L90.993 17.7678C90.5782 15.3192 88.3951 13.7969 85.296 13.7969C83.7407 13.7969 82.424 14.1994 81.3842 14.9931C80.3218 15.7824 79.7839 16.8122 79.7839 18.0578C79.7839 19.8611 80.9272 21.2147 82.8472 21.678C83.3446 21.7949 83.8713 21.8893 84.38 21.9838C86.2908 22.3323 88.0958 22.6628 88.0958 23.9489C88.0958 24.9406 86.9436 25.6309 85.296 25.6309C83.6192 25.6309 82.6941 24.9608 82.4668 23.5802L82.442 23.4273L79.3607 24.0727L79.3855 24.2142C79.8334 26.6989 82.0414 28.1829 85.2937 28.1829C86.9458 28.1829 88.3618 27.7715 89.4958 26.962C90.6307 26.1615 91.2038 25.1294 91.2038 23.895C91.2038 20.6571 88.3347 20.1175 86.0252 19.6835Z" fill="#1B1E2E"/>
<path id="Vector_8" d="M99.3834 19.6835C97.7025 19.3688 96.2509 19.0944 96.2509 17.9252C96.2509 16.9965 97.2387 16.349 98.6519 16.349C100.212 16.349 101.067 17.019 101.267 18.3973L101.29 18.5526L104.373 17.9072L104.351 17.7678C103.937 15.3192 101.754 13.7969 98.6545 13.7969C97.0987 13.7969 95.7819 14.1994 94.7424 14.9931C93.6801 15.7824 93.142 16.8122 93.142 18.0578C93.142 19.8611 94.2856 21.2147 96.2054 21.678C96.7032 21.7949 97.2291 21.8893 97.7384 21.9838C99.6494 22.3323 101.454 22.6628 101.454 23.9489C101.454 24.9406 100.302 25.6309 98.6545 25.6309C96.9771 25.6309 96.0522 24.9608 95.8247 23.5802L95.8002 23.4273L92.7194 24.0727L92.7439 24.2142C93.1919 26.6989 95.3995 28.1829 98.6519 28.1829C100.304 28.1829 101.72 27.7715 102.854 26.962C103.988 26.1615 104.562 25.1294 104.562 23.895C104.562 20.6571 101.692 20.1175 99.3834 19.6835Z" fill="#1B1E2E"/>
<path id="Vector_9" d="M33.0803 14.0645L29.0132 24.3559L24.9191 14.0645H21.5699L27.3116 28.111L23.2265 38.0179L26.1548 38.6003L36.2449 14.0645H33.0803Z" fill="#1B1E2E"/>
<path id="Vector_10" d="M23.7505 36.7407L23.037 38.4676C22.8952 38.8094 22.5711 39.0409 22.2065 39.0567C21.9657 39.0657 21.7226 39.0724 21.4772 39.0724C13.0796 39.068 5.64981 33.1476 3.80868 24.99L0.950195 25.6353C1.9833 30.211 4.5762 34.364 8.2517 37.3321C11.97 40.3338 16.6538 41.991 21.4457 42C21.4525 42 21.4884 42 21.4884 42C21.7698 42 22.0489 41.9933 22.328 41.9821C23.8315 41.9191 25.1752 40.9769 25.7492 39.5806L26.6809 37.3231L23.7505 36.7407Z" fill="black"/>
</g>
<defs>
<clipPath id="clip0_4730_34312">
<rect width="105" height="42" fill="white"/>
</clipPath>
</defs>
</svg>
