<svg width="48" height="48" viewBox="0 0 48 48" fill="none" xmlns="http://www.w3.org/2000/svg">
<g id="deep-learning">
<path id="Vector" d="M31.5 13.5C31.6987 13.5 31.89 13.4213 32.0303 13.2803L40.8105 4.5H42.138C42.4485 5.37075 43.2735 6 44.25 6C45.4905 6 46.5 4.9905 46.5 3.75C46.5 2.5095 45.4905 1.5 44.25 1.5C43.2735 1.5 42.4485 2.12925 42.138 3H40.5C40.3013 3 40.11 3.07875 39.9697 3.21975L31.1895 12H30V11.25C30 10.0095 28.9905 9 27.75 9C26.5095 9 25.5 10.0095 25.5 11.25V13.5H21.6742C21.3255 11.7907 19.8113 10.5 18 10.5C17.061 10.5 16.212 10.8593 15.5535 11.4315L8.6115 6.1305C8.853 5.63475 9 5.0865 9 4.5C9 2.43225 7.31775 0.75 5.25 0.75C3.18225 0.75 1.5 2.43225 1.5 4.5C1.5 6.56775 3.18225 8.25 5.25 8.25C6.189 8.25 7.038 7.89075 7.6965 7.3185L14.6385 12.6195C14.5027 12.8977 14.3895 13.188 14.3258 13.4993H8.92425C8.5755 11.7908 7.0605 10.5 5.25 10.5C3.18225 10.5 1.5 12.1823 1.5 14.25C1.5 16.3177 3.18225 18 5.25 18C6.189 18 7.038 17.6407 7.6965 17.0685L10.389 19.125L7.6965 21.1815C7.038 20.6093 6.189 20.25 5.25 20.25C3.18225 20.25 1.5 21.9323 1.5 24C1.5 26.0677 3.18225 27.75 5.25 27.75C6.189 27.75 7.038 27.3907 7.6965 26.8185L10.389 28.875L7.6965 30.9315C7.038 30.3593 6.189 30 5.25 30C3.18225 30 1.5 31.6823 1.5 33.75C1.5 35.8177 3.18225 37.5 5.25 37.5C7.0605 37.5 8.5755 36.2093 8.92425 34.5H14.3258C14.3895 34.8112 14.5027 35.1015 14.6385 35.3797L7.6965 40.6808C7.038 40.1092 6.189 39.75 5.25 39.75C3.18225 39.75 1.5 41.4323 1.5 43.5C1.5 45.5677 3.18225 47.25 5.25 47.25C7.31775 47.25 9 45.5677 9 43.5C9 42.9135 8.853 42.3652 8.6115 41.8703L15.5535 36.5692C16.212 37.1408 17.061 37.5 18 37.5C19.8105 37.5 21.3255 36.2093 21.6742 34.5H25.5V36C25.5 37.2405 26.5095 38.25 27.75 38.25C28.9905 38.25 30 37.2405 30 36H31.1895L39.9697 44.7803C40.11 44.9212 40.3013 45 40.5 45H42.138C42.4485 45.8708 43.2735 46.5 44.25 46.5C45.4905 46.5 46.5 45.4905 46.5 44.25C46.5 43.0095 45.4905 42 44.25 42C43.2735 42 42.4485 42.6292 42.138 43.5H40.8105L32.0303 34.7197C31.89 34.5788 31.6987 34.5 31.5 34.5H30V32.25H33.4395L39.2197 38.0303C39.36 38.1712 39.5513 38.25 39.75 38.25H42.138C42.4485 39.1208 43.2735 39.75 44.25 39.75C45.4905 39.75 46.5 38.7405 46.5 37.5C46.5 36.2595 45.4905 35.25 44.25 35.25C43.2735 35.25 42.4485 35.8792 42.138 36.75H40.0605L34.2803 30.9697C34.14 30.8287 33.9487 30.75 33.75 30.75H30V28.5H36.4395L39.2197 31.2803C39.36 31.4213 39.5513 31.5 39.75 31.5H42.138C42.4485 32.3708 43.2735 33 44.25 33C45.4905 33 46.5 31.9905 46.5 30.75C46.5 29.5095 45.4905 28.5 44.25 28.5C43.2735 28.5 42.4485 29.1292 42.138 30H40.0605L37.2803 27.2197C37.14 27.0787 36.9487 27 36.75 27H30V24.75H42.138C42.4485 25.6208 43.2735 26.25 44.25 26.25C45.4905 26.25 46.5 25.2405 46.5 24C46.5 22.7595 45.4905 21.75 44.25 21.75C43.2735 21.75 42.4485 22.3792 42.138 23.25H30V21H36.75C36.9487 21 37.14 20.9213 37.2803 20.7803L40.0605 18H42.138C42.4485 18.8708 43.2735 19.5 44.25 19.5C45.4905 19.5 46.5 18.4905 46.5 17.25C46.5 16.0095 45.4905 15 44.25 15C43.2735 15 42.4485 15.6292 42.138 16.5H39.75C39.5513 16.5 39.36 16.5787 39.2197 16.7197L36.4395 19.5H30V17.25H33.75C33.9487 17.25 34.14 17.1713 34.2803 17.0303L40.0605 11.25H42.138C42.4485 12.1208 43.2735 12.75 44.25 12.75C45.4905 12.75 46.5 11.7405 46.5 10.5C46.5 9.2595 45.4905 8.25 44.25 8.25C43.2735 8.25 42.4485 8.87925 42.138 9.75H39.75C39.5513 9.75 39.36 9.82875 39.2197 9.96975L33.4395 15.75H30V13.5H31.5ZM44.25 3C44.6632 3 45 3.336 45 3.75C45 4.164 44.6632 4.5 44.25 4.5C43.8368 4.5 43.5 4.164 43.5 3.75C43.5 3.336 43.8368 3 44.25 3ZM44.25 43.5C44.6632 43.5 45 43.836 45 44.25C45 44.664 44.6632 45 44.25 45C43.8368 45 43.5 44.664 43.5 44.25C43.5 43.836 43.8368 43.5 44.25 43.5ZM44.25 36.75C44.6632 36.75 45 37.086 45 37.5C45 37.914 44.6632 38.25 44.25 38.25C43.8368 38.25 43.5 37.914 43.5 37.5C43.5 37.086 43.8368 36.75 44.25 36.75ZM44.25 30C44.6632 30 45 30.336 45 30.75C45 31.164 44.6632 31.5 44.25 31.5C43.8368 31.5 43.5 31.164 43.5 30.75C43.5 30.336 43.8368 30 44.25 30ZM44.25 23.25C44.6632 23.25 45 23.586 45 24C45 24.414 44.6632 24.75 44.25 24.75C43.8368 24.75 43.5 24.414 43.5 24C43.5 23.586 43.8368 23.25 44.25 23.25ZM44.25 16.5C44.6632 16.5 45 16.836 45 17.25C45 17.664 44.6632 18 44.25 18C43.8368 18 43.5 17.664 43.5 17.25C43.5 16.836 43.8368 16.5 44.25 16.5ZM44.25 9.75C44.6632 9.75 45 10.086 45 10.5C45 10.914 44.6632 11.25 44.25 11.25C43.8368 11.25 43.5 10.914 43.5 10.5C43.5 10.086 43.8368 9.75 44.25 9.75ZM21.6742 15H25.5V23.25H21.6742C21.3255 21.5408 19.8113 20.25 18 20.25C17.061 20.25 16.212 20.6093 15.5535 21.1815L12.861 19.125L15.5535 17.0685C16.212 17.6407 17.061 18 18 18C19.8105 18 21.3255 16.7093 21.6742 15ZM15.75 24C15.75 22.7595 16.7595 21.75 18 21.75C19.2405 21.75 20.25 22.7595 20.25 24C20.25 25.2405 19.2405 26.25 18 26.25C16.7595 26.25 15.75 25.2405 15.75 24ZM18 12C19.2405 12 20.25 13.0095 20.25 14.25C20.25 15.4905 19.2405 16.5 18 16.5C16.7595 16.5 15.75 15.4905 15.75 14.25C15.75 13.0095 16.7595 12 18 12ZM5.25 6.75C4.0095 6.75 3 5.7405 3 4.5C3 3.2595 4.0095 2.25 5.25 2.25C6.4905 2.25 7.5 3.2595 7.5 4.5C7.5 5.7405 6.4905 6.75 5.25 6.75ZM5.25 16.5C4.0095 16.5 3 15.4905 3 14.25C3 13.0095 4.0095 12 5.25 12C6.4905 12 7.5 13.0095 7.5 14.25C7.5 15.4905 6.4905 16.5 5.25 16.5ZM8.6115 15.8798C8.74725 15.6015 8.8605 15.3112 8.92425 15H14.3258C14.3895 15.3112 14.5027 15.6015 14.6385 15.8798L11.625 18.1815L8.6115 15.8798ZM14.6385 22.3703C14.5027 22.6485 14.3895 22.9387 14.3258 23.25H8.92425C8.8605 22.9387 8.74725 22.6485 8.6115 22.3703L11.625 20.0693L14.6385 22.3703ZM5.25 26.25C4.0095 26.25 3 25.2405 3 24C3 22.7595 4.0095 21.75 5.25 21.75C6.4905 21.75 7.5 22.7595 7.5 24C7.5 25.2405 6.4905 26.25 5.25 26.25ZM8.6115 25.6297C8.74725 25.3515 8.8605 25.0613 8.92425 24.75H14.3258C14.3895 25.0613 14.5027 25.3515 14.6385 25.6297L11.625 27.9315L8.6115 25.6297ZM14.3258 33H8.92425C8.8605 32.6887 8.74725 32.3985 8.6115 32.1203L11.625 29.8192L14.6385 32.1203C14.5027 32.3985 14.3895 32.6887 14.3258 33ZM5.25 36C4.0095 36 3 34.9905 3 33.75C3 32.5095 4.0095 31.5 5.25 31.5C6.4905 31.5 7.5 32.5095 7.5 33.75C7.5 34.9905 6.4905 36 5.25 36ZM5.25 45.75C4.0095 45.75 3 44.7405 3 43.5C3 42.2595 4.0095 41.25 5.25 41.25C6.4905 41.25 7.5 42.2595 7.5 43.5C7.5 44.7405 6.4905 45.75 5.25 45.75ZM18 36C16.7595 36 15.75 34.9905 15.75 33.75C15.75 32.5095 16.7595 31.5 18 31.5C19.2405 31.5 20.25 32.5095 20.25 33.75C20.25 34.9905 19.2405 36 18 36ZM21.6742 33C21.3255 31.2908 19.8113 30 18 30C17.061 30 16.212 30.3593 15.5535 30.9315L12.861 28.875L15.5535 26.8185C16.212 27.3907 17.061 27.75 18 27.75C19.8105 27.75 21.3255 26.4592 21.6742 24.75H25.5V33H21.6742ZM28.5 36C28.5 36.414 28.1632 36.75 27.75 36.75C27.3368 36.75 27 36.414 27 36V11.25C27 10.836 27.3368 10.5 27.75 10.5C28.1632 10.5 28.5 10.836 28.5 11.25V36Z" fill="black"/>
<path id="Vector_2" d="M22.5 17.25H24V18.75H22.5V17.25Z" fill="black"/>
<path id="Vector_3" d="M22.5 20.25H24V21.75H22.5V20.25Z" fill="black"/>
<path id="Vector_4" d="M22.5 26.25H24V27.75H22.5V26.25Z" fill="black"/>
<path id="Vector_5" d="M22.5 29.25H24V30.75H22.5V29.25Z" fill="black"/>
</g>
</svg>
