<svg width="48" height="48" viewBox="0 0 48 48" fill="none" xmlns="http://www.w3.org/2000/svg">
<path d="M24.7272 48H23.3047C23.2381 47.9756 23.1725 47.97 23.1059 47.97C22.3464 47.9334 21.5925 47.8734 20.8451 47.7712C19.447 47.5902 18.0723 47.2827 16.7342 46.8551C14.4378 46.1199 12.298 45.065 10.3147 43.6903C8.47588 42.4122 6.84897 40.9054 5.4321 39.1697C3.76206 37.132 2.46053 34.8834 1.53783 32.4126C0.711715 30.2184 0.217547 27.9463 0.0665768 25.6011C0.0609506 25.4745 0.0421966 25.3479 0 25.2214V22.7439C0.0421966 22.6352 0.0600129 22.5208 0.0665768 22.4064C0.0965833 21.8456 0.156596 21.2849 0.229737 20.7307C0.59169 18.0545 1.38686 15.5161 2.61056 13.1109C3.45449 11.4531 4.4794 9.91057 5.68435 8.48714C6.87804 7.07683 8.21614 5.81656 9.69865 4.71383C12.116 2.91719 14.7744 1.62129 17.6794 0.826115C19.0897 0.44072 20.531 0.18754 21.9891 0.0665768C22.2479 0.0421966 22.5198 0.0609506 22.7786 0H25.2139C25.4005 0.0543867 25.5936 0.0243802 25.7802 0.0421966C26.7451 0.12659 27.7035 0.247553 28.6552 0.434156C31.6512 1.02491 34.4296 2.1464 36.998 3.80332C38.9934 5.08703 40.7534 6.63611 42.2903 8.43838C43.5262 9.88525 44.5746 11.4587 45.4307 13.1578C46.4434 15.1654 47.1664 17.2687 47.5771 19.4807C47.7937 20.6501 47.9569 21.8316 47.9625 23.0253C47.9625 23.104 47.9803 23.1884 47.9869 23.2662V24.6887C47.9625 24.7788 47.9625 24.8753 47.9569 24.9719C47.9569 25.2007 47.9569 25.4305 47.939 25.6593C47.8303 27.1183 47.6015 28.5586 47.2395 29.9811C46.5466 32.6517 45.4307 35.1291 43.8816 37.4133C42.7301 39.1134 41.3864 40.6447 39.8429 42.0006C38.306 43.3509 36.6238 44.4902 34.7972 45.4119C32.693 46.4725 30.4809 47.2086 28.1601 47.6118C27.2684 47.7684 26.37 47.8706 25.4661 47.925C25.2279 47.9522 24.9747 47.9466 24.7272 48ZM15.0285 36.5469C15.4261 36.5591 15.8725 36.5103 16.3188 36.4147C17.6391 36.125 18.7606 35.5229 19.6223 34.4558C20.1465 33.8051 20.5872 33.0999 20.967 32.3582C21.4134 31.4843 21.7866 30.5738 22.1119 29.652C22.5095 28.5371 22.8471 27.3978 23.1068 26.2463C23.2512 25.6011 23.089 25.197 22.3773 24.9747C21.4734 24.6916 20.5629 24.4384 19.6345 24.233C18.0976 23.8954 16.5486 23.6788 14.9685 23.7323C14.5222 23.7501 14.0768 23.7989 13.6361 23.8767C12.358 24.0999 11.273 24.6906 10.3869 25.6246C8.87347 27.2158 8.27146 29.1147 8.64467 31.2789C9.18104 34.3714 11.9182 36.5713 15.0285 36.5469ZM17.5782 14.3768C17.5603 14.8288 17.6447 15.323 17.7835 15.8171C18.0489 16.7577 18.4887 17.6194 19.0072 18.4333C20.1887 20.2844 21.6778 21.8691 23.2934 23.3403C23.4257 23.4613 23.5832 23.5635 23.752 23.6413C23.9208 23.7257 24.0896 23.7257 24.264 23.6535C24.4328 23.5813 24.5837 23.4791 24.7103 23.346C25.2711 22.7918 25.8252 22.2367 26.356 21.6637C27.1033 20.8498 27.815 20.0124 28.4602 19.1141C29.0453 18.3002 29.5695 17.4441 29.9549 16.5157C30.3403 15.593 30.5278 14.6413 30.4012 13.6407C30.1902 11.9895 29.4851 10.5904 28.2248 9.49329C26.7348 8.19832 24.9991 7.67978 23.0459 7.96859C19.869 8.43931 17.566 11.2365 17.5782 14.3768ZM33.2387 36.5113C33.3953 36.5057 33.6785 36.5113 33.9617 36.4691C35.8661 36.1859 37.373 35.2632 38.4345 33.6485C39.2663 32.377 39.6038 30.9657 39.4472 29.4532C39.3028 28.0363 38.7299 26.7948 37.7594 25.7521C36.9154 24.8482 35.9083 24.2208 34.6912 23.9555C34.0217 23.8111 33.3409 23.7501 32.6601 23.7389C31.8528 23.7267 31.051 23.7989 30.2549 23.9076C28.6637 24.1308 27.108 24.5106 25.5777 24.9926C25.4211 25.0404 25.2767 25.1135 25.1501 25.2157C24.9869 25.3479 24.8969 25.5111 24.8969 25.7221C24.8969 25.9031 24.9147 26.084 24.9569 26.265C25.0535 26.627 25.1379 26.988 25.2345 27.3443C25.6808 28.9722 26.2228 30.5634 26.9645 32.0825C27.3921 32.9565 27.8872 33.7826 28.5202 34.5243C29.0022 35.085 29.5629 35.5426 30.2324 35.8624C31.1476 36.3003 32.0994 36.5357 33.2387 36.5113Z" fill="url(#paint0_linear_11612_57545)"/>
<defs>
<linearGradient id="paint0_linear_11612_57545" x1="23.9951" y1="0" x2="23.9951" y2="48.0004" gradientUnits="userSpaceOnUse">
<stop offset="1"/>
<stop offset="1"/>
</linearGradient>
</defs>
</svg>
