<svg width="84" height="30" viewBox="0 0 84 30" fill="none" xmlns="http://www.w3.org/2000/svg">
<path d="M6.088 10.134H9.913C11.511 10.134 12.6953 10.644 13.466 11.664C14.2367 12.684 14.622 14.1517 14.622 16.067C14.622 17.9823 14.2367 19.45 13.466 20.47C12.6953 21.49 11.511 22 9.913 22H6.088V10.134ZM9.743 19.994C10.5023 19.994 11.0577 19.7503 11.409 19.263C11.7603 18.7757 11.936 18.0673 11.936 17.138V14.979C11.936 14.061 11.7603 13.3583 11.409 12.871C11.0577 12.3837 10.5023 12.14 9.743 12.14H8.604V19.994H9.743ZM23.4724 22C22.951 22 22.5317 21.8697 22.2144 21.609C21.897 21.337 21.71 20.9517 21.6534 20.453H21.5684C21.4097 21.031 21.0924 21.4673 20.6164 21.762C20.1517 22.0567 19.5794 22.204 18.8994 22.204C18.0494 22.204 17.3637 21.9773 16.8424 21.524C16.3324 21.0593 16.0774 20.4133 16.0774 19.586C16.0774 18.668 16.4117 17.988 17.0804 17.546C17.749 17.104 18.7294 16.883 20.0214 16.883H21.4324V16.441C21.4324 15.9197 21.3077 15.5287 21.0584 15.268C20.8204 14.996 20.4124 14.86 19.8344 14.86C19.3017 14.86 18.871 14.962 18.5424 15.166C18.2137 15.37 17.9304 15.6363 17.6924 15.965L16.3154 14.741C16.61 14.2423 17.069 13.8343 17.6924 13.517C18.327 13.1883 19.1374 13.024 20.1234 13.024C21.3247 13.024 22.2597 13.3017 22.9284 13.857C23.6084 14.401 23.9484 15.2283 23.9484 16.339V20.181H24.9174V22H23.4724ZM19.8514 20.555C20.2934 20.555 20.6674 20.4473 20.9734 20.232C21.2794 20.0167 21.4324 19.705 21.4324 19.297V18.243H20.0894C19.058 18.243 18.5424 18.5887 18.5424 19.28V19.62C18.5424 19.926 18.6614 20.1583 18.8994 20.317C19.1374 20.4757 19.4547 20.555 19.8514 20.555ZM35.2977 22.884C35.2977 23.8133 34.9067 24.499 34.1247 24.941C33.3427 25.383 32.1131 25.604 30.4357 25.604C29.5971 25.604 28.9057 25.553 28.3617 25.451C27.8177 25.3603 27.3814 25.2243 27.0527 25.043C26.7354 24.8617 26.5087 24.6463 26.3727 24.397C26.2481 24.1477 26.1857 23.8757 26.1857 23.581C26.1857 23.0823 26.3331 22.7027 26.6277 22.442C26.9224 22.1927 27.3361 22 27.8687 21.864V21.762C27.4947 21.6487 27.1944 21.49 26.9677 21.286C26.7524 21.0707 26.6447 20.7703 26.6447 20.385C26.6447 19.9543 26.7864 19.637 27.0697 19.433C27.3644 19.229 27.7497 19.0703 28.2257 18.957V18.855C27.7044 18.6057 27.2964 18.2543 27.0017 17.801C26.7184 17.3477 26.5767 16.798 26.5767 16.152C26.5767 15.642 26.6674 15.1943 26.8487 14.809C27.0301 14.4123 27.2851 14.0837 27.6137 13.823C27.9537 13.5623 28.3561 13.364 28.8207 13.228C29.2854 13.092 29.8067 13.024 30.3847 13.024C30.9401 13.024 31.4557 13.0863 31.9317 13.211V12.735C31.9317 12.395 32.0507 12.1117 32.2887 11.885C32.5267 11.6583 32.8554 11.545 33.2747 11.545H34.8217V13.381H32.7137V13.534C33.1897 13.7833 33.5581 14.129 33.8187 14.571C34.0907 15.0017 34.2267 15.5287 34.2267 16.152C34.2267 16.662 34.1361 17.1097 33.9547 17.495C33.7734 17.8803 33.5127 18.209 33.1727 18.481C32.8327 18.7417 32.4247 18.94 31.9487 19.076C31.4841 19.212 30.9627 19.28 30.3847 19.28C30.1241 19.28 29.8747 19.2687 29.6367 19.246C29.3987 19.212 29.1721 19.1667 28.9567 19.11C28.8321 19.178 28.7244 19.263 28.6337 19.365C28.5544 19.467 28.5147 19.5973 28.5147 19.756C28.5147 19.892 28.5487 19.9997 28.6167 20.079C28.6847 20.1583 28.7754 20.2207 28.8887 20.266C29.0134 20.3 29.1551 20.3227 29.3137 20.334C29.4724 20.3453 29.6367 20.351 29.8067 20.351H31.8127C32.4361 20.351 32.9687 20.4133 33.4107 20.538C33.8527 20.6627 34.2154 20.8383 34.4987 21.065C34.7821 21.2917 34.9861 21.558 35.1107 21.864C35.2354 22.17 35.2977 22.51 35.2977 22.884ZM32.9177 23.071C32.9177 22.8443 32.8271 22.663 32.6457 22.527C32.4644 22.4023 32.1187 22.34 31.6087 22.34H28.5997C28.3731 22.5327 28.2597 22.7707 28.2597 23.054C28.2597 23.326 28.3731 23.547 28.5997 23.717C28.8377 23.8983 29.2344 23.989 29.7897 23.989H31.2687C31.8467 23.989 32.2661 23.9097 32.5267 23.751C32.7874 23.5923 32.9177 23.3657 32.9177 23.071ZM30.3847 17.682C30.8947 17.682 31.2631 17.5573 31.4897 17.308C31.7277 17.0587 31.8467 16.7413 31.8467 16.356V15.948C31.8467 15.5627 31.7277 15.2453 31.4897 14.996C31.2631 14.7467 30.8947 14.622 30.3847 14.622C29.8861 14.622 29.5234 14.7467 29.2967 14.996C29.0701 15.2453 28.9567 15.5627 28.9567 15.948V16.356C28.9567 16.7413 29.0701 17.0587 29.2967 17.308C29.5234 17.5573 29.8861 17.682 30.3847 17.682ZM45.4911 22.884C45.4911 23.8133 45.1001 24.499 44.3181 24.941C43.5361 25.383 42.3064 25.604 40.6291 25.604C39.7904 25.604 39.0991 25.553 38.5551 25.451C38.0111 25.3603 37.5747 25.2243 37.2461 25.043C36.9287 24.8617 36.7021 24.6463 36.5661 24.397C36.4414 24.1477 36.3791 23.8757 36.3791 23.581C36.3791 23.0823 36.5264 22.7027 36.8211 22.442C37.1157 22.1927 37.5294 22 38.0621 21.864V21.762C37.6881 21.6487 37.3877 21.49 37.1611 21.286C36.9457 21.0707 36.8381 20.7703 36.8381 20.385C36.8381 19.9543 36.9797 19.637 37.2631 19.433C37.5577 19.229 37.9431 19.0703 38.4191 18.957V18.855C37.8977 18.6057 37.4897 18.2543 37.1951 17.801C36.9117 17.3477 36.7701 16.798 36.7701 16.152C36.7701 15.642 36.8607 15.1943 37.0421 14.809C37.2234 14.4123 37.4784 14.0837 37.8071 13.823C38.1471 13.5623 38.5494 13.364 39.0141 13.228C39.4787 13.092 40.0001 13.024 40.5781 13.024C41.1334 13.024 41.6491 13.0863 42.1251 13.211V12.735C42.1251 12.395 42.2441 12.1117 42.4821 11.885C42.7201 11.6583 43.0487 11.545 43.4681 11.545H45.0151V13.381H42.9071V13.534C43.3831 13.7833 43.7514 14.129 44.0121 14.571C44.2841 15.0017 44.4201 15.5287 44.4201 16.152C44.4201 16.662 44.3294 17.1097 44.1481 17.495C43.9667 17.8803 43.7061 18.209 43.3661 18.481C43.0261 18.7417 42.6181 18.94 42.1421 19.076C41.6774 19.212 41.1561 19.28 40.5781 19.28C40.3174 19.28 40.0681 19.2687 39.8301 19.246C39.5921 19.212 39.3654 19.1667 39.1501 19.11C39.0254 19.178 38.9177 19.263 38.8271 19.365C38.7477 19.467 38.7081 19.5973 38.7081 19.756C38.7081 19.892 38.7421 19.9997 38.8101 20.079C38.8781 20.1583 38.9687 20.2207 39.0821 20.266C39.2067 20.3 39.3484 20.3227 39.5071 20.334C39.6657 20.3453 39.8301 20.351 40.0001 20.351H42.0061C42.6294 20.351 43.1621 20.4133 43.6041 20.538C44.0461 20.6627 44.4087 20.8383 44.6921 21.065C44.9754 21.2917 45.1794 21.558 45.3041 21.864C45.4287 22.17 45.4911 22.51 45.4911 22.884ZM43.1111 23.071C43.1111 22.8443 43.0204 22.663 42.8391 22.527C42.6577 22.4023 42.3121 22.34 41.8021 22.34H38.7931C38.5664 22.5327 38.4531 22.7707 38.4531 23.054C38.4531 23.326 38.5664 23.547 38.7931 23.717C39.0311 23.8983 39.4277 23.989 39.9831 23.989H41.4621C42.0401 23.989 42.4594 23.9097 42.7201 23.751C42.9807 23.5923 43.1111 23.3657 43.1111 23.071ZM40.5781 17.682C41.0881 17.682 41.4564 17.5573 41.6831 17.308C41.9211 17.0587 42.0401 16.7413 42.0401 16.356V15.948C42.0401 15.5627 41.9211 15.2453 41.6831 14.996C41.4564 14.7467 41.0881 14.622 40.5781 14.622C40.0794 14.622 39.7167 14.7467 39.4901 14.996C39.2634 15.2453 39.1501 15.5627 39.1501 15.948V16.356C39.1501 16.7413 39.2634 17.0587 39.4901 17.308C39.7167 17.5573 40.0794 17.682 40.5781 17.682ZM51.1114 22.204C49.6381 22.204 48.5218 21.796 47.7624 20.98C47.0031 20.164 46.6234 19.0533 46.6234 17.648C46.6234 16.934 46.7198 16.2937 46.9124 15.727C47.1164 15.149 47.3998 14.6617 47.7624 14.265C48.1364 13.857 48.5841 13.551 49.1054 13.347C49.6381 13.1317 50.2331 13.024 50.8904 13.024C51.5478 13.024 52.1371 13.1317 52.6584 13.347C53.1798 13.551 53.6218 13.8457 53.9844 14.231C54.3471 14.6163 54.6248 15.0867 54.8174 15.642C55.0214 16.186 55.1234 16.798 55.1234 17.478V18.226H49.1224V18.379C49.1224 18.9457 49.2981 19.4047 49.6494 19.756C50.0008 20.096 50.5164 20.266 51.1964 20.266C51.7178 20.266 52.1654 20.1697 52.5394 19.977C52.9134 19.773 53.2364 19.5067 53.5084 19.178L54.8684 20.657C54.5284 21.0763 54.0524 21.439 53.4404 21.745C52.8284 22.051 52.0521 22.204 51.1114 22.204ZM50.9074 14.826C50.3634 14.826 49.9271 14.996 49.5984 15.336C49.2811 15.6647 49.1224 16.1123 49.1224 16.679V16.815H52.6584V16.679C52.6584 16.101 52.4998 15.6477 52.1824 15.319C51.8764 14.9903 51.4514 14.826 50.9074 14.826ZM57.2248 20.045H59.2478V15.183H57.2248V13.228H61.7638V15.71H61.8828C61.9621 15.3927 62.0698 15.0867 62.2058 14.792C62.3531 14.486 62.5345 14.2197 62.7498 13.993C62.9765 13.755 63.2485 13.568 63.5658 13.432C63.8831 13.296 64.2571 13.228 64.6878 13.228H65.5208V15.54H63.6508C63.0275 15.54 62.5571 15.727 62.2398 16.101C61.9225 16.4637 61.7638 16.9113 61.7638 17.444V20.045H64.6538V22H57.2248V20.045Z" fill="black"/>
</svg>
