<svg width="64" height="30" viewBox="0 0 64 30" fill="none" xmlns="http://www.w3.org/2000/svg">
<g id="Darknet 1" clip-path="url(#clip0_14170_61506)">
<g id="surface1">
<path id="Vector" fill-rule="evenodd" clip-rule="evenodd" d="M6.78889 17.2885V12.8176C6.78889 11.5607 5.93194 10.4023 3.62639 10.4023H0V19.7037H3.62639C5.93194 19.7037 6.78889 18.5315 6.78889 17.2885ZM4.68056 16.7148C4.68056 17.4412 4.42778 17.8468 3.37361 17.8468H2.10833V12.2593H3.37361C4.42778 12.2593 4.68056 12.6648 4.68056 13.3912V16.7148Z" fill="black"/>
<path id="Vector_2" fill-rule="evenodd" clip-rule="evenodd" d="M13.2777 10.4023H10.4666L7.61243 19.7037H9.80548L10.3124 17.8885H13.4458L13.9527 19.7037H16.1458L13.2777 10.4023ZM11.8721 12.2454L12.9402 16.1426H10.7902L11.8721 12.2454Z" fill="black"/>
<path id="Vector_3" fill-rule="evenodd" clip-rule="evenodd" d="M22.5736 19.7037H25.0764L22.8125 16.519C23.7541 16.1287 24.1764 15.3468 24.1764 14.1871V13.0412C24.1764 11.2954 23.3333 10.4023 21.0555 10.4023H17.1625V19.7037H19.2708V16.8135H20.5083L22.5736 19.7037ZM22.068 13.9773C22.068 14.676 21.843 14.9968 20.943 14.9968H19.2708V12.2593H20.943C21.8 12.2593 22.068 12.5385 22.068 13.2371V13.9773Z" fill="black"/>
<path id="Vector_4" fill-rule="evenodd" clip-rule="evenodd" d="M26.15 19.7037H28.2584V10.4023H26.15V19.7037ZM31.2514 19.7037H33.6278L30.8028 14.9551L33.4306 10.4023H31.0556L28.525 14.9551L31.2514 19.7037Z" fill="black"/>
<path id="Vector_5" fill-rule="evenodd" clip-rule="evenodd" d="M45.7444 19.7037H48.3389V10.4023H46.3333V16.8135L43.2639 10.4023H40.6847V19.7037H42.6889V13.5857L45.7444 19.7037Z" fill="black"/>
<path id="Vector_6" fill-rule="evenodd" clip-rule="evenodd" d="M56.0319 19.7037V17.8468H52.2499V15.8218H55.7374V13.9635H52.2499V12.2593H56.0319V10.4023H50.1416V19.7037H56.0319Z" fill="black"/>
<path id="Vector_7" fill-rule="evenodd" clip-rule="evenodd" d="M64.0001 12.2593V10.4023H56.8584V12.2593H59.3751V19.7037H61.4834V12.2593H64.0001Z" fill="black"/>
<path id="Vector_8" fill-rule="evenodd" clip-rule="evenodd" d="M24.1709 2.46283C31.1014 2.46283 36.7195 8.07533 36.7195 15.0003C36.7195 21.9253 31.1014 27.5378 24.1709 27.5378C19.5403 27.5378 15.4972 25.0323 13.3209 21.3059H10.9625C13.3209 26.2031 18.3389 29.5837 24.1472 29.5837C32.2222 29.5837 38.7667 23.0545 38.7667 15.0003C38.7667 6.94616 32.2222 0.416992 24.1472 0.416992C18.4709 0.416992 13.5486 3.64616 11.1278 8.36282H13.5222C15.7403 4.81977 19.6792 2.46283 24.1709 2.46283Z" fill="black"/>
</g>
</g>
<defs>
<clipPath id="clip0_14170_61506">
<rect width="64" height="29.3333" fill="white" transform="translate(0 0.333008)"/>
</clipPath>
</defs>
</svg>
