<svg width="48" height="48" viewBox="0 0 48 48" fill="none" xmlns="http://www.w3.org/2000/svg">
<path d="M24.0034 48V38.6926C33.8551 38.6926 41.5025 28.9225 37.7196 18.5536C36.3317 14.7436 33.2564 11.6683 29.4191 10.2804C19.0503 6.52472 9.28023 14.1449 9.28023 23.9966H0C0 8.29368 15.1858 -3.95296 31.6508 1.19063C38.8354 3.44946 44.5778 9.16455 46.8094 16.3492C51.953 32.8142 39.7063 48 24.0034 48Z" fill="black"/>
<path fill-rule="evenodd" clip-rule="evenodd" d="M24.0302 38.747H14.75V29.4668H24.0302V38.747Z" fill="black"/>
<path fill-rule="evenodd" clip-rule="evenodd" d="M14.7505 45.8501H7.64746V38.7471H14.7505V45.8501Z" fill="black"/>
<path fill-rule="evenodd" clip-rule="evenodd" d="M7.64753 38.7471H1.6875V32.7871H7.64753V38.7471Z" fill="black"/>
</svg>
