<svg width="48" height="48" viewBox="0 0 48 48" fill="none" xmlns="http://www.w3.org/2000/svg">
<g id="seaborn">
<g id="Group 512518">
<rect id="Rectangle 1067" x="24.7007" width="16.9718" height="11.2451" fill="black"/>
<rect id="Rectangle 1082" x="24.7007" y="16.1904" width="12.1302" height="7.75705" fill="black"/>
<rect id="Rectangle 1068" x="18.4534" width="4.99783" height="4.94577" fill="black"/>
<rect id="Rectangle 1070" x="18.4534" y="6.19531" width="4.99783" height="4.94577" fill="black"/>
<rect id="Rectangle 1075" x="18.4534" y="24.4688" width="4.99783" height="4.94577" fill="black"/>
<rect id="Rectangle 1079" x="18.4534" y="36.8594" width="4.99783" height="4.94577" fill="black"/>
<rect id="Rectangle 1078" x="18.4534" y="30.6641" width="4.99783" height="4.94577" fill="black"/>
<rect id="Rectangle 1080" x="18.4534" y="43.0547" width="4.99783" height="4.94577" fill="black"/>
<rect id="Rectangle 1069" x="12.7267" width="4.99783" height="4.94577" fill="black"/>
<rect id="Rectangle 1072" x="12.7267" y="12.4424" width="4.99783" height="4.94577" fill="black"/>
<rect id="Rectangle 1073" x="12.7267" y="18.6377" width="4.99783" height="4.94577" fill="black"/>
<rect id="Rectangle 1076" x="12.7267" y="30.6641" width="4.99783" height="4.94577" fill="black"/>
<rect id="Rectangle 1081" x="12.7267" y="43.0547" width="4.99783" height="4.94577" fill="black"/>
<rect id="Rectangle 1074" x="7" y="18.6377" width="4.99783" height="4.94577" fill="black"/>
<rect id="Rectangle 1077" x="7" y="30.6641" width="4.99783" height="4.94577" fill="black"/>
<rect id="Rectangle 1071" x="7" y="6.19531" width="4.99783" height="4.94577" fill="black"/>
</g>
</g>
</svg>
