<svg width="39" height="48" viewBox="0 0 39 48" fill="none" xmlns="http://www.w3.org/2000/svg">
<path d="M23.9825 0.0163902L38.8557 0L13.9025 24.9404L7.39926 31.4072L0 23.9989L23.9825 0.0163902ZM23.8441 22.2852C24.0371 22.0302 24.3923 22.1559 24.6618 22.1231L38.843 22.1267L25.9184 35.0385L18.4809 27.6466L23.8441 22.2852Z" fill="black"/>
<path d="M11.0674 35.0512L18.4812 27.6465L25.9187 35.0385L25.9497 35.0712L18.483 42.4687L11.0674 35.0512Z" fill="#A7A7A7"/>
<path d="M18.4824 42.4687L25.9491 35.0713L38.8482 47.9831C33.9894 47.994 29.1324 47.9795 24.2754 47.9904C23.9986 48.0523 23.8274 47.7992 23.6508 47.6425L18.4824 42.4687Z" fill="black"/>
</svg>
