<svg width="53" height="48" viewBox="0 0 53 48" fill="none" xmlns="http://www.w3.org/2000/svg">
<path fill-rule="evenodd" clip-rule="evenodd" d="M14.3563 0.218352C12.6737 0.756299 12.0611 1.40609 10.3135 4.50585C8.90742 7 7.08793 10.2367 6.13822 11.9335L5.5739 12.9417L7.24002 15.866C8.15642 17.4743 9.28309 19.4543 9.74377 20.2659C10.2045 21.0777 10.621 21.7173 10.6694 21.6873C10.7178 21.6575 11.3192 20.655 12.0058 19.4598C12.6924 18.2645 13.9424 16.0895 14.7837 14.6263C15.6249 13.1632 16.6628 11.3546 17.0903 10.6071L17.8677 9.24802H31.4489C38.9186 9.24802 45.0303 9.21541 45.0303 9.1755C45.0303 9.1356 44.828 8.73228 44.5807 8.27912C44.3335 7.82595 43.9507 7.11694 43.73 6.70344C42.5304 4.45554 41.1143 2.07994 40.7167 1.64864C40.0939 0.972935 39.3356 0.494323 38.4591 0.223557C37.7428 0.00229388 37.356 -0.00476143 26.3675 0.00125303C15.7108 0.00703617 14.9754 0.0203373 14.3563 0.218352ZM18.8884 11.7059C18.5419 12.259 15.8548 16.9685 15.0445 18.4432C14.6599 19.143 13.8064 20.6336 13.148 21.7558C12.4895 22.8779 11.9507 23.8819 11.9507 23.9867C11.9507 24.0916 12.4268 24.9952 13.0086 25.9946C13.5904 26.9942 14.3244 28.2803 14.6397 28.8529C14.955 29.4254 15.8776 31.0389 16.6898 32.4384C17.502 33.8379 18.3577 35.3339 18.5915 35.7628C18.8693 36.2726 19.1048 36.564 19.2716 36.6043C19.4119 36.6383 22.701 36.6518 26.5808 36.6342L33.6349 36.6022L34.1079 35.7926C36.3339 31.9813 37.3056 30.3067 37.8666 29.3155C38.2265 28.6794 39.0488 27.2633 39.6937 26.1687C40.3386 25.0742 40.8664 24.0914 40.8664 23.9847C40.8664 23.8782 40.1728 22.6138 39.3251 21.1749C38.4773 19.7361 37.4552 17.9863 37.0537 17.2866C36.6522 16.5868 35.8316 15.1555 35.2303 14.1059C34.6288 13.0562 34.0107 12.0023 33.8565 11.7637L33.5764 11.33H26.3502H19.1239L18.8884 11.7059ZM36.3977 11.5975C36.4349 11.746 36.9524 12.6964 37.5475 13.7095C38.1427 14.7227 39.0353 16.2803 39.5312 17.1709C40.0269 18.0615 40.4713 18.8422 40.5186 18.9059C40.6345 19.0619 42.7113 22.6848 43.1192 23.4425C43.3566 23.8836 43.4113 24.0865 43.3219 24.1943C43.2546 24.2756 42.6818 25.2528 42.0492 26.3661C40.0415 29.8993 38.2769 32.9725 37.4339 34.4047C36.9845 35.168 36.281 36.3912 35.8705 37.1227C35.2097 38.3001 34.1281 40.182 30.7084 46.1052C30.1883 47.006 29.7628 47.8027 29.7628 47.8755C29.7628 47.9734 30.8758 47.9988 34.0134 47.9726L38.264 47.9372L39.0736 47.5422C40.4384 46.8762 41.0375 46.151 42.7615 43.0766C43.5812 41.615 44.4591 40.0548 44.7122 39.6095C44.9654 39.1642 45.7578 37.7589 46.4731 36.4866C47.1885 35.2143 48.3346 33.1844 49.02 31.9757C49.7053 30.7671 50.7226 28.9707 51.2804 27.9838C52.5953 25.6574 52.8838 24.677 52.6619 23.2882C52.523 22.4182 52.2828 21.8834 51.0837 19.7733C49.9989 17.8644 48.0608 14.3779 47.162 12.7179L46.4419 11.3878L41.3858 11.3576L36.3299 11.3275L36.3977 11.5975ZM3.2861 16.914C2.81454 17.7551 2.06562 19.0642 1.62194 19.8232C0.543271 21.6687 0.185643 22.4662 0.0488136 23.3311C-0.102357 24.2869 0.107339 25.5916 0.54304 26.4062C0.7052 26.7095 2.15202 29.2749 3.48827 31.6288C4.03004 32.583 5.03006 34.3526 5.71062 35.5613C10.9898 44.9377 11.6275 46.0254 12.1587 46.5612C12.4321 46.837 13.0539 47.2594 13.5405 47.4999L14.4251 47.9372L20.7348 47.9685L27.0447 48L28.0191 46.2914C28.5549 45.3518 29.5234 43.6982 30.1711 42.6167C31.8305 39.8461 32.3074 39.0091 32.3074 38.8673C32.3074 38.7813 30.1042 38.7347 25.0624 38.714L17.8174 38.6842L16.9551 37.1227C16.4808 36.2639 15.6639 34.8326 15.1394 33.942C14.6151 33.0514 13.3884 30.9435 12.4134 29.2577C11.4383 27.5719 10.1706 25.3859 9.59619 24.3998C7.91954 21.5217 6.05703 18.3107 5.18447 16.7936C4.73917 16.0195 4.32278 15.3858 4.25917 15.3855C4.19555 15.3852 3.75765 16.073 3.2861 16.914ZM27.5784 18.5009C28.6155 18.6933 29.7816 19.3409 30.4798 20.1122C32.5582 22.409 32.5698 25.5217 30.5083 27.8358C28.4251 30.1744 24.4037 30.1876 22.3326 27.8625C20.2291 25.5011 20.2478 22.3977 22.3799 20.0695C23.6144 18.7215 25.5758 18.1295 27.5784 18.5009Z" fill="black"/>
</svg>
