<svg width="48" height="48" viewBox="0 0 48 48" fill="none" xmlns="http://www.w3.org/2000/svg">
<g id="google-cloud 1" clip-path="url(#clip0_14173_61622)">
<path id="Vector" d="M24.3825 4.75779C15.789 4.56279 8.16296 10.2493 5.91296 18.5473C5.80346 18.5713 6.01496 18.5083 5.91296 18.5473C-1.83754 23.6488 -1.93054 34.7653 5.42096 40.4308L5.42846 40.4158L5.41346 40.4788C7.76546 42.2518 10.6245 43.1983 13.5705 43.1893H23.9145L23.9775 43.2433H34.3605C47.736 43.3528 53.1105 26.0398 42.033 18.5473C41.0805 15.0238 39.1185 11.8603 36.393 9.44529L36.3075 9.53079L36.315 9.42879C33.0105 6.51429 28.7835 4.85829 24.3855 4.75629L24.3825 4.75779ZM23.664 13.0543C26.148 12.9688 28.7025 13.7893 30.633 15.3508C33.0465 17.3668 34.422 20.3668 34.359 23.5078V24.5473C41.421 24.4063 41.421 35.0713 34.359 34.9303H23.976L23.961 34.9453V34.8673H13.5705C12.8355 34.8673 12.1095 34.7113 11.4375 34.4068C8.13296 32.9143 7.34396 28.5703 9.90596 26.0008C12.477 23.4388 16.812 24.2278 18.312 27.5323L24.336 21.5083C22.3365 18.8983 19.446 17.1103 16.2195 16.4773C16.2585 16.4623 16.2975 16.4308 16.329 16.4383C18.219 14.3608 20.868 13.1413 23.673 13.0558L23.664 13.0543Z" fill="black"/>
</g>
<defs>
<clipPath id="clip0_14173_61622">
<rect width="48" height="48" fill="white"/>
</clipPath>
</defs>
</svg>
