<svg width="48" height="48" viewBox="0 0 48 48" fill="none" xmlns="http://www.w3.org/2000/svg">
<path d="M38.625 48H9.075C7.86315 47.9951 6.70235 47.5115 5.84544 46.6546C4.98853 45.7976 4.50494 44.6368 4.5 43.425V4.575C4.50494 3.36315 4.98853 2.20235 5.84544 1.34544C6.70235 0.488529 7.86315 0.0049363 9.075 0L38.625 0C39.8368 0.0049363 40.9977 0.488529 41.8546 1.34544C42.7115 2.20235 43.1951 3.36315 43.2 4.575V43.425C43.1951 44.6368 42.7115 45.7976 41.8546 46.6546C40.9977 47.5115 39.8368 47.9951 38.625 48Z" fill="black"/>
<path d="M28.7629 41.3914V22.332C28.7629 22.332 30.0004 17.7664 13.4816 24.207C13.4629 24.3758 13.4629 6.56328 13.4629 6.56328L18.8441 6.53516V17.7852C18.8441 17.7852 33.9379 11.832 33.9379 22.2852V41.2789H28.7348L28.7629 41.3914ZM31.8379 13.3977H26.2129C28.2754 10.8664 30.1504 6.55391 30.1504 6.55391H36.0566C36.0566 6.55391 35.0441 9.36641 31.9316 13.3977H31.8379ZM13.5566 41.3539V30.507L18.9941 35.9445L13.5566 41.382V41.3539Z" fill="white"/>
</svg>
