<svg width="49" height="48" viewBox="0 0 49 48" fill="none" xmlns="http://www.w3.org/2000/svg">
<path fill-rule="evenodd" clip-rule="evenodd" d="M0.122126 0V13.8119C4.67476 10.3606 10.2469 8.52327 15.9595 8.58973C29.5761 8.58973 38.2391 18.058 38.2147 30.1129C38.3912 33.7295 37.5494 37.3232 35.785 40.4852C34.0206 43.6473 31.4045 46.2509 28.234 48H48.1221V0H0.122126ZM32.0651 30.1125C31.9713 25.8426 30.2301 21.7743 27.2055 18.7589C24.181 15.7434 20.1075 14.0144 15.8373 13.9335C12.9204 13.7511 9.99815 14.1945 7.26665 15.2341C4.53515 16.2737 2.05754 17.8853 0 19.961V28.3799C1.09756 25.3391 3.1173 22.7169 5.7772 20.8795C8.43709 19.042 11.6044 18.0811 14.8368 18.1308C17.9963 18.0422 21.0669 19.1832 23.402 21.3134C25.737 23.4436 27.1543 26.3969 27.3554 29.5512C27.3554 35.2858 24.9151 39.5319 18.4728 40.5568C14.9344 41.1425 9.39502 39.0438 9.61465 33.6997C9.65881 32.5775 10.1359 31.5161 10.9457 30.7381C11.7556 29.9601 12.8353 29.5259 13.9583 29.5268H14.2511C13.803 30.0175 13.5244 30.6392 13.4565 31.3003C13.3886 31.9613 13.535 32.6267 13.8741 33.1982C14.2132 33.7698 14.727 34.2172 15.3397 34.4744C15.9524 34.7317 16.6316 34.7851 17.2771 34.627C18.4051 34.4089 19.4199 33.7998 20.1431 32.9071C20.8662 32.0144 21.2512 30.8951 21.2303 29.7464C21.0702 28.1971 20.302 26.7745 19.0942 25.7909C17.8864 24.8073 16.3377 24.343 14.788 24.4999H14.5684C13.3209 24.4609 12.0779 24.6689 10.9111 25.112C9.74424 25.5551 8.67657 26.2246 7.76941 27.0819C6.86225 27.9391 6.13351 28.9673 5.62516 30.1072C5.11682 31.2471 4.83888 32.4763 4.80732 33.7241V33.9681C4.63651 40.5568 10.8104 44.9005 17.0086 44.9737C26.5745 45.1445 32.0651 39.0682 32.0651 30.1125ZM0.122126 47.9996V39.2635C1.58305 42.9701 4.28182 46.0568 7.76017 47.9996H0.122126Z" fill="black"/>
</svg>
