<svg width="48" height="48" viewBox="0 0 48 48" fill="none" xmlns="http://www.w3.org/2000/svg">
<g clip-path="url(#clip0_2624_22979)">
<path d="M33.2362 0C33.348 0 33.4597 0 33.5777 0C33.8517 3.38506 32.5597 5.91437 30.9894 7.74601C29.4487 9.56501 27.3389 11.3292 23.9265 11.0615C23.6988 7.72494 24.993 5.38322 26.5611 3.55579C28.0154 1.85272 30.6817 0.337241 33.2362 0Z" fill="black"/>
<path d="M43.5664 35.2328C43.5664 35.2665 43.5664 35.296 43.5664 35.3276C42.6074 38.2321 41.2395 40.7214 39.5702 43.0315C38.0463 45.1287 36.1789 47.951 32.8444 47.951C29.9632 47.951 28.0494 46.0983 25.0965 46.0477C21.9729 45.9971 20.2551 47.5969 17.3991 47.9995C17.0724 47.9995 16.7457 47.9995 16.4254 47.9995C14.3282 47.6959 12.6357 46.035 11.4027 44.5385C7.76687 40.1164 4.95728 34.4044 4.43457 27.0947C4.43457 26.3781 4.43457 25.6635 4.43457 24.9469C4.65588 19.7154 7.19778 15.462 10.5764 13.4006C12.3596 12.3046 14.8108 11.3708 17.5403 11.7882C18.7101 11.9694 19.9052 12.3699 20.9527 12.7662C21.9455 13.1477 23.1869 13.8243 24.363 13.7884C25.1597 13.7652 25.9522 13.35 26.7553 13.057C29.1075 12.2076 31.4133 11.2338 34.4526 11.6912C38.1053 12.2434 40.6978 13.8664 42.2997 16.3704C39.2097 18.337 36.7669 21.3005 37.1842 26.3612C37.5552 30.9582 40.2278 33.6477 43.5664 35.2328Z" fill="black"/>
</g>
<defs>
<clipPath id="clip0_2624_22979">
<rect width="47.999" height="48" fill="white"/>
</clipPath>
</defs>
</svg>
