<svg width="44" height="48" viewBox="0 0 44 48" fill="none" xmlns="http://www.w3.org/2000/svg">
<path d="M3.9446 48H1.99467C1.94467 47.868 1.89667 47.738 1.85467 47.606C1.42469 46.2741 0.666712 44.6261 0.470719 43.2982C0.178729 41.3302 2.03066 41.2202 3.21862 40.3683C5.04856 39.0483 6.48851 38.3183 8.47244 37.1264C9.06242 36.7704 10.8364 35.8804 11.0344 35.4704C11.4363 34.6545 10.3444 33.5065 10.0544 32.8685C9.6044 31.8565 9.36441 30.9966 9.30241 30.0006C7.65447 29.7386 6.39251 28.7467 5.61454 27.6307C4.35458 25.7808 3.48261 22.3609 4.56458 19.759C4.65457 19.553 5.07256 19.149 5.13456 18.833C5.25455 18.215 4.92456 17.393 4.89257 16.7351C4.77257 13.3512 5.46255 10.4353 7.74447 9.41531C8.67043 5.73543 11.9703 4.50947 15.0902 2.68153C16.2522 1.99756 17.5381 1.55757 18.8701 1.06759C23.6139 -0.686351 30.9257 -0.356363 34.8595 2.63354C36.5315 3.89949 39.2114 6.5754 40.1713 8.51134C42.6953 13.6212 42.5113 22.1629 40.7453 28.3807C40.5033 29.2226 40.1633 30.4446 39.6794 31.4466C39.3434 32.1445 38.3014 33.5465 38.4294 34.1665C38.5574 34.7944 40.8073 36.5064 41.2933 36.9564C42.1613 37.8003 43.8132 38.9063 43.9412 39.9563C44.0812 41.0702 43.4452 42.6282 43.1212 43.7061C42.6873 45.1481 42.2493 46.588 41.8133 47.968H3.9406L3.9446 48ZM26.1518 40.9182C25.0619 40.3203 23.4299 39.6763 22.022 39.4063C20.284 39.0783 20.464 41.7822 20.522 43.3942C20.582 44.6801 21.244 46.0261 21.544 46.882C21.694 47.276 21.722 47.702 22.054 47.78C22.6539 47.916 24.6339 47.128 25.2039 46.822C26.4038 46.1661 27.3318 45.1341 28.3517 44.4441C28.3837 44.1041 28.3837 43.7641 28.4137 43.4282C27.8118 43.1322 27.1238 42.9122 26.2218 42.8742C26.8498 42.5742 27.7218 42.5742 28.2918 42.2102L28.3238 41.8242C27.3318 41.7622 26.9458 41.3162 26.2818 40.9522L26.1518 40.9182ZM41.0613 46.79C41.4473 45.5521 41.7793 44.3481 41.9913 43.2862C42.1093 42.7122 42.4213 41.4502 42.3473 40.9342C42.2293 40.0163 40.9793 39.3363 40.3393 38.7623C39.1714 37.7123 38.4374 36.8124 37.2174 35.8244C36.7215 36.5744 35.6595 37.0544 35.2535 37.6524C38.1474 36.2744 38.6714 42.9022 37.5354 45.0301C37.7154 45.6901 38.3174 45.9321 38.5634 46.502L38.3914 46.834H40.9693C40.9973 46.834 41.0313 46.834 41.0593 46.862L41.0613 46.79ZM27.7918 46.766C27.6938 46.618 27.5918 46.4961 27.4918 46.3481L26.8898 46.738H27.7918V46.766ZM33.3336 46.766C33.3496 46.3481 33.3696 45.9581 33.3916 45.5701C32.3336 45.6281 31.7436 44.6101 31.0017 44.5161C30.3537 44.4261 29.8017 45.2381 28.9617 44.9061C28.7697 45.1161 28.5937 45.3601 28.3918 45.5381C28.6997 45.8981 28.9817 46.2881 29.2397 46.706H30.8717C30.8997 46.3781 31.1417 46.1361 31.4696 46.1361C31.8016 46.1361 32.0396 46.3781 32.0396 46.676H33.3596L33.3336 46.766ZM37.5654 46.766C36.9375 45.8081 35.6715 44.9701 34.2055 45.6561L34.1435 46.738H37.5654V46.766ZM20.546 46.766L20.336 46.0781C19.886 44.6361 19.6181 43.5581 19.5261 42.7182C17.6981 41.8462 15.7762 40.9762 14.2182 39.8663C13.9183 39.6563 12.0003 37.1664 11.7583 37.2564C8.28045 38.6083 5.04056 40.9742 2.13066 43.2242C2.64264 44.3381 3.09063 45.5061 3.51061 46.704H20.52L20.546 46.766ZM37.0754 42.5402C37.0174 41.5162 36.7475 39.4183 36.1155 39.0603C34.7955 38.2783 32.4236 40.6182 31.4356 40.9462C31.5256 41.2462 31.7056 41.4882 31.7356 41.9062C32.3056 41.7582 33.0256 41.8482 33.5316 42.0902C32.9336 42.1482 32.2736 42.1482 31.8836 42.4182C31.7356 42.8082 31.9156 43.3782 31.8256 43.9461C33.2036 44.3401 34.8255 44.5521 36.5955 44.6101C36.9235 44.1561 37.0454 43.3202 37.0174 42.4462L37.0754 42.5402ZM28.9157 41.8202C28.8257 42.5702 29.0057 42.8402 29.1537 43.7061C31.6736 44.4881 31.2237 40.2263 28.8837 41.7882L28.9157 41.8202ZM15.7202 39.0003C14.8202 39.9143 18.2621 41.1642 19.3481 41.2302C19.3481 40.6482 19.6781 40.1023 19.6181 39.6883C18.3201 39.4543 16.6142 39.6063 15.7282 38.9963L15.7202 39.0003ZM26.8498 39.4303C26.8498 39.5163 26.7278 39.4883 26.7138 39.5583C27.8738 40.4603 28.7417 40.6482 30.3197 40.5783C31.0277 40.0543 31.6596 39.4523 32.4056 38.9643C30.6957 39.1123 28.5417 40.1783 26.8558 39.4223L26.8498 39.4303ZM33.6896 3.97749C30.4797 2.16555 24.9899 0.795598 21.538 2.51554C18.7781 3.89949 14.9982 6.19741 13.7403 9.09932C14.9402 11.9032 13.4083 14.4711 13.2883 17.317C13.2523 18.833 14.0082 20.1569 14.0702 21.8029C13.6703 22.4789 12.4203 22.5629 11.5503 22.5149C11.2583 21.0569 10.7484 19.417 9.24041 19.253C7.11249 19.023 5.55054 20.7829 5.45855 22.6209C5.33855 24.7788 7.12649 28.3487 9.6304 28.1107C10.6064 28.0187 10.8464 27.0287 11.9083 27.0287C12.4783 28.1687 11.0184 28.5287 10.8624 29.3386C10.8304 29.5486 10.9804 30.3606 11.0704 30.7486C11.5363 32.6365 12.5583 35.0664 13.5603 36.5084C14.8302 38.3083 17.3281 38.6103 20.018 38.7903C20.498 37.7403 22.268 37.8303 23.4299 38.0983C22.048 37.5584 20.758 36.2084 19.6801 35.0404C18.4501 33.6885 17.2201 32.2205 17.1581 30.4806C19.4681 33.6885 21.358 36.4784 25.5598 37.8883C28.7397 38.9383 32.4576 37.3804 34.8875 35.6704C35.9075 34.9524 36.5095 33.8105 37.2274 32.7925C39.9273 28.9206 41.1873 23.3728 40.9193 18.003C40.7973 15.7811 40.7973 13.5612 40.0473 12.0932C39.2694 10.5313 36.6575 9.15131 35.0975 10.5313C34.7975 9.00332 36.3555 8.07335 38.1874 8.61333C36.8675 6.90339 35.5155 4.89546 33.6556 3.8435L33.6896 3.97749ZM25.3619 29.7926C26.5918 32.8805 30.8117 32.5185 34.3735 32.4385C34.2055 32.8265 33.8616 33.3085 33.4436 33.4685C32.3036 33.9325 29.1517 34.2845 27.5678 33.4445C26.5558 32.9025 25.9198 31.6986 25.3639 30.9906C25.0899 30.6466 23.7739 29.7746 25.3399 29.7726L25.3619 29.7926ZM25.6898 28.0507C27.4758 28.9806 30.7297 29.0866 33.1536 29.0106C33.2856 29.5466 33.2856 30.1986 33.2896 30.8386C30.1877 30.9986 26.5158 30.2306 25.6998 28.0487L25.6898 28.0507ZM39.0414 26.8807C38.0954 28.6807 36.7515 30.6746 33.9636 30.7366C33.9176 30.1686 33.8736 29.2666 33.9636 28.9286C36.0915 28.7227 37.4174 27.6367 39.0494 26.8947L39.0414 26.8807ZM37.7434 25.5468C35.7035 26.8667 33.4356 28.2967 30.0957 27.9667C29.3917 27.3467 29.1237 25.9647 29.8137 25.0508C30.1777 25.6768 29.9357 26.8207 30.9537 26.9887C32.8436 27.3207 35.0315 25.8328 36.4135 25.3088C37.2534 23.8848 36.3235 23.3588 35.5735 22.4449C34.0116 20.5829 31.9136 18.245 31.9716 15.4251C32.5996 14.9751 32.6636 16.1151 32.7536 16.3231C33.5616 18.245 35.6015 20.6749 37.1014 22.3229C37.4614 22.7449 38.0614 23.1048 38.1214 23.3728C38.3054 24.1508 37.6134 25.0808 37.7034 25.5908L37.7434 25.5468ZM10.8644 24.1968C10.2364 23.8288 10.0784 22.2169 9.32841 22.1769C8.25845 22.1169 8.45244 24.2748 8.45644 25.5348C7.71647 24.8768 7.58647 22.8069 8.12845 21.7549C7.51248 21.4549 7.23848 22.0849 6.8925 22.3249C7.33248 19.145 11.5723 20.8569 10.8704 24.2448L10.8644 24.1968ZM7.62647 11.9892C6.25652 13.5012 6.54651 16.3371 6.7085 18.365C9.19642 16.7951 12.5043 18.485 12.4743 21.1549C13.6643 21.1229 12.9203 19.667 12.7043 18.725C11.9983 15.6671 13.8883 12.3492 12.7863 9.5453C10.6584 9.7113 8.90843 10.5833 7.63047 11.9732L7.62647 11.9892ZM25.8658 14.2151C26.4798 15.3391 26.6738 16.5111 27.5458 17.355C27.9358 17.737 28.6937 18.203 28.3198 19.257C28.2298 19.499 27.5898 20.0389 27.2178 20.1569C25.8698 20.5469 22.7099 20.2169 23.7759 18.537C24.9019 18.567 26.4038 19.255 27.2398 18.447C26.6118 17.397 25.4699 15.3871 25.8918 14.1871L25.8658 14.2151ZM38.2634 14.1891H38.3994C39.0594 15.5251 39.5994 16.9391 40.4073 18.119C39.8674 19.377 36.3015 20.4989 36.3615 18.233C37.1394 17.893 38.4594 18.163 39.1514 17.733C38.7654 16.6211 38.1914 15.7211 38.2834 14.1911L38.2634 14.1891ZM24.4079 10.9553C21.564 10.2953 20.146 12.1392 19.2881 14.0611C18.5201 13.8732 18.8261 12.8312 19.0181 12.2952C19.5281 10.8933 21.578 9.02932 23.2559 9.28331C23.9739 9.39731 24.9519 10.0553 24.4079 10.9513V10.9553ZM17.4841 3.18552C14.3642 4.06549 10.3644 6.33341 9.08442 9.13332C10.0744 8.99332 10.7644 8.49134 11.7443 8.43134C12.1163 8.39934 12.6003 8.57933 13.0263 8.46134C13.8743 8.25335 14.5862 6.33141 15.2302 5.64343C15.8522 4.95146 16.6002 4.64947 17.1121 4.02149C17.4441 3.8415 17.9281 3.87349 17.9521 3.36151C17.8041 3.21152 17.6521 3.09152 17.4861 3.15152V3.18552H17.4841Z" fill="black"/>
</svg>
