<svg width="48" height="48" viewBox="0 0 48 48" fill="none" xmlns="http://www.w3.org/2000/svg">
<path d="M23.763 8.89374C21.5451 10.4537 19.0314 12.2218 17.6845 15.1469C15.3451 20.25 22.4716 25.8168 22.7761 26.0512C22.8469 26.1059 22.9316 26.1329 23.0161 26.1329C23.1058 26.1329 23.1957 26.1022 23.2687 26.0412C23.4102 25.9228 23.4503 25.7219 23.3653 25.5582C23.3395 25.5085 20.7815 20.5398 20.8766 16.975C20.9103 15.7336 22.6477 14.3253 24.4871 12.8341C26.1718 11.4684 28.0814 9.92046 29.1988 8.10969C31.6517 4.12381 28.9255 0.204509 28.8976 0.16548C28.7893 0.0134543 28.5895 -0.0417848 28.4185 0.0332838C28.2478 0.10851 28.1532 0.29327 28.1922 0.475669C28.1977 0.501479 28.7279 3.09331 27.2527 5.76352C26.6448 6.86689 25.3094 7.80627 23.763 8.89374Z" fill="black"/>
<path d="M33.107 10.6511C33.2635 10.5333 33.3094 10.3183 33.2147 10.1467C33.1199 9.9752 32.9136 9.89951 32.7304 9.96907C32.3537 10.1123 23.5039 13.5234 23.5039 17.6453C23.5039 20.4864 24.7176 21.9874 25.6038 23.0836C25.9514 23.5134 26.2515 23.8846 26.3504 24.2016C26.6288 25.115 25.9692 26.7659 25.6919 27.3249C25.612 27.4857 25.6512 27.6804 25.7871 27.7978C25.8606 27.8612 25.9524 27.8933 26.0443 27.8933C26.1225 27.8933 26.201 27.87 26.2689 27.8228C26.421 27.7169 29.9877 25.1952 29.3479 22.1571C29.1097 21.0024 28.5422 20.1586 28.0414 19.414C27.2657 18.2606 26.7054 17.4273 27.5554 15.8883C28.5516 14.0936 33.0615 10.6853 33.107 10.6511Z" fill="black"/>
<path d="M10.0708 27.9595C9.91906 28.4136 9.99067 28.8644 10.2777 29.2631C11.2371 30.5948 14.6352 31.3283 19.8465 31.3283C19.8468 31.3283 19.8472 31.3283 19.8472 31.3283C20.5533 31.3283 21.2988 31.3145 22.0624 31.2871C30.3944 30.9887 33.4848 28.3931 33.6123 28.2828C33.7512 28.1625 33.7884 27.9622 33.702 27.8001C33.6156 27.6382 33.4292 27.5568 33.2512 27.6057C30.3169 28.407 24.8374 28.6913 21.0368 28.6913C16.784 28.6913 14.6182 28.3851 14.088 28.1589C14.3601 27.7853 16.0382 27.1182 18.1176 26.7092C18.3164 26.6701 18.453 26.4866 18.4333 26.285C18.4136 26.0834 18.2443 25.9297 18.0417 25.9297C16.8227 25.9298 10.7097 26.0277 10.0708 27.9595Z" fill="black"/>
<path d="M37.9518 25.2861C36.2332 25.2861 34.6036 26.1473 34.535 26.184C34.376 26.2691 34.2955 26.4513 34.339 26.6263C34.3828 26.8012 34.54 26.9241 34.7204 26.9243C34.7569 26.9244 38.3861 26.954 38.7149 29.0276C39.006 30.8165 35.2809 33.7151 33.821 34.681C33.6633 34.7854 33.602 34.9871 33.6752 35.1614C33.7374 35.3098 33.882 35.4026 34.0378 35.4026C34.0651 35.4026 34.0926 35.3998 34.12 35.3938C34.4665 35.3198 42.5955 33.5286 41.7361 28.7955C41.2117 25.8949 39.3886 25.2861 37.9518 25.2861Z" fill="black"/>
<path d="M32.3763 34.1017C32.4046 33.95 32.3415 33.7958 32.2153 33.7073L30.2662 32.3421C30.1711 32.2755 30.051 32.2546 29.9394 32.2842C29.9191 32.2895 27.8808 32.8252 24.9215 33.1538C23.747 33.2856 22.4315 33.3551 21.1169 33.3551C18.1584 33.3551 16.2239 33.0075 15.9422 32.7525C15.9049 32.6809 15.9167 32.6483 15.9233 32.6302C15.9745 32.4878 16.2488 32.3186 16.4257 32.2518C16.621 32.1795 16.7263 31.9674 16.6655 31.7681C16.6049 31.5689 16.3996 31.4515 16.1968 31.5003C14.2416 31.9721 13.2855 32.632 13.3551 33.4614C13.4786 34.9317 16.8847 35.6865 19.7643 35.8862C20.1783 35.9145 20.6262 35.929 21.095 35.929C21.0954 35.929 21.0955 35.929 21.0958 35.929C25.884 35.929 32.0223 34.4267 32.0837 34.4114C32.2335 34.3744 32.3478 34.2534 32.3763 34.1017Z" fill="black"/>
<path d="M17.6815 37.258C17.8291 37.1619 17.8945 36.9795 17.8421 36.8114C17.7899 36.6433 17.6327 36.533 17.4561 36.5352C17.1941 36.5421 14.8921 36.646 14.731 38.1116C14.6822 38.5496 14.8076 38.9497 15.1039 39.3008C15.9305 40.2803 18.1615 40.8624 21.9234 41.0807C22.3684 41.1073 22.8204 41.1207 23.2672 41.1207C28.0499 41.1207 31.2709 39.6232 31.4058 39.5595C31.5366 39.4976 31.6228 39.3692 31.6305 39.2248C31.6382 39.0804 31.5662 38.9434 31.4428 38.868L28.9795 37.3642C28.8941 37.3122 28.7918 37.2948 28.6942 37.3148C28.6786 37.3181 27.1146 37.6425 24.7543 37.9631C24.3076 38.0237 23.7483 38.0545 23.0921 38.0545C20.7342 38.0545 18.1117 37.6692 17.6087 37.4171C17.6015 37.3698 17.6108 37.31 17.6815 37.258Z" fill="black"/>
<path d="M21.0387 45.6417C31.9936 45.6324 37.8734 43.6842 39.006 42.4583C39.407 42.0244 39.4503 41.6138 39.4161 41.3456C39.332 40.6856 38.7309 40.2816 38.6626 40.2377C38.4982 40.1319 38.2775 40.1596 38.1493 40.3076C38.0213 40.4557 38.0183 40.6717 38.1467 40.8195C38.2158 40.9084 38.2558 41.0572 38.0537 41.2594C37.601 41.6823 33.0339 42.966 25.4298 43.3515C24.3881 43.4058 23.2956 43.4332 22.1826 43.4334C15.3742 43.4334 10.3915 42.5009 9.73745 41.9573C9.98973 41.5952 11.752 41.0164 13.6264 40.6892C13.8376 40.6524 13.9803 40.4533 13.9476 40.2415C13.9149 40.0296 13.7196 39.8838 13.5061 39.9116C13.4533 39.9187 13.274 39.9297 13.0661 39.9423C9.97352 40.1311 6.39965 40.5521 6.21316 42.1454C6.15651 42.6311 6.30082 43.0717 6.64217 43.4554C7.47737 44.3939 9.87814 45.6415 21.0382 45.6415C21.0385 45.6417 21.0387 45.6417 21.0387 45.6417Z" fill="black"/>
<path d="M41.1579 42.804C41.0031 42.7324 40.8202 42.7686 40.7045 42.8932C40.6883 42.9105 39.0414 44.6329 34.0892 45.6442C32.1933 46.0241 28.6345 46.2167 23.5118 46.2167C18.3794 46.2167 13.4959 46.0148 13.4471 46.0127C13.2431 46.0028 13.0686 46.1511 13.0409 46.3519C13.013 46.5527 13.1424 46.7417 13.3394 46.7886C13.3903 46.8007 18.5083 47.9998 25.5062 47.9998C28.8626 47.9998 32.1286 47.727 35.2138 47.1891C40.9664 46.1807 41.3691 43.3282 41.3834 43.2074C41.4034 43.0383 41.3125 42.8756 41.1579 42.804Z" fill="black"/>
</svg>
