<svg width="48" height="48" viewBox="0 0 48 48" fill="none" xmlns="http://www.w3.org/2000/svg">
<path d="M23.772 19.538C27.066 19.538 29.672 20.41 31.596 22.152C33.518 23.896 34.48 26.272 34.48 29.284C34.48 32.772 33.384 35.498 31.194 37.464C29.018 39.418 25.918 40.394 21.894 40.394C18.242 40.394 15.374 39.806 13.288 38.628V33.868C14.5921 34.5904 15.992 35.1244 17.446 35.454C19.01 35.826 20.464 36.014 21.806 36.014C24.174 36.014 25.978 35.484 27.214 34.426C28.452 33.366 29.07 31.818 29.07 29.776C29.07 25.872 26.58 23.918 21.604 23.918C20.904 23.918 20.038 23.994 19.01 24.142C17.982 24.276 17.08 24.432 16.306 24.612L13.958 23.226L15.21 7.266H32.2V11.936H19.838L19.098 20.028C19.622 19.94 20.254 19.836 20.998 19.716C21.758 19.596 22.684 19.536 23.772 19.536V19.538ZM24 0C10.746 0 0 10.746 0 24C0.000801019 28.4623 1.24586 32.836 3.5953 36.6298C5.94475 40.4235 9.3055 43.487 13.3 45.476V38.126H13.576C13.596 38.134 23.296 43.058 29.618 38.126C35.944 33.19 32.858 26.556 31.778 25.012C30.698 23.47 25.144 20.846 20.362 21.31C15.58 21.772 15.58 21.926 15.58 21.926L16.814 7.734L32.188 7.586V1.488C29.5655 0.51874 26.7938 0.0151678 23.998 0L24 0ZM32.188 1.488V7.586L16.814 7.734L15.58 21.926C15.58 21.926 15.58 21.772 20.362 21.31C25.146 20.846 30.7 23.47 31.778 25.012C32.858 26.556 35.944 33.19 29.618 38.126C23.298 43.06 13.59 38.134 13.576 38.126H13.3V45.476C16.6239 47.1342 20.2854 47.9982 24 48C37.256 48 48 37.254 48 24C47.9925 19.1695 46.5284 14.4534 43.7989 10.468C41.0693 6.48251 37.2013 3.41287 32.7 1.66C32.5309 1.59998 32.3589 1.54264 32.188 1.488Z" fill="black"/>
</svg>
