<svg width="30" height="61" viewBox="0 0 30 61" fill="none" xmlns="http://www.w3.org/2000/svg">
<g id="asf-logo 1" clip-path="url(#clip0_4730_33918)">
<path id="path4437" d="M25.5732 0.284901C24.6314 0.842073 23.0659 2.41588 21.1969 4.69862L22.9142 7.93979C24.12 6.21629 25.3445 4.66536 26.5794 3.34103C26.6751 3.235 26.725 3.18511 26.725 3.18511C26.6771 3.23708 26.6293 3.28906 26.5794 3.34103C26.1803 3.78178 24.9682 5.1955 23.1387 8.00631C24.8996 7.919 27.6065 7.55725 29.8144 7.18095C30.4713 3.50112 29.1699 1.81713 29.1699 1.81713C29.1699 1.81713 27.5129 -0.860629 25.5732 0.284901Z" fill="black"/>
<path id="path4447" d="M19.8048 27.505C19.5845 27.5445 19.3599 27.584 19.1292 27.6235C19.1271 27.6235 19.1271 27.6256 19.125 27.6256C19.2414 27.6089 19.3578 27.5902 19.4701 27.5715C19.5845 27.5507 19.6946 27.5279 19.8048 27.505Z" fill="#BE202E"/>
<path id="path4449" opacity="0.35" d="M19.8048 27.505C19.5845 27.5445 19.3599 27.584 19.1292 27.6235C19.1271 27.6235 19.1271 27.6256 19.125 27.6256C19.2414 27.6089 19.3578 27.5902 19.4701 27.5715C19.5845 27.5507 19.6946 27.5279 19.8048 27.505Z" fill="#BE202E"/>
<path id="path4451" d="M20.3807 24.6715C20.3787 24.6715 20.3787 24.6715 20.3807 24.6715C20.3787 24.6735 20.3766 24.6735 20.3766 24.6735C20.414 24.6694 20.4494 24.6631 20.4847 24.6569C20.6302 24.6361 20.7737 24.6112 20.915 24.58C20.7383 24.6112 20.5616 24.6403 20.3807 24.6715Z" fill="#BE202E"/>
<path id="path4453" opacity="0.35" d="M20.3807 24.6715C20.3787 24.6715 20.3787 24.6715 20.3807 24.6715C20.3787 24.6735 20.3766 24.6735 20.3766 24.6735C20.414 24.6694 20.4494 24.6631 20.4847 24.6569C20.6302 24.6361 20.7737 24.6112 20.915 24.58C20.7383 24.6112 20.5616 24.6403 20.3807 24.6715Z" fill="#BE202E"/>
<path id="path4464" d="M17.8499 16.3139C18.3717 15.3389 18.8998 14.3846 19.4341 13.4574C19.9892 12.4927 20.5505 11.5592 21.116 10.657C21.1493 10.6029 21.1825 10.5488 21.2158 10.4969C21.7771 9.60914 22.3426 8.75674 22.9123 7.94178L21.195 4.69853C21.0661 4.85654 20.9351 5.01662 20.8041 5.18086C20.3093 5.79832 19.7937 6.46153 19.2678 7.16631C18.6732 7.96049 18.0619 8.80664 17.4424 9.69645C16.8686 10.5177 16.2886 11.3784 15.7064 12.2682C15.2116 13.027 14.7147 13.8066 14.222 14.6071C14.2033 14.6362 14.1846 14.6673 14.168 14.6965L16.4029 19.1102C16.8769 18.1622 17.3613 17.2287 17.8499 16.3139Z" fill="black"/>
<path id="path4475" d="M7.67189 41.1851C7.37667 41.998 7.07937 42.8254 6.78 43.6716C6.77584 43.684 6.77168 43.6965 6.76752 43.709C6.72594 43.8275 6.68228 43.9481 6.6407 44.0666C6.43904 44.6362 6.26648 45.1497 5.86523 46.316C6.52428 46.6175 7.05234 47.4075 7.55131 48.3036C7.49725 47.3743 7.11471 46.5032 6.38291 45.8275C9.62823 45.973 12.4245 45.1539 13.8694 42.7797C13.9983 42.5676 14.1168 42.3451 14.2228 42.1102C13.5659 42.9439 12.7509 43.2973 11.2187 43.2121C13.4765 42.2017 14.6095 41.2308 15.6095 39.6237C15.8465 39.2433 16.0773 38.8254 16.3122 38.3639C14.3392 40.3909 12.0503 40.9688 9.6407 40.5302L7.83405 40.7277C7.78415 40.8795 7.72802 41.0312 7.67189 41.1851Z" fill="black"/>
<path id="path4486" d="M8.5153 37.1375C8.90615 36.1291 9.3074 35.1063 9.72112 34.0772C10.1161 33.0917 10.5215 32.098 10.9373 31.1C11.3531 30.1021 11.7772 29.1021 12.2097 28.1021C12.6504 27.0834 13.1016 26.0688 13.559 25.0564C14.0122 24.0564 14.4737 23.0626 14.9436 22.0772C15.112 21.7217 15.2824 21.3682 15.455 21.0169C15.7502 20.4077 16.0496 19.8027 16.3511 19.204C16.3677 19.1707 16.3843 19.1395 16.401 19.1083L14.166 14.6946C14.1286 14.7549 14.0933 14.8152 14.0558 14.8734C13.534 15.7237 13.0163 16.5928 12.5091 17.4805C11.9955 18.3765 11.4903 19.2913 10.9976 20.2185C10.5818 21.0002 10.1743 21.7903 9.77933 22.5865C9.70033 22.7487 9.62132 22.9088 9.5444 23.0688C9.05791 24.0709 8.61717 25.0397 8.22008 25.9691C7.76893 27.0231 7.37392 28.0314 7.02465 28.9857C6.79596 29.6135 6.58806 30.2206 6.39887 30.8027C6.24295 31.3017 6.09326 31.7986 5.95189 32.2955C5.61925 33.4659 5.33026 34.6323 5.09534 35.7944L7.33858 40.231C7.63588 39.4389 7.93941 38.6343 8.25334 37.8194C8.33858 37.5928 8.42798 37.3661 8.5153 37.1375Z" fill="black"/>
<path id="path4497" d="M5.06237 35.9543C4.77963 37.3722 4.58004 38.7859 4.48025 40.1913C4.47609 40.2412 4.47193 40.289 4.46985 40.3389C3.76923 39.2163 1.89189 38.1185 1.89605 38.131C3.23909 40.079 4.25988 42.0125 4.40956 43.9106C3.69023 44.0583 2.70478 43.8441 1.56549 43.4262C2.7526 44.5177 3.64449 44.8192 3.99168 44.9002C2.90021 44.9689 1.76507 45.7173 0.621622 46.5801C2.29522 45.8982 3.64657 45.6279 4.61539 45.8462C3.079 50.1913 1.54054 54.9896 0 60.0832C0.471934 59.9439 0.752599 59.6279 0.912682 59.1975C1.18711 58.2745 3.00832 52.2204 5.86071 44.2661C5.94179 44.0395 6.02287 43.8129 6.10603 43.5822C6.1289 43.5198 6.15177 43.4553 6.17464 43.3909C6.47609 42.5572 6.78794 41.7048 7.11227 40.8358C7.18503 40.6383 7.25988 40.4408 7.33472 40.2412C7.3368 40.237 7.3368 40.2329 7.33888 40.2287L5.09563 35.7963C5.08524 35.8503 5.07277 35.9023 5.06237 35.9543Z" fill="black"/>
<path id="path4508" d="M16.7484 19.4805C16.6839 19.6115 16.6195 19.7445 16.555 19.8776C16.3617 20.2768 16.1642 20.6842 15.9667 21.1C15.7525 21.5512 15.5363 22.0127 15.3159 22.4826C15.2057 22.7196 15.0956 22.9587 14.9833 23.2019C14.6486 23.9296 14.3097 24.6801 13.9667 25.4535C13.5446 26.4056 13.1143 27.3953 12.6777 28.4223C12.2619 29.4015 11.8398 30.416 11.4116 31.4639C11.0062 32.4597 10.5945 33.4867 10.1787 34.547C9.80866 35.4909 9.43236 36.4618 9.05606 37.4597C9.03735 37.5075 9.01864 37.5574 9.00201 37.6052C8.62779 38.5948 8.24941 39.6136 7.86687 40.6572C7.85855 40.6801 7.85024 40.705 7.83984 40.7279L9.6465 40.5304C9.61115 40.5242 9.57373 40.52 9.53839 40.5117C11.6985 40.2414 14.5717 38.6281 16.4282 36.6343C17.2827 35.7154 18.0602 34.6323 18.7775 33.3641C19.3118 32.4202 19.8128 31.3724 20.291 30.2144C20.7089 29.2019 21.1101 28.1063 21.4968 26.9171C20.9999 27.179 20.4324 27.3703 19.8045 27.5034C19.6943 27.5262 19.582 27.5491 19.4698 27.5678C19.3554 27.5886 19.2411 27.6052 19.1247 27.6219C19.1267 27.6219 19.1267 27.6198 19.1288 27.6198C21.1434 26.8443 22.4136 25.3495 23.3367 23.5158C22.8066 23.8776 21.9459 24.3495 20.9126 24.5782C20.7733 24.6094 20.6278 24.6343 20.4823 24.6551C20.4469 24.6614 20.4095 24.6676 20.3741 24.6718C20.3762 24.6718 20.3762 24.6718 20.3762 24.6697H20.3783C21.0768 24.3765 21.6673 24.0501 22.1787 23.6634C22.2889 23.5803 22.3949 23.495 22.4968 23.4077C22.6527 23.2726 22.8024 23.1312 22.9438 22.9815C23.0353 22.8859 23.1226 22.7882 23.2078 22.6863C23.4074 22.4472 23.5966 22.1894 23.7712 21.9108C23.8253 21.8256 23.8773 21.7383 23.9292 21.6489C23.9958 21.52 24.0602 21.3932 24.1226 21.2684C24.4033 20.7029 24.6299 20.1977 24.8087 19.7549C24.8981 19.5345 24.9771 19.3287 25.0436 19.1375C25.0706 19.0605 25.0956 18.9878 25.1205 18.9171C25.1912 18.705 25.2494 18.5158 25.2951 18.3495C25.3638 18.1 25.4053 17.9025 25.4282 17.7591C25.3596 17.8131 25.2806 17.8672 25.1933 17.9192C24.5841 18.283 23.5405 18.6135 22.7006 18.7674C22.6881 18.7695 22.6756 18.7716 22.6631 18.7736C22.58 18.7882 22.4947 18.8007 22.4095 18.8152C22.424 18.809 22.4386 18.8007 22.4532 18.7944L16.7775 19.416C16.7692 19.4389 16.7588 19.4597 16.7484 19.4805Z" fill="black"/>
<path id="path4519" d="M23.1374 8.00652C22.6322 8.78198 22.0812 9.6614 21.4866 10.6572C21.4555 10.7092 21.4243 10.7633 21.3931 10.8152C20.8817 11.678 20.337 12.6261 19.7652 13.6635C19.2704 14.5595 18.7569 15.52 18.2205 16.5533C17.7548 17.4535 17.2725 18.4078 16.7777 19.4182L22.4534 18.7965C24.1062 18.0356 24.8463 17.3475 25.5636 16.3516C25.7548 16.0772 25.9461 15.7903 26.1353 15.493C26.7174 14.5824 27.2912 13.5803 27.8006 12.5845C28.2933 11.6219 28.7299 10.6676 29.0625 9.80901C29.2746 9.26223 29.4451 8.75288 29.5636 8.30589C29.6675 7.91088 29.7486 7.53874 29.811 7.18115C27.6072 7.55745 24.8983 7.9192 23.1374 8.00652Z" fill="black"/>
<path id="path4521" d="M19.4701 27.5694C19.3558 27.5902 19.2414 27.6069 19.125 27.6235C19.2414 27.6089 19.3558 27.5902 19.4701 27.5694Z" fill="#BE202E"/>
<path id="path4523" opacity="0.35" d="M19.4701 27.5694C19.3558 27.5902 19.2414 27.6069 19.125 27.6235C19.2414 27.6089 19.3558 27.5902 19.4701 27.5694Z" fill="#BE202E"/>
<path id="path4534" d="M19.4701 27.5694C19.3558 27.5902 19.2414 27.6069 19.125 27.6235C19.2414 27.6089 19.3558 27.5902 19.4701 27.5694Z" fill="url(#paint0_linear_4730_33918)"/>
</g>
<defs>
<linearGradient id="paint0_linear_4730_33918" x1="3.41084" y1="61.6721" x2="28.9977" y2="6.79858" gradientUnits="userSpaceOnUse">
<stop offset="0.3233" stop-color="#9E2064"/>
<stop offset="0.6302" stop-color="#C92037"/>
<stop offset="0.7514" stop-color="#CD2335"/>
<stop offset="1" stop-color="#E97826"/>
</linearGradient>
<clipPath id="clip0_4730_33918">
<rect width="30" height="60.0832" fill="white"/>
</clipPath>
</defs>
</svg>
