<svg width="43" height="48" viewBox="0 0 43 48" fill="none" xmlns="http://www.w3.org/2000/svg">
<path fill-rule="evenodd" clip-rule="evenodd" d="M19.453 47.5069C20.0165 47.8314 20.6549 48 21.2977 48L21.296 47.9908C21.9476 47.9908 22.586 47.8235 23.1495 47.4977L40.734 37.3406C41.8699 36.6802 42.5787 35.4518 42.5787 34.1354V13.8389C42.5787 12.518 41.8699 11.2897 40.734 10.6337L23.1495 0.472192C22.0444 -0.157397 20.5651 -0.157397 19.4512 0.472192L1.84474 10.6293C0.704437 11.2809 0 12.5136 0 13.8344V34.131C0 35.4474 0.704437 36.6802 1.84474 37.3406L6.4588 39.9998C8.69538 41.1005 9.49668 41.1005 10.5137 41.1005C13.8202 41.1005 15.7221 39.0973 15.7221 35.6103V15.5691C15.7221 15.2829 15.4932 15.0628 15.2158 15.0628H12.988C12.7019 15.0628 12.4773 15.2829 12.4773 15.5691V35.6015C12.4773 37.1513 10.8791 38.6922 8.26392 37.3846L3.44733 34.6021C3.28003 34.5096 3.17437 34.3247 3.17437 34.131V13.8344C3.17437 13.6407 3.28267 13.4514 3.45306 13.3546L21.0314 3.21068C21.1943 3.11382 21.41 3.11382 21.5729 3.21068L39.1547 13.3546C39.3212 13.4558 39.4268 13.6363 39.4268 13.8389V34.1354C39.4268 34.3291 39.3212 34.5184 39.1583 34.6109L21.5694 44.7636C21.4184 44.8516 21.1872 44.8516 21.0243 44.7636L16.5133 42.0867C16.379 42.0075 16.2073 41.981 16.0761 42.0559C14.8279 42.7647 14.5906 42.8572 13.4213 43.2666C13.132 43.3666 12.7041 43.54 13.5811 44.0305L19.453 47.5069ZM17.4211 27.5183C17.4211 30.4814 19.0347 34.0141 26.7307 34.0141L26.7052 34.0348C32.279 34.0348 35.4754 31.8378 35.4754 28.0075C35.4754 24.2079 32.9086 23.1953 27.5021 22.4777C22.0427 21.7556 21.4879 21.3814 21.4879 20.1002C21.4879 19.0435 21.959 17.6347 26.0051 17.6347C29.6198 17.6347 30.9494 18.4139 31.4997 20.8487C31.5482 21.0776 31.7551 21.2449 31.9928 21.2449H34.2779C34.4187 21.2449 34.5552 21.1833 34.6521 21.082C34.7489 20.9763 34.8018 20.8354 34.7886 20.6902C34.4364 16.49 31.645 14.5352 26.0139 14.5352C20.9992 14.5352 18.0054 16.6485 18.0054 20.1971C18.0054 24.0494 20.9816 25.1105 25.7982 25.586C31.557 26.1495 32.006 26.9905 32.006 28.122C32.006 30.0878 30.4299 30.9252 26.7228 30.9252C22.0691 30.9252 21.0477 29.7576 20.7043 27.4426C20.6646 27.1947 20.4533 27.012 20.2023 27.012H17.9305C17.6483 27.012 17.4211 27.2366 17.4211 27.5183Z" fill="black"/>
</svg>
