<svg width="48" height="48" viewBox="0 0 48 48" fill="none" xmlns="http://www.w3.org/2000/svg">
<g id="Keras" clip-path="url(#clip0_14196_62542)">
<g id="Group">
<path id="Vector" d="M48 47.9982C48 47.9991 47.9991 48 47.9982 48H0.00177778C0.000888889 48 0 47.9991 0 47.9982V0.00177778C0 0.000888889 0.000888889 0 0.00177778 0H47.9987C47.9996 0 48.0004 0.000888889 48.0004 0.00177778V47.9982H48Z" fill="white"/>
</g>
<g id="Group_2">
<path id="Vector_2" d="M47.2 47.198C47.2 47.1989 47.1992 47.1998 47.1983 47.1998H0.801827C0.800938 47.1998 0.800049 47.1989 0.800049 47.198V0.801583C0.800049 0.800694 0.800938 0.799805 0.801827 0.799805H47.1987C47.1996 0.799805 47.2005 0.800694 47.2005 0.801583V47.198H47.2Z" fill="black"/>
</g>
<g id="Group_3">
<path id="Vector_3" d="M13.4666 36.6077C13.4666 36.6428 13.4871 36.6917 13.5115 36.7161L14.3057 37.5104C14.3306 37.5352 14.3795 37.5553 14.4142 37.5553H17.132C17.1671 37.5553 17.216 37.5348 17.2404 37.5104L18.0346 36.7161C18.0595 36.6912 18.0795 36.6424 18.0795 36.6077V27.9841C18.0795 27.949 18.1004 27.9006 18.1257 27.8766L21.5786 24.5788C21.604 24.5548 21.6409 24.5584 21.6604 24.5877L30.3844 37.5033C30.404 37.5321 30.4489 37.5561 30.4835 37.5561H34.3337C34.3689 37.5561 34.4106 37.5308 34.4266 37.4997L35.1253 36.1459C35.1413 36.1148 35.1382 36.0659 35.1182 36.037L24.9137 21.2459C24.8937 21.217 24.8977 21.1735 24.9226 21.1486L34.3084 11.8068C34.3333 11.7819 34.3533 11.7335 34.3533 11.6984V11.5259C34.3533 11.4908 34.3417 11.4361 34.328 11.4037L33.7866 10.1588C33.7729 10.1268 33.7324 10.1006 33.6977 10.1006H29.892C29.8569 10.1006 29.808 10.121 29.7835 10.1455L18.1253 21.8477C18.1004 21.8726 18.0804 21.8641 18.0804 21.829V11.0935C18.0804 11.0584 18.0609 11.009 18.0369 10.9833L17.2577 10.1477C17.2337 10.1219 17.1857 10.101 17.1506 10.101H14.4142C14.3791 10.101 14.3311 10.1219 14.3071 10.1477L13.5093 11.009C13.4853 11.0348 13.4662 11.0841 13.4662 11.1193V36.6077H13.4666Z" fill="white"/>
</g>
</g>
<defs>
<clipPath id="clip0_14196_62542">
<rect width="48" height="48" fill="white"/>
</clipPath>
</defs>
</svg>
