<svg width="48" height="48" viewBox="0 0 48 48" fill="none" xmlns="http://www.w3.org/2000/svg">
<g id="Learning 1" clip-path="url(#clip0_14109_60908)">
<g id="Group">
<path id="Vector" fill-rule="evenodd" clip-rule="evenodd" d="M28.6876 21.5624V27.1874L26.8126 29.0624H21.1876L19.3126 27.1874V21.5624C19.3126 19.8161 19.062 19.2986 16.5401 15.9909C15.3387 14.4149 14.6251 12.447 14.6251 10.3125C14.6251 5.13486 18.8225 0.9375 24.0001 0.9375C29.1777 0.9375 33.375 5.13486 33.375 10.3125C33.375 12.447 32.6615 14.4149 31.4601 15.9909C28.9382 19.2986 28.6876 19.8161 28.6876 21.5624Z" stroke="black" stroke-width="1.875" stroke-miterlimit="22.9256" stroke-linecap="round" stroke-linejoin="round"/>
<path id="Vector_2" d="M20.05 25.3125H27.95" stroke="black" stroke-width="1.875" stroke-miterlimit="22.9256" stroke-linecap="round" stroke-linejoin="round"/>
<path id="Vector_3" d="M24 21.1898V12.1875" stroke="black" stroke-width="1.875" stroke-miterlimit="22.9256" stroke-linecap="round" stroke-linejoin="round"/>
<path id="Vector_4" d="M25.875 10.3125L24 12.1875L22.125 10.3125" stroke="black" stroke-width="1.875" stroke-miterlimit="22.9256" stroke-linecap="round" stroke-linejoin="round"/>
<path id="Vector_5" d="M19.6973 21.5625H28.3028" stroke="black" stroke-width="1.875" stroke-miterlimit="22.9256" stroke-linecap="round" stroke-linejoin="round"/>
<path id="Vector_6" d="M8.53125 10.3125H10.4063" stroke="black" stroke-width="1.875" stroke-miterlimit="22.9256" stroke-linecap="round" stroke-linejoin="round"/>
<path id="Vector_7" d="M10.6036 2.57812L12.2275 3.51562" stroke="black" stroke-width="1.875" stroke-miterlimit="22.9256" stroke-linecap="round" stroke-linejoin="round"/>
<path id="Vector_8" d="M10.6036 18.0469L12.2275 17.1094" stroke="black" stroke-width="1.875" stroke-miterlimit="22.9256" stroke-linecap="round" stroke-linejoin="round"/>
<path id="Vector_9" d="M39.4688 10.3125H37.5938" stroke="black" stroke-width="1.875" stroke-miterlimit="22.9256" stroke-linecap="round" stroke-linejoin="round"/>
<path id="Vector_10" d="M37.3963 2.57812L35.7726 3.51562" stroke="black" stroke-width="1.875" stroke-miterlimit="22.9256" stroke-linecap="round" stroke-linejoin="round"/>
<path id="Vector_11" d="M37.3963 18.0469L35.7726 17.1094" stroke="black" stroke-width="1.875" stroke-miterlimit="22.9256" stroke-linecap="round" stroke-linejoin="round"/>
<path id="Vector_12" d="M1.875 40.0313V36.6796C6.98492 36.6796 9.71003 34.7576 12.1706 33.8166C17.2772 31.8636 21.2041 33.4259 24 38.3725C26.7959 33.4259 30.7228 31.8636 35.8294 33.8166C38.2899 34.7576 41.0151 36.6796 46.125 36.6796V40.0313" stroke="black" stroke-width="1.875" stroke-miterlimit="22.9256" stroke-linecap="round" stroke-linejoin="round"/>
<path id="Vector_13" d="M24 38.373V41.2916" stroke="black" stroke-width="1.875" stroke-miterlimit="22.9256" stroke-linecap="round" stroke-linejoin="round"/>
<path id="Vector_14" fill-rule="evenodd" clip-rule="evenodd" d="M24 42.2286C24.7002 41.0157 25.8012 40.5 27.2008 40.5H47.0624V44.7187H27.1451C26.7417 46.0741 25.4864 47.0625 24 47.0625C22.5136 47.0625 21.2584 46.0741 20.8549 44.7187H0.937622V40.5H20.7992C22.1989 40.5 23.2998 41.0157 24 42.2286Z" stroke="black" stroke-width="1.875" stroke-miterlimit="22.9256" stroke-linecap="round" stroke-linejoin="round"/>
</g>
</g>
<defs>
<clipPath id="clip0_14109_60908">
<rect width="48" height="48" fill="white"/>
</clipPath>
</defs>
</svg>
