<svg width="48" height="48" viewBox="0 0 48 48" fill="none" xmlns="http://www.w3.org/2000/svg">
<g id="Matplotlib" clip-path="url(#clip0_14196_62513)">
<g id="Group">
<path id="Vector" d="M24 47.4665C36.9603 47.4665 47.4667 36.9602 47.4667 23.9999C47.4667 11.0396 36.9603 0.533203 24 0.533203C11.0397 0.533203 0.533325 11.0396 0.533325 23.9999C0.533325 36.9602 11.0397 47.4665 24 47.4665Z" fill="white" stroke="black" stroke-width="0.533333"/>
<path id="Vector_2" d="M24 41.5994C33.7202 41.5994 41.6 33.7196 41.6 23.9994C41.6 14.2792 33.7202 6.39941 24 6.39941C14.2798 6.39941 6.40002 14.2792 6.40002 23.9994C6.40002 33.7196 14.2798 41.5994 24 41.5994Z" fill="white" stroke="black" stroke-width="0.533333"/>
<path id="Vector_3" d="M23.9999 35.7333C30.4801 35.7333 35.7333 30.4801 35.7333 23.9999C35.7333 17.5198 30.4801 12.2666 23.9999 12.2666C17.5198 12.2666 12.2666 17.5198 12.2666 23.9999C12.2666 30.4801 17.5198 35.7333 23.9999 35.7333Z" fill="white" stroke="black" stroke-width="0.533333"/>
<path id="Vector_4" d="M24 29.8661C27.24 29.8661 29.8666 27.2396 29.8666 23.9995C29.8666 20.7594 27.24 18.1328 24 18.1328C20.7599 18.1328 18.1333 20.7594 18.1333 23.9995C18.1333 27.2396 20.7599 29.8661 24 29.8661Z" fill="white" stroke="black" stroke-width="0.533333"/>
<g id="Vector_5">
<path d="M24 0.533203V47.4665V0.533203ZM40.5333 40.5332L7.46666 7.46654L40.5333 40.5332ZM40.5333 7.46654L7.46666 40.5332L40.5333 7.46654ZM47.4667 23.9999H0.533325H47.4667Z" fill="white"/>
<path d="M24 0.533203V47.4665M40.5333 40.5332L7.46666 7.46654M40.5333 7.46654L7.46666 40.5332M47.4667 23.9999H0.533325" stroke="black" stroke-width="0.533333"/>
</g>
</g>
<g id="Group_2">
<path id="Vector_6" d="M24 23.9993H28.8C28.862 23.5571 28.862 23.1083 28.8 22.666L24 23.9993Z" fill="black" stroke="black" stroke-width="0.266667"/>
<path id="Vector_7" d="M24 23.9994L33.0667 12.5327C31.852 11.6186 30.5025 10.8989 29.0667 10.3994L24 23.9994Z" fill="black" stroke="black" stroke-width="0.266667"/>
<path id="Vector_8" d="M24 23.9998L19.7333 4.7998C16.7016 5.46447 13.8693 6.83491 11.4667 8.7998L24 23.9998Z" fill="black" stroke="black" stroke-width="0.266667"/>
<path id="Vector_9" d="M24 23.9999L8.53329 16.5332C7.02585 19.7791 6.56009 23.412 7.19996 26.9332L24 23.9999Z" fill="black" stroke="black" stroke-width="0.266667"/>
<path id="Vector_10" d="M24 24L15.2 28.2667C15.3451 28.7235 15.5234 29.1691 15.7333 29.6L24 24Z" fill="black" stroke="black" stroke-width="0.266667"/>
<path id="Vector_11" d="M23.9999 24L21.3333 36C22.9176 36.3161 24.5489 36.3161 26.1333 36L23.9999 24Z" fill="black" stroke="black" stroke-width="0.266667"/>
<path id="Vector_12" d="M24 24L36.2667 39.4667C37.4525 38.5262 38.5262 37.4525 39.4667 36.2667L24 24Z" fill="black" stroke="black" stroke-width="0.266667"/>
</g>
</g>
<defs>
<clipPath id="clip0_14196_62513">
<rect width="48" height="48" fill="white"/>
</clipPath>
</defs>
</svg>
