<svg width="62" height="48" viewBox="0 0 62 48" fill="none" xmlns="http://www.w3.org/2000/svg">
<path id="path21" d="M28.6695 45.4366C36.6314 44.0301 43.2075 42.8663 43.283 42.8503L43.4203 42.8212L35.9035 33.8802C31.7693 28.9627 28.3867 24.9202 28.3867 24.8969C28.3867 24.8528 36.1484 3.47884 36.1921 3.40279C36.2067 3.37737 41.4888 12.4967 48.9962 25.5086C56.0249 37.6906 61.8196 47.7347 61.8735 47.8289L61.9714 48L38.0824 47.9969L14.1934 47.9938L28.6695 45.4366ZM0 42.7101C0 42.6975 3.54189 36.5491 7.87085 29.047L15.7417 15.4068L24.9143 7.70924C29.9592 3.47558 34.1004 0.00650067 34.117 0.000173904C34.1336 -0.00615161 34.0673 0.160879 33.9696 0.371354C33.8718 0.58183 29.3898 10.1953 24.0094 21.7346L14.227 42.7151L7.11349 42.724C3.20107 42.7289 0 42.7226 0 42.7101Z" fill="black"/>
</svg>
