<svg width="54" height="48" viewBox="0 0 54 48" fill="none" xmlns="http://www.w3.org/2000/svg">
<path opacity="0.2" d="M45.375 36V9H53.25V48H7.5C5.84315 48 4.5 46.6569 4.5 45V36H45.375Z" fill="black"/>
<path fill-rule="evenodd" clip-rule="evenodd" d="M46.5 0H8.25L0.654995 5.17841C0.245188 5.45783 0 5.92176 0 6.41776V44.0607C0 44.6414 0.631584 45.0018 1.13155 44.7064L8.25 40.5H46.5C48.1569 40.5 49.5 39.1569 49.5 37.5V3C49.5 1.34315 48.1569 0 46.5 0ZM17.25 9V31.5H22.125V16.125L27.375 31.5H29.25H31.125L36.375 16.125V31.5H41.25V9H34.125L29.625 25.875H29.25H28.875L24.375 9H17.25Z" fill="black"/>
</svg>
