<svg width="48" height="48" viewBox="0 0 48 48" fill="none" xmlns="http://www.w3.org/2000/svg">
<g id="matlab 1">
<path id="Vector" d="M46.4864 34.4626C43.7695 27.6022 41.5142 20.5659 38.9184 13.6601C37.7719 10.7199 36.6499 7.75514 35.0871 5.00418C34.4665 4.01654 33.8724 2.93054 32.8545 2.29862C32.5977 2.13542 32.3081 2.06614 32.0221 2.07159C31.5453 2.08064 31.0713 2.29388 30.7071 2.60133C29.3411 3.68355 28.5313 5.25771 27.6232 6.70698C26.0187 9.3974 24.3273 12.2146 21.6444 13.9628C20.3844 14.852 18.7346 14.9485 17.5199 15.9021C15.8587 17.1546 14.7292 18.9312 13.367 20.4713C13.0567 20.8421 12.5761 20.9897 12.1561 21.1902C8.09206 22.8476 4.02616 24.5012 0 26.2419C3.40936 28.8793 7.04201 31.2254 10.5195 33.772C11.4731 33.5828 12.4304 33.1912 13.4143 33.3652C14.9733 33.8534 15.8871 35.3481 16.6023 36.7141C18.0553 39.6921 19.1054 42.8366 20.2822 45.9281C22.2499 45.7881 24.0208 44.774 25.542 43.582C28.4708 41.2095 30.7014 38.1444 33.1573 35.314C34.3341 34.0766 35.5336 32.6028 37.3007 32.2584C39.0868 31.827 40.9996 32.4665 42.324 33.6963C44.1819 35.3575 45.828 37.2779 48 38.5493C47.7086 37.1114 47.0086 35.8211 46.4864 34.4626ZM16.1104 29.6285C14.3962 30.6427 12.5761 31.477 10.7938 32.3625C7.99746 30.4894 5.273 28.5047 2.52581 26.5635C6.23034 24.9402 9.99163 23.4322 13.7454 21.9186C15.5238 23.3074 17.3591 24.6261 19.1375 26.0148C18.3013 27.3506 17.2947 28.5917 16.1104 29.6285ZM19.9227 24.9742C18.1556 23.646 16.3658 22.3538 14.6251 20.9916C15.7414 19.4704 16.9636 18.0003 18.428 16.8008C19.3968 16.1802 20.5811 16.008 21.5877 15.448C23.9754 14.256 25.6044 12.0689 27.1596 9.98013C25.1655 15.1566 23.037 20.354 19.9227 24.9742Z" fill="black"/>
</g>
</svg>
