<svg width="49" height="54" viewBox="0 0 49 54" fill="none" xmlns="http://www.w3.org/2000/svg">
<g id="Frame 1000002178">
<path id="Vector" d="M30.7353 25.4395L20.214 28.875L11.0606 32.9149L8.49986 33.5909C7.84768 34.2113 7.16385 34.8396 6.42424 35.4758C5.61309 36.1756 4.8576 36.8119 4.27697 37.273C3.63285 37.782 2.67853 38.7363 2.19346 39.3406C1.46974 40.2472 0.897172 41.2094 0.650624 41.9491C0.213196 43.2852 0.428021 44.6371 1.27097 45.8857C2.35251 47.4762 4.50771 49.0984 7.02064 50.2038C8.3011 50.7686 10.4562 51.4922 12.0785 51.8977C14.7743 52.5817 19.9913 53.3213 22.8621 53.4327C23.4426 53.4566 24.222 53.4566 24.2537 53.4327C24.3174 53.3928 24.7628 52.542 25.2798 51.4844C27.0453 47.8818 28.3177 44.5019 29.0095 41.6152C29.423 39.8657 29.749 37.5355 29.9637 34.7761C30.0194 34.0046 30.0432 31.42 29.9955 30.5452C29.9239 29.1138 29.7966 27.9528 29.598 26.8155C29.5661 26.6485 29.5581 26.4973 29.5741 26.4894C29.6058 26.4656 29.7012 26.4338 30.9975 26.0599L30.7352 25.4397V25.4395H30.7353V25.4395ZM28.3336 26.8472C28.4291 26.8472 28.6835 29.2885 28.7471 30.8315C28.763 31.1575 28.755 31.3722 28.7391 31.3722C28.6756 31.3722 27.3951 30.6168 26.4807 30.0442C25.6854 29.5432 24.1745 28.5411 23.9359 28.3502C23.8563 28.2946 23.8642 28.2867 24.5164 28.0639C25.6217 27.6901 28.2462 26.8472 28.3336 26.8472ZM22.9736 28.6127C23.0452 28.6127 23.228 28.7159 23.6654 28.9864C25.3036 30.0123 27.5304 31.2529 28.4847 31.6665C28.7789 31.7937 28.8106 31.746 28.1348 32.2073C26.6874 33.1934 24.882 34.1635 22.6712 35.1417C22.2816 35.3167 21.9556 35.4518 21.9477 35.4518C21.9318 35.4518 21.9794 35.2531 22.0429 35.0145C22.5758 33.0342 22.8781 31.0302 22.894 29.4238C22.902 28.6284 22.902 28.6284 22.9736 28.6047C22.9576 28.6127 22.9655 28.6127 22.9736 28.6127ZM21.8682 29.0341C21.9158 29.0817 21.8841 30.8632 21.8204 31.3483C21.6773 32.5094 21.4546 33.5909 21.0889 34.8078C21.0014 35.1018 20.9217 35.3485 20.906 35.3643C20.874 35.404 19.7845 34.3384 19.4267 33.9249C18.8063 33.2091 18.3213 32.4934 17.9634 31.7936C17.7805 31.4357 17.4943 30.736 17.5181 30.7121C17.6453 30.6246 21.8364 29.0023 21.8682 29.0341ZM16.6671 31.0779C16.675 31.0779 16.683 31.0779 16.691 31.0858C16.7069 31.1017 16.7626 31.229 16.8104 31.3721C17.0648 32.064 17.6372 33.0819 18.1305 33.7341C18.6712 34.4498 19.3791 35.2132 19.9674 35.7142C20.1584 35.8733 20.3332 36.0243 20.357 36.0482C20.4048 36.096 20.4207 36.0879 19.1244 36.5811C17.6215 37.1536 15.9832 37.7262 14.1063 38.3306C13.658 38.4751 13.2101 38.6209 12.7625 38.768C12.6908 38.7919 12.7148 38.7521 12.9215 38.4261C13.8519 36.9707 15.2674 34.1158 16.0628 32.0958C16.198 31.7459 16.3331 31.396 16.3571 31.3165C16.3889 31.2051 16.4286 31.1654 16.5319 31.1096C16.5876 31.0939 16.6433 31.0779 16.6671 31.0779ZM15.0767 31.738C15.1005 31.7539 14.695 32.6048 14.2973 33.3841C13.5259 34.8871 12.6829 36.3664 11.5537 38.1637C11.3628 38.4738 11.18 38.7601 11.1561 38.7919C11.1164 38.8476 11.1004 38.8317 10.9732 38.5852C10.7028 38.0523 10.48 37.3684 10.3608 36.7401C10.2414 36.1197 10.2653 35.0383 10.4006 34.3703C10.5039 33.8773 10.496 33.8852 10.7346 33.7659C11.7525 33.249 15.0449 31.7062 15.0767 31.738ZM28.7949 32.2947V32.6287C28.7949 34.4021 28.604 36.8356 28.3256 38.6091C28.2779 38.9192 28.238 39.1736 28.2302 39.1817C28.2302 39.1817 27.9996 39.1181 27.7292 39.0385C26.5363 38.6647 25.24 38.1159 24.071 37.4719C23.2995 37.0504 22.1782 36.3584 22.2101 36.3266C22.2179 36.3187 22.552 36.1437 22.9416 35.9369C24.5005 35.1258 25.9955 34.251 27.2917 33.3842C27.7769 33.0581 28.5084 32.5333 28.6676 32.3901L28.7949 32.2947ZM9.07242 34.6485C9.10422 34.6485 9.09626 34.7122 9.04855 34.9985C9.01672 35.2053 8.977 35.587 8.9612 35.8493C8.89742 37.0104 9.08841 37.8694 9.66098 39.0463C9.82003 39.3724 9.94735 39.6428 9.93928 39.6507C9.88358 39.6984 4.61908 41.2413 2.96483 41.6946C2.47181 41.8297 2.04245 41.949 2.01047 41.9569C1.95491 41.9729 1.94692 41.9649 1.97075 41.8296C2.15364 40.6607 3.04437 39.1338 4.28492 37.8454C5.11203 36.9866 5.77213 36.4856 6.90138 35.8413C7.71254 35.3802 8.96109 34.6884 9.05651 34.6565C9.05658 34.6485 9.0645 34.6485 9.07242 34.6485ZM21.4785 36.8673C21.4864 36.8594 21.6773 36.9628 21.9079 37.098C23.6097 38.0841 25.9796 38.9987 27.9994 39.4679L28.1824 39.5077L27.9279 39.6507C26.8703 40.2392 23.395 41.6865 19.8403 43.0147C19.3233 43.2055 18.8144 43.3964 18.7188 43.4361C18.6234 43.4758 18.5359 43.4998 18.5359 43.4918C18.5359 43.4838 18.6791 43.2055 18.8619 42.8636C19.856 41.0027 20.8581 38.7362 21.367 37.1616C21.4308 37.0105 21.4704 36.8753 21.4785 36.8673ZM20.214 37.2809C20.2221 37.289 20.1584 37.4559 20.0788 37.6467C19.387 39.3247 18.4803 41.1539 17.3193 43.2056C17.0251 43.7305 16.7785 44.152 16.7704 44.152C16.7626 44.152 16.5239 44.0088 16.2377 43.8339C14.5516 42.8 13.0566 41.5276 12.0785 40.295L11.9353 40.12L12.6589 39.9212C15.2515 39.2135 17.4543 38.45 19.6414 37.5116C19.9516 37.3844 20.2061 37.2809 20.214 37.2809ZM28.0712 40.0245C28.0791 40.2075 27.6735 41.8457 27.3395 43.0305C27.0612 44.0246 26.8225 44.804 26.3852 46.1797C26.1943 46.7843 26.0274 47.2851 26.0194 47.2851C26.0114 47.2851 25.9637 47.2772 25.916 47.2614C23.5541 46.8318 21.4387 46.2354 19.4506 45.4402C18.8938 45.2175 18.0986 44.8596 18.0509 44.8199C18.0351 44.8038 18.5122 44.5813 19.1166 44.3188C22.735 42.7363 26.4886 40.939 27.7769 40.1677C27.9279 40.0722 28.0473 40.0245 28.0712 40.0245ZM9.93136 40.6449C9.94728 40.6607 8.93729 42.1161 7.52166 44.0963C7.02864 44.7882 6.45607 45.5993 6.24139 45.9015C6.02664 46.2037 5.70062 46.6809 5.5177 46.9672L5.18354 47.4841L4.82566 47.1819C4.40415 46.8319 3.67261 46.0844 3.34655 45.6709C2.66258 44.82 2.20142 43.9214 2.0185 43.1023C1.931 42.7205 1.931 42.5296 2.01043 42.5059C2.12969 42.4741 4.25305 41.973 6.24132 41.5117C7.34673 41.2573 8.627 40.9551 9.08827 40.8438C9.54957 40.7322 9.92344 40.6449 9.93136 40.6449ZM10.9492 41.0346L11.2036 41.3208C12.3489 42.6012 13.518 43.5477 14.9335 44.3746C15.188 44.5178 15.3789 44.645 15.3629 44.6531C15.3073 44.6928 10.4482 46.4183 8.19764 47.1977C6.93325 47.6431 5.89139 48.0009 5.88354 48.0009C5.87562 48.0009 5.804 47.9533 5.72435 47.8976L5.58129 47.7941L5.81189 47.4602C6.55938 46.3786 7.49793 45.1938 9.54172 42.7285L10.9492 41.0346ZM17.2955 45.5754C17.3033 45.5675 17.6532 45.6947 18.0826 45.8539C19.1166 46.2435 19.9356 46.49 21.0331 46.7683C22.3851 47.1104 24.3414 47.4444 25.4946 47.5398C25.6695 47.5556 25.765 47.5716 25.7331 47.5955C25.6774 47.6273 24.5085 48.017 23.6496 48.2874C22.2816 48.7167 18.1066 49.9493 14.7029 50.9276C14.0746 51.1105 13.5338 51.2616 13.502 51.2695C13.4226 51.2855 13.1601 51.2138 13.1601 51.182C13.1601 51.1662 13.3509 50.9197 13.5816 50.6492C14.7267 49.2814 15.864 47.7545 16.8104 46.3071C17.0727 45.9094 17.2955 45.5834 17.2955 45.5754ZM15.8957 45.6153C15.9036 45.6232 15.3391 46.5297 14.3531 48.0884C13.9315 48.7485 13.4622 49.496 13.2952 49.7585C13.1362 50.0129 12.8976 50.4106 12.7625 50.6332L12.5318 51.0389L12.4125 51.007C12.1262 50.9275 10.1142 50.2197 9.58136 50.005C8.92126 49.7425 8.23736 49.4245 7.72835 49.1541C7.09223 48.8121 6.29702 48.3031 6.36058 48.2873C6.37646 48.2794 7.46599 47.985 8.77809 47.6272C12.2614 46.6807 14.1938 46.1321 15.4584 45.7345C15.689 45.6629 15.8878 45.6072 15.8957 45.6153ZM25.7967 47.9373H25.8046C25.8364 48.0169 24.5482 51.5955 24.0788 52.7247C23.9756 52.9792 23.9359 53.0429 23.8802 53.0348C23.745 53.027 21.8762 52.7646 20.7388 52.5975C18.7587 52.2953 15.4345 51.7147 14.5995 51.5239L14.4087 51.4842L15.5935 51.2137C18.1384 50.6411 19.363 50.331 20.6036 49.9493C22.1703 49.4721 23.7211 48.8757 25.2877 48.1441C25.5342 48.0327 25.741 47.9452 25.7967 47.9373Z" fill="black"/>
<path id="Vector_2" d="M19.888 0.913493C19.7131 0.889766 16.8898 1.90768 15.0687 2.64718C12.6113 3.64932 10.7028 4.60368 9.52577 5.43057C9.08846 5.74085 8.53962 6.2895 8.45226 6.50418C8.42047 6.58373 8.40448 6.67915 8.40448 6.77457L9.47018 7.78456L12.007 8.59571L18.043 9.67729L24.9458 10.8622L25.0174 10.2658C24.9936 10.2658 24.9776 10.2579 24.954 10.2579L24.0471 10.1147L23.8644 9.78866C22.9259 8.13449 21.8921 6.08271 21.2877 4.69895C20.8186 3.62534 20.3732 2.38486 20.1266 1.49413C19.9914 0.953356 19.9756 0.921561 19.8882 0.91364V0.913456H19.888V0.913493ZM19.7606 1.3192H19.7688C19.7766 1.32705 19.8084 1.54987 19.8403 1.81215C19.9754 2.92567 20.2221 3.9991 20.6117 5.16022C20.9059 6.03504 20.9059 5.98736 20.564 5.88391C19.7528 5.66131 16.1185 5.03304 13.4862 4.66723C13.0647 4.61153 12.7068 4.55589 12.7068 4.54797C12.675 4.51618 14.6075 3.50611 15.4584 3.10859C16.5479 2.60746 19.5381 1.35892 19.7606 1.3192ZM12.0944 4.88191L12.4047 4.98518C14.0905 5.55785 18.3291 6.36905 20.6673 6.55989C20.9297 6.58376 21.1524 6.60767 21.1603 6.60767C21.1682 6.61559 20.9456 6.73489 20.6593 6.87003C19.5301 7.43467 18.2895 8.12657 17.4306 8.65941C17.1762 8.81839 16.9454 8.94571 16.9137 8.94571C16.8819 8.94571 16.7149 8.91388 16.54 8.89001L16.2219 8.84222L15.4267 8.06283C14.027 6.70302 12.9296 5.65331 12.508 5.2556L12.0944 4.88191ZM11.7764 5.12839L12.8977 6.52809C13.51 7.29949 14.1303 8.05494 14.2656 8.22188C14.4007 8.38899 14.5121 8.52424 14.5042 8.53216C14.4723 8.556 12.8819 8.24579 12.0388 8.05502C11.172 7.85614 10.8141 7.76072 10.2813 7.59379L9.8439 7.45058V7.33917C9.85183 6.80633 10.5279 6.01112 11.673 5.20004L11.7764 5.12839ZM21.3035 7.03703C21.3354 7.03703 21.375 7.10858 21.4705 7.3233C21.7409 7.9197 22.584 9.5262 22.7906 9.8363C22.8544 9.93979 22.9655 9.94771 21.8443 9.76479C19.1485 9.32729 18.2815 9.1843 18.2815 9.16839C18.2815 9.16047 18.3611 9.10476 18.4645 9.04906C19.2995 8.5879 20.1424 7.99935 20.8901 7.37108C21.073 7.21995 21.24 7.07682 21.2717 7.05291C21.2796 7.03703 21.2956 7.02911 21.3035 7.03703Z" fill="black"/>
<path id="Vector_3" d="M8.50773 6.39258C8.50773 6.39258 8.33288 6.67103 8.49985 7.08458C8.60334 7.33898 8.90548 7.64908 9.24738 7.96725C9.24738 7.96725 12.7863 11.4186 13.2157 11.9118C15.172 14.1702 16.023 16.397 16.1025 19.4667C16.1502 21.4389 15.7763 23.1726 14.846 25.1846C13.1918 28.7951 9.70058 32.7794 4.31671 37.201L5.10414 36.9385C5.61308 36.5567 6.30497 36.1513 7.92725 35.2606C11.6729 33.2087 15.8877 31.3239 21.057 29.3835C28.5004 26.5842 40.7396 23.3076 47.7059 22.2421L48.4297 22.1307L48.3183 21.9557C47.6822 20.9696 47.2446 20.3573 46.7197 19.7052C45.1929 17.8125 43.3401 16.2777 41.0735 15.0052C37.9561 13.2637 33.924 11.9038 28.8186 10.8938C27.8563 10.7029 25.7409 10.3371 24.0232 10.0747C20.3809 9.5102 18.0269 9.12045 15.4344 8.6751C14.5041 8.51598 13.1122 8.27746 12.1897 8.0787C11.7126 7.97521 10.7981 7.76053 10.0824 7.51402C9.50984 7.29123 8.6827 7.06856 8.50773 6.39258ZM10.5596 8.3808C10.5675 8.37296 10.6947 8.42052 10.8618 8.47622C11.164 8.57949 11.5536 8.69882 12.015 8.82615C12.364 8.92216 12.714 9.01493 13.0647 9.10446C13.5419 9.22368 13.9394 9.33505 13.9473 9.33505C14.0031 9.39076 14.8064 11.9592 15.0767 12.9454C15.18 13.3193 15.2597 13.6373 15.2517 13.6373C15.2435 13.6454 15.1562 13.5101 15.0528 13.3272C14.1223 11.6889 12.6511 10.0269 10.9492 8.69079C10.7267 8.53189 10.5596 8.38872 10.5596 8.3808ZM14.4723 9.46234C14.5121 9.46234 14.687 9.48622 14.9016 9.53389C16.2536 9.83607 18.6792 10.2973 20.2299 10.5598C20.4923 10.5995 20.6992 10.6473 20.6992 10.6631C20.6992 10.6791 20.6036 10.7347 20.4843 10.7984C20.222 10.9335 19.1642 11.5617 18.8144 11.8003C17.9316 12.3888 17.1364 13.025 16.5638 13.5976C16.3332 13.8283 16.1343 14.0191 16.1343 14.0191C16.1343 14.0191 16.0867 13.884 16.0468 13.7168C15.7606 12.6114 15.1641 10.9732 14.6233 9.82012C14.5358 9.63727 14.4642 9.47023 14.4642 9.45438C14.4642 9.47026 14.4642 9.46234 14.4723 9.46234ZM21.3591 10.7745C21.4069 10.7904 21.4864 11.0608 21.6454 11.6572C21.9397 12.8104 22.0749 14.0987 22.0272 15.2995C22.0112 15.6335 21.9954 15.9436 21.9794 15.9835L21.9556 16.0629L21.5421 15.9278C20.6911 15.6574 19.3074 15.2517 18.1226 14.9178C17.4465 14.7349 16.8979 14.5679 16.8979 14.552C16.8979 14.5042 17.884 13.5181 18.3055 13.1444C19.1085 12.4365 21.2875 10.7506 21.3591 10.7745ZM21.9079 10.8539C21.9318 10.8302 25.2003 11.3947 26.6874 11.6811C27.7929 11.8957 29.3993 12.2298 29.4946 12.2696C29.5424 12.2854 29.3753 12.3809 28.8425 12.6194C26.743 13.5659 25.1843 14.4167 23.6337 15.4506C23.2281 15.721 22.8861 15.9436 22.8782 15.9436C22.8702 15.9436 22.8623 15.7131 22.8623 15.4347C22.8623 13.9237 22.5601 12.3968 22.0033 11.1085C21.9476 10.9813 21.8999 10.862 21.9079 10.8539ZM30.3614 12.5241C30.3853 12.5479 30.2819 13.1921 30.1865 13.5738C29.9002 14.7587 29.1288 16.5164 28.1826 18.1704C28.0154 18.4647 27.8644 18.7032 27.8484 18.7112C27.8326 18.7191 27.6179 18.5998 27.3713 18.4566C26.4488 17.9159 25.3991 17.4069 24.2539 16.9297C23.9359 16.7946 23.6575 16.6832 23.6495 16.6674C23.5937 16.6196 26.1545 14.9257 27.5065 14.1146C28.5801 13.4625 30.3296 12.4922 30.3614 12.5241ZM30.9658 12.6195C31.0374 12.6195 32.4848 13.0171 33.2402 13.2398C35.1091 13.7965 37.2562 14.5838 38.6559 15.22L39.2364 15.4825L38.8309 15.5778C35.4114 16.3651 32.4848 17.2718 29.6616 18.4169C29.431 18.5124 29.2242 18.5919 29.2084 18.5919C29.1924 18.5919 29.272 18.409 29.3754 18.1863C30.2263 16.3811 30.775 14.4963 30.9101 12.8898C30.9182 12.7387 30.9419 12.6195 30.9658 12.6195ZM16.5558 15.9278C16.5796 15.9039 17.6851 16.1664 18.2815 16.3332C19.1881 16.5878 21.1126 17.2319 21.1126 17.2797C21.1126 17.2876 20.8979 17.4705 20.6435 17.6933C19.6017 18.5601 18.5996 19.4745 17.3987 20.6356C17.0408 20.9777 16.7387 21.256 16.7229 21.256C16.7069 21.256 16.6991 21.2082 16.7069 21.1446C16.8898 19.8085 16.8501 18.0908 16.5956 16.3492C16.5717 16.1265 16.5479 15.9357 16.5558 15.9278ZM39.7853 15.9517C39.801 15.9675 39.2763 16.7946 38.9423 17.2637C38.4652 17.9476 37.7652 18.8544 36.1826 20.8425C35.3478 21.8921 34.4092 23.0771 34.0992 23.4748C33.7809 23.8724 33.5186 24.2063 33.5106 24.2063C33.5026 24.2063 33.3994 24.0632 33.288 23.8883C32.3973 22.5522 31.3316 21.3832 30.0671 20.3335C29.8286 20.1346 29.5662 19.9199 29.4787 19.8563C29.3912 19.7927 29.3196 19.729 29.3196 19.7211C29.3196 19.6973 30.6714 19.1167 31.6975 18.7032C33.4948 17.9715 35.9439 17.0968 37.7811 16.5321C38.7434 16.23 39.7693 15.9357 39.7853 15.9517ZM40.3976 16.1106C40.4293 16.1027 40.6203 16.1982 40.8509 16.3332C42.7834 17.4386 44.676 18.8622 46.1712 20.3255C46.5927 20.7391 47.6344 21.8206 47.6184 21.8286C47.6184 21.8286 47.2526 21.8604 46.8233 21.8921C43.4752 22.1467 39.1889 22.8544 35.0694 23.8484C34.7911 23.912 34.5446 23.9677 34.5286 23.9677C34.5129 23.9677 34.8229 23.6576 35.2127 23.2838C37.6302 20.9538 38.7357 19.4825 40.0398 16.8581C40.2226 16.4685 40.3817 16.1345 40.3976 16.1106C40.3897 16.1106 40.3897 16.1106 40.3976 16.1106ZM22.6872 17.9239C22.7986 17.9476 23.8324 18.4329 24.6118 18.8225C25.3275 19.1802 26.4012 19.753 26.4568 19.8006C26.4647 19.8085 26.0829 20.0073 25.6139 20.238C24.1187 20.9855 22.8384 21.6932 21.5023 22.5044C21.1206 22.7351 20.8025 22.9261 20.7946 22.9261C20.7627 22.9261 20.7707 22.8941 20.9854 22.5044C21.7012 21.2003 22.2737 19.6416 22.5998 18.1226C22.6315 18.0034 22.6634 17.9239 22.6872 17.9239ZM21.6533 18.1147C21.6772 18.1386 21.4069 19.1167 21.2399 19.6495C20.9138 20.6595 20.3651 21.924 19.8323 22.8783C19.7049 23.1008 19.5141 23.4269 19.4107 23.6098L19.212 23.9279L18.7666 23.4986C18.2498 22.9975 17.8282 22.6874 17.2875 22.409C17.0727 22.2978 16.9057 22.2022 16.9057 22.1864C16.9057 22.1228 18.2656 20.8902 19.3074 19.9995C20.0549 19.3553 21.6295 18.0909 21.6533 18.1147ZM27.9758 20.7152L28.3655 20.9696C29.256 21.5503 30.3057 22.3216 31.1091 22.9975C31.5622 23.3712 32.437 24.1587 32.6121 24.3495L32.7074 24.453L32.0634 24.6358C28.421 25.6457 25.6058 26.5444 22.3214 27.7532C21.9556 27.8884 21.6454 27.9997 21.6215 27.9997C21.5739 27.9997 21.534 28.0394 22.3533 27.2839C24.4528 25.3516 26.3136 23.2202 27.6974 21.1446L27.9758 20.7152ZM26.3137 21.1288C26.3295 21.1446 25.24 22.6794 24.5879 23.5463C23.8085 24.5801 22.4247 26.3137 21.4705 27.4429C21.0729 27.9122 20.731 28.3019 20.715 28.3098C20.6911 28.3178 20.6832 28.1985 20.6832 28.0156C20.6832 27.0532 20.4367 26.0274 20.0072 25.1527C19.8243 24.7868 19.7925 24.6993 19.8324 24.6596C19.9834 24.5244 22.2976 23.2043 23.7608 22.417C24.7469 21.8922 26.2896 21.1128 26.3137 21.1288ZM16.2615 23.594C16.2854 23.594 16.4683 23.6894 16.6751 23.8008C17.1841 24.0791 17.6374 24.3892 18.0429 24.7233C18.0588 24.7392 17.8521 24.9063 17.5817 25.1049C16.8262 25.6457 15.6811 26.5126 15.0131 27.0455C14.3131 27.6021 14.2895 27.618 14.3689 27.4988C14.8938 26.6955 15.1561 26.2422 15.4346 25.6617C15.6811 25.1449 15.9275 24.5325 16.1025 23.9996C16.1661 23.769 16.2457 23.594 16.2615 23.594ZM18.9416 25.6935C18.9813 25.6856 19.0291 25.7571 19.2437 26.0753C19.6971 26.7511 20.047 27.6578 20.1346 28.3894L20.1503 28.5485L19.061 28.9701C17.1125 29.7255 15.3153 30.4731 14.0984 31.0296C13.7565 31.1888 13.1601 31.475 12.7705 31.666C12.3807 31.8647 12.0626 32.0158 12.0626 32.0079C12.0626 32 12.3091 31.817 12.6113 31.5943C14.9893 29.8687 17.0489 27.9759 18.5917 26.0832C18.7587 25.8843 18.9099 25.7014 18.9256 25.6935L18.9416 25.6935ZM17.709 25.9957C17.7408 26.0275 16.8343 27.0533 16.2139 27.6816C14.6791 29.2483 13.1601 30.4731 11.2753 31.666C11.0368 31.817 10.8221 31.9522 10.7982 31.9682C10.7425 32 10.814 31.9204 11.6411 31.0217C12.1661 30.4571 12.5636 29.9799 13.0169 29.3915C13.3191 29.0019 13.3748 28.9462 13.8123 28.6359C14.9813 27.7929 17.6772 25.9638 17.709 25.9957Z" fill="black"/>
</g>
</svg>
