<svg width="48" height="48" viewBox="0 0 48 48" fill="none" xmlns="http://www.w3.org/2000/svg">
<g id="mysql 1" clip-path="url(#clip0_14173_61707)">
<g id="Group">
<path id="Vector" fill-rule="evenodd" clip-rule="evenodd" d="M10.9135 8.51367C10.3598 8.51367 9.96939 8.58014 9.57507 8.67755V8.74327H9.6391C9.90273 9.26442 10.3598 9.62573 10.684 10.0825C10.947 10.605 11.1752 11.1254 11.436 11.6478C11.4687 11.6161 11.5 11.5821 11.5 11.5821C11.9599 11.2572 12.1881 10.7347 12.1881 9.94992C11.9912 9.72033 11.9598 9.49355 11.7957 9.26433C11.6002 8.93845 11.1751 8.77523 10.9135 8.51367Z" fill="black"/>
<path id="Vector_2" fill-rule="evenodd" clip-rule="evenodd" d="M44.2133 36.8844C41.6003 36.8189 39.5772 37.0799 37.8797 37.7985C37.3898 37.9941 36.6078 37.9941 36.5404 38.6146C36.8033 38.8755 36.8346 39.2992 37.065 39.6602C37.456 40.3128 38.1399 41.1929 38.7617 41.6514C39.4471 42.1739 40.133 42.6943 40.8523 43.1514C42.1241 43.9381 43.5614 44.3931 44.7998 45.1772C45.5205 45.6336 46.2364 46.2208 46.9572 46.7118C47.3148 46.9728 47.5416 47.3978 48.0001 47.5592V47.4605C47.7705 47.1676 47.7058 46.7432 47.4789 46.4149C47.1526 46.0906 46.8256 45.795 46.4986 45.4701C45.5511 44.197 44.3747 43.088 43.1043 42.1739C42.0587 41.4538 39.772 40.4743 39.3497 39.2699C39.3497 39.2699 39.3156 39.2353 39.2836 39.2032C40.0015 39.1371 40.8523 38.8755 41.5369 38.6774C42.6451 38.3845 43.6575 38.4505 44.7998 38.1576C45.3229 38.0261 45.8454 37.8619 46.3699 37.7012V37.4056C45.7793 36.819 45.357 36.0344 44.7364 35.4799C43.0729 34.0439 41.2426 32.6414 39.3496 31.4643C38.3359 30.8111 37.0301 30.3887 35.9525 29.8321C35.5629 29.636 34.9103 29.5393 34.6808 29.2109C34.0929 28.493 33.7653 27.5474 33.3416 26.6974C32.3961 24.9038 31.4799 22.9134 30.6652 21.0166C30.0781 19.7442 29.7183 18.4721 29.0004 17.2961C25.6361 11.745 21.9808 8.38438 16.3657 5.08645C15.1573 4.39945 13.7214 4.1062 12.188 3.74723C11.3706 3.71282 10.5552 3.64954 9.73909 3.61748C9.21597 3.38788 8.69275 2.76707 8.23637 2.47345C6.37487 1.29857 1.57787 -1.2474 0.205933 2.11457C-0.675504 4.23782 1.51178 6.32638 2.26309 7.40395C2.81762 8.15395 3.53696 9.00407 3.92659 9.85176C4.15543 10.4069 4.22087 10.9954 4.45046 11.5823C4.97218 13.0185 5.46137 14.6188 6.148 15.958C6.50631 16.6436 6.89725 17.3629 7.35437 17.9801C7.618 18.3415 8.07372 18.5025 8.17178 19.0921C7.71606 19.744 7.68062 20.7235 7.41981 21.5402C6.2454 25.2296 6.70187 29.8 8.36734 32.5091C8.8885 33.3251 10.1303 35.1214 11.7958 34.4341C13.2644 33.8476 12.9381 31.9866 13.3625 30.3552C13.4599 29.9608 13.3945 29.7019 13.59 29.4411V29.5072C14.0463 30.4199 14.5048 31.2994 14.9292 32.2163C15.9422 33.8144 17.7037 35.4798 19.1744 36.5889C19.9557 37.1788 20.5762 38.1889 21.5557 38.5493V38.4506H21.491C21.2948 38.1577 21.0019 38.0262 20.7404 37.7986C20.1525 37.2108 19.5013 36.4921 19.0422 35.8395C17.6717 34.012 16.4619 31.9868 15.387 29.8976C14.8631 28.8833 14.4075 27.7743 13.9823 26.7627C13.7868 26.373 13.7868 25.7834 13.4598 25.5883C12.9687 26.3056 12.2527 26.9268 11.8938 27.8056C11.2732 29.2109 11.2086 30.9411 10.9784 32.7374C10.8482 32.7715 10.9136 32.7374 10.8482 32.8021C9.80462 32.5412 9.44565 31.4643 9.05256 30.5529C8.07371 28.2321 7.9089 24.5104 8.75893 21.8334C8.98647 21.1492 9.96878 18.9945 9.57503 18.3417C9.37815 17.7187 8.72556 17.3632 8.36725 16.8713C7.94359 16.251 7.48375 15.4691 7.19284 14.7821C6.40881 12.9544 6.01515 10.9296 5.16906 9.10195C4.77671 8.25182 4.09009 7.37001 3.53687 6.58804C2.91493 5.70623 2.23037 5.08635 1.73987 4.04282C1.57778 3.68273 1.34893 3.09492 1.60909 2.70426C1.67387 2.4427 1.80606 2.34426 2.06762 2.27826C2.48987 1.91957 3.69906 2.37567 4.12281 2.57179C5.33125 3.05985 6.34346 3.5197 7.35437 4.20388C7.81206 4.53126 8.3019 5.15104 8.8884 5.31595H9.57503C10.6192 5.54245 11.7957 5.37923 12.7758 5.67417C14.5047 6.2287 16.0714 7.04507 17.476 7.92651C21.7511 10.6366 25.2777 14.4898 27.6597 19.0922C28.052 19.8419 28.2169 20.5282 28.5751 21.3101C29.2611 22.9133 30.1106 24.5454 30.7945 26.1108C31.4797 27.6455 32.1344 29.2109 33.1145 30.486C33.603 31.1707 35.5627 31.5297 36.4442 31.8893C37.0954 32.1823 38.1091 32.4438 38.697 32.8021C39.8073 33.4868 40.9149 34.2715 41.9612 35.0235C42.4824 35.415 44.1152 36.2305 44.2133 36.8844Z" fill="black"/>
</g>
</g>
<defs>
<clipPath id="clip0_14173_61707">
<rect width="48" height="48" fill="white"/>
</clipPath>
</defs>
</svg>
