<svg width="54" height="48" viewBox="0 0 54 48" fill="none" xmlns="http://www.w3.org/2000/svg">
<g clip-path="url(#clip0_58210_14240)">
<path d="M24.8312 43.2864C24.7772 43.1606 24.6136 42.7663 24.4676 42.4103C24.3216 42.0542 24.1633 41.675 24.1157 41.5676C24.0681 41.4601 23.9812 41.2639 23.9225 41.1315C23.8639 40.999 23.7855 40.8203 23.7483 40.7342C23.5436 40.2599 23.4735 40.1049 23.0571 39.2052C22.8319 38.7187 22.0566 37.1724 21.7731 36.6443C21.671 36.4541 21.598 36.2907 21.6108 36.2812C21.6237 36.2717 21.9484 36.1597 22.3324 36.0323C23.2053 35.7428 23.9481 35.3882 24.6123 34.9441C26.0266 33.9984 27.2366 32.5194 27.942 30.8744C28.026 30.6784 28.0361 30.6532 28.1833 30.2725C28.2293 30.1533 28.285 30.0125 28.307 29.9595C28.329 29.9065 28.3785 29.7657 28.4171 29.6465C28.4556 29.5273 28.5136 29.3648 28.5459 29.2853C28.5782 29.2059 28.6223 29.0975 28.6439 29.0445C28.6655 28.9916 28.7617 28.7099 28.8577 28.4185C28.9536 28.1272 29.0821 27.748 29.1431 27.5758C29.2041 27.4037 29.3351 27.0028 29.4341 26.6849C29.5331 26.3671 29.631 26.0637 29.6515 26.0108C29.6934 25.9028 29.8943 25.2586 29.9895 24.9273C30.0237 24.8081 30.0997 24.5589 30.1584 24.3735C30.217 24.1881 30.2919 23.9389 30.3247 23.8197C30.3575 23.7005 30.4117 23.5163 30.4453 23.4104C30.4789 23.3045 30.5301 23.1311 30.5592 23.0252C30.5883 22.9192 30.6685 22.6375 30.7376 22.3992C30.8066 22.1608 30.8857 21.8791 30.9132 21.7731C30.9408 21.6672 30.9808 21.5263 31.0021 21.4601C31.0418 21.3367 31.1602 20.9117 31.2504 20.5693C31.2973 20.391 31.3302 20.2717 31.4757 19.7506C31.5053 19.6447 31.584 19.3521 31.6504 19.1005C31.8515 18.3395 31.872 18.2634 31.9163 18.1134C31.9397 18.0339 32.038 17.6655 32.1348 17.2947C32.2316 16.9239 32.3317 16.5447 32.3572 16.452C32.3827 16.3593 32.4158 16.2293 32.4307 16.1631C32.4456 16.0969 32.5222 15.7935 32.6008 15.4889C32.6794 15.1843 32.7622 14.8484 32.7849 14.7425C32.8075 14.6366 32.862 14.4199 32.906 14.261C32.9826 13.9841 33.0216 13.8273 33.1123 13.4303C33.1516 13.2579 33.2128 13.0152 33.3095 12.6478C33.3339 12.5551 33.376 12.3817 33.403 12.2625C33.4301 12.1433 33.5073 11.8129 33.5746 11.5282C33.642 11.2434 33.7516 10.7775 33.8184 10.4928C33.8851 10.2081 33.9609 9.9086 33.9869 9.82727C34.0129 9.74593 34.0341 9.63912 34.0341 9.58991C34.0341 9.5407 34.0545 9.43389 34.0795 9.35255C34.1269 9.19831 34.2332 8.75021 34.3202 8.33788C34.3714 8.09534 34.5798 7.15433 34.6614 6.79692C34.6856 6.69098 34.7602 6.33343 34.8271 6.00236C34.894 5.6713 34.9696 5.30291 34.9951 5.18373C35.0206 5.06454 35.0851 4.76117 35.1384 4.50956C35.2843 3.82179 35.398 3.50576 35.5287 3.42497C35.6175 3.37011 35.7937 3.52916 35.8842 3.74589C36.0811 4.21733 36.0771 4.20459 36.2766 4.99111C36.3674 5.34866 36.4619 5.71705 36.4868 5.80974C36.5117 5.90244 36.5542 6.0758 36.5813 6.19498C36.6083 6.31417 36.6867 6.65005 36.7554 6.94139C36.8242 7.23272 36.8996 7.55777 36.9231 7.66371C37.0312 8.15103 37.1253 8.54291 37.1669 8.67839C37.1919 8.75972 37.2124 8.86653 37.2124 8.91574C37.2124 8.96495 37.2328 9.07176 37.2578 9.1531C37.2827 9.23443 37.338 9.45267 37.3807 9.63806C37.4233 9.82346 37.4769 10.051 37.4998 10.1437C37.5351 10.2872 37.6392 10.7386 37.8386 11.6124C37.8627 11.7184 37.9387 12.0434 38.0075 12.3348C38.0762 12.6261 38.152 12.9511 38.176 13.0571C38.2 13.163 38.2758 13.4881 38.3446 13.7794C38.4133 14.0707 38.4887 14.3958 38.5122 14.5017C38.5557 14.6976 38.6794 15.2313 38.7522 15.5371C38.7743 15.6298 38.8493 15.9548 38.9189 16.2594C38.9885 16.564 39.0655 16.8998 39.0899 17.0058C39.1143 17.1117 39.1683 17.3501 39.2099 17.5355C39.3194 18.0239 39.3797 18.2835 39.4281 18.4745C39.4516 18.5672 39.5268 18.8923 39.5953 19.1968C39.7954 20.0873 39.8861 20.4826 40.0042 20.9786C40.0263 21.0713 40.1013 21.3963 40.1709 21.7009C40.2405 22.0055 40.3175 22.3414 40.3419 22.4473C40.3664 22.5532 40.4204 22.7916 40.4619 22.977C40.5035 23.1624 40.5586 23.4062 40.5844 23.5188C40.6102 23.6313 40.6517 23.8155 40.6766 23.9281C40.7293 24.166 40.8608 24.7319 40.92 24.9754C40.9649 25.1599 41.1235 25.8654 41.2393 26.396C41.2798 26.5814 41.3314 26.8089 41.3539 26.9016C41.4066 27.1181 41.5396 27.6887 41.5952 27.937C41.619 28.0429 41.6724 28.2813 41.714 28.4667C41.7555 28.6521 41.8096 28.8904 41.8341 28.9964C41.8586 29.1023 41.9041 29.3082 41.9352 29.4539C41.9663 29.5995 42.0104 29.7808 42.0333 29.8567C42.0561 29.9325 42.063 30.0138 42.0485 30.0373C42.0341 30.0607 41.8989 30.0804 41.7481 30.081C41.4998 30.0818 40.7715 30.192 40.1892 30.3165C39.7746 30.4051 38.889 30.7271 38.4644 30.9436C37.5383 31.4157 36.7213 31.9736 35.8159 32.7521C35.3678 33.1373 34.2292 34.276 33.5765 34.9917C33.3954 35.1903 33.1479 35.4615 33.0267 35.5943C32.9054 35.7271 32.6657 35.998 32.4941 36.1962C32.3224 36.3945 32.1706 36.5676 32.1567 36.5808C32.1428 36.594 32.0125 36.7457 31.8672 36.9179C31.7218 37.09 31.591 37.2417 31.5765 37.255C31.562 37.2682 31.3352 37.5283 31.0726 37.8328C30.81 38.1374 30.5832 38.3974 30.5687 38.4107C30.5542 38.4239 30.4234 38.5756 30.278 38.7478C30.1327 38.9199 30.0028 39.0716 29.9894 39.0849C29.9759 39.0981 29.7699 39.3256 29.5317 39.5905C28.8946 40.2986 27.6769 41.5022 27.0957 41.9982C26.5978 42.4232 26.4773 42.5203 26.0404 42.8487C25.7247 43.086 25.0431 43.5151 24.9819 43.5151C24.953 43.5151 24.8852 43.4122 24.8312 43.2864Z" fill="black"/>
<path d="M22.5724 23.0611C22.7975 22.6977 23.0049 22.3566 23.0332 22.3031C23.0615 22.2497 23.1428 22.1142 23.2138 22.0022C23.2848 21.8902 23.3428 21.7875 23.3428 21.774C23.3428 21.7604 23.4364 21.6029 23.5506 21.4239C23.6649 21.2448 23.8516 20.925 23.9655 20.7131C24.0794 20.5012 24.1894 20.3062 24.21 20.2797C24.2537 20.2237 24.3898 19.9821 24.6442 19.5092C24.744 19.3238 24.915 19.0096 25.0243 18.811C25.3665 18.1894 27.1953 14.4853 27.1953 14.414C27.1953 14.4016 27.3036 14.1613 27.436 13.8798C27.5685 13.5983 27.6768 13.3581 27.6768 13.3461C27.6768 13.334 27.7322 13.1989 27.7999 13.0458C27.8677 12.8928 27.9413 12.7242 27.9636 12.6712C27.9858 12.6182 28.0403 12.4927 28.0845 12.3922C28.3264 11.8425 28.7844 10.6967 28.7844 10.6411C28.7844 10.5167 28.7104 10.5813 28.5012 10.8882C28.3852 11.0585 28.2552 11.2367 28.2123 11.2844C28.1694 11.3321 28.0704 11.4578 27.9924 11.5637C27.9143 11.6696 27.8378 11.7671 27.8224 11.7803C27.807 11.7936 27.6289 11.9994 27.4267 12.2378C26.6847 13.1124 25.3051 14.3807 24.7791 14.6718C24.5254 14.8122 24.1704 14.9677 23.4632 15.2481C23.3501 15.293 22.8512 15.4851 22.3918 15.6607C21.4196 16.0323 20.5596 16.6026 19.6439 17.483C19.1636 17.9449 18.4335 18.7477 18.0202 19.2684C17.9151 19.4009 17.8183 19.5201 17.805 19.5333C17.6693 19.669 17.3265 20.1734 17.3472 20.207C17.3792 20.2586 18.0192 20.7533 18.5273 21.119C18.726 21.262 18.8993 21.3924 18.9126 21.4088C18.9258 21.4252 19.0559 21.5242 19.2015 21.6289C19.3472 21.7336 19.488 21.8364 19.5145 21.8574C19.5921 21.9189 20.088 22.2936 20.2306 22.3985C20.3026 22.4515 20.7235 22.7693 21.166 23.1048C21.6084 23.4403 22.0138 23.7164 22.0667 23.7183C22.1399 23.721 22.2614 23.563 22.5724 23.0611ZM12.7082 33.2699C12.8497 33.1973 12.9727 33.1215 12.9815 33.1014C12.9903 33.0813 13.017 33.0649 13.0408 33.0649C13.1168 33.0649 14.5144 32.1219 14.8451 31.8475C14.8972 31.8042 15.1115 31.6372 15.3214 31.4763C16.2969 30.7283 17.5568 29.5598 18.6449 28.3938C19.464 27.5161 21.0778 25.4723 21.0783 25.3119C21.0785 25.2722 20.5641 24.8559 19.9354 24.3868C19.3066 23.9178 18.738 23.4912 18.6718 23.4389C18.6056 23.3866 17.9849 22.9199 17.2924 22.4017C16.0388 21.4636 15.8625 21.3632 15.7079 21.4999C15.6827 21.5222 15.5863 21.5688 15.4936 21.6035C15.2676 21.6881 15.0817 21.765 14.8079 21.8873C14.6824 21.9433 14.5665 21.9892 14.5503 21.9892C14.5342 21.9892 14.4473 22.0217 14.3572 22.0614C14.2671 22.1012 14.1197 22.1662 14.0296 22.2059C13.9395 22.2456 13.8526 22.2781 13.8365 22.2781C13.8203 22.2781 13.7044 22.3236 13.5789 22.3792C13.3463 22.4823 13.3033 22.5006 12.9654 22.6401C12.8595 22.6838 12.7352 22.7395 12.6892 22.7637C12.6432 22.788 12.5842 22.8078 12.5581 22.8078C12.532 22.8078 12.3854 22.8643 12.2324 22.9332C12.0794 23.0022 11.9109 23.0762 11.8579 23.0978C9.52977 24.0458 7.17476 25.013 6.98086 25.1007C6.84109 25.1639 6.70536 25.2156 6.67924 25.2156C6.65312 25.2156 6.59412 25.2347 6.54813 25.2581C6.50214 25.2815 6.41034 25.3234 6.34413 25.3512C6.03672 25.4802 5.82959 25.566 5.73015 25.6057C5.51833 25.6903 5.10628 25.8633 4.86812 25.9677C4.78466 26.0043 4.70317 26.0342 4.68702 26.0342C4.67088 26.0342 4.55496 26.0801 4.42944 26.1361C3.98538 26.3344 3.89743 26.3713 3.86838 26.3713C3.85224 26.3713 3.73632 26.4164 3.61081 26.4715C3.48529 26.5267 3.31216 26.6021 3.22609 26.6393C3.14001 26.6764 3.0703 26.7234 3.07118 26.7437C3.07198 26.764 3.36748 26.9865 3.72768 27.2381C4.08787 27.4897 4.42635 27.7335 4.47985 27.7798C4.53335 27.8262 4.59139 27.8641 4.60883 27.8641C4.62625 27.8641 4.68255 27.9028 4.73389 27.95C4.78524 27.9972 5.16313 28.2753 5.57365 28.568C7.33829 29.8261 8.56033 30.7059 8.7278 30.8387C8.75428 30.8597 9.15272 31.1444 9.61321 31.4714C10.0737 31.7983 10.4854 32.0951 10.5282 32.1309C10.8142 32.3705 12.3063 33.3976 12.3711 33.3996C12.415 33.401 12.5667 33.3425 12.7082 33.2699ZM24.3884 45.7736C24.9396 45.5747 25.528 45.2929 26.0072 44.9983C26.2146 44.8708 26.3949 44.7665 26.4078 44.7665C26.44 44.7665 27.2051 44.2211 27.5054 43.9841C28.6734 43.0622 30.1855 41.5767 31.5614 39.9992C32.1895 39.2791 32.4779 38.9461 32.8541 38.5064C33.0921 38.2283 33.3085 37.9767 33.335 37.9473C33.3615 37.9179 33.4482 37.82 33.5276 37.7297C35.9583 34.9674 37.0107 33.9529 38.3431 33.0881C39.2175 32.5206 39.8574 32.2459 40.8901 31.9948C41.2675 31.903 41.46 31.8883 42.2678 31.8893C43.2098 31.8903 43.2627 31.897 44.0254 32.1077C44.2252 32.1629 44.2382 32.1676 44.6755 32.3418C45.2183 32.5581 46.3373 33.1875 46.6889 33.4742C46.7336 33.5107 46.9545 33.6848 47.1796 33.861C47.6583 34.2358 48.5079 35.0146 49.4971 35.9853C50.3342 36.8069 50.4329 36.8554 50.1948 36.3287C49.9766 35.846 49.8871 35.6395 49.709 35.2078C49.6106 34.9694 49.4909 34.6877 49.4429 34.5817C49.395 34.4758 49.2323 34.0858 49.0815 33.715C48.9307 33.3442 48.7553 32.9264 48.6917 32.7867C48.6281 32.6469 48.5761 32.5112 48.5761 32.485C48.5761 32.4589 48.557 32.3999 48.5336 32.3539C48.4764 32.2416 48.4257 32.1183 48.1921 31.5239C48.0828 31.2458 47.9749 30.9749 47.9523 30.922C47.9298 30.869 47.8627 30.6956 47.8032 30.5367C47.7438 30.3778 47.6678 30.1828 47.6342 30.1033C47.6007 30.0239 47.4395 29.6013 47.2759 29.1643C47.1124 28.7273 46.9605 28.3264 46.9385 28.2734C46.9164 28.2205 46.8407 28.0146 46.7703 27.816C46.6998 27.6173 46.624 27.4115 46.6017 27.3585C46.5795 27.3055 46.5033 27.0997 46.4324 26.901C46.193 26.2302 46.0608 25.8661 46.0216 25.7694C45.963 25.6248 45.8024 25.1631 45.5861 24.5173C45.4797 24.1995 45.3739 23.8961 45.3511 23.8432C45.3283 23.7902 45.2989 23.7035 45.2859 23.6506C45.2729 23.5976 45.1508 23.24 45.0146 22.856C44.8784 22.472 44.7017 21.9627 44.622 21.7244C44.5422 21.486 44.4585 21.2476 44.4358 21.1946C44.4132 21.1417 44.384 21.055 44.371 21.002C44.358 20.9491 44.2354 20.5915 44.0986 20.2075C43.9618 19.8234 43.8097 19.39 43.7606 19.2444C43.6719 18.9812 43.3126 17.9613 43.0653 17.27C42.9942 17.0714 42.9034 16.8113 42.8635 16.6922C42.7681 16.4071 42.5596 15.8266 42.5088 15.705C42.4867 15.652 42.4299 15.4895 42.3825 15.3438C42.3352 15.1981 42.2792 15.0584 42.2581 15.0332C42.2369 15.008 42.2196 14.9482 42.2196 14.9001C42.2196 14.8521 42.1993 14.7752 42.1745 14.7292C42.1496 14.6832 42.0738 14.4885 42.0059 14.2964C41.7348 13.5293 41.6322 13.2448 41.5936 13.1528C41.5384 13.0211 41.3268 12.4303 41.2402 12.1656C41.2012 12.0464 41.1429 11.8839 41.1106 11.8044C40.9929 11.5149 40.9915 11.5109 40.4547 10.0468C40.3078 9.646 40.1271 9.17242 40.0047 8.86696C39.9834 8.81399 39.9389 8.6948 39.9058 8.60211C39.8727 8.50941 39.8188 8.36855 39.786 8.2891C39.7533 8.20964 39.6775 8.01461 39.6177 7.8557C39.4771 7.48262 39.4177 7.33879 39.2639 6.99963C39.1945 6.84662 39.1377 6.70005 39.1377 6.67393C39.1377 6.64781 39.1178 6.58882 39.0936 6.54283C39.0693 6.49683 39.0173 6.38336 38.9779 6.29066C38.1578 4.36026 37.3475 2.89227 36.7701 2.29119C36.3012 1.80291 36.0167 1.6508 35.5803 1.65491C34.9022 1.6613 34.366 2.25831 33.5574 3.90699C33.4015 4.22481 33.2415 4.56069 33.2017 4.65339C33.162 4.74609 33.0863 4.91945 33.0334 5.03863C32.9806 5.15782 32.8464 5.48286 32.7352 5.76096C32.6241 6.03905 32.5152 6.30992 32.4933 6.36289C32.4714 6.41586 32.3947 6.6109 32.3228 6.79629C32.2509 6.98169 32.1751 7.17671 32.1543 7.22969C32.1335 7.28266 32.0573 7.47769 31.985 7.66308C31.9127 7.84848 31.8239 8.06845 31.7877 8.15191C31.7515 8.23537 31.7218 8.31687 31.7218 8.33302C31.7218 8.34915 31.6763 8.46507 31.6207 8.59059C31.5651 8.71611 31.5013 8.86214 31.4789 8.91511C31.3257 9.27745 31.1526 9.66821 30.9031 10.2153C30.8307 10.3742 30.604 10.916 30.3994 11.4192C30.1948 11.9224 29.9988 12.3991 29.9638 12.4786C29.9288 12.558 29.8199 12.8181 29.7217 13.0564C29.6236 13.2948 29.5001 13.5874 29.4472 13.7065C29.3943 13.8257 29.3229 13.9882 29.2886 14.0677C29.2543 14.1472 29.1622 14.353 29.0839 14.5252C29.0056 14.6973 28.8934 14.9465 28.8346 15.079C28.7758 15.2114 28.6623 15.4606 28.5824 15.6327C28.3364 16.1632 26.8239 19.199 26.6151 19.5815C26.5066 19.7801 26.3355 20.0943 26.2348 20.2797C25.9907 20.7293 25.8139 21.0443 25.6474 21.3267C25.5718 21.455 25.5098 21.571 25.5098 21.5843C25.5098 21.5977 25.434 21.7272 25.3413 21.8721C25.2486 22.017 25.1727 22.1462 25.1727 22.1592C25.1727 22.1722 25.0644 22.3558 24.932 22.5671C24.7995 22.7784 24.6912 22.9614 24.6912 22.9738C24.6912 22.9863 24.5395 23.2366 24.3541 23.5302C24.1687 23.8237 24.017 24.0743 24.017 24.087C24.017 24.1266 23.7541 24.5165 23.7161 24.5334C23.6962 24.5422 23.6799 24.5705 23.6799 24.5962C23.6799 24.696 22.5855 26.3221 21.902 27.2377C21.4446 27.8504 21.4483 27.8457 21.0476 28.3216C20.8915 28.507 20.718 28.7182 20.6621 28.7909C20.0399 29.6001 18.0434 31.5573 16.8672 32.5111C16.7366 32.617 16.5538 32.7716 16.4611 32.8545L16.2925 33.0053L16.5125 33.1055C17.0885 33.3679 17.9981 34.1948 18.6076 35.01C19.016 35.5562 19.6018 36.4329 19.8017 36.7969C19.8744 36.9293 19.951 37.0593 19.9718 37.0858C20.0728 37.214 21.1815 39.3813 21.4134 39.9038C21.4778 40.0489 21.6241 40.3671 21.7385 40.6108C21.8528 40.8546 21.9464 41.0646 21.9464 41.0775C21.9464 41.0905 22.029 41.2811 22.1301 41.5012C22.2311 41.7213 22.3429 41.9772 22.3786 42.0699C22.4142 42.1626 22.4615 42.259 22.4838 42.2841C22.506 42.3093 22.5242 42.3575 22.5242 42.3912C22.5242 42.4249 22.5784 42.5722 22.6446 42.7186C22.7108 42.865 22.8192 43.1046 22.8854 43.251C22.9516 43.3974 23.0058 43.5385 23.0058 43.5646C23.0058 43.5907 23.0249 43.6497 23.0483 43.6957C23.09 43.7776 23.1089 43.8214 23.2723 44.2127C23.3906 44.4962 23.4083 44.5397 23.6882 45.2358C23.8771 45.7053 23.9665 45.8736 24.0273 45.8738C24.0726 45.8738 24.2351 45.8289 24.3884 45.7736ZM23.1283 47.7719C22.8147 47.6571 22.7108 47.5266 22.4799 46.9576C22.4584 46.9046 22.4183 46.8071 22.3909 46.7409C22.3634 46.6747 22.2818 46.4688 22.2095 46.2834C22.1372 46.098 22.0484 45.878 22.0122 45.7946C21.976 45.7111 21.9464 45.6296 21.9464 45.6135C21.9464 45.5973 21.9009 45.4814 21.8452 45.3559C21.7896 45.2304 21.7261 45.0844 21.704 45.0314C21.682 44.9784 21.6278 44.8484 21.5835 44.7425C21.5393 44.6365 21.4859 44.5065 21.4648 44.4535C21.4223 44.3469 21.2937 44.0378 21.2143 43.8516C21.1861 43.7854 21.1413 43.677 21.1148 43.6108C21.01 43.3488 20.9843 43.2879 20.8656 43.0195C20.7979 42.8664 20.7425 42.7326 20.7425 42.722C20.7425 42.7115 20.6666 42.5387 20.5739 42.338C20.4812 42.1373 20.4054 41.9637 20.4054 41.9521C20.4054 41.9405 20.3164 41.7402 20.2076 41.5069C20.0988 41.2736 19.9456 40.9418 19.867 40.7697C19.5259 40.0219 18.5835 38.1908 18.4259 37.9694C18.3757 37.899 18.3347 37.8275 18.3347 37.8104C18.3347 37.7934 18.2589 37.6609 18.1662 37.516C18.0735 37.371 17.9976 37.2411 17.9976 37.2273C17.9976 37.2135 17.9742 37.176 17.9455 37.144C17.9169 37.112 17.8139 36.9636 17.7168 36.8142C16.9489 35.633 16.3012 34.9512 15.6567 34.6453C15.4587 34.5513 15.3487 34.5343 14.9639 34.5382C14.2621 34.5452 13.7998 34.7001 12.8451 35.2481C12.7222 35.3186 12.5851 35.3456 12.3394 35.3476C11.9488 35.3508 12.0509 35.4088 10.6063 34.365C10.1114 34.0075 9.64548 33.6716 9.57086 33.6186C9.49624 33.5657 9.02919 33.2298 8.53299 32.8722C8.03678 32.5147 7.22419 31.9296 6.72723 31.5721C6.23027 31.2145 5.4188 30.6294 4.92395 30.2719C4.42911 29.9143 3.96286 29.5784 3.88785 29.5255C3.81283 29.4725 3.26979 29.0824 2.68109 28.6587C2.09239 28.2349 1.37866 27.7219 1.09502 27.5186C0.470737 27.0712 0.357454 26.9118 0.359399 26.4836C0.361005 26.1599 0.452731 25.9759 0.699862 25.8015C0.771642 25.7508 1.4263 25.4662 2.15464 25.169C2.88299 24.8718 3.57192 24.5868 3.68561 24.5357C3.79929 24.4845 3.98349 24.4084 4.09493 24.3665C4.20636 24.3246 4.41189 24.2384 4.55166 24.1751C4.69144 24.1117 4.82717 24.0599 4.85329 24.0599C4.87941 24.0599 4.93841 24.04 4.9844 24.0158C5.03039 23.9915 5.1547 23.9359 5.26064 23.8921C5.36658 23.8484 5.50201 23.7924 5.56161 23.7677C5.6212 23.743 5.71871 23.7033 5.7783 23.6795C5.87775 23.6398 6.08487 23.554 6.39228 23.425C6.45849 23.3972 6.5503 23.3553 6.59629 23.3319C6.64228 23.3085 6.70128 23.2894 6.7274 23.2894C6.77168 23.2894 7.22679 23.0954 7.41492 22.9963C7.46091 22.9721 7.51991 22.9523 7.54603 22.9523C7.57215 22.9523 7.70789 22.9002 7.84766 22.8364C7.98743 22.7727 9.12026 22.3047 10.3651 21.7965C11.6099 21.2883 12.6934 20.8443 12.7728 20.8098C12.8523 20.7754 13.0365 20.699 13.1821 20.6402C13.3278 20.5814 13.5614 20.4816 13.7011 20.4185C13.8409 20.3554 13.9766 20.3038 14.0027 20.3038C14.0289 20.3038 14.0879 20.2846 14.1339 20.2612C14.1798 20.2378 14.2716 20.196 14.3379 20.1682C14.685 20.0225 14.8529 19.9533 14.9398 19.9199C15.2566 19.7981 15.5902 19.6083 15.6128 19.5369C15.6273 19.4913 15.6772 19.4122 15.7238 19.3612C15.7703 19.3102 15.9257 19.1059 16.069 18.9073C16.8506 17.8242 18.0807 16.463 18.9122 15.7612C19.1371 15.5714 19.3647 15.3766 19.4178 15.3285C19.471 15.2803 19.7529 15.0832 20.0442 14.8905C20.6315 14.502 21.2023 14.2121 21.8019 13.9978C21.8946 13.9647 22.0138 13.9207 22.0667 13.9001C22.1626 13.8627 22.509 13.7287 22.6928 13.6579C23.2771 13.4327 23.7386 13.2331 23.8966 13.1372C24.3854 12.8407 25.5194 11.7722 26.18 10.9858C27.4932 9.42241 30.2405 5.39527 31.5019 3.18466C31.6567 2.9133 32.2458 2.03856 32.4586 1.76409C32.962 1.11467 33.7341 0.424964 34.25 0.163947C34.5763 -0.0011645 35.1427 -0.162109 35.3975 -0.162109C35.6799 -0.162109 36.3229 -0.0532411 36.5614 0.0349587C37.1905 0.267602 37.8197 0.747744 38.3295 1.38426C38.5443 1.65247 39.0414 2.37157 39.0414 2.41418C39.0414 2.42638 39.1131 2.55058 39.2008 2.69014C39.3429 2.91626 39.9207 4.06601 40.1148 4.50893C40.1554 4.60163 40.2575 4.82916 40.3416 5.01455C40.5084 5.38231 40.6191 5.63533 40.6787 5.78504C40.6997 5.83801 40.7532 5.96803 40.7974 6.07397C40.8416 6.17991 40.8958 6.30992 40.9178 6.36289C40.9398 6.41586 40.9898 6.53505 41.0289 6.62775C41.068 6.72045 41.2241 7.12134 41.3758 7.51862C41.5274 7.9159 41.6785 8.30595 41.7116 8.38541C41.7447 8.46486 41.7989 8.60572 41.832 8.69842C41.8652 8.79111 41.9095 8.9103 41.9307 8.96327C41.9518 9.01624 41.9962 9.13542 42.0294 9.22812C42.0625 9.32082 42.1174 9.46167 42.1514 9.54113C42.1853 9.62059 42.245 9.78311 42.284 9.90229C42.323 10.0215 42.3814 10.184 42.4137 10.2635C42.5264 10.5408 42.5499 10.603 42.6771 10.9617C42.7476 11.1603 42.8234 11.3662 42.8456 11.4192C42.8829 11.508 43.0747 12.0405 43.1924 12.3823C43.2198 12.4617 43.2702 12.5917 43.3044 12.6712C43.3386 12.7507 43.422 12.9782 43.4897 13.1768C43.5574 13.3755 43.7015 13.7872 43.8099 14.0918C43.9183 14.3964 44.0394 14.7431 44.0789 14.8623C44.1184 14.9814 44.169 15.1223 44.1913 15.1753C44.2137 15.2282 44.2684 15.3799 44.313 15.5124C44.3576 15.6448 44.4123 15.7965 44.4346 15.8494C44.4849 15.9687 44.6923 16.5455 44.7897 16.8366C44.8296 16.9558 44.9204 17.2158 44.9915 17.4145C45.3066 18.295 45.6105 19.1677 45.7881 19.7018C45.8937 20.0197 45.999 20.323 46.0221 20.376C46.0451 20.429 46.0752 20.5157 46.0889 20.5686C46.1026 20.6216 46.2246 20.9792 46.3601 21.3632C46.4955 21.7472 46.7013 22.3431 46.8175 22.6875C46.9337 23.0318 47.1401 23.6277 47.2762 24.0117C47.4123 24.3958 47.5644 24.8291 47.6141 24.9748C47.7363 25.3329 48.0655 26.254 48.1562 26.4917C48.1967 26.5976 48.3092 26.901 48.4063 27.1659C48.5748 27.6255 48.6858 27.9186 48.7711 28.129C48.7926 28.1819 48.9329 28.5503 49.0829 28.9476C49.3149 29.5621 49.6328 30.3758 49.7789 30.7293C49.8008 30.7823 49.8779 30.9773 49.9503 31.1627C50.0226 31.3481 50.1222 31.5917 50.1717 31.704C50.2211 31.8162 50.2615 31.9213 50.2615 31.9375C50.2615 31.9536 50.294 32.0405 50.3337 32.1306C50.3735 32.2207 50.4385 32.3681 50.4782 32.4582C50.5179 32.5482 50.5504 32.6352 50.5504 32.6513C50.5504 32.6674 50.5963 32.7834 50.6524 32.9089C50.7084 33.0344 50.7857 33.2129 50.8242 33.3056C50.8626 33.3983 50.9171 33.5284 50.9454 33.5946C50.9736 33.6608 51.0133 33.7583 51.0335 33.8113C51.0538 33.8642 51.1065 33.9943 51.1507 34.1002C51.1949 34.2061 51.2492 34.3362 51.2712 34.3891C51.2933 34.4421 51.3589 34.5938 51.4171 34.7262C51.4753 34.8586 51.5507 35.032 51.5847 35.1114C51.6186 35.1909 51.7032 35.3811 51.7726 35.5341C51.842 35.6871 51.8988 35.8225 51.8988 35.8349C51.8988 35.8473 51.9746 36.0216 52.0673 36.2223C52.16 36.423 52.2359 36.5959 52.2359 36.6066C52.2359 36.6172 52.298 36.7619 52.374 36.9281C52.4499 37.0943 52.5611 37.3386 52.6211 37.471C52.8614 38.0015 53.2543 38.8476 53.5268 39.4213C53.6412 39.6623 53.6247 40.0746 53.4917 40.2972C53.3341 40.5609 53.0906 40.6881 52.7398 40.6899C52.4731 40.6913 52.4196 40.6723 52.0897 40.4591C51.0968 39.8176 49.7334 38.6699 48.1928 37.1786C47.2309 36.2475 46.6685 35.7244 46.3845 35.4967C46.2523 35.3908 46.1334 35.2908 46.1202 35.2745C45.9718 35.0925 44.3623 34.0761 44.2225 34.0761C44.1909 34.0761 44.1445 34.0564 44.1193 34.0324C44.0643 33.9797 43.4515 33.7763 43.0945 33.6923C42.7405 33.6089 41.7836 33.6195 41.3372 33.7117C39.7177 34.0462 38.3377 35.0404 36.1253 37.4665C35.8619 37.7553 35.6246 38.0153 35.5979 38.0443C35.5466 38.1001 34.5741 39.2163 34.3983 39.4213C33.4791 40.4927 32.9598 41.0913 32.5198 41.5865C31.8813 42.3053 30.1569 44.0544 29.7072 44.4394C29.5307 44.5905 29.3213 44.7705 29.2418 44.8393C29.0009 45.0479 28.0872 45.7592 27.9375 45.8547C27.8603 45.9039 27.7864 45.9563 27.7731 45.9711C27.6684 46.0887 26.7447 46.6306 26.0767 46.9664C25.3253 47.3439 24.8313 47.5251 24.0105 47.7242C23.4281 47.8655 23.3895 47.8676 23.1283 47.7719Z" fill="black"/>
</g>
<defs>
<clipPath id="clip0_58210_14240">
<rect width="54" height="48" fill="white"/>
</clipPath>
</defs>
</svg>
