<svg width="56" height="56" viewBox="0 0 56 56" fill="none" xmlns="http://www.w3.org/2000/svg">
<path d="M32.6667 7L14 9.33333L0 18.6667H2.33333V42H4.66667V18.6667H9.36068C9.35156 18.8216 9.33333 18.9583 9.33333 19.1224C9.33333 21.8841 10.0807 23.7982 10.0807 23.7982L20.4531 26.2773L28.0365 17.7005C28.0365 17.7005 27.3438 14.8385 25.776 12.7422L32.6667 7ZM43.1667 16.3333C39.5026 16.3333 36.1849 17.9102 33.8333 20.3984C33.2318 19.7604 32.5755 19.168 31.8555 18.6667L27.1432 23.9896C29.0299 24.9648 30.3333 26.9063 30.3333 29.1667V46.6667H37.3333V29.1667C37.3333 25.9036 39.9036 23.3333 43.1667 23.3333C46.4297 23.3333 49 25.9036 49 29.1667V46.6667H56V29.1667C56 22.1211 50.2122 16.3333 43.1667 16.3333ZM11.7396 27.7904C11.694 28.2461 11.6667 28.7018 11.6667 29.1667V46.6667H18.6667V29.4492L11.7396 27.7904Z" fill="black"/>
</svg>
