<svg width="75" height="75" viewBox="0 0 75 75" fill="none" xmlns="http://www.w3.org/2000/svg">
<g id="maven-svgrepo-com 1">
<g id="Group">
<g id="Group_2">
<path id="Vector" d="M36.906 31.3588C36.8787 31.4231 36.853 31.5062 36.829 31.6064L36.8114 31.6847C36.8056 31.7118 36.8 31.74 36.7945 31.7692L36.7783 31.8599L36.763 31.9564L36.7484 32.0587L36.7347 32.1666L36.7219 32.2799L36.71 32.3985C36.7081 32.4187 36.7062 32.4391 36.7044 32.4597L36.6939 32.5858L36.6845 32.7168L36.676 32.8525C36.6747 32.8754 36.6735 32.8986 36.6722 32.922L37.5125 33.3286C37.4998 32.8381 37.5156 32.3742 37.5597 31.9481L37.5684 31.8721L37.5624 31.9417L37.5549 32.0568L37.5522 32.1117L37.5476 32.2369L37.5459 32.3073L37.544 32.464L37.5443 32.5956L37.5462 32.7394L37.5487 32.8421L37.5541 33.0065L37.559 33.1231L37.5651 33.2454C37.5662 33.2662 37.5674 33.2873 37.5686 33.3087C37.7251 33.181 37.9126 33.0135 38.1075 32.8304L38.2383 32.7063C38.2602 32.6853 38.2821 32.6642 38.3041 32.643L38.4353 32.5149L38.5649 32.3862L38.6913 32.2585L38.8129 32.1334C38.6785 31.8587 38.5335 31.6569 38.3987 31.5095L38.3541 31.4624C38.3247 31.4323 38.2959 31.4047 38.2679 31.3796L38.2267 31.3436L38.1868 31.3111C38.1738 31.3008 38.161 31.291 38.1486 31.2818L38.1121 31.2556L38.0776 31.2325L38.0298 31.2029L37.9873 31.1792L37.9399 31.1557L37.9044 31.1404L37.8396 31.117L37.7924 31.1018L37.7463 31.0888L37.7113 31.08L37.6731 31.0714C37.6665 31.0701 37.6598 31.0687 37.653 31.0674L37.6111 31.0599L37.567 31.0536C37.3347 31.0245 37.0346 31.055 36.906 31.3588Z" fill="black"/>
<path id="Vector_2" d="M37.7325 35.8088C37.6937 35.5292 37.6583 35.2542 37.6263 34.9838C37.6003 34.7593 37.579 34.5381 37.5616 34.3191L37.5466 34.1227C37.5463 34.1175 37.5462 34.1125 37.5463 34.1077C37.5279 33.8415 37.5146 33.5821 37.5087 33.328L36.6701 32.9236L36.6678 32.975L36.6622 33.0817C36.6538 33.2826 36.6476 33.4961 36.6459 33.7204C36.6438 33.9734 36.6462 34.2372 36.6508 34.5136C36.6567 34.7677 36.6671 35.0327 36.6809 35.3024C36.6911 35.4755 36.7022 35.6499 36.715 35.8265L36.7304 36.0308L37.8522 36.5991L37.8126 36.3344L37.7325 35.8088Z" fill="black"/>
<path id="Vector_3" d="M39.3551 42.3231L39.3725 42.3829L39.4839 42.7615C39.4999 42.8153 39.5161 42.8693 39.5326 42.9236L39.5858 43.0957L39.6039 43.1576C39.6072 43.1677 39.6106 43.1778 39.6145 43.1879L39.7952 43.767C39.9552 43.7339 40.1503 43.7936 40.3564 43.8836L40.4394 43.921C40.2877 43.7384 40.0777 43.6164 39.8267 43.5881C40.5138 43.1299 40.9658 42.5396 40.9023 41.8355C40.8955 41.7732 40.8871 41.7086 40.8746 41.6434C40.8642 41.903 40.7606 42.0935 40.4604 42.2971L40.4234 42.3216C40.7339 41.775 40.8194 41.4042 40.7827 40.9248C40.7736 40.811 40.7594 40.6904 40.7385 40.5606C40.6392 41.2744 40.2559 41.7363 39.6952 42.0097L39.3551 42.3231Z" fill="black"/>
<path id="Vector_4" d="M38.9525 41.4854L38.8811 41.2179L38.7376 40.6764C38.6695 40.4148 38.6037 40.1514 38.5385 39.8841C38.4734 39.6168 38.4105 39.3478 38.3476 39.0788C38.2837 38.8035 38.2237 38.5289 38.166 38.2525L38.1091 37.9793L37.9998 37.4326C37.9803 37.3336 37.9625 37.2369 37.9452 37.1363C37.9139 36.9681 37.8848 36.7982 37.8557 36.6283L37.8497 36.6009L36.7343 36.0315L36.7379 36.0668C36.7383 36.073 36.7385 36.0791 36.7383 36.0852C36.7608 36.3378 36.7827 36.5944 36.8125 36.8522C36.8418 37.114 36.8751 37.3764 36.914 37.6417C36.9471 37.8653 36.9825 38.0872 37.0195 38.3114L37.0438 38.4458C37.0952 38.7233 37.1501 38.9911 37.2097 39.2412C37.2765 39.5251 37.3479 39.7913 37.4202 40.0393C37.4687 40.2019 37.5162 40.3583 37.5649 40.5067L37.6081 40.6317L37.6975 40.8803C37.8041 41.1703 37.9222 41.4519 38.0496 41.7267L39.177 42.2979C39.1169 42.0906 39.0614 41.8799 39.0003 41.6663L38.969 41.5465L38.9525 41.4854Z" fill="black"/>
<path id="Vector_5" d="M38.0664 41.7639C38.2023 42.0546 38.3505 42.3362 38.5142 42.6065L38.6049 42.7532C38.4981 42.7102 38.363 42.6888 38.2317 42.6793L38.1665 42.6754C38.1558 42.6749 38.1451 42.6745 38.1344 42.6742L38.0719 42.6728L37.9838 42.6731L37.9051 42.6754L37.8388 42.6789L37.7462 42.6865C37.7454 42.6866 37.7451 42.6867 37.7451 42.6867C38.3152 42.8844 38.8151 43.1265 39.1305 43.4935C39.0052 43.6315 38.7706 43.7364 38.4756 43.8218C38.6952 43.8456 38.8625 43.836 38.9831 43.8163L39.032 43.8073C39.0396 43.8057 39.0471 43.8041 39.0543 43.8025L39.0947 43.7925L39.1297 43.7822L39.1722 43.7674L39.194 43.7585C39.0129 43.9095 38.8995 44.1668 38.8053 44.4552L38.7728 44.5582C38.7675 44.5755 38.7622 44.5929 38.757 44.6104C38.9968 44.2184 39.2347 43.9587 39.4664 43.8595C39.7252 44.7175 40.0244 45.6307 40.3529 46.5836L40.5065 47.0262C40.5583 47.1746 40.6109 47.3239 40.664 47.4741C40.7404 47.3755 40.7489 47.2665 40.717 47.1555L40.6119 46.8588L40.4923 46.5121L40.307 45.9622L40.1551 45.5012L39.9873 44.9809L39.827 44.4734L39.68 43.9978L39.5718 43.6416L39.4837 43.3475C39.4719 43.309 39.4612 43.2697 39.4496 43.2299L39.4164 43.1208L39.3213 42.7922L39.2246 42.4542L39.1811 42.2984L39.1794 42.2961L38.052 41.7249C38.0546 41.7348 38.0574 41.743 38.0608 41.7512L38.0664 41.7639Z" fill="black"/>
<path id="Vector_6" d="M37.9835 36.6233L38.0035 36.7326C38.018 36.807 38.0314 36.8821 38.0457 36.9577L38.1676 37.5834L38.2124 37.8013L38.2777 38.1093C38.2888 38.1613 38.3001 38.2137 38.3114 38.2665C38.345 38.4224 38.3805 38.5808 38.4177 38.7425L38.4943 39.0706L38.5705 39.3907C38.5836 39.4448 38.5968 39.4992 38.6101 39.5539L38.692 39.8851L38.7738 40.2071C38.8154 40.3697 38.8581 40.5351 38.9033 40.7038C38.9363 40.8283 38.9705 40.9546 39.0055 41.0825L39.1228 41.5094L39.2114 41.8232L39.3029 42.1436C39.3184 42.1975 39.334 42.2516 39.3498 42.3059C39.3509 42.3122 39.3519 42.3185 39.3553 42.3231L39.6954 42.0098L39.6872 42.0132L39.669 42.022C40.0726 41.6408 40.4186 40.8771 40.4976 40.1887C40.534 39.8717 40.5307 39.5342 40.4871 39.166C40.4557 38.8917 40.3999 38.6033 40.3232 38.2913C40.2563 38.0217 40.1736 37.7354 40.0728 37.434C40.0104 37.5613 39.9218 37.6865 39.8131 37.8088L39.7542 37.8732L39.7341 37.8942L39.6913 37.9371C39.989 37.4743 40.0244 36.9773 39.9361 36.4614C39.882 36.6145 39.7758 36.8412 39.5995 37.0449C39.577 37.0721 39.5504 37.0986 39.5239 37.1252C39.5193 37.1286 39.5154 37.133 39.5107 37.1375L39.5026 37.1444C39.6013 36.9798 39.6743 36.8236 39.7211 36.6653C39.7285 36.6433 39.7342 36.621 39.7393 36.5987L39.7467 36.5651C39.7586 36.5138 39.7666 36.462 39.7745 36.4101L39.7858 36.3097C39.7903 36.2507 39.7916 36.19 39.7887 36.1284L39.7809 36.015C39.7802 36.0066 39.7792 35.9983 39.7777 35.9899L39.7659 35.9173C39.7639 35.9056 39.7618 35.8942 39.7594 35.8829C39.7364 35.7481 39.711 35.628 39.6849 35.5214L39.6604 35.4257L39.6383 35.3449L39.6096 35.2493L39.5722 35.1373C39.5682 35.1261 39.5643 35.1153 39.5602 35.1049L39.5377 35.0485C39.5304 35.0311 39.5235 35.0152 39.5169 35.0009L39.4983 34.9627C39.4948 34.9771 39.4902 34.9923 39.484 35.0076L39.4736 35.0304C39.4034 35.1952 39.2401 35.4214 39.0911 35.5803C39.0888 35.582 39.0865 35.5836 39.0859 35.5876L39.0552 35.6183C39.0499 35.6239 39.0447 35.6296 39.0397 35.6357L39.0456 35.6243L37.974 36.6055C37.9831 36.6131 37.9841 36.6194 37.9835 36.6233Z" fill="black"/>
<path id="Vector_7" d="M37.569 33.3087C37.5733 33.387 37.5785 33.4686 37.5845 33.5534L37.5974 33.7272C37.5998 33.7569 37.6022 33.787 37.6047 33.8173L37.6206 34.0038C37.6234 34.0356 37.6263 34.0677 37.6293 34.1001L37.6318 34.1311C37.6324 34.136 37.6332 34.1409 37.6345 34.1459C37.6436 34.2414 37.6537 34.3398 37.6648 34.4412L37.6886 34.6482C37.697 34.7186 37.7059 34.7905 37.7153 34.8639L37.7599 35.2006C37.7808 35.3535 37.8034 35.5118 37.8286 35.677L37.848 35.8021C37.8673 35.9297 37.8886 36.06 37.9112 36.194L37.9819 36.6068L39.0534 35.6256C39.2769 35.2208 39.3257 34.969 39.3227 34.6561C39.3216 34.5931 39.3187 34.5276 39.3145 34.4604L39.31 34.3927C39.2929 34.1185 39.2599 33.8275 39.2131 33.5467C39.1691 33.2745 39.1153 33.013 39.0537 32.7891C39.0147 32.6443 38.9732 32.5154 38.9309 32.4047C38.8925 32.309 38.8529 32.2212 38.8126 32.1375L38.6912 32.2615C38.6705 32.2824 38.6496 32.3035 38.6285 32.3247L38.5005 32.4523L38.3699 32.5803L38.2385 32.707C38.2167 32.7279 38.1948 32.7487 38.173 32.7694L38.0431 32.8911C37.8716 33.0503 37.7081 33.1953 37.569 33.3087Z" fill="black"/>
</g>
<path id="Vector_8" d="M31.0723 31.8291C31.6672 31.8935 32.1897 32.014 32.6399 32.1909C33.1061 32.3678 33.484 32.6089 33.7734 32.9144C34.0788 33.2038 34.2798 33.5816 34.3763 34.0479C34.4245 34.3212 34.4245 34.6347 34.3763 34.9884C34.328 35.3421 34.2637 35.7039 34.1833 36.0737L33.0981 41.4517C33.0499 41.7572 32.9936 42.0707 32.9293 42.3922C32.865 42.6977 32.8408 42.9791 32.8569 43.2363C32.8569 43.2846 32.8489 43.3408 32.8328 43.4051V43.5498C32.8328 43.7267 32.8167 43.9035 32.7846 44.0804C32.7524 44.2573 32.6479 44.3778 32.4711 44.4422C32.3585 44.4904 32.2379 44.5145 32.1093 44.5145H29.987C29.8584 44.4984 29.762 44.4582 29.6976 44.3939C29.6012 44.3296 29.5369 44.2412 29.5047 44.1286C29.4726 44 29.4163 43.8955 29.3359 43.8151C29.3037 43.783 29.2635 43.7588 29.2153 43.7428C29.1832 43.7106 29.1269 43.7026 29.0465 43.7187C28.95 43.7508 28.8616 43.791 28.7812 43.8392C28.7008 43.8875 28.6204 43.9277 28.54 43.9598C28.4436 44.0241 28.3391 44.0804 28.2265 44.1286C28.1301 44.1769 28.0256 44.2251 27.913 44.2733C27.6879 44.3698 27.4548 44.4502 27.2136 44.5145C26.9725 44.5627 26.7313 44.619 26.4901 44.6833C26.3615 44.7155 26.2409 44.7316 26.1284 44.7316C26.0319 44.7476 25.9274 44.7637 25.8149 44.7798H25.6702C25.6219 44.7959 25.5737 44.8039 25.5255 44.8039H25.2602C25.0833 44.8361 24.9225 44.8361 24.7778 44.8039H24.5608C24.4482 44.7717 24.3357 44.7557 24.2232 44.7557C24.1267 44.7717 24.0302 44.7637 23.9338 44.7316C23.7891 44.6994 23.6444 44.6672 23.4997 44.6351C23.355 44.619 23.2263 44.5788 23.1138 44.5145C22.6797 44.3376 22.326 44.1126 22.0527 43.8392C21.7793 43.5498 21.5944 43.172 21.498 42.7058C21.4658 42.5932 21.4417 42.4726 21.4256 42.344C21.4256 42.2154 21.4176 42.0787 21.4015 41.934C21.3854 41.8536 21.3854 41.7732 21.4015 41.6929C21.4337 41.6125 21.4497 41.5321 21.4497 41.4517C21.4497 41.4035 21.4578 41.307 21.4739 41.1623C21.506 41.0015 21.5382 40.889 21.5703 40.8247C21.6346 40.6639 21.6748 40.5272 21.6909 40.4147L21.9321 39.8841C22.0285 39.6912 22.1331 39.5224 22.2456 39.3777C22.5993 38.9114 22.9771 38.5577 23.3791 38.3165C23.781 38.0754 24.2794 37.8663 24.8743 37.6895C25.0994 37.6091 25.3245 37.5528 25.5496 37.5207C25.7747 37.4885 26.0078 37.4483 26.249 37.4001C26.3776 37.3679 26.5142 37.3519 26.6589 37.3519C26.8197 37.3358 26.9725 37.3117 27.1172 37.2795C27.2297 37.2474 27.3422 37.2393 27.4548 37.2554C27.5673 37.2554 27.696 37.2393 27.8407 37.2072C27.9532 37.175 28.0657 37.1589 28.1783 37.1589C28.2908 37.1589 28.4114 37.1428 28.54 37.1107C28.8938 37.0303 29.2153 36.966 29.5047 36.9178C29.8102 36.8534 30.0996 36.7087 30.3729 36.4837C30.5337 36.339 30.6623 36.1782 30.7588 36.0013C30.7748 35.9531 30.7829 35.9129 30.7829 35.8807C30.7829 35.8486 30.7909 35.8164 30.807 35.7843C30.8392 35.7521 30.8552 35.7039 30.8552 35.6396C30.8713 35.5753 30.8874 35.527 30.9035 35.4949V35.1331C30.8392 34.6508 30.5658 34.3212 30.0835 34.1443C29.9549 34.0961 29.7861 34.064 29.5771 34.0479C29.3841 34.0157 29.1831 34.0077 28.9741 34.0238C28.7651 34.0238 28.5561 34.0398 28.3471 34.072C28.1542 34.1042 27.9854 34.1443 27.8407 34.1926C27.7281 34.2247 27.6236 34.273 27.5271 34.3373C27.4307 34.3855 27.3342 34.4418 27.2377 34.5061C27.1413 34.5704 27.0368 34.6588 26.9242 34.7714C26.8117 34.8839 26.7313 34.9884 26.6831 35.0849C26.5705 35.2457 26.474 35.3984 26.3937 35.5431C26.3133 35.6878 26.1766 35.7843 25.9837 35.8325C25.8551 35.8647 25.7184 35.8807 25.5737 35.8807H24.2232C24.1428 35.8807 24.0543 35.8888 23.9579 35.9049C23.8775 35.9049 23.8132 35.8968 23.7649 35.8807H23.5479C23.5157 35.8647 23.4755 35.8566 23.4273 35.8566C23.3791 35.8566 23.3389 35.8406 23.3067 35.8084C23.1942 35.7762 23.1299 35.6717 23.1138 35.4949C23.1138 35.4145 23.1299 35.3341 23.162 35.2537C23.1942 35.1733 23.2263 35.101 23.2585 35.0367C23.3389 34.8598 23.4193 34.699 23.4997 34.5543C23.5961 34.3936 23.6926 34.2489 23.7891 34.1202L23.982 33.8791C24.0463 33.7987 24.1106 33.7183 24.1749 33.6379C24.3357 33.461 24.5286 33.2922 24.7537 33.1314C24.802 33.1154 24.8582 33.0752 24.9225 33.0109C25.019 32.9466 25.0994 32.8903 25.1637 32.842C25.2441 32.7938 25.3325 32.7456 25.429 32.6973C25.7345 32.5205 26.048 32.3838 26.3695 32.2874C26.7072 32.1748 27.0448 32.0703 27.3824 31.9738C27.5915 31.9256 27.8005 31.8935 28.0095 31.8774C28.2185 31.8613 28.4355 31.8291 28.6606 31.7809C28.7249 31.7648 28.8214 31.7648 28.95 31.7809C29.0786 31.797 29.1671 31.789 29.2153 31.7568C29.8745 31.7407 30.4935 31.7648 31.0723 31.8291ZM57.884 32.0221C58.4306 32.215 58.9049 32.4723 59.3068 32.7938C59.4355 32.8903 59.5561 33.0028 59.6686 33.1314C59.7972 33.244 59.9017 33.3646 59.9821 33.4932C60.0143 33.5736 60.0705 33.6379 60.1509 33.6861C60.2474 33.863 60.3278 34.0479 60.3921 34.2408C60.4725 34.4177 60.5609 34.6026 60.6574 34.7955C60.7056 34.9402 60.7378 35.0929 60.7538 35.2537C60.786 35.3984 60.8182 35.5592 60.8503 35.736C60.8825 35.9451 60.8985 36.1621 60.8985 36.3872C60.9146 36.6123 60.9307 36.8374 60.9468 37.0625C60.9468 37.1911 60.9227 37.3358 60.8744 37.4966C60.8423 37.6413 60.8342 37.7779 60.8503 37.9065L60.8021 38.1718C60.8021 38.3004 60.7699 38.4451 60.7056 38.6059C60.6413 38.7667 60.5609 38.8712 60.4644 38.9194C60.3841 38.9838 60.2635 39.032 60.1027 39.0641C59.9419 39.0802 59.7651 39.0963 59.5721 39.1124H59.0174C58.8406 39.0963 58.6798 39.0883 58.5351 39.0883H52.313C52.2166 39.0883 52.1281 39.1043 52.0477 39.1365C51.903 39.2008 51.8066 39.2651 51.7583 39.3294C51.7262 39.3616 51.678 39.4259 51.6136 39.5224C51.5654 39.6027 51.5413 39.6831 51.5413 39.7635C51.5574 39.86 51.5574 39.9565 51.5413 40.0529C51.5413 40.1333 51.5493 40.2217 51.5654 40.3182C51.6136 40.7041 51.7021 41.0256 51.8307 41.2829C51.9754 41.524 52.1844 41.7411 52.4577 41.934C52.5703 42.0144 52.6908 42.0707 52.8195 42.1028C52.9642 42.1189 53.1008 42.1511 53.2295 42.1993C53.3581 42.2315 53.5269 42.2556 53.7359 42.2717C53.961 42.2877 54.162 42.2797 54.3388 42.2475H54.5559C54.7166 42.2154 54.8694 42.1832 55.0141 42.1511L55.4482 42.0064C55.625 41.926 55.826 41.8215 56.0511 41.6929C56.2762 41.5642 56.453 41.4356 56.5817 41.307C56.6781 41.1944 56.7826 41.0899 56.8952 40.9935C57.0077 40.8809 57.1283 40.8005 57.2569 40.7523C57.4338 40.6719 57.6428 40.6398 57.884 40.6558H58.8727C58.9853 40.6398 59.0818 40.6478 59.1622 40.68H59.4033C59.548 40.7121 59.6525 40.7523 59.7168 40.8005C59.7651 40.8327 59.7811 40.905 59.7651 41.0176C59.7651 41.1301 59.7409 41.2266 59.6927 41.307C59.5641 41.5321 59.4274 41.7331 59.2827 41.9099C59.1541 42.0868 59.0094 42.2636 58.8486 42.4405C58.3985 42.971 57.9161 43.3971 57.4016 43.7187C56.8871 44.0402 56.2682 44.3135 55.5447 44.5386C55.3517 44.6029 55.1668 44.6431 54.99 44.6592C54.8131 44.6753 54.6202 44.7074 54.4112 44.7557C54.3469 44.7717 54.2745 44.7717 54.1941 44.7557C54.1298 44.7557 54.0655 44.7637 54.0012 44.7798H53.7359C53.6394 44.8119 53.543 44.82 53.4465 44.8039C53.35 44.8039 53.2616 44.7959 53.1812 44.7798C53.0526 44.7637 52.9401 44.7637 52.8436 44.7798C52.7471 44.7959 52.6426 44.7878 52.5301 44.7557C52.4497 44.7235 52.3613 44.7074 52.2648 44.7074C52.1683 44.7074 52.0879 44.6914 52.0236 44.6592C51.8468 44.627 51.6699 44.5869 51.4931 44.5386C51.3323 44.5065 51.1876 44.4502 51.059 44.3698C50.8982 44.3055 50.7454 44.2492 50.6007 44.201C50.456 44.1367 50.3274 44.0643 50.2149 43.9839C49.7647 43.6624 49.3788 43.2926 49.0573 42.8746C48.7518 42.4405 48.5267 41.9421 48.382 41.3793C48.3338 41.2025 48.3016 41.0256 48.2855 40.8488C48.2855 40.6558 48.2614 40.4629 48.2132 40.27V40.1012C48.2293 40.0368 48.2373 39.9725 48.2373 39.9082C48.2212 39.7153 48.2212 39.5063 48.2373 39.2812L48.3338 38.6059C48.3499 38.5255 48.3579 38.4371 48.3579 38.3406C48.374 38.2442 48.3981 38.1557 48.4302 38.0754L48.5026 37.786L48.6955 37.2072C48.8081 36.9338 48.9126 36.6686 49.009 36.4113C49.1055 36.1541 49.2261 35.9129 49.3708 35.6878C50.3998 34.0157 51.8146 32.834 53.6153 32.1427C53.8565 32.0462 54.0977 31.9819 54.3388 31.9497C54.58 31.9015 54.8372 31.8452 55.1106 31.7809C55.2392 31.7648 55.3598 31.7568 55.4723 31.7568C55.5848 31.7568 55.7054 31.7488 55.8341 31.7327C56.654 31.7166 57.3373 31.8131 57.884 32.0221ZM7.9384 27.3193C8.21172 27.3193 8.40465 27.3756 8.51719 27.4882C8.61366 27.5685 8.66993 27.6891 8.68601 27.8499C8.70209 27.9946 8.72621 28.1393 8.75836 28.284C8.79052 28.5412 8.82267 28.8065 8.85483 29.0799C8.90306 29.3371 8.94326 29.6024 8.97541 29.8757C9.15227 30.8886 9.29697 31.9176 9.40951 32.9626C9.53813 34.0077 9.69087 35.0447 9.86773 36.0737C9.93204 36.3952 9.98027 36.7248 10.0124 37.0625C10.0446 37.4001 10.0928 37.7297 10.1571 38.0512C10.1732 38.1316 10.1893 38.212 10.2054 38.2924C10.2214 38.3728 10.2616 38.4371 10.3259 38.4853C10.3581 38.5014 10.3822 38.5175 10.3983 38.5336C10.4304 38.5497 10.4706 38.5416 10.5189 38.5095C10.6475 38.4773 10.752 38.3808 10.8324 38.2201C10.9128 38.0593 10.9932 37.9146 11.0736 37.786C11.2665 37.4162 11.4514 37.0544 11.6282 36.7007C11.8051 36.3309 11.998 35.9611 12.207 35.5913C12.7215 34.6106 13.236 33.6299 13.7505 32.6491C14.2811 31.6523 14.8036 30.6555 15.3181 29.6587C15.4467 29.4014 15.5753 29.1522 15.704 28.911C15.8487 28.6538 15.9853 28.3965 16.1139 28.1393C16.1782 28.0107 16.2506 27.8821 16.331 27.7534C16.4114 27.6248 16.5239 27.5203 16.6686 27.4399C16.7812 27.3595 16.9098 27.3193 17.0545 27.3193H21.2025C21.3633 27.3193 21.4759 27.3515 21.5402 27.4158C21.701 27.5123 21.7492 27.6972 21.6849 27.9705C21.6366 28.2277 21.5884 28.493 21.5402 28.7663L20.8167 32.3838L19.0079 41.3552L18.598 43.4534C18.5658 43.6302 18.5256 43.8071 18.4774 43.9839C18.4291 44.1447 18.3487 44.2653 18.2362 44.3457C18.1237 44.4261 17.995 44.4743 17.8503 44.4904H15.5593C15.4467 44.4582 15.3422 44.4341 15.2457 44.418C15.1653 44.402 15.101 44.3457 15.0528 44.2492C15.0046 44.1688 14.9885 44.0643 15.0046 43.9357C15.0367 43.8071 15.0689 43.6704 15.101 43.5257L15.3422 42.2958L16.5963 36.0978C16.6284 35.8727 16.6606 35.6637 16.6927 35.4708C16.741 35.2618 16.7812 35.0527 16.8133 34.8437C16.8455 34.7151 16.8776 34.5865 16.9098 34.4579C16.9419 34.3132 16.958 34.1765 16.958 34.0479C16.9419 33.9353 16.9419 33.8148 16.958 33.6861C16.9902 33.5575 16.9661 33.4771 16.8857 33.445C16.8374 33.4289 16.7972 33.4369 16.7651 33.4691L16.6927 33.5414C16.6123 33.6057 16.54 33.6861 16.4757 33.7826L16.331 34.0238C16.1863 34.2649 16.0416 34.5141 15.8969 34.7714C15.7683 35.0286 15.6236 35.2859 15.4628 35.5431L15.3181 35.8325C15.2859 35.929 15.2377 36.0254 15.1734 36.1219C15.0448 36.3309 14.9242 36.5399 14.8116 36.7489C14.7152 36.958 14.6026 37.167 14.474 37.376C14.4418 37.4242 14.4177 37.4805 14.4017 37.5448C14.3856 37.593 14.3615 37.6413 14.3293 37.6895C14.2328 37.8342 14.1444 37.9869 14.064 38.1477C13.9997 38.3085 13.9113 38.4693 13.7987 38.63C13.7023 38.7747 13.6138 38.9275 13.5335 39.0883C13.4691 39.249 13.3888 39.4098 13.2923 39.5706C13.0029 40.0368 12.7376 40.5111 12.4964 40.9935C12.2553 41.4597 12.0061 41.926 11.7488 42.3922C11.7006 42.4405 11.6684 42.4887 11.6524 42.5369C11.6524 42.5852 11.6282 42.6334 11.58 42.6816C11.4675 42.8585 11.363 43.0434 11.2665 43.2363C11.1861 43.4132 11.0896 43.59 10.9771 43.7669C10.9128 43.8794 10.8485 43.9839 10.7842 44.0804C10.7198 44.1769 10.6475 44.2573 10.5671 44.3216C10.4706 44.3859 10.3822 44.4261 10.3018 44.4422C10.2214 44.4422 10.1169 44.4582 9.98831 44.4904H9.43363C9.32108 44.4904 9.18442 44.4984 9.02364 44.5145H8.56543C8.42073 44.5145 8.28407 44.5065 8.15545 44.4904C8.02682 44.4743 7.9384 44.4422 7.89016 44.3939C7.77762 44.3135 7.70527 44.2251 7.67311 44.1286C7.65703 44.0161 7.62488 43.8875 7.57665 43.7428C7.54449 43.5498 7.52037 43.3569 7.5043 43.164C7.48822 42.955 7.45606 42.754 7.40783 42.5611L7.38371 42.344C7.33548 42.1511 7.30332 41.9501 7.28725 41.7411C7.27117 41.516 7.23901 41.307 7.19078 41.1141V40.9935C7.19078 40.9452 7.18274 40.897 7.16666 40.8488C7.11843 40.7041 7.08627 40.5513 7.0702 40.3906C7.05412 40.2298 7.03 40.069 6.99785 39.9082V39.7876C6.99785 39.7394 6.98981 39.6992 6.97373 39.6671C6.94157 39.5063 6.91746 39.3455 6.90138 39.1847C6.90138 39.0239 6.87726 38.8632 6.82903 38.7024C6.76472 38.3808 6.70845 38.0432 6.66021 37.6895C6.62806 37.3358 6.57982 36.9901 6.51551 36.6525C6.4512 36.2505 6.39493 35.8406 6.3467 35.4225C6.31454 35.0045 6.24219 34.6026 6.12965 34.2167C6.09749 33.9916 6.04926 33.8067 5.98495 33.662C5.95279 33.6299 5.92064 33.6057 5.88848 33.5897C5.8724 33.5575 5.84025 33.5575 5.79201 33.5897C5.69555 33.6379 5.63124 33.7183 5.59908 33.8308C5.583 33.9434 5.55085 34.0559 5.50261 34.1685C5.4383 34.281 5.39811 34.4016 5.38203 34.5302C5.36595 34.6428 5.34988 34.7633 5.3338 34.892C5.30164 35.0688 5.26145 35.2457 5.21321 35.4225C5.18106 35.5994 5.14086 35.7762 5.09263 35.9531L3.81445 42.3681L3.57328 43.5498L3.47682 43.9357C3.46074 44.0643 3.41251 44.1688 3.33212 44.2492C3.25173 44.3618 3.11507 44.4341 2.92213 44.4663C2.80959 44.4984 2.68901 44.5145 2.56038 44.5145C2.43176 44.4984 2.30314 44.4904 2.17452 44.4904H0.438119C0.293419 44.4743 0.180875 44.4261 0.100486 44.3457C0.0200972 44.2653 -0.0120583 44.1447 0.00401944 43.9839L0.100486 43.4534L0.510469 41.3311L2.31922 32.3597L2.99448 28.9834C3.01056 28.8869 3.02664 28.7744 3.04272 28.6458C3.07487 28.5011 3.10703 28.3644 3.13918 28.2358C3.17134 28.1071 3.20349 27.9866 3.23565 27.874C3.28388 27.7454 3.32408 27.6489 3.35623 27.5846C3.4527 27.4721 3.5974 27.3917 3.79033 27.3435C3.83857 27.3274 3.87072 27.3274 3.8868 27.3435C3.91895 27.3435 3.95915 27.3354 4.00738 27.3193H7.9384ZM73.5168 32.1668C74.1117 32.4723 74.5297 32.9224 74.7709 33.5173C74.8513 33.6942 74.8995 33.8871 74.9156 34.0961C74.9477 34.289 74.9719 34.49 74.9879 34.699C75.004 34.8277 75.004 34.9482 74.9879 35.0608C74.9719 35.1733 74.9719 35.2859 74.9879 35.3984C74.9558 35.4949 74.9477 35.5592 74.9638 35.5913C74.9477 35.8164 74.9156 36.0496 74.8674 36.2907C74.8191 36.5319 74.7709 36.765 74.7227 36.9901L74.3127 39.1365L73.5168 43.0434C73.4525 43.3489 73.3882 43.6463 73.3239 43.9357C73.2596 44.209 73.1068 44.3859 72.8657 44.4663C72.7692 44.4984 72.6567 44.5145 72.528 44.5145H70.8399C70.6469 44.5145 70.4781 44.5065 70.3334 44.4904C70.1887 44.4582 70.0842 44.3859 70.0199 44.2733C69.9717 44.1769 69.9556 44.0563 69.9717 43.9116C70.0038 43.7508 70.036 43.582 70.0681 43.4051L70.4058 41.717L71.1293 38.1236C71.2418 37.5287 71.3222 36.9821 71.3704 36.4837C71.4348 35.9692 71.3785 35.5351 71.2016 35.1814C71.0409 34.8598 70.7595 34.6347 70.3575 34.5061C70.2772 34.4739 70.1887 34.4579 70.0923 34.4579C70.0119 34.4579 69.9315 34.4418 69.8511 34.4096C69.7707 34.3936 69.6662 34.3936 69.5376 34.4096C69.425 34.4096 69.3366 34.4177 69.2723 34.4337C69.1919 34.4498 69.1276 34.4579 69.0794 34.4579C69.0311 34.4579 68.9829 34.4659 68.9347 34.482C68.5488 34.5784 68.2272 34.7071 67.97 34.8678C67.3751 35.2376 66.9571 35.7762 66.7159 36.4837C66.4908 37.1911 66.2899 37.9869 66.113 38.8712L65.5101 41.8858L65.2207 43.3569C65.1885 43.5016 65.1564 43.6463 65.1242 43.791C65.0921 43.9357 65.0438 44.0563 64.9795 44.1528C64.867 44.3296 64.7143 44.4341 64.5213 44.4663C64.3445 44.4984 64.1274 44.5145 63.8702 44.5145H62.6643C62.4875 44.5145 62.3106 44.5065 62.1338 44.4904C61.9569 44.4743 61.8444 44.418 61.7961 44.3216C61.6997 44.1769 61.6836 43.9679 61.7479 43.6945C61.8122 43.4212 61.8685 43.164 61.9167 42.9228L62.5679 39.6429L63.629 34.3373L63.8943 33.1073C63.9264 32.9305 63.9586 32.7697 63.9908 32.625C64.0229 32.4803 64.0953 32.3597 64.2078 32.2632C64.24 32.215 64.2962 32.1829 64.3766 32.1668C64.457 32.1346 64.5374 32.1105 64.6178 32.0944H64.7384C64.8188 32.0784 64.8991 32.0703 64.9795 32.0703H66.2577C66.3863 32.0703 66.5069 32.0784 66.6195 32.0944C66.7481 32.0944 66.8606 32.1105 66.9571 32.1427C67.0536 32.1909 67.1098 32.2632 67.1259 32.3597C67.1581 32.4562 67.1741 32.5687 67.1741 32.6973C67.1741 32.7617 67.1661 32.8179 67.15 32.8662C67.134 32.9144 67.134 32.9626 67.15 33.0109C67.1661 33.0913 67.1822 33.1395 67.1983 33.1556C67.2304 33.1716 67.2706 33.1958 67.3188 33.2279C67.4796 33.244 67.6324 33.1877 67.7771 33.0591C67.9218 32.9144 68.0665 32.8019 68.2112 32.7215C68.7096 32.3999 69.2401 32.1427 69.8029 31.9497C69.9636 31.9015 70.1164 31.8693 70.2611 31.8533C70.4219 31.8372 70.5987 31.8131 70.7916 31.7809C70.8399 31.7648 70.9122 31.7648 71.0087 31.7809C71.1052 31.7809 71.1695 31.7729 71.2016 31.7568C72.1663 31.7246 72.938 31.8613 73.5168 32.1668ZM29.7459 38.7265C29.6816 38.7426 29.6253 38.7587 29.5771 38.7747C29.5288 38.7747 29.4645 38.7828 29.3841 38.7989C29.2716 38.831 29.151 38.8551 29.0224 38.8712C28.8938 38.8873 28.7571 38.9114 28.6124 38.9436C28.5642 38.9596 28.4918 38.9677 28.3953 38.9677C28.1703 39.0159 27.9532 39.0481 27.7442 39.0641C27.5352 39.0802 27.3262 39.1204 27.1172 39.1847L26.7313 39.2812C26.6187 39.2973 26.5062 39.3294 26.3937 39.3777C26.0239 39.5224 25.6943 39.7394 25.4049 40.0288C25.1155 40.3182 24.9467 40.7202 24.8984 41.2346C24.8823 41.508 24.9306 41.7331 25.0431 41.9099C25.1074 42.0868 25.2441 42.2315 25.4531 42.344C25.6621 42.4405 25.8952 42.5128 26.1525 42.5611C26.4097 42.6093 26.6831 42.6254 26.9725 42.6093C27.2779 42.5771 27.5673 42.5209 27.8407 42.4405C28.2908 42.3118 28.6606 42.1109 28.95 41.8376C29.2555 41.5482 29.5127 41.1944 29.7218 40.7764C29.77 40.6639 29.8102 40.5513 29.8423 40.4388C29.8745 40.3102 29.9227 40.1815 29.987 40.0529L30.0353 39.8359C30.0674 39.7555 30.0915 39.6671 30.1076 39.5706C30.1237 39.458 30.1317 39.3616 30.1317 39.2812C30.1317 39.1847 30.1398 39.0963 30.1559 39.0159C30.1719 38.9355 30.1478 38.8712 30.0835 38.823C30.0192 38.7587 29.9067 38.7265 29.7459 38.7265ZM55.3517 34.2649C55.3035 34.2971 55.2472 34.3051 55.1829 34.289C55.1186 34.273 55.0623 34.273 55.0141 34.289C54.9176 34.3212 54.8212 34.3453 54.7247 34.3614C54.6282 34.3614 54.5398 34.3775 54.4594 34.4096C53.7037 34.6347 53.0928 35.0769 52.6265 35.736C52.5783 35.8004 52.522 35.8888 52.4577 36.0013C52.3934 36.0978 52.3452 36.2023 52.313 36.3148C52.2809 36.4113 52.2648 36.5078 52.2648 36.6042C52.2648 36.7007 52.305 36.7811 52.3854 36.8454C52.4979 36.9258 52.6667 36.966 52.8918 36.966H56.9193C57.1765 36.9499 57.3534 36.8776 57.4499 36.7489C57.5946 36.5882 57.6428 36.3952 57.5946 36.1701C57.5624 35.929 57.5383 35.7521 57.5222 35.6396C57.3775 35.2055 57.1444 34.8759 56.8228 34.6508C56.5013 34.4096 56.0109 34.281 55.3517 34.2649Z" fill="black"/>
<g id="Group_3">
<path id="Vector_9" d="M47.8854 31.5692C47.8511 31.5833 47.8137 31.6011 47.7734 31.6224L47.7109 31.6569C47.6678 31.6817 47.6219 31.7098 47.5733 31.7413L47.4986 31.7911L47.4201 31.8457L47.3379 31.9051L47.2522 31.9693C47.2376 31.9804 47.2229 31.9916 47.2081 32.0031L47.1173 32.0742L47.0233 32.1497L46.9263 32.2297L46.8264 32.314L46.7236 32.4026L46.6182 32.4952L46.5102 32.592C46.492 32.6084 46.4737 32.625 46.4553 32.6418L46.8086 33.6368C47.1908 33.229 47.5747 32.8659 47.9514 32.5565L48.084 32.449L48.0935 32.4417L48.0024 32.5158L47.913 32.5931L47.8161 32.6807L47.7242 32.7668L47.647 32.8412L47.5916 32.8955L47.4714 33.0159L47.3732 33.1168L47.2317 33.2659L47.1564 33.3469L47.0782 33.4323L46.9553 33.5687L46.8697 33.6653C46.9576 33.6737 47.0539 33.6809 47.1565 33.6871L47.3148 33.6955L47.4808 33.7023L47.6529 33.7077L47.8294 33.7115L48.0086 33.7139C48.0387 33.7142 48.0687 33.7144 48.0988 33.7146L48.2791 33.7149C48.3091 33.7148 48.339 33.7147 48.3688 33.7145L48.5465 33.7128C48.5758 33.7124 48.605 33.7119 48.6339 33.7114L48.8052 33.7078C48.9457 33.2888 48.9779 32.9519 48.967 32.7003L48.9632 32.6366L48.9578 32.5768C48.9567 32.5672 48.9556 32.5577 48.9545 32.5484L48.9469 32.4944L48.9384 32.4444C48.9369 32.4364 48.9353 32.4285 48.9338 32.4209L48.9241 32.3767L48.914 32.3365L48.9038 32.3003L48.8936 32.268L48.8747 32.2155L48.8594 32.179L48.8229 32.1038L48.8016 32.0636L48.7838 32.032L48.7632 31.9973L48.7397 31.9602L48.7136 31.9212L48.6847 31.8809C48.5235 31.6638 48.2482 31.4195 47.8854 31.5692Z" fill="black"/>
<path id="Vector_10" d="M45.0148 35.808C45.2057 35.5521 45.3957 35.3026 45.5847 35.0595C45.7816 34.8078 45.9802 34.566 46.1811 34.3312C46.193 34.3166 46.205 34.3021 46.2164 34.2907C46.4132 34.0618 46.6085 33.8424 46.8057 33.6331L46.4519 32.6414L46.4092 32.6809L46.3199 32.7623C46.1536 32.9174 45.979 33.0843 45.7993 33.2635C45.698 33.3645 45.5955 33.4686 45.4912 33.5757L45.2804 33.7938C45.2449 33.8309 45.2091 33.8682 45.1731 33.9059C44.976 34.1152 44.7738 34.3368 44.5706 34.5648C44.4413 34.7123 44.3117 34.8615 44.1817 35.0139L44.0317 35.1906L44.4832 36.5394L44.6617 36.2948L45.0148 35.808Z" fill="black"/>
<path id="Vector_11" d="M41.1455 42.3413L41.0783 42.4652L40.9008 42.7965C40.871 42.8525 40.8411 42.9089 40.8113 42.9657L40.7173 43.1465C40.6994 43.1798 40.6819 43.2099 40.6672 43.2436L40.5684 43.4341L40.3525 43.8534C40.5284 43.9673 40.6457 44.2129 40.7488 44.4891C40.7717 44.2216 40.6996 43.9565 40.5201 43.7344C41.4372 43.9113 42.2701 43.7953 42.7784 43.1781C42.8224 43.1225 42.8669 43.0638 42.9087 43.0014C42.6935 43.2027 42.458 43.2736 42.0524 43.1979L42.0067 43.1889C42.6909 42.9956 43.0544 42.765 43.4057 42.3499C43.4887 42.2511 43.5732 42.1427 43.6595 42.0216C43.0124 42.5173 42.3368 42.5846 41.6682 42.3593L41.1455 42.3413Z" fill="black"/>
<path id="Vector_12" d="M41.4515 41.4095L41.6419 41.0751L41.9566 40.5252C42.1096 40.2605 42.2659 39.9962 42.4258 39.7293C42.5857 39.4623 42.7488 39.1958 42.9119 38.9293C43.0792 38.6569 43.2492 38.3881 43.4223 38.1198C43.5918 37.8542 43.7677 37.5896 43.9399 37.3277C44.0029 37.2325 44.0653 37.1405 44.1314 37.0458C44.2398 36.8855 44.3513 36.7256 44.4629 36.5658L44.4799 36.5389L44.0343 35.1943L44.0092 35.2256C44.0047 35.2309 43.9999 35.236 43.9949 35.2407C43.8123 35.4619 43.6261 35.6859 43.4453 35.9172C43.2608 36.1512 43.0791 36.3888 42.8996 36.6333C42.7486 36.8396 42.6008 37.0464 42.4525 37.2563L42.3653 37.3838C42.1862 37.648 42.0177 37.9072 41.8669 38.1559C41.6951 38.4374 41.5411 38.7086 41.4022 38.9656C41.3121 39.1351 41.2261 39.2987 41.1474 39.4568C41.082 39.5908 41.0194 39.7285 40.9573 39.863C40.8127 40.1811 40.6841 40.5016 40.5682 40.824L41.022 42.1796L41.1103 42.0187L41.2909 41.695C41.3212 41.6406 41.3514 41.5859 41.3815 41.5308L41.4515 41.4095Z" fill="black"/>
<path id="Vector_13" d="M40.5522 40.8674C40.4307 41.2093 40.3262 41.5538 40.2432 41.9014L40.1997 42.0916C40.1588 41.9974 40.0931 41.9001 40.0191 41.8082L39.9738 41.7538C39.9662 41.7449 39.9584 41.736 39.9507 41.7272L39.9039 41.6756L39.857 41.6264L39.8109 41.5799L39.7449 41.5162L39.6851 41.4612L39.6195 41.4036L39.5604 41.3549C39.8622 41.967 40.0723 42.5592 40.0346 43.1051C39.8241 43.1167 39.5519 43.0147 39.2466 42.8492C39.378 43.0104 39.4986 43.1241 39.6004 43.2038L39.646 43.2382C39.6534 43.2436 39.6607 43.2487 39.6678 43.2537L39.709 43.2815L39.7471 43.3051L39.782 43.325L39.8133 43.3414L39.8409 43.3545L39.8648 43.3648C39.8684 43.3663 39.8719 43.3676 39.8752 43.3689C39.6193 43.3474 39.3358 43.4551 39.0429 43.6035L38.945 43.6543L38.8465 43.7075C39.3511 43.5824 39.7489 43.5625 40.0142 43.6667C39.8839 43.9134 39.7527 44.166 39.6208 44.4239L39.4222 44.8148C39.1236 45.4069 38.8211 46.025 38.5156 46.664L38.3114 47.093C38.2432 47.237 38.1749 47.382 38.1064 47.5279C38.2462 47.5093 38.3397 47.4284 38.4022 47.3135L38.6334 46.8234L38.8461 46.3827L39.118 45.8293L39.3581 45.3482L39.596 44.8782L39.822 44.4373L40.1357 43.8342L40.3584 43.4122L40.4349 43.2683L40.5009 43.1465L40.5609 43.0322L40.6524 42.8633L40.84 42.5188C40.8718 42.4607 40.9038 42.4021 40.9361 42.3433L41.0249 42.1833L41.0253 42.1801L40.5716 40.8245C40.5658 40.8345 40.5616 40.8434 40.5578 40.8527L40.5522 40.8674Z" fill="black"/>
<path id="Vector_14" d="M44.5692 36.6629L44.4984 36.7667C44.451 36.8381 44.4021 36.9092 44.3536 36.9814L44.1208 37.3324L43.9546 37.5821L43.9125 37.6467C43.8493 37.7435 43.7859 37.8419 43.7219 37.9418L43.5275 38.2462C43.3986 38.4491 43.2687 38.6583 43.136 38.8749L43.036 39.0388C42.877 39.2994 42.7129 39.5723 42.5479 39.8516L42.358 40.1758C42.2622 40.3397 42.1653 40.5068 42.0676 40.6785C42.0097 40.7797 41.9516 40.8823 41.893 40.9863L41.6042 41.5014L41.5157 41.6619L41.3361 41.9888C41.2757 42.0991 41.215 42.2105 41.1541 42.323C41.15 42.3289 41.1458 42.3348 41.1449 42.3412L41.6677 42.3592C41.6585 42.3546 41.649 42.3532 41.6367 42.3481C42.2645 42.3619 43.1498 42.0219 43.7603 41.5306C44.0415 41.3043 44.3069 41.0299 44.5644 40.6989C44.7571 40.4531 44.9412 40.1766 45.1273 39.8645C45.2877 39.5944 45.4487 39.2982 45.607 38.9755C45.4556 39.0284 45.2847 39.0588 45.1002 39.0708L45.0016 39.0759C44.9796 39.0771 44.9579 39.0768 44.9352 39.0768L44.9002 39.0774C45.5075 38.9413 45.9309 38.5694 46.2697 38.084C46.1046 38.1641 45.8389 38.2622 45.5351 38.2862C45.4954 38.2901 45.4529 38.2904 45.4105 38.2907C45.4041 38.2898 45.3975 38.2903 45.39 38.2902L45.3781 38.2892C45.5883 38.2352 45.7712 38.1675 45.9346 38.0772C45.9581 38.0654 45.9803 38.052 46.0022 38.0381L46.0348 38.0169C46.0851 37.9851 46.1328 37.9496 46.1804 37.9142L46.2692 37.8424C46.3366 37.7838 46.4017 37.7182 46.4613 37.6454L46.4995 37.6012C46.5055 37.5939 46.5113 37.5864 46.5168 37.5785L46.565 37.5106C46.5726 37.4997 46.58 37.4888 46.5871 37.4779C46.6775 37.3483 46.7538 37.2293 46.8183 37.1209L46.8452 37.0752C46.8801 37.015 46.9109 36.9608 46.9381 36.9093L46.9698 36.8487L47.018 36.7512C47.0278 36.731 47.0369 36.7117 47.0448 36.6933L47.0589 36.6606L47.0828 36.6014C47.0898 36.5831 47.0959 36.5663 47.101 36.5511L47.108 36.5296C47.0937 36.5384 47.0779 36.5469 47.0609 36.5544L47.0344 36.5645C46.8469 36.6414 46.5357 36.6936 46.2896 36.7032C46.2864 36.7027 46.2832 36.7023 46.2795 36.705L46.2304 36.7053C46.2218 36.7056 46.213 36.7061 46.2041 36.707L46.2179 36.7025L44.5756 36.641C44.577 36.6542 44.5728 36.6602 44.5692 36.6629Z" fill="black"/>
<path id="Vector_15" d="M46.8694 33.6652C46.8107 33.7317 46.7501 33.8015 46.6875 33.8745L46.5599 34.0247L46.4271 34.1834L46.2667 34.3771C46.2632 34.3816 46.26 34.3862 46.2571 34.3912C46.1656 34.5034 46.0716 34.621 45.9748 34.7446L45.8272 34.9348C45.8022 34.9673 45.777 35.0002 45.7516 35.0335L45.5396 35.3138L45.401 35.4995C45.3308 35.5942 45.2593 35.6916 45.1864 35.7923L45.113 35.8942C45.0395 35.9953 44.9655 36.0993 44.8903 36.2061L44.7381 36.4236L44.5814 36.6483L46.2236 36.7098C46.7251 36.5615 46.9646 36.3975 47.2107 36.1432C47.2599 36.0917 47.3096 36.0366 47.3596 35.9792L47.4097 35.9211C47.6138 35.6868 47.8185 35.4264 48.0039 35.1631C48.1848 34.909 48.3492 34.6558 48.4775 34.4266C48.5612 34.2789 48.6302 34.1422 48.6841 34.0196C48.7292 33.912 48.7671 33.8099 48.8012 33.7104L48.6309 33.7134L48.4557 33.7152L48.2774 33.7159L48.0975 33.7152C48.0675 33.715 48.0375 33.7147 48.0076 33.7144L47.8286 33.7118L47.6523 33.7078C47.6233 33.707 47.5944 33.7062 47.5657 33.7053L47.3966 33.6991C47.3689 33.6979 47.3415 33.6967 47.3145 33.6954L47.1562 33.687C47.0537 33.6808 46.9573 33.6736 46.8694 33.6652Z" fill="black"/>
</g>
</g>
</g>
</svg>
