<svg width="60" height="60" viewBox="0 0 60 60" fill="none" xmlns="http://www.w3.org/2000/svg">
<path d="M57.8925 11.0299C56.2025 11.7399 55.9175 11.8049 53.71 11.9599C52.085 12.0724 51.8175 12.1024 50.68 12.4824C48.805 13.0974 47.1925 14.3574 45.63 16.4574C44.89 17.4524 42.5075 21.2399 42.5075 21.4274C42.5075 21.5699 40.8825 23.9224 40.22 24.7274C38.785 26.5099 37.52 27.4249 34.87 28.7024C32.945 29.6024 31.81 30.0124 24.615 32.3949C21.9325 33.2774 19.2825 34.2399 18.6975 34.5549C16.5675 35.6774 14.91 37.1449 13.19 39.3999C10.6825 42.6999 10.76 42.6824 5.585 41.7674C5.02406 41.6994 4.46134 41.6468 3.8975 41.6099C2.2875 41.4849 1.34 41.7199 0.5675 42.4449L0 42.9824L0.4425 43.2024C0.6775 43.3274 1.325 43.7874 1.845 44.1974C2.3825 44.6224 2.9975 45.0649 3.22 45.1749C3.44 45.2849 3.645 45.3949 3.6775 45.4274C3.7075 45.4599 3.455 45.8524 3.1075 46.3099C2.02 47.7624 1.625 48.4874 1.6725 48.9299C1.72 49.3399 1.7525 49.3549 2.7475 49.3549C4.04 49.3399 4.8125 49.2149 5.9 48.8349C7.525 48.2524 11.045 46.4849 12.86 45.3349C14.8 44.0849 17.1525 42.8399 17.75 42.7299C17.955 42.6799 18.635 42.5549 19.235 42.4449C20.685 42.1774 22.895 42.2074 25.7025 42.5699C25.9725 42.6024 26.635 42.6824 27.2025 42.7299C27.77 42.7924 28.2775 42.8724 28.3375 42.9199C28.4025 42.9499 29.5225 43.0124 30.8325 43.0599C33.1675 43.1249 33.5925 43.0774 34.0825 42.5874C34.3975 42.2549 35.045 41.0099 35.3275 40.1249C35.85 38.5174 36.37 37.8224 36.2425 38.8949C35.96 41.3099 35.4375 43.1249 34.46 44.9224C33.8125 46.1699 32.8025 47.6524 32.125 48.4099C31.32 49.2774 31.3375 49.3099 32.345 49.1974C33.8925 49.0399 36.0225 48.2049 37.585 47.1474C39.6525 45.7424 41.7025 42.9199 43.06 39.5724C43.3275 38.8974 43.61 39.0224 43.5175 39.7799C43.485 40.0149 43.4225 40.5674 43.375 41.0249L43.2975 41.8449L44.18 41.3399C46.2625 40.1399 47.715 38.1849 49.4975 34.1299C50.065 32.8349 51.69 26.8249 52.18 24.1899C52.3571 23.3096 52.5833 22.4399 52.8575 21.5849C53.175 20.5124 53.3475 20.1974 54.0575 19.4399C54.515 18.9649 55.62 18.0524 56.5025 17.4199C58.3025 16.1574 58.885 15.5449 59.47 14.4074C59.99 13.3649 60.18 11.5824 59.8 11.0149C59.47 10.5099 59.09 10.5249 57.8925 11.0299Z" fill="black"/>
</svg>
