<svg width="58" height="58" viewBox="0 0 58 58" fill="none" xmlns="http://www.w3.org/2000/svg">
<path d="M41.5161 23.0062C38.4675 9.56289 31.2646 5.15489 30.4906 3.46564C29.6406 2.26758 28.7253 0.00195312 28.7253 0.00195312C28.7162 0.0490781 28.7162 0.0780781 28.7071 0.125203V0.154203C28.7071 0.192266 28.6981 0.210391 28.6981 0.248453V0.286516H28.689V0.342703V0.407953H28.68C28.68 0.426078 28.68 0.455078 28.6709 0.464141V0.520328C28.6709 0.538453 28.6709 0.558391 28.6618 0.567453V0.614578C28.6618 0.643578 28.6618 0.670766 28.6528 0.690703V0.699766C28.6528 0.737828 28.6437 0.784953 28.6346 0.823016V0.841141C28.6256 0.850203 28.6256 0.859266 28.6256 0.870141V0.908203H28.6165V0.964391H28.6075V1.00245H28.5893V1.05864H28.5803V1.10577H28.5712V1.14383H28.5621V1.18189H28.5531V1.21995H28.544V1.25802H28.535V1.28702H28.5259V1.32508H28.5168V1.33414V1.36314H28.5078C28.4987 1.36314 28.4987 1.3722 28.4987 1.3722V1.39033L28.4896 1.40845C28.4896 1.42658 28.4806 1.44652 28.4715 1.46464C28.4625 1.4737 28.4625 1.4737 28.4625 1.48277V1.50089H28.4534V1.51902H28.4353V1.56614H28.4171V1.59514H28.4081V1.6042H28.399V1.62233H28.39V1.65133H28.3809V1.66945H28.3628V1.69845H28.3537V1.71658H28.3446V1.7347H28.3356V1.7637H28.3265V1.78183H28.3175V1.79089H28.3084V1.80902H28.2903V1.83802H28.2812V1.84708H28.2721V1.8652H28.2631V1.8942H28.254V1.90327H28.245V1.92139H28.2359V1.93045H28.2268V1.95945H28.2087V1.96852H28.1996V1.98664H28.1906V1.9957H28.1815V2.01383H28.1725V2.02289V2.03195C28.1634 2.03195 28.1634 2.04102 28.1634 2.04102V2.05008H28.1543C28.1453 2.0682 28.1362 2.07908 28.1253 2.0972C28.1253 2.0972 28.1072 2.11533 28.1072 2.1262C28.0981 2.1262 28.0981 2.13527 28.0981 2.13527V2.14433H28.0891V2.15339H28.08V2.16245V2.17152H28.0619V2.18058H28.0528V2.18964H28.0438V2.1987V2.21683H28.0347V2.22589H28.0256V2.23495H28.0166V2.25308H28.0075V2.23495H27.9894V2.24402H27.9803V2.26214H27.9713V2.28027H27.9622V2.28933H27.9531V2.29839H27.9441V2.30745H27.935V2.32558H27.9169V2.33464H27.9078V2.35277H27.8988V2.36183H27.8897V2.37089H27.8806V2.39989H27.8716V2.40895H27.8625V2.41802H27.8535V2.42708H27.8444V2.43614H27.8263V2.45427H27.8172V2.46333H27.8081V2.47239H27.7991V2.49052H27.79V2.49958H27.7719V2.50864H27.7628V2.5177H27.7538V2.53583H27.7447V2.55395H27.7356V2.56302H27.7266V2.57208H27.7085V2.58114H27.6994V2.5902H27.6903V2.60833H27.6813V2.61739H27.6722V2.63552H27.6631V2.64458H27.6541V2.65364H27.645V2.6627H27.636V2.67177H27.6178V2.68083C27.6088 2.68083 27.6088 2.68989 27.6088 2.68989L27.5997 2.69895L27.5906 2.70802V2.72614H27.5816V2.7352H27.5725V2.74427H27.5635V2.75333H27.5544L27.5363 2.77145V2.78052C27.5181 2.78958 27.5181 2.79864 27.4982 2.81858C27.4982 2.81858 27.4801 2.8367 27.4692 2.8367C27.4402 2.85483 27.404 2.89289 27.375 2.92189C27.3568 2.93095 27.3369 2.95089 27.3188 2.95995C27.2807 2.99802 27.2426 3.0252 27.2046 3.0542C27.1484 3.11039 27.0904 3.14845 27.0251 3.20464H27.0161C26.8838 3.31883 26.7333 3.44933 26.572 3.59252H26.563C26.157 3.95139 25.6748 4.41358 25.1275 4.96095L25.0803 5.00808C21.7943 8.40652 16.6123 15.4952 16.074 26.9466C16.0178 27.8909 16.0269 28.8153 16.0831 29.7125V29.7306C16.3477 34.2437 17.7633 38.0953 19.5377 41.2291C20.2355 42.4761 21.0004 43.6089 21.7743 44.6275C24.4369 48.1401 27.1556 50.2263 27.8444 50.7356C28.912 53.1988 28.8159 57.4473 28.8159 57.4473L30.3728 57.9657C30.3728 57.9657 30.052 53.8586 30.4961 51.8666C30.6375 51.2522 30.9583 50.7248 31.3371 50.2716C31.6017 50.0922 32.3575 49.5448 33.2638 48.7147C33.3109 48.6676 33.3399 48.6295 33.378 48.5824C37.0501 45.155 43.914 36.716 41.5632 22.9718L41.5161 23.0062Z" fill="black"/>
</svg>
