<svg width="48" height="48" viewBox="0 0 48 48" fill="none" xmlns="http://www.w3.org/2000/svg">
<g id="neural-network 1">
<g id="Group">
<g id="Group_2">
<g id="SOLID">
<g id="Group_3">
<path id="Vector" fill-rule="evenodd" clip-rule="evenodd" d="M28.3512 19.9913C27.6168 19.2159 27.1616 18.1264 27.0525 16.6937C27.0105 16.1424 27.4227 15.6612 27.974 15.6192C28.5242 15.5771 29.0055 15.9903 29.0475 16.5406C29.1185 17.4731 29.3677 18.1934 29.8649 18.6767C30.3582 19.1569 31.0755 19.379 31.988 19.418C32.5392 19.4411 32.9685 19.9083 32.9445 20.4596C32.9214 21.0118 32.4542 21.4411 31.9029 21.417C31.2026 21.387 30.5803 21.27 30.034 21.0729C29.5217 21.9153 29.3196 22.9058 29.6568 23.7412C29.9049 24.3535 30.4582 24.8458 31.3427 25.1339C31.8669 25.306 32.1541 25.8713 31.983 26.3965C31.8109 26.9208 31.2456 27.2079 30.7203 27.0369C29.1556 26.5246 28.2401 25.5761 27.8019 24.4916C27.2356 23.0889 27.4887 21.396 28.3512 19.9913ZM33.0515 34.0474C33.0745 34.5996 32.6453 35.0659 32.094 35.0889C31.5418 35.1119 31.0755 34.6827 31.0525 34.1314C30.9895 32.6237 30.2491 31.5581 28.6763 31.0369C28.1521 30.8638 27.8669 30.2965 28.041 29.7732C28.2151 29.249 28.7814 28.9638 29.3056 29.1379C31.7959 29.9623 32.9515 31.6602 33.0515 34.0474Z" fill="black"/>
</g>
<g id="Group_4">
<path id="Vector_2" fill-rule="evenodd" clip-rule="evenodd" d="M10.0581 16.6265L7.48483 14.9117C7.29974 14.7886 7.16167 14.6065 7.09064 14.3954L6.31825 12.0782H3.03761C2.48533 12.0782 2.03711 11.63 2.03711 11.0777C2.03711 10.5255 2.48533 10.0772 3.03761 10.0772H7.03961C7.46982 10.0772 7.85301 10.3524 7.98908 10.7616L8.88053 13.4369L10.5884 14.5755C11.4158 12.7766 13.1076 11.4559 15.1307 11.1478C15.2557 10.4825 15.5128 9.86413 15.873 9.31986L14.5324 7.97919L10.7985 7.04573C10.3533 6.93467 10.0411 6.53447 10.0411 6.07524V3.07374C10.0411 2.52147 10.4893 2.07324 11.0416 2.07324C11.5939 2.07324 12.0421 2.52147 12.0421 3.07374V5.29385L15.2867 6.10526C15.4618 6.14928 15.6229 6.24032 15.751 6.36839L17.2877 7.90515C18.0791 7.38089 19.0276 7.07574 20.0461 7.07574C21.6819 7.07574 23.1347 7.86214 24.0481 9.07775C24.9616 7.86214 26.4143 7.07574 28.0501 7.07574C29.0696 7.07574 30.0171 7.38089 30.8085 7.90515L32.3453 6.36839C32.4733 6.24032 32.6344 6.14928 32.8095 6.10526L36.0541 5.29385V3.07374C36.0541 2.52147 36.5023 2.07324 37.0546 2.07324C37.6069 2.07324 38.0551 2.52147 38.0551 3.07374V6.07524C38.0551 6.53447 37.743 6.93467 37.2977 7.04573L33.5639 7.97919L32.2232 9.31986C32.5834 9.86413 32.8405 10.4824 32.9656 11.1468C34.9886 11.4559 36.6804 12.7766 37.5078 14.5755L39.2157 13.4369L40.1071 10.7616C40.2432 10.3524 40.6264 10.0772 41.0566 10.0772H45.0586C45.6109 10.0772 46.0591 10.5255 46.0591 11.0777C46.0591 11.63 45.6109 12.0782 45.0586 12.0782H41.778L41.0056 14.3954C40.9345 14.6065 40.7965 14.7886 40.6114 14.9117L38.0381 16.6265C38.0491 16.7766 38.0551 16.9277 38.0551 17.0807C38.0551 18.1503 37.775 19.1558 37.2837 20.0252C38.4003 20.7406 39.2647 21.8141 39.7139 23.0837H45.1086C45.6609 23.0837 46.1091 23.532 46.1091 24.0842C46.1091 24.6365 45.6609 25.0847 45.1086 25.0847H40.0561C40.0561 27.527 38.5944 29.629 36.5003 30.5665C36.6154 30.8156 36.7144 31.0747 36.7955 31.3409L40.5033 33.1948C40.7405 33.3129 40.9215 33.521 41.0056 33.7731L41.778 36.0902H45.0586C45.6109 36.0902 46.0591 36.5385 46.0591 37.0907C46.0591 37.643 45.6109 38.0912 45.0586 38.0912H41.0566C40.6264 38.0912 40.2432 37.8161 40.1071 37.4069L39.2377 34.7986L37.0246 33.692C36.7645 36.2953 34.8385 38.4104 32.3303 38.9547L33.5639 40.1893L37.2977 41.1228C37.743 41.2338 38.0551 41.634 38.0551 42.0932V45.0947C38.0551 45.647 37.6069 46.0952 37.0546 46.0952C36.5023 46.0952 36.0541 45.647 36.0541 45.0947V42.8746L32.8095 42.0632C32.6344 42.0192 32.4733 41.9282 32.3453 41.8001L30.1572 39.612C29.4228 40.5155 28.3032 41.0927 27.0496 41.0927C25.855 41.0927 24.7815 40.5685 24.0481 39.7371C23.3147 40.5685 22.2412 41.0927 21.0466 41.0927C19.793 41.0927 18.6734 40.5155 17.9391 39.612L15.751 41.8001C15.6229 41.9282 15.4618 42.0192 15.2867 42.0632L12.0421 42.8746V45.0947C12.0421 45.647 11.5939 46.0952 11.0416 46.0952C10.4893 46.0952 10.0411 45.647 10.0411 45.0947V42.0932C10.0411 41.634 10.3533 41.2338 10.7985 41.1228L14.5324 40.1893L15.766 38.9547C13.2577 38.4104 11.3318 36.2953 11.0716 33.692L8.85852 34.7986L7.98908 37.4069C7.85301 37.8161 7.46982 38.0912 7.03961 38.0912H3.03761C2.48533 38.0912 2.03711 37.643 2.03711 37.0907C2.03711 36.5385 2.48533 36.0902 3.03761 36.0902H6.31825L7.09064 33.7731C7.17468 33.521 7.35577 33.3129 7.59289 33.1948L11.3007 31.3409C11.3818 31.0747 11.4808 30.8156 11.5959 30.5665C9.50184 29.629 8.04011 27.527 8.04011 25.0847H3.03761C2.48533 25.0847 2.03711 24.6365 2.03711 24.0842C2.03711 23.532 2.48533 23.0837 3.03761 23.0837H8.38228C8.83151 21.8141 9.69594 20.7406 10.8125 20.0252C10.3213 19.1558 10.0411 18.1503 10.0411 17.0807C10.0411 16.9277 10.0471 16.7766 10.0581 16.6265ZM17.0436 34.1313C17.1066 32.6235 17.847 31.558 19.4198 31.0367C19.9441 30.8636 20.2292 30.2964 20.0551 29.7731C19.881 29.2488 19.3147 28.9637 18.7905 29.1378C16.3002 29.9622 15.1447 31.66 15.0446 34.0472C15.0216 34.5995 15.4508 35.0657 16.0021 35.0887C16.5544 35.1117 17.0206 34.6825 17.0436 34.1313ZM18.0621 21.0727C18.5744 21.9152 18.7765 22.9056 18.4393 23.7411C18.1912 24.3534 17.6379 24.8456 16.7535 25.1338C16.2292 25.3058 15.9421 25.8711 16.1131 26.3964C16.2852 26.9207 16.8505 27.2078 17.3758 27.0367C18.9406 26.5245 19.856 25.576 20.2942 24.4914C20.8605 23.0887 20.6074 21.3959 19.745 19.9912C20.4793 19.2158 20.9346 18.1263 21.0436 16.6936C21.0856 16.1423 20.6734 15.661 20.1221 15.619C19.5719 15.577 19.0906 15.9902 19.0486 16.5405C18.9776 17.4729 18.7284 18.1933 18.2312 18.6765C17.738 19.1568 17.0206 19.3789 16.1081 19.4179C15.5569 19.4409 15.1277 19.9082 15.1517 20.4594C15.1747 21.0117 15.6419 21.4409 16.1932 21.4169C16.8935 21.3869 17.5158 21.2698 18.0621 21.0727ZM25.0486 37.0907C25.0486 38.1953 25.9451 39.0917 27.0496 39.0917C27.9521 39.0917 28.7154 38.4934 28.9646 37.672C29.1176 37.1688 29.6349 36.8696 30.1472 36.9887C30.4383 37.0557 30.7405 37.0907 31.0516 37.0907C33.2607 37.0907 35.0536 35.2978 35.0536 33.0887C35.0536 32.1573 34.7345 31.2989 34.1992 30.6185C33.9831 30.3444 33.9261 29.9762 34.0491 29.649C34.1722 29.3219 34.4563 29.0817 34.8005 29.0167C36.6524 28.6675 38.0551 27.0387 38.0551 25.0847C38.0551 23.3669 36.9696 21.9002 35.4488 21.3329C35.1397 21.2178 34.9065 20.9577 34.8265 20.6375C34.7475 20.3174 34.8305 19.9792 35.0486 19.7321C35.6739 19.0257 36.0541 18.0972 36.0541 17.0807C36.0541 14.8716 34.2612 13.0787 32.0521 13.0787C31.4998 13.0787 31.0516 12.6305 31.0516 12.0782C31.0516 10.4214 29.7069 9.07674 28.0501 9.07674C26.3933 9.07674 25.0486 10.4214 25.0486 12.0782V37.0907Z" fill="black"/>
</g>
</g>
</g>
</g>
</g>
</svg>
