<svg width="54" height="48" viewBox="0 0 54 48" fill="none" xmlns="http://www.w3.org/2000/svg">
<path d="M15.7386 48C14.2554 48 12.4359 46.9486 11.6953 45.6636L0.555452 26.3364C-0.185151 25.0514 -0.185151 22.9486 0.555452 21.6636L11.6953 2.33636C12.4359 1.05136 14.2554 0 15.7386 0H38.0116C39.4948 0 41.3142 1.05136 42.0547 2.33636L53.1947 21.6636C53.9353 22.9486 53.9353 25.0514 53.1947 26.3364L42.0549 45.6636C41.3144 46.9486 39.4949 48 38.0117 48H15.7386Z" fill="#808080"/>
<path d="M50.932 23.0265C51.2296 23.5398 51.2298 24.3796 50.9325 24.893L39.7263 44.2479C39.429 44.7614 38.7004 45.1811 38.1071 45.1807L15.6667 45.1683C15.0734 45.168 14.3445 44.7478 14.0469 44.2346L2.81808 24.8656C2.52048 24.3524 2.52026 23.5125 2.81754 22.999L14.0238 3.64435C14.321 3.13091 15.0497 2.7111 15.6429 2.71143L38.0835 2.72394C38.6768 2.72426 39.4056 3.1444 39.7032 3.65773L50.932 23.0265Z" fill="black"/>
<path d="M50.9321 23.0265L49.8122 23.6757L49.8124 23.6758C49.8147 23.6798 49.8304 23.7151 49.8416 23.768C49.8531 23.8207 49.8612 23.8902 49.861 23.9596C49.8612 24.0341 49.8521 24.1087 49.8394 24.1626C49.833 24.1896 49.8262 24.2113 49.8206 24.2256L49.814 24.2413L49.8124 24.2446L38.6062 43.5993L38.6061 43.5994C38.6039 43.604 38.579 43.6374 38.5358 43.6753C38.4721 43.7335 38.3678 43.8001 38.2747 43.8389C38.2284 43.8587 38.1855 43.8722 38.1544 43.879C38.1389 43.8824 38.1265 43.8845 38.1185 43.8856L38.1096 43.8864L38.1077 43.8865L38.1079 43.8927V43.8865H38.1077L38.1079 43.8927V43.8865V45.1478L38.1111 43.8865H38.1079V45.1478L38.1111 43.8865L38.1084 44.954L38.1115 43.8865H38.1111L38.1084 44.954L38.1115 43.8865C38.1095 43.8866 38.0896 43.8861 38.0475 43.8879L38.1073 45.1809L38.108 43.8865L15.6675 43.8741H15.6673C15.662 43.8743 15.6205 43.8695 15.5657 43.8512C15.4831 43.8249 15.3726 43.768 15.2923 43.7064C15.2518 43.6762 15.2184 43.6455 15.1968 43.622C15.1859 43.6104 15.1779 43.6006 15.173 43.594L15.1678 43.5868L15.1668 43.5853L15.162 43.5881L15.1668 43.5854V43.5853L15.162 43.5881L15.1668 43.5854L3.93806 24.2167V24.2166V24.2165C3.93558 24.2126 3.92004 24.1773 3.90882 24.1243C3.89718 24.0716 3.8893 24.0019 3.88941 23.9326C3.88919 23.858 3.89836 23.7835 3.9112 23.7295C3.91745 23.7026 3.92447 23.6808 3.92986 23.6666L3.93644 23.6509L3.93806 23.6477L15.1441 4.29278L15.1442 4.29268C15.1465 4.28815 15.1713 4.25471 15.2145 4.21674C15.2782 4.1586 15.3826 4.09183 15.4756 4.05322C15.5219 4.03348 15.5651 4.01999 15.596 4.01309C15.6114 4.00964 15.6238 4.00759 15.6319 4.00662L15.6408 4.00576L15.6425 4.00565L15.6423 3.99939V4.00565H15.6425L15.6423 3.99939V4.00565V3.43353L15.6421 4.00565H15.6423V3.43353L15.6421 4.00565L15.6426 2.77944L15.6359 4.00565H15.6421L15.6426 2.77944L15.6359 4.00565H15.6392L38.0828 4.01816H38.0831C38.0885 4.01805 38.13 4.0228 38.1846 4.04114C38.2673 4.06735 38.3776 4.1243 38.4579 4.18578C38.4985 4.21609 38.5319 4.24673 38.5534 4.27013C38.5645 4.28178 38.5724 4.2916 38.5773 4.29818L38.5825 4.30541L38.5835 4.30692L38.5834 4.30681L49.8124 23.6756L50.9321 23.0265L52.052 22.3772L40.8232 3.00843H40.8231C40.6718 2.74826 40.4892 2.53448 40.2917 2.34938C39.9944 2.07303 39.6614 1.85881 39.2973 1.69841C39.115 1.6187 38.9244 1.55323 38.7233 1.50598C38.5221 1.45895 38.3102 1.42983 38.0844 1.4295L15.6438 1.41699H15.6502H15.6434H15.6422L15.6424 2.23353V1.41699H15.6422L15.6424 2.23353V1.41699C15.3413 1.41753 15.0649 1.46812 14.8057 1.54621C14.4175 1.66497 14.0652 1.84565 13.744 2.08036C13.5837 2.19826 13.4315 2.33039 13.2899 2.48087C13.1484 2.63145 13.0171 2.80036 12.9037 2.99571L1.69759 22.3505C1.5469 22.6118 1.4522 22.877 1.39007 23.1408C1.32869 23.4049 1.30075 23.6687 1.30054 23.9324C1.30075 24.1967 1.32891 24.4607 1.3905 24.7249C1.45284 24.9888 1.54776 25.2538 1.69845 25.5149V25.5148L12.9273 44.8836C13.0788 45.1437 13.2612 45.3577 13.4587 45.5426C13.7561 45.8189 14.0889 46.0332 14.453 46.1936C14.6353 46.2733 14.8259 46.3387 15.027 46.386C15.2282 46.433 15.4402 46.4621 15.666 46.4625L38.1367 46.4749L38.1668 46.4734L38.1074 45.1881L38.1122 46.4749C38.1218 46.4748 38.1395 46.4748 38.1668 46.4734L38.1074 45.1881L38.1122 46.4749L38.1075 45.206L38.104 46.4749H38.1122L38.1075 45.206L38.104 46.4749H38.1045H38.1077C38.4087 46.4743 38.6852 46.4235 38.9444 46.3456C39.3327 46.2269 39.6848 46.0463 40.0062 45.8116C40.1664 45.6937 40.3186 45.5617 40.4603 45.4111C40.6019 45.2605 40.733 45.0915 40.8465 44.8963L52.0528 25.5415C52.2034 25.2801 52.2982 25.015 52.3603 24.7512C52.4217 24.4872 52.4497 24.2232 52.4499 23.9595C52.4497 23.6954 52.4215 23.4312 52.3599 23.167C52.2977 22.9031 52.2027 22.6381 52.0521 22.377L50.9321 23.0265Z" fill="white"/>
<path d="M36.7607 9.59957C36.3163 8.82866 35.9489 8.19775 35.9441 8.19775C35.9395 8.19775 35.9357 8.92584 35.9357 9.81573V22.2202C35.9357 23.1101 35.5707 23.2082 35.1246 22.4382L27.6862 9.59774C27.2401 8.82779 26.147 8.19775 25.2571 8.19775H19.4153C18.5254 8.19775 17.4337 8.82855 16.9893 9.59957L9.52764 22.5443C9.08323 23.3152 9.08323 24.5769 9.52764 25.3479L16.9893 38.2926C17.4337 39.0636 17.8011 39.6944 17.8058 39.6944C17.8104 39.6944 17.8143 38.9663 17.8143 38.0764V25.4562C17.8143 24.5663 18.1755 24.4702 18.617 25.2429L26.0722 38.2895C26.5138 39.0624 27.6031 39.6944 28.493 39.6944H34.3347C35.2246 39.6944 36.3163 39.0636 36.7607 38.2927L44.2224 25.3478C44.6668 24.5769 44.6668 23.3153 44.2224 22.5443L36.7607 9.59957Z" fill="white"/>
</svg>
