<svg width="66" height="48" viewBox="0 0 66 48" fill="none" xmlns="http://www.w3.org/2000/svg">
<path fill-rule="evenodd" clip-rule="evenodd" d="M0.00320033 0.00866809C0.0311831 0.0556079 0.166822 0.278558 0.304626 0.504125C0.442459 0.729693 0.77018 1.28657 1.03291 1.74163C1.29567 2.19669 1.63787 2.78025 1.79339 3.03842C3.26531 5.48188 4.74348 7.17667 6.69332 8.65638C11.589 12.3716 19.4155 14.4017 30.7107 14.8863C32.8898 14.9798 34.1257 14.9941 38.3462 14.975C44.3786 14.9477 46.8657 15.0219 49.7361 15.315C53.5823 15.7077 55.9284 16.4136 57.008 17.503C58.1828 18.6886 57.8452 20.2648 55.8836 22.7532C55.1391 23.6976 54.4517 24.4571 52.2531 26.7644C49.461 29.6944 48.3474 30.958 47.2014 32.4967C46.7239 33.138 45.9847 34.2517 45.8107 34.5921C45.7632 34.685 45.7633 34.6863 45.8156 34.6446C45.8451 34.6211 46.0906 34.4032 46.3613 34.1603C48.2332 32.4807 50.4807 30.5189 53.8562 27.6185C57.001 24.9163 58.5789 23.5375 59.8601 22.3723C62.7727 19.7235 64.4412 17.9104 65.3085 16.4518C67.2341 13.2133 65.1913 11.4957 58.5106 10.7362C55.4838 10.3921 52.0958 10.266 45.841 10.2646C28.7401 10.2607 19.8357 9.66183 13.6398 8.09874C8.18057 6.72152 4.42689 4.52872 0.355811 0.338613C0.133889 0.1102 -0.0247824 -0.0382718 0.00320033 0.00866809ZM17.0287 38.486C15.8371 38.5911 14.6659 39.1953 13.8839 40.1082C12.8807 41.2793 12.4896 42.8194 12.8221 44.2886C13.2427 46.1466 14.6604 47.5429 16.5224 47.9333C16.8063 47.9928 16.9197 48.001 17.4505 47.9999C18.1139 47.9986 18.3478 47.964 18.8894 47.7874C19.2468 47.6708 19.8269 47.3733 20.1503 47.1407C20.494 46.8936 21.04 46.3409 21.2816 45.9955C21.6434 45.4784 21.9249 44.8152 22.0666 44.1464C22.1202 43.8934 22.1301 43.7584 22.1312 43.2645C22.1323 42.7663 22.1231 42.6342 22.0682 42.3588C21.7373 40.6997 20.6466 39.3827 19.1044 38.7802C18.4799 38.5362 17.7046 38.4263 17.0287 38.486ZM38.529 38.4862C37.3528 38.5836 36.1951 39.1749 35.3984 40.085C34.8135 40.7531 34.4123 41.5978 34.2654 42.4707C34.187 42.9366 34.2006 43.7763 34.2937 44.2083C34.6554 45.8881 35.8417 47.2425 37.4124 47.7688C37.9919 47.963 38.2289 47.9991 38.9227 47.9991C39.461 47.9991 39.5798 47.9907 39.8367 47.9344C40.7582 47.7324 41.5362 47.3142 42.1951 46.6667C42.8989 45.9749 43.3413 45.1635 43.5537 44.1748C43.6095 43.9152 43.618 43.7942 43.6185 43.2502C43.619 42.6989 43.6112 42.5872 43.5529 42.3123C43.4582 41.8658 43.345 41.5393 43.1385 41.1166C42.2852 39.3705 40.4557 38.3265 38.529 38.4862Z" fill="black"/>
</svg>
