<svg width="48" height="48" viewBox="0 0 48 48" fill="none" xmlns="http://www.w3.org/2000/svg">
<g clip-path="url(#clip0_14476_6549)">
<path d="M31.2738 8.24629C31.1807 7.72289 30.7748 7.31704 30.2514 7.22395C29.4599 7.08323 28.1582 7.15186 26.81 8.50008C24.6424 10.6678 25.0263 13.4715 25.0263 13.4715C25.0263 13.4715 27.83 13.8554 29.9977 11.6878C31.3458 10.3395 31.4145 9.03783 31.2738 8.24629Z" stroke="black" stroke-width="2" stroke-miterlimit="10"/>
<path d="M24.2756 17.3053C23.7232 17.3053 23.2756 16.9811 23.2756 16.581V7.17256C23.2756 6.77243 23.7233 6.44824 24.2756 6.44824C24.8279 6.44824 25.2756 6.77252 25.2756 7.17256V16.5809C25.2756 16.9811 24.8281 17.3053 24.2756 17.3053Z" fill="black"/>
<path d="M30.7552 14.9717C29.9131 14.9717 29.0826 15.1695 28.3308 15.5492C25.6074 16.9247 22.3925 16.9247 19.6691 15.5492C18.9173 15.1695 18.087 14.9717 17.2447 14.9717C15.1581 14.9717 13.26 16.1787 12.375 18.0683C10.084 22.9599 10.3766 28.6707 13.1557 33.3025L14.6759 35.836C15.8636 37.8156 18.0029 39.0268 20.3114 39.0268C21.3195 39.0268 22.314 38.7949 23.2181 38.3491C23.711 38.106 24.2891 38.106 24.782 38.3491C25.6862 38.795 26.6807 39.0268 27.6888 39.0268C29.9973 39.0268 32.1365 37.8156 33.3243 35.836L34.8444 33.3025C37.6234 28.6708 37.9161 22.9599 35.6252 18.0683C34.74 16.1788 32.8418 14.9717 30.7552 14.9717Z" stroke="black" stroke-width="2" stroke-miterlimit="10"/>
<path d="M10 2V0H0V10H2V2H10Z" fill="black"/>
<path d="M38 2V0H48V10H46V2H38Z" fill="black"/>
<path d="M38 46V48H48V38H46V46H38Z" fill="black"/>
<path d="M10 46V48H0V38H2V46H10Z" fill="black"/>
</g>
<defs>
<clipPath id="clip0_14476_6549">
<rect width="48" height="48" fill="white"/>
</clipPath>
</defs>
</svg>
