<svg width="77" height="40" viewBox="0 0 77 40" fill="none" xmlns="http://www.w3.org/2000/svg">
<path d="M24.3117 21.3627C23.5288 21.9652 22.2916 22.2708 20.6343 22.2708H18.4814L19.9497 14.7158H22.5982C24.1256 14.7158 25.1375 14.9788 25.6055 15.4971C26.0632 16.0047 26.1628 16.9453 25.9013 18.2922C25.621 19.7333 25.0861 20.7664 24.3117 21.3627Z" fill="black"/>
<path d="M58.3517 21.3627C57.569 21.9652 56.3317 22.2708 54.6745 22.2708H52.5215L53.9898 14.7158H56.6383C58.1658 14.7158 59.1775 14.9788 59.6456 15.4971C60.1034 16.0047 60.203 16.9453 59.9416 18.2922C59.661 19.7334 59.1262 20.7666 58.3517 21.3627Z" fill="black"/>
<path fill-rule="evenodd" clip-rule="evenodd" d="M37.978 39.9557C17.0037 39.9557 0 31.0112 0 19.9779C0 8.94464 17.0037 0 37.978 0C58.9523 0 75.9562 8.94464 75.9562 19.9779C75.9562 31.0112 58.9523 39.9557 37.978 39.9557ZM11.6535 31.4273C11.7317 31.5223 11.8485 31.5773 11.9713 31.5773H16.3328C16.53 31.5773 16.6996 31.4374 16.7372 31.2437L17.7069 26.2544H21.1029C22.7878 26.2544 24.1997 26.0729 25.299 25.7147C26.4161 25.3519 27.4446 24.7351 28.3534 23.8845C29.1125 23.1867 29.7369 22.4044 30.2093 21.559C30.6811 20.7145 31.0205 19.7712 31.2177 18.7555C31.7024 16.2625 31.3196 14.2789 30.0799 12.8598C28.8468 11.4481 26.885 10.7325 24.2492 10.7325H15.8628C15.6655 10.7325 15.4958 10.8723 15.4581 11.0658L11.5669 31.0866C11.5435 31.2074 11.5752 31.3323 11.6535 31.4273ZM41.2175 26.2544C41.0944 26.2544 40.9778 26.1994 40.8996 26.1044C40.8212 26.0096 40.7895 25.8846 40.813 25.7637L42.5342 16.9054C42.6979 16.063 42.6576 15.4582 42.4207 15.2027C42.2756 15.0466 41.8399 14.7846 40.5516 14.7846H37.4331L35.269 25.9209C35.2313 26.1146 35.0617 26.2544 34.8644 26.2544H30.5375C30.4144 26.2544 30.2978 26.1994 30.2196 26.1044C30.1412 26.0096 30.1095 25.8845 30.133 25.7637L34.0242 5.74303C34.0619 5.54949 34.2315 5.40966 34.4287 5.40966H38.7556C38.8787 5.40966 38.9954 5.4646 39.0737 5.55952C39.152 5.65457 39.1837 5.77944 39.1602 5.90032L38.2212 10.7325H41.5759C44.1315 10.7325 45.8644 11.183 46.8738 12.1099C47.9027 13.0555 48.2237 14.5675 47.8281 16.6043L46.0176 25.9209C45.98 26.1146 45.8105 26.2544 45.6131 26.2544H41.2175ZM45.6943 31.4273C45.7724 31.5223 45.8892 31.5773 46.0121 31.5773H50.3734C50.5708 31.5773 50.7403 31.4374 50.7781 31.2437L51.7474 26.2544H55.1434C56.8285 26.2544 58.2403 26.0729 59.3396 25.7147C60.4566 25.3519 61.4852 24.7351 62.394 23.8845C63.1532 23.1867 63.7775 22.4044 64.2499 21.559C64.7218 20.7145 65.0609 19.7712 65.2584 18.7555C65.743 16.2624 65.3604 14.2788 64.1207 12.8598C62.8874 11.4481 60.9258 10.7325 58.2899 10.7325H49.9034C49.7061 10.7325 49.5366 10.8723 49.4988 11.0658L45.6076 31.0866C45.5841 31.2074 45.616 31.3323 45.6943 31.4273Z" fill="black"/>
</svg>
