<svg width="63" height="63" viewBox="0 0 63 63" fill="none" xmlns="http://www.w3.org/2000/svg">
<g id="playwright-logo 1">
<path id="Vector" d="M21.4896 34.8951C19.4601 35.4711 18.1286 36.481 17.2515 37.4901C18.0916 36.7549 19.2169 36.0801 20.7349 35.6499C22.2875 35.2098 23.6121 35.2129 24.7066 35.4242V34.5683C23.7729 34.4829 22.7025 34.551 21.4896 34.8951ZM17.1587 27.7005L9.62128 29.6863C9.62128 29.6863 9.75866 29.8803 10.013 30.1392L16.4038 28.4553C16.4038 28.4553 16.3132 29.6222 15.5268 30.6661C17.0144 29.5406 17.1587 27.7005 17.1587 27.7005ZM23.468 45.4147C12.8609 48.2716 7.24897 35.979 5.54992 29.5987C4.76494 26.6536 4.42227 24.4231 4.33094 22.9837C4.32113 22.8342 4.32566 22.7082 4.33623 22.5928C3.78599 22.626 3.52255 22.912 3.57615 23.7386C3.66748 25.1772 4.01016 27.4076 4.79514 30.3536C6.49343 36.733 12.1061 49.0255 22.7132 46.1686C25.022 45.5467 26.7566 44.4138 28.0586 42.9676C26.8585 44.0515 25.3564 44.9052 23.468 45.4147ZM25.4613 20.1774V20.9323H29.6218C29.5365 20.665 29.4505 20.4242 29.3651 20.1774H25.4613Z" fill="black"/>
<path id="Vector_2" d="M30.5519 26.3945C32.423 26.9259 33.4126 28.2377 33.9356 29.3986L36.0219 29.9911C36.0219 29.9911 35.7373 25.9281 32.0622 24.8842C28.6241 23.9074 26.5084 26.7945 26.2511 27.1681C27.2512 26.4556 28.7117 25.8722 30.5519 26.3945ZM47.1589 29.4174C43.7176 28.4361 41.6027 31.3293 41.3492 31.6976C42.3501 30.9859 43.8098 30.4024 45.6492 30.927C47.5173 31.4592 48.5061 32.7694 49.0308 33.9312L51.12 34.5259C51.12 34.5259 50.8308 30.4621 47.1589 29.4174ZM45.0862 40.1302L27.7312 35.2784C27.7312 35.2784 27.9191 36.231 28.64 37.4643L43.2521 41.5493C44.4551 40.8533 45.0862 40.1302 45.0862 40.1302ZM33.054 50.5735C19.3122 46.8893 20.9735 29.3805 23.1971 21.0837C24.1127 17.6646 25.0539 15.1232 25.8345 13.4196C25.3687 13.3237 24.983 13.5691 24.6019 14.3442C23.7731 16.0251 22.7133 18.762 21.6876 22.5934C19.4647 30.89 17.8034 48.3982 31.5445 52.0824C38.0213 53.8176 43.067 51.1804 46.8283 47.0388C43.2581 50.2724 38.6999 52.0854 33.054 50.5735Z" fill="black"/>
<path id="Vector_3" d="M25.4613 41.3117V37.7785L15.6445 40.5621C15.6445 40.5621 16.3699 36.3474 21.4896 34.8951C23.0422 34.4551 24.367 34.4581 25.4613 34.6694V20.1774H30.3765C29.8414 18.5236 29.3237 17.2504 28.8888 16.3657C28.1695 14.9015 27.4321 15.8721 25.758 17.2723C24.579 18.2573 21.5991 20.3587 17.1149 21.567C12.6306 22.7761 9.00537 22.4555 7.49277 22.1935C5.34839 21.8236 4.22677 21.3527 4.3317 22.9837C4.42302 24.4223 4.76571 26.6528 5.55069 29.5987C7.24896 35.9783 12.8616 48.2708 23.4688 45.4139C26.2395 44.6674 28.1952 43.1918 29.5508 41.3109H25.4613V41.3117ZM9.62053 29.6863L17.1587 27.7005C17.1587 27.7005 16.939 30.6004 14.113 31.3454C11.2863 32.0896 9.62053 29.6863 9.62053 29.6863Z" fill="#323232"/>
<path id="Vector_4" d="M53.8312 20.3449C51.8717 20.6885 47.1708 21.1164 41.3613 19.5592C35.5502 18.0029 31.6946 15.2811 30.167 14.0017C28.0015 12.1879 27.0489 10.9274 26.1115 12.834C25.2827 14.5157 24.2229 17.2526 23.1971 21.0839C20.9743 29.3806 19.313 46.8887 33.0539 50.573C46.792 54.2541 54.1059 38.2599 56.3288 29.9625C57.3546 26.132 57.8044 23.2313 57.9282 21.361C58.0694 19.2423 56.6141 19.8573 53.8312 20.3449ZM26.2232 27.2091C26.2232 27.2091 28.3886 23.8411 32.0614 24.885C35.7365 25.929 36.0211 29.992 36.0211 29.992L26.2232 27.2091ZM35.1885 42.3223C28.7284 40.43 27.732 35.2785 27.732 35.2785L45.0862 40.1304C45.0862 40.1296 41.5832 44.1911 35.1885 42.3223ZM41.3243 31.7355C41.3243 31.7355 43.4867 28.3699 47.1589 29.4168C50.8308 30.4623 51.12 34.5253 51.12 34.5253L41.3243 31.7355Z" fill="#595959"/>
<path id="Vector_5" d="M22.0307 38.7512L15.6444 40.5612C15.6444 40.5612 16.3382 36.6092 21.0427 35.0431L17.4265 21.4719L17.114 21.5669C12.6298 22.7762 9.00451 22.4554 7.49192 22.1934C5.34755 21.8236 4.22593 21.3525 4.33084 22.9838C4.42218 24.4224 4.76485 26.6527 5.54983 29.5988C7.24812 35.9781 12.8608 48.2707 23.4679 45.4138L23.7803 45.3157L22.0307 38.7512ZM9.62043 29.6863L17.1586 27.7004C17.1586 27.7004 16.9389 30.6003 14.1129 31.3453C11.2863 32.0895 9.62043 29.6863 9.62043 29.6863Z" fill="#282828"/>
<path id="Vector_6" d="M35.4799 42.3932L35.1878 42.3222C28.7276 40.43 27.7312 35.2785 27.7312 35.2785L36.6801 37.7799L41.4178 19.5743L41.3605 19.5592C35.5494 18.0029 31.6939 15.2811 30.1662 14.0017C28.0007 12.1879 27.0482 10.9274 26.1107 12.834C25.2827 14.5157 24.2229 17.2526 23.1971 21.0839C20.9743 29.3806 19.313 46.8887 33.0539 50.5728L33.3356 50.6363L35.4799 42.3932ZM26.2232 27.2091C26.2232 27.2091 28.3886 23.8411 32.0614 24.885C35.7365 25.929 36.0211 29.992 36.0211 29.992L26.2232 27.2091Z" fill="#646464"/>
<path id="Vector_7" d="M22.3566 38.6585L20.644 39.1446C21.0486 41.4255 21.7617 43.6144 22.8811 45.5482C23.0759 45.5052 23.2692 45.4682 23.4676 45.4139C23.9877 45.2735 24.4699 45.0998 24.9342 44.9103C23.6835 43.0544 22.8562 40.9168 22.3566 38.6585ZM21.6879 22.5935C20.8078 25.8784 20.0204 30.6063 20.2371 35.3487C20.6251 35.1803 21.0349 35.0234 21.49 34.8943L21.8071 34.8234C21.4206 29.7579 22.2561 24.596 23.1973 21.0839C23.436 20.1954 23.6752 19.369 23.9137 18.5984C23.5295 18.8428 23.1159 19.0934 22.6448 19.3516C22.3272 20.3321 22.0063 21.4039 21.6879 22.5935Z" fill="black"/>
</g>
</svg>
