<svg width="51" height="48" viewBox="0 0 51 48" fill="none" xmlns="http://www.w3.org/2000/svg">
<path d="M43.8072 12.2416C47.3376 12.2417 49.0021 14.7343 49.8736 18.0473C51.0864 22.6489 51.1403 26.0988 49.8736 29.6859C48.6473 33.1702 47.3332 35.4915 43.8072 35.4916H25.6216V36.9467H37.7408V41.3109C37.7407 44.6153 34.7288 46.2956 31.6744 47.1303C27.0792 48.3887 23.3958 48.1961 19.5552 47.1303C16.348 46.2399 13.4889 44.4142 13.4888 41.3109V30.4066C13.4888 27.269 16.2356 24.5873 19.5552 24.5873H31.6744C35.7125 24.5871 39.2535 21.2688 39.2535 17.3266V12.2416H43.8072ZM32.4371 39.8559C31.184 39.8561 30.1607 40.829 30.1607 42.0316C30.1608 43.2385 31.184 44.2199 32.4371 44.2201C33.6948 44.2201 34.7143 43.2387 34.7144 42.0316C34.7144 40.8288 33.6948 39.8559 32.4371 39.8559ZM25.3521 0.0033226C27.4262 -0.00576756 29.5891 0.142663 31.6734 0.470119C34.9659 0.988148 37.7398 3.31993 37.7398 6.42324V17.3275C37.7396 20.5249 35.0466 23.1457 31.6734 23.1459H19.5542C15.4396 23.1459 11.9742 26.4804 11.9742 30.2602V35.4916H7.80326C4.27705 35.4916 2.21651 33.0761 1.35405 29.6859C0.190748 25.1318 0.240157 22.4098 1.35405 18.0482C2.31982 14.2428 5.40791 12.2426 8.93412 12.2426H25.6206V10.7875H13.4878V6.42324C13.4878 3.11866 14.4199 1.32623 19.5542 0.470119C21.2971 0.17906 23.278 0.0124185 25.3521 0.0033226ZM18.7906 3.51309C17.5328 3.51309 16.5142 4.49543 16.5142 5.70254C16.5143 6.90527 17.5329 7.87735 18.7906 7.87735C20.0437 7.87731 21.0668 6.90525 21.0669 5.70254C21.0669 4.49545 20.0438 3.51313 18.7906 3.51309Z" fill="black"/>
</svg>
