<svg width="48" height="48" viewBox="0 0 48 48" fill="none" xmlns="http://www.w3.org/2000/svg">
<path fill-rule="evenodd" clip-rule="evenodd" d="M17.9831 0.46752C19.6281 0.176446 21.4976 0.00948873 23.4552 0.000392611C25.4129 -0.00870364 27.454 0.140061 29.4211 0.46752C32.5288 0.985459 35.1468 3.31669 35.1468 6.42006V17.3241C35.1468 20.5217 32.6051 23.1432 29.4211 23.1432H17.9831C14.0997 23.1432 10.8294 26.4772 10.8294 30.2569V35.4887H6.89217C3.56409 35.4887 1.62015 33.0732 0.806146 29.683C-0.291907 25.1285 -0.245271 22.4067 0.806146 18.0449C1.71766 14.2395 4.63182 12.2391 7.95989 12.2391H12.2575H23.7088V10.7844H12.2575V6.42006C12.2575 3.11551 13.1373 1.32362 17.9831 0.46752ZM19.4112 5.69935C19.4112 4.49224 18.4453 3.51052 17.2624 3.51052C16.0753 3.51052 15.1136 4.49224 15.1136 5.69935C15.1136 6.90217 16.0753 7.87482 17.2624 7.87482C18.4453 7.87482 19.4112 6.90217 19.4112 5.69935ZM36.5749 17.3242V12.2392H40.8725C44.2048 12.2392 45.7757 14.7319 46.5981 18.045C47.7428 22.6465 47.7937 26.096 46.5981 29.6831C45.4407 33.1674 44.2006 35.4888 40.8725 35.4888H35.1468H23.7088V36.9436H35.1468V41.3079C35.1468 44.6124 32.3041 46.2923 29.4211 47.127C25.0841 48.3854 21.608 48.1928 17.9832 47.127C14.9561 46.2366 12.2575 44.4113 12.2575 41.3079V30.4038C12.2575 27.2662 14.8501 24.5847 17.9832 24.5847H29.4211C33.2325 24.5847 36.5749 21.2666 36.5749 17.3242ZM32.2907 42.0286C32.2907 40.8258 31.3289 39.8531 30.1419 39.8531C28.959 39.8531 27.9931 40.8258 27.9931 42.0286C27.9931 43.2357 28.959 44.2174 30.1419 44.2174C31.3289 44.2174 32.2907 43.2357 32.2907 42.0286Z" fill="black"/>
</svg>
