<svg width="48" height="48" viewBox="0 0 48 48" fill="none" xmlns="http://www.w3.org/2000/svg">
<g id="Pillow 1">
<path id="Vector" d="M24.2796 40.1167C18.8111 40.1445 13.372 39.3145 8.16068 37.657L3.89516 38.7688C3.59888 38.8461 3.28763 38.8453 2.99172 38.7666C2.69582 38.6878 2.42534 38.5338 2.20662 38.3195C1.98789 38.1053 1.82838 37.838 1.7436 37.5438C1.65882 37.2495 1.65167 36.9384 1.72284 36.6406L2.76068 32.3057C-0.260728 25.14 2.23268 16.8775 2.70489 15.4525L1.50489 11.316C1.41697 11.0131 1.41139 10.6922 1.48874 10.3865C1.56608 10.0807 1.72355 9.80105 1.94492 9.57638C2.16629 9.3517 2.44356 9.1901 2.74817 9.10824C3.05277 9.02637 3.37369 9.0272 3.67787 9.11062L8.16781 10.3431C10.0301 9.70154 24.3004 5.14803 39.8368 10.3463L44.3592 9.17224C44.6623 9.09327 44.9809 9.09606 45.2826 9.18031C45.5843 9.26456 45.8583 9.42728 46.0766 9.65188C46.2949 9.87648 46.4498 10.1549 46.5255 10.4589C46.6012 10.7628 46.595 11.0814 46.5075 11.3822L45.3004 15.5485C45.7726 16.9755 48.266 25.2367 45.2446 32.4029L46.2662 36.7022C46.3373 37.0018 46.3291 37.3147 46.2426 37.6103C46.156 37.9058 45.9941 38.1737 45.7726 38.3876C45.5512 38.6015 45.2778 38.7541 44.9795 38.8304C44.6812 38.9067 44.3681 38.904 44.0712 38.8226L39.8271 37.6577C34.8109 39.3096 29.5607 40.14 24.2796 40.1167ZM8.19311 36.3305C8.27107 36.3308 8.34837 36.3448 8.42143 36.372C8.56998 36.4285 23.4052 41.8641 39.6052 36.3649C39.728 36.3233 39.8604 36.3195 39.9853 36.3539L44.4156 37.5701C44.4948 37.5927 44.5786 37.5939 44.6583 37.5735C44.7381 37.5531 44.8111 37.5118 44.8697 37.454C44.9295 37.3965 44.973 37.3242 44.9957 37.2444C45.0185 37.1647 45.0198 37.0803 44.9994 36.9999L43.9278 32.4918C43.8951 32.3548 43.9079 32.2109 43.9641 32.0819C47.1425 24.8125 44.0361 15.8695 44.0044 15.78C43.9588 15.6518 43.9545 15.5126 43.992 15.3818L45.2562 11.0189C45.281 10.9384 45.2835 10.8526 45.2632 10.7708C45.243 10.689 45.2009 10.6142 45.1414 10.5545C45.0831 10.4935 45.0095 10.4493 44.9283 10.4264C44.847 10.4036 44.7611 10.403 44.6796 10.4248L39.9704 11.6475C39.8482 11.6799 39.7191 11.6754 39.5994 11.6345C23.3974 6.13462 8.56414 11.5696 8.4156 11.6274C8.28745 11.6755 8.14736 11.6819 8.01538 11.6455L3.33214 10.3632C3.25047 10.3404 3.16422 10.34 3.08231 10.3618C3.00039 10.3836 2.92581 10.4269 2.86626 10.4873C2.80672 10.5476 2.76439 10.6227 2.74366 10.7049C2.72293 10.7871 2.72455 10.8734 2.74835 10.9547L4.00479 15.2877C4.04243 15.4183 4.03812 15.5573 3.99246 15.6853C3.96068 15.7748 0.851705 24.7178 4.03268 31.9872C4.08925 32.1166 4.10201 32.261 4.069 32.3984L2.98446 36.9389C2.96529 37.019 2.96719 37.1026 2.98996 37.1817C3.01274 37.2607 3.05562 37.3325 3.11442 37.3901C3.17322 37.4477 3.24594 37.489 3.32547 37.5101C3.40501 37.5312 3.48865 37.5313 3.56825 37.5104L8.02641 36.3487C8.07987 36.3355 8.13482 36.3294 8.18987 36.3305H8.19311Z" fill="black"/>
<path id="Vector_2" d="M37.3511 15.2598C37.2802 15.2596 37.2099 15.2478 37.1429 15.2248C32.9742 13.8298 28.6047 13.1285 24.2088 13.1491C19.7237 13.1266 15.263 13.8115 10.9913 15.1788C10.8298 15.2379 10.6513 15.2305 10.4953 15.1581C10.3392 15.0858 10.2183 14.9543 10.1591 14.7928C10.0999 14.6313 10.1073 14.4528 10.1797 14.2968C10.2521 14.1407 10.3835 14.0198 10.545 13.9606C14.9566 12.5272 19.5704 11.8145 24.2088 11.8499C28.7456 11.8301 33.2549 12.5555 37.5567 13.9969C37.7023 14.0463 37.8256 14.1458 37.9046 14.2776C37.9837 14.4094 38.0134 14.565 37.9884 14.7167C37.9634 14.8684 37.8853 15.0062 37.7681 15.1057C37.6509 15.2052 37.5022 15.2598 37.3485 15.2598H37.3511Z" fill="black"/>
</g>
</svg>
