<svg width="54" height="54" viewBox="0 0 54 54" fill="none" xmlns="http://www.w3.org/2000/svg">
<g id="Group">
<path id="Vector" d="M21.1391 0.745472C17.4522 1.77766 13.8368 3.88028 11.0448 6.63279C8.50331 9.15593 5.56808 14.164 4.56581 17.7958C4.24365 18.9427 3.81411 19.5543 2.88342 20.0513C0.55672 21.3893 -0.552939 24.2948 0.270356 26.8944C0.664106 28.2706 2.77604 30.5644 3.63513 30.5644C3.8857 30.5644 4.35104 31.5583 4.70899 32.7435C5.06695 33.9668 6.14081 36.3752 7.10729 38.1338C8.71808 41.0775 8.86126 41.5362 8.86126 43.7917C8.86126 46.7736 9.64876 48.1499 12.5482 50.176C16.6289 53.005 20.6738 54.0372 27.4749 53.999C34.8488 53.9608 39.359 52.4316 43.0817 48.838L45.0147 46.9265V44.0593C45.0147 41.5362 45.122 41.0392 45.9453 40.007C47.055 38.5925 48.63 35.2666 49.4533 32.6288C49.9186 31.0614 50.3124 30.5261 51.1357 30.1821C53.8561 28.9587 54.93 24.2183 53.0686 21.8481C52.2095 20.7394 52.1737 20.5101 52.1737 15.0815C52.1737 9.53823 52.1737 9.46177 53.0686 8.69718C54.8584 7.20623 53.713 3.80382 51.422 3.80382C49.1311 3.80382 48.0573 7.20623 49.847 8.8501C50.7061 9.65292 50.7419 9.84406 50.7419 14.5845C50.7419 17.2606 50.5988 19.4779 50.4198 19.4779C50.2766 19.4779 49.7755 18.4839 49.3459 17.2606C46.3749 8.69718 40.6834 3.03923 32.8084 0.745472C29.3363 -0.248489 24.6828 -0.248489 21.1391 0.745472ZM33.9181 7.2827C39.5022 8.35312 44.1914 11.7555 46.0527 16.1137C47.6635 19.9366 48.3078 25.5946 47.5203 29.4175C46.5897 33.8521 44.1198 38.5543 41.3993 41.0392C40.0033 42.3008 39.6811 42.4155 37.6408 42.4155C36.4238 42.4155 34.1686 42.0714 32.6294 41.6509C29.0141 40.6952 25.1124 40.6952 21.5328 41.6509C18.1681 42.5684 14.9465 42.6449 13.5147 41.842C12.9419 41.5362 11.7607 40.2746 10.9016 39.0895C8.25274 35.3813 7.0357 32.3229 6.35558 27.6972C5.60388 22.3068 7.50104 15.6167 10.83 12.1761C12.6556 10.2264 16.0561 8.27666 18.7766 7.58853C22.6783 6.55634 29.4436 6.44165 33.9181 7.2827Z" fill="black"/>
<path id="Vector_2" d="M21.2464 12.0606C14.9464 13.6662 11.7249 18.1773 11.7249 25.2879C11.7249 27.0465 11.868 28.6521 12.0112 28.9197C12.1902 29.2255 12.9061 28.9197 14.4095 27.8493C18.347 25.0968 25.2197 22.6501 28.2266 22.9942C29.3004 23.1088 29.3004 23.1471 27.2601 24.2175C22.7499 26.5877 18.3828 30.0666 15.6266 33.3925L14.5527 34.6923L15.6624 36.0686C17.13 37.8271 18.4902 38.0948 22.4277 37.2537C25.7925 36.5656 28.5845 36.6038 32.6652 37.4449C35.7794 38.0565 36.8533 37.7889 38.4283 35.9921C41.3277 32.5897 42.8669 27.3141 42.151 22.9177C41.1487 16.801 38.2493 13.3986 32.8442 12.0606C29.9447 11.3342 24.0743 11.3342 21.2464 12.0606Z" fill="black"/>
</g>
</svg>
