<svg width="48" height="48" viewBox="0 0 48 48" fill="none" xmlns="http://www.w3.org/2000/svg">
<g id="pytorch-icon 1" clip-path="url(#clip0_14130_61405)">
<g id="Group">
<path id="Vector" d="M38.1158 14.1055L34.6309 17.5903C40.4391 23.3985 40.4391 32.8574 34.6309 38.6655C28.8228 44.4737 19.3639 44.4737 13.5557 38.6655C7.7476 32.8574 7.7476 23.3985 13.5557 17.5903L22.8487 8.29732L24.0104 6.96975V0L9.9049 14.1055C8.05148 15.9402 6.58018 18.1241 5.57606 20.531C4.57194 22.9379 4.05493 25.52 4.05493 28.1279C4.05493 30.7359 4.57194 33.3179 5.57606 35.7248C6.58018 38.1317 8.05148 40.3157 9.9049 42.1504C11.7396 44.0038 13.9236 45.4751 16.3305 46.4793C18.7374 47.4834 21.3194 48.0004 23.9274 48.0004C26.5353 48.0004 29.1174 47.4834 31.5243 46.4793C33.9312 45.4751 36.1151 44.0038 37.9499 42.1504C45.9153 34.3509 45.9153 21.739 38.1158 14.1055Z" fill="black"/>
<path id="Vector_2" d="M31.1461 13.1101C32.6125 13.1101 33.8013 11.9213 33.8013 10.4549C33.8013 8.98855 32.6125 7.7998 31.1461 7.7998C29.6797 7.7998 28.491 8.98855 28.491 10.4549C28.491 11.9213 29.6797 13.1101 31.1461 13.1101Z" fill="black"/>
</g>
</g>
<defs>
<clipPath id="clip0_14130_61405">
<rect width="48" height="48" fill="white"/>
</clipPath>
</defs>
</svg>
