<svg width="54" height="54" viewBox="0 0 54 54" fill="none" xmlns="http://www.w3.org/2000/svg">
<g id="Frame" clip-path="url(#clip0_4730_34384)">
<path id="Vector" d="M28.64 54.0001C42.6459 54.0001 53.9998 42.6503 53.9998 28.6496C53.9998 14.6488 42.6459 3.29901 28.64 3.29901C14.6342 3.29901 3.28027 14.6488 3.28027 28.6496C3.28027 42.6503 14.6342 54.0001 28.64 54.0001Z" fill="black"/>
<path id="Vector_2" d="M2.1313 10.6232L22.2659 1.96355C22.3375 1.93162 22.4182 1.92593 22.4936 1.94748C22.569 1.96902 22.6344 2.01642 22.6784 2.08136L33.5609 17.5352C33.5948 17.5812 33.6174 17.6347 33.6267 17.6911C33.6361 17.7475 33.632 17.8054 33.6148 17.8599C33.5975 17.9144 33.5677 17.9642 33.5276 18.005C33.4875 18.0458 33.4384 18.0766 33.3841 18.0948L30.4376 19.0766C30.3834 19.0966 30.3347 19.1291 30.2956 19.1716C30.2564 19.2141 30.228 19.2653 30.2127 19.321C30.1973 19.3767 30.1954 19.4352 30.2072 19.4917C30.219 19.5483 30.2441 19.6012 30.2804 19.6461L38.8745 30.4461C38.9126 30.493 38.9383 30.5487 38.9494 30.6081C38.9605 30.6675 38.9567 30.7287 38.9381 30.7863C38.9196 30.8438 38.887 30.8958 38.8433 30.9375C38.7996 30.9793 38.7462 31.0095 38.6879 31.0254L34.9654 31.9385C34.9063 31.9531 34.8518 31.9824 34.8069 32.0237C34.7621 32.0649 34.7283 32.1167 34.7088 32.1744C34.6892 32.2321 34.6845 32.2938 34.695 32.3538C34.7055 32.4137 34.731 32.4701 34.769 32.5177L47.4587 48.541C47.5101 48.6036 47.5384 48.682 47.5389 48.763C47.5394 48.844 47.5121 48.9227 47.4615 48.986C47.4108 49.0493 47.34 49.0932 47.2608 49.1105C47.1817 49.1278 47.0989 49.1174 47.0265 49.081L18.5435 32.6454C18.4855 32.6107 18.4384 32.5606 18.4074 32.5007C18.3763 32.4408 18.3626 32.3735 18.3677 32.3062C18.3728 32.2389 18.3965 32.1744 18.4362 32.1199C18.476 32.0653 18.5301 32.0229 18.5926 31.9974L22.0302 30.6326C22.0892 30.6072 22.1405 30.5666 22.1787 30.5149C22.2169 30.4632 22.2407 30.4024 22.2477 30.3385C22.2547 30.2746 22.2446 30.21 22.2185 30.1513C22.1923 30.0926 22.1511 30.0418 22.0989 30.0043L10.5289 21.6588C10.4793 21.6196 10.4405 21.5685 10.4161 21.5102C10.3917 21.4519 10.3825 21.3884 10.3894 21.3256C10.3963 21.2628 10.419 21.2028 10.4554 21.1512C10.4918 21.0995 10.5408 21.058 10.5977 21.0305L13.2397 19.8719C13.2981 19.8455 13.3485 19.8041 13.3857 19.7519C13.423 19.6997 13.4458 19.6387 13.4517 19.5748C13.4577 19.511 13.4467 19.4468 13.4198 19.3886C13.3929 19.3304 13.3511 19.2804 13.2986 19.2435L2.06255 11.2515C2.0104 11.214 1.96915 11.1632 1.94301 11.1045C1.91687 11.0458 1.90679 10.9812 1.91378 10.9173C1.92077 10.8535 1.94458 10.7926 1.9828 10.7409C2.02101 10.6892 2.07226 10.6486 2.1313 10.6232Z" fill="white"/>
<path id="Vector_3" d="M22.3939 1.96366C22.4498 1.96322 22.505 1.9764 22.5546 2.00207C22.6042 2.02773 22.6469 2.0651 22.6788 2.11094L33.5613 17.5353C33.5952 17.5814 33.6178 17.6348 33.6271 17.6912C33.6365 17.7476 33.6324 17.8055 33.6151 17.86C33.5979 17.9146 33.568 17.9643 33.528 18.0051C33.4879 18.0459 33.4387 18.0767 33.3845 18.0949L30.438 19.0768C30.3837 19.0967 30.335 19.1292 30.2959 19.1717C30.2568 19.2142 30.2284 19.2654 30.213 19.3211C30.1977 19.3768 30.1958 19.4353 30.2076 19.4919C30.2194 19.5484 30.2445 19.6013 30.2808 19.6462L38.8749 30.4462C38.9129 30.4931 38.9387 30.5488 38.9498 30.6082C38.9609 30.6676 38.957 30.7289 38.9385 30.7864C38.92 30.8439 38.8874 30.8959 38.8437 30.9376C38.8 30.9794 38.7466 31.0096 38.6882 31.0255L34.9658 31.9386C34.9067 31.9532 34.8522 31.9825 34.8073 32.0238C34.7625 32.065 34.7287 32.1168 34.7092 32.1745C34.6896 32.2322 34.6849 32.2939 34.6954 32.3539C34.7059 32.4139 34.7313 32.4703 34.7694 32.5178L47.4591 48.5411C47.5007 48.5933 47.5271 48.656 47.5354 48.7222C47.5437 48.7884 47.5336 48.8557 47.5062 48.9165C47.4788 48.9774 47.4352 49.0295 47.3801 49.0672C47.325 49.1049 47.2605 49.1267 47.1939 49.1302C47.1394 49.1463 47.0814 49.1463 47.0269 49.1302L18.5438 32.6946C18.4859 32.6599 18.4388 32.6099 18.4077 32.5499C18.3767 32.49 18.363 32.4227 18.3681 32.3554C18.3731 32.2881 18.3969 32.2236 18.4366 32.1691C18.4763 32.1145 18.5305 32.0721 18.5929 32.0466L22.0305 30.6818C22.0896 30.6564 22.1408 30.6158 22.1791 30.5641C22.2173 30.5125 22.2411 30.4516 22.2481 30.3877C22.2551 30.3238 22.245 30.2592 22.2188 30.2005C22.1927 30.1418 22.1515 30.0911 22.0993 30.0535L10.5293 21.708C10.4797 21.6688 10.4409 21.6177 10.4165 21.5594C10.3921 21.5012 10.3829 21.4376 10.3898 21.3748C10.3967 21.312 10.4194 21.252 10.4558 21.2004C10.4922 21.1488 10.5412 21.1072 10.598 21.0797L13.2401 19.9211C13.2985 19.8947 13.3489 19.8533 13.3861 19.8011C13.4234 19.749 13.4461 19.6879 13.4521 19.624C13.4581 19.5602 13.4471 19.496 13.4202 19.4378C13.3933 19.3796 13.3515 19.3296 13.299 19.2928L2.06292 11.2517C2.01077 11.2141 1.96952 11.1634 1.94338 11.1046C1.91724 11.0459 1.90716 10.9813 1.91415 10.9175C1.92114 10.8536 1.94495 10.7927 1.98317 10.741C2.02138 10.6893 2.07263 10.6487 2.13167 10.6233L22.2663 1.96366C22.3083 1.95464 22.3519 1.95464 22.3939 1.96366ZM22.3939 2.83632e-05C22.0862 -0.00154103 21.7816 0.0620345 21.5002 0.186574L1.3754 8.83639C1.00856 8.99773 0.690788 9.25293 0.454127 9.57624C0.217467 9.89955 0.0702942 10.2795 0.0274584 10.6779C-0.0153774 11.0762 0.0476387 11.4788 0.210149 11.845C0.372659 12.2112 0.628915 12.5281 0.953062 12.7637L9.94979 19.1651L9.81228 19.224C9.45056 19.3908 9.13841 19.6486 8.90642 19.9723C8.67444 20.296 8.5306 20.6744 8.489 21.0704C8.44741 21.4664 8.50949 21.8664 8.66915 22.2312C8.82882 22.596 9.08059 22.9131 9.39977 23.1513L18.6617 29.8964L17.8661 30.2106C17.4701 30.3713 17.1271 30.6397 16.8758 30.9853C16.6245 31.3309 16.4751 31.7399 16.4444 32.166C16.4138 32.5922 16.5031 33.0184 16.7023 33.3964C16.9015 33.7743 17.2026 34.089 17.5715 34.3048L46.0546 50.7404C46.3965 50.9423 46.7869 51.0476 47.1841 51.0448C47.6107 51.0413 48.0278 50.9181 48.3879 50.6893C48.7479 50.4605 49.0365 50.1353 49.2207 49.7506C49.4049 49.3659 49.4774 48.9372 49.4299 48.5134C49.3824 48.0895 49.2168 47.6875 48.952 47.3531L37.7945 33.2051L39.1793 32.8713C39.5457 32.7806 39.8838 32.6003 40.1632 32.3467C40.4426 32.0931 40.6547 31.774 40.7803 31.4182C40.9012 31.0554 40.9305 30.6682 40.8653 30.2913C40.8002 29.9144 40.6428 29.5595 40.407 29.2582L33.1979 20.1666L33.9738 19.9113C34.312 19.8039 34.6201 19.6181 34.8727 19.369C35.1253 19.1198 35.3154 18.8145 35.4274 18.4778C35.5395 18.1378 35.5712 17.7765 35.52 17.4222C35.4689 17.0678 35.3364 16.7302 35.1328 16.4357L24.2404 0.981847C24.0346 0.681534 23.7592 0.435413 23.4377 0.264459C23.1162 0.0935047 22.7581 0.00278421 22.3939 2.83632e-05Z" fill="black"/>
</g>
<defs>
<clipPath id="clip0_4730_34384">
<rect width="54" height="54" fill="white"/>
</clipPath>
</defs>
</svg>
