<svg width="58" height="58" viewBox="0 0 58 58" fill="none" xmlns="http://www.w3.org/2000/svg">
<g clip-path="url(#clip0_4159_29346)">
<path d="M41.3962 0C39.1396 0.0199375 36.903 0.34075 34.7316 0.9715L34.5812 1.02044C33.22 0.783 31.8334 0.6525 30.4559 0.6235C27.6049 0.574563 25.158 1.26331 23.186 2.41606C21.2412 1.74725 17.2102 0.574563 12.9617 0.812C10.0091 0.9715 6.77926 1.86869 4.37951 4.39894C2.00151 6.92013 0.738196 10.8279 1.00101 16.153C1.07532 17.6157 1.4922 20.0028 2.19001 23.1076C2.87876 26.2051 3.85207 29.8301 5.07007 33.1434C6.28807 36.4476 7.61663 39.4201 9.69557 41.4392C10.7323 42.4488 12.1678 43.3097 13.8571 43.2354C15.0388 43.1864 16.1046 42.6681 17.0308 41.9032C17.4821 42.4977 17.966 42.7514 18.3992 42.9889C18.9574 43.2916 19.4849 43.4982 20.0431 43.6323C21.0436 43.8861 22.7528 44.2178 24.7538 43.877C25.4335 43.7628 26.1513 43.5381 26.869 43.2263C26.898 44.0184 26.927 44.8014 26.9542 45.5953C27.0575 48.0965 27.1264 50.4093 27.8695 52.4393C27.9928 52.7709 28.3244 54.4693 29.6258 55.9791C30.9381 57.4889 33.4846 58.4241 36.4028 57.8006C38.4527 57.3656 41.0663 56.5736 42.8045 54.1013C44.5228 51.6653 45.2967 48.1636 45.4489 42.4796C45.4852 42.1678 45.5341 41.9141 45.5794 41.6676L45.9854 41.7056H46.0344C48.2239 41.7999 50.6037 41.4881 52.5956 40.5619C54.3501 39.7499 55.6823 38.9289 56.6538 37.4662C56.8913 37.1055 57.1631 36.6633 57.232 35.9074C57.3063 35.1625 56.8713 33.9808 56.1536 33.4352C54.7199 32.3404 53.8136 32.7555 52.8403 32.9639C51.8888 33.1724 50.9136 33.2829 49.9421 33.3119C52.7352 28.6121 54.7362 23.6096 55.8799 19.1889C56.5596 16.5735 56.9384 14.1665 56.9656 12.0622C57.0036 9.95788 56.826 8.09825 55.5681 6.48513C51.6223 1.45363 46.0797 0.054375 41.7949 0.0090625C41.6626 0.0090625 41.5321 0.0090625 41.398 0.0090625L41.3962 0ZM41.282 1.54969C45.3329 1.51163 50.5131 2.64444 54.2323 7.40044C55.0733 8.468 55.3198 10.0249 55.2908 11.9516C55.2618 13.8783 54.9048 16.1711 54.2523 18.6923C52.998 23.5843 50.6073 29.2646 47.2578 34.3741C47.372 34.4593 47.5025 34.5336 47.6348 34.5825C48.3326 34.8743 49.9276 35.119 53.1176 34.4683C53.9206 34.2961 54.5078 34.1856 55.1204 34.6478C55.4231 34.9015 55.5826 35.2803 55.5627 35.6773C55.5264 35.9691 55.4231 36.2518 55.2419 36.4893C54.6274 37.4118 53.4131 38.2927 51.8543 39.0195C50.4768 39.6593 48.4921 39.991 46.7485 40.0109C45.8622 40.02 45.0502 39.9529 44.3578 39.7354L44.3216 39.7282C44.0551 42.2856 43.4443 47.3461 43.0456 49.648C42.7266 51.5058 42.1683 52.9903 41.1026 54.0941C40.035 55.2088 38.5343 55.8685 36.5043 56.3035C33.9939 56.8418 32.1706 56.2654 30.9924 55.274C29.8143 54.2826 29.2742 52.9613 28.9534 52.1583C28.7286 51.6019 28.6144 50.8841 28.5021 49.9199C28.3879 48.9574 28.3136 47.7866 28.2556 46.4562C28.1813 44.4262 28.1523 42.3962 28.1813 40.3571C27.1354 41.3214 25.8323 41.9521 24.433 42.1986C22.7637 42.4814 21.2811 42.1986 20.3948 41.9811C19.9598 41.8669 19.5338 41.7074 19.1387 41.4899C18.7236 41.2724 18.3358 41.0278 18.0729 40.5348C17.9207 40.252 17.8754 39.9239 17.9406 39.6122C18.0149 39.2914 18.2034 39.0177 18.4608 38.8093C18.9411 38.4196 19.5755 38.2057 20.5271 38.0063C22.2653 37.6456 22.8779 37.4028 23.2458 37.1073C23.5576 36.8626 23.9183 36.3533 24.5381 35.6066C24.5381 35.5794 24.5381 35.5413 24.5291 35.5123C23.4071 35.4761 22.3106 35.1843 21.3191 34.6441C20.9621 35.0211 19.1006 36.9859 16.8459 39.7046C15.9016 40.8356 14.8539 41.4881 13.7411 41.5371C12.6373 41.5824 11.6331 41.0278 10.7849 40.2049C9.08657 38.5519 7.72538 35.7099 6.54545 32.4999C5.36551 29.29 4.41213 25.7139 3.72338 22.6744C3.0437 19.6239 2.6377 17.1698 2.5797 15.9899C2.32595 10.9584 3.50588 7.57081 5.52501 5.42663C7.54413 3.28244 10.3118 2.48131 13.0124 2.32181C17.8554 2.04813 22.461 3.73738 23.3872 4.09625C25.1798 2.87825 27.4925 2.12425 30.3816 2.16956C31.7519 2.1895 33.1094 2.36713 34.4416 2.69881L34.4906 2.66981C35.076 2.47225 35.6705 2.29281 36.2741 2.16231C37.918 1.77263 39.5964 1.57506 41.2766 1.54788L41.282 1.54969ZM41.6499 3.16281H41.2929C39.9154 3.17913 38.5252 3.34225 37.1767 3.63406C40.1873 4.96625 42.4619 7.01256 44.066 9.07156C45.1807 10.4871 46.096 12.0441 46.7938 13.7061C47.0693 14.3496 47.2488 14.8861 47.343 15.3011C47.3992 15.5096 47.4282 15.6872 47.4463 15.8666C47.4463 15.9609 47.4554 16.0569 47.4083 16.2164C47.4083 16.2255 47.3992 16.2454 47.3992 16.2545C47.4771 18.3697 46.9479 19.8016 46.879 21.8225C46.8337 23.287 47.2107 25.0053 47.3049 26.883C47.3901 28.6466 47.1744 30.5823 46.0308 32.4891C46.125 32.6033 46.2102 32.7156 46.3044 32.8389C49.3349 28.0611 51.5244 22.7849 52.6863 18.2809C53.3098 15.8539 53.6378 13.6554 53.6668 11.9208C53.6958 10.1826 53.375 8.9175 52.9581 8.39006C49.7101 4.24488 45.3221 3.18638 41.6481 3.161L41.6499 3.16281ZM30.0663 3.7845C27.217 3.79356 25.1671 4.6545 23.6119 5.94681C22.0043 7.28806 20.9294 9.10962 20.2316 10.9874C19.3906 13.2059 19.0988 15.3573 18.9846 16.8218L19.0227 16.8019C19.8836 16.3216 21.0146 15.8304 22.2326 15.5567C23.4416 15.2721 24.7538 15.1869 25.9319 15.6509C27.1228 16.1023 28.0943 17.1879 28.4531 18.821C30.1551 26.6945 27.9257 29.6217 27.1046 31.8293C26.7929 32.6323 26.5192 33.4443 26.3017 34.2744C26.405 34.2544 26.5101 34.2254 26.6134 34.2164C27.1989 34.1711 27.6502 34.3596 27.9166 34.4719C28.7486 34.8199 29.3141 35.5377 29.6258 36.3588C29.7001 36.5763 29.7563 36.801 29.7944 37.0475C29.8234 37.1418 29.8433 37.2451 29.8433 37.3502C29.7491 40.3608 29.7563 43.3731 29.8705 46.3837C29.9285 47.6869 30.0137 48.8288 30.117 49.735C30.2203 50.6322 30.3617 51.3209 30.4578 51.5566C30.7677 52.3305 31.2208 53.3401 32.0437 54.0288C32.8557 54.7194 34.0248 55.1725 36.1689 54.7194C38.0268 54.3134 39.1704 53.7642 39.9335 52.9721C40.7002 52.1692 41.1515 51.0654 41.4433 49.3761C41.8874 46.8368 42.7646 39.4726 42.8698 38.0951C42.8244 37.0457 42.9731 36.2446 43.3138 35.6301C43.6528 35.0066 44.182 34.6206 44.646 34.4121C44.8708 34.3088 45.0883 34.2436 45.2677 34.1856C45.0792 33.9228 44.8816 33.6581 44.6823 33.4026C44.0225 32.5996 43.4733 31.7043 43.0673 30.7509C42.8788 30.3521 42.6704 29.9552 42.4438 29.5782C42.1248 29.0036 41.7188 28.275 41.2929 27.4539C40.4428 25.8299 39.5184 23.8489 39.0363 21.9222C38.556 19.9955 38.4908 18.0054 39.7178 16.6079C40.8035 15.3609 42.7193 14.8444 45.5776 15.1362C45.4924 14.8806 45.4471 14.6631 45.3039 14.3333C44.6533 12.8035 43.8032 11.368 42.7828 10.0648C40.3558 6.96 36.4191 3.88056 30.3508 3.77725L30.0663 3.7845ZM14.0202 3.90775C13.7175 3.90775 13.4058 3.91681 13.1049 3.93675C10.6598 4.07994 8.35613 4.785 6.70313 6.53225C5.05195 8.28856 3.96807 11.1487 4.20188 15.8974C4.25082 16.8037 4.63688 19.314 5.3057 22.3064C5.97813 25.3007 6.9297 28.8224 8.07338 31.9363C9.21345 35.0411 10.5946 37.7508 11.9159 39.034C12.5756 39.6666 13.1502 39.9312 13.6704 39.9131C14.1906 39.8841 14.8231 39.5814 15.5971 38.657C17.0036 36.9587 18.459 35.3148 19.9688 33.7107C17.7956 31.813 16.7299 28.9456 17.1558 26.0928C17.4005 24.3093 17.4386 22.6363 17.4005 21.315C17.3733 20.0318 17.2863 19.1835 17.2863 18.6452C17.2863 18.6252 17.2863 18.6162 17.2863 18.5963V18.5872L17.2773 18.5709C17.2773 15.7851 17.7703 13.0301 18.7128 10.4146C19.3924 8.60938 20.3948 6.78963 21.9028 5.30519C20.4219 4.814 17.7866 4.07994 14.9373 3.93675C14.6346 3.91681 14.3211 3.90775 14.0202 3.90775ZM43.9808 16.6696C42.3405 16.6986 41.4234 17.1245 40.934 17.6701C40.2525 18.4549 40.1873 19.8324 40.6132 21.5325C41.0355 23.2308 41.9164 25.1285 42.7374 26.7072C43.1434 27.4993 43.5404 28.2079 43.8594 28.7825C44.1911 29.3679 44.4267 29.7739 44.5681 30.1328C44.7004 30.4536 44.8526 30.7364 45.0031 31.001C45.6356 29.6598 45.7498 28.3475 45.6828 26.97C45.5976 25.2717 45.2024 23.5335 45.2677 21.779C45.3348 19.72 45.7408 18.3788 45.7698 16.7928C45.1825 16.7185 44.5789 16.6696 43.9844 16.6696H43.9808ZM24.0832 16.9559C23.5829 16.9559 23.0827 17.0212 22.5915 17.1354C21.6182 17.3728 20.6848 17.7299 19.8057 18.2211C19.5139 18.3806 19.2311 18.5618 18.9665 18.7703L18.9085 18.8156C18.9284 19.1763 18.9937 20.0245 19.0227 21.2896C19.0517 22.6671 19.0227 24.4216 18.7599 26.3211C18.1744 30.4554 21.1759 33.8738 24.6976 33.8829C24.9061 33.0328 25.2432 32.1719 25.5839 31.2674C26.5645 28.623 28.4912 26.6981 26.8672 19.1654C26.6044 17.9383 26.0751 17.4381 25.3465 17.1553C24.9405 17.0121 24.5182 16.9469 24.0832 16.9578V16.9559ZM43.2178 17.4453H43.341C43.4914 17.4544 43.6437 17.4653 43.7742 17.5015C43.8974 17.5305 44.0116 17.5686 44.1059 17.6338C44.2001 17.69 44.2654 17.7843 44.2853 17.8966V17.9166C44.2853 18.0308 44.2563 18.1431 44.2001 18.2483C44.1258 18.3788 44.0406 18.502 43.9373 18.6053C43.6908 18.879 43.3591 19.0603 43.0021 19.1146C42.6523 19.1636 42.3043 19.0693 42.0106 18.8699C41.8964 18.7829 41.7841 18.6887 41.6989 18.5854C41.6137 18.5002 41.5666 18.3878 41.5466 18.2736C41.5394 18.1631 41.5666 18.0489 41.6409 17.9637C41.7279 17.8767 41.8221 17.8024 41.9254 17.7462C42.1593 17.6139 42.471 17.5196 42.8317 17.4707C42.9622 17.4544 43.0945 17.4435 43.2178 17.4344V17.4453ZM24.317 17.8513C24.4403 17.8513 24.5834 17.8604 24.7158 17.8785C25.0928 17.9365 25.4136 18.0308 25.6673 18.1812C25.7906 18.2392 25.9048 18.3334 25.9881 18.4368C26.0824 18.5509 26.1277 18.6905 26.1204 18.8428C26.0914 18.9823 26.0334 19.1164 25.9392 19.2198C25.8359 19.343 25.7235 19.4463 25.5912 19.5315C25.2794 19.7581 24.8934 19.8523 24.5055 19.8052C24.1158 19.7399 23.7588 19.5514 23.4959 19.2596C23.3818 19.1364 23.2875 19.0041 23.2114 18.8627C23.1262 18.7304 23.0899 18.5799 23.1081 18.4277C23.1461 18.1739 23.3636 18.0308 23.5721 17.9564C23.8095 17.8785 24.0633 17.8531 24.317 17.8622V17.8513ZM46.2102 35.5975H46.2011C45.8531 35.7298 45.5613 35.7788 45.3148 35.8929C45.0611 35.9872 44.8599 36.1757 44.7403 36.4095C44.5789 36.685 44.4575 37.1762 44.4938 38.0136C44.5971 38.0915 44.7203 38.1459 44.8544 38.1858C45.2604 38.309 45.9583 38.3942 46.7322 38.3833C48.271 38.3634 50.1687 38.0063 51.1783 37.5333C51.9993 37.1563 52.7733 36.6469 53.4529 36.0524C50.0835 36.7412 48.1876 36.5618 47.0149 36.0814C46.7322 35.9582 46.4567 35.7969 46.2102 35.5975ZM26.8019 35.8241H26.753C26.6225 35.8331 26.4413 35.8821 26.0733 36.279C25.2323 37.2215 24.9405 37.816 24.2518 38.3652C23.5539 38.9216 22.6568 39.2153 20.8533 39.5832C20.2878 39.6974 19.9561 39.8279 19.7386 39.9312C19.8039 39.9892 19.8039 40.0091 19.9072 40.0544C20.1736 40.2067 20.5108 40.3299 20.7863 40.4043C21.5602 40.5928 22.8235 40.8193 24.1557 40.5928C25.477 40.3662 26.8545 39.7318 28.0363 38.0824C28.2447 37.7997 28.261 37.3738 28.0924 36.9206C27.9239 36.4784 27.5541 36.0814 27.3004 35.9781C27.1391 35.9002 26.9687 35.8549 26.8001 35.8259L26.8019 35.8241Z" fill="black"/>
</g>
<defs>
<clipPath id="clip0_4159_29346">
<rect width="58" height="58" fill="white"/>
</clipPath>
</defs>
</svg>
