<svg width="68" height="68" viewBox="0 0 68 68" fill="none" xmlns="http://www.w3.org/2000/svg">
<g id="robotframework-svgrepo-com 1">
<path id="Vector" d="M22.0729 31.0249C22.102 29.5075 22.7252 28.062 23.8085 26.9992C24.8919 25.9363 26.349 25.3409 27.8667 25.3409C29.3844 25.3409 30.8415 25.9363 31.9249 26.9992C33.0083 28.062 33.6315 29.5075 33.6605 31.0249C33.6605 31.5828 33.4389 32.1179 33.0444 32.5124C32.6498 32.907 32.1147 33.1286 31.5568 33.1286C30.9988 33.1286 30.4637 32.907 30.0692 32.5124C29.6747 32.1179 29.453 31.5828 29.453 31.0249C29.453 30.6044 29.286 30.2012 28.9887 29.9039C28.6914 29.6066 28.2882 29.4396 27.8678 29.4396C27.4473 29.4396 27.0441 29.6066 26.7468 29.9039C26.4495 30.2012 26.2825 30.6044 26.2825 31.0249C26.2825 31.5828 26.0609 32.1179 25.6664 32.5124C25.2718 32.907 24.7367 33.1286 24.1788 33.1286C23.6208 33.1286 23.0857 32.907 22.6912 32.5124C22.2967 32.1179 22.0729 31.5828 22.0729 31.0249ZM46.0875 40.7701C46.0878 41.047 46.0335 41.3212 45.9276 41.5771C45.8218 41.833 45.6665 42.0655 45.4707 42.2613C45.2749 42.4571 45.0424 42.6124 44.7866 42.7182C44.5307 42.824 44.2564 42.8784 43.9795 42.8781H24.455C23.896 42.8781 23.3598 42.656 22.9644 42.2607C22.5691 41.8654 22.347 41.3292 22.347 40.7701C22.347 40.211 22.5691 39.6749 22.9644 39.2795C23.3598 38.8842 23.896 38.6621 24.455 38.6621H43.971C44.5298 38.6632 45.0653 38.8857 45.4604 39.2808C45.8554 39.6758 46.0779 40.2114 46.079 40.7701M36.9564 32.2149C36.6457 31.7511 36.5316 31.183 36.6391 30.6353C36.7467 30.0875 37.0671 29.6048 37.5301 29.293L42.4028 25.9971C42.6309 25.8334 42.8895 25.7171 43.1633 25.6551C43.4371 25.593 43.7205 25.5864 43.9969 25.6357C44.2733 25.685 44.537 25.7892 44.7725 25.9421C45.008 26.095 45.2104 26.2935 45.3679 26.526C45.5253 26.7584 45.6346 27.02 45.6893 27.2954C45.744 27.5708 45.7429 27.8543 45.6862 28.1293C45.6295 28.4042 45.5183 28.665 45.3591 28.8963C45.1999 29.1276 44.996 29.3246 44.7594 29.4757L39.8719 32.7716C39.528 33.01 39.1195 33.1376 38.701 33.1371C38.356 33.1381 38.0161 33.0545 37.7108 32.8937C37.4056 32.733 37.1444 32.4999 36.95 32.2149M50.3141 45.1646C50.3142 45.3619 50.2754 45.5573 50.1999 45.7396C50.1244 45.9219 50.0138 46.0876 49.8743 46.2271L46.2469 49.8545C46.1074 49.994 45.9417 50.1046 45.7594 50.1801C45.5771 50.2556 45.3817 50.2944 45.1844 50.2944H22.9505C22.7532 50.2944 22.5578 50.2556 22.3755 50.1801C22.1932 50.1046 22.0276 49.994 21.888 49.8545L18.2755 46.2271C18.136 46.0876 18.0254 45.9219 17.9499 45.7396C17.8744 45.5573 17.8356 45.3619 17.8357 45.1646V22.9499C17.8356 22.7525 17.8744 22.5572 17.9499 22.3749C18.0254 22.1925 18.136 22.0269 18.2755 21.8874L21.888 18.2621C22.0276 18.1226 22.1932 18.012 22.3755 17.9365C22.5578 17.861 22.7532 17.8222 22.9505 17.8222H45.1908C45.3881 17.8222 45.5835 17.861 45.7658 17.9365C45.9481 18.012 46.1137 18.1226 46.2533 18.2621L49.8806 21.8874C50.0201 22.0269 50.1308 22.1925 50.2063 22.3749C50.2817 22.5572 50.3206 22.7525 50.3205 22.9499L50.3141 45.1646ZM53.3996 19.4649L48.663 14.7261C47.9467 14.0089 46.9758 13.6041 45.9621 13.5999H22.1813C21.1671 13.6012 20.1946 14.0038 19.4762 14.7197L14.7438 19.4649C14.0281 20.1808 13.6254 21.1513 13.6239 22.1636V45.9445C13.6238 46.4468 13.7226 46.9443 13.9148 47.4084C14.1069 47.8726 14.3886 48.2943 14.7438 48.6496L19.4762 53.3884C20.1964 54.1005 21.1684 54.4999 22.1813 54.4997H45.9621C46.9755 54.5022 47.9484 54.1025 48.6673 53.3884L53.3996 48.6496C53.7563 48.2955 54.039 47.8739 54.2313 47.4095C54.4235 46.9451 54.5215 46.4471 54.5195 45.9445V22.1721C54.5215 21.6695 54.4235 21.1715 54.2313 20.7071C54.039 20.2427 53.7563 19.8211 53.3996 19.467" fill="black"/>
</g>
</svg>
