<svg width="48" height="48" viewBox="0 0 48 48" fill="none" xmlns="http://www.w3.org/2000/svg">
<g style="mix-blend-mode:luminosity" clip-path="url(#clip0_2232_18718)">
<path fill-rule="evenodd" clip-rule="evenodd" d="M37.1873 31.6814L9.78223 47.9996L45.2666 45.5851L47.9996 9.70508L37.1873 31.6814Z" fill="url(#paint0_linear_2232_18718)"/>
<path fill-rule="evenodd" clip-rule="evenodd" d="M45.3252 45.5612L42.2753 24.4521L33.9678 35.4524L45.3252 45.5612Z" fill="url(#paint1_linear_2232_18718)"/>
<path fill-rule="evenodd" clip-rule="evenodd" d="M45.3663 45.5606L23.0224 43.8018L9.90137 47.9538L45.3663 45.5606Z" fill="url(#paint2_linear_2232_18718)"/>
<path fill-rule="evenodd" clip-rule="evenodd" d="M9.9325 47.9591L15.5143 29.6221L3.23145 32.2558L9.9325 47.9591Z" fill="url(#paint3_linear_2232_18718)"/>
<path fill-rule="evenodd" clip-rule="evenodd" d="M33.9651 35.5126L28.8291 15.3389L14.1309 29.1548L33.9651 35.5126Z" fill="url(#paint4_linear_2232_18718)"/>
<path fill-rule="evenodd" clip-rule="evenodd" d="M46.8351 15.6234L32.9412 4.24414L29.0723 16.7871L46.8351 15.6234Z" fill="url(#paint5_linear_2232_18718)"/>
<path fill-rule="evenodd" clip-rule="evenodd" d="M40.3368 0.186711L32.1652 4.7151L27.0098 0.125977L40.3368 0.186711Z" fill="url(#paint6_linear_2232_18718)"/>
<path fill-rule="evenodd" clip-rule="evenodd" d="M0 38.4063L3.42321 32.1457L0.654116 24.6875L0 38.4063Z" fill="url(#paint7_linear_2232_18718)"/>
<path fill-rule="evenodd" clip-rule="evenodd" d="M0.469727 24.4519L3.25578 32.3766L15.3618 29.653L29.183 16.7723L33.0835 4.34862L26.9418 0L16.5002 3.91861C13.2105 6.98694 6.82676 13.058 6.59661 13.1722C6.36888 13.2888 2.3812 20.8466 0.469727 24.4519Z" fill="white"/>
<path fill-rule="evenodd" clip-rule="evenodd" d="M10.2524 10.2155C17.3822 3.1265 26.5738 -1.06177 30.1012 2.50701C33.6264 6.07579 29.888 14.7487 22.7581 21.8353C15.6282 28.9218 6.55056 33.3409 3.0256 29.7721C-0.501776 26.2058 3.12251 17.302 10.2524 10.2155Z" fill="url(#paint8_linear_2232_18718)"/>
<path fill-rule="evenodd" clip-rule="evenodd" d="M9.93262 47.951L15.4708 29.5557L33.8636 35.481C27.2134 41.7342 19.817 47.0206 9.93262 47.951Z" fill="url(#paint9_linear_2232_18718)"/>
<path fill-rule="evenodd" clip-rule="evenodd" d="M29.207 16.7358L33.9288 35.4908C39.4839 29.6335 44.4697 23.3365 46.9115 15.5479L29.207 16.7358Z" fill="url(#paint10_linear_2232_18718)"/>
<path fill-rule="evenodd" clip-rule="evenodd" d="M46.8634 15.6434C48.753 9.92457 49.1891 1.7205 40.2784 0.197266L32.9668 4.24707L46.8634 15.6434Z" fill="url(#paint11_linear_2232_18718)"/>
<path fill-rule="evenodd" clip-rule="evenodd" d="M0 38.3239C0.261646 47.7624 7.05234 47.903 9.94499 47.9859L3.26331 32.3379L0 38.3239Z" fill="#9E1209"/>
<path fill-rule="evenodd" clip-rule="evenodd" d="M29.2344 16.7652C33.5031 19.3962 42.1062 24.6802 42.2806 24.7773C42.5517 24.9304 45.9897 18.9638 46.7698 15.5918L29.2344 16.7652Z" fill="url(#paint12_radial_2232_18718)"/>
<path fill-rule="evenodd" clip-rule="evenodd" d="M15.4639 29.5557L22.8675 43.8794C27.2452 41.4986 30.6733 38.5979 33.813 35.4907L15.4639 29.5557Z" fill="url(#paint13_radial_2232_18718)"/>
<path fill-rule="evenodd" clip-rule="evenodd" d="M3.23456 32.3566L2.18555 44.8826C4.16485 47.5938 6.88791 47.8295 9.74422 47.6181C7.6777 42.4605 3.5495 32.1477 3.23456 32.3566Z" fill="url(#paint14_linear_2232_18718)"/>
<path fill-rule="evenodd" clip-rule="evenodd" d="M32.9238 4.2786L47.6317 6.34845C46.8468 3.01289 44.4363 0.860443 40.3275 0.1875L32.9238 4.2786Z" fill="url(#paint15_linear_2232_18718)"/>
</g>
<defs>
<linearGradient id="paint0_linear_2232_18718" x1="42.1716" y1="52.365" x2="32.0028" y2="34.4614" gradientUnits="userSpaceOnUse">
<stop stop-color="#FB7655" offset="1"/>
<stop offset="0.41" stop-color="#E42B1E"/>
<stop offset="0.99" stop-color="#990000"/>
<stop offset="1" stop-color="#990000"/>
</linearGradient>
<linearGradient id="paint1_linear_2232_18718" x1="47.2163" y1="37.3055" x2="34.1436" y2="28.5573" gradientUnits="userSpaceOnUse">
<stop stop-color="#871101" offset="1"/>
<stop offset="0.99" stop-color="#911209"/>
<stop offset="1" stop-color="#911209"/>
</linearGradient>
<linearGradient id="paint2_linear_2232_18718" x1="36.7747" y1="52.9084" x2="23.7024" y2="44.1604" gradientUnits="userSpaceOnUse">
<stop stop-color="#871101" offset="1"/>
<stop offset="0.99" stop-color="#911209"/>
<stop offset="1" stop-color="#911209"/>
</linearGradient>
<linearGradient id="paint3_linear_2232_18718" x1="9.37439" y1="30.9487" x2="11.4085" y2="44.1315" gradientUnits="userSpaceOnUse">
<stop stop-color="white" offset="1"/>
<stop offset="0.23" stop-color="#E57252"/>
<stop offset="0.46" stop-color="#DE3B20"/>
<stop offset="0.99" stop-color="#A60003"/>
<stop offset="1" stop-color="#A60003"/>
</linearGradient>
<linearGradient id="paint4_linear_2232_18718" x1="23.2892" y1="18.6368" x2="24.0387" y2="32.0923" gradientUnits="userSpaceOnUse">
<stop stop-color="white" offset="1"/>
<stop offset="0.23" stop-color="#E4714E"/>
<stop offset="0.56" stop-color="#BE1A0D"/>
<stop offset="0.99" stop-color="#A80D00"/>
<stop offset="1" stop-color="#A80D00"/>
</linearGradient>
<linearGradient id="paint5_linear_2232_18718" x1="35.6384" y1="6.20005" x2="37.8817" y2="15.8408" gradientUnits="userSpaceOnUse">
<stop stop-color="white" offset="1"/>
<stop offset="0.18" stop-color="#E46342"/>
<stop offset="0.4" stop-color="#C82410"/>
<stop offset="0.99" stop-color="#A80D00"/>
<stop offset="1" stop-color="#A80D00"/>
</linearGradient>
<linearGradient id="paint6_linear_2232_18718" x1="28.8234" y1="2.80353" x2="38.4502" y2="-1.99651" gradientUnits="userSpaceOnUse">
<stop stop-color="white" offset="1"/>
<stop offset="0.54" stop-color="#C81F11"/>
<stop offset="0.99" stop-color="#BF0905"/>
<stop offset="1" stop-color="#BF0905"/>
</linearGradient>
<linearGradient id="paint7_linear_2232_18718" x1="0.945634" y1="27.5869" x2="1.74146" y2="35.5326" gradientUnits="userSpaceOnUse">
<stop stop-color="white" offset="1"/>
<stop offset="0.31" stop-color="#DE4024"/>
<stop offset="0.99" stop-color="#BF190B"/>
<stop offset="1" stop-color="#BF190B"/>
</linearGradient>
<linearGradient id="paint8_linear_2232_18718" x1="-4.49569" y1="37.6809" x2="32.8155" y2="-0.578941" gradientUnits="userSpaceOnUse">
<stop stop-color="#BD0012" offset="1"/>
<stop offset="0.07" stop-color="white"/>
<stop offset="0.17" stop-color="white"/>
<stop offset="0.27" stop-color="#C82F1C"/>
<stop offset="0.33" stop-color="#820C01"/>
<stop offset="0.46" stop-color="#A31601"/>
<stop offset="0.72" stop-color="#B31301"/>
<stop offset="0.99" stop-color="#E82609"/>
<stop offset="1" stop-color="#E82609"/>
</linearGradient>
<linearGradient id="paint9_linear_2232_18718" x1="24.0021" y1="41.5504" x2="12.7921" y2="38.7913" gradientUnits="userSpaceOnUse">
<stop stop-color="#8C0C01" offset="1"/>
<stop offset="0.54" stop-color="#990C00"/>
<stop offset="0.99" stop-color="#A80D0E"/>
<stop offset="1" stop-color="#A80D0E"/>
</linearGradient>
<linearGradient id="paint10_linear_2232_18718" x1="43.2501" y1="28.0628" x2="33.2701" y2="19.1428" gradientUnits="userSpaceOnUse">
<stop stop-color="#7E110B" offset="1"/>
<stop offset="0.99" stop-color="#9E0C00"/>
<stop offset="1" stop-color="#9E0C00"/>
</linearGradient>
<linearGradient id="paint11_linear_2232_18718" x1="46.9078" y1="11.6463" x2="41.9341" y2="6.34378" gradientUnits="userSpaceOnUse">
<stop stop-color="#79130D" offset="1"/>
<stop offset="0.99" stop-color="#9E120B"/>
<stop offset="1" stop-color="#9E120B"/>
</linearGradient>
<radialGradient id="paint12_radial_2232_18718" cx="0" cy="0" r="1" gradientUnits="userSpaceOnUse" gradientTransform="translate(34.8458 19.2865) scale(12.1999 12.2339)">
<stop stop-color="#A80D00" offset="1"/>
<stop offset="0.99" stop-color="#7E0E08"/>
<stop offset="1" stop-color="#7E0E08"/>
</radialGradient>
<radialGradient id="paint13_radial_2232_18718" cx="0" cy="0" r="1" gradientUnits="userSpaceOnUse" gradientTransform="translate(17.9501 35.4083) scale(16.2181 16.2633)">
<stop stop-color="#A30C00" offset="1"/>
<stop offset="0.99" stop-color="#800E08"/>
<stop offset="1" stop-color="#800E08"/>
</radialGradient>
<linearGradient id="paint14_linear_2232_18718" x1="6.4615" y1="47.9402" x2="2.39951" y2="34.1974" gradientUnits="userSpaceOnUse">
<stop stop-color="#8B2114" offset="1"/>
<stop offset="0.43" stop-color="#9E100A"/>
<stop offset="0.99" stop-color="#B3100C"/>
<stop offset="1" stop-color="#B3100C"/>
</linearGradient>
<linearGradient id="paint15_linear_2232_18718" x1="37.4641" y1="2.38073" x2="46.5326" y2="6.37256" gradientUnits="userSpaceOnUse">
<stop stop-color="#B31000" offset="1"/>
<stop offset="0.44" stop-color="#910F08"/>
<stop offset="0.99" stop-color="#791C12"/>
<stop offset="1" stop-color="#791C12"/>
</linearGradient>
<clipPath id="clip0_2232_18718">
<rect width="48" height="48" fill="white"/>
</clipPath>
</defs>
</svg>
