<svg width="76" height="76" viewBox="0 0 76 76" fill="none" xmlns="http://www.w3.org/2000/svg">
<g clip-path="url(#clip0_16640_39684)">
<path d="M2.34649 61C2.34649 61 3.35179 51.0066 10.3865 39.1864C17.4236 27.3662 29.4204 18.4218 39.1709 17.5408C58.5717 15.5819 76 33.1082 76 33.1082C76 33.1082 75.4283 33.5115 74.8232 34.0204C55.7916 19.8405 44.1664 26.5236 40.5097 28.3144C23.7555 37.7365 28.813 61 28.813 61H2.35125H2.34649ZM57.4997 19.4324C56.4277 18.9955 55.3557 18.5922 54.2503 18.2201L54.3837 15.9876C56.492 16.5974 57.3305 17.0031 57.6307 17.1711L57.4973 19.4348L57.4997 19.4324ZM54.3146 26.5956C55.3866 26.6628 56.4944 26.7972 57.6331 27.0349L57.4997 29.1281C56.3943 28.8881 55.289 28.7561 54.1836 28.7201L54.317 26.5956H54.3146ZM41.9199 16.0549C40.9504 16.0549 39.9784 16.0909 39.0065 16.1941L38.3681 14.2016C39.4758 14.0672 40.5478 14 41.5841 14L42.2558 16.0597H41.9223L41.9199 16.0549ZM43.5303 28.4848C44.3641 28.1151 45.3408 27.7406 46.4771 27.4046L47.2156 29.6371C46.2389 29.9371 45.2693 30.3428 44.2974 30.8133L43.5279 28.4848H43.5303ZM28.3175 19.6028C27.4456 20.0445 26.607 20.551 25.7375 21.0912L24.1962 18.7266C25.1015 18.1865 25.971 17.7184 26.8095 17.2767L28.3175 19.6028ZM35.1854 34.7982C35.7857 34.0228 36.4909 33.2475 37.2579 32.5369L38.7683 34.8342C38.0298 35.6096 37.3628 36.3874 36.791 37.2347L35.1854 34.7982ZM30.3257 45.6726C30.5925 44.4579 30.8974 43.2073 31.331 41.959L33.7418 43.8842C33.4083 45.1997 33.17 46.5176 33.039 47.8331L30.3257 45.6726ZM15.6512 29.6347C14.8412 30.4748 14.0742 31.387 13.369 32.2992L10.7915 30.0716C11.5609 29.2266 12.3971 28.3816 13.269 27.539L15.6512 29.6323V29.6347ZM5.52675 44.7244C4.99314 45.9727 4.288 47.629 3.85443 48.7765L0 47.3602C0.333511 46.448 1.03865 44.758 1.6747 43.3033L5.52914 44.7244H5.52675ZM29.8254 54.2473L33.4416 55.5628C33.6417 57.1544 33.9419 58.6355 34.2444 59.9558L30.2232 58.5034C30.0565 57.4904 29.8897 56.0381 29.823 54.2497L29.8254 54.2473Z" fill="black"/>
</g>
<defs>
<clipPath id="clip0_16640_39684">
<rect width="76" height="76" fill="white"/>
</clipPath>
</defs>
</svg>
