<svg width="54" height="48" viewBox="0 0 54 48" fill="none" xmlns="http://www.w3.org/2000/svg">
<g clip-path="url(#clip0_524_2448)">
<path d="M26.9746 28.8085C29.6303 28.8085 31.7831 26.6556 31.7831 24C31.7831 21.3443 29.6303 19.1914 26.9746 19.1914C24.3189 19.1914 22.166 21.3443 22.166 24C22.166 26.6556 24.3189 28.8085 26.9746 28.8085Z" fill="black"/>
<path d="M26.9749 33.8547C41.225 33.8547 52.7769 29.444 52.7769 24.003C52.7769 18.5621 41.225 14.1514 26.9749 14.1514C12.7248 14.1514 1.17285 18.5621 1.17285 24.003C1.17285 29.444 12.7248 33.8547 26.9749 33.8547Z" stroke="black" stroke-width="2.34564"/>
<path d="M18.4429 28.9283C25.5679 41.2692 35.1637 49.0681 39.8757 46.3476C44.5877 43.6272 42.6315 31.4175 35.5065 19.0766C28.3814 6.73572 18.7856 -1.06318 14.0737 1.65728C9.36167 4.37774 11.3178 16.5874 18.4429 28.9283Z" stroke="black" stroke-width="2.34564"/>
<path d="M18.4426 19.0765C11.3176 31.4174 9.3614 43.6271 14.0734 46.3475C18.7854 49.068 28.3812 41.2691 35.5062 28.9282C42.6312 16.5873 44.5874 4.37764 39.8754 1.65717C35.1634 -1.06329 25.5676 6.73562 18.4426 19.0765Z" stroke="black" stroke-width="2.34564"/>
</g>
<defs>
<clipPath id="clip0_524_2448">
<rect width="53.9497" height="47.9999" fill="white"/>
</clipPath>
</defs>
</svg>
