<svg width="121" height="14" viewBox="0 0 121 14" fill="none" xmlns="http://www.w3.org/2000/svg">
<path d="M2.808 13H0.292V1.134H4.882C5.46 1.134 5.97567 1.22467 6.429 1.406C6.88233 1.576 7.262 1.82533 7.568 2.154C7.88533 2.48267 8.12333 2.87933 8.282 3.344C8.44067 3.80867 8.52 4.33 8.52 4.908C8.52 5.74667 8.33867 6.46633 7.976 7.067C7.61333 7.66767 7.09767 8.06433 6.429 8.257L8.758 13H5.97L3.981 8.597H2.808V13ZM4.27 6.625C4.87067 6.625 5.28433 6.51167 5.511 6.285C5.749 6.05833 5.868 5.68433 5.868 5.163V4.653C5.868 4.13167 5.749 3.75767 5.511 3.531C5.28433 3.30433 4.87067 3.191 4.27 3.191H2.808V6.625H4.27ZM10.5534 13V1.134H18.1354V3.225H13.1034V5.945H17.9654V8.036H13.1034V10.909H18.1354V13H10.5534ZM24.2997 13.204C23.3024 13.204 22.4354 13.0397 21.6987 12.711C20.9621 12.3823 20.3671 11.9347 19.9137 11.368L21.3927 9.736C21.8234 10.212 22.2937 10.5633 22.8037 10.79C23.3251 11.0167 23.8521 11.13 24.3847 11.13C24.9967 11.13 25.4614 10.994 25.7787 10.722C26.0961 10.45 26.2547 10.059 26.2547 9.549C26.2547 9.12967 26.1301 8.81233 25.8807 8.597C25.6427 8.38167 25.2347 8.22867 24.6567 8.138L23.4157 7.934C22.3504 7.75267 21.5797 7.36167 21.1037 6.761C20.6277 6.149 20.3897 5.40667 20.3897 4.534C20.3897 3.38933 20.7637 2.50533 21.5117 1.882C22.2597 1.24733 23.3081 0.929999 24.6567 0.929999C25.5747 0.929999 26.3737 1.07167 27.0537 1.355C27.7337 1.63833 28.2834 2.02367 28.7027 2.511L27.2577 4.126C26.9404 3.77467 26.5664 3.50267 26.1357 3.31C25.7051 3.106 25.2177 3.004 24.6737 3.004C23.5291 3.004 22.9567 3.47433 22.9567 4.415C22.9567 4.823 23.0814 5.129 23.3307 5.333C23.5914 5.537 24.0107 5.69 24.5887 5.792L25.8297 6.013C26.7931 6.183 27.5354 6.54567 28.0567 7.101C28.5781 7.65633 28.8387 8.40433 28.8387 9.345C28.8387 9.90033 28.7424 10.416 28.5497 10.892C28.3571 11.3567 28.0681 11.7647 27.6827 12.116C27.2974 12.456 26.8214 12.7223 26.2547 12.915C25.6994 13.1077 25.0477 13.204 24.2997 13.204ZM35.9551 3.225V13H33.4051V3.225H29.9881V1.134H39.3721V3.225H35.9551ZM45.4174 3.106C44.8508 3.106 44.4541 2.99267 44.2274 2.766C44.0121 2.528 43.9044 2.24467 43.9044 1.916V1.423C43.9044 1.083 44.0121 0.799666 44.2274 0.573C44.4541 0.346333 44.8508 0.232999 45.4174 0.232999C45.9841 0.232999 46.3751 0.346333 46.5904 0.573C46.8171 0.799666 46.9304 1.083 46.9304 1.423V1.916C46.9304 2.24467 46.8171 2.528 46.5904 2.766C46.3751 2.99267 45.9841 3.106 45.4174 3.106ZM41.3714 11.045H44.1594V6.183H41.3714V4.228H46.6754V11.045H49.2594V13H41.3714V11.045ZM51.0718 13V4.228H53.5878V5.826H53.6898C53.7918 5.57667 53.9165 5.34433 54.0638 5.129C54.2111 4.91367 54.3868 4.72667 54.5908 4.568C54.8061 4.398 55.0498 4.26767 55.3218 4.177C55.6051 4.075 55.9225 4.024 56.2738 4.024C56.6931 4.024 57.0785 4.09767 57.4298 4.245C57.7811 4.381 58.0815 4.59067 58.3308 4.874C58.5801 5.15733 58.7728 5.503 58.9088 5.911C59.0561 6.319 59.1298 6.78933 59.1298 7.322V13H56.6138V7.662C56.6138 6.52867 56.1208 5.962 55.1348 5.962C54.9421 5.962 54.7495 5.99033 54.5568 6.047C54.3755 6.09233 54.2111 6.17167 54.0638 6.285C53.9165 6.387 53.7975 6.51733 53.7068 6.676C53.6275 6.83467 53.5878 7.02167 53.5878 7.237V13H51.0718ZM65.1582 13.204C64.1835 13.204 63.3335 13.0567 62.6082 12.762C61.8942 12.4673 61.3558 12.065 60.9932 11.555L62.4042 10.246C62.7442 10.62 63.1408 10.9147 63.5942 11.13C64.0588 11.334 64.5858 11.436 65.1752 11.436C65.6738 11.436 66.0648 11.3623 66.3482 11.215C66.6315 11.0563 66.7732 10.8183 66.7732 10.501C66.7732 10.2517 66.6768 10.0817 66.4842 9.991C66.2915 9.889 66.0252 9.80967 65.6852 9.753L64.2742 9.532C63.8775 9.47533 63.5092 9.39033 63.1692 9.277C62.8292 9.15233 62.5345 8.988 62.2852 8.784C62.0358 8.58 61.8375 8.33067 61.6902 8.036C61.5428 7.74133 61.4692 7.38433 61.4692 6.965C61.4692 6.047 61.8205 5.32733 62.5232 4.806C63.2258 4.28467 64.2118 4.024 65.4812 4.024C66.3425 4.024 67.0735 4.143 67.6742 4.381C68.2862 4.60767 68.7735 4.93633 69.1362 5.367L67.8782 6.795C67.6175 6.51167 67.2832 6.27367 66.8752 6.081C66.4672 5.88833 65.9742 5.792 65.3962 5.792C64.4215 5.792 63.9342 6.08667 63.9342 6.676C63.9342 6.93667 64.0305 7.118 64.2232 7.22C64.4158 7.31067 64.6822 7.38433 65.0222 7.441L66.4162 7.662C66.8128 7.71867 67.1812 7.80933 67.5212 7.934C67.8612 8.04733 68.1558 8.206 68.4052 8.41C68.6658 8.614 68.8698 8.86333 69.0172 9.158C69.1645 9.45267 69.2382 9.80967 69.2382 10.229C69.2382 11.147 68.8812 11.8723 68.1672 12.405C67.4645 12.9377 66.4615 13.204 65.1582 13.204ZM76.1335 13C75.2268 13 74.5525 12.762 74.1105 12.286C73.6685 11.81 73.4475 11.2037 73.4475 10.467V6.183H71.0675V4.228H72.6145C72.9885 4.228 73.2548 4.15433 73.4135 4.007C73.5722 3.85967 73.6515 3.58767 73.6515 3.191V1.134H75.9635V4.228H79.3805V6.183H75.9635V11.045H79.3805V13H76.1335ZM88.8259 13C88.3045 13 87.8852 12.8697 87.5679 12.609C87.2505 12.337 87.0635 11.9517 87.0069 11.453H86.9219C86.7632 12.031 86.4459 12.4673 85.9699 12.762C85.5052 13.0567 84.9329 13.204 84.2529 13.204C83.4029 13.204 82.7172 12.9773 82.1959 12.524C81.6859 12.0593 81.4309 11.4133 81.4309 10.586C81.4309 9.668 81.7652 8.988 82.4339 8.546C83.1025 8.104 84.0829 7.883 85.3749 7.883H86.7859V7.441C86.7859 6.91967 86.6612 6.52867 86.4119 6.268C86.1739 5.996 85.7659 5.86 85.1879 5.86C84.6552 5.86 84.2245 5.962 83.8959 6.166C83.5672 6.37 83.2839 6.63633 83.0459 6.965L81.6689 5.741C81.9635 5.24233 82.4225 4.83433 83.0459 4.517C83.6805 4.18833 84.4909 4.024 85.4769 4.024C86.6782 4.024 87.6132 4.30167 88.2819 4.857C88.9619 5.401 89.3019 6.22833 89.3019 7.339V11.181H90.2709V13H88.8259ZM85.2049 11.555C85.6469 11.555 86.0209 11.4473 86.3269 11.232C86.6329 11.0167 86.7859 10.705 86.7859 10.297V9.243H85.4429C84.4115 9.243 83.8959 9.58867 83.8959 10.28V10.62C83.8959 10.926 84.0149 11.1583 84.2529 11.317C84.4909 11.4757 84.8082 11.555 85.2049 11.555ZM91.8452 13V4.228H94.3612V5.826H94.4632C94.5652 5.57667 94.6899 5.34433 94.8372 5.129C94.9846 4.91367 95.1602 4.72667 95.3642 4.568C95.5796 4.398 95.8232 4.26767 96.0952 4.177C96.3786 4.075 96.6959 4.024 97.0472 4.024C97.4666 4.024 97.8519 4.09767 98.2032 4.245C98.5546 4.381 98.8549 4.59067 99.1042 4.874C99.3536 5.15733 99.5462 5.503 99.6822 5.911C99.8296 6.319 99.9032 6.78933 99.9032 7.322V13H97.3872V7.662C97.3872 6.52867 96.8942 5.962 95.9082 5.962C95.7156 5.962 95.5229 5.99033 95.3302 6.047C95.1489 6.09233 94.9846 6.17167 94.8372 6.285C94.6899 6.387 94.5709 6.51733 94.4802 6.676C94.4009 6.83467 94.3612 7.02167 94.3612 7.237V13H91.8452ZM106.391 13.204C105.699 13.204 105.076 13.102 104.521 12.898C103.977 12.6827 103.512 12.3767 103.127 11.98C102.753 11.5833 102.464 11.1017 102.26 10.535C102.056 9.96833 101.954 9.328 101.954 8.614C101.954 7.9 102.056 7.25967 102.26 6.693C102.464 6.12633 102.753 5.64467 103.127 5.248C103.512 4.85133 103.977 4.551 104.521 4.347C105.076 4.13167 105.694 4.024 106.374 4.024C107.337 4.024 108.108 4.22233 108.686 4.619C109.275 5.00433 109.723 5.52 110.029 6.166L108.091 7.22C107.932 6.88 107.722 6.59667 107.462 6.37C107.212 6.14333 106.85 6.03 106.374 6.03C105.796 6.03 105.348 6.2 105.031 6.54C104.725 6.86867 104.572 7.322 104.572 7.9V9.328C104.572 9.906 104.725 10.365 105.031 10.705C105.348 11.0337 105.807 11.198 106.408 11.198C106.895 11.198 107.275 11.0847 107.547 10.858C107.83 10.6313 108.068 10.3367 108.261 9.974L110.165 11.062C109.847 11.708 109.383 12.2293 108.771 12.626C108.17 13.0113 107.377 13.204 106.391 13.204ZM116.465 13.204C114.992 13.204 113.875 12.796 113.116 11.98C112.357 11.164 111.977 10.0533 111.977 8.648C111.977 7.934 112.073 7.29367 112.266 6.727C112.47 6.149 112.753 5.66167 113.116 5.265C113.49 4.857 113.938 4.551 114.459 4.347C114.992 4.13167 115.587 4.024 116.244 4.024C116.901 4.024 117.491 4.13167 118.012 4.347C118.533 4.551 118.975 4.84567 119.338 5.231C119.701 5.61633 119.978 6.08667 120.171 6.642C120.375 7.186 120.477 7.798 120.477 8.478V9.226H114.476V9.379C114.476 9.94567 114.652 10.4047 115.003 10.756C115.354 11.096 115.87 11.266 116.55 11.266C117.071 11.266 117.519 11.1697 117.893 10.977C118.267 10.773 118.59 10.5067 118.862 10.178L120.222 11.657C119.882 12.0763 119.406 12.439 118.794 12.745C118.182 13.051 117.406 13.204 116.465 13.204ZM116.261 5.826C115.717 5.826 115.281 5.996 114.952 6.336C114.635 6.66467 114.476 7.11233 114.476 7.679V7.815H118.012V7.679C118.012 7.101 117.853 6.64767 117.536 6.319C117.23 5.99033 116.805 5.826 116.261 5.826Z" fill="black"/>
</svg>
