<svg width="50" height="48" viewBox="0 0 50 48" fill="none" xmlns="http://www.w3.org/2000/svg">
<g clip-path="url(#clip0_2697_22283)">
<path d="M3.31167 30.5932C0.75567 17.0002 7.51167 3.89025 23.0207 2.14725C20.8797 -0.137753 17.9597 -0.155753 16.6147 0.122247C14.2417 0.879247 14.3157 2.41525 11.6247 4.39825C8.94767 5.92725 7.60367 4.75625 5.65467 6.34125C3.70867 7.91425 5.06567 11.5252 4.24967 12.2272C3.44067 13.6302 0.92967 14.8802 0.47067 16.6542C0.0936702 18.9222 1.49667 20.5422 1.44267 22.4862C1.60467 24.1062 -0.16933 25.0222 0.0856702 26.3342C0.84867 28.4792 2.32167 29.7702 3.01567 30.3652C3.17467 30.4772 3.34267 30.7542 3.31167 30.5932Z" fill="#757575"/>
<path d="M30.9065 11.7772C30.6344 11.7772 30.3735 11.6691 30.1811 11.4767C29.9886 11.2843 29.8805 11.0233 29.8805 10.7512C29.8805 10.4791 29.9886 10.2181 30.1811 10.0257C30.3735 9.8333 30.6344 9.7252 30.9065 9.7252C31.1787 9.7252 31.4396 9.8333 31.632 10.0257C31.8244 10.2181 31.9325 10.4791 31.9325 10.7512C31.9325 11.0233 31.8244 11.2843 31.632 11.4767C31.4396 11.6691 31.1787 11.7772 30.9065 11.7772ZM3.90954 32.0752C1.45354 20.2622 9.05654 10.3912 23.7785 15.2502C32.4185 20.3042 43.2855 19.9752 43.7755 16.7082C44.9855 12.7922 38.2675 4.7212 28.2255 2.6152C8.29954 -1.2718 -2.44246 20.2622 3.90954 32.0752Z" fill="black"/>
<path d="M44.9643 30.8811C42.3613 33.0021 39.5533 33.7121 36.5943 33.3911C43.8973 27.7671 47.2503 19.8571 44.6583 12.7291C48.2813 17.0641 49.1213 21.0091 44.2263 28.6401C46.5303 26.8871 48.3733 24.3331 49.7693 21.0091C50.7913 28.8331 47.1523 34.5591 40.4103 37.9271C42.4023 37.7771 46.8663 35.8271 49.3633 33.5851C45.8203 43.0751 37.1473 47.0791 31.3393 47.7911C19.3823 49.2931 8.47233 42.4611 4.37933 33.5851C0.193329 22.0621 8.71033 8.00211 23.7713 15.2391C9.24133 19.1971 10.2863 35.2891 22.2013 40.4541C20.1473 38.5781 18.1553 35.6391 18.5243 33.7531C21.3463 36.5631 23.9663 38.5831 26.5393 39.8731C28.0923 40.6231 29.4393 40.9951 30.7623 41.3461C31.5123 41.4931 32.2663 41.5811 33.0273 41.6101C33.0313 41.5951 33.0593 41.5901 33.1343 41.6041V41.6141C34.7923 41.6641 36.4843 41.4391 38.2493 40.9521C35.7653 41.3941 33.1673 40.3621 30.4743 38.0721C36.1143 37.4721 41.0313 35.2671 44.9633 30.8821L44.9643 30.8811ZM17.2643 5.91211C18.6513 6.13711 24.3043 7.98111 24.3043 7.98111L15.3463 11.6031C12.9363 8.83811 12.9513 7.03111 17.2643 5.91211Z" fill="#757575"/>
</g>
<defs>
<clipPath id="clip0_2697_22283">
<rect width="50" height="48" fill="white"/>
</clipPath>
</defs>
</svg>
