<svg width="60" height="28" viewBox="0 0 60 28" fill="none" xmlns="http://www.w3.org/2000/svg">
<path d="M6.808 21H4.292V9.134H8.882C9.46 9.134 9.97567 9.22467 10.429 9.406C10.8823 9.576 11.262 9.82533 11.568 10.154C11.8853 10.4827 12.1233 10.8793 12.282 11.344C12.4407 11.8087 12.52 12.33 12.52 12.908C12.52 13.7467 12.3387 14.4663 11.976 15.067C11.6133 15.6677 11.0977 16.0643 10.429 16.257L12.758 21H9.97L7.981 16.597H6.808V21ZM8.27 14.625C8.87067 14.625 9.28433 14.5117 9.511 14.285C9.749 14.0583 9.868 13.6843 9.868 13.163V12.653C9.868 12.1317 9.749 11.7577 9.511 11.531C9.28433 11.3043 8.87067 11.191 8.27 11.191H6.808V14.625H8.27ZM18.2934 21.204C17.6134 21.204 17.0014 21.102 16.4574 20.898C15.9134 20.6827 15.4487 20.3767 15.0634 19.98C14.6894 19.5833 14.4004 19.1017 14.1964 18.535C13.9924 17.9683 13.8904 17.328 13.8904 16.614C13.8904 15.9 13.9924 15.2597 14.1964 14.693C14.4004 14.1263 14.6894 13.6447 15.0634 13.248C15.4487 12.8513 15.9134 12.551 16.4574 12.347C17.0014 12.1317 17.6134 12.024 18.2934 12.024C18.9734 12.024 19.5854 12.1317 20.1294 12.347C20.6734 12.551 21.1324 12.8513 21.5064 13.248C21.8917 13.6447 22.1864 14.1263 22.3904 14.693C22.5944 15.2597 22.6964 15.9 22.6964 16.614C22.6964 17.328 22.5944 17.9683 22.3904 18.535C22.1864 19.1017 21.8917 19.5833 21.5064 19.98C21.1324 20.3767 20.6734 20.6827 20.1294 20.898C19.5854 21.102 18.9734 21.204 18.2934 21.204ZM18.2934 19.334C18.86 19.334 19.302 19.1583 19.6194 18.807C19.9367 18.4557 20.0954 17.957 20.0954 17.311V15.917C20.0954 15.271 19.9367 14.7723 19.6194 14.421C19.302 14.0697 18.86 13.894 18.2934 13.894C17.7267 13.894 17.2847 14.0697 16.9674 14.421C16.65 14.7723 16.4914 15.271 16.4914 15.917V17.311C16.4914 17.957 16.65 18.4557 16.9674 18.807C17.2847 19.1583 17.7267 19.334 18.2934 19.334ZM28.4867 21.204C27.8067 21.204 27.1947 21.102 26.6507 20.898C26.1067 20.6827 25.6421 20.3767 25.2567 19.98C24.8827 19.5833 24.5937 19.1017 24.3897 18.535C24.1857 17.9683 24.0837 17.328 24.0837 16.614C24.0837 15.9 24.1857 15.2597 24.3897 14.693C24.5937 14.1263 24.8827 13.6447 25.2567 13.248C25.6421 12.8513 26.1067 12.551 26.6507 12.347C27.1947 12.1317 27.8067 12.024 28.4867 12.024C29.1667 12.024 29.7787 12.1317 30.3227 12.347C30.8667 12.551 31.3257 12.8513 31.6997 13.248C32.0851 13.6447 32.3797 14.1263 32.5837 14.693C32.7877 15.2597 32.8897 15.9 32.8897 16.614C32.8897 17.328 32.7877 17.9683 32.5837 18.535C32.3797 19.1017 32.0851 19.5833 31.6997 19.98C31.3257 20.3767 30.8667 20.6827 30.3227 20.898C29.7787 21.102 29.1667 21.204 28.4867 21.204ZM28.4867 19.334C29.0534 19.334 29.4954 19.1583 29.8127 18.807C30.1301 18.4557 30.2887 17.957 30.2887 17.311V15.917C30.2887 15.271 30.1301 14.7723 29.8127 14.421C29.4954 14.0697 29.0534 13.894 28.4867 13.894C27.9201 13.894 27.4781 14.0697 27.1607 14.421C26.8434 14.7723 26.6847 15.271 26.6847 15.917V17.311C26.6847 17.957 26.8434 18.4557 27.1607 18.807C27.4781 19.1583 27.9201 19.334 28.4867 19.334ZM34.0901 21V12.228H36.1131V13.52H36.2321C36.3681 13.112 36.5607 12.7607 36.8101 12.466C37.0707 12.1713 37.4334 12.024 37.8981 12.024C38.7481 12.024 39.2694 12.5227 39.4621 13.52H39.5641C39.6321 13.316 39.7171 13.1233 39.8191 12.942C39.9211 12.7607 40.0457 12.602 40.1931 12.466C40.3404 12.33 40.5161 12.2223 40.7201 12.143C40.9241 12.0637 41.1621 12.024 41.4341 12.024C42.6581 12.024 43.2701 12.925 43.2701 14.727V21H41.2471V14.982C41.2471 14.574 41.1734 14.2907 41.0261 14.132C40.8901 13.962 40.7087 13.877 40.4821 13.877C40.2667 13.877 40.0797 13.9507 39.9211 14.098C39.7737 14.234 39.7001 14.4493 39.7001 14.744V21H37.6601V14.982C37.6601 14.574 37.5921 14.2907 37.4561 14.132C37.3314 13.962 37.1557 13.877 36.9291 13.877C36.7024 13.877 36.5097 13.9507 36.3511 14.098C36.1924 14.234 36.1131 14.4493 36.1131 14.744V21H34.0901Z" fill="black"/>
</svg>
