<svg width="48" height="48" viewBox="0 0 48 48" fill="none" xmlns="http://www.w3.org/2000/svg">
<g clip-path="url(#clip0_2697_22336)">
<mask id="mask0_2697_22336" style="mask-type:alpha" maskUnits="userSpaceOnUse" x="0" y="0" width="48" height="48">
<path d="M24 48C37.2548 48 48 37.2548 48 24C48 10.7452 37.2548 0 24 0C10.7452 0 0 10.7452 0 24C0 37.2548 10.7452 48 24 48Z" fill="white"/>
</mask>
<g mask="url(#mask0_2697_22336)">
<path d="M24 48C37.2548 48 48 37.2548 48 24C48 10.7452 37.2548 0 24 0C10.7452 0 0 10.7452 0 24C0 37.2548 10.7452 48 24 48Z" fill="white"/>
<path d="M34.4208 2.1525C31.264 0.652312 27.7323 -0.1875 24.0044 -0.1875C17.5012 -0.1875 11.5947 2.36775 7.23441 6.52894C2.59866 10.9532 42.626 6.0525 34.4208 2.1525Z" fill="#D0CFCF"/>
<path d="M43.0128 8.94883C43.0406 8.98352 41.0313 11.6689 34.9927 12.4313C22.8043 13.9701 1.8785 14.1326 1.91019 14.0635C3.19833 11.2365 5.01543 8.68207 7.2635 6.53796C9.89338 7.35921 12.7559 7.56358 15.4636 7.06483C19.9344 6.24677 23.9118 3.66358 28.3342 2.61077C30.2969 2.13921 32.4356 2.0014 34.4497 2.16152C37.7966 3.75208 40.7218 6.08571 43.0128 8.94883Z" fill="#BABABA"/>
<path d="M47.9919 20.3141C48.0073 20.412 20.5069 22.9971 7.10794 22.2435C2.74219 21.9981 0.16594 19.3586 0.195565 19.2148C0.559051 17.4417 1.12103 15.7151 1.87088 14.0677C5.74182 11.949 10.296 10.7261 14.7122 10.7743C20.25 10.8311 25.6828 12.6774 31.2208 12.5398C35.3334 12.4352 39.4789 11.1225 42.9733 8.95312C45.5488 12.1718 47.3226 16.0594 47.9919 20.3141Z" fill="#ACACAC"/>
<path d="M48.2121 23.9821C48.2121 24.1167 48.2089 24.3852 48.2089 24.3852C48.2089 24.3852 40.5707 26.3118 30.7335 26.1969C16.9551 26.0358 -0.375375 23.8134 -0.375 23.7725C-0.361312 22.1607 -0.190875 20.5863 0.12225 19.0638C3.42338 21.1006 7.42669 22.0981 11.28 21.6783C14.3439 21.3464 17.2545 20.2126 20.0921 19.0061C22.9297 17.7993 25.7513 16.5037 28.7507 15.8073C33.1568 14.7869 37.8699 15.1432 42.0819 16.8033C44.1311 17.6114 46.1642 18.7732 47.9154 20.174C48.1134 21.4337 48.2125 22.707 48.2121 23.9821Z" fill="#A2A2A2"/>
<path d="M20.6614 31.8781C13.3727 33.2242 0.864187 31.6717 0.832687 31.5757C0.0489375 29.1888 -0.375 26.6388 -0.375 23.99C-0.375 23.9201 -0.374625 23.8501 -0.374063 23.7804C0.732375 22.9029 2.02481 22.1206 3.2865 21.5128C6.40725 19.9985 9.94838 19.3668 13.4003 19.707C16.812 20.0471 20.07 21.3103 23.223 22.6708C25.8793 23.817 28.5186 25.0552 31.2758 25.9108C31.5458 25.9944 28.6845 30.3965 20.6614 31.8781Z" fill="#7E7E7E"/>
<path d="M47.3649 30.5356C46.856 31.3951 42.0155 34.2907 35.4539 34.7866C26.7661 35.4432 16.5027 32.8171 19.9074 31.4806C25.2674 29.3752 29.9161 25.5935 35.4539 24.0144C39.5909 22.8294 44.1768 23.0165 48.2381 24.4486C48.206 26.5064 47.9126 28.5518 47.3649 30.5356Z" fill="#707070"/>
<path d="M45.1099 36.1065C40.915 43.3896 10.4903 45.216 6.04559 40.3168C3.78322 37.8231 2.03178 34.8568 0.957031 31.584C4.69334 29.4484 9.06716 28.5416 13.2711 29.1165C18.712 29.8615 23.587 32.8984 28.9551 34.0806C33.2882 35.0361 37.8805 34.7365 42.052 33.2303C43.9378 32.544 45.8076 31.6247 47.4612 30.4879C46.9177 32.4525 46.1277 34.3404 45.1099 36.1065Z" fill="#5F5F5F"/>
<path d="M45.0118 36.0047C40.8257 43.3212 32.9437 48.2515 23.9103 48.2515C16.7732 48.2515 10.3548 45.1738 5.91016 40.2733C6.64759 40.5552 7.47259 40.7988 8.22878 41.0118C12.4569 42.1781 17.0085 42.1457 21.2124 40.9067C23.9047 40.113 26.435 38.8498 29.0788 37.8942C34.1233 36.075 39.6757 35.4347 45.0118 36.0047Z" fill="#494949"/>
</g>
</g>
<defs>
<clipPath id="clip0_2697_22336">
<rect width="48" height="48" fill="white"/>
</clipPath>
</defs>
</svg>
