<svg width="48" height="48" viewBox="0 0 48 48" fill="none" xmlns="http://www.w3.org/2000/svg">
<g id="Supervised Learning">
<g id="Supervised_Learning">
<g id="Group">
<path id="Vector" d="M45.106 27.7405L43.553 21.2464L43.4824 20.964C43.6942 19.9758 43.7648 18.9875 43.7648 17.9287C43.7648 8.39931 35.5765 0.422837 25.4118 1.55225C25.2001 1.55225 24.9177 1.62284 24.706 1.62284C18.1413 2.96401 14.0471 6.77578 12.0001 11.717C11.506 12.9875 11.153 14.3287 10.9413 15.7405L10.8707 16.3052C10.6589 18.4228 10.8707 20.6111 11.506 22.5875H7.12949C6.00008 22.5875 5.08243 23.4346 5.01184 24.4934C3.81184 24.7758 2.82361 25.9052 2.82361 27.2464V41.1522C2.82361 42.6346 4.02361 43.9052 5.57655 43.9052H13.2707C13.6236 45.3875 14.9648 46.517 16.5883 46.517C18.4236 46.517 34.7295 46.5875 34.8001 46.5875C35.2236 46.5875 35.506 46.2346 35.506 45.8817V38.964C35.506 37.6934 36.5648 36.564 37.906 36.564C38.8942 36.564 39.8118 36.2111 40.5177 35.5052C41.153 34.8699 41.506 34.0228 41.5766 33.2464C41.5766 33.1052 41.5766 33.0346 41.5766 32.8934V30.2111H43.2707C43.906 30.2111 44.4707 29.9287 44.8236 29.4346C45.1766 28.8699 45.3177 28.2346 45.106 27.7405ZM43.6236 28.517C43.553 28.6581 43.4118 28.7287 43.2707 28.7287H41.506C40.7295 28.7287 40.1648 29.364 40.1648 30.0699V31.3405H38.0471C37.7648 30.9875 37.4118 30.7052 36.9177 30.7052C36.1413 30.7052 35.5766 31.3405 35.5766 32.0464C35.5766 32.7523 36.1413 33.3875 36.9177 33.3875C37.4118 33.3875 37.8354 33.1052 38.0471 32.7523H40.0942V32.964C40.0236 33.5287 39.8118 34.0228 39.4589 34.3758C39.0354 34.7993 38.4707 35.0111 37.8354 35.0111C35.7177 35.0111 34.0236 36.7052 34.0236 38.8228V45.0346H19.3413C19.6236 44.6817 19.7648 44.2581 19.906 43.8346H27.6001C29.0824 43.8346 30.353 42.564 30.353 41.0817V27.2464C30.353 25.9052 29.3648 24.7758 28.0942 24.564C27.953 23.5052 27.0354 22.6581 25.9765 22.6581H18.4942C17.7177 22.6581 17.0824 22.9405 16.5883 23.5052C16.0942 23.0111 15.4589 22.6581 14.6824 22.6581H13.0589C12.8471 22.0228 12.706 21.4581 12.5648 20.8228H17.7883C18.2118 20.8228 18.4942 20.4699 18.4942 20.117V17.9287C18.9883 17.717 19.2707 17.2228 19.2707 16.6581C19.2707 15.8817 18.6354 15.2464 17.8589 15.2464C17.0824 15.2464 16.4471 15.8817 16.4471 16.6581C16.4471 17.1522 16.7295 17.5758 17.0824 17.8581V19.3405H12.353C12.1413 17.5052 12.353 16.164 12.4236 15.9522C12.5648 14.8228 12.8471 13.764 13.2001 12.7052C17.0118 12.2111 21.953 12.4934 24.4236 16.0934C27.2471 20.2581 32.4707 22.5875 38.3295 22.5875C39.6001 22.5875 40.9413 22.4464 42.2824 22.2346L43.6942 28.0934C43.7648 28.3052 43.6942 28.4464 43.6236 28.517ZM7.20008 24.0699H14.6824C15.3177 24.0699 15.8824 24.6346 15.8824 25.2699V27.5287V28.6581V29.6464V38.3993C15.8824 39.0346 15.3883 39.5287 14.6824 39.5287H7.20008C6.84714 39.5287 6.4942 39.2464 6.4942 38.8228V24.7052C6.4942 24.6346 6.4942 24.4934 6.56479 24.4228C6.70596 24.2817 6.91773 24.0699 7.20008 24.0699ZM26.6118 24.7758V38.8934C26.6118 39.2464 26.3295 39.5993 25.906 39.5993H18.4942C18.353 39.5993 18.2118 39.5993 18.0707 39.5287C17.7177 39.3875 17.3648 39.0346 17.3648 38.6111V31.3405C17.3648 31.2699 17.3648 31.1287 17.3648 31.0581V29.1522V25.2699C17.3648 24.6346 17.8589 24.0699 18.5648 24.0699H26.0471C26.3295 24.0699 26.6118 24.2111 26.6824 24.4934C26.6118 24.564 26.6118 24.7052 26.6118 24.7758ZM41.3648 12.564H38.753C38.5413 12.917 38.1177 13.1993 37.6236 13.1993C36.8471 13.1993 36.2824 12.6346 36.2824 11.8581C36.2824 11.0817 36.8471 10.517 37.6236 10.517C38.1177 10.517 38.4707 10.7287 38.753 11.0817H40.7295C41.0118 11.6464 41.2236 12.0699 41.3648 12.564ZM29.5766 18.8464V16.3052V16.2346C29.153 15.9522 28.8707 15.5287 28.8707 14.964C28.8707 14.1875 29.506 13.5522 30.2824 13.5522C31.0589 13.5522 31.6942 14.1875 31.6942 14.964C31.6942 15.5287 31.4118 15.9522 30.9883 16.2346V16.3052V19.6228C30.5648 19.4111 30.0707 19.1287 29.5766 18.8464ZM40.4471 19.9052C40.1648 19.9052 39.953 19.764 39.8118 19.5522L38.753 17.6464H37.1295C36.9177 17.9287 36.5648 18.1405 36.1413 18.1405C35.4354 18.1405 34.8707 17.5758 34.8707 16.8699C34.8707 16.164 35.4354 15.5993 36.1413 15.5993C36.5648 15.5993 36.9177 15.8111 37.1295 16.0934H39.1766C39.4589 16.0934 39.6707 16.2346 39.8118 16.4464L40.8707 18.3522H42.353C42.353 18.8464 42.2824 19.3405 42.2118 19.8346H40.4471V19.9052ZM33.1765 5.99931V7.48166C33.6001 7.69343 33.8824 8.18754 33.8824 8.68166C33.8824 9.45813 33.2471 10.0934 32.4707 10.0934C31.6942 10.0934 31.0589 9.45813 31.0589 8.68166C31.0589 8.11696 31.3413 7.69343 31.7648 7.48166V5.29343C31.7648 4.8699 32.1177 4.58754 32.4707 4.58754H34.306C35.0824 5.01107 35.8589 5.50519 36.5648 6.0699H33.1765V5.99931ZM25.4824 4.8699C25.4824 5.15225 25.3413 5.36401 25.1295 5.50519L22.8707 6.70519V7.55225C23.2942 7.76401 23.5766 8.25813 23.5766 8.75225C23.5766 9.52872 22.9413 10.164 22.1648 10.164C21.3883 10.164 20.753 9.52872 20.753 8.75225C20.753 8.18754 21.0354 7.76401 21.4589 7.48166V6.28166C21.4589 5.99931 21.6001 5.78754 21.8118 5.64637L24.0001 4.44637V3.24637C24.2824 3.17578 25.0589 3.0346 25.4824 2.96401V4.8699Z" fill="black"/>
<path id="Vector_2" d="M9.45893 27.8815H12.9178C13.3413 27.8815 13.6236 27.5286 13.6236 27.1756C13.6236 27.105 13.6236 27.105 13.6236 27.105C13.6236 26.8933 13.4825 26.7521 13.3413 26.6109C13.2001 26.5403 13.0589 26.4697 12.9178 26.4697H9.45893C9.0354 26.4697 8.75305 26.8227 8.75305 27.1756C8.75305 27.5286 9.0354 27.8815 9.45893 27.8815Z" fill="black"/>
<path id="Vector_3" d="M8.54127 30.9879H13.7648C14.1883 30.9879 14.4707 30.635 14.4707 30.2821C14.4707 29.8585 14.1177 29.5762 13.7648 29.5762H8.54127C8.11774 29.5762 7.83539 29.9291 7.83539 30.2821C7.83539 30.635 8.18833 30.9879 8.54127 30.9879Z" fill="black"/>
<path id="Vector_4" d="M8.54127 34.0934H13.7648C14.1883 34.0934 14.4707 33.7405 14.4707 33.3875C14.4707 32.964 14.1177 32.6816 13.7648 32.6816H8.54127C8.11774 32.6816 7.83539 33.0346 7.83539 33.3875C7.83539 33.8111 8.18833 34.0934 8.54127 34.0934Z" fill="black"/>
<path id="Vector_5" d="M8.54127 37.2702H13.7648C14.1883 37.2702 14.4707 36.9172 14.4707 36.5643C14.4707 36.1408 14.1177 35.8584 13.7648 35.8584H8.54127C8.11774 35.8584 7.83539 36.2113 7.83539 36.5643C7.83539 36.9172 8.18833 37.2702 8.54127 37.2702Z" fill="black"/>
<path id="Vector_6" d="M20.2589 27.8815H23.7177C24.1413 27.8815 24.4236 27.5286 24.4236 27.1756C24.4236 26.8227 24.0707 26.4697 23.7177 26.4697H20.2589C19.8354 26.4697 19.553 26.8227 19.553 27.1756C19.553 27.5286 19.8354 27.8815 20.2589 27.8815Z" fill="black"/>
<path id="Vector_7" d="M24.5648 29.5049H19.3413C18.9177 29.5049 18.6354 29.8578 18.6354 30.2108C18.6354 30.6343 18.9883 30.9166 19.3413 30.9166H24.5648C24.9883 30.9166 25.2707 30.5637 25.2707 30.2108C25.2707 29.8578 24.9883 29.5049 24.5648 29.5049Z" fill="black"/>
<path id="Vector_8" d="M24.5648 32.6816H19.3413C18.9177 32.6816 18.6354 33.0346 18.6354 33.3875C18.6354 33.8111 18.9883 34.0934 19.3413 34.0934H24.5648C24.9883 34.0934 25.2707 33.7405 25.2707 33.3875C25.2707 32.964 24.9883 32.6816 24.5648 32.6816Z" fill="black"/>
<path id="Vector_9" d="M24.5648 35.7871H19.3413C18.9177 35.7871 18.6354 36.1401 18.6354 36.493C18.6354 36.9165 18.9883 37.1989 19.3413 37.1989H24.5648C24.9883 37.1989 25.2707 36.8459 25.2707 36.493C25.2707 36.1401 24.9883 35.7871 24.5648 35.7871Z" fill="black"/>
</g>
</g>
</g>
</svg>
