<svg width="43" height="48" viewBox="0 0 43 48" fill="none" xmlns="http://www.w3.org/2000/svg">
<path d="M28.808 5.64238L27.3775 6.07947C27.2186 5.48344 26.9802 4.92715 26.702 4.37086C25.6689 2.42384 24.1987 1.39073 22.4106 1.39073C22.2914 1.39073 22.1722 1.39072 22.053 1.43045C22.0133 1.35098 21.9338 1.31125 21.8941 1.23178C21.0994 0.397341 20.106 0 18.9139 0C16.5695 0.0794702 14.2649 1.74834 12.3974 4.72847C11.0861 6.83444 10.053 9.45695 9.77484 11.5232L5.2053 12.9536C3.85431 13.3907 3.81457 13.4305 3.65563 14.702C3.53643 15.6556 0 42.9536 0 42.9536L29.2848 48V5.60264C29.0464 5.60264 28.9272 5.60264 28.808 5.64238ZM22.053 7.74834L17.1258 9.29801C17.6027 7.4702 18.5166 5.64238 19.6292 4.45032C20.0265 4.01324 20.6225 3.49668 21.298 3.21853C21.9338 4.56953 22.053 6.43709 22.053 7.74834ZM18.8742 1.5894C19.351 1.54967 19.8676 1.70861 20.2649 1.94702C19.5894 2.30463 18.9934 2.78145 18.4768 3.33775C17.0066 4.92715 15.8543 7.39072 15.4172 9.77483L11.3245 11.0464C12.1589 7.31125 15.2583 1.70861 18.8742 1.5894ZM14.3444 22.8874C14.5033 25.3907 21.0596 25.9073 21.4172 31.7483C21.6954 36.3576 18.9934 39.4967 15.0596 39.7351C10.3311 40.053 7.74835 37.2715 7.74835 37.2715L8.74173 33.0199C8.74173 33.0199 11.3642 35.0066 13.4305 34.8477C14.7815 34.7682 15.298 33.6556 15.2186 32.8609C15.0199 29.6026 9.69537 29.8013 9.33776 24.4768C9.05961 19.9867 12 15.4172 18.5166 15.0199C21.0199 14.8609 22.2914 15.4967 22.2914 15.4967L20.8212 21.0596C20.8212 21.0596 19.1523 20.3046 17.2053 20.4238C14.3444 20.6225 14.3046 22.4503 14.3444 22.8874ZM23.6027 7.27152C23.6027 6.07947 23.4437 4.45032 22.8874 3.01986C24.6358 3.33774 25.51 5.36424 25.9073 6.55629C25.8676 6.55629 23.6027 7.27152 23.6027 7.27152ZM30.1192 47.9205L42.2782 44.9007C42.2782 44.9007 37.0331 9.53642 37.0331 9.29801C36.9934 9.09934 36.8345 8.9404 36.5961 8.90066C36.4371 8.90066 33.0199 8.82119 33.0199 8.82119C33.0199 8.82119 30.9537 6.7947 30.159 6.03973V47.9205H30.1192Z" fill="black"/>
</svg>
