<svg width="142" height="46" viewBox="0 0 142 46" fill="none" xmlns="http://www.w3.org/2000/svg">
<g id="selenide_black_logo 1">
<g id="Group">
<path id="Vector" d="M49.3959 17.9817C49.0916 17.5635 48.6859 17.1453 48.1788 16.8317C47.6716 16.5181 47.063 16.4135 46.4545 16.4135C46.1502 16.4135 45.8459 16.4135 45.643 16.5181C45.3388 16.6226 45.1359 16.7272 44.933 16.8317C44.7302 16.9363 44.5273 17.1453 44.4259 17.3544C44.3245 17.5635 44.223 17.7726 44.223 18.0863C44.223 18.609 44.4259 19.0272 44.933 19.2363C45.4402 19.4453 46.1502 19.759 47.063 19.9681C47.6716 20.0726 48.1788 20.2817 48.6859 20.4908C49.193 20.6999 49.5988 20.909 50.0045 21.2226C50.4102 21.5363 50.7145 21.8499 50.9173 22.2681C51.1202 22.6863 51.2216 23.209 51.2216 23.7317C51.2216 24.4635 51.1202 25.0908 50.8159 25.6135C50.5116 26.1363 50.2073 26.5544 49.7002 26.8681C49.193 27.1817 48.6859 27.3908 48.0773 27.5999C47.4688 27.7044 46.8602 27.809 46.2516 27.809C45.3388 27.809 44.4259 27.5999 43.513 27.2863C42.6002 26.8681 41.8902 26.3453 41.2816 25.509L43.0059 23.9408C43.3102 24.4635 43.8173 24.8817 44.4259 25.1953C45.0345 25.509 45.643 25.7181 46.353 25.7181C46.6573 25.7181 46.9616 25.7181 47.2659 25.6135C47.5702 25.509 47.773 25.4044 48.0773 25.2999C48.2802 25.1953 48.483 24.9863 48.6859 24.7772C48.7873 24.5681 48.8888 24.2544 48.8888 23.8363C48.8888 23.209 48.5845 22.7908 48.0773 22.4772C47.5702 22.1635 46.7588 21.9544 45.643 21.6408C45.2373 21.5363 44.8316 21.4317 44.3245 21.2226C43.9188 21.1181 43.513 20.909 43.2088 20.5953C42.9045 20.2817 42.6002 19.9681 42.3973 19.5499C42.1945 19.1317 42.093 18.609 42.093 18.0863C42.093 17.3544 42.1945 16.8317 42.4988 16.309C42.803 15.7863 43.1073 15.3681 43.513 15.0544C43.9188 14.7408 44.4259 14.5317 45.0345 14.3226C45.643 14.2181 46.1502 14.1135 46.7588 14.1135C47.6716 14.1135 48.483 14.3226 49.2945 14.6363C50.1059 14.9499 50.7145 15.4726 51.2216 16.2044L49.3959 17.9817Z" fill="black"/>
<path id="Vector_2" d="M65.9284 21.1177C65.9284 21.2223 65.9284 21.4314 65.9284 21.5359C65.9284 21.6405 65.9284 21.8496 65.9284 21.9541H56.0898C56.0898 22.4768 56.1912 22.9996 56.3941 23.4177C56.5969 23.9405 56.9012 24.2541 57.3069 24.6723C57.7126 24.9859 58.1184 25.2996 58.6255 25.5086C59.1326 25.7177 59.6398 25.8223 60.1469 25.8223C60.9584 25.8223 61.6684 25.6132 62.2769 25.2996C62.8855 24.8814 63.3926 24.4632 63.6969 23.9405L65.4212 25.4041C64.7112 26.345 64.0012 26.9723 63.0884 27.3905C62.1755 27.8086 61.1612 28.0177 60.0455 28.0177C59.1326 28.0177 58.2198 27.8086 57.4084 27.495C56.5969 27.1814 55.8869 26.7632 55.3798 26.1359C54.7712 25.5086 54.3655 24.8814 54.0612 24.045C53.7569 23.2086 53.5541 22.2677 53.5541 21.3268C53.5541 20.3859 53.7569 19.445 54.0612 18.6086C54.3655 17.7723 54.8726 17.0405 55.3798 16.4132C55.9884 15.7859 56.5969 15.3677 57.4084 15.0541C58.2198 14.7405 59.0312 14.5314 59.9441 14.5314C60.8569 14.5314 61.6684 14.6359 62.3784 14.9496C63.0884 15.2632 63.7984 15.6814 64.3055 16.3086C64.8127 16.9359 65.2184 17.5632 65.5226 18.3996C65.7255 19.1314 65.9284 20.0723 65.9284 21.1177ZM63.3926 20.0723C63.3926 19.5496 63.2912 19.1314 63.1898 18.6086C63.0884 18.1905 62.7841 17.7723 62.5812 17.4586C62.2769 17.145 61.9726 16.8314 61.4655 16.7268C61.0598 16.5177 60.5526 16.4132 59.9441 16.4132C59.4369 16.4132 58.9298 16.5177 58.4226 16.7268C57.9155 16.9359 57.5098 17.145 57.2055 17.4586C56.9012 17.7723 56.5969 18.1905 56.3941 18.6086C56.1912 19.0268 56.0898 19.5496 55.9884 20.0723H63.3926Z" fill="black"/>
<path id="Vector_3" d="M71.8114 27.5996H69.3771V7.21326H71.8114V27.5996Z" fill="black"/>
<path id="Vector_4" d="M87.736 21.1177C87.736 21.2223 87.736 21.4314 87.736 21.5359C87.736 21.6405 87.736 21.8496 87.736 21.9541H77.8974C77.8974 22.4768 77.9988 22.9996 78.2017 23.4177C78.4045 23.9405 78.7088 24.2541 79.1145 24.6723C79.5203 24.9859 79.926 25.2996 80.4331 25.5086C80.9403 25.7177 81.4474 25.8223 81.9546 25.8223C82.766 25.8223 83.476 25.6132 84.0845 25.2996C84.6931 24.8814 85.2003 24.4632 85.5046 23.9405L87.2288 25.4041C86.5188 26.345 85.8088 26.9723 84.896 27.3905C83.9831 27.8086 82.9688 28.0177 81.8531 28.0177C80.9403 28.0177 80.0274 27.8086 79.216 27.495C78.4045 27.1814 77.6945 26.7632 77.1874 26.1359C76.5788 25.5086 76.1731 24.8814 75.8688 24.045C75.5646 23.2086 75.3617 22.2677 75.3617 21.3268C75.3617 20.3859 75.5646 19.445 75.8688 18.6086C76.1731 17.7723 76.6803 17.0405 77.1874 16.4132C77.796 15.7859 78.4045 15.3677 79.216 15.0541C80.0274 14.7405 80.8388 14.5314 81.7517 14.5314C82.6645 14.5314 83.476 14.6359 84.186 14.9496C84.896 15.2632 85.606 15.6814 86.1131 16.3086C86.6203 16.9359 87.026 17.5632 87.3303 18.3996C87.5331 19.1314 87.736 20.0723 87.736 21.1177ZM85.2003 20.0723C85.2003 19.5496 85.0988 19.1314 84.9974 18.6086C84.896 18.1905 84.5917 17.7723 84.3888 17.4586C84.0845 17.145 83.7803 16.8314 83.2731 16.7268C82.8674 16.5177 82.3603 16.4132 81.7517 16.4132C81.2445 16.4132 80.7374 16.5177 80.2303 16.7268C79.7231 16.9359 79.3174 17.145 79.0131 17.4586C78.7088 17.7723 78.4045 18.1905 78.2017 18.6086C77.9988 19.0268 77.8974 19.5496 77.796 20.0723H85.2003Z" fill="black"/>
<path id="Vector_5" d="M93.3142 14.7405C93.3142 15.0542 93.4156 15.4723 93.4156 15.786C93.4156 16.2042 93.4156 16.5178 93.4156 16.8314H93.517C93.7199 16.5178 93.9227 16.2042 94.1256 15.8905C94.4299 15.5769 94.7342 15.3678 95.0385 15.1587C95.3427 14.9496 95.7485 14.7405 96.1542 14.636C96.5599 14.5314 96.9656 14.4269 97.4727 14.4269C98.2842 14.4269 98.9942 14.5314 99.5013 14.8451C100.11 15.1587 100.516 15.4723 100.921 15.9951C101.327 16.4132 101.631 17.0405 101.733 17.6678C101.936 18.2951 102.037 18.9223 102.037 19.6542V27.5996H99.6027V20.4905C99.6027 19.9678 99.6027 19.4451 99.5013 19.0269C99.3999 18.6087 99.2985 18.1905 99.0956 17.7723C98.8927 17.4587 98.5885 17.1451 98.1827 16.936C97.777 16.7269 97.3713 16.6223 96.7627 16.6223C95.7485 16.6223 94.937 17.0405 94.3285 17.7723C93.7199 18.5042 93.4156 19.5496 93.4156 20.8042V27.5996H90.9813V17.5632C90.9813 17.2496 90.9813 16.8314 90.9813 16.2042C90.9813 15.6814 90.9813 15.1587 90.8799 14.7405H93.3142Z" fill="black"/>
<path id="Vector_6" d="M109.238 10.1407C109.238 10.5589 109.035 10.977 108.731 11.2907C108.426 11.6043 108.021 11.7089 107.615 11.7089C107.209 11.7089 106.804 11.4998 106.499 11.1861C106.195 10.8725 105.992 10.4543 105.992 10.0361C105.992 9.61795 106.195 9.19977 106.499 8.88613C106.804 8.57249 107.209 8.3634 107.615 8.3634C108.021 8.3634 108.426 8.57249 108.731 8.88613C109.035 9.30431 109.238 9.72249 109.238 10.1407ZM108.832 27.5998H106.398V14.7407H108.832V27.5998Z" fill="black"/>
<path id="Vector_7" d="M123.033 25.5087C122.526 26.2405 121.917 26.8678 121.106 27.286C120.294 27.7042 119.483 27.9133 118.57 27.9133C117.657 27.9133 116.744 27.7042 115.933 27.3905C115.121 27.0769 114.513 26.5542 114.006 25.9269C113.498 25.2996 113.093 24.5678 112.788 23.7314C112.484 22.8951 112.383 22.0587 112.383 21.1178C112.383 20.1769 112.484 19.3405 112.788 18.5042C113.093 17.6678 113.498 16.936 114.107 16.3087C114.614 15.6814 115.324 15.2633 116.034 14.8451C116.846 14.5314 117.657 14.3223 118.57 14.3223C119.584 14.3223 120.497 14.5314 121.207 14.9496C121.917 15.3678 122.526 15.8905 123.033 16.5178H123.134V7.21326H125.568V27.5996H123.236L123.033 25.5087ZM114.817 21.1178C114.817 21.7451 114.918 22.2678 115.121 22.7905C115.324 23.3133 115.527 23.836 115.933 24.2542C116.237 24.6723 116.744 24.986 117.251 25.2996C117.758 25.5087 118.367 25.7178 119.077 25.7178C119.686 25.7178 120.294 25.6133 120.801 25.2996C121.308 25.0905 121.714 24.6723 122.12 24.2542C122.526 23.836 122.728 23.3133 122.931 22.7905C123.134 22.2678 123.236 21.6405 123.236 21.0133C123.236 20.386 123.134 19.8633 122.931 19.236C122.728 18.7133 122.424 18.1905 122.12 17.7723C121.816 17.3542 121.308 17.0405 120.801 16.7269C120.294 16.5178 119.686 16.3087 119.077 16.3087C118.367 16.3087 117.758 16.4133 117.251 16.7269C116.744 16.936 116.338 17.3542 115.933 17.7723C115.628 18.1905 115.324 18.7133 115.121 19.236C114.918 19.9678 114.817 20.5951 114.817 21.1178Z" fill="black"/>
<path id="Vector_8" d="M141.291 21.1177C141.291 21.2223 141.291 21.4314 141.291 21.5359C141.291 21.6405 141.291 21.8496 141.291 21.9541H131.452C131.452 22.4768 131.554 22.9996 131.756 23.4177C131.959 23.9405 132.264 24.2541 132.669 24.6723C133.075 24.9859 133.481 25.2996 133.988 25.5086C134.495 25.7177 135.002 25.8223 135.509 25.8223C136.321 25.8223 137.031 25.6132 137.639 25.2996C138.248 24.8814 138.755 24.4632 139.059 23.9405L140.784 25.4041C140.074 26.345 139.364 26.9723 138.451 27.3905C137.538 27.8086 136.524 28.0177 135.408 28.0177C134.495 28.0177 133.582 27.8086 132.771 27.495C131.959 27.1814 131.249 26.7632 130.742 26.1359C130.134 25.5086 129.728 24.8814 129.424 24.045C129.119 23.2086 128.917 22.2677 128.917 21.3268C128.917 20.3859 129.119 19.445 129.424 18.6086C129.728 17.7723 130.235 17.0405 130.742 16.4132C131.351 15.7859 131.959 15.3677 132.771 15.0541C133.582 14.7405 134.394 14.5314 135.306 14.5314C136.219 14.5314 137.031 14.6359 137.741 14.9496C138.451 15.2632 139.161 15.6814 139.668 16.3086C140.175 16.9359 140.581 17.5632 140.885 18.3996C141.189 19.1314 141.291 20.0723 141.291 21.1177ZM138.856 20.0723C138.856 19.5496 138.755 19.1314 138.654 18.6086C138.552 18.1905 138.248 17.7723 138.045 17.4586C137.741 17.145 137.437 16.8314 136.929 16.7268C136.524 16.5177 136.017 16.4132 135.408 16.4132C134.901 16.4132 134.394 16.5177 133.887 16.7268C133.379 16.9359 132.974 17.145 132.669 17.4586C132.365 17.7723 132.061 18.1905 131.858 18.6086C131.655 19.0268 131.554 19.5496 131.452 20.0723H138.856Z" fill="black"/>
</g>
<g id="Group_2">
<path id="Vector_9" d="M35.702 28.1229C35.1949 25.8229 32.9635 24.3592 30.6306 24.882C30.2249 24.9865 29.8192 25.5092 29.7177 25.8229C29.312 27.0774 29.312 28.2274 29.6163 29.5865C29.9206 30.9456 30.4277 31.991 31.3406 32.932C31.6449 33.2456 32.2535 33.4547 32.6592 33.3501C34.8906 32.8274 36.3106 30.4229 35.702 28.1229Z" fill="black"/>
<path id="Vector_10" d="M26.0677 39.3091C30.325 39.3091 33.7763 35.7518 33.7763 31.3637C33.7763 26.9755 30.325 23.4182 26.0677 23.4182C21.8104 23.4182 18.3591 26.9755 18.3591 31.3637C18.3591 35.7518 21.8104 39.3091 26.0677 39.3091Z" fill="#505050"/>
<path id="Vector_11" d="M30.1237 41.4C32.558 40.3546 33.6737 37.4273 32.6594 34.9182C32.4566 34.5 31.848 34.0818 31.4423 33.9773C30.0223 33.6637 28.8051 33.9773 27.3851 34.6046C25.9651 35.2318 24.9509 35.9637 24.1394 37.2182C23.9366 37.6364 23.7337 38.3682 23.9366 38.7864C24.9509 41.2955 27.7909 42.4455 30.1237 41.4Z" fill="black"/>
<path id="Vector_12" d="M5.88322 35.6502C7.60751 36.5912 9.73751 35.9639 10.6504 34.1866C10.8532 33.873 10.7518 33.3502 10.5489 33.0366C10.0418 32.0957 9.33179 31.4684 8.31751 30.9457C7.30322 30.423 6.39036 30.1093 5.37608 30.2139C5.07179 30.2139 4.56465 30.5275 4.36179 30.8412C3.55036 32.6184 4.15893 34.7093 5.88322 35.6502Z" fill="black"/>
<path id="Vector_13" d="M9.23082 34.1865C12.7599 34.1865 15.6208 31.2377 15.6208 27.6002C15.6208 23.9626 12.7599 21.0138 9.23082 21.0138C5.70172 21.0138 2.84082 23.9626 2.84082 27.6002C2.84082 31.2377 5.70172 34.1865 9.23082 34.1865Z" fill="#505050"/>
<path id="Vector_14" d="M0.81145 24.8819C0.10145 27.0773 1.31859 29.3773 3.34716 30.0046C3.65145 30.1092 4.26002 29.9001 4.56431 29.691C5.47717 28.9592 5.98431 28.0183 6.39002 26.7637C6.79574 25.5092 6.89717 24.4637 6.59288 23.2092C6.49145 22.791 6.08574 22.3728 5.78145 22.1637C3.75288 21.5364 1.52145 22.6864 0.81145 24.8819Z" fill="black"/>
<path id="Vector_15" d="M14.7073 0.52278C12.0702 1.56823 10.6502 4.7046 11.7659 7.42278C11.9688 7.84096 12.5773 8.36369 13.0845 8.46824C14.6059 8.78187 15.9245 8.57278 17.5473 7.94551C19.1702 7.31823 20.2859 6.58642 21.1988 5.22733C21.5031 4.80914 21.7059 3.97278 21.5031 3.5546C20.3873 0.836417 17.3445 -0.522674 14.7073 0.52278Z" fill="black"/>
<path id="Vector_16" d="M20.1839 21.9547C25.4496 21.9547 29.7182 17.5549 29.7182 12.1274C29.7182 6.69999 25.4496 2.30017 20.1839 2.30017C14.9183 2.30017 10.6497 6.69999 10.6497 12.1274C10.6497 17.5549 14.9183 21.9547 20.1839 21.9547Z" fill="#505050"/>
<path id="Vector_17" d="M31.3426 5.22731C29.6183 2.40458 26.0683 1.46367 23.2283 3.1364C22.7212 3.45004 22.4169 4.2864 22.3155 4.91367C22.214 6.69095 22.7212 8.25913 23.7355 9.93186C24.7498 11.6046 25.764 12.7546 27.3869 13.5909C27.894 13.8 28.8069 13.9046 29.314 13.5909C32.154 11.8137 33.0669 8.15458 31.3426 5.22731Z" fill="black"/>
</g>
</g>
</svg>
