<svg width="59" height="48" viewBox="0 0 59 48" fill="none" xmlns="http://www.w3.org/2000/svg">
<g clip-path="url(#clip0_11612_57879)">
<path d="M57.3645 28.0502H48.2934V13.0209C48.2934 11.5816 47.1218 10.41 45.6825 10.41H30.6532V1.33889C30.7202 0.702908 30.2515 0.13387 29.649 0.0669247C29.0131 -2.08952e-05 28.444 0.468598 28.3771 1.07111V10.3765H13.3143C11.875 10.3765 10.7034 11.5481 10.7034 12.9874V28.0502H1.69924C1.06326 27.9832 0.494222 28.4519 0.427276 29.0544C0.360331 29.6904 0.82895 30.2594 1.43146 30.3263H10.67V45.3891C10.67 46.8284 11.8415 48 13.2808 48H45.6825C47.1218 48 48.2934 46.8284 48.2934 45.3891V30.3263H57.3645C58.034 30.3598 58.603 29.8577 58.6365 29.1883C58.6365 28.5523 58.034 28.0502 57.3645 28.0502ZM16.829 21.8242L29.5151 14.4937L42.2013 21.8242V28.4519L36.3771 26.5774V25.205L29.4817 21.2552L24.4942 24.1673L42.1679 29.8242V36.4519L29.5151 43.7824L16.8624 36.4519V29.8242L22.7202 31.6653V33.0376L29.5486 36.9874L34.6365 34.0418L16.829 28.4184V21.8242Z" fill="black"/>
</g>
<defs>
<clipPath id="clip0_11612_57879">
<rect width="58.9971" height="48" fill="white"/>
</clipPath>
</defs>
</svg>
