<svg width="43" height="48" viewBox="0 0 43 48" fill="none" xmlns="http://www.w3.org/2000/svg">
<path d="M40.816 1.0427C38.752 -0.797305 36.256 -0.0573049 33.79 2.1307C33.4098 2.47116 33.0448 2.82818 32.696 3.2007C28.478 7.6747 24.564 15.9607 23.348 22.2887C23.822 23.2487 24.192 24.4747 24.436 25.4107C24.5583 25.8762 24.6677 26.3451 24.764 26.8167C24.764 26.8167 24.726 26.6747 24.572 26.2247L24.472 25.9327C24.4514 25.8788 24.4294 25.8255 24.406 25.7727C24.13 25.1327 23.37 23.7827 23.034 23.1947C22.748 24.0407 22.494 24.8307 22.282 25.5467C23.25 27.3147 23.838 30.3467 23.838 30.3467C23.838 30.3467 23.788 30.1487 23.544 29.4627C23.33 28.8567 22.256 26.9747 22 26.5347C21.566 28.1427 21.392 29.2267 21.548 29.4907C21.852 30.0027 22.14 30.8867 22.392 31.8627C22.964 34.0627 23.362 36.7427 23.362 36.7427L23.396 37.1907C23.3208 39.0233 23.3582 40.8587 23.508 42.6867C23.698 44.9787 24.054 46.9467 24.508 48.0007L24.818 47.8327C24.15 45.7567 23.878 43.0347 23.998 39.8987C24.178 35.1027 25.282 29.3187 27.32 23.2907C30.766 14.1907 35.546 6.8887 39.92 3.4007C35.934 7.0007 30.536 18.6607 28.92 22.9767C27.112 27.8087 25.83 32.3447 25.058 36.6907C26.39 32.6167 30.7 30.8667 30.7 30.8667C30.7 30.8667 32.814 28.2587 35.284 24.5347C33.804 24.8727 31.374 25.4507 30.56 25.7927C29.36 26.2947 29.036 26.4667 29.036 26.4667C29.036 26.4667 32.926 24.0987 36.262 23.0267C40.85 15.8007 45.85 5.5347 40.816 1.0427ZM3.67 2.1287C2.69745 2.13239 1.76581 2.5205 1.07829 3.2084C0.390772 3.89629 0.00316095 4.82814 0 5.8007V39.0167C0.00316661 39.9889 0.390907 40.9203 1.07854 41.6076C1.76617 42.2948 2.69781 42.6821 3.67 42.6847H22.506C22.3648 40.8836 22.3301 39.0758 22.402 37.2707C22.39 37.1467 22.38 36.9887 22.37 36.8707C22.126 35.272 21.8104 33.6851 21.424 32.1147C21.182 31.1747 20.874 30.3187 20.686 30.0007C20.454 29.6067 20.49 29.3807 20.492 29.1367C20.492 28.8967 20.522 28.6467 20.566 28.3647C20.6845 27.6602 20.8407 26.9625 21.034 26.2747L21.468 26.2187C21.434 26.1487 21.44 26.0887 21.406 26.0247L21.324 25.2627C21.5634 24.4619 21.8181 23.6658 22.088 22.8747L22.488 22.8367C22.472 22.8047 22.468 22.7607 22.452 22.7307L22.366 22.0987C23.626 15.5387 27.54 7.2127 31.966 2.5167C32.098 2.3787 32.232 2.2607 32.362 2.1287H3.67Z" fill="black"/>
</svg>
