<svg width="64" height="64" viewBox="0 0 64 64" fill="none" xmlns="http://www.w3.org/2000/svg">
<g id="Simpleicons-Team-Simple-Scikitlearn 1" clip-path="url(#clip0_14170_61460)">
<path id="Vector" d="M41.6027 14.7455C36.5094 14.8388 30.9867 17.1722 26.5894 21.5722C18.7761 29.3855 21.0347 44.3188 23.6881 46.9722C25.8347 49.1162 41.2747 51.8868 49.0907 44.0708C49.6351 43.5227 50.1547 42.9506 50.6481 42.3562C50.7627 41.5775 51.1947 40.5962 51.9521 39.4068C51.5016 39.6358 51.0186 39.7941 50.5201 39.8762C50.1361 40.5828 49.5334 41.3428 48.7174 42.1562C47.7734 43.0495 47.0987 43.6335 46.6907 43.9055C46.3511 44.1531 45.9454 44.2942 45.5254 44.3108C44.5921 44.3108 44.1547 43.4895 44.208 41.8468C43.6214 42.6895 43.0747 43.3108 42.5761 43.7135C42.1475 44.0861 41.6024 44.2973 41.0347 44.3108C40.5174 44.3108 40.0747 44.0708 39.7121 43.5828C39.4228 43.1862 39.245 42.7194 39.1974 42.2308C38.6145 42.8224 37.9648 43.3441 37.2614 43.7855C36.6641 44.1375 36.0081 44.3108 35.2881 44.3108C34.4881 44.3108 33.8401 44.0548 33.3494 43.5428C32.984 43.1577 32.745 42.6702 32.6641 42.1455V42.1562C31.8641 42.8922 31.1601 43.4362 30.5574 43.7855C30.0374 44.1112 29.44 44.2926 28.8267 44.3108C28.5329 44.3185 28.2415 44.256 27.9766 44.1284C27.7118 44.0009 27.4812 43.812 27.3041 43.5775C26.9174 43.0895 26.7227 42.4308 26.7227 41.6068C26.7227 40.3695 26.9921 38.8868 27.5281 37.1535C28.0641 35.4202 28.7147 33.8202 29.4827 32.3615L31.7281 31.5295C31.7794 31.5102 31.8333 31.4985 31.8881 31.4948C32.0561 31.4948 32.1974 31.6202 32.3067 31.8682C32.4134 32.1215 32.4694 32.4575 32.4694 32.8815C32.4694 34.0842 32.1921 35.2495 31.6374 36.3748C31.0854 37.5002 30.2187 38.7028 29.0401 39.9802C28.9921 40.5935 28.9681 41.0148 28.9681 41.2442C28.9681 41.7588 29.0641 42.1642 29.2507 42.4655C29.4401 42.7668 29.6907 42.9162 30.0027 42.9162C30.3687 42.9016 30.7225 42.7811 31.0214 42.5695C31.3734 42.3455 31.9094 41.8762 32.6267 41.1748C32.7014 40.0602 33.1254 39.0468 33.9121 38.1295C34.7761 37.1162 35.7387 36.6122 36.7921 36.6122C37.3414 36.6122 37.7787 36.7562 38.1094 37.0388C38.2706 37.1747 38.399 37.3454 38.4849 37.538C38.5708 37.7305 38.612 37.9401 38.6054 38.1508C38.6054 39.3722 37.3094 40.3615 34.7147 41.1215C34.9494 42.2682 35.5681 42.8442 36.5627 42.8442C36.9549 42.8434 37.3394 42.7355 37.6747 42.5322C38.0187 42.3295 38.5307 41.8842 39.2081 41.2068C39.2934 40.5348 39.5227 39.8868 39.8987 39.2655C40.3841 38.4655 41.0081 37.8148 41.7681 37.3188C42.5281 36.8255 43.2001 36.5775 43.7841 36.5775C44.5201 36.5775 45.0374 36.9162 45.3307 37.5935L47.1361 36.5962H47.632L46.8534 39.1855C46.4534 40.4868 46.2507 41.3802 46.2507 41.8628C46.2507 42.3695 46.4294 42.6228 46.7894 42.6228C47.0187 42.6228 47.272 42.5028 47.5494 42.2575C47.8267 42.0122 48.2161 41.6388 48.7147 41.1375V41.1402C49.0961 40.7268 49.4454 40.2868 49.7601 39.8228C49.2534 39.5988 49.0001 39.2628 49.0001 38.8228C49.0001 38.3695 49.1547 37.8842 49.4641 37.3695C49.7734 36.8522 50.1974 36.5962 50.7414 36.5962C51.2001 36.5962 51.4294 36.8308 51.4294 37.3028C51.4294 37.6735 51.2961 38.2042 51.0321 38.8922C52.0107 38.7855 52.8641 38.0388 53.5947 36.6468L54.2027 36.6202C57.0267 30.1188 56.4107 23.0868 51.9894 18.6682C49.2721 15.9482 45.5681 14.6682 41.6027 14.7455ZM54.2027 36.6202C53.2959 38.6911 52.099 40.6224 50.6481 42.3562C50.6285 42.4859 50.6179 42.6169 50.6161 42.7482C50.6161 43.1962 50.7414 43.5722 50.9894 43.8762C51.2347 44.1775 51.5387 44.3295 51.8961 44.3295C52.6854 44.3295 53.8001 43.6255 55.2401 42.2308C55.2374 42.3375 55.2321 42.4442 55.2321 42.5535C55.2321 42.9428 55.264 43.5348 55.328 44.3295L57.2827 43.8708C57.2827 43.3375 57.2907 42.9188 57.3094 42.6068C57.3361 42.1882 57.3974 41.7268 57.4854 41.2282C57.5387 40.9348 57.6721 40.6522 57.8907 40.3882L58.3867 39.8122C58.7041 39.442 59.0406 39.0887 59.3947 38.7535C59.5601 38.6068 59.7041 38.4895 59.8267 38.4068C59.9238 38.3385 60.0367 38.2963 60.1547 38.2842C60.3014 38.2842 60.3761 38.3775 60.3761 38.5668C60.3761 38.7535 60.2374 39.1962 59.9601 39.8922C59.4427 41.1882 59.1814 42.1535 59.1814 42.7828C59.1814 43.2495 59.3041 43.6202 59.5441 43.8975C59.662 44.0336 59.809 44.1414 59.9743 44.213C60.1395 44.2845 60.3188 44.318 60.4987 44.3108C61.4721 44.3108 62.6401 43.5935 64.0001 42.1562V41.1402C63.0374 42.2762 62.3387 42.8468 61.9094 42.8468C61.6187 42.8468 61.4747 42.6682 61.4747 42.3135C61.4747 42.0468 61.6481 41.4708 61.9947 40.5802C62.5014 39.2842 62.7547 38.3508 62.7547 37.7855C62.7657 37.4745 62.659 37.1707 62.4561 36.9348C62.3637 36.826 62.2484 36.7392 62.1183 36.6806C61.9882 36.622 61.8467 36.5932 61.7041 36.5962C61.2641 36.5962 60.7601 36.8015 60.1921 37.2175C59.6241 37.6335 58.8587 38.3802 57.8907 39.4575C58.0321 38.7588 58.3307 37.7988 58.7841 36.5775L56.6267 36.9935C56.189 37.9152 55.8329 38.8735 55.5627 39.8575C55.4561 40.2735 55.3761 40.7002 55.3174 41.1375C54.8999 41.5568 54.4639 41.9572 54.0107 42.3375C53.8359 42.4734 53.6214 42.5483 53.4001 42.5508C53.3108 42.5544 53.222 42.5364 53.1413 42.4983C53.0605 42.4603 52.9901 42.4033 52.9361 42.3322C52.8142 42.1596 52.7541 41.9511 52.7654 41.7402C52.7654 41.4735 52.8161 41.1695 52.9147 40.8255C53.0161 40.4788 53.2347 39.8308 53.5787 38.8762L54.4001 36.6122L54.2027 36.6202ZM8.30939 28.8148C6.00805 28.7722 3.85605 29.5162 2.28005 31.0922C-1.32528 34.6975 -0.57328 41.2975 3.96272 45.8308C8.49605 50.3668 17.1627 49.0575 18.7014 47.5162C19.9467 46.2735 21.5547 37.3108 17.0187 32.7775C14.4667 30.2255 11.2667 28.8708 8.30939 28.8148ZM41.0694 29.7695H41.5121V30.3295H41.0667L41.0694 29.7695ZM42.2081 29.7695H42.6507V32.0762L43.8774 30.8628H44.3974L43.4267 31.8282L44.5681 33.6522H44.0401L43.0881 32.1188L42.6507 32.5615V33.6548H42.2081V29.7695ZM44.9174 29.7695H45.3601V30.3295H44.9174V29.7695ZM46.2001 30.0948H46.6427V30.8628H47.1014V31.2228H46.6427V33.1348C46.6427 33.2335 46.6587 33.3002 46.6961 33.3348C46.7281 33.3695 46.7947 33.3882 46.8934 33.3882C46.9637 33.3913 47.0341 33.3823 47.1014 33.3615V33.7375C46.9818 33.7602 46.8605 33.7727 46.7387 33.7748C46.5961 33.7844 46.4546 33.7438 46.3387 33.6602C46.2918 33.6199 46.2549 33.5693 46.2309 33.5124C46.2068 33.4555 46.1963 33.3938 46.2001 33.3322V31.2255H45.8241V30.8628H46.2001V30.0948ZM36.7014 30.7828C36.9174 30.7828 37.1014 30.8148 37.2534 30.8842C37.4054 30.9482 37.5201 31.0468 37.6001 31.1775C37.6801 31.3082 37.7201 31.4602 37.7201 31.6388H37.2507C37.2347 31.3428 37.0507 31.1935 36.6961 31.1935C36.5426 31.1849 36.3901 31.223 36.2587 31.3028C36.2075 31.3367 36.1658 31.3832 36.1378 31.4378C36.1098 31.4925 36.0963 31.5534 36.0987 31.6148C36.0987 31.7082 36.1387 31.7882 36.2187 31.8495C36.2987 31.9135 36.4321 31.9668 36.6187 32.0095L37.0454 32.1135C37.2659 32.1518 37.4722 32.2485 37.6427 32.3935C37.7681 32.5162 37.8294 32.6815 37.8294 32.8895C37.8328 33.0557 37.7843 33.2188 37.6907 33.3562C37.5894 33.4973 37.4483 33.6051 37.2854 33.6655C37.0937 33.7414 36.8889 33.7786 36.6827 33.7748C36.3201 33.7748 36.0427 33.6948 35.8587 33.5402C35.6747 33.3828 35.5787 33.1428 35.5681 32.8228H36.0374C36.0481 32.9215 36.0641 32.9962 36.0827 33.0468C36.1033 33.1002 36.1341 33.1491 36.1734 33.1908C36.2907 33.3055 36.4721 33.3642 36.7174 33.3642C36.8832 33.3725 37.0477 33.3306 37.1894 33.2442C37.244 33.2111 37.2891 33.1645 37.3204 33.1089C37.3517 33.0533 37.3681 32.9906 37.3681 32.9268C37.3696 32.8819 37.3614 32.8371 37.3439 32.7956C37.3264 32.7542 37.3001 32.717 37.2667 32.6868C37.1698 32.6122 37.0564 32.5619 36.9361 32.5402L36.5201 32.4388C36.3759 32.4039 36.2343 32.3593 36.0961 32.3055C36.0007 32.2657 35.9125 32.2108 35.8347 32.1428C35.7667 32.0821 35.7137 32.0063 35.6801 31.9215C35.6494 31.8286 35.635 31.7312 35.6374 31.6335C35.6374 31.3775 35.7334 31.1695 35.9281 31.0148C36.1513 30.8505 36.4245 30.7685 36.7014 30.7828ZM39.4614 30.7828C39.6473 30.7797 39.8315 30.8189 40.0001 30.8975C40.1178 30.952 40.223 31.0304 40.3088 31.1277C40.3947 31.2251 40.4593 31.3392 40.4987 31.4628C40.5316 31.5722 40.5521 31.6849 40.5601 31.7988H40.1121C40.1011 31.6288 40.0269 31.469 39.9041 31.3508C39.7792 31.2411 39.6168 31.1838 39.4507 31.1908C39.3019 31.1875 39.1562 31.2344 39.0374 31.3242C38.9129 31.4234 38.8203 31.5569 38.7707 31.7082C38.7064 31.9006 38.6757 32.1026 38.6801 32.3055C38.675 32.4999 38.7067 32.6935 38.7734 32.8762C38.8268 33.0195 38.9203 33.1445 39.0427 33.2362C39.1649 33.3227 39.3117 33.3676 39.4614 33.3642C39.8401 33.3642 40.0667 33.1402 40.1441 32.6922H40.5894C40.5761 32.8982 40.5169 33.0986 40.4161 33.2788C40.325 33.4369 40.1897 33.5648 40.0267 33.6468C39.8479 33.7353 39.6502 33.7792 39.4507 33.7748C39.2196 33.7809 38.9918 33.7197 38.7947 33.5988C38.6051 33.4733 38.456 33.2954 38.3654 33.0868C38.2594 32.8403 38.2075 32.5738 38.2134 32.3055C38.2134 32.0788 38.2401 31.8708 38.2987 31.6842C38.3502 31.5072 38.4363 31.3422 38.5521 31.1988C38.6586 31.0644 38.7957 30.9574 38.9521 30.8868C39.1121 30.8147 39.2859 30.781 39.4614 30.7828ZM41.0694 30.8628H41.5121V33.6522H41.0667L41.0694 30.8628ZM44.9174 30.8628H45.3601V33.6522H44.9174V30.8628ZM31.4507 32.5108C31.2374 32.5108 30.9174 33.0548 30.5014 34.1402C30.0881 35.2255 29.6801 36.7455 29.2774 38.7002C30.0267 37.8682 30.6347 36.9348 31.0987 35.9002C31.5654 34.8682 31.7974 33.9802 31.7974 33.2362C31.8048 33.0561 31.772 32.8766 31.7014 32.7108C31.6347 32.5775 31.5521 32.5108 31.4534 32.5108H31.4507ZM43.8827 37.3028C43.2934 37.3028 42.7334 37.8042 42.2054 38.8042C41.6801 39.8068 41.4161 40.7295 41.4161 41.5722C41.4161 41.8922 41.4934 42.1482 41.6507 42.3455C41.7193 42.4385 41.8089 42.5138 41.9123 42.5653C42.0157 42.6167 42.1299 42.6429 42.2454 42.6415C42.8347 42.6415 43.392 42.1402 43.912 41.1348C44.4347 40.1295 44.6961 39.2015 44.6961 38.3535C44.7119 38.0781 44.6339 37.8055 44.4747 37.5802C44.4051 37.4903 44.3151 37.4183 44.2122 37.3701C44.1092 37.3219 43.9963 37.2988 43.8827 37.3028ZM36.2881 37.3215C35.8987 37.3215 35.5281 37.6148 35.1761 38.2095C34.8214 38.8015 34.6427 39.5695 34.6427 40.5188C36.1521 40.0948 36.9067 39.3135 36.9067 38.1695C36.9067 37.6042 36.7014 37.3215 36.2881 37.3215Z" fill="black"/>
</g>
<defs>
<clipPath id="clip0_14170_61460">
<rect width="64" height="64" fill="white"/>
</clipPath>
</defs>
</svg>
