<svg width="48" height="48" viewBox="0 0 48 48" fill="none" xmlns="http://www.w3.org/2000/svg">
<g id="Statistical Learning 1" clip-path="url(#clip0_14109_60957)">
<g id="Group">
<path id="Vector" d="M23.9922 46.5791V24" stroke="black" stroke-width="2.81067" stroke-miterlimit="10"/>
<path id="Vector_2" d="M13.8159 43.5262L23.9923 24" stroke="black" stroke-width="2.81067" stroke-miterlimit="10"/>
<path id="Vector_3" d="M29.6058 10.8418H23.9922V24H29.6058V10.8418Z" stroke="black" stroke-width="2.81067" stroke-miterlimit="10"/>
<path id="Vector_4" d="M35.2272 4.82715H29.6058V24H35.2272V4.82715Z" stroke="black" stroke-width="2.81067" stroke-miterlimit="10"/>
<path id="Vector_5" d="M40.8485 13.3242H35.2272V23.9996H40.8485V13.3242Z" stroke="black" stroke-width="2.81067" stroke-miterlimit="10"/>
<path id="Vector_6" d="M46.5947 24H40.8485V16.6665H46.5947V24ZM46.5947 24C46.5947 36.3865 36.3788 46.579 23.9922 46.579C11.6057 46.579 1.4054 36.3864 1.4054 24C1.4054 11.6135 11.6058 1.4209 23.9922 1.4209M23.9922 1.4209C24.0157 1.4209 23.9688 1.4208 23.9922 1.4209ZM23.9922 1.4209V24H40.0641" stroke="black" stroke-width="2.81067" stroke-miterlimit="10"/>
</g>
</g>
<defs>
<clipPath id="clip0_14109_60957">
<rect width="48" height="48" fill="white"/>
</clipPath>
</defs>
</svg>
