<svg width="68" height="48" viewBox="0 0 68 48" fill="none" xmlns="http://www.w3.org/2000/svg">
<path fill-rule="evenodd" clip-rule="evenodd" d="M16.0955 0.0799659C12.7706 0.518719 9.71644 2.18843 7.62376 4.71148C4.46562 8.51907 3.64004 13.7287 5.46449 18.3368L5.58365 18.6378L5.09043 18.9661C2.49262 20.6947 0.625387 23.5632 0.0875068 26.6514C-0.0305158 27.329 -0.0286931 30.104 0.090184 30.7909C0.279749 31.8856 0.763061 33.2967 1.27092 34.238C1.79257 35.2048 2.36702 35.9885 3.16367 36.8199C4.94358 38.6776 7.15018 39.8247 9.65891 40.1963C10.4872 40.319 12.0248 40.319 12.8368 40.1962C13.1749 40.1451 13.4835 40.0909 13.5227 40.0757C13.5686 40.0579 13.6615 40.218 13.7833 40.5244C14.3725 42.007 15.4152 43.549 16.6171 44.7146C18.2191 46.2684 20.1328 47.3188 22.3208 47.8453L22.9639 48L25.2258 47.9811L27.4876 47.9621L28.1623 47.7762C31.6311 46.8202 34.4823 44.4675 36.0376 41.2779L36.3516 40.6339L36.7992 40.8275C39.1976 41.8648 41.8985 41.9969 44.3195 41.1952C46.704 40.4057 48.6309 38.9133 50.0329 36.7704C50.2923 36.3739 50.4602 36.1703 50.521 36.1784C50.572 36.1851 50.87 36.2324 51.1833 36.2835C51.9647 36.4109 53.8672 36.458 54.7195 36.3708C58.1501 36.0203 61.2011 34.5607 63.6297 32.1084C65.509 30.2107 66.7815 28.0098 67.4728 25.4613C68.691 20.9697 67.7692 16.0962 65.0048 12.4131C62.7708 9.43669 59.5574 7.42463 55.971 6.75658C53.2686 6.25319 50.6107 6.51582 47.9679 7.54734C47.5658 7.7043 47.3655 7.75766 47.3504 7.7119C47.3381 7.6746 47.139 7.3581 46.9078 7.00856C43.8289 2.35195 38.3246 0.386857 33.157 2.09928C31.5198 2.64186 30.174 3.44219 28.7944 4.69369L28.2215 5.21343L27.7976 4.69853C25.6815 2.12823 22.4989 0.422139 19.1309 0.052569C18.3966 -0.0280101 16.8049 -0.0136785 16.0955 0.0799659ZM40.1614 16.8019C40.701 16.8896 40.7118 16.9122 40.4957 17.5115C40.3345 17.9587 40.3005 18.0119 40.1949 17.9827C39.6134 17.822 39.095 17.9209 38.8259 18.244C38.6787 18.4208 38.4526 19.0653 38.4526 19.3081C38.4526 19.4455 38.4547 19.4459 39.1043 19.4459C39.4627 19.4459 39.7697 19.4684 39.7865 19.4958C39.8374 19.5791 39.6556 20.4996 39.5784 20.5491C39.5388 20.5745 39.2185 20.5957 38.8666 20.5962C38.2501 20.597 38.2259 20.6017 38.1981 20.7266C38.1822 20.7978 37.9762 21.9698 37.7402 23.331C37.5042 24.6922 37.2576 26.0261 37.1922 26.2952C36.9352 27.352 36.4393 28.0969 35.8088 28.3728C35.2722 28.6078 33.8369 28.5792 33.7429 28.3317C33.7255 28.286 33.7862 28.0486 33.8777 27.8042C34.0357 27.3822 34.0524 27.3605 34.2119 27.3707C35.0698 27.4253 35.3206 27.3655 35.5404 27.0536C35.7738 26.7224 35.9528 25.9705 36.4003 23.441C36.6519 22.0193 36.871 20.7978 36.8873 20.7266C36.9158 20.6017 36.9025 20.5971 36.5132 20.5971C35.9049 20.5971 35.8889 20.5802 35.9821 20.0381C36.0244 19.7916 36.0714 19.5575 36.0864 19.5179C36.1052 19.4681 36.2631 19.4459 36.5985 19.4459C37.0811 19.4459 37.0835 19.4452 37.118 19.2877C37.331 18.3136 37.5728 17.7552 37.9424 17.3836C38.2456 17.0789 38.5308 16.9268 38.9874 16.8264C39.4221 16.7309 39.6903 16.7252 40.1614 16.8019ZM22.8491 16.9155C22.9565 16.9735 22.9592 17.0827 22.9592 21.2782C22.9592 24.5484 22.9428 25.598 22.8909 25.6505C22.8472 25.6947 22.6251 25.7196 22.2757 25.7196C21.9264 25.7196 21.7042 25.6947 21.6605 25.6505C21.6086 25.598 21.5922 24.5486 21.5922 21.2791C21.5922 17.2423 21.5983 16.9731 21.6919 16.9181C21.8228 16.841 22.7077 16.839 22.8491 16.9155ZM33.5539 19.3995C33.9775 19.4807 34.5976 19.7176 34.7417 19.8533L34.8594 19.964L34.7064 20.4025C34.6223 20.6436 34.5206 20.8537 34.4805 20.8692C34.4404 20.8847 34.2476 20.83 34.052 20.7475C33.2724 20.4188 32.4706 20.3346 32.0726 20.5397C31.8166 20.6717 31.7312 20.8012 31.7312 21.0575C31.7312 21.4539 31.9608 21.6133 33.0964 22.0052C34.2078 22.3887 34.6279 22.6661 34.8663 23.1734C35.0314 23.5247 35.044 24.1212 34.8957 24.5645C34.7488 25.0036 34.2712 25.4871 33.8103 25.6633C33.3491 25.8396 32.3424 25.884 31.7312 25.7549C31.1972 25.6421 30.2502 25.1835 30.2502 25.0376C30.2502 24.8891 30.4811 24.2067 30.5605 24.1204C30.6153 24.0608 30.722 24.0964 31.1087 24.3032C31.6776 24.6075 32.1514 24.7411 32.6613 24.7411C33.0933 24.7411 33.2941 24.677 33.5084 24.4704C33.8266 24.1638 33.7618 23.7405 33.361 23.5063C33.2322 23.431 32.7935 23.2602 32.3862 23.1269C31.1847 22.7333 30.8291 22.5034 30.5587 21.9449C30.4222 21.6631 30.4094 21.583 30.4318 21.1526C30.4499 20.8047 30.492 20.6044 30.5861 20.4196C31.0592 19.4901 32.1215 19.125 33.5539 19.3995ZM13.2898 19.4422C13.7198 19.5533 14.296 19.8107 14.3674 19.9235C14.3881 19.9562 14.3332 20.1795 14.2453 20.4196C14.0569 20.9346 14.0754 20.9301 13.3044 20.6474C12.8649 20.4862 12.7145 20.4589 12.2506 20.4563C11.7748 20.4535 11.6874 20.4691 11.5264 20.5852C11.3222 20.7323 11.2037 21.0506 11.279 21.2495C11.3811 21.5192 11.6325 21.6577 12.669 22.0154C13.7769 22.3977 14.1362 22.6361 14.3877 23.1554C14.5692 23.5302 14.5897 24.124 14.4372 24.588C14.3027 24.9973 13.8201 25.4807 13.361 25.666C13.0535 25.7902 12.9348 25.8037 12.1652 25.8029C11.3785 25.802 11.2747 25.7892 10.8551 25.6414C10.2266 25.4201 9.80131 25.1677 9.80131 25.0162C9.80131 24.8581 10.0277 24.2158 10.119 24.1146C10.1796 24.0475 10.2386 24.0646 10.4932 24.2228C10.9575 24.5115 11.4865 24.6914 11.9731 24.7258C12.5408 24.7661 12.7802 24.7155 13.0168 24.5057C13.3794 24.184 13.3339 23.7513 12.9121 23.508C12.7833 23.4337 12.3446 23.2627 11.9373 23.1281C10.7393 22.732 10.3515 22.4824 10.1061 21.95C9.94468 21.5997 9.92531 20.9868 10.0629 20.5789C10.233 20.0745 10.7544 19.6081 11.3677 19.4115C11.7314 19.295 12.7854 19.3118 13.2898 19.4422ZM19.0946 19.496C19.8086 19.7769 20.2106 20.3009 20.3371 21.1151C20.369 21.3208 20.3953 22.3624 20.3956 23.4297C20.396 25.2359 20.3889 25.374 20.294 25.4254C20.2379 25.4557 19.847 25.55 19.4253 25.6349C17.9778 25.9265 16.6523 25.839 16.0218 25.4102C15.6976 25.1896 15.4101 24.8167 15.3156 24.4941C15.1987 24.0946 15.2252 23.3198 15.3666 23.0043C15.632 22.4123 16.234 21.9579 16.992 21.7773C17.3707 21.6871 18.2835 21.6697 18.794 21.743L19.1002 21.787L19.0645 21.4418C19.0214 21.0257 18.8922 20.7846 18.6282 20.6279C18.4567 20.526 18.3341 20.5109 17.6904 20.5121C17.0187 20.5134 16.9102 20.5286 16.5227 20.676C15.8809 20.9201 15.9004 20.9267 15.7037 20.4018L15.5334 19.9476L15.6601 19.8439C15.8252 19.7089 16.2989 19.5315 16.7878 19.4216C17.386 19.2873 18.6694 19.3286 19.0946 19.496ZM27.6483 19.4169C28.5711 19.6598 29.1441 20.2646 29.3967 21.2622C29.5271 21.7777 29.5545 22.7735 29.4414 22.8878C29.3909 22.9389 28.8558 22.9569 27.3873 22.9569H25.4016L25.4403 23.2303C25.5293 23.8593 25.8239 24.2784 26.3484 24.5224C26.7587 24.7132 27.8089 24.7121 28.4197 24.5202C28.6504 24.4478 28.8713 24.401 28.9106 24.4162C28.95 24.4315 29.0529 24.6401 29.1394 24.8798C29.3285 25.4036 29.3166 25.4276 28.7821 25.598C28.0284 25.8385 27.1509 25.8931 26.353 25.7495C25.1991 25.5417 24.4202 24.8092 24.1179 23.6476C23.9884 23.1494 23.9887 22.0917 24.1187 21.5533C24.3806 20.4683 25.1443 19.6509 26.1206 19.4107C26.521 19.3122 27.2618 19.3152 27.6483 19.4169ZM43.4196 19.3951C44.7692 19.6823 45.5727 20.8717 45.5727 22.5828C45.5727 23.6917 45.2791 24.5181 44.6831 25.0877C44.1185 25.6273 43.3768 25.8743 42.4968 25.8157C41.6895 25.7619 41.1116 25.4894 40.6105 24.9262C40.099 24.3514 39.8678 23.6218 39.8678 22.5828C39.8678 21.4526 40.1122 20.757 40.7283 20.1329C41.2876 19.5663 41.8287 19.3452 42.6791 19.3357C42.9203 19.333 43.2536 19.3597 43.4196 19.3951ZM54.7053 19.4396C54.9507 19.4989 55.1788 19.5752 55.2124 19.6091C55.2556 19.6527 55.2271 19.8007 55.1142 20.1195C55.0267 20.3663 54.9375 20.5884 54.916 20.6131C54.8944 20.6378 54.7122 20.6187 54.5111 20.5708C54.3099 20.5229 53.9146 20.4835 53.6326 20.4834C53.0218 20.483 52.6631 20.6208 52.3566 20.9735C51.9486 21.443 51.7677 22.2247 51.8825 23.0209C51.9985 23.8248 52.2633 24.2249 52.8633 24.5026C53.1329 24.6275 53.2541 24.6472 53.7269 24.6433C54.0819 24.6405 54.3805 24.6042 54.5692 24.5408C54.73 24.4869 54.8936 24.4551 54.9327 24.4703C55.0335 24.5094 55.3413 25.4262 55.2758 25.4924C55.1336 25.636 54.2983 25.7904 53.6326 25.796C52.5542 25.8051 51.9331 25.5893 51.3493 25.003C50.9778 24.6297 50.7151 24.1488 50.5776 23.59C50.4616 23.1183 50.4781 21.9209 50.6066 21.4892C50.9255 20.4177 51.6302 19.6813 52.5848 19.4219C53.0439 19.2972 54.1546 19.3064 54.7053 19.4396ZM59.1961 19.3959C59.6618 19.4968 59.931 19.6359 60.2747 19.9533C60.6423 20.2929 60.9132 20.77 61.0352 21.2931C61.1403 21.7433 61.153 22.7884 61.0546 22.8878C61.0041 22.9389 60.4706 22.9569 59.0076 22.9569H57.0289L57.059 23.1727C57.154 23.8556 57.4388 24.2864 57.9478 24.5176C58.2087 24.6361 58.3327 24.6531 58.93 24.6519C59.4215 24.6509 59.7095 24.6213 59.9553 24.5466C60.628 24.342 60.5768 24.3224 60.7515 24.8527C60.9361 25.4126 60.9232 25.4404 60.4056 25.6019C59.6006 25.8532 58.4393 25.8932 57.7128 25.6948C56.6808 25.4129 55.9802 24.6736 55.7357 23.6083C55.5384 22.7488 55.6645 21.4886 56.0182 20.7833C56.3384 20.1447 56.9955 19.6164 57.7117 19.4218C58.0857 19.3202 58.79 19.3079 59.1961 19.3959ZM50.1499 19.4761C50.2803 19.5309 50.2568 19.7349 50.0631 20.2283L49.9295 20.5683L49.467 20.5758C48.8803 20.5854 48.6545 20.6621 48.3718 20.9478C47.9641 21.3597 47.946 21.4667 47.9108 23.6763L47.8796 25.6333L47.2388 25.6495L46.598 25.6658V22.5539V19.442L47.2103 19.4584L47.8226 19.4747L47.8402 19.7197L47.8577 19.9648L48.0395 19.8273C48.2426 19.6736 48.5464 19.5103 48.7621 19.4386C48.93 19.3828 49.9963 19.4116 50.1499 19.4761ZM26.3562 20.5052C25.9411 20.6614 25.5705 21.1654 25.4881 21.6859L25.4509 21.9209H26.8303H28.2097L28.1729 21.6763C28.108 21.2453 27.8591 20.822 27.561 20.6357C27.2364 20.433 26.7021 20.3751 26.3562 20.5052ZM58.0234 20.4959C57.7119 20.5791 57.3502 20.9619 57.2001 21.3672C56.9787 21.9651 56.8786 21.9209 58.4523 21.9209H59.8258L59.7869 21.6475C59.6553 20.7208 58.9371 20.2518 58.0234 20.4959ZM42.155 20.5586C41.838 20.7083 41.6924 20.8564 41.5308 21.1933C41.3121 21.6495 41.2194 22.2155 41.2614 22.8383C41.347 24.1067 41.8172 24.7073 42.7246 24.7073C43.6388 24.7073 44.1194 24.0943 44.1901 22.8381C44.2563 21.66 43.9348 20.8304 43.3096 20.5664C43.0717 20.466 42.3612 20.4612 42.155 20.5586ZM17.4997 22.785C16.7931 22.9353 16.4659 23.3648 16.5796 23.9927C16.6942 24.6259 17.3669 24.8513 18.616 24.6749L19.0859 24.6086V23.7313C19.0859 23.0361 19.0695 22.8477 19.0068 22.8234C18.8484 22.762 17.7406 22.7337 17.4997 22.785Z" fill="black"/>
</svg>
