<svg width="48" height="48" viewBox="0 0 48 48" fill="none" xmlns="http://www.w3.org/2000/svg">
<path d="M29.5854 3C50.687 17.0817 43.8441 32.5554 43.8441 32.5554C43.8441 32.5554 49.838 39.1883 47.4291 44.9992C47.4291 44.9992 44.9421 40.9402 40.8142 40.9402C36.8243 40.9402 34.4633 44.9992 26.4085 44.9992C8.49284 44.9992 0 30.3175 0 30.3175C16.1457 40.7572 27.1765 33.3594 27.1765 33.3594C19.8866 29.2255 4.42491 9.42887 4.42491 9.42887C17.9037 20.6816 23.7205 23.6366 23.7205 23.6366C20.2226 20.8286 10.4758 7.06792 10.4758 7.06792C18.2756 14.8048 33.7793 25.5926 33.7793 25.5926C38.2253 13.6708 29.5854 3 29.5854 3Z" fill="black"/>
</svg>
