<svg width="65" height="23" viewBox="0 0 65 23" fill="none" xmlns="http://www.w3.org/2000/svg">
<g id="spaCy 1" clip-path="url(#clip0_14170_61535)">
<path id="Vector" d="M8.57342 9.3737C7.12205 9.20169 7.01454 7.25574 5.15464 7.42776C4.25156 7.42776 3.41299 7.80405 3.41299 8.63188C3.41299 9.879 5.3374 9.99726 6.4985 10.309C8.47666 10.9111 10.3903 11.3196 10.3903 13.4699C10.3903 16.2006 8.25089 17.1467 5.42341 17.1467C3.05821 17.1467 0.660767 16.3081 0.660767 14.1364C0.660767 13.5344 1.24131 13.0613 1.80036 13.0613C2.50992 13.0613 2.75719 13.3623 3.00446 13.8569C3.55275 14.8245 4.16555 15.3405 5.69218 15.3405C6.65976 15.3405 7.64884 14.975 7.64884 14.1364C7.64884 12.9431 6.43399 12.685 5.17614 12.3947C2.9507 11.7712 1.03705 11.4487 0.811279 8.97591C0.57476 4.7615 9.35823 4.60024 9.86352 8.2986C9.85277 8.96516 9.22922 9.3737 8.57342 9.3737ZM19.0233 5.67534C22.1088 5.67534 23.8612 8.25559 23.8612 11.4379C23.8612 14.631 22.1625 17.2005 19.0233 17.2005C17.2816 17.2005 16.1958 16.4586 15.411 15.319V19.5334C15.411 20.8021 15.0024 21.4149 14.0779 21.4149C12.949 21.4149 12.7448 20.6946 12.7448 19.5334V7.27725C12.7448 6.2774 13.164 5.66459 14.0779 5.66459C14.9379 5.66459 15.411 6.34191 15.411 7.27725V7.62128C16.2818 6.52467 17.2816 5.67534 19.0233 5.67534ZM18.2922 15.0073C20.0984 15.0073 20.9047 13.3408 20.9047 11.3949C20.9047 9.49196 20.0876 7.78255 18.2922 7.78255C16.4108 7.78255 15.54 9.3307 15.54 11.3949C15.54 13.4053 16.4216 15.0073 18.2922 15.0073ZM25.9576 8.68563C25.9576 6.47092 28.5056 5.67534 30.9783 5.67534C34.4508 5.67534 35.8807 6.68594 35.8807 10.0403V13.2656C35.8807 14.0289 36.3537 15.5556 36.3537 16.0179C36.3537 16.7167 35.7086 17.1575 35.0206 17.1575C34.2573 17.1575 33.6875 16.2544 33.2789 15.6093C32.1501 16.5124 30.9568 17.1575 29.1291 17.1575C27.1079 17.1575 25.5168 15.9641 25.5168 13.9967C25.5168 12.255 26.7639 11.2551 28.269 10.9111C28.269 10.9219 33.1069 9.77149 33.1069 9.76074C33.1069 8.27709 32.5801 7.62128 31.0213 7.62128C29.6451 7.62128 28.9463 7.99757 28.4088 8.8254C27.9788 9.44896 28.0325 9.82524 27.2047 9.82524C26.5381 9.81449 25.9576 9.36295 25.9576 8.68563ZM30.0859 15.3405C32.2039 15.3405 33.0962 14.2224 33.0962 11.997V11.5239C32.5264 11.7174 30.2257 12.2872 29.6021 12.384C28.9356 12.513 28.269 13.0076 28.269 13.7924C28.2905 14.6525 29.1721 15.3405 30.0859 15.3405ZM45.6425 1.47168C48.6312 1.47168 51.8672 3.25635 51.8672 6.09463C51.8672 6.8257 51.3189 7.42776 50.5986 7.42776C49.6203 7.42776 49.4805 6.90096 49.0505 6.15914C48.3302 4.83676 47.4809 3.95517 45.6317 3.95517C42.772 3.93367 41.4926 6.38491 41.4926 9.43821C41.4926 12.513 42.557 14.7277 45.5134 14.7277C47.4809 14.7277 48.5667 13.5881 49.1257 12.1152C49.3515 11.4379 49.76 10.7821 50.6094 10.7821C51.2759 10.7821 51.9425 11.4594 51.9425 12.1905C51.9425 15.2008 48.8677 17.2865 45.707 17.2865C42.2452 17.2865 40.2885 15.8243 39.2134 13.3946C38.6866 12.2335 38.3534 11.0294 38.3534 9.3737C38.3319 4.70775 41.0518 1.47168 45.6425 1.47168ZM62.7364 5.67534C63.4997 5.67534 63.9405 6.16989 63.9405 6.94396C63.9405 7.25574 63.6932 7.8793 63.5964 8.21259L59.9196 17.8778C59.1026 19.9742 58.4898 21.4256 55.7053 21.4256C54.3829 21.4256 53.2326 21.3074 53.2326 20.157C53.2326 19.4904 53.7379 19.1572 54.4367 19.1572C54.5657 19.1572 54.7807 19.2217 54.9097 19.2217C55.114 19.2217 55.2537 19.2862 55.3828 19.2862C56.7804 19.2862 56.9739 17.8563 57.4684 16.8672L53.9206 8.08358C53.7164 7.61053 53.5766 7.288 53.5766 7.00847C53.5766 6.2344 54.1787 5.67534 54.985 5.67534C55.888 5.67534 56.2428 6.38491 56.4686 7.15899L58.8123 14.1257L61.156 7.68579C61.5108 6.68594 61.543 5.67534 62.7364 5.67534Z" fill="black"/>
</g>
<defs>
<clipPath id="clip0_14170_61535">
<rect width="64" height="22.8997" fill="white" transform="translate(0.649902 0.0507812)"/>
</clipPath>
</defs>
</svg>
