<svg width="45" height="46" viewBox="0 0 45 46" fill="none" xmlns="http://www.w3.org/2000/svg">
<g id="Selenium_logo 1" clip-path="url(#clip0_4730_34301)">
<path id="Vector" d="M29.25 29.1019C28.3979 29.0761 27.5673 29.3694 26.9231 29.9233C26.2789 30.4773 25.8682 31.2514 25.7728 32.0918C25.7685 32.1081 25.7682 32.1252 25.7717 32.1416C25.7752 32.1581 25.7826 32.1734 25.7932 32.1866C25.8038 32.1997 25.8173 32.2102 25.8327 32.2173C25.8481 32.2243 25.8649 32.2277 25.8819 32.2271H32.6319C32.6474 32.2273 32.6628 32.2241 32.677 32.2178C32.6912 32.2116 32.7039 32.2024 32.7142 32.1908C32.7246 32.1793 32.7323 32.1657 32.7369 32.151C32.7415 32.1362 32.7429 32.1207 32.7409 32.1054C32.6746 31.2497 32.2709 30.4544 31.6173 29.8921C30.9638 29.3299 30.1132 29.0459 29.25 29.1019Z" fill="black"/>
<path id="Vector_2" d="M43.7182 6.64294L29.4 22.5941C29.3591 22.638 29.3096 22.673 29.2544 22.6969C29.1993 22.7208 29.1397 22.7332 29.0795 22.7332C29.0194 22.7332 28.9598 22.7208 28.9047 22.6969C28.8495 22.673 28.7999 22.638 28.7591 22.5941L21.45 15.1124C21.388 15.0356 21.3543 14.9401 21.3543 14.8418C21.3543 14.7434 21.388 14.648 21.45 14.5712L23.8636 11.5C23.904 11.4441 23.9573 11.3986 24.0189 11.3672C24.0806 11.3358 24.1489 11.3194 24.2182 11.3194C24.2875 11.3194 24.3558 11.3358 24.4174 11.3672C24.4791 11.3986 24.5323 11.4441 24.5727 11.5L28.6636 15.9918C28.7046 16.0401 28.7557 16.079 28.8134 16.1057C28.8712 16.1324 28.9341 16.1462 28.9977 16.1462C29.0614 16.1462 29.1243 16.1324 29.182 16.1057C29.2397 16.079 29.2909 16.0401 29.3318 15.9918L40.7318 0.487059C40.7635 0.441239 40.7823 0.387827 40.7862 0.332376C40.79 0.276925 40.7789 0.221458 40.7538 0.171743C40.7287 0.122028 40.6907 0.0798777 40.6437 0.0496751C40.5967 0.0194725 40.5423 0.00231982 40.4864 0L0.340909 0C0.250494 0 0.163783 0.0356354 0.09985 0.0990668C0.0359171 0.162498 0 0.24853 0 0.338235L0 45.6618C0 45.7515 0.0359171 45.8375 0.09985 45.9009C0.163783 45.9644 0.250494 46 0.340909 46H43.9773C44.0677 46 44.1544 45.9644 44.2183 45.9009C44.2823 45.8375 44.3182 45.7515 44.3182 45.6618V6.84588C44.3453 6.76694 44.3397 6.68054 44.3026 6.60569C44.2656 6.53085 44.2 6.47368 44.1205 6.44676C44.0409 6.41985 43.9538 6.4254 43.8784 6.46219C43.8029 6.49898 43.7453 6.564 43.7182 6.64294ZM12.3545 40.9535C9.48993 41.0968 6.68193 40.126 4.52727 38.2476C4.4592 38.171 4.42165 38.0724 4.42165 37.9703C4.42165 37.8682 4.4592 37.7696 4.52727 37.6929L6.23182 35.3253C6.25996 35.2768 6.29761 35.2344 6.34253 35.2005C6.38745 35.1667 6.43874 35.1421 6.49338 35.1283C6.54803 35.1144 6.60491 35.1115 6.66069 35.1198C6.71648 35.1281 6.77002 35.1473 6.81818 35.1765C8.37531 36.6088 10.4221 37.4017 12.5455 37.3953C14.7818 37.3953 15.8727 36.3671 15.8727 35.2847C15.8727 31.9294 4.85455 34.2294 4.85455 27.0859C4.85455 23.9335 7.58182 21.3088 12.1091 21.3088C14.7072 21.2172 17.2507 22.0632 19.2682 23.69C19.344 23.7681 19.3864 23.8724 19.3864 23.9809C19.3864 24.0894 19.344 24.1936 19.2682 24.2718L17.5909 26.5853C17.5563 26.6313 17.5125 26.6698 17.4623 26.6983C17.412 26.7269 17.3564 26.7449 17.2989 26.7512C17.2414 26.7575 17.1831 26.7521 17.1278 26.7352C17.0725 26.7183 17.0212 26.6903 16.9773 26.6529C15.4897 25.4799 13.6411 24.8494 11.7409 24.8671C9.99545 24.8671 9.01364 25.6382 9.01364 26.7747C9.01364 29.7918 20.0045 27.7759 20.0045 34.8924C20.0045 38.3288 17.5091 40.9535 12.3409 40.9535H12.3545ZM36.3818 34.3647C36.3837 34.415 36.3752 34.4651 36.3567 34.5119C36.3381 34.5587 36.3101 34.6012 36.2742 34.6368C36.2384 34.6724 36.1955 34.7002 36.1483 34.7186C36.1012 34.7369 36.0507 34.7454 36 34.7435H25.9091C25.8929 34.7452 25.8773 34.7501 25.863 34.7578C25.8488 34.7655 25.8362 34.776 25.8261 34.7886C25.8159 34.8012 25.8084 34.8156 25.8039 34.8311C25.7994 34.8466 25.7981 34.8628 25.8 34.8788C25.9636 35.8144 26.4742 36.6553 27.2313 37.2362C27.9884 37.8171 28.9371 38.0958 29.8909 38.0176C31.1425 37.9914 32.3578 37.5957 33.3818 36.8812C33.4218 36.8479 33.4684 36.8235 33.5186 36.8095C33.5688 36.7955 33.6214 36.7922 33.673 36.7999C33.7245 36.8075 33.7739 36.826 33.8177 36.854C33.8616 36.882 33.8989 36.9189 33.9273 36.9624L35.1545 38.7347C35.2057 38.8134 35.2256 38.9081 35.2105 39.0006C35.1954 39.093 35.1463 39.1766 35.0727 39.2353C33.4525 40.4084 31.4869 41.0172 29.4818 40.9671C28.4802 41.0225 27.4779 40.8696 26.5393 40.5183C25.6006 40.167 24.7464 39.6249 24.0312 38.9268C23.3161 38.2288 22.7559 37.3901 22.3865 36.4647C22.0172 35.5393 21.8468 34.5475 21.8864 33.5529C21.8586 32.5822 22.0294 31.616 22.3886 30.7127C22.7478 29.8093 23.2878 28.9876 23.976 28.2971C24.6643 27.6067 25.4865 27.0618 26.393 26.6955C27.2995 26.3292 28.2714 26.149 29.25 26.1659C33.4909 26.1659 36.3682 29.3182 36.3682 33.9318L36.3818 34.3647Z" fill="black"/>
</g>
<defs>
<clipPath id="clip0_4730_34301">
<rect width="45" height="46" fill="white"/>
</clipPath>
</defs>
</svg>
