<svg width="50" height="48" viewBox="0 0 50 48" fill="none" xmlns="http://www.w3.org/2000/svg">
<g clip-path="url(#clip0_11612_57873)">
<path d="M25.6016 4.02223C25.8738 2.34507 24.7349 0.764782 23.0577 0.49257C21.3805 0.220357 19.8003 1.3593 19.528 3.03646C19.2558 4.71363 20.3948 6.29391 22.0719 6.56613C23.7491 6.83834 25.3294 5.6994 25.6016 4.02223Z" fill="black"/>
<path d="M45.1208 47.6797C47.7988 47.6797 49.9697 45.5087 49.9697 42.8308C49.9697 40.1528 47.7988 37.9819 45.1208 37.9819C42.4429 37.9819 40.272 40.1528 40.272 42.8308C40.272 45.5087 42.4429 47.6797 45.1208 47.6797Z" fill="black"/>
<path d="M3.05278 44.9708C4.23478 44.9708 5.19297 44.0126 5.19297 42.8306C5.19297 41.6486 4.23478 40.6904 3.05278 40.6904C1.87079 40.6904 0.912598 41.6486 0.912598 42.8306C0.912598 44.0126 1.87079 44.9708 3.05278 44.9708Z" fill="black"/>
<path d="M22.5484 9.85791C12.1819 9.85791 3.78833 18.2515 3.78833 28.618C3.78833 38.9845 12.1819 47.378 22.5484 47.378C32.9149 47.378 41.3085 38.9845 41.3085 28.618C41.3085 18.2515 32.9149 9.85791 22.5484 9.85791ZM9.84104 21.328L22.515 14.0045L35.1554 21.328V27.9492L29.3368 26.0765V24.7055L22.515 20.7595L17.4989 23.6688L35.1554 29.3202V35.9414L22.4815 43.2649L9.8076 35.9749V29.3202L15.6597 31.1595V32.5305L22.4815 36.4765L27.5645 33.5337L9.84104 27.9157V21.328Z" fill="black"/>
</g>
<defs>
<clipPath id="clip0_11612_57873">
<rect width="50" height="48" fill="white"/>
</clipPath>
</defs>
</svg>
