<svg width="48" height="48" viewBox="0 0 48 48" fill="none" xmlns="http://www.w3.org/2000/svg">
<g id="SciPy 1" clip-path="url(#clip0_14170_61475)">
<path id="Vector" d="M31.394 26.9912C29.826 24.8472 27.43 23.9532 24.006 23.2312L20.822 22.4812L18.42 21.4512C17.158 20.5592 16.08 18.1832 16.386 16.0892C16.6205 14.5242 17.4637 13.1153 18.732 12.1691C20.0004 11.2229 21.5911 10.8161 23.158 11.0372C23.9321 11.1443 24.6774 11.4036 25.3508 11.8001C26.0243 12.1965 26.6126 12.7223 27.082 13.3472L30.7 18.0992C32.766 20.7592 35.09 21.5532 37.618 20.2952L38.892 19.7552C38.99 19.7114 39.1005 19.7049 39.2029 19.737C39.3053 19.769 39.3925 19.8374 39.448 19.9292L39.702 20.3092C39.7736 20.429 39.8835 20.5213 40.014 20.5712C40.1242 20.6134 40.2438 20.6249 40.3601 20.6044C40.4763 20.584 40.5848 20.5324 40.674 20.4552L43.608 17.6872C44.122 17.2472 43.972 16.8432 43.972 16.8432L43.264 15.2312C43.264 15.2312 43.07 14.8452 42.402 14.9332L38.466 15.2952C38.3738 15.308 38.2854 15.3404 38.2067 15.3902C38.128 15.44 38.0609 15.506 38.0098 15.5838C37.9586 15.6616 37.9247 15.7495 37.9103 15.8414C37.8958 15.9334 37.9012 16.0274 37.926 16.1172L38.068 16.5712C38.096 16.6652 38.096 16.7712 38.058 16.8672C38.0362 16.9237 38.0029 16.9751 37.9602 17.0182C37.9175 17.0612 37.8664 17.0949 37.81 17.1172L36.698 17.5872C35.534 18.2692 34.21 17.8332 33.326 16.7532L32.316 15.4132L29.44 11.5932C28.7386 10.6619 27.8599 9.87849 26.8546 9.28812C25.8492 8.69774 24.737 8.31202 23.582 8.15316C18.71 7.46516 14.19 10.8392 13.482 15.6792C13.124 18.1192 13.856 20.4292 15.192 22.2832C16.162 23.6312 17.938 24.4032 18.9 24.6432L21.424 25.3632L23.84 25.9172C24.172 25.9972 25.108 26.2272 25.66 26.4272C26.172 26.6112 27.35 27.0472 28.308 27.8292C29.452 28.9932 30.058 30.6552 29.8 32.3972C29.64 33.464 29.169 34.4601 28.4461 35.2608C27.7231 36.0615 26.7802 36.6314 25.7352 36.8992C24.6901 37.167 23.5893 37.1209 22.5704 36.7666C21.5514 36.4123 20.6595 35.7655 20.006 34.9072L16.554 30.3232C16.1909 29.8421 15.7366 29.4373 15.2171 29.1319C14.6975 28.8265 14.1229 28.6264 13.526 28.5432C12.316 28.3726 11.0878 28.6883 10.11 29.4212L2.84601 34.8412C0.977288 31.5334 -0.00319269 27.7982 7.81024e-06 23.9992C7.81024e-06 11.5952 10.266 1.53516 22.93 1.53516C32.36 1.53516 40.452 7.11116 43.976 15.0752L45.138 14.5352L45.924 12.3912L46.746 12.6792L46.04 14.5992L48 15.2732L47.704 16.0772L45.514 15.3132L44.308 15.8672C45.308 18.3912 45.864 21.1312 45.864 23.9992C45.864 36.4052 35.594 46.4632 22.93 46.4632C19.3381 46.4755 15.7931 45.6482 12.5776 44.0474C9.36215 42.4466 6.56525 40.1166 4.41001 37.2432L11.852 31.6672C12.2145 31.4201 12.658 31.3217 13.0909 31.3924C13.5239 31.4632 13.913 31.6976 14.178 32.0472L17.83 36.9572C19.168 38.5986 21.0782 39.672 23.176 39.9612C27.78 40.6052 32.054 37.4152 32.722 32.8352C33.0246 30.7897 32.5508 28.705 31.394 26.9912Z" fill="black"/>
</g>
<defs>
<clipPath id="clip0_14170_61475">
<rect width="48" height="48" fill="white"/>
</clipPath>
</defs>
</svg>
