<svg width="56" height="56" viewBox="0 0 56 56" fill="none" xmlns="http://www.w3.org/2000/svg">
<g id="swagger_logo 1" clip-path="url(#clip0_4730_34074)">
<g id="Group">
<g id="Group_2">
<g id="Group_3">
<g id="Group_4">
<g id="Group_5">
<g id="Group_6">
<path id="Vector" d="M28.1841 54.6946C13.4729 54.6946 1.50403 42.7269 1.50403 28.0151C1.50403 13.3034 13.4729 1.3356 28.1841 1.3356C42.8953 1.3356 54.8642 13.3045 54.8642 28.0157C54.8642 42.7269 42.8953 54.6946 28.1841 54.6946Z" fill="black"/>
</g>
<g id="Group_7">
<g id="Group_8">
<path id="Vector_2" d="M28.1841 2.67064C42.1818 2.67064 53.5285 14.0174 53.5285 28.0151C53.5285 42.0123 42.1818 53.3596 28.1841 53.3596C14.1869 53.3596 2.83959 42.0123 2.83959 28.0151C2.83959 14.0179 14.1869 2.67064 28.1841 2.67064ZM28.1841 0C12.7365 0 0.168945 12.5675 0.168945 28.0151C0.168945 43.4627 12.7365 56.0302 28.1841 56.0302C43.6317 56.0302 56.1997 43.4627 56.1997 28.0151C56.1997 12.5675 43.6317 0 28.1841 0Z" fill="white"/>
</g>
</g>
</g>
</g>
</g>
<path id="Vector_3" d="M17.8095 18.9582C17.7233 19.917 17.8415 20.9082 17.7776 21.8775C17.702 22.8474 17.5833 23.8062 17.3895 24.7649C17.1202 26.133 16.269 27.1673 15.0952 28.0291C17.3795 29.5159 17.6376 31.8209 17.7883 34.1589C17.8639 35.4194 17.8314 36.6906 17.9607 37.94C18.0576 38.9094 18.4345 39.1574 19.4369 39.1894C19.8463 39.2 20.2657 39.1894 20.7406 39.1894V42.1842C17.7782 42.6905 15.3327 41.8505 14.729 39.3406C14.5347 38.425 14.4053 37.4875 14.3627 36.5394C14.2978 35.5376 14.4053 34.5358 14.3303 33.5339C14.1147 30.7866 13.7591 29.8603 11.131 29.731V26.3161C11.3247 26.273 11.5079 26.2405 11.7016 26.2192C13.1453 26.1436 13.7591 25.7018 14.0715 24.2799C14.2227 23.483 14.309 22.675 14.3409 21.8562C14.449 20.2944 14.4059 18.7001 14.6747 17.1489C15.0515 14.919 16.4308 13.8415 18.7257 13.7122C19.3719 13.6797 20.0294 13.7122 20.7725 13.7122V16.772C20.46 16.7938 20.1907 16.8364 19.9107 16.8364C18.047 16.7714 17.9495 17.407 17.8095 18.9582ZM21.3969 26.0467H21.3538C20.2763 25.993 19.3501 26.833 19.2958 27.9104C19.242 28.9985 20.082 29.9253 21.1595 29.9785H21.2888C22.3556 30.0434 23.2707 29.2242 23.3356 28.1579V28.0504C23.3575 26.9623 22.485 26.0686 21.3969 26.0467ZM28.1516 26.0467C27.1067 26.0142 26.2336 26.833 26.2017 27.8673C26.2017 27.9322 26.2017 27.986 26.2129 28.0504C26.2129 29.2247 27.0098 29.979 28.2166 29.979C29.4015 29.979 30.1452 29.2034 30.1452 27.986C30.134 26.8117 29.3472 26.0361 28.1516 26.0467ZM35.0682 26.0467C33.9695 26.0249 33.0533 26.8979 33.0214 27.9966C33.0214 29.0954 33.9045 29.9785 35.0032 29.9785H35.0251C36.0163 30.151 37.0181 29.1922 37.0831 28.0398C37.1363 26.973 36.1669 26.0467 35.0682 26.0467ZM44.5591 26.208C43.3091 26.1542 42.6842 25.7342 42.3723 24.5487C42.1779 23.795 42.0598 23.0082 42.0167 22.2326C41.9304 20.7889 41.9411 19.3346 41.8442 17.8909C41.6179 14.4654 39.1405 13.2698 35.5419 13.8617V16.8353C36.1126 16.8353 36.5544 16.8353 36.9963 16.8459C37.7612 16.8566 38.3431 17.1478 38.4181 17.999C38.4937 18.7746 38.4937 19.5608 38.5693 20.3476C38.7205 21.91 38.8062 23.4931 39.0755 25.0337C39.313 26.3049 40.1855 27.253 41.273 28.0286C39.3667 29.3104 38.8062 31.1416 38.7093 33.1996C38.6555 34.6108 38.6231 36.0326 38.548 37.455C38.4831 38.7475 38.0311 39.1675 36.7275 39.2C36.3612 39.2106 36.0056 39.2431 35.5963 39.265V42.3136C36.3612 42.3136 37.0612 42.3567 37.7612 42.3136C39.9374 42.1842 41.2517 41.1286 41.6829 39.0169C41.866 37.8532 41.9735 36.6794 42.006 35.5051C42.0811 34.4277 42.071 33.3396 42.1785 32.2734C42.3398 30.6034 43.1047 29.9141 44.7747 29.8066C44.9365 29.7847 45.0871 29.7528 45.2383 29.699V26.2836C44.9578 26.2511 44.7635 26.2192 44.5591 26.208Z" fill="white"/>
</g>
</g>
</g>
<defs>
<clipPath id="clip0_4730_34074">
<rect width="56" height="56" fill="white"/>
</clipPath>
</defs>
</svg>
