<svg width="48" height="48" viewBox="0 0 48 48" fill="none" xmlns="http://www.w3.org/2000/svg">
<g id="seaborn" clip-path="url(#clip0_14173_61954)">
<path id="Vector" d="M24.169 0.449219C21.0987 0.449219 18.0582 1.05401 15.2215 2.22899C12.3849 3.40397 9.80724 5.12628 7.63616 7.29736C5.46509 9.46843 3.74278 12.0461 2.5678 14.8827C1.39282 17.7193 0.788025 20.7599 0.788025 23.8302C0.788025 26.9006 1.39282 29.9411 2.5678 32.7778C3.74278 35.6144 5.46509 38.192 7.63616 40.3631C9.80724 42.5342 12.3849 44.2565 15.2215 45.4315C18.0582 46.6064 21.0987 47.2112 24.169 47.2112C27.2394 47.2112 30.2799 46.6064 33.1166 45.4315C35.9532 44.2565 38.5308 42.5342 40.7019 40.3631C42.873 38.192 44.5953 35.6144 45.7703 32.7778C46.9073 30.0326 47.5104 27.0965 47.5482 24.1273L47.55 23.8302L47.5482 23.5332C47.5104 20.5639 46.9073 17.6278 45.7703 14.8827C44.5953 12.0461 42.873 9.46843 40.7019 7.29736C38.5308 5.12628 35.9532 3.40397 33.1166 2.22899C30.2799 1.05401 27.2394 0.449219 24.169 0.449219Z" fill="white"/>
<path id="Vector_2" d="M18.8301 13.8714C19.0689 13.8714 19.298 13.7766 19.4669 13.6077C19.6357 13.4388 19.7306 13.2097 19.7306 12.9709C19.7306 12.732 19.6357 12.503 19.4669 12.3341C19.298 12.1652 19.0689 12.0703 18.8301 12.0703C18.5912 12.0703 18.3622 12.1652 18.1933 12.3341C18.0244 12.503 17.9295 12.732 17.9295 12.9709C17.9295 13.2097 18.0244 13.4388 18.1933 13.6077C18.3622 13.7766 18.5912 13.8714 18.8301 13.8714Z" fill="black"/>
<path id="Vector_3" d="M16.8908 15.2288C17.1221 15.2288 17.344 15.1369 17.5076 14.9733C17.6711 14.8098 17.763 14.5879 17.763 14.3566C17.763 14.1253 17.6711 13.9034 17.5076 13.7398C17.344 13.5763 17.1221 13.4844 16.8908 13.4844C16.6595 13.4844 16.4376 13.5763 16.2741 13.7398C16.1105 13.9034 16.0186 14.1253 16.0186 14.3566C16.0186 14.5879 16.1105 14.8098 16.2741 14.9733C16.4376 15.1369 16.6595 15.2288 16.8908 15.2288Z" fill="black"/>
<path id="Vector_4" d="M15.0253 16.0936C15.2431 16.0936 15.452 16.0071 15.606 15.8531C15.76 15.6991 15.8465 15.4902 15.8465 15.2724C15.8465 15.0546 15.76 14.8457 15.606 14.6917C15.452 14.5377 15.2431 14.4512 15.0253 14.4512C14.8075 14.4512 14.5986 14.5377 14.4446 14.6917C14.2906 14.8457 14.2041 15.0546 14.2041 15.2724C14.2041 15.4902 14.2906 15.6991 14.4446 15.8531C14.5986 16.0071 14.8075 16.0936 15.0253 16.0936Z" fill="black"/>
<path id="Vector_5" d="M20.466 12.7988C20.7119 12.7988 20.9478 12.7011 21.1217 12.5272C21.2955 12.3533 21.3932 12.1175 21.3932 11.8716C21.3932 11.6257 21.2955 11.3898 21.1217 11.2159C20.9478 11.042 20.7119 10.9443 20.466 10.9443C20.2201 10.9443 19.9842 11.042 19.8103 11.2159C19.6365 11.3898 19.5388 11.6257 19.5388 11.8716C19.5388 12.1175 19.6365 12.3533 19.8103 12.5272C19.9842 12.7011 20.2201 12.7988 20.466 12.7988Z" fill="black"/>
<path id="Vector_6" d="M13.6258 14.1455C13.791 14.1455 13.9495 14.0799 14.0664 13.963C14.1832 13.8462 14.2488 13.6877 14.2488 13.5225C14.2488 13.3572 14.1832 13.1987 14.0664 13.0819C13.9495 12.9651 13.791 12.8994 13.6258 12.8994C13.4606 12.8994 13.3021 12.9651 13.1852 13.0819C13.0684 13.1987 13.0027 13.3572 13.0027 13.5225C13.0027 13.6877 13.0684 13.8462 13.1852 13.963C13.3021 14.0799 13.4606 14.1455 13.6258 14.1455Z" fill="black"/>
<path id="Vector_7" d="M12.0873 17.5595C12.2836 17.5595 12.4719 17.4816 12.6107 17.3427C12.7495 17.2039 12.8275 17.0156 12.8275 16.8193C12.8275 16.623 12.7495 16.4347 12.6107 16.2959C12.4719 16.1571 12.2836 16.0791 12.0873 16.0791C11.891 16.0791 11.7027 16.1571 11.5639 16.2959C11.425 16.4347 11.347 16.623 11.347 16.8193C11.347 17.0156 11.425 17.2039 11.5639 17.3427C11.7027 17.4816 11.891 17.5595 12.0873 17.5595Z" fill="black"/>
<path id="Vector_8" d="M13.0288 11.698C13.2653 11.698 13.4922 11.604 13.6595 11.4367C13.8268 11.2695 13.9207 11.0426 13.9207 10.806C13.9207 10.5695 13.8268 10.3426 13.6595 10.1753C13.4922 10.008 13.2653 9.91406 13.0288 9.91406C12.7922 9.91406 12.5654 10.008 12.3981 10.1753C12.2308 10.3426 12.1368 10.5695 12.1368 10.806C12.1368 11.0426 12.2308 11.2695 12.3981 11.4367C12.5654 11.604 12.7922 11.698 13.0288 11.698Z" fill="black"/>
<path id="Vector_9" d="M15.4357 13.3669C15.6187 13.3669 15.7941 13.2942 15.9235 13.1649C16.0528 13.0355 16.1255 12.8601 16.1255 12.6771C16.1255 12.4942 16.0528 12.3187 15.9235 12.1893C15.7941 12.06 15.6187 11.9873 15.4357 11.9873C15.2528 11.9873 15.0773 12.06 14.948 12.1893C14.8186 12.3187 14.7459 12.4942 14.7459 12.6771C14.7459 12.8601 14.8186 13.0355 14.948 13.1649C15.0773 13.2942 15.2528 13.3669 15.4357 13.3669Z" fill="black"/>
<path id="Vector_10" d="M27.3315 11.3076C27.5454 11.3076 27.7506 11.2226 27.9019 11.0714C28.0531 10.9201 28.1381 10.7149 28.1381 10.501C28.1381 10.2871 28.0531 10.0819 27.9019 9.9306C27.7506 9.77933 27.5454 9.69434 27.3315 9.69434C27.1176 9.69434 26.9124 9.77933 26.7611 9.9306C26.6098 10.0819 26.5248 10.2871 26.5248 10.501C26.5248 10.7149 26.6098 10.9201 26.7611 11.0714C26.9124 11.2226 27.1176 11.3076 27.3315 11.3076Z" fill="black"/>
<path id="Vector_11" d="M10.4127 15.5844C10.5424 15.5844 10.6668 15.5328 10.7585 15.4412C10.8502 15.3495 10.9017 15.2251 10.9017 15.0954C10.9017 14.9657 10.8502 14.8414 10.7585 14.7497C10.6668 14.658 10.5424 14.6064 10.4127 14.6064C10.2831 14.6064 10.1587 14.658 10.067 14.7497C9.97529 14.8414 9.92377 14.9657 9.92377 15.0954C9.92377 15.2251 9.97529 15.3495 10.067 15.4412C10.1587 15.5328 10.2831 15.5844 10.4127 15.5844Z" fill="black"/>
<path id="Vector_12" d="M12.0376 15.1243C12.1915 15.1243 12.339 15.0631 12.4479 14.9543C12.5567 14.8455 12.6178 14.6979 12.6178 14.5441C12.6178 14.3902 12.5567 14.2426 12.4479 14.1338C12.339 14.025 12.1915 13.9639 12.0376 13.9639C11.8837 13.9639 11.7361 14.025 11.6273 14.1338C11.5185 14.2426 11.4574 14.3902 11.4574 14.5441C11.4574 14.6979 11.5185 14.8455 11.6273 14.9543C11.7361 15.0631 11.8837 15.1243 12.0376 15.1243Z" fill="black"/>
<path id="Vector_13" d="M9.07479 13.2854C9.27878 13.2854 9.47444 13.2044 9.61868 13.0601C9.76292 12.9159 9.84397 12.7202 9.84397 12.5163C9.84397 12.3123 9.76292 12.1166 9.61868 11.9724C9.47444 11.8281 9.27878 11.7471 9.07479 11.7471C8.8708 11.7471 8.67513 11.8281 8.53089 11.9724C8.38665 12.1166 8.3056 12.3123 8.3056 12.5163C8.3056 12.7202 8.38665 12.9159 8.53089 13.0601C8.67513 13.2044 8.8708 13.2854 9.07479 13.2854Z" fill="black"/>
<path id="Vector_14" d="M12.1013 12.9465C12.2076 12.9465 12.3096 12.9042 12.3848 12.829C12.46 12.7538 12.5023 12.6518 12.5023 12.5455C12.5023 12.4392 12.46 12.3372 12.3848 12.262C12.3096 12.1868 12.2076 12.1445 12.1013 12.1445C11.9949 12.1445 11.893 12.1868 11.8178 12.262C11.7426 12.3372 11.7003 12.4392 11.7003 12.5455C11.7003 12.6518 11.7426 12.7538 11.8178 12.829C11.893 12.9042 11.9949 12.9465 12.1013 12.9465Z" fill="black"/>
<path id="Vector_15" d="M17.4702 12.3213C17.6688 12.3213 17.8592 12.2425 17.9995 12.1021C18.1399 11.9617 18.2188 11.7713 18.2188 11.5728C18.2188 11.3743 18.1399 11.1838 17.9995 11.0435C17.8592 10.9031 17.6688 10.8242 17.4702 10.8242C17.2717 10.8242 17.0813 10.9031 16.9409 11.0435C16.8006 11.1838 16.7217 11.3743 16.7217 11.5728C16.7217 11.7713 16.8006 11.9617 16.9409 12.1021C17.0813 12.2425 17.2717 12.3213 17.4702 12.3213Z" fill="black"/>
<path id="Vector_16" d="M23.1572 12.7539C23.3286 12.7539 23.4929 12.6859 23.614 12.5647C23.7352 12.4436 23.8033 12.2792 23.8033 12.1079C23.8033 11.9366 23.7352 11.7723 23.614 11.6511C23.4929 11.53 23.3286 11.4619 23.1572 11.4619C22.9859 11.4619 22.8216 11.53 22.7004 11.6511C22.5793 11.7723 22.5112 11.9366 22.5112 12.1079C22.5112 12.2792 22.5793 12.4436 22.7004 12.5647C22.8216 12.6859 22.9859 12.7539 23.1572 12.7539Z" fill="black"/>
<path id="Vector_17" d="M24.3397 8.72354C24.4519 8.72354 24.5594 8.67899 24.6387 8.5997C24.718 8.52042 24.7625 8.41287 24.7625 8.30074C24.7625 8.18861 24.718 8.08105 24.6387 8.00177C24.5594 7.92248 24.4519 7.87793 24.3397 7.87793C24.2276 7.87793 24.1201 7.92248 24.0408 8.00177C23.9615 8.08105 23.9169 8.18861 23.9169 8.30074C23.9169 8.41287 23.9615 8.52042 24.0408 8.5997C24.1201 8.67899 24.2276 8.72354 24.3397 8.72354Z" fill="black"/>
<path id="Vector_18" d="M25.7143 11.1581C25.9017 11.1581 26.0814 11.0837 26.2139 10.9512C26.3464 10.8187 26.4208 10.639 26.4208 10.4516C26.4208 10.2642 26.3464 10.0845 26.2139 9.95204C26.0814 9.81956 25.9017 9.74512 25.7143 9.74512C25.5269 9.74512 25.3472 9.81956 25.2147 9.95204C25.0823 10.0845 25.0078 10.2642 25.0078 10.4516C25.0078 10.639 25.0823 10.8187 25.2147 10.9512C25.3472 11.0837 25.5269 11.1581 25.7143 11.1581Z" fill="black"/>
<path id="Vector_19" d="M18.6562 10.7458C18.8488 10.7458 19.0334 10.6694 19.1696 10.5332C19.3057 10.3971 19.3822 10.2124 19.3822 10.0199C19.3822 9.82737 19.3057 9.64271 19.1696 9.50657C19.0334 9.37044 18.8488 9.29395 18.6562 9.29395C18.4637 9.29395 18.2791 9.37044 18.1429 9.50657C18.0068 9.64271 17.9303 9.82737 17.9303 10.0199C17.9303 10.2124 18.0068 10.3971 18.1429 10.5332C18.2791 10.6694 18.4637 10.7458 18.6562 10.7458Z" fill="black"/>
<path id="Vector_20" d="M9.56205 17.7231C9.71828 17.7231 9.86813 17.661 9.9786 17.5506C10.0891 17.4401 10.1511 17.2902 10.1511 17.134C10.1511 16.9778 10.0891 16.8279 9.9786 16.7175C9.86813 16.607 9.71828 16.5449 9.56205 16.5449C9.40582 16.5449 9.25597 16.607 9.1455 16.7175C9.03503 16.8279 8.97296 16.9778 8.97296 17.134C8.97296 17.2902 9.03503 17.4401 9.1455 17.5506C9.25597 17.661 9.40582 17.7231 9.56205 17.7231Z" fill="black"/>
<path id="Vector_21" d="M28.9649 11.4623C29.2029 11.4623 29.4311 11.3678 29.5993 11.1995C29.7676 11.0313 29.8621 10.8031 29.8621 10.5651C29.8621 10.3272 29.7676 10.099 29.5993 9.93075C29.4311 9.7625 29.2029 9.66797 28.9649 9.66797C28.727 9.66797 28.4988 9.7625 28.3305 9.93075C28.1623 10.099 28.0677 10.3272 28.0677 10.5651C28.0677 10.8031 28.1623 11.0313 28.3305 11.1995C28.4988 11.3678 28.727 11.4623 28.9649 11.4623Z" fill="black"/>
<path id="Vector_22" d="M20.3079 10.855C20.5263 10.855 20.7358 10.7682 20.8902 10.6138C21.0447 10.4594 21.1314 10.2499 21.1314 10.0315C21.1314 9.81312 21.0447 9.60364 20.8902 9.44921C20.7358 9.29478 20.5263 9.20801 20.3079 9.20801C20.0895 9.20801 19.8801 9.29478 19.7256 9.44921C19.5712 9.60364 19.4844 9.81312 19.4844 10.0315C19.4844 10.2499 19.5712 10.4594 19.7256 10.6138C19.8801 10.7682 20.0895 10.855 20.3079 10.855Z" fill="black"/>
<path id="Vector_23" d="M10.7399 11.5182C10.9424 11.5182 11.1366 11.4377 11.2798 11.2946C11.423 11.1514 11.5034 10.9572 11.5034 10.7547C11.5034 10.5522 11.423 10.358 11.2798 10.2148C11.1366 10.0717 10.9424 9.99121 10.7399 9.99121C10.5374 9.99121 10.3432 10.0717 10.2001 10.2148C10.0569 10.358 9.97644 10.5522 9.97644 10.7547C9.97644 10.9572 10.0569 11.1514 10.2001 11.2946C10.3432 11.4377 10.5374 11.5182 10.7399 11.5182Z" fill="black"/>
<path id="Vector_24" d="M14.9891 9.54758C15.2232 9.54758 15.4477 9.45458 15.6133 9.28905C15.7788 9.12353 15.8718 8.89899 15.8718 8.6649C15.8718 8.43081 15.7788 8.20628 15.6133 8.04076C15.4477 7.87523 15.2232 7.78223 14.9891 7.78223C14.755 7.78223 14.5305 7.87523 14.365 8.04076C14.1995 8.20628 14.1064 8.43081 14.1064 8.6649C14.1064 8.89899 14.1995 9.12353 14.365 9.28905C14.5305 9.45458 14.755 9.54758 14.9891 9.54758Z" fill="black"/>
<path id="Vector_25" d="M31.55 10.7359C31.6946 10.7359 31.8333 10.6785 31.9356 10.5762C32.0378 10.474 32.0952 10.3353 32.0952 10.1907C32.0952 10.0461 32.0378 9.90744 31.9356 9.8052C31.8333 9.70295 31.6946 9.64551 31.55 9.64551C31.4054 9.64551 31.2668 9.70295 31.1645 9.8052C31.0623 9.90744 31.0048 10.0461 31.0048 10.1907C31.0048 10.3353 31.0623 10.474 31.1645 10.5762C31.2668 10.6785 31.4054 10.7359 31.55 10.7359Z" fill="black"/>
<path id="Vector_26" d="M12.5583 8.50921C12.7422 8.50921 12.9186 8.43613 13.0487 8.30607C13.1787 8.17601 13.2518 7.99958 13.2518 7.81564C13.2518 7.6317 13.1787 7.45528 13.0487 7.32521C12.9186 7.19515 12.7422 7.12207 12.5583 7.12207C12.3743 7.12207 12.1979 7.19515 12.0678 7.32521C11.9378 7.45528 11.8647 7.6317 11.8647 7.81564C11.8647 7.99958 11.9378 8.17601 12.0678 8.30607C12.1979 8.43613 12.3743 8.50921 12.5583 8.50921Z" fill="black"/>
<path id="Vector_27" d="M15.686 11.6161C15.8426 11.6161 15.9927 11.5539 16.1034 11.4432C16.2141 11.3326 16.2763 11.1824 16.2763 11.0258C16.2763 10.8693 16.2141 10.7191 16.1034 10.6084C15.9927 10.4977 15.8426 10.4355 15.686 10.4355C15.5295 10.4355 15.3793 10.4977 15.2686 10.6084C15.1579 10.7191 15.0957 10.8693 15.0957 11.0258C15.0957 11.1824 15.1579 11.3326 15.2686 11.4432C15.3793 11.5539 15.5295 11.6161 15.686 11.6161Z" fill="black"/>
<path id="Vector_28" d="M17.0998 10.3342C17.2589 10.3342 17.4114 10.271 17.5239 10.1585C17.6364 10.0461 17.6996 9.89353 17.6996 9.73448C17.6996 9.57544 17.6364 9.42288 17.5239 9.31042C17.4114 9.19796 17.2589 9.13477 17.0998 9.13477C16.9408 9.13477 16.7882 9.19796 16.6758 9.31042C16.5633 9.42288 16.5001 9.57544 16.5001 9.73448C16.5001 9.89353 16.5633 10.0461 16.6758 10.1585C16.7882 10.271 16.9408 10.3342 17.0998 10.3342Z" fill="black"/>
<path id="Vector_29" d="M7.83791 11.8579C7.99803 11.8579 8.15162 11.7943 8.26484 11.6811C8.37806 11.5679 8.44168 11.4143 8.44168 11.2542C8.44168 11.094 8.37806 10.9405 8.26484 10.8272C8.15162 10.714 7.99803 10.6504 7.83791 10.6504C7.67778 10.6504 7.5242 10.714 7.41097 10.8272C7.29775 10.9405 7.23413 11.094 7.23413 11.2542C7.23413 11.4143 7.29775 11.5679 7.41097 11.6811C7.5242 11.7943 7.67778 11.8579 7.83791 11.8579Z" fill="black"/>
<path id="Vector_30" d="M9.50051 9.51017C9.64741 9.51017 9.78831 9.45181 9.89218 9.34793C9.99606 9.24406 10.0544 9.10316 10.0544 8.95626C10.0544 8.80936 9.99606 8.66845 9.89218 8.56458C9.78831 8.46071 9.64741 8.40234 9.50051 8.40234C9.35361 8.40234 9.21271 8.46071 9.10883 8.56458C9.00496 8.66845 8.94659 8.80936 8.94659 8.95626C8.94659 9.10316 9.00496 9.24406 9.10883 9.34793C9.21271 9.45181 9.35361 9.51017 9.50051 9.51017Z" fill="black"/>
<path id="Vector_31" d="M22.2796 11.2303C22.4027 11.2303 22.5208 11.1814 22.6078 11.0943C22.6949 11.0072 22.7438 10.8891 22.7438 10.766C22.7438 10.6429 22.6949 10.5248 22.6078 10.4377C22.5208 10.3507 22.4027 10.3018 22.2796 10.3018C22.1564 10.3018 22.0383 10.3507 21.9513 10.4377C21.8642 10.5248 21.8153 10.6429 21.8153 10.766C21.8153 10.8891 21.8642 11.0072 21.9513 11.0943C22.0383 11.1814 22.1564 11.2303 22.2796 11.2303Z" fill="black"/>
<path id="Vector_32" d="M7.4119 14.9145C7.61539 14.9145 7.81057 14.8336 7.95446 14.6898C8.09835 14.5459 8.1792 14.3507 8.1792 14.1472C8.1792 13.9437 8.09835 13.7485 7.95446 13.6046C7.81057 13.4607 7.61539 13.3799 7.4119 13.3799C7.2084 13.3799 7.01322 13.4607 6.86933 13.6046C6.72544 13.7485 6.64459 13.9437 6.64459 14.1472C6.64459 14.3507 6.72544 14.5459 6.86933 14.6898C7.01322 14.8336 7.2084 14.9145 7.4119 14.9145Z" fill="black"/>
<path id="Vector_33" d="M5.69823 13.6205C5.85121 13.6205 5.99794 13.5597 6.10611 13.4515C6.21428 13.3433 6.27506 13.1966 6.27506 13.0436C6.27506 12.8907 6.21428 12.7439 6.10611 12.6357C5.99794 12.5276 5.85121 12.4668 5.69823 12.4668C5.54525 12.4668 5.39852 12.5276 5.29035 12.6357C5.18218 12.7439 5.1214 12.8907 5.1214 13.0436C5.1214 13.1966 5.18218 13.3433 5.29035 13.4515C5.39852 13.5597 5.54525 13.6205 5.69823 13.6205Z" fill="black"/>
<path id="Vector_34" d="M23.8629 11.095C24.0168 11.095 24.1644 11.0339 24.2732 10.9251C24.382 10.8163 24.4432 10.6687 24.4432 10.5148C24.4432 10.3609 24.382 10.2133 24.2732 10.1045C24.1644 9.99571 24.0168 9.93457 23.8629 9.93457C23.7091 9.93457 23.5615 9.99571 23.4527 10.1045C23.3439 10.2133 23.2827 10.3609 23.2827 10.5148C23.2827 10.6687 23.3439 10.8163 23.4527 10.9251C23.5615 11.0339 23.7091 11.095 23.8629 11.095Z" fill="black"/>
<path id="Vector_35" d="M10.6714 14.1083C10.9086 14.1083 11.1361 14.0141 11.3039 13.8464C11.4716 13.6786 11.5659 13.4511 11.5659 13.2138C11.5659 12.9766 11.4716 12.7491 11.3039 12.5813C11.1361 12.4136 10.9086 12.3193 10.6714 12.3193C10.4341 12.3193 10.2066 12.4136 10.0388 12.5813C9.87111 12.7491 9.77686 12.9766 9.77686 13.2138C9.77686 13.4511 9.87111 13.6786 10.0388 13.8464C10.2066 14.0141 10.4341 14.1083 10.6714 14.1083Z" fill="black"/>
<path id="Vector_36" d="M30.3768 10.0415C30.6146 10.0415 30.8428 9.94702 31.0109 9.77886C31.1791 9.6107 31.2736 9.38259 31.2736 9.14478C31.2736 8.90696 31.1791 8.67885 31.0109 8.51069C30.8428 8.34253 30.6146 8.24805 30.3768 8.24805C30.139 8.24805 29.9109 8.34253 29.7427 8.51069C29.5746 8.67885 29.4801 8.90696 29.4801 9.14478C29.4801 9.38259 29.5746 9.6107 29.7427 9.77886C29.9109 9.94702 30.139 10.0415 30.3768 10.0415Z" fill="black"/>
<path id="Vector_37" d="M7.88759 18.4911C8.02561 18.4911 8.15801 18.4363 8.25561 18.3387C8.35321 18.2411 8.40804 18.1087 8.40804 17.9707C8.40804 17.8326 8.35321 17.7002 8.25561 17.6026C8.15801 17.505 8.02561 17.4502 7.88759 17.4502C7.74956 17.4502 7.61717 17.505 7.51957 17.6026C7.42197 17.7002 7.36713 17.8326 7.36713 17.9707C7.36713 18.1087 7.42197 18.2411 7.51957 18.3387C7.61717 18.4363 7.74956 18.4911 7.88759 18.4911Z" fill="black"/>
<path id="Vector_38" d="M20.8888 8.33839C21.0786 8.33839 21.2606 8.26299 21.3948 8.1288C21.529 7.99461 21.6044 7.81258 21.6044 7.62281C21.6044 7.43303 21.529 7.25101 21.3948 7.11682C21.2606 6.98262 21.0786 6.90723 20.8888 6.90723C20.699 6.90723 20.517 6.98262 20.3828 7.11682C20.2486 7.25101 20.1732 7.43303 20.1732 7.62281C20.1732 7.81258 20.2486 7.99461 20.3828 8.1288C20.517 8.26299 20.699 8.33839 20.8888 8.33839Z" fill="black"/>
<path id="Vector_39" d="M35.7565 9.32329C35.9504 9.32329 36.1363 9.24627 36.2734 9.10919C36.4104 8.97211 36.4875 8.78617 36.4875 8.59231C36.4875 8.39845 36.4104 8.21251 36.2734 8.07543C36.1363 7.93835 35.9504 7.86133 35.7565 7.86133C35.5626 7.86133 35.3767 7.93835 35.2396 8.07543C35.1025 8.21251 35.0255 8.39845 35.0255 8.59231C35.0255 8.78617 35.1025 8.97211 35.2396 9.10919C35.3767 9.24627 35.5626 9.32329 35.7565 9.32329Z" fill="black"/>
<path id="Vector_40" d="M26.0321 8.95119C26.1864 8.95119 26.3345 8.88986 26.4436 8.78072C26.5528 8.67157 26.6141 8.52351 26.6141 8.36915C26.6141 8.21479 26.5528 8.06673 26.4436 7.95759C26.3345 7.84844 26.1864 7.78711 26.0321 7.78711C25.8777 7.78711 25.7296 7.84844 25.6205 7.95759C25.5113 8.06673 25.45 8.21479 25.45 8.36915C25.45 8.52351 25.5113 8.67157 25.6205 8.78072C25.7296 8.88986 25.8777 8.95119 26.0321 8.95119Z" fill="black"/>
<path id="Vector_41" d="M13.3421 16.63C13.5433 16.63 13.7364 16.55 13.8787 16.4077C14.021 16.2654 14.1009 16.0724 14.1009 15.8711C14.1009 15.6699 14.021 15.4769 13.8787 15.3346C13.7364 15.1923 13.5433 15.1123 13.3421 15.1123C13.1408 15.1123 12.9478 15.1923 12.8055 15.3346C12.6632 15.4769 12.5833 15.6699 12.5833 15.8711C12.5833 16.0724 12.6632 16.2654 12.8055 16.4077C12.9478 16.55 13.1408 16.63 13.3421 16.63Z" fill="black"/>
<path id="Vector_42" d="M28.0061 9.20207C28.1988 9.20207 28.3836 9.12552 28.5199 8.98928C28.6561 8.85304 28.7326 8.66822 28.7326 8.47555C28.7326 8.28287 28.6561 8.09806 28.5199 7.96182C28.3836 7.82557 28.1988 7.74902 28.0061 7.74902C27.8134 7.74902 27.6286 7.82557 27.4924 7.96182C27.3562 8.09806 27.2796 8.28287 27.2796 8.47555C27.2796 8.66822 27.3562 8.85304 27.4924 8.98928C27.6286 9.12552 27.8134 9.20207 28.0061 9.20207Z" fill="black"/>
<path id="Vector_43" d="M33.1508 9.91023C33.3105 9.91023 33.4636 9.84679 33.5765 9.73388C33.6894 9.62097 33.7529 9.46782 33.7529 9.30814C33.7529 9.14847 33.6894 8.99531 33.5765 8.8824C33.4636 8.76949 33.3105 8.70605 33.1508 8.70605C32.9911 8.70605 32.838 8.76949 32.7251 8.8824C32.6121 8.99531 32.5487 9.14847 32.5487 9.30814C32.5487 9.46782 32.6121 9.62097 32.7251 9.73388C32.838 9.84679 32.9911 9.91023 33.1508 9.91023Z" fill="black"/>
<path id="Vector_44" d="M38.8346 11.2153C38.9785 11.2153 39.1165 11.1581 39.2183 11.0563C39.3201 10.9545 39.3773 10.8165 39.3773 10.6726C39.3773 10.5287 39.3201 10.3906 39.2183 10.2888C39.1165 10.1871 38.9785 10.1299 38.8346 10.1299C38.6906 10.1299 38.5526 10.1871 38.4508 10.2888C38.3491 10.3906 38.2919 10.5287 38.2919 10.6726C38.2919 10.8165 38.3491 10.9545 38.4508 11.0563C38.5526 11.1581 38.6906 11.2153 38.8346 11.2153Z" fill="black"/>
<path id="Vector_45" d="M18.5254 7.22747C18.6495 7.22747 18.7684 7.17819 18.8562 7.09047C18.9439 7.00276 18.9932 6.88378 18.9932 6.75973C18.9932 6.63569 18.9439 6.5167 18.8562 6.42899C18.7684 6.34128 18.6495 6.29199 18.5254 6.29199C18.4014 6.29199 18.2824 6.34128 18.1947 6.42899C18.107 6.5167 18.0577 6.63569 18.0577 6.75973C18.0577 6.88378 18.107 7.00276 18.1947 7.09047C18.2824 7.17819 18.4014 7.22747 18.5254 7.22747Z" fill="black"/>
<path id="Vector_46" d="M22.7785 5.94277C22.9601 5.94277 23.1343 5.87062 23.2627 5.74221C23.3911 5.6138 23.4633 5.43961 23.4633 5.25801C23.4633 5.07641 23.3911 4.90222 23.2627 4.77381C23.1343 4.64539 22.9601 4.57324 22.7785 4.57324C22.5969 4.57324 22.4227 4.64539 22.2943 4.77381C22.1659 4.90222 22.0938 5.07641 22.0938 5.25801C22.0938 5.43961 22.1659 5.6138 22.2943 5.74221C22.4227 5.87062 22.5969 5.94277 22.7785 5.94277Z" fill="black"/>
<path id="Vector_47" d="M38.7136 9.61391C38.9528 9.61391 39.1823 9.51886 39.3515 9.34967C39.5207 9.18049 39.6157 8.951 39.6157 8.71174C39.6157 8.47248 39.5207 8.24299 39.3515 8.07381C39.1823 7.90463 38.9528 7.80957 38.7136 7.80957C38.4743 7.80957 38.2448 7.90463 38.0756 8.07381C37.9065 8.24299 37.8114 8.47248 37.8114 8.71174C37.8114 8.951 37.9065 9.18049 38.0756 9.34967C38.2448 9.51886 38.4743 9.61391 38.7136 9.61391Z" fill="black"/>
<path id="Vector_48" d="M21.7451 9.98248C21.9713 9.98248 22.1881 9.89265 22.348 9.73277C22.5079 9.57289 22.5977 9.35602 22.5977 9.12991C22.5977 8.90381 22.5079 8.68694 22.348 8.52706C22.1881 8.36718 21.9713 8.27734 21.7451 8.27734C21.519 8.27734 21.3022 8.36718 21.1423 8.52706C20.9824 8.68694 20.8926 8.90381 20.8926 9.12991C20.8926 9.35602 20.9824 9.57289 21.1423 9.73277C21.3022 9.89265 21.519 9.98248 21.7451 9.98248Z" fill="black"/>
<path id="Vector_49" d="M24.8994 6.78694C25.1249 6.78694 25.3413 6.69732 25.5008 6.53783C25.6603 6.37834 25.7499 6.16199 25.7499 5.93644C25.7499 5.71088 25.6603 5.49453 25.5008 5.33504C25.3413 5.17555 25.1249 5.08594 24.8994 5.08594C24.6738 5.08594 24.4575 5.17555 24.298 5.33504C24.1385 5.49453 24.0489 5.71088 24.0489 5.93644C24.0489 6.16199 24.1385 6.37834 24.298 6.53783C24.4575 6.69732 24.6738 6.78694 24.8994 6.78694Z" fill="black"/>
<path id="Vector_50" d="M32.2725 7.82366C32.5062 7.82366 32.7303 7.73082 32.8956 7.5656C33.0608 7.40037 33.1536 7.17625 33.1536 6.94259C33.1536 6.70893 33.0608 6.48481 32.8956 6.31958C32.7303 6.15436 32.5062 6.06152 32.2725 6.06152C32.0389 6.06152 31.8148 6.15436 31.6495 6.31958C31.4843 6.48481 31.3915 6.70893 31.3915 6.94259C31.3915 7.17625 31.4843 7.40037 31.6495 7.5656C31.8148 7.73082 32.0389 7.82366 32.2725 7.82366Z" fill="black"/>
<path id="Vector_51" d="M41.3942 13.3627C41.6154 13.3627 41.8276 13.2748 41.984 13.1184C42.1404 12.9619 42.2283 12.7497 42.2283 12.5285C42.2283 12.3073 42.1404 12.0951 41.984 11.9387C41.8276 11.7822 41.6154 11.6943 41.3942 11.6943C41.1729 11.6943 40.9607 11.7822 40.8043 11.9387C40.6479 12.0951 40.56 12.3073 40.56 12.5285C40.56 12.7497 40.6479 12.9619 40.8043 13.1184C40.9607 13.2748 41.1729 13.3627 41.3942 13.3627Z" fill="black"/>
<path id="Vector_52" d="M22.5858 3.26306C22.7121 3.26306 22.8333 3.21288 22.9226 3.12357C23.0119 3.03426 23.0621 2.91311 23.0621 2.7868C23.0621 2.6605 23.0119 2.53935 22.9226 2.45004C22.8333 2.36073 22.7121 2.31055 22.5858 2.31055C22.4595 2.31055 22.3384 2.36073 22.2491 2.45004C22.1597 2.53935 22.1096 2.6605 22.1096 2.7868C22.1096 2.91311 22.1597 3.03426 22.2491 3.12357C22.3384 3.21288 22.4595 3.26306 22.5858 3.26306Z" fill="black"/>
<path id="Vector_53" d="M30.1916 8.31923C30.4037 8.31923 30.6071 8.23496 30.7571 8.08499C30.9071 7.93501 30.9913 7.73157 30.9913 7.51948C30.9913 7.30738 30.9071 7.10394 30.7571 6.95397C30.6071 6.80399 30.4037 6.71973 30.1916 6.71973C29.9795 6.71973 29.7761 6.80399 29.6261 6.95397C29.4761 7.10394 29.3918 7.30738 29.3918 7.51948C29.3918 7.73157 29.4761 7.93501 29.6261 8.08499C29.7761 8.23496 29.9795 8.31923 30.1916 8.31923Z" fill="black"/>
<path id="Vector_54" d="M29.1215 6.7833C29.2927 6.7833 29.4569 6.71528 29.578 6.59422C29.699 6.47316 29.7671 6.30895 29.7671 6.13774C29.7671 5.96654 29.699 5.80232 29.578 5.68127C29.4569 5.56021 29.2927 5.49219 29.1215 5.49219C28.9503 5.49219 28.7861 5.56021 28.665 5.68127C28.544 5.80232 28.476 5.96654 28.476 6.13774C28.476 6.30895 28.544 6.47316 28.665 6.59422C28.7861 6.71528 28.9503 6.7833 29.1215 6.7833Z" fill="black"/>
<path id="Vector_55" d="M25.8775 5.37735C26.0971 5.37735 26.3078 5.29007 26.4632 5.13474C26.6185 4.9794 26.7058 4.7687 26.7058 4.54903C26.7058 4.32935 26.6185 4.11865 26.4632 3.96331C26.3078 3.80798 26.0971 3.7207 25.8775 3.7207C25.6578 3.7207 25.4471 3.80798 25.2917 3.96331C25.1364 4.11865 25.0491 4.32935 25.0491 4.54903C25.0491 4.7687 25.1364 4.9794 25.2917 5.13474C25.4471 5.29007 25.6578 5.37735 25.8775 5.37735Z" fill="black"/>
<path id="Vector_56" d="M16.7404 8.75549C16.9867 8.75549 17.2229 8.65765 17.397 8.48353C17.5711 8.30941 17.6689 8.07321 17.6689 7.82696C17.6689 7.58072 17.5711 7.34452 17.397 7.1704C17.2229 6.99627 16.9867 6.89844 16.7404 6.89844C16.4942 6.89844 16.258 6.99627 16.0838 7.1704C15.9097 7.34452 15.8119 7.58072 15.8119 7.82696C15.8119 8.07321 15.9097 8.30941 16.0838 8.48353C16.258 8.65765 16.4942 8.75549 16.7404 8.75549Z" fill="black"/>
<path id="Vector_57" d="M11.0117 7.38821C11.1458 7.38821 11.2744 7.33493 11.3692 7.24011C11.464 7.14529 11.5173 7.01667 11.5173 6.88258C11.5173 6.74849 11.464 6.61987 11.3692 6.52505C11.2744 6.43023 11.1458 6.37695 11.0117 6.37695C10.8776 6.37695 10.749 6.43023 10.6541 6.52505C10.5593 6.61987 10.506 6.74849 10.506 6.88258C10.506 7.01667 10.5593 7.14529 10.6541 7.24011C10.749 7.33493 10.8776 7.38821 11.0117 7.38821Z" fill="black"/>
<path id="Vector_58" d="M13.4157 7.04932C13.5895 7.04932 13.7562 6.98025 13.8792 6.85732C14.0021 6.7344 14.0712 6.56765 14.0712 6.3938C14.0712 6.21996 14.0021 6.05321 13.8792 5.93028C13.7562 5.80735 13.5895 5.73828 13.4157 5.73828C13.2418 5.73828 13.0751 5.80735 12.9521 5.93028C12.8292 6.05321 12.7601 6.21996 12.7601 6.3938C12.7601 6.56765 12.8292 6.7344 12.9521 6.85732C13.0751 6.98025 13.2418 7.04932 13.4157 7.04932Z" fill="black"/>
<path id="Vector_59" d="M35.4405 11.0203C35.6548 11.0203 35.8604 10.9351 36.0119 10.7836C36.1634 10.6321 36.2485 10.4266 36.2485 10.2123C36.2485 9.998 36.1634 9.79247 36.0119 9.64095C35.8604 9.48943 35.6548 9.4043 35.4405 9.4043C35.2263 9.4043 35.0207 9.48943 34.8692 9.64095C34.7177 9.79247 34.6326 9.998 34.6326 10.2123C34.6326 10.4266 34.7177 10.6321 34.8692 10.7836C35.0207 10.9351 35.2263 11.0203 35.4405 11.0203Z" fill="black"/>
<path id="Vector_60" d="M26.576 6.76159C26.695 6.76159 26.8091 6.71431 26.8932 6.63018C26.9774 6.54604 27.0247 6.43191 27.0247 6.31292C27.0247 6.19394 26.9774 6.07981 26.8932 5.99567C26.8091 5.91153 26.695 5.86426 26.576 5.86426C26.457 5.86426 26.3429 5.91153 26.2587 5.99567C26.1746 6.07981 26.1273 6.19394 26.1273 6.31292C26.1273 6.43191 26.1746 6.54604 26.2587 6.63018C26.3429 6.71431 26.457 6.76159 26.576 6.76159Z" fill="black"/>
<path id="Vector_61" d="M17.0482 6.85137C17.2739 6.85137 17.4904 6.7617 17.65 6.60212C17.8096 6.44254 17.8992 6.22607 17.8992 6.00039C17.8992 5.77471 17.8096 5.55824 17.65 5.39866C17.4904 5.23908 17.2739 5.14941 17.0482 5.14941C16.8226 5.14941 16.6061 5.23908 16.4465 5.39866C16.2869 5.55824 16.1973 5.77471 16.1973 6.00039C16.1973 6.22607 16.2869 6.44254 16.4465 6.60212C16.6061 6.7617 16.8226 6.85137 17.0482 6.85137Z" fill="black"/>
<path id="Vector_62" d="M4.56113 17.2835C4.75736 17.2835 4.94557 17.2056 5.08432 17.0668C5.22308 16.9281 5.30104 16.7398 5.30104 16.5436C5.30104 16.3474 5.22308 16.1592 5.08432 16.0204C4.94557 15.8817 4.75736 15.8037 4.56113 15.8037C4.36491 15.8037 4.17669 15.8817 4.03794 16.0204C3.89919 16.1592 3.82123 16.3474 3.82123 16.5436C3.82123 16.7398 3.89919 16.9281 4.03794 17.0668C4.17669 17.2056 4.36491 17.2835 4.56113 17.2835Z" fill="black"/>
<path id="Vector_63" d="M6.53208 17.5385C6.76005 17.5385 6.97871 17.448 7.13991 17.2868C7.3011 17.1256 7.39168 16.9069 7.39168 16.6789C7.39168 16.451 7.3011 16.2323 7.13991 16.0711C6.97871 15.9099 6.76005 15.8193 6.53208 15.8193C6.30411 15.8193 6.08545 15.9099 5.92426 16.0711C5.76306 16.2323 5.67249 16.451 5.67249 16.6789C5.67249 16.9069 5.76306 17.1256 5.92426 17.2868C6.08545 17.448 6.30411 17.5385 6.53208 17.5385Z" fill="black"/>
<path id="Vector_64" d="M13.4788 9.96026C13.6982 9.96026 13.9086 9.87309 14.0638 9.71795C14.2189 9.56281 14.3061 9.35236 14.3061 9.13296C14.3061 8.91356 14.2189 8.70311 14.0638 8.54797C13.9086 8.39283 13.6982 8.30566 13.4788 8.30566C13.2594 8.30566 13.0489 8.39283 12.8938 8.54797C12.7387 8.70311 12.6515 8.91356 12.6515 9.13296C12.6515 9.35236 12.7387 9.56281 12.8938 9.71795C13.0489 9.87309 13.2594 9.96026 13.4788 9.96026Z" fill="black"/>
<path id="Vector_65" d="M4.80422 15.4416C4.97427 15.4416 5.13738 15.374 5.25762 15.2538C5.37786 15.1335 5.44542 14.9704 5.44542 14.8004C5.44542 14.6303 5.37786 14.4672 5.25762 14.347C5.13738 14.2267 4.97427 14.1592 4.80422 14.1592C4.63418 14.1592 4.47107 14.2267 4.35083 14.347C4.23059 14.4672 4.16302 14.6303 4.16302 14.8004C4.16302 14.9704 4.23059 15.1335 4.35083 15.2538C4.47107 15.374 4.63418 15.4416 4.80422 15.4416Z" fill="black"/>
<path id="Vector_66" d="M30.6588 6.13381C30.8449 6.13381 31.0234 6.05988 31.155 5.9283C31.2866 5.79671 31.3605 5.61823 31.3605 5.43214C31.3605 5.24605 31.2866 5.06757 31.155 4.93598C31.0234 4.8044 30.8449 4.73047 30.6588 4.73047C30.4727 4.73047 30.2942 4.8044 30.1627 4.93598C30.0311 5.06757 29.9572 5.24605 29.9572 5.43214C29.9572 5.61823 30.0311 5.79671 30.1627 5.9283C30.2942 6.05988 30.4727 6.13381 30.6588 6.13381Z" fill="black"/>
<path id="Vector_67" d="M11.1252 9.07972C11.2945 9.07972 11.4569 9.01244 11.5767 8.89271C11.6964 8.77297 11.7637 8.61056 11.7637 8.44123C11.7637 8.2719 11.6964 8.10948 11.5767 7.98974C11.4569 7.87001 11.2945 7.80273 11.1252 7.80273C10.9559 7.80273 10.7934 7.87001 10.6737 7.98974C10.554 8.10948 10.4867 8.2719 10.4867 8.44123C10.4867 8.61056 10.554 8.77297 10.6737 8.89271C10.7934 9.01244 10.9559 9.07972 11.1252 9.07972Z" fill="black"/>
<path id="Vector_68" d="M8.02976 16.7706C8.26725 16.7706 8.49506 16.6762 8.663 16.5083C8.83093 16.3403 8.92529 16.1125 8.92529 15.875C8.92529 15.6375 8.83093 15.4097 8.663 15.2418C8.49506 15.0739 8.26725 14.9795 8.02976 14.9795C7.79226 14.9795 7.56445 15.0739 7.39651 15.2418C7.22858 15.4097 7.13422 15.6375 7.13422 15.875C7.13422 16.1125 7.22858 16.3403 7.39651 16.5083C7.56445 16.6762 7.79226 16.7706 8.02976 16.7706Z" fill="black"/>
<path id="Vector_69" d="M37.1407 10.6767C37.3734 10.6767 37.5966 10.5842 37.7611 10.4197C37.9257 10.2552 38.0181 10.032 38.0181 9.79927C38.0181 9.56658 37.9257 9.3434 37.7611 9.17886C37.5966 9.01432 37.3734 8.92188 37.1407 8.92188C36.908 8.92188 36.6848 9.01432 36.5203 9.17886C36.3558 9.3434 36.2633 9.56658 36.2633 9.79927C36.2633 10.032 36.3558 10.2552 36.5203 10.4197C36.6848 10.5842 36.908 10.6767 37.1407 10.6767Z" fill="black"/>
<path id="Vector_70" d="M40.3041 10.5721C40.4641 10.5721 40.6176 10.5086 40.7308 10.3954C40.8439 10.2822 40.9075 10.1287 40.9075 9.96869C40.9075 9.80865 40.8439 9.65515 40.7308 9.54198C40.6176 9.42882 40.4641 9.36523 40.3041 9.36523C40.144 9.36523 39.9905 9.42882 39.8774 9.54198C39.7642 9.65515 39.7006 9.80865 39.7006 9.96869C39.7006 10.1287 39.7642 10.2822 39.8774 10.3954C39.9905 10.5086 40.144 10.5721 40.3041 10.5721Z" fill="black"/>
<path id="Vector_71" d="M19.4416 9.07867C19.6199 9.07867 19.7909 9.00785 19.9169 8.8818C20.0429 8.75575 20.1138 8.58478 20.1138 8.40652C20.1138 8.22827 20.0429 8.05729 19.9169 7.93124C19.7909 7.8052 19.6199 7.73438 19.4416 7.73438C19.2634 7.73438 19.0924 7.8052 18.9663 7.93124C18.8403 8.05729 18.7695 8.22827 18.7695 8.40652C18.7695 8.58478 18.8403 8.75575 18.9663 8.8818C19.0924 9.00785 19.2634 9.07867 19.4416 9.07867Z" fill="black"/>
<path id="Vector_72" d="M34.1967 8.32317C34.346 8.32317 34.4892 8.26385 34.5947 8.15829C34.7003 8.05272 34.7596 7.90952 34.7596 7.76022C34.7596 7.61092 34.7003 7.46772 34.5947 7.36215C34.4892 7.25658 34.346 7.19727 34.1967 7.19727C34.0474 7.19727 33.9042 7.25658 33.7986 7.36215C33.693 7.46772 33.6337 7.61092 33.6337 7.76022C33.6337 7.90952 33.693 8.05272 33.7986 8.15829C33.9042 8.26385 34.0474 8.32317 34.1967 8.32317Z" fill="black"/>
<path id="Vector_73" d="M33.9548 6.91249C34.1983 6.91249 34.4318 6.81575 34.604 6.64357C34.7762 6.47139 34.8729 6.23783 34.8729 5.99433C34.8729 5.75083 34.7762 5.51727 34.604 5.34509C34.4318 5.17291 34.1983 5.07617 33.9548 5.07617C33.7113 5.07617 33.4777 5.17291 33.3055 5.34509C33.1334 5.51727 33.0366 5.75083 33.0366 5.99433C33.0366 6.23783 33.1334 6.47139 33.3055 6.64357C33.4777 6.81575 33.7113 6.91249 33.9548 6.91249Z" fill="black"/>
<path id="Vector_74" d="M22.6346 8.47765C22.8523 8.47765 23.0611 8.39116 23.2151 8.23723C23.369 8.0833 23.4555 7.87449 23.4555 7.65679C23.4555 7.4391 23.369 7.23029 23.2151 7.07636C23.0611 6.92243 22.8523 6.83594 22.6346 6.83594C22.4169 6.83594 22.2081 6.92243 22.0542 7.07636C21.9003 7.23029 21.8138 7.4391 21.8138 7.65679C21.8138 7.87449 21.9003 8.0833 22.0542 8.23723C22.2081 8.39116 22.4169 8.47765 22.6346 8.47765Z" fill="black"/>
<path id="Vector_75" d="M39.9815 12.4455C40.1683 12.4455 40.3474 12.3713 40.4795 12.2393C40.6115 12.1072 40.6857 11.9281 40.6857 11.7413C40.6857 11.5546 40.6115 11.3754 40.4795 11.2434C40.3474 11.1113 40.1683 11.0371 39.9815 11.0371C39.7947 11.0371 39.6156 11.1113 39.4835 11.2434C39.3515 11.3754 39.2773 11.5546 39.2773 11.7413C39.2773 11.9281 39.3515 12.1072 39.4835 12.2393C39.6156 12.3713 39.7947 12.4455 39.9815 12.4455Z" fill="black"/>
<path id="Vector_76" d="M6.36332 18.8045C6.47285 18.8045 6.57791 18.761 6.65536 18.6836C6.73281 18.6061 6.77633 18.5011 6.77633 18.3915C6.77633 18.282 6.73281 18.1769 6.65536 18.0995C6.57791 18.022 6.47285 17.9785 6.36332 17.9785C6.25379 17.9785 6.14873 18.022 6.07128 18.0995C5.99383 18.1769 5.95032 18.282 5.95032 18.3915C5.95032 18.5011 5.99383 18.6061 6.07128 18.6836C6.14873 18.761 6.25379 18.8045 6.36332 18.8045Z" fill="black"/>
<path id="Vector_77" d="M15.0436 7.35082C15.2481 7.35082 15.4442 7.26957 15.5888 7.12497C15.7334 6.98036 15.8147 6.78421 15.8147 6.57971C15.8147 6.37521 15.7334 6.17905 15.5888 6.03445C15.4442 5.88984 15.2481 5.80859 15.0436 5.80859C14.8391 5.80859 14.6429 5.88984 14.4983 6.03445C14.3537 6.17905 14.2725 6.37521 14.2725 6.57971C14.2725 6.78421 14.3537 6.98036 14.4983 7.12497C14.6429 7.26957 14.8391 7.35082 15.0436 7.35082Z" fill="black"/>
<path id="Vector_78" d="M20.6724 6.09376C20.8184 6.09376 20.9585 6.03573 21.0618 5.93244C21.1651 5.82915 21.2232 5.68905 21.2232 5.54297C21.2232 5.3969 21.1651 5.2568 21.0618 5.15351C20.9585 5.05022 20.8184 4.99219 20.6724 4.99219C20.5263 4.99219 20.3862 5.05022 20.2829 5.15351C20.1796 5.2568 20.1216 5.3969 20.1216 5.54297C20.1216 5.68905 20.1796 5.82915 20.2829 5.93244C20.3862 6.03573 20.5263 6.09376 20.6724 6.09376Z" fill="black"/>
<path id="Vector_79" d="M36.6576 7.78937C36.8414 7.78937 37.0177 7.71635 37.1477 7.58639C37.2776 7.45643 37.3506 7.28014 37.3506 7.09634C37.3506 6.91255 37.2776 6.73626 37.1477 6.6063C37.0177 6.47634 36.8414 6.40332 36.6576 6.40332C36.4738 6.40332 36.2975 6.47634 36.1676 6.6063C36.0376 6.73626 35.9646 6.91255 35.9646 7.09634C35.9646 7.28014 36.0376 7.45643 36.1676 7.58639C36.2975 7.71635 36.4738 7.78937 36.6576 7.78937Z" fill="black"/>
<path id="Vector_80" d="M19.1332 4.98141C19.3617 4.98141 19.5809 4.8906 19.7425 4.72899C19.9042 4.56738 19.995 4.34816 19.995 4.11961C19.995 3.89106 19.9042 3.67184 19.7425 3.51023C19.5809 3.34862 19.3617 3.25781 19.1332 3.25781C18.9046 3.25781 18.6854 3.34862 18.5238 3.51023C18.3622 3.67184 18.2714 3.89106 18.2714 4.11961C18.2714 4.34816 18.3622 4.56738 18.5238 4.72899C18.6854 4.8906 18.9046 4.98141 19.1332 4.98141Z" fill="black"/>
<path id="Vector_81" d="M32.6534 5.80474C32.8648 5.80474 33.0675 5.72078 33.2169 5.57134C33.3663 5.4219 33.4503 5.21918 33.4503 5.00784C33.4503 4.7965 33.3663 4.59379 33.2169 4.44434C33.0675 4.2949 32.8648 4.21094 32.6534 4.21094C32.4421 4.21094 32.2394 4.2949 32.0899 4.44434C31.9405 4.59379 31.8565 4.7965 31.8565 5.00784C31.8565 5.21918 31.9405 5.4219 32.0899 5.57134C32.2394 5.72078 32.4421 5.80474 32.6534 5.80474Z" fill="black"/>
<path id="Vector_82" d="M15.2487 4.95453C15.4181 4.95453 15.5804 4.88726 15.7002 4.76755C15.8199 4.64783 15.8871 4.48544 15.8871 4.31613C15.8871 4.14683 15.8199 3.98443 15.7002 3.86472C15.5804 3.745 15.4181 3.67773 15.2487 3.67773C15.0794 3.67773 14.9171 3.745 14.7973 3.86472C14.6776 3.98443 14.6104 4.14683 14.6104 4.31613C14.6104 4.48544 14.6776 4.64783 14.7973 4.76755C14.9171 4.88726 15.0794 4.95453 15.2487 4.95453Z" fill="black"/>
<path id="Vector_83" d="M16.7819 4.46134C16.9687 4.46134 17.1478 4.38713 17.2799 4.25506C17.412 4.12298 17.4862 3.94382 17.4862 3.75704C17.4862 3.57026 17.412 3.3911 17.2799 3.25902C17.1478 3.12694 16.9687 3.05273 16.7819 3.05273C16.5951 3.05273 16.4159 3.12694 16.2839 3.25902C16.1518 3.3911 16.0776 3.57026 16.0776 3.75704C16.0776 3.94382 16.1518 4.12298 16.2839 4.25506C16.4159 4.38713 16.5951 4.46134 16.7819 4.46134Z" fill="black"/>
<path id="Vector_84" d="M27.6372 3.57835C27.8563 3.57835 28.0665 3.49129 28.2215 3.33634C28.3764 3.18139 28.4635 2.9712 28.4635 2.75207C28.4635 2.53293 28.3764 2.32275 28.2215 2.1678C28.0665 2.01284 27.8563 1.92578 27.6372 1.92578C27.4181 1.92578 27.2079 2.01284 27.0529 2.1678C26.898 2.32275 26.8109 2.53293 26.8109 2.75207C26.8109 2.9712 26.898 3.18139 27.0529 3.33634C27.2079 3.49129 27.4181 3.57835 27.6372 3.57835Z" fill="black"/>
<path id="Vector_85" d="M24.3172 3.75399C24.4878 3.75399 24.6514 3.68623 24.772 3.56563C24.8926 3.44503 24.9604 3.28144 24.9604 3.11088C24.9604 2.94033 24.8926 2.77674 24.772 2.65614C24.6514 2.53554 24.4878 2.46777 24.3172 2.46777C24.1467 2.46777 23.9831 2.53554 23.8625 2.65614C23.7419 2.77674 23.6741 2.94033 23.6741 3.11088C23.6741 3.28144 23.7419 3.44503 23.8625 3.56563C23.9831 3.68623 24.1467 3.75399 24.3172 3.75399Z" fill="black"/>
<path id="Vector_86" d="M29.2876 4.53821C29.418 4.53821 29.5431 4.4864 29.6353 4.39418C29.7275 4.30196 29.7794 4.17687 29.7794 4.04645C29.7794 3.91603 29.7275 3.79094 29.6353 3.69872C29.5431 3.6065 29.418 3.55469 29.2876 3.55469C29.1572 3.55469 29.0321 3.6065 28.9399 3.69872C28.8477 3.79094 28.7958 3.91603 28.7958 4.04645C28.7958 4.17687 28.8477 4.30196 28.9399 4.39418C29.0321 4.4864 29.1572 4.53821 29.2876 4.53821Z" fill="black"/>
<path id="Vector_87" d="M27.6454 5.29355C27.8873 5.29355 28.1192 5.19747 28.2903 5.02646C28.4613 4.85545 28.5573 4.62348 28.5573 4.38164C28.5573 4.1398 28.4613 3.90783 28.2903 3.73682C28.1192 3.56581 27.8873 3.46973 27.6454 3.46973C27.4036 3.46973 27.1716 3.56581 27.0006 3.73682C26.8296 3.90783 26.7335 4.1398 26.7335 4.38164C26.7335 4.62348 26.8296 4.85545 27.0006 5.02646C27.1716 5.19747 27.4036 5.29355 27.6454 5.29355Z" fill="black"/>
<path id="Vector_88" d="M31.2647 4.40879C31.4318 4.40879 31.5921 4.34239 31.7103 4.22421C31.8285 4.10604 31.8949 3.94574 31.8949 3.77861C31.8949 3.61149 31.8285 3.45119 31.7103 3.33301C31.5921 3.21484 31.4318 3.14844 31.2647 3.14844C31.0976 3.14844 30.9373 3.21484 30.8191 3.33301C30.7009 3.45119 30.6345 3.61149 30.6345 3.77861C30.6345 3.94574 30.7009 4.10604 30.8191 4.22421C30.9373 4.34239 31.0976 4.40879 31.2647 4.40879Z" fill="black"/>
<path id="Vector_89" d="M2.98613 19.7815C3.19607 19.7815 3.39743 19.6981 3.54588 19.5496C3.69433 19.4012 3.77774 19.1998 3.77774 18.9899C3.77774 18.7799 3.69433 18.5785 3.54588 18.4301C3.39743 18.2817 3.19607 18.1982 2.98613 18.1982C2.77619 18.1982 2.57482 18.2817 2.42638 18.4301C2.27793 18.5785 2.19452 18.7799 2.19452 18.9899C2.19452 19.1998 2.27793 19.4012 2.42638 19.5496C2.57482 19.6981 2.77619 19.7815 2.98613 19.7815Z" fill="black"/>
<path id="Vector_90" d="M20.9478 4.35434C21.0608 4.35434 21.1692 4.30943 21.2492 4.22951C21.3291 4.14959 21.374 4.04117 21.374 3.92815C21.374 3.81512 21.3291 3.7067 21.2492 3.62678C21.1692 3.54686 21.0608 3.50195 20.9478 3.50195C20.8348 3.50195 20.7264 3.54686 20.6464 3.62678C20.5665 3.7067 20.5216 3.81512 20.5216 3.92815C20.5216 4.04117 20.5665 4.14959 20.6464 4.22951C20.7264 4.30943 20.8348 4.35434 20.9478 4.35434Z" fill="black"/>
<path id="Vector_91" d="M35.5893 6.30598C35.7257 6.30598 35.8566 6.25178 35.953 6.15534C36.0495 6.05889 36.1036 5.92806 36.1036 5.79166C36.1036 5.65526 36.0495 5.52443 35.953 5.42798C35.8566 5.33154 35.7257 5.27734 35.5893 5.27734C35.4529 5.27734 35.3221 5.33154 35.2257 5.42798C35.1292 5.52443 35.075 5.65526 35.075 5.79166C35.075 5.92806 35.1292 6.05889 35.2257 6.15534C35.3221 6.25178 35.4529 6.30598 35.5893 6.30598Z" fill="black"/>
<path id="Vector_92" d="M25.9766 3.73282C26.1739 3.73282 26.3631 3.65444 26.5026 3.51495C26.6421 3.37546 26.7205 3.18624 26.7205 2.98897C26.7205 2.7917 26.6421 2.60248 26.5026 2.46299C26.3631 2.32349 26.1739 2.24512 25.9766 2.24512C25.7794 2.24512 25.5901 2.32349 25.4507 2.46299C25.3112 2.60248 25.2328 2.7917 25.2328 2.98897C25.2328 3.18624 25.3112 3.37546 25.4507 3.51495C25.5901 3.65444 25.7794 3.73282 25.9766 3.73282Z" fill="black"/>
<path id="Vector_93" d="M8.99068 15.0274C9.21795 15.0274 9.43594 14.9371 9.59664 14.7764C9.75734 14.6157 9.84764 14.3977 9.84764 14.1704C9.84764 13.9432 9.75734 13.7252 9.59664 13.5645C9.43594 13.4038 9.21795 13.3135 8.99068 13.3135C8.76342 13.3135 8.54543 13.4038 8.38472 13.5645C8.22402 13.7252 8.13373 13.9432 8.13373 14.1704C8.13373 14.3977 8.22402 14.6157 8.38472 14.7764C8.54543 14.9371 8.76342 15.0274 8.99068 15.0274Z" fill="black"/>
<path id="Vector_94" d="M32.6894 10.9801L31.8049 10.959L30.9202 10.9793L30.0357 11.0407L29.1517 11.1426L28.2685 11.2836L27.3863 11.4621L26.5053 11.6758L25.6257 11.9222L24.7476 12.1985L23.8709 12.5015L22.9957 12.828L22.1219 13.1745L21.2495 13.5375L20.3785 13.9135L19.5088 14.2988L18.6403 14.6902L16.9067 15.4778L16.0415 15.8679L15.1772 16.2519L14.3138 16.6273L13.4512 16.992L12.5894 17.344L11.7282 17.6818L10.8677 18.0041L10.0076 18.3099L9.14797 18.5983L8.28865 18.8691L7.42957 19.1218L6.57063 19.3566L5.71174 19.5736L4.85282 19.7731L3.99379 19.9557L3.13457 20.122L2.27512 20.2727L1.33232 20.4217L1.29076 20.7084C1.1329 21.7977 1.05353 22.8975 1.05353 23.9994C1.05353 24.8578 1.1017 25.7151 1.19767 26.5673L1.2577 27.1003L2.5026 26.5477L3.37095 26.1561L5.10447 25.3686L5.96963 24.9787L6.83363 24.5959L7.69642 24.2235L8.55792 23.865L9.41808 23.5238L10.2768 23.2034L11.1341 22.9071L11.9899 22.6378L12.8443 22.3984L13.6972 22.1915L14.5487 22.0192L15.399 21.8834L16.2483 21.7855L17.0968 21.7265L17.9448 21.7071L18.7927 21.7274L19.6407 21.7871L20.4892 21.8857L21.3385 22.0221L22.1888 22.1948L23.0403 22.4019L23.8932 22.6413L24.7476 22.9105L25.6034 23.2067L26.4607 23.5267L27.3194 23.8674L28.1796 24.2255L29.0411 24.5974L29.9039 24.9797L30.7679 25.3691L32.4993 26.1557L33.3665 26.5467L34.2348 26.9325L35.1039 27.3104L35.9738 27.6783L36.8445 28.034L37.7158 28.3758L38.5878 28.7025L39.4602 29.0128L40.3331 29.3058L41.2063 29.581L42.0797 29.8382L42.9532 30.0771L43.8269 30.2979L44.7004 30.501L45.929 30.7625L46.031 30.4118C46.6099 28.4228 46.9171 26.3638 46.9434 24.2909L46.9452 24.0019L46.9434 23.7104L46.9374 23.3985C46.8634 20.587 46.2742 17.815 45.1986 15.2184L45.1192 15.0292L44.9775 14.7014L44.0845 14.2997L43.2163 13.915L42.3465 13.5395L41.4755 13.177L40.6032 12.8309L39.7294 12.5047L38.8542 12.2019L37.9775 11.9257L37.0993 11.6793L36.2197 11.4654L35.3388 11.2865L34.4566 11.145L33.5734 11.0424L32.6894 10.9801ZM31.7957 11.3521L32.6619 11.3724L33.5282 11.433L34.3944 11.5332L35.2607 11.6719L36.1269 11.8475L36.9932 12.0579L37.8594 12.3008L38.7257 12.5735L39.5919 12.8731L40.4582 13.1964L41.3244 13.54L42.1907 13.9005L43.0569 14.2745L43.9232 14.6583L44.6777 14.9976C44.7313 15.1209 44.7838 15.2446 44.8353 15.3689C45.8929 17.9222 46.4716 20.6467 46.5442 23.4061L46.5502 23.7129L46.552 23.9994L46.5502 24.2859C46.5243 26.3258 46.2217 28.3494 45.6535 30.3019L44.7895 30.118L43.9232 29.9167L43.0569 29.6978L42.1907 29.4609L41.3244 29.206L40.4582 28.933L39.5919 28.6423L38.7257 28.3343L37.8594 28.0098L36.9932 27.67L36.1269 27.3161L35.2607 26.9498L34.3944 26.5732L33.5282 26.1883L32.6619 25.7977L30.9294 25.0106L30.0632 24.6202L29.1969 24.2364L28.3307 23.8624L27.4644 23.5019L26.5981 23.1583L25.7319 22.835L24.8656 22.5354L23.9994 22.2627L23.1331 22.0198L22.2669 21.8094L21.4006 21.6338L20.5344 21.4951L19.6681 21.3949L18.8019 21.3343L17.9356 21.314L17.0694 21.3343L16.2031 21.3949L15.3369 21.4951L14.4706 21.6338L13.6044 21.8094L12.7381 22.0198L11.8718 22.2627L11.0056 22.5354L10.1393 22.835L9.27309 23.1583L8.40684 23.5019L7.54059 23.8624L6.67433 24.2364L5.80808 24.6202L4.94183 25.0106L3.20932 25.7977L2.34307 26.1883L1.58842 26.5233C1.49422 25.6869 1.44674 24.8443 1.44674 23.9994C1.44674 22.9146 1.52501 21.8336 1.67991 20.7648L2.34307 20.66L3.20932 20.508L4.07557 20.3403L4.94183 20.1561L5.80808 19.9548L6.67433 19.7359L7.54059 19.499L8.40684 19.2441L9.27309 18.9711L10.1393 18.6804L11.0056 18.3723L11.8718 18.0479L12.7381 17.708L13.6044 17.3542L14.4706 16.9879L15.3369 16.6112L16.2031 16.2264L17.0694 15.8358L18.8019 15.0487L19.6681 14.6583L20.5344 14.2745L21.4006 13.9005L22.2669 13.54L23.1331 13.1964L23.9994 12.8731L24.8656 12.5735L25.7319 12.3008L26.5981 12.0579L27.4644 11.8475L28.3307 11.6719L29.1969 11.5332L30.0632 11.433L30.9294 11.3724L31.7957 11.3521Z" fill="white"/>
<path id="Vector_95" d="M31.7957 11.2588L32.6663 11.2792L33.5369 11.3401L34.4073 11.4408L35.2774 11.5801L36.1474 11.7564L37.0169 11.9676L37.8862 12.2114L38.7551 12.485L39.6237 12.7854L40.4928 13.1097L41.3605 13.4539L42.2279 13.8149L43.095 14.1892L43.9618 14.5733L44.7495 14.9283C44.8083 15.0627 44.8658 15.1978 44.922 15.3335C45.9988 17.9333 46.5812 20.7099 46.6408 23.5209L46.644 23.7128L46.6458 24.0005L46.644 24.2876C46.6176 26.365 46.3055 28.4256 45.7191 30.4119L44.7683 30.2098L43.9003 30.0081L43.0323 29.7887L42.1643 29.5514L41.2963 29.2959L40.4284 29.0224L39.5606 28.7311L38.6928 28.4225L37.8252 28.0975L36.9578 27.7572L36.0905 27.4029L35.2233 27.0363L34.3564 26.6593L33.4897 26.2742L32.6232 25.8835L30.8909 25.0965L30.0252 24.7064L29.1598 24.3229L28.2947 23.9495L27.4299 23.5895L26.5654 23.2466L25.7002 22.9237L24.8363 22.6249L23.9727 22.3531L23.1094 22.111L22.2465 21.9014L21.3839 21.7266L20.5216 21.5885L19.6595 21.4887L18.7975 21.4284L17.9357 21.4082L17.0738 21.4284L16.2118 21.4887L15.3497 21.5885L14.4874 21.7266L13.6248 21.9014L12.7619 22.111L11.8986 22.3531L11.035 22.6249L10.1711 22.9237L9.30769 23.2459L8.4429 23.589L7.57778 23.949L6.71235 24.3226L5.84663 24.7062L4.98064 25.0964L3.24789 25.8836L2.38117 26.2744L1.50999 26.6615C1.40565 25.7799 1.35303 24.8912 1.35303 23.9999C1.35303 22.8875 1.43499 21.7792 1.59715 20.6837L2.3269 20.5682L3.19154 20.4165L4.05611 20.2491L4.92064 20.0653L5.78515 19.8644L6.64964 19.6459L7.51415 19.4096L8.3787 19.1552L9.2433 18.8827L10.108 18.5925L10.9727 18.285L11.8376 17.9611L12.7027 17.6217L13.5679 17.2683L14.4333 16.9024L15.2988 16.5261L16.1646 16.1414L17.0306 15.7509L18.7634 14.9637L19.6302 14.5731L20.4973 14.1889L21.3646 13.8145L22.2324 13.4534L23.1004 13.109L23.9677 12.7854L24.8363 12.485L25.7052 12.2114L26.5745 11.9676L27.4441 11.7564L28.314 11.5801L29.1841 11.4408L30.0545 11.3401L30.9251 11.2792L31.7957 11.2588Z" fill="black" stroke="white" stroke-width="0.1875"/>
<path id="Vector_96" d="M17.9356 21.7471L18.8019 21.7674L19.6681 21.828L20.5344 21.9282L21.4006 22.0669L22.2669 22.2424L23.1331 22.4529L23.9994 22.6958L24.8656 22.9685L25.7319 23.2681L26.5982 23.5914L27.4644 23.935L28.3307 24.2955L29.1969 24.6695L30.0632 25.0533L30.9294 25.4437L31.7957 25.8372L32.6619 26.2307L33.5282 26.6213L34.3944 27.0062L35.2607 27.3829L36.1269 27.7492L36.9932 28.103L37.8594 28.4429L38.7257 28.7673L39.5919 29.0753L40.4582 29.3661L41.3245 29.6391L42.1907 29.894L43.057 30.1309L43.9232 30.3498L44.7895 30.5511L45.5309 30.7087C45.3285 31.3582 45.0965 31.9992 44.8353 32.6299C43.702 35.366 42.0407 37.8523 39.9465 39.9465C37.8524 42.0406 35.3661 43.7019 32.6299 44.8353C29.8938 45.9686 26.961 46.552 23.9994 46.552C21.0378 46.552 18.105 45.9686 15.3689 44.8353C12.6327 43.7019 10.1464 42.0406 8.05226 39.9465C5.95811 37.8523 4.29681 35.366 3.16346 32.6299C2.40651 30.8024 1.89489 28.8872 1.63855 26.9343L2.34307 26.6213L3.20932 26.2307L4.07558 25.8372L4.94183 25.4437L5.80808 25.0533L6.67434 24.6695L7.54059 24.2955L8.40684 23.935L9.2731 23.5914L10.1393 23.2681L11.0056 22.9685L11.8719 22.6958L12.7381 22.4529L13.6044 22.2424L14.4706 22.0669L15.3369 21.9282L16.2031 21.828L17.0694 21.7674L17.9356 21.7471Z" fill="black"/>
<path id="Vector_97" d="M19.6682 27.5869V30.4919H24.8657V34.5035H30.0632V37.2475H35.2607V38.4057H40.4582L40.4582 39.4179C40.2907 39.5968 40.1201 39.773 39.9466 39.9466C37.8524 42.0407 35.3661 43.702 32.63 44.8354C29.8938 45.9687 26.961 46.5521 23.9994 46.5521C21.0378 46.5521 18.1051 45.9687 15.3689 44.8354C12.6328 43.702 10.1465 42.0407 8.0523 39.9466C6.46378 38.358 5.12432 36.5439 4.07544 34.5662L4.07561 31.8596H9.27313V28.2396H14.4706V27.5869H19.6682Z" fill="black"/>
<path id="Vector_98" d="M19.8456 27.4092L19.8455 30.3141L25.0431 30.3141L25.043 34.3257L30.2407 34.3258L30.2405 37.0697L35.4382 37.0698L35.438 38.2279L40.6357 38.228L40.6359 39.2258C40.519 39.3535 40.4005 39.48 40.2806 39.6051L40.2804 38.5826L35.438 38.5825L35.4381 43.4357C35.3203 43.505 35.202 43.5732 35.0829 43.6404L35.083 37.4245L30.2405 37.4243L30.2405 45.671C30.1224 45.705 30.0041 45.7381 29.8855 45.7701L29.8855 34.6806L25.043 34.6804L25.043 46.5276C24.9247 46.5331 24.8063 46.5377 24.6879 46.5413L24.688 30.6689L19.8455 30.6689L19.8456 46.166C19.727 46.1437 19.6086 46.1206 19.4903 46.0964L19.4905 27.7638H14.6479L14.6479 28.0619L14.6481 28.0619L14.6479 44.5216C14.529 44.4674 14.4107 44.4123 14.2928 44.3561L14.293 28.4165H9.45041L9.45036 31.6817L9.45058 31.6819L9.45038 41.2313C9.33106 41.1306 9.21276 41.0286 9.09549 40.9253L9.09549 32.0367H4.25292L4.25269 34.8936C4.13069 34.6725 4.01236 34.4492 3.89777 34.2239L3.89814 31.6819L9.09561 31.6817L9.09566 28.0619L14.2931 28.0619L14.2932 27.4092H19.8456Z" fill="white"/>
<path id="Vector_99" d="M23.9994 0C27.151 0 30.2719 0.620791 33.1836 1.82685C36.0953 3.0329 38.7411 4.80077 40.9696 7.02927C43.1981 9.25776 44.9659 11.9036 46.172 14.8152C47.3391 17.633 47.9582 20.6467 47.9969 23.6945L47.9988 23.9994L47.9969 24.3043C47.9582 27.3521 47.3391 30.3658 46.172 33.1836C44.9659 36.0953 43.1981 38.7411 40.9696 40.9696C38.7411 43.1981 36.0953 44.9659 33.1836 46.172C30.2719 47.378 27.151 47.9988 23.9994 47.9988C20.8478 47.9988 17.7269 47.378 14.8152 46.172C11.9036 44.9659 9.25776 43.1981 7.02927 40.9696C4.80077 38.7411 3.0329 36.0953 1.82685 33.1836C0.620791 30.2719 0 27.151 0 23.9994C0 20.8478 0.620791 17.7269 1.82685 14.8152C3.0329 11.9036 4.80077 9.25776 7.02927 7.02927C9.25776 4.80077 11.9036 3.0329 14.8152 1.82685C17.7269 0.620791 20.8478 0 23.9994 0ZM23.9994 0.788049C20.9513 0.788049 17.9329 1.38846 15.1168 2.55491C12.3007 3.72136 9.74182 5.43118 7.5865 7.5865C5.43118 9.74182 3.72136 12.3007 2.55491 15.1168C1.38846 17.9329 0.788049 20.9513 0.788049 23.9994C0.788049 27.0475 1.38846 30.0659 2.55491 32.882C3.72136 35.6981 5.43118 38.257 7.5865 40.4123C9.74182 42.5676 12.3007 44.2775 15.1168 45.4439C17.9329 46.6104 20.9513 47.2108 23.9994 47.2108C27.0475 47.2108 30.0659 46.6104 32.882 45.4439C35.6981 44.2775 38.257 42.5676 40.4123 40.4123C42.5676 38.257 44.2775 35.6981 45.4439 32.882C46.5727 30.1568 47.1714 27.242 47.2089 24.2943L47.2108 23.9994L47.2089 23.7045C47.1714 20.7568 46.5727 17.842 45.4439 15.1168C44.2775 12.3007 42.5676 9.74182 40.4123 7.5865C38.257 5.43118 35.6981 3.72136 32.882 2.55491C30.0659 1.38846 27.0475 0.788049 23.9994 0.788049Z" fill="black"/>
</g>
<defs>
<clipPath id="clip0_14173_61954">
<rect width="48" height="48" fill="white"/>
</clipPath>
</defs>
</svg>
