<svg width="50" height="50" viewBox="0 0 50 50" fill="none" xmlns="http://www.w3.org/2000/svg">
<mask id="mask0_4159_29341" style="mask-type:alpha" maskUnits="userSpaceOnUse" x="0" y="0" width="50" height="50">
<g clip-path="url(#clip0_4159_29341)">
<path d="M48.8018 0H15.9395V16.477H32.1093C32.6854 16.477 33.1527 16.9443 33.1527 17.5204V33.467H49.8452V1.04531C49.8457 0.768251 49.736 0.502367 49.5403 0.306279C49.3445 0.110191 49.0789 0 48.8018 0Z" fill="#8E75FF"/>
<path opacity="0.405" d="M15.9381 0V16.4769H0.521743C0.309901 16.4766 0.119238 16.3484 0.0389785 16.1523C-0.0412808 15.9563 0.00473969 15.7312 0.155504 15.5823L15.9381 0ZM34.0422 49.0665C33.8921 49.2139 33.6682 49.257 33.4742 49.1758C33.2801 49.0946 33.1536 48.9049 33.1533 48.6946V33.467H49.8458L34.0422 49.0646V49.0665Z" fill="#8E75FF"/>
<path opacity="0.405" d="M15.9385 16.4766H32.6329C32.919 16.4766 33.1536 16.7093 33.1536 16.9973V33.4666H16.9838C16.4075 33.4666 15.9404 32.9995 15.9404 32.4232V16.4766H15.9385Z" fill="#8E75FF"/>
</g>
</mask>
<g mask="url(#mask0_4159_29341)">
<rect x="-17.1875" y="-13.2812" width="90.2344" height="77.3438" fill="black"/>
</g>
<defs>
<clipPath id="clip0_4159_29341">
<rect width="50" height="49.2188" fill="white"/>
</clipPath>
</defs>
</svg>
