<svg width="45" height="55" viewBox="0 0 45 55" fill="none" xmlns="http://www.w3.org/2000/svg">
<g id="TestRail_Logo_Main_01 1" clip-path="url(#clip0_4730_34039)">
<g id="Logos">
<g id="Group">
<g id="Group_2">
<path id="Vector" d="M10.1595 48.0265L16.5533 54.3286C16.8708 54.6417 17.3857 54.6417 17.7033 54.3286L24.0971 48.0265C24.4147 47.7135 24.4147 47.2059 24.0971 46.8929L17.7033 40.5908C17.3857 40.2778 16.8708 40.2778 16.5533 40.5908L10.1595 46.8929C9.84188 47.206 9.84188 47.7135 10.1595 48.0265Z" fill="black"/>
<path id="Vector_2" d="M20.4917 37.842L26.8855 44.1441C27.2031 44.4571 27.718 44.4571 28.0356 44.1441L34.4294 37.842C34.747 37.5289 34.747 37.0214 34.4294 36.7084L28.0356 30.4063C27.718 30.0932 27.2031 30.0932 26.8856 30.4063L20.4917 36.7084C20.1742 37.0214 20.1742 37.5289 20.4917 37.842Z" fill="black"/>
<path id="Vector_3" d="M30.825 27.6575L37.2188 33.9596C37.5364 34.2726 38.0513 34.2726 38.3689 33.9596L44.7627 27.6575C45.0802 27.3444 45.0802 26.8369 44.7627 26.5239L38.3689 20.2218C38.0513 19.9087 37.5364 19.9087 37.2188 20.2218L30.825 26.5239C30.5074 26.8369 30.5074 27.3444 30.825 27.6575Z" fill="black"/>
<path id="Vector_4" d="M10.3536 27.8485L16.7474 34.1506C17.0649 34.4637 17.5798 34.4636 17.8974 34.1506L24.2912 27.8485C24.6088 27.5355 24.6088 27.028 24.2912 26.7149L17.8974 20.4128C17.5798 20.0998 17.0649 20.0998 16.7474 20.4128L10.3536 26.7149C10.036 27.028 10.036 27.5355 10.3536 27.8485Z" fill="black"/>
<path id="Vector_5" d="M20.6858 17.664L27.0796 23.9661C27.3972 24.2792 27.9121 24.2792 28.2297 23.9661L34.6235 17.664C34.9411 17.351 34.9411 16.8435 34.6235 16.5304L28.2297 10.2283C27.9121 9.91527 27.3972 9.91526 27.0796 10.2283L20.6858 16.5304C20.3683 16.8434 20.3683 17.351 20.6858 17.664Z" fill="black"/>
<path id="Vector_6" d="M10.5469 7.67047L16.9407 13.9726C17.2583 14.2856 17.7732 14.2856 18.0908 13.9726L24.4846 7.67046C24.8022 7.35744 24.8022 6.84993 24.4846 6.5369L18.0908 0.234766C17.7732 -0.0782602 17.2583 -0.0782576 16.9407 0.234769L10.5469 6.5369C10.2293 6.84993 10.2293 7.35744 10.5469 7.67047Z" fill="black"/>
</g>
</g>
</g>
</g>
<defs>
<clipPath id="clip0_4730_34039">
<rect width="45" height="55" fill="white"/>
</clipPath>
</defs>
</svg>
