<svg width="48" height="48" viewBox="0 0 48 48" fill="none" xmlns="http://www.w3.org/2000/svg">
<g clip-path="url(#clip0_16640_39754)">
<path d="M0 24V48H48V0H0V24ZM38.679 22.086C39.8985 22.3905 40.827 22.938 41.6865 23.82C42.1245 24.288 42.78 25.1475 42.8355 25.359C42.8505 25.422 40.7655 26.82 39.4995 27.6015C39.453 27.633 39.2655 27.438 39.0615 27.132C38.445 26.2335 37.7955 25.8435 36.804 25.773C35.3505 25.6785 34.413 26.4375 34.4205 27.711C34.413 28.023 34.4835 28.3365 34.623 28.6095C34.944 29.274 35.5455 29.6715 37.404 30.477C40.842 31.953 42.3105 32.9295 43.224 34.3125C44.247 35.859 44.4735 38.328 43.7865 40.1715C43.0215 42.1635 41.13 43.5225 38.4735 43.968C37.653 44.1165 35.7 44.0925 34.8165 43.929C32.8875 43.5855 31.059 42.6315 29.934 41.382C29.4885 40.8975 28.629 39.624 28.6845 39.5385C28.7085 39.507 28.9035 39.3825 29.1225 39.2565C29.3415 39.1305 30.1455 38.6625 30.9045 38.2245L32.2875 37.4205L32.577 37.8495C32.9835 38.466 33.8655 39.3105 34.398 39.591C35.9295 40.404 38.031 40.287 39.0705 39.357C39.492 39.006 39.7275 38.466 39.696 37.92C39.696 37.365 39.6255 37.116 39.336 36.7005C38.961 36.1695 38.2035 35.7165 36.039 34.779C33.5625 33.708 32.4915 33.0525 31.524 31.998C30.915 31.302 30.462 30.483 30.204 29.5995C30.024 28.92 29.9775 27.216 30.1185 26.5365C30.627 24.138 32.439 22.4745 35.04 21.9825C35.8845 21.819 37.8525 21.8805 38.6805 22.0845L38.679 22.086ZM27.414 24.0945L27.429 26.055H21.1785V43.8135H16.7565V26.055H10.515V24.1335C10.515 23.0625 10.539 22.173 10.569 22.149C10.593 22.1175 14.3895 22.1025 18.999 22.11L27.39 22.134L27.414 24.0945Z" fill="black"/>
</g>
<defs>
<clipPath>
<rect width="48" height="48" fill="white"/>
</clipPath>
</defs>
</svg>
