<svg width="48" height="48" viewBox="0 0 48 48" fill="none" xmlns="http://www.w3.org/2000/svg">
<g id="unsupervised 1">
<g id="_x32_0">
<path id="Vector" d="M43.5 37.5H42V22.5C42 19.95 40.05 18 37.5 18H36V16.5C36 15.6 35.4 15 34.5 15H34.35C34.35 14.7 34.35 14.4 34.35 14.1L35.25 13.65C36 13.2 36.15 12.3 35.85 11.55L32.85 6.3C32.7 6 32.25 5.7 31.95 5.55C31.5 5.4 31.2 5.55 30.75 5.7L29.85 6.15C29.4 5.85 28.95 5.55 28.35 5.25V4.5C28.35 3.6 27.75 3 26.85 3H20.85C19.95 3 19.35 3.6 19.35 4.5V5.55C18.9 5.85 18.3 6 17.85 6.45L16.95 6C16.65 5.85 16.2 5.7 15.75 5.85C15.3 6 15 6.15 14.85 6.6L11.85 11.85C11.85 12.3 12 13.2 12.75 13.65L13.65 14.1V15H13.5C12.6 15 12 15.6 12 16.5V18H10.5C7.95 18 6 19.95 6 22.5V37.5H4.5C3.6 37.5 3 38.1 3 39C3 42.3 5.7 45 9 45H39C42.3 45 45 42.3 45 39C45 38.1 44.4 37.5 43.5 37.5ZM15 27C16.35 27 17.85 27.6 18.6 28.2C18.9 28.35 19.2 28.5 19.5 28.5C19.95 28.5 20.4 28.35 20.7 27.9C21.15 27.3 21 26.25 20.4 25.8C19.2 24.9 17.1 24 15 24V22.5C16.35 22.5 17.85 23.1 18.6 23.7C18.9 23.85 19.2 24 19.5 24C19.95 24 20.4 23.85 20.7 23.4C21.15 22.8 21 21.75 20.4 21.3C19.2 20.4 17.1 19.5 15 19.5V18C17.7 18 19.8 18.6 22.5 20.25V30C22.5 30.9 23.1 31.5 24 31.5C24.9 31.5 25.5 30.9 25.5 30V20.25C28.2 18.6 30.3 18 33 18V19.5C30.9 19.5 28.8 20.4 27.6 21.3C26.85 21.75 26.7 22.65 27.3 23.4C27.6 23.85 28.05 24 28.5 24C28.8 24 29.1 23.85 29.4 23.7C30.3 23.1 31.65 22.5 33 22.5V24C30.9 24 28.8 24.9 27.6 25.8C26.85 26.25 26.7 27.15 27.3 27.9C27.6 28.35 28.05 28.5 28.5 28.5C28.8 28.5 29.1 28.35 29.4 28.2C30.3 27.6 31.65 27 33 27V30C29.7 30 27.15 30.75 24 32.7C20.85 30.75 18.3 30 15 30V27ZM21.15 16.05C21 15.75 21 15.3 21 15C21 13.35 22.35 12 24 12C25.65 12 27 13.35 27 15C27 15.3 27 15.75 26.85 16.05V16.35C25.95 16.8 25.05 17.25 24 17.85C23.1 17.25 22.05 16.8 21.15 16.35C21.15 16.2 21.15 16.05 21.15 16.05ZM16.95 9.15L17.4 9.45C18 9.75 18.6 9.75 19.2 9.3C19.95 8.7 20.7 8.25 21.6 7.95C22.2 7.65 22.5 7.2 22.5 6.45V6H25.5V6.45C25.5 7.05 25.95 7.65 26.55 7.8C27.45 8.1 28.2 8.55 28.95 9.15C29.4 9.6 30.15 9.6 30.75 9.3L31.2 9L32.7 11.55L31.95 12C31.35 12.3 31.05 12.9 31.2 13.5C31.35 13.95 31.35 14.4 31.35 14.85V15C30.9 15 30.3 15.15 29.85 15.15C29.85 15 29.85 15 29.85 14.85C29.85 11.55 27.15 8.85 23.85 8.85C20.55 8.85 17.85 11.55 17.85 14.85V15.15C17.4 15 16.95 15 16.35 15C16.35 15 16.35 15 16.35 14.85C16.35 14.4 16.35 13.95 16.5 13.5C16.65 12.9 16.35 12.3 15.75 12L15.3 11.7L16.95 9.15ZM9 22.5C9 21.6 9.6 21 10.5 21H12V31.5C12 32.4 12.6 33 13.5 33H15C18 33 20.1 33.75 23.1 35.7C23.4 35.85 23.7 36 24 36C24.3 36 24.6 35.85 24.9 35.7C27.9 33.75 30.15 33 33 33H34.5C35.4 33 36 32.4 36 31.5V21H37.5C38.4 21 39 21.6 39 22.5V37.5H9V22.5ZM39 42H9C7.95 42 6.9 41.4 6.45 40.5H41.7C41.1 41.4 40.05 42 39 42Z" fill="black"/>
</g>
</g>
</svg>
