<svg width="48" height="48" viewBox="0 0 48 48" fill="none" xmlns="http://www.w3.org/2000/svg">
<g clip-path="url(#clip0_11637_56037)">
<path d="M23.9999 0C10.8509 0 0.202393 10.7415 0.202393 24C0.202393 37.2585 10.8509 48 23.9999 48C37.1399 48 47.7974 37.2585 47.7974 24C47.7974 10.7415 37.1414 0 23.9924 0H23.9999ZM23.9999 1.0545C30.0704 1.0545 35.7884 3.4455 40.0859 7.773C44.3744 12.0855 46.7654 17.922 46.7504 24C46.7504 30.1245 44.3834 35.8905 40.0859 40.227C35.8439 44.532 30.0464 46.953 23.9999 46.9455C17.9534 46.953 12.1559 44.532 7.91389 40.227C3.62539 35.9145 1.22689 30.078 1.24189 24C1.24189 17.8755 3.61639 12.1095 7.90639 7.773C12.1484 3.4605 17.9534 1.038 23.9999 1.0545ZM22.8044 9.4995C18.9299 10.539 15.3434 12.531 10.5629 18.015C5.78239 23.499 6.68839 28.0305 6.68839 28.0305C6.68839 28.0305 8.00839 24.9135 11.1809 21.6315C12.6884 20.0775 13.8059 19.554 14.5799 19.554C15.2669 19.515 15.8459 20.07 15.8459 20.757V31.89C15.8459 32.991 15.1349 33.234 14.4794 33.2175C13.9244 33.21 13.4084 33.015 13.4084 33.015C16.6664 37.749 24.4634 38.4135 24.4634 38.4135L27.8849 34.7565L27.9629 34.827L31.0964 37.4985C36.8309 34.092 39.5969 27.78 39.5969 27.78C37.0349 30.483 35.4089 31.116 34.4399 31.116C33.5804 31.1085 33.2444 30.6075 33.2444 30.6075C33.1979 30.3735 33.1199 26.982 33.0884 23.592C33.0569 20.0835 33.0884 16.569 33.2609 16.56C34.2524 14.7 37.4099 10.95 37.4099 10.95C31.5119 12.114 28.3004 15.981 28.3004 15.981C27.3479 15.231 25.4099 15.3555 25.4099 15.3555C26.3159 15.855 27.2219 17.3085 27.2219 18.5115V30.3555C27.2219 30.3555 25.2449 32.097 23.7224 32.097C22.8164 32.097 22.2614 31.605 21.9569 31.1985C21.8399 31.0425 21.7379 30.87 21.6599 30.6825V16.0575C21.4484 16.2135 21.1904 16.299 20.9339 16.308C20.6054 16.308 20.2694 16.1445 20.0429 15.6675C19.8704 15.3075 19.7609 14.769 19.7609 13.98C19.7609 11.2845 22.8074 9.495 22.8074 9.495L22.8044 9.4995Z" fill="black"/>
</g>
<defs>
<clipPath id="clip0_11637_56037">
<rect width="48" height="48" fill="white"/>
</clipPath>
</defs>
</svg>
