<svg width="48" height="48" viewBox="0 0 48 48" fill="none" xmlns="http://www.w3.org/2000/svg">
<path fill-rule="evenodd" clip-rule="evenodd" d="M21.9635 5.04955C21.7315 5.06951 21.5065 5.12051 21.4636 5.1628C21.2092 5.4132 20.9626 8.96248 21.0702 10.8254L21.1398 12.0298L21.4813 11.975C21.6692 11.9449 22.7932 11.8936 23.9792 11.861C26.3644 11.7956 27.8689 11.9161 29.9916 12.3424C33.7228 13.0916 37.6923 14.8568 40.639 17.0772C41.0535 17.3896 41.4102 17.6274 41.4318 17.6059C41.4941 17.5436 40.9464 16.2233 40.4435 15.2237C39.9002 14.1432 39.0916 12.8949 38.3022 11.9179C37.6318 11.088 36.0247 9.51205 35.2292 8.90445C32.4456 6.77848 29.0713 5.43411 25.6198 5.07598C24.7644 4.9873 22.8459 4.97333 21.9635 5.04955ZM18.605 5.68976C17.4919 6.01883 16.3421 6.47623 15.2604 7.02036C14.2898 7.50851 12.5908 8.57877 12.5855 8.70523C12.5839 8.7448 12.5196 9.19911 12.4427 9.71473C12.2416 11.0619 12.1664 13.897 12.2959 15.246C12.6235 18.6581 13.3493 21.2852 14.783 24.2481C15.6405 26.0201 17.1997 28.5116 17.4513 28.5116C17.6125 28.5116 19.8183 26.3179 20.5661 25.4137C21.3915 24.4158 22.6692 22.6116 22.7656 22.308C22.7998 22.2 22.7139 21.9394 22.5459 21.6414C22.0677 20.7935 21.2509 18.8543 20.846 17.6057C19.5882 13.7261 19.2584 10.1541 19.7692 5.9413C19.8265 5.46851 19.8201 5.4493 19.6071 5.45408C19.4852 5.4568 19.0342 5.56292 18.605 5.68976ZM10.0454 10.9569C8.75482 12.31 7.73764 13.7948 6.86867 15.5941C4.36348 20.7814 4.37782 26.7622 6.90785 31.9335C7.75451 33.6638 7.57817 33.5412 8.72801 33.1996C10.0885 32.7954 11.5127 32.2235 12.8229 31.5554C13.9617 30.9746 15.4115 30.1036 15.905 29.7038L16.1747 29.4855L15.7011 28.8345C13.1052 25.2657 11.391 20.8229 10.8544 16.2734C10.7074 15.0271 10.6578 11.7226 10.7715 10.7546C10.8054 10.4663 10.8118 10.2304 10.7857 10.2304C10.7598 10.2304 10.4266 10.5573 10.0454 10.9569ZM23.2292 13.372C23.126 13.3919 22.6684 13.4356 22.2121 13.469L21.3825 13.53L21.4468 13.9661C21.686 15.5884 22.5699 18.2667 23.5102 20.2186L24.0993 21.4412L25.6082 21.5559C31.3991 21.9963 36.8564 24.275 41.0451 28.0018C41.6777 28.5645 41.8363 28.6659 41.8775 28.534C42.0359 28.0271 42.3187 26.3899 42.4124 25.4383C42.5269 24.274 42.4747 22.0655 42.3079 21.0116C42.1977 20.3159 42.0709 20.1708 40.4316 18.8631C36.8858 16.0349 32.4618 14.1591 27.9167 13.5571C26.8672 13.418 23.6493 13.291 23.2292 13.372ZM23.5882 23.8475C20.4097 28.7587 15.4768 32.5514 9.84579 34.4134C9.03992 34.6798 8.67017 34.8444 8.71217 34.918C8.9186 35.2801 9.89857 36.3826 10.7309 37.1893C11.7107 38.139 12.4015 38.7041 13.3417 39.3249L13.8604 39.6675L14.9824 39.3922C17.8769 38.6821 20.62 37.4713 23.0824 35.8168C24.6471 34.7655 25.5989 33.9782 26.9792 32.5934C28.9552 30.6109 30.4247 28.5707 31.6598 26.0948C32.5064 24.3977 32.5076 24.5505 31.6454 24.2672C30.6177 23.9294 29.2714 23.5775 28.3385 23.403C27.4169 23.2305 25.2093 22.9828 24.5799 22.9814L24.1495 22.9804L23.5882 23.8475ZM33.0574 26.7113C32.2655 28.331 31.073 30.2214 29.97 31.6054C29.088 32.712 26.7818 34.9946 25.7135 35.8184C23.0014 37.9097 20.502 39.2539 17.4168 40.2804L15.9169 40.7795L16.3855 40.9834C18.4939 41.9002 21.3133 42.4746 23.725 42.4788C30.0374 42.4894 36.0011 39.2453 39.4919 33.9022C40.0064 33.1145 41.1342 30.8901 41.2331 30.4676C41.2849 30.2465 41.1937 30.1336 40.3695 29.3974C38.6303 27.8439 36.8818 26.6456 34.9145 25.659C34.3416 25.3717 33.8616 25.1386 33.8479 25.141C33.8342 25.1435 33.4784 25.85 33.0574 26.7113Z" fill="black"/>
</svg>
