<svg width="49" height="48" viewBox="0 0 49 48" fill="none" xmlns="http://www.w3.org/2000/svg">
<g clip-path="url(#clip0_524_2610)">
<path d="M6.9706 37.7679C6.68792 38.0094 6.3438 38.1678 5.97649 38.2255C5.60917 38.2832 5.23306 38.2379 4.88997 38.0946L1.23631 36.5617C0.871867 36.4097 0.560265 36.1537 0.340399 35.8257C0.120533 35.4977 0.00214133 35.1122 0 34.7173L0 13.2779C0.00214133 12.883 0.120533 12.4975 0.340399 12.1695C0.560265 11.8415 0.871867 11.5855 1.23631 11.4335L4.88997 9.92578C5.23306 9.7825 5.60917 9.73717 5.97649 9.79484C6.3438 9.85251 6.68792 10.0109 6.9706 10.2525L7.78978 10.9309C7.62365 10.8115 7.42777 10.7403 7.22374 10.7251C7.0197 10.71 6.81545 10.7515 6.6335 10.845C6.45156 10.9386 6.29899 11.0806 6.19264 11.2554C6.08629 11.4302 6.03028 11.6309 6.0308 11.8355V36.1597C6.03028 36.3643 6.08629 36.565 6.19264 36.7398C6.29899 36.9146 6.45156 37.0566 6.6335 37.1502C6.81545 37.2438 7.0197 37.2853 7.22374 37.2701C7.42777 37.2549 7.62365 37.1837 7.78978 37.0643L6.9706 37.7679Z" fill="black"/>
<path d="M1.23631 36.562C0.871867 36.41 0.560265 36.154 0.340399 35.8259C0.120533 35.4979 0.00214133 35.1124 0 34.7176L0 34.5517C0.00247724 34.7837 0.0744347 35.0097 0.206587 35.2005C0.338739 35.3912 0.525021 35.538 0.741394 35.6218C0.957768 35.7057 1.1943 35.7227 1.42048 35.6708C1.64665 35.6189 1.85208 35.5005 2.01027 35.3307L33.1694 0.879843C33.6106 0.440773 34.177 0.149028 34.7907 0.0446491C35.4043 -0.0597298 36.0353 0.0283735 36.5969 0.296867L46.5376 5.08129C47.0497 5.32748 47.4817 5.71332 47.784 6.19435C48.0864 6.67538 48.2466 7.23203 48.2464 7.80017V7.91576C48.2461 7.55533 48.1435 7.20239 47.9506 6.89793C47.7577 6.59348 47.4823 6.35001 47.1566 6.19581C46.8308 6.0416 46.4679 5.983 46.1102 6.02679C45.7524 6.07059 45.4144 6.215 45.1355 6.44324L7.78978 37.0645L6.9706 37.7681C6.68792 38.0097 6.3438 38.1681 5.97649 38.2257C5.60917 38.2834 5.23306 38.2381 4.88997 38.0948L1.23631 36.562Z" fill="black"/>
<path opacity="0.5" d="M1.23631 11.4331C0.871867 11.5851 0.560265 11.8411 0.340399 12.1691C0.120533 12.4971 0.00214133 12.8826 0 13.2775L0 13.4434C0.00247724 13.2113 0.0744347 12.9854 0.206587 12.7946C0.338739 12.6039 0.525021 12.4571 0.741394 12.3733C0.957768 12.2894 1.1943 12.2723 1.42048 12.3242C1.64665 12.3761 1.85208 12.4946 2.01027 12.6644L33.1694 47.1152C33.6106 47.5543 34.177 47.846 34.7907 47.9504C35.4043 48.0548 36.0353 47.9667 36.5969 47.6982L46.5376 42.9138C47.0497 42.6676 47.4817 42.2817 47.784 41.8007C48.0864 41.3197 48.2466 40.763 48.2464 40.1949V40.0793C48.2461 40.4397 48.1435 40.7927 47.9506 41.0971C47.7577 41.4016 47.4823 41.6451 47.1566 41.7993C46.8308 41.9535 46.4679 42.0121 46.1102 41.9683C45.7524 41.9245 45.4144 41.7801 45.1355 41.5518L7.78978 10.9305L6.9706 10.2269C6.6854 9.98955 6.34007 9.83573 5.97284 9.7825C5.60562 9.72928 5.23082 9.77874 4.88997 9.9254L1.23631 11.4331Z" fill="#4F4F4F"/>
<path d="M36.5964 47.6988C36.0348 47.9673 35.4039 48.0554 34.7902 47.951C34.1765 47.8466 33.6102 47.5549 33.1689 47.1158C33.4166 47.3617 33.7315 47.5289 34.0739 47.5962C34.4163 47.6636 34.7711 47.6281 35.0934 47.4943C35.4157 47.3606 35.6913 47.1345 35.8854 46.8444C36.0796 46.5544 36.1836 46.2134 36.1843 45.8645V2.14128C36.1855 1.79143 36.083 1.44908 35.8896 1.15752C35.6963 0.865957 35.4208 0.638273 35.098 0.503257C34.7753 0.36824 34.4197 0.331953 34.0764 0.398984C33.733 0.466015 33.4172 0.633354 33.1689 0.879843C33.6102 0.440773 34.1765 0.149028 34.7902 0.0446491C35.4039 -0.0597298 36.0348 0.0283735 36.5964 0.296867L46.5372 5.07626C47.0492 5.32245 47.4813 5.70829 47.7836 6.18932C48.0859 6.67035 48.2462 7.227 48.2459 7.79514V40.2005C48.2462 40.7687 48.0859 41.3253 47.7836 41.8064C47.4813 42.2874 47.0492 42.6732 46.5372 42.9194L36.5964 47.6988Z" fill="black"/>
</g>
<defs>
<clipPath id="clip0_524_2610">
<rect width="48.2464" height="48" fill="white"/>
</clipPath>
</defs>
</svg>
