<svg width="49" height="48" viewBox="0 0 49 48" fill="none" xmlns="http://www.w3.org/2000/svg">
<path fill-rule="evenodd" clip-rule="evenodd" d="M18.9585 32.79C18.4789 32.8192 17.9066 32.4297 17.427 31.7381V31.7407C11.7805 23.8446 10.7895 14.8648 10.8796 8.55853C10.9697 5.3153 13.0418 2.43243 16.1048 1.35135C18.5955 0.479596 21.2691 0 24.0619 0C29.7375 0 34.9336 1.98198 39.0777 5.28615C39.2897 5.46633 39.2288 5.79489 38.9585 5.85584C37.2468 6.27714 32.5939 7.77687 29.6501 11.6216C26.8823 15.2822 25.5016 19.1484 24.1618 22.9004L24.1255 23.002C24.0989 23.0758 24.0723 23.1497 24.0457 23.2237C23.1085 25.8273 22.1303 28.5446 20.6411 31.3194C20.1589 32.1885 19.5282 32.7609 18.9585 32.79ZM34.2129 15.0399C35.3258 13.5693 37.2177 11.7384 39.7693 11.4072V11.4045C40.5192 11.3144 41.3009 11.3462 42.0216 11.4655C44.0619 11.9159 45.7153 13.4156 46.4651 15.3685C47.4879 18.0394 48.0576 20.9222 48.0576 23.9561C48.0576 39.0011 34.2129 50.893 18.5982 47.3795C10.2516 45.5194 2.98349 38.7627 0.731247 29.7828C-1.0414 22.7558 0.551068 15.7871 3.97448 10.803C4.33484 10.2943 5.14565 10.5036 5.14565 11.1342C5.32583 18.0102 6.94745 26.9 12.7424 35.0372C14.303 37.2603 16.5553 39.6026 18.8976 39.6026H19.3189C21.8997 39.4224 24.2129 36.6906 25.6544 34.017C27.2749 31.0026 28.2957 28.1964 29.2763 25.5006C29.3507 25.2961 29.4249 25.0922 29.4991 24.8888C30.8186 21.1952 31.9607 18.042 34.2129 15.0399Z" fill="black"/>
</svg>
