<svg width="48" height="48" viewBox="0 0 48 48" fill="none" xmlns="http://www.w3.org/2000/svg">
<path d="M22.4512 0.472155C23.565 -0.15741 25.0443 -0.15736 26.1494 0.472155L43.7344 10.6333C44.8702 11.2893 45.5791 12.5186 45.5791 13.8393V34.1352C45.5791 35.4515 44.87 36.6799 43.7344 37.3403L26.1494 47.4975C25.5859 47.8233 24.9475 47.9907 24.2959 47.9907L24.0566 47.9927C23.4963 47.9559 22.9461 47.7911 22.4531 47.5073L16.5811 44.0308C15.7045 43.5405 16.1316 43.367 16.4209 43.2671C17.5903 42.8576 17.828 42.765 19.0762 42.0561C19.2074 41.9813 19.3794 42.0072 19.5137 42.0864L24.0244 44.7632C24.1873 44.8512 24.4183 44.8512 24.5693 44.7632L42.1582 34.6108C42.3211 34.5184 42.4268 34.329 42.4268 34.1352V13.8393C42.4268 13.6368 42.3207 13.4562 42.1543 13.355L24.5732 3.21044C24.4104 3.11359 24.1941 3.1136 24.0312 3.21044L6.45312 13.355C6.28281 13.4518 6.17483 13.6408 6.1748 13.8345V34.1313C6.1749 34.3249 6.2801 34.5096 6.44727 34.602L11.2637 37.3843C13.8786 38.6917 15.4772 37.1516 15.4775 35.602V15.5688C15.4777 15.2828 15.7022 15.063 15.9883 15.063H18.2158C18.4931 15.063 18.7215 15.2828 18.7217 15.5688V35.6108C18.7215 39.0975 16.82 41.1001 13.5137 41.1001C12.4967 41.1001 11.6955 41.1002 9.45898 39.9995L4.84473 37.3403C3.70459 36.6799 3.0001 35.4476 3 34.1313V13.8345C3.00002 12.5137 3.70446 11.281 4.84473 10.6294L22.4512 0.472155ZM29.0137 14.5356C34.6446 14.5356 37.4357 16.49 37.7881 20.6899C37.8013 20.8352 37.7492 20.9768 37.6523 21.0825C37.5556 21.1836 37.419 21.2445 37.2783 21.2446H34.9932C34.7556 21.2446 34.5486 21.0778 34.5 20.8491C33.9497 18.4144 32.6195 17.6343 29.0049 17.6343C24.9592 17.6343 24.4883 19.0435 24.4883 20.1001C24.4883 21.3813 25.0426 21.756 30.502 22.478C35.9084 23.1956 38.4755 24.208 38.4756 28.0073C38.4756 31.8377 35.2789 34.0347 29.7051 34.0347L29.0273 34.0044C21.9355 33.7945 20.4209 30.3886 20.4209 27.5181C20.4211 27.2364 20.6486 27.0122 20.9307 27.0122H23.2021C23.4531 27.0122 23.6645 27.195 23.7041 27.4429C24.0475 29.7577 25.0692 30.9253 29.7227 30.9253C33.4298 30.9253 35.0059 30.0874 35.0059 28.1216C35.0057 26.9903 34.5558 26.1499 28.7979 25.5864C23.9815 25.1109 21.0059 24.0491 21.0059 20.1968C21.0061 16.6485 23.9993 14.5357 29.0137 14.5356Z" fill="black"/>
</svg>
