<svg width="48" height="48" viewBox="0 0 48 48" fill="none" xmlns="http://www.w3.org/2000/svg">
<g clip-path="url(#clip0_524_2543)">
<path d="M24.3313 25.6543L18.6562 42.1454C20.3514 42.6424 22.1436 42.9166 24.0007 42.9166C26.2027 42.9166 28.3161 42.5355 30.281 41.844C30.2305 41.7629 30.1845 41.6767 30.1469 41.5832L24.3313 25.6543Z" fill="black"/>
<path d="M5.08398 23.9987C5.08398 31.4868 9.43554 37.9572 15.7456 41.0229L6.72275 16.3008C5.67346 18.6533 5.08398 21.2567 5.08398 23.9987Z" fill="black"/>
<path d="M36.7685 23.0446C36.7685 20.707 35.9295 19.0885 35.2099 17.8274C34.2507 16.2693 33.3519 14.9503 33.3519 13.3917C33.3519 11.6529 34.6704 10.0344 36.5284 10.0344C36.6126 10.0344 36.6918 10.0448 36.7739 10.0488C33.4093 6.96676 28.9261 5.08398 24.0009 5.08398C17.3914 5.08398 11.5773 8.47437 8.19629 13.6104C8.63976 13.6238 9.057 13.6332 9.41336 13.6332C11.3921 13.6332 14.4554 13.3932 14.4554 13.3932C15.4759 13.3318 15.5947 14.83 14.5766 14.9503C14.5766 14.9503 13.5516 15.0705 12.4117 15.1309L19.2989 35.6203L23.4381 23.2045L20.4902 15.1304C19.4716 15.07 18.507 14.9498 18.507 14.9498C17.4884 14.8904 17.6072 13.3323 18.6263 13.3927C18.6263 13.3927 21.7508 13.6327 23.6084 13.6327C25.5867 13.6327 28.6509 13.3927 28.6509 13.3927C29.6715 13.3323 29.7907 14.8295 28.7711 14.9498C28.7711 14.9498 27.7451 15.07 26.6063 15.1304L33.4429 35.4644L35.3297 29.1597C36.1468 26.5434 36.7685 24.6636 36.7685 23.0446Z" fill="black"/>
<path d="M40.5974 14.9238C40.6786 15.5257 40.7251 16.1736 40.7251 16.869C40.7251 18.7884 40.3672 20.9463 39.2873 23.6443L33.5088 40.3493C39.1319 37.0698 42.9157 30.977 42.9157 23.9997C42.9162 20.7103 42.0753 17.6178 40.5974 14.9238Z" fill="black"/>
<path d="M23.9994 0C10.7448 0 0 10.7453 0 24C0 37.2547 10.7448 48 23.9994 48C37.254 48 47.9988 37.2547 47.9988 24C47.9988 10.7453 37.254 0 23.9994 0ZM24.0004 45.0387C12.3989 45.0387 2.96175 35.6016 2.96175 23.999C2.96175 12.3984 12.3984 2.96127 24.0004 2.96127C35.6004 2.96127 45.037 12.3989 45.037 23.999C45.0375 35.6006 35.5999 45.0387 24.0004 45.0387Z" fill="black"/>
</g>
<defs>
<clipPath id="clip0_524_2543">
<rect width="47.9998" height="48" fill="white"/>
</clipPath>
</defs>
</svg>
