<svg width="46" height="46" viewBox="0 0 46 46" fill="none" xmlns="http://www.w3.org/2000/svg">
<g id="apple_xcode-icon 1" clip-path="url(#clip0_4730_34137)">
<path id="Vector" d="M33.8818 19.297L34.1205 18.5021C34.9154 15.6414 35.7233 12.7808 36.823 10.0115C37.3132 8.7666 38.1476 8.07085 39.4464 7.91848C40.3075 7.82504 41.2217 7.74598 41.8039 8.56751C42.1877 9.08501 42.6254 9.38904 43.2414 9.50188C43.5325 9.54141 43.8164 9.6212 44.1025 9.72685C44.4863 9.87276 44.6322 9.71391 44.7386 9.35598L45.7592 5.88585C46.143 4.57485 46.143 4.58779 44.8715 4.13713C44.3418 3.9517 43.8653 3.8712 43.3082 4.11054C42.4077 4.48141 41.5861 4.33551 40.8645 3.60741C40.0954 2.83835 39.2222 2.24323 38.1764 1.87235C35.1698 0.825851 32.0835 0.362976 28.9174 0.866101C27.3937 1.10473 25.9109 1.51513 24.6265 2.42938C24.4411 2.56163 24.2959 2.72048 24.1234 2.88004C25.8721 2.73413 27.554 2.70754 29.2366 2.93323C30.3758 3.07913 31.3957 3.46295 32.1504 4.42966C32.9453 5.45029 33.1307 6.65491 33.2285 7.87391C33.3744 9.58238 33.056 11.2254 32.5795 12.8549L31.1089 18.0471C31.0428 18.2721 30.9896 18.4784 31.2943 18.5502L33.8775 19.3049L33.8818 19.297ZM25.7348 45.3388C26.5686 45.4049 27.2442 45.0211 27.6754 44.2793C27.9305 43.8358 28.1221 43.3587 28.2447 42.8619L32.0325 27.0732L33.5692 20.5167C33.6748 20.0855 33.5692 19.9202 33.1595 19.8282L31.4906 19.3646C30.4699 19.0598 30.669 19.0986 30.365 19.9396L22.8347 41.3583C22.729 41.6494 22.6363 41.9678 22.6226 42.2726C22.5507 44.0738 23.8157 45.3323 25.7348 45.3459V45.3388ZM0.0380622 13.5614L0.196187 14.7272L1.34834 22.3567L2.47391 30.0474L3.63972 37.7833L4.36853 42.6851C4.42172 43.0301 4.54103 43.1883 4.94353 43.1221L12.1756 41.97L22.494 40.3672C22.6262 40.3406 22.7326 40.1817 22.8519 40.0761C22.706 40.0042 22.5342 39.8511 22.4012 39.864L16.772 40.7122L5.37981 42.5004C4.98234 42.5665 4.85009 42.4738 4.80481 42.0907L4.09684 37.1429L2.44084 26.1891L0.646843 14.237C0.580718 13.8 0.718718 13.6009 1.16434 13.5484L3.45572 13.1905L12.834 11.6668L28.6493 9.07063L32.2122 8.46113C32.3581 8.43454 32.4637 8.22251 32.5831 8.1032L32.1065 7.91776C32.067 7.90482 32.0131 7.9307 31.9606 7.94435L27.5231 8.6861L0.421875 13.1373C0.0912497 13.1905 -0.0812503 13.2832 0.0380622 13.5686V13.5614ZM37.789 9.16407C37.7171 9.16407 37.6308 9.16407 37.5503 9.15113C37.5108 9.48176 37.3922 9.82676 37.431 10.1574L37.9607 13.3759L39.3982 22.0124L41.7701 36.1589C41.8233 36.437 41.7701 36.6354 41.4251 36.6886L33.7812 37.881L30.1659 38.4776C30.0602 38.4905 29.9675 38.663 29.8748 38.7687C30.0071 38.8348 30.1264 38.9541 30.2457 38.9541C30.6295 38.9275 31.0004 38.8607 31.3712 38.8082L42.4184 37.0329L37.7825 9.16335L37.789 9.16407ZM27.7351 25.8534C28.0398 25.5487 27.9867 25.3237 27.7746 25.0722L25.2978 22.0915L18.3302 13.6807C18.1448 13.4557 17.9852 13.151 17.9328 12.8592C17.8393 12.2899 18.2239 11.781 18.7809 11.5482C19.3775 11.3232 19.8935 11.482 20.3967 12.0779L27.2449 20.2716L28.9138 22.2453C29.2049 21.9406 29.1654 21.7156 28.9534 21.464L26.2113 18.1844L20.6877 11.615C19.946 10.7539 18.819 10.7008 17.9996 11.4166C17.1917 12.1189 17.1515 13.1129 17.9062 14.0128L26.4895 24.3714L27.7344 25.8549L27.7351 25.8534ZM18.5955 20.2688C18.502 20.2026 18.3971 20.1106 18.2778 20.0567L15.5357 19.0505C15.2447 18.9448 15.1045 19.0505 15.006 19.302L9.99922 31.607C9.86697 31.9118 9.95969 32.0577 10.2378 32.1634L12.8074 33.2228C13.271 33.4348 13.4564 33.3284 13.6289 32.8649L18.5883 20.268L18.5955 20.2688ZM27.3247 25.9591L25.5494 23.695C25.0987 23 24.5956 22.6406 23.7618 23C23.5635 23.0719 23.3306 23.0719 23.1257 23.1057L17.807 24.0199C17.5288 24.0731 17.2895 24.1392 17.1709 24.4706L16.0978 27.398C16.0583 27.5037 16.0583 27.6367 16.0317 27.8293L27.3175 25.9749L27.3247 25.9591ZM12.4358 24.7804L6.06478 25.8132L6.47447 28.7011C6.52766 29.1108 6.69944 29.1647 7.07103 29.1108L10.3557 28.6602C10.6863 28.6206 10.8991 28.4877 11.0313 28.1836L12.2633 25.323C12.3294 25.1649 12.3567 25.0326 12.4358 24.7804Z" fill="black"/>
<path id="Vector_2" d="M35.7218 33.046L31.7349 30.6216C31.7881 30.8732 31.7615 31.165 31.893 31.3102C32.1457 31.5906 32.4463 31.8238 32.7807 31.9988C33.2314 32.2503 33.7151 32.43 34.1715 32.6478C34.8471 32.9784 35.3373 33.4557 35.3373 34.2772C35.3373 34.4094 35.4034 34.5431 35.4566 34.6869L35.5889 34.6208C35.6255 34.5856 35.657 34.5455 35.6823 34.5014C36.4772 33.3227 36.5304 32.0246 36.1854 30.6921C35.8016 29.2086 35.1123 27.9234 33.6684 27.1817C33.2709 26.9833 33.0193 27.1551 32.7282 27.3542C32.4235 27.5662 32.2517 27.8178 32.3308 28.2684C32.5428 28.1362 32.7282 28.0435 32.8605 27.9105C33.1911 27.5655 33.4966 27.6446 33.8667 27.8839C35.3236 28.9045 36.2386 31.4734 35.7211 33.0373L35.7218 33.046ZM9.08496 38.5969C9.13814 38.6235 9.19061 38.6501 9.24308 38.663L13.2178 33.7036L12.7671 33.465L10.2371 32.4444C9.83964 32.2719 9.71961 32.3912 9.69374 32.8023L9.34371 36.1531L9.09214 38.5969H9.08496ZM17.628 15.76C16.859 15.8319 16.3558 16.1575 16.0647 16.8331L15.4552 18.29C15.323 18.5682 15.3618 18.7407 15.6802 18.8463L18.3295 19.8267C18.6472 19.946 18.7802 19.8397 18.8988 19.5608L19.5349 18.0514C19.813 17.3758 19.693 16.8065 19.0842 16.4091C18.6472 16.1309 18.1182 15.9721 17.628 15.76ZM33.166 24.8997L36.4722 24.4361C36.5656 24.4231 36.6842 24.1845 36.6706 24.0781L36.194 21.4547C36.1675 21.3224 35.9425 21.137 35.8102 21.137C35.2539 21.1765 34.6976 21.2563 34.1413 21.349C33.8631 21.3886 33.6648 21.5215 33.8236 21.9183L35.3603 21.7328C35.4796 21.7199 35.7053 21.8263 35.7182 21.9053L36.102 23.9588L33.6382 24.2894C33.3471 24.329 33.0819 24.3951 33.1746 24.8989L33.166 24.8997ZM33.8818 19.297L31.3123 18.5553C31.0075 18.4618 31.0607 18.2771 31.1269 18.0521L32.5974 12.8599C33.074 11.2305 33.3924 9.57519 33.2465 7.87894C33.1408 6.66066 32.9683 5.46825 32.1683 4.43469C31.4136 3.46797 30.393 3.08344 29.2545 2.93825C27.5726 2.71329 25.903 2.73988 24.1413 2.88507C24.3138 2.73916 24.459 2.56738 24.6445 2.43441C25.9296 1.52016 27.4131 1.10975 28.9354 0.871129C32.1144 0.368004 35.1885 0.844535 38.1943 1.87738C39.2408 2.23532 40.1148 2.8441 40.8825 3.61244C41.6113 4.34125 42.4321 4.48644 43.3262 4.11557C43.8825 3.87694 44.3591 3.95744 44.8895 4.14216C46.1617 4.59282 46.1617 4.57916 45.7771 5.89088L44.7565 9.361C44.6509 9.71894 44.505 9.86413 44.1204 9.73188C43.8423 9.62622 43.5512 9.54644 43.2594 9.50691C42.6369 9.41347 42.1863 9.10944 41.8219 8.57254C41.2253 7.76466 40.3254 7.83079 39.4644 7.9235C38.1663 8.06941 37.3318 8.77163 36.8409 10.0165C35.7412 12.7851 34.9334 15.6458 34.1384 18.5071L33.8869 19.2884L33.8818 19.297ZM25.7348 45.3388C23.8143 45.3258 22.5558 44.0809 22.6226 42.2654C22.6355 41.9606 22.7283 41.6429 22.8346 41.3511L30.3707 19.9597C30.6618 19.1116 30.4764 19.0857 31.4963 19.3847L33.1652 19.8483C33.5749 19.9417 33.6827 20.1142 33.5749 20.5368L32.0382 27.0933L28.2504 42.8821C28.1278 43.3788 27.9362 43.8559 27.6812 44.2994C27.2442 45.0283 26.5685 45.4121 25.7405 45.3459L25.7348 45.3388ZM0.0380497 13.5614C-0.0812628 13.2832 0.0912372 13.1905 0.435518 13.1301L27.536 8.69257L31.9735 7.95082C32.0267 7.93788 32.0792 7.91129 32.1195 7.92422L32.596 8.10966C32.4767 8.22897 32.371 8.44029 32.2251 8.4676L28.6623 9.0771L21.045 10.3133L12.8455 11.6646L3.46721 13.1883L1.17583 13.5463C0.738831 13.5995 0.600831 13.7978 0.658331 14.2348L4.09683 37.1393L4.81199 42.0799C4.86517 42.4638 4.98449 42.5565 5.38699 42.4896L16.7792 40.7014L22.4084 39.8533C22.5407 39.8403 22.7132 39.9855 22.8591 40.0653C22.7398 40.1709 22.6341 40.3312 22.5011 40.3564L12.1971 41.9606L4.96508 43.1128C4.55539 43.1789 4.43536 43.0194 4.39008 42.6758L3.66127 37.7739L2.49546 30.038L1.36989 22.3474L0.0373309 13.5686L0.0380497 13.5614ZM37.789 9.16407L42.4515 37.0602L39.8554 37.4914L31.4043 38.8427L30.2787 38.9886C30.1594 39.0015 30.0272 38.8693 29.9079 38.8032C30.0013 38.6975 30.0933 38.5372 30.199 38.5121L33.8143 37.9155L41.4438 36.7224C41.7888 36.6692 41.8276 36.4708 41.7888 36.1927L40.8544 30.682L37.9794 13.409L37.4497 10.1904C37.4102 9.87276 37.5216 9.52919 37.569 9.18419C37.6351 9.17126 37.7013 9.17126 37.781 9.17126L37.789 9.16407Z" fill="black"/>
<path id="Vector_3" d="M27.7351 25.8534L26.4903 24.3699L17.9069 14.0113C17.1523 13.1107 17.1918 12.1303 18.0004 11.4152C18.8341 10.6864 19.9611 10.7396 20.6885 11.6136L28.9541 21.4554C29.1662 21.707 29.2201 21.9319 28.9146 22.2367L27.2457 20.263L20.3974 12.0692C19.8943 11.4727 19.3768 11.3002 18.7817 11.5395C18.2124 11.7645 17.8415 12.2813 17.9335 12.8505C17.9731 13.1416 18.1319 13.4471 18.331 13.6721L27.7754 25.0642C27.9874 25.3158 28.0535 25.5408 27.7359 25.8455L27.7351 25.8534ZM18.5955 20.2687L18.4374 20.7194L13.6218 32.8921C13.4363 33.3557 13.2638 33.4614 12.8002 33.2501L10.2307 32.1906C9.9396 32.0713 9.85982 31.9391 9.99207 31.6343L14.9989 19.3293C15.1045 19.0634 15.2375 18.9585 15.5286 19.0778L18.2706 20.084C18.3899 20.1106 18.4827 20.2033 18.5883 20.2695L18.5955 20.2687ZM15.4689 19.6075L14.8329 21.1837L10.7266 31.2376C10.5685 31.6351 10.6548 31.7939 11.0177 31.9261L12.581 32.5622C12.9785 32.7606 13.1373 32.6816 13.2962 32.2711L17.9465 20.5088L15.4697 19.6082L15.4689 19.6075ZM27.3247 25.9591L16.0526 27.8135C16.0792 27.628 16.0792 27.5087 16.1187 27.3822L17.1918 24.4547C17.3111 24.1241 17.5497 24.0451 17.8279 24.0041L23.1466 23.0898C23.3587 23.0503 23.5836 23.0632 23.7827 22.9842C24.6165 22.6536 25.1074 23.0108 25.571 23.6864C26.0612 24.4411 26.6707 25.1239 27.3319 25.9505L27.3247 25.9591ZM16.7807 27.1644L26.3573 25.5832L24.7811 23.6095C24.6876 23.5038 24.4763 23.4514 24.3175 23.4636L22.9533 23.6756L18.2383 24.4971C18.0399 24.5367 17.7481 24.6553 17.682 24.8148C17.3514 25.5566 17.0854 26.3242 16.7814 27.1723L16.7807 27.1644ZM12.4358 24.7803L12.2633 25.2978L11.0314 28.1585C10.8991 28.4761 10.7008 28.5955 10.3558 28.635L7.07107 29.0856C6.70019 29.1388 6.52769 29.0856 6.47451 28.676L6.06482 25.788L12.4358 24.7818V24.7803ZM11.6143 25.456L7.11132 26.1841C6.96541 26.2106 6.72751 26.45 6.72751 26.5679C6.76704 27.1371 6.87341 27.7071 6.99344 28.2763C7.02914 28.3423 7.08041 28.3985 7.1428 28.4401C7.20518 28.4817 7.27679 28.5074 7.35138 28.515L10.0395 28.1441C10.212 28.1175 10.4708 28.0248 10.5297 27.8925L11.6078 25.4488L11.6143 25.456ZM35.7212 33.046C36.2387 31.4827 35.3237 28.9131 33.8668 27.9198C33.5089 27.6683 33.2055 27.6021 32.8605 27.9464C32.7283 28.0787 32.5429 28.1585 32.3308 28.3044C32.2589 27.8408 32.4243 27.6021 32.7283 27.3901C33.0194 27.1781 33.2717 27.0192 33.6684 27.2176C35.1059 27.9594 35.8009 29.2445 36.1855 30.728C36.5305 32.0526 36.4766 33.3514 35.6824 34.5374C35.6558 34.5769 35.6292 34.6092 35.5889 34.6567C35.5623 34.6833 35.5357 34.6833 35.4567 34.7228C35.4171 34.5769 35.3374 34.4446 35.3374 34.3131C35.3374 33.4916 34.8472 33.0151 34.1715 32.6837L32.7808 32.0347C32.4501 31.8492 32.1317 31.625 31.8931 31.3461C31.7609 31.2002 31.7874 30.9091 31.735 30.6576L35.7219 33.0481L35.7212 33.046ZM9.08501 38.5969L9.32363 36.1531L9.68157 32.8016C9.7211 32.3919 9.82748 32.2719 10.2249 32.4436L12.7549 33.4643C12.8872 33.5175 13.0065 33.5965 13.2056 33.7029L9.23091 38.6623C9.19138 38.6493 9.13748 38.6235 9.08501 38.5969ZM9.76063 37.0602C9.80016 37.0731 9.83251 37.0731 9.86629 37.0868L12.3834 33.8811L10.1984 33.0201L9.76135 37.0595L9.76063 37.0602ZM17.6281 15.76C18.1183 15.9721 18.6487 16.1309 19.085 16.4213C19.6945 16.8187 19.8138 17.388 19.5356 18.0636L18.8995 19.573C18.7939 19.8511 18.648 19.9568 18.3303 19.8389L15.681 18.8586C15.3633 18.7529 15.336 18.5804 15.456 18.3022L16.0655 16.8453C16.3566 16.1568 16.8468 15.8391 17.6288 15.7672L17.6281 15.76ZM16.0123 18.3957L18.2246 19.2036C18.2965 19.2301 18.4906 19.1101 18.5423 19.0052L19.0598 17.8264C19.2323 17.4556 19.1533 17.0976 18.8349 16.9122C18.464 16.6872 18.0536 16.5284 17.6295 16.422C17.1659 16.3163 16.7814 16.5276 16.5967 16.9783L16.0217 18.3957H16.0123ZM33.166 24.9004C33.0604 24.3972 33.3385 24.3311 33.6296 24.2909L36.0935 23.9602L35.7097 21.9068C35.6967 21.8349 35.471 21.7213 35.3517 21.7343L33.815 21.9197C33.6691 21.51 33.8682 21.39 34.1327 21.3505L35.8017 21.1384C35.9339 21.1255 36.1596 21.3239 36.1855 21.4561L36.662 24.0796C36.6749 24.1852 36.5427 24.4246 36.4636 24.4375L33.1574 24.9011L33.166 24.9004Z" fill="black"/>
<path id="Vector_4" d="M15.4689 19.6219L17.9457 20.5225L13.2954 32.2848C13.1373 32.6945 12.9648 32.775 12.5802 32.5759C12.0771 32.3243 11.5474 32.1252 11.0169 31.9398C10.6461 31.8076 10.5663 31.6487 10.7259 31.2512L14.8321 21.1974L15.4682 19.6212L15.4689 19.6219ZM16.7806 27.1651L17.6683 24.8206C17.7344 24.6625 18.0262 24.5424 18.2246 24.5029L22.9396 23.6814L24.3038 23.4693C24.4497 23.4564 24.6746 23.5089 24.7674 23.6152L26.3436 25.5889L16.7806 27.1651ZM11.6149 25.456L10.5368 27.8803C10.4707 28.0126 10.2191 28.1053 10.0466 28.1319L7.35851 28.5027C7.2392 28.5157 7.01351 28.3705 7.00057 28.2641C6.88126 27.7078 6.77561 27.1386 6.73464 26.5556C6.7217 26.4363 6.95961 26.1977 7.11845 26.1718L11.6221 25.4567L11.6149 25.456ZM9.76057 37.0587L10.2112 33.0194L12.3962 33.8804L9.87917 37.0861C9.83823 37.0837 9.79794 37.0747 9.75986 37.0595L9.76057 37.0587ZM16.0123 18.3957L16.5873 16.992C16.7856 16.5413 17.1565 16.3307 17.6201 16.4357C18.046 16.5318 18.4533 16.6975 18.8254 16.9258C19.1431 17.1242 19.2229 17.4692 19.0504 17.8401L18.5329 19.0188C18.4797 19.1123 18.2943 19.2438 18.2152 19.2172L16.0029 18.3957H16.0123Z" fill="black"/>
</g>
<defs>
<clipPath id="clip0_4730_34137">
<rect width="46" height="46" fill="white"/>
</clipPath>
</defs>
</svg>
