<svg width="48" height="48" viewBox="0 0 48 48" fill="none" xmlns="http://www.w3.org/2000/svg">
<path d="M24.6534 7.8057C24.4705 6.88995 24.704 5.94073 25.3373 4.95786C26.0863 3.77511 26.9687 3.12608 27.9848 2.99248C29.3007 2.84276 30.5162 3.54195 31.6487 5.0578C32.698 6.47323 33.1646 7.8057 33.048 9.02154C33.031 9.75429 31.949 10.2038 29.8003 10.3535C28.1179 10.4871 26.9023 10.3204 26.1189 9.83726C25.3032 9.35464 24.8201 8.67205 24.6534 7.8057ZM47.8702 44.8627C47.7537 45.1119 47.3382 45.0788 46.6212 44.7624C45.4056 44.1797 44.0566 43.2967 42.5412 42.0974C40.8587 40.7654 39.8758 39.7161 39.6095 38.9497C39.5597 38.7665 39.5767 38.5338 39.6762 38.234L39.9931 37.3842C40.2092 36.6017 39.9259 35.8191 39.1434 35.0357C38.7607 34.6529 38.2443 34.2868 37.611 33.9366C36.1292 33.1541 33.9972 32.4881 31.1826 31.9548C28.2675 31.4053 25.4869 31.0889 22.8386 31.0225L19.6242 31.1892C18.7748 32.1716 17.9591 33.0874 17.1757 33.9366C16.5097 34.6363 15.8607 35.2858 15.2274 35.8854C12.6793 38.1672 10.1982 39.8994 7.76628 41.0983C4.45185 42.714 1.97028 43.1802 0.288127 42.464C0.0716584 42.3142 0.00490844 42.0646 0.0716584 41.7145L0.371471 40.7819C1.52066 38.2837 3.4026 36.002 5.98419 33.9365C6.20066 33.7537 6.43372 33.587 6.65019 33.4207C8.69881 31.9049 11.4633 30.3062 14.9444 28.6573C17.2258 27.6749 19.1082 27.0254 20.5737 26.709L21.956 24.7934C22.5055 24.1108 23.0881 23.4613 23.6713 22.8446C24.9203 21.4955 26.2022 20.2469 27.5521 19.1309C27.6683 19.0807 27.6852 19.0144 27.618 18.931C26.9355 18.5482 25.8198 17.8315 24.3045 16.7824C23.0048 15.8999 21.9892 15.2836 21.2559 14.9501C18.958 13.9179 16.6094 14.2177 14.195 15.8497C12.7456 16.8155 11.963 17.8818 11.8798 19.0475L11.7963 20.48C11.8798 20.8793 10.5974 21.5457 7.96606 22.4783C7.48297 22.6281 7.08322 22.7613 6.75013 22.8445C6.167 22.961 5.76725 22.9781 5.56775 22.8777L5.501 22.8445L5.3181 22.728C5.08466 22.2619 6.18406 20.6628 8.59897 17.9149C8.76566 17.7282 8.93403 17.547 9.10334 17.3683L9.10897 17.3611L9.1145 17.3573C13.4866 12.7584 18.6431 10.9786 24.5704 12.0359C26.2023 12.3191 28.9013 13.3182 32.6817 15.0172C33.0973 14.6005 33.8143 14.1012 34.7968 13.5347C36.046 12.8189 37.0782 12.4353 37.8612 12.4191C39.5769 12.4022 40.6588 13.0516 41.1088 14.4007C41.3751 15.2173 40.7754 16.3665 39.2937 17.8486C37.7617 19.4141 36.3123 20.3966 34.9467 20.7959C33.2309 21.3126 31.3656 21.0127 29.3837 19.9305C28.5016 20.6131 27.5022 21.596 26.4193 22.8446C26.3696 22.8948 26.3194 22.9611 26.2696 23.0113L23.7051 26.076L23.6715 26.2921L25.4369 26.2258C26.7027 26.2594 27.985 26.4754 29.3008 26.8918C32.8819 28.041 35.8795 29.4563 38.2939 31.139C39.4431 31.9547 40.5599 32.8878 41.6086 33.9365C42.6911 35.0356 43.7402 36.2681 44.7227 37.6172C45.5895 38.817 46.3219 40.0321 46.9378 41.248C47.8039 42.9472 48.1198 44.1461 47.8702 44.8627ZM34.7467 15.6835C35.0631 15.9332 35.8124 16.0335 37.0285 15.9833C38.3771 15.9332 39.2936 15.6669 39.8095 15.1505C40.0596 14.9005 40.0596 14.6509 39.7763 14.4178C39.4599 14.1346 38.8771 14.0682 38.0444 14.1844C37.3282 14.3009 36.5619 14.5505 35.7295 14.9342C34.9134 15.317 34.58 15.567 34.7467 15.6835ZM16.5763 31.6384L16.1932 31.5887C15.044 31.8221 13.9782 32.0884 12.9958 32.3886C11.6136 32.8378 10.3308 33.3541 9.14853 33.9367C8.19922 34.3867 7.31628 34.8865 6.50056 35.419C3.902 37.1011 2.70303 38.7338 2.9195 40.3155L3.16953 40.5987C3.85213 41.0487 5.20119 40.6985 7.19966 39.5495C9.91485 37.9678 12.3459 36.1024 14.4945 33.9367C15.2108 33.2039 15.91 32.438 16.5763 31.6384Z" fill="black"/>
</svg>
