<svg viewBox="0 0 80 103" fill="none" xmlns="http://www.w3.org/2000/svg">
    <g clip-path="url(#clip0_46100_55724)">
        <rect x="5" width="68" height="68" rx="15" fill="white"/>
        <path d="M14.8279 30.0443C14.677 29.8933 14.7205 29.7218 14.9252 29.6612L19.7558 28.2303C19.9605 28.1697 20.2488 28.2429 20.3997 28.3938L23.9189 31.913C24.0699 32.064 24.0263 32.2355 23.8216 32.2962L18.9911 33.727C18.7864 33.7877 18.4981 33.7144 18.3471 33.5635L14.8279 30.0443Z" fill="black"/>
        <path d="M17.0264 37.2984C16.8755 37.1474 16.919 36.9759 17.1237 36.9153L21.9543 35.4844C22.159 35.4238 22.4473 35.497 22.5983 35.6479L26.1175 39.1671C26.2684 39.3181 26.2249 39.4896 26.0202 39.5503L21.1896 40.9811C20.9849 41.0418 20.6966 40.9686 20.5456 40.8176L17.0264 37.2984Z" fill="black"/>
        <path d="M27.4898 42.1043C27.3389 41.9534 27.3824 41.7819 27.5871 41.7212L57.4909 32.8633C57.6956 32.8027 57.984 32.8759 58.1349 33.0269L61.6541 36.546C61.8051 36.697 61.7615 36.8685 61.5568 36.9292L31.653 45.7871C31.4483 45.8477 31.16 45.7745 31.009 45.6235L27.4898 42.1043Z" fill="black"/>
        <path d="M31.5434 25.0929C31.3925 24.942 31.436 24.7704 31.6407 24.7098L36.4713 23.2789C36.676 23.2183 36.9643 23.2915 37.1153 23.4425L40.6344 26.9617C40.7854 27.1126 40.7418 27.2842 40.5371 27.3448L35.7066 28.7757C35.5019 28.8363 35.2136 28.7631 35.0626 28.6121L31.5434 25.0929Z" fill="black"/>
        <path d="M33.7419 32.347C33.591 32.1961 33.6345 32.0246 33.8392 31.9639L38.6698 30.533C38.8745 30.4724 39.1628 30.5456 39.3138 30.6966L42.833 34.2158C42.9839 34.3667 42.9404 34.5383 42.7357 34.5989L37.9051 36.0298C37.7004 36.0904 37.4121 36.0172 37.2611 35.8662L33.7419 32.347Z" fill="black"/>
        <path d="M23.1857 27.5686C23.0347 27.4176 23.0783 27.2461 23.283 27.1855L28.1135 25.7546C28.3182 25.694 28.6065 25.7672 28.7575 25.9182L32.2767 29.4374C32.4277 29.5883 32.3841 29.7598 32.1794 29.8205L27.3488 31.2514C27.1441 31.312 26.8558 31.2388 26.7049 31.0878L23.1857 27.5686Z" fill="black"/>
        <path d="M25.3842 34.8227C25.2332 34.6718 25.2768 34.5002 25.4815 34.4396L30.312 33.0087C30.5167 32.9481 30.8051 33.0213 30.956 33.1723L34.4752 36.6915C34.6262 36.8424 34.5826 37.014 34.3779 37.0746L29.5473 38.5055C29.3426 38.5661 29.0543 38.4929 28.9034 38.3419L25.3842 34.8227Z" fill="black"/>
        <path d="M39.9012 22.6173C39.7502 22.4663 39.7938 22.2948 39.9985 22.2341L44.829 20.8033C45.0337 20.7426 45.322 20.8158 45.473 20.9668L48.9922 24.486C49.1432 24.637 49.0996 24.8085 48.8949 24.8691L44.0643 26.3C43.8596 26.3606 43.5713 26.2874 43.4204 26.1364L39.9012 22.6173Z" fill="black"/>
        <path d="M42.0997 29.8714C41.9487 29.7204 41.9923 29.5489 42.197 29.4882L47.0275 28.0574C47.2322 27.9967 47.5206 28.07 47.6715 28.2209L51.1907 31.7401C51.3417 31.8911 51.2981 32.0626 51.0934 32.1232L46.2628 33.5541C46.0581 33.6147 45.7698 33.5415 45.6189 33.3906L42.0997 29.8714Z" fill="black"/>
        <path d="M49.8074 27.5882C49.6564 27.4373 49.7 27.2657 49.9047 27.2051L54.7353 25.7742C54.9399 25.7136 55.2283 25.7868 55.3792 25.9378L58.8984 29.457C59.0494 29.6079 59.0058 29.7795 58.8011 29.8401L53.9705 31.271C53.7659 31.3316 53.4775 31.2584 53.3266 31.1074L49.8074 27.5882Z" fill="black"/>
    </g>
    <path d="M1.16041 99V85.5058H4.82389V90.9614H5.00838L9.06719 85.5058H13.3369L8.77728 91.5149L13.4423 99H9.06719L6.03626 93.9397L4.82389 95.521V99H1.16041ZM14.424 99V85.5058H24.1494V88.4576H18.0875V90.7769H23.6486V93.7288H18.0875V96.0481H24.123V99H14.424ZM25.4128 85.5058H29.498L32.1336 90.9878H32.239L34.8746 85.5058H38.9598L34.0048 94.7567V99H30.3677V94.7567L25.4128 85.5058ZM40.154 99V85.5058H46.005C47.0329 85.5058 47.8961 85.6441 48.5945 85.9209C49.2973 86.1976 49.8266 86.5886 50.1825 87.0937C50.5426 87.5989 50.7227 88.1941 50.7227 88.8793C50.7227 89.3757 50.6129 89.8281 50.3933 90.2367C50.1781 90.6452 49.875 90.9878 49.484 91.2645C49.0931 91.5369 48.6362 91.7258 48.1135 91.8312V91.963C48.6933 91.9849 49.2205 92.1321 49.6949 92.4044C50.1693 92.6724 50.547 93.0436 50.8282 93.518C51.1093 93.988 51.2499 94.5415 51.2499 95.1784C51.2499 95.9164 51.0566 96.5731 50.67 97.1485C50.2879 97.7239 49.7432 98.1764 49.036 98.5058C48.3288 98.8353 47.4854 99 46.5058 99H40.154ZM43.8175 96.0745H45.5306C46.1456 96.0745 46.6068 95.9603 46.9143 95.7319C47.2218 95.4991 47.3755 95.1564 47.3755 94.704C47.3755 94.3877 47.3031 94.1198 47.1581 93.9001C47.0131 93.6805 46.8067 93.5136 46.5387 93.3994C46.2752 93.2852 45.9567 93.228 45.5833 93.228H43.8175V96.0745ZM43.8175 90.9614H45.3198C45.6404 90.9614 45.9238 90.9109 46.1698 90.8099C46.4157 90.7089 46.6068 90.5639 46.743 90.375C46.8836 90.1817 46.9538 89.9467 46.9538 89.67C46.9538 89.2527 46.8045 88.9342 46.5058 88.7146C46.2071 88.4906 45.8293 88.3786 45.3725 88.3786H43.8175V90.9614ZM65.6204 92.2529C65.6204 93.7552 65.3283 95.0225 64.7441 96.0547C64.1599 97.0826 63.3714 97.8623 62.3787 98.3938C61.3859 98.9209 60.279 99.1845 59.0578 99.1845C57.8279 99.1845 56.7165 98.9187 55.7238 98.3872C54.7354 97.8513 53.9492 97.0694 53.3649 96.0415C52.7851 95.0093 52.4952 93.7464 52.4952 92.2529C52.4952 90.7506 52.7851 89.4855 53.3649 88.4576C53.9492 87.4254 54.7354 86.6457 55.7238 86.1185C56.7165 85.587 57.8279 85.3213 59.0578 85.3213C60.279 85.3213 61.3859 85.587 62.3787 86.1185C63.3714 86.6457 64.1599 87.4254 64.7441 88.4576C65.3283 89.4855 65.6204 90.7506 65.6204 92.2529ZM61.8515 92.2529C61.8515 91.4446 61.7439 90.7638 61.5287 90.2103C61.3178 89.6524 61.0038 89.2307 60.5865 88.9452C60.1735 88.6553 59.664 88.5103 59.0578 88.5103C58.4516 88.5103 57.9399 88.6553 57.5226 88.9452C57.1097 89.2307 56.7956 89.6524 56.5804 90.2103C56.3695 90.7638 56.2641 91.4446 56.2641 92.2529C56.2641 93.0611 56.3695 93.7442 56.5804 94.3021C56.7956 94.8555 57.1097 95.2772 57.5226 95.5671C57.9399 95.8527 58.4516 95.9954 59.0578 95.9954C59.664 95.9954 60.1735 95.8527 60.5865 95.5671C61.0038 95.2772 61.3178 94.8555 61.5287 94.3021C61.7439 93.7442 61.8515 93.0611 61.8515 92.2529ZM67.3155 99V85.5058H70.9789V90.9614H71.1634L75.2222 85.5058H79.4919L74.9323 91.5149L79.5973 99H75.2222L72.1913 93.9397L70.9789 95.521V99H67.3155Z" fill="white"/>
    <defs>
        <clipPath id="clip0_46100_55724">
            <rect width="68" height="68" fill="white" transform="translate(5)"/>
        </clipPath>
    </defs>
</svg>
