<svg width="50" height="50" viewBox="0 0 50 50" fill="none" xmlns="http://www.w3.org/2000/svg">
<path fill-rule="evenodd" clip-rule="evenodd" d="M26.4062 3.5625C22.4694 3.5625 18.6939 5.12639 15.9101 7.91013C13.1264 10.6939 11.5625 14.4694 11.5625 18.4062C11.5625 22.3431 13.1264 26.1186 15.9101 28.9024C18.6939 31.6861 22.4694 33.25 26.4062 33.25C30.3431 33.25 34.1186 31.6861 36.9024 28.9024C39.6861 26.1186 41.25 22.3431 41.25 18.4062C41.25 14.4694 39.6861 10.6939 36.9024 7.91013C34.1186 5.12639 30.3431 3.5625 26.4062 3.5625ZM10 18.4062C10 9.34531 17.3453 2 26.4062 2C35.4672 2 42.8125 9.34531 42.8125 18.4062C42.8125 27.4672 35.4672 34.8125 26.4062 34.8125C17.3453 34.8125 10 27.4672 10 18.4062Z" fill="white"/>
<path fill-rule="evenodd" clip-rule="evenodd" d="M26.4063 9.8125C24.127 9.8125 21.9412 10.7179 20.3296 12.3296C18.7179 13.9412 17.8125 16.127 17.8125 18.4062C17.8125 20.6855 18.7179 22.8713 20.3296 24.483C21.9412 26.0946 24.127 27 26.4063 27C28.6855 27 30.8713 26.0946 32.483 24.483C34.0946 22.8713 35 20.6855 35 18.4062C35 16.127 34.0946 13.9412 32.483 12.3296C30.8713 10.7179 28.6855 9.8125 26.4063 9.8125ZM16.25 18.4062C16.25 15.7126 17.32 13.1294 19.2247 11.2247C21.1294 9.32003 23.7126 8.25 26.4063 8.25C29.0999 8.25 31.6831 9.32003 33.5878 11.2247C35.4925 13.1294 36.5625 15.7126 36.5625 18.4062C36.5625 21.0999 35.4925 23.6831 33.5878 25.5878C31.6831 27.4925 29.0999 28.5625 26.4063 28.5625C23.7126 28.5625 21.1294 27.4925 19.2247 25.5878C17.32 23.6831 16.25 21.0999 16.25 18.4062ZM17.0313 30.125C17.2385 30.125 17.4372 30.2073 17.5837 30.3538C17.7302 30.5003 17.8125 30.699 17.8125 30.9062V45.2672L26.0563 41.1453C26.1649 41.0909 26.2847 41.0625 26.4063 41.0625C26.5278 41.0625 26.6476 41.0909 26.7563 41.1453L35 45.2656V30.9062C35 30.699 35.0823 30.5003 35.2288 30.3538C35.3753 30.2073 35.5741 30.125 35.7813 30.125C35.9885 30.125 36.1872 30.2073 36.3337 30.3538C36.4802 30.5003 36.5625 30.699 36.5625 30.9062V46.5312C36.5625 46.6645 36.5284 46.7955 36.4635 46.9118C36.3986 47.0282 36.305 47.126 36.1917 47.196C36.0783 47.266 35.9489 47.3058 35.8158 47.3117C35.6828 47.3176 35.5504 47.2894 35.4312 47.2297L26.4063 42.7188L17.3813 47.2313C17.262 47.291 17.1295 47.3192 16.9963 47.3133C16.863 47.3073 16.7336 47.2673 16.6202 47.1971C16.5068 47.127 16.4132 47.0289 16.3484 46.9124C16.2836 46.7958 16.2497 46.6646 16.25 46.5312V30.9062C16.25 30.699 16.3323 30.5003 16.4788 30.3538C16.6253 30.2073 16.8241 30.125 17.0313 30.125Z" fill="white"/>
</svg>
