<svg width="100%" height="100%" viewBox="0 0 80 80" fill="none" xmlns="http://www.w3.org/2000/svg">
<path d="M33.3327 19.9998V27.3332C33.3327 32.8572 37.8087 37.3332 43.3327 37.3332C48.8567 37.3332 53.3327 32.8572 53.3327 27.3332V16.1252C53.3327 11.6385 49.694 7.99984 45.2073 7.99984H43.9993C37.3327 7.99984 34.666 2.6665 34.666 2.6665C34.666 2.6665 30.666 5.33317 30.666 9.33317C30.666 13.3332 33.3327 17.3332 39.9993 17.3332" stroke="white" stroke-width="2" stroke-miterlimit="10"/>
<path d="M33.333 21.3329V15.2876" stroke="white" stroke-width="2" stroke-miterlimit="10"/>
<path d="M66.666 79.9998V60.1772C66.666 55.1412 63.9007 50.5105 59.4674 48.1238L49.3327 42.6665L47.3047 36.5132" stroke="white" stroke-width="2" stroke-miterlimit="10"/>
<path d="M57.333 64V80" stroke="white" stroke-width="2" stroke-miterlimit="10"/>
<path d="M39.3605 36.5132L37.5 42.5" stroke="white" stroke-width="2" stroke-miterlimit="10"/>
<path d="M38 42L30.6663 46.256L17.2943 43.4133L26.0077 30.1987C26.4237 29.568 26.6663 28.812 26.6663 28C26.6663 25.7907 24.8743 24 22.6663 24C21.357 24 20.1943 24.6293 19.4637 25.6013L6.26367 43.2027C5.67967 43.9813 5.33301 44.9507 5.33301 46C5.33301 47.7013 5.89301 49.2133 7.89034 50.1333L23.5437 57.336C27.073 58.96 29.333 62.488 29.333 66.3733V80" stroke="white" stroke-width="2" stroke-miterlimit="10"/>
<path d="M22.7184 23.9999L21.5437 21.6506C21.0544 20.6679 21.4464 19.4692 22.4184 18.9746L25.2304 17.5452C26.2024 17.0519 27.3864 17.4479 27.8757 18.4306L33.7877 30.3226" stroke="white" stroke-width="2" stroke-miterlimit="10"/>
<path d="M35.1841 33.1307L35.7894 34.3494C36.2787 35.332 35.8854 36.5307 34.9147 37.0254L32.1027 38.4547C31.1307 38.948 29.9454 38.5521 29.4574 37.5694L25.8867 30.3867" stroke="white" stroke-width="2" stroke-miterlimit="10"/>
</svg>
