<?xml version="1.0" encoding="UTF-8"?>
<svg width="80px" height="80px" viewBox="0 0 80 80" version="1.1" xmlns="http://www.w3.org/2000/svg" xmlns:xlink="http://www.w3.org/1999/xlink">
    <!-- Generator: Sketch 46.2 (44496) - http://www.bohemiancoding.com/sketch -->
    <title>devices</title>
    <desc>Created with Sketch.</desc>
    <defs></defs>
    <g id="Page-1" stroke="none" stroke-width="1" fill="none" fill-rule="evenodd">
        <g id="Adoric-case" transform="translate(-556.000000, -6900.000000)" fill-rule="nonzero" fill="#006AEF">
            <g id="User-flow" transform="translate(0.000000, 6435.000000)">
                <g id="devices" transform="translate(556.000000, 465.000000)">
                    <circle id="Oval" cx="40" cy="60.8407812" r="1.2765625"></circle>
                    <path d="M73.6170312,8.510625 L60.4254688,8.510625 C59.7204688,8.510625 59.1489062,9.0821875 59.1489062,9.7871875 C59.1489062,10.4921875 59.7204688,11.06375 60.4254688,11.06375 L73.6170312,11.06375 C75.7289063,11.06375 77.446875,12.7817187 77.446875,14.8935937 L77.446875,54.468125 L2.553125,54.468125 L2.553125,14.8935937 C2.553125,12.7817187 4.27109375,11.06375 6.38296875,11.06375 L19.5745313,11.06375 C20.2795312,11.06375 20.8510938,10.4921875 20.8510938,9.7871875 C20.8510938,9.0821875 20.2795313,8.510625 19.5745313,8.510625 L6.38296875,8.510625 C2.86328125,8.510625 0,11.3739062 0,14.8935937 L0,60.8510937 C0,64.3707812 2.86328125,67.2340625 6.38296875,67.2340625 L46.3829688,67.2340625 L46.3829688,73.6170312 C46.3829688,75.0529687 46.8596875,76.3792188 47.6629687,77.446875 L32.3370313,77.446875 C33.1403125,76.379375 33.6170313,75.0529687 33.6170313,73.6170312 L33.6170313,71.0639063 C33.6170313,70.3589062 33.0454688,69.7873437 32.3404687,69.7873437 C31.6354688,69.7873437 31.0639063,70.3589062 31.0639063,71.0639063 L31.0639063,73.6170312 C31.0639063,75.7289062 29.3459375,77.446875 27.2340625,77.446875 L15.3189063,77.446875 C14.6139062,77.446875 14.0423438,78.0184375 14.0423438,78.7234375 C14.0423438,79.4284375 14.6139062,80 15.3189063,80 L64.680625,80 C65.385625,80 65.9571875,79.4284375 65.9571875,78.7234375 C65.9571875,78.0184375 65.385625,77.446875 64.680625,77.446875 L52.7659375,77.446875 C50.6540625,77.446875 48.9360938,75.7289062 48.9360938,73.6170312 L48.9360938,67.2340625 L73.616875,67.2340625 C77.1365625,67.2340625 79.9998437,64.3707812 79.9998437,60.8510937 L79.9998437,14.8935937 C80,11.3739062 77.1367188,8.510625 73.6170312,8.510625 Z M77.446875,60.8510937 C77.446875,62.9629688 75.7289063,64.6809375 73.6170312,64.6809375 L6.38296875,64.6809375 C4.27109375,64.6809375 2.553125,62.9629688 2.553125,60.8510937 L2.553125,57.02125 L77.446875,57.02125 L77.446875,60.8510937 Z" id="Shape"></path>
                    <path d="M50.2128125,0 L29.7871875,0 C26.2675,0 23.4042187,2.86328125 23.4042187,6.38296875 L23.4042187,45.531875 C23.4042187,49.0515625 26.2675,51.9148437 29.7871875,51.9148437 L50.2126562,51.9148437 C53.7323437,51.9148437 56.595625,49.0515625 56.595625,45.531875 L56.595625,6.38296875 C56.5957813,2.86328125 53.7325,0 50.2128125,0 Z M54.0425,45.531875 C54.0425,47.64375 52.3245312,49.3617187 50.2126562,49.3617187 L29.7871875,49.3617187 C27.6753125,49.3617187 25.9573437,47.64375 25.9573437,45.531875 L25.9573437,43.4042187 L54.0425,43.4042187 L54.0425,45.531875 Z M54.0425,8.510625 L34.8935937,8.510625 C34.1885937,8.510625 33.6170312,9.0821875 33.6170312,9.7871875 C33.6170312,10.4921875 34.1885937,11.06375 34.8935937,11.06375 L54.0425,11.06375 L54.0425,40.8509375 L25.9575,40.8509375 L25.9575,11.0639062 L29.7873437,11.0639062 C30.4923437,11.0639062 31.0639062,10.4923437 31.0639062,9.78734375 C31.0639062,9.08234375 30.4923437,8.51078125 29.7873437,8.51078125 L25.9575,8.51078125 L25.9575,6.38296875 C25.9575,4.27109375 27.6754687,2.553125 29.7873437,2.553125 L50.2128125,2.553125 C52.3246875,2.553125 54.0426562,4.27109375 54.0426562,6.38296875 L54.0426562,8.510625 L54.0425,8.510625 Z" id="Shape"></path>
                </g>
            </g>
        </g>
    </g>
</svg>
