<?xml version="1.0" encoding="UTF-8"?>
<svg width="80px" height="57px" viewBox="0 0 80 57" version="1.1" xmlns="http://www.w3.org/2000/svg" xmlns:xlink="http://www.w3.org/1999/xlink">
    <!-- Generator: Sketch 46.2 (44496) - http://www.bohemiancoding.com/sketch -->
    <title>email</title>
    <desc>Created with Sketch.</desc>
    <defs></defs>
    <g id="Page-1" stroke="none" stroke-width="1" fill="none" fill-rule="evenodd">
        <g id="Adoric-case" transform="translate(-806.000000, -7163.000000)" fill-rule="nonzero" fill="#006AEF">
            <g id="User-flow" transform="translate(0.000000, 6435.000000)">
                <g id="email" transform="translate(806.000000, 728.000000)">
                    <path d="M78.5542188,0 L1.44578125,0 C0.64734375,0 0,0.648852046 0,1.44914989 L0,55.5508501 C0,56.3336072 0.61953125,56.9696169 1.39375,56.9973376 C1.40875,56.9990603 1.42578125,57 1.44578125,57 L78.5542188,57 C79.3528125,57 80,56.351148 80,55.5508501 L80,1.44914989 C80,0.648852046 79.3528125,0 78.5542188,0 Z M75.0639063,2.89829978 L40,38.0439041 L4.93609375,2.89829978 L75.0639063,2.89829978 Z M77.1084375,52.0522486 L58.371875,33.2720304 C57.8070312,32.7060272 56.8917188,32.7060272 56.3271875,33.2720304 C55.7625,33.8380336 55.7625,34.7556354 56.3271875,35.3213253 L75.0639063,54.1017002 L4.93609375,54.1017002 L23.6728125,35.3213253 C24.2375,34.7553221 24.2375,33.8377204 23.6728125,33.2720304 C23.108125,32.7060272 22.1926562,32.7060272 21.6282813,33.2720304 L2.8915625,52.0524053 L2.8915625,4.94759474 L38.9776563,41.1177683 C39.2598438,41.4006133 39.63,41.542349 39.9998438,41.542349 C40.3698438,41.542349 40.7398437,41.4009265 41.0223437,41.1177683 L77.1082813,4.94775135 L77.1082813,52.0522486 L77.1084375,52.0522486 Z" id="Shape"></path>
                </g>
            </g>
        </g>
    </g>
</svg>
