<?xml version="1.0" encoding="UTF-8"?>
<svg width="82px" height="80px" viewBox="0 0 82 80" version="1.1" xmlns="http://www.w3.org/2000/svg" xmlns:xlink="http://www.w3.org/1999/xlink">
    <!-- Generator: Sketch 46.2 (44496) - http://www.bohemiancoding.com/sketch -->
    <title>image</title>
    <desc>Created with Sketch.</desc>
    <defs></defs>
    <g id="Page-1" stroke="none" stroke-width="1" fill="none" fill-rule="evenodd">
        <g id="Adoric-case" transform="translate(-1059.000000, -7163.000000)" fill-rule="nonzero" fill="#006AEF">
            <g id="User-flow" transform="translate(0.000000, 6435.000000)">
                <g id="image" transform="translate(1059.000000, 728.000000)">
                    <path d="M55.3447251,8.65590361 C50.0439766,8.65590361 45.7315439,12.9898795 45.7315439,18.3171084 C45.7315439,23.6443373 50.0439766,27.9783133 55.3447251,27.9783133 C60.6454737,27.9783133 64.9579064,23.6443373 64.9579064,18.3171084 C64.9579064,12.9898795 60.6454737,8.65590361 55.3447251,8.65590361 Z M55.3447251,24.8949398 C51.7356062,24.8949398 48.7995906,21.9440964 48.7995906,18.3171084 C48.7995906,14.6901205 51.7359259,11.7392771 55.3447251,11.7392771 C58.9538441,11.7392771 61.8898596,14.6901205 61.8898596,18.3171084 C61.8898596,21.9440964 58.9536842,24.8949398 55.3447251,24.8949398 Z" id="Shape"></path>
                    <path d="M77.8562027,44.4483534 L77.8562027,1.66682731 C77.8562027,0.815421687 77.1695127,0.125140562 76.3221793,0.125140562 L1.53402339,0.125140562 C0.686849903,0.125140562 0,0.815421687 0,1.66682731 L0,54.7985542 C0,55.6499598 0.686849903,56.340241 1.53402339,56.340241 L3.14573099,56.340241 L49.5497388,56.340241 C49.7911033,59.6069076 51.0055984,62.8128514 53.1978596,65.4763052 L41.4896023,77.2432129 C40.8905068,77.8453012 40.8905068,78.8215261 41.4896023,79.4232932 C41.7893099,79.7241767 42.1818869,79.8748594 42.5744639,79.8748594 C42.9670409,79.8748594 43.3596179,79.7243373 43.6593255,79.4232932 L55.3675828,67.6565462 C58.3457973,70.1325301 62.0055867,71.3726908 65.666655,71.3726908 C69.8083743,71.3726908 73.9502534,69.7882731 77.1033372,66.6194378 C80.158117,63.5493976 81.8404756,59.4676305 81.8404756,55.1256225 C81.8401559,51.1572691 80.4306511,47.4083534 77.8562027,44.4483534 Z M3.06804678,52.5924498 L3.06804678,3.20851406 L74.7881559,3.20851406 L74.7881559,41.7063454 C70.455423,38.7294779 64.9935517,38.1052209 60.1870409,39.8366265 L52.0767135,30.8674699 C51.7857973,30.5460241 51.3735595,30.3625703 50.9413411,30.3625703 C50.5091228,30.3625703 50.096885,30.5458635 49.8059688,30.8674699 L44.0899454,37.1884337 L31.6793333,23.4676305 C31.3887368,23.1463454 30.9763392,22.9630522 30.5441209,22.9630522 C30.1119025,22.9630522 29.6998246,23.1463454 29.4089084,23.4679518 L3.06804678,52.5924498 Z M49.6111189,53.2568675 L6.61322807,53.2568675 L30.5444405,26.7969478 L50.6681676,49.0451406 C50.1251774,50.4035341 49.7751189,51.8212048 49.6111189,53.2568675 Z M46.1634425,39.4804819 L50.9416608,34.1966265 L57.293384,41.2208835 C56.2021287,41.884498 55.1712943,42.6861044 54.2299727,43.6321285 C53.4531306,44.4128514 52.7729942,45.2544578 52.1876452,46.1407229 L46.1634425,39.4804819 Z M74.933614,64.4391968 C72.3785068,67.0072289 69.0230604,68.2910843 65.6664951,68.2907631 C62.3108889,68.2906024 58.9540039,67.0064257 56.3993762,64.4391968 C51.2896413,59.3037751 51.2896413,50.9477912 56.3993762,45.8123695 C58.9541637,43.2448193 62.3102495,41.9608032 65.6664951,41.9608032 C69.0227407,41.9608032 72.3785068,43.2446586 74.933614,45.8123695 C77.4091189,48.3000803 78.7724288,51.6077108 78.7724288,55.1257831 C78.7721092,58.6438554 77.4087992,61.9514859 74.933614,64.4391968 Z" id="Shape"></path>
                    <path d="M73.4875049,47.2660241 C71.3983431,45.1665863 68.6208928,44.0104418 65.666655,44.0104418 C62.7124172,44.0104418 59.9349669,45.166747 57.8458051,47.2660241 C55.7568031,49.3654618 54.6064055,52.1569478 54.6064055,55.1259438 C54.6064055,58.0949398 55.756963,60.8862651 57.8458051,62.9857028 C59.9349669,65.0853012 62.712577,66.2416064 65.666655,66.2416064 C68.6207329,66.2416064 71.3983431,65.0853012 73.4875049,62.9857028 C77.7997778,58.6518876 77.7997778,51.5998394 73.4875049,47.2660241 Z M57.6741326,55.1259438 C57.6741326,53.5399197 58.1296881,52.0248996 58.9763821,50.7293173 L65.1225458,57.6817671 L58.0876491,57.6817671 C57.817193,56.8685944 57.6741326,56.0085141 57.6741326,55.1259438 Z M71.3176218,60.8056225 C69.8083743,62.3227309 67.8012125,63.1582329 65.6664951,63.1582329 C63.5317778,63.1582329 61.524616,62.3225703 60.0152086,60.8056225 C60.0021014,60.7924498 59.9897934,60.7784739 59.9766862,60.7651406 L71.3558246,60.7651406 C71.3427173,60.7784739 71.330729,60.7922892 71.3176218,60.8056225 Z M73.240386,57.6814458 L69.2263821,57.6814458 L61.1243665,48.5166265 C62.4496335,47.5926104 64.0193021,47.093494 65.6664951,47.093494 C67.8015322,47.0936546 69.8083743,47.9291566 71.3177817,49.4461044 C73.5305029,51.6698795 74.1701988,54.8836948 73.240386,57.6814458 Z" id="Shape"></path>
                </g>
            </g>
        </g>
    </g>
</svg>
