<?xml version="1.0" encoding="UTF-8"?>
<svg width="80px" height="80px" viewBox="0 0 80 80" version="1.1" xmlns="http://www.w3.org/2000/svg" xmlns:xlink="http://www.w3.org/1999/xlink">
    <!-- Generator: Sketch 46.2 (44496) - http://www.bohemiancoding.com/sketch -->
    <title>line-graph</title>
    <desc>Created with Sketch.</desc>
    <defs></defs>
    <g id="Page-1" stroke="none" stroke-width="1" fill="none" fill-rule="evenodd">
        <g id="Adoric-case" transform="translate(-1060.000000, -6907.000000)" fill-rule="nonzero" fill="#006AEF">
            <g id="User-flow" transform="translate(0.000000, 6435.000000)">
                <g id="line-graph" transform="translate(1060.000000, 472.000000)">
                    <path d="M78.4064063,72.9651765 L9.55375,72.9651765 L18.2425,63.2596078 C19.0054688,63.6657255 19.8746875,63.8967843 20.796875,63.8967843 C22.9196875,63.8967843 24.7628125,62.6762353 25.67,60.8983529 L34.5478125,63.1488627 C34.7826562,65.9626667 37.1375,68.1807059 40.0001563,68.1807059 C43.0179688,68.1807059 45.473125,65.7159216 45.473125,62.6862745 C45.473125,61.0155294 44.725625,59.5174902 43.5496875,58.5090196 L50.7895312,41.1378824 L55.9453125,54.3367843 C54.7129687,55.3452549 53.9240625,56.88 53.9240625,58.5967059 C53.9240625,61.6263529 56.379375,64.0911373 59.3971875,64.0911373 C62.415,64.0911373 64.8701563,61.6263529 64.8701563,58.5967059 C64.8701563,57.9777255 64.7660937,57.382902 64.5771875,56.8272941 L70.90125,50.4781176 C71.5235938,49.8533333 71.5235938,48.8403137 70.90125,48.2153725 C70.2789063,47.5907451 69.2698438,47.5907451 68.6475,48.2153725 L62.6815625,54.2047059 C61.7660938,53.5127843 60.6282813,53.1021176 59.3967187,53.1021176 C59.2276563,53.1021176 59.060625,53.110902 58.8953125,53.1261176 L52.5560937,36.8975686 L58.924375,21.6177255 C59.0801563,21.6312157 59.2373437,21.6395294 59.3965625,21.6395294 C61.9307812,21.6395294 64.0673437,19.9013333 64.6873437,17.5501176 L74.7201562,17.5501176 C75.6003125,17.5501176 76.31375,16.8337255 76.31375,15.9502745 C76.31375,15.0668235 75.6003125,14.3504314 74.7201562,14.3504314 L64.5684375,14.3504314 C63.8257812,12.1995294 61.78875,10.6503529 59.3967187,10.6503529 C56.3789062,10.6503529 53.9235937,13.1151373 53.9235937,16.1449412 C53.9235937,17.8721569 54.7223437,19.4147451 55.9675,20.422902 L50.8846875,32.6183529 L43.4596875,13.6101961 C44.5753125,12.6036078 45.2785937,11.1447843 45.2785937,9.52376471 C45.2785937,6.49396078 42.8232813,4.02917647 39.8054687,4.02917647 C36.7876562,4.02917647 34.3328125,6.49396078 34.3328125,9.52376471 C34.3328125,10.8345098 34.793125,12.0392157 35.5589063,12.9846275 L22.4214063,32.968 C21.8520313,32.7659608 21.24,32.654902 20.6026563,32.654902 C19.94875,32.654902 19.3215625,32.7709804 18.7398438,32.9830588 L7.45453125,18.0756078 L7.45453125,1.73521569 C7.45453125,0.851764706 6.74109375,0.135372549 5.8609375,0.135372549 C4.98078125,0.135372549 4.2671875,0.851764706 4.2671875,1.73521569 L4.2671875,17.4665098 L1.59359375,17.4665098 C0.7134375,17.4663529 0,18.182902 0,19.0663529 C0,19.9498039 0.7134375,20.6661961 1.59359375,20.6661961 L4.26734375,20.6661961 L4.26734375,36.7449412 L1.59359375,36.7449412 C0.7134375,36.7449412 0,37.4613333 0,38.3447843 C0,39.2282353 0.7134375,39.9446275 1.59359375,39.9446275 L4.26734375,39.9446275 L4.26734375,56.4130196 L1.59359375,56.4130196 C0.7134375,56.4130196 0,57.1294118 0,58.0128627 C0,58.8963137 0.7134375,59.6127059 1.59359375,59.6127059 L4.26734375,59.6127059 L4.26734375,74.5650196 C4.26734375,75.4484706 4.98078125,76.1648627 5.8609375,76.1648627 L19.5910938,76.1648627 L19.5910938,78.2647843 C19.5910938,79.1482353 20.3045313,79.8646275 21.1846875,79.8646275 C22.0648438,79.8646275 22.7782813,79.1482353 22.7782813,78.2647843 L22.7782813,76.1648627 L38.7942188,76.1648627 L38.7942188,78.2647843 C38.7942188,79.1482353 39.5076563,79.8646275 40.3878125,79.8646275 C41.2679688,79.8646275 41.9814063,79.1482353 41.9814063,78.2647843 L41.9814063,76.1648627 L58.3851563,76.1648627 L58.3851563,78.2647843 C58.3851563,79.1482353 59.0985937,79.8646275 59.97875,79.8646275 C60.8589063,79.8646275 61.5723438,79.1482353 61.5723438,78.2647843 L61.5723438,76.1648627 L78.4059375,76.1648627 C79.2860938,76.1648627 79.9995313,75.4484706 79.9995313,74.5650196 C79.9995313,73.6815686 79.2865625,72.9651765 78.4064063,72.9651765 Z M59.3973437,56.3021176 C60.6575,56.3021176 61.683125,57.3316078 61.683125,58.5970196 C61.683125,59.8621176 60.6576562,60.8917647 59.3973437,60.8917647 C58.136875,60.8917647 57.1114062,59.8622745 57.1114062,58.5970196 C57.1114062,57.3316078 58.136875,56.3021176 59.3973437,56.3021176 Z M59.3971875,13.8505098 C60.6576562,13.8505098 61.6829687,14.88 61.6829687,16.1454118 C61.6829687,17.4108235 60.6575,18.4403137 59.3971875,18.4403137 C58.1367187,18.4403137 57.11125,17.4108235 57.11125,16.1454118 C57.11125,14.88 58.1367187,13.8505098 59.3971875,13.8505098 Z M20.796875,60.6969412 C19.5364063,60.6969412 18.5110938,59.667451 18.5110938,58.4020392 C18.5110938,57.1367843 19.5365625,56.1072941 20.796875,56.1072941 C22.0571875,56.1072941 23.0826563,57.1367843 23.0826563,58.4020392 C23.0825,59.6676078 22.0571875,60.6969412 20.796875,60.6969412 Z M40,64.9810196 C38.7395312,64.9810196 37.7142188,63.9515294 37.7142188,62.6862745 C37.7142188,61.4208627 38.7396875,60.3913725 40,60.3913725 C41.2603125,60.3913725 42.2857812,61.4208627 42.2857812,62.6862745 C42.2857812,63.9515294 41.2604688,64.9810196 40,64.9810196 Z M39.8060938,7.22964706 C41.0665625,7.22964706 42.0920313,8.25913725 42.0920313,9.52454902 C42.0920313,10.7899608 41.0665625,11.819451 39.8060938,11.819451 C38.545625,11.819451 37.5203125,10.7899608 37.5203125,9.52454902 C37.5203125,8.25913725 38.545625,7.22964706 39.8060938,7.22964706 Z M20.6026563,35.8553725 C21.8632813,35.8553725 22.8885938,36.8847059 22.8885938,38.1501176 C22.8885938,39.4155294 21.863125,40.4450196 20.6026563,40.4450196 C19.3421875,40.4450196 18.316875,39.4155294 18.316875,38.1501176 C18.3170312,36.8848627 19.3425,35.8553725 20.6026563,35.8553725 Z M7.4546875,23.3643922 L16.190625,34.9041569 C15.5245312,35.8142745 15.1298437,36.9366275 15.1298437,38.1499608 C15.1298437,41.1797647 17.585,43.644549 20.6028125,43.644549 C23.620625,43.644549 26.0759375,41.1797647 26.0759375,38.1499608 C26.0759375,36.9214118 25.6721875,35.7858824 24.9907812,34.8698039 L38.2,14.7772549 C38.708125,14.9341176 39.2473437,15.0189804 39.8059375,15.0189804 C40.06375,15.0189804 40.3171875,14.9996863 40.565625,14.9648627 L49.1179687,36.8588235 L40.6279687,57.2290196 C40.4217187,57.2053333 40.2123437,57.1916863 39.9998437,57.1916863 C37.9459375,57.1916863 36.1534375,58.3339608 35.2175,60.0185098 L26.2284375,57.7396078 C25.9014062,55.0214902 23.5909375,52.907451 20.7965625,52.907451 C17.77875,52.907451 15.3235937,55.3722353 15.3235937,58.4018824 C15.3235937,59.3422745 15.5604687,60.2280784 15.9770312,61.0028235 L7.4546875,70.5228235 L7.4546875,23.3643922 Z" id="Shape"></path>
                    <path d="M76.3326562,42.5686275 C75.7103125,41.9438431 74.70125,41.9438431 74.0789063,42.5686275 L72.8179688,43.8345098 C72.195625,44.459451 72.195625,45.4723137 72.8179688,46.0972549 C73.1292188,46.4095686 73.5370313,46.5658039 73.9448438,46.5658039 C74.3526563,46.5658039 74.760625,46.4095686 75.0717188,46.0972549 L76.3326562,44.8313725 C76.9548438,44.2064314 76.9548438,43.1935686 76.3326562,42.5686275 Z" id="Shape"></path>
                </g>
            </g>
        </g>
    </g>
</svg>
