<?xml version="1.0" encoding="UTF-8"?>
<svg width="48px" height="48px" viewBox="0 0 48 48" version="1.1" xmlns="http://www.w3.org/2000/svg" xmlns:xlink="http://www.w3.org/1999/xlink">
    <!-- Generator: Sketch 51.2 (57519) - http://www.bohemiancoding.com/sketch -->
    <title>round-done-button</title>
    <desc>Created with Sketch.</desc>
    <defs></defs>
    <g id="Page-1" stroke="none" stroke-width="1" fill="none" fill-rule="evenodd">
        <g id="Blog-inside" transform="translate(-696.000000, -5707.000000)" fill="#FFFFFF" fill-rule="nonzero">
            <g id="subscribe-block---thanks" transform="translate(0.000000, 5579.000000)">
                <g id="round-done-button" transform="translate(696.000000, 128.000000)">
                    <path d="M23.99952,0 C10.76556,0 0,10.7664 0,24 C0,37.2336 10.76556,48 23.99952,48 C37.23348,48 48,37.2336 48,24 C48,10.7664 37.23348,0 23.99952,0 Z M23.99952,44.8524 C12.5016,44.8524 3.1476,35.49792 3.1476,24 C3.1476,12.50196 12.50148,3.14772 23.99952,3.14772 C35.49756,3.14772 44.85204,12.50208 44.85204,24 C44.85216,35.49792 35.49744,44.8524 23.99952,44.8524 Z" id="Shape"></path>
                    <path d="M32.68872,16.14312 L20.313,28.51824 L15.31032,23.51664 C14.69556,22.9026 13.69968,22.90224 13.08492,23.517 C12.46992,24.132 12.46992,25.128 13.08492,25.74276 L19.20048,31.85736 C19.5078,32.16432 19.9104,32.31792 20.313,32.31792 C20.7156,32.31792 21.11928,32.16432 21.42648,31.85688 C21.42744,31.85556 21.42816,31.85424 21.42972,31.85268 L34.914,18.36852 C35.529,17.75412 35.529,16.7574 34.914,16.143 C34.29936,15.52824 33.30276,15.52824 32.68872,16.14312 Z" id="Shape"></path>
                </g>
            </g>
        </g>
    </g>
</svg>