<?xml version="1.0" encoding="UTF-8"?>
<svg width="80px" height="80px" viewBox="0 0 80 80" version="1.1" xmlns="http://www.w3.org/2000/svg" xmlns:xlink="http://www.w3.org/1999/xlink">
    <!-- Generator: Sketch 46.2 (44496) - http://www.bohemiancoding.com/sketch -->
    <title>ruler</title>
    <desc>Created with Sketch.</desc>
    <defs></defs>
    <g id="Page-1" stroke="none" stroke-width="1" fill="none" fill-rule="evenodd">
        <g id="Adoric-case" transform="translate(-805.000000, -6899.000000)" fill-rule="nonzero" fill="#006AEF">
            <g id="User-flow" transform="translate(0.000000, 6435.000000)">
                <g id="ruler" transform="translate(805.000000, 464.000000)">
                    <path d="M61.9990625,77.4145312 L4.01765625,77.4271875 C3.11140625,77.4271875 2.3740625,76.6903125 2.3740625,75.784375 L2.3740625,19.1870313 C2.3740625,18.5314062 1.84265625,18 1.18703125,18 C0.53140625,18 0,18.5315625 0,19.1870313 L0,75.784375 C-0.00015625,77.999375 1.8021875,79.8014062 4.01796875,79.8014062 L61.9996875,79.78875 C62.6553125,79.7885937 63.1865625,79.2570312 63.1864062,78.6015625 C63.18625,77.9457812 62.6546875,77.414375 61.9990625,77.4145312 Z" id="Shape"></path>
                    <path d="M78.7834375,73.1271875 L6.85796875,1.1825 C6.095625,0.42 5.0940625,0 4.0375,0 C1.81125,0 0,1.80453125 0,4.02265625 L0,14.6371875 C0,15.2928125 0.53140625,15.8242187 1.18703125,15.8242187 C1.8428125,15.8242187 2.3740625,15.2926562 2.3740625,14.6371875 L2.3740625,4.02265625 C2.3740625,2.99078125 3.21953125,2.37421875 4.03734375,2.37421875 C4.3359375,2.37421875 4.7765625,2.45875 5.17890625,2.86125 L7.45109375,5.13421875 L4.2328125,8.3403125 C3.4859375,9.084375 4.01625,10.3682812 5.070625,10.3682812 C5.92671875,10.3682812 6.01109375,9.765 9.13,6.81296875 L12.9096875,10.59375 L11.6504687,11.8332812 C11.1832813,12.2932812 11.1771875,13.0446875 11.6371875,13.5120312 C12.095625,13.9778125 12.8471875,13.9867187 13.3157812,13.5253125 L14.5882812,12.2728125 L18.3765625,16.0620313 L15.1595313,19.266875 C14.695,19.7295312 14.69375,20.48125 15.15625,20.945625 C15.6189063,21.41 16.370625,21.4117187 16.835,20.9489062 L20.055,17.7410937 L23.8348438,21.521875 L22.5770312,22.76 C22.1098437,23.22 22.10375,23.9714062 22.56375,24.43875 C23.0221875,24.9045312 23.77375,24.9134375 24.2423437,24.4520312 L25.5132812,23.2009375 L29.3015625,26.9903125 L26.0859375,30.1935937 C25.6214062,30.65625 25.6201563,31.4079687 26.0826563,31.8723437 C26.544375,32.3360937 27.29625,32.3390625 27.7614063,31.875625 L30.98,28.669375 L34.7596875,32.45 L33.5034375,33.6867187 C33.0364062,34.1467187 33.0303125,34.898125 33.4903125,35.3654687 C33.9501562,35.8326562 34.7015625,35.83875 35.1690625,35.37875 L36.4384375,34.1292187 L40.2267188,37.9184375 L37.0125,41.1203125 C36.5479687,41.5829687 36.5467187,42.3346875 37.0092187,42.7990625 C37.4709375,43.2628125 38.2228125,43.2657812 38.6879687,42.8023437 L41.9051563,39.5975 L45.6848437,43.3782813 L44.4301563,44.6132812 C43.9629688,45.0732812 43.956875,45.8246875 44.416875,46.2920313 C44.8764063,46.75875 45.6278125,46.765625 46.095625,46.3053125 L47.3634375,45.0573437 L51.1517188,48.8465625 L47.9389063,52.046875 C47.474375,52.5095313 47.473125,53.26125 47.935625,53.725625 C48.3973437,54.189375 49.1492187,54.1923438 49.614375,53.7289063 L52.8301562,50.525625 L56.6098437,54.30625 L55.3565625,55.5398438 C54.8895312,55.9998438 54.8834375,56.75125 55.3434375,57.2185938 C55.8032812,57.6857813 56.5546875,57.691875 57.0221875,57.231875 L58.2885937,55.9853125 L62.1001562,59.7978125 L58.88875,62.9967187 C58.4242187,63.459375 58.4229687,64.2110938 58.8854687,64.6754687 C59.3471875,65.1392187 60.0990625,65.1421875 60.5642187,64.67875 L63.7785937,61.476875 L67.5582812,65.2576562 L66.3065625,66.4898438 C65.839375,66.9498437 65.8332812,67.70125 66.2932812,68.1685937 C66.525625,68.4045312 66.8321875,68.5229687 67.1392187,68.5229687 C67.4398437,68.5229687 67.7407812,68.4095312 67.9720312,68.181875 L69.2370312,66.9367187 L73.0253125,70.7259375 L69.815625,73.9232812 C69.3510937,74.3859375 69.3498437,75.1376562 69.8123437,75.6020312 C70.0442187,75.8348437 70.3489062,75.9514062 70.6532812,75.9514062 C70.9564062,75.9514062 71.259375,75.8360937 71.4910937,75.6053125 L74.7039062,72.4048437 L77.1035937,74.8051562 C77.5059375,75.2075 77.5903125,75.6478125 77.5903125,75.94625 C77.5903125,76.7635937 76.9735937,77.6092187 75.9420312,77.6095312 L66.7467187,77.6115625 C66.0910937,77.6117187 65.5598437,78.1432812 65.56,78.79875 C65.5601562,79.4542187 66.0917187,79.9857812 66.7473437,79.985625 L75.9426562,79.9835937 C78.1603125,79.983125 79.9645312,78.171875 79.9645312,75.94625 C79.9653125,74.8909375 79.5454687,73.889375 78.7834375,73.1271875 Z" id="Shape"></path>
                    <path d="M25.5689062,40.8931634 L15.0265625,30.3478509 C14.6870312,30.0081634 14.1764062,29.9066009 13.7328125,30.0905071 C13.2892187,30.2742571 13,30.7072259 13,31.1872259 L13,44.6081634 C13,45.2637884 13.5315625,45.7951946 14.1870312,45.7951946 C14.8428125,45.7951946 15.3740625,45.2636321 15.3740625,44.6081634 L15.3740625,34.0537884 L23.89,42.5719134 C24.3532812,43.0355071 25.105,43.0356634 25.56875,42.5720696 C26.0325,42.1084759 26.0325,41.3569134 25.5689062,40.8931634 Z" id="Shape"></path>
                    <path d="M49.0577734,64.3846484 L29.0265234,44.3477734 C28.5627734,43.8841797 27.8113672,43.8840234 27.3477734,44.3476172 C26.8841797,44.8112109 26.8840234,45.5629297 27.3476172,46.0265234 L45.3535547,64.0371484 L31.5898047,64.0402734 C30.9340234,64.0402734 30.4027734,64.5719922 30.4029297,65.2276172 C30.4030859,65.8832422 30.9344922,66.4144922 31.5899609,66.4144922 C31.5899609,66.4144922 31.5901172,66.4144922 31.5902734,66.4144922 L48.2185547,66.4108984 C48.6983984,66.4108984 49.1313672,66.1215234 49.3151172,65.6780859 C49.4987109,65.2346484 49.3971484,64.7241797 49.0577734,64.3846484 Z" id="Shape"></path>
                    <path d="M26.7410938,63.7753125 C26.7410938,63.7753125 26.7409375,63.7753125 26.7407812,63.7753125 L15.3740625,63.7778125 L15.3740625,49.1870312 C15.3740625,48.5314062 14.8426562,48 14.1870312,48 C13.53125,48 13,48.5315625 13,49.1870312 L13,64.9651562 C13,65.28 13.125,65.5820312 13.3478125,65.8046875 C13.5703125,66.0271875 13.8721875,66.1523438 14.1871875,66.1523438 C14.1871875,66.1523438 14.1873438,66.1523438 14.1875,66.1523438 L26.7417188,66.1495312 C27.3973437,66.149375 27.9285938,65.6178125 27.9284375,64.9621875 C27.9279687,64.3067187 27.3967188,63.7753125 26.7410938,63.7753125 Z" id="Shape"></path>
                </g>
            </g>
        </g>
    </g>
</svg>
