<?xml version="1.0" encoding="UTF-8" standalone="no"?>
<svg width="14px" height="14px" viewBox="0 0 14 14" version="1.1" xmlns="http://www.w3.org/2000/svg" xmlns:xlink="http://www.w3.org/1999/xlink">
    <!-- Generator: sketchtool 50.2 (55047) - http://www.bohemiancoding.com/sketch -->
    <title>E5300883-35CA-4FA9-8283-BE740B1E8E44</title>
    <desc>Created with sketchtool.</desc>
    <defs></defs>
    <g id="Page-1" stroke="none" stroke-width="1" fill="none" fill-rule="evenodd" opacity="0.600000024">
        <g id="Contacts-1" transform="translate(-939.000000, -913.000000)" fill="#EFF7FE">
            <g id="resize_icon" transform="translate(939.000000, 913.000000)">
                <path d="M0.818181818,5 L15.1818182,5 C15.6336875,5 16,5.36631248 16,5.81818182 C16,6.27005116 15.6336875,6.63636364 15.1818182,6.63636364 L0.818181818,6.63636364 C0.366312477,6.63636364 5.53380342e-17,6.27005116 0,5.81818182 C-5.53380342e-17,5.36631248 0.366312477,5 0.818181818,5 Z M3.81818182,9.36363636 L12.1818182,9.36363636 C12.6336875,9.36363636 13,9.72994884 13,10.1818182 C13,10.6336875 12.6336875,11 12.1818182,11 L3.81818182,11 C3.36631248,11 3,10.6336875 3,10.1818182 C3,9.72994884 3.36631248,9.36363636 3.81818182,9.36363636 Z" id="Combined-Shape" transform="translate(8.000000, 8.000000) rotate(-45.000000) translate(-8.000000, -8.000000) "></path>
            </g>
        </g>
    </g>
</svg>