<?xml version="1.0" encoding="UTF-8"?>
<svg width="74px" height="80px" viewBox="0 0 74 80" version="1.1" xmlns="http://www.w3.org/2000/svg" xmlns:xlink="http://www.w3.org/1999/xlink">
    <!-- Generator: Sketch 46.2 (44496) - http://www.bohemiancoding.com/sketch -->
    <title>resize</title>
    <desc>Created with Sketch.</desc>
    <defs></defs>
    <g id="Page-1" stroke="none" stroke-width="1" fill="none" fill-rule="evenodd">
        <g id="Adoric-case" transform="translate(-307.000000, -6898.000000)" fill-rule="nonzero" fill="#006AEF">
            <g id="User-flow" transform="translate(0.000000, 6435.000000)">
                <g id="Group-5" transform="translate(234.000000, 411.000000)">
                    <g id="resize" transform="translate(73.000000, 52.000000)">
                        <path d="M62.0941525,18.1981684 C62.0943076,18.1966176 62.0946178,18.1947567 62.0947729,18.1930508 C62.095083,18.189329 62.0947729,18.1919653 62.0941525,18.1981684 Z" id="Shape"></path>
                        <path d="M72.781822,44.9197661 C73.4415508,44.9197661 73.9739746,44.38846 73.9739746,43.7339571 L73.9739746,36.2870955 C73.9739746,35.6308772 73.4415508,35.1012865 72.781822,35.1012865 L70.2385424,35.1012865 L70.2385424,9.81847953 L72.781822,9.81847953 C73.4415508,9.81847953 73.9739746,9.28717349 73.9739746,8.63267057 L73.9739746,1.18580897 C73.9739746,0.529590643 73.4415508,0 72.781822,0 L65.2951229,0 C64.6371186,0 64.1029703,0.529590643 64.1029703,1.18580897 L64.1029703,3.72350877 L42.021339,3.72350877 L42.021339,1.18580897 C42.021339,0.529590643 41.4889153,0 40.8291864,0 L33.3424873,0 C32.6844831,0 32.1503347,0.529590643 32.1503347,1.18580897 L32.1503347,3.72350877 L9.89687288,3.72350877 L9.89687288,1.18580897 C9.89687288,0.529590643 9.36288136,0 8.70487712,0 L1.21817797,0 C0.560173729,0 0.0260254237,0.529590643 0.0260254237,1.18580897 L0.0260254237,8.63267057 C0.0260254237,9.28717349 0.560173729,9.81847953 1.21817797,9.81847953 L3.76459322,9.81847953 C3.76459322,12.6496686 3.76459322,32.5589084 3.76459322,35.1014425 L1.21817797,35.1014425 C0.560173729,35.1014425 0.0260254237,35.6310331 0.0260254237,36.2872515 L0.0260254237,43.7341131 C0.0260254237,44.388616 0.560173729,44.919922 1.21817797,44.919922 L3.76459322,44.919922 L3.76459322,70.025731 L1.21817797,70.025731 C0.560173729,70.025731 0.0260254237,70.5553216 0.0260254237,71.21154 L0.0260254237,78.6584016 C0.0260254237,79.3129045 0.560173729,79.8442105 1.21817797,79.8442105 L8.70487712,79.8442105 C9.36288136,79.8442105 9.89702966,79.3129045 9.89702966,78.6584016 L9.89702966,76.1191423 L32.1504915,76.1191423 L32.1504915,78.6584016 C32.1504915,79.3129045 32.6846398,79.8442105 33.3426441,79.8442105 L40.8293432,79.8442105 C41.489072,79.8442105 42.0214958,79.3129045 42.0214958,78.6584016 L42.0214958,76.1191423 L64.1032839,76.1191423 L64.1032839,78.6584016 C64.1032839,79.3129045 64.6374322,79.8442105 65.2954364,79.8442105 L72.7821356,79.8442105 C73.4418644,79.8442105 73.9742881,79.3129045 73.9742881,78.6584016 L73.9742881,71.21154 C73.9742881,70.5553216 73.4418644,70.025731 72.7821356,70.025731 L70.2388559,70.025731 L70.2388559,44.9197661 L72.781822,44.9197661 Z M66.4872754,2.37161793 L71.5896695,2.37161793 L71.5896695,7.4468616 C70.2954534,7.4468616 67.7792966,7.4468616 66.4872754,7.4468616 C66.4872754,6.16077973 66.4872754,3.65925926 66.4872754,2.37161793 Z M34.5346398,2.37161793 L39.6370339,2.37161793 C39.6370339,3.59906433 39.6370339,6.22409357 39.6370339,7.4468616 L34.5346398,7.4468616 C34.5346398,6.21925926 34.5346398,3.59407407 34.5346398,2.37161793 Z M2.41033051,7.4468616 L2.41033051,2.37161793 L7.51272458,2.37161793 C7.51272458,3.59454191 7.51272458,6.22003899 7.51272458,7.4468616 C6.27949576,7.4468616 3.63885593,7.4468616 2.41033051,7.4468616 Z M2.41033051,42.5481481 L2.41033051,37.4729045 C3.64324576,37.4729045 6.2823178,37.4729045 7.51272458,37.4729045 L7.51272458,42.5481481 C6.21944915,42.5481481 3.70313559,42.5481481 2.41033051,42.5481481 Z M7.51272458,77.4724366 L2.41033051,77.4724366 L2.41033051,72.397193 C3.64387288,72.397193 6.27980932,72.397193 7.51272458,72.397193 C7.51272458,74.2559064 7.51272458,75.6280702 7.51272458,77.4724366 Z M39.6370339,77.4724366 L34.5346398,77.4724366 C34.5346398,76.2493567 34.5346398,73.6246394 34.5346398,72.397193 L39.6370339,72.397193 C39.6370339,73.6235478 39.6370339,76.2474854 39.6370339,77.4724366 Z M52.5980085,73.7475244 L42.021339,73.7475244 L42.021339,71.21154 C42.021339,70.5553216 41.4889153,70.025731 40.8291864,70.025731 L33.3424873,70.025731 C32.6844831,70.025731 32.1503347,70.5553216 32.1503347,71.21154 L32.1503347,73.7475244 L9.89687288,73.7475244 L9.89687288,71.21154 C9.89687288,70.5553216 9.36272458,70.025731 8.70472034,70.025731 L6.14889831,70.025731 L6.14889831,44.9197661 L8.70487712,44.9197661 C9.36288136,44.9197661 9.89702966,44.38846 9.89702966,43.7339571 L9.89702966,36.2870955 C9.89702966,35.6308772 9.36288136,35.1012865 8.70487712,35.1012865 L6.14889831,35.1012865 L6.14889831,22.8591033 L47.796161,22.8591033 L47.2366144,27.5848733 C47.1433305,28.3691228 47.8320636,28.999922 48.5590508,28.9002729 L52.5980085,28.4276023 L52.5980085,73.7475244 Z M49.7797373,26.3706823 C49.7831864,26.3418324 49.8466822,25.8067836 50.3408517,21.6305653 C51.8133263,23.0952047 53.7106737,24.9824561 54.5452119,25.8125536 C50.9486864,26.2328265 52.3225466,26.0718908 49.7797373,26.3706823 Z M64.1031271,71.211384 L64.1031271,73.7473684 L54.9824703,73.7473684 L54.9824703,28.1478363 L57.268161,27.8807018 C58.2524237,27.7673294 58.6772966,26.5642105 57.9706907,25.8647953 L54.9823136,22.8923197 L54.9823136,22.8732943 L59.164411,18.7150097 C62.0645212,21.4493567 62.130839,22.0210526 62.9824661,22.0210526 C63.6000212,22.0210526 64.0965424,21.5603899 64.1666229,20.974347 C64.16725,20.9695127 64.1691314,20.9525146 64.1735212,20.9168031 C64.1735212,20.9164912 64.1735212,20.9161793 64.173678,20.9158674 C64.1738347,20.914152 64.1741483,20.9124366 64.1743051,20.9107212 C64.1741483,20.9116569 64.1739915,20.9130604 64.1738347,20.9147758 C64.1743051,20.9104094 64.1744619,20.9088499 64.1744619,20.9097856 C64.210678,20.6035088 64.3963051,19.0356335 65.1921186,12.3132943 C65.2825805,11.554152 64.6322585,10.9063548 63.8681144,10.9963353 L55.160572,12.0160624 C54.1717627,12.1330214 53.7542585,13.3334893 54.4564746,14.0319688 L57.478089,17.0375049 C57.473072,17.0424951 57.4685254,17.0470175 57.4641356,17.051384 C57.4647627,17.0507602 57.4653898,17.0499805 57.4661737,17.0493567 C57.4650763,17.0504483 57.4639788,17.05154 57.4625678,17.0529435 C57.4617839,17.0537232 57.4606864,17.0548148 57.4597458,17.0555945 C57.4564534,17.0588694 57.4534746,17.0618324 57.4504958,17.0647953 C57.4465763,17.068694 57.4420297,17.0732164 57.4371695,17.0782066 C57.4321525,17.0831969 57.426822,17.088499 57.4233729,17.0919298 C57.4219619,17.0933333 57.4210212,17.094269 57.4199237,17.0953606 C57.4196102,17.0956725 57.4192966,17.0959844 57.4189831,17.0962963 L57.4191398,17.0961404 C57.4180424,17.097232 57.4169449,17.0983236 57.416161,17.0991033 C57.4155339,17.0997271 57.41475,17.1005068 57.4141229,17.1011306 C57.4117712,17.1034698 57.4106737,17.1045614 57.4106737,17.1045614 C57.1850678,17.3291228 56.2972246,18.2123977 53.2883093,21.2067057 L52.5650847,20.4873294 L50.2889576,18.2233138 C49.5782754,17.5164133 48.3753051,17.9510331 48.2622669,18.9221053 L48.0763263,20.4873294 L6.14889831,20.4873294 L6.14889831,9.81847953 L8.70487712,9.81847953 C9.36288136,9.81847953 9.89702966,9.28717349 9.89702966,8.63267057 L9.89702966,6.09497076 L32.1504915,6.09497076 L32.1504915,8.63251462 C32.1504915,9.28701754 32.6846398,9.81832359 33.3426441,9.81832359 L40.8293432,9.81832359 C41.489072,9.81832359 42.0214958,9.28701754 42.0214958,8.63251462 L42.0214958,6.09497076 L64.1032839,6.09497076 L64.1032839,8.63251462 C64.1032839,9.28701754 64.6374322,9.81832359 65.2954364,9.81832359 L67.8545508,9.81832359 L67.8545508,35.1012865 L65.2954364,35.1012865 C64.6374322,35.1012865 64.1032839,35.6308772 64.1032839,36.2870955 L64.1032839,43.7339571 C64.1032839,44.38846 64.6374322,44.9197661 65.2954364,44.9197661 L67.8545508,44.9197661 L67.8545508,70.025575 L65.2954364,70.025575 C64.6371186,70.025575 64.1031271,70.5553216 64.1031271,71.211384 Z M62.6471144,13.5274854 C62.24325,16.9392593 62.1245678,17.9405848 62.0949364,18.1929045 C62.0947797,18.194152 62.0946229,18.1957115 62.0943093,18.1982066 L62.0943093,18.1980507 C62.0941525,18.1985185 62.0941525,18.1986745 62.0941525,18.1989864 C62.0932119,18.2072515 62.0913305,18.222846 62.0883517,18.2484211 C62.0883517,18.248577 62.0883517,18.2487329 62.0883517,18.2488889 C62.0877246,18.254191 62.0870975,18.259961 62.0863136,18.2661988 C62.0863136,18.2666667 62.0861568,18.2671345 62.0861568,18.2674464 L60.8494788,17.0373489 L59.1645678,15.3614035 L57.8817966,14.0854581 C57.8966907,14.0837427 57.9089195,14.0823392 57.9191102,14.0810916 C57.9184831,14.0812476 57.9176992,14.0812476 57.917072,14.0814035 C58.0921949,14.0609747 58.9994788,13.9546199 62.6471144,13.5274854 Z M71.5896695,72.397193 L71.5896695,77.4724366 L66.4872754,77.4724366 C66.4872754,76.2493567 66.4872754,73.6246394 66.4872754,72.397193 C67.7802373,72.397193 70.2978051,72.397193 71.5896695,72.397193 Z M66.4872754,42.5481481 L66.4872754,37.4729045 C67.7214449,37.4729045 70.36475,37.4729045 71.5896695,37.4729045 L71.5896695,42.5481481 C70.3544025,42.5481481 67.7170551,42.5481481 66.4872754,42.5481481 Z" id="Shape"></path>
                        <path d="M57.9557966,14.077037 C57.9559517,14.077037 57.9562618,14.077037 57.9562618,14.077037 C57.9561068,14.077037 57.9559517,14.077037 57.9557966,14.077037 Z" id="Shape"></path>
                        <path d="M57.9562669,14.0770351 C57.9599888,14.0765699 57.9595236,14.0765699 57.9562669,14.0770351 L57.9562669,14.0770351 Z" id="Shape"></path>
                        <path d="M64.1667761,20.9732554 C64.1667761,20.9737206 64.166621,20.9740307 64.166621,20.974496 C64.1663109,20.9771323 64.1664659,20.9762018 64.1667761,20.9732554 Z" id="Shape"></path>
                        <path d="M64.1683304,20.9593762 C64.167555,20.9654242 64.1670898,20.9703867 64.1667797,20.9731781 C64.1674,20.9680605 64.1678652,20.9637184 64.1683304,20.9593762 Z" id="Shape"></path>
                        <path d="M57.9231864,14.0807589 C57.9368332,14.0792081 57.9498597,14.0776573 57.9555975,14.077037 C57.9509452,14.0775023 57.9407101,14.0787429 57.9231864,14.0807589 Z" id="Shape"></path>
                        <path d="M57.9189534,14.0814009 C57.9203491,14.0812458 57.9215897,14.0810907 57.9229854,14.0809357 C57.9215897,14.0809357 57.9203491,14.0812458 57.9189534,14.0814009 Z" id="Shape"></path>
                        <path d="M64.1697449,20.9483041 C64.1692796,20.9517158 64.1689695,20.9554376 64.1685042,20.9593146 C64.1688144,20.9557478 64.1692796,20.9520259 64.1697449,20.9483041 Z" id="Shape"></path>
                        <path d="M64.1700669,20.9447173 C64.1699118,20.9458029 64.1697568,20.9468884 64.1696017,20.947974 C64.1697568,20.9468884 64.1699118,20.9458029 64.1700669,20.9447173 Z" id="Shape"></path>
                        <path d="M57.4660169,17.0494953 C57.4669474,17.0485648 57.468188,17.0473242 57.4691185,17.0463938 C57.4680329,17.0474793 57.4671025,17.0484098 57.4660169,17.0494953 Z" id="Shape"></path>
                        <path d="M64.1735195,20.9160164 C64.1735195,20.9163266 64.1735195,20.9166368 64.1733644,20.9169469 C64.1733644,20.9169469 64.1733644,20.917102 64.1733644,20.9172571 C64.1735195,20.9163266 64.1736746,20.9155512 64.1736746,20.9147758 C64.1736746,20.9152411 64.1735195,20.9153961 64.1735195,20.9160164 Z" id="Shape"></path>
                        <path d="M64.1719347,20.9299025 C64.1714694,20.9339345 64.1708491,20.9390521 64.1702288,20.9447899 C64.170694,20.9396724 64.1713144,20.9345548 64.1719347,20.9299025 Z" id="Shape"></path>
                        <path d="M64.1735059,20.917271 C64.1730406,20.9206826 64.1725754,20.9251799 64.1721102,20.9298322 C64.1725754,20.9245596 64.1730406,20.9202174 64.1735059,20.917271 Z" id="Shape"></path>
                        <path d="M57.4103602,17.1048594 C57.4111356,17.104084 57.4119109,17.1033086 57.4128414,17.1023782 C57.4112906,17.104084 57.4103602,17.1048594 57.4103602,17.1048594 Z" id="Shape"></path>
                        <path d="M43.666428,29.2435088 L29.3590297,29.2435088 C28.7010254,29.2435088 28.1668771,29.7730994 28.1668771,30.4293177 C28.1668771,31.0838207 28.7010254,31.6151267 29.3590297,31.6151267 L43.666428,31.6151267 C44.671072,31.6151267 45.4896186,32.4277583 45.4896186,33.428616 L45.4896186,50.5327096 C45.4896186,51.1872125 46.0220424,51.7185185 46.6817712,51.7185185 C47.3397754,51.7185185 47.8739237,51.1872125 47.8739237,50.5327096 L47.8739237,33.428616 C47.8739237,31.1201559 45.9856695,29.2435088 43.666428,29.2435088 Z" id="Shape"></path>
                        <path d="M24.5905763,29.2435088 L15.0820466,29.2435088 C12.7613941,29.2435088 10.8745508,31.1203119 10.8745508,33.428616 L10.8745508,55.3043275 C10.8745508,55.9588304 11.4086992,56.4901365 12.0667034,56.4901365 C12.7247076,56.4901365 13.2588559,55.9588304 13.2588559,55.3043275 L13.2588559,33.428616 C13.2588559,32.4277583 14.0758347,31.6151267 15.0820466,31.6151267 L24.5905763,31.6151267 C25.2485805,31.6151267 25.7827288,31.0838207 25.7827288,30.4293177 C25.7827288,29.7730994 25.2485805,29.2435088 24.5905763,29.2435088 Z" id="Shape"></path>
                        <path d="M46.6817712,54.0899805 C46.0220424,54.0899805 45.4896186,54.6212865 45.4896186,55.2757895 L45.4896186,62.9503314 C45.4896186,63.9511891 44.671072,64.7638207 43.666428,64.7638207 L37.5261525,64.7638207 L29.4402415,48.9072904 C29.0316737,48.1088499 28.4213305,47.4605848 27.6885424,47.0116179 C26.9541864,46.5626511 26.0973856,46.314386 25.1962161,46.314386 C23.3921525,46.314386 21.7660339,47.3088499 20.9506229,48.9072904 L18.4344661,53.8418713 C18.4313305,53.8482651 18.4280381,53.8545029 18.4249025,53.8608967 L13.4162627,63.6871735 C13.3145127,63.4626121 13.2588559,63.2127875 13.2588559,62.9503314 L13.2588559,60.0474074 C13.2588559,59.3929045 12.7247076,58.8615984 12.0667034,58.8615984 C11.4086992,58.8615984 10.8745508,59.3929045 10.8745508,60.0474074 L10.8745508,62.9503314 C10.8745508,65.2605068 12.7639025,67.1354386 15.0820466,67.1354386 L36.9332119,67.1354386 L43.666428,67.1354386 C45.9855127,67.1354386 47.8739237,65.2586355 47.8739237,62.9503314 L47.8739237,55.2757895 C47.8739237,54.6212865 47.3399322,54.0899805 46.6817712,54.0899805 Z M23.077339,49.9808187 C23.4906102,49.1697466 24.2821907,48.685848 25.1962161,48.685848 C26.1086737,48.685848 26.901822,49.1695906 27.3135254,49.9808187 L29.4800636,54.2290838 C28.3673983,55.3863548 26.8445975,56.0378947 25.2057797,56.0378947 C23.5606907,56.0378947 22.0345975,55.3816764 20.9187966,54.2164522 L23.077339,49.9808187 Z M15.541411,64.7638207 L19.7934322,56.4221442 C21.2844068,57.7012086 23.1806568,58.4095127 25.2057797,58.4095127 C27.2244746,58.4095127 29.1160212,57.7043275 30.6038602,56.4332164 L34.8510212,64.7638207 L15.541411,64.7638207 L15.541411,64.7638207 Z" id="Shape"></path>
                        <path d="M43.1689661,43.0398441 C42.9082415,42.6967641 42.4822712,42.5211696 42.0547331,42.5813645 C41.8416695,42.6097466 41.6256271,42.625653 41.409428,42.625653 C38.8169195,42.625653 36.7091737,40.5275634 36.7091737,37.9488499 C36.7091737,37.2990253 36.8394576,36.6697856 37.0986144,36.0815595 C37.4670466,35.2368031 36.7690636,34.3061209 35.8428093,34.4324366 C32.3569703,34.9068226 29.7279322,37.9092398 29.7279322,41.414425 C29.7279322,45.3007407 32.9069534,48.4612865 36.8140593,48.4612865 C39.6338983,48.4612865 42.1850169,46.8010916 43.3105381,44.2287719 C43.4836229,43.8367251 43.4296907,43.3813645 43.1689661,43.0398441 Z M36.8140593,46.0898246 C34.2215508,46.0898246 32.1122373,43.9932943 32.1122373,41.4145809 C32.1122373,39.7576608 32.997572,38.2697856 34.3422712,37.4381287 C34.0759025,40.9805848 36.5384407,44.1578168 39.9977839,44.8564522 C39.1458432,45.6344639 38.0173432,46.0898246 36.8140593,46.0898246 Z" id="Shape"></path>
                    </g>
                </g>
            </g>
        </g>
    </g>
</svg>
