<?xml version="1.0" encoding="UTF-8"?>
<svg width="80px" height="80px" viewBox="0 0 80 80" version="1.1" xmlns="http://www.w3.org/2000/svg" xmlns:xlink="http://www.w3.org/1999/xlink">
    <!-- Generator: Sketch 46.2 (44496) - http://www.bohemiancoding.com/sketch -->
    <title>targeting</title>
    <desc>Created with Sketch.</desc>
    <defs></defs>
    <g id="Page-1" stroke="none" stroke-width="1" fill="none" fill-rule="evenodd">
        <g id="Adoric-case" transform="translate(-305.000000, -7164.000000)" fill-rule="nonzero" fill="#006AEF">
            <g id="User-flow" transform="translate(0.000000, 6435.000000)">
                <g id="targeting" transform="translate(305.000000, 729.000000)">
                    <path d="M79.8621277,7.92102128 C79.6124255,7.42842553 79.0730213,7.15148936 78.5290213,7.23659574 L71.7128511,8.28731915 L72.7635745,1.47114894 C72.8476596,0.925617021 72.5715745,0.387744681 72.0791489,0.138042553 C71.5865532,-0.111659574 70.9894468,-0.0165106383 70.5991489,0.373957447 L62.6869787,8.28612766 C62.4951489,8.47812766 62.3693617,8.72612766 62.3281702,8.99438298 L61.0757447,17.1191489 L56.5465532,21.6483404 C50.3075745,15.856 42.2313191,12.6791489 33.660766,12.6791489 C24.6626383,12.6791489 16.2078298,16.1785532 9.85378723,22.5325957 C3.49940426,28.8868085 -7.10542736e-15,37.341617 -7.10542736e-15,46.3397447 C-7.10542736e-15,55.3378723 3.49940426,63.7925106 9.85344681,70.1467234 C16.2076596,76.500766 24.6624681,80 33.6604255,80 C42.658383,80 51.1133617,76.5005957 57.4674043,70.1465532 C63.8214468,63.7923404 67.3208511,55.3375319 67.3208511,46.3395745 C67.3208511,39.1819574 65.108766,32.3499574 60.9237447,26.5819574 C60.509617,26.0110638 59.7109787,25.8840851 59.140766,26.298383 C58.5700426,26.7125106 58.4430638,27.5106383 58.8571915,28.0813617 C62.7239149,33.4107234 64.7676596,39.7242553 64.7676596,46.3397447 C64.7676596,63.4922553 50.8129362,77.4468085 33.6604255,77.4468085 C16.5079149,77.4468085 2.55319149,63.4922553 2.55319149,46.3397447 C2.55319149,29.187234 16.5079149,15.2325106 33.6604255,15.2325106 C41.5489362,15.2325106 48.984,18.144 54.7395745,23.4551489 L48.904,29.2907234 C44.7077447,25.5331064 39.3329362,23.4740426 33.6602553,23.4740426 C21.0519149,23.4740426 10.794383,33.7317447 10.794383,46.3399149 C10.794383,58.9480851 21.0519149,69.2057872 33.6602553,69.2057872 C46.2685957,69.2057872 56.5259574,58.9480851 56.5259574,46.3399149 C56.5259574,42.1317447 55.3753191,38.0195745 53.1986383,34.4478298 C52.8316596,33.8457872 52.0461277,33.6549787 51.4440851,34.0221277 C50.8420426,34.3889362 50.6515745,35.1746383 51.018383,35.7766809 C52.9509787,38.9480851 53.9725957,42.6008511 53.9725957,46.3400851 C53.9725957,57.5405957 44.8604255,66.652766 33.6600851,66.652766 C22.4595745,66.652766 13.3474043,57.5405957 13.3474043,46.3400851 C13.3474043,35.1395745 22.4595745,26.0274043 33.6600851,26.0274043 C38.6519149,26.0274043 43.3845106,27.8211064 47.0961702,31.0985532 L41.2468085,36.9479149 C39.106383,35.2129362 36.4568511,34.268766 33.6600851,34.268766 C27.0040851,34.268766 21.5889362,39.6839149 21.5889362,46.3400851 C21.5889362,52.9962553 27.0040851,58.411234 33.6600851,58.411234 C40.3162553,58.411234 45.731234,52.9962553 45.731234,46.3400851 C45.731234,45.1542128 45.5596596,43.9821277 45.2214468,42.8561702 C45.0185532,42.1809362 44.3067234,41.797617 43.6314894,42.0010213 C42.9562553,42.2037447 42.5732766,42.9155745 42.7763404,43.5909787 C43.0428936,44.4784681 43.1780426,45.403234 43.1780426,46.3400851 C43.1780426,51.5882553 38.9082553,55.8580426 33.6600851,55.8580426 C28.4119149,55.8580426 24.1421277,51.5882553 24.1421277,46.3400851 C24.1421277,41.0917447 28.4119149,36.8219574 33.6600851,36.8219574 C35.7734468,36.8219574 37.779234,37.506383 39.4279149,38.7668085 L32.7572766,45.4374468 C32.2587234,45.9361702 32.2587234,46.7443404 32.7572766,47.2428936 C33.0064681,47.4920851 33.3332766,47.6166809 33.6599149,47.6166809 C33.9865532,47.6166809 34.3133617,47.4920851 34.5625532,47.2428936 L57.4628085,24.3426383 C57.4706383,24.3348085 62.8803404,18.9251064 62.8803404,18.9251064 L71.0051064,17.6725106 C71.2733617,17.6313191 71.5213617,17.5055319 71.7133617,17.3137021 L79.6255319,9.40153191 C80.0165106,9.01055319 80.1116596,8.41344681 79.8621277,7.92102128 L79.8621277,7.92102128 Z M64.7875745,9.79625532 L69.6457872,4.93821277 L68.9877447,9.20697872 L64.1295319,14.0651915 L64.7875745,9.79625532 L64.7875745,9.79625532 Z M70.2037447,15.2125957 L65.9351489,15.8706383 L70.7933617,11.0124255 L75.0617872,10.354383 L70.2037447,15.2125957 L70.2037447,15.2125957 Z" id="Shape"></path>
                </g>
            </g>
        </g>
    </g>
</svg>
