<svg fill="none" height="20" viewBox="0 0 20 20" width="20" xmlns="http://www.w3.org/2000/svg"><path d="m19.9917 9.49721c-.0017-.03746-.0051-.07712-.0071-.11543-.0047-.08306-.0093-.16627-.0164-.25187-.0038-.0456-.0094-.09322-.0139-.13949-.0078-.08068-.0158-.16153-.0258-.24509-.0058-.04932-.0137-.10119-.0202-.15187-.0091-.06864-.0184-.13695-.0291-.20712l-2.8209-.83119.0001-.00016h-.0001l1.7981-2.33511c-.4617-.88135-1.0369-1.67579-1.7112-2.36409l-2.7828.99017.0807-2.946474c-.8722-.433906-1.807-.736121-2.7794-.899486l-1.66392 2.42783-1.6619-2.42631134c-.01627.00271191-.0322.00576281-.04814.00864434-.22305.0384753-.44388.083223-.6627.136103-.01424.003559-.0278.007288-.04204.010848-.45659.112884-.90256.257462-1.33612.432551-.01237.005085-.02509.009661-.03746.014746-.20661.084577-.40984.17712-.61016.275938-.01491.007118-.02983.014407-.04474.021525l.08119 2.944436-.00017-.00017v.00017l-2.77969-.98882c-.09864.10051-.19237.20627-.28644.31136-.06373.07085-.13068.13864-.19238.21153-.12576.14864-.24407.3039-.36119.46015-.06102.08153-.12102.16356-.17949.24696-.11543.16424-.22899.33051-.33543.50272-.05424.08831-.10255.18102-.15441.27102-.06865.11949-.13848.23763-.20272.36068l1.7958 2.33342h-.00017v.00016l-2.821248.83137c-.009661.06373-.017797.12576-.0262719.1878-.0077968.05847-.0164409.11847-.0232207.17542-.009322.07712-.0162714.1517-.0235597.22662-.0052541.0522-.0113562.10559-.0157629.15661-.0067798.08119-.0108477.16018-.015763.23916-.0022035.04203-.0061019.08525-.00779673.12678-.00525416.11916-.00779707.23611-.00779707.35085 0 .11441.00271213.2314.00779707.35.00169492.042.00525403.0861.00779673.1287.0045764.0786.0086442.1566.015424.2374.0042373.0524.0106782.1068.0159328.1597.0071186.0737.0138984.1468.0230512.2225.0071186.0592.0162713.1216.0242373.1821.0081359.0601.0159329.1201.0252549.182l2.821256.8315-1.79563 2.333c.07169.1369.14881.2698.22627.4023.04356.0753.08356.1531.12915.2268.13068.2121.26798.4187.41255.6189.0117.0162.02424.0312.03628.0476.13763.1883.28102.3719.43085.5493.05695.0673.11865.1297.17712.1949.09848.1109.19661.2211.30018.3268l2.77968-.9892h.00017l-.08119 2.945c.01543.0073.03085.0144.0461.0222.19967.098.40187.1898.60747.2744.01441.0053.02881.0109.04322.0168.2156.0871.43391.1676.65529.2392.0005 0 .00101 0 .00169.0005.22102.0712.44475.1339.67069.1898.01593.0041.03169.0083.04763.0124.2161.0523.43507.0964.65559.1344.01745.003.03525.0063.05271.0093l.99494-1.4519.6683-.9761 1.66269 2.4273c.017-.0025.0339-.0058.0507-.0088.2215-.038.4414-.0825.6587-.1354.0154-.0036.0302-.0078.0456-.0114.2263-.0564.4503-.1191.6715-.1903.0007-.0005.0017-.0005.0026-.001.2217-.0717.4398-.1524.6557-.2392.0139-.0053.0282-.0108.0421-.0163.2071-.0851.4108-.1774.6115-.2764.0143-.0068.0283-.0134.0426-.0202l-.0807-2.9449 2.7797.9891c.101-.1032.1969-.2115.2935-.3195.0605-.0678.1246-.1323.1836-.2022.1478-.1744.2888-.3554.4247-.5414.0189-.0257.038-.0508.057-.0771.1386-.1934.2715-.3915.3975-.5961.0473-.0766.0893-.1576.1344-.2359.0757-.1302.1517-.26.222-.3946l-1.7966-2.3329 2.8209-.8316c.0103-.0691.0195-.1369.0286-.2042.0068-.0514.0149-.1042.0211-.1546.0098-.083.0174-.1627.0252-.2432.0048-.0466.0103-.0944.0142-.1405.0072-.0856.0119-.1682.0165-.251.002-.0385.0052-.0782.0071-.1161.0053-.1197.0078-.237.0078-.35209-.0005-.11525-.0032-.23289-.0083-.35272zm-9.99195 3.88909c-1.95001 0-3.5365-1.5865-3.5365-3.53655 0-1.94988 1.58645-3.53667 3.5365-3.53667s3.53655 1.58679 3.53655 3.53667c0 1.95005-1.5865 3.53655-3.53655 3.53655z" fill="#fff"/></svg>