<svg fill="none" height="20" viewBox="0 0 20 20" width="20" xmlns="http://www.w3.org/2000/svg" xmlns:xlink="http://www.w3.org/1999/xlink"><clipPath id="a"><path d="m0 0h20v19.6984h-20z"/></clipPath><g clip-path="url(#a)"><path d="m17.8571 0h-15.71424c-1.214289 0-2.14286.914569-2.14286 2.11054v15.47736c0 1.1256.928571 2.1105 2.14286 2.1105h15.71424c1.1429 0 2.1429-.9849 2.1429-2.1105v-15.47736c0-1.195971-1-2.11054-2.1429-2.11054zm-4.6428 7.03514c-.3572 0-.7143-.2814-.7143-.70351s.3571-.70351.7143-.70351h.7143v-2.11055c0-.42211.3571-.70351.7143-.70351.3571 0 .7142.2814.7142.70351v2.11055h.7143c.3572 0 .7143.2814.7143.70351s-.3571.70351-.7143.70351h-.7143v9.14566c0 .3518-.3571.7035-.7142.7035-.3572 0-.7143-.3517-.7143-.7035v-9.14566zm-4.64287 7.03516c-.42857 0-.71429-.3518-.71429-.7035 0-.3518.28572-.7035.71429-.7035h.71428v-9.14573c0-.42211.28572-.70351.71429-.70351.3571 0 .7143.2814.7143.70351v9.14573h.7143c.3571 0 .7143.3517.7143.7035 0 .3517-.3572.7035-.7143.7035h-.7143v2.1105c0 .3518-.3572.7035-.7143.7035-.35714 0-.71429-.3517-.71429-.7035v-2.1105zm-4.71429-3.5176c-.42857 0-.71428-.3517-.71428-.7035 0-.35175.28571-.70351.71428-.70351h.78572v-5.62812c0-.42211.28571-.70351.71428-.70351s.71429.2814.71429.70351v5.62812h.64286c.42857 0 .71428.2814.71428.70351 0 .3518-.28571.7035-.71428.7035h-.64286v5.6281c0 .3518-.28572.7035-.71429.7035s-.71428-.3517-.71428-.7035v-5.6281z" fill="#fff"/></g></svg>