<svg width="100%" height="100%" viewBox="0 0 240 96" fill="none" xmlns="http://www.w3.org/2000/svg">
<path fill-rule="evenodd" clip-rule="evenodd" d="M108.47 39.5H103.722V41.4752C102.167 40.4418 100.301 39.84 98.2957 39.84C92.8641 39.84 88.4609 44.2545 88.4609 49.7C88.4609 55.1456 92.8641 59.56 98.2957 59.56C100.301 59.56 102.167 58.9582 103.722 57.9247V59.288H108.47V39.5ZM93.2088 49.7C93.2088 46.8833 95.4862 44.6 98.2957 44.6C101.105 44.6 103.383 46.8833 103.383 49.7C103.383 52.5167 101.105 54.8 98.2957 54.8C95.4862 54.8 93.2088 52.5167 93.2088 49.7Z" fill="currentColor"/>
<path fill-rule="evenodd" clip-rule="evenodd" d="M131.192 32.3594H126.444V41.4746C124.889 40.4412 123.024 39.8394 121.018 39.8394C115.587 39.8394 111.184 44.2539 111.184 49.6994C111.184 55.1449 115.587 59.5594 121.018 59.5594C123.024 59.5594 124.889 58.9576 126.444 57.9241V59.2874H131.192V32.3594ZM115.931 49.6994C115.931 46.8827 118.209 44.5994 121.018 44.5994C123.828 44.5994 126.105 46.8827 126.105 49.6994C126.105 52.5161 123.828 54.7994 121.018 54.7994C118.209 54.7994 115.931 52.5161 115.931 49.6994Z" fill="currentColor"/>
<path fill-rule="evenodd" clip-rule="evenodd" d="M143.739 44.6008C140.93 44.6008 138.652 46.8841 138.652 49.7008C138.652 52.5175 140.93 54.8008 143.739 54.8008C146.549 54.8008 148.826 52.5175 148.826 49.7008C148.826 46.8841 146.549 44.6008 143.739 44.6008ZM133.905 49.7008C133.905 44.2553 138.308 39.8408 143.739 39.8408C149.171 39.8408 153.574 44.2553 153.574 49.7008C153.574 55.1464 149.171 59.5608 143.739 59.5608C138.308 59.5608 133.905 55.1464 133.905 49.7008Z" fill="currentColor"/>
<path fill-rule="evenodd" clip-rule="evenodd" d="M161.866 45.4337C161.451 45.85 161.035 46.6677 161.035 48.3408V59.2208H156.287V48.3408C156.287 45.9339 156.889 43.6917 158.508 42.0679C160.128 40.4441 162.365 39.8408 164.765 39.8408H166.8V44.6008H164.765C163.097 44.6008 162.281 45.0175 161.866 45.4337Z" fill="currentColor"/>
<path fill-rule="evenodd" clip-rule="evenodd" d="M187.489 44.6008C184.68 44.6008 182.402 46.8841 182.402 49.7008C182.402 52.5175 184.68 54.8008 187.489 54.8008C189.463 54.8008 191.177 53.6747 192.023 52.0176L196.249 54.1841C194.626 57.3708 191.314 59.5608 187.489 59.5608C182.058 59.5608 177.654 55.1464 177.654 49.7008C177.654 44.2553 182.058 39.8408 187.489 39.8408C191.314 39.8408 194.626 42.0309 196.249 45.2176L192.023 47.3841C191.177 45.7269 189.463 44.6008 187.489 44.6008Z" fill="currentColor"/>
<path fill-rule="evenodd" clip-rule="evenodd" d="M172.227 36.44C173.725 36.44 174.94 35.2222 174.94 33.72C174.94 32.2178 173.725 31 172.227 31C170.728 31 169.514 32.2178 169.514 33.72C169.514 35.2222 170.728 36.44 172.227 36.44ZM174.601 59.2668V39.84H169.853V59.2668H174.601Z" fill="currentColor"/>
<path fill-rule="evenodd" clip-rule="evenodd" d="M76.2357 57.5709C73.5973 54.3035 71.3312 50.9378 69.1114 46.9806C66.9137 43.0612 65.2053 39.3357 63.7306 35.2371C63.0626 33.4892 61.4557 32.3604 59.6348 32.3604C57.8163 32.3604 56.2094 33.4892 55.5304 35.258C54.0667 39.3357 52.3585 43.0598 50.1584 46.9806C47.9409 50.9337 45.677 54.3008 43.0362 57.5689C42.3573 58.4056 42.0001 59.4057 42.0001 60.4653C42.0001 62.9662 43.9774 65.0004 46.4089 65.0004C46.702 65.0004 46.9864 64.9687 47.2356 64.9189C51.3576 64.1914 55.1795 63.5165 59.6346 63.5165C64.0895 63.5165 67.9144 64.1914 72.0078 64.9121C72.2835 64.9687 72.5676 65.0004 72.8609 65.0004C75.2924 65.0004 77.2696 62.9662 77.2696 60.4653C77.2696 59.4031 76.9125 58.4035 76.2357 57.5709Z" fill="currentColor"/>
</svg>
