<svg width="100%" height="100%" viewBox="0 0 240 96" fill="none" xmlns="http://www.w3.org/2000/svg">
<path fill-rule="evenodd" clip-rule="evenodd" d="M170.162 74.9345H139.61C133.07 74.9345 127.771 69.6357 127.771 63.0963V32.5443C127.771 26.0048 133.07 20.7061 139.61 20.7061H170.162C176.701 20.7061 182 26.0048 182 32.5443V63.0963C182.026 69.6357 176.701 74.9345 170.162 74.9345Z" fill="black"/>
<path fill-rule="evenodd" clip-rule="evenodd" d="M154.859 37.5566V56.3221H151.887V42.933L146.381 52.3674H146.02L140.488 42.9071V56.3221H137.516V37.5566H140.721L146.175 46.9394L151.654 37.5566H154.859Z" fill="white"/>
<path fill-rule="evenodd" clip-rule="evenodd" d="M168.094 48.4933C167.706 46.3221 166.232 45.1848 164.397 45.1848C162.329 45.1848 160.882 46.4514 160.494 48.4933H168.094ZM160.313 50.8713C160.727 52.9133 162.304 54.0247 164.449 54.0247C165.922 54.0247 167.034 53.4561 167.783 52.3705L170.084 53.7663C168.817 55.7307 166.93 56.6871 164.423 56.6871C162.329 56.6871 160.624 56.015 159.331 54.6968C158.039 53.3527 157.393 51.6726 157.393 49.6306C157.393 47.6145 158.039 45.9603 159.305 44.6162C160.572 43.2463 162.226 42.5742 164.216 42.5742C166.103 42.5742 167.654 43.2721 168.869 44.642C170.084 46.012 170.704 47.6921 170.704 49.6565C170.704 49.9408 170.678 50.3544 170.601 50.8713H160.313Z" fill="white"/>
<path fill-rule="evenodd" clip-rule="evenodd" d="M176.262 54.8215C176.262 55.8296 175.461 56.6567 174.479 56.6567C173.522 56.6567 172.695 55.8296 172.695 54.8215C172.695 53.8135 173.445 52.9863 174.479 52.9863C175.461 52.9863 176.262 53.8135 176.262 54.8215Z" fill="white"/>
<path fill-rule="evenodd" clip-rule="evenodd" d="M65.2196 53.4306H60.4119V48.1835H65.1938C66.5637 48.1835 67.6493 49.3466 67.6493 50.82C67.6751 52.2933 66.5895 53.4306 65.2196 53.4306ZM60.4119 40.455H64.6251C65.9433 40.455 66.9514 41.5148 66.9514 42.9106C66.9514 44.3063 65.9433 45.3661 64.6251 45.3661H60.4119V40.455ZM68.1145 46.6068C69.3294 45.6763 69.9497 44.4097 69.9497 42.7813C69.9497 41.308 69.4328 40.0673 68.3989 39.0851C67.3908 38.1029 66.1243 37.5859 64.651 37.5859H57.4395V56.3514H65.1938C66.7188 56.3514 67.9853 55.8344 69.0451 54.8263C70.1048 53.8183 70.6218 52.5259 70.6218 51.0009C70.6476 49.0106 69.6913 47.4598 68.1145 46.6068Z" fill="black"/>
<path fill-rule="evenodd" clip-rule="evenodd" d="M75.559 48.4933C75.9467 46.4514 77.3942 45.1848 79.462 45.1848C81.2972 45.1848 82.7705 46.3221 83.1582 48.4933H75.559ZM79.4879 42.5742C77.4976 42.5742 75.8433 43.2463 74.5768 44.6162C73.3103 45.9603 72.6641 47.6145 72.6641 49.6306C72.6641 51.6726 73.3103 53.3527 74.6026 54.6968C75.895 56.015 77.601 56.6871 79.6946 56.6871C82.2019 56.6871 84.0887 55.7307 85.3553 53.7663L83.0548 52.3705C82.3052 53.4819 81.1938 54.0247 79.7205 54.0247C77.5751 54.0247 75.9984 52.8874 75.5848 50.8713H85.8981C85.9756 50.3544 86.0015 49.9667 86.0015 49.6565C86.0015 47.6921 85.3811 46.012 84.1663 44.642C82.9256 43.2721 81.3747 42.5742 79.4879 42.5742Z" fill="black"/>
<path fill-rule="evenodd" clip-rule="evenodd" d="M99.3643 39.1582L96.5727 40.0112V42.9061H94.4791H94.1948H91.274V39.1582L88.4824 40.0112V42.9061V45.6977V52.1337C88.4824 55.649 90.2142 56.8639 94.4791 56.3211V53.7104C92.3596 53.8138 91.274 53.8397 91.274 52.1337V45.6977H94.1948H94.4791H96.5727V52.1337C96.5727 55.649 98.3045 56.8639 102.569 56.3211V53.7104C100.45 53.8138 99.3643 53.8397 99.3643 52.1337V45.6977H102.569V42.9061H99.3643V39.1582Z" fill="black"/>
<path fill-rule="evenodd" clip-rule="evenodd" d="M107.609 48.4933C107.997 46.4514 109.445 45.1848 111.512 45.1848C113.348 45.1848 114.821 46.3221 115.209 48.4933H107.609ZM111.564 42.5742C109.574 42.5742 107.92 43.2463 106.653 44.6162C105.386 45.9603 104.74 47.6145 104.74 49.6306C104.74 51.6726 105.386 53.3527 106.679 54.6968C107.971 56.015 109.677 56.6871 111.771 56.6871C114.278 56.6871 116.165 55.7307 117.431 53.7663L115.131 52.3705C114.381 53.4819 113.27 54.0247 111.797 54.0247C109.651 54.0247 108.075 52.8874 107.661 50.8713H117.974C118.052 50.3544 118.078 49.9667 118.078 49.6565C118.078 47.6921 117.457 46.012 116.242 44.642C115.002 43.2721 113.451 42.5742 111.564 42.5742Z" fill="black"/>
<path fill-rule="evenodd" clip-rule="evenodd" d="M123.713 45.1805V42.9317H120.922V56.3467H123.713V49.6004C123.713 48.2305 124.101 47.2483 124.902 46.6538C125.704 46.0334 126.634 45.775 127.694 45.8525V42.7249C125.755 42.6732 124.411 43.5004 123.713 45.1805Z" fill="black"/>
</svg>
