<svg width="100%" height="100%" viewBox="0 0 240 96" fill="none" xmlns="http://www.w3.org/2000/svg">
<path fill-rule="evenodd" clip-rule="evenodd" d="M170.162 74.9345H139.61C133.07 74.9345 127.771 69.6357 127.771 63.0963V32.5443C127.771 26.0048 133.07 20.7061 139.61 20.7061H170.162C176.701 20.7061 182 26.0048 182 32.5443V63.0963C182.026 69.6357 176.701 74.9345 170.162 74.9345Z" fill="white"/>
<path fill-rule="evenodd" clip-rule="evenodd" d="M154.859 37.557V56.3224H151.887V42.9333L146.381 52.3677H146.02L140.488 42.9075V56.3224H137.516V37.557H140.721L146.175 46.9397L151.654 37.557H154.859Z" fill="black"/>
<path fill-rule="evenodd" clip-rule="evenodd" d="M168.094 48.4927C167.706 46.3215 166.232 45.1842 164.397 45.1842C162.329 45.1842 160.882 46.4508 160.494 48.4927H168.094ZM160.313 50.8707C160.727 52.9127 162.304 54.0241 164.449 54.0241C165.922 54.0241 167.034 53.4555 167.783 52.3699L170.084 53.7657C168.817 55.7301 166.93 56.6864 164.423 56.6864C162.329 56.6864 160.624 56.0144 159.331 54.6962C158.039 53.3521 157.393 51.672 157.393 49.63C157.393 47.6139 158.039 45.9597 159.305 44.6156C160.572 43.2456 162.226 42.5736 164.216 42.5736C166.103 42.5736 167.654 43.2715 168.869 44.6414C170.084 46.0114 170.704 47.6914 170.704 49.6559C170.704 49.9402 170.678 50.3538 170.601 50.8707H160.313Z" fill="black"/>
<path fill-rule="evenodd" clip-rule="evenodd" d="M176.261 54.8216C176.261 55.8297 175.46 56.6568 174.478 56.6568C173.521 56.6568 172.694 55.8297 172.694 54.8216C172.694 53.8136 173.444 52.9865 174.478 52.9865C175.46 52.9865 176.261 53.8136 176.261 54.8216Z" fill="black"/>
<path fill-rule="evenodd" clip-rule="evenodd" d="M65.2196 53.4308H60.4119V48.1837H65.1938C66.5637 48.1837 67.6493 49.3469 67.6493 50.8202C67.6751 52.2935 66.5895 53.4308 65.2196 53.4308ZM60.4119 40.4553H64.6251C65.9433 40.4553 66.9514 41.515 66.9514 42.9108C66.9514 44.3066 65.9433 45.3663 64.6251 45.3663H60.4119V40.4553ZM68.1145 46.607C69.3294 45.6765 69.9497 44.41 69.9497 42.7816C69.9497 41.3082 69.4328 40.0676 68.3989 39.0853C67.3908 38.1031 66.1243 37.5862 64.651 37.5862H57.4395V56.3516H65.1938C66.7188 56.3516 67.9853 55.8346 69.0451 54.8266C70.1048 53.8185 70.6218 52.5261 70.6218 51.0011C70.6476 49.0109 69.6913 47.46 68.1145 46.607Z" fill="white"/>
<path fill-rule="evenodd" clip-rule="evenodd" d="M75.559 48.4927C75.9467 46.4508 77.3942 45.1842 79.462 45.1842C81.2972 45.1842 82.7705 46.3215 83.1582 48.4927H75.559ZM79.4879 42.5736C77.4976 42.5736 75.8433 43.2456 74.5768 44.6156C73.3103 45.9597 72.6641 47.6139 72.6641 49.63C72.6641 51.672 73.3103 53.3521 74.6026 54.6962C75.895 56.0144 77.601 56.6864 79.6946 56.6864C82.2019 56.6864 84.0887 55.7301 85.3553 53.7657L83.0548 52.3699C82.3052 53.4813 81.1938 54.0241 79.7205 54.0241C77.5751 54.0241 75.9984 52.8868 75.5848 50.8707H85.8981C85.9756 50.3538 86.0015 49.966 86.0015 49.6559C86.0015 47.6914 85.3811 46.0114 84.1663 44.6414C82.9256 43.2715 81.3747 42.5736 79.4879 42.5736Z" fill="white"/>
<path fill-rule="evenodd" clip-rule="evenodd" d="M99.3643 39.1587L96.5727 40.0117V42.9066H94.4791H94.1948H91.274V39.1587L88.4824 40.0117V42.9066V45.6982V52.1342C88.4824 55.6495 90.2142 56.8644 94.4791 56.3216V53.7109C92.3596 53.8143 91.274 53.8402 91.274 52.1342V45.6982H94.1948H94.4791H96.5727V52.1342C96.5727 55.6495 98.3045 56.8644 102.569 56.3216V53.7109C100.45 53.8143 99.3643 53.8402 99.3643 52.1342V45.6982H102.569V42.9066H99.3643V39.1587Z" fill="white"/>
<path fill-rule="evenodd" clip-rule="evenodd" d="M107.61 48.4927C107.998 46.4508 109.445 45.1842 111.513 45.1842C113.348 45.1842 114.822 46.3215 115.21 48.4927H107.61ZM111.565 42.5736C109.575 42.5736 107.92 43.2456 106.654 44.6156C105.387 45.9597 104.741 47.6139 104.741 49.63C104.741 51.672 105.387 53.3521 106.68 54.6962C107.972 56.0144 109.678 56.6864 111.772 56.6864C114.279 56.6864 116.166 55.7301 117.432 53.7657L115.132 52.3699C114.382 53.4813 113.271 54.0241 111.798 54.0241C109.652 54.0241 108.076 52.8868 107.662 50.8707H117.975C118.053 50.3538 118.079 49.966 118.079 49.6559C118.079 47.6914 117.458 46.0114 116.243 44.6414C115.003 43.2715 113.452 42.5736 111.565 42.5736Z" fill="white"/>
<path fill-rule="evenodd" clip-rule="evenodd" d="M123.713 45.1811V42.9323H120.922V56.3473H123.713V49.601C123.713 48.2311 124.101 47.2489 124.902 46.6544C125.704 46.0341 126.634 45.7756 127.694 45.8531V42.7255C125.755 42.6739 124.411 43.501 123.713 45.1811Z" fill="white"/>
</svg>
