<svg width="100%" height="100%" viewBox="0 0 240 96" fill="none" xmlns="http://www.w3.org/2000/svg">
<path d="M64.3573 59.7607L64.3568 59.7624L64.3566 59.7628L64.3565 59.763L64.348 59.7885L64.3439 59.8157C64.3135 60.0133 64.3431 60.2059 64.4371 60.3784C64.5294 60.5475 64.6725 60.6772 64.8387 60.7736C65.1642 60.9624 65.6177 61.047 66.1344 61.047C66.7155 61.047 67.2043 60.9512 67.5838 60.7109C67.9745 60.4634 68.2093 60.0886 68.3272 59.6173L68.3287 59.6112L69.174 55.577H74.5918L73.8179 59.2252L73.8179 59.2255C73.3142 61.5625 72.5628 63.0409 71.3299 63.9513C70.0892 64.8675 68.2993 65.2553 65.6037 65.2553H63.2769C61.4886 65.2553 60.2366 64.9319 59.4367 64.3262C58.6554 63.7345 58.254 62.8332 58.254 61.5387C58.254 61.1558 58.3327 60.4107 58.4864 59.8726L58.4895 59.8618L61.7577 44.4607C62.2399 42.17 63.0332 40.5954 64.2077 39.5887C65.3788 38.5849 66.9763 38.1055 69.1552 38.1055H71.5228C73.7376 38.1055 75.253 38.3517 76.2058 38.8448C76.6749 39.0875 76.9988 39.3856 77.208 39.7376C77.4176 40.0904 77.5254 40.52 77.5254 41.0465C77.5254 41.5181 77.486 41.9364 77.3735 42.3489L77.3708 42.359L76.4014 47.0899H70.9827L71.6328 43.9478C71.6496 43.8973 71.6679 43.8407 71.6766 43.7707C71.6843 43.7092 71.6843 43.6386 71.6842 43.5552L71.6842 43.5366C71.6842 43.1487 71.5223 42.8252 71.1892 42.6179C70.8829 42.4274 70.4629 42.3546 69.9716 42.3546C69.3901 42.3546 68.8936 42.4505 68.5058 42.6882C68.1064 42.933 67.8574 43.3065 67.738 43.7844L67.7365 43.7902L64.4284 59.4731L64.428 59.4748C64.4092 59.5688 64.3906 59.6431 64.377 59.6929C64.3703 59.7177 64.3648 59.7364 64.3612 59.7482L64.3588 59.7558L64.3573 59.7607Z" fill="currentColor"/>
<path fill-rule="evenodd" clip-rule="evenodd" d="M113.229 38.3912H122.274C124.391 38.3912 125.779 38.6082 126.63 39.0668C127.046 39.2908 127.328 39.5694 127.51 39.9077C127.693 40.2494 127.786 40.6749 127.786 41.2097C127.786 42.3621 127.587 43.8167 127.279 45.1741C126.971 46.5336 126.562 47.7594 126.158 48.4737C125.752 49.1294 125.308 49.5971 124.704 49.9575C124.092 50.323 123.297 50.5894 122.17 50.8107L121.908 50.8622V51.179V51.4959L122.191 51.5329C123.409 51.6928 124.217 52.0062 124.72 52.4785C125.211 52.9393 125.459 53.5958 125.459 54.5583C125.459 55.9906 125.18 57.674 124.733 59.2077C124.283 60.7479 123.675 62.0984 123.041 62.8864L123.039 62.8896L123.036 62.893C121.94 64.3294 120.266 64.9696 117.497 64.9696H107.571L113.229 38.3912ZM119.783 42.3954C120.42 42.3954 120.937 42.463 121.294 42.6992C121.691 42.9616 121.823 43.3768 121.823 43.8631C121.823 44.143 121.734 44.7041 121.654 45.1458L121.653 45.1516L121.285 46.8264L121.285 46.8289C121.082 47.8216 120.855 48.5227 120.393 48.9532C119.916 49.3977 119.259 49.4946 118.396 49.4946H116.483L118.011 42.3954H119.783ZM117.824 53.2947C118.427 53.2947 118.921 53.3735 119.263 53.6384C119.629 53.9222 119.741 54.3526 119.741 54.844C119.741 55.1248 119.694 55.519 119.529 56.1815L119.122 58.1747L119.121 58.1771L119.121 58.1795C118.898 59.1944 118.66 59.9153 118.22 60.3671C117.757 60.8425 117.132 60.9654 116.314 60.9654H114.077L115.682 53.2947H117.824Z" fill="currentColor"/>
<path d="M75.5284 64.9696L81.1867 38.3912H86.8096L82.0743 60.7205H88.1957L87.275 64.9696H75.5284Z" fill="currentColor"/>
<path d="M90.5383 58.8666L94.8913 38.3912H100.555L96.1882 58.9013L96.1878 58.9033C96.1465 59.1098 96.0998 59.3816 96.0998 59.6201C96.0998 60.0426 96.2407 60.4135 96.5671 60.6674C96.8781 60.9093 97.3095 61.0062 97.8125 61.0062C98.4333 61.0062 98.9649 60.8616 99.3776 60.5176C99.7889 60.1749 100.04 59.6697 100.171 59.0337L100.172 59.0328L104.566 38.3912H110.189L105.864 58.7343L105.863 58.7353C105.3 61.3081 104.429 62.8958 103.129 63.8915C101.829 64.8462 100.082 65.2553 96.6695 65.2553C94.1831 65.2553 92.5804 64.9865 91.6024 64.394C91.124 64.1043 90.7946 63.7364 90.5808 63.2739C90.3644 62.8059 90.2587 62.2238 90.2587 61.4979C90.2587 60.7104 90.3771 59.754 90.5383 58.8666Z" fill="currentColor"/>
<path d="M126.263 64.9696L131.921 38.3912H137.544L135.299 49.0456H139.596L141.841 38.3912H147.504L141.846 64.9696H136.222L138.671 53.2947H134.375L131.885 64.9696H126.263Z" fill="currentColor"/>
<path d="M164.487 58.8618L168.839 38.3912H174.502L170.136 58.8994L170.136 58.9013L170.135 58.9033C170.094 59.1098 170.047 59.3816 170.047 59.6201C170.047 60.0426 170.188 60.4135 170.515 60.6674C170.826 60.9093 171.257 61.0062 171.76 61.0062C172.381 61.0062 172.912 60.8616 173.325 60.5176C173.737 60.1749 173.987 59.6697 174.119 59.0337L174.119 59.0328L178.514 38.3912H184.136L179.811 58.7343C179.248 61.3077 178.377 62.8956 177.076 63.8915C175.776 64.8462 174.029 65.2553 170.617 65.2553C168.131 65.2553 166.528 64.9865 165.55 64.394C165.072 64.1043 164.742 63.7364 164.528 63.2739C164.312 62.8059 164.206 62.2238 164.206 61.4979C164.206 60.7103 164.325 59.7539 164.486 58.8665L164.487 58.8618Z" fill="currentColor"/>
<path d="M199.721 64.9696L205.379 38.3912H216.8L215.915 42.6403H210.121L208.672 49.2497H214.102L213.223 53.2539H207.833L206.268 60.7205H212.514L211.629 64.9696H199.721Z" fill="currentColor"/>
<path fill-rule="evenodd" clip-rule="evenodd" d="M145.746 61.6204C145.746 61.2025 145.823 60.6146 145.943 60.0556L149.454 43.4406C149.864 41.5043 150.678 40.2032 152.059 39.3671L152.074 39.3582C152.083 39.3524 152.093 39.3466 152.103 39.3408C153.532 38.4932 155.603 38.1055 158.566 38.1055C161.067 38.1055 162.76 38.393 163.821 38.9876C164.343 39.2802 164.707 39.6449 164.944 40.0869C165.183 40.5314 165.303 41.0749 165.303 41.7404C165.303 42.2965 165.263 42.801 165.148 43.3003L165.147 43.3028L165.147 43.3054L161.768 59.114L161.595 59.9197L161.595 59.9202C161.18 61.8785 160.363 63.186 158.966 64.0205C157.547 64.8676 155.487 65.2553 152.524 65.2553C150.023 65.2553 148.319 64.9679 147.247 64.3726C146.72 64.0795 146.351 63.7143 146.11 63.2723C145.869 62.8279 145.746 62.2849 145.746 61.6204ZM155.969 42.4281C156.35 42.1784 156.863 42.1097 157.504 42.1097C158 42.1097 158.411 42.1582 158.709 42.3243C158.866 42.4125 158.992 42.5332 159.079 42.6895C159.165 42.8423 159.204 43.0121 159.216 43.1868L159.217 43.1984L159.217 43.2407V43.2411C159.217 43.4112 159.217 43.6129 159.166 43.7827L157.677 50.7944L155.781 59.7284L155.781 59.7299C155.671 60.2361 155.48 60.646 155.098 60.9122C154.728 61.1698 154.236 61.2511 153.626 61.2511C153.092 61.2511 152.654 61.2028 152.343 61.0408C152.178 60.9547 152.043 60.8335 151.953 60.6699C151.864 60.5093 151.832 60.3314 151.832 60.1508V60.1376C151.832 59.9838 151.832 59.7886 151.881 59.5882L154.933 45.2119L155.268 43.6336L155.268 43.6327C155.378 43.1075 155.568 42.6906 155.969 42.4281Z" fill="currentColor"/>
<path d="M185.921 44.8308L185.921 44.8292C186.52 42.038 187.199 40.4105 188.395 39.4487C188.421 39.4274 188.448 39.4064 188.475 39.3857C189.727 38.4278 191.604 38.1055 194.748 38.1055C197.13 38.1055 198.723 38.3527 199.714 38.8789C200.2 39.1371 200.534 39.459 200.75 39.8494C200.967 40.2425 201.077 40.7282 201.077 41.3322C201.077 41.9671 201.038 42.435 200.92 43.0224L200.92 43.0238L200.282 46.0285H195.315L195.514 45.1163L195.515 45.1138C195.679 44.334 195.767 43.6944 195.767 43.3324C195.767 42.9363 195.691 42.5596 195.335 42.3336C195.176 42.233 194.987 42.1802 194.783 42.1501C194.578 42.1199 194.335 42.1097 194.054 42.1097C193.273 42.1097 192.673 42.1966 192.239 42.5713C191.812 42.9404 191.613 43.5317 191.451 44.3253L191.45 44.3286L191.33 44.8537L191.042 46.1221L191.041 46.1263C190.957 46.5485 190.913 46.9789 190.913 47.2105C190.913 47.4279 190.938 47.6378 191.019 47.8337C191.102 48.0347 191.234 48.2002 191.417 48.3406C191.762 48.6053 192.304 48.7916 193.073 48.9941L193.074 48.9943C195.59 49.6489 197.083 50.188 197.95 50.8202C198.373 51.129 198.638 51.4539 198.801 51.82C198.965 52.1901 199.036 52.6253 199.036 53.1704C199.036 55.4055 198.232 59.0761 197.185 61.5326C196.685 62.6863 195.677 63.7735 194.517 64.3934C193.362 64.9699 191.71 65.2553 189.074 65.2553C186.653 65.2553 185.016 64.9984 183.992 64.47C183.489 64.21 183.143 63.8886 182.919 63.5051C182.695 63.1202 182.581 62.6492 182.581 62.0694C182.581 61.074 182.701 59.9142 182.982 58.6711L182.982 58.6688L183.416 56.6792H188.593L188.268 58.2395L188.267 58.2432C188.102 58.9433 188.014 59.5422 188.014 59.9059C188.014 60.3373 188.139 60.7173 188.506 60.9619C188.836 61.1823 189.31 61.2511 189.89 61.2511C190.592 61.2511 191.163 61.1357 191.596 60.822C192.037 60.5026 192.28 60.018 192.412 59.4024L192.412 59.4006L193.024 56.4657L193.024 56.4632C193.11 56.0769 193.154 55.6868 193.154 55.3747C193.154 55.1508 193.113 54.9363 193.005 54.7369C192.897 54.5382 192.735 54.3779 192.529 54.2416C192.131 53.9785 191.52 53.7738 190.666 53.5502L190.664 53.5496L190.662 53.549C188.167 52.9355 187.476 52.6995 186.746 52.277L186.743 52.2754L186.74 52.2737C186.184 51.9669 185.793 51.6141 185.538 51.2032C185.284 50.7938 185.153 50.3044 185.153 49.7006C185.153 48.9571 185.311 47.7173 185.554 46.5017L185.555 46.4985L185.921 44.8308Z" fill="currentColor"/>
<path fill-rule="evenodd" clip-rule="evenodd" d="M24.5498 55.5519L22.5352 64.8411H27.1674L29.1231 55.5519H24.5498ZM25.2029 52.5404H30.9789H37.779L38.6267 48.6047H33.6082L34.2707 45.5931H40.4913H47.973H54.47L56.0973 38.2278L43.9128 30.7461L28.3068 38.2278L25.2029 52.5404ZM53.8047 48.6047H49.1898L45.704 64.8411H50.2175L53.8047 48.6047ZM42.6238 64.8411L46.1096 48.6047H41.7073L40.4675 54.3608L40.467 54.3632L38.2281 64.8411H42.6238ZM35.1486 64.8411L37.1334 55.5519H32.2006L30.245 64.8411H35.1486Z" fill="currentColor"/>
</svg>
