<svg width="100%" height="100%" viewBox="0 0 240 96" fill="none" xmlns="http://www.w3.org/2000/svg">
<path fill-rule="evenodd" clip-rule="evenodd" d="M29.1731 21.3063C29.1123 21.3032 28.8164 21.0551 28.8164 21.0073C28.8164 20.9867 28.9484 21.0113 29.1099 21.0621C29.3742 21.1451 29.5733 21.2294 30.5081 21.6542C30.6601 21.7232 31.064 21.9035 31.4058 22.0548C32.0048 22.3201 32.343 22.4757 33.6845 23.1033C34.5702 23.5178 39.5533 26.0015 40.4169 26.459C41.1517 26.8483 41.979 27.2971 42.4194 27.5452C42.4845 27.5819 42.6073 27.6507 42.7535 27.7325C42.9057 27.8176 43.0834 27.9168 43.248 28.0085C44.2287 28.5551 44.3519 28.6259 45.3886 29.2378C47.9775 30.7658 50.6105 32.5147 52.5353 33.9848L53.4482 34.6819C54.6141 35.5721 56.5846 37.4134 57.5125 38.4797C59.6993 40.9929 60.6485 43.0225 60.6487 45.1867C60.6488 46.0745 60.5756 46.4831 60.286 47.2104C59.9751 47.9911 59.844 48.2244 59.3347 48.9038C58.1545 50.4785 56.2826 51.8524 53.4894 53.1941C52.8274 53.512 52.2681 53.7722 52.2466 53.7722C52.225 53.7722 52.0326 53.8472 51.8189 53.9387C51.6053 54.0303 51.1353 54.2186 50.7745 54.3573C50.615 54.4186 50.4562 54.48 50.3221 54.5323C50.1528 54.5982 50.0228 54.6495 49.9804 54.6672C49.9045 54.6991 49.3297 54.8861 48.703 55.0828C48.0764 55.2795 47.4394 55.4843 47.2875 55.5379C47.024 55.6308 45.9713 55.9262 45.4576 56.0514C45.3637 56.0743 45.1887 56.1195 45.0137 56.1658C44.9411 56.1851 44.8685 56.2045 44.8017 56.2227C44.5738 56.2846 44.2548 56.3637 44.0929 56.3987C43.9309 56.4336 43.7384 56.4943 43.665 56.5336C43.5916 56.5729 43.3512 56.6339 43.1308 56.6692C42.9104 56.7044 42.3883 56.8134 41.9706 56.9112C40.7468 57.1976 40.269 57.2988 39.8542 57.3594C39.6396 57.3907 39.4343 57.4347 39.3981 57.4571C39.3368 57.495 38.5673 57.6476 37.7585 57.7822C37.5686 57.8138 37.1336 57.8912 36.7918 57.9542C36.45 58.0172 35.9994 58.0919 35.7905 58.1202C35.5816 58.1485 35.2709 58.2058 35.1 58.2474C34.7438 58.3342 34.0531 58.4468 33.3077 58.5396C33.0244 58.5749 32.636 58.6345 32.4445 58.6721C32.1137 58.737 31.4699 58.8452 30.3493 59.0241C29.5525 59.1512 29.1094 59.1171 29.3708 58.9487C29.499 58.8661 30.2039 58.6525 31.1916 58.397C31.6131 58.2879 32.2379 58.1047 32.5797 57.99C34.3648 57.3907 34.9503 57.1815 35.687 56.8799C35.9528 56.771 36.4655 56.5677 36.8263 56.428C37.1871 56.2884 37.6842 56.0812 37.9311 55.9678C38.178 55.8544 38.6907 55.6221 39.0705 55.4516C39.7904 55.1284 40.871 54.5935 41.5217 54.238C41.7306 54.1239 42.1035 53.9202 42.3504 53.7855C42.5972 53.6507 42.9291 53.4527 43.0878 53.3455C43.2466 53.2383 43.3969 53.1506 43.4218 53.1506C43.5092 53.1506 45.0167 52.1251 45.8374 51.5072C47.7722 50.0507 49.268 48.4398 50.1951 46.8142C50.4969 46.2849 51.0248 44.9829 51.1827 44.3785C51.4269 43.4435 51.4424 41.5217 51.2131 40.5882C50.7265 38.606 49.7048 36.6522 48.1928 34.8121C45.7219 31.8048 42.0777 28.8245 37.0334 25.6856L36.1358 25.1271C35.8889 24.9736 35.4539 24.7152 35.1691 24.5529C34.8842 24.3907 34.4492 24.1417 34.2024 23.9996C33.6286 23.6694 32.4876 23.0446 31.6475 22.6006C31.2867 22.4099 30.5927 22.0411 30.1052 21.7812C29.6178 21.5212 29.1983 21.3075 29.1731 21.3063ZM60.1654 24.6827C60.8214 24.2729 61.7116 23.942 62.3405 23.8743C63.1316 23.7891 64.3752 23.8555 64.9299 24.0125C66.5386 24.4679 67.9305 25.6006 68.6522 27.0415C69.2324 28.2001 69.4606 29.6863 69.2196 30.7368C68.9274 32.0099 68.6567 32.605 67.9836 33.4545C67.3444 34.2611 66.2332 35.0569 65.3251 35.3584C64.74 35.5526 63.7393 35.7445 63.3105 35.7447C62.5838 35.745 61.2544 35.3924 60.5196 35.0044C59.0578 34.2326 57.9872 32.8986 57.5499 31.3042C57.3457 30.5596 57.3428 28.974 57.5443 28.2157C57.9221 26.7935 58.903 25.4714 60.1654 24.6827ZM66.7317 41.1979C67.5109 40.8003 68.0455 40.6655 69.4528 40.5123C69.7186 40.4833 72.5247 40.4633 75.6885 40.4678L81.441 40.4759L81.5736 40.6486C81.6964 40.8086 81.7063 40.9535 81.7077 42.6206C81.7093 44.5295 81.7 44.5857 81.3802 44.5857C81.2903 44.5857 81.1497 44.6216 81.0676 44.6655C80.9855 44.7095 80.8244 44.7697 80.7097 44.7993C80.2645 44.9143 78.4178 45.5568 78.2055 45.6707C77.9926 45.7849 77.9757 45.7848 77.8603 45.6692C77.7582 45.5671 77.7388 45.4186 77.7388 44.7401C77.7388 43.9435 77.7365 43.9316 77.5662 43.862C77.4522 43.8153 76.0693 43.8031 73.4922 43.8259L69.5908 43.8604L69.2864 44.0677C68.6203 44.521 68.5254 44.8915 68.5255 47.0377C68.5255 49.3925 68.6916 49.8047 69.7731 50.1335C70.1277 50.2412 70.6662 50.2515 75.7747 50.2483C79.3484 50.2461 81.4115 50.2695 81.4545 50.3125C81.5414 50.3995 81.533 53.4927 81.4456 53.5801C81.4068 53.619 78.855 53.6345 74.9683 53.6195C69.1152 53.597 68.5249 53.5844 68.2098 53.4757C68.0199 53.4101 67.7092 53.3058 67.5193 53.2438C66.5984 52.9431 65.8978 52.4962 65.445 51.9205C65.0609 51.4322 64.6221 50.5453 64.5158 50.0424C64.3954 49.4725 64.3447 46.1071 64.4395 44.9803C64.5203 44.0208 64.587 43.7669 64.9734 42.9501C65.3109 42.2363 65.9554 41.5941 66.7317 41.1979ZM87.7512 40.612C87.979 40.5852 88.3675 40.5402 88.6143 40.5118C88.8612 40.4835 90.5546 40.4606 92.3776 40.461C96.6449 40.4619 97.7205 40.5331 98.6739 40.8776C100.333 41.477 101.285 42.4934 101.597 43.9986C101.629 44.1505 101.688 44.3624 101.729 44.4693C101.776 44.5941 101.803 45.5091 101.803 47.025C101.803 49.3357 101.799 49.4002 101.627 50.0415C101.344 51.0985 101.066 51.5998 100.429 52.1986C99.7683 52.8207 99.3888 53.0166 97.9707 53.4678C97.5791 53.5923 97.2872 53.5995 92.6538 53.5995C88.1959 53.5995 87.7198 53.5888 87.4059 53.4807C87.216 53.4153 86.8898 53.3105 86.6809 53.2477C85.6168 52.9279 84.5123 52.0457 84.095 51.182C83.6291 50.2181 83.6183 50.1328 83.5924 47.2148C83.5719 44.9044 83.5836 44.5101 83.6826 44.1757C84.1537 42.5844 84.5857 41.9666 85.6949 41.2985C86.1542 41.0219 87.1814 40.6789 87.7512 40.612ZM103.873 40.6364C103.874 40.5727 103.927 40.5105 103.99 40.4982C104.054 40.486 104.945 40.4803 105.971 40.4857C107.681 40.4946 107.843 40.5057 107.927 40.6197C108 40.7196 108.018 41.6513 108.018 45.356V49.9679L108.169 50.1087C108.318 50.2481 108.379 50.2496 113.999 50.2496C118.025 50.2496 119.693 50.2715 119.726 50.3249C119.795 50.4373 119.775 53.5048 119.704 53.5756C119.67 53.6102 116.357 53.6285 112.018 53.618C104.831 53.6006 104.25 53.6174 104.065 53.3549C104.036 53.3144 104.017 53.2672 103.985 53.2122C103.882 53.0386 103.872 52.4447 103.872 46.8865C103.872 43.5126 103.872 40.7001 103.873 40.6364ZM123.934 40.8777C124.38 40.7191 124.68 40.6634 125.902 40.5123C126.149 40.4817 127.868 40.4576 129.724 40.4587C133.97 40.4611 134.997 40.5298 135.956 40.8759C137.435 41.4094 138.375 42.2835 138.73 43.4559C138.864 43.8961 138.948 44.1587 139.001 44.4274C139.098 44.9179 139.09 45.4287 139.09 47.0757C139.09 48.6196 139.064 49.5504 139.016 49.6752C138.976 49.7822 138.914 50.0194 138.879 50.2023C138.646 51.4326 137.762 52.4709 136.461 53.0449C135.175 53.6123 134.706 53.6498 129.285 53.6174C125.598 53.5953 124.929 53.5761 124.693 53.4847C124.541 53.4259 124.231 53.3215 124.003 53.2526C122.676 52.8516 121.707 51.9892 121.236 50.7907C120.874 49.8694 120.861 49.744 120.861 47.1252C120.861 44.9222 120.874 44.6256 120.995 44.1651C121.47 42.3539 122.257 41.4731 123.934 40.8777ZM141.162 40.7991L141.369 40.6248L141.576 40.4505L147.221 40.4493C154.259 40.4478 154.795 40.4833 155.904 41.0246C156.637 41.3824 157.022 41.6955 157.316 42.1725C157.736 42.8561 157.928 43.567 157.987 44.6691C158.096 46.6733 157.629 48.0997 156.621 48.8393C156.21 49.1417 155.289 49.5568 155.028 49.558C154.926 49.5585 154.755 49.5967 154.649 49.643C154.533 49.6932 153.955 49.742 153.217 49.7639C152.412 49.7878 151.971 49.8271 151.954 49.8762C151.941 49.9179 152.202 50.229 152.536 50.5676C152.869 50.9062 153.437 51.524 153.798 51.9404C154.159 52.3569 154.605 52.8609 154.79 53.0603C154.985 53.2703 155.117 53.4035 155.091 53.488C155.044 53.6406 154.481 53.6341 152.839 53.6341C151.626 53.6341 150.582 53.6145 150.52 53.5906C150.413 53.5496 149.875 52.9081 148.93 51.6957C148.702 51.4033 148.267 50.8614 147.963 50.4915C147.66 50.1215 147.288 49.6594 147.137 49.4644C146.986 49.2694 146.804 49.0477 146.732 48.9717C146.66 48.8958 146.353 48.5136 146.049 48.1224C145.745 47.7313 145.461 47.423 145.418 47.4375C145.361 47.4564 145.334 48.3041 145.321 50.4944C145.312 52.1612 145.276 53.5524 145.243 53.5859C145.158 53.6702 141.45 53.6455 141.29 53.5595C141.167 53.4937 141.162 53.2521 141.162 47.1451V40.7991ZM163.989 41.4429C164.34 40.8404 164.563 40.5707 164.777 40.4883C164.834 40.4664 166.111 40.4547 167.614 40.4623L170.347 40.4759L170.596 40.6659C170.732 40.7703 170.95 41.0501 171.078 41.2875C171.331 41.7538 171.964 42.8653 172.544 43.8604C172.743 44.2023 173.163 44.9328 173.477 45.4836C173.791 46.0345 174.257 46.8426 174.512 47.2795C174.768 47.7164 175.069 48.2448 175.183 48.4537C175.296 48.6626 175.694 49.362 176.068 50.0078C176.441 50.6536 176.93 51.5084 177.153 51.9073C177.377 52.3062 177.67 52.7924 177.804 52.9879C177.934 53.1769 178.073 53.3078 178.051 53.3987C177.994 53.6306 176.883 53.6028 171.871 53.6172C165.915 53.6344 165.74 53.6311 165.63 53.503C165.568 53.4305 165.318 52.8942 165.074 52.3111C164.831 51.7281 164.571 51.1188 164.498 50.9569C164.364 50.6633 164.364 50.6625 164.508 50.5186C164.651 50.3758 164.683 50.3747 168.062 50.3962C170.255 50.4102 171.497 50.3934 171.541 50.3494C171.586 50.3041 171.508 50.1293 171.309 49.8335C171.143 49.5874 170.875 49.1375 170.713 48.8336C170.551 48.5297 170.395 48.2499 170.367 48.212C170.322 48.1514 169.576 46.8056 168.97 45.6908C167.956 43.8261 167.81 43.6187 167.514 43.6187C167.332 43.6187 167.032 43.9198 166.947 44.1882C166.92 44.2738 166.829 44.4527 166.745 44.5857C166.662 44.7187 166.428 45.1383 166.225 45.5182C166.023 45.8981 165.792 46.3177 165.711 46.4506C165.63 46.5836 165.428 46.9566 165.263 47.2795C165.097 47.6024 164.892 47.9779 164.807 48.114C164.722 48.2501 164.521 48.6231 164.36 48.9429C164.199 49.2627 163.966 49.6953 163.843 49.9042C163.719 50.1132 163.434 50.626 163.208 51.0439C162.983 51.4618 162.679 52.0213 162.534 52.2872C162.388 52.5531 162.173 52.9572 162.056 53.1851L161.843 53.5995H159.495H157.147L157.126 53.4493C157.114 53.3655 157.209 53.1362 157.342 52.9313C157.561 52.5919 160.659 47.2472 161.139 46.3816C161.255 46.1726 161.488 45.7685 161.657 45.4836C161.826 45.1987 162.042 44.8257 162.138 44.6548C162.336 44.3022 163.445 42.3774 163.989 41.4429ZM179.709 40.6695C179.795 40.5917 179.911 40.5133 179.968 40.4953C180.153 40.437 191.029 40.4524 191.707 40.512C192.71 40.6001 193.29 40.6974 193.738 40.8528C195.204 41.3609 196.126 42.1862 196.555 43.3769C196.92 44.3888 196.957 44.7245 196.955 47.0723C196.953 48.98 196.936 49.3288 196.814 49.9037C196.506 51.3631 195.783 52.3165 194.489 52.969C194.29 53.0689 194.093 53.1506 194.05 53.1506C194.007 53.1506 193.874 53.1933 193.754 53.2455C193.635 53.2977 193.335 53.3987 193.088 53.47C192.674 53.5895 192.351 53.5995 188.91 53.5995H185.182L184.959 53.1851C184.836 52.9572 184.686 52.6308 184.624 52.4599C184.473 52.0447 184.435 51.9512 184.186 51.4063C184.069 51.1498 183.973 50.9122 183.973 50.8784C183.973 50.7822 183.767 50.7271 183.761 50.8215C183.758 50.8679 183.76 51.4652 183.765 52.149C183.771 52.8328 183.755 53.4468 183.729 53.5132C183.686 53.6244 183.525 53.6341 181.727 53.6341C180.041 53.6341 179.756 53.6191 179.663 53.5256C179.566 53.4284 179.554 52.7519 179.554 47.1139V40.8109L179.709 40.6695ZM201.892 40.8771C202.342 40.7174 202.63 40.6626 203.791 40.5156C204.038 40.4844 205.747 40.4572 207.589 40.4552C211.832 40.4507 213.001 40.5324 213.975 40.9017C215.649 41.5367 216.48 42.4606 216.911 44.1661C217.05 44.7176 217.056 44.8785 217.032 47.2398C217.003 50.0273 216.995 50.0843 216.489 51.12C216.269 51.5692 216.101 51.7951 215.711 52.166C215.157 52.6928 214.801 52.914 214.103 53.166C213.785 53.2812 213.574 53.3659 213.358 53.4282C212.694 53.6193 211.969 53.5995 207.865 53.5995H202.928L202.168 53.3353C201.144 52.979 200.67 52.7151 200.114 52.191C199.57 51.6787 199.185 50.9797 198.951 50.0769C198.819 49.565 198.809 49.3454 198.817 47.0929C198.823 45.2076 198.848 44.5745 198.926 44.2748C198.981 44.0622 199.026 43.838 199.026 43.7767C199.026 43.605 199.473 42.7025 199.743 42.3292C200.169 41.7395 200.953 41.2103 201.892 40.8771ZM153.751 45.3969C153.751 44.4304 153.714 44.3212 153.288 44.0029C153.103 43.8642 153 43.8595 149.335 43.8259C147.266 43.8069 145.512 43.8139 145.437 43.8415C145.308 43.8893 145.303 43.9571 145.321 45.3956L145.339 46.8996H149.177C152.884 46.8996 153.024 46.8948 153.272 46.7614C153.705 46.5282 153.751 46.399 153.751 45.3969ZM96.9759 44.1218C96.8484 44.0358 96.6316 43.9343 96.4943 43.8961C96.2427 43.8262 89.06 43.8076 88.7907 43.8761C88.5665 43.9332 88.1413 44.2294 88.0218 44.4117C87.7647 44.8043 87.6512 45.6503 87.6509 47.1759C87.6505 48.5414 87.6605 48.6546 87.8207 49.1088C88.0513 49.7627 88.2928 49.9479 89.1667 50.1409C89.6166 50.2402 90.1148 50.2525 92.9645 50.2346C95.932 50.216 96.2773 50.2021 96.5897 50.0884C97.4817 49.7635 97.6546 49.2973 97.7083 47.0723C97.7535 45.1949 97.5899 44.5357 96.9759 44.1218ZM134.889 45.082C134.706 44.4984 134.492 44.2031 134.119 44.0161C133.809 43.8609 133.798 43.8604 130.114 43.8497C128.082 43.8438 126.311 43.8616 126.178 43.8892C125.206 44.0911 124.938 44.7946 124.939 47.1413C124.939 48.6902 125.045 49.2735 125.394 49.6399C125.656 49.9157 125.764 49.9682 126.38 50.1194C126.851 50.2353 127.218 50.248 130.106 50.2487C133.117 50.2495 133.338 50.2412 133.776 50.1106C134.401 49.9244 134.679 49.6404 134.848 49.0168C134.944 48.6604 134.978 48.2164 134.998 47.0377C135.023 45.6694 135.012 45.4747 134.889 45.082ZM192.812 47.0469C192.812 45.0776 192.628 44.4092 191.983 44.0386L191.672 43.8604L187.806 43.8475C185.679 43.8403 183.9 43.8507 183.852 43.8705C183.73 43.9216 183.726 50.0441 183.849 50.1667C183.911 50.229 184.824 50.2496 187.532 50.2496C190.942 50.2496 191.154 50.2423 191.531 50.1127C192.657 49.7252 192.812 49.3538 192.812 47.0469ZM212.839 45.1146C212.74 44.6398 212.444 44.2227 212.061 44.0177L211.766 43.8604L207.968 43.8512C205.88 43.8461 204.109 43.8556 204.033 43.8723C203.754 43.9334 203.35 44.2798 203.196 44.5885C202.985 45.0114 202.893 45.8194 202.893 47.257C202.893 49.3874 203.108 49.8173 204.319 50.1148C204.814 50.2364 205.135 50.2479 208.037 50.2479C211.323 50.2479 211.585 50.2289 212.121 49.952C212.404 49.8054 212.673 49.4796 212.775 49.1596C212.892 48.7955 212.942 45.6106 212.839 45.1146Z" fill="currentColor"/>
<path fill-rule="evenodd" clip-rule="evenodd" d="M43.6669 58.365C43.7109 58.3378 44.1242 58.2907 44.5852 58.2604C45.6017 58.1936 48.7421 58.2469 49.2214 58.3392C49.4113 58.3758 49.7997 58.4354 50.0845 58.4716C50.8791 58.5728 51.3117 58.6543 51.9144 58.8163C52.2182 58.8979 52.591 58.9919 52.743 59.025C53.3224 59.1514 55.2137 59.8124 55.9883 60.1592C56.1023 60.2102 56.4285 60.3525 56.7134 60.4755C58.2424 61.1358 60.2948 62.3137 62.0993 63.5665C62.9316 64.1443 64.6458 65.4879 65.1727 65.9752C65.2491 66.0458 65.6685 66.4196 66.1049 66.8059C67.3118 67.8742 68.8399 69.452 70.3087 71.1466C71.0018 71.9463 71.761 72.9086 73.0957 74.6789C73.2824 74.9266 73.347 75.1865 73.2218 75.1865C73.1867 75.1865 73.008 75.072 72.8248 74.932C71.5841 73.9843 71.0335 73.5882 69.9021 72.8293C68.6826 72.0115 66.7886 70.8667 65.8281 70.3669C62.3741 68.5698 60.189 67.6761 56.9551 66.738C54.7448 66.0969 51.4897 65.4477 50.4827 65.4472C50.2447 65.447 49.7703 65.395 49.4285 65.3315C48.5117 65.1611 42.4771 65.162 41.565 65.3327C41.2277 65.3958 40.746 65.4472 40.4947 65.447C40.0151 65.4465 37.9978 65.7424 37.591 65.8729C37.4607 65.9147 37.1811 65.9744 36.9696 66.0056C36.7581 66.0366 36.3831 66.1117 36.1363 66.1722C35.8894 66.2328 35.3922 66.3443 35.0315 66.4201C34.6707 66.4958 34.1269 66.6349 33.8231 66.7293C33.6457 66.7844 33.4341 66.8491 33.251 66.9043C33.1205 66.9437 33.0044 66.9783 32.9254 67.0012C32.1042 67.2397 31.3685 67.472 30.8539 67.6553C30.5501 67.7634 30.2238 67.8747 30.1289 67.9024C30.0339 67.9302 29.7698 68.0372 29.5419 68.1403C29.3141 68.2433 29.0344 68.3501 28.9205 68.3775C28.2207 68.546 24.5512 70.3448 22.9366 71.3109C22.122 71.7983 22.0565 71.8316 22.0084 71.7834C21.9437 71.7187 22.2296 71.4021 23.7378 69.868C26.1961 67.3672 27.3661 66.3203 29.8872 64.3655C30.3809 63.9827 31.0645 63.4862 31.4063 63.2623C31.5475 63.1698 31.6914 63.0748 31.8184 62.9904C31.9986 62.8705 32.1447 62.772 32.2004 62.7324C32.8744 62.2527 35.3694 60.8894 36.2554 60.5166C36.4919 60.4171 36.855 60.2581 37.0624 60.1632C37.2697 60.0684 37.4818 59.9907 37.5336 59.9907C37.5854 59.9907 37.6572 59.9614 37.6933 59.9255C37.8375 59.7823 39.9979 59.0976 41.4186 58.7449C41.8921 58.6273 42.3522 58.5503 43.0206 58.4768C43.332 58.4426 43.6229 58.3922 43.6669 58.365Z" fill="currentColor"/>
<path fill-rule="evenodd" clip-rule="evenodd" d="M176.737 58.2203C176.714 57.9389 176.734 57.8115 176.815 57.7216C176.908 57.6196 177.043 57.6018 177.682 57.6073C178.637 57.6157 178.665 57.635 178.609 58.2498C178.586 58.503 178.533 58.733 178.491 58.7609C178.449 58.7888 178.085 58.8121 177.681 58.8127C176.824 58.814 176.785 58.7893 176.737 58.2203ZM189.584 57.723C189.636 57.6803 189.956 57.6362 190.296 57.6252C191.175 57.5965 191.254 57.6229 191.281 57.9549C191.294 58.1044 191.255 58.6773 191.194 59.2282C191.088 60.2042 191.04 61.2811 190.87 66.6188C190.824 68.0434 190.775 69.224 190.759 69.2423C190.707 69.3061 189.326 69.2309 189.283 69.1618C189.259 69.1234 189.255 68.8197 189.274 68.4867C189.314 67.7854 189.226 67.6276 188.984 67.9673C188.548 68.5785 187.695 69.1196 186.818 69.3419C186.413 69.4446 186.162 69.462 185.541 69.4303C184.632 69.384 184.091 69.2324 183.433 68.8398C182.674 68.386 182.305 67.952 181.9 67.0333C181.697 66.5737 181.668 66.4294 181.642 65.7554C181.611 64.9448 181.676 64.5636 181.989 63.7178C182.505 62.3252 183.432 61.4075 184.872 60.8655C185.725 60.5441 185.982 60.5133 187.755 60.5193C188.787 60.5228 189.446 60.4989 189.472 60.457C189.495 60.4195 189.509 59.8066 189.502 59.0948C189.493 58.0786 189.511 57.784 189.584 57.723ZM147.186 58.9512C147.443 58.8889 147.673 58.817 147.699 58.7913C147.801 58.6888 148.069 58.7519 148.159 58.9001C148.233 59.0212 148.242 59.2001 148.2 59.7117C148.17 60.0726 148.161 60.4222 148.18 60.4886C148.232 60.6703 148.47 60.7004 149.558 60.6636C150.72 60.624 150.779 60.6502 150.751 61.1884C150.742 61.3633 150.716 61.5371 150.693 61.5745C150.668 61.6139 150.116 61.6504 149.376 61.6614L148.102 61.6802L148.059 62.889C148.035 63.5538 147.98 64.8053 147.935 65.6701C147.881 66.7206 147.877 67.3241 147.922 67.4886C148.099 68.1296 148.647 68.4677 149.384 68.3907C149.613 68.3667 149.859 68.3156 149.931 68.2773C150.132 68.1694 150.464 68.1922 150.512 68.3172C150.563 68.4519 150.371 69.1385 150.257 69.2277C150.103 69.3479 148.908 69.472 148.291 69.4319C147.472 69.3788 146.977 69.1864 146.623 68.7847C146.472 68.6127 146.311 68.3592 146.265 68.2211C146.144 67.8534 146.242 65.3092 146.482 62.5782C146.562 61.6676 146.547 61.6457 145.859 61.6457C145.596 61.6457 145.367 61.6105 145.319 61.5628C145.274 61.5172 145.236 61.3345 145.236 61.1568C145.236 60.7112 145.34 60.6406 145.961 60.6645C146.612 60.6895 146.642 60.6522 146.687 59.7577L146.721 59.0645L147.186 58.9512ZM103.669 62.4857C103.671 61.5712 104.606 60.6713 105.699 60.5336C105.93 60.5043 106.741 60.4951 107.5 60.5128C109.214 60.553 109.217 60.554 109.247 61.2912C109.27 61.8597 109.196 61.9425 108.826 61.7649C108.292 61.509 107.102 61.4354 106.292 61.6082C105.922 61.687 105.805 61.7481 105.627 61.9531C105.274 62.36 105.258 62.7524 105.577 63.2361C105.767 63.5253 106.109 63.8181 107.223 64.6447C108.697 65.7396 109.208 66.4087 109.207 67.2461C109.206 68.78 107.171 69.7353 104.669 69.377C104.403 69.3389 103.991 69.289 103.752 69.2661C103.382 69.2304 103.293 69.1943 103.145 69.0179C102.992 68.8356 102.974 68.7581 102.992 68.3541C103.011 67.9148 103.019 67.897 103.185 67.9057C103.279 67.9108 103.528 67.9771 103.737 68.0532C104.447 68.3119 105.155 68.4338 105.759 68.4012C107.137 68.327 107.87 67.5395 107.403 66.6333C107.228 66.2934 106.997 66.085 105.808 65.1948C104.159 63.9592 103.667 63.3358 103.669 62.4857ZM113.52 60.8093C113.75 60.7188 114.439 60.6145 115.303 60.5395C115.645 60.5098 116.546 60.497 117.305 60.511C118.463 60.5324 118.759 60.5596 119.131 60.6789C120.265 61.0417 120.908 61.5348 121.385 62.4082C121.708 62.9991 121.794 63.295 121.9 64.1765C121.999 64.9948 121.846 66.2186 121.572 66.8133C120.808 68.4678 119.622 69.3036 117.858 69.4293C116.691 69.5125 115.436 69.0826 114.679 68.3409C114.488 68.1535 114.299 68.0003 114.259 68.0003C114.165 68.0003 114.024 70.2872 114.025 71.8027C114.025 72.6006 114.001 72.9708 113.943 73.0287C113.839 73.1324 112.623 73.1416 112.433 73.0401C112.277 72.9566 112.258 72.591 112.364 71.6938C112.4 71.3909 112.448 70.5214 112.471 69.7616C112.493 69.0018 112.541 68.1004 112.577 67.7585C112.613 67.4166 112.643 66.4841 112.644 65.6864C112.646 63.839 112.768 61.1812 112.857 61.0142C112.9 60.9345 113.001 60.8859 113.126 60.8859C113.236 60.8859 113.414 60.8514 113.52 60.8093ZM125.278 62.9972C125.831 61.7156 127.169 60.7541 128.699 60.5386C129.306 60.4531 131.189 60.5194 131.581 60.6401C133.383 61.1944 134.378 62.3336 134.599 64.0977C134.733 65.1591 134.518 66.1886 133.952 67.2001C133.47 68.0626 132.786 68.6587 131.868 69.0155C131.078 69.3226 130.536 69.4165 129.562 69.4147C127.246 69.4104 125.658 68.4082 125.043 66.5628C124.888 66.0966 124.867 65.9166 124.867 65.0991C124.868 64.1279 124.934 63.7933 125.278 62.9972ZM140.186 61.2811C140.654 60.8346 141.065 60.6097 141.541 60.5397C142.129 60.4532 142.99 60.4632 143.109 60.5578C143.245 60.6657 143.337 61.5473 143.221 61.6194C143.178 61.6456 142.766 61.6603 142.305 61.6522C141.532 61.6386 141.44 61.651 141.124 61.8101C140.757 61.9959 140.236 62.4981 140.005 62.889C139.663 63.4694 139.543 64.5209 139.458 67.674C139.433 68.5981 139.389 69.1953 139.345 69.2227C139.234 69.2912 137.967 69.2967 137.831 69.2293C137.694 69.1618 137.669 68.7197 137.774 68.242C137.808 68.0901 137.856 67.484 137.881 66.8951C137.905 66.3063 137.954 65.6069 137.988 65.341C138.023 65.0751 138.052 63.9522 138.053 62.8456C138.055 61.0726 138.068 60.8226 138.168 60.7404C138.298 60.6319 139.333 60.5939 139.522 60.6908C139.617 60.7391 139.643 60.8416 139.643 61.1605C139.643 61.3849 139.676 61.5888 139.716 61.6137C139.757 61.6386 139.968 61.4889 140.186 61.2811ZM153.928 61.2498C154.259 60.9107 154.876 60.6051 155.372 60.5352C155.882 60.4634 158.547 60.5268 158.711 60.6146C158.898 60.7147 158.961 60.8764 158.988 61.3259C159.018 61.8278 158.914 61.9344 158.554 61.7702C157.98 61.508 156.478 61.4369 155.801 61.6399C155.256 61.8032 154.964 62.3419 155.114 62.9062C155.206 63.2517 155.59 63.6486 156.44 64.279C157.952 65.3992 158.343 65.7627 158.667 66.3495C158.846 66.6727 158.874 66.7914 158.871 67.2405C158.869 67.68 158.839 67.8078 158.676 68.0837C158.296 68.729 157.611 69.1389 156.561 69.3515C155.914 69.4824 154.931 69.4602 153.632 69.2851C152.857 69.1807 152.763 69.1136 152.762 68.6605C152.762 68.5063 152.744 68.318 152.724 68.242C152.704 68.166 152.728 68.0493 152.777 67.9827C152.862 67.8676 152.885 67.8685 153.23 68C155.065 68.6993 156.896 68.4446 157.181 67.4506C157.27 67.1399 157.145 66.5988 156.924 66.3353C156.826 66.2195 156.199 65.7106 155.529 65.2043C154.86 64.698 154.185 64.1459 154.03 63.9774C153.713 63.6337 153.315 62.8593 153.315 62.5863C153.315 62.279 153.662 61.5223 153.928 61.2498ZM196.767 60.9402C197.345 60.6533 197.524 60.6017 198.164 60.5387C198.993 60.4568 200.3 60.5257 200.788 60.677C202.3 61.1466 203.111 62.1883 203.222 63.805C203.241 64.0829 203.286 64.2674 203.218 64.3891C203.068 64.659 202.365 64.6213 199.607 64.6112C197.739 64.6044 196.178 64.6184 196.14 64.6422C196.017 64.7182 195.981 65.1865 196.057 65.7209C196.135 66.2666 196.407 66.9359 196.718 67.3432C196.973 67.6784 197.625 68.097 198.176 68.2805C198.601 68.4221 198.723 68.4312 199.679 68.3931C200.735 68.3509 200.91 68.3219 201.737 68.0522C202.146 67.9187 202.214 67.9126 202.298 68.0021C202.379 68.0884 202.38 68.1708 202.301 68.5447C202.182 69.108 202.08 69.218 201.63 69.2628C201.433 69.2826 201.011 69.3365 200.692 69.3827C199.918 69.4952 198.114 69.4386 197.473 69.2819C195.847 68.8839 194.576 67.5301 194.437 66.048C194.351 65.1339 194.351 64.9526 194.436 64.338C194.546 63.5509 194.566 63.4809 194.86 62.8761C195.314 61.9426 195.857 61.392 196.767 60.9402ZM165.179 62.0601C164.704 60.9101 164.658 60.753 164.774 60.681C164.904 60.6004 166.179 60.6476 166.35 60.7393C166.434 60.7842 166.52 60.9054 166.542 61.0088C166.583 61.1978 166.964 62.2668 167.338 63.2402C167.449 63.5284 167.54 63.7995 167.54 63.8427C167.54 63.8859 167.615 64.0853 167.708 64.2858C167.801 64.4863 167.953 64.8679 168.047 65.1338C168.14 65.3997 168.309 65.866 168.422 66.1699C168.991 67.703 169.029 67.7658 169.265 67.5525C169.339 67.4857 169.435 67.3182 169.478 67.1803C169.522 67.0425 169.659 66.7121 169.783 66.4462C169.908 66.1802 170.088 65.7917 170.185 65.5828C170.281 65.3738 170.582 64.7211 170.854 64.1323C171.611 62.491 172.077 61.4496 172.233 61.0436C172.281 60.9214 172.358 60.7891 172.406 60.7498C172.453 60.7103 172.822 60.6631 173.225 60.6448C173.895 60.6143 173.964 60.6228 174.028 60.7435C174.084 60.8478 174.048 60.9671 173.858 61.3124C173.726 61.5527 173.025 62.946 172.3 64.4085C171.576 65.8711 170.803 67.4253 170.582 67.8621C170.362 68.299 170.144 68.7726 170.098 68.9145C170.053 69.0564 169.98 69.1949 169.935 69.2221C169.891 69.2494 169.482 69.2629 169.025 69.2521C168.397 69.2373 168.167 69.2068 168.078 69.1265C168.013 69.068 167.878 68.7986 167.777 68.5276C167.676 68.2565 167.406 67.5686 167.177 66.9987C166.947 66.4289 166.675 65.7451 166.571 65.4792C166.356 64.9289 165.787 63.53 165.179 62.0601ZM176.663 62.6818C176.673 61.6969 176.747 60.8031 176.827 60.7236C176.927 60.6235 178.217 60.6118 178.375 60.7096C178.45 60.7561 178.46 60.9341 178.422 61.6038C178.396 62.0637 178.346 62.5643 178.31 62.7163C178.275 62.8683 178.243 63.4433 178.239 63.9941C178.236 64.545 178.202 65.2754 178.165 65.6173C178.127 65.9592 178.083 66.8904 178.066 67.6866C178.047 68.5497 178.005 69.1632 177.963 69.2058C177.858 69.311 176.506 69.2558 176.388 69.1415C176.312 69.0678 176.308 68.9619 176.371 68.5774C176.434 68.1861 176.653 63.7671 176.663 62.6818ZM201.544 63.0007C201.283 62.1824 200.919 61.7807 200.219 61.5407C199.603 61.3293 198.995 61.3217 198.267 61.5163C197.22 61.7965 196.569 62.4294 196.259 63.4707C196.231 63.565 196.208 63.6363 196.229 63.6901C196.295 63.8584 196.794 63.856 198.921 63.856C200.932 63.856 201.561 63.8822 201.675 63.6521C201.738 63.5266 201.647 63.3248 201.544 63.0007ZM189.406 61.7326C189.359 61.6855 189.012 61.6002 188.633 61.5431C187.991 61.4463 187.607 61.4258 187.357 61.4749C187.3 61.4862 186.974 61.5339 186.632 61.5809C185.479 61.7397 184.436 62.3948 183.947 63.2689C183.84 63.4588 183.672 63.8473 183.573 64.1323C183.417 64.5805 183.393 64.7621 183.394 65.4792C183.395 66.2226 183.414 66.3547 183.583 66.761C183.803 67.2916 184.077 67.646 184.486 67.9269C185.421 68.5711 186.872 68.5742 187.802 67.934C188.445 67.4913 188.936 66.7976 189.123 66.0653C189.322 65.2891 189.544 61.8742 189.406 61.7326ZM119.726 62.7215C119.337 62.1197 118.848 61.7793 118.136 61.614C117.654 61.5024 116.468 61.4798 116.166 61.5766C116.071 61.607 115.869 61.6355 115.717 61.64C115.289 61.6524 114.558 61.9428 114.464 62.1375C114.42 62.2289 114.348 63.0279 114.302 63.9392C114.227 65.4412 114.23 65.6237 114.343 66.1471C114.568 67.1895 115.296 67.9557 116.364 68.2737C116.961 68.4517 117.411 68.4521 117.983 68.2754C119.117 67.9251 119.857 67.0611 120.206 65.6781C120.436 64.767 120.231 63.5019 119.726 62.7215ZM132.747 63.4479C132.393 62.3781 131.803 61.824 130.792 61.613C130.2 61.4895 129.326 61.4874 128.837 61.6081C128.064 61.799 127.41 62.2875 127.026 62.9595C126.467 63.9388 126.376 65.7863 126.836 66.8078C127.373 68.0009 128.985 68.6752 130.415 68.3048C131.674 67.9786 132.428 67.2519 132.754 66.0478C132.95 65.3228 132.947 64.0523 132.747 63.4479ZM216.037 64.7981C216.037 67.9016 213.521 70.4176 210.418 70.4176C207.314 70.4176 204.798 67.9016 204.798 64.7981C204.798 61.6945 207.314 59.1786 210.418 59.1786C213.521 59.1786 216.037 61.6945 216.037 64.7981ZM212.897 64.7981L208.599 67.2773V62.3189L212.897 64.7981Z" fill="currentColor"/>
<path fill-rule="evenodd" clip-rule="evenodd" d="M216.038 64.8001C216.038 67.9037 213.522 70.4196 210.418 70.4196C207.315 70.4196 204.799 67.9037 204.799 64.8001C204.799 61.6966 207.315 59.1807 210.418 59.1807C213.522 59.1807 216.038 61.6966 216.038 64.8001ZM212.897 64.8001L208.6 67.2793V62.321L212.897 64.8001Z" fill="currentColor"/>
</svg>
