<svg width="100%" height="100%" viewBox="0 0 240 96" fill="none" xmlns="http://www.w3.org/2000/svg">
<mask id="mask0_2501_22056" style="mask-type:luminance" maskUnits="userSpaceOnUse" x="66" y="18" width="109" height="61">
<path d="M174.402 18H66.3984V78.7969H174.402V18Z" fill="white"/>
</mask>
<g mask="url(#mask0_2501_22056)">
<path d="M126.629 17.9958C127.581 18.1804 128.549 18.3034 129.486 18.5341C133.941 19.6723 136.338 22.6713 137.059 27.1162C137.228 28.1928 137.32 29.3001 137.336 30.4074C137.367 34.9138 137.413 39.4355 137.32 43.9418C137.29 45.649 137.121 47.3869 136.691 49.0326C135.569 53.2928 132.589 55.569 128.35 56.2611C127.121 56.461 125.861 56.5534 124.602 56.5534C117.812 56.5841 111.038 56.5687 104.248 56.5687C104.017 56.5687 103.787 56.5687 103.511 56.5687C103.511 48.2789 103.511 40.0507 103.511 31.7609C106.276 31.7609 109.025 31.7609 111.882 31.7609C111.882 37.5591 111.882 43.3727 111.882 49.2017C112.128 49.2325 112.282 49.2479 112.42 49.2479C115.876 49.2479 119.332 49.2633 122.789 49.2325C123.48 49.2325 124.171 49.1556 124.832 48.9864C127.105 48.4328 128.596 46.664 128.795 44.2647C128.887 43.0959 128.902 41.9116 128.887 40.7274C128.872 37.313 128.949 33.914 128.779 30.4998C128.641 27.393 126.568 25.4397 123.449 25.3629C119.455 25.2705 115.461 25.3167 111.468 25.3013C109.087 25.3013 106.706 25.3013 104.325 25.3013C104.048 25.3013 103.772 25.3013 103.449 25.3013C103.449 22.7944 103.449 20.3797 103.449 17.9805C111.161 17.9958 118.902 17.9958 126.629 17.9958Z" fill="currentColor"/>
<path d="M71.7289 67.5215H66.3986V69.3517H68.5337H71.7135C73.3572 69.3517 73.9562 69.8131 73.9562 71.674V74.304C73.9562 75.5498 73.5107 76.8573 72.0668 76.8573H68.5337V71.2588H66.3986V78.6869H72.0821C75.4616 78.6869 76.1067 76.6264 76.1067 74.304V71.674C76.1221 68.6442 74.801 67.5215 71.7289 67.5215Z" fill="currentColor"/>
<path d="M86.5533 75.4575C86.5533 76.657 86.0154 76.9496 84.034 76.9496C81.9602 76.9496 81.5455 76.611 81.5455 75.4575V67.5215H79.4103V75.4575C79.4103 78.5796 81.4226 78.7799 84.034 78.7799C86.7378 78.7799 88.6883 78.5639 88.6883 75.4575V67.5215H86.5533V75.4575Z" fill="currentColor"/>
<path d="M96.5377 72.133C94.3712 71.9946 94.0794 71.9485 94.0794 70.5797C94.0794 69.3954 94.4177 69.1801 96.5527 69.1801C98.0584 69.1801 98.5497 69.2262 98.5497 70.4258V70.7796H100.685V70.4412C100.685 67.5036 98.8265 67.4268 96.5527 67.4268C93.8798 67.4268 91.9443 67.519 91.9443 70.5797C91.9443 73.8248 93.8491 73.7325 96.2609 73.8863C97.9196 73.9787 98.7801 73.7633 98.7801 75.3628C98.7801 76.6547 98.519 77.0237 96.5678 77.0237C94.5865 77.0237 94.0336 76.9315 94.0336 75.655V75.1322H91.8986V75.655C91.8986 78.8541 94.0951 78.7768 96.5678 78.7768C99.4409 78.7768 100.931 78.5158 100.931 75.3628C100.915 72.5329 99.9781 72.3484 96.5377 72.133Z" fill="currentColor"/>
<path d="M110.869 75.2996C110.869 76.899 110.101 76.9605 108.365 76.9605C106.122 76.9605 105.846 76.53 105.831 74.2999V71.8237C105.831 69.6398 106.199 69.2707 108.365 69.2707C110.239 69.2707 110.746 69.363 110.746 70.6549V71.2701H112.881V70.6549C112.728 67.4558 111.146 67.4404 108.365 67.4404C105.077 67.4404 103.695 68.2402 103.695 71.8237V74.3922C103.741 77.6529 104.432 78.9446 108.365 78.8066C111.13 78.6828 113.05 78.8066 113.004 75.438V74.7152H110.869V75.2996Z" fill="currentColor"/>
<path d="M123.573 72.0893H118.381V67.5215H116.231V78.7027H118.381V73.9349H123.573V78.7027H125.708V67.5215H123.573V72.0893Z" fill="currentColor"/>
<path d="M133.726 67.4268C130.178 67.4268 129.01 68.042 129.01 71.5024V74.517C129.01 78.1774 130.27 78.7768 133.726 78.7768C137.106 78.7768 138.488 78.0852 138.488 74.517V71.5178C138.488 67.9189 136.936 67.4268 133.726 67.4268ZM136.353 71.5178V74.5323C136.353 76.6854 135.677 76.9622 133.741 76.9622C131.606 76.9622 131.161 76.7469 131.161 74.5323V71.5178C131.207 69.7491 131.422 69.2723 133.741 69.2723C135.631 69.257 136.399 69.4108 136.353 71.5178Z" fill="currentColor"/>
<path d="M143.941 67.5215H141.791V78.7027H149.149V76.8573H143.941V67.5215Z" fill="currentColor"/>
<path d="M159.073 75.4575C159.073 76.657 158.535 76.9496 156.554 76.9496C154.48 76.9496 154.065 76.611 154.065 75.4575V67.5215H151.93V75.4575C151.93 78.5796 153.943 78.7799 156.554 78.7799C159.257 78.7799 161.208 78.5639 161.208 75.4575V67.5215H159.073V75.4575Z" fill="currentColor"/>
<path d="M170.824 72.9352L174.142 67.5215H171.684L169.119 71.9662L166.523 67.5215H164.019L167.429 72.9352L163.758 78.7027H166.293L169.119 73.981L171.93 78.7027H174.403L170.824 72.9352Z" fill="currentColor"/>
</g>
</svg>
