<svg width="100%" height="100%" viewBox="0 0 240 96" fill="none" xmlns="http://www.w3.org/2000/svg">
<g clip-path="url(#clip0_2501_22071)">
<path fill-rule="evenodd" clip-rule="evenodd" d="M115.449 59.8054V48.5948H131.462V59.8054H135.415V35.6016H131.462V45.1652H115.449V35.602H111.447V59.8054H115.449ZM152.697 57.8251C153.088 59.7576 154.454 59.9991 155.87 59.9991C156.749 59.9991 157.774 59.9002 158.555 59.8054L158.702 59.7571V57.0493L158.457 57.1005C158.114 57.1484 157.675 57.243 157.334 57.243C156.407 57.243 156.017 56.8589 156.017 55.9405V46.5199C156.017 42.0251 150.792 41.3482 147.667 41.3482C141.957 41.3482 139.124 43.3318 138.687 47.5807V47.775H142.25V47.5807C142.348 45.3594 144.057 44.298 147.522 44.298C150.939 44.298 152.452 45.1179 152.452 47.0029C152.452 48.3532 151.525 48.6938 149.572 48.9354L145.715 49.3195C140.152 49.9017 137.955 51.4935 137.955 54.9743C137.955 56.6169 138.687 60.431 145.325 60.431C147.815 60.431 151.084 59.6112 152.697 57.8251ZM150.452 56.1342C149.183 57.0014 147.474 57.4845 145.618 57.4845C143.274 57.4845 141.664 56.4236 141.664 54.8758C141.664 53.2835 142.738 52.5587 145.521 52.1704L149.328 51.6872C150.84 51.4939 151.817 51.3032 152.403 50.8678V52.7013C152.452 54.0554 151.721 55.2632 150.452 56.1342ZM180.618 57.1005C180.278 57.1484 179.838 57.243 179.497 57.243C178.569 57.243 178.177 56.8589 178.177 55.9405V46.5199C178.177 42.0251 172.955 41.3482 169.83 41.3482C164.119 41.3482 161.288 43.3318 160.847 47.5807V47.775H164.413V47.5807C164.509 45.3594 166.218 44.298 169.685 44.298C173.102 44.298 174.615 45.1179 174.615 47.0029C174.615 48.3532 173.688 48.6938 171.735 48.9354L167.877 49.3195C162.312 49.9017 160.115 51.4935 160.115 54.9743C160.115 56.6169 160.847 60.431 167.489 60.431C169.977 60.431 173.296 59.6112 174.908 57.8251C175.298 59.7576 176.664 59.9991 178.08 59.9991C178.96 59.9991 179.985 59.9002 180.766 59.8054L180.913 59.7571V57.0493L180.618 57.1005ZM174.567 52.7013C174.567 54.0081 173.834 55.2159 172.563 56.083C171.295 56.9541 169.586 57.4372 167.733 57.4372C165.389 57.4372 163.776 56.3759 163.776 54.8274C163.776 53.2356 164.852 52.511 167.634 52.123L171.442 51.6399C172.955 51.4456 173.931 51.252 174.516 50.8201L174.567 52.7013ZM181.742 53.9602V54.1506C182.035 58.3082 185.16 60.431 190.969 60.431C193.751 60.431 195.995 59.9479 197.51 58.9339C199.168 57.873 199.999 56.3251 199.999 54.2496C199.999 51.5442 197.999 49.9964 193.654 49.4186L188.869 48.7886C186.527 48.4523 186.087 47.8223 186.087 46.8088C186.087 45.9377 186.575 45.3121 187.503 44.8764C188.283 44.5395 189.357 44.3459 190.578 44.3459C194.238 44.3459 195.606 45.9377 195.703 47.4378V47.6286H199.463V47.4383C199.12 43.5222 195.995 41.3994 190.625 41.3994C188.136 41.3994 186.087 41.9303 184.622 42.9439C183.158 43.9574 182.378 45.4546 182.378 47.2446C182.378 50.1432 184.867 51.735 187.356 52.0756L192.921 52.8003C195.557 53.1365 196.094 53.8612 196.094 54.9743C196.094 55.4574 195.947 56.1338 195.118 56.6652C194.238 57.243 192.822 57.5324 190.87 57.5324C186.916 57.5324 185.499 55.7936 185.499 54.2018V54.0081H181.742V53.9602Z" fill="currentColor"/>
<path fill-rule="evenodd" clip-rule="evenodd" d="M73.1754 21.585C58.6771 21.585 46.9613 33.227 46.9613 47.5778C46.9613 48.1087 46.9613 48.5918 47.0101 49.0749H43.593C43.3977 49.0749 43.3001 49.1696 43.2015 49.3165C43.1536 49.459 40.1275 54.7254 40.0284 54.8722C39.9806 55.0147 39.9806 55.0655 40.1275 55.0655H48.0831C51.3552 65.7427 61.3624 73.5194 73.2232 73.5194C87.7231 73.5194 99.4876 61.8774 99.4876 47.5266C99.4389 33.227 87.6742 21.585 73.1754 21.585ZM54.4291 55.066H61.4113L58.0425 60.8634C56.578 59.1725 55.3088 57.24 54.4291 55.066ZM73.1759 67.5757C67.6607 67.5757 62.6805 65.4017 59.0672 61.8774H64.7317C64.7317 61.8774 81.0338 33.4212 81.133 33.2747C81.23 33.1796 81.1817 33.0844 81.0338 33.0844H74.3963C74.2508 33.0844 74.2508 33.1323 74.2001 33.1796C74.1522 33.2747 64.9758 49.0749 64.9758 49.0749H53.0159C52.9652 48.5918 52.9652 48.0604 52.9652 47.5772C52.9652 36.5141 61.9961 27.5282 73.1759 27.5282C78.8884 27.5282 84.014 29.893 87.7231 33.6628C86.1121 36.3198 78.985 48.3503 78.0087 50.0885C77.4717 48.8334 74.8845 49.0749 73.5186 49.0272C72.9318 49.9933 70.247 55.066 70.247 55.066H73.0782C74.3963 55.066 74.5427 56.4162 74.0068 57.2878C73.4678 58.155 71.3703 61.8774 71.3703 61.8774H78.2533C78.2533 61.8774 86.6989 47.2851 91.4819 39.0243C92.7501 41.6341 93.4345 44.5327 93.4345 47.5778C93.4345 58.5903 84.3547 67.5757 73.1759 67.5757Z" fill="currentColor"/>
</g>
<defs>
<clipPath id="clip0_2501_22071">
<rect width="160" height="52.8301" fill="white" transform="translate(40 21.585)"/>
</clipPath>
</defs>
</svg>
