<svg width="100%" height="100%" viewBox="0 0 240 96" fill="none" xmlns="http://www.w3.org/2000/svg">
<path d="M56.0703 34.5498V62.136H68.1879L79.087 44.6365V62.136H86.3983L96.4848 45.2289V62.136H103.068V32.7559H96.1126L85.9247 50.1368V32.7559H78.7316L62.7892 58.5312V34.5498H56.0703Z" fill="currentColor"/>
<path d="M124.324 41.8955C124.324 45.0602 123.393 47.4804 121.549 49.1559C119.704 50.8314 117.064 51.6776 113.663 51.6776H111.157V62.1366H105.336V32.7227H114.12C117.453 32.7227 119.992 33.4843 121.718 35.0243C123.444 36.5644 124.324 38.8492 124.324 41.8955ZM111.056 45.5341H113.002C114.813 45.5341 116.184 45.1957 117.081 44.5356C117.978 43.8756 118.435 42.894 118.435 41.6247C118.435 40.3385 118.062 39.3907 117.301 38.7646C116.539 38.1553 115.354 37.8337 113.747 37.8337H111.056V45.5341Z" fill="currentColor"/>
<path d="M140.877 62.2213H124.258V32.7227H140.877V37.8506H130.384V44.3325H140.149V49.4605H130.384V57.0763H140.877V62.2213Z" fill="currentColor"/>
<path d="M155.517 39.9839C155.009 39.2223 154.332 38.6131 153.52 38.1561C152.69 37.6991 151.912 37.4791 151.133 37.4791C150.744 37.4791 150.338 37.5129 149.932 37.5976C149.525 37.6822 149.153 37.8345 148.832 38.0715C148.51 38.3084 148.239 38.6131 148.02 38.9684C147.799 39.3408 147.681 39.8146 147.681 40.3901C147.681 40.8809 147.765 41.287 147.935 41.6255C148.104 41.947 148.358 42.2348 148.696 42.4886C149.035 42.7425 149.424 42.9625 149.898 43.1656C150.355 43.3687 150.88 43.5887 151.455 43.8087C152.284 44.1303 153.164 44.5026 154.061 44.8919C154.958 45.2811 155.787 45.8227 156.532 46.4658C157.277 47.1258 157.886 47.9382 158.377 48.9029C158.867 49.8675 159.105 51.0861 159.105 52.5415C159.105 54.217 158.851 55.6555 158.326 56.8741C157.801 58.0926 157.107 59.0911 156.227 59.8865C155.348 60.682 154.332 61.2743 153.198 61.6467C152.065 62.0359 150.896 62.2221 149.695 62.2221C147.935 62.2221 146.226 61.8667 144.584 61.1389C142.942 60.4112 141.571 59.3788 140.488 58.0418L144.38 53.3708C144.99 54.2509 145.769 54.9786 146.767 55.5709C147.749 56.1632 148.73 56.451 149.711 56.451C150.152 56.451 150.575 56.4002 150.998 56.2817C151.421 56.1802 151.776 55.994 152.098 55.7401C152.403 55.4863 152.656 55.1647 152.842 54.7586C153.029 54.3524 153.113 53.8616 153.113 53.2862C153.113 52.7446 152.995 52.2707 152.758 51.8984C152.521 51.5092 152.199 51.1707 151.76 50.8491C151.337 50.5275 150.795 50.2399 150.168 49.986C149.525 49.7321 148.815 49.4444 148.002 49.1398C147.207 48.8351 146.445 48.4798 145.684 48.0736C144.922 47.6674 144.262 47.1427 143.67 46.4996C143.077 45.8566 142.604 45.078 142.248 44.1641C141.893 43.2502 141.706 42.1332 141.706 40.8132C141.706 39.2053 141.977 37.8176 142.536 36.6667C143.094 35.5159 143.822 34.5682 144.719 33.8405C145.616 33.0958 146.649 32.5542 147.782 32.2158C148.916 31.8773 150.067 31.708 151.218 31.708C152.606 31.708 154.027 32.0126 155.483 32.605C156.939 33.2143 158.208 34.0943 159.291 35.279L155.517 39.9839Z" fill="currentColor"/>
<path d="M177.044 62.2199L175.03 56.415H164.994L163.081 62.2199H156.278L167.16 32.6367H173.236L183.999 62.2199H177.044ZM170.087 40.5402L166.788 50.6946H173.303L170.087 40.5402Z" fill="currentColor"/>
<path d="M62.5347 25.9531L56.3066 32.1812H62.6023L62.5347 25.9531Z" fill="currentColor"/>
</svg>
