<svg width="100%" height="100%" viewBox="0 0 240 96" fill="none" xmlns="http://www.w3.org/2000/svg">
<path fill-rule="evenodd" clip-rule="evenodd" d="M54.6288 28.2149C49.5612 29.0577 45.3451 31.2301 41.9493 34.7476C39.089 37.7106 37.2445 41.1705 36.344 45.2616C36.0559 46.5712 35.9971 47.3139 36.0001 49.6123C36.004 52.6238 36.2405 54.1342 37.09 56.5739C38.2933 60.029 41.2817 64.3879 43.2152 65.5084C43.8622 65.8833 44.1062 65.9332 45.2935 65.9332C46.5695 65.9332 46.6794 65.9059 47.4249 65.4043C48.7685 64.5006 49.4467 63.1169 49.2891 61.6009C49.184 60.5887 48.876 60.0056 47.8115 58.8031C45.1481 55.7943 44.0637 52.8116 44.2222 48.9306C44.3133 46.6994 44.7356 45.1374 45.7581 43.2496C48.155 38.8238 52.7195 36.1398 57.8494 36.1398C65.7667 36.1398 71.9568 42.6432 71.4676 50.4474C71.2847 53.3668 70.1779 56.0265 68.1543 58.41C66.7184 60.1012 66.4715 60.5861 66.392 61.8711C66.2109 64.7963 68.9952 66.7514 71.904 65.7415C73.9111 65.0446 77.3285 60.2972 78.6335 56.393C80.4391 50.9909 79.9908 44.9583 77.4079 39.9027C73.6683 32.5829 65.9253 27.9268 57.6151 28.0009C56.6271 28.0096 55.2833 28.1059 54.6288 28.2149ZM96.9745 35.5137C95.1065 36.0739 93.9603 37.8053 94.2401 39.6445C94.5504 41.6846 96.1669 42.9145 98.5374 42.9145C101.155 42.9145 102.822 41.4387 102.799 39.1422C102.774 36.7572 101.122 35.3479 98.3918 35.3832C97.8277 35.3904 97.1898 35.4492 96.9745 35.5137ZM120.577 44.9288C119.177 45.1997 117.907 45.94 116.64 47.2226L115.441 48.4371L115.165 47.725C114.79 46.7569 113.847 45.7913 112.874 45.3788C112.181 45.0847 111.857 45.0452 110.574 45.0974C109.504 45.1408 108.903 45.2438 108.456 45.4606L107.831 45.763L107.791 54.38C107.746 63.7579 107.771 64.0732 108.618 65.0651C109.263 65.8208 110.111 66.0464 112.081 65.9858C113.626 65.9383 113.851 65.8936 114.423 65.5199C114.82 65.2606 115.194 64.8303 115.426 64.3651C115.791 63.6342 115.797 63.5471 115.843 58.2562C115.882 53.8531 115.931 52.8269 116.119 52.5439C116.634 51.7694 118.588 51.0818 119.632 51.3078C120.207 51.4322 121.145 52.2061 121.391 52.7591C121.504 53.0127 121.596 55.0236 121.649 58.3886C121.727 63.3358 121.751 63.6632 122.07 64.3437C122.293 64.8212 122.632 65.2104 123.073 65.4985C123.716 65.9179 123.809 65.9332 125.715 65.9332C127.596 65.9332 127.72 65.9136 128.324 65.5199C128.722 65.2603 129.095 64.8311 129.327 64.3651C129.694 63.6309 129.698 63.5676 129.744 57.8814C129.781 53.3216 129.742 51.8649 129.557 50.8058C129.006 47.6601 127.141 45.571 124.366 44.9914C123.194 44.7466 121.65 44.7211 120.577 44.9288ZM147.894 44.8686C146.006 45.18 144.339 46.2004 142.946 47.8972L142.457 48.4918L142.125 47.7517C141.65 46.692 141.141 46.0932 140.286 45.5887C139.589 45.1774 139.425 45.1471 137.898 45.1471C136.678 45.1471 136.066 45.2199 135.511 45.431L134.765 45.7149L134.808 54.8232C134.851 63.6133 134.863 63.9499 135.164 64.4541C135.336 64.7416 135.745 65.1903 136.073 65.4514C136.638 65.9016 136.752 65.9292 138.297 65.9855C139.192 66.0182 140.174 65.9991 140.477 65.943C141.202 65.8089 142.088 65.0258 142.491 64.1625C142.795 63.5112 142.818 63.1445 142.869 58.0423L142.923 52.6148L143.495 52.1475C144.704 51.1606 146.502 51.0045 147.554 51.7953C148.548 52.5425 148.579 52.7312 148.67 58.6196C148.76 64.3453 148.766 64.3918 149.639 65.1944C150.308 65.8105 151.06 66.0105 152.692 66.0068C154.437 66.0029 155.219 65.7467 155.892 64.9582C156.694 64.0192 156.719 63.7788 156.714 57.3108C156.709 52.1802 156.669 51.1546 156.443 50.2666C155.921 48.2277 154.881 46.7088 153.354 45.759C152.145 45.0065 149.586 44.5893 147.894 44.8686ZM169.273 45.0539C165.442 45.8792 162.743 48.2853 161.312 52.1528C160.979 53.053 160.941 53.4087 160.939 55.6941C160.936 58.491 161.072 59.1762 162.004 61.0695C164.102 65.3313 169.863 67.3231 176.3 66.0122C179.542 65.3521 181.476 63.7074 181.475 61.6118C181.475 60.148 180.554 59.1197 178.863 58.6944L177.891 58.4497L176.982 59.3656C176.213 60.1399 175.909 60.3314 175.009 60.6052C173.578 61.0409 171.652 61.0461 170.49 60.6175C169.239 60.156 168.24 59.0795 167.82 57.7388L167.712 57.397L174.738 57.3539L181.763 57.3108L182.159 56.9434C182.681 56.4601 182.813 55.5372 182.603 53.8502C182.153 50.2528 180.223 47.4522 177.18 45.9841C175.494 45.1706 174.377 44.9038 172.338 44.8278C171.041 44.7794 170.29 44.8347 169.273 45.0539ZM197.898 45.0598C196.485 45.5781 195.347 46.6628 194.88 47.9372C194.775 48.2234 194.65 48.4572 194.603 48.4569C194.556 48.4565 194.381 48.1284 194.214 47.7278C193.797 46.7295 192.873 45.7882 191.907 45.3788C191.214 45.0847 190.891 45.0452 189.607 45.0974C188.537 45.1408 187.936 45.2438 187.489 45.4606L186.864 45.763L186.821 53.9234C186.797 58.5353 186.843 62.4982 186.927 63.0368C187.129 64.3368 187.5 65.0382 188.243 65.5235C188.812 65.8953 189.033 65.938 190.626 65.9846C192.669 66.0444 193.497 65.7929 194.161 64.9122C194.834 64.0198 194.908 63.5391 194.911 60.0209C194.915 56.1759 195.044 55.0524 195.613 53.905C196.066 52.9918 196.855 52.4232 197.925 52.2381C198.724 52.1 200.074 52.3934 200.764 52.8549C201.073 53.0615 201.431 53.2306 201.56 53.2306C201.988 53.2306 203.297 51.8605 203.657 51.0359C203.918 50.4374 204.004 49.9453 204 49.0674C203.988 46.452 202.559 44.9637 199.917 44.8181C198.999 44.7674 198.548 44.8214 197.898 45.0598ZM96.1898 45.4165C95.4353 45.7924 94.8823 46.4839 94.6351 47.3615C94.4241 48.1104 94.4241 62.9699 94.6351 63.7188C94.8823 64.5964 95.4353 65.2879 96.1898 65.6637C96.7774 65.9563 97.136 66.0102 98.4976 66.0102C99.9067 66.0102 100.202 65.9624 100.846 65.6311C102.573 64.7428 102.626 64.4184 102.567 55.0431C102.525 48.1475 102.495 47.4011 102.241 46.8465C101.599 45.4441 100.834 45.0783 98.5315 45.0735C97.1304 45.0706 96.782 45.1217 96.1898 45.4165ZM56.374 45.7981C55.3918 46.1399 54.2924 47.2713 53.9474 48.295C52.7937 51.7189 56.5241 54.8245 59.7904 53.1594C60.3694 52.8643 61.3409 51.7791 61.6375 51.0965C61.7713 50.7883 61.883 50.113 61.8858 49.5958C61.895 47.8676 60.8084 46.347 59.1276 45.7362C58.4334 45.4838 57.1968 45.5117 56.374 45.7981ZM172.976 50.0695C174.287 50.4532 175.384 51.8559 175.384 53.1487V53.6925H171.635H167.887V53.2608C167.887 52.6164 168.619 51.2915 169.267 50.7616C170.297 49.9213 171.624 49.6735 172.976 50.0695ZM56.4635 56.69C55.2567 57.114 54.1777 58.2497 53.8533 59.4373C53.7529 59.8048 53.7062 61.0882 53.7379 62.609C53.7993 65.5515 53.9344 65.9628 55.2006 67.0615C56.1159 67.8557 56.7512 68.0598 58.0775 67.9859C59.343 67.9156 60.3637 67.3744 61.1513 66.3565C61.8465 65.4582 62.0336 64.4064 61.9647 61.7878C61.9118 59.7734 61.876 59.5566 61.4596 58.718C60.9955 57.7835 60.1488 57.0394 59.1276 56.6681C58.4507 56.4221 57.1966 56.4324 56.4635 56.69Z" fill="currentColor"/>
</svg>
