<svg width="100%" height="100%" viewBox="0 0 240 96" fill="none" xmlns="http://www.w3.org/2000/svg">
<path fill-rule="evenodd" clip-rule="evenodd" d="M182.414 27.684C182.118 27.532 181.783 27.4561 181.408 27.4561C181.027 27.4561 180.689 27.532 180.393 27.684C180.098 27.836 179.866 28.0474 179.699 28.3183C179.531 28.5893 179.447 28.8965 179.447 29.2401C179.447 29.5903 179.531 29.9009 179.699 30.1718C179.866 30.4427 180.098 30.6541 180.393 30.8061C180.689 30.9581 181.027 31.034 181.408 31.034C181.783 31.034 182.12 30.9581 182.419 30.8061C182.718 30.6541 182.949 30.4427 183.113 30.1718C183.278 29.9009 183.36 29.5903 183.36 29.2401C183.36 28.8965 183.276 28.5893 183.108 28.3183C182.941 28.0474 182.709 27.836 182.414 27.684ZM151.971 35.8252C152.674 36.2117 153.512 36.5702 154.484 36.9005C155.168 37.1318 155.682 37.3432 156.027 37.5349C156.372 37.7265 156.603 37.9198 156.721 38.1147C156.84 38.3096 156.899 38.5491 156.899 38.8333C156.899 39.1636 156.762 39.4428 156.49 39.6708C156.217 39.8987 155.795 40.0127 155.223 40.0127C154.672 40.0127 154.221 39.9483 153.873 39.8194C153.525 39.6906 153.264 39.4709 153.09 39.1603C152.916 38.8498 152.829 38.4269 152.829 37.8917H149.133C149.133 39.0282 149.422 39.9731 150 40.7263C150.578 41.4796 151.329 42.033 152.252 42.3865C153.175 42.74 154.166 42.9167 155.223 42.9167C156.307 42.9167 157.25 42.7581 158.052 42.441C158.853 42.1238 159.474 41.658 159.915 41.0435C160.355 40.429 160.575 39.6856 160.575 38.8134C160.575 37.6241 160.169 36.6462 159.358 35.8797C158.546 35.1132 157.349 34.4723 155.765 33.9569C154.905 33.6727 154.266 33.4018 153.849 33.1441C153.431 32.8864 153.223 32.5759 153.223 32.2125C153.223 31.9944 153.295 31.7945 153.44 31.6128C153.584 31.4311 153.798 31.2841 154.08 31.1718C154.363 31.0595 154.701 31.0033 155.095 31.0033C155.687 31.0033 156.138 31.147 156.45 31.4344C156.762 31.7219 156.919 32.1101 156.919 32.599H160.585C160.585 31.6607 160.353 30.853 159.89 30.1757C159.427 29.4984 158.788 28.9814 157.973 28.6246C157.158 28.2678 156.229 28.0894 155.184 28.0894C154.113 28.0894 153.151 28.2545 152.296 28.5849C151.442 28.9153 150.774 29.3877 150.291 30.0022C149.808 30.6168 149.566 31.3403 149.566 32.1728C149.566 33.0186 149.791 33.7421 150.242 34.3434C150.692 34.9447 151.268 35.4386 151.971 35.8252ZM93.0949 38.09V28.2877H89.4287V38.09C89.4287 38.6649 89.3137 39.1158 89.0838 39.4429C88.8538 39.77 88.5253 39.9335 88.0983 39.9335C87.7829 39.9335 87.5316 39.8873 87.3443 39.7948C87.1571 39.7023 87.0158 39.5338 86.9205 39.2893C86.8253 39.0448 86.7776 38.6979 86.7776 38.2486H83.0918C83.0918 39.2926 83.302 40.1631 83.7225 40.8602C84.143 41.5573 84.7277 42.0744 85.4767 42.4114C86.2257 42.7484 87.0996 42.9169 88.0983 42.9169C89.0247 42.9169 89.8689 42.7153 90.6311 42.3123C91.3932 41.9092 91.9944 41.341 92.4346 40.6075C92.8748 39.8741 93.0949 39.0349 93.0949 38.09ZM104.084 41.566C104.011 41.2058 103.975 40.6525 103.975 39.9058V35.6935C103.975 34.8543 103.781 34.1424 103.394 33.5576C103.006 32.9728 102.472 32.5334 101.792 32.2394C101.112 31.9453 100.339 31.7983 99.4714 31.7983C98.5187 31.7983 97.6843 31.9486 96.9681 32.2493C96.252 32.5499 95.7001 32.9728 95.3124 33.5179C94.9248 34.0631 94.731 34.6891 94.731 35.3961H98.2592C98.2592 35.0261 98.343 34.7602 98.5105 34.5983C98.678 34.4364 98.9359 34.3555 99.2841 34.3555C99.6849 34.3555 99.9757 34.4678 100.156 34.6924C100.337 34.9171 100.427 35.2442 100.427 35.6737V36.1692H99.5108C97.8025 36.1692 96.5362 36.4748 95.7116 37.086C94.887 37.6972 94.4747 38.5645 94.4747 39.6878C94.4747 40.3155 94.639 40.8755 94.9675 41.3677C95.296 41.86 95.7362 42.2416 96.2881 42.5125C96.84 42.7834 97.4379 42.9189 98.0818 42.9189C98.6994 42.9189 99.2053 42.8214 99.5995 42.6265C99.9937 42.4315 100.332 42.1557 100.615 41.7989C100.7 42.1821 100.799 42.4894 100.91 42.7206H104.429V42.5521C104.271 42.2548 104.156 41.9261 104.084 41.566ZM98.9599 40.33C99.3147 40.33 99.6185 40.2655 99.8715 40.1367C100.124 40.0078 100.31 39.8443 100.428 39.6461V38.0801H99.4329C98.9204 38.0801 98.5542 38.2238 98.3341 38.5112C98.114 38.7987 98.0039 39.1406 98.0039 39.537C98.0039 39.7749 98.0959 39.9665 98.2799 40.1119C98.4638 40.2573 98.6905 40.33 98.9599 40.33ZM120.359 32.7845C119.778 32.1271 118.971 31.7983 117.94 31.7983C117.256 31.7983 116.655 31.9371 116.136 32.2146C115.617 32.4921 115.187 32.8919 114.845 33.4139C114.378 32.3369 113.485 31.7983 112.164 31.7983C111.514 31.7983 110.934 31.9272 110.425 32.1849C109.916 32.4426 109.484 32.8093 109.129 33.285L109.001 31.9966H105.699V42.7206H109.227V35.4259C109.385 35.1814 109.577 34.9914 109.804 34.856C110.031 34.7205 110.279 34.6528 110.548 34.6528C110.824 34.6528 111.041 34.6858 111.198 34.7519C111.356 34.818 111.478 34.9534 111.563 35.1583C111.649 35.3631 111.691 35.6737 111.691 36.09V42.7206H115.229V35.4061C115.532 34.9039 115.975 34.6528 116.56 34.6528C116.823 34.6528 117.033 34.6891 117.191 34.7618C117.348 34.8345 117.47 34.9733 117.555 35.1781C117.641 35.3829 117.683 35.6803 117.683 36.0701V42.7206H121.231V36.0602C121.231 34.5339 120.94 33.442 120.359 32.7845ZM132.813 38.548H126.338C126.476 39.0237 126.734 39.3921 127.112 39.6531C127.489 39.9141 127.957 40.0446 128.516 40.0446C128.989 40.0446 129.437 39.9653 129.861 39.8067C130.285 39.6481 130.645 39.3904 130.94 39.0336L132.507 41.1051C132.271 41.4223 131.947 41.7179 131.537 41.9922C131.126 42.2664 130.641 42.4894 130.083 42.6612C129.524 42.833 128.923 42.9189 128.279 42.9189C127.136 42.9189 126.141 42.681 125.293 42.2053C124.446 41.7295 123.8 41.0935 123.357 40.2973C122.913 39.5011 122.691 38.6372 122.691 37.7055V37.3388C122.691 36.3014 122.882 35.3648 123.263 34.5289C123.644 33.6931 124.226 33.029 125.007 32.5367C125.789 32.0445 126.755 31.7983 127.905 31.7983C128.904 31.7983 129.772 32.0065 130.512 32.4228C131.251 32.839 131.819 33.4403 132.217 34.2266C132.614 35.0129 132.813 35.9479 132.813 37.0315V38.548ZM127.874 34.6719C128.899 34.6719 129.398 35.1179 129.372 36.0099V36.2973H126.297C126.376 35.7952 126.537 35.3987 126.78 35.108C127.023 34.8172 127.388 34.6719 127.874 34.6719ZM137.494 38.6273C136.371 38.3828 135.467 37.9847 134.784 37.4329C134.101 36.8812 133.759 36.156 133.759 35.2574C133.759 34.6297 133.935 34.0532 134.286 33.5279C134.638 33.0026 135.149 32.583 135.819 32.2691C136.489 31.9553 137.284 31.7983 138.204 31.7983C139.163 31.7983 140.002 31.9437 140.722 32.2344C141.441 32.5252 141.995 32.9365 142.382 33.4684C142.77 34.0003 142.964 34.6198 142.964 35.3268H139.426C139.426 34.9171 139.335 34.6247 139.155 34.4496C138.974 34.2745 138.654 34.187 138.194 34.187C137.892 34.187 137.63 34.263 137.41 34.4149C137.19 34.5669 137.08 34.7783 137.08 35.0493C137.08 35.5713 137.642 35.9215 138.765 36.0999C139.567 36.2254 140.268 36.4088 140.87 36.6499C141.471 36.8911 141.963 37.2496 142.348 37.7253C142.732 38.2011 142.924 38.8189 142.924 39.5787C142.924 40.2131 142.731 40.783 142.343 41.2885C141.955 41.7939 141.403 42.192 140.687 42.4828C139.971 42.7735 139.14 42.9189 138.194 42.9189C137.208 42.9189 136.356 42.7388 135.636 42.3787C134.917 42.0186 134.368 41.5561 133.991 40.9911C133.613 40.4262 133.424 39.8497 133.424 39.2616H136.706C136.719 39.6779 136.863 39.9917 137.139 40.2032C137.415 40.4146 137.8 40.5203 138.292 40.5203C138.693 40.5203 139 40.4427 139.214 40.2874C139.427 40.1321 139.534 39.9223 139.534 39.658C139.534 39.4995 139.473 39.3657 139.352 39.2566C139.23 39.1476 139.027 39.0452 138.741 38.9494C138.455 38.8536 138.039 38.7462 137.494 38.6273ZM174.412 31.7983C175.444 31.7983 176.25 32.1271 176.832 32.7845C177.413 33.442 177.704 34.5339 177.704 36.0602V42.7206H174.156V36.0701C174.156 35.6803 174.113 35.3829 174.028 35.1781C173.942 34.9733 173.821 34.8345 173.663 34.7618C173.505 34.6891 173.295 34.6528 173.032 34.6528C172.448 34.6528 172.004 34.9039 171.702 35.4061V42.7206H168.164V36.09C168.164 35.6737 168.121 35.3631 168.036 35.1583C167.95 34.9534 167.829 34.818 167.671 34.7519C167.513 34.6858 167.297 34.6528 167.021 34.6528C166.751 34.6528 166.503 34.7205 166.277 34.856C166.05 34.9914 165.858 35.1814 165.7 35.4259V42.7206H162.172V31.9966H165.473L165.602 33.285C165.956 32.8093 166.388 32.4426 166.897 32.1849C167.407 31.9272 167.987 31.7983 168.637 31.7983C169.958 31.7983 170.851 32.3369 171.318 33.4139C171.659 32.8919 172.09 32.4921 172.609 32.2146C173.128 31.9371 173.729 31.7983 174.412 31.7983ZM179.654 42.7206V31.9965H183.202V42.7206H179.654ZM191.077 39.9744C190.919 40.0008 190.643 40.014 190.249 40.014C189.96 40.014 189.74 39.9826 189.589 39.9198C189.437 39.8571 189.332 39.7514 189.273 39.6027C189.214 39.454 189.184 39.2442 189.184 38.9733V34.5628H190.899V31.9957H189.184V29.2998H185.646V31.9957H184.385V34.5628H185.646V39.5184C185.646 40.688 185.94 41.547 186.528 42.0954C187.117 42.6438 187.985 42.918 189.135 42.918C189.845 42.918 190.492 42.8156 191.077 42.6108V39.9744ZM198.211 31.7966C199.334 31.7966 200.215 32.1435 200.852 32.8373C201.489 33.5311 201.808 34.6412 201.808 36.1675V42.7189H198.26V36.1477C198.26 35.5729 198.142 35.1797 197.905 34.9683C197.669 34.7568 197.311 34.6511 196.831 34.6511C196.233 34.6511 195.803 34.8097 195.54 35.1269V42.7189H192.012V27.4951H195.54V33.1248C195.875 32.7019 196.269 32.3748 196.723 32.1435C197.176 31.9123 197.672 31.7966 198.211 31.7966ZM87.3492 61.8219H91.9615L92.6908 64.2106H96.6527L91.3899 49.7797H87.9011L82.668 64.2106H86.62L87.3492 61.8219ZM91.045 58.8298L89.6455 54.2706L88.2559 58.8298H91.045ZM106.015 62.458C106.403 61.8303 106.594 61.0969 106.587 60.2577H103.276C103.289 60.674 103.184 60.9912 102.96 61.2092C102.737 61.4273 102.405 61.5363 101.965 61.5363C101.564 61.5363 101.262 61.4306 101.058 61.2191C100.854 61.0077 100.72 60.7202 100.654 60.3568C100.588 59.9934 100.556 59.521 100.556 58.9395V58.771C100.556 58.2028 100.588 57.7353 100.654 57.3686C100.72 57.0018 100.853 56.7095 101.053 56.4914C101.254 56.2734 101.551 56.1643 101.945 56.1643C102.398 56.1643 102.737 56.3064 102.96 56.5905C103.184 56.8746 103.289 57.248 103.276 57.7105H106.587C106.594 56.7722 106.406 55.9711 106.025 55.307C105.644 54.6429 105.109 54.1408 104.419 53.8005C103.729 53.4602 102.934 53.29 102.034 53.29C100.956 53.29 100.041 53.5213 99.2891 53.9838C98.5368 54.4464 97.9718 55.0906 97.594 55.9165C97.2162 56.7425 97.0273 57.694 97.0273 58.771V58.9395C97.0273 60.0165 97.2162 60.9664 97.594 61.789C97.9718 62.6117 98.5385 63.2542 99.2941 63.7168C100.05 64.1793 100.969 64.4106 102.054 64.4106C102.927 64.4106 103.709 64.2421 104.399 63.9051C105.089 63.5681 105.628 63.0858 106.015 62.458ZM116.895 61.3975C116.895 62.1442 116.931 62.6976 117.003 63.0577C117.076 63.4178 117.191 63.7465 117.348 64.0438V64.2123H113.83C113.718 63.9811 113.62 63.6738 113.534 63.2906C113.252 63.6474 112.914 63.9233 112.519 64.1182C112.125 64.3131 111.619 64.4106 111.002 64.4106C110.358 64.4106 109.76 64.2751 109.208 64.0042C108.656 63.7333 108.216 63.3517 107.887 62.8594C107.559 62.3672 107.395 61.8072 107.395 61.1795C107.395 60.0562 107.807 59.1889 108.631 58.5777C109.456 57.9665 110.722 57.6609 112.431 57.6609H113.347V57.1654C113.347 56.7359 113.257 56.4088 113.076 56.1842C112.895 55.9595 112.605 55.8472 112.204 55.8472C111.856 55.8472 111.598 55.9281 111.43 56.09C111.263 56.2519 111.179 56.5178 111.179 56.8879H107.651C107.651 56.1808 107.845 55.5548 108.232 55.0097C108.62 54.4645 109.172 54.0417 109.888 53.741C110.604 53.4404 111.438 53.29 112.391 53.29C113.258 53.29 114.032 53.4371 114.712 53.7311C115.392 54.0251 115.926 54.4645 116.314 55.0493C116.701 55.6341 116.895 56.346 116.895 57.1852V61.3975ZM112.791 61.6284C112.538 61.7572 112.235 61.8217 111.88 61.8217C111.61 61.8217 111.384 61.749 111.2 61.6036C111.016 61.4582 110.924 61.2666 110.924 61.0287C110.924 60.6323 111.034 60.2904 111.254 60.0029C111.474 59.7155 111.84 59.5718 112.353 59.5718H113.348V61.1378C113.23 61.336 113.044 61.4995 112.791 61.6284ZM128.181 48.9868V64.2106H125.007L124.83 63.0213C124.153 63.9463 123.306 64.4089 122.287 64.4089C121.4 64.4089 120.65 64.1776 120.035 63.7151C119.421 63.2525 118.958 62.6116 118.646 61.7923C118.334 60.9729 118.178 60.0347 118.178 58.9775V58.7693C118.178 57.6658 118.332 56.7028 118.641 55.8802C118.95 55.0575 119.413 54.4199 120.031 53.9673C120.648 53.5146 121.407 53.2883 122.307 53.2883C123.227 53.2883 124.002 53.665 124.633 54.4182V48.9868H128.181ZM124.056 61.3461C123.809 61.4849 123.518 61.5543 123.183 61.5543C122.638 61.5543 122.255 61.3279 122.035 60.8753C121.815 60.4227 121.705 59.79 121.705 58.9773V58.7692C121.705 57.0182 122.204 56.1427 123.203 56.1427C123.893 56.1427 124.369 56.4202 124.632 56.9752V60.7514C124.494 61.0091 124.302 61.2074 124.056 61.3461ZM139.731 60.0397H133.256C133.394 60.5154 133.652 60.8838 134.029 61.1448C134.407 61.4058 134.875 61.5363 135.434 61.5363C135.907 61.5363 136.355 61.457 136.779 61.2984C137.203 61.1398 137.563 60.8821 137.858 60.5253L139.425 62.5968C139.189 62.914 138.865 63.2096 138.455 63.4839C138.044 63.7581 137.559 63.9811 137.001 64.1529C136.442 64.3247 135.841 64.4106 135.197 64.4106C134.054 64.4106 133.059 64.1727 132.211 63.6969C131.364 63.2212 130.718 62.5852 130.275 61.789C129.831 60.9928 129.609 60.1289 129.609 59.1972V58.8305C129.609 57.7931 129.8 56.8565 130.181 56.0206C130.562 55.1848 131.144 54.5207 131.925 54.0284C132.707 53.5362 133.673 53.29 134.823 53.29C135.822 53.29 136.69 53.4982 137.43 53.9145C138.169 54.3307 138.737 54.932 139.135 55.7183C139.532 56.5046 139.731 57.4396 139.731 58.5232V60.0397ZM134.794 56.1641C135.819 56.1641 136.318 56.6101 136.292 57.5021V57.7895H133.217C133.296 57.2873 133.457 56.8909 133.7 56.6002C133.943 56.3094 134.307 56.1641 134.794 56.1641ZM153.232 53.29C154.264 53.29 155.07 53.6188 155.652 54.2762C156.233 54.9337 156.524 56.0256 156.524 57.5519V64.2123H152.976V57.5618C152.976 57.172 152.934 56.8746 152.848 56.6698C152.763 56.465 152.641 56.3262 152.483 56.2535C152.326 56.1808 152.116 56.1445 151.853 56.1445C151.268 56.1445 150.825 56.3956 150.522 56.8978V64.2123H146.984V57.5817C146.984 57.1654 146.942 56.8548 146.856 56.65C146.771 56.4452 146.649 56.3097 146.491 56.2436C146.334 56.1775 146.117 56.1445 145.841 56.1445C145.572 56.1445 145.324 56.2122 145.097 56.3477C144.87 56.4831 144.678 56.6731 144.52 56.9176V64.2123H140.992V53.4883H144.294L144.422 54.7767C144.777 54.301 145.209 53.9343 145.718 53.6766C146.227 53.4189 146.807 53.29 147.457 53.29C148.778 53.29 149.671 53.8286 150.138 54.9056C150.48 54.3836 150.91 53.9838 151.429 53.7063C151.948 53.4288 152.549 53.29 153.232 53.29ZM163.866 65.7984L168.153 53.4885H164.369L162.703 59.1974L161.126 53.4885H157.342L161.057 64.3513L160.801 64.9955C160.709 65.2202 160.555 65.392 160.338 65.5109C160.121 65.6299 159.773 65.6893 159.293 65.6893L158.859 65.6992V68.3357C159.221 68.4348 159.467 68.4942 159.599 68.5141C159.73 68.5339 159.96 68.5438 160.288 68.5438C161.057 68.5438 161.685 68.4017 162.171 68.1176C162.657 67.8335 163.018 67.4998 163.255 67.1166C163.491 66.7333 163.695 66.2939 163.866 65.7984Z" fill="currentColor"/>
<path d="M41.2727 56.3614C43.1261 58.3941 45.5565 59.9375 48.3994 60.7045C56.3664 62.854 64.5559 58.0918 66.6912 50.0679C68.8265 42.044 69.481 37.4909 69.481 37.4909" stroke="currentColor" stroke-width="7"/>
</svg>
