<svg width="100%" height="100%" viewBox="0 0 240 96" fill="none" xmlns="http://www.w3.org/2000/svg">
<mask id="mask0_2501_21997" style="mask-type:luminance" maskUnits="userSpaceOnUse" x="50" y="17" width="140" height="63">
<path d="M189.047 17H50.9529V79.0016H189.047V17Z" fill="white"/>
</mask>
<g mask="url(#mask0_2501_21997)">
<path d="M142.278 22.877C140.576 19.2847 136.939 16.9988 132.952 16.9988C129.828 16.9988 126.867 18.4217 124.909 20.8477L124.675 21.1275L124.396 20.8943C118.683 16.1357 110.5 15.6925 104.275 19.7979C98.0492 23.9034 95.2754 31.6011 97.4201 38.739C99.5648 45.8769 106.14 50.7521 113.6 50.7754C121.504 50.7521 128.336 45.2704 130.084 37.5727L130.177 37.2228L130.527 37.3161C134.398 38.2724 138.455 36.8962 140.973 33.8171C143.491 30.7147 144.004 26.4693 142.278 22.877ZM123.067 43.8708H113.6C108.798 43.8708 104.671 40.4652 103.762 35.7299C102.876 31.018 105.464 26.3293 109.917 24.5566C114.394 22.8071 119.476 24.4632 122.04 28.5454C124.606 32.6042 123.906 37.9226 120.385 41.1883L123.067 43.8708ZM138.291 28.3121C137.801 30.878 135.563 32.7208 132.952 32.7208H127.799L129.245 31.2746C127.333 29.5018 126.96 26.6092 128.336 24.4166C129.735 22.2006 132.485 21.3142 134.911 22.2472C137.359 23.2036 138.781 25.7462 138.291 28.3121Z" fill="currentColor"/>
<path d="M54.2168 52.4316H50.9527V72.0025H54.2168V52.4316Z" fill="currentColor"/>
<path d="M57.4341 60.2224C56.1983 61.6452 55.5456 63.488 55.6155 65.3775C55.5222 67.267 56.1983 69.1331 57.4574 70.5326C58.7397 71.8389 60.5116 72.5387 62.3302 72.4687C62.983 72.4687 63.6358 72.3987 64.2886 72.2355C64.8948 72.0955 65.4777 71.8623 65.9906 71.5357C66.5269 71.2091 67.0165 70.7892 67.4362 70.3227C67.8558 69.8795 68.2056 69.3897 68.532 68.8765L65.571 67.2436C65.1979 67.8501 64.7316 68.3866 64.1954 68.8531C63.6825 69.203 63.0763 69.3897 62.4468 69.343C61.6074 69.3663 60.8147 69.063 60.2086 68.4799C59.6723 67.8968 59.3226 67.1503 59.2526 66.3572V66.2639H68.6252V65.3308V65.0976V65.0509C68.6718 63.2548 68.0656 61.5053 66.8999 60.129C64.2653 57.6098 60.0453 57.6331 57.4341 60.2224ZM58.9495 63.8613L59.0195 63.6047C59.1128 63.2314 59.2759 62.8815 59.4858 62.5317C59.6723 62.2284 59.9288 61.9485 60.2086 61.7153C60.4883 61.482 60.8147 61.3187 61.1411 61.2021C61.4909 61.0854 61.8639 61.0154 62.2369 61.0154C63.8223 60.9222 65.2446 62.0185 65.501 63.5814L65.571 63.8379H58.9495V63.8613Z" fill="currentColor"/>
<path d="M80.003 58.612V59.9184C78.9538 58.8686 77.5549 58.2621 76.0628 58.2388C74.3608 58.2155 72.7054 58.9386 71.5863 60.2449C70.3739 61.5978 69.7444 63.3707 69.7911 65.1901C69.7444 67.0329 70.3739 68.829 71.5863 70.2286C72.752 71.5349 74.4074 72.258 76.156 72.2114C77.5782 72.1881 78.9538 71.6282 80.003 70.6485V71.8382H83.2904V58.5887H80.003V58.612ZM79.1636 68.1992C78.5109 68.9223 77.5549 69.3189 76.5757 69.2955C75.6198 69.2955 74.7105 68.8757 74.1043 68.1526C73.4282 67.3128 73.1018 66.2631 73.1484 65.2134C73.1018 64.1871 73.4515 63.1607 74.1043 62.3676C74.7338 61.6445 75.6664 61.2246 76.6224 61.2479C77.5782 61.2246 78.5109 61.6445 79.1403 62.3676C79.8165 63.184 80.1895 64.2104 80.1429 65.2834C80.2128 66.3331 79.8631 67.3828 79.1636 68.1992Z" fill="currentColor"/>
<path d="M93.4553 59.0558C92.7092 58.5659 91.8461 58.286 90.9604 58.2627C90.4243 58.2627 89.8881 58.3794 89.3984 58.6126C88.9553 58.8692 88.5353 59.2191 88.1626 59.5923V58.6359H84.9449V72.002H88.1626V65.074C88.1626 62.6481 88.9088 61.4818 90.4243 61.4818C90.9837 61.5051 91.5431 61.715 91.963 62.0883L92.1025 62.1815L93.5716 59.1491L93.4553 59.0558Z" fill="currentColor"/>
<path d="M101.055 58.2658C99.773 58.2658 98.5372 58.779 97.6051 59.6655V58.6391H94.2711V72.0051H97.6051V65.5437C97.6051 63.9575 97.815 62.8378 98.211 62.208C98.6774 61.5549 99.4468 61.205 100.239 61.275C100.916 61.1817 101.591 61.4616 102.035 61.9747C102.455 62.7679 102.641 63.6543 102.548 64.564V72.0284H105.905V63.8642C105.905 61.9981 105.509 60.6218 104.763 59.7821C103.807 58.7324 102.455 58.1959 101.055 58.2658Z" fill="currentColor"/>
<path d="M109.147 52.4316C108.587 52.4316 108.074 52.6649 107.678 53.0615C107.282 53.4347 107.049 53.9712 107.049 54.531C107.049 55.0909 107.259 55.6274 107.654 56.0239C108.051 56.4205 108.587 56.6304 109.147 56.6304C109.706 56.6304 110.219 56.3971 110.616 56.0006C111.012 55.6041 111.245 55.0676 111.245 54.5077L111.268 54.531C111.268 53.9712 111.058 53.4347 110.639 53.0615C110.242 52.6649 109.706 52.4316 109.147 52.4316Z" fill="currentColor"/>
<path d="M110.802 58.7275H107.539V72.0002H110.802V58.7275Z" fill="currentColor"/>
<path d="M122.927 59.7587C121.97 58.7324 120.618 58.1959 119.219 58.2658C117.937 58.2658 116.702 58.779 115.769 59.6655V58.6391H112.412V72.0051H115.769V65.5437C115.769 63.9575 115.979 62.8378 116.375 62.208C116.841 61.5549 117.611 61.205 118.403 61.275C119.08 61.1817 119.756 61.4616 120.199 61.9748C120.618 62.7679 120.805 63.6543 120.711 64.564V72.0284H124.069V63.8642C124.069 61.9748 123.696 60.5985 122.927 59.7587Z" fill="currentColor"/>
<path d="M135.447 59.8713C134.397 58.8216 132.975 58.2384 131.507 58.2617C129.711 58.2151 127.986 59.0082 126.866 60.4311C125.771 61.8307 125.188 63.5802 125.235 65.353C125.188 67.1725 125.794 68.9452 126.983 70.3215C128.032 71.5112 129.548 72.2343 131.133 72.2809C132.718 72.3509 134.28 71.7444 135.423 70.6481V72.141C135.423 74.7535 134.397 76.0364 132.253 76.0364C131.25 76.1065 130.271 75.6632 129.641 74.8702C129.361 74.4503 129.151 73.9604 129.081 73.4472V73.3306H125.771V73.4706C125.888 75.0567 126.61 76.5266 127.822 77.5524C129.081 78.5557 130.644 79.0687 132.253 78.9989C134.141 79.0919 135.959 78.3225 137.218 76.9226C137.848 76.1764 138.291 75.29 138.478 74.3336C138.547 73.9138 138.617 73.4939 138.641 73.074C138.688 72.6075 138.688 72.0476 138.688 71.4411V58.635H135.4V59.8713H135.447ZM135.563 65.2596C135.61 66.2627 135.283 67.2657 134.677 68.0821C134.048 68.8753 133.069 69.3185 132.043 69.2718C131.04 69.3185 130.084 68.8753 129.455 68.0821C128.848 67.2657 128.545 66.2861 128.592 65.2596C128.545 64.2333 128.848 63.2303 129.455 62.4138C130.061 61.6207 131.04 61.1542 132.043 61.2009C132.998 61.1775 133.931 61.5974 134.561 62.3206C135.26 63.1369 135.61 64.1867 135.563 65.2596Z" fill="currentColor"/>
<path d="M151.836 60.2927C150.717 58.9631 149.039 58.2399 147.313 58.2632C145.868 58.2632 144.469 58.8464 143.42 59.8495V58.6365H140.132V79.0004H143.42V70.6496C144.469 71.6759 145.891 72.2824 147.36 72.2824C149.085 72.3291 150.717 71.5827 151.836 70.2997C153.049 68.9234 153.678 67.1506 153.632 65.3311C153.702 63.465 153.049 61.6689 151.836 60.2927ZM150.298 65.3311C150.344 66.3809 149.971 67.3839 149.295 68.177C148.689 68.9001 147.779 69.32 146.824 69.2966C145.845 69.32 144.912 68.9234 144.259 68.177C143.583 67.3606 143.21 66.3109 143.257 65.2612C143.21 64.1882 143.56 63.1618 144.236 62.3454H144.259C144.912 61.6222 145.868 61.2257 146.847 61.249C147.803 61.2257 148.712 61.6456 149.341 62.3921C149.995 63.2318 150.344 64.2815 150.298 65.3311Z" fill="currentColor"/>
<path d="M166.967 60.5051C164.146 57.8225 159.693 57.8225 156.895 60.5051C155.543 61.7647 154.797 63.5375 154.82 65.3803C154.774 67.2697 155.496 69.0892 156.848 70.4188C158.177 71.7717 159.973 72.4948 161.861 72.4715C163.75 72.5182 165.591 71.795 166.943 70.4654C168.296 69.1592 169.042 67.363 168.995 65.4736C169.042 63.6075 168.296 61.8113 166.967 60.5051ZM164.635 68.4361C163.12 69.8823 160.719 69.8823 159.203 68.4127C158.504 67.5963 158.131 66.5232 158.201 65.4269C158.154 64.3772 158.527 63.3509 159.25 62.5811C159.949 61.8347 160.929 61.4381 161.931 61.4848C162.957 61.4381 163.96 61.858 164.659 62.5811C165.358 63.3975 165.732 64.4473 165.684 65.4969C165.708 66.5933 165.335 67.6429 164.635 68.4361Z" fill="currentColor"/>
<path d="M182.1 60.2717C179.279 57.5891 174.826 57.5891 172.028 60.2717C170.676 61.5313 169.93 63.3041 169.953 65.1469C169.906 67.0363 170.629 68.8558 171.981 70.1854C173.31 71.5384 175.129 72.2848 177.018 72.2381C178.906 72.2848 180.748 71.5617 182.1 70.232C183.452 68.9258 184.198 67.1296 184.152 65.2402C184.175 63.3741 183.452 61.5546 182.1 60.2717ZM179.792 68.2027H179.769C178.253 69.6722 175.851 69.6722 174.336 68.2027C173.637 67.3862 173.264 66.3132 173.333 65.2169C173.287 64.1672 173.684 63.1175 174.406 62.3477C175.105 61.6013 176.085 61.2047 177.111 61.2514C178.136 61.2047 179.116 61.6013 179.839 62.3477C180.538 63.1641 180.911 64.2139 180.864 65.2868C180.864 66.3366 180.492 67.3862 179.792 68.2027Z" fill="currentColor"/>
<path d="M189.047 52.4316H185.783V72.0025H189.047V52.4316Z" fill="currentColor"/>
</g>
</svg>
