<svg width="100%" height="100%" viewBox="0 0 240 96" fill="none" xmlns="http://www.w3.org/2000/svg">
<path fill-rule="evenodd" clip-rule="evenodd" d="M60.9427 35.9495C60.9427 32.0168 66.9262 32.0168 66.9262 35.9495C66.9262 39.8823 60.9427 39.8823 60.9427 35.9495ZM158.971 62.5646C156.477 62.5646 153.942 61.7365 152.363 59.295L152.031 62.1092H147.293V33.1758H152.363V44.4763C153.568 42.3642 156.934 41.2062 159.095 41.2062C165.08 41.2062 169.527 44.8485 169.527 51.8845C169.527 58.59 164.997 62.5646 158.971 62.5646ZM203.445 62.5646C200.951 62.5646 198.416 61.7365 196.837 59.295L196.504 62.1092H191.766V33.1758H196.837V44.4763C198.042 42.3642 201.408 41.2062 203.568 41.2062C209.553 41.2062 214 44.8485 214 51.8845C214 58.59 209.471 62.5646 203.445 62.5646ZM203.917 45.9242C200.717 45.9242 197.975 48.3249 197.975 51.8845C197.975 55.569 200.717 57.8865 203.917 57.8865C207.159 57.8865 209.735 55.4445 209.735 51.8845C209.735 48.2013 207.159 45.9242 203.917 45.9242ZM184.312 60.3787L186.885 63L189.814 60.2313L186.885 57.3437C187.536 56.2833 188.088 55.1341 188.542 53.8966L185.08 51.4216C184.825 52.4235 184.449 53.3766 183.957 54.2804C183.405 53.6716 182.577 52.6791 181.472 51.3036C184.292 49.6539 185.702 47.8672 185.702 45.9424C185.702 44.4107 185.116 43.217 183.942 42.3633C182.769 41.5078 181.354 41.0816 179.698 41.0816C178.042 41.0816 176.607 41.5231 175.394 42.4065C174.181 43.2908 173.575 44.5678 173.575 46.237C173.575 47.0428 173.723 47.744 174.018 48.3439C174.315 48.9429 174.788 49.6348 175.438 50.4206C172.539 52.0903 171.089 54.0049 171.089 56.1652C171.089 58.0905 171.789 59.6082 173.19 60.7174C174.59 61.8266 176.379 62.3819 178.559 62.3819C180.738 62.3819 182.655 61.7142 184.312 60.3787ZM180.88 44.9995C180.526 44.7049 180.131 44.558 179.698 44.558C179.264 44.558 178.874 44.7105 178.53 45.0144C178.184 45.3192 178.012 45.7314 178.012 46.2519C178.012 46.7728 178.406 47.5237 179.195 48.5052C180.674 47.7203 181.414 46.9828 181.414 46.296C181.414 45.7267 181.235 45.2941 180.88 44.9995ZM175.497 56.3121C175.497 55.2326 176.257 54.2205 177.775 53.278C178.82 54.5155 180.062 55.8906 181.502 57.4023C180.456 58.2675 179.48 58.6987 178.573 58.6987C177.666 58.6987 176.927 58.4734 176.356 58.0213C175.783 57.5696 175.497 57.0003 175.497 56.3121ZM153.502 51.8845C153.502 48.3249 156.244 45.9242 159.444 45.9242C162.686 45.9242 165.262 48.2013 165.262 51.8845C165.262 55.4445 162.686 57.8865 159.444 57.8865C156.244 57.8865 153.502 55.569 153.502 51.8845ZM139.065 46.1724C136.406 46.1724 133.954 47.5804 133.954 51.3472V62.1092H128.883V41.7025H133.58L133.954 44.0622C135.533 41.5366 137.652 41.1648 139.73 41.1648C141.849 41.1648 143.886 41.9924 145.008 43.1096L142.722 47.4973C141.683 46.6282 140.727 46.1724 139.065 46.1724ZM116.331 58.0524C112.758 58.0524 110.556 56.2313 110.223 53.7065H126.222C127.012 45.3039 122.731 41.0816 115.874 41.0816C109.225 41.0816 104.987 45.552 104.987 51.7609C104.987 58.3005 109.184 62.6473 116.249 62.6473C119.366 62.6473 122.898 61.5706 125.059 59.3359L121.818 56.1485C120.654 57.3493 118.202 58.0524 116.331 58.0524ZM116.041 45.552C113.297 45.552 111.054 46.8764 110.306 49.5256H121.36C121.028 46.8764 118.95 45.552 116.041 45.552ZM102.784 57.1829C102.035 57.556 101.12 57.8038 100.331 57.8038C98.7522 57.8038 97.6724 56.852 97.6724 54.9073V46.0906H103.365V41.7439H97.713V35.9495L92.643 36.4872V41.7439H88.8198V46.0906H92.643V54.9073C92.643 59.9985 95.5517 62.5228 99.9991 62.3578C101.536 62.316 102.742 62.0674 104.196 61.4879L102.784 57.1829ZM78.9946 49.567C82.8595 49.8156 87.7633 50.6851 87.7633 56.1071C87.7633 59.7085 84.8124 62.8127 78.9531 62.8127C75.7115 62.8127 72.4704 62.2746 69.4774 59.17L71.9711 55.5695C73.4254 57.1834 76.7501 58.3837 79.0362 58.4255C80.9486 58.4669 82.7339 57.4729 82.7339 55.9831C82.7339 54.5755 81.5714 53.996 78.662 53.8297C74.7971 53.5411 70.1842 52.1335 70.1842 47.4977C70.1842 42.7792 75.0882 41.1235 78.8281 41.1235C82.0282 41.1235 84.4387 41.7439 86.8075 43.8136L83.9815 47.125C82.5263 45.7593 80.8646 45.3034 78.9116 45.3034C76.5014 45.3034 75.1712 46.0492 75.1712 47.3318C75.1712 48.6567 76.3763 49.402 78.9946 49.567ZM53.0117 51.0986C53.0117 48.4081 51.8901 46.1311 49.1477 46.1311C46.4043 46.1311 44.7005 48.4908 44.7005 51.1809V62.1087H39.6309V51.1809C39.6309 48.4908 38.2177 46.0492 35.4333 46.0492C32.6904 46.0492 31.0696 48.4908 31.0696 51.1809V62.1087H26V41.6616H30.6959L31.0696 44.1445C32.1502 42.0751 34.5193 41.3302 36.4728 41.3302C38.924 41.3302 41.3758 42.3233 42.5403 45.138C44.3678 42.241 46.737 41.4134 49.3973 41.4134C55.2147 41.4134 58.0813 44.973 58.0813 51.0986V62.1087H53.0117V51.0986ZM61.3994 62.1092H66.4695V41.6203H61.3994V62.1092Z" fill="currentColor"/>
</svg>
