<svg width="100%" height="100%" viewBox="0 0 240 96" fill="none" xmlns="http://www.w3.org/2000/svg">
<path d="M71.9331 43.0736C70.466 43.0736 69.2246 43.5476 68.1863 44.473C67.464 43.5476 66.4257 43.0736 65.0714 43.0736C63.8977 43.0736 62.8594 43.4799 61.9791 44.2473L62.1371 43.3445H58.5933L56.6522 54.4045H60.5345L61.6631 47.9265C61.8437 46.9108 62.4079 46.3916 63.3559 46.3916C63.8074 46.3916 64.1459 46.5271 64.4168 46.7753C64.6651 47.0462 64.8005 47.3848 64.8005 47.8136C64.8005 47.9942 64.778 48.1974 64.7328 48.4231L63.6945 54.4045H67.5768L68.7054 47.9265C68.886 46.9108 69.4503 46.3916 70.3983 46.3916C70.8497 46.3916 71.1883 46.5271 71.4591 46.7753C71.7074 47.0462 71.8429 47.3848 71.8429 47.8136C71.8429 47.9942 71.8203 48.2199 71.7751 48.4456L70.7368 54.4045H74.6192L75.7026 48.1974C75.7929 47.7008 75.838 47.2719 75.838 46.8882C75.838 45.7371 75.4769 44.8116 74.7997 44.1119C74.1 43.4348 73.152 43.0736 71.9331 43.0736Z" fill="black"/>
<path d="M81.7133 36.8213C81.0362 36.8213 80.4719 37.047 80.0205 37.4984C79.569 37.9499 79.3433 38.4916 79.3433 39.1236C79.3433 39.7782 79.569 40.3199 80.0205 40.7487C80.4719 41.2002 81.0362 41.4033 81.7133 41.4033C82.3679 41.4033 82.9322 41.2002 83.4062 40.7487C83.8576 40.2973 84.1059 39.7556 84.1059 39.1236C84.1059 38.4916 83.8576 37.9499 83.4062 37.4984C82.9322 37.047 82.3679 36.8213 81.7133 36.8213ZM82.887 43.3445H79.0047L77.0636 54.4045H80.9459L82.887 43.3445Z" fill="black"/>
<path d="M86.8074 49.6201C86.0399 49.6201 85.4305 49.8684 84.9565 50.365C84.4599 50.8616 84.2342 51.4484 84.2342 52.1481C84.2342 52.8704 84.4599 53.4799 84.9565 53.9539C85.4305 54.4504 86.0399 54.6761 86.8074 54.6761C87.5297 54.6761 88.1165 54.4504 88.5905 53.9539C89.0645 53.4799 89.3128 52.8704 89.3128 52.1481C89.3128 51.4484 89.0645 50.8616 88.5905 50.365C88.1165 49.8684 87.5297 49.6201 86.8074 49.6201Z" fill="black"/>
<path fill-rule="evenodd" clip-rule="evenodd" d="M52.46 32.9342H99.6111L94.496 63.0095H47.345L52.46 32.9342ZM193.6 31.5859H99.8405H51.3219L45.7479 64.3578H95.7821H188.027L193.6 31.5859Z" fill="black"/>
<path d="M114.2 43.0763C112.868 43.0763 111.83 43.5277 111.085 44.408L111.266 43.3471H107.722L105.058 58.4701H108.941L109.798 53.4592C110.476 54.2943 111.536 54.7006 112.981 54.7006C113.974 54.7006 114.877 54.4975 115.69 54.0912C116.502 53.6849 117.134 53.1658 117.608 52.5112C118.06 51.8566 118.421 51.1569 118.669 50.4346C118.895 49.7123 119.03 49.0126 119.03 48.2903C119.03 46.8457 118.579 45.6268 117.676 44.6111C116.773 43.5954 115.622 43.0763 114.2 43.0763ZM115.058 48.7192C115.035 49.4414 114.809 50.0283 114.358 50.5023C113.906 50.9989 113.342 51.2246 112.688 51.2246C112.056 51.2246 111.559 51.0215 111.153 50.5926C110.746 50.1863 110.566 49.6446 110.588 48.9674C110.588 48.2903 110.837 47.7034 111.288 47.252C111.74 46.8006 112.304 46.5523 112.981 46.5523C113.59 46.5523 114.087 46.7554 114.493 47.1617C114.877 47.568 115.058 48.0872 115.058 48.7192Z" fill="white"/>
<path d="M129.66 43.3471L129.502 44.2726C128.802 43.46 127.741 43.0537 126.342 43.0537C125.326 43.0537 124.423 43.2568 123.611 43.6631C122.798 44.0694 122.166 44.6111 121.715 45.2657C121.241 45.9203 120.88 46.5974 120.654 47.3197C120.406 48.042 120.293 48.7643 120.293 49.464C120.293 50.9086 120.722 52.15 121.624 53.1658C122.527 54.1815 123.678 54.678 125.123 54.678C126.364 54.678 127.358 54.2718 128.125 53.4592L127.967 54.4072H131.601L133.542 43.3471H129.66ZM126.342 51.2246C125.71 51.2246 125.213 51.0215 124.83 50.6152C124.446 50.2089 124.265 49.6897 124.288 49.0352C124.288 48.3354 124.514 47.7486 124.965 47.252C125.416 46.778 125.958 46.5297 126.635 46.5297C127.245 46.5297 127.741 46.7554 128.148 47.1617C128.554 47.5906 128.734 48.1323 128.734 48.7869C128.712 49.4866 128.464 50.0734 128.012 50.5249C127.561 50.9989 126.996 51.2246 126.342 51.2246Z" fill="white"/>
<path d="M144.872 37.4785L143.698 44.2951C142.998 43.4826 141.937 43.0537 140.515 43.0537C139.499 43.0537 138.597 43.2568 137.784 43.6631C136.971 44.0694 136.339 44.6111 135.888 45.2657C135.414 45.9203 135.053 46.5974 134.827 47.3197C134.579 48.042 134.466 48.7643 134.466 49.464C134.466 50.9086 134.895 52.15 135.798 53.1658C136.701 54.1815 137.852 54.678 139.296 54.678C140.605 54.678 141.644 54.2492 142.411 53.3463L142.231 54.4072H145.774L148.754 37.4785H144.872ZM140.515 51.2246C139.883 51.2246 139.387 51.0215 139.003 50.6152C138.619 50.2089 138.439 49.6897 138.461 49.0352C138.461 48.3354 138.687 47.7486 139.138 47.252C139.59 46.778 140.131 46.5297 140.809 46.5297C141.418 46.5297 141.915 46.7554 142.321 47.1617C142.727 47.5906 142.908 48.1323 142.908 48.7869C142.885 49.4866 142.637 50.0734 142.185 50.5249C141.734 50.9989 141.17 51.2246 140.515 51.2246Z" fill="white"/>
<path d="M159.045 37.4785L157.871 44.2951C157.171 43.4826 156.111 43.0537 154.689 43.0537C153.673 43.0537 152.77 43.2568 151.957 43.6631C151.145 44.0694 150.513 44.6111 150.061 45.2657C149.587 45.9203 149.226 46.5974 149.001 47.3197C148.752 48.042 148.639 48.7643 148.639 49.464C148.639 50.9086 149.068 52.15 149.971 53.1658C150.874 54.1815 152.025 54.678 153.47 54.678C154.779 54.678 155.817 54.2492 156.585 53.3463L156.404 54.4072H159.948L162.927 37.4785H159.045ZM154.689 51.2246C154.057 51.2246 153.56 51.0215 153.176 50.6152C152.793 50.2089 152.612 49.6897 152.635 49.0352C152.635 48.3354 152.86 47.7486 153.312 47.252C153.763 46.778 154.305 46.5297 154.982 46.5297C155.591 46.5297 156.088 46.7554 156.494 47.1617C156.901 47.5906 157.081 48.1323 157.081 48.7869C157.059 49.4866 156.81 50.0734 156.359 50.5249C155.907 50.9989 155.343 51.2246 154.689 51.2246Z" fill="white"/>
<path d="M169.336 37.4785H165.454L162.474 54.4072H166.356L169.336 37.4785Z" fill="white"/>
<path d="M180.716 47.9291C180.716 46.5749 180.242 45.4463 179.317 44.4983C178.369 43.5503 177.15 43.0763 175.615 43.0763C173.854 43.0763 172.342 43.6857 171.101 44.882C169.859 46.0783 169.25 47.5229 169.25 49.2383C169.25 50.8183 169.791 52.1275 170.897 53.1432C172.003 54.1815 173.448 54.678 175.231 54.678C176.856 54.678 178.391 54.1815 179.836 53.1883L178.594 50.6152C177.556 51.202 176.563 51.4729 175.57 51.4729C174.306 51.4729 173.493 51.0666 173.155 50.2089H180.265C180.558 49.5092 180.716 48.7417 180.716 47.9291ZM175.299 46.0783C175.773 46.0783 176.179 46.2363 176.518 46.5297C176.856 46.8231 177.037 47.2294 177.059 47.726H173.132C173.313 47.2294 173.583 46.8231 173.967 46.5297C174.351 46.2363 174.802 46.0783 175.299 46.0783Z" fill="white"/>
</svg>
