<svg width="100%" height="100%" viewBox="0 0 240 96" fill="none" xmlns="http://www.w3.org/2000/svg">
<path d="M71.9323 43.0739C70.4652 43.0739 69.2237 43.5479 68.1854 44.4733C67.4631 43.5479 66.4249 43.0739 65.0706 43.0739C63.8968 43.0739 62.8585 43.4801 61.9783 44.2476L62.1363 43.3447H58.5925L56.6514 54.4048H60.5337L61.6623 47.9267C61.8428 46.911 62.4071 46.3919 63.3551 46.3919C63.8066 46.3919 64.1451 46.5273 64.416 46.7756C64.6643 47.0465 64.7997 47.385 64.7997 47.8139C64.7997 47.9945 64.7771 48.1976 64.732 48.4233L63.6937 54.4048H67.576L68.7046 47.9267C68.8852 46.911 69.4494 46.3919 70.3974 46.3919C70.8489 46.3919 71.1875 46.5273 71.4583 46.7756C71.7066 47.0465 71.842 47.385 71.842 47.8139C71.842 47.9945 71.8195 48.2202 71.7743 48.4459L70.736 54.4048H74.6183L75.7018 48.1976C75.792 47.701 75.8372 47.2722 75.8372 46.8885C75.8372 45.7373 75.476 44.8119 74.7989 44.1121C74.0992 43.435 73.1512 43.0739 71.9323 43.0739Z" fill="white"/>
<path d="M81.7125 36.8215C81.0354 36.8215 80.4711 37.0472 80.0196 37.4987C79.5682 37.9501 79.3425 38.4918 79.3425 39.1238C79.3425 39.7784 79.5682 40.3201 80.0196 40.749C80.4711 41.2004 81.0354 41.4036 81.7125 41.4036C82.3671 41.4036 82.9314 41.2004 83.4054 40.749C83.8568 40.2976 84.1051 39.7558 84.1051 39.1238C84.1051 38.4918 83.8568 37.9501 83.4054 37.4987C82.9314 37.0472 82.3671 36.8215 81.7125 36.8215ZM82.8862 43.3447H79.0039L77.0628 54.4048H80.9451L82.8862 43.3447Z" fill="white"/>
<path d="M86.8066 49.6204C86.0391 49.6204 85.4297 49.8686 84.9557 50.3652C84.4591 50.8618 84.2334 51.4487 84.2334 52.1484C84.2334 52.8707 84.4591 53.4801 84.9557 53.9541C85.4297 54.4507 86.0391 54.6764 86.8066 54.6764C87.5288 54.6764 88.1157 54.4507 88.5897 53.9541C89.0637 53.4801 89.312 52.8707 89.312 52.1484C89.312 51.4487 89.0637 50.8618 88.5897 50.3652C88.1157 49.8686 87.5288 49.6204 86.8066 49.6204Z" fill="white"/>
<path fill-rule="evenodd" clip-rule="evenodd" d="M52.4601 32.9346H99.6112L94.4962 63.0099H47.3451L52.4601 32.9346ZM193.6 31.5863H99.8407H51.322L45.748 64.3582H95.7823H188.027L193.6 31.5863Z" fill="white"/>
<path d="M114.199 43.0763C112.867 43.0763 111.829 43.5277 111.084 44.408L111.265 43.3471H107.721L105.058 58.4701H108.94L109.798 53.4592C110.475 54.2943 111.536 54.7006 112.98 54.7006C113.973 54.7006 114.876 54.4975 115.689 54.0912C116.501 53.6849 117.133 53.1658 117.607 52.5112C118.059 51.8566 118.42 51.1569 118.668 50.4346C118.894 49.7123 119.029 49.0126 119.029 48.2903C119.029 46.8457 118.578 45.6268 117.675 44.6111C116.772 43.5954 115.621 43.0763 114.199 43.0763ZM115.057 48.7192C115.034 49.4414 114.809 50.0283 114.357 50.5023C113.906 50.9989 113.341 51.2246 112.687 51.2246C112.055 51.2246 111.558 51.0215 111.152 50.5926C110.746 50.1863 110.565 49.6446 110.588 48.9674C110.588 48.2903 110.836 47.7034 111.287 47.252C111.739 46.8006 112.303 46.5523 112.98 46.5523C113.59 46.5523 114.086 46.7554 114.493 47.1617C114.876 47.568 115.057 48.0872 115.057 48.7192Z" fill="black"/>
<path d="M129.659 43.3471L129.501 44.2726C128.801 43.46 127.74 43.0537 126.341 43.0537C125.325 43.0537 124.422 43.2568 123.61 43.6631C122.797 44.0694 122.165 44.6111 121.714 45.2657C121.24 45.9203 120.879 46.5974 120.653 47.3197C120.405 48.042 120.292 48.7643 120.292 49.464C120.292 50.9086 120.721 52.15 121.624 53.1658C122.526 54.1815 123.678 54.678 125.122 54.678C126.364 54.678 127.357 54.2718 128.124 53.4592L127.966 54.4072H131.6L133.541 43.3471H129.659ZM126.341 51.2246C125.709 51.2246 125.212 51.0215 124.829 50.6152C124.445 50.2089 124.264 49.6897 124.287 49.0352C124.287 48.3354 124.513 47.7486 124.964 47.252C125.416 46.778 125.957 46.5297 126.634 46.5297C127.244 46.5297 127.74 46.7554 128.147 47.1617C128.553 47.5906 128.734 48.1323 128.734 48.7869C128.711 49.4866 128.463 50.0734 128.011 50.5249C127.56 50.9989 126.996 51.2246 126.341 51.2246Z" fill="black"/>
<path d="M144.871 37.4785L143.697 44.2951C142.997 43.4826 141.936 43.0537 140.514 43.0537C139.499 43.0537 138.596 43.2568 137.783 43.6631C136.971 44.0694 136.339 44.6111 135.887 45.2657C135.413 45.9203 135.052 46.5974 134.826 47.3197C134.578 48.042 134.465 48.7643 134.465 49.464C134.465 50.9086 134.894 52.15 135.797 53.1658C136.7 54.1815 137.851 54.678 139.296 54.678C140.605 54.678 141.643 54.2492 142.41 53.3463L142.23 54.4072H145.774L148.753 37.4785H144.871ZM140.514 51.2246C139.882 51.2246 139.386 51.0215 139.002 50.6152C138.618 50.2089 138.438 49.6897 138.46 49.0352C138.46 48.3354 138.686 47.7486 139.138 47.252C139.589 46.778 140.131 46.5297 140.808 46.5297C141.417 46.5297 141.914 46.7554 142.32 47.1617C142.726 47.5906 142.907 48.1323 142.907 48.7869C142.884 49.4866 142.636 50.0734 142.185 50.5249C141.733 50.9989 141.169 51.2246 140.514 51.2246Z" fill="black"/>
<path d="M159.044 37.4785L157.87 44.2951C157.171 43.4826 156.11 43.0537 154.688 43.0537C153.672 43.0537 152.769 43.2568 151.957 43.6631C151.144 44.0694 150.512 44.6111 150.061 45.2657C149.587 45.9203 149.225 46.5974 149 47.3197C148.751 48.042 148.639 48.7643 148.639 49.464C148.639 50.9086 149.067 52.15 149.97 53.1658C150.873 54.1815 152.024 54.678 153.469 54.678C154.778 54.678 155.816 54.2492 156.584 53.3463L156.403 54.4072H159.947L162.926 37.4785H159.044ZM154.688 51.2246C154.056 51.2246 153.559 51.0215 153.175 50.6152C152.792 50.2089 152.611 49.6897 152.634 49.0352C152.634 48.3354 152.859 47.7486 153.311 47.252C153.762 46.778 154.304 46.5297 154.981 46.5297C155.591 46.5297 156.087 46.7554 156.493 47.1617C156.9 47.5906 157.08 48.1323 157.08 48.7869C157.058 49.4866 156.809 50.0734 156.358 50.5249C155.907 50.9989 155.342 51.2246 154.688 51.2246Z" fill="black"/>
<path d="M169.335 37.4785H165.453L162.473 54.4072H166.356L169.335 37.4785Z" fill="black"/>
<path d="M180.715 47.9291C180.715 46.5749 180.241 45.4463 179.316 44.4983C178.368 43.5503 177.149 43.0763 175.614 43.0763C173.853 43.0763 172.341 43.6857 171.1 44.882C169.858 46.0783 169.249 47.5229 169.249 49.2383C169.249 50.8183 169.791 52.1275 170.897 53.1432C172.003 54.1815 173.447 54.678 175.23 54.678C176.855 54.678 178.39 54.1815 179.835 53.1883L178.593 50.6152C177.555 51.202 176.562 51.4729 175.569 51.4729C174.305 51.4729 173.492 51.0666 173.154 50.2089H180.264C180.557 49.5092 180.715 48.7417 180.715 47.9291ZM175.298 46.0783C175.772 46.0783 176.178 46.2363 176.517 46.5297C176.855 46.8231 177.036 47.2294 177.059 47.726H173.131C173.312 47.2294 173.583 46.8231 173.966 46.5297C174.35 46.2363 174.801 46.0783 175.298 46.0783Z" fill="black"/>
</svg>
