<svg width="100%" height="100%" viewBox="0 0 240 96" fill="none" xmlns="http://www.w3.org/2000/svg">
<rect x="40.2002" y="31.778" width="27.1744" height="27.1744" rx="10.5273" fill="white"/>
<rect x="40.2002" y="31.778" width="27.1744" height="27.1744" rx="10.5273" fill="white"/>
<path d="M62.1387 51.1059L58.8825 51.9673C57.7169 52.2767 56.4834 52.2114 55.357 51.7805C54.2306 51.3496 53.2684 50.575 52.607 49.5666C52.3194 49.689 52.0224 49.788 51.7189 49.8626L46.3166 51.3101C46.5505 51.0437 46.7932 50.7625 47.03 50.4605C47.7317 49.6055 48.3197 48.6633 48.7795 47.6573C49.2632 46.6511 49.4235 45.5198 49.2383 44.4188C48.9008 42.8174 47.5599 41.364 46.4469 40.3782C46.1331 40.1 45.8223 39.8454 45.5381 39.6263L48.7943 38.7649C49.9597 38.455 51.1933 38.5205 52.3194 38.952C53.4455 39.3836 54.4069 40.1592 55.0669 41.1686C55.3545 41.0463 55.6514 40.9473 55.9549 40.8726L61.3602 39.4221C61.1234 39.6885 60.8836 39.9697 60.6438 40.2717C59.9441 41.1275 59.3571 42.0696 58.8973 43.0749C58.4136 44.0811 58.2533 45.2124 58.4385 46.3133C58.7759 47.9148 60.1169 49.3682 61.227 50.354C61.5467 50.6322 61.8575 50.8868 62.1387 51.1059Z" fill="black"/>
<path d="M77.5645 55.9818H80.6659V48.1834H87.4959C87.9489 48.1834 88.6807 48.1497 89.3428 48.0489C93.3851 47.4438 95.5456 44.2808 95.5456 40.5246C95.5456 36.7685 93.3851 33.6054 89.3428 33.0004C88.6807 32.8995 87.9838 32.8659 87.4959 32.8659H77.5645V55.9818ZM80.6659 45.3262V35.6895H87.3914C87.8095 35.6895 88.4368 35.7231 88.9595 35.8576C91.3639 36.3618 92.3745 38.2928 92.3745 40.5246C92.3745 42.7565 91.3639 44.6539 88.9595 45.1917C88.4368 45.2925 87.8095 45.3262 87.3914 45.3262H80.6659Z" fill="white"/>
<path d="M100.938 38.9395C100.311 39.3765 99.7535 39.9815 99.3353 40.6874V37.8302H96.5475V55.9818H99.6838V46.8724C99.6838 44.7211 100.137 42.5698 101.949 41.3261C103.273 40.3849 104.946 40.3176 106.27 40.6202V37.8302C104.597 37.4604 102.367 37.7966 100.938 38.9395Z" fill="white"/>
<path d="M114.468 56.486C120.078 56.486 123.563 52.5868 123.563 46.8724C123.563 41.2588 120.113 37.326 114.468 37.326C108.962 37.326 105.408 41.1916 105.408 46.8724C105.408 52.5196 108.858 56.486 114.468 56.486ZM114.468 53.6288C110.67 53.6288 108.718 50.9733 108.718 46.8724C108.718 42.9059 110.53 40.1496 114.468 40.1496C118.336 40.1496 120.253 42.8051 120.253 46.8724C120.253 50.8725 118.371 53.6288 114.468 53.6288Z" fill="white"/>
<path d="M125.009 36.0929H128.111V33.0004H125.009V36.0929ZM121.211 64.0492H123.406C126.508 64.0492 128.111 62.4693 128.111 59.4777V37.8302H125.009V58.4693C125.009 60.3853 124.034 61.192 122.222 61.192H121.211V64.0492Z" fill="white"/>
<path d="M132.665 47.7464H147.057C147.371 41.2925 144.06 37.326 138.38 37.326C132.909 37.326 129.32 41.0572 129.32 47.0069C129.32 52.6876 132.979 56.486 138.519 56.486C142.178 56.486 145.28 54.6373 146.778 51.4439L143.781 50.4355C142.736 52.5196 140.854 53.6288 138.38 53.6288C134.93 53.6288 132.909 51.5112 132.665 47.7464ZM138.485 40.0151C141.691 40.0151 143.468 41.7631 143.886 45.3262H132.735C133.153 41.8975 135.139 40.0151 138.485 40.0151Z" fill="white"/>
<path d="M156.706 56.486C160.574 56.486 163.432 54.6373 164.756 51.2422L161.62 50.4691C160.749 52.5196 159.146 53.6288 156.706 53.6288C152.943 53.6288 151.061 50.9397 151.026 46.906C151.061 42.9732 152.838 40.1496 156.706 40.1496C158.971 40.1496 160.888 41.3933 161.689 43.4774L164.756 42.6034C163.745 39.3428 160.679 37.326 156.741 37.326C151.061 37.326 147.785 41.2252 147.716 46.906C147.785 52.4523 150.957 56.486 156.706 56.486Z" fill="white"/>
<path d="M169.16 40.284H174.84V37.8302H169.16V33.0004H166.059V49.1245C166.059 51.0069 165.954 52.3851 166.686 53.7969C168.01 56.2844 171.46 56.6541 174.84 55.9818V53.3935C172.261 53.7969 170.38 53.6961 169.543 52.2507C169.09 51.4775 169.16 50.4691 169.16 48.9901V40.284Z" fill="white"/>
<path d="M177.987 55.9818H181.785L188.511 46.2673L195.202 55.9818H199L190.393 43.7127L198.791 31.7797H194.992L188.511 41.1916L181.994 31.7797H178.231L186.629 43.7127L177.987 55.9818Z" fill="white"/>
</svg>
