<svg width="100%" height="100%" viewBox="0 0 240 96" fill="none" xmlns="http://www.w3.org/2000/svg">
<g id="phlex_logo">
<g id="Group 3617">
<g id="Group 3616">
<path id="Path 456" d="M153.174 60.3891C153.637 59.8097 154.111 59.2387 154.559 58.6484C155.147 57.8716 155.704 57.0742 156.291 56.2937C156.72 55.7246 157.185 55.1821 157.617 54.6154C158.121 53.9536 158.593 53.2664 159.106 52.6119C159.577 52.0119 160.095 51.4494 160.572 50.856C160.917 50.4262 161.229 49.9696 161.557 49.524C161.806 49.1898 162.048 48.8495 162.311 48.5268C162.482 48.3161 162.492 48.1847 162.298 47.9474C161.715 47.2305 161.182 46.4719 160.629 45.7296C160.211 45.1671 159.799 44.5998 159.372 44.0433C158.819 43.3222 158.255 42.6102 157.694 41.8945C156.924 40.9113 156.143 39.9371 155.387 38.9423C154.767 38.1249 154.176 37.2839 153.576 36.452C153.533 36.3792 153.495 36.3038 153.461 36.2262C153.613 36.1896 153.768 36.1643 153.924 36.1505C154.875 36.1432 155.827 36.1505 156.779 36.1432C157.318 36.1402 157.493 36.5979 157.77 36.9182C158.09 37.2888 158.388 37.6781 158.688 38.0686C159.014 38.4894 159.331 38.9163 159.65 39.3401C160.018 39.8335 160.381 40.3312 160.752 40.8235C161.345 41.6098 161.941 42.3943 162.539 43.1769C162.891 43.6389 163.247 44.0978 163.601 44.558C163.809 44.828 164.013 45.1029 164.224 45.3675C164.405 45.5976 164.541 45.6829 164.774 45.3602C165.214 44.7487 165.739 44.1977 166.196 43.5971C166.862 42.7198 167.493 41.8134 168.158 40.9331C168.632 40.3052 169.149 39.7094 169.626 39.0828C170.183 38.3514 170.71 37.5963 171.265 36.8625C171.386 36.6274 171.574 36.4328 171.804 36.3026C172.034 36.1725 172.298 36.1125 172.562 36.1299C173.364 36.2092 174.181 36.1438 174.991 36.1493C175.15 36.1597 175.309 36.1799 175.466 36.2098L175.546 36.3309C175.137 36.8819 174.732 37.4359 174.316 37.982C173.957 38.4543 173.59 38.9187 173.22 39.3837C172.815 39.8953 172.397 40.3978 172.002 40.9173C171.66 41.3684 171.351 41.8455 171.01 42.2978C170.434 43.0619 169.844 43.8151 169.262 44.5737C169.032 44.8765 168.81 45.1792 168.58 45.4819C167.975 46.2727 167.378 47.067 166.764 47.8511C166.495 48.1956 166.514 48.3355 166.803 48.6703C167.157 49.0832 167.461 49.5373 167.799 49.9648C168.297 50.5945 168.81 51.2127 169.306 51.8417C169.532 52.1287 169.722 52.443 169.948 52.7293C170.469 53.3863 171.004 54.0311 171.526 54.6868C171.762 54.9841 171.979 55.2971 172.205 55.6029C172.571 56.0982 172.935 56.5965 173.306 57.0887C174.003 58.0114 174.704 58.9315 175.408 59.849C175.567 60.0543 175.761 60.2323 176 60.4884C175.847 60.5329 175.691 60.5641 175.532 60.5816C174.528 60.5889 173.524 60.578 172.521 60.5889C172.018 60.5944 171.85 60.1905 171.598 59.8866C171.296 59.5203 170.997 59.1497 170.708 58.7719C170.366 58.3245 170.048 57.8589 169.7 57.4163C169.117 56.677 168.509 55.9583 167.931 55.2154C167.363 54.484 166.827 53.7284 166.264 52.9933C165.881 52.4944 165.477 52.0143 165.082 51.5227C164.967 51.378 164.862 51.2248 164.761 51.0704C164.594 50.8161 164.426 50.8778 164.27 51.0704C163.887 51.543 163.507 52.0185 163.132 52.4968C162.554 53.2291 161.978 53.9627 161.405 54.6977C161.163 55.0077 160.929 55.3238 160.693 55.6374L159.539 57.1698C158.858 58.072 158.183 58.979 157.493 59.8744C157.362 60.1108 157.166 60.3047 156.929 60.4334C156.691 60.5622 156.422 60.6203 156.152 60.601C155.349 60.5229 154.532 60.5859 153.721 60.5798C153.56 60.5693 153.4 60.5491 153.242 60.5193L153.174 60.3891Z" fill="black"/>
<path id="Path 457" d="M159.959 36.2759C160.085 36.0464 160.223 35.8241 160.373 35.6099C161.089 34.6815 161.813 33.7573 162.544 32.8374C163.013 32.2457 163.491 31.6604 163.976 31.0816C164.543 30.4053 164.527 30.4265 165.062 31.1288C165.719 31.9922 166.429 32.8156 167.095 33.6718C167.683 34.4292 168.231 35.2181 168.824 35.9725C169.006 36.1996 169.157 36.3031 168.899 36.6192C168.035 37.6769 167.227 38.7807 166.392 39.8615C165.859 40.5505 165.319 41.234 164.773 41.9122C164.547 42.1937 164.391 42.1798 164.154 41.8728C163.707 41.2934 163.272 40.7049 162.818 40.1309C162.334 39.5157 161.826 38.9199 161.34 38.3036C160.916 37.7677 160.503 37.2222 160.095 36.6731C160.033 36.5471 159.987 36.4136 159.959 36.2759ZM162.455 36.3837C162.564 36.5417 162.684 36.7397 162.828 36.9195C163.333 37.5486 163.85 38.1686 164.353 38.7964C164.484 38.9599 164.563 38.9962 164.694 38.7964C164.824 38.5966 164.991 38.4301 165.135 38.243C165.566 37.6842 166.003 37.1296 166.413 36.555C166.451 36.4904 166.472 36.4178 166.476 36.3432C166.479 36.2686 166.465 36.1942 166.434 36.1263C165.883 35.355 165.295 34.6096 164.743 33.8389C164.579 33.6094 164.491 33.6009 164.319 33.8165C163.748 34.543 163.162 35.252 162.592 35.9756C162.528 36.1046 162.482 36.2419 162.455 36.3837Z" fill="black"/>
</g>
<g id="Group 1070">
<path id="Path 1" d="M66.0964 68.9826H63.0248C63.0188 68.8573 63.0086 68.7241 63.0086 68.5909C63.0086 60.2556 63.0057 51.9204 63 43.5851C63.072 42.8267 63.2462 42.0815 63.5177 41.3697C63.7082 40.8008 63.9764 40.2609 64.3146 39.7653C64.5589 39.3609 64.8616 38.9949 65.213 38.6791C65.66 38.2543 66.1513 37.8786 66.6783 37.5583C67.2825 37.2136 67.9185 36.9281 68.5776 36.7058C70.2478 36.173 72.0101 35.992 73.7537 36.1742C74.5663 36.2713 75.3708 36.428 76.1605 36.6429C76.6271 36.7445 77.0824 36.8924 77.5197 37.0843C77.9909 37.307 78.4424 37.5693 78.8693 37.8683C79.3207 38.1713 79.7491 38.5073 80.151 38.8734C80.5307 39.2241 80.8772 39.6092 81.1859 40.0238C81.5153 40.4909 81.8185 40.9761 82.094 41.4769C82.245 41.7393 82.3697 42.0159 82.4664 42.3028C82.6075 42.7193 82.7267 43.145 82.8297 43.5742C83.0113 44.3214 83.2123 45.0667 83.3207 45.8254C83.4082 46.5313 83.4487 47.2423 83.4418 47.9536C83.4747 48.9072 83.4545 49.8619 83.3813 50.8132C83.2619 51.6357 83.093 52.4504 82.8756 53.2526C82.805 53.6225 82.7016 53.9854 82.5668 54.337C82.2673 55.0992 81.9197 55.8415 81.5261 56.5597C81.1879 57.1195 80.7793 57.6337 80.3103 58.0897C79.8903 58.4713 79.4345 58.8115 78.9492 59.1057C78.5042 59.4029 78.041 59.6742 77.5694 59.9291C77.2953 60.0794 77.0047 60.1976 76.7035 60.2815C76.1677 60.4262 75.6204 60.5291 75.0798 60.6526C73.7877 60.9415 72.4581 61.0253 71.1399 60.9009C70.1106 60.81 69.0892 60.6139 68.069 60.4371C67.561 60.3493 67.0651 60.1949 66.5626 60.0811C66.1842 59.9957 66.1007 60.078 66.0995 60.5394C66.0962 62.512 66.0962 64.4844 66.0995 66.4566L66.0964 68.9826ZM66.12 49.8699H66.0964C66.0964 51.4227 66.0964 52.9755 66.0964 54.5283C66.0964 55.1647 66.0994 55.7998 66.0964 56.4374C66.087 56.4934 66.0896 56.5507 66.1038 56.6057C66.1179 56.6606 66.1434 56.712 66.1787 56.7565C66.214 56.801 66.2582 56.8376 66.3085 56.864C66.3588 56.8904 66.414 56.9059 66.4706 56.9096C66.9319 56.9807 67.384 57.1011 67.8195 57.2687C68.706 57.5764 69.6361 57.7399 70.5744 57.753C71.9732 57.9584 73.3981 57.898 74.7745 57.575C75.3215 57.4488 75.8598 57.2871 76.3857 57.0907C76.8777 56.8833 77.3325 56.597 77.7322 56.243C78.2458 55.7767 78.6991 55.2478 79.0812 54.6688C79.3872 54.1564 79.6183 53.6029 79.7672 53.025C80.0197 52.2264 80.203 51.4076 80.3151 50.5777C80.4138 49.6695 80.3309 48.7486 80.3757 47.8355C80.389 46.6591 80.2392 45.4864 79.9307 44.3511C79.863 44.0314 79.7573 43.721 79.6159 43.4265C79.3752 42.9045 79.0862 42.4063 78.7525 41.9383C78.3609 41.4141 77.9032 40.9428 77.3908 40.536C76.9095 40.2455 76.4068 39.9923 75.8868 39.7786C75.2624 39.4713 74.5785 39.3035 73.8827 39.2869C72.5802 39.1539 71.265 39.218 69.9816 39.4771C69.2664 39.6537 68.5907 39.963 67.9896 40.3889C67.62 40.6921 67.2848 41.035 66.9901 41.4115C66.4645 41.9653 66.1609 42.693 66.137 43.4562C66.0886 45.5935 66.12 47.732 66.12 49.8699Z" fill="black"/>
<path id="Path 2" d="M139.544 49.8405H133.875C132.95 49.8405 132.024 49.8405 131.098 49.8448C130.645 49.8448 130.459 50.0058 130.56 50.4151C130.723 51.4276 130.981 52.4224 131.332 53.3862C131.709 54.2931 132.268 55.1133 132.973 55.7965C133.473 56.2092 134.013 56.5718 134.584 56.8791C134.933 57.0701 135.291 57.2425 135.658 57.3955C135.737 57.4368 135.82 57.4685 135.907 57.49C137.045 57.7496 138.213 57.8539 139.38 57.8C140.44 57.7225 141.505 57.642 142.554 57.4773C143.112 57.3448 143.658 57.1624 144.183 56.9324C144.469 56.8319 144.754 56.7326 145.031 56.6145C145.504 56.4129 145.971 56.1955 146.441 55.9872C146.83 55.8153 146.995 55.9485 146.986 56.3777C146.972 57.0819 146.973 57.7867 146.986 58.4908C146.997 59.0818 146.877 59.241 146.312 59.4293C145.899 59.5673 145.501 59.755 145.096 59.9215C145.063 59.9399 145.028 59.9557 144.992 59.9688C144.42 60.1074 143.852 60.2642 143.276 60.3769C142.398 60.5482 141.52 60.7304 140.631 60.8316C139.413 61.0441 138.164 61.0074 136.961 60.7238C136.887 60.7039 136.811 60.6937 136.734 60.6935C135.698 60.6247 134.682 60.3715 133.734 59.9458C133.139 59.6965 132.576 59.3753 132.058 58.9891C131.423 58.542 130.827 58.0424 130.276 57.4954C129.887 57.0836 129.559 56.6181 129.303 56.1132C128.849 55.3026 128.456 54.4595 128.127 53.5908C127.935 52.8676 127.781 52.1345 127.668 51.3948C127.393 49.9849 127.331 48.5416 127.486 47.1135C127.591 46.0642 127.767 45.0233 128.013 43.9978C128.285 42.7843 128.767 41.6275 129.436 40.5793C130.039 39.5837 130.825 38.7117 131.754 38.0097C132.177 37.6989 132.629 37.4298 133.104 37.2063C133.731 36.9036 134.385 36.6505 135.027 36.3768C135.073 36.355 135.121 36.3377 135.171 36.3253C136.655 35.9725 138.188 35.8702 139.707 36.0226C140.558 36.14 141.394 36.3458 142.202 36.6365C142.843 36.8592 143.447 37.1772 143.993 37.5799C144.765 38.1441 145.448 38.8204 146.02 39.5864C146.528 40.235 146.939 40.9544 147.239 41.7218C147.454 42.3237 147.646 42.9328 147.876 43.5316C148.608 45.4376 148.468 47.432 148.481 49.4119C148.481 49.7146 148.326 49.8502 148.028 49.8484C146.138 49.8391 144.248 49.8319 142.359 49.8266C141.419 49.8266 140.482 49.8266 139.542 49.8266L139.544 49.8405ZM137.97 46.8598H139.076H144.912C145.102 46.8598 145.343 46.898 145.336 46.614C145.336 46.1296 145.294 45.646 145.211 45.1688C145.094 44.6518 144.934 44.1455 144.733 43.6551C144.54 43.0706 144.284 42.5089 143.969 41.9798C143.54 41.3065 142.988 40.7195 142.343 40.2494C141.613 39.6938 140.756 39.3288 139.85 39.1874C137.953 38.9664 136.075 38.9991 134.326 40.0029C133.545 40.4414 132.862 41.0355 132.32 41.7485C131.889 42.2883 131.554 42.8977 131.328 43.5504C131.058 44.1501 130.876 44.7854 130.787 45.437C130.769 45.6254 130.719 45.8095 130.641 45.9819C130.399 46.6013 130.569 46.861 131.222 46.861L137.97 46.8598Z" fill="black"/>
<path id="Path 3" d="M92.2254 27.9097C92.2387 28.2021 92.2581 28.4407 92.2588 28.6792C92.2612 31.4644 92.2612 34.2511 92.2588 37.0395C92.2588 37.5087 92.3798 37.6104 92.8333 37.4591C93.5932 37.2072 94.3427 36.9244 95.0965 36.6556C95.1322 36.6426 95.1689 36.6323 95.2061 36.6247C95.8503 36.5 96.4988 36.3935 97.1382 36.2494C98.5327 35.9553 99.9636 35.8736 101.382 36.0072C102.157 36.1012 102.923 36.2563 103.674 36.471C104.105 36.5623 104.524 36.7088 104.918 36.9069C105.46 37.2072 105.978 37.5495 106.466 37.9307C107.217 38.5205 107.818 39.2786 108.222 40.1437C108.531 40.8314 108.77 41.5487 108.935 42.2846C109.225 43.8614 109.321 45.4677 109.221 47.0678C109.223 51.3061 109.223 55.5443 109.221 59.7826C109.221 60.4208 109.194 60.4486 108.555 60.4486C107.931 60.4486 107.308 60.4377 106.685 60.4522C106.327 60.4607 106.165 60.3075 106.172 59.957C106.172 59.8171 106.172 59.6772 106.172 59.5374C106.172 54.6892 106.172 49.8408 106.172 44.9923C106.193 44.5474 106.173 44.1014 106.111 43.6603C105.878 42.4572 105.595 41.2426 104.61 40.4047C104.015 39.8835 103.305 39.5101 102.538 39.3148C101.23 39.0559 99.8903 38.9919 98.5634 39.1247C97.8795 39.1557 97.2008 39.2594 96.5388 39.4341C95.5458 39.6993 94.571 40.0396 93.5998 40.3805C93.2115 40.5276 92.8385 40.7122 92.4858 40.9314C92.3725 41.0314 92.2953 41.1659 92.266 41.3141C92.2456 41.4396 92.2432 41.5675 92.2588 41.6937C92.2588 47.6745 92.2588 53.6553 92.2588 59.6361C92.2588 60.4492 92.2587 60.4492 91.4432 60.4492C90.9085 60.4492 90.3739 60.4492 89.8399 60.4492C89.4082 60.4492 89.2254 60.2633 89.2096 59.8238C89.206 59.722 89.2096 59.6203 89.2096 59.521V28.8245C89.2096 27.9097 89.2096 27.9097 90.1063 27.9097H92.2254Z" fill="black"/>
<path id="Path 5" d="M116.719 44.132V28.6702C116.719 27.9098 116.719 27.9098 117.477 27.9098C118.125 27.9098 118.775 27.9164 119.423 27.9098C119.707 27.9061 119.854 28.006 119.829 28.3094C119.816 28.4607 119.829 28.6121 119.829 28.7671C119.829 39.0624 119.829 49.3578 119.829 59.6531C119.829 60.3894 119.768 60.4505 119.018 60.4505C118.394 60.4505 117.77 60.4396 117.147 60.4548C116.85 60.462 116.723 60.3337 116.723 60.0533C116.723 59.9389 116.719 59.8245 116.719 59.71C116.719 54.5168 116.719 49.3241 116.719 44.132Z" fill="black"/>
</g>
</g>
</g>
</svg>
