<svg width="100%" height="100%" viewBox="0 0 240 96" fill="none" xmlns="http://www.w3.org/2000/svg">
<rect x="40.1992" y="31.7773" width="27.1744" height="27.1744" rx="10.5273" fill="black"/>
<rect x="40.1992" y="31.7773" width="27.1744" height="27.1744" rx="10.5273" fill="black"/>
<path d="M62.1377 51.1048L58.8815 51.9662C57.7159 52.2756 56.4824 52.2103 55.356 51.7794C54.2296 51.3485 53.2674 50.5739 52.606 49.5655C52.3184 49.688 52.0215 49.7869 51.7179 49.8615L46.3156 51.309C46.5495 51.0426 46.7922 50.7614 47.029 50.4594C47.7307 49.6044 48.3188 48.6622 48.7785 47.6562C49.2622 46.65 49.4225 45.5187 49.2373 44.4177C48.8999 42.8163 47.5589 41.3629 46.4459 40.3771C46.1321 40.0989 45.8213 39.8443 45.5371 39.6252L48.7933 38.7638C49.9588 38.4539 51.1923 38.5194 52.3184 38.9509C53.4446 39.3825 54.4059 40.1581 55.0659 41.1675C55.3535 41.0452 55.6505 40.9462 55.9539 40.8715L61.3592 39.421C61.1224 39.6874 60.8826 39.9686 60.6428 40.2706C59.9431 41.1264 59.3561 42.0685 58.8963 43.0738C58.4126 44.08 58.2523 45.2113 58.4375 46.3123C58.775 47.9137 60.1159 49.3671 61.226 50.3529C61.5457 50.6311 61.8565 50.8857 62.1377 51.1048Z" fill="white"/>
<path d="M77.5645 55.9815H80.6659V48.183H87.4959C87.9489 48.183 88.6807 48.1494 89.3428 48.0485C93.3851 47.4435 95.5456 44.2804 95.5456 40.5243C95.5456 36.7681 93.3851 33.6051 89.3428 33C88.6807 32.8992 87.9838 32.8656 87.4959 32.8656H77.5645V55.9815ZM80.6659 45.3258V35.6891H87.3914C87.8095 35.6891 88.4368 35.7228 88.9595 35.8572C91.3639 36.3614 92.3745 38.2924 92.3745 40.5243C92.3745 42.7562 91.3639 44.6535 88.9595 45.1913C88.4368 45.2922 87.8095 45.3258 87.3914 45.3258H80.6659Z" fill="black"/>
<path d="M100.938 38.9391C100.311 39.3761 99.7535 39.9811 99.3353 40.687V37.8298H96.5475V55.9815H99.6838V46.872C99.6838 44.7207 100.137 42.5694 101.949 41.3257C103.273 40.3845 104.946 40.3173 106.27 40.6198V37.8298C104.597 37.4601 102.367 37.7962 100.938 38.9391Z" fill="black"/>
<path d="M114.468 56.4857C120.078 56.4857 123.563 52.5864 123.563 46.872C123.563 41.2585 120.113 37.3256 114.468 37.3256C108.962 37.3256 105.408 41.1912 105.408 46.872C105.408 52.5192 108.858 56.4857 114.468 56.4857ZM114.468 53.6285C110.67 53.6285 108.718 50.973 108.718 46.872C108.718 42.9056 110.53 40.1492 114.468 40.1492C118.336 40.1492 120.253 42.8047 120.253 46.872C120.253 50.8721 118.371 53.6285 114.468 53.6285Z" fill="black"/>
<path d="M125.009 36.0925H128.111V33H125.009V36.0925ZM121.211 64.0488H123.406C126.508 64.0488 128.111 62.469 128.111 59.4773V37.8298H125.009V58.4689C125.009 60.3849 124.034 61.1917 122.222 61.1917H121.211V64.0488Z" fill="black"/>
<path d="M132.665 47.746H147.057C147.371 41.2921 144.06 37.3256 138.38 37.3256C132.909 37.3256 129.32 41.0568 129.32 47.0065C129.32 52.6873 132.979 56.4857 138.519 56.4857C142.178 56.4857 145.28 54.6369 146.778 51.4436L143.781 50.4351C142.736 52.5192 140.854 53.6285 138.38 53.6285C134.93 53.6285 132.909 51.5108 132.665 47.746ZM138.485 40.0148C141.691 40.0148 143.468 41.7627 143.886 45.3258H132.735C133.153 41.8971 135.139 40.0148 138.485 40.0148Z" fill="black"/>
<path d="M156.706 56.4857C160.574 56.4857 163.432 54.6369 164.756 51.2419L161.62 50.4687C160.749 52.5192 159.146 53.6285 156.706 53.6285C152.943 53.6285 151.061 50.9393 151.026 46.9056C151.061 42.9728 152.838 40.1492 156.706 40.1492C158.971 40.1492 160.888 41.3929 161.689 43.477L164.756 42.603C163.745 39.3425 160.679 37.3256 156.741 37.3256C151.061 37.3256 147.785 41.2249 147.716 46.9056C147.785 52.452 150.957 56.4857 156.706 56.4857Z" fill="black"/>
<path d="M169.16 40.2837H174.84V37.8298H169.16V33H166.059V49.1242C166.059 51.0066 165.954 52.3847 166.686 53.7965C168.01 56.284 171.46 56.6537 174.84 55.9815V53.3932C172.261 53.7965 170.38 53.6957 169.543 52.2503C169.09 51.4772 169.16 50.4687 169.16 48.9897V40.2837Z" fill="black"/>
<path d="M177.987 55.9815H181.785L188.511 46.267L195.202 55.9815H199L190.393 43.7123L198.791 31.7793H194.992L188.511 41.1912L181.994 31.7793H178.231L186.629 43.7123L177.987 55.9815Z" fill="black"/>
</svg>
