<svg width="100%" height="100%" viewBox="0 0 240 96" fill="none" xmlns="http://www.w3.org/2000/svg">
<path fill-rule="evenodd" clip-rule="evenodd" d="M102.471 59.6199H105.006C106.299 59.6199 107.435 59.6723 108.379 59.8294C109.358 59.9861 110.18 60.3178 110.844 60.8587C111.508 61.3823 111.858 62.1849 111.858 63.2318C111.858 64.2087 111.561 64.9418 111.001 65.4826C110.424 66.0063 109.708 66.3896 108.834 66.6167C107.942 66.8261 106.998 66.9832 105.932 67.0352C104.883 67.1051 103.887 67.1571 103.013 67.1923C103.992 67.8202 105.18 68.1692 106.596 68.2219C106.911 68.2043 107.435 68.1344 108.117 68.0297C108.799 67.9249 109.341 67.8554 109.708 67.8554C109.865 67.8554 109.987 67.9078 110.005 67.9605C110.022 68.0129 110.04 68.1172 110.04 68.3095C110.075 68.903 110.319 69.6701 110.774 70.5955C111.246 71.5376 111.788 72.3578 112.434 73.0557C113.063 73.7709 113.64 74.1026 114.13 74.1026C114.427 74.1026 114.584 74.2421 114.584 74.5039C114.584 74.6782 114.41 74.7658 114.077 74.7658H105.88C105.617 74.7658 105.408 74.7306 105.338 74.6263C105.233 74.5563 105.163 74.3469 105.076 74.1026L102.472 68.1352L102.122 67.3501H100.496V68.676C100.496 70.0894 100.514 71.1015 100.514 71.7818C100.566 72.4274 100.636 72.9159 100.741 73.2652C100.829 73.6142 100.986 73.8584 101.196 73.9455C101.406 74.0503 101.703 74.1022 102.122 74.1022C102.262 74.1022 102.385 74.1198 102.472 74.155C102.629 74.207 102.717 74.3117 102.717 74.4516C102.717 74.5735 102.629 74.6606 102.472 74.713C102.367 74.7482 102.244 74.7658 102.07 74.7658H91.7034C91.2838 74.7658 91.0744 74.6606 91.0744 74.4516C91.0744 74.3465 91.1444 74.2597 91.2493 74.207C91.4063 74.1374 91.5465 74.1022 91.7038 74.1022C92.1059 74.1022 92.4206 74.0499 92.6304 73.9455C92.8227 73.8404 92.98 73.6138 93.0849 73.2652C93.1898 72.9334 93.2595 72.4274 93.2948 71.7818C93.3296 71.1015 93.3472 70.0718 93.3472 68.6236V65.7448C93.3472 64.3142 93.33 63.2846 93.2948 62.6042C93.2599 61.9587 93.1898 61.4351 93.0849 61.1037C92.98 60.7719 92.8227 60.5453 92.6304 60.4405C92.4206 60.3358 92.1059 60.2663 91.7038 60.2663C91.2842 60.2663 91.0747 60.1787 91.0747 59.9869C91.0747 59.7426 91.2846 59.6203 91.7038 59.6203L102.471 59.6199ZM102.471 66.6866C102.996 66.669 103.38 66.5991 103.66 66.4424C103.94 66.2853 104.132 65.9539 104.272 65.4479C104.394 64.9242 104.446 64.1216 104.446 63.0224C104.446 62.1502 104.394 61.5218 104.272 61.1557C104.132 60.7543 103.94 60.5101 103.677 60.4226C103.415 60.3354 103.013 60.2659 102.471 60.2659H102.419C101.842 60.2659 101.422 60.3358 101.178 60.4402C100.933 60.5453 100.758 60.8415 100.671 61.3124C100.566 61.766 100.496 62.5515 100.496 63.6503V66.6866H102.471ZM138.374 65.7445C138.374 63.9125 138.339 62.621 138.269 61.9407C138.199 61.2428 138.059 60.7719 137.85 60.5801C137.64 60.3882 137.238 60.2659 136.643 60.2659C136.171 60.2659 135.962 60.1608 135.962 59.9517C135.962 59.7247 136.154 59.6199 136.556 59.6199H147.306C147.691 59.6199 147.884 59.7247 147.884 59.9517C147.884 60.1608 147.673 60.2659 147.184 60.2659C146.747 60.2659 146.397 60.3358 146.188 60.4226C145.995 60.5101 145.821 60.7367 145.734 61.0505C145.628 61.3823 145.559 61.9055 145.524 62.5863C145.489 63.2494 145.471 64.3138 145.471 65.7445V68.6233C145.471 70.0714 145.489 71.1187 145.524 71.8162C145.559 72.4794 145.628 72.9854 145.734 73.3172C145.821 73.6314 145.995 73.858 146.205 73.9451C146.415 74.0499 146.747 74.1018 147.184 74.1018C147.673 74.1018 147.884 74.2413 147.884 74.5032C147.884 74.6774 147.691 74.765 147.306 74.765H136.556C136.154 74.765 135.962 74.6774 135.962 74.5032C135.962 74.2413 136.171 74.1018 136.643 74.1018C137.238 74.1018 137.64 73.9971 137.85 73.8052C138.059 73.5958 138.199 73.1597 138.269 72.4446C138.479 70.2457 138.374 67.9605 138.374 65.7445ZM125.038 59.6199C126.89 59.6199 128.498 59.8642 129.809 60.3526C131.138 60.8239 132.221 61.4347 132.99 62.1845C133.759 62.97 134.319 63.7722 134.668 64.6448C135 65.4998 135.193 66.3548 135.193 67.1751C135.193 67.9781 135 68.8151 134.668 69.7053C134.319 70.5603 133.759 71.3977 132.99 72.1656C132.204 72.9159 131.138 73.5438 129.809 74.0151C128.498 74.5211 126.89 74.7654 125.038 74.7654C123.184 74.7654 121.612 74.5211 120.283 74.0151C118.972 73.5438 117.906 72.9159 117.137 72.1304C116.315 71.3977 115.756 70.5599 115.441 69.6877C115.057 68.8155 114.899 67.9781 114.899 67.1751C114.899 66.3548 115.057 65.5002 115.406 64.6624C115.756 63.7726 116.315 62.97 117.102 62.1845C117.871 61.4343 118.92 60.8063 120.248 60.3526C121.576 59.8642 123.149 59.6199 125.038 59.6199ZM125.038 74.1018C125.544 74.1018 125.928 74.0495 126.226 73.9451C126.506 73.8576 126.75 73.7181 126.89 73.4739C127.047 73.2121 127.152 72.8635 127.222 72.4618C127.275 72.0257 127.293 71.4149 127.293 70.6299V63.7551C127.293 62.7082 127.24 61.9579 127.153 61.4866C127.031 61.0158 126.82 60.7016 126.506 60.5273C126.191 60.3702 125.702 60.2655 125.038 60.2655C124.514 60.2655 124.129 60.3354 123.849 60.405C123.569 60.4921 123.36 60.6492 123.185 60.911C123.027 61.1377 122.905 61.4866 122.871 61.9055C122.8 62.3241 122.765 62.97 122.765 63.7547V70.6295C122.765 71.4149 122.8 72.0253 122.871 72.4446C122.905 72.8807 123.027 73.2121 123.185 73.4739C123.36 73.7181 123.569 73.8752 123.849 73.9451C124.128 74.0499 124.53 74.1018 125.038 74.1018ZM90.6723 54.5599L85.2012 22.0361L104.621 39.7462L119.793 23.4843L134.651 39.7462L154.001 22.0361L148.233 54.5599H90.6723Z" fill="currentColor"/>
<path fill-rule="evenodd" clip-rule="evenodd" d="M88.7168 28.2364L92.5786 52.1679H145.928L150.486 28.2364L134.5 42.5064L119.732 27.0586L104.616 42.5064L88.7168 28.2364Z" fill="currentColor"/>
</svg>
