<svg width="100%" height="100%" viewBox="0 0 46 56" fill="none" xmlns="http://www.w3.org/2000/svg">
<g clip-path="url(#clip0_362_2056)">
<path d="M2.45523 20.5878C-2.28458 28.8045 0.732594 41.2671 5.97187 48.8729C8.59151 52.6503 11.2417 56.0002 14.8603 56.0002H15.0642C16.4817 55.9007 17.8664 55.5272 19.1414 54.9005C20.6644 54.1516 22.3367 53.7548 24.0341 53.7398C25.652 53.7542 27.2452 54.1373 28.6924 54.8598C30.0768 55.543 31.6026 55.8918 33.1468 55.878C37.224 55.8067 39.7418 52.1413 41.9537 48.9136C43.6121 46.4775 44.913 43.8168 45.8169 41.0125C45.8522 40.9055 45.8468 40.7892 45.8016 40.6859C45.7565 40.5825 45.6748 40.4995 45.5722 40.4525C43.4651 39.559 41.6663 38.0683 40.3982 36.1646C39.1301 34.261 38.4483 32.0278 38.437 29.7413C38.4646 27.72 39.001 25.7382 39.9967 23.9784C40.9925 22.2187 42.4156 20.7375 44.135 19.6714C44.1864 19.6385 44.2307 19.5956 44.2652 19.5453C44.2998 19.495 44.324 19.4383 44.3363 19.3786C44.3486 19.3188 44.3489 19.2572 44.3371 19.1973C44.3253 19.1375 44.3016 19.0806 44.2675 19.03C43.0896 17.3416 41.5338 15.9508 39.7237 14.9681C37.9136 13.9854 35.899 13.4379 33.8399 13.3689C33.5443 13.3689 33.2385 13.3689 32.9327 13.3689C30.6688 13.4996 28.4493 14.0521 26.3887 14.998C25.3976 15.4721 24.3383 15.7882 23.2492 15.9347C22.1238 15.8002 21.0285 15.4802 20.0078 14.9878C18.2385 14.1267 16.3229 13.6051 14.3608 13.4504H14.2181C11.8084 13.529 9.45979 14.2272 7.39921 15.4775C5.33862 16.7278 3.63577 18.488 2.45523 20.5878Z" fill="white"/>
<path d="M33.9522 9.3212e-05C30.6843 0.307172 27.6593 1.85626 25.502 4.32737C23.7386 6.36373 22.016 9.77464 22.4441 13.2059C22.4577 13.3099 22.5067 13.406 22.5827 13.4783C22.6588 13.5506 22.7574 13.5946 22.862 13.603H23.4532C24.9975 13.5328 26.5089 13.133 27.8856 12.4304C29.2623 11.7279 30.4724 10.739 31.4344 9.53028C33.6001 6.98876 34.6702 3.69408 34.4108 0.366639C34.3894 0.261589 34.3318 0.167377 34.2479 0.100402C34.1641 0.0334274 34.0595 -0.00206846 33.9522 9.3212e-05Z" fill="white"/>
</g>
<defs>
<clipPath id="clip0_362_2056">
<rect width="45.8182" height="56" fill="white" transform="translate(0.0908203)"/>
</clipPath>
</defs>
</svg>
