<svg width="100%" height="100%" viewBox="0 0 57 56" fill="none" xmlns="http://www.w3.org/2000/svg">
<path d="M31.1875 26.9121L5.93815 52.2296C4.7313 51.085 4.0791 49.515 4.0791 47.8137V8.10441C4.0791 6.37093 4.76412 4.80052 6.00377 3.62354L31.1875 26.9121Z" fill="#2299F8"/>
<path d="M53.0112 27.9585C53.0112 30.2486 51.7709 32.2763 49.7156 33.4218L42.5401 37.412L33.6339 29.1688L31.1875 26.9119L40.6149 17.4587L49.7156 22.4961C51.7709 23.6417 53.0112 25.6693 53.0112 27.9585Z" fill="#FFC107"/>
<path d="M31.1876 26.9121L6.00391 3.62338C6.32995 3.2957 6.75444 3.00159 7.17848 2.73996C9.23331 1.49713 11.7127 1.46388 13.8328 2.64207L40.6151 17.4588L31.1876 26.9121Z" fill="#5ACF5F"/>
<path d="M42.5404 37.4123L13.8329 53.2763C12.822 53.8654 11.6796 54.1266 10.5707 54.1266C9.3967 54.1266 8.22255 53.8324 7.17868 53.1785C6.72127 52.9167 6.29734 52.5896 5.93848 52.2297L31.1878 26.9121L33.6342 29.169L42.5404 37.4123Z" fill="#F84437"/>
</svg>
