<svg width="100%" height="100%" viewBox="0 0 80 80" fill="none" xmlns="http://www.w3.org/2000/svg">
<path d="M19.1999 66.0827C23.058 58.5157 30.924 53.3334 40.0003 53.3334C49.0067 53.3334 56.821 58.4361 60.7107 65.9077M47.778 34.8147C47.778 39.3151 44.13 42.9631 39.63 42.9631C35.13 42.9631 31.4818 39.3151 31.4818 34.8147C31.4818 30.3148 35.13 26.6667 39.63 26.6667C44.13 26.6667 47.778 30.3148 47.778 34.8147ZM40.0003 73.3334C21.5908 73.3334 6.66699 58.4094 6.66699 40.0001C6.66699 21.5906 21.5908 6.66675 40.0003 6.66675C58.4097 6.66675 73.3337 21.5906 73.3337 40.0001C73.3337 58.4094 58.4097 73.3334 40.0003 73.3334Z" stroke="#614ED9" stroke-width="6" stroke-linecap="round" stroke-linejoin="round"/>
</svg>
