<svg viewBox="0 0 80 80" fill="none" xmlns="http://www.w3.org/2000/svg">
<path d="M66.6667 66.666V46.666" stroke="white" stroke-width="2" stroke-miterlimit="10"/>
<path d="M70.6667 19.9997C70.6667 22.209 68.8747 23.9997 66.6667 23.9997C64.4574 23.9997 62.6667 22.209 62.6667 19.9997V17.333C62.6667 15.1237 64.4574 13.333 66.6667 13.333C68.8747 13.333 70.6667 15.1237 70.6667 17.333V19.9997Z" stroke="white" stroke-width="2" stroke-miterlimit="10"/>
<path d="M61.3334 32V61.3333L59.8627 61.8227C58.352 62.3267 57.3334 63.7413 57.3334 65.3333C57.3334 66.0707 57.9294 66.6667 58.6667 66.6667H74.6667C75.404 66.6667 76 66.0707 76 65.3333C76 63.7413 74.98 62.3267 73.4707 61.8227L72 61.3333V32" stroke="white" stroke-width="2" stroke-miterlimit="10"/>
<path d="M61.3333 41.3333C61.3333 42.8053 60.1387 44 58.6667 44C57.1947 44 56 42.8053 56 41.3333V34.6667C56 28.776 60.776 24 66.6667 24C72.5573 24 77.3333 28.776 77.3333 34.6667V41.3333C77.3333 42.8053 76.1387 44 74.6667 44C73.1947 44 72 42.8053 72 41.3333" stroke="white" stroke-width="2" stroke-miterlimit="10"/>
<path d="M13.3334 66.666V46.666" stroke="white" stroke-width="2" stroke-miterlimit="10"/>
<path d="M17.3334 19.9997C17.3334 22.209 15.5414 23.9997 13.3334 23.9997C11.124 23.9997 9.33337 22.209 9.33337 19.9997V17.333C9.33337 15.1237 11.124 13.333 13.3334 13.333C15.5414 13.333 17.3334 15.1237 17.3334 17.333V19.9997Z" stroke="white" stroke-width="2" stroke-miterlimit="10"/>
<path d="M8 32V61.3333L6.52933 61.8227C5.01867 62.3267 4 63.7413 4 65.3333C4 66.0707 4.596 66.6667 5.33333 66.6667H21.3333C22.0707 66.6667 22.6667 66.0707 22.6667 65.3333C22.6667 63.7413 21.6467 62.3267 20.1373 61.8227L18.6667 61.3333V32" stroke="white" stroke-width="2" stroke-miterlimit="10"/>
<path d="M8.00002 41.3333C8.00002 42.8053 6.80535 44 5.33335 44C3.86135 44 2.66669 42.8053 2.66669 41.3333V34.6667C2.66669 28.776 7.44269 24 13.3334 24C19.224 24 24 28.776 24 34.6667V41.3333C24 42.8053 22.8054 44 21.3334 44C19.8614 44 18.6667 42.8053 18.6667 41.3333" stroke="white" stroke-width="2" stroke-miterlimit="10"/>
<path d="M40 66.666V46.666" stroke="white" stroke-width="2" stroke-miterlimit="10"/>
<path d="M44 19.9997C44 22.209 42.208 23.9997 40 23.9997C37.7907 23.9997 36 22.209 36 19.9997V17.333C36 15.1237 37.7907 13.333 40 13.333C42.208 13.333 44 15.1237 44 17.333V19.9997Z" stroke="white" stroke-width="2" stroke-miterlimit="10"/>
<path d="M34.6667 32V61.3333L33.196 61.8227C31.6854 62.3267 30.6667 63.7413 30.6667 65.3333C30.6667 66.0707 31.2627 66.6667 32 66.6667H48C48.7374 66.6667 49.3334 66.0707 49.3334 65.3333C49.3334 63.7413 48.3134 62.3267 46.804 61.8227L45.3334 61.3333V32" stroke="white" stroke-width="2" stroke-miterlimit="10"/>
<path d="M34.6667 41.3333C34.6667 42.8053 33.472 44 32 44C30.528 44 29.3334 42.8053 29.3334 41.3333V34.6667C29.3334 28.776 34.1094 24 40 24C45.8907 24 50.6667 28.776 50.6667 34.6667V41.3333C50.6667 42.8053 49.472 44 48 44C46.528 44 45.3334 42.8053 45.3334 41.3333" stroke="white" stroke-width="2" stroke-miterlimit="10"/>
</svg>
