<svg viewBox="0 0 80 80" fill="none" xmlns="http://www.w3.org/2000/svg">
<path d="M16 58.6673V59.334C16 61.1753 17.492 62.6673 19.3333 62.6673H23.3333C25.1747 62.6673 26.6667 61.1753 26.6667 59.334C26.6667 57.4927 25.1747 56.0007 23.3333 56.0007H19.3333C17.492 56.0007 16 54.5087 16 52.6673C16 50.826 17.492 49.334 19.3333 49.334H23.3333C25.1747 49.334 26.6667 50.826 26.6667 52.6673V53.334" stroke="white" stroke-width="2" stroke-miterlimit="10"/>
<path d="M21.3333 45.334V49.334" stroke="white" stroke-width="2" stroke-miterlimit="10"/>
<path d="M21.3333 62.667V66.667" stroke="white" stroke-width="2" stroke-miterlimit="10"/>
<path d="M5.58398 53.172C6.91732 45.684 13.4613 40 21.3333 40C30.1693 40 37.3333 47.164 37.3333 56C37.3333 64.836 30.1693 72 21.3333 72C14.4533 72 8.58665 67.6573 6.32665 61.564" stroke="white" stroke-width="2" stroke-miterlimit="10"/>
<path d="M5.51865 58.4427C5.39598 57.6453 5.33331 56.8307 5.33331 56" stroke="white" stroke-width="2" stroke-miterlimit="10"/>
<path d="M56 66.5448L35.6906 72.1235L33.9613 65.8262" stroke="white" stroke-width="2" stroke-miterlimit="10"/>
<path d="M27.1707 41.1004L24.1387 30.063L31.6747 16.8137L59.8827 9.06836L74.2893 61.5217L52.5 67.5005" stroke="white" stroke-width="2" stroke-miterlimit="10"/>
<path d="M42.0547 44.8893L54.5907 41.4453" stroke="white" stroke-width="2" stroke-miterlimit="10"/>
<path d="M54.5906 46.9775L43.4693 50.0322" stroke="white" stroke-width="2" stroke-miterlimit="10"/>
<path d="M50.6494 53.5908L44.8814 55.1762" stroke="white" stroke-width="2" stroke-miterlimit="10"/>
<path d="M31.6747 16.8154L34.528 27.2061L24.1387 30.0594" stroke="white" stroke-width="2" stroke-miterlimit="10"/>
<path d="M55.6665 20.667L46.3332 34.0003L40.9999 31.3337L37.0079 37.275" stroke="white" stroke-width="2" stroke-miterlimit="10"/>
<path d="M49.5001 22.0003L55.6667 20.667L57.2214 26.211" stroke="white" stroke-width="2" stroke-miterlimit="10"/>
</svg>
