<svg viewBox="0 0 80 80" fill="none" xmlns="http://www.w3.org/2000/svg">
<path d="M7.01886 40.0003C7.02021 32.9325 9.35744 26.0632 13.667 20.4612C17.9765 14.8592 24.0166 10.8386 30.8477 9.02474C30.9951 8.9841 31.1491 8.97309 31.3008 8.99235C31.4524 9.01161 31.5988 9.06076 31.7313 9.13694C31.8639 9.21313 31.98 9.31484 32.073 9.4362C32.1659 9.55756 32.2339 9.69615 32.273 9.84396C32.3121 9.99177 32.3214 10.1459 32.3005 10.2973C32.2797 10.4488 32.229 10.5946 32.1514 10.7263C32.0738 10.858 31.9708 10.973 31.8485 11.0647C31.7261 11.1564 31.5868 11.2229 31.4386 11.2604C26.1577 12.6615 21.365 15.4906 17.5867 19.4372C13.8084 23.3837 11.1907 28.2951 10.0208 33.6319C8.85099 38.9688 9.17434 44.5248 10.9554 49.69C12.7364 54.8551 15.9062 59.4297 20.1168 62.9113C20.2356 63.0075 20.3342 63.1263 20.4068 63.2608C20.4794 63.3954 20.5246 63.543 20.5398 63.6951C20.555 63.8473 20.5399 64.0009 20.4953 64.1471C20.4507 64.2934 20.3776 64.4293 20.2801 64.5471C20.1826 64.6649 20.0628 64.7622 19.9274 64.8334C19.7921 64.9045 19.644 64.9481 19.4917 64.9617C19.3394 64.9752 19.186 64.9584 19.0402 64.9123C18.8945 64.8661 18.7593 64.7915 18.6426 64.6928C15.0023 61.6904 12.072 57.9191 10.0623 53.6498C8.05253 49.3804 7.01318 44.719 7.01886 40.0003ZM71.093 40.0003C71.0928 32.0506 68.1372 24.3849 62.8005 18.4928C57.4638 12.6007 50.1272 8.90308 42.2164 8.11838L46.1229 5.06774C46.3647 4.87901 46.5215 4.60199 46.559 4.29761C46.5964 3.99324 46.5115 3.68644 46.3227 3.44472C46.134 3.20299 45.857 3.04614 45.5526 3.00867C45.2482 2.9712 44.9414 3.05617 44.6997 3.2449L38.3442 8.20799C38.2057 8.31613 38.0937 8.45441 38.0166 8.61232C37.9396 8.77024 37.8995 8.94363 37.8995 9.11934C37.8995 9.29505 37.9396 9.46845 38.0166 9.62636C38.0937 9.78427 38.2057 9.92255 38.3442 10.0307L44.6997 14.9938C44.8191 15.0897 44.9564 15.161 45.1036 15.2035C45.2508 15.2459 45.405 15.2587 45.5572 15.2411C45.7094 15.2234 45.8565 15.1757 45.9901 15.1007C46.1237 15.0257 46.241 14.9249 46.3353 14.8042C46.4296 14.6834 46.499 14.5452 46.5394 14.3974C46.5798 14.2496 46.5904 14.0953 46.5706 13.9433C46.5509 13.7914 46.5011 13.645 46.4242 13.5124C46.3474 13.3799 46.245 13.264 46.1229 13.1714L42.704 10.5013C57.3373 12.3204 68.7805 24.9581 68.7805 40.0003C68.7805 56.3903 55.4461 69.725 39.0559 69.725H4.15626C3.8496 69.725 3.5555 69.8468 3.33866 70.0636C3.12182 70.2805 3 70.5746 3 70.8812C3 71.1879 3.12182 71.482 3.33866 71.6988C3.5555 71.9156 3.8496 72.0375 4.15626 72.0375H39.0559C47.5526 72.0374 55.7013 68.662 61.7094 62.6539C67.7176 56.6458 71.0929 48.4971 71.093 40.0003ZM76.5564 69.9699L70.2008 65.0068C70.0814 64.9109 69.9441 64.8396 69.7969 64.7971C69.6497 64.7547 69.4956 64.7419 69.3434 64.7596C69.1912 64.7772 69.0441 64.8249 68.9105 64.8999C68.7769 64.9749 68.6595 65.0757 68.5652 65.1965C68.4709 65.3172 68.4016 65.4555 68.3612 65.6033C68.3208 65.751 68.3102 65.9054 68.3299 66.0573C68.3497 66.2092 68.3995 66.3557 68.4763 66.4882C68.5532 66.6207 68.6556 66.7367 68.7776 66.8293L72.4855 69.725H59.7841C59.4775 69.725 59.1834 69.8468 58.9665 70.0636C58.7497 70.2805 58.6279 70.5746 58.6279 70.8812C58.6279 71.1879 58.7497 71.482 58.9665 71.6988C59.1834 71.9156 59.4775 72.0375 59.7841 72.0375H72.4849L68.7766 74.9329C68.5349 75.1216 68.378 75.3986 68.3406 75.703C68.3031 76.0074 68.3881 76.3142 68.5768 76.5559C68.7655 76.7976 69.0426 76.9545 69.3469 76.992C69.6513 77.0294 69.9581 76.9445 70.1998 76.7557L76.5553 71.7926C76.6938 71.6845 76.8059 71.5462 76.8829 71.3883C76.96 71.2304 77 71.057 77 70.8813C77 70.7056 76.96 70.5322 76.8829 70.3743C76.8059 70.2164 76.6938 70.0781 76.5553 69.9699H76.5564Z" fill="white"/>
</svg>
