<svg viewBox="0 0 80 80" fill="none" xmlns="http://www.w3.org/2000/svg">
<path d="M41 17.333V39.9997H23.0001" stroke="white" stroke-width="2" stroke-miterlimit="10"/>
<path d="M40 73.333C21.5907 73.333 6.66671 58.409 6.66671 39.9997C6.66671 21.5903 21.5907 6.66635 40 6.66635C58.4094 6.66635 73.3334 21.5903 73.3334 39.9997" stroke="white" stroke-width="2" stroke-miterlimit="10"/>
<path d="M60 75.999C68.8366 75.999 76 68.8356 76 59.999C76 51.1625 68.8366 43.999 60 43.999C51.1635 43.999 44 51.1625 44 59.999C44 68.8356 51.1635 75.999 60 75.999Z" stroke="white" stroke-width="2" stroke-miterlimit="10"/>
<path d="M54.6667 63.999C54.6667 66.2084 57.0547 67.999 60 67.999C62.9454 67.999 65.3334 66.2084 65.3334 63.999C65.3334 61.7897 62.9454 59.999 60 59.999C57.0547 59.999 54.6667 58.2084 54.6667 55.999C54.6667 53.7897 57.0547 51.999 60 51.999C62.9454 51.999 65.3334 53.7897 65.3334 55.999" stroke="white" stroke-width="2" stroke-miterlimit="10"/>
<path d="M60 51.999V47.999" stroke="white" stroke-width="2" stroke-miterlimit="10"/>
<path d="M60 71.999V67.999" stroke="white" stroke-width="2" stroke-miterlimit="10"/>
</svg>
