<svg viewBox="0 0 80 80" fill="none" xmlns="http://www.w3.org/2000/svg">
<path d="M22.6667 17.3335V11.1309" stroke="white" stroke-width="2" stroke-miterlimit="10"/>
<path d="M28 13.3333C24.3747 13.3333 21.3334 11.2493 21.3334 7.13867C21.3334 5.33333 22.6667 4 22.6667 4C22.6667 4 25.3334 6.66667 29.3334 6.66667H31.2214C35.3334 6.66667 38.6667 10 38.6667 14.1107V20C38.6667 24.4173 35.084 28 30.6667 28C26.248 28 22.6667 24.4173 22.6667 20V16" stroke="white" stroke-width="2" stroke-miterlimit="10"/>
<path d="M34.6667 32C34.6667 32 33.3334 34.6667 30.6667 34.6667C28.0001 34.6667 26.6667 32 26.6667 32" stroke="white" stroke-width="2" stroke-miterlimit="10"/>
<path d="M26.6667 26.9297V32.0004L16.732 35.9737C14.576 36.835 12.9107 38.603 12.1774 40.8044L6.28004 58.4924C5.65337 60.3737 5.33337 62.3457 5.33337 64.3284C5.33337 67.0924 7.57471 69.3337 10.3387 69.3337C10.5574 69.3337 10.776 69.319 10.992 69.291L31.304 66.6164C33.2214 66.363 34.6667 64.6604 34.6667 62.667C34.6667 60.4577 32.8747 58.667 30.6667 58.667C30.5587 58.667 30.4494 58.671 30.344 58.6804L13.6227 60.0164" stroke="white" stroke-width="2" stroke-miterlimit="10"/>
<path d="M34.6667 26.9297V32.0004L44.6027 35.9737C46.4854 36.727 47.9947 38.171 48.8361 39.995" stroke="white" stroke-width="2" stroke-miterlimit="10"/>
<path d="M20.5548 49.667L17.1334 59.735" stroke="white" stroke-width="2" stroke-miterlimit="10"/>
<path d="M34.4427 64H74.6667V68C74.6667 70.2093 72.8747 72 70.6667 72H29.3334C27.124 72 25.3334 70.2093 25.3334 68V67.4027" stroke="white" stroke-width="2" stroke-miterlimit="10"/>
<path d="M28 58.8667V44C28 41.7907 29.7907 40 32 40H68C70.208 40 72 41.7907 72 44V64" stroke="white" stroke-width="2" stroke-miterlimit="10"/>
<path d="M60 58.6663C63.6819 58.6663 66.6667 55.6816 66.6667 51.9997C66.6667 48.3178 63.6819 45.333 60 45.333C56.3181 45.333 53.3334 48.3178 53.3334 51.9997C53.3334 55.6816 56.3181 58.6663 60 58.6663Z" stroke="white" stroke-width="2" stroke-miterlimit="10"/>
<path d="M66.6667 51.9997H60V45.333" stroke="white" stroke-width="2" stroke-miterlimit="10"/>
<path d="M60.0001 52L55.2867 56.7133" stroke="white" stroke-width="2" stroke-miterlimit="10"/>
<path d="M33.3334 48H44" stroke="white" stroke-width="2" stroke-miterlimit="10"/>
<path d="M33.3334 53.333H48" stroke="white" stroke-width="2" stroke-miterlimit="10"/>
</svg>
