<svg viewBox="0 0 80 80" fill="none" xmlns="http://www.w3.org/2000/svg">
<path d="M71.8573 34.3817C70.1066 16.6723 52.5186 10.667 37.3333 10.667C21.3333 10.667 2.66663 17.3337 2.66663 37.3337C2.66663 46.9937 7.02796 53.5363 13.3333 57.7257V69.3337L23.1146 62.1083C25.5053 62.7897 27.9773 63.2723 30.4586 63.5803" stroke="white" stroke-width="2" stroke-miterlimit="10"/>
<path d="M77.3333 52C77.3333 58.6333 74.2227 63.2213 69.3333 66.0053V74.6667L60.1187 68.9507C58.3693 69.1973 56.5493 69.3333 54.6667 69.3333C48 69.3333 42 67.3333 40 66.0053" stroke="white" stroke-width="2" stroke-miterlimit="10"/>
<path d="M41.0707 66.587C35.5627 63.8803 32 59.111 32 52.0003C32 38.667 44 34.667 54.6667 34.667C59.6333 34.667 64.8893 35.5337 69.088 37.807C72.6667 39.7446 77.3333 43.3337 77.3333 52.0003" stroke="white" stroke-width="2" stroke-miterlimit="10"/>
</svg>
