<svg viewBox="0 0 146 60" fill="none" xmlns="http://www.w3.org/2000/svg">
<g clip-path="url(#clip0_4278_31079)">
<path fill-rule="evenodd" clip-rule="evenodd" d="M6.48298 42.6495H0V15.5332H6.48298V26.0065H17.8282V15.5332H24.3112V42.6495H17.8282V31.186H6.48298V42.6495ZM37.5754 33.2045L28.0514 15.5332H34.7786L40.7501 27.568L46.4569 15.5332H53.2976L43.9247 33.2045V42.6495H37.5754V33.2045ZM57.0378 15.5332V42.6495H67.3633C76.8767 42.6495 83.219 37.2415 83.219 29.0914C83.219 20.9413 76.8767 15.5332 67.3633 15.5332H57.0378ZM76.6737 29.0914C76.6737 23.6432 72.9766 20.2085 67.5065 20.2085H63.5831V37.9743H67.5065C72.9766 37.9743 76.6737 34.5396 76.6737 29.0914ZM101.914 15.5332H88.8293V42.6495H95.201V33.1665H100.7L106.01 42.6495H113.14L106.617 32.2905C110.144 31.148 112.534 28.1774 112.534 24.5593C112.534 19.2274 108.172 15.5332 101.914 15.5332ZM101.198 20.2085H95.3746V28.6239H101.198C104.266 28.6239 106.595 26.9563 106.595 24.4743C106.595 21.7597 104.266 20.2085 101.198 20.2085ZM137.149 42.6495H143.997L134.737 15.5332H125.244L115.946 42.6495H122.832L124.388 37.7366H135.515L137.149 42.6495ZM129.504 21.1435L125.296 33.2991H133.711L129.504 21.1435ZM149.14 37.0393C147.259 37.0393 145.867 38.3948 145.867 40.2926C145.867 42.2291 147.259 43.5846 149.14 43.5846C151.058 43.5846 152.412 42.2291 152.412 40.2926C152.412 38.3948 151.058 37.0393 149.14 37.0393ZM160.004 39.9063V52H157.088V23.7814H159.928V27.1216C161.578 24.5877 164.341 23.0136 167.68 23.0136C173.437 23.0136 177.659 27.4287 177.659 33.4948C177.659 39.5224 173.475 43.9376 167.68 43.9376C164.38 43.9376 161.655 42.4402 160.004 39.9063ZM167.373 25.8187C171.675 25.8187 174.853 28.9089 174.853 33.3179C174.853 37.614 171.714 40.7795 167.373 40.7795C163.032 40.7795 159.893 37.614 159.893 33.3179C159.893 28.9842 163.032 25.8187 167.373 25.8187ZM190.849 23.0136C191.684 23.0136 192.639 23.2103 193.554 23.5643V26.3175C192.52 25.8455 191.366 25.6882 190.57 25.6882C187.427 25.6882 185.358 28.4808 185.358 32.4534V43.5846H182.334V23.7216H185.278V26.4749C186.472 24.3116 188.382 23.0136 190.849 23.0136ZM205.691 44.5196C211.721 44.5196 215.995 40.0606 215.995 33.7863C215.995 27.4726 211.721 23.0136 205.691 23.0136C199.661 23.0136 195.424 27.4726 195.424 33.7863C195.424 40.0606 199.661 44.5196 205.691 44.5196ZM213.19 33.7666C213.19 29.1467 210.051 25.8187 205.71 25.8187C201.369 25.8187 198.23 29.1467 198.23 33.7666C198.23 38.3474 201.369 41.7145 205.71 41.7145C210.051 41.7145 213.19 38.3474 213.19 33.7666ZM221.464 23.9486V46.236C221.464 48.0421 220.3 49.3101 218.516 49.3101C217.741 49.3101 216.732 49.1949 215.995 48.9259V51.5005C216.887 51.8079 218.167 52 219.292 52C222.355 52 224.411 49.8097 224.411 46.5434V23.9486H221.464ZM220.671 17.3852C220.671 16.2958 221.426 15.5332 222.541 15.5332C223.62 15.5332 224.411 16.2958 224.411 17.3852C224.411 18.4745 223.62 19.2734 222.541 19.2734C221.426 19.2734 220.671 18.4745 220.671 17.3852ZM247.041 37.8113C246.077 40.0606 243.259 41.7969 240.326 41.7969C236.466 41.7969 233.495 38.9162 233.032 34.7334L250.554 34.7729C250.592 34.3388 250.592 33.9442 250.592 33.589C250.592 27.4726 246.308 23.0136 240.365 23.0136C234.344 23.0136 230.021 27.4726 230.021 33.5496C230.021 39.9027 234.421 44.5196 240.519 44.5196C244.571 44.5196 248.431 42.1125 249.666 38.7978L247.041 37.8113ZM232.826 32.3236L246.852 32.364C246.326 28.4853 243.543 25.8187 239.783 25.8187C236.098 25.8187 233.353 28.4853 232.826 32.3236ZM271.069 30.7084L273.93 30.3138C273.195 26.0915 269.214 23.0136 264.498 23.0136C258.623 23.0136 254.332 27.5516 254.332 33.7863C254.332 40.0211 258.584 44.5196 264.498 44.5196C269.098 44.5196 273.079 41.5206 273.968 37.3378L271.069 36.9432C270.296 39.7844 267.668 41.8758 264.498 41.8758C260.362 41.8758 257.27 38.4822 257.27 33.7863C257.27 29.0905 260.401 25.6575 264.498 25.6575C267.59 25.6575 270.335 27.7883 271.069 30.7084ZM280.834 38.8265V26.38H277.708V23.9065H280.947L281.361 19.2734H283.695V23.9065H288.628V26.38H283.695V38.7087C283.695 40.6326 284.825 41.9283 286.632 41.9675C287.235 41.9675 288.214 41.8105 288.929 41.5749V44.0485C288.063 44.3233 286.858 44.5196 285.917 44.5196C282.792 44.5196 280.834 42.2424 280.834 38.8265ZM292.669 37.0616C292.63 41.3628 296.301 44.5196 301.378 44.5196C306.103 44.5196 309.5 41.7574 309.5 38.0876C309.5 34.047 305.393 33.2234 301.702 32.483C298.687 31.8785 295.95 31.3294 295.95 29.13C295.95 27.1964 298.019 25.7758 300.558 25.7758C303.799 25.7758 306.142 27.4332 306.142 29.7219L309.07 29.7614C309.07 25.8548 305.478 23.0136 300.636 23.0136C296.379 23.0136 293.06 25.5785 293.06 29.0511C293.06 33.4447 297.247 34.255 300.967 34.9746C303.928 35.5477 306.593 36.0633 306.61 38.2849C306.61 40.2973 304.424 41.7969 301.378 41.7969C298.019 41.7969 295.559 39.8238 295.559 37.0616H292.669Z" fill="white"/>
</g>
<defs>
<clipPath id="clip0_4278_31079">
<rect width="145" height="60" fill="white" transform="translate(0.5)"/>
</clipPath>
</defs>
</svg>
