<svg viewBox="0 0 60 64" fill="none" xmlns="http://www.w3.org/2000/svg">
<g clip-path="url(#clip0_4278_31036)">
<path d="M21.4395 2.00504C11.6678 2.7281 3.36066 3.39306 2.97009 3.47093C1.875 3.66622 0.87879 4.40905 0.410349 5.38672L0 6.24697L0.0395517 26.7496L0.0976434 47.2522L0.723055 48.5228C1.07531 49.2261 3.45954 52.5102 6.05883 55.8906C11.1993 62.5551 11.5701 62.9271 13.5242 63.1224C14.0915 63.1805 18.352 62.9852 22.9647 62.712C27.5972 62.4191 35.0231 61.9692 39.4801 61.7158C58.5156 60.5602 57.5379 60.6578 58.6318 59.7197C60 58.5863 59.9024 60.4428 59.9605 35.5239C60 14.3959 59.9802 13.0091 59.6675 12.3639C59.2967 11.6408 58.6318 11.1328 49.9539 5.03446C44.1496 0.969283 43.7393 0.75422 41.1388 0.714668C40.0647 0.676353 31.1915 1.26221 21.4395 2.00504ZM43.4068 4.6822C44.2275 5.053 50.2282 9.2356 51.107 10.0378C51.3419 10.2726 51.4197 10.4679 51.3023 10.5853C51.0292 10.8201 13.8938 13.0289 12.8197 12.8719C12.3315 12.794 11.6084 12.5011 11.1981 12.2267C9.49736 11.0735 5.27645 7.61398 5.27645 7.3606C5.27645 6.69563 5.13925 6.69563 21.6941 5.50414C24.8607 5.28908 30.0593 4.8985 33.2259 4.64389C40.0845 4.09634 42.1374 4.11612 43.4068 4.6822ZM55.2118 15.3735C55.4849 15.6467 55.7198 16.1745 55.7976 16.6825C55.8557 17.1521 55.8953 25.9079 55.8557 36.1098C55.7976 53.6213 55.7779 54.7164 55.4454 55.2244C55.2501 55.5371 54.8595 55.8696 54.5653 55.9672C53.7459 56.2997 14.8331 58.5084 14.0322 58.2736C13.6614 58.1759 13.1522 57.8632 12.879 57.5901L12.4094 57.0821L12.3513 38.2023C12.3117 24.9512 12.3513 19.0877 12.5082 18.5599C12.6257 18.1693 12.9186 17.6997 13.1732 17.5439C13.5255 17.3091 15.8318 17.1138 23.7669 16.6454C29.3375 16.3327 37.9561 15.8049 42.9013 15.512C54.6642 14.7877 54.6259 14.7877 55.2118 15.3735Z" fill="white"/>
<path d="M44.7552 21.8427C42.6441 21.9799 40.7679 22.1752 40.5528 22.2926C39.9076 22.6251 39.517 23.1726 39.4392 23.7981C39.3811 24.4432 39.5764 24.5211 41.6862 24.7757L42.6045 24.8931V33.2386C42.6045 38.2023 42.5267 41.4863 42.429 41.3887C42.3314 41.2713 39.5566 37.0504 36.2528 32.0075C32.9502 26.9461 30.2137 22.7821 30.1742 22.7438C30.1346 22.7042 27.9852 22.8216 25.4057 22.9984C22.2391 23.2134 20.5001 23.4087 20.1478 23.604C19.5805 23.8969 18.9551 24.9327 18.9551 25.6174C18.9551 26.0278 19.6979 26.2428 21.2614 26.2428H22.0821V50.2433L20.7534 50.6537C19.7177 50.9664 19.3654 51.1617 19.1899 51.5523C18.8772 52.2172 18.897 52.8229 19.2097 52.8229C19.3271 52.8229 21.5358 52.6857 24.0758 52.5299C29.0989 52.237 29.665 52.0998 30.1927 51.064C30.3497 50.7513 30.4856 50.4189 30.4856 50.3212C30.4856 50.2433 29.8021 50.0085 28.9802 49.8132C28.1397 49.6179 27.2993 49.4226 27.1237 49.3831C26.7913 49.2854 26.7715 48.6798 26.7715 40.2751V31.2647L32.7129 40.5878C38.9472 50.3595 39.7296 51.4744 40.6875 51.9626C41.8803 52.588 44.9097 52.1579 46.4337 51.1617L46.9033 50.8688L46.9429 37.5398L47.001 24.1911L48.0367 23.9958C49.2678 23.761 49.8351 23.1949 49.8351 22.2172C49.8351 21.5918 49.7956 21.5523 49.2097 21.572C48.8599 21.5881 46.8465 21.7055 44.7552 21.8427Z" fill="white"/>
</g>
<defs>
<clipPath id="clip0_4278_31036">
<rect width="60" height="63.857" fill="white"/>
</clipPath>
</defs>
</svg>
