<svg viewBox="0 0 60 60" fill="none" xmlns="http://www.w3.org/2000/svg">
<path d="M26.3556 22.4877C26.7636 23.128 26.9765 23.895 26.9497 24.6994C26.9497 25.7998 26.7 26.6494 26.175 27.2752C25.0163 28.6564 22.9632 29.0494 21.2497 29.0494H19.9254C19.6254 29.0494 19.2997 29.0248 18.9504 29.0002V20.6002C19.125 20.5744 19.4754 20.5498 19.9747 20.5744C20.4504 20.5498 21.0247 20.5498 21.675 20.5498C23.3978 20.5498 25.3646 20.9325 26.3556 22.4877Z" fill="white"/>
<path d="M49.3746 0.75H10.6254C4.74961 0.75 0 5.49961 0 11.3754V48.6246C0 54.5004 4.74961 59.25 10.6254 59.25H49.3746C55.2504 59.25 60 54.5004 60 48.6246V11.3754C60 5.49961 55.2504 0.75 49.3746 0.75ZM30.9 29.8746C29.9004 31.275 28.5 32.325 26.8746 32.925C25.1754 33.5496 23.3004 33.7746 21.2496 33.7746C20.6496 33.7746 20.25 33.7746 20.0004 33.75C19.7496 33.7254 19.4004 33.7254 18.9246 33.7254V41.7504C18.9504 41.925 18.825 42.075 18.6504 42.0996H13.8C13.5996 42.0996 13.5 42 13.5 41.775V16.05C13.5 15.8754 13.575 15.7746 13.7496 15.7746C14.175 15.7746 14.5746 15.7746 15.15 15.75C15.75 15.7254 16.3746 15.7254 17.0496 15.6996C17.7246 15.675 18.45 15.675 19.2246 15.6504C20.0004 15.6246 20.7504 15.6246 21.5004 15.6246C23.55 15.6246 25.2504 15.8754 26.6496 16.4004C27.9048 16.8263 29.0493 17.5264 30 18.45C30.8004 19.2504 31.425 20.2254 31.8246 21.3C32.1996 22.35 32.4 23.4246 32.4 24.5496C32.4 26.7 31.8996 28.4754 30.9 29.8746ZM48.6246 39.6C47.925 40.5996 46.95 41.3754 45.825 41.8254C44.6004 42.3504 43.1004 42.6246 41.3004 42.6246C40.1496 42.6246 39.0246 42.525 37.8996 42.3C37.0179 42.1473 36.1604 41.8782 35.3496 41.4996C35.175 41.4 35.0496 41.2254 35.0754 41.025V36.675C35.0754 36.6 35.1 36.5004 35.175 36.45C35.25 36.3996 35.325 36.4254 35.4 36.4746C36.375 37.05 37.4004 37.4496 38.4996 37.7004C39.45 37.95 40.4496 38.0754 41.4504 38.0754C42.3996 38.0754 43.0746 37.95 43.5246 37.725C43.9254 37.5504 44.1996 37.125 44.1996 36.675C44.1996 36.3246 44.0004 36 43.5996 35.6754C43.2 35.3496 42.375 34.9746 41.1504 34.5C39.8754 34.05 38.7 33.45 37.5996 32.7C36.825 32.1504 36.1746 31.425 35.7 30.5754C35.3004 29.775 35.1 28.8996 35.1246 28.0254C35.1246 26.9496 35.4246 25.9254 35.9754 24.9996C36.6 24 37.5246 23.1996 38.6004 22.7004C39.7746 22.1004 41.25 21.825 43.0254 21.825C44.0496 21.825 45.0996 21.9 46.125 22.05C46.875 22.1496 47.6004 22.35 48.2754 22.6254C48.375 22.65 48.4746 22.7496 48.525 22.8504C48.5496 22.95 48.5754 23.0496 48.5754 23.1504V27.225C48.5754 27.3246 48.525 27.4254 48.45 27.4746C48.225 27.525 48.0996 27.525 48 27.4746C47.25 27.075 46.4496 26.7996 45.6 26.625C44.6754 26.4246 43.7496 26.3004 42.8004 26.3004C42.3 26.2746 41.775 26.3496 41.3004 26.475C40.9746 26.55 40.7004 26.7246 40.5246 26.9754C40.4004 27.1746 40.3254 27.4254 40.3254 27.6504C40.3254 27.8754 40.425 28.1004 40.575 28.2996C40.8 28.575 41.1 28.8 41.4246 28.9746C42 29.2746 42.6 29.55 43.2 29.7996C44.55 30.2496 45.8496 30.8754 47.0496 31.6254C47.8746 32.1504 48.5496 32.85 49.0254 33.6996C49.425 34.5 49.6254 35.3754 49.5996 36.2754C49.6254 37.4496 49.275 38.625 48.6246 39.6Z" fill="white"/>
</svg>
