<svg width="100%" height="100%" viewBox="0 0 228 120" fill="none" xmlns="http://www.w3.org/2000/svg">
<path d="M96.2148 71.7266L96.1211 48.2664C96.1211 45.9077 97.9542 43.9997 100.305 43.9997H100.765C103.118 43.9997 105.026 45.9077 105.026 48.2664L105.12 71.7266C105.12 74.0816 103.215 75.9951 100.856 75.9951H100.373C98.0149 75.9951 96.2148 74.0816 96.2148 71.7266Z" fill="#222222"/>
<path d="M150.013 46.7707L159.48 62.2091C161.527 65.5429 162.002 66.4114 162.002 68.8694C162.002 72.746 158.494 75.7119 155.38 75.7119H142.598C140.262 75.7119 138.379 74.0965 138.379 71.7617V71.4949C138.379 69.162 140.262 67.2724 142.598 67.2724H150.434C150.924 67.2724 151.237 67.2062 151.365 66.8952C151.508 66.5549 151.47 66.3635 151.237 65.9827L145.654 57.0096C145.561 56.8606 145.458 56.6545 145.282 56.6545C145.12 56.6545 144.98 56.8606 144.905 57.0206L136.369 71.6844C135.047 74.0119 133.482 75.7119 131.149 75.7119H114.748C111.644 75.7119 108.516 72.6448 108.516 69.4674V48.2536C108.516 45.9225 110.4 44.0293 112.724 44.0293H113.262C115.591 44.0293 117.481 45.9225 117.481 48.2536L117.474 65.5834C117.474 66.2237 117.937 66.7297 118.626 66.7297H126.781C128.205 66.7297 129.066 66.2163 129.815 64.9689L140.776 46.7707C141.823 45.0394 143.498 44.1139 145.474 44.1139C147.387 44.1139 148.902 44.9805 150.013 46.7707Z" fill="#222222"/>
<path d="M75.1099 64.7308C74.4744 64.7308 73.9656 65.2441 73.9656 65.8789V71.783C73.9656 74.116 72.0791 76 69.7537 76H69.2118C66.8864 76 65 74.116 65 71.783L65.0037 61.0455C65.0037 58.3207 67.0921 56.019 70.0201 56.019H87.1466C89.4702 56.019 91.3585 57.9104 91.3585 60.2433V60.5083C91.3585 62.8449 89.4702 64.7308 87.1466 64.7308H75.1099Z" fill="#222222"/>
<path d="M69.2653 44.6067H89.2151C91.5663 44.6067 93.4784 46.4447 93.4784 48.7979V49.0629C93.4784 51.4271 91.5663 53.3369 89.2151 53.3369H69.2653C66.9124 53.3369 65.0039 51.4271 65.0039 49.0629V48.7703C65.0039 46.4116 66.9124 44.6067 69.2653 44.6067Z" fill="#222222"/>
</svg>
