<svg width="100%" height="100%" viewBox="0 0 228 120" fill="none" xmlns="http://www.w3.org/2000/svg">
<path d="M55.5862 60.069C55.5862 63.1034 54.8965 65.7241 53.2414 67.931C50.6207 71.6552 46.3448 74 41.7931 74C37.7931 74 34.4828 72.4828 31.8621 69.7241C29.2414 66.9655 28 63.6552 28 59.6552C28 55.931 29.3793 52.6207 32.1379 50C34.7586 47.3793 38.069 46 41.931 46C47.7241 46 52.6897 49.5862 54.8965 55.2414H47.4483C45.7931 53.4483 44 52.6207 41.931 52.6207C37.931 52.6207 34.8966 55.7931 34.8966 59.6552C34.8966 63.931 38.2069 67.2414 41.931 67.2414C44.4138 67.2414 46.6207 66 48 63.6552H40.2759V58.2759H55.5862C55.4483 58.8276 55.5862 59.5172 55.5862 60.069ZM57.2414 73.4483V46.4138H66.2069C68.9655 46.4138 71.3103 46.5517 72.9655 47.931C75.4483 49.5862 76.5517 52.069 76.5517 55.5172C76.5517 59.931 74.3448 63.1034 70.4828 64.2069L77.1034 73.4483H68.9655L63.8621 64.7586V73.4483H57.2414ZM65.1034 58.9655C68.4138 58.9655 69.931 58.1379 69.931 55.6552C69.931 53.4483 68.5517 52.4828 65.6552 52.4828H63.8621V58.9655H65.1034ZM81.6552 50C84.2759 47.3793 87.7241 46.1379 91.4483 46.1379C95.0345 46.1379 98.4828 47.5172 101.103 50.1379C103.862 52.7586 105.241 56.2069 105.241 59.7931C105.241 63.6552 103.862 67.1034 101.379 69.7241C98.7586 72.4828 95.1724 73.8621 91.4483 73.8621C87.4483 73.8621 84.1379 72.4828 81.3793 69.7241C78.8965 66.9655 77.5172 63.6552 77.5172 59.7931C77.6552 55.931 79.0345 52.6207 81.6552 50ZM91.4483 67.2414C95.3103 67.2414 98.4827 64.2069 98.4827 59.7931C98.4827 55.931 95.3103 52.7586 91.5862 52.7586C87.5862 52.7586 84.4138 55.931 84.4138 59.7931C84.4138 63.931 87.7241 67.2414 91.4483 67.2414ZM113.655 46.5517V63.1034C113.655 66.1379 114.621 67.6552 116.828 67.6552C119.172 67.6552 120.276 66.1379 120.276 63.1034V46.5517H126.897V63.3793C126.897 70 122.897 73.8621 116.828 73.8621C110.759 73.8621 107.034 70.1379 107.034 63.3793V46.4138L113.655 46.5517ZM128.69 73.4483V46.4138H137.655C140.414 46.4138 142.759 46.5517 144.414 47.931C146.897 49.5862 148 52.069 148 55.5172C148 58.9655 146.483 61.8621 143.724 63.5172C142.069 64.4828 139.862 64.7586 137.103 64.7586H135.172V73.4483H128.69ZM136.69 58.9655C140 58.9655 141.517 58.1379 141.517 55.6552C141.517 53.4483 140.138 52.4828 137.103 52.4828H135.31V58.9655H136.69ZM153.103 50C155.586 47.3793 159.034 46.1379 162.897 46.1379C166.483 46.1379 169.931 47.5172 172.552 50.1379C175.31 52.7586 176.69 56.2069 176.69 59.7931C176.69 63.6552 175.31 67.1034 172.828 69.7241C170.207 72.4828 166.621 74 162.897 74C158.897 74 155.586 72.6207 152.828 69.8621C150.345 67.1034 148.966 63.7931 148.966 59.7931C148.966 55.931 150.483 52.6207 153.103 50ZM162.897 67.2414C166.759 67.2414 169.931 64.2069 169.931 59.7931C169.931 55.931 166.759 52.7586 163.034 52.7586C159.034 52.7586 155.862 55.931 155.862 59.7931C155.724 63.931 159.172 67.2414 162.897 67.2414ZM177.931 73.4483V46.4138H183.862L193.793 61.3103V46.4138H200.414V73.3103H194.621L184.552 58.4138V73.4483H177.931Z" fill="#222222"/>
</svg>
