<svg width="100%" height="100%" viewBox="0 0 228 120" fill="none" xmlns="http://www.w3.org/2000/svg">
<path fill-rule="evenodd" clip-rule="evenodd" d="M32 57.2578H35.8031L52.1899 75.3521V57.2578H54.829V79.2358H52.1899L34.5623 59.5896V79.2358H32V57.2578ZM108.335 70.2266C108.335 78.1487 102.123 79.7803 96.9978 79.7803C91.8713 79.7803 85.6587 78.1487 85.6587 70.2266V57.2578H88.3007V70.2266C88.3007 75.2762 91.563 77.6061 96.9978 77.6061C102.357 77.6061 105.617 75.2762 105.617 70.2266V57.2578H108.335V70.2266ZM122.157 59.5896H111.985V57.2578H135.052V59.5896H124.876V79.2358H122.157V59.5896ZM139.09 57.2578H141.73V79.2358H139.09V57.2578ZM170.464 73.4112C168.054 77.9922 164.015 79.7803 158.659 79.7803C150.115 79.7803 146.078 74.7317 146.078 68.2876C146.078 60.7526 151.202 56.7161 158.582 56.7161C163.32 56.7161 168.133 58.4996 170.074 63.0056L167.823 64.0918C166.267 60.4424 162.849 58.9663 158.66 58.9663C152.369 58.9663 148.8 62.3833 148.8 68.6747C148.8 73.7214 152.214 77.4486 158.892 77.4486C163.241 77.4486 166.268 75.6623 168.054 72.2453L170.464 73.4112ZM101.321 50.1099C106.38 45.2318 112.764 37.8852 119.931 27.1057C124.088 20.8424 126.315 15 126.315 15C126.315 15 123.544 24.1545 119.81 32.1037C113.547 45.3527 110.054 48.7856 110.054 48.7856L101.321 50.1099Z" fill="#222222"/>
<path fill-rule="evenodd" clip-rule="evenodd" d="M122.824 26.3828C122.703 34.6938 121.017 39.451 119.993 41.6796C117.402 47.3412 115.355 48.4245 115.355 48.4245L108.55 50.1106C108.55 50.1106 114.091 46.7376 117.645 40.8361C122.28 33.1877 122.824 26.3828 122.824 26.3828ZM170.851 79.2365H173.801L176.675 73.5703H190.886L193.681 79.2365H196.708L185.372 57.2585H182.11L170.851 79.2365ZM177.84 71.1636L183.741 59.355L189.645 71.1636H177.84ZM65.3911 71.1636L71.2945 59.355L77.1959 71.1636H65.3911ZM58.4034 79.2365H61.3565L64.2253 73.5703H78.4396L81.2343 79.2365H84.2633L72.9242 57.2585H69.6628L58.4034 79.2365Z" fill="#222222"/>
</svg>
