<svg width="100%" height="100%" viewBox="0 0 228 120" fill="none" xmlns="http://www.w3.org/2000/svg">
<path d="M106.905 54.1877C111.281 43.3832 103.097 40.4482 97.7695 40.4482H80.1202C81.5848 41.4571 81.3468 42.7962 81.0539 43.6217L70.7646 76.5486C70.3618 77.851 68.8239 79.2268 68 79.4286H82.2806C81.4933 79.2819 80.3765 78.1629 80.7793 76.6404L84.5142 64.7353C84.5325 64.7353 101.706 67.065 106.905 54.1877ZM93.0276 43.475C94.8951 43.475 100.076 43.7318 96.7259 53.5456C93.229 63.8548 85.4662 61.7269 85.4662 61.7269L91.1784 43.475H93.0276Z" fill="#222222"/>
<path d="M118.328 79.4474H127.94C124.864 78.4568 120.323 75.5402 118.511 73.4673C119.976 71.8714 121.788 69.8536 122.118 65.763H117.138C117.138 65.763 118.09 66.3133 118.09 67.4873C118.09 68.5696 117.65 70.0738 116.808 71.1194C115.344 68.9548 113.787 66.4784 113.238 62.8463C115.197 61.8741 117.943 60.8102 120.122 58.9024C122.191 57.0864 122.667 55.3621 122.704 54.2431V54.0964C122.704 52.9224 122.246 51.8218 121.404 50.9963C119.957 49.5655 117.687 48.9785 115.289 49.4188C113.366 49.7856 111.737 50.8129 110.913 51.565C108.02 54.2982 107.654 58.7924 107.654 60.8285C107.654 61.3238 107.672 61.6907 107.691 61.9108C107.526 61.9842 107.233 62.0943 107.233 62.0943C105.109 62.883 99.4518 64.3872 97.4379 69.0465C97.1816 69.6335 96.8154 70.9176 96.8154 72.4034C96.8154 73.6875 97.0901 75.1183 97.9139 76.4207C99.342 78.6586 101.759 80.0711 105.64 79.9977C109.851 79.9243 114.007 77.0444 114.739 76.5124C115.453 77.1911 117.339 78.9705 118.328 79.4474ZM118.328 53.3993C117.833 56.5361 113.769 59.7096 112.78 60.1315C112.597 58.3705 112.689 55.5822 114.153 53.3076C115.124 51.8034 116.424 51.1431 117.467 51.5099C118.31 51.8034 118.401 52.5739 118.328 53.3993ZM112.689 74.3845C112.121 74.7331 109.888 75.8704 107.8 76.0722C105.86 76.2556 102.638 75.5035 102.656 71.6146C102.656 68.2944 106.263 65.8547 108.222 65.0109C109.009 68.2211 110.785 71.8531 112.689 74.3845Z" fill="#222222"/>
<path d="M147.531 43.5114C153.243 42.1356 157.948 46.6114 158.37 46.9233L159.999 41.732C157.747 41.0533 141.361 35.4952 129.772 48.7393C122.65 56.8839 120.911 73.5767 129.937 78.0525C139.603 82.8403 150.277 77.3188 151.065 76.9336L155.477 62.8456C155.953 61.1397 157.033 60.039 158.937 59.3236H143.595C145.828 60.2592 145.664 61.9468 145.499 62.6438L141.086 76.7318C140.501 76.8419 128.161 79.9236 135.063 58.2964C136.583 53.6554 140.739 45.1439 147.531 43.5114Z" fill="#222222"/>
</svg>
