<svg width="100%" height="100%" viewBox="0 0 228 120" fill="none" xmlns="http://www.w3.org/2000/svg">
<path d="M43.8473 45.4489C44.4876 47.9394 45.0605 50.4636 45.5324 53.0214C45.5644 53.2409 45.5445 53.4648 45.4742 53.6752C45.404 53.8856 45.2854 54.0766 45.128 54.233C44.884 54.5085 44.5492 54.6876 44.1843 54.7378C43.9317 54.7446 43.6805 54.6969 43.4479 54.5982C43.2153 54.4995 43.0067 54.352 42.8362 54.1657C41.7578 52.5502 41.4208 50.6319 40.0727 49.1847C39.9133 49.0351 39.7148 48.9337 39.5001 48.892C39.2854 48.8503 39.0633 48.8701 38.8594 48.9491L38.5561 49.252L38.792 72.5079C38.8636 72.8706 39.0437 73.2031 39.3084 73.4614C39.5732 73.7198 39.9102 73.8919 40.2749 73.9551C40.5602 73.8545 40.8136 73.6799 41.009 73.4492C41.2045 73.2186 41.3349 72.9401 41.3871 72.6425L41.4545 71.3299L41.3197 59.9881C41.1174 59.1467 40.0053 59.1467 39.8705 58.339C40.0053 57.9014 40.5108 57.5985 40.8815 57.3966C42.3644 56.7572 43.9147 56.3196 45.3639 55.5792C45.802 55.5456 46.3412 55.4782 46.7456 55.7138L47.0152 56.084L47.1838 72.3396C47.3186 72.8781 47.4871 73.6522 48.1611 73.7531C48.4644 73.9887 48.3633 74.3926 48.2285 74.6955C47.8915 75.2003 47.2512 75.234 46.7793 75.3013H41.3197C40.8815 75.3349 40.5445 75.032 40.2412 74.7628C39.0616 75.6715 37.0732 75.3013 35.7252 75.4022C34.1412 75.234 32.1528 75.8398 30.771 74.8974C30.5351 74.7291 30.6025 74.3589 30.6025 74.157C30.8721 73.6185 31.6473 73.8204 31.8158 73.181L32.0517 72.4406L31.9843 54.7715L31.8832 49.252C31.7978 49.1196 31.6763 49.0144 31.5329 48.9488C31.3896 48.8832 31.2305 48.8599 31.0743 48.8818C30.4677 48.9491 30.097 49.5549 29.7937 49.9924C29.0859 51.2377 28.6141 52.6175 28.0075 53.8964C27.8033 54.3204 27.4401 54.6469 26.9964 54.8051C26.7016 54.8866 26.3896 54.8824 26.0971 54.793C25.8046 54.7036 25.5437 54.5326 25.345 54.3003C24.6036 53.3916 25.2776 52.18 25.345 51.204L26.5583 45.5836C26.7268 45.3143 26.8616 44.9105 27.1986 44.8431C28.176 44.4729 28.4119 45.8528 29.3218 45.5836L41.4545 45.4826C42.1959 45.4153 42.634 44.3047 43.4766 44.8431L43.8473 45.4489Z" fill="#222222"/>
<path d="M118.127 45.7534L118.396 46.1236L118.464 49.9603L118.632 72.2738C118.733 72.9133 118.969 73.5191 119.643 73.8219C119.732 73.9602 119.79 74.1159 119.814 74.2785C119.837 74.4411 119.825 74.6068 119.778 74.7643C119.509 75.5047 118.666 75.6057 117.925 75.6057L112.836 75.572C112.615 75.5522 112.401 75.4848 112.209 75.3744C112.017 75.264 111.851 75.1132 111.723 74.9326C111.643 74.7713 111.598 74.5947 111.593 74.4146C111.587 74.2345 111.62 74.0553 111.69 73.8893C112.195 73.5527 112.768 73.2162 112.836 72.5094L112.802 62.1099C112.734 61.2685 112.836 60.0232 112.734 59.2155C112.33 60.1579 112.802 61.4704 111.757 62.0089C111.542 62.0691 111.316 62.0822 111.095 62.0474C110.874 62.0125 110.663 61.9305 110.476 61.807C110.047 61.3467 109.755 60.7754 109.634 60.1579C109.331 59.8886 108.96 60.0906 108.657 60.2252C104.713 63.0186 106.432 68.4707 106.095 72.7113C106.028 73.5527 107.174 73.2498 107.275 74.0239C107.259 74.3704 107.129 74.702 106.904 74.9662C106.533 75.3365 105.927 75.3028 105.489 75.3701L99.8941 75.3028C99.7116 75.2603 99.5423 75.1736 99.4013 75.0503C99.2602 74.9271 99.1517 74.7711 99.0853 74.596C99.025 74.4596 99.0026 74.3095 99.0204 74.1615C99.0382 74.0135 99.0955 73.8729 99.1864 73.7546C99.5234 73.4181 100.13 73.4854 100.265 72.9469L100.299 71.668L100.197 59.9559C100.13 58.9799 98.6472 59.0472 98.782 57.9703L99.4897 57.3308C101.107 56.624 102.792 56.1192 104.376 55.3788C104.983 55.3115 105.59 55.3115 105.927 55.85C106.095 56.6914 105.859 57.7347 106.095 58.6434C106.163 58.7443 106.297 58.7107 106.365 58.677C107.342 57.1625 108.623 55.4125 110.611 55.5471C111.353 55.6144 112.229 55.648 112.633 56.3548L112.734 56.1192L112.667 51.744L112.6 51.7104C112.632 51.2368 112.598 50.761 112.499 50.2968C112.566 49.3208 111.016 49.2872 111.488 48.2438C112.903 46.5947 115.228 46.763 116.88 45.4841C117.314 45.4204 117.757 45.516 118.127 45.7534Z" fill="#222222"/>
<path d="M189.036 48.6805L189.878 48.5122C189.878 48.5122 188.564 45.6178 188.025 44.137C188.466 44.1009 188.909 44.135 189.339 44.238C189.98 45.3486 191.159 47.5025 191.159 47.5025C191.159 47.5025 193.181 46.3583 194.226 45.8198C194.551 45.9007 194.844 46.0765 195.069 46.3246L191.968 49.0843L192.878 51.6758C192.878 51.6758 195.069 48.5795 196.181 47.0987C196.562 47.2098 196.895 47.4472 197.124 47.7718C196.686 48.5795 196.012 49.3199 195.675 50.094C196.99 50.195 198.338 50.1613 199.618 50.2623C199.993 50.6386 200.291 51.0845 200.494 51.5748L197.192 51.8441L195.608 54.5702L197.731 54.099C197.731 54.099 199.382 53.3922 201.135 52.7191C201.437 53.1157 201.645 53.5762 201.741 54.0653L198.169 55.4789L195.001 56.152C194.588 56.6644 194.226 57.2169 193.923 57.8011C196.754 57.2963 199.517 56.3876 202.382 55.8154C202.998 57.9419 203.157 60.1745 202.85 62.3668C202.542 64.5592 201.774 66.6619 200.596 68.5372C192.878 70.4892 184.655 68.0323 176.667 69.0756L174.342 69.3449C172.691 67.3592 171.882 64.9024 171.444 62.3446C171.037 59.5498 171.362 56.6974 172.387 54.0653C172.623 54.0317 176.128 53.7288 176.128 53.7288L173.971 51.1037C174.039 50.6661 174.443 50.3296 174.713 49.9594C175.859 51.1373 177.948 53.5605 177.948 53.5605L179.161 53.4595L175.454 49.219C175.865 48.6069 176.391 48.0809 177.004 47.6708L180.139 48.2429C180.139 48.2429 180.105 46.5602 180.172 45.6178C180.82 45.2366 181.526 44.9638 182.262 44.8101C182.902 45.9207 183.34 47.1323 184.048 48.2429C184.857 46.9304 185.565 45.4832 186.272 44.0697C186.319 44.0312 186.376 44.0075 186.436 44.0015C186.496 43.9955 186.556 44.0075 186.609 44.036L189.036 48.6805ZM186.71 47.166L185.025 50.3296L186.003 53.5942L187.452 52.5845L187.856 49.8584C187.486 48.9497 187.115 48.0074 186.71 47.166ZM181.824 47.3679V48.9497L182.599 49.118C182.404 48.5086 182.144 47.9219 181.824 47.3679ZM177.746 49.2526V49.3536C178.588 50.195 180.24 52.046 180.24 52.046V49.9594L177.746 49.2526ZM190.418 49.993L189.676 50.4642L189.845 51.0027L190.519 50.3969L190.418 49.993ZM181.925 50.6661L182.026 53.5942L183.138 51.0364L181.925 50.6661ZM195.507 51.9114L194.462 52.046L192.811 54.6711L193.889 54.6375L195.507 51.9114ZM189.002 53.8297L189.137 56.8587L191.395 53.9644C191.535 53.7886 191.628 53.5801 191.665 53.3586L191.227 52.0124L189.002 53.8297ZM184.115 53.4259L183.408 54.8394L184.756 56.3876C184.598 55.3892 184.384 54.4004 184.115 53.4259ZM187.283 54.7048L186.407 55.1423L186.475 56.3539L187.182 56.5895L187.283 54.7048ZM178.251 54.8731L177.038 56.7578L179.498 57.7001L181.554 55.9164L180.779 55.075L178.251 54.8731ZM173.162 55.2433L175.319 56.2529L175.993 55.1423L173.162 55.2433ZM191.665 56.6231L190.519 58.5078L191.833 58.3732L193.013 56.4549L191.665 56.6231ZM182.936 57.027L179.026 60.2243L177.139 60.2916C177.507 59.8786 177.845 59.4399 178.15 58.979C177.461 58.6552 176.751 58.3742 176.027 58.1376L174.645 59.9887C174.207 60.056 173.702 59.9887 173.365 60.157C173.263 61.7051 173.601 63.1186 173.87 64.5322C174.005 64.9024 174.106 65.5082 174.645 65.4745C178.487 65.4745 182.127 66.0803 185.902 66.4505V60.6281C185.639 60.1247 185.322 59.6508 184.958 59.2146L183.206 60.2579L179.97 60.2916C179.936 60.2243 182.633 58.7434 183.846 57.9694C183.543 57.6328 183.34 57.2289 182.936 57.027ZM173.567 57.0943C173.331 57.5992 173.365 58.3732 173.398 58.9117C173.702 58.4069 174.443 57.4309 174.443 57.4309L173.567 57.0943ZM201.067 57.8684L199.686 58.2723C200.056 59.0127 200.899 60.4599 200.899 60.4599L199.248 60.5272L197.765 58.7434L195.372 59.2819L196.046 60.5272L194.833 60.6618L193.889 59.4502C193.889 59.4502 190.485 60.4262 188.8 60.9647L188.699 61.133C188.733 63.0177 188.867 64.8351 189.07 66.6525L189.238 67.0563C192.406 67.6621 195.608 67.7967 198.978 67.9987L199.281 67.8641C200.191 66.5515 200.697 65.1043 201.202 63.6235C201.708 61.8397 201.843 59.4839 201.067 57.8684Z" fill="#222222"/>
<path d="M78.4209 45.6515L78.5894 46.1227L78.6568 56.1184C79.0612 56.8588 79.4993 55.7145 79.9712 55.6472C81.4203 55.1423 83.1054 55.7145 84.1502 56.8588C86.1723 59.0127 86.4756 61.7725 86.9811 64.5659L87.0485 64.4985C87.3519 61.2676 88.0259 57.8684 90.9579 56.1184C92.5082 55.176 94.7662 55.277 96.2491 56.152C98.069 57.7675 99.5182 59.7531 99.4508 62.2436C99.4808 62.8807 99.401 63.5182 99.2149 64.1283C97.058 65.1717 94.7325 65.9121 92.5419 66.8544C92.0364 67.2583 92.4745 67.8977 92.5419 68.3353C92.9126 69.244 93.3845 70.5229 94.5303 70.6911C95.1707 70.8931 96.0806 71.2969 96.6535 70.7585C97.3276 70.1527 96.822 68.3016 98.3049 68.7728C98.6065 68.8227 98.8932 68.9392 99.1439 69.1139C99.3946 69.2886 99.6031 69.517 99.7541 69.7824C100.159 71.5325 99.3497 73.148 98.5408 74.4605C96.9906 75.7731 94.8673 76.0087 92.8789 75.7731C89.0369 74.999 87.6552 70.9267 87.1159 67.5275C86.8126 70.6238 86.6104 74.3596 83.2065 75.6048C81.117 76.177 78.7916 75.7731 77.3087 74.2923C77.1402 74.023 77.0728 73.6192 76.7021 73.4845C75.8596 73.5182 75.8596 74.4605 75.3877 74.999C74.8485 75.3356 74.2756 75.8741 73.5678 75.6385C73.3266 75.4762 73.1297 75.2564 72.9949 74.999C72.2535 75.8068 71.2087 75.5375 70.1977 75.6048L66.2546 75.5375C66.0221 75.5113 65.8025 75.4177 65.6228 75.2681C65.4431 75.1186 65.3112 74.9197 65.2435 74.6961C65.1761 74.225 65.6479 74.023 65.9849 73.8547C66.3867 73.2371 66.5651 72.5009 66.4905 71.7681C66.3885 68.3512 66.062 64.9447 65.5131 61.5705C65.3109 60.8974 65.1087 60.1233 64.5358 59.6858C64.0977 59.5175 63.7943 59.8541 63.491 60.0897L63.154 60.6282L63.1877 72.6768C63.3562 73.2489 63.5921 73.8884 64.2325 74.0903C64.309 74.1964 64.3557 74.3211 64.3676 74.4513C64.3794 74.5816 64.356 74.7126 64.2999 74.8307C63.5584 75.9077 62.0755 75.3692 61.0308 75.5039C59.7501 75.3356 57.728 76.0087 56.8518 74.7971C56.7904 74.6441 56.7874 74.4739 56.8433 74.3188C56.8992 74.1637 57.0101 74.0346 57.1551 73.9557C57.7954 73.7874 57.9302 73.0807 58.1324 72.6095L58.0313 60.0224C57.9148 59.8083 57.7451 59.6277 57.5386 59.4981C57.332 59.3684 57.0955 59.294 56.8518 59.282C56.3125 59.3156 55.8744 59.7868 55.6048 60.2243C55.0319 61.2676 55.3689 62.4456 55.3015 63.6572L55.4026 72.7105C55.3689 73.4845 56.144 73.7201 56.4811 74.1913C56.5113 74.4082 56.4721 74.6291 56.3693 74.8224C56.2664 75.0158 56.105 75.1719 55.9081 75.2683C53.7512 75.6721 51.8976 75.3692 49.707 75.4366C49.2015 75.3356 48.6285 75.3019 48.3589 74.7971C48.2578 74.5952 48.1904 74.225 48.4263 74.0567C48.6762 73.9579 48.9002 73.8035 49.0812 73.6052C49.2623 73.4069 49.3956 73.1699 49.4711 72.9124L49.6059 72.2393L49.4711 60.157C49.3363 59.181 47.8534 59.3156 48.123 58.2723C48.8308 57.4309 49.9766 57.2626 50.9203 56.8251C51.8018 56.5359 52.6584 56.1758 53.4816 55.7481C54.1219 55.7145 54.8971 55.6135 55.1667 56.253C55.1667 56.7242 54.9982 57.3636 55.47 57.5992C56.2114 57.5319 56.3125 56.6568 56.9192 56.2866C58.0987 55.3106 60.0871 55.5126 61.3678 56.1184C62.0081 56.4886 62.2104 57.0944 62.6822 57.5992C63.5247 57.5992 63.6258 56.5559 64.2325 56.1857C65.3783 55.4452 67.2319 55.6808 68.3104 56.3539C70.2988 57.9694 70.2988 60.5609 70.8717 62.8158C71.4134 65.9056 71.6952 69.0352 71.7142 72.172C71.8153 72.8114 71.7816 73.8211 72.5905 74.023L72.759 74.1913L72.8938 73.9221L72.6579 50.7671C72.6242 49.8921 72.0513 49.1853 71.4783 48.6132C71.4371 48.4806 71.431 48.3397 71.4606 48.204C71.4901 48.0684 71.5543 47.9427 71.6468 47.8391C72.9275 46.6275 74.68 46.5266 76.1629 45.7188C76.8369 45.1467 77.9491 45.0457 78.4209 45.6515ZM91.3961 58.9791C90.9916 60.8301 91.1264 62.4456 91.4635 64.263C91.5983 64.4985 91.6657 64.9024 92.0364 64.9024C92.7441 64.4985 93.5867 64.3303 94.1596 63.6235C95.3392 61.7725 93.9574 59.7868 93.0812 58.1713C92.4071 57.7002 91.632 58.306 91.3961 58.9791ZM80.4767 58.3396C80.1209 58.4719 79.8307 58.7375 79.6679 59.08C78.4546 61.6715 78.3535 64.4985 78.6568 67.4602C78.9264 68.7055 79.0275 70.0517 79.9712 70.994C80.2408 71.1623 80.6115 70.9267 80.8811 70.7248C83.038 67.4266 82.3977 62.4792 81.1844 58.9118C81.0159 58.7771 80.9148 58.2723 80.4767 58.3396Z" fill="#222222"/>
<path d="M163.523 45.7865L163.59 46.9644L163.826 71.2636C163.834 71.4045 163.883 71.5401 163.966 71.6538C164.05 71.7674 164.165 71.854 164.298 71.903C164.568 72.004 165.006 72.0377 165.039 72.4079C165.074 72.6069 165.067 72.8108 165.021 73.0073C164.975 73.2039 164.889 73.3892 164.77 73.5522C163.354 74.3262 161.871 74.7974 160.389 75.3359C159.681 75.4369 158.973 75.9753 158.265 75.5042C157.861 75.2013 158.535 74.5955 157.928 74.4272C157.288 74.8311 156.85 75.6051 156.142 75.8071C154.524 76.11 152.907 75.4369 151.727 74.3599C149.166 71.4319 149.334 66.8211 149.907 63.018C150.153 60.4634 151.217 58.0559 152.94 56.1523C153.363 55.7693 153.871 55.4929 154.422 55.3465C154.973 55.2001 155.552 55.1879 156.108 55.3109C156.715 55.4119 157.086 55.9167 157.625 56.2533C157.76 56.2196 157.895 56.1523 157.895 56.0177L157.861 50.3299C157.692 49.253 155.333 49.0174 156.547 47.6038C157.018 47.3346 157.692 47.5365 158.198 47.3009C159.681 46.4596 161.332 45.9547 162.849 45.1807C163.01 45.2006 163.161 45.2693 163.281 45.3777C163.402 45.486 163.486 45.6287 163.523 45.7865ZM156.075 58.4072C155.603 58.5419 155.502 59.0467 155.333 59.3832C154.693 61.7055 154.187 64.3306 154.558 66.8884C154.895 68.3356 154.963 69.9174 156.21 71.028C156.349 71.1176 156.518 71.1501 156.681 71.1188C156.844 71.0875 156.989 70.9947 157.086 70.8597C158.636 67.9654 158.434 64.196 157.692 60.965C157.322 60.0227 157.153 58.7774 156.075 58.4072Z" fill="#222222"/>
<path d="M146.907 57.7328C147.513 58.7112 147.925 59.7966 148.121 60.93C148.803 64.6352 149.264 68.3775 149.502 72.1373C149.513 72.6038 149.653 73.0583 149.907 73.4498C150.21 73.7191 150.682 73.7527 150.682 74.2239C150.675 74.4254 150.612 74.6208 150.498 74.7875C150.385 74.9543 150.227 75.0856 150.042 75.1663C148.154 75.5028 145.997 75.3345 144.043 75.3345C143.82 75.3091 143.608 75.2279 143.425 75.0985C143.242 74.969 143.095 74.7955 142.998 74.5941C142.931 74.2912 142.964 73.8537 143.335 73.7191C144.11 73.4162 144.076 72.5411 144.211 71.8344C144.279 68.0986 143.436 64.3292 142.391 60.8291C142.232 60.3716 141.923 59.9806 141.515 59.7184C141.357 59.6684 141.187 59.6746 141.033 59.736C140.88 59.7974 140.752 59.9101 140.673 60.055L140.571 60.5262L140.74 72.6421C140.706 73.4835 141.583 73.6181 141.852 74.2576C141.92 74.6951 141.515 75.0316 141.212 75.2336C139.358 75.5701 137.033 75.4019 135.145 75.3682C134.921 75.3328 134.71 75.2397 134.533 75.0981C134.356 74.9564 134.218 74.7712 134.134 74.5605C133.966 74.6951 133.663 75.0316 133.427 75.2336C132.719 75.8057 131.843 75.8394 131 75.8057C130.023 75.6038 129.349 74.9307 128.574 74.2576H128.102C126.653 75.6711 124.496 76.4788 122.575 75.6038C120.957 75.099 119.474 73.5845 119.272 71.868C118.868 69.5795 119.002 66.988 120.923 65.5072C122.44 63.8581 124.395 63.2523 126.316 62.5791C126.72 61.7378 126.653 60.5935 126.383 59.7184C126.113 59.18 125.945 58.5742 125.305 58.3049L123.518 58.1366C123.35 58.1703 123.114 58.2376 123.08 58.4395C123.249 58.9107 123.889 58.9444 124.024 59.5165C124.192 60.2906 124.192 61.3339 123.552 61.9397C122.642 62.5118 121.193 62.7811 120.249 62.0743C119.44 61.4349 119.238 60.5262 119.238 59.5165C119.205 57.9347 120.62 56.7904 121.934 56.2519C123.822 55.6125 125.81 55.7135 127.832 55.949C128.497 56.0348 129.129 56.2864 129.671 56.6804C130.213 57.0745 130.647 57.5984 130.933 58.2039C131.641 60.0886 131.843 62.1753 132.079 64.2283C132.247 66.5841 132.348 69.0746 132.483 71.4305C132.497 71.5607 132.545 71.685 132.622 71.7911C132.699 71.8973 132.802 71.9818 132.921 72.0363C133.326 71.969 133.899 72.0363 133.932 72.5411C134.102 72.9584 134.194 73.4033 134.202 73.8537C134.417 73.8183 134.62 73.7286 134.791 73.5932C134.962 73.4577 135.096 73.281 135.179 73.0796L135.415 72.3056L135.28 60.055C135.213 59.0453 132.652 58.6078 134.438 57.5982C135.887 56.8914 137.437 56.3529 138.853 55.5788C139.324 55.5115 139.897 55.5115 140.268 55.8481C140.538 56.2183 140.336 56.7231 140.673 57.0597C141.144 56.8914 141.144 56.3529 141.515 56.05C141.826 55.7364 142.213 55.5092 142.639 55.3912C143.064 55.2731 143.514 55.2682 143.942 55.3769C145.183 55.778 146.237 56.615 146.907 57.7328ZM125.608 65.3052C123.721 66.3822 124.26 68.7381 124.192 70.4882C124.361 71.1949 124.597 72.1036 125.406 72.3729C125.71 72.4733 126.037 72.4787 126.344 72.3885C126.651 72.2983 126.923 72.1168 127.124 71.868C127.138 69.6431 127.037 67.4188 126.821 65.2043C126.619 64.6994 125.945 65.0023 125.608 65.3052Z" fill="#222222"/>
<path d="M200.087 69.4797C199.086 70.8555 197.868 72.0602 196.481 73.0472C189.201 72.9462 182.495 70.9606 175.417 70.624C175.163 70.4411 174.974 70.1816 174.878 69.8836C180.405 68.9076 186.033 69.4797 191.527 69.8163C194.415 69.949 197.309 69.7571 200.154 69.2441L200.087 69.4797Z" fill="#222222"/>
<path d="M189.202 72.9459C191.325 73.1814 193.448 73.3497 195.537 73.619C191.156 76.6816 184.146 76.7489 179.597 74.0565C178.35 73.2824 177.035 72.441 176.024 71.2631C176.092 71.0948 176.327 71.2294 176.496 71.1621L179.529 71.4314L189.202 72.9459Z" fill="#222222"/>
</svg>
