<svg width="100%" height="100%" viewBox="0 0 228 120" fill="none" xmlns="http://www.w3.org/2000/svg">
<path d="M175.961 60.773L178.196 54.8884L180.427 60.773H175.961ZM180.515 51.5469H175.874L169.389 67.503H173.409L174.886 63.6091H181.502L182.98 67.503H186.999L180.515 51.5469ZM147.782 64.7287C145.162 64.7287 143.043 62.3563 143.043 59.4284C143.043 56.5002 145.162 54.126 147.782 54.126C150.396 54.126 152.519 56.5002 152.519 59.4284C152.519 62.3563 150.396 64.7287 147.782 64.7287ZM147.782 51C143.145 51 139.387 54.7738 139.387 59.4284C139.387 64.0829 143.145 67.8549 147.782 67.8549C152.415 67.8549 156.175 64.0831 156.175 59.4284C156.175 54.7736 152.415 51 147.782 51ZM114.662 64.7287C112.047 64.7287 109.927 62.3563 109.927 59.4284C109.927 56.5002 112.047 54.126 114.662 54.126C117.28 54.126 119.401 56.5002 119.401 59.4284C119.401 62.3563 117.28 64.7287 114.662 64.7287ZM114.662 51C110.027 51 106.272 54.7738 106.272 59.4284C106.272 64.0829 110.027 67.8549 114.662 67.8549C119.297 67.8549 123.055 64.0831 123.055 59.4284C123.055 54.7736 119.297 51 114.662 51ZM135.407 51.5469L131.295 58.0026L127.179 51.5469H123.157L129.523 61.553V67.503H133.064V61.5544L139.429 51.5469H135.407ZM170.235 51.5469H156.65V54.6066H161.682V67.503H165.225V54.6064H170.235V51.5469H170.235ZM91.9453 54.6064H96.9784V67.5028H100.521V54.6064H105.532V51.5469H91.9453V54.6064Z" fill="#222222"/>
<path fill-rule="evenodd" clip-rule="evenodd" d="M42 40H81.8331V80H42V40ZM48.9925 60.0805C48.9925 54.8946 54.7492 51 62.2701 51C69.7911 51 75.5478 54.8946 75.5478 60.0805C75.5478 65.0954 69.938 69.1609 62.2701 69.1609C54.6022 69.1609 48.9925 65.0954 48.9925 60.0805ZM65.3493 57.8708C69.5273 57.4133 70.8258 56.014 70.5491 54.8946C70.4 54.2909 69.4979 53.589 68.046 53.039C66.4934 52.4733 64.7124 52.1543 62.8337 52.1012C64.2294 52.6112 65.0711 55.0197 65.3493 57.8708ZM62.2701 65.1461C63.2802 65.1461 64.3605 63.6489 64.3605 60.0366L64.3603 59.999C63.689 60.056 62.9903 60.0859 62.2701 60.0859C61.55 60.0859 60.8512 60.056 60.1799 59.999L60.1797 60.0366C60.1797 63.6487 61.2601 65.1461 62.2701 65.1461ZM60.3107 57.9658C60.9132 58.003 61.5648 58.0232 62.2694 58.0232C62.9747 58.0232 63.6267 58.003 64.2292 57.9656C63.9119 55.6036 63.0691 54.2304 62.2699 54.2304C61.471 54.2304 60.628 55.6038 60.3107 57.9658ZM56.4709 53.0472C55.032 53.5962 54.1384 54.294 53.9898 54.8946C53.7131 56.0142 55.0119 57.4135 59.1907 57.8708C59.469 55.0197 60.3109 52.611 61.7066 52.101C59.8186 52.1543 58.0289 52.4762 56.4709 53.0472ZM52.3479 55.8082C51.4607 56.9024 50.9506 58.2241 50.9506 59.7533C50.9506 64.1659 55.7761 67.8431 61.7211 68.0576C60.3368 67.522 59.0878 64.9286 59.0878 60.0366C59.0878 59.9839 59.088 59.9313 59.0884 59.8788C55.194 59.348 52.4628 57.8358 52.3479 55.8082ZM65.4525 60.0366C65.4525 64.7169 64.1887 67.4995 62.7947 68.0584C68.7509 67.853 73.5897 64.1721 73.5897 59.7533C73.5897 58.2241 73.0796 56.9024 72.1924 55.8082C72.0775 57.8358 69.3463 59.348 65.4519 59.8788C65.4523 59.9313 65.4525 59.9841 65.4525 60.0366Z" fill="#222222"/>
</svg>
