<svg width="100%" height="100%" viewBox="0 0 228 120" fill="none" xmlns="http://www.w3.org/2000/svg">
<path d="M121.649 40.7702C119.594 41.8599 118.859 43.6564 118.859 48.6336C118.859 48.6336 119.887 47.6322 121.414 47.0727C122.531 46.6898 123.47 46.0714 124.028 45.6591C125.761 44.3927 125.996 42.7729 125.996 40.034C125.996 40.034 123.177 39.9456 121.649 40.7702Z" fill="#222222"/>
<path d="M109.609 41.9479C107.964 43.4204 107.465 45.747 107.465 45.747L101.944 67.0104L97.3914 49.5756C96.9509 47.7497 96.1285 45.4231 94.8656 43.8916C93.2797 41.9479 90.0197 41.8301 89.6673 41.8301C89.3148 41.8301 86.0255 41.9479 84.4102 43.9211C83.1473 45.482 82.325 47.7791 81.8844 49.605L77.3322 67.0398L71.8695 45.747C71.8695 45.747 71.3996 43.391 69.7256 41.9479C67.0236 39.5624 63 40.0631 63 40.0631L73.4848 79.9392C73.4848 79.9392 76.9504 80.2043 78.6832 79.2913C80.9446 78.1427 82.0606 77.2297 83.441 71.7814C84.6745 66.9515 88.1107 52.7563 88.4338 51.7255C88.5806 51.2248 88.7862 50.0174 89.6673 50.0174C90.5777 50.0174 90.7539 51.1954 90.9008 51.7255C91.2238 52.7268 94.6307 66.9515 95.8936 71.7814C97.2739 77.2003 98.3606 78.0838 100.651 79.2913C102.384 80.2043 105.85 79.9392 105.85 79.9392L116.335 40.0925C116.335 40.0925 112.311 39.5919 109.609 41.9479ZM125.997 46.5717C125.997 46.5717 125.351 47.573 123.853 48.4565C122.884 48.9866 121.973 49.3694 120.975 49.8407C119.33 50.6358 118.86 51.5488 118.86 52.9035V79.9392C118.86 79.9392 121.533 80.2632 123.236 79.4091C125.468 78.2605 125.968 77.1708 125.997 72.1937V46.5717ZM152.194 60.0895L165.499 40.1808C165.499 40.1808 159.889 39.209 157.099 41.7712C155.308 43.391 153.31 46.3066 153.31 46.3066L148.435 53.4336C148.171 53.787 147.906 54.1993 147.407 54.1993C146.908 54.1993 146.585 53.8165 146.379 53.4336L141.445 46.336C141.445 46.336 139.478 43.4204 137.657 41.8006C134.896 39.2384 129.257 40.2103 129.257 40.2103L142.591 60.06L129.257 79.8803C129.257 79.8803 135.131 80.646 137.892 78.0838C139.683 76.464 141.416 73.784 141.416 73.784L146.291 66.6864C146.556 66.333 146.82 65.9207 147.319 65.9207C147.818 65.9207 148.141 66.3035 148.347 66.6864L153.222 73.784C153.222 73.784 155.043 76.4051 156.805 78.0838C159.566 80.646 165.352 79.8803 165.352 79.8803L152.194 60.0895Z" fill="#222222"/>
</svg>
