<svg width="100%" height="100%" viewBox="0 0 228 120" fill="none" xmlns="http://www.w3.org/2000/svg">
<path fill-rule="evenodd" clip-rule="evenodd" d="M88.1258 88.0015H139.872C141.046 88.0015 141.998 87.0497 141.998 85.8755V34.1254C141.998 32.9512 141.046 32 139.872 32H88.1258C86.9517 32 86 32.9512 86 34.1254V85.8755C86 87.0497 86.9517 88.0015 88.1258 88.0015ZM125.505 49.6132H129.911C130.098 49.6132 130.253 49.7633 130.253 49.9482V70.05C130.253 70.2333 130.098 70.3833 129.911 70.3833H125.505C125.317 70.3833 125.164 70.2333 125.164 70.05V49.9482C125.164 49.7633 125.317 49.6132 125.505 49.6132ZM114.868 49.6132H98.0864C97.8978 49.6132 97.7461 49.7633 97.7461 49.9482V70.05C97.7461 70.2333 97.8978 70.3833 98.0864 70.3833H102.493C102.681 70.3833 102.836 70.2333 102.836 70.05V54.273C102.836 54.0908 102.988 53.9397 103.176 53.9397H112.668C115.338 53.9397 116.095 55.9842 116.095 57.3031V70.05C116.095 70.2333 116.249 70.3833 116.437 70.3833H120.841C121.029 70.3833 121.182 70.2333 121.182 70.05V55.7897C121.182 54.6134 121.041 52.922 119.523 51.4332C117.935 49.879 116.487 49.6132 114.868 49.6132ZM107.156 57.6198H111.782C111.969 57.6198 112.123 57.7698 112.123 57.9536V70.0515C112.123 70.2342 111.969 70.3843 111.782 70.3843H107.156C106.967 70.3843 106.812 70.2342 106.812 70.0515V57.9536C106.812 57.7698 106.967 57.6198 107.156 57.6198Z" fill="#222222"/>
</svg>
