<svg width="100%" height="100%" viewBox="0 0 228 120" fill="none" xmlns="http://www.w3.org/2000/svg">
<path d="M121.635 28.0175C122.701 29.5834 123.929 31.7567 123.525 33.6666C122.897 34.2477 122.008 34.4425 121.247 34.8305C120.626 32.4676 117.653 28.0579 117.948 28.1352L117.906 27.1346C119.34 26.4885 120.438 27.1258 121.635 28.0175Z" fill="#222222"/>
<path d="M108.016 40.2679C108.48 41.0982 107.469 41.6915 106.756 41.99L105.829 42.2059L100.088 38.4492L100.07 37.8892C100.614 38.2509 100.955 37.2064 101.551 37.2818C103.891 37.1519 106.526 38.3825 108.016 40.2679Z" fill="#222222"/>
<path d="M140.927 32.2419C140.207 32.8528 139.426 31.975 138.992 31.336L138.598 30.4636L141.187 24.1264L141.736 24C141.486 24.5969 142.577 24.7355 142.615 25.3341C143.196 27.5987 142.497 30.4144 140.927 32.2419Z" fill="#222222"/>
<path d="M135.594 33.793C134.062 32.7924 132.208 32.4746 130.531 33.4314C127.984 34.8884 126.304 38.0693 125.622 40.9359C125.53 41.3046 124.952 43.3567 125.339 43.6885C122.853 41.5521 120.682 39.033 117.159 39.335C112.804 39.7089 109.572 43.6323 110.621 48.2105C110.916 49.4868 111.31 50.526 111.996 51.6267C113.745 54.4284 116.806 58.0586 119.81 59.4999C126.343 62.6386 128.225 61.9066 129.043 61.064C129.073 61.0341 119.354 58.5519 115.653 47.2292C112.535 37.7164 126.331 51.2931 126.042 51.3247C126.876 51.2369 127.745 51.1931 128.282 50.4452C128.282 50.4452 128.185 47.6014 128.255 46.0706C128.352 44.0764 129.103 36.8773 132.559 38.624C134.591 39.6562 134.987 42.1314 134.968 44.2502C134.918 49.0883 133.673 53.8614 131.727 58.2307C131.163 59.4981 130.549 60.7392 129.97 61.9996C129.96 62.0207 129.576 62.8352 129.756 62.8475C131.951 62.7246 134.313 58.9399 135.288 57.0457C136.95 53.8262 138.238 50.0731 138.79 46.4621C139.237 43.534 139.622 40.0249 138.452 37.2284C137.875 35.8521 136.837 34.6005 135.594 33.793Z" fill="#222222"/>
<path d="M166.717 57.115C166.185 56.7112 165.531 56.411 165.037 56.1828C163.832 55.6228 162.528 55.3051 161.248 54.9751C159.2 54.4449 157.118 54.0359 155.021 53.7655C153.862 53.6163 152.692 53.5128 151.524 53.4654C147.939 53.3074 142.595 53.3197 139.708 55.9019C138.218 57.2361 137.666 58.4983 138.598 60.1572C141.313 55.4754 152.657 57.3519 154.395 57.4994C157.028 57.7276 159.564 58.191 162.09 58.9652C162.787 59.1741 163.482 59.383 164.194 59.534C164.991 59.7043 165.872 59.792 166.643 59.4725C167.156 59.2566 167.76 58.7914 167.559 58.1805C167.427 57.7627 167.111 57.4134 166.717 57.115Z" fill="#222222"/>
<path d="M80.2935 56.2328C81.2803 55.5429 82.4536 55.2357 83.0974 55.0601C87.8398 53.7857 92.788 52.9483 97.7221 52.85C101.842 52.7728 107.886 53.1958 111.152 56.0449C112.839 57.5195 113.399 58.9467 112.292 60.7144C111.847 59.9614 110.922 59.2364 110.192 58.7834C107.895 57.344 104.79 57.1579 102.153 57.0842C99.5445 57.0139 96.9534 57.2316 94.3535 57.437C91.5109 57.6652 88.707 58.0988 85.9066 58.6395C83.2751 59.1416 81.2663 59.8525 80.0631 59.2592C78.3374 58.4043 78.8704 57.2158 80.2935 56.2328Z" fill="#222222"/>
<path d="M69.9478 57.7442C68.4052 56.0941 65.8123 56.7998 65.172 58.894C65.172 58.894 65.0524 68.3595 65.0542 68.363C65.07 68.5104 66.1835 68.1242 67.5978 66.8006C69.4711 65.0469 71.4976 61.2007 70.4738 58.5921C70.3577 58.2866 70.1836 58.0023 69.9478 57.7442ZM74.7553 57.3036C76.7729 60.8953 75.6735 65.2102 73.1722 68.2085C69.3973 72.734 65.3603 73.5451 65.355 73.7189C65.355 73.7189 64.8413 87.8029 63.9776 87.536C63.9776 87.536 60.8888 87.3289 59.6011 86.0369C58.7023 85.1416 59.1491 66.8287 59.0224 61.1954C58.9116 56.3627 59.2476 55.9519 59.2476 55.9519C61.6452 52.0916 67.3075 51.5738 71.049 53.7049C72.553 54.5598 73.9039 55.7851 74.7553 57.3036Z" fill="#222222"/>
<path d="M135.143 67.6213C135.815 65.9712 137.558 65.7833 138.635 67.0314C139.115 67.5862 139.462 68.3252 139.595 69.0432C139.833 70.3299 139.543 70.8074 139.543 70.8074C139.117 71.327 134.668 73.1106 134.503 73.0123C134.269 72.8736 134.426 69.396 135.143 67.6213ZM141.851 77.2535C140.676 77.0253 140.793 78.233 138.862 79.906C136.237 82.1793 134.257 80.5765 134.327 77.0516C134.107 76.6935 142.887 73.3704 143.182 72.3417C144.243 68.65 143.071 63.3503 138.542 62.3602C137.601 62.1583 136.584 62.074 135.416 62.3479C129.59 63.7347 127.484 78.7684 131.513 83.6854C135.578 88.6323 142.862 83.9295 144.399 78.3734C144.399 78.3752 143.39 77.5449 141.851 77.2535Z" fill="#222222"/>
<path d="M112.171 72.2314C112.142 70.5637 112.026 68.8117 111.518 67.1827C111.152 65.9995 110.649 64.8146 109.813 63.8807C109.117 63.0995 107.944 62.471 106.886 62.3569C104.619 62.1129 101.979 66.3243 101.979 66.3243C101.731 66.2242 101.038 62.2376 98.6734 62.2376C96.8475 62.2376 94.5854 66.4629 94.5854 66.4629C94.5836 66.4594 94.4552 62.773 94.3461 61.9216C94.2353 61.0737 90.3355 61.0351 90.0804 62.2815C90.0347 65.8907 88.8632 81.6459 90.7753 84.1843C91.1517 84.6881 94.7243 86.9965 94.6839 85.4938C94.6557 84.4213 94.7841 74.7171 95.4244 71.05C95.6478 69.7772 96.1861 67.2108 98.165 67.6216C100.081 68.0218 99.0498 78.7178 99.6109 82.3112C99.7059 82.9379 99.8607 84.1211 100.214 84.6705C100.54 85.1744 103.518 86.3084 103.518 85.5237C103.518 84.4493 103.775 73.6252 103.845 72.3209C103.922 70.8007 103.789 68.731 105.127 67.6567C106.288 66.728 107.361 68.0218 107.495 69.2085C107.87 72.4491 107.553 75.7072 107.708 78.9548C107.783 80.5294 107.907 84.1334 108.417 84.6424C108.848 85.0743 112.179 86.5805 112.179 85.4184C112.176 80.9893 112.257 77.3994 112.171 72.2314Z" fill="#222222"/>
<path d="M121.13 78.3982C119.928 79.4111 118.945 79.4497 118.945 79.4497C118.945 79.4444 119.126 67.2914 119.13 67.2756C119.159 67.1036 119.94 66.4716 121.101 66.5927C121.828 66.6735 122.495 67.0702 122.971 67.6618C125.189 70.4354 123.538 76.3653 121.13 78.3982ZM127.511 65.7782C124.713 60.877 118.02 61.7547 114.338 65.4552C113.803 65.9906 113.492 93.3371 114.785 95.1171C115.156 95.6262 118.697 96.7444 118.679 95.2453C118.674 94.8046 118.716 88.9695 118.769 84.1525C119.626 84.5545 124.813 83.101 126.973 78.4614C128.792 74.5467 129.533 69.3189 127.511 65.7782Z" fill="#222222"/>
<path d="M80.0409 78.6128C79.7999 78.9305 78.9907 79.8083 78.2238 80.3086C77.4129 80.8335 76.6477 80.9476 76.6371 79.573C76.6301 78.5882 77.0329 77.4876 77.4076 76.5905C78.171 74.7701 80.2502 72.2984 82.4965 72.553C82.493 72.553 82.442 75.4003 80.0409 78.6128ZM86.8009 64.8184C85.902 62.9857 84.4297 61.7394 82.0567 61.6358C79.6873 61.5305 76.9432 62.2572 75.8121 64.5481C75.7136 64.7394 75.6556 64.9238 75.6274 65.0923C75.5254 65.5487 75.5659 66.0244 75.8139 66.4844C75.8139 66.4844 76.9133 68.1942 77.5149 67.7325C78.2678 67.1567 78.9573 66.4949 79.7207 65.9314C80.5739 65.3082 82.7058 63.9232 83.5396 65.389C83.9213 66.0613 83.8914 67.2533 83.8158 67.9993C83.7894 68.2293 83.7542 68.468 83.7173 68.698C77.9775 69.1544 72.0021 73.3306 71.5517 79.2536C71.367 81.6585 71.9282 84.6604 74.5052 85.5609C77.2422 86.5053 79.6996 84.3374 81.2968 82.38C82.2186 81.2442 83.0277 80.0189 83.8738 78.82C83.8738 78.82 83.7349 84.2987 83.7806 85.0536C83.997 86.6651 86.4737 85.0764 86.8642 84.9044C87.7033 84.534 87.7613 80.5614 87.7701 80.1629C87.8528 76.5624 88.8941 69.0947 86.8009 64.8184Z" fill="#222222"/>
<path d="M156.648 63.576C156.529 63.2881 156.342 63.0266 156.068 62.8229C155.317 62.263 154.275 62.4139 153.445 62.7018C151.871 63.2513 150.622 64.4309 149.711 65.7984C149.528 66.0705 149.385 66.3409 149.255 66.6095C149.339 65.3596 149.426 63.2179 149.068 62.7264C148.528 61.9926 144.859 62.5298 144.778 63.1284C144.743 63.3882 145.832 82.3471 145.909 82.9001C146.09 84.1798 145.816 85.2454 147.192 85.686C147.751 85.8668 149.772 86.7674 149.855 85.3806C149.901 84.6152 149.765 79.0995 149.765 79.0995C149.633 75.9257 149.934 72.6096 151.573 69.8167C152.592 68.0788 154.376 66.2162 156.471 65.895C156.664 65.8652 156.736 65.4035 156.766 65.2455C156.865 64.6943 156.859 64.0904 156.648 63.576Z" fill="#222222"/>
<path d="M167.872 76.2546C166.968 74.8116 165.707 73.7513 164.588 72.4927C163.218 70.9549 161.278 68.7764 162.421 66.719C163.015 65.6499 164.154 65.2356 165.299 65.8219C166.85 66.6119 166.549 68.3164 165.835 69.4294C165.761 69.54 166.593 69.5856 166.62 69.5856C167.005 69.5804 167.346 69.5365 167.665 69.3276C169.637 68.0443 169.04 64.888 167.452 63.359C166.79 62.7235 165.848 62.2267 164.975 62.0266C160.908 61.0769 155.993 64.2367 157.487 68.7044C158.036 70.3282 158.956 71.7782 160.095 73.0491C161.302 74.3868 163.431 75.9509 163.693 77.845C163.927 79.5864 162.161 80.7486 160.658 80.9188C158.847 81.1172 157.195 79.834 156.588 78.1698C156.271 77.3044 155.928 77.192 155.376 77.9521C154.291 79.4425 154.883 81.8211 156.134 83.2711C156.233 83.387 156.336 83.4994 156.445 83.6064C158.745 85.9254 163.098 86.8716 165.999 85.1442C169.228 83.2185 169.846 79.4039 167.872 76.2546Z" fill="#222222"/>
</svg>
