<svg viewBox="0 0 61 60" fill="none" xmlns="http://www.w3.org/2000/svg">
<g clip-path="url(#clip0_59885_125561)">
<path d="M16.8789 23.106C17.3433 23.6785 18.0092 24.0453 18.7577 24.0453C19.5061 24.0453 20.172 23.6785 20.6364 23.106" stroke="black" stroke-width="2" stroke-miterlimit="10" stroke-linecap="round" stroke-linejoin="round"/>
<path d="M15 18.4092V19.3486" stroke="black" stroke-width="2" stroke-miterlimit="10" stroke-linecap="round" stroke-linejoin="round"/>
<path d="M22.5156 18.4092V19.3486" stroke="black" stroke-width="2" stroke-miterlimit="10" stroke-linecap="round" stroke-linejoin="round"/>
<path d="M28.152 16.7911V10.8942C28.152 9.48875 27.3713 8.27797 26.2286 7.63355C26.0151 6.28871 24.86 5.25781 23.455 5.25781H15.9399C12.3083 5.25781 9.36418 8.2018 9.36418 11.8336V16.7911C8.80496 17.1165 8.4248 17.7155 8.4248 18.4093C8.4248 19.4469 9.26598 20.288 10.3036 20.288C10.3036 24.9574 14.0887 28.7425 18.758 28.7425C23.4274 28.7425 27.2125 24.9574 27.2125 20.288C28.2501 20.288 29.0913 19.4469 29.0913 18.4093C29.0914 17.7155 28.7111 17.1165 28.152 16.7911Z" stroke="black" stroke-width="2" stroke-miterlimit="10" stroke-linecap="round" stroke-linejoin="round"/>
<path d="M9.36328 16.7814C9.63961 16.6215 9.96047 16.53 10.3028 16.53H11.4115C11.8593 16.53 12.2448 16.2139 12.3326 15.7748L12.9101 12.8872C13.0191 12.3422 13.5677 12.0198 14.1013 12.1754C15.3807 12.5487 16.9965 12.7724 18.7573 12.7724C21.0049 12.7724 23.0164 12.4078 24.3936 11.833" stroke="black" stroke-width="2" stroke-miterlimit="10" stroke-linecap="round" stroke-linejoin="round"/>
<path d="M23.4541 27.8029H34.7268C36.2833 27.8029 37.545 26.5411 37.545 24.9847V23.5757" stroke="black" stroke-width="2" stroke-miterlimit="10" stroke-linecap="round" stroke-linejoin="round"/>
<path d="M6.5391 33.6641C4.8509 34.4029 3.72754 36.0808 3.72754 37.9663V43.3579C3.72754 44.1666 4.24504 44.8845 5.01215 45.1404L9.36379 46.5909" stroke="black" stroke-width="2" stroke-miterlimit="10" stroke-linecap="round" stroke-linejoin="round"/>
<path d="M55.5685 30.5879C56.6228 31.46 57.273 32.7741 57.273 34.2085V39.6002C57.273 40.4089 56.7555 41.1268 55.9884 41.3826L51.6367 42.8332" stroke="black" stroke-width="2" stroke-miterlimit="10" stroke-linecap="round" stroke-linejoin="round"/>
<path d="M25.7333 32.4834C24.6226 35.2462 21.918 37.1968 18.7578 37.1968" stroke="black" stroke-width="2" stroke-miterlimit="10" stroke-linecap="round" stroke-linejoin="round"/>
<path d="M9.36328 42.833V59.742" stroke="black" stroke-width="2" stroke-miterlimit="10" stroke-linecap="round" stroke-linejoin="round"/>
<path d="M40.3633 19.3486C40.8277 19.9212 41.4936 20.288 42.242 20.288C42.9905 20.288 43.6564 19.9212 44.1208 19.3486" stroke="black" stroke-width="2" stroke-miterlimit="10" stroke-linecap="round" stroke-linejoin="round"/>
<path d="M38.4844 14.6514V15.5907" stroke="black" stroke-width="2" stroke-miterlimit="10" stroke-linecap="round" stroke-linejoin="round"/>
<path d="M46 14.6514V15.5907" stroke="black" stroke-width="2" stroke-miterlimit="10" stroke-linecap="round" stroke-linejoin="round"/>
<path d="M51.6364 13.0332V7.13637C51.6364 5.73094 50.8557 4.52016 49.713 3.87574C49.4995 2.5309 48.3444 1.5 46.9394 1.5H39.4243C35.7927 1.5 32.8486 4.44398 32.8486 8.07574V13.0332C32.2893 13.3587 31.9092 13.9577 31.9092 14.6515C31.9092 15.6891 32.7504 16.5302 33.7879 16.5302C33.7879 21.1996 37.5731 24.9847 42.2424 24.9847C46.9118 24.9847 50.6969 21.1996 50.6969 16.5302C51.7345 16.5302 52.5757 15.6891 52.5757 14.6515C52.5758 13.9577 52.1956 13.3587 51.6364 13.0332Z" stroke="black" stroke-width="2" stroke-miterlimit="10" stroke-linecap="round" stroke-linejoin="round"/>
<path d="M56.333 41.335V59.7421" stroke="black" stroke-width="2" stroke-miterlimit="10" stroke-linecap="round" stroke-linejoin="round"/>
<path d="M46.9395 23.5757V26.3679C46.9395 27.1607 47.4359 27.8616 48.1693 28.1311" stroke="black" stroke-width="2" stroke-miterlimit="10" stroke-linecap="round" stroke-linejoin="round"/>
<path d="M51.6367 38.1362V59.7422" stroke="black" stroke-width="2" stroke-miterlimit="10" stroke-linecap="round" stroke-linejoin="round"/>
<path d="M30.0298 38.8004V37.6586C30.0298 35.117 28.3286 32.8897 25.8765 32.2209L24.8386 31.9378C24.0212 31.7149 23.4541 30.9725 23.4541 30.1252V27.333" stroke="black" stroke-width="2" stroke-miterlimit="10" stroke-linecap="round" stroke-linejoin="round"/>
<path d="M30.0303 59.7423V53.5132" stroke="black" stroke-width="2" stroke-miterlimit="10" stroke-linecap="round" stroke-linejoin="round"/>
<path d="M29.9732 48.4123L31.3018 47.0837C32.0355 46.35 32.0355 45.1604 31.3018 44.4267L29.9733 43.0983C29.137 42.2619 27.9557 41.8682 26.7849 42.0355L26.3199 42.102C24.8563 42.311 23.3798 41.8188 22.3343 40.7734L14.886 33.3251C14.3575 32.7966 14.0605 32.0797 14.0605 31.3323V27.8027" stroke="black" stroke-width="2" stroke-miterlimit="10" stroke-linecap="round" stroke-linejoin="round"/>
<path d="M49.0404 32.4996H52.1326C53.5559 32.4996 54.857 31.6955 55.4935 30.4225L55.9136 29.5823C56.5382 28.333 55.6298 26.8633 54.2331 26.8633H51.1409C49.7176 26.8633 48.4165 27.6674 47.7801 28.9404L47.3599 29.7807C46.7353 31.0299 47.6438 32.4996 49.0404 32.4996Z" stroke="black" stroke-width="2" stroke-miterlimit="10" stroke-linecap="round" stroke-linejoin="round"/>
<path d="M32.8486 12.7728C32.8486 12.7728 39.4244 12.7728 42.2425 9.01514" stroke="black" stroke-width="2" stroke-miterlimit="10" stroke-linecap="round" stroke-linejoin="round"/>
<path d="M39.877 11.2791C39.877 11.2791 44.8757 13.7784 47.8785 7.81055" stroke="black" stroke-width="2" stroke-miterlimit="10" stroke-linecap="round" stroke-linejoin="round"/>
<path d="M4.66699 45.0459V59.7423" stroke="black" stroke-width="2" stroke-miterlimit="10" stroke-linecap="round" stroke-linejoin="round"/>
<path d="M14.0601 27.8027H11.3709C9.40702 27.8027 7.54937 28.9392 6.8541 30.7759C6.18062 32.555 6.64128 34.4749 7.90679 35.7403L24.9943 52.8278C26.1018 53.9353 27.7803 54.2396 29.2062 53.5915L30.8259 52.8553C32.02 52.3125 32.3044 50.7441 31.3769 49.8164L27.9798 46.4195" stroke="black" stroke-width="2" stroke-miterlimit="10" stroke-linecap="round" stroke-linejoin="round"/>
<path d="M46.9745 30.9858C45.6332 32.2317 43.8361 32.9937 41.861 32.9937C38.7482 32.9937 36.0773 31.1011 34.9365 28.4038" stroke="black" stroke-width="2" stroke-miterlimit="10" stroke-linecap="round" stroke-linejoin="round"/>
</g>
<defs>
<clipPath id="clip0_59885_125561">
<rect width="60" height="60" fill="white" transform="translate(0.5)"/>
</clipPath>
</defs>
</svg>
