<svg viewBox="0 0 61 60" fill="none" xmlns="http://www.w3.org/2000/svg">
<path fill-rule="evenodd" clip-rule="evenodd" d="M42.9071 12.1284C42.9071 9.11535 45.3583 6.66406 48.3714 6.66406C51.3844 6.66406 53.8357 9.11535 53.8357 12.1284C53.8357 15.1414 51.3845 17.5926 48.3714 17.5926C45.3584 17.5926 42.9071 15.1415 42.9071 12.1284ZM44.6063 12.1285C44.6063 14.2045 46.2954 15.8935 48.3714 15.8935C50.4475 15.8935 52.1365 14.2044 52.1365 12.1284C52.1365 10.0523 50.4475 8.36328 48.3714 8.36339C46.2954 8.36339 44.6063 10.0524 44.6063 12.1285Z" fill="black"/>
<path fill-rule="evenodd" clip-rule="evenodd" d="M48.3716 1C54.5078 1 59.5 5.99219 59.5 12.1284C59.5 15.0642 58.6644 17.2393 57.4352 19.2385C58.8042 22.6604 59.5 26.2781 59.5 30C59.5 37.7462 56.4835 45.0289 51.0062 50.5062C45.5288 55.9834 38.2462 59 30.5 59C23.3345 59 16.4551 56.3655 11.1288 51.5818L12.2643 50.3176C17.2782 54.8207 23.7543 57.3008 30.5 57.3008C38.713 57.3008 46.0901 53.6549 51.0992 47.897L50.976 47.7738C49.8527 46.6504 49.2341 45.1569 49.2341 43.5684V40.6283C49.2341 40.1589 49.6144 39.7787 50.0837 39.7787C50.553 39.7787 50.9333 40.1589 50.9333 40.6283V43.5684C50.9333 44.7031 51.3751 45.7699 52.1776 46.5723L52.1787 46.5734C55.7029 41.9747 57.8008 36.2282 57.8008 30C57.8008 26.8891 57.2844 23.8561 56.2675 20.9613C55.8399 21.5466 55.3885 22.1316 54.925 22.732C53.4458 24.6484 51.7689 26.8208 50.3878 29.7202C50.001 30.5319 49.2283 31.036 48.3714 31.036C47.5144 31.036 46.7418 30.5319 46.3552 29.7202C45.046 26.9721 43.4719 24.8779 42.0516 23.0351L40.9965 24.0902C40.1942 24.8926 39.7524 25.9594 39.7524 27.0941V28.8683C39.7524 30.0029 40.1942 31.0697 40.9965 31.8722L41.9286 32.8042C42.731 33.6066 43.7977 34.0484 44.9325 34.0484H50.0837C50.553 34.0484 50.9333 34.4287 50.9333 34.8981V37.2297C50.9333 37.6991 50.553 38.0793 50.0837 38.0793C49.6144 38.0793 49.2341 37.6991 49.2341 37.2297V35.7477H44.9325C43.3439 35.7477 41.8503 35.129 40.7271 34.0056L39.7951 33.0737C38.6718 31.9503 38.0531 30.4567 38.0531 28.8683V27.0941C38.0531 25.5057 38.6718 24.0121 39.795 22.8888L41.008 21.6758C38.9149 18.912 37.2432 16.2812 37.2432 12.1285C37.2432 9.1797 38.3965 6.49539 40.2752 4.50209C37.162 3.30595 33.88 2.69922 30.5 2.69922C25.3506 2.69922 20.5299 4.13291 16.4154 6.62136L17.313 7.51911H22.7983L23.9765 6.34087C24.4579 5.85954 25.098 5.59435 25.7789 5.59435H28.0997C29.2346 5.59435 30.3014 6.03626 31.1037 6.83863L32.7293 8.4641C33.2106 8.94555 33.4758 9.58559 33.4758 10.2664V11.1779C33.4758 11.8587 33.2106 12.4987 32.7293 12.9802L28.5759 17.1336C28.41 17.2995 28.1925 17.3824 27.9751 17.3824C27.7576 17.3824 27.5402 17.2995 27.3742 17.1336C27.0424 16.8018 27.0424 16.264 27.3742 15.9321L31.5276 11.7786C31.6881 11.6182 31.7765 11.4048 31.7765 11.1779V10.2664C31.7765 10.0395 31.6881 9.82608 31.5276 9.66568L29.902 8.04009C29.4207 7.55864 28.7806 7.29345 28.0997 7.29345H25.7789C25.5519 7.29345 25.3385 7.38181 25.178 7.54233L23.7509 8.96945C23.5914 9.12872 23.3754 9.21821 23.1501 9.21821H16.961C16.7355 9.21821 16.5195 9.12872 16.3601 8.96945L14.9586 7.56793C11.9929 9.62886 9.45234 12.2607 7.50085 15.305V20.8343C7.50085 22.423 8.11948 23.9165 9.24277 25.0396L18.2073 34.004C18.3666 34.1635 18.4561 34.3796 18.4561 34.6049V35.7557C18.4561 36.4366 18.7211 37.0767 19.2026 37.558L24.1113 42.4667C24.2705 42.6262 24.36 42.8422 24.36 43.0676V48.7454C24.36 49.8802 24.8018 50.9469 25.6043 51.7493L26.8013 52.9462H27.2186V48.9846C27.2186 48.7591 27.3081 48.5431 27.4675 48.3837L29.8506 46.0007C30.3319 45.5194 30.597 44.8793 30.597 44.1984V42.974C30.597 42.7486 30.6865 42.5325 30.8457 42.3731L32.9789 40.2399C33.4604 39.7586 33.7256 39.1186 33.7256 38.4378V37.025C33.7256 36.3442 33.4604 35.7042 32.9789 35.2228L29.6485 31.8921C28.8461 31.0899 27.7793 30.6481 26.6446 30.6481H21.9457C21.1346 30.6481 20.3648 31.0392 19.8867 31.6946L19.7822 31.8375C19.6359 32.038 19.4092 32.1645 19.1617 32.1836C18.9143 32.2016 18.6708 32.1127 18.4952 31.9373L11.7422 25.1843C11.0797 24.5217 11.0797 23.4437 11.7422 22.7812L14.5532 19.9702C14.7127 19.8109 14.9287 19.7214 15.154 19.7214H17.9794C18.4487 19.7214 18.829 20.1017 18.829 20.571V22.2137H20.0369C20.7177 22.2137 21.3577 21.9485 21.8393 21.4671L24.8817 18.4246C25.2136 18.0926 25.7515 18.0929 26.0833 18.4245C26.4151 18.7563 26.4151 19.2941 26.0833 19.6259L23.0408 22.6686C22.2382 23.471 21.1714 23.9128 20.0368 23.9128H18.8289C17.8919 23.9128 17.1296 23.1506 17.1296 22.2136V21.4205H15.5058L12.9437 23.9827L19.0501 30.0891C19.8294 29.3651 20.8653 28.9489 21.9455 28.9489H26.6444C28.2328 28.9489 29.7264 29.5675 30.8497 30.6907L34.1803 34.0214C34.9827 34.8236 35.4244 35.8904 35.4244 37.0251V38.4379C35.4244 39.5726 34.9827 40.6394 34.1803 41.4417L32.2958 43.3261V44.1986C32.2958 45.3333 31.854 46.4001 31.0518 47.2024L28.9175 49.3367V52.9464C28.9175 53.8833 28.1552 54.6456 27.2182 54.6456H26.8008C26.347 54.6456 25.9203 54.4688 25.5993 54.1479L24.4024 52.951C23.2791 51.8276 22.6605 50.3341 22.6605 48.7456V43.4195L18.0005 38.7597C17.1983 37.9573 16.7565 36.8906 16.7565 35.7557V34.9568L8.04086 26.2413C6.59652 24.7971 5.80118 22.877 5.80118 20.8344V18.3762C4.13379 21.905 3.19922 25.8452 3.19922 30C3.19922 36.5702 7.3 45.95 9.86525 47.8765L8.58155 48.9896C4.01484 43.7231 1.5 36.9791 1.5 30C1.5 22.2538 4.51645 14.9711 9.99383 9.49383C15.4712 4.01657 22.7538 1 30.5 1C34.381 1 38.141 1.75411 41.6855 3.23832C43.5483 1.83386 45.8643 1 48.3716 1ZM53.58 21.6937C55.9382 18.6388 57.8008 16.2258 57.8008 12.1284C57.8008 6.92914 53.5709 2.69922 48.3714 2.69933C43.1722 2.69933 38.9423 6.92925 38.9423 12.1285C38.9423 16.2256 40.8048 18.6386 43.1627 21.6934C44.6941 23.677 46.43 25.926 47.8892 28.9894C47.9945 29.2102 48.1703 29.3367 48.3715 29.3367C48.5729 29.3367 48.7486 29.2102 48.8538 28.9894C50.313 25.9262 52.0488 23.6774 53.58 21.6937Z" fill="black"/>
<path fill-rule="evenodd" clip-rule="evenodd" d="M42.9071 12.1284C42.9071 9.11535 45.3583 6.66406 48.3714 6.66406C51.3844 6.66406 53.8357 9.11535 53.8357 12.1284C53.8357 15.1414 51.3845 17.5926 48.3714 17.5926C45.3584 17.5926 42.9071 15.1415 42.9071 12.1284ZM44.6063 12.1285C44.6063 14.2045 46.2954 15.8935 48.3714 15.8935C50.4475 15.8935 52.1365 14.2044 52.1365 12.1284C52.1365 10.0523 50.4475 8.36328 48.3714 8.36339C46.2954 8.36339 44.6063 10.0524 44.6063 12.1285Z" stroke="black" stroke-width="0.4"/>
<path fill-rule="evenodd" clip-rule="evenodd" d="M48.3716 1C54.5078 1 59.5 5.99219 59.5 12.1284C59.5 15.0642 58.6644 17.2393 57.4352 19.2385C58.8042 22.6604 59.5 26.2781 59.5 30C59.5 37.7462 56.4835 45.0289 51.0062 50.5062C45.5288 55.9834 38.2462 59 30.5 59C23.3345 59 16.4551 56.3655 11.1288 51.5818L12.2643 50.3176C17.2782 54.8207 23.7543 57.3008 30.5 57.3008C38.713 57.3008 46.0901 53.6549 51.0992 47.897L50.976 47.7738C49.8527 46.6504 49.2341 45.1569 49.2341 43.5684V40.6283C49.2341 40.1589 49.6144 39.7787 50.0837 39.7787C50.553 39.7787 50.9333 40.1589 50.9333 40.6283V43.5684C50.9333 44.7031 51.3751 45.7699 52.1776 46.5723L52.1787 46.5734C55.7029 41.9747 57.8008 36.2282 57.8008 30C57.8008 26.8891 57.2844 23.8561 56.2675 20.9613C55.8399 21.5466 55.3885 22.1316 54.925 22.732C53.4458 24.6484 51.7689 26.8208 50.3878 29.7202C50.001 30.5319 49.2283 31.036 48.3714 31.036C47.5144 31.036 46.7418 30.5319 46.3552 29.7202C45.046 26.9721 43.4719 24.8779 42.0516 23.0351L40.9965 24.0902C40.1942 24.8926 39.7524 25.9594 39.7524 27.0941V28.8683C39.7524 30.0029 40.1942 31.0697 40.9965 31.8722L41.9286 32.8042C42.731 33.6066 43.7977 34.0484 44.9325 34.0484H50.0837C50.553 34.0484 50.9333 34.4287 50.9333 34.8981V37.2297C50.9333 37.6991 50.553 38.0793 50.0837 38.0793C49.6144 38.0793 49.2341 37.6991 49.2341 37.2297V35.7477H44.9325C43.3439 35.7477 41.8503 35.129 40.7271 34.0056L39.7951 33.0737C38.6718 31.9503 38.0531 30.4567 38.0531 28.8683V27.0941C38.0531 25.5057 38.6718 24.0121 39.795 22.8888L41.008 21.6758C38.9149 18.912 37.2432 16.2812 37.2432 12.1285C37.2432 9.1797 38.3965 6.49539 40.2752 4.50209C37.162 3.30595 33.88 2.69922 30.5 2.69922C25.3506 2.69922 20.5299 4.13291 16.4154 6.62136L17.313 7.51911H22.7983L23.9765 6.34087C24.4579 5.85954 25.098 5.59435 25.7789 5.59435H28.0997C29.2346 5.59435 30.3014 6.03626 31.1037 6.83863L32.7293 8.4641C33.2106 8.94555 33.4758 9.58559 33.4758 10.2664V11.1779C33.4758 11.8587 33.2106 12.4987 32.7293 12.9802L28.5759 17.1336C28.41 17.2995 28.1925 17.3824 27.9751 17.3824C27.7576 17.3824 27.5402 17.2995 27.3742 17.1336C27.0424 16.8018 27.0424 16.264 27.3742 15.9321L31.5276 11.7786C31.6881 11.6182 31.7765 11.4048 31.7765 11.1779V10.2664C31.7765 10.0395 31.6881 9.82608 31.5276 9.66568L29.902 8.04009C29.4207 7.55864 28.7806 7.29345 28.0997 7.29345H25.7789C25.5519 7.29345 25.3385 7.38181 25.178 7.54233L23.7509 8.96945C23.5914 9.12872 23.3754 9.21821 23.1501 9.21821H16.961C16.7355 9.21821 16.5195 9.12872 16.3601 8.96945L14.9586 7.56793C11.9929 9.62886 9.45234 12.2607 7.50085 15.305V20.8343C7.50085 22.423 8.11948 23.9165 9.24277 25.0396L18.2073 34.004C18.3666 34.1635 18.4561 34.3796 18.4561 34.6049V35.7557C18.4561 36.4366 18.7211 37.0767 19.2026 37.558L24.1113 42.4667C24.2705 42.6262 24.36 42.8422 24.36 43.0676V48.7454C24.36 49.8802 24.8018 50.9469 25.6043 51.7493L26.8013 52.9462H27.2186V48.9846C27.2186 48.7591 27.3081 48.5431 27.4675 48.3837L29.8506 46.0007C30.3319 45.5194 30.597 44.8793 30.597 44.1984V42.974C30.597 42.7486 30.6865 42.5325 30.8457 42.3731L32.9789 40.2399C33.4604 39.7586 33.7256 39.1186 33.7256 38.4378V37.025C33.7256 36.3442 33.4604 35.7042 32.9789 35.2228L29.6485 31.8921C28.8461 31.0899 27.7793 30.6481 26.6446 30.6481H21.9457C21.1346 30.6481 20.3648 31.0392 19.8867 31.6946L19.7822 31.8375C19.6359 32.038 19.4092 32.1645 19.1617 32.1836C18.9143 32.2016 18.6708 32.1127 18.4952 31.9373L11.7422 25.1843C11.0797 24.5217 11.0797 23.4437 11.7422 22.7812L14.5532 19.9702C14.7127 19.8109 14.9287 19.7214 15.154 19.7214H17.9794C18.4487 19.7214 18.829 20.1017 18.829 20.571V22.2137H20.0369C20.7177 22.2137 21.3577 21.9485 21.8393 21.4671L24.8817 18.4246C25.2136 18.0926 25.7515 18.0929 26.0833 18.4245C26.4151 18.7563 26.4151 19.2941 26.0833 19.6259L23.0408 22.6686C22.2382 23.471 21.1714 23.9128 20.0368 23.9128H18.8289C17.8919 23.9128 17.1296 23.1506 17.1296 22.2136V21.4205H15.5058L12.9437 23.9827L19.0501 30.0891C19.8294 29.3651 20.8653 28.9489 21.9455 28.9489H26.6444C28.2328 28.9489 29.7264 29.5675 30.8497 30.6907L34.1803 34.0214C34.9827 34.8236 35.4244 35.8904 35.4244 37.0251V38.4379C35.4244 39.5726 34.9827 40.6394 34.1803 41.4417L32.2958 43.3261V44.1986C32.2958 45.3333 31.854 46.4001 31.0518 47.2024L28.9175 49.3367V52.9464C28.9175 53.8833 28.1552 54.6456 27.2182 54.6456H26.8008C26.347 54.6456 25.9203 54.4688 25.5993 54.1479L24.4024 52.951C23.2791 51.8276 22.6605 50.3341 22.6605 48.7456V43.4195L18.0005 38.7597C17.1983 37.9573 16.7565 36.8906 16.7565 35.7557V34.9568L8.04086 26.2413C6.59652 24.7971 5.80118 22.877 5.80118 20.8344V18.3762C4.13379 21.905 3.19922 25.8452 3.19922 30C3.19922 36.5702 7.3 45.95 9.86525 47.8765L8.58155 48.9896C4.01484 43.7231 1.5 36.9791 1.5 30C1.5 22.2538 4.51645 14.9711 9.99383 9.49383C15.4712 4.01657 22.7538 1 30.5 1C34.381 1 38.141 1.75411 41.6855 3.23832C43.5483 1.83386 45.8643 1 48.3716 1ZM53.58 21.6937C55.9382 18.6388 57.8008 16.2258 57.8008 12.1284C57.8008 6.92914 53.5709 2.69922 48.3714 2.69933C43.1722 2.69933 38.9423 6.92925 38.9423 12.1285C38.9423 16.2256 40.8048 18.6386 43.1627 21.6934C44.6941 23.677 46.43 25.926 47.8892 28.9894C47.9945 29.2102 48.1703 29.3367 48.3715 29.3367C48.5729 29.3367 48.7486 29.2102 48.8538 28.9894C50.313 25.9262 52.0488 23.6774 53.58 21.6937Z" stroke="black" stroke-width="0.4"/>
</svg>
