<svg viewBox="0 0 111 110" fill="none" xmlns="http://www.w3.org/2000/svg">
<path d="M62.4282 50.4748C62.4282 47.4406 62.4805 44.6157 62.6374 42L54.6334 43.5171V44.2495L55.4181 44.3541C55.9936 44.4064 56.3598 44.6157 56.569 44.9296C56.7783 45.2958 56.9352 45.8189 57.0398 46.6036C57.1445 48.1207 57.2491 51.5734 57.1968 57.0141C57.1968 62.4024 57.1445 65.8028 57.0398 67.1107C59.9171 67.7384 62.1666 68 63.8407 68C66.9795 68 69.4382 67.1107 71.2169 65.2797C72.9956 63.501 73.9372 60.9899 73.9372 57.9034C73.9372 55.4447 73.2571 53.4044 71.897 51.7827C70.5368 50.161 68.8105 49.3763 66.7702 49.3763C65.4101 49.3763 63.9976 49.7425 62.4282 50.4748ZM62.5851 66.5875C62.4805 64.9135 62.3759 59.8913 62.3759 51.6781C62.8467 51.5211 63.4745 51.4165 64.2592 51.4165C65.5147 51.4165 66.5087 52.0443 67.2411 53.3521C67.9734 54.66 68.3396 56.2294 68.3396 58.2173C68.3396 60.6761 67.9211 62.664 67.0841 64.338C66.2471 65.9598 65.2008 66.7968 63.893 66.7968C63.4745 66.6922 63.0559 66.6398 62.5851 66.5875ZM24.6052 42.5231H3.67969V43.5694L4.77828 43.674C5.6153 43.831 6.19075 44.1449 6.55695 44.6157C6.92315 45.1388 7.1324 45.9759 7.18472 47.1268C7.60323 52.7767 7.60323 58.0604 7.18472 62.9256C7.08009 64.0765 6.87083 64.9135 6.55695 65.4366C6.19075 65.9598 5.6153 66.2736 4.77828 66.3783L3.67969 66.5352V67.5815H17.1767V66.5352L15.7642 66.4306C15.4195 66.4017 15.0843 66.3034 14.7786 66.1416C14.4729 65.9798 14.2031 65.7578 13.9855 65.4889C13.6193 64.9658 13.4101 64.1288 13.3578 62.9779C13.2008 60.8853 13.0962 58.4789 13.0962 55.8109L15.9211 55.8632C17.4382 55.9155 18.4845 57.0664 19.0077 59.3682H20.0539V50.841H19.0077C18.4845 53.0905 17.4906 54.2414 15.9211 54.2938L13.0962 54.3461C13.0962 49.6378 13.2008 46.2897 13.3578 44.2495H17.4906C20.4201 44.2495 22.4081 46.1328 23.559 49.8994L24.8145 49.5332L24.6052 42.5231ZM22.1465 58.6358C22.1465 61.3561 22.9312 63.6056 24.4483 65.3843C25.9654 67.163 28.2149 68 31.0398 68C33.8648 68 36.1666 67.1107 37.8407 65.2797C39.5147 63.501 40.2994 61.2515 40.2994 58.5312C40.2994 55.8109 39.5147 53.5614 37.9976 51.7827C36.4805 50.004 34.231 49.167 31.406 49.167C28.5811 49.167 26.2793 50.0563 24.6052 51.8873C22.9312 53.666 22.1465 55.9155 22.1465 58.6358ZM33.8125 52.672C34.4402 54.1891 34.7018 56.1771 34.7018 58.5835C34.7018 64.1288 33.5509 66.8491 31.3014 66.8491C30.1505 66.8491 29.2612 66.0644 28.6334 64.495C28.0056 62.9256 27.7441 60.9376 27.7441 58.5835C27.7441 53.0905 28.895 50.3702 31.1445 50.3702C32.2954 50.3179 33.1847 51.1026 33.8125 52.672ZM78.0177 65.3843C79.7441 67.1107 81.9413 68 84.557 68C86.1787 68 87.5912 67.6861 88.8467 67.006C90.1022 66.3783 91.0962 65.5936 91.7763 64.6519L91.2531 64.0241C90.1022 64.9135 88.7944 65.332 87.2773 65.332C85.1847 65.332 83.563 64.6519 82.4644 63.2394C81.3135 61.827 80.7904 60.0483 80.895 57.7465H92.0901C92.0901 55.2354 91.4624 53.1952 90.1545 51.5734C88.8467 50.004 87.0157 49.2193 84.6616 49.2193C81.732 49.2193 79.4825 50.161 77.8608 51.992C76.239 53.8229 75.4543 56.0724 75.4543 58.7404C75.4543 61.4608 76.2914 63.6579 78.0177 65.3843ZM81.8889 52.2535C82.4644 50.998 83.1968 50.3702 84.1907 50.3702C85.7602 50.3702 86.5449 52.3581 86.5449 56.3863L80.9996 56.4909C81.0519 54.9215 81.3135 53.5091 81.8889 52.2535ZM106.163 50.161C104.75 49.5332 102.971 49.167 100.827 49.167C98.6294 49.167 96.903 49.7425 95.5952 50.841C94.2873 51.9396 93.6072 53.2998 93.6072 54.9215C93.6072 56.334 94.0258 57.4326 94.8105 58.2173C95.5952 59.002 96.8507 59.6821 98.4724 60.2575C99.9372 60.7807 100.984 61.3038 101.507 61.7746C102.03 62.2978 102.344 62.8732 102.344 63.6579C102.344 64.3903 102.082 65.0704 101.507 65.5936C100.984 66.169 100.251 66.4306 99.3095 66.4306C97.0077 66.4306 95.2813 64.7565 94.0781 61.4084L93.1887 61.67L93.398 66.9014C95.2813 67.6338 97.3739 68 99.6757 68C102.082 68 103.913 67.4769 105.273 66.3783C106.633 65.332 107.313 63.8149 107.313 61.9316C107.313 60.6761 107 59.6298 106.32 58.8451C105.639 58.0604 104.541 57.3803 102.971 56.7525C101.245 56.1247 100.042 55.5493 99.4141 55.0262C98.7863 54.503 98.4724 53.8753 98.4724 53.0905C98.4724 52.3058 98.6817 51.6781 99.1525 51.1549C99.6233 50.6318 100.199 50.4225 100.931 50.4225C103.024 50.4225 104.541 51.9396 105.483 54.9215L106.372 54.66L106.163 50.161ZM55.8366 49.6901C55.1042 49.3239 54.3195 49.167 53.4302 49.167C52.5409 49.167 51.6515 49.5332 50.6576 50.2656C49.6636 50.998 48.9312 51.992 48.3557 53.3521L48.4081 49.167L40.4563 50.7364V51.4688L41.2411 51.5211C42.235 51.6258 42.8105 52.4105 42.9151 53.8229C43.229 57.0664 43.229 60.5191 42.9151 64.1811C42.8105 65.5936 42.235 66.326 41.2411 66.4829L40.4563 66.5875V67.5815H51.5469V66.5875L50.1344 66.4829C49.1405 66.3783 48.565 65.5936 48.4604 64.1811C48.1465 61.1469 48.0942 57.9034 48.3557 54.5553C48.6696 54.0322 49.3497 53.7183 50.396 53.6137C51.4423 53.5091 52.6455 53.8229 53.901 54.5553L55.8366 49.6901Z" stroke="black" stroke-width="1.6" stroke-miterlimit="10" stroke-linecap="round" stroke-linejoin="round"/>
</svg>
