<svg viewBox="0 0 70 70" fill="none" xmlns="http://www.w3.org/2000/svg">
<rect width="70" height="70" rx="16.3868" fill="#C0E1DC"/>
<path d="M26.8486 10.3814C27.9242 10.3814 28.9417 10.9897 29.4359 12.0323L32.6627 19.3309C32.6917 19.3309 35.8604 26.4268 35.8604 26.4268C35.9476 26.6295 36.122 26.8323 36.3255 26.9481C36.4418 27.006 36.529 27.035 36.6453 27.035C36.7325 27.035 36.7906 27.006 36.8778 26.9771C37.3139 26.7743 37.2558 26.1661 37.1104 25.7317C36.529 24.1967 35.8895 22.0245 34.7848 18.9834C34.2325 17.4483 33.7964 16.2029 33.6511 15.7395C33.1569 14.2914 33.2441 12.8722 34.2615 12.4668C34.6685 12.3219 35.0174 12.2351 35.3662 12.2351C36.6453 12.2351 37.6918 13.2777 39.1744 15.7395C39.9011 16.956 40.5116 18.2593 41.1221 19.5337C41.1512 19.5337 43.8838 25.8765 45.1628 29.2072C45.3082 29.5837 45.4826 29.9602 45.7152 30.2788C45.9768 30.6553 46.2384 30.887 46.5001 31.0319C46.5873 31.0608 46.6745 31.0898 46.7617 31.0898C47.0815 31.0898 47.4012 30.887 47.6629 30.4816C48.0117 29.9892 48.8257 27.4405 50.192 25.7606C50.9187 24.8628 51.8199 24.1967 52.9246 24.1967C53.1281 24.1967 53.3316 24.2256 53.5641 24.2835C54.8723 24.5152 55.5409 26.0213 55.4827 29.352C55.3955 33.6675 54.5234 37.896 52.9827 41.9218C52.0234 44.4126 50.6571 46.7876 49.0292 48.9018C44.7559 54.3758 38.9709 58.2568 37.0813 59.4443C36.8778 59.5601 36.6744 59.6181 36.4709 59.6181C36.2674 59.6181 36.0348 59.5601 35.8604 59.4443C33.622 58.0251 25.8603 52.7829 21.7032 45.6291C21.5869 45.3974 20.8311 44.1809 20.5986 43.7754C18.0404 38.9387 15.802 33.8702 14.6682 28.5121C14.1741 26.1082 14.4938 24.689 15.4822 24.0808C15.7148 23.965 15.9473 23.8781 16.209 23.8781C17.1683 23.8781 18.2729 24.6311 18.8543 25.6738C19.0869 26.1372 19.7846 27.4405 20.5695 29.0334C22.1393 32.1324 24.0579 36.1293 24.1742 36.39C24.3195 36.7665 24.6102 37.0851 24.9591 37.0851C25.0172 37.0851 25.0754 37.0851 25.1335 37.0561C25.5405 36.9402 25.6858 36.4189 25.5696 36.0134C25.5696 35.9845 25.5405 35.9266 25.5114 35.8976L21.5869 27.2667V27.2377L18.3892 20.3156C17.7497 18.9544 18.3311 17.3325 19.6974 16.6953C19.7265 16.6953 19.7555 16.6663 19.7846 16.6663C20.1625 16.4926 20.5695 16.4346 20.9474 16.4346C22.023 16.4346 23.0405 17.0429 23.5637 18.0566L25.744 22.6037V22.6327C25.744 22.6327 25.744 22.6327 25.773 22.6327L29.6975 30.8002C29.7266 30.887 30.0464 31.3215 30.4533 31.3215C30.5115 31.3215 30.5987 31.3215 30.6859 31.2925C31.151 31.1187 31.122 30.5395 30.9185 30.0761L27.3138 21.5031L24.2905 14.2914C23.6509 12.9302 24.2323 11.3082 25.5696 10.6711C25.5986 10.6711 25.6277 10.6421 25.6568 10.6421C26.0637 10.4683 26.4417 10.3814 26.8486 10.3814ZM26.8486 7.48517C26.0637 7.48517 25.2789 7.65894 24.5521 7.97753C24.523 7.97753 24.494 8.0065 24.4649 8.0065C24.4358 8.03546 24.3777 8.03546 24.3486 8.06442C22.1974 9.07812 21.0055 11.2793 21.1509 13.5094C21.0927 13.5094 21.0055 13.5094 20.9474 13.5094C20.1625 13.5094 19.3776 13.6832 18.6509 14.0018C18.6218 14.0307 18.5927 14.0307 18.5346 14.0597C18.5055 14.0597 18.4764 14.0887 18.4474 14.1176C15.802 15.363 14.6101 18.4331 15.5985 21.0976C15.0462 21.1845 14.5229 21.3583 14.0578 21.6479C11.267 23.2119 11.3252 26.5716 11.8484 29.1203C12.8368 33.986 14.7555 38.9387 18.0404 45.1367C18.0695 45.1657 18.0985 45.2236 18.0985 45.2525C18.2148 45.4553 18.4764 45.8608 18.709 46.2662C18.9125 46.6138 19.0869 46.9324 19.1741 47.0482C19.1741 47.0482 19.1741 47.0772 19.2032 47.0772C23.7091 54.7813 31.9068 60.3711 34.3197 61.8771C34.9883 62.2826 35.715 62.5143 36.4999 62.5143C37.2848 62.5143 38.0406 62.2826 38.6802 61.8771C40.9767 60.429 46.8198 56.4322 51.2966 50.6975C51.3257 50.6686 51.3257 50.6686 51.3548 50.6396C53.2153 48.2647 54.6978 45.658 55.7444 42.9066C57.4304 38.4753 58.3316 33.9281 58.4479 29.381C58.477 27.2957 58.2735 25.7896 57.8084 24.5442C56.9072 22.2562 55.192 21.59 54.2327 21.3873C53.8257 21.3004 53.4188 21.2425 52.9827 21.2425C51.7036 21.2425 49.785 21.7059 48.0117 23.8491C47.5757 24.3704 47.1977 24.9207 46.878 25.5C46.3256 24.1677 45.7733 22.8354 45.3954 21.9665C45.0175 21.0397 44.6105 20.1419 44.2907 19.3888C44.1454 19.0413 44.0291 18.7806 43.9419 18.6069C43.8838 18.52 43.8547 18.3751 43.7675 18.2593L43.5349 17.7669C42.9826 16.6084 42.4012 15.392 41.7035 14.2045C40.2791 11.8296 38.4767 9.28086 35.3953 9.28086C34.6976 9.28086 33.9999 9.42567 33.2441 9.7153C32.779 9.88907 32.3429 10.1497 31.9359 10.5263C30.9766 8.7016 28.9998 7.48517 26.8486 7.48517Z" fill="#155B57"/>
<path opacity="0.15" d="M36.6208 47.946C40.4568 47.946 43.5665 44.834 43.5665 40.995C43.5665 37.156 40.4568 34.0439 36.6208 34.0439C32.7848 34.0439 29.675 37.156 29.675 40.995C29.675 44.834 32.7848 47.946 36.6208 47.946Z" fill="#155B57"/>
<path fill-rule="evenodd" clip-rule="evenodd" d="M40.3155 36.5C40.9741 36.0469 41.8749 36.2139 42.3277 36.873C43.1343 38.0471 43.5663 39.4351 43.5663 40.9372C43.5663 44.9229 40.3138 48.1779 36.3312 48.1779C35.7281 48.1779 35.1178 48.1071 34.5332 47.9608C33.7579 47.7669 33.2865 46.9806 33.4803 46.2047C33.6741 45.4288 34.4598 44.9571 35.2351 45.1511C35.5766 45.2365 35.9503 45.2816 36.3312 45.2816C38.7154 45.2816 40.6722 43.3233 40.6722 40.9372C40.6722 40.0064 40.4097 39.1933 39.9429 38.5138C39.4901 37.8547 39.657 36.9531 40.3155 36.5Z" fill="#155B57"/>
</svg>
