<?xml version="1.0" encoding="utf-8"?>
<!-- Generator: Adobe Illustrator 22.1.0, SVG Export Plug-In . SVG Version: 6.00 Build 0)  -->
<svg version="1.1" id="Layer_1" xmlns="http://www.w3.org/2000/svg" xmlns:xlink="http://www.w3.org/1999/xlink" x="0px" y="0px"
	 viewBox="0 0 680.8 528.4" style="enable-background:new 0 0 680.8 528.4;" xml:space="preserve">
<style type="text/css">
	.st0{fill:#E1EAF2;}
	.st1{opacity:0.675;fill:#FFFFFF;enable-background:new    ;}
	.st2{fill:none;}
	.st3{fill:#FFFFFF;}
</style>
<g transform="translate(-13.59 -66.639)">
	<path class="st0" d="M13.6,66.6h680.8V595H13.6V66.6z"/>
	<g>
		<g>
			<path class="st1" d="M395.3,292.7l-90.4,84.1l-41.3-35.2c-0.8-0.7-2.1-0.7-2.9,0.1l-107.1,101c-1.5,1.4-0.5,3.8,1.5,3.8h397.9
				c2,0,3-2.4,1.5-3.8l-156.2-150C397.4,291.9,396.1,291.9,395.3,292.7z"/>
			<circle class="st1" cx="250.4" cy="248.4" r="33.3"/>
		</g>
	</g>
	<path class="st2" d="M60.9,108.2h576.8V547H60.9V108.2z"/>
	<path class="st3" d="M79.3,130.9v399.9h549.5V130.9H79.3z M580.5,482.9h-453V178.8h453V482.9z"/>
</g>
</svg>
