<svg width="45" height="53" viewBox="0 0 45 53" fill="none" xmlns="http://www.w3.org/2000/svg">
<path d="M3.37193 17.4512C1.51287 17.4512 0 18.9465 0 20.7839V36.3366C0 38.174 1.51287 39.6693 3.37193 39.6693C5.23099 39.6693 6.74387 38.174 6.74387 36.3366V20.7839C6.74387 18.9465 5.23099 17.4512 3.37193 17.4512Z" fill="#204FC9"/>
<path d="M41.628 17.4512C39.769 17.4512 38.2561 18.9465 38.2561 20.7839V36.3366C38.2561 38.174 39.769 39.6693 41.628 39.6693C43.4871 39.6693 45 38.174 45 36.3366V20.7839C45 18.9465 43.4871 17.4512 41.628 17.4512Z" fill="#204FC9"/>
<path d="M34.6799 17.4512H9.95235C9.65425 17.4512 9.36836 17.5682 9.15757 17.7765C8.94679 17.9849 8.82837 18.2674 8.82837 18.5621V36.3366C8.82837 39.0205 10.7616 41.2624 13.3243 41.78V49.6675C13.3243 51.5049 14.8372 53.0002 16.6962 53.0002C18.5553 53.0002 20.0682 51.5049 20.0682 49.6675V41.8911H24.5641V49.6675C24.5641 51.5049 26.0769 53.0002 27.936 53.0002C29.7951 53.0002 31.3079 51.5049 31.3079 49.6675V41.78C33.8706 41.2646 35.8038 39.0205 35.8038 36.3366V18.5621C35.8038 18.2674 35.6854 17.9849 35.4746 17.7765C35.2639 17.5682 34.978 17.4512 34.6799 17.4512Z" fill="#204FC9"/>
<path d="M30.4874 4.58884L33.2254 1.88267C33.4302 1.67315 33.5435 1.39253 33.5409 1.10125C33.5384 0.809978 33.4201 0.531348 33.2117 0.325377C33.0034 0.119406 32.7214 0.00257311 32.4267 4.19952e-05C32.132 -0.00248912 31.8481 0.109484 31.6361 0.311845L28.444 3.46682C26.6232 2.66252 24.5528 2.20705 22.3161 2.20705C20.0794 2.20705 18.009 2.66252 16.1882 3.46682L12.9961 0.311845C12.7841 0.109484 12.5002 -0.00248912 12.2055 4.19952e-05C11.9108 0.00257311 11.6289 0.119406 11.4205 0.325377C11.2121 0.531348 11.0939 0.809978 11.0913 1.10125C11.0887 1.39253 11.202 1.67315 11.4068 1.88267L14.1448 4.58884C10.8785 6.7751 8.82837 10.2945 8.82837 14.427C8.82837 14.7217 8.94679 15.0042 9.15757 15.2126C9.36836 15.4209 9.65425 15.5379 9.95235 15.5379H34.6799C34.978 15.5379 35.2639 15.4209 35.4746 15.2126C35.6854 15.0042 35.8038 14.7217 35.8038 14.427C35.8038 10.2945 33.7537 6.7751 30.4874 4.58884ZM16.6962 11.0943C16.3981 11.0943 16.1122 10.9773 15.9014 10.7689C15.6907 10.5606 15.5722 10.278 15.5722 9.9834C15.5722 9.68877 15.6907 9.40621 15.9014 9.19787C16.1122 8.98954 16.3981 8.87249 16.6962 8.87249C16.9943 8.87249 17.2802 8.98954 17.491 9.19787C17.7018 9.40621 17.8202 9.68877 17.8202 9.9834C17.8202 10.278 17.7018 10.5606 17.491 10.7689C17.2802 10.9773 16.9943 11.0943 16.6962 11.0943ZM27.936 11.0943C27.6379 11.0943 27.352 10.9773 27.1412 10.7689C26.9304 10.5606 26.812 10.278 26.812 9.9834C26.812 9.68877 26.9304 9.40621 27.1412 9.19787C27.352 8.98954 27.6379 8.87249 27.936 8.87249C28.2341 8.87249 28.52 8.98954 28.7308 9.19787C28.9416 9.40621 29.06 9.68877 29.06 9.9834C29.06 10.278 28.9416 10.5606 28.7308 10.7689C28.52 10.9773 28.2341 11.0943 27.936 11.0943Z" fill="#204FC9"/>
</svg>
