<svg width="40" height="40" viewBox="0 0 40 40" fill="none" xmlns="http://www.w3.org/2000/svg">
<path d="M0 19H4.76562V21.3438H0V19Z" fill="#204FC9"/>
<path d="M35 19H39.7656V21.3438H35V19Z" fill="#204FC9"/>
<path d="M30 8.31421L33.3142 5L34.9713 6.6571L31.6571 9.97131L30 8.31421Z" fill="#204FC9"/>
<path d="M8.31421 9.97131L5 6.6571L6.6571 5L9.97131 8.31421L8.31421 9.97131Z" fill="#204FC9"/>
<path d="M19 0H21.3438V4.76562H19V0Z" fill="#204FC9"/>
<path d="M9.34375 35C8.04919 35 7 36.0492 7 37.3438V39.6875H32.7812V37.3438C32.7812 36.0492 31.7321 35 30.4375 35H9.34375Z" fill="#204FC9"/>
<path d="M9 19.5469V32.5156H30.0938V19.5469C30.0938 13.7311 25.3626 9 19.5469 9C13.7311 9 9 13.7311 9 19.5469ZM18.375 16.0312H20.7188V23.0625H18.375V16.0312ZM18.375 25.4062H20.7188V27.75H18.375V25.4062Z" fill="#204FC9"/>
</svg>
