<svg viewBox="0 0 56 53" fill="none" xmlns="http://www.w3.org/2000/svg">
<g clip-path="url(#clip0)">
<path d="M28.9673 2.88721C24.106 2.88721 16.3936 5.24562 16.3936 11.5743C16.3936 14.5069 18.0284 16.8903 21.1215 18.4666C23.3268 19.5904 26.2591 20.2613 28.9673 20.2613C29.2238 20.2613 29.4698 20.1596 29.6512 19.9786C29.8326 19.7976 29.9345 19.5521 29.9345 19.2961V3.85244C29.9345 3.59644 29.8326 3.35093 29.6512 3.16992C29.4698 2.9889 29.2238 2.88721 28.9673 2.88721Z" fill="#204FC9"/>
<path d="M31.8228 2.88721H39.5604V4.81747H31.8228V2.88721Z" fill="#204FC9"/>
<path d="M31.8228 10.5864H39.5604V12.5167H31.8228V10.5864Z" fill="#204FC9"/>
<path d="M31.8228 18.2856H39.5604V20.2159H31.8228V18.2856Z" fill="#204FC9"/>
<path d="M31.8228 14.436H39.5604V16.3663H31.8228V14.436Z" fill="#204FC9"/>
<path d="M31.8228 6.73682H39.5604V8.66708H31.8228V6.73682Z" fill="#204FC9"/>
</g>
<g clip-path="url(#clip1)">
<path d="M12.5737 32.7217C7.71241 32.7217 0 35.0801 0 41.4087C0 44.3413 1.63483 46.7247 4.72796 48.3011C6.9332 49.4248 9.86554 50.0958 12.5737 50.0958C12.8302 50.0958 13.0763 49.9941 13.2576 49.8131C13.439 49.6321 13.5409 49.3866 13.5409 49.1306V33.6869C13.5409 33.4309 13.439 33.1854 13.2576 33.0044C13.0763 32.8234 12.8302 32.7217 12.5737 32.7217Z" fill="#204FC9"/>
<path d="M15.4292 32.7217H23.1669V34.6519H15.4292V32.7217Z" fill="#204FC9"/>
<path d="M15.4292 40.4209H23.1669V42.3512H15.4292V40.4209Z" fill="#204FC9"/>
<path d="M15.4292 48.1201H23.1669V50.0504H15.4292V48.1201Z" fill="#204FC9"/>
<path d="M15.4292 44.2705H23.1669V46.2008H15.4292V44.2705Z" fill="#204FC9"/>
<path d="M15.4292 36.5713H23.1669V38.5016H15.4292V36.5713Z" fill="#204FC9"/>
</g>
<g clip-path="url(#clip2)">
<path d="M45.3606 32.7212C40.4993 32.7212 32.7869 35.0796 32.7869 41.4082C32.7869 44.3408 34.4217 46.7242 37.5148 48.3006C39.7201 49.4243 42.6524 50.0953 45.3606 50.0953C45.6171 50.0953 45.8631 49.9936 46.0445 49.8126C46.2259 49.6316 46.3278 49.3861 46.3278 49.1301V33.6864C46.3278 33.4304 46.2259 33.1849 46.0445 33.0039C45.8631 32.8229 45.6171 32.7212 45.3606 32.7212Z" fill="#204FC9"/>
<path d="M48.2161 32.7212H55.9537V34.6515H48.2161V32.7212Z" fill="#204FC9"/>
<path d="M48.2161 40.4204H55.9537V42.3507H48.2161V40.4204Z" fill="#204FC9"/>
<path d="M48.2161 48.1196H55.9537V50.0499H48.2161V48.1196Z" fill="#204FC9"/>
<path d="M48.2161 44.27H55.9537V46.2003H48.2161V44.27Z" fill="#204FC9"/>
<path d="M48.2161 36.5708H55.9537V38.5011H48.2161V36.5708Z" fill="#204FC9"/>
</g>
<defs>
<clipPath id="clip0">
<rect width="23.213" height="23.1655" fill="white" transform="translate(16.3936)"/>
</clipPath>
<clipPath id="clip1">
<rect width="23.213" height="23.1655" fill="white" transform="translate(0 29.8345)"/>
</clipPath>
<clipPath id="clip2">
<rect width="23.213" height="23.1655" fill="white" transform="translate(32.7869 29.834)"/>
</clipPath>
</defs>
</svg>
