<svg width="40" height="40" viewBox="0 0 40 40" fill="none" xmlns="http://www.w3.org/2000/svg">
<path d="M39.998 19.6231V19.5463V19.5341L39.9919 19.4391C39.9919 19.3138 39.9858 19.1865 39.9818 19.0612L39.9717 18.8712L39.9616 18.7257L39.9576 18.6489V18.6226L39.9353 18.3538L39.9313 18.279V18.275L39.9171 18.1436V18.1335L39.9131 18.0607L39.8848 17.798L39.8767 17.7657L39.8666 17.6949L39.8565 17.5999C39.1653 11.8054 35.9881 6.7748 31.4304 3.59153C30.0541 2.62746 28.5483 1.8372 26.9537 1.24299C26.2139 0.970138 25.458 0.737709 24.6839 0.551766L24.6092 0.535597L24.5869 0.527513L24.4455 0.495175C24.3363 0.470921 24.2272 0.448689 24.114 0.424435L24.0432 0.408266H24.0311L24.021 0.402203C23.8917 0.37795 23.7542 0.353696 23.6229 0.3254L23.4773 0.301147C23.3359 0.272851 23.1944 0.25264 23.0569 0.230408H23.0468L23.0367 0.228387H23.0327C22.8791 0.206154 22.7275 0.185943 22.5759 0.16169L22.5335 0.157647L22.4627 0.147542C22.1697 0.109141 21.8746 0.082866 21.5775 0.0586125L21.5431 0.0565914H21.5007C21.1793 0.0303168 20.866 0.0141478 20.5326 0.00606336H20.5225H20.5164C20.3406 0.00202112 20.1728 0 20.003 0C19.8312 0 19.6615 0.00202112 19.4937 0.00606336H19.4876H19.4775C19.1501 0.0141478 18.8308 0.0303168 18.5094 0.0565914H18.465L18.4326 0.0606336C18.1396 0.0848871 17.8384 0.111162 17.5514 0.149563L17.4807 0.159669L17.4584 0.16169L17.4362 0.163711C17.2887 0.17988 17.1431 0.204133 17.0017 0.226366L16.9309 0.23445C16.7955 0.254661 16.6581 0.280936 16.5227 0.301147L16.3852 0.327422C16.2559 0.351675 16.1205 0.37795 15.985 0.402203L15.9729 0.408266H15.9628L15.8921 0.424435L15.5707 0.493153L15.409 0.531555L15.3969 0.535597L15.3262 0.551766C14.548 0.737709 13.7921 0.970138 13.0564 1.24299C11.4577 1.8372 9.94998 2.62746 8.57561 3.59153C4.62432 6.34632 1.71391 10.4916 0.555808 15.3221L0.52347 15.4575V15.4636L0.517407 15.4858L0.50528 15.5323C0.479006 15.6516 0.452731 15.7728 0.430499 15.8941L0.381992 16.1063L0.359759 16.2417L0.34359 16.3165L0.339548 16.3367L0.295084 16.5934V16.6015L0.278915 16.6742L0.260725 16.7874L0.222323 17.03V17.032L0.212218 17.1068L0.173816 17.3756L0.165732 17.4726L0.153605 17.5453L0.121267 17.8384L0.115204 17.9132L0.109141 17.9233L0.105098 18.0183C0.0869082 18.1436 0.0768026 18.2709 0.0727603 18.4003L0.0606336 18.4912V18.5013L0.0545703 18.5761C0.0444647 18.6994 0.0384013 18.8267 0.0282957 18.948V18.9702V19.0208C0.0222323 19.1602 0.016169 19.2997 0.0121267 19.4391L0.00606336 19.5341V19.5483V19.6251C0.00606336 19.7484 0 19.8737 0 19.999C0 20.1263 0.00606336 20.2516 0.00606336 20.3749V20.4537V20.4679L0.0121267 20.5629C0.016169 20.7023 0.0222323 20.8378 0.0282957 20.9772V21.0318V21.054L0.0545703 21.4239L0.0606336 21.5007V21.5108L0.0707392 21.6058C0.0747815 21.7291 0.0869082 21.8503 0.0970138 21.9736L0.113183 22.0828V22.0909L0.117225 22.1616L0.149563 22.4567L0.16169 22.5294L0.171795 22.6224L0.210197 22.8912L0.220302 22.968V22.97L0.258703 23.2227L0.274872 23.3278L0.291041 23.3985V23.4086L0.339548 23.6754V23.6875L0.355717 23.7603L0.37795 23.8775L0.426456 24.112C0.446668 24.2292 0.474963 24.3444 0.501238 24.4616L0.517407 24.5445L0.549745 24.6819C1.70785 29.5124 4.61826 33.6597 8.56955 36.4166C9.94593 37.3766 11.4517 38.1729 13.0524 38.7611C14.4935 39.2966 16.0174 39.6706 17.5898 39.8565L17.6868 39.8666L17.6929 39.8686L17.7636 39.8767L17.7899 39.8787L18.0567 39.907L18.1335 39.9151H18.1497L18.2709 39.9252H18.281L18.3538 39.9333L18.6246 39.9495L18.6509 39.9535L18.7237 39.9596L18.8692 39.9677L19.0592 39.9757C19.1845 39.9838 19.3138 39.9859 19.4391 39.9919H19.5321H19.5483H19.619C19.7484 39.996 19.8737 40 19.999 40C20.1243 40 20.2496 39.998 20.3749 39.9919H20.4517H20.4618H20.5588C20.6841 39.9859 20.8095 39.9838 20.9348 39.9757L21.1308 39.9677L21.2723 39.9596L21.3491 39.9535L21.3713 39.9495L21.6422 39.9333L21.7149 39.9252H21.7291L21.8382 39.9151H21.8604L21.9372 39.907L22.2081 39.8787L22.2303 39.8767L22.301 39.8686L22.3111 39.8666L22.3981 39.8565C23.1701 39.7676 23.928 39.6281 24.6718 39.4523H24.6759C25.4479 39.2643 26.2038 39.0359 26.9456 38.7611C28.5402 38.1689 30.046 37.3766 31.4224 36.4166C35.98 33.2333 39.1531 28.2027 39.8484 22.4082L39.8605 22.3192V22.3091L39.8767 22.2323V22.2101L39.9111 21.9393L39.9151 21.8645V21.8463L39.9252 21.7331V21.719L39.9293 21.6422L39.9515 21.3734V21.3491L39.9555 21.2723L39.9656 21.1349L39.9757 20.9368C39.9798 20.8115 39.9859 20.6882 39.9859 20.5629L39.9919 20.4679V20.4537V20.3749C39.9919 20.2516 39.996 20.1263 39.996 19.999C40.002 19.8737 39.998 19.7484 39.998 19.6231ZM8.57561 5.11344C9.93583 4.07256 11.4416 3.20752 13.0564 2.56278C13.7921 2.27174 14.548 2.02112 15.3262 1.82305V10.2026C14.5096 10.5927 13.7497 11.0838 13.0564 11.6578C11.8599 12.6542 10.8817 13.9013 10.2006 15.3221H8.57561H1.82507C2.88414 11.2031 5.30544 7.63175 8.57561 5.11344ZM15.3262 38.1769C14.548 37.9748 13.7921 37.7283 13.0564 37.4372C11.4395 36.7925 9.93381 35.9295 8.57359 34.8825C5.30342 32.3662 2.88212 28.7929 1.82305 24.6759H8.57359H10.2067C10.8797 26.0967 11.8599 27.3458 13.0564 28.3422C13.7477 28.9162 14.5096 29.4053 15.3262 29.7954V38.1769ZM20.003 29.2113C17.2301 29.2113 14.7421 27.9905 13.0564 26.0543C11.6417 24.4354 10.7867 22.3192 10.7867 19.997C10.7867 17.6828 11.6417 15.5667 13.0564 13.9457C14.7421 12.0115 17.2301 10.7887 20.003 10.7887C22.772 10.7887 25.26 12.0156 26.9516 13.9518C28.3604 15.5707 29.2153 17.6848 29.2153 19.999C29.2153 22.3172 28.3604 24.4333 26.9516 26.0522C25.26 27.9865 22.774 29.2113 20.003 29.2113ZM31.4284 34.8845C30.0682 35.9295 28.5665 36.7905 26.9516 37.4392C26.218 37.7303 25.456 37.9769 24.6819 38.179V29.7994C25.4985 29.4114 26.2604 28.9202 26.9516 28.3442C28.1441 27.3478 29.1223 26.0967 29.8034 24.6799H31.4304H38.181C37.1199 28.7949 34.6986 32.3642 31.4284 34.8845ZM31.4284 15.3221H29.8014C29.1223 13.9013 28.1421 12.6563 26.9496 11.6598C26.2584 11.0858 25.4964 10.5927 24.6799 10.2026V1.82305C25.456 2.02112 26.218 2.27174 26.9516 2.56278C28.5665 3.20954 30.0682 4.07458 31.4284 5.11748C34.6986 7.63377 37.1179 11.2051 38.179 15.3221H31.4284Z" fill="#204FC9"/>
</svg>
