<svg viewBox="0 0 55 55" fill="none" xmlns="http://www.w3.org/2000/svg">
<path d="M7.15913 19.8941C6.55188 19.6947 5.91014 20.0178 5.70851 20.6206C4.9615 22.8641 4.58337 25.1786 4.58337 27.5001C4.58337 29.8216 4.9615 32.1361 5.70862 34.3797C5.869 34.8609 6.31587 35.1634 6.79712 35.1634C6.91862 35.1634 7.03775 35.1451 7.15924 35.1062C7.75962 34.9068 8.08275 34.2559 7.88337 33.6578C7.21413 31.6457 6.875 29.5741 6.875 27.5001C6.875 25.4261 7.21413 23.3545 7.88337 21.3423C8.08275 20.742 7.75962 20.0934 7.15913 19.8941Z" fill="#204FC9"/>
<path d="M2.29163 27.4999C2.29163 24.9333 2.71326 22.3758 3.54062 19.8962C3.74 19.2958 3.41462 18.6472 2.81649 18.4455C2.21837 18.2508 1.5675 18.5693 1.36587 19.1697C0.458369 21.883 0 24.6858 0 27.4999C0 30.3141 0.458369 33.1168 1.36587 35.8302C1.52625 36.3092 1.97549 36.6139 2.45437 36.6139C2.57587 36.6139 2.695 36.5956 2.81649 36.5543C3.41688 36.3549 3.74 35.7041 3.54062 35.1059C2.71337 32.6241 2.29163 30.0666 2.29163 27.4999Z" fill="#204FC9"/>
<path d="M25.2084 38.9582V16.0415C25.2084 12.2511 22.1238 9.1665 18.3334 9.1665C14.543 9.1665 11.4584 12.2511 11.4584 16.0415V38.9581C11.4584 42.7485 14.543 45.8331 18.3334 45.8331C22.1238 45.8331 25.2084 42.7486 25.2084 38.9582ZM18.3334 29.7915C17.0684 29.7915 16.0417 28.7625 16.0417 27.4999C16.0417 26.2372 17.0684 25.2082 18.3334 25.2082C19.5984 25.2082 20.625 26.2371 20.625 27.4999C20.625 28.7626 19.5984 29.7915 18.3334 29.7915Z" fill="#204FC9"/>
<path d="M32.0833 0C27.3808 0 22.8479 1.72563 18.9727 4.99351C18.6267 5.28451 18.4845 5.75437 18.6105 6.18976C18.7389 6.62514 19.1102 6.94601 19.557 7.00563C21.1429 7.21875 22.6462 7.84663 23.9043 8.82062C24.2847 9.11163 24.8003 9.14375 25.2059 8.88937C27.3693 7.55337 29.6838 6.87726 32.0809 6.87726C40.9244 6.87726 48.1225 16.131 48.1225 27.5023C48.1225 38.8735 40.9244 48.1273 32.0809 48.1273C29.6838 48.1273 27.3693 47.4513 25.2059 46.1151C24.798 45.8654 24.2847 45.8929 23.9043 46.1839C22.6439 47.1579 21.1428 47.7858 19.557 47.9989C19.1102 48.0585 18.7389 48.3793 18.6105 48.8148C18.4845 49.2501 18.6266 49.72 18.9727 50.011C22.8478 53.2744 27.3808 55 32.0833 55C44.7195 55 54.9999 42.664 54.9999 27.5C54.9999 12.336 44.7195 0 32.0833 0Z" fill="#204FC9"/>
</svg>
