<svg viewBox="0 0 55 55" fill="none" xmlns="http://www.w3.org/2000/svg">
<path d="M0.924474 46.0624H54.0755C54.5856 46.0624 55 45.648 55 45.1379V9.86197C55 9.35188 54.5856 8.9375 54.0755 8.9375H0.924474C0.414383 8.93767 0 9.35206 0 9.86197V45.1379C0 45.6489 0.414383 46.0624 0.924474 46.0624ZM44.524 12.8662H50.0701V18.4124H44.524V12.8662ZM44.524 21.1854H50.0701V26.7316H44.524V21.1854ZM43.4309 36.2833C43.4309 34.0636 45.2309 32.2634 47.4508 32.2634C47.699 32.2634 47.941 32.2924 48.1774 32.3356L49.0667 30.7793C49.3834 30.225 50.0875 30.032 50.6437 30.3496C51.198 30.6664 51.3912 31.3714 51.0734 31.9266L50.2357 33.3926C50.9948 34.1237 51.4724 35.1467 51.4724 36.2831C51.4724 38.5027 49.6725 40.3028 47.4518 40.3028C47.0781 40.3028 46.7233 40.2361 46.3804 40.1404L45.5283 41.6326C45.3142 42.0053 44.9242 42.2149 44.5243 42.2149C44.3303 42.2149 44.1335 42.1661 43.9522 42.0624C43.3978 41.7456 43.2055 41.0396 43.5224 40.4852L44.426 38.9028C43.8136 38.1987 43.4309 37.2897 43.4309 36.2833ZM32.2762 14.715H34.5104H36.7445C38.6122 14.715 40.1342 16.2357 40.1342 18.1047C40.1342 19.9737 38.6138 21.4943 36.7445 21.4943H35.4347V40.3049C35.4347 40.814 35.0212 41.2292 34.5103 41.2292C34.0002 41.2292 33.5858 40.814 33.5858 40.3049V21.4933H32.2759C30.4083 21.4933 28.8864 19.9726 28.8864 18.1038C28.8865 16.2355 30.4067 14.715 32.2762 14.715ZM18.4107 30.4291H19.7206V15.6393C19.7206 15.1292 20.1348 14.715 20.6449 14.715C21.1553 14.715 21.5692 15.1292 21.5692 15.6393V30.4291H22.8791C24.7472 30.4291 26.2688 31.9495 26.2688 33.8188C26.2688 35.6881 24.7481 37.2085 22.8791 37.2085H21.5692V40.3048C21.5692 40.8138 21.1553 41.2291 20.6449 41.2291C20.1348 41.2291 19.7206 40.8138 19.7206 40.3048V37.2085H18.4107C16.5426 37.2085 15.021 35.6881 15.021 33.8188C15.021 31.9495 16.5417 30.4291 18.4107 30.4291ZM5.46961 18.4124H6.77936V15.6393C6.77936 15.1292 7.19374 14.715 7.70383 14.715C8.21427 14.715 8.62813 15.1292 8.62813 15.6393V18.4124H9.93787C11.806 18.4124 13.3276 19.933 13.3276 21.802C13.3276 23.671 11.8069 25.1917 9.93787 25.1917H8.62813V40.3048C8.62813 40.8138 8.21427 41.2291 7.70383 41.2291C7.19374 41.2291 6.77936 40.8138 6.77936 40.3048V25.1908H5.46961C3.60149 25.1908 2.07994 23.6702 2.07994 21.8012C2.07994 19.933 3.60044 18.4124 5.46961 18.4124Z" fill="#204FC9"/>
<path d="M5.46962 23.342H6.77936H8.62813H9.93787C10.7874 23.342 11.4788 22.6506 11.4788 21.8011C11.4788 20.9518 10.7863 20.2612 9.937 20.2612H8.62709H6.77849H5.46962C4.6201 20.2612 3.92871 20.9526 3.92871 21.8021C3.92871 22.6516 4.6201 23.342 5.46962 23.342Z" fill="#204FC9"/>
<path d="M18.4106 35.3588H19.7206H21.5692H22.8791C23.7286 35.3588 24.42 34.6672 24.42 33.8179C24.42 32.9684 23.7277 32.2778 22.8782 32.2778H21.5685H19.7197H18.4098C17.5604 32.2778 16.8689 32.9694 16.8689 33.8187C16.8689 34.6682 17.5611 35.3588 18.4106 35.3588Z" fill="#204FC9"/>
<path d="M32.2762 19.6447H33.5861H35.4349H36.7446C37.5941 19.6447 38.2855 18.9531 38.2855 18.1038C38.2855 17.2542 37.5932 16.5637 36.7437 16.5637H35.4338H33.5852H32.2753C31.426 16.5637 30.7344 17.2551 30.7344 18.1046C30.7344 18.9541 31.4267 19.6447 32.2762 19.6447Z" fill="#204FC9"/>
</svg>
