<svg viewBox="0 0 55 55" fill="none" xmlns="http://www.w3.org/2000/svg">
<path d="M49.0001 15.0384H40.3587L40.3548 3.03044C40.3548 1.35388 38.991 0 37.3153 0H4.75599C3.07986 0 1.71567 1.36548 1.71567 3.04162L1.72985 51.9558C1.72985 53.6319 3.09404 54.9974 4.77017 54.9974H33.8642C33.8836 54.9974 33.9025 54.9996 33.9222 54.9996L33.9227 55L36.9385 54.9974H37.3295C37.3304 54.9974 37.3308 54.9974 37.3317 54.9974L49.0001 54.9854C51.3543 54.9854 53.2693 53.0695 53.2693 50.7154L53.2843 19.3342C53.2843 16.9719 51.3624 15.0384 49.0001 15.0384ZM39.5307 17.6164H43.368C43.8424 17.6164 44.2274 18.0013 44.2274 18.4757C44.2274 18.9501 43.8424 19.335 43.368 19.335H39.5307C39.0563 19.335 38.6714 18.9501 38.6714 18.4757C38.6714 18.0013 39.0563 17.6164 39.5307 17.6164ZM18.0022 3.43734H24.0863C24.5607 3.43734 24.9456 3.82232 24.9456 4.29667C24.9456 4.77103 24.5607 5.15601 24.0863 5.15601H18.0022C17.5279 5.15601 17.1429 4.77103 17.1429 4.29667C17.1429 3.82232 17.5274 3.43734 18.0022 3.43734ZM14.8338 3.70201C15.1561 3.37976 15.7318 3.37976 16.0498 3.70201C16.2131 3.86099 16.3033 4.08442 16.3033 4.30785C16.3033 4.53557 16.2131 4.7547 16.0498 4.91368C15.8908 5.07695 15.6674 5.16718 15.444 5.16718C15.2167 5.16718 14.9971 5.07695 14.8338 4.91368C14.6749 4.7547 14.5846 4.53557 14.5846 4.30785C14.5842 4.08442 14.6744 3.86099 14.8338 3.70201ZM20.8711 53.3075C19.4532 53.3075 18.3 52.1539 18.3 50.736C18.3 49.3181 19.4536 48.1649 20.8711 48.1649C22.2886 48.1649 23.4422 49.3185 23.4422 50.736C23.4427 52.1539 22.289 53.3075 20.8711 53.3075ZM29.6483 19.3299V46.4041H4.29797V8.16368H37.812V15.0384H33.9222C31.569 15.0384 29.6483 16.9762 29.6483 19.3299ZM37.8125 18.5174C37.8125 18.7451 37.7222 18.9642 37.559 19.1232C37.4 19.2865 37.1761 19.3767 36.9531 19.3767C36.7254 19.3767 36.5063 19.2865 36.3473 19.1232C36.184 18.9642 36.0938 18.7451 36.0938 18.5174C36.0938 18.2897 36.184 18.0705 36.3473 17.9115C36.6605 17.5893 37.241 17.5893 37.559 17.9115C37.7222 18.0705 37.8125 18.2892 37.8125 18.5174ZM41.4694 53.7681C40.1503 53.7681 39.0774 52.6948 39.0774 51.3758C39.0774 50.0567 40.1503 48.9834 41.4694 48.9834C42.7884 48.9834 43.8613 50.0567 43.8613 51.3758C43.8613 52.6948 42.7884 53.7681 41.4694 53.7681ZM51.1317 47.6931H31.7967V21.913H51.1317V47.6931Z" fill="#204FC9"/>
</svg>
