<svg viewBox="0 0 50 53" fill="none" xmlns="http://www.w3.org/2000/svg">
<path d="M37.5687 51.3478V39.8287L49.1553 34.0702C49.6227 33.8379 50.0011 33.227 49.9999 32.6869C50.0011 32.0822 49.5863 31.517 49.1553 31.3035L36.7087 25.1175C36.2256 24.879 35.6543 24.9015 35.1954 25.1855C34.7366 25.4679 34.457 25.9648 34.457 26.5009V51.3478C34.457 52.2026 35.1529 52.8943 36.0129 52.8943C36.8728 52.8943 37.5687 52.2026 37.5687 51.3478Z" fill="#204FC9"/>
<path d="M15.3142 46.0684H18.4259V52.3574H15.3142V46.0684Z" fill="#204FC9"/>
<path d="M10.8372 37.4307H9.09463C5.67192 37.4307 2.87134 40.2142 2.87134 43.6166V51.4521C2.87134 52.3181 3.5558 52.9986 4.42716 52.9986H12.2063V45.1631C12.2063 44.4274 12.7326 43.8413 13.4244 43.6842C12.5918 42.2697 11.9362 40.6762 11.5838 39.6266C11.2609 38.5821 10.9935 37.8809 10.8372 37.4307Z" fill="#204FC9"/>
<path d="M29.0971 52.9986C29.9684 52.9986 30.6529 52.3181 30.6529 51.4521V43.6166C30.6529 40.2142 27.8523 37.4307 24.4296 37.4307H22.682C22.0501 39.2672 22.0369 39.3145 21.9404 39.6266C21.588 40.676 20.9325 42.2697 20.0999 43.6842C20.7918 43.8413 21.318 44.4275 21.318 45.1631V52.9986H29.0971Z" fill="#204FC9"/>
<path d="M10.8912 12.475H4.02365L0.456149 16.0211C0.0109763 16.4636 -0.122721 17.1281 0.118847 17.7065C0.358858 18.2849 0.927149 18.661 1.55612 18.661H32.6726C33.3015 18.661 33.8698 18.285 34.1098 17.7065C34.3514 17.1282 34.2177 16.4636 33.7725 16.0211L30.2052 12.475H23.3377C22.4785 12.475 21.7819 11.7826 21.7819 10.9285C21.7819 10.0742 22.4785 9.38202 23.3377 9.38202H28.0052V7.83553C28.0052 3.57207 24.5153 0 20.2261 0H14.0028C9.71361 0 6.22369 3.57207 6.22369 7.83553V9.38202H10.8912C11.7504 9.38202 12.447 10.0742 12.447 10.9285C12.447 11.7826 11.7503 12.475 10.8912 12.475Z" fill="#204FC9"/>
<path d="M20.4426 35.4897C20.8541 34.3003 21.606 33.2781 22.6147 32.5355C24.8088 30.9195 26.3271 28.5645 26.3271 25.8502V22.0742H7.65723V25.858C7.65723 28.5713 9.17737 30.9233 11.3713 32.5377C12.3782 33.2789 13.1275 34.3017 13.5387 35.4912L14.2451 37.5391C14.8964 39.3164 15.3151 41.6483 16.9921 43.494C18.6757 41.6411 19.0785 39.3282 19.7315 37.5391L20.4426 35.4897ZM12.3247 26.7137C12.3247 25.8589 13.0206 25.1672 13.8805 25.1672C14.7405 25.1672 15.4363 25.8589 15.4363 26.7137C15.4363 27.5669 16.1338 28.2602 16.9922 28.2602C17.8506 28.2602 18.548 27.5669 18.548 26.7137C18.548 25.8589 19.2439 25.1672 20.1038 25.1672C20.9638 25.1672 21.6596 25.8589 21.6596 26.7137C21.6596 29.272 19.5659 31.3531 16.9922 31.3531C14.4184 31.3531 12.3247 29.272 12.3247 26.7137Z" fill="#204FC9"/>
</svg>
