<svg viewBox="0 0 55 55" fill="none" xmlns="http://www.w3.org/2000/svg">
<path d="M1.61133 0C0.721445 0 0 0.721445 0 1.61133V12.8906H24.2482L30.6935 0H1.61133ZM8.05664 8.05664C7.16676 8.05664 6.44531 7.3352 6.44531 6.44531C6.44531 5.55543 7.16676 4.83398 8.05664 4.83398C8.94652 4.83398 9.66797 5.55543 9.66797 6.44531C9.66797 7.3352 8.94652 8.05664 8.05664 8.05664ZM14.502 8.05664C13.6121 8.05664 12.8906 7.3352 12.8906 6.44531C12.8906 5.55543 13.6121 4.83398 14.502 4.83398C15.3918 4.83398 16.1133 5.55543 16.1133 6.44531C16.1133 7.3352 15.3918 8.05664 14.502 8.05664ZM20.9473 8.05664C20.0574 8.05664 19.3359 7.3352 19.3359 6.44531C19.3359 5.55543 20.0574 4.83398 20.9473 4.83398C21.8371 4.83398 22.5586 5.55543 22.5586 6.44531C22.5586 7.3352 21.8371 8.05664 20.9473 8.05664Z" fill="#204FC9"/>
<path d="M15.9722 33.3044L0 40.7494V52.3709L20.3155 42.7043L15.9722 33.3044Z" fill="#204FC9"/>
<path d="M22.7667 30.1375L18.8933 31.943L29.547 54.9999H34.2913L22.7667 30.1375Z" fill="#204FC9"/>
<path d="M31.5602 41.4458L37.7023 38.5801L33.7278 33.2247C31.9087 30.7737 31.631 27.5571 33.0029 24.8306C34.375 22.104 37.1234 20.4102 40.1757 20.4102C43.228 20.4102 45.9764 22.104 47.3483 24.8306C48.7202 27.5571 48.4425 30.7737 46.6235 33.2247L45.2689 35.0499L54.9999 30.51V16.1133H19.8177L31.5602 41.4458Z" fill="#204FC9"/>
<path d="M40.1757 23.6328C38.3208 23.6328 36.7157 24.6221 35.8819 26.279C35.0481 27.936 35.2104 29.8146 36.3158 31.3041L40.1757 36.5052L44.0356 31.3041C45.1411 29.8146 45.3033 27.936 44.4696 26.279C43.6359 24.6221 42.0307 23.6328 40.1757 23.6328ZM40.1757 30.0781C39.2858 30.0781 38.5644 29.3567 38.5644 28.4668C38.5644 27.5769 39.2858 26.8555 40.1757 26.8555C41.0656 26.8555 41.7871 27.5769 41.7871 28.4668C41.7871 29.3567 41.0656 30.0781 40.1757 30.0781Z" fill="#204FC9"/>
<path d="M32.9156 44.3695L37.8432 54.9999H53.3887C54.2786 54.9999 55 54.2784 55 53.3886V34.0659L32.9156 44.3695Z" fill="#204FC9"/>
<path d="M21.4113 27.2137L16.2658 16.1133H0V37.194L21.4113 27.2137Z" fill="#204FC9"/>
<path d="M21.6673 45.6301L1.97519 55.0001H25.9969L21.6673 45.6301Z" fill="#204FC9"/>
<path d="M53.3887 0H34.2967L27.8514 12.8906H55V1.61133C55 0.721445 54.2786 0 53.3887 0ZM46.8359 8.05664H36.0938C35.2039 8.05664 34.4824 7.3352 34.4824 6.44531C34.4824 5.55543 35.2039 4.83398 36.0938 4.83398H46.8359C47.7258 4.83398 48.4473 5.55543 48.4473 6.44531C48.4473 7.3352 47.7258 8.05664 46.8359 8.05664Z" fill="#204FC9"/>
</svg>
