<svg viewBox="0 0 55 55" fill="none" xmlns="http://www.w3.org/2000/svg">
<g clip-path="url(#clip0)">
<path d="M29.7917 6.87476C18.2735 6.87476 0 12.4742 0 27.4998C0 34.4624 3.87349 40.1211 11.2022 43.8637C16.4272 46.5318 23.375 48.1248 29.7917 48.1248C30.3995 48.1248 30.9823 47.8833 31.4121 47.4535C31.8419 47.0238 32.0833 46.4409 32.0833 45.8331V9.16642C32.0833 8.55863 31.8419 7.97574 31.4121 7.54597C30.9823 7.1162 30.3995 6.87476 29.7917 6.87476Z" fill="#204FC9"/>
<path d="M36.6665 6.87476H54.9999V11.4581H36.6665V6.87476Z" fill="#204FC9"/>
<path d="M36.6665 25.208H54.9999V29.7913H36.6665V25.208Z" fill="#204FC9"/>
<path d="M36.6665 43.5417H54.9999V48.1251H36.6665V43.5417Z" fill="#204FC9"/>
<path d="M36.6665 34.3748H54.9999V38.9581H36.6665V34.3748Z" fill="#204FC9"/>
<path d="M36.6665 16.0415H54.9999V20.6248H36.6665V16.0415Z" fill="#204FC9"/>
</g>
<defs>
<clipPath id="clip0">
<rect width="55" height="55" fill="white"/>
</clipPath>
</defs>
</svg>
