<svg width="40" height="41" viewBox="0 0 40 41" fill="none" xmlns="http://www.w3.org/2000/svg">
<path d="M26.2333 0C23.1333 0 20.2833 1.28333 18.3333 3.45C16.3833 1.28333 13.5333 0 10.4333 0C4.68333 0 0 4.48333 0 10C0 24.1167 16.7667 34.3333 17.4833 34.7667C17.7333 34.9167 18.0333 35 18.3333 35C18.4833 35 18.6167 34.9833 18.7667 34.9333C17.5 32.8333 16.6667 30.3833 16.6667 27.5833V20.9C16.6667 18.9333 17.9167 17.1833 19.7833 16.55L28.5167 13.5833C29.4667 13.25 30.5333 13.25 31.4833 13.5833L35.95 15.1C36.4 13.4667 36.6667 11.7667 36.6667 10C36.6667 4.48333 31.9833 0 26.2333 0V0Z" fill="#204FC9"/>
<path d="M39.1517 20.0442L30.4017 17.0675C30.1417 16.9775 29.8583 16.9775 29.5983 17.0675L20.8483 20.0442C20.34 20.2158 20 20.6908 20 21.2275V27.9242C20 36.0975 29.1233 40.0708 29.5117 40.2358C29.825 40.3675 30.175 40.3675 30.4883 40.2358C30.8767 40.0692 40 36.0975 40 27.9242V21.2275C40 20.6908 39.66 20.2158 39.1517 20.0442ZM35.4767 26.3642L30.8933 32.1975C30.31 32.9425 29.2167 33.0508 28.4983 32.4342L25.5817 29.9342C24.8817 29.3358 24.8 28.2825 25.4017 27.5842C26 26.8858 27.0533 26.8058 27.75 27.4042L29.3467 28.7725L32.855 24.3075C33.4233 23.5842 34.47 23.4558 35.195 24.0275C35.92 24.5925 36.0467 25.6408 35.4767 26.3642Z" fill="#204FC9"/>
</svg>
