<svg width="50" height="50" viewBox="0 0 50 50" fill="none" xmlns="http://www.w3.org/2000/svg">
<path d="M13.6364 0C6.11364 0 0 6.11364 0 13.6364V36.3636C0 43.8864 6.11364 50 13.6364 50H36.3636C43.8864 50 50 43.8864 50 36.3636V13.6364C50 6.11364 43.8864 0 36.3636 0H13.6364ZM9.79545 17.125C10.5909 17.125 11.1818 17.6932 11.1818 18.4432C11.1818 19.1818 10.5909 19.75 9.79545 19.75C8.98864 19.75 8.39773 19.1818 8.39773 18.4432C8.39773 17.6932 8.98864 17.125 9.79545 17.125ZM21.6364 17.7727C25.7841 17.7727 28.3409 20.6705 28.3409 25.3182C28.3409 29.9545 25.8068 32.875 21.6364 32.875C17.4432 32.875 14.8977 29.9659 14.8977 25.3182C14.8977 20.6591 17.5 17.7727 21.6364 17.7727ZM36.3295 17.7727C39.25 17.7727 41.3864 19.4773 41.5227 21.9091H39.3409C39.125 20.5795 37.9773 19.75 36.2954 19.75C34.5227 19.75 33.3523 20.5909 33.3523 21.8977C33.3523 22.9205 34.1023 23.5114 35.9886 23.9545L37.5682 24.3409C40.5341 25.0341 41.75 26.2273 41.75 28.3977C41.75 31.1591 39.6136 32.8864 36.1932 32.8864C33 32.8864 30.8523 31.2386 30.6932 28.6591H32.9091C33.1023 30.0227 34.4432 30.8977 36.3636 30.8977C38.1591 30.8977 39.4773 29.9659 39.4773 28.6818C39.4773 27.5909 38.6477 26.9318 36.7386 26.4773L34.875 26.0341C32.2727 25.4205 31.0795 24.1591 31.0795 22.0455C31.0795 19.4773 33.1818 17.7727 36.3295 17.7727ZM21.6364 19.8523C18.9205 19.8523 17.1932 21.9773 17.1932 25.3182C17.1932 28.6477 18.8636 30.7955 21.6364 30.7955C24.375 30.7955 26.0568 28.6477 26.0568 25.3182C26.0568 21.9773 24.375 19.8523 21.6364 19.8523ZM8.72727 21.6591H10.8636V32.5341H8.72727V21.6591Z" fill="#204FC9"/>
</svg>
