<svg width="22" height="22" viewBox="0 0 22 22" fill="none" xmlns="http://www.w3.org/2000/svg">
<g clip-path="url(#clip0)">
<path d="M21.1669 2.96838C20.3932 2.19421 19.3436 1.75941 18.2492 1.75978C17.1552 1.7572 16.1055 2.19186 15.3336 2.96704L10.0075 8.29325C8.95367 9.34871 8.55081 10.8904 8.95358 12.3264C9.07151 12.7445 9.50603 12.9878 9.92411 12.8699C10.3422 12.752 10.5855 12.3174 10.4676 11.8994C10.2193 11.0113 10.4684 10.0583 11.1196 9.40539L16.4457 4.07997C17.4415 3.08395 19.0562 3.08377 20.0522 4.0796C21.0482 5.07538 21.0484 6.69007 20.0526 7.68609L14.7265 13.0122C14.3774 13.3617 13.9342 13.602 13.4508 13.7036C13.0255 13.7921 12.7526 14.2086 12.8411 14.6339C12.9172 14.9996 13.24 15.2612 13.6135 15.2601C13.6685 15.2601 13.7234 15.2543 13.7771 15.2428C14.5583 15.0781 15.2746 14.6895 15.8386 14.1244L21.1648 8.79902C22.7754 7.18949 22.7763 4.57906 21.1669 2.96838Z" fill="#204FC9"/>
<path d="M13.3968 9.09451C13.2788 8.67643 12.8443 8.43311 12.4262 8.55104C12.0081 8.66897 11.7648 9.10349 11.8828 9.52157C12.1311 10.4097 11.8819 11.3626 11.2308 12.0155L5.90455 17.3417C4.90877 18.3378 3.29408 18.3379 2.29806 17.3421C1.30205 16.3463 1.30186 14.7316 2.29765 13.7356L7.62385 8.40864C7.97234 8.05923 8.41512 7.81899 8.89798 7.71729C9.32394 7.63208 9.60017 7.21774 9.51496 6.79183C9.42975 6.36592 9.01541 6.08964 8.5895 6.17485C8.58429 6.17591 8.57913 6.17697 8.57397 6.17813C7.79266 6.34306 7.07614 6.73164 6.51175 7.29654L1.18555 12.6227C-0.412463 14.2454 -0.392462 16.8563 1.2302 18.4543C2.83517 20.0348 5.41145 20.035 7.01665 18.4546L12.3428 13.1276C13.3967 12.0722 13.7995 10.5305 13.3968 9.09451Z" fill="#204FC9"/>
</g>
<defs>
<clipPath id="clip0">
<rect width="22" height="22" fill="white"/>
</clipPath>
</defs>
</svg>
