<svg viewBox="0 0 55 55" fill="none" xmlns="http://www.w3.org/2000/svg">
<path d="M18.4375 34.875C20.336 34.875 21.875 33.336 21.875 31.4375C21.875 29.539 20.336 28 18.4375 28C16.539 28 15 29.539 15 31.4375C15 33.336 16.539 34.875 18.4375 34.875Z" fill="#204FC9"/>
<path d="M51.0606 24.9777C51.3219 22.7227 51.5625 20.1538 51.5625 18.3869C51.5625 5.72083 36.8042 1 27.5 1C21.4638 1 17.1073 4.23812 15.6429 5.49625C11.0596 5.75979 3.4375 8.67708 3.4375 18.3869C3.4375 20.179 3.67583 22.7365 3.93479 24.98C1.61333 25.9288 0 28.1746 0 30.7917C0 34.1008 2.57354 36.7935 5.81854 37.0456C8.92375 46.0588 17.4602 52.5625 27.5 52.5625C37.5398 52.5625 46.0763 46.061 49.1815 37.0456C52.4288 36.7935 55 34.1008 55 30.7917C55 28.1723 53.3867 25.9265 51.0606 24.9777ZM46.2344 34.9785C46.2344 34.9831 46.2298 34.9854 46.2298 34.99V34.9969C43.8785 43.1438 36.3802 49.125 27.5 49.125C17.8177 49.125 9.78312 42.014 8.27063 32.7373L10.5577 24.7371C12.5996 24.0885 17.1737 22.2529 19.1767 18.3777C22.259 21.2904 29.166 24.8654 44.5363 25.0556L46.7317 32.7258C46.6079 33.4912 46.4452 34.2429 46.2344 34.9785Z" fill="#204FC9"/>
<path d="M36.4375 34.875C38.336 34.875 39.875 33.336 39.875 31.4375C39.875 29.539 38.336 28 36.4375 28C34.539 28 33 29.539 33 31.4375C33 33.336 34.539 34.875 36.4375 34.875Z" fill="#204FC9"/>
<path d="M31.984 39.4792C29.4838 41.8969 25.4138 41.8969 22.9136 39.4792C22.2329 38.8261 21.1421 38.8398 20.4821 39.525C19.8221 40.208 19.8427 41.2942 20.5257 41.9565C22.4346 43.799 24.9417 44.718 27.4488 44.718C29.9559 44.718 32.4629 43.799 34.3719 41.9565C35.0548 41.2965 35.0732 40.208 34.4154 39.525C33.7554 38.8398 32.6669 38.8261 31.984 39.4792Z" fill="#204FC9"/>
</svg>
