<svg viewBox="0 0 55 58" fill="none" xmlns="http://www.w3.org/2000/svg">
<path d="M1.07815 23.1919C0.4292 23.4531 0 24.0856 0 24.7903V56.2812C0 56.8519 0.284989 57.3847 0.755392 57.7044C1.04381 57.8969 1.37687 58 1.7168 58C1.93312 58 2.14943 57.9587 2.35545 57.8762L17.168 51.9431V16.75L1.07815 23.1919Z" fill="#204FC9"/>
<path d="M46.7519 35.6632C45.7767 36.7494 44.3793 37.375 42.92 37.375C41.4607 37.375 40.0632 36.7494 39.0881 35.6632C38.7379 35.2747 38.2881 34.7625 37.7696 34.1541V58.0001L53.8594 51.5582C54.5118 51.3004 54.9376 50.6644 54.9376 49.9632V24.6941C52.1255 29.4619 48.3657 33.8619 46.7519 35.6632Z" fill="#204FC9"/>
<path d="M28.5503 19.9331L20.6016 16.75V51.9431L34.336 57.4431V29.84C32.1419 26.8803 29.8517 23.3156 28.5503 19.9331Z" fill="#204FC9"/>
<path d="M42.9824 3C36.3556 3 30.9648 8.39688 30.9648 15.0312C30.9648 21.205 40.6064 32.1397 41.7051 33.3669C42.0313 33.7278 42.4949 33.9375 42.9824 33.9375C43.47 33.9375 43.9335 33.7278 44.2597 33.3669C45.3585 32.1397 55 21.205 55 15.0312C55 8.39688 49.6093 3 42.9824 3ZM42.9824 20.1875C40.1394 20.1875 37.832 17.8775 37.832 15.0312C37.832 12.185 40.1394 9.875 42.9824 9.875C45.8255 9.875 48.1328 12.185 48.1328 15.0312C48.1328 17.8775 45.8255 20.1875 42.9824 20.1875Z" fill="#204FC9"/>
</svg>
