<svg viewBox="0 0 55 55" fill="none" xmlns="http://www.w3.org/2000/svg">
<path d="M4.24857 13L4 15.3301L9.96422 22.4164L10.9996 14.7733C11.0479 14.4166 11.1489 14.0823 11.245 13.7462L4.24857 13Z" fill="#204FC9"/>
<path d="M9.48346 27.3194L9.79588 25.0132L3.89393 18L3.02119 26.1832C2.80454 28.2122 4.27388 30.0316 6.303 30.2486L9.82981 30.6247C9.47821 29.5914 9.32708 28.4747 9.48346 27.3194Z" fill="#204FC9"/>
<path d="M22.2965 13.8039C21.7856 12.3869 20.2212 11.6495 18.8033 12.1639C17.3854 12.6756 16.6506 14.2392 17.1633 15.6571L20.4745 24.8281C20.7747 25.6623 21.4624 26.2984 22.3179 26.5329L30.9007 28.8925C31.1424 28.9592 31.3858 28.9912 31.6257 28.9912C32.8233 28.9912 33.9222 28.196 34.2554 26.9843C34.6552 25.5309 33.8006 24.0294 32.3471 23.6297L25.1278 21.6451L22.2965 13.8039Z" fill="#204FC9"/>
<path d="M30.4843 43.0387L29.3622 35.298C29.2325 34.4043 28.7296 33.6082 27.9789 33.1063L23.4294 30.0687L21.8313 29.0016C21.8382 28.9551 21.8469 28.8961 21.8577 28.8206L21.9717 27.9786L21.0368 27.7216C19.6117 27.3298 18.4657 26.2699 17.9638 24.8804L16.924 22L11.3372 25.1638C11.3372 25.1638 11.1147 26.807 11.0405 27.3546C10.9778 27.817 10.9654 29.3388 11.1702 29.9958C11.4939 31.0345 12.4659 34.1507 12.4659 34.1507L14.2059 39.7309L11.7725 48.9837C11.3247 50.6849 12.3411 52.4263 14.0415 52.8731C14.3134 52.9442 14.5861 52.9788 14.8535 52.9788C16.2652 52.9788 17.5552 52.0326 17.931 50.6041L20.5971 40.4665C20.749 39.8881 20.7357 39.2787 20.5571 38.7083L19.4147 35.0452L23.2632 37.6146L24.1817 43.9517C24.4119 45.5375 25.7728 46.68 27.3294 46.6791C27.4813 46.6791 27.635 46.6685 27.7896 46.6463C29.5301 46.3943 30.7366 44.7792 30.4843 43.0387Z" fill="#204FC9"/>
<path d="M50.8544 23.3662C50.0513 22.7612 48.9097 22.9229 48.3065 23.7252L41.4772 32.7994C41.3422 32.9797 41.2409 33.1823 41.1797 33.399L38.3679 43.343L34.0529 43.9596C33.829 43.9916 33.6131 44.0644 33.4159 44.1764L20.9249 51.2294C20.0498 51.7233 19.7415 52.833 20.2355 53.7081C20.5695 54.3007 21.1861 54.633 21.8213 54.633C22.1243 54.633 22.4317 54.5574 22.7141 54.3976L34.9066 47.5133L40.054 46.7777C40.7657 46.6765 41.3511 46.1647 41.5474 45.4718L44.5894 34.7167L51.2134 25.9143C51.8185 25.111 51.6567 23.9704 50.8544 23.3662Z" fill="#204FC9"/>
<path d="M5.30301 12.368L11.9231 13.0745L12.762 13.164C13.174 13.208 13.5829 13.1674 13.979 13.0762C13.5396 13.7405 13.224 14.4994 13.1104 15.3416L12.0365 23.2689L16.6897 20.6335L15.0453 16.079C14.605 14.8591 14.7266 13.5786 15.2642 12.5034C15.3332 12.4551 15.4086 12.4186 15.4745 12.3654C15.9352 11.9932 16.2798 11.5125 16.5155 10.9809C16.6697 10.6332 16.7863 10.2676 16.8274 9.88223C16.859 9.58666 16.8451 9.29835 16.8087 9.01585C16.5946 7.35987 15.279 6.00215 13.5457 5.81697L6.0839 5.02091C5.11014 4.91688 4.1356 5.20385 3.37335 5.81854C2.612 6.43433 2.12501 7.32617 2.02121 8.3026C1.80444 10.3318 3.2739 12.1513 5.30301 12.368Z" fill="#204FC9"/>
<path d="M22.3019 10.6038C25.23 10.6038 27.6037 8.23002 27.6037 5.30188C27.6037 2.37373 25.23 0 22.3019 0C19.3737 0 17 2.37373 17 5.30188C17 8.23002 19.3737 10.6038 22.3019 10.6038Z" fill="#204FC9"/>
</svg>
