<svg viewBox="0 0 55 56" fill="none" xmlns="http://www.w3.org/2000/svg">
<path d="M8.16406 23H1.61133C0.720693 23 0 23.7207 0 24.6113C0 25.502 0.720693 26.2227 1.61133 26.2227H8.16406C9.0547 26.2227 9.77539 25.502 9.77539 24.6113C9.77539 23.7207 9.0547 23 8.16406 23Z" fill="#204FC9"/>
<path d="M50.0566 23H43.6113C42.7207 23 42 23.7207 42 24.6113C42 25.502 42.7207 26.2227 43.6113 26.2227H50.0566C50.9473 26.2227 51.668 25.502 51.668 24.6113C51.668 23.7207 50.9473 23 50.0566 23Z" fill="#204FC9"/>
<path d="M44.3076 6.47204C43.6782 5.84265 42.6585 5.84265 42.0291 6.47204L37.472 11.0291C36.8427 11.6585 36.8427 12.6782 37.472 13.3076C38.1014 13.937 39.1212 13.937 39.7506 13.3076L44.3076 8.75056C44.937 8.12118 44.937 7.10142 44.3076 6.47204Z" fill="#204FC9"/>
<path d="M14.3076 11.0291L9.75056 6.47204C9.12118 5.84265 8.10142 5.84265 7.47204 6.47204C6.84265 7.10142 6.84265 8.12118 7.47204 8.75056L12.0291 13.3076C12.6585 13.937 13.6782 13.937 14.3076 13.3076C14.937 12.6782 14.937 11.6585 14.3076 11.0291Z" fill="#204FC9"/>
<path d="M25.6113 0C24.7207 0 24 0.720693 24 1.61133V8.16406C24 9.0547 24.7207 9.77539 25.6113 9.77539C26.502 9.77539 27.2227 9.0547 27.2227 8.16406V1.61133C27.2227 0.720693 26.502 0 25.6113 0Z" fill="#204FC9"/>
<path d="M26.0391 33.0597C26.0406 33.0618 26.0425 33.0637 26.044 33.0658C25.9856 32.9781 25.9867 32.9801 26.0391 33.0597Z" fill="#204FC9"/>
<path d="M25.6217 32.6945C24.9749 31.7666 23.5626 31.7684 22.9196 32.7006L15.862 43.3354L12.6716 39.0816C12.027 38.2114 10.7379 38.2114 10.0933 39.0816L0.317947 52.0796C-0.0365449 52.5629 -0.100998 53.2074 0.156814 53.7553C0.446853 54.3033 0.994705 54.6577 1.60701 54.6577H40.1607C39.9583 54.3534 26.4414 33.9382 25.6217 32.6945Z" fill="#204FC9"/>
<path d="M25.8906 13C18.7828 13 13 18.7828 13 25.8906C13 29.7012 14.6719 33.162 17.395 35.5515L20.2415 31.2628C21.1793 29.9033 22.6774 29.1211 24.2793 29.1211C24.6099 29.1211 24.9316 29.1744 25.249 29.239L29.9111 22.2353C30.8159 20.9025 32.3186 20.122 33.9473 20.122C35.5759 20.122 37.0786 20.9025 37.9661 22.2116L38.3704 22.8185C36.983 17.1967 31.9345 13 25.8906 13Z" fill="#204FC9"/>
<path d="M54.6976 52.1434L35.2888 23.6767C34.6765 22.7744 33.1942 22.7744 32.5819 23.6767L28 30.5608C28.6653 31.3655 32.6589 37.6252 44.0234 54.6571H53.3762C53.9562 54.6571 54.504 54.3348 54.7941 53.8193C55.0843 53.2715 55.052 52.6591 54.6976 52.1434Z" fill="#204FC9"/>
</svg>
