<svg viewBox="0 0 55 55" fill="none" xmlns="http://www.w3.org/2000/svg">
<path d="M36.8551 29.1663C34.3802 25.3054 30.1651 23 25.5796 23C20.994 23 16.779 25.3054 14.3045 29.1663L8.34088 38.4696C7.35142 40.0129 6.89488 41.7963 7.02035 43.6254C7.14581 45.455 7.84196 47.1586 9.03325 48.5534C10.2254 49.9469 11.8006 50.8995 13.5886 51.3082C15.3766 51.7169 17.2095 51.5423 18.8888 50.8042L19.0012 50.7543C23.2268 48.934 28.0553 48.9508 32.2699 50.8042C33.3572 51.2822 34.509 51.5239 35.6714 51.5239C36.3033 51.5239 36.939 51.4521 37.5689 51.3086C39.3568 50.9003 40.9321 49.9478 42.1246 48.5538C43.3164 47.1603 44.0129 45.4562 44.1388 43.6263C44.2647 41.7963 43.8081 40.0134 42.8187 38.4692L36.8551 29.1663Z" fill="#204FC9"/>
<path d="M9.87153 29.076C11.6457 28.3945 12.9935 26.9649 13.6665 25.0502C14.3073 23.2282 14.2548 21.1712 13.5184 19.2578C12.7816 17.3456 11.4413 15.7846 9.74439 14.8619C7.96185 13.893 6.0035 13.7352 4.2323 14.4179C0.668914 15.788 -0.966332 20.1914 0.587508 24.2361C1.82873 27.4554 4.72367 29.4876 7.6505 29.4876C8.39783 29.4876 9.14727 29.355 9.87153 29.076Z" fill="#204FC9"/>
<path d="M21.078 21.4107C25.5327 21.4107 29.1569 17.2817 29.1569 12.2064C29.1569 7.12987 25.5327 3 21.078 3C16.6238 3 13 7.12987 13 12.2064C13 17.2817 16.6238 21.4107 21.078 21.4107Z" fill="#204FC9"/>
<path d="M35.8664 24.348H35.8668C36.552 24.5755 37.2511 24.6841 37.9473 24.6841C41.1959 24.6841 44.3619 22.3196 45.57 18.6857C46.2657 16.5939 46.22 14.3821 45.4412 12.4582C44.6263 10.444 43.1161 8.98209 41.1884 8.34133C39.2602 7.70058 37.1752 7.96787 35.3167 9.09328C33.5413 10.1683 32.1809 11.9127 31.486 14.0045C30.0194 18.4172 31.9845 23.0573 35.8664 24.348Z" fill="#204FC9"/>
<path d="M51.9388 23.2229L51.9376 23.2216C48.8656 20.9523 44.2712 21.9359 41.6952 25.4154C39.1217 28.8965 39.5241 33.5765 42.5915 35.8475C43.7102 36.6762 45.0319 37.0723 46.3848 37.0723C48.7426 37.0723 51.1957 35.8689 52.8355 33.6558C55.4086 30.1747 55.0066 25.4947 51.9388 23.2229Z" fill="#204FC9"/>
</svg>
