<svg viewBox="0 0 55 55" fill="none" xmlns="http://www.w3.org/2000/svg">
<path d="M32.0331 39.4183L24.6468 29.0753H27.4997C28.0945 29.0753 28.6405 28.7479 28.9207 28.2239C29.2008 27.6999 29.1692 27.0642 28.8404 26.5701L21.9168 16.1845H24.277C24.8876 16.1845 25.4446 15.8399 25.7184 15.2939C25.9906 14.7479 25.9324 14.0949 25.5658 13.607L17.5091 0.609001C16.9018 -0.203 15.539 -0.203 14.9317 0.609001L6.87501 13.607C6.50838 14.0949 6.45016 14.7479 6.72237 15.2939C6.99619 15.8399 7.55317 16.1845 8.16375 16.1845H10.5241L3.60047 26.5701C3.27155 27.0642 3.24018 27.6999 3.52023 28.2239C3.80028 28.7479 4.3463 29.0753 4.9412 29.0753H7.79412L0.300365 39.4183C-0.0506901 39.9092 -0.0978483 40.556 0.179085 41.0925C0.454408 41.6291 1.00677 41.9659 1.61102 41.9659H30.7224C31.3266 41.9659 31.879 41.6291 32.1543 41.0925C32.4312 40.556 32.3841 39.9092 32.0331 39.4183Z" fill="#204FC9"/>
<path d="M53.3887 51.5527H42.002V45H35.5566V51.5527H19.4434V45H12.998V51.5527H1.61133C0.720693 51.5527 0 52.2734 0 53.1641C0 54.0547 0.720693 54.7754 1.61133 54.7754H53.3887C54.2793 54.7754 55 54.0547 55 53.1641C55 52.2734 54.2793 51.5527 53.3887 51.5527Z" fill="#204FC9"/>
<path d="M54.5879 39.4181L47.0942 29.075H49.9471C50.5419 29.0753 51.0879 28.7479 51.3681 28.2239C51.6481 27.6999 51.6166 27.0642 51.2878 26.5701L44.3642 16.1845H46.7244C47.335 16.1845 47.892 15.8399 48.1658 15.2939C48.438 14.7479 48.3798 14.0949 48.0132 13.607L39.9565 0.609001C39.3492 -0.203 37.9864 -0.203 37.379 0.609001L29.3224 13.607C28.9558 14.0949 28.8975 14.7479 29.1698 15.2939C29.4436 15.8399 30.0006 16.1845 30.6111 16.1845H32.9715L29.325 21.6544L31.4106 24.7825C32.4004 26.2695 32.4932 28.1703 31.6513 29.7423C31.2878 30.4237 30.7764 30.9918 30.169 31.4197L34.545 37.5456C35.4756 38.8487 35.6505 40.4866 35.1204 41.9657H53.2772C53.8814 41.9657 54.4338 41.6289 54.7091 41.0923C54.986 40.5558 54.9389 39.909 54.5879 39.4181Z" fill="#204FC9"/>
</svg>
