<svg viewBox="0 0 53 39" fill="none" xmlns="http://www.w3.org/2000/svg">
<path d="M38.9864 21.5951L37.9058 21.9509L29.4371 11.081L31.6142 9.46741L38.9864 21.5951ZM14.2541 0L19.5738 2.81898C20.3108 3.20359 20.6796 4.04128 20.4612 4.8361L19.6798 7.43717L14.2473 4.22143L12.3659 3.10664L14.2541 0ZM8.65027 8.91706L9.13482 8.16992L12.2485 10.4558C13.8331 11.6304 14.6428 13.5653 14.3588 15.5012L14.2409 18.2018L5.78287 13.3887L8.65027 8.91706ZM48.9236 36.1284H35.0513L1.92725 18.0024L3.83982 14.4523L35.2004 32.2672C35.3447 32.3485 35.508 32.3914 35.674 32.3914H52.7092C52.7092 34.4555 51.0141 36.1284 48.9236 36.1284ZM52.7092 30.5227H35.9268L29.4355 26.8331L31.6177 24.6361C31.9785 24.2627 31.9639 23.6714 31.5853 23.3153C31.2145 22.9665 30.6298 22.9726 30.2665 23.3281L27.7414 25.8696L24.145 23.8234L27.7517 20.975C28.1601 20.6525 28.2259 20.064 27.8992 19.6612C27.5725 19.258 26.9771 19.1931 26.5687 19.5156L22.3828 22.8219L19.3012 21.0726L23.9762 17.2262C24.3784 16.896 24.4328 16.3066 24.0984 15.9095C23.7642 15.5127 23.1669 15.4589 22.765 15.7892L17.552 20.0787L16.0893 19.2471L16.2422 15.6602C16.5929 13.0761 15.4958 10.5083 13.3774 8.95194L10.1532 6.58508L11.3712 4.69691L19.7488 9.65908C19.8613 9.72307 19.9864 9.76243 20.1154 9.77555C20.1377 9.77555 20.1578 9.78323 20.1802 9.78515C20.2029 9.78675 20.2175 9.79155 20.2353 9.79155C20.3526 9.79219 20.4686 9.77075 20.5779 9.72883L30.1647 6.07888C30.3404 6.01297 30.5368 6.03537 30.6921 6.13936C30.8483 6.24495 30.9406 6.41997 30.939 6.60652V7.6346L27.5323 10.157C27.1142 10.467 27.0299 11.0526 27.344 11.4653C27.3463 11.4679 27.3482 11.4708 27.3502 11.4733L36.8142 23.6199C37.0589 23.936 37.4805 24.0634 37.8627 23.9364L40.5233 23.0609L49.0276 23.6605C51.0974 23.8119 52.7011 25.51 52.7092 27.5588V30.5227Z" fill="#204FC9"/>
<path d="M5.67809 24.7344H0.946727C0.423612 24.7344 0 25.1529 0 25.669C0 26.1851 0.423612 26.603 0.946727 26.603H5.67809C6.20121 26.603 6.62482 26.1851 6.62482 25.669C6.62482 25.1529 6.20121 24.7344 5.67809 24.7344Z" fill="#204FC9"/>
<path d="M0 31.3764C0 31.8925 0.423613 32.311 0.946727 32.311H13.2496C13.7724 32.311 14.1964 31.8925 14.1964 31.3764C14.1964 30.8606 13.7724 30.4424 13.2496 30.4424H0.946727C0.423613 30.4424 0 30.8606 0 31.3764Z" fill="#204FC9"/>
<path d="M23.6601 36.1504H0.946728C0.423613 36.1504 0 36.5689 0 37.085C0 37.6008 0.423613 38.0191 0.946728 38.0191H23.6601C24.1829 38.0191 24.6065 37.6008 24.6065 37.085C24.6065 36.5689 24.1829 36.1504 23.6601 36.1504Z" fill="#204FC9"/>
</svg>
