<svg viewBox="0 0 55 55" fill="none" xmlns="http://www.w3.org/2000/svg">
<g clip-path="url(#clip0)">
<path d="M9.6133 39.2913H22.5037V16L8.28374 36.7697C7.55273 37.8375 8.31919 39.2913 9.6133 39.2913Z" fill="#204FC9"/>
<path d="M52.5642 42.0634H28.3943V39.1019H44.5073C45.3968 39.1019 46.1186 38.38 46.1186 37.4906C46.1186 32.6105 45.1314 28.129 43.1839 24.1694C40.0644 17.8263 34.4334 12.9688 28.3943 10.4862V1.61233C28.3943 0.472584 27.2396 -0.305151 26.1868 0.115943C26.1815 0.118092 26.1772 0.12024 26.1718 0.121314C25.7389 0.299634 16.5137 4.09259 16.503 4.09689C15.1806 4.64044 15.172 6.51496 16.489 7.0714L25.1718 10.7376V42.0634H2.61385C1.62374 42.0634 0.853416 42.9478 1.02368 43.982C2.75349 55.3286 2.46098 53.4099 2.49461 53.6304C2.61406 54.4179 3.29103 55 4.08767 55H40.1053C45.6521 55 50.6117 51.8733 53.0067 47.1247C53.0148 47.1254 53.0231 47.1255 53.0311 47.1261C53.5081 46.1668 53.8787 45.1506 54.1311 44.0957C54.3852 43.0344 53.6021 42.0634 52.5642 42.0634ZM28.3943 15.3976C32.6976 20.7643 32.704 28.3245 28.3943 33.6987V15.3976Z" fill="#204FC9"/>
</g>
<defs>
<clipPath id="clip0">
<rect width="55" height="55" fill="white"/>
</clipPath>
</defs>
</svg>
