<svg viewBox="0 0 55 55" fill="none" xmlns="http://www.w3.org/2000/svg">
<g clip-path="url(#clip0)">
<path d="M48.4619 14.4058L48.4095 14.4956C46.539 17.7018 41.9067 17.7026 40.0352 14.497L39.9966 14.431C38.131 11.2349 33.4662 11.244 31.6132 14.4474C29.76 17.6513 25.0943 17.6598 23.2292 14.4628L23.196 14.4058C21.326 11.1985 16.6923 11.198 14.8215 14.4048L14.7685 14.4957C12.898 17.7021 8.26525 17.7025 6.39407 14.4965L6.33789 14.4003C5.40708 12.8056 3.77867 12.0084 2.15037 12.0086C1.62218 12.0087 1.09441 12.0936 0.590283 12.2619C0.238154 12.3796 0 12.7088 0 13.0802V20.763C0.597158 20.5902 1.22611 20.499 1.87365 20.499H1.8744C4.26304 20.499 6.4031 21.7265 7.59967 23.7832L7.65649 23.881C8.22605 24.8599 9.24816 25.4444 10.3902 25.4442C11.5325 25.4441 12.5543 24.8594 13.1237 23.88L13.1768 23.7887C14.3728 21.7317 16.5134 20.5034 18.9026 20.5034C21.2919 20.5033 23.4324 21.7316 24.6287 23.7889L24.6623 23.8467C25.2321 24.8265 26.2536 25.4109 27.3959 25.4109H27.4022C28.5469 25.4088 29.5688 24.8203 30.1358 23.8367C31.3269 21.7709 33.4671 20.5347 35.8611 20.53H35.8748C38.2634 20.53 40.4024 21.7569 41.5994 23.8142L41.6376 23.8798C42.2077 24.8598 43.2298 25.4443 44.3718 25.4441C45.5141 25.444 46.5359 24.8593 47.1054 23.8799L47.1584 23.7886C48.3179 21.7944 50.4367 20.6036 52.8256 20.6036C53.5756 20.6036 54.3084 20.7234 55.0001 20.9473V13.2422C55.0001 12.8873 54.7844 12.5634 54.4518 12.4396C52.3148 11.6453 49.7129 12.2613 48.4619 14.4058V14.4058Z" fill="#204FC9"/>
<path d="M50.1504 25.5686L50.0974 25.6599C48.9013 27.7167 46.7612 28.9449 44.3722 28.9452H44.3715C41.9828 28.9454 39.8428 27.7176 38.6463 25.6611L38.608 25.5953C38.0378 24.6152 37.0164 24.031 35.8744 24.031H35.8678C34.7232 24.0333 33.7014 24.6218 33.1344 25.6052C31.9433 27.6712 29.8029 28.9073 27.4086 28.9119C27.4043 28.9119 27.3998 28.9119 27.3955 28.9119C25.0062 28.912 22.8668 27.6844 21.6701 25.6263L21.6365 25.5686C21.0669 24.5892 20.0448 24.0044 18.9025 24.0044C17.7602 24.0044 16.7383 24.5891 16.1687 25.5686L16.1156 25.6599C14.9197 27.7167 12.7794 28.9449 10.3905 28.9452H10.3898C8.00121 28.9454 5.86115 27.7176 4.66469 25.6611L4.60775 25.5633C4.0382 24.5843 3.01608 23.9998 1.87408 24C1.17981 24 0.530771 24.2172 0 24.6066V32.2787C0.597051 32.1059 1.22601 32.0147 1.87354 32.0146H1.8744C4.26293 32.0146 6.4032 33.2422 7.59956 35.2987L7.65649 35.3966C8.22605 36.3755 9.24816 36.96 10.3903 36.9599C11.5325 36.9597 12.5543 36.375 13.1237 35.3957L13.1768 35.3044C14.3728 33.2474 16.5134 32.0191 18.9026 32.0191C21.2919 32.0191 23.4324 33.2473 24.6287 35.3046L24.6623 35.3624C25.2321 36.3422 26.2536 36.9266 27.3959 36.9266H27.4022C28.5469 36.9244 29.5688 36.336 30.1358 35.3524C31.3269 33.2866 33.4671 32.0505 35.8611 32.0458H35.8748C38.2632 32.0458 40.4024 33.2726 41.5994 35.3299L41.6376 35.3955C42.2077 36.3755 43.2298 36.96 44.3719 36.9599C45.5141 36.9597 46.5359 36.375 47.1054 35.3957L47.1584 35.3044C48.3179 33.3101 50.4365 32.1195 52.8256 32.1195C53.5756 32.1195 54.3084 32.2393 55.0001 32.4632V24.8396C54.398 24.373 53.6335 24.1047 52.8256 24.1047C52.2771 24.1047 50.9187 24.2474 50.1504 25.5686V25.5686Z" fill="#204FC9"/>
<path d="M50.1504 36.5686L50.0974 36.6598C48.9014 38.7166 46.7612 39.9448 44.3723 39.9452H44.3715C41.9829 39.9452 39.8427 38.7174 38.6463 36.6611L38.608 36.5953C38.0378 35.6152 37.0164 35.031 35.8744 35.031H35.8678C34.7232 35.0333 33.7014 35.6218 33.1344 36.6052C31.9433 38.6712 29.8029 39.9074 27.4086 39.9118C27.4043 39.9119 27.3998 39.9119 27.3955 39.9119C25.0062 39.9119 22.8668 38.6844 21.6701 36.6263L21.6365 36.5686C21.0669 35.5892 20.0448 35.0044 18.9025 35.0044C17.7602 35.0044 16.7383 35.5891 16.1687 36.5686L16.1156 36.6598C14.9197 38.7166 12.7794 39.9448 10.3906 39.9452H10.3898C8.00132 39.9452 5.86104 38.7174 4.66469 36.6611L4.60775 36.5633C4.0382 35.5843 3.01608 34.9999 1.87397 35C1.17971 35.0001 0.530664 35.2172 0 35.6066V41.2161C0 42.414 0.971094 43.3851 2.16906 43.3851H52.8308C54.0288 43.3851 54.9999 42.414 54.9999 41.2161V35.8397C54.3978 35.3731 53.6333 35.1048 52.8253 35.1048C52.2771 35.1047 50.9187 35.2474 50.1504 36.5686V36.5686Z" fill="#204FC9"/>
</g>
<defs>
<clipPath id="clip0">
<rect width="55" height="55" fill="white"/>
</clipPath>
</defs>
</svg>
