<svg viewBox="0 0 53 53" fill="none" xmlns="http://www.w3.org/2000/svg">
<path d="M35.0991 0H17.1941C14.1501 0 11.5637 2.48201 11.5637 5.52517V47.4811C11.5637 50.5243 14.0954 53 17.1394 53L35.0738 52.9806C38.1174 52.9806 40.6074 50.5045 40.6074 47.4609L40.6335 5.52223C40.6331 2.46812 38.1553 0 35.0991 0ZM23.56 3.31258H28.7547C29.211 3.31258 29.5827 3.68303 29.5827 4.14062C29.5827 4.59821 29.211 4.96866 28.7547 4.96866H23.56C23.1024 4.96866 22.7319 4.59821 22.7319 4.14062C22.7319 3.68303 23.1024 3.31258 23.56 3.31258ZM20.4385 3.5761C20.7454 3.26964 21.304 3.26543 21.6105 3.5761C21.7641 3.72933 21.8551 3.94445 21.8551 4.16419C21.8551 4.37973 21.7641 4.59442 21.6105 4.74807C21.4577 4.90172 21.2417 4.99223 21.0266 4.99223C20.8073 4.99223 20.5964 4.90172 20.4385 4.74807C20.2857 4.59484 20.1986 4.37973 20.1986 4.16419C20.1981 3.94445 20.2857 3.72933 20.4385 3.5761ZM25.9902 51.3587C24.6238 51.3587 23.5124 50.2465 23.5124 48.8804C23.5124 47.514 24.6238 46.4022 25.9902 46.4022C27.3567 46.4022 28.468 47.514 28.468 48.8804C28.468 50.2465 27.3562 51.3587 25.9902 51.3587ZM38.0631 44.7179H14.4621V7.86743H38.0631V44.7179Z" fill="#204FC9"/>
</svg>
