<svg viewBox="0 0 53 53" fill="none" xmlns="http://www.w3.org/2000/svg">
<g clip-path="url(#clip0)">
<path d="M0 25.0544H6.31445V28.1599H0V25.0544Z" fill="#204FC9"/>
<path d="M46.2546 25.0544H52.5691V28.1599H46.2546V25.0544Z" fill="#204FC9"/>
<path d="M39.509 11.1367L43.9004 6.74536L46.096 8.94103L41.7047 13.3324L39.509 11.1367Z" fill="#204FC9"/>
<path d="M11.1367 13.3324L6.74536 8.94102L8.94102 6.74536L13.3324 11.1367L11.1367 13.3324Z" fill="#204FC9"/>
<path d="M25.0544 0H28.1599V6.31445H25.0544V0Z" fill="#204FC9"/>
<path d="M12.7419 47.2183C11.0267 47.2183 9.63647 48.6084 9.63647 50.3237V53.4292H43.7966V50.3237C43.7966 48.6084 42.4064 47.2183 40.6912 47.2183H12.7419Z" fill="#204FC9"/>
<path d="M12.5273 26.5005V43.6841H40.4766V26.5005C40.4766 18.7946 34.2078 12.5259 26.502 12.5259C18.7961 12.5259 12.5273 18.7946 12.5273 26.5005ZM24.9492 21.8423H28.0547V31.1587H24.9492V21.8423ZM24.9492 34.2642H28.0547V37.3696H24.9492V34.2642Z" fill="#204FC9"/>
<rect x="22.1636" y="19.2727" width="9.63637" height="20.2364" fill="#204FC9"/>
<path d="M29.5963 29.7526C30.3563 30.1126 30.9363 30.6426 31.3363 31.3426C31.7363 32.0426 31.9363 32.8826 31.9363 33.8626V35.8126C31.9363 37.4126 31.4763 38.6726 30.5563 39.5926C29.6363 40.5126 28.3363 40.9726 26.6563 40.9726C24.9763 40.9726 23.6763 40.5126 22.7563 39.5926C21.8363 38.6726 21.3763 37.4126 21.3763 35.8126V33.8626C21.3763 32.8826 21.5763 32.0426 21.9763 31.3426C22.3763 30.6426 22.9563 30.1126 23.7163 29.7526C23.0363 29.3726 22.5063 28.8426 22.1263 28.1626C21.7663 27.4626 21.5863 26.6426 21.5863 25.7026V24.3226C21.5863 22.7826 22.0263 21.5726 22.9063 20.6926C23.8063 19.8126 25.0563 19.3726 26.6563 19.3726C28.2563 19.3726 29.4963 19.8126 30.3763 20.6926C31.2763 21.5726 31.7263 22.7826 31.7263 24.3226V25.7026C31.7263 26.6426 31.5363 27.4626 31.1563 28.1626C30.7963 28.8426 30.2763 29.3726 29.5963 29.7526ZM24.7663 25.8826C24.7663 27.4826 25.3963 28.2826 26.6563 28.2826C27.9163 28.2826 28.5463 27.4826 28.5463 25.8826V24.2626C28.5463 23.6426 28.3863 23.1726 28.0663 22.8526C27.7463 22.5326 27.2763 22.3726 26.6563 22.3726C26.0363 22.3726 25.5663 22.5326 25.2463 22.8526C24.9263 23.1726 24.7663 23.6426 24.7663 24.2626V25.8826ZM28.7563 33.6826C28.7563 32.8626 28.5763 32.2626 28.2163 31.8826C27.8763 31.4826 27.3563 31.2826 26.6563 31.2826C25.9563 31.2826 25.4263 31.4826 25.0663 31.8826C24.7263 32.2626 24.5563 32.8626 24.5563 33.6826V35.8726C24.5563 37.2726 25.2563 37.9726 26.6563 37.9726C28.0563 37.9726 28.7563 37.2726 28.7563 35.8726V33.6826Z" fill="white"/>
</g>
<defs>
<clipPath id="clip0">
<rect width="53" height="53" fill="white"/>
</clipPath>
</defs>
</svg>
