<svg viewBox="0 0 53 47" fill="none" xmlns="http://www.w3.org/2000/svg">
<path d="M5.78174 2.875H15.1344V5.9416H5.78174V2.875Z" fill="#204FC9"/>
<path d="M37.5808 2.875H46.9335V5.9416H37.5808V2.875Z" fill="#204FC9"/>
<path d="M26.9812 21.083L33.0169 19.5497L33.7963 22.5182L27.7606 24.0516L26.9812 21.083Z" fill="#204FC9"/>
<path d="M6.08101 9.58301C2.72787 9.58301 0 12.2663 0 15.5646V40.4006C0 43.6989 2.72787 46.3821 6.08101 46.3821H9.35269V9.58301H6.08101Z" fill="#204FC9"/>
<path d="M40.5849 9.19978H34.561L33.0996 2.73193C32.7366 1.1234 31.3128 0 29.6377 0H23.4741C21.799 0 20.3753 1.1234 20.0121 2.73182L18.5508 9.19978H12.5269V45.9989H40.5849V9.19978ZM34.9482 15.4469L37.2883 24.3541L25.2145 27.423L22.8746 18.5159L34.9482 15.4469ZM23.0553 3.39687C23.0992 3.20244 23.2714 3.06659 23.474 3.06659H29.6376C29.8401 3.06659 30.0123 3.20244 30.0563 3.39697L31.3674 9.19978H21.7443L23.0553 3.39687ZM20.8404 39.8657C17.9753 39.8657 15.6444 37.5729 15.6444 34.7547C15.6444 31.9365 17.9753 29.6437 20.8404 29.6437C23.7054 29.6437 26.0363 31.9365 26.0363 34.7547C26.0363 37.5729 23.7054 39.8657 20.8404 39.8657Z" fill="#204FC9"/>
<path d="M20.387 36.6718C21.5348 36.6718 22.4653 35.7565 22.4653 34.6274C22.4653 33.4983 21.5348 32.583 20.387 32.583C19.2391 32.583 18.3086 33.4983 18.3086 34.6274C18.3086 35.7565 19.2391 36.6718 20.387 36.6718Z" fill="#204FC9"/>
<path d="M46.6342 9.58301H43.3625V46.3821H46.6342C49.9874 46.3821 52.7152 43.6989 52.7152 40.4005V15.5646C52.7152 12.2663 49.9874 9.58301 46.6342 9.58301Z" fill="#204FC9"/>
</svg>
