<svg viewBox="0 0 80 80" fill="none" xmlns="http://www.w3.org/2000/svg">
<g clip-path="url(#clip0_43671_17425)">
<path d="M70.6881 62.6884C75.9742 57.4023 73.0861 45.9438 64.2374 37.0952C55.3888 28.2465 43.9303 25.3584 38.6442 30.6445C33.3581 35.9306 36.2461 47.3891 45.0948 56.2378C53.9435 65.0864 65.402 67.9745 70.6881 62.6884Z" stroke="white" stroke-width="2" stroke-miterlimit="10"/>
<path d="M38.6441 30.6438L31.9774 37.3105C26.6921 42.5971 29.5801 54.0558 38.4281 62.9051C47.2761 71.7545 58.7361 74.6425 64.0227 69.3558L70.6894 62.6891" stroke="white" stroke-width="2" stroke-miterlimit="10"/>
<path d="M6.66675 53.3333V61.3333C6.66675 66.4879 15.0241 70.6666 25.3334 70.6666C29.7801 70.6666 33.8627 69.8893 37.0694 68.5919" stroke="white" stroke-width="2" stroke-miterlimit="10"/>
<path d="M41.8961 33.8958L45.7575 37.7571" stroke="white" stroke-width="2" stroke-miterlimit="10"/>
<path d="M63.576 55.5759L67.4587 59.4586" stroke="white" stroke-width="2" stroke-miterlimit="10"/>
<path d="M31.7867 62.0931C29.7747 62.4638 27.6014 62.6664 25.3334 62.6664C15.0241 62.6664 6.66675 58.4878 6.66675 53.3331C6.66675 48.1784 15.0241 43.9998 25.3334 43.9998" stroke="white" stroke-width="2" stroke-miterlimit="10"/>
<path d="M54.8667 55.34C55.9653 56.564 57.5587 57.3333 59.3333 57.3333C62.6467 57.3333 65.3333 54.6467 65.3333 51.3333C65.3333 48.02 62.6467 45.3333 59.3333 45.3333C58.5973 45.3333 57.892 45.4653 57.24 45.708L52.0933 47.624C51.4413 47.868 50.736 48 50 48C46.6867 48 44 45.3133 44 42C44 38.6867 46.6867 36 50 36C51.7747 36 53.368 36.7693 54.4667 37.9933" stroke="white" stroke-width="2.0125" stroke-miterlimit="10"/>
<path d="M22.1347 11.7133L20.7841 8.27466" stroke="white" stroke-width="2" stroke-miterlimit="10"/>
<path d="M25.8107 21.0639L23.448 15.0532" stroke="white" stroke-width="2" stroke-miterlimit="10"/>
<path d="M14.1254 28.792L4.54138 19.208" stroke="white" stroke-width="2" stroke-miterlimit="10"/>
<path d="M40 18.6666V5.33325" stroke="white" stroke-width="2" stroke-miterlimit="10"/>
<path d="M57.8654 11.7133L59.216 8.27466" stroke="white" stroke-width="2" stroke-miterlimit="10"/>
<path d="M54.1893 21.0639L56.552 15.0532" stroke="white" stroke-width="2" stroke-miterlimit="10"/>
<path d="M65.8748 28.792L75.4588 19.208" stroke="white" stroke-width="2" stroke-miterlimit="10"/>
</g>
<defs>
<clipPath id="clip0_43671_17425">
<rect width="80" height="80" fill="white"/>
</clipPath>
</defs>
</svg>
