<svg viewBox="0 0 80 80" fill="none" xmlns="http://www.w3.org/2000/svg">
<path d="M15.1623 39.2178C14.0113 40.7517 13.0879 42.4022 12.4277 44.1406" stroke="white" stroke-width="2" stroke-miterlimit="10" stroke-linecap="round" stroke-linejoin="round"/>
<path d="M33.2828 28.7191C30.6617 29.208 28.18 29.9768 25.8928 30.9824" stroke="white" stroke-width="2" stroke-miterlimit="10" stroke-linecap="round" stroke-linejoin="round"/>
<path d="M54.5104 31.1628C52.2901 30.1494 49.8798 29.3614 47.3311 28.8391" stroke="white" stroke-width="2" stroke-miterlimit="10" stroke-linecap="round" stroke-linejoin="round"/>
<path d="M67.5723 44.1406C66.9503 42.5028 66.0945 40.9431 65.0352 39.4852" stroke="white" stroke-width="2" stroke-miterlimit="10" stroke-linecap="round" stroke-linejoin="round"/>
<path d="M35.7534 44.1637H67.5117C73.7615 44.1637 78.8283 49.2305 78.8283 55.4803C78.8283 61.7303 73.7615 66.7969 67.5117 66.7969H56.9904" stroke="white" stroke-width="2" stroke-miterlimit="10" stroke-linecap="round" stroke-linejoin="round"/>
<path d="M52.303 66.7969H12.4884C6.23844 66.7969 1.17188 61.7303 1.17188 55.4803C1.17188 49.2305 6.23844 44.1637 12.4884 44.1637H31.0659" stroke="white" stroke-width="2" stroke-miterlimit="10" stroke-linecap="round" stroke-linejoin="round"/>
<path d="M18.3511 53.0114C18.3511 54.1839 17.4006 55.1343 16.2281 55.1343C15.6465 55.1343 13.5481 55.1436 13.5481 55.1436V53.0114V50.8884H16.2281C17.4006 50.8884 18.3511 51.8389 18.3511 53.0114Z" stroke="white" stroke-width="2" stroke-miterlimit="10" stroke-linecap="round" stroke-linejoin="round"/>
<path d="M19.1794 57.6201C19.1794 58.9915 18.0675 60.1036 16.696 60.1036C16.0158 60.1036 13.5479 60.1145 13.5479 60.1145V57.6201V55.1365H16.696C18.0675 55.1365 19.1794 56.2486 19.1794 57.6201Z" stroke="white" stroke-width="2" stroke-miterlimit="10" stroke-linecap="round" stroke-linejoin="round"/>
<path d="M66.147 51.7947C66.147 51.7947 64.4914 50.403 62.5392 50.9911C60.7465 51.5311 60.4959 53.5981 61.7926 54.4436C61.7926 54.4436 63.0653 55.0114 64.4769 55.532C67.8745 56.7852 66.4109 60.0725 63.6756 60.0725C62.3059 60.0725 61.1564 59.4727 60.4604 58.7049" stroke="white" stroke-width="2" stroke-miterlimit="10" stroke-linecap="round" stroke-linejoin="round"/>
<path d="M49.4678 50.8882V57.2368C49.4678 58.3181 50.004 59.0459 50.9151 59.6281C51.3589 59.9115 51.9192 60.1134 52.6157 60.1145C53.2189 60.1153 53.7231 59.9756 54.1398 59.7656C55.2017 59.2311 55.8787 58.419 55.8787 57.2303V50.8882" stroke="white" stroke-width="2" stroke-miterlimit="10" stroke-linecap="round" stroke-linejoin="round"/>
<path d="M33.0488 55.5014C33.0488 58.0492 30.9834 60.1145 28.4356 60.1145C25.8878 60.1145 23.8225 58.0492 23.8225 55.5014C23.8225 52.9536 25.8878 50.8884 28.4356 50.8884C30.9834 50.8884 33.0488 52.9536 33.0488 55.5014Z" stroke="white" stroke-width="2" stroke-miterlimit="10" stroke-linecap="round" stroke-linejoin="round"/>
<path d="M37.9595 60.1145V50.9054L44.1856 59.9214C44.301 60.0881 44.4246 60.0064 44.4246 59.8036L44.3385 50.8883" stroke="white" stroke-width="2" stroke-miterlimit="10" stroke-linecap="round" stroke-linejoin="round"/>
<path d="M41.4106 13.8517L43.8911 18.6254C44.0792 18.9873 44.4265 19.2396 44.8289 19.3068L50.1355 20.1906C51.1715 20.3632 51.5836 21.6312 50.8469 22.3798L47.0733 26.2142C46.7872 26.5048 46.6545 26.9132 46.715 27.3167L47.5142 32.6367C47.6703 33.6752 46.5915 34.459 45.652 33.9896L40.8392 31.5856C40.4744 31.4032 40.045 31.4032 39.68 31.5856L34.8673 33.9896C33.9278 34.459 32.8492 33.6752 33.0051 32.6367L33.8044 27.3167C33.865 26.9132 33.7322 26.5048 33.4461 26.2142L29.6725 22.3798C28.9358 21.6312 29.3478 20.3632 30.3837 20.1906L35.6905 19.3068C36.0928 19.2396 36.4401 18.9873 36.6283 18.6254L39.1087 13.8517C39.5931 12.9196 40.9262 12.9196 41.4106 13.8517Z" stroke="white" stroke-width="2" stroke-miterlimit="10" stroke-linecap="round" stroke-linejoin="round"/>
<path d="M61.7922 27.0388L63.3149 29.9691C63.4302 30.1913 63.6435 30.3462 63.8905 30.3874L67.1478 30.9299C67.7838 31.0359 68.0367 31.8141 67.5845 32.2737L65.2681 34.6273C65.0925 34.8059 65.0111 35.0565 65.0481 35.304L65.5388 38.5698C65.6345 39.2073 64.9725 39.6882 64.3958 39.4001L61.4414 37.9245C61.2175 37.8126 60.9539 37.8126 60.73 37.9245L57.7756 39.4001C57.1991 39.6882 56.5369 39.2073 56.6327 38.5698L57.1233 35.304C57.1603 35.0565 57.0789 34.8059 56.9033 34.6273L54.5869 32.2737C54.1347 31.8141 54.3877 31.0359 55.0236 30.9299L58.281 30.3874C58.528 30.3462 58.7413 30.1913 58.8566 29.9691L60.3792 27.0388C60.6764 26.4668 61.495 26.4668 61.7922 27.0388Z" stroke="white" stroke-width="2" stroke-miterlimit="10" stroke-linecap="round" stroke-linejoin="round"/>
<path d="M18.4583 27.0388L16.9357 29.9691C16.8202 30.1913 16.6069 30.3462 16.3601 30.3874L13.1027 30.9299C12.4668 31.0359 12.2138 31.8141 12.666 32.2737L14.9824 34.6273C15.158 34.8059 15.2394 35.0565 15.2022 35.304L14.7116 38.5698C14.616 39.2073 15.278 39.6882 15.8547 39.4001L18.809 37.9245C19.033 37.8126 19.2966 37.8126 19.5205 37.9245L22.4747 39.4001C23.0515 39.6882 23.7136 39.2073 23.6179 38.5698L23.1272 35.304C23.0901 35.0565 23.1716 34.8059 23.3472 34.6273L25.6635 32.2737C26.1157 31.8141 25.8629 31.0359 25.2269 30.9299L21.9696 30.3874C21.7226 30.3462 21.5093 30.1913 21.3938 29.9691L19.8712 27.0388C19.574 26.4668 18.7555 26.4668 18.4583 27.0388Z" stroke="white" stroke-width="2" stroke-miterlimit="10" stroke-linecap="round" stroke-linejoin="round"/>
</svg>
