<svg viewBox="0 0 81 80" fill="none" xmlns="http://www.w3.org/2000/svg">
<path d="M42.9029 13.5323C40.9463 10.3151 38.1071 7.69249 34.7222 6" stroke="white" stroke-width="2" stroke-miterlimit="10"/>
<path d="M20.7703 27.682C20.7703 29.7563 23.0123 31.4375 25.7776 31.4375C28.5429 31.4375 30.785 29.7563 30.785 27.682C30.785 25.6077 28.5429 23.9265 25.7776 23.9265C23.0123 23.9265 20.7703 22.2452 20.7703 20.1709C20.7703 18.0966 23.0123 16.4154 25.7776 16.4154C28.5429 16.4154 30.785 18.0966 30.785 20.1709" stroke="white" stroke-width="2" stroke-miterlimit="10"/>
<path d="M25.7776 16.4153V12.6598" stroke="white" stroke-width="2" stroke-miterlimit="10"/>
<path d="M25.7776 35.193V31.4375" stroke="white" stroke-width="2" stroke-miterlimit="10"/>
<path d="M73.3475 42.704H65.8364C64.4532 42.704 63.3328 43.8244 63.3328 45.2077V71.4963C63.3328 72.8796 64.4532 74 65.8364 74H73.3475" stroke="white" stroke-width="2" stroke-miterlimit="10"/>
<path d="M63.3328 47.7114H59.8815C58.8851 47.7114 57.9299 47.3158 57.2264 46.611L42.3557 31.7416C41.3593 30.7452 40.0085 30.1856 38.6002 30.1856C35.6672 30.1856 33.2887 32.5641 33.2887 35.4971C33.2887 36.9055 33.8482 38.2562 34.8447 39.2527L41.015 45.423C41.6785 46.0865 42.0515 46.9878 42.0515 47.9267C42.0515 49.8821 40.4667 51.4669 38.5113 51.4669H32.9394C31.5311 51.4669 30.1528 51.0713 28.9585 50.3252L22.7469 46.4432C21.4725 45.6471 20.5274 44.4178 20.083 42.9819L15.5388 28.2577C14.973 26.4263 13.2817 25.1782 11.3664 25.1782C8.95538 25.1782 7 27.1336 7 29.5446C7 29.8927 7.04006 30.2394 7.11892 30.5787L11.4503 49.0884C11.8158 50.6519 12.5532 52.1053 13.5985 53.3246L24.0325 65.4975C25.9341 67.7145 28.7119 68.9927 31.635 68.9927H63.3328" stroke="white" stroke-width="2" stroke-miterlimit="10"/>
<path d="M39.409 30.2468C40.3016 28.3252 40.7998 26.1846 40.7998 23.9263C40.7998 15.6303 34.0737 8.90417 25.7777 8.90417C17.4818 8.90417 10.7556 15.6303 10.7556 23.9263C10.7556 24.3607 10.7744 24.79 10.8094 25.2144" stroke="white" stroke-width="2" stroke-miterlimit="10"/>
<path d="M18.2078 36.9041C20.4298 38.2035 23.0173 38.9484 25.7776 38.9484C28.5855 38.9484 31.2131 38.1785 33.4614 36.8378" stroke="white" stroke-width="2" stroke-miterlimit="10"/>
</svg>
