<svg viewBox="0 0 81 80" fill="none" xmlns="http://www.w3.org/2000/svg">
<path d="M13.8333 21.3333C10.888 21.3333 8.5 18.8453 8.5 15.7773V13.5547C8.5 10.4867 10.888 8 13.8333 8C16.7787 8 19.1667 10.4867 19.1667 13.556V15.7787C19.1667 18.8453 16.7787 21.3333 13.8333 21.3333Z" stroke="white" stroke-width="2" stroke-miterlimit="10"/>
<path d="M4.5 40V32C4.5 29.0546 6.888 26.6666 9.83333 26.6666H17.8333C20.7787 26.6666 23.1667 29.0546 23.1667 32V40" stroke="white" stroke-width="2" stroke-miterlimit="10"/>
<path d="M55.1666 50.6666V41.3333C55.1666 37.652 58.152 34.6666 61.8333 34.6666H69.8333C73.5146 34.6666 76.5 37.652 76.5 41.3333V50.6666" stroke="white" stroke-width="2" stroke-miterlimit="10"/>
<path d="M36.5 56C33.5546 56 31.1666 53.512 31.1666 50.444V48.2213C31.1666 45.1546 33.5546 42.6666 36.5 42.6666C39.4453 42.6666 41.8333 45.1546 41.8333 48.2226V50.4453C41.8333 53.512 39.4453 56 36.5 56Z" stroke="white" stroke-width="2" stroke-miterlimit="10"/>
<path d="M27.1666 74.6667V66.6667C27.1666 63.7214 29.5546 61.3334 32.5 61.3334H40.5C43.4453 61.3334 45.8333 63.7214 45.8333 66.6667V74.6667" stroke="white" stroke-width="2" stroke-miterlimit="10"/>
<path d="M65.8333 29.3334C62.1106 29.3334 59.1666 26.348 59.1666 22.6667V20C59.1666 16.3187 62.1386 13.3334 65.8333 13.3334C69.5146 13.3334 72.5 16.3187 72.5 20V22.6667C72.5 26.348 69.5146 29.3334 65.8333 29.3334Z" stroke="white" stroke-width="2" stroke-miterlimit="10"/>
<path d="M29 9.5C30.8893 9.91867 37 11 39.1667 12C43.1293 13.5187 47.0613 15.3294 53.3747 20.924" stroke="white" stroke-width="2" stroke-miterlimit="10"/>
<path d="M42.8667 32.8626C46.1587 29.2626 50.6227 26.6666 53.8334 26.6666" stroke="white" stroke-width="2" stroke-miterlimit="10"/>
</svg>
