<svg viewBox="0 0 81 80" fill="none" xmlns="http://www.w3.org/2000/svg">
<path d="M54.5999 30.792C54.5999 30.792 46.9546 15.0907 44.3652 10.4534C43.4666 8.84271 42.3559 8.33337 40.8332 8.33337C40.2386 8.33337 39.4226 8.59071 38.9146 8.82271L36.7092 9.84004" stroke="white" stroke-width="2" stroke-miterlimit="10"/>
<path d="M23.1948 55.504L30.4602 51.844" stroke="white" stroke-width="2" stroke-miterlimit="10"/>
<path d="M20.5133 50.1694L30.4866 45.1934" stroke="white" stroke-width="2" stroke-miterlimit="10"/>
<path d="M11 31.976L32.9733 21" stroke="white" stroke-width="2" stroke-miterlimit="10"/>
<path d="M14 37.976L43.9733 23" stroke="white" stroke-width="2" stroke-miterlimit="10"/>
<path d="M38.4999 9L5.48796 23.7147C3.98929 24.4734 3.16663 25.7267 3.16663 27.3334C3.16663 28.0067 3.50263 28.96 3.86663 29.648C3.86663 29.648 19.5306 61.5547 25.064 71.352C25.9826 72.9787 26.9773 73.3334 28.5 73.3334C29.0946 73.3334 29.9853 73.0533 30.4933 72.82L64.8466 56.952C66.36 56.072 67.1666 54.94 67.1666 53.3334" stroke="white" stroke-width="2" stroke-miterlimit="10"/>
<path d="M40.5252 49.4467L35.1665 56V61.3333L40.4998 60L46.1332 53.12" stroke="white" stroke-width="2" stroke-miterlimit="10"/>
<path d="M51.8998 45.128L66.4879 26.6814C66.9252 26.0574 67.1665 25.424 67.1665 24.6667C67.1665 22.8254 65.6745 21.3334 63.8332 21.3334C62.7492 21.3334 61.7865 21.8507 61.1772 22.652L42.0132 47.1867" stroke="white" stroke-width="2" stroke-miterlimit="10"/>
<path d="M60.6279 34.092C65.4586 35.6667 70.1146 40.316 77.4066 46.056" stroke="white" stroke-width="2" stroke-miterlimit="10"/>
<path d="M37.7213 52.8746C35.2093 52.8746 33.8333 50.86 33.8333 49.3333C33.8333 48.8973 33.9373 48.4866 34.1226 48.1226C35.5759 45.3653 41.6599 38.7186 44.7066 36.1866C46.8573 34.4 49.2613 33.3666 53.0573 33.048" stroke="white" stroke-width="2" stroke-miterlimit="10"/>
<path d="M73.4093 55.4347C73.4093 55.4347 71.416 53.3334 68.8987 53.3334C66.4893 53.3334 61.5747 53.3334 57.8333 53.3334C55.1667 53.3334 44.836 53.2547 43.1667 52.8747C41.5507 52.592 40.5 51.3454 40.5 49.8414C40.5 48.3454 41.4867 47.2374 42.844 46.816C46.296 45.892 60.3987 43.796 60.3987 43.796" stroke="white" stroke-width="2" stroke-miterlimit="10"/>
<path d="M61.8333 8V14.6667" stroke="white" stroke-width="2" stroke-miterlimit="10"/>
<path d="M74.5306 11.3026L69.084 16.7506" stroke="white" stroke-width="2" stroke-miterlimit="10"/>
<path d="M72.5 24H79.1667" stroke="white" stroke-width="2" stroke-miterlimit="10"/>
</svg>
