<svg viewBox="0 0 60 60" fill="none" xmlns="http://www.w3.org/2000/svg">
<path d="M38.8104 44.7973L36.9443 52.8452" stroke="black" stroke-width="1.64062" stroke-miterlimit="10" stroke-linecap="round" stroke-linejoin="round"/>
<path d="M37.2871 41.7928L27.9814 37.8039" stroke="black" stroke-width="1.64062" stroke-miterlimit="10" stroke-linecap="round" stroke-linejoin="round"/>
<path d="M41.445 57.1796L38.458 55.8671" stroke="black" stroke-width="1.64062" stroke-miterlimit="10" stroke-linecap="square" stroke-linejoin="round"/>
<path d="M25.1016 38.959L21.665 47.021" stroke="black" stroke-width="1.64062" stroke-miterlimit="10" stroke-linecap="round" stroke-linejoin="round"/>
<path d="M6.96649 49.2303L5.88379 51.3073" stroke="black" stroke-width="1.64062" stroke-miterlimit="10" stroke-linecap="square" stroke-linejoin="round"/>
<path d="M18.6283 48.7425L10.1572 47.5809" stroke="black" stroke-width="1.64062" stroke-miterlimit="10" stroke-linecap="round" stroke-linejoin="round"/>
<path d="M19.2354 5.70895C20.9252 3.92942 23.3139 2.82036 25.9619 2.82036C31.0872 2.82036 35.2424 6.97551 35.2424 12.0997C35.2424 16.4736 32.216 20.141 28.1427 21.1221" stroke="black" stroke-width="2" stroke-miterlimit="10" stroke-linecap="round" stroke-linejoin="round"/>
<path d="M17.4351 8.43555C16.9506 9.55992 16.6826 10.798 16.6826 12.0996C16.6826 16.4735 19.7079 20.1409 23.7811 21.1219" stroke="black" stroke-width="2" stroke-miterlimit="10" stroke-linecap="round" stroke-linejoin="round"/>
<path d="M25.9619 23.5753V26.1904V34.7435" stroke="black" stroke-width="2" stroke-miterlimit="10" stroke-linecap="round" stroke-linejoin="round"/>
<path d="M28.1582 21.3799C28.1582 20.1671 27.1752 19.184 25.9624 19.184C24.7497 19.184 23.7666 20.1671 23.7666 21.3799C23.7666 22.5926 24.7497 23.5757 25.9624 23.5757C27.1752 23.5757 28.1582 22.5926 28.1582 21.3799Z" stroke="black" stroke-width="2" stroke-miterlimit="10" stroke-linecap="round" stroke-linejoin="round"/>
<path d="M28.1582 36.9391C28.1582 35.7264 27.1752 34.7432 25.9624 34.7432C24.7497 34.7432 23.7666 35.7264 23.7666 36.9391C23.7666 38.1519 24.7497 39.1349 25.9624 39.1349C27.1752 39.1349 28.1582 38.1519 28.1582 36.9391Z" stroke="black" stroke-width="2" stroke-miterlimit="10" stroke-linecap="round" stroke-linejoin="round"/>
<path d="M43.9102 16.3831L43.9734 16.4463C44.7943 17.2673 44.8093 18.5936 44.0071 19.4329L38.0859 25.6277" stroke="black" stroke-width="2" stroke-miterlimit="10" stroke-linecap="square" stroke-linejoin="round"/>
<path d="M8.83691 39.4194H9.29213C10.2221 39.4194 11.0302 38.7803 11.2445 37.8752L12.8018 31.2961" stroke="black" stroke-width="2" stroke-miterlimit="10" stroke-linecap="square" stroke-linejoin="round"/>
<path d="M15.503 29.1595C15.503 27.9467 14.5199 26.9636 13.3071 26.9636C12.0944 26.9636 11.1113 27.9467 11.1113 29.1595C11.1113 30.3722 12.0944 31.3553 13.3071 31.3553C14.5199 31.3553 15.503 30.3722 15.503 29.1595Z" stroke="black" stroke-width="2" stroke-miterlimit="10" stroke-linecap="round" stroke-linejoin="round"/>
<path d="M38.6436 27.0115C38.6436 25.7987 37.6605 24.8157 36.4478 24.8157C35.235 24.8157 34.252 25.7987 34.252 27.0115C34.252 28.2242 35.235 29.2074 36.4478 29.2074C37.6605 29.2074 38.6436 28.2242 38.6436 27.0115Z" stroke="black" stroke-width="2" stroke-miterlimit="10" stroke-linecap="round" stroke-linejoin="round"/>
<path d="M41.5001 42.6579C41.5001 41.4452 40.517 40.462 39.3042 40.462C38.0915 40.462 37.1084 41.4452 37.1084 42.6579C37.1084 43.8706 38.0915 44.8538 39.3042 44.8538C40.517 44.8538 41.5001 43.8706 41.5001 42.6579Z" stroke="black" stroke-width="2" stroke-miterlimit="10" stroke-linecap="round" stroke-linejoin="round"/>
<path d="M44.7921 42.6579C44.7921 39.6274 42.3353 37.1706 39.3047 37.1706C36.2742 37.1706 33.8174 39.6274 33.8174 42.6579C33.8174 45.6885 36.2742 48.1453 39.3047 48.1453C42.3353 48.1453 44.7921 45.6885 44.7921 42.6579Z" stroke="black" stroke-width="2" stroke-miterlimit="10" stroke-linecap="round" stroke-linejoin="round"/>
<path d="M22.9981 49.0405C22.9981 47.8278 22.015 46.8446 20.8023 46.8446C19.5895 46.8446 18.6064 47.8278 18.6064 49.0405C18.6064 50.2533 19.5895 51.2365 20.8023 51.2365C22.015 51.2365 22.9981 50.2533 22.9981 49.0405Z" stroke="black" stroke-width="2" stroke-miterlimit="10" stroke-linecap="round" stroke-linejoin="round"/>
<path d="M10.1768 47.2828C10.1768 46.0701 9.19372 45.0869 7.98097 45.0869C6.76822 45.0869 5.78516 46.0701 5.78516 47.2828C5.78516 48.4956 6.76822 49.4786 7.98097 49.4786C9.19372 49.4786 10.1768 48.4956 10.1768 47.2828Z" stroke="black" stroke-width="2" stroke-miterlimit="10" stroke-linecap="round" stroke-linejoin="round"/>
<path d="M38.6436 54.9838C38.6436 53.771 37.6605 52.788 36.4478 52.788C35.235 52.788 34.252 53.771 34.252 54.9838C34.252 56.1965 35.235 57.1797 36.4478 57.1797C37.6605 57.1797 38.6436 56.1965 38.6436 54.9838Z" stroke="black" stroke-width="2" stroke-miterlimit="10" stroke-linecap="round" stroke-linejoin="round"/>
<path d="M25.5713 13.9924C26.9731 15.3942 29.2461 15.3942 30.6479 13.9924" stroke="black" stroke-width="2" stroke-miterlimit="10" stroke-linecap="round" stroke-linejoin="round"/>
<path d="M26.3301 9.15632V10.5341" stroke="black" stroke-width="2" stroke-miterlimit="10" stroke-linecap="round" stroke-linejoin="round"/>
<path d="M29.8896 9.15638V10.5342" stroke="black" stroke-width="2" stroke-miterlimit="10" stroke-linecap="round" stroke-linejoin="round"/>
<path d="M15.4453 28.658L25.9617 25.6436L34.2517 27.0114" stroke="black" stroke-width="2" stroke-miterlimit="10" stroke-linecap="round" stroke-linejoin="round"/>
<path d="M51.3949 46.2914L53.649 47.2801C54.547 47.6739 54.3251 49.005 53.3483 49.087L50.3668 49.3353C49.9073 49.3736 49.5421 49.7389 49.5038 50.1982L49.2554 53.1798C49.1745 54.1565 47.8424 54.3786 47.4487 53.4806L44.3512 46.4161C43.731 45.0018 45.1715 43.5625 46.5856 44.1826L48.3947 44.9756" stroke="black" stroke-width="2" stroke-miterlimit="10" stroke-linecap="square" stroke-linejoin="round"/>
</svg>
