<svg viewBox="0 0 60 60" fill="none" xmlns="http://www.w3.org/2000/svg">
<path d="M17.7121 8.32583C17.7121 9.05798 17.1185 9.65167 16.3864 9.65167C15.6541 9.65167 15.0605 9.05798 15.0605 8.32583C15.0605 7.59356 15.6541 6.99999 16.3864 6.99999C17.1185 6.99999 17.7121 7.59356 17.7121 8.32583Z" fill="black"/>
<path d="M13.182 8.32583C13.182 9.05798 12.5883 9.65167 11.8561 9.65167C11.1239 9.65167 10.5303 9.05798 10.5303 8.32583C10.5303 7.59356 11.1239 6.99999 11.8561 6.99999C12.5883 6.99999 13.182 7.59356 13.182 8.32583Z" fill="black"/>
<path d="M8.65169 8.32583C8.65169 9.05798 8.05811 9.65167 7.32584 9.65167C6.59369 9.65167 6 9.05798 6 8.32583C6 7.59356 6.59369 6.99999 7.32584 6.99999C8.05811 6.99999 8.65169 7.59356 8.65169 8.32583Z" fill="black"/>
<path d="M52.034 58H5.5C3.843 58 2.5 56.657 2.5 55L2.5 7C2.5 5.343 3.843 4 5.5 4L55.5 4C57.157 4 58.5 5.343 58.5 7V55C58.5 56.657 57.157 58 55.5 58H49.099" stroke="black" stroke-width="2" stroke-miterlimit="10"/>
<rect x="3" y="11" width="55" height="2" fill="black"/>
<rect x="3" y="39" width="55" height="2" fill="black"/>
<path d="M19.5 21V17.4645H7.5V21H19.5Z" stroke="black" stroke-width="2" stroke-miterlimit="10" stroke-linecap="round"/>
<rect x="6.5" y="27" width="18" height="2" fill="black"/>
<rect x="6.5" y="32" width="12" height="2" fill="black"/>
<rect x="28.5" y="16.5" width="6" height="2" fill="black"/>
<rect x="37.5" y="16.5" width="6" height="2" fill="black"/>
<rect x="46.5" y="16.5" width="6" height="2" fill="black"/>
<path d="M48.1338 27.0481L50.7929 24.389C51.2506 23.9312 51.9927 23.9312 52.4503 24.389L58.3516 30.2903" stroke="black" stroke-width="2" stroke-miterlimit="10" stroke-linecap="round" stroke-linejoin="bevel"/>
<path d="M24.0206 40.0471L23.3135 40.7542L21.8993 39.34L22.6064 38.6329L24.0206 40.0471ZM30.9732 31.6802L30.2661 30.9731L30.9732 31.6802ZM32.6305 31.6802L33.3375 30.973L33.3376 30.973L32.6305 31.6802ZM38.0666 37.1154L38.7737 37.8225L38.0667 38.5295L37.3596 37.8225L38.0666 37.1154ZM40.556 33.2117C40.9465 32.8212 41.5797 32.8212 41.9702 33.2117C42.3608 33.6023 42.3608 34.2354 41.9702 34.6259L40.556 33.2117ZM22.6064 38.6329L30.2661 30.9731L31.6803 32.3873L24.0206 40.0471L22.6064 38.6329ZM30.2661 30.9731C31.1141 30.1251 32.4893 30.125 33.3375 30.973L31.9235 32.3874C31.8563 32.3202 31.7473 32.3203 31.6803 32.3873L30.2661 30.9731ZM33.3376 30.973L38.7736 36.4082L37.3596 37.8225L31.9235 32.3874L33.3376 30.973ZM37.3595 36.4083L40.556 33.2117L41.9702 34.6259L38.7737 37.8225L37.3595 36.4083Z" fill="black"/>
<path d="M27.5 58V46.4645H7.5V58H27.5Z" stroke="black" stroke-width="2" stroke-miterlimit="10" stroke-linecap="round"/>
<path d="M13 57.34L16.6598 52.6802C17.1173 52.2227 17.8593 52.2226 18.317 52.6802L21.7531 57.1154" stroke="black" stroke-width="2" stroke-miterlimit="10" stroke-linecap="square"/>
<path d="M53 58V46.4645H33V58H53Z" stroke="black" stroke-width="2" stroke-miterlimit="10" stroke-linecap="round"/>
<path d="M38.5 57.34L42.1598 52.6802C42.6173 52.2227 43.3593 52.2226 43.817 52.6802L47.2531 57.1154" stroke="black" stroke-width="2" stroke-miterlimit="10" stroke-linecap="square"/>
<path d="M38.0095 26.6336C37.7344 27.2796 37.582 27.9904 37.582 28.7368C37.582 31.7046 39.9878 34.1104 42.9554 34.1104C45.9231 34.1104 48.3291 31.7046 48.3291 28.7368C48.3291 25.7692 45.9231 23.3634 42.9554 23.3634C42.1357 23.3634 41.3592 23.5477 40.6641 23.876" stroke="black" stroke-width="2" stroke-miterlimit="10" stroke-linecap="round"/>
<path d="M40.8643 27.4951V27.4813" stroke="black" stroke-width="2" stroke-miterlimit="10" stroke-linecap="round"/>
<path d="M45.0469 27.4951V27.4813" stroke="black" stroke-width="2" stroke-miterlimit="10" stroke-linecap="round"/>
<path d="M41.083 29.9198C41.5233 30.4672 42.198 30.8179 42.9552 30.8179C43.7123 30.8179 44.3871 30.4672 44.8274 29.9198" stroke="black" stroke-width="2" stroke-miterlimit="10" stroke-linecap="round"/>
</svg>
