<svg fill="none" height="20" viewBox="0 0 20 20" width="20" xmlns="http://www.w3.org/2000/svg"><path clip-rule="evenodd" d="m.240615 5.10085c2.103285-6.80113 17.415185-6.80113 19.518685 0-.3668 2.06403-2.0296 3.54686-4.2364 4.43942-1.4287-.77684-3.3755-1.25576-5.52294-1.25576-2.14659 0-4.09392.47892-5.52298 1.25576-2.2075-.89256-3.870245-2.37539-4.236365-4.43942zm19.759285 2.19499v5.99186c0 3.5146-3.0728 5.6511-6.81 6.4107v-8.2191c.3798-.0724.7535-.159 1.1197-.2585 2.4894-.6782 4.6055-1.98314 5.6904-3.92372zm-13.18992 12.40156c-3.73704-.7588-6.80998-2.8961-6.80998-6.4107v-5.99187c1.08473 1.93982 3.20033 3.24577 5.69045 3.92367.36604.0995.7399.1864 1.11961.2586z" fill="#fff" fill-rule="evenodd"/></svg>