<svg fill="none" height="20" viewBox="0 0 20 20" width="20" xmlns="http://www.w3.org/2000/svg" xmlns:xlink="http://www.w3.org/1999/xlink"><clipPath id="a"><path d="m0 0h20v19.6984h-20z"/></clipPath><g clip-path="url(#a)"><path d="m6.98758 1.57587-1.42846 2.81415h-3.64973c-.945677 0-1.707486.75208-1.707486 1.69279v10.68479c0 .9408.761809 1.6928 1.707486 1.6928h16.58501c.9457 0 1.7075-.7521 1.7075-1.6928v-10.68479c0-.94077-.7618-1.69279-1.7075-1.69279h-3.6497l-1.4285-2.81415zm3.21422 5.97988c2.1696 0 3.9287 1.7323 3.9287 3.86955 0 2.1369-1.7588 3.8695-3.9287 3.8695-2.16969 0-3.92877-1.7323-3.92877-3.8695 0-2.137 1.75882-3.86955 3.92877-3.86955z" fill="#fff"/></g></svg>