<svg fill="none" height="20" viewBox="0 0 20 20" width="20" xmlns="http://www.w3.org/2000/svg" xmlns:xlink="http://www.w3.org/1999/xlink"><clipPath id="a"><path d="m0 0h20v19.6984h-20z"/></clipPath><g clip-path="url(#a)" fill="#fff"><path d="m10.2516 1.03125 4.082 1.34062-4.082 1.33999-4.08278-1.34061z"/><path d="m5.42242 2.84216 4.48276 1.47391v6.07603l-4.48276-1.47328z"/><path d="m15.0776 2.84351v6.07525l-4.4828 1.47404v-6.07601z"/><path d="m5.07916 9.52405 4.08197 1.33925-4.08197 1.34-4.082761-1.3406z"/><path d="m15.4244 9.52405 4.0816 1.33925-4.082 1.34-4.0816-1.34z"/><path d="m.25 11.3335 4.48276 1.4713v6.0768l-4.48276-1.4711z"/><path d="m10.5948 11.3335 4.4828 1.4713v6.0768l-4.4828-1.4711z"/><path d="m9.90518 11.3347v6.0757l-4.48276 1.4719v-6.0768z"/><path d="m20.25 11.3347v6.0757l-4.4828 1.4719v-6.0768z"/></g></svg>