<svg fill="none" height="20" viewBox="0 0 20 20" width="20" xmlns="http://www.w3.org/2000/svg" xmlns:xlink="http://www.w3.org/1999/xlink"><clipPath id="a"><path d="m0 0h20v19.6984h-20z"/></clipPath><g clip-path="url(#a)"><path d="m19.6641 10.5069v7.8795c0 .2612-.1053.5118-.2928.6965s-.442.2884-.7072.2884h-8.0001c-.2652 0-.5195-.1037-.70701-.2884-.18767-.1847-.29297-.4353-.29297-.6965v-7.8795c0-.2612.1053-.51162.29297-.6963.18751-.18483.44181-.28855.70701-.28855h8.0001c.2652 0 .5197.10372.7072.28855.1875.18468.2928.4352.2928.6963zm-15.00006-6.8943c-.26518 0-.51947.10372-.70697.28855-.18767.18468-.29297.43516-.29297.69631v8.86434c0 .2613.1053.5118.29297.6964.1875.1847.44181.2886.70697.2886h3v-6.40214c0-.2719.224-.49252.50006-.49252h6.5002v-2.95476c0-.26118-.1055-.51164-.293-.69632-.1875-.18483-.4418-.28855-.7072-.28855zm-3.999948 6.8943h.999948v-8.37168c0-.2719.22399-.49252.50005-.49252h8.49991v-.984861c0-.26118-.1053-.511807-.2928-.6964803-.1875-.1846727-.44198-.2883847-.70718-.2883847h-9.000013c-.265179 0-.519644.103712-.7071441.2883847-.1874999.1846733-.2928009.4352793-.2928009.6964803v8.864291c0 .26118.105301.51177.2928009.69647.1875001.1847.4419431.2884.7071441.2884z" fill="#fff"/></g></svg>