<svg viewBox="0 0 22 14" fill="none" xmlns="http://www.w3.org/2000/svg">
<g clip-path="url(#clip0_42204_154975)">
<path d="M14.5 0H0.5V13.9713H21.5V0H14.5Z" fill="#DC2339"/>
<path d="M0.5 0H7.5V14H0.5V0Z" fill="#11865D"/>
<path d="M7.5 0H14.5V14H7.5V0Z" fill="white"/>
<path d="M8.51514 7.00704C8.51514 7.89125 8.9859 8.71406 9.75549 9.15616C9.99291 9.29534 10.2958 9.21347 10.435 8.97605C10.5742 8.73862 10.4923 8.43569 10.2549 8.29651C9.79233 8.03043 9.50987 7.5392 9.50987 7.00704C9.50987 6.73277 9.28882 6.51172 9.01455 6.51172C8.74028 6.51172 8.51514 6.73277 8.51514 7.00704V7.00704ZM12.3385 9.09885C13.0549 8.64447 13.4847 7.85441 13.4847 7.00704C13.4847 6.73277 13.2637 6.51172 12.9894 6.51172C12.7151 6.51172 12.4941 6.73277 12.4941 7.00704C12.4941 7.51464 12.2362 7.9895 11.8064 8.26376C11.573 8.40704 11.4993 8.70996 11.6385 8.94739C11.7777 9.18482 12.0847 9.25441 12.3222 9.11523C12.3222 9.10704 12.3303 9.10295 12.3385 9.09885V9.09885Z" fill="#8C9157"/>
<path d="M10.9996 8.00355C11.549 8.00355 11.9944 7.33643 11.9944 6.5135C11.9944 5.69056 11.549 5.02344 10.9996 5.02344C10.4502 5.02344 10.0049 5.69056 10.0049 6.5135C10.0049 7.33643 10.4502 8.00355 10.9996 8.00355Z" fill="#C59262"/>
</g>
<defs>
<clipPath id="clip0_42204_154975">
<rect width="21" height="14" fill="white" transform="translate(0.5)"/>
</clipPath>
</defs>
</svg>
