<svg viewBox="0 0 22 14" fill="none" xmlns="http://www.w3.org/2000/svg">
<g clip-path="url(#clip0_42204_155025)">
<path d="M0.5 0H21.5V14H0.5V0Z" fill="white"/>
<path d="M0.5 1.55469H21.5V3.11024H0.5V1.55469ZM0.5 4.6658H21.5V6.22135H0.5V4.6658ZM0.5 7.77691H21.5V9.33247H0.5V7.77691ZM0.5 10.888H21.5V12.4436H0.5V10.888Z" fill="#0038A8"/>
<path d="M0.5 0H11V7.77778H0.5V0Z" fill="white"/>
<path d="M5.75189 5.67852L5.13376 6.60366L4.9782 5.50249L4.02031 6.06741L4.35598 5.00717L3.24253 5.09723L4.00393 4.2867L2.96826 3.88963L4.00803 3.49255L3.24253 2.68203L4.35189 2.77618L4.01622 1.71594L4.97411 2.28086L5.13376 1.17969L5.75189 2.10483L6.37002 1.17969L6.52557 2.28086L7.48347 1.71594L7.14779 2.77618L8.25715 2.68612L7.49575 3.49665L8.53551 3.89372L7.49575 4.2908L8.25715 5.10133L7.14779 5.01127L7.48347 6.0715L6.52557 5.50659L6.36592 6.60776L5.75189 5.67852V5.67852ZM5.75189 5.65805C6.73025 5.69489 7.55306 4.93758 7.5899 3.95922C7.62674 2.98086 6.86943 2.15805 5.89107 2.12121H5.75189C4.77352 2.15396 4.00803 2.97267 4.04078 3.94694C4.06534 4.88027 4.81855 5.62939 5.75189 5.65805ZM5.75189 5.22413C4.9823 5.22413 4.36007 4.60191 4.36007 3.83232C4.36007 3.06273 4.9823 2.44051 5.75189 2.44051C6.52148 2.44051 7.1437 3.06273 7.1437 3.83232C7.1437 4.60191 6.51738 5.22413 5.75189 5.22413Z" fill="#FED443"/>
</g>
<rect x="0.75" y="0.25" width="20.5" height="13.5" stroke="#C3C3C3" stroke-width="0.5"/>
<defs>
<clipPath id="clip0_42204_155025">
<rect x="0.5" width="21" height="14" fill="white"/>
</clipPath>
</defs>
</svg>
