<svg viewBox="0 0 32 21" fill="none" xmlns="http://www.w3.org/2000/svg">
<g clip-path="url(#clip0_42204_154960)">
<path d="M0 0H31.5V21H0V0Z" fill="white"/>
<path d="M0 0H31.5V1.61491H0V0ZM0 3.22982H31.5V4.84474H0V3.22982ZM0 6.45965H31.5V8.07456H0V6.45965ZM0 9.68947H31.5V11.3044H0V9.68947ZM0 12.9254H31.5V14.5404H0V12.9254ZM0 16.1553H31.5V17.7702H0V16.1553ZM0 19.3851H31.5V21H0V19.3851Z" fill="#D80027"/>
<path d="M0 0H15.75V11.3044H0V0Z" fill="#2E52B2"/>
<path d="M2.9352 8.52986L2.68959 7.74389L2.41941 8.52986H1.60889L2.2659 9.00267L2.02029 9.78863L2.68959 9.30354L3.34047 9.78863L3.08871 9.00267L3.75801 8.52986H2.9352ZM6.39222 8.52986L6.14047 7.74389L5.88257 8.52986H5.07204L5.72906 9.00267L5.48345 9.78863L6.14047 9.30354L6.80362 9.78863L6.55801 9.00267L7.21503 8.52986H6.39222ZM9.86152 8.52986L9.59748 7.74389L9.35187 8.52986H8.52292L9.19836 9.00267L8.94047 9.78863L9.59748 9.30354L10.2729 9.78863L10.015 9.00267L10.672 8.52986H9.86152ZM13.3124 8.52986L13.0668 7.74389L12.8089 8.52986H11.9922L12.6554 9.00267L12.4098 9.78863L13.0668 9.30354L13.7299 9.78863L13.4659 9.00267L14.1413 8.52986H13.3124ZM6.14047 4.6246L5.88257 5.41056H5.07204L5.72906 5.89565L5.48345 6.66933L6.14047 6.19039L6.80362 6.66933L6.55801 5.89565L7.21503 5.41056H6.39222L6.14047 4.6246ZM2.68959 4.6246L2.41941 5.41056H1.60889L2.2659 5.89565L2.02029 6.66933L2.68959 6.19039L3.34047 6.66933L3.08871 5.89565L3.75801 5.41056H2.9352L2.68959 4.6246ZM9.59748 4.6246L9.35187 5.41056H8.52292L9.19836 5.89565L8.94047 6.66933L9.59748 6.19039L10.2729 6.66933L10.015 5.89565L10.672 5.41056H9.86152L9.59748 4.6246ZM13.0668 4.6246L12.8089 5.41056H11.9922L12.6554 5.89565L12.4098 6.66933L13.0668 6.19039L13.7299 6.66933L13.4659 5.89565L14.1413 5.41056H13.3124L13.0668 4.6246ZM2.68959 1.51758L2.41941 2.29126H1.60889L2.2659 2.77635L2.02029 3.55617L2.68959 3.07109L3.34047 3.55617L3.08871 2.77635L3.75801 2.29126H2.9352L2.68959 1.51758ZM6.14047 1.51758L5.88257 2.29126H5.07204L5.72906 2.77635L5.48345 3.55617L6.14047 3.07109L6.80362 3.55617L6.55801 2.77635L7.21503 2.29126H6.39222L6.14047 1.51758ZM9.59748 1.51758L9.35187 2.29126H8.52292L9.19836 2.77635L8.94047 3.55617L9.59748 3.07109L10.2729 3.55617L10.015 2.77635L10.672 2.29126H9.86152L9.59748 1.51758ZM13.0668 1.51758L12.8089 2.29126H11.9922L12.6554 2.77635L12.4098 3.55617L13.0668 3.07109L13.7299 3.55617L13.4659 2.77635L14.1413 2.29126H13.3124L13.0668 1.51758Z" fill="white"/>
</g>
<defs>
<clipPath id="clip0_42204_154960">
<rect width="31.5" height="21" fill="white"/>
</clipPath>
</defs>
</svg>
