<svg width="397" height="93" xmlns="http://www.w3.org/2000/svg"><defs><linearGradient x1="0%" y1="5.708%" x2="88.608%" y2="68.648%" id="a"><stop stop-color="#3023AE" offset="0%"/><stop stop-color="#C86DD7" stop-opacity="0" offset="100%"/></linearGradient></defs><path class="path" d="M239 1507.187l10.457 9.573 8.447-4.572 6.336 11.278v-6.706l10.56 6.706 6.863-6.706 8.448 15.24 10.559-19.812 5.28 4.572 5.807-4.572 10.56 4.572 10.031-12.801H357.163l11.087-6.096h23.759l9.503 6.096 9.504-6.096h26.398l10.56 6.096 6.863-9.754 8.447 3.658 11.088-8.534h6.335l6.336-4.267 7.92 4.267 7.391-4.267 7.92-9.144 9.503-14.02 13.2-6.706 6.335-6.096 5.808 23.164h6.863l4.752-6.705 15.311 10.363 5.28-10.363 8.447 6.705 6.864-23.164 4.752 12.801 6.335-12.801 7.92 6.096 5.28-6.096h6.335l3.696-6.096 7.92 6.096h9.503l7.391-6.096 3.168 6.096h10.56L675 1443" transform="translate(-237 -1441)" stroke="url(#a)" stroke-width="3.5" fill="none" fill-rule="evenodd" stroke-linecap="round" stroke-linejoin="round"/></svg>