<svg viewBox="0 0 98 68" fill="none" xmlns="http://www.w3.org/2000/svg">
<path fill-rule="evenodd" clip-rule="evenodd" d="M48.8685 0L48.8715 0.000153196C47.8944 0.0518161 46.9035 0.102547 45.9026 0.153784L45.9024 0.153794L45.9023 0.153796C43.3322 0.285368 40.6967 0.420282 38.0643 0.582909C33.6065 0.85652 29.279 1.73683 25.1764 3.55099C20.3515 5.6804 17.4507 9.39794 16.7166 14.6263C16.1187 18.8792 16.4798 23.0547 18.4512 27.0042C20.0378 30.1864 22.2755 32.6965 25.4665 34.2608C28.1423 35.5754 30.9721 35.7657 33.8966 35.2482C36.3179 34.82 38.4314 33.7434 40.4264 32.411C41.3289 31.8078 42.1773 31.1267 43.0264 30.445L43.0264 30.445L43.0265 30.4449L43.0266 30.4449L43.0266 30.4448C43.5255 30.0444 44.0245 29.6437 44.535 29.2585C47.2108 27.2302 50.7155 27.1767 53.4032 29.1812C53.7795 29.4625 54.1535 29.7468 54.5275 30.031C56.4066 31.4594 58.2835 32.886 60.4362 33.9277C63.0884 35.2066 65.8649 35.8192 68.748 35.391C73.9399 34.6177 77.3972 31.4177 79.6646 26.8615C80.9729 24.2265 81.5413 21.3535 81.6064 18.3914C81.6537 16.0955 81.4288 13.8173 80.6414 11.6642C79.262 7.89903 76.6394 5.23429 73.0045 3.60453C69.121 1.86174 64.9888 1.02307 60.7914 0.64239C58.0858 0.394511 55.366 0.281497 52.5822 0.165829C51.359 0.115005 50.1235 0.0636684 48.8715 0.000153196L48.8744 0H48.8685ZM48.8685 4.43725C43.8364 4.34208 38.7984 4.35993 33.8315 5.30567C30.5577 5.93022 27.3194 6.63209 24.537 8.69012C22.5183 10.189 21.2455 12.1519 20.8547 14.5728C20.2094 18.5699 20.8074 22.3766 23.2583 25.7373C25.4013 28.6756 28.2666 30.1686 31.9193 30.1626C34.3465 30.1626 36.5429 29.3537 38.5439 28.1165C40.0181 27.2056 41.4395 26.207 42.8611 25.2084L42.8612 25.2084C43.723 24.603 44.5848 23.9975 45.4585 23.4116C47.2937 22.1803 49.3065 21.7521 51.3312 22.8168C52.8606 23.6232 54.3105 24.5944 55.7537 25.5611L56.1501 25.8265C56.6186 26.1403 57.0776 26.4672 57.5362 26.7939C58.9554 27.8049 60.3716 28.8137 62.0583 29.4251C66.8062 31.15 71.6903 30.0794 74.8516 25.9276C76.5743 23.6673 77.415 21.0442 77.5393 18.1951C77.6281 16.1668 77.4564 14.1802 76.6039 12.3065C75.3666 9.58828 73.1289 7.95256 70.4589 6.92949C65.8235 5.15697 60.9513 4.62164 56.0376 4.4432C54.3819 4.38143 52.7261 4.39664 51.0703 4.41184H51.0703C50.3344 4.4186 49.5984 4.42536 48.8625 4.42536L48.8685 4.43725ZM17.4981 9.26709C15.7635 12.8478 15.5208 16.6308 15.7635 20.4851C15.7192 20.4988 15.6749 20.5106 15.6295 20.5226C15.596 20.5315 15.5619 20.5405 15.5267 20.5506C15.4461 20.3788 15.3517 20.2096 15.2574 20.0404C15.0609 19.6881 14.8646 19.3361 14.7927 18.9624C14.2539 16.1133 14.0882 13.2761 15.3373 10.534C15.7399 9.64776 16.4562 9.29088 17.4981 9.26114V9.26709ZM80.7006 9.41579C82.1687 12.8359 82.9916 16.3274 82.5003 20.039C82.5772 20.0628 82.6483 20.0866 82.7193 20.1104C82.7746 19.9808 82.8402 19.8524 82.9058 19.724L82.9059 19.7237C83.051 19.4398 83.1958 19.1562 83.2284 18.8613C83.2538 18.6241 83.2806 18.3864 83.3074 18.1484L83.3076 18.146L83.3076 18.1458V18.1458C83.4493 16.8869 83.5919 15.6194 83.5422 14.3646C83.483 12.7824 83.3942 11.1407 82.1806 9.86189C81.7662 9.43363 81.3458 9.23735 80.7006 9.41579ZM25.8157 1.93907C25.8605 1.88283 25.9018 1.81655 25.943 1.75028C26.0326 1.60627 26.1222 1.46232 26.2479 1.42159C27.2365 1.09444 28.243 0.814886 29.2434 0.541275C29.3145 0.524484 29.4061 0.58768 29.4956 0.649325L29.4956 0.649334C29.5328 0.675035 29.5697 0.700466 29.6046 0.719717C29.5795 0.76423 29.5576 0.818188 29.5358 0.871962C29.4905 0.983458 29.4456 1.09416 29.3737 1.11824C28.5192 1.41646 27.6613 1.69409 26.8026 1.97199L26.8025 1.97202C26.5308 2.05992 26.2591 2.14785 25.9874 2.23647L25.9873 2.23635L25.9873 2.2363C25.9282 2.13524 25.869 2.03418 25.8157 1.93907ZM33.8788 6.4001C33.0323 6.55475 32.1738 6.74509 31.4753 7.28637L31.4694 7.28042L31.4871 7.5005C31.572 7.51718 31.6563 7.53791 31.7402 7.55854C31.9255 7.60411 32.1089 7.6492 32.2922 7.6492C33.7959 7.63135 35.2996 7.60161 36.7974 7.54808C37.5929 7.52129 38.3876 7.48444 39.1821 7.4476C40.5042 7.3863 41.8258 7.32502 43.1496 7.31016C46.9266 7.26257 50.6977 7.23283 54.4688 7.29231C56.7202 7.33271 58.9694 7.42071 61.2191 7.50874C62.6133 7.56329 64.0078 7.61785 65.4031 7.66109C65.6614 7.66933 65.9224 7.60628 66.1844 7.54302C66.3008 7.51491 66.4173 7.48676 66.5339 7.46481C66.5398 7.37559 66.5398 7.29231 66.5398 7.20309C66.4017 7.14943 66.2641 7.08829 66.1262 7.027C65.8209 6.89129 65.514 6.75488 65.1959 6.69751C64.7197 6.61283 64.2438 6.52451 63.7678 6.43619C62.1374 6.13363 60.5065 5.83098 58.8615 5.67444C50.5083 4.8893 42.1728 4.91904 33.8788 6.4001Z" fill="url(#paint0_linear_48463_1657)"/>
<path d="M84.278 61.8879V43.5508H89.373C90.6044 43.5508 91.66 43.8021 92.5396 44.3046C93.4328 44.7936 94.1162 45.4456 94.5898 46.2606C95.0634 47.0756 95.3003 47.9721 95.3003 48.95C95.3003 49.928 95.0567 50.8109 94.5695 51.5987C94.0823 52.3865 93.3989 52.9978 92.5193 53.4324L98 61.8879H94.6507L89.7181 54.1863H87.201V61.8879H84.278ZM87.201 51.6802H89.3324C90.0496 51.6802 90.6315 51.5444 91.0781 51.2727C91.5382 51.0011 91.8765 50.6547 92.093 50.2336C92.3231 49.8126 92.4381 49.3847 92.4381 48.95C92.4381 48.1622 92.1539 47.517 91.5856 47.0145C91.0172 46.4983 90.2661 46.2402 89.3324 46.2402H87.201V51.6802Z" fill="white"/>
<path d="M73.6581 62.4991L66.1475 43.5508H69.2938L72.9273 52.8416C73.0897 53.2219 73.2385 53.5954 73.3739 53.9622C73.5092 54.3153 73.6445 54.7228 73.7799 55.1846C73.9016 54.7364 74.0302 54.3357 74.1655 53.9825C74.3009 53.6294 74.4429 53.2491 74.5918 52.8416L78.2253 43.5508H81.2092L73.6987 62.4991H73.6581Z" fill="white"/>
<path d="M59.8012 62.2136C58.6103 62.2136 57.5209 61.9284 56.5331 61.3579C55.5452 60.7738 54.7603 59.9928 54.1784 59.0148C53.5965 58.0368 53.3055 56.957 53.3055 55.7753C53.3055 54.58 53.5965 53.5001 54.1784 52.5357C54.7603 51.5577 55.5452 50.7835 56.5331 50.213C57.5209 49.6289 58.6103 49.3369 59.8012 49.3369C61.0056 49.3369 62.095 49.6289 63.0693 50.213C64.0572 50.7835 64.8421 51.5577 65.424 52.5357C66.0059 53.5001 66.2968 54.58 66.2968 55.7753C66.2968 56.957 66.0059 58.0368 65.424 59.0148C64.8421 59.9928 64.0572 60.7738 63.0693 61.3579C62.095 61.9284 61.0056 62.2136 59.8012 62.2136ZM59.8012 59.5853C60.4914 59.5853 61.1206 59.4155 61.689 59.0759C62.2574 58.7228 62.7039 58.261 63.0287 57.6905C63.367 57.12 63.5362 56.4816 63.5362 55.7753C63.5362 55.0689 63.367 54.4305 63.0287 53.8601C62.7039 53.2896 62.2574 52.8345 61.689 52.495C61.1206 52.1418 60.4914 51.9652 59.8012 51.9652C59.111 51.9652 58.4818 52.1418 57.9134 52.495C57.345 52.8345 56.8917 53.2896 56.5534 53.8601C56.2286 54.4305 56.0662 55.0689 56.0662 55.7753C56.0662 56.4816 56.2286 57.12 56.5534 57.6905C56.8917 58.261 57.3383 58.7228 57.8931 59.0759C58.4615 59.4155 59.0975 59.5853 59.8012 59.5853Z" fill="white"/>
<path d="M46.3376 61.888V51.986H43.8206V49.6633H46.3985V45.5884H49.1389V49.6633H51.8589V51.986H49.1998V61.888H46.3376Z" fill="white"/>
<path d="M29.7168 68V49.663H32.2542V51.0688C32.7684 50.5526 33.3706 50.1519 34.0608 49.8667C34.7509 49.5679 35.4952 49.4185 36.2936 49.4185C37.4168 49.4185 38.4386 49.7037 39.3588 50.2742C40.279 50.8447 41.0097 51.6121 41.5511 52.5765C42.1059 53.5409 42.3833 54.6072 42.3833 55.7753C42.3833 56.9435 42.1059 58.0097 41.5511 58.9741C41.0097 59.9385 40.279 60.7059 39.3588 61.2764C38.4386 61.8469 37.4168 62.1322 36.2936 62.1322C35.5764 62.1322 34.8998 62.0167 34.2637 61.7858C33.6412 61.5413 33.0796 61.2085 32.5789 60.7874V68H29.7168ZM35.9486 59.565C36.6252 59.565 37.2409 59.3952 37.7958 59.0556C38.3641 58.716 38.8107 58.261 39.1355 57.6905C39.4738 57.12 39.643 56.4816 39.643 55.7753C39.643 55.0826 39.4738 54.451 39.1355 53.8805C38.8107 53.2964 38.3709 52.8346 37.8161 52.495C37.2612 52.1554 36.6387 51.9856 35.9486 51.9856C35.2719 51.9856 34.6494 52.1554 34.0811 52.495C33.5262 52.8346 33.0796 53.2896 32.7413 53.8601C32.4166 54.4306 32.2542 55.069 32.2542 55.7753C32.2542 56.468 32.4166 57.1064 32.7413 57.6905C33.0796 58.261 33.5262 58.716 34.0811 59.0556C34.6359 59.3952 35.2584 59.565 35.9486 59.565Z" fill="white"/>
<path d="M22.9582 61.8879V49.6632H25.8203V61.8879H22.9582ZM24.3994 47.6869C23.9258 47.6869 23.5266 47.5239 23.2018 47.1979C22.877 46.8583 22.7146 46.4576 22.7146 45.9958C22.7146 45.5068 22.877 45.1061 23.2018 44.7937C23.5401 44.4677 23.9393 44.3047 24.3994 44.3047C24.8866 44.3047 25.2858 44.4677 25.597 44.7937C25.9218 45.1197 26.0842 45.5204 26.0842 45.9958C26.0842 46.4712 25.9218 46.8719 25.597 47.1979C25.2723 47.5239 24.873 47.6869 24.3994 47.6869Z" fill="white"/>
<path d="M13.1045 61.888V49.6633H15.7028V51.823C16.1358 51.1166 16.6906 50.5597 17.3673 50.1523C18.0439 49.7448 18.8491 49.541 19.7828 49.541L20.4324 52.2101C20.1753 52.1286 19.8843 52.0878 19.5595 52.0878C18.4769 52.0878 17.6041 52.4342 16.941 53.1269C16.2914 53.8197 15.9666 54.8112 15.9666 56.1016V61.888H13.1045Z" fill="white"/>
<path d="M0 46.2402V43.5508H12.3823V46.2402H7.71358V61.8879H4.66875V46.2402H0Z" fill="white"/>
<defs>
<linearGradient id="paint0_linear_48463_1657" x1="16.2053" y1="15.8509" x2="81.5515" y2="15.8509" gradientUnits="userSpaceOnUse">
<stop stop-color="#46B2E8"/>
<stop offset="1" stop-color="#E534D6"/>
</linearGradient>
</defs>
</svg>
