<svg width="100%" height="100%" viewBox="0 0 147 49" fill="none" xmlns="http://www.w3.org/2000/svg">
<path fill-rule="evenodd" clip-rule="evenodd" d="M69.3189 35.4491V25.0513H84.031V35.4491H87.6633V13H84.031V21.8703H69.3189V13.0004H65.6426V35.4491H69.3189ZM103.541 33.6124C103.9 35.4048 105.155 35.6288 106.456 35.6288C107.264 35.6288 108.205 35.537 108.923 35.4491L109.058 35.4043V32.8928L108.833 32.9403C108.518 32.9847 108.114 33.0725 107.801 33.0725C106.949 33.0725 106.591 32.7162 106.591 31.8644V23.1268C106.591 18.9578 101.791 18.33 98.9197 18.33C93.6737 18.33 91.071 20.1698 90.6692 24.1107V24.2909H93.9423V24.1107C94.0329 22.0504 95.6026 21.066 98.7865 21.066C101.926 21.066 103.316 21.8264 103.316 23.5748C103.316 24.8272 102.464 25.1431 100.67 25.3672L97.1257 25.7234C92.0147 26.2634 89.9964 27.7398 89.9964 30.9683C89.9964 32.4918 90.6692 36.0294 96.7683 36.0294C99.0556 36.0294 102.059 35.269 103.541 33.6124ZM101.478 32.0441C100.312 32.8484 98.7421 33.2965 97.0374 33.2965C94.8833 33.2965 93.4046 32.3125 93.4046 30.8769C93.4046 29.4 94.3908 28.7278 96.9481 28.3676L100.446 27.9195C101.835 27.7402 102.732 27.5633 103.271 27.1595V28.86C103.316 30.116 102.644 31.2362 101.478 32.0441ZM129.193 32.9403C128.881 32.9847 128.477 33.0725 128.163 33.0725C127.311 33.0725 126.951 32.7162 126.951 31.8644V23.1268C126.951 18.9578 122.153 18.33 119.282 18.33C114.035 18.33 111.434 20.1698 111.029 24.1107V24.2909H114.305V24.1107C114.393 22.0504 115.963 21.066 119.149 21.066C122.288 21.066 123.678 21.8264 123.678 23.5748C123.678 24.8272 122.826 25.1431 121.032 25.3672L117.488 25.7234C112.375 26.2634 110.356 27.7398 110.356 30.9683C110.356 32.4918 111.029 36.0294 117.131 36.0294C119.417 36.0294 122.466 35.269 123.947 33.6124C124.306 35.4048 125.561 35.6288 126.862 35.6288C127.67 35.6288 128.612 35.537 129.329 35.4491L129.464 35.4043V32.8928L129.193 32.9403ZM123.634 28.86C123.634 30.0721 122.961 31.1923 121.793 31.9966C120.628 32.8045 119.058 33.2526 117.355 33.2526C115.202 33.2526 113.72 32.2682 113.72 30.832C113.72 29.3556 114.708 28.6835 117.264 28.3237L120.763 27.8756C122.153 27.6954 123.05 27.5158 123.587 27.1152L123.634 28.86ZM130.226 30.0277V30.2043C130.495 34.0605 133.366 36.0294 138.703 36.0294C141.259 36.0294 143.321 35.5813 144.713 34.6408C146.236 33.6568 147 32.2211 147 30.2961C147 27.7868 145.162 26.3512 141.17 25.8153L136.774 25.231C134.622 24.9191 134.218 24.3348 134.218 23.3947C134.218 22.5868 134.666 22.0065 135.519 21.6024C136.236 21.29 137.222 21.1104 138.344 21.1104C141.707 21.1104 142.964 22.5868 143.053 23.9781V24.1551H146.507V23.9786C146.192 20.3464 143.321 18.3775 138.387 18.3775C136.101 18.3775 134.218 18.8699 132.872 19.81C131.527 20.7501 130.81 22.1387 130.81 23.7989C130.81 26.4874 133.097 27.9638 135.384 28.2797L140.497 28.9519C142.919 29.2637 143.412 29.9359 143.412 30.9683C143.412 31.4163 143.277 32.0437 142.515 32.5366C141.707 33.0725 140.406 33.3409 138.612 33.3409C134.98 33.3409 133.678 31.7282 133.678 30.2518V30.0721H130.226V30.0277Z" fill="white"/>
<path fill-rule="evenodd" clip-rule="evenodd" d="M30.48 0C17.1596 0 6.39569 10.798 6.39569 24.1084C6.39569 24.6008 6.39569 25.0489 6.44054 25.497H3.30106C3.12166 25.497 3.03196 25.5848 2.94137 25.7211C2.89741 25.8532 0.11718 30.7378 0.0261348 30.874C-0.0178179 31.0062 -0.0178179 31.0533 0.11718 31.0533H7.42634C10.4326 40.9564 19.6268 48.1693 30.5239 48.1693C43.8457 48.1693 54.6544 37.3713 54.6544 24.0609C54.6096 10.798 43.8008 0 30.48 0ZM13.2568 31.0537H19.6717L16.5766 36.4308C15.2311 34.8625 14.065 33.0701 13.2568 31.0537ZM30.4804 42.6565C25.4133 42.6565 20.8378 40.6401 17.518 37.3713H22.7223C22.7223 37.3713 37.6999 10.9781 37.791 10.8423C37.8802 10.7541 37.8358 10.6658 37.6999 10.6658H31.6017C31.468 10.6658 31.468 10.7102 31.4214 10.7541C31.3774 10.8423 22.9466 25.497 22.9466 25.497H11.9584C11.9118 25.0489 11.9118 24.556 11.9118 24.1079C11.9118 13.8468 20.209 5.51236 30.4804 5.51236C35.7288 5.51236 40.438 7.70574 43.8457 11.2022C42.3656 13.6666 35.8176 24.8249 34.9206 26.4371C34.4272 25.273 32.0502 25.497 30.7953 25.4527C30.2562 26.3488 27.7895 31.0537 27.7895 31.0537H30.3907C31.6017 31.0537 31.7362 32.3061 31.2438 33.1145C30.7486 33.9188 28.8215 37.3713 28.8215 37.3713H35.1453C35.1453 37.3713 42.9047 23.8369 47.2991 16.175C48.4643 18.5956 49.0931 21.2841 49.0931 24.1084C49.0931 34.3225 40.751 42.6565 30.4804 42.6565Z" fill="white"/>
</svg>
