<svg viewBox="0 0 140 60" fill="none" xmlns="http://www.w3.org/2000/svg">
<circle cx="110" cy="30" r="29" fill="white" stroke="black" stroke-width="2"/>
<path d="M121 41L111 39.1875V32H121V41Z" stroke="black" stroke-width="2" stroke-linecap="round" stroke-linejoin="round"/>
<path d="M107 38.45L99 37V32H107V38.45Z" stroke="black" stroke-width="2" stroke-linecap="round" stroke-linejoin="round"/>
<path d="M121 19L111 20.8125V28H121V19Z" stroke="black" stroke-width="2" stroke-linecap="round" stroke-linejoin="round"/>
<path d="M107 21.55L99 23V28H107V21.55Z" stroke="black" stroke-width="2" stroke-linecap="round" stroke-linejoin="round"/>
<circle cx="70" cy="30" r="29" fill="white" stroke="black" stroke-width="2"/>
<path d="M70 30H81C81.0027 32.5483 80.1215 35.0187 78.5066 36.9901C76.8918 38.9614 74.6432 40.3117 72.1443 40.8108C69.6453 41.3099 67.0506 40.9268 64.8024 39.727C62.5542 38.5271 60.7917 36.5847 59.8154 34.2309C58.839 31.877 58.7092 29.2574 59.4481 26.8185C60.1869 24.3797 61.7488 22.2725 63.8673 20.8563C65.9859 19.4401 68.53 18.8024 71.0661 19.052C73.6022 19.3016 75.9732 20.423 77.775 22.225" stroke="black" stroke-width="2" stroke-linecap="round" stroke-linejoin="round"/>
<circle cx="30" cy="30" r="29" fill="white" stroke="black" stroke-width="2"/>
<path d="M31.2625 18.0625C31.5533 17.3075 32.0661 16.6584 32.7334 16.2009C33.4007 15.7434 34.191 15.499 35 15.5" stroke="black" stroke-width="2" stroke-linecap="round" stroke-linejoin="round"/>
<path d="M41.3125 34.3625C39.7375 38.2125 36.8875 41 34.5 41H25.5C22 41 17.5 35 17.5 28.5C17.5005 27.0525 17.9199 25.6359 18.7077 24.4215C19.4954 23.207 20.6178 22.2464 21.9394 21.6556C23.2609 21.0649 24.7252 20.8692 26.1555 21.0923C27.5858 21.3153 28.921 21.9475 30 22.9125V22.9125C30.7637 22.2283 31.6597 21.708 32.6325 21.3837C33.6052 21.0593 34.6342 20.9379 35.6557 21.027C36.6773 21.116 37.6697 21.4136 38.5717 21.9013C39.4737 22.389 40.2661 23.0565 40.9 23.8625V23.8625C39.9813 24.4173 39.2282 25.2083 38.7192 26.1531C38.2102 27.0979 37.9639 28.162 38.006 29.2343C38.0482 30.3067 38.3772 31.3482 38.9587 32.2501C39.5403 33.1521 40.3531 33.8816 41.3125 34.3625V34.3625Z" stroke="black" stroke-width="2" stroke-linecap="round" stroke-linejoin="round"/>
</svg>
