<svg viewBox="0 0 140 60" fill="none" xmlns="http://www.w3.org/2000/svg">
<circle cx="110" cy="30" r="29" fill="white" stroke="black" stroke-width="2"/>
<path d="M110 17V20" stroke="black" stroke-width="2" stroke-linecap="round" stroke-linejoin="round"/>
<path d="M110 40V43" stroke="black" stroke-width="2" stroke-linecap="round" stroke-linejoin="round"/>
<path d="M117 25C117 24.3434 116.871 23.6932 116.619 23.0866C116.368 22.48 116 21.9288 115.536 21.4645C115.071 21.0002 114.52 20.6319 113.913 20.3806C113.307 20.1293 112.657 20 112 20H107.5C106.174 20 104.902 20.5268 103.964 21.4645C103.027 22.4021 102.5 23.6739 102.5 25C102.5 26.3261 103.027 27.5979 103.964 28.5355C104.902 29.4732 106.174 30 107.5 30H113C114.326 30 115.598 30.5268 116.536 31.4645C117.473 32.4021 118 33.6739 118 35C118 36.3261 117.473 37.5979 116.536 38.5355C115.598 39.4732 114.326 40 113 40H107C105.674 40 104.402 39.4732 103.464 38.5355C102.527 37.5979 102 36.3261 102 35" stroke="black" stroke-width="2" stroke-linecap="round" stroke-linejoin="round"/>
<circle cx="70" cy="30" r="29" fill="white" stroke="black" stroke-width="2"/>
<path d="M73.988 32.2187C73.2885 32.2187 72.7363 32.8445 72.8468 33.5808C72.9572 34.133 73.4726 34.5012 74.0248 34.5012H75.792L76.8228 34.3539C75.1661 36.7837 72.3314 37.8882 69.2021 37.3728C66.6619 36.9678 64.4898 35.2375 63.5694 32.8445C61.471 27.3959 65.447 22.1682 70.6379 22.1682C73.3254 22.1682 75.7183 23.7512 77.0805 25.6656V25.7024C77.4486 26.2178 78.1481 26.3651 78.6635 25.997C79.1421 25.6656 79.2894 25.0029 78.9948 24.4875C77.1173 21.5423 73.7303 19.6648 69.9384 19.9225C65.0052 20.3275 60.9924 24.3771 60.6978 29.3471C60.3665 35.127 64.9316 39.8025 70.6379 39.8025C73.6199 39.8025 76.3074 38.514 78.1113 36.3788L77.8904 37.5936V38.6981C77.8904 39.2503 78.2585 39.7657 78.8108 39.8762C79.5471 40.0234 80.1729 39.4344 80.1729 38.7349V32.2187H73.988Z" fill="black"/>
<circle cx="30" cy="30" r="29" fill="white" stroke="black" stroke-width="2"/>
<path d="M24.375 28H35.625L38.45 20.4625C38.4878 20.3638 38.5559 20.2796 38.6445 20.2221C38.7331 20.1645 38.8377 20.1365 38.9432 20.142C39.0487 20.1476 39.1497 20.1864 39.2318 20.253C39.3139 20.3195 39.3728 20.4104 39.4 20.5125L42.825 33.325C42.8731 33.5236 42.8607 33.7321 42.7894 33.9236C42.7182 34.1152 42.5913 34.2811 42.425 34.4L30.575 42.6C30.4059 42.7166 30.2054 42.7791 30 42.7791C29.7946 42.7791 29.5941 42.7166 29.425 42.6L17.575 34.4C17.4087 34.2811 17.2818 34.1152 17.2106 33.9236C17.1393 33.7321 17.1269 33.5236 17.175 33.325L20.6 20.5125C20.6272 20.4104 20.6861 20.3195 20.7682 20.253C20.8503 20.1864 20.9513 20.1476 21.0568 20.142C21.1623 20.1365 21.2669 20.1645 21.3555 20.2221C21.4441 20.2796 21.5122 20.3638 21.55 20.4625L24.375 28Z" stroke="black" stroke-width="2" stroke-linecap="round" stroke-linejoin="round"/>
<path d="M30.0875 42.775L35.625 28H41.4" stroke="black" stroke-width="2" stroke-linecap="round" stroke-linejoin="round"/>
<path d="M18.6 28H24.375L29.9125 42.775" stroke="black" stroke-width="2" stroke-linecap="round" stroke-linejoin="round"/>
</svg>
