<svg viewBox="0 0 140 60" fill="none" xmlns="http://www.w3.org/2000/svg">
<circle cx="110" cy="30" r="29" fill="white" stroke="black" stroke-width="2"/>
<path d="M96.8764 14C95.2878 14 94 15.2878 94 16.8764V43.1236C94 44.7122 95.2878 46 96.8764 46H123.124C124.712 46 126 44.7122 126 43.1236V39.0067C118.718 41.8851 109.031 41.8152 96.5169 30.0001C101.909 24.4135 115.056 15.501 126 21.4149V16.8764C126 15.2878 124.712 14 123.124 14H96.8764Z" stroke="black" stroke-width="2" stroke-linecap="round" stroke-linejoin="round"/>
<path d="M126 30C126 25.3335 122.217 21.5506 117.551 21.5506C112.884 21.5506 109.101 25.3335 109.101 30C109.101 34.6665 112.884 38.4494 117.551 38.4494C122.217 38.4494 126 34.6665 126 30Z" stroke="black" stroke-width="2" stroke-linecap="round" stroke-linejoin="round"/>
<circle cx="70" cy="30" r="29" fill="white" stroke="black" stroke-width="2"/>
<path d="M75.4496 27.9324L75.4496 43.5239C73.6463 44.2311 71.6821 44.6193 69.6274 44.6193C67.5727 44.6193 65.6092 44.2311 63.8052 43.5239V27.9324L67.5955 25.7435V41.3279L69.6274 42.5015L71.6593 41.3279V25.7435L75.4496 27.9324Z" stroke="black" stroke-width="1.70619" stroke-linecap="round" stroke-linejoin="round"/>
<path d="M83.2548 23.4257V36.9665C82.3229 38.4937 81.1408 39.8515 79.7667 40.9834C79.6241 41.1006 79.4795 41.2159 79.3329 41.3279V25.6901L69.6274 20.0868L59.9218 25.6901V41.3285C58.3614 40.1316 57.029 38.6519 56 36.9671V23.4257L69.6274 15.5593L83.2548 23.4257Z" stroke="black" stroke-width="1.70619" stroke-linecap="round" stroke-linejoin="round"/>
<circle cx="30" cy="30" r="29" fill="white" stroke="black" stroke-width="2"/>
<path d="M42.8349 40.2421C42.7757 40.133 42.6956 40.0367 42.5992 39.9587C42.5027 39.8807 42.3918 39.8225 42.2727 39.7875C42.1537 39.7525 42.0289 39.7414 41.9056 39.7547C41.7822 39.7681 41.6628 39.8057 41.554 39.8653C41.5022 39.8983 36.2843 42.6909 30.1952 42.6909C21.7845 42.6909 15.5965 38.0146 15.5165 37.9816C15.3185 37.8293 15.0681 37.7618 14.8204 37.794C14.5727 37.8262 14.3479 37.9556 14.1955 38.1535C14.0431 38.3515 13.9757 38.6019 14.0079 38.8496C14.0401 39.0973 14.1694 39.3221 14.3674 39.4745C19.0046 42.7409 24.5234 44.5242 30.1952 44.5887C34.4551 44.4999 38.6402 43.452 42.4393 41.523C42.55 41.4655 42.6481 41.3866 42.728 41.2908C42.8079 41.1951 42.868 41.0844 42.9048 40.9652C42.9416 40.8461 42.9544 40.7208 42.9424 40.5966C42.9304 40.4725 42.8939 40.352 42.8349 40.2421Z" fill="black"/>
<path d="M45.2743 37.4919C44.3005 37.2494 43.294 37.1652 42.2933 37.2423C41.4318 37.3726 40.5815 37.5694 39.7503 37.8309C39.6325 37.8687 39.5233 37.9292 39.4289 38.0092C39.3345 38.0891 39.2568 38.1868 39.2001 38.2968C39.1435 38.4068 39.1091 38.5269 39.0989 38.6501C39.0886 38.7734 39.1028 38.8975 39.1405 39.0153C39.1782 39.1331 39.2388 39.2424 39.3187 39.3368C39.3987 39.4312 39.4964 39.5089 39.6064 39.5655C39.7164 39.6222 39.8364 39.6566 39.9597 39.6668C40.083 39.677 40.2071 39.6629 40.3249 39.6252C41.0455 39.3988 41.7823 39.2272 42.5288 39.1119C43.0317 39.0693 43.538 39.0899 44.0358 39.1731C43.9864 39.7198 43.8562 40.2562 43.6496 40.7648C43.2986 41.395 42.8681 41.9774 42.3687 42.4978C42.1945 42.677 42.0986 42.9181 42.1021 43.1681C42.1056 43.418 42.2083 43.6563 42.3875 43.8305C42.5668 44.0048 42.8079 44.1007 43.0578 44.0971C43.3077 44.0936 43.546 43.9909 43.7203 43.8117C44.3586 43.1513 44.9079 42.4104 45.3544 41.6078C45.7562 40.5981 45.9747 39.5248 45.9995 38.4384C46.0064 38.2212 45.938 38.0083 45.8058 37.8358C45.6736 37.6632 45.4858 37.5417 45.2743 37.4919Z" fill="black"/>
<path fill-rule="evenodd" clip-rule="evenodd" d="M35.4198 35.7057C35.1896 35.9054 34.8585 35.9391 34.5928 35.7894C33.4316 34.8228 33.2201 34.3771 32.5883 33.4565C30.6642 35.4146 29.3047 36 26.8166 36C23.8705 36 21.578 34.1815 21.578 30.5445C21.578 27.7039 23.1273 25.7735 25.296 24.8256C27.1951 23.9923 29.8473 23.8408 31.876 23.6116V23.159C31.876 22.3261 31.941 21.3405 31.4516 20.6186C31.024 19.9745 30.2126 19.7112 29.4875 19.7112C28.1521 19.7112 26.9626 20.3957 26.6711 21.8117C26.6342 22.1419 26.3804 22.4062 26.0515 22.4562L22.6874 22.0873C22.5196 22.0632 22.369 21.9718 22.2708 21.8335C22.1721 21.6952 22.1348 21.5229 22.1671 21.3564C22.9444 17.2422 26.6624 16 29.9929 16C31.6968 16 33.9206 16.4521 35.2592 17.7412C36.9604 19.3336 36.8084 21.4587 36.8084 23.7667V29.2163C36.8084 30.8583 37.4898 31.577 38.1316 32.4599C38.3545 32.7696 38.4041 33.1567 38.1316 33.3891C37.4161 33.9868 36.1457 35.0898 35.4489 35.7125L35.4198 35.7057ZM31.8914 27.1735C31.8914 28.5363 31.9224 29.6739 31.2378 30.8911C30.6802 31.8758 29.7973 32.4835 28.8121 32.4835C27.4702 32.4835 26.687 31.4615 26.687 29.9432C26.687 26.9629 29.3602 26.4207 31.8914 26.4207V27.1799V27.1735Z" stroke="black" stroke-width="2" stroke-linecap="round" stroke-linejoin="round"/>
</svg>
