<svg viewBox="0 0 61 60" fill="none" xmlns="http://www.w3.org/2000/svg">
<path d="M23.1646 48.2812C26.4065 53.8856 32.466 57.6562 39.4062 57.6562C49.7615 57.6562 58.1562 49.2616 58.1562 38.9062C58.1562 28.5509 49.7615 20.1562 39.4062 20.1562H25.3437" stroke="white" stroke-width="2" stroke-miterlimit="10" stroke-linecap="round" stroke-linejoin="round"/>
<path d="M35.6562 39.8438H21.5937C11.2384 39.8438 2.84375 31.4491 2.84375 21.0938C2.84375 10.7384 11.2384 2.34375 21.5937 2.34375C28.5339 2.34375 34.5934 6.11437 37.8353 11.7188" stroke="white" stroke-width="2" stroke-miterlimit="10" stroke-linecap="round" stroke-linejoin="round"/>
<path d="M21.7877 12.9697L17.5359 17.5207C16.7534 18.3584 16.2744 19.4832 16.2744 20.72C16.2744 21.9568 16.7534 23.0817 17.5359 23.9194L21.7877 28.4704" stroke="white" stroke-width="2" stroke-miterlimit="10" stroke-linecap="round" stroke-linejoin="round"/>
<path d="M39.1294 47.1129L43.3812 42.562C44.1638 41.7243 44.6427 40.5994 44.6427 39.3626C44.6427 38.1258 44.1638 37.0009 43.3812 36.1633L39.1294 31.6123" stroke="white" stroke-width="2" stroke-miterlimit="10" stroke-linecap="round" stroke-linejoin="round"/>
</svg>
