<svg viewBox="0 0 61 60" fill="none" xmlns="http://www.w3.org/2000/svg">
<g clip-path="url(#clip0_39_1358)">
<mask id="mask0_39_1358" style="mask-type:luminance" maskUnits="userSpaceOnUse" x="0" y="0" width="61" height="60">
<path d="M0.5 7.62939e-06H60.5V60H0.5V7.62939e-06Z" fill="white"/>
</mask>
<g mask="url(#mask0_39_1358)">
<path d="M30.5 44.0625C22.7461 44.0625 16.4375 37.7539 16.4375 30C16.4375 22.2461 22.7461 15.9375 30.5 15.9375C38.2539 15.9375 44.5625 22.2461 44.5625 30C44.5625 37.7539 38.2539 44.0625 30.5 44.0625Z" stroke="white" stroke-width="2" stroke-miterlimit="10"/>
<path d="M30.5 30C28.5584 30 26.9844 28.4259 26.9844 26.4844C26.9844 24.5428 28.5584 22.9688 30.5 22.9688C32.4416 22.9688 34.0156 24.5428 34.0156 26.4844" stroke="white" stroke-width="2" stroke-miterlimit="10"/>
<path d="M30.5 30C32.4416 30 34.0156 31.5741 34.0156 33.5156C34.0156 35.4572 32.4416 37.0312 30.5 37.0312C28.5584 37.0312 26.9844 35.4572 26.9844 33.5156" stroke="white" stroke-width="2" stroke-miterlimit="10"/>
<path d="M30.5 37.0313V40.5469" stroke="white" stroke-width="2" stroke-miterlimit="10"/>
<path d="M30.5 19.4531V22.9688" stroke="white" stroke-width="2" stroke-miterlimit="10"/>
<path d="M58.7422 33.5156V26.4844L50.8546 24.5418C50.373 22.7421 49.6665 21.0389 48.7546 19.4629L52.8733 12.5985L47.9015 7.6268L41.037 11.7454C39.461 10.8336 37.7579 10.1268 35.9581 9.64524L34.0156 1.75782H26.9844L25.0418 9.64524C23.2421 10.1268 21.539 10.8336 19.963 11.7454L13.0985 7.6268L8.1268 12.5985L12.2453 19.4629C11.3335 21.0389 10.627 22.7421 10.1452 24.5418L2.25781 26.4844V33.5156L10.1452 35.4582C10.627 37.2579 11.3335 38.9612 12.2453 40.537L8.1268 47.4013L13.0985 52.3732L19.9629 48.2547C21.5388 49.1665 23.2421 49.873 25.0418 50.3548L26.9844 58.2422H34.0156L35.9581 50.3548C37.7579 49.873 39.4612 49.1665 41.0373 48.2547L47.9015 52.3732L52.8733 47.4013L48.7546 40.537C49.6665 38.9612 50.373 37.2579 50.8546 35.4582L58.7422 33.5156Z" stroke="white" stroke-width="2" stroke-miterlimit="10"/>
</g>
</g>
<defs>
<clipPath id="clip0_39_1358">
<rect width="60" height="60" fill="white" transform="translate(0.5)"/>
</clipPath>
</defs>
</svg>
