<svg viewBox="0 0 61 60" fill="none" xmlns="http://www.w3.org/2000/svg">
<g clip-path="url(#clip0_39_1321)">
<mask id="mask0_39_1321" style="mask-type:luminance" maskUnits="userSpaceOnUse" x="0" y="0" width="61" height="60">
<path d="M0.5 7.62939e-06H60.5V60H0.5V7.62939e-06Z" fill="white"/>
</mask>
<g mask="url(#mask0_39_1321)">
<path d="M55.2266 15.8203H5.77344C3.83187 15.8203 2.25781 14.2463 2.25781 12.3047V5.27344C2.25781 3.33188 3.83187 1.75781 5.77344 1.75781H55.2266C57.1681 1.75781 58.7422 3.33188 58.7422 5.27344V12.3047C58.7422 14.2463 57.1681 15.8203 55.2266 15.8203Z" stroke="white" stroke-width="2" stroke-miterlimit="10" stroke-linecap="round" stroke-linejoin="round"/>
<path d="M11.0469 8.78906C11.0469 9.75984 10.2598 10.5469 9.28906 10.5469C8.31828 10.5469 7.53125 9.75984 7.53125 8.78906C7.53125 7.81828 8.31828 7.03125 9.28906 7.03125C10.2598 7.03125 11.0469 7.81828 11.0469 8.78906Z" fill="white"/>
<path d="M18.0781 8.78906C18.0781 9.75984 17.2911 10.5469 16.3203 10.5469C15.3495 10.5469 14.5625 9.75984 14.5625 8.78906C14.5625 7.81828 15.3495 7.03125 16.3203 7.03125C17.2911 7.03125 18.0781 7.81828 18.0781 8.78906Z" fill="white"/>
<path d="M25.1094 8.78906C25.1094 9.75984 24.3223 10.5469 23.3516 10.5469C22.3808 10.5469 21.5938 9.75984 21.5938 8.78906C21.5938 7.81828 22.3808 7.03125 23.3516 7.03125C24.3223 7.03125 25.1094 7.81828 25.1094 8.78906Z" fill="white"/>
<path d="M37.6484 8.78906H51.7109" stroke="white" stroke-width="2" stroke-miterlimit="10" stroke-linecap="round" stroke-linejoin="round"/>
<path d="M55.2266 37.0312H5.77344C3.83187 37.0312 2.25781 35.4572 2.25781 33.5156V26.4844C2.25781 24.5428 3.83187 22.9688 5.77344 22.9688H55.2266C57.1681 22.9688 58.7422 24.5428 58.7422 26.4844V33.5156C58.7422 35.4572 57.1681 37.0312 55.2266 37.0312Z" stroke="white" stroke-width="2" stroke-miterlimit="10" stroke-linecap="round" stroke-linejoin="round"/>
<path d="M11.0469 30C11.0469 30.9708 10.2598 31.7578 9.28906 31.7578C8.31828 31.7578 7.53125 30.9708 7.53125 30C7.53125 29.0292 8.31828 28.2422 9.28906 28.2422C10.2598 28.2422 11.0469 29.0292 11.0469 30Z" fill="white"/>
<path d="M18.0781 30C18.0781 30.9708 17.2911 31.7578 16.3203 31.7578C15.3495 31.7578 14.5625 30.9708 14.5625 30C14.5625 29.0292 15.3495 28.2422 16.3203 28.2422C17.2911 28.2422 18.0781 29.0292 18.0781 30Z" fill="white"/>
<path d="M25.1094 30C25.1094 30.9708 24.3223 31.7578 23.3516 31.7578C22.3808 31.7578 21.5938 30.9708 21.5938 30C21.5938 29.0292 22.3808 28.2422 23.3516 28.2422C24.3223 28.2422 25.1094 29.0292 25.1094 30Z" fill="white"/>
<path d="M37.6484 30H51.7109" stroke="white" stroke-width="2" stroke-miterlimit="10" stroke-linecap="round" stroke-linejoin="round"/>
<path d="M55.2266 58.2422H5.77344C3.83187 58.2422 2.25781 56.6681 2.25781 54.7266V47.6953C2.25781 45.7538 3.83187 44.1797 5.77344 44.1797H55.2266C57.1681 44.1797 58.7422 45.7538 58.7422 47.6953V54.7266C58.7422 56.6681 57.1681 58.2422 55.2266 58.2422Z" stroke="white" stroke-width="2" stroke-miterlimit="10" stroke-linecap="round" stroke-linejoin="round"/>
<path d="M11.0469 51.2109C11.0469 52.1817 10.2598 52.9688 9.28906 52.9688C8.31828 52.9688 7.53125 52.1817 7.53125 51.2109C7.53125 50.2402 8.31828 49.4531 9.28906 49.4531C10.2598 49.4531 11.0469 50.2402 11.0469 51.2109Z" fill="white"/>
<path d="M18.0781 51.2109C18.0781 52.1817 17.2911 52.9688 16.3203 52.9688C15.3495 52.9688 14.5625 52.1817 14.5625 51.2109C14.5625 50.2402 15.3495 49.4531 16.3203 49.4531C17.2911 49.4531 18.0781 50.2402 18.0781 51.2109Z" fill="white"/>
<path d="M25.1094 51.2109C25.1094 52.1817 24.3223 52.9688 23.3516 52.9688C22.3808 52.9688 21.5938 52.1817 21.5938 51.2109C21.5938 50.2402 22.3808 49.4531 23.3516 49.4531C24.3223 49.4531 25.1094 50.2402 25.1094 51.2109Z" fill="white"/>
<path d="M37.6484 51.2109H51.7109" stroke="white" stroke-width="2" stroke-miterlimit="10" stroke-linecap="round" stroke-linejoin="round"/>
</g>
</g>
<defs>
<clipPath id="clip0_39_1321">
<rect width="60" height="60" fill="white" transform="translate(0.5)"/>
</clipPath>
</defs>
</svg>
