<svg viewBox="0 0 61 60" fill="none" xmlns="http://www.w3.org/2000/svg">
<g clip-path="url(#clip0_39_1377)">
<mask id="mask0_39_1377" style="mask-type:luminance" maskUnits="userSpaceOnUse" x="0" y="0" width="61" height="60">
<path d="M0.5 7.62939e-06H60.5V60H0.5V7.62939e-06Z" fill="white"/>
</mask>
<g mask="url(#mask0_39_1377)">
<path d="M49.7187 28.8281H54.6406C56.9059 28.8281 58.7422 26.9918 58.7422 24.7266C58.7422 22.4613 56.9059 20.625 54.6406 20.625H49.7187C47.4535 20.625 45.6172 22.4613 45.6172 24.7266C45.6172 26.9918 47.4535 28.8281 49.7187 28.8281Z" stroke="white" stroke-width="2" stroke-miterlimit="10" stroke-linecap="round" stroke-linejoin="round"/>
<path d="M49.7187 37.0312H54.6406C56.9059 37.0312 58.7422 35.1949 58.7422 32.9297C58.7422 30.6645 56.9059 28.8281 54.6406 28.8281H49.7187C47.4535 28.8281 45.6172 30.6645 45.6172 32.9297C45.6172 35.1949 47.4535 37.0312 49.7187 37.0312Z" stroke="white" stroke-width="2" stroke-miterlimit="10" stroke-linecap="round" stroke-linejoin="round"/>
<path d="M49.7187 45.2344H54.6406C56.9059 45.2344 58.7422 43.398 58.7422 41.1328C58.7422 38.8676 56.9059 37.0313 54.6406 37.0313H49.7187C47.4535 37.0313 45.6172 38.8676 45.6172 41.1328C45.6172 43.398 47.4535 45.2344 49.7187 45.2344Z" stroke="white" stroke-width="2" stroke-miterlimit="10" stroke-linecap="round" stroke-linejoin="round"/>
<path d="M49.7187 53.4375H54.6406C56.9059 53.4375 58.7422 51.6012 58.7422 49.3359C58.7422 47.0707 56.9059 45.2344 54.6406 45.2344H49.7187C47.4535 45.2344 45.6172 47.0707 45.6172 49.3359C45.6172 51.6012 47.4535 53.4375 49.7187 53.4375Z" stroke="white" stroke-width="2" stroke-miterlimit="10" stroke-linecap="round" stroke-linejoin="round"/>
<path d="M49.1328 20.625V5.27344C49.1328 3.33188 47.5587 1.75782 45.6172 1.75782H18.6641C16.7225 1.75782 15.1484 3.33188 15.1484 5.27344V20.625" stroke="white" stroke-width="2" stroke-miterlimit="10" stroke-linecap="round" stroke-linejoin="round"/>
<path d="M26.8672 8.78906C26.8672 9.75984 26.0802 10.5469 25.1094 10.5469C24.1386 10.5469 23.3516 9.75984 23.3516 8.78906C23.3516 7.81828 24.1386 7.03125 25.1094 7.03125C26.0802 7.03125 26.8672 7.81828 26.8672 8.78906Z" fill="white"/>
<path d="M33.8984 8.78906C33.8984 9.75984 33.1114 10.5469 32.1406 10.5469C31.1698 10.5469 30.3828 9.75984 30.3828 8.78906C30.3828 7.81828 31.1698 7.03125 32.1406 7.03125C33.1114 7.03125 33.8984 7.81828 33.8984 8.78906Z" fill="white"/>
<path d="M40.9297 8.78906C40.9297 9.75984 40.1427 10.5469 39.1719 10.5469C38.2011 10.5469 37.4141 9.75984 37.4141 8.78906C37.4141 7.81828 38.2011 7.03125 39.1719 7.03125C40.1427 7.03125 40.9297 7.81828 40.9297 8.78906Z" fill="white"/>
<path d="M15.1484 35.8594V54.7266C15.1484 56.6681 16.7225 58.2422 18.6641 58.2422H46.7891C48.7306 58.2422 50.3047 56.6681 50.3047 54.7266V53.4375" stroke="white" stroke-width="2" stroke-miterlimit="10" stroke-linecap="round" stroke-linejoin="round"/>
<path d="M17.4922 28.8281H26.2812C28.5465 28.8281 30.3828 26.9918 30.3828 24.7266C30.3828 22.4613 28.5465 20.625 26.2812 20.625H11.0257C8.5025 20.625 6.1727 21.977 4.9209 24.1677L2.25781 28.8281V53.4375H15.1484" stroke="white" stroke-width="2" stroke-miterlimit="10" stroke-linecap="round" stroke-linejoin="round"/>
<path d="M26.2812 41.7188C26.2812 44.9548 28.9046 47.5781 32.1406 47.5781C35.3766 47.5781 38 44.9548 38 41.7188C38 38.4827 35.3766 35.8594 32.1406 35.8594C28.9046 35.8594 26.2812 38.4827 26.2812 41.7188Z" stroke="white" stroke-width="2" stroke-miterlimit="10" stroke-linecap="round" stroke-linejoin="round"/>
<path d="M17.4922 28.8281V31.1719C17.4922 34.4079 14.8688 37.0312 11.6328 37.0312" stroke="white" stroke-width="2" stroke-miterlimit="10" stroke-linecap="round" stroke-linejoin="round"/>
<path d="M29.6311 27.0923C30.3918 27.4535 31.2426 27.6562 32.1409 27.6562C35.3769 27.6562 38.0002 25.033 38.0002 21.7969C38.0002 18.5609 35.3769 15.9375 32.1409 15.9375C29.3052 15.9375 26.9402 17.9521 26.3984 20.628" stroke="white" stroke-width="2" stroke-miterlimit="10" stroke-linecap="round" stroke-linejoin="round"/>
</g>
</g>
<defs>
<clipPath id="clip0_39_1377">
<rect width="60" height="60" fill="white" transform="translate(0.5)"/>
</clipPath>
</defs>
</svg>
