<svg viewBox="0 0 61 60" fill="none" xmlns="http://www.w3.org/2000/svg">
<path d="M52.034 52H5.5C3.843 52 2.5 50.657 2.5 49L2.5 11C2.5 9.343 3.843 8 5.5 8L55.5 8C57.157 8 58.5 9.343 58.5 11V49C58.5 50.657 57.157 52 55.5 52H49.099" stroke="black" stroke-width="2" stroke-miterlimit="10"/>
<rect x="3.5" y="31" width="54" height="2" fill="black"/>
<rect x="6.5" y="38" width="9" height="2" fill="black"/>
<path d="M24.5 38H43.5V40H24.5V38Z" fill="black"/>
<path d="M47.5 38H54.5V40H47.5V38Z" fill="black"/>
<path d="M45.7474 36.0048C46.6247 36.0048 47.341 36.783 47.341 37.7363V40.2731C47.341 41.2264 46.6247 42.0048 45.7474 42.0048C44.8729 42.0048 44.1567 41.2264 44.1567 40.2731V37.7363C44.1567 36.783 44.8729 36.0048 45.7474 36.0048Z" stroke="black" stroke-width="2" stroke-miterlimit="10" stroke-linecap="round" stroke-linejoin="round"/>
<path d="M32.5 44H54.5V46H32.5V44Z" fill="black"/>
<path d="M24.5 44H29.5V46H24.5V44Z" fill="black"/>
<path d="M30.7474 42.0048C31.6247 42.0048 32.341 42.783 32.341 43.7363V46.2731C32.341 47.2264 31.6247 48.0048 30.7474 48.0048C29.8729 48.0048 29.1567 47.2264 29.1567 46.2731V43.7363C29.1567 42.783 29.8729 42.0048 30.7474 42.0048Z" stroke="black" stroke-width="2" stroke-miterlimit="10" stroke-linecap="round" stroke-linejoin="round"/>
<rect x="6.5" y="44" width="9" height="2" fill="black"/>
<rect x="19" y="36" width="2" height="12" fill="black"/>
<path d="M46.0056 19.027C46.1681 19.0096 46.3329 19 46.5 19C48.9851 19 51 21.0149 51 23.5C51 25.9851 48.9851 28 46.5 28C44.0149 28 42 25.9851 42 23.5C42 22.5342 42.3043 21.6392 42.8218 20.9069" stroke="black" stroke-width="2" stroke-miterlimit="10"/>
<path d="M42 18.5C39.8333 17 34.3 14.8 29.5 18C24.7 21.2 24.1666 25.6667 24.5 27.5" stroke="black" stroke-width="2" stroke-dasharray="6 3"/>
<path d="M10.0455 15.999L9.04654 16.0444L8.95573 14.0465L9.9547 14.0011L10.0455 15.999ZM20.8913 21.2265L20.3255 20.4019L21.9746 19.2704L22.5404 20.0949L20.8913 21.2265ZM17.6698 15.6266L18.5494 16.1023L17.5981 17.8615L16.7185 17.3859L17.6698 15.6266ZM23.5136 27.6644C23.3009 26.3879 22.5881 23.6994 20.8913 21.2265L22.5404 20.0949C24.4495 22.8772 25.2415 25.8664 25.4864 27.3356L23.5136 27.6644ZM16.7185 17.3859C14.9873 16.4498 12.8055 15.8736 10.0455 15.999L9.9547 14.0011C13.0577 13.86 15.6025 14.5088 17.6698 15.6266L16.7185 17.3859Z" fill="black"/>
</svg>
