<svg viewBox="0 0 61 60" fill="none" xmlns="http://www.w3.org/2000/svg">
<path d="M56.7508 49.827V55.2216C56.7508 56.7557 55.5064 58 53.9724 58H9.13578C7.60063 58 6.35742 56.7557 6.35742 55.2216V27.1017" stroke="black" stroke-width="2" stroke-miterlimit="10" stroke-linecap="round" stroke-linejoin="round"/>
<path d="M56.751 49.942V26.3081" stroke="black" stroke-width="2" stroke-miterlimit="10" stroke-linecap="round" stroke-linejoin="round"/>
<path d="M45.4138 10.8046L15.7832 18.7411" stroke="black" stroke-width="2" stroke-miterlimit="10" stroke-linecap="round" stroke-linejoin="round"/>
<path d="M11.2656 14.3988L54.2985 2.87243C54.9234 2.70593 55.565 3.07556 55.7315 3.69828L56.6672 7.18704C56.7505 7.49784 56.5651 7.81753 56.2532 7.90078L43.7498 11.25" stroke="black" stroke-width="2" stroke-miterlimit="10" stroke-linecap="round" stroke-linejoin="round"/>
<path d="M17.627 20.5208H57.9159C58.2386 20.5208 58.5001 20.7823 58.5001 21.105V24.7154C58.5001 25.3606 57.9769 25.8838 57.3317 25.8838H19.4766" stroke="black" stroke-width="2" stroke-miterlimit="10" stroke-linecap="round" stroke-linejoin="round"/>
<path d="M10.0769 26.8898H5.41379C4.26493 26.8898 3.33252 25.9585 3.33252 24.8085V16.2326C3.33252 15.0837 4.26493 14.1513 5.41379 14.1513H9.52304C10.2279 14.1513 10.9072 14.4199 11.4212 14.9028L18.8194 21.8392C19.239 22.2333 19.4765 22.7816 19.4765 23.3566V24.8085C19.4765 25.9585 18.5441 26.8898 17.3952 26.8898H13.962" stroke="black" stroke-width="2" stroke-miterlimit="10" stroke-linecap="round" stroke-linejoin="round"/>
<path d="M18.8906 12.4598L25.3036 15.8928" stroke="black" stroke-width="2" stroke-miterlimit="10" stroke-linecap="round" stroke-linejoin="round"/>
<path d="M27.8447 10.0613L34.2357 13.4824" stroke="black" stroke-width="2" stroke-miterlimit="10" stroke-linecap="round" stroke-linejoin="round"/>
<path d="M36.7998 7.66284L43.2361 11.1082" stroke="black" stroke-width="2" stroke-miterlimit="10" stroke-linecap="round" stroke-linejoin="round"/>
<path d="M45.7539 5.26428L52.1055 8.66435" stroke="black" stroke-width="2" stroke-miterlimit="10" stroke-linecap="round" stroke-linejoin="round"/>
<path d="M20.645 25.7845L26.0531 20.7132" stroke="black" stroke-width="2" stroke-miterlimit="10" stroke-linecap="round" stroke-linejoin="round"/>
<path d="M29.9155 25.7845L35.3146 20.7216" stroke="black" stroke-width="2" stroke-miterlimit="10" stroke-linecap="round" stroke-linejoin="round"/>
<path d="M39.186 25.7845L44.5776 20.7287" stroke="black" stroke-width="2" stroke-miterlimit="10" stroke-linecap="round" stroke-linejoin="round"/>
<path d="M48.4565 25.7845L53.8967 20.6831" stroke="black" stroke-width="2" stroke-miterlimit="10" stroke-linecap="round" stroke-linejoin="round"/>
</svg>
