<svg width="1440" height="482" viewBox="0 0 1440 482" fill="none" xmlns="http://www.w3.org/2000/svg">
<rect width="1440" height="482" fill="transparent"/>
<path d="M90 308C90 303.582 86.4183 300 82 300C77.5817 300 74 303.582 74 308C74 312.418 77.5817 316 82 316C86.4183 316 90 312.418 90 308Z" fill="white"/>
<path d="M88 308C88 304.686 85.3137 302 82 302C78.6863 302 76 304.686 76 308C76 311.314 78.6863 314 82 314C85.3137 314 88 311.314 88 308Z" stroke="#4DA7EF" stroke-width="4"/>
<path d="M244 286C244 281.582 240.418 278 236 278C231.582 278 228 281.582 228 286C228 290.418 231.582 294 236 294C240.418 294 244 290.418 244 286Z" fill="white"/>
<path d="M242 286C242 282.686 239.314 280 236 280C232.686 280 230 282.686 230 286C230 289.314 232.686 292 236 292C239.314 292 242 289.314 242 286Z" stroke="#4DA7EF" stroke-width="4"/>
<path d="M398 226C398 221.582 394.418 218 390 218C385.582 218 382 221.582 382 226C382 230.418 385.582 234 390 234C394.418 234 398 230.418 398 226Z" fill="white"/>
<path d="M396 226C396 222.686 393.314 220 390 220C386.686 220 384 222.686 384 226C384 229.314 386.686 232 390 232C393.314 232 396 229.314 396 226Z" stroke="#4DA7EF" stroke-width="4"/>
<path d="M552 206C552 201.582 548.418 198 544 198C539.582 198 536 201.582 536 206C536 210.418 539.582 214 544 214C548.418 214 552 210.418 552 206Z" fill="white"/>
<path d="M550 206C550 202.686 547.314 200 544 200C540.686 200 538 202.686 538 206C538 209.314 540.686 212 544 212C547.314 212 550 209.314 550 206Z" stroke="#4DA7EF" stroke-width="4"/>
<path d="M704 164C704 159.582 700.418 156 696 156C691.582 156 688 159.582 688 164C688 168.418 691.582 172 696 172C700.418 172 704 168.418 704 164Z" fill="white"/>
<path d="M702 164C702 160.686 699.314 158 696 158C692.686 158 690 160.686 690 164C690 167.314 692.686 170 696 170C699.314 170 702 167.314 702 164Z" stroke="#4DA7EF" stroke-width="4"/>
<path d="M858 186C858 181.582 854.418 178 850 178C845.582 178 842 181.582 842 186C842 190.418 845.582 194 850 194C854.418 194 858 190.418 858 186Z" fill="white"/>
<path d="M856 186C856 182.686 853.314 180 850 180C846.686 180 844 182.686 844 186C844 189.314 846.686 192 850 192C853.314 192 856 189.314 856 186Z" stroke="#4DA7EF" stroke-width="4"/>
<path d="M1012 164C1012 159.582 1008.42 156 1004 156C999.582 156 996 159.582 996 164C996 168.418 999.582 172 1004 172C1008.42 172 1012 168.418 1012 164Z" fill="white"/>
<path d="M1010 164C1010 160.686 1007.31 158 1004 158C1000.69 158 998 160.686 998 164C998 167.314 1000.69 170 1004 170C1007.31 170 1010 167.314 1010 164Z" stroke="#4DA7EF" stroke-width="4"/>
<path d="M1166 106C1166 101.582 1162.42 98 1158 98C1153.58 98 1150 101.582 1150 106C1150 110.418 1153.58 114 1158 114C1162.42 114 1166 110.418 1166 106Z" fill="white"/>
<path d="M1164 106C1164 102.686 1161.31 100 1158 100C1154.69 100 1152 102.686 1152 106C1152 109.314 1154.69 112 1158 112C1161.31 112 1164 109.314 1164 106Z" stroke="#4DA7EF" stroke-width="4"/>
<path d="M1320 78C1320 73.5817 1316.42 70 1312 70C1307.58 70 1304 73.5817 1304 78C1304 82.4183 1307.58 86 1312 86C1316.42 86 1320 82.4183 1320 78Z" fill="white"/>
<path d="M1318 78C1318 74.6863 1315.31 72 1312 72C1308.69 72 1306 74.6863 1306 78C1306 81.3137 1308.69 84 1312 84C1315.31 84 1318 81.3137 1318 78Z" stroke="#4DA7EF" stroke-width="4"/>
</svg>
