<svg width="100%" height="100%" viewBox="0 0 60 60" fill="none" xmlns="http://www.w3.org/2000/svg">
<path d="M40 31V26" stroke="currentColor" stroke-width="2" stroke-miterlimit="10"/>
<path d="M40 20V9C40 7.895 39.105 7 38 7H4C2.895 7 2 7.895 2 9V55C2 56.105 2.895 57 4 57H38C39.105 57 40 56.105 40 55V37" stroke="currentColor" stroke-width="2" stroke-miterlimit="10"/>
<path d="M2 49H40" stroke="currentColor" stroke-width="2" stroke-miterlimit="10"/>
<path d="M18 53H24" stroke="currentColor" stroke-width="2" stroke-miterlimit="10"/>
<path d="M6 23V17H10V23" stroke="currentColor" stroke-width="2" stroke-miterlimit="10"/>
<path d="M22 23V15H26V23" stroke="currentColor" stroke-width="2" stroke-miterlimit="10"/>
<path d="M14 23V11H18V23" stroke="currentColor" stroke-width="2" stroke-miterlimit="10"/>
<path d="M5 34H7L10 28L13 40L16 34H19" stroke="currentColor" stroke-width="2" stroke-miterlimit="10"/>
<path d="M33 26C34.6569 26 36 24.6569 36 23C36 21.3431 34.6569 20 33 20C31.3431 20 30 21.3431 30 23C30 24.6569 31.3431 26 33 26Z" stroke="currentColor" stroke-width="2" stroke-miterlimit="10"/>
<path d="M51 20V23H36" stroke="currentColor" stroke-width="2" stroke-miterlimit="10"/>
<path d="M25 37C26.6569 37 28 35.6569 28 34C28 32.3431 26.6569 31 25 31C23.3431 31 22 32.3431 22 34C22 35.6569 23.3431 37 25 37Z" stroke="currentColor" stroke-width="2" stroke-miterlimit="10"/>
<path d="M51 43.232C50.259 42.473 49.227 42 48.083 42C45.828 42 44 43.828 44 46.083C44 47.289 44.523 48.372 45.354 49.12L51 53.333L56.646 49.12C57.478 48.373 58 47.289 58 46.083C58 43.828 56.172 42 53.917 42C52.773 42 51.741 42.473 51 43.232Z" stroke="currentColor" stroke-width="2" stroke-miterlimit="10"/>
<path d="M51 39V34H28" stroke="currentColor" stroke-width="2" stroke-miterlimit="10"/>
<path d="M49 13H53" stroke="currentColor" stroke-width="2" stroke-miterlimit="10"/>
<path d="M53 13C54.242 9.795 55 9 55 7C55 4.791 53.209 3 51 3C48.791 3 47 4.791 47 7C47 9 47.758 9.795 49 13V16C49 16.552 49.448 17 50 17H52C52.552 17 53 16.552 53 16V13Z" stroke="currentColor" stroke-width="2" stroke-miterlimit="10"/>
</svg>
