<svg width="100%" height="100%" viewBox="0 0 60 60" fill="none" xmlns="http://www.w3.org/2000/svg">
<path d="M26.127 16.511C26.127 16.511 31.167 13.736 32.789 12.714C33.596 12.206 34.125 11.411 34.125 10.5C34.125 9.119 33.006 8 31.625 8C31.155 8 30.547 8.223 30.172 8.449C30.172 8.449 25.051 11.288 23.341 12.355C22.57 12.835 22.125 13.589 22.125 14.5C22.125 15.881 23.244 17 24.625 17C25.095 17 25.751 16.736 26.127 16.511Z" stroke="currentColor" stroke-width="2" stroke-miterlimit="10"/>
<path d="M26.96 10.249L29.668 14.534" stroke="currentColor" stroke-width="2" stroke-miterlimit="10"/>
<path d="M40.125 15.353C43.125 19.671 50.125 26 57.125 27C57.125 47 48.125 55.165 40.125 57.165C32.125 55.165 23.125 47 23.125 27C30.125 26 37.125 19.671 40.125 15.353Z" stroke="currentColor" stroke-width="2" stroke-miterlimit="10"/>
<path d="M34.125 41C34.125 43.209 35.778 45 37.817 45H42.432C44.472 45 46.125 43.209 46.125 41C46.125 38.791 44.472 37 42.433 37H37.818C35.778 37 34.125 35.209 34.125 33C34.125 30.791 35.778 29 37.817 29H42.432C44.472 29 46.125 30.791 46.125 33" stroke="currentColor" stroke-width="2" stroke-miterlimit="10"/>
<path d="M40.125 29V25" stroke="currentColor" stroke-width="2" stroke-miterlimit="10"/>
<path d="M40.125 45V49" stroke="currentColor" stroke-width="2" stroke-miterlimit="10"/>
<path d="M26.806 45.683C26.806 45.683 20.125 47 18.625 47C17.417 47 16.409 46.144 16.176 45.005C16.156 44.908 16.125 44.655 16.117 44.555C16.117 44.555 13.379 18.954 11.118 9.766C10.557 7.485 9.256 6 7.125 6C4.916 6 3.125 7.791 3.125 10C3.125 16.5 2 21.125 2 21.125L8.849 19.88" stroke="currentColor" stroke-width="2" stroke-miterlimit="10"/>
<path d="M19.9424 34.627L15.0244 35.085" stroke="currentColor" stroke-width="2" stroke-miterlimit="10"/>
<path d="M19.9417 27.534L14.1357 28.075" stroke="currentColor" stroke-width="2" stroke-miterlimit="10"/>
<path d="M30.9688 19.88L13.3008 22.059" stroke="currentColor" stroke-width="2" stroke-miterlimit="10"/>
<path d="M46.2878 16.817C46.2878 16.817 44.2808 6.023 41.6228 3.876C40.9378 3.328 40.0698 3 39.1248 3C38.1248 3 6.7998 6.013 6.7998 6.013" stroke="currentColor" stroke-width="2" stroke-miterlimit="10"/>
</svg>
