<svg width="100%" height="100%" viewBox="0 0 60 60" fill="none" xmlns="http://www.w3.org/2000/svg">
<path d="M57.697 41.5C57.697 41.5 54.293 43.923 51 47C46.726 50.994 44 56 38 56C32 56 19.621 52.964 19.621 52.964C18.813 52.771 18 51.975 18 51C18 49.895 18.866 49 20 49L32.295 49.992" stroke="currentColor" stroke-width="2" stroke-miterlimit="10"/>
<path d="M41.706 43.459L34.154 49.374C33.47 49.87 32.985 50 32.5 50C31.119 50 30 48.881 30 47.5C30 46.748 30.264 46.166 30.828 45.495C30.828 45.495 35.958 39.795 38 38C43.688 33 55 33 55 33" stroke="currentColor" stroke-width="2" stroke-miterlimit="10"/>
<path d="M2.40625 19.568C2.40625 19.568 6.70725 15.411 10.0002 12.334C14.2743 8.339 19.0002 5 23.0002 5C29.0002 5 41.3793 8.036 41.3793 8.036C42.3023 8.213 43.0003 9.025 43.0003 10C43.0003 11.105 42.1053 12 41.0003 12L28.8153 11.016" stroke="currentColor" stroke-width="2" stroke-miterlimit="10"/>
<path d="M19.329 17.541L26.848 11.625C27.571 11.071 28.015 11 28.5 11C30 11 31 12.058 31 13.5C31 14.61 30.008 15.584 29.501 16.192C29.501 16.192 25.089 21.26 23 23C17 28 6 28 6 28" stroke="currentColor" stroke-width="2" stroke-miterlimit="10"/>
<path d="M21 31H26L29 25.5L33 35.313L36 31H42" stroke="currentColor" stroke-width="2" stroke-miterlimit="10"/>
<path d="M27.2441 18.716C28.8461 19.444 30.2191 20.651 31.4631 21.968C33.5341 19.801 35.8801 18 39.0001 18C43.9711 18 48.0001 22.029 48.0001 27C48.0001 29.605 46.5761 32.21 44.5511 34.597" stroke="currentColor" stroke-width="2" stroke-miterlimit="10"/>
<path d="M31.521 44.731C31.521 44.731 15 35.775 15 26.775" stroke="currentColor" stroke-width="2" stroke-miterlimit="10"/>
</svg>
