<svg viewBox="0 0 160 54" fill="none" xmlns="http://www.w3.org/2000/svg">
<g clip-path="url(#clip0_58849_11338)">
<path d="M86.9942 33.1932V1.75198L81.3411 0.611328L80.8574 2.11229L78.3083 1.62096L77.3546 3.35892L74.6224 2.8464L72.9018 3.74428L72.3642 4.98512V5.04293L72.1889 5.07183L72.3642 4.67299L70.3449 4.27221L70.6262 6.20863L67.1561 5.3358L66.7206 7.15853L67.4682 6.70189L67.6108 5.69996L52.5607 2.73464L49.9422 2.883L45.9557 6.21441L43.3295 11.883L43 12.0815L42.0848 17.3435L36.6879 16.1836L32.3969 19.4514L27.9576 18.4206L26.8228 19.4302L17.0694 17.4919L13.5337 18.3339L9.07517 20.4842L2.3719 25.8483L2.34685 32.4244L10.896 34.1181L10.6166 37.8618L0.00195312 43.3994L16.4721 46.6556L35.0116 50.3204L36.5549 49.3146L38.0482 50.9196L50.5337 53.3878L102.79 36.4167L86.9942 33.1932Z" fill="#0F1740"/>
<path d="M78.7734 11.9504V1.46682L81.3418 0.611328V8.45911L84.7349 7.31268V9.96586L78.7734 11.9504Z" fill="#007DC5"/>
<path d="M64.2422 35.1319V24.6482L66.853 23.7773V34.261L64.2422 35.1319Z" fill="white"/>
<path d="M75.6002 2.52283L73.6407 9.45346L73.0395 8.50741L74.6214 2.84653L71.9644 3.73477L71.3728 5.88892L70.3439 4.27235L68.0183 5.05077L70.5231 8.96791L70.1551 10.3051L67.1551 5.33593L64.6426 6.17408L69.7755 14.9409L71.3921 14.4034L72.184 11.5671L73.5385 13.6866L75.105 13.1625L78.3073 1.62109L75.6002 2.52283Z" fill="#007DC5"/>
<path d="M22.1055 36.0565V33.4399L38.6989 27.9023V30.5189L22.1055 36.0565Z" fill="#EF4123"/>
<path d="M58.2324 24.0251V21.4047L84.7334 12.5762V15.2062L58.2324 24.0251Z" fill="#007DC5"/>
<path d="M48.7246 45.5288L48.7265 42.9161L84.7342 30.9199V33.5423L48.7246 45.5288Z" fill="white"/>
<path d="M102.79 36.4167V4.97546L86.9941 1.75195V33.1932L102.79 36.4167Z" fill="#EF4123"/>
<path d="M102.79 33.7961V31.1757L86.9941 27.9521V30.5726L102.79 33.7961Z" fill="#B61D22"/>
<path d="M102.79 28.5558V25.9354L86.9941 22.7119V25.3323L102.79 28.5558Z" fill="#B61D22"/>
<path d="M102.79 23.3147V20.6962L86.9941 17.4727V20.0912L102.79 23.3147Z" fill="#B61D22"/>
<path d="M102.79 18.0754V15.455L86.9941 12.2314V14.8519L102.79 18.0754Z" fill="#B61D22"/>
<path d="M106.364 12.3975C105.47 12.1855 105.187 12.3242 104.013 12.8348C103.699 12.9697 103.302 12.9273 102.79 12.8348L86.9902 9.61133V12.2298L102.79 15.4553C103.326 15.5745 103.885 15.5499 104.408 15.384C104.692 15.2761 105.536 14.8772 105.431 15.9485V21.7924C105.431 22.5227 105.212 23.172 104.853 23.4476C104.738 23.5381 104.537 23.6402 104.141 23.542L102.792 23.3146L86.9922 20.0911V22.7115L102.792 25.935C103.335 26.0482 103.885 26.1203 104.439 26.1508C105.156 26.1544 105.854 25.9207 106.424 25.4861C107.426 24.7154 108.015 22.9196 107.998 21.382V16.1797C108 14.2703 107.869 12.7501 106.364 12.3975Z" fill="#EF4123"/>
<path d="M102.79 12.8351V10.2147L86.9941 6.99121V9.61163L102.79 12.8351Z" fill="#B61D22"/>
<path d="M102.79 7.59396V4.97546L86.9941 1.75195V4.37045L102.79 7.59396Z" fill="#B61D22"/>
<path d="M21.2774 29.3401C20.6281 26.8083 18.7476 26.475 18.6609 26.4885C19.79 25.4056 20.474 24.1917 20.5607 22.2669C20.6686 19.8256 19.5973 18.5732 18.6339 18.0646C17.104 17.265 15.8285 17.1551 13.4123 17.791C11.5799 18.2727 6.53562 20.1994 2.12907 24.8391C-1.83818 29.0164 -0.0481962 35.0395 6.89207 31.3324V28.5443C6.89207 28.5443 2.47782 31.2245 2.67049 28.7062C2.86317 26.29 8.8362 22.4788 8.8362 22.4788C9.08154 22.335 9.33009 22.1956 9.58186 22.0607V37.5713L-0.00195312 40.7698V43.4056C-0.00195312 43.4056 11.0443 39.7544 12.842 39.1667C13.9143 38.841 14.9662 38.4517 15.9923 38.001C20.2967 36.0588 22.237 33.0858 21.2774 29.3401ZM17.8612 22.0703C17.8497 23.4326 17.2832 24.7987 13.4508 26.2361C13.077 26.3247 12.7264 26.4191 12.4085 26.5097V20.8276C15.316 19.8411 17.8805 19.8989 17.8612 22.0742V22.0703ZM12.4085 36.6098V29.0896C13.2177 28.8545 14.5587 28.4653 14.6397 28.4499C16.5086 28.0646 18.42 28.1359 18.6859 30.7447C18.9711 33.6002 17.0597 34.9509 12.4085 36.6137V36.6098Z" fill="#EF4123"/>
<path d="M62.6567 25.1777L56.1172 27.3511V29.9696L58.2328 29.2664V37.1296L60.7241 36.303V28.4378L62.6567 27.7943V25.1777Z" fill="white"/>
<path d="M38.0476 50.9195L35.011 50.3184V36.9966L22.1016 41.2991V38.6825L38.8646 33.0949L43.5544 41.4783V29.1045C44.4985 29.7172 45.8145 29.8232 46.5428 29.7211V52.6247L38.0476 37.8656V50.9195Z" fill="white"/>
<path d="M71.2534 22.2955C68.7987 23.1992 68.4981 25.8986 68.4981 25.8986V29.862C68.4056 33.4708 71.5097 32.7097 71.5097 32.7097L72.7505 32.2955C75.5347 31.3957 75.3979 28.6635 75.3979 28.6635V25.178C75.5251 21.1279 73.7081 21.3918 71.2534 22.2955ZM73.0916 28.6442C73.0916 28.6442 73.055 29.8446 70.8392 30.3783V26.0643C70.8392 26.0643 70.8758 24.7541 73.0916 24.2165V28.6442Z" fill="white"/>
<path d="M94.905 11.2168L95.9416 14.0588L99.0456 14.6908L96.5736 16.1378L97.72 19.658L94.7971 17.1995L91.8742 18.4673L93.2364 15.4596L90.8125 13.0145L93.8703 13.6368L94.905 11.2168Z" fill="white"/>
<path d="M54.2367 38.4625L56.7261 37.6378L54.2213 28.0039L49.7512 29.474L49.2271 32.2659L50.1732 31.9538L48.5527 40.3488L51.3331 39.4239L51.5566 38.2351L53.9901 37.4317L54.2367 38.4625ZM51.9959 35.9133L52.6992 32.1638L53.493 35.4143L51.9959 35.9133Z" fill="white"/>
<path d="M63.9243 16.8892L66.4137 16.0626L63.9089 6.42871L59.4446 7.91234L58.9205 10.7062L59.8665 10.3921L58.2461 18.789L61.0264 17.8622L61.2499 16.6734L63.6738 15.8526L63.9243 16.8892ZM61.697 14.3478L62.4002 10.5963L63.1941 13.8488L61.697 14.3478Z" fill="#007DC5"/>
<path d="M36.9714 22.4839C37.545 22.1291 38.03 21.648 38.3895 21.0774C38.7942 20.4146 39.1603 19.3067 38.667 17.8019C38.4069 17.0311 37.8732 16.6053 37.1256 16.3047C35.1988 15.534 30.5957 17.5186 30.5957 17.5186V20.1429L31.245 19.929V27.7691L33.8173 26.9175V23.7922C36.2392 25.7749 38.6708 25.3625 38.6708 25.3625V22.8115C38.6708 22.8115 37.1622 22.8577 36.9714 22.4839ZM36.2007 19.7286C35.7421 20.4897 34.3626 20.8847 33.8154 20.9926V19.0812C33.904 19.0427 34.008 19.0061 34.1005 18.9695C36.9175 17.9714 36.3144 19.536 36.1988 19.7286H36.2007Z" fill="#EF4123"/>
<path d="M27.9789 28.8873L30.4664 28.0626L27.9616 18.4287L23.7997 19.8218L23.2756 22.6156L23.9134 22.4037L22.293 30.7909L25.0733 29.8661L25.2968 28.6773L27.7207 27.8699L27.9789 28.8873ZM25.74 26.3459L26.4375 22.5963L27.2294 25.8468L25.74 26.3459Z" fill="#EF4123"/>
<path d="M45.0385 27.5284C43.0405 27.143 41.5491 25.6228 40.9923 23.6074C39.8613 19.4783 40.7283 14.6864 42.1985 10.7981C42.9846 8.72107 44.8131 6.31452 44.8131 6.31452L44.2967 3.30489L46.7071 4.36655C47.3522 3.82696 48.0846 3.40145 48.8728 3.10835C50.0501 2.69217 51.0906 2.53032 51.9557 2.62473C53.1753 2.75575 53.8189 3.34149 54.1464 3.8097C54.8343 4.79429 54.7245 6.14111 53.869 7.1623C53.2758 7.8505 52.4554 8.30308 51.5569 8.43783C50.4555 8.58291 49.3359 8.39642 48.3411 7.90219L47.2486 7.41086C46.0802 8.70814 45.1623 10.2107 44.5414 11.8425C43.3584 15.1084 42.6994 19.1642 43.7014 22.5611C43.8747 23.1073 44.1795 23.6026 44.5891 24.0034C44.9986 24.4042 45.5003 24.6983 46.0501 24.8598C47.0135 25.1122 48.5183 24.6228 49.6358 24.2548L56.815 21.8598V24.4841L49.0655 27.2008C48.2717 27.4629 46.5491 27.8251 45.0385 27.5284ZM49.5048 5.62281C50.7842 6.18543 51.4798 5.84824 51.7245 5.67483C51.8779 5.57716 51.9908 5.42728 52.0424 5.25286C51.8748 5.16037 51.1927 5.01587 49.7515 5.52454C49.6705 5.55344 49.5877 5.5862 49.5048 5.62281Z" fill="#007DC5"/>
<path d="M82.235 18.6595V24.5516L79.6223 19.5208L79.6146 19.5285L76.4258 20.5843V23.2086L77.1348 22.9736V30.8291L79.6242 29.9948V24.5208L82.2331 29.1258L82.235 29.1219V29.1296L84.7341 28.3107V17.8252L82.235 18.6595Z" fill="white"/>
<path d="M55.8191 16.2379C56.3922 15.8833 56.8771 15.4029 57.2372 14.8332C57.6399 14.1685 58.0079 13.0606 57.5127 11.5577C57.2545 10.787 56.7189 10.3612 55.9713 10.0606C54.0445 9.28989 49.4414 11.2745 49.4414 11.2745V13.8987L50.0907 13.6849V21.525L52.6572 20.6695V17.5442C55.0792 19.5269 57.5127 19.1146 57.5127 19.1146V16.5654C57.5127 16.5654 56.0098 16.6097 55.8191 16.2379ZM55.0483 13.4826C54.5898 14.2436 53.2121 14.6386 52.6649 14.7465V12.8352C52.7555 12.7986 52.848 12.76 52.9501 12.7234C55.7651 11.7138 55.1601 13.2899 55.0445 13.4806L55.0483 13.4826Z" fill="#007DC5"/>
</g>
<defs>
<clipPath id="clip0_58849_11338">
<rect width="160" height="54" fill="white"/>
</clipPath>
</defs>
</svg>
