<svg viewBox="0 0 144 31" fill="none" xmlns="http://www.w3.org/2000/svg">
<path d="M20.9342 17.783C20.9342 19.5915 20.3864 21.1306 19.2908 22.4C18.1953 23.6695 16.8736 24.3042 15.3259 24.3042C14.7868 24.3042 14.2217 24.1912 13.6304 23.9651C13.0391 23.7391 12.6392 23.626 12.4305 23.626C12.2392 23.626 12.0218 23.713 11.7784 23.8869C11.5349 24.0434 11.3523 24.1216 11.2306 24.1216C11.0915 24.1216 11.0219 23.8347 11.0219 23.2608V9.69663C11.0219 7.94024 10.9089 6.99248 10.6828 6.85336C10.5958 6.80119 10.2567 6.77511 9.66548 6.77511C9.24812 6.77511 9.03944 6.70555 9.03944 6.56643C9.03944 6.4447 9.13508 6.38383 9.32637 6.38383H9.69156C10.648 6.38383 11.5697 6.18385 12.4566 5.78388C12.7174 5.66215 12.9 5.60128 13.0044 5.60128H13.1087V13.792C13.7695 12.8007 14.7608 12.3051 16.0824 12.3051C17.5432 12.3051 18.717 12.8094 19.6039 13.8181C20.4908 14.8093 20.9342 16.1309 20.9342 17.783ZM18.5605 17.9134C18.5605 16.2787 18.2996 15.018 17.7779 14.1311C17.2736 13.2442 16.5606 12.8007 15.6389 12.8007C15.152 12.8007 14.6912 12.9573 14.2564 13.2703C13.8217 13.5659 13.5261 13.9398 13.3696 14.3919C13.213 14.8441 13.1348 16.2179 13.1348 18.5134C13.1348 20.9132 13.1957 22.3392 13.3174 22.7913C13.5087 23.5217 14.1434 23.8869 15.2216 23.8869C16.2476 23.8869 17.0041 23.4956 17.491 22.713C18.204 21.5479 18.5605 19.948 18.5605 17.9134ZM30.5451 14.0789C30.5451 14.4789 30.4234 14.8093 30.1799 15.0701C29.9364 15.331 29.6234 15.4614 29.2408 15.4614C28.9278 15.4614 28.667 15.3745 28.4583 15.2006C28.2496 15.0093 28.1453 14.7745 28.1453 14.4963C28.1453 14.2528 28.2235 14.0441 28.38 13.8702C28.5366 13.6963 28.6148 13.5746 28.6148 13.505C28.6148 13.2442 28.4235 13.1138 28.0409 13.1138C27.554 13.1138 27.1367 13.4181 26.7889 14.0267C26.3889 14.7397 26.1889 16.0614 26.1889 17.9917V23.1565C26.1889 23.3652 26.2585 23.4956 26.3976 23.5478C26.5541 23.5999 27.0062 23.6347 27.754 23.6521C27.9453 23.6869 28.0409 23.7564 28.0409 23.8608C28.0409 23.9825 27.9279 24.0434 27.7018 24.0434C27.3019 24.0434 26.928 24.0347 26.5802 24.0173C26.2324 23.9999 25.5716 23.9912 24.5977 23.9912C24.0934 23.9912 23.7282 23.9999 23.5021 24.0173C23.2761 24.0347 22.9891 24.0434 22.6413 24.0434C22.3631 24.0434 22.224 23.9825 22.224 23.8608C22.224 23.7391 22.337 23.6782 22.5631 23.6782H22.9283C23.5195 23.6782 23.8673 23.6086 23.9717 23.4695C24.0065 23.4 24.0238 23.0782 24.0238 22.5044V15.331C24.0238 14.3745 23.876 13.8268 23.5804 13.6876C23.3022 13.5311 22.85 13.4442 22.224 13.4268C22.0153 13.4268 21.911 13.3659 21.911 13.2442C21.911 13.1225 21.9979 13.0616 22.1718 13.0616H22.3544C22.6153 13.0616 22.8761 13.079 23.137 13.1138C23.3978 13.1312 23.5108 13.1398 23.4761 13.1398C24.1195 13.1398 24.8325 12.9573 25.615 12.5921L25.9541 12.4356L26.1628 12.3573C26.2324 12.7747 26.2672 13.192 26.2672 13.6094V14.1311C26.8236 12.9138 27.6062 12.3051 28.6148 12.3051C29.1713 12.3051 29.6321 12.479 29.9973 12.8268C30.3625 13.1572 30.5451 13.5746 30.5451 14.0789ZM41.7588 22.8174C41.7588 23.113 41.4458 23.426 40.8197 23.7564C40.2111 24.0695 39.6198 24.226 39.046 24.226C37.846 24.226 37.22 23.6086 37.1678 22.3739C36.507 23.6608 35.481 24.3042 34.0898 24.3042C33.342 24.3042 32.7247 24.0869 32.2378 23.6521C31.7508 23.2 31.5074 22.6261 31.5074 21.9305C31.5074 20.5045 32.3682 19.3742 34.0898 18.5394C34.6811 18.2612 35.7071 17.983 37.1678 17.7047V17.0526C37.1678 15.5223 37.0896 14.5137 36.9331 14.0267C36.6548 13.1398 36.0288 12.6964 35.0549 12.6964C34.4463 12.6964 33.9333 12.8616 33.5159 13.192C33.116 13.5224 32.916 13.9398 32.916 14.4441C32.916 14.5832 33.0203 14.6528 33.229 14.6528C33.4551 14.6528 33.6551 14.7571 33.829 14.9658C34.0029 15.1745 34.0898 15.4092 34.0898 15.6701C34.0898 16.4353 33.7072 16.8178 32.9421 16.8178C32.5421 16.8178 32.2117 16.6874 31.9508 16.4266C31.69 16.1483 31.5596 15.8005 31.5596 15.3832C31.5596 14.5658 31.8813 13.8615 32.5247 13.2703C33.2377 12.6268 34.2289 12.3051 35.4984 12.3051C37.4113 12.3051 38.5851 12.8268 39.0199 13.8702C39.1764 14.2702 39.2546 15.0614 39.2546 16.244V21.1219C39.2546 21.9218 39.2633 22.3913 39.2807 22.5305C39.3677 23.1565 39.6198 23.4695 40.0372 23.4695C40.5241 23.4695 40.9241 23.2956 41.2371 22.9478C41.411 22.7565 41.5414 22.6609 41.6284 22.6609C41.7153 22.6609 41.7588 22.713 41.7588 22.8174ZM37.1678 20.0524V18.1482C35.8636 18.4438 34.9245 18.8351 34.3507 19.322C33.7942 19.7915 33.5159 20.4263 33.5159 21.2262C33.5159 21.7827 33.6724 22.2435 33.9855 22.6087C34.3159 22.9565 34.7245 23.1304 35.2115 23.1304C35.9592 23.1304 36.5592 22.713 37.0113 21.8783C37.1157 21.687 37.1678 21.0784 37.1678 20.0524ZM51.2397 14.9919C51.2397 15.7918 50.8484 16.1918 50.0659 16.1918C49.3007 16.1918 48.9181 15.8266 48.9181 15.0962C48.9181 14.9049 49.0051 14.618 49.179 14.2354C49.2311 14.1137 49.2572 13.992 49.2572 13.8702C49.2572 13.5224 49.0746 13.2355 48.7094 13.0094C48.3616 12.7834 47.9182 12.6703 47.3791 12.6703C46.3357 12.6703 45.5271 13.1225 44.9532 14.0267C44.3793 14.931 44.0924 16.2005 44.0924 17.8351C44.0924 19.6785 44.388 21.1045 44.9793 22.1131C45.5705 23.1043 46.4053 23.5999 47.4834 23.5999C48.2138 23.5999 48.8659 23.3739 49.4398 22.9217C49.7007 22.713 50.0398 22.3131 50.4571 21.7218C50.5441 21.6349 50.6223 21.5914 50.6919 21.5914C50.8658 21.5914 50.9527 21.661 50.9527 21.8001C50.9527 22.0261 50.6484 22.4522 50.0398 23.0782C49.2572 23.8956 48.2573 24.3042 47.04 24.3042C45.5097 24.3042 44.2402 23.7564 43.2316 22.6609C42.2404 21.5653 41.7447 20.1828 41.7447 18.5134C41.7447 16.7222 42.2751 15.244 43.3359 14.0789C44.3967 12.8964 45.727 12.3051 47.3269 12.3051C48.3529 12.3051 49.2572 12.5747 50.0398 13.1138C50.8397 13.6529 51.2397 14.2789 51.2397 14.9919ZM64.8868 23.8086C64.8868 23.9303 64.5651 23.9912 63.9217 23.9912C63.4174 23.9912 62.9478 23.9825 62.5131 23.9651C61.6262 23.9303 61.0175 23.913 60.6871 23.913C60.4611 23.913 60.1133 23.9303 59.6437 23.9651C59.1916 23.9999 58.8525 24.0173 58.6264 24.0173C58.4699 24.0173 58.3917 23.9564 58.3917 23.8347C58.3917 23.6956 58.5569 23.626 58.8873 23.626C59.722 23.626 60.1394 23.4869 60.1394 23.2087C60.1394 22.9652 58.6786 21.2088 55.7571 17.9395L55.7832 23.2608C55.8005 23.5217 56.044 23.6434 56.5135 23.626L57.2178 23.5999C57.4439 23.5999 57.5569 23.6695 57.5569 23.8086C57.5569 23.9651 57.3656 24.0434 56.9831 24.0434C57.0178 24.0434 56.9744 24.0347 56.8526 24.0173C56.7309 24.0173 56.5222 24.0173 56.2266 24.0173C55.8092 23.9999 55.2441 23.9912 54.5311 23.9912H52.4964C52.0791 23.9912 51.8704 23.9217 51.8704 23.7825C51.8704 23.6956 51.9052 23.6434 51.9747 23.626C52.0617 23.6086 52.366 23.5912 52.8877 23.5739C53.3051 23.5565 53.5225 23.4608 53.5398 23.2869C53.5746 23.1652 53.592 22.713 53.592 21.9305V9.17493C53.592 7.80112 53.5833 7.08813 53.5659 7.03596C53.5311 6.91423 53.279 6.85336 52.8095 6.85336H52.5486C52.4269 6.87075 52.2878 6.87945 52.1313 6.87945C51.94 6.87945 51.8443 6.80989 51.8443 6.67077C51.8443 6.53165 52.0443 6.46209 52.4443 6.46209C53.279 6.4447 54.1485 6.19254 55.0528 5.70562C55.2615 5.58389 55.4006 5.52303 55.4701 5.52303C55.6614 5.52303 55.7571 6.24471 55.7571 7.68808V17.3134C58.5743 14.7919 59.9828 13.4007 59.9828 13.1398C59.9828 13.0355 59.6437 12.9833 58.9655 12.9833C58.9481 12.9833 58.896 12.9833 58.809 12.9833C58.7047 13.0007 58.5743 13.0094 58.4177 13.0094H58.1569C57.8439 13.0094 57.6874 12.9399 57.6874 12.8007C57.6874 12.6442 57.9569 12.566 58.496 12.566H59.5655L60.5306 12.5921H62.1479C62.7739 12.5921 63.1391 12.6008 63.2435 12.6181C63.3478 12.6355 63.4 12.6964 63.4 12.8007C63.4 12.9225 62.9913 12.992 62.174 13.0094C61.5827 13.0268 61.2262 13.0703 61.1045 13.1398C60.8958 13.2616 60.6958 13.4181 60.5045 13.6094L57.2439 16.7657C59.6611 19.4089 61.374 21.3479 62.3827 22.5826C62.8 23.0869 63.1304 23.3913 63.3739 23.4956C63.5652 23.5825 63.9912 23.6173 64.6521 23.5999C64.8086 23.5999 64.8868 23.6695 64.8868 23.8086ZM74.3752 21.1479C74.3752 21.3218 74.2361 21.6349 73.9579 22.087C73.697 22.5218 73.4275 22.8783 73.1492 23.1565C72.4015 23.9217 71.4015 24.3042 70.1495 24.3042C68.5844 24.3042 67.2714 23.7391 66.2106 22.6087C65.1672 21.4784 64.6455 20.0785 64.6455 18.409C64.6455 16.67 65.1411 15.218 66.1324 14.0528C67.141 12.8877 68.3931 12.3051 69.8886 12.3051C71.1233 12.3051 72.158 12.6703 72.9927 13.4007C73.8275 14.1137 74.2709 15.0354 74.3231 16.1657C73.7666 16.2527 73.0275 16.2874 72.1058 16.27L70.2799 16.244C70.1582 16.244 69.1148 16.27 67.1497 16.3222C67.0627 16.8961 67.0193 17.4439 67.0193 17.9656C67.0193 19.722 67.3497 21.0784 68.0105 22.0348C68.6887 22.9739 69.6365 23.4434 70.8538 23.4434C71.5494 23.4434 72.1058 23.2869 72.5232 22.9739C72.9406 22.6609 73.3927 22.0609 73.8796 21.174C73.9492 21.0349 74.0448 20.9654 74.1666 20.9654C74.3057 20.9654 74.3752 21.0262 74.3752 21.1479ZM72.1058 15.8266C72.0363 13.7398 71.2885 12.6964 69.8625 12.6964C68.4539 12.6964 67.5757 13.7398 67.2279 15.8266H72.1058ZM82.9491 22.4522C82.9491 22.6087 82.7317 22.8869 82.2969 23.2869C81.5492 23.9651 80.6623 24.3042 79.6363 24.3042C78.6798 24.3042 77.9581 24.0608 77.4712 23.5739C77.193 23.2956 77.0538 22.4783 77.0538 21.1219V13.3485C77.0365 13.1746 76.9408 13.079 76.7669 13.0616H75.7757C75.3931 13.0616 75.2018 13.0007 75.2018 12.879C75.2018 12.7573 75.2975 12.6877 75.4887 12.6703C76.8452 12.5486 77.906 11.8878 78.6711 10.6879C78.7755 10.5313 78.9059 10.4531 79.0624 10.4531C79.1841 10.4531 79.245 10.514 79.245 10.6357V10.74C79.2276 10.827 79.2189 10.9748 79.2189 11.1835C79.2189 11.9139 79.2537 12.3834 79.3232 12.5921C79.4798 12.6268 79.7406 12.6442 80.1058 12.6442C81.0622 12.6442 81.697 12.6008 82.01 12.5138C82.0796 12.4964 82.1404 12.4877 82.1926 12.4877C82.3317 12.4877 82.4013 12.566 82.4013 12.7225C82.4013 12.9833 81.697 13.1138 80.2884 13.1138C80.0449 13.1138 79.6884 13.1051 79.2189 13.0877V17.9134C79.2189 20.348 79.2798 21.8783 79.4015 22.5044C79.5232 23.113 79.9232 23.4173 80.6014 23.4173C81.1753 23.4173 81.8187 23.0956 82.5317 22.4522C82.6013 22.3652 82.6795 22.3218 82.7665 22.3218C82.8882 22.3218 82.9491 22.3652 82.9491 22.4522ZM94.1964 18.3569C94.1964 20.0437 93.6834 21.461 92.6574 22.6087C91.6314 23.7391 90.3532 24.3042 88.8229 24.3042C87.2404 24.3042 85.9187 23.7391 84.858 22.6087C83.7972 21.461 83.2668 20.0437 83.2668 18.3569C83.2668 16.6178 83.7798 15.1745 84.8058 14.0267C85.8492 12.879 87.1447 12.3051 88.6924 12.3051C90.2575 12.3051 91.5618 12.8877 92.6052 14.0528C93.666 15.2006 94.1964 16.6352 94.1964 18.3569ZM91.8226 18.3308C91.8226 16.4179 91.527 14.931 90.9358 13.8702C90.501 13.0877 89.7706 12.6964 88.7446 12.6964C87.7708 12.6964 87.0056 13.2007 86.4491 14.2093C85.91 15.2006 85.6405 16.5831 85.6405 18.3569C85.6405 20.1132 85.9274 21.4871 86.5013 22.4783C87.0926 23.4521 87.9099 23.939 88.9533 23.939C89.7532 23.939 90.3445 23.6347 90.7271 23.0261C91.4575 21.8783 91.8226 20.3132 91.8226 18.3308ZM100.886 23.8086C100.886 23.9651 100.773 24.0434 100.547 24.0434H100.234C100.199 24.0434 99.7386 24.026 98.8517 23.9912L98.0431 23.9651C97.904 23.9651 97.2084 23.9912 95.9563 24.0434C95.852 24.0608 95.7476 24.0695 95.6433 24.0695C95.3824 24.0869 95.252 24.0086 95.252 23.8347C95.252 23.713 95.3476 23.6521 95.5389 23.6521H96.2171C96.7041 23.6521 96.9475 23.5478 96.9475 23.3391C96.9649 23.2347 96.9736 22.5565 96.9736 21.3045V8.02719C96.9736 7.45332 96.9562 7.1403 96.9214 7.08813C96.8693 6.94901 96.7302 6.87945 96.5041 6.87945H96.2954L95.565 6.90553C95.3216 6.90553 95.1998 6.82728 95.1998 6.67077C95.1998 6.53165 95.4172 6.45339 95.852 6.436C96.6867 6.38383 97.4605 6.19254 98.1735 5.86213L98.7213 5.60128L98.93 5.52303C99.0691 6.02734 99.13 6.7925 99.1126 7.81851L99.0865 9.67054L99.1126 22.4522C99.1126 22.9739 99.1213 23.2869 99.1387 23.3913C99.1561 23.4782 99.2169 23.5391 99.3213 23.5739C99.3387 23.5912 99.6604 23.6086 100.286 23.626C100.686 23.626 100.886 23.6869 100.886 23.8086ZM112.869 18.3569C112.869 20.0437 112.356 21.461 111.33 22.6087C110.304 23.7391 109.025 24.3042 107.495 24.3042C105.913 24.3042 104.591 23.7391 103.53 22.6087C102.469 21.461 101.939 20.0437 101.939 18.3569C101.939 16.6178 102.452 15.1745 103.478 14.0267C104.521 12.879 105.817 12.3051 107.365 12.3051C108.93 12.3051 110.234 12.8877 111.277 14.0528C112.338 15.2006 112.869 16.6352 112.869 18.3569ZM110.495 18.3308C110.495 16.4179 110.199 14.931 109.608 13.8702C109.173 13.0877 108.443 12.6964 107.417 12.6964C106.443 12.6964 105.678 13.2007 105.121 14.2093C104.582 15.2006 104.313 16.5831 104.313 18.3569C104.313 20.1132 104.6 21.4871 105.173 22.4783C105.765 23.4521 106.582 23.939 107.625 23.939C108.425 23.939 109.017 23.6347 109.399 23.0261C110.13 21.8783 110.495 20.3132 110.495 18.3308ZM126.497 13.8441C126.497 14.6441 126.141 15.0441 125.428 15.0441C125.184 15.0441 124.958 14.9658 124.749 14.8093C124.558 14.6354 124.463 14.4441 124.463 14.2354C124.463 14.1659 124.489 14.0615 124.541 13.9224C124.593 13.7659 124.619 13.6442 124.619 13.5572C124.619 13.3311 124.497 13.2181 124.254 13.2181C124.045 13.2181 123.845 13.3311 123.654 13.5572C123.463 13.7659 123.367 13.9833 123.367 14.2093C123.367 14.2615 123.41 14.5571 123.497 15.0962C123.584 15.6353 123.628 16.044 123.628 16.3222C123.628 17.5047 123.219 18.496 122.402 19.2959C121.584 20.0959 120.567 20.4958 119.35 20.4958C119.037 20.4958 118.463 20.3654 117.628 20.1045C117.402 20.035 117.254 20.0002 117.185 20.0002C116.82 20.0002 116.489 20.148 116.194 20.4437C115.898 20.7393 115.75 21.061 115.75 21.4088C115.75 22.3131 116.298 22.7652 117.393 22.7652C117.811 22.7652 118.48 22.687 119.402 22.5305C120.115 22.4087 120.767 22.3479 121.358 22.3479C122.419 22.3479 123.245 22.6261 123.836 23.1826C124.445 23.7391 124.749 24.5129 124.749 25.5041C124.749 26.9997 124.106 28.2431 122.819 29.2343C121.55 30.2255 119.941 30.7211 117.993 30.7211C116.55 30.7211 115.411 30.4255 114.576 29.8343C113.759 29.2604 113.35 28.4604 113.35 27.4344C113.35 26.4432 113.733 25.6954 114.498 25.1911C114.881 24.9477 115.489 24.7303 116.324 24.539C115.089 24.0521 114.472 23.3043 114.472 22.2957C114.472 21.0436 115.272 20.1741 116.872 19.6872C115.828 18.8699 115.307 17.7917 115.307 16.4526C115.307 15.2006 115.707 14.2006 116.507 13.4529C117.307 12.6877 118.359 12.3051 119.663 12.3051C120.376 12.3051 120.95 12.4008 121.384 12.5921C121.837 12.7834 122.358 13.1659 122.95 13.7398C123.506 12.9225 124.193 12.5138 125.01 12.5138C126.002 12.5138 126.497 12.9573 126.497 13.8441ZM121.645 16.4266C121.645 13.905 120.95 12.6442 119.559 12.6442C118.202 12.6442 117.524 13.8181 117.524 16.1657C117.524 18.809 118.246 20.1306 119.689 20.1306C120.993 20.1306 121.645 18.8959 121.645 16.4266ZM123.654 26.4171C123.654 24.9737 122.802 24.2521 121.098 24.2521C120.611 24.2521 119.889 24.3303 118.933 24.4868C117.993 24.6433 117.289 24.7216 116.82 24.7216C115.933 25.1911 115.489 26.0171 115.489 27.1997C115.489 28.0866 115.802 28.7995 116.428 29.3386C117.072 29.8777 117.915 30.1473 118.959 30.1473C120.28 30.1473 121.393 29.7821 122.297 29.0517C123.202 28.3387 123.654 27.4605 123.654 26.4171ZM136.9 12.8007C136.9 12.9225 136.691 12.992 136.274 13.0094C135.856 13.0268 135.587 13.0616 135.465 13.1138C135.361 13.1659 135.265 13.3137 135.178 13.5572L134.996 14.0267L134.787 14.6789C134.543 15.4788 134.178 16.67 133.691 18.2525C132.317 22.6696 131.178 26.0954 130.274 28.53C129.718 30.0082 128.953 30.7472 127.979 30.7472C127.561 30.7472 127.214 30.6255 126.935 30.382C126.674 30.1386 126.544 29.8256 126.544 29.443C126.544 29.1126 126.648 28.843 126.857 28.6343C127.083 28.4257 127.37 28.3213 127.718 28.3213C128.187 28.3213 128.526 28.5126 128.735 28.8952C128.892 29.1908 129.022 29.3386 129.126 29.3386C129.283 29.3386 129.526 28.9126 129.857 28.0605C130.344 26.791 130.726 25.652 131.005 24.6433C129.718 21.2697 128.622 18.3221 127.718 15.8005C127.092 14.0789 126.744 13.2094 126.674 13.192C126.57 13.1051 126.292 13.0616 125.84 13.0616C125.37 13.0616 125.135 12.9746 125.135 12.8007C125.135 12.6616 125.248 12.5921 125.475 12.5921C125.666 12.5921 125.961 12.6095 126.361 12.6442C126.761 12.6616 127.066 12.6703 127.274 12.6703C127.344 12.6703 127.5 12.6703 127.744 12.6703C128.109 12.6529 128.613 12.6355 129.257 12.6181L130.587 12.5921C130.778 12.5921 130.874 12.6616 130.874 12.8007C130.874 12.9225 130.552 12.992 129.909 13.0094C129.37 13.0268 129.1 13.1138 129.1 13.2703C129.1 13.4094 129.274 13.9485 129.622 14.8875C129.761 15.2875 129.909 15.7049 130.065 16.1396L130.509 17.4439C130.631 17.8265 130.952 18.696 131.474 20.0524C131.648 20.4697 131.839 20.974 132.048 21.5653C133.717 16.3309 134.552 13.5833 134.552 13.3224C134.552 13.1659 134.483 13.0703 134.343 13.0355C134.222 13.0007 133.857 12.9833 133.248 12.9833C133.074 12.9833 132.987 12.9138 132.987 12.7747C132.987 12.6529 133.091 12.5921 133.3 12.5921C133.387 12.5921 133.457 12.6008 133.509 12.6181C134.1 12.6529 134.587 12.6703 134.969 12.6703H135.7C136.013 12.6703 136.213 12.6616 136.3 12.6442C136.404 12.6268 136.526 12.6181 136.665 12.6181C136.822 12.6181 136.9 12.679 136.9 12.8007Z" fill="#010101"/>
<path d="M143.997 29.7779H138.486C137.732 29.7779 137.355 29.6481 137.355 29.3884C137.355 29.1287 137.591 28.9989 138.062 28.9989C139.546 28.9989 140.453 28.9635 140.782 28.8927C141.041 28.8455 141.195 28.7393 141.242 28.574C141.312 28.4324 141.348 28.0429 141.348 27.4056V2.83262C141.348 1.93562 141.312 1.3927 141.242 1.20386C141.195 1.01502 141.03 0.896996 140.747 0.849787C140.276 0.778971 139.511 0.743563 138.451 0.743563C137.885 0.743563 137.603 0.625537 137.603 0.389486C137.603 0.129829 137.874 0 138.415 0H143.997V29.7779Z" fill="#010101"/>
<path d="M-0.00310707 29.7779H5.50816C6.26183 29.7779 6.63867 29.6481 6.63867 29.3884C6.63867 29.1287 6.40315 28.9989 5.9321 28.9989C4.4483 28.9989 3.54153 28.9635 3.2118 28.8927C2.95272 28.8455 2.79963 28.7393 2.75252 28.574C2.68187 28.4324 2.64654 28.0429 2.64654 27.4056V2.83262C2.64654 1.93562 2.68187 1.3927 2.75252 1.20386C2.79963 1.01502 2.9645 0.896996 3.24713 0.849787C3.71817 0.778971 4.48363 0.743563 5.54348 0.743563C6.10874 0.743563 6.39137 0.625537 6.39137 0.389486C6.39137 0.129829 6.12052 0 5.57881 0H-0.00310707V29.7779Z" fill="#010101"/>
</svg>
