<svg viewBox="0 0 108 56" fill="none" xmlns="http://www.w3.org/2000/svg">
<g clip-path="url(#clip0_58999_975)">
<path d="M14.4951 2.05859L7.74478 9.51016L5.31843 17.4793L3.44546 17.7235C3.35584 17.7369 3.26623 17.7459 3.18109 17.7548C3.07803 17.7727 2.97946 17.7795 2.88312 17.7952C2.5381 17.8355 2.23116 17.8713 1.9668 17.9049L2.14155 17.5173L2.28045 17.2149L6.06 8.8358L14.4951 2.05859Z" fill="#296EA9"/>
<path d="M25.9528 37.9408C25.5226 38.1447 25.0589 38.2746 24.5839 38.3329C23.2195 38.4942 22.0836 38.2701 21.1538 37.8534C19.5184 37.1253 18.5169 35.8034 18.0038 34.9364C17.5266 34.1433 17.3116 33.2136 17.4034 32.2883C17.6723 29.5281 20.4907 28.4079 20.4907 28.4079C21.4563 27.9777 22.3211 27.7246 23.0896 27.6081C24.1896 27.44 25.0947 27.5521 25.8363 27.7985C26.2037 27.9195 26.5308 28.0763 26.8198 28.2488C27.8706 28.8806 28.6009 29.9358 28.8407 31.1434C28.8653 31.2622 28.8832 31.3764 28.9034 31.4884C29.5889 35.6063 27.2567 37.3157 25.9528 37.9408ZM43.1232 28.8918C42.8812 26.9651 42.4892 24.6059 41.8417 22.1572C41.7565 22.1684 41.6692 22.1796 41.584 22.1886C41.4967 22.1975 41.4048 22.2065 41.3152 22.211C41.2816 22.2132 41.2435 22.2177 41.2077 22.2177C41.0038 22.2289 40.7977 22.2311 40.5848 22.2266H40.4885C40.298 22.2199 40.1054 22.2132 39.9105 22.1953C39.8119 22.1863 39.7155 22.1773 39.6192 22.1661C39.4265 22.146 39.2339 22.1213 39.0389 22.0922C38.9673 22.081 38.9 22.0698 38.8328 22.0586C38.7992 22.0519 38.7656 22.0474 38.7298 22.0407C38.6312 22.0228 38.5304 22.0048 38.4318 21.9847C38.4072 21.978 38.378 21.9757 38.3534 21.9712C38.2794 21.9578 38.2055 21.9421 38.1361 21.9264C38.1181 21.9264 38.1025 21.9197 38.0845 21.9152C37.9232 21.8839 37.7642 21.848 37.6073 21.8077C37.4863 21.7786 37.3609 21.7472 37.2399 21.7181C37.2153 21.7113 37.1861 21.7046 37.1615 21.6979C36.8904 21.6262 36.6193 21.55 36.3527 21.4716C36.2564 21.4425 36.16 21.4156 36.0637 21.3842C35.9786 21.3551 35.8912 21.3282 35.8038 21.2991L35.5999 21.2319C35.4476 21.1804 35.293 21.1288 35.1429 21.0796C34.9189 21.0011 34.6971 20.9205 34.4842 20.8376C34.3386 20.7838 34.1997 20.7301 34.0653 20.6763C33.9824 20.6427 33.9017 20.6113 33.8211 20.5799C33.7023 20.5307 33.5836 20.4836 33.4693 20.4388C33.4066 20.4097 33.3416 20.385 33.2789 20.3604C33.0907 20.282 32.9159 20.208 32.7457 20.1319H32.7389L32.7053 20.1139C32.6941 20.1072 32.6829 20.1027 32.6717 20.1005H32.665C32.5799 20.0647 32.497 20.0266 32.4186 19.993C32.3581 19.9683 32.3021 19.9392 32.2461 19.9145C31.957 19.7846 31.7016 19.6591 31.4955 19.5606H31.4933C31.4754 19.5516 31.4597 19.5471 31.4418 19.5359C31.3566 19.4956 31.2827 19.4597 31.2177 19.4261C31.0049 19.3208 30.8884 19.2581 30.8884 19.2581C30.7584 19.1797 30.6307 19.1058 30.503 19.0318C30.4784 19.0184 30.4515 19.0027 30.4269 18.9893C30.4067 18.9803 30.3865 18.9669 30.3708 18.9579C30.2767 18.9041 30.1804 18.8548 30.0863 18.8055C30.046 18.7831 30.0079 18.7652 29.9653 18.7428C29.813 18.6644 29.6584 18.5905 29.5083 18.5165C29.3873 18.4605 29.2641 18.4023 29.1431 18.353C28.9975 18.2903 28.8563 18.232 28.7152 18.1738C28.6009 18.1289 28.4889 18.0864 28.3769 18.0461H28.3702C28.3254 18.0259 28.2761 18.0102 28.2313 17.9923C28.2201 17.9923 28.2089 17.9856 28.1977 17.9811C28.1349 17.9587 28.0722 17.9385 28.0095 17.9184C27.9445 17.8959 27.8773 17.8758 27.8078 17.8534C27.8056 17.8534 27.8011 17.8511 27.7989 17.8511C27.716 17.822 27.6353 17.7996 27.5524 17.7772C27.5435 17.775 27.5323 17.7705 27.5233 17.7682C27.4494 17.7458 27.3754 17.7234 27.3015 17.7055C27.2567 17.6921 27.2119 17.6809 27.1648 17.6697C27.0058 17.6271 26.8512 17.5913 26.6966 17.5599C26.6854 17.5599 26.6764 17.5532 26.6652 17.5509C26.6249 17.5397 26.5868 17.5308 26.5442 17.5263C26.5308 17.524 26.5151 17.5196 26.5017 17.5173C26.4479 17.5061 26.3941 17.4949 26.3426 17.486H26.3336C26.309 17.477 26.2821 17.4748 26.2597 17.4725H26.253C26.2194 17.4613 26.1813 17.4546 26.1477 17.4523H26.123C26.0469 17.4389 25.9729 17.4277 25.899 17.4165H25.8766C25.8542 17.4143 25.8273 17.4075 25.8049 17.4053C25.722 17.3919 25.6436 17.3807 25.563 17.3717H25.5293C25.4352 17.3583 25.3412 17.3493 25.2515 17.3403C25.2314 17.3381 25.2112 17.3336 25.191 17.3336C25.135 17.3246 25.0745 17.3224 25.0185 17.3157C24.8976 17.3045 24.7743 17.2955 24.6533 17.2866H24.6332C24.5772 17.2843 24.5167 17.2798 24.4607 17.2798C24.3935 17.2731 24.3218 17.2709 24.2568 17.2709C23.7549 17.2597 23.2665 17.2776 22.8028 17.3157C22.6773 17.3269 22.5586 17.3403 22.4398 17.3515C22.3749 17.3605 22.3099 17.365 22.2472 17.3762C22.162 17.3851 22.0791 17.3963 21.9985 17.4098C21.9111 17.421 21.826 17.4344 21.7408 17.4501C21.6266 17.4703 21.5146 17.4904 21.4025 17.5128C21.3152 17.5263 21.23 17.5442 21.1449 17.5644C21.1225 17.5711 21.1023 17.5733 21.0799 17.5778H21.0777C21.0127 17.5913 20.9455 17.6092 20.8828 17.6226C20.8738 17.6226 20.8648 17.6226 20.8581 17.6293C20.7102 17.6629 20.5669 17.701 20.4302 17.7369C20.3675 17.7548 20.3092 17.7705 20.2487 17.7884C20.242 17.7906 20.2375 17.7906 20.2308 17.7951C20.1703 17.8086 20.1121 17.8265 20.0561 17.8467C19.9776 17.8691 19.897 17.8959 19.8186 17.9184C19.8118 17.9184 19.8074 17.9184 19.8006 17.9251C19.7939 17.9318 19.7894 17.9251 19.7827 17.9318C19.72 17.952 19.6573 17.9744 19.5945 17.9945C19.5049 18.0237 19.4153 18.055 19.3279 18.0841C19.2428 18.1155 19.1577 18.1469 19.0748 18.1782C18.9134 18.241 18.7566 18.3037 18.6088 18.3664H18.6065C18.4586 18.4292 18.3197 18.4919 18.1898 18.5501C17.8582 18.7002 17.5827 18.8459 17.3698 18.9601C17.2869 19.0049 17.2107 19.0475 17.1458 19.0878C17.0808 19.1237 17.027 19.1595 16.9822 19.1864C16.9464 19.2088 16.915 19.229 16.8926 19.2424C16.8635 19.2604 16.85 19.2716 16.85 19.2716C14.4976 21.0056 11.8808 22.1908 9.48809 22.9973C9.28646 23.0645 9.0893 23.1295 8.88991 23.1922C8.76445 23.2326 8.64122 23.2684 8.518 23.3088C8.5068 23.3088 8.4956 23.3155 8.48216 23.3177C8.42166 23.3379 8.36565 23.3536 8.3074 23.3715C8.23123 23.3939 8.15506 23.4208 8.0744 23.4387C8.05648 23.4454 8.03856 23.4499 8.02063 23.4566C7.83692 23.5104 7.65321 23.5619 7.47398 23.609C7.3866 23.6314 7.30147 23.6538 7.21409 23.6807C7.20289 23.6829 7.18945 23.6874 7.17824 23.6896C6.99677 23.7389 6.8153 23.7837 6.64055 23.8263C6.46804 23.8688 6.30001 23.9114 6.13422 23.9473C6.03116 23.9697 5.93034 23.9921 5.83176 24.0145C5.79816 24.0234 5.76679 24.0279 5.73319 24.0369H5.71302C5.51363 24.0817 5.32543 24.122 5.13724 24.1579C4.98041 24.1892 4.82807 24.2206 4.67796 24.2452C4.53009 24.2744 4.38671 24.299 4.2478 24.3237C4.10666 24.3461 3.97223 24.3685 3.84005 24.3909C3.71011 24.4133 3.58464 24.4312 3.46366 24.4514H3.43454C3.35164 24.4626 3.27547 24.4738 3.1993 24.485C3.11416 24.4984 3.03127 24.5096 2.95285 24.5186C2.87444 24.5298 2.80051 24.541 2.72657 24.5499C2.65264 24.5589 2.58543 24.5701 2.51598 24.5746C2.4286 24.5835 2.34795 24.5947 2.26953 24.6037C2.27625 24.7493 2.27849 24.8905 2.28745 25.0339C2.50253 30.6573 3.35388 36.7534 5.63237 41.1468C5.63237 41.1468 9.4052 50.729 19.8343 54.4212C21.9245 54.6564 24.2456 54.6788 26.8243 54.4212C26.8243 54.4212 32.5239 54.4816 37.6835 50.9732C39.6909 48.5872 41.4339 45.352 42.4892 40.9788C43.4368 37.0603 43.6407 32.9447 43.1344 28.9142H43.1277V28.9008L43.1232 28.8918Z" fill="#FDC689"/>
<path d="M44.7896 40.8825C43.349 45.8293 40.5978 48.9614 37.6719 50.9509C39.6793 48.5671 41.4223 45.332 42.4775 40.9565C43.4252 37.038 43.6246 32.9224 43.1205 28.8919C42.8786 26.9674 42.4865 24.606 41.839 22.1595C41.9062 22.1506 41.9779 22.1394 42.0451 22.1282C42.1347 22.1102 42.2244 22.0968 42.3095 22.0766C42.4238 22.0475 42.5358 22.0206 42.6433 21.9893V21.9131C42.715 22.0542 42.7845 22.1931 42.8494 22.3388C44.3102 25.4059 45.0428 28.7082 45.4125 31.1413C45.9031 34.3966 45.7037 37.7213 44.7829 40.8848H44.7896V40.8825Z" fill="#FDD1B0"/>
<path d="M12.5431 27.5344C13.2667 27.5344 13.8537 26.9474 13.8537 26.2237C13.8537 25.5001 13.2667 24.9131 12.5431 24.9131C11.8194 24.9131 11.2324 25.5001 11.2324 26.2237C11.2324 26.9474 11.8194 27.5344 12.5431 27.5344Z" fill="#61C2EE"/>
<path d="M33.713 25.9523C34.4366 25.9523 35.0236 25.3653 35.0236 24.6417C35.0236 23.918 34.4366 23.3311 33.713 23.3311C32.9893 23.3311 32.4023 23.918 32.4023 24.6417C32.4023 25.3653 32.9893 25.9523 33.713 25.9523Z" fill="#61C2EE"/>
<path d="M39.3966 32.9533C40.1202 32.9533 40.7072 32.3663 40.7072 31.6427C40.7072 30.919 40.1202 30.332 39.3966 30.332C38.6729 30.332 38.0859 30.919 38.0859 31.6427C38.0859 32.3663 38.6729 32.9533 39.3966 32.9533Z" fill="#61C2EE"/>
<path d="M18.9493 47.4846C19.673 47.4846 20.2599 46.8976 20.2599 46.1739C20.2599 45.4503 19.673 44.8633 18.9493 44.8633C18.2257 44.8633 17.6387 45.4503 17.6387 46.1739C17.6387 46.8976 18.2257 47.4846 18.9493 47.4846Z" fill="#61C2EE"/>
<path d="M6.02548 34.1213C6.74913 34.1213 7.33611 33.5343 7.33611 32.8106C7.33611 32.087 6.74913 31.5 6.02548 31.5C5.30183 31.5 4.71484 32.087 4.71484 32.8106C4.71484 33.5343 5.30183 34.1213 6.02548 34.1213Z" fill="#61C2EE"/>
<path d="M9.89071 44.1584C10.6144 44.1584 11.2013 43.5714 11.2013 42.8477C11.2013 42.1241 10.6144 41.5371 9.89071 41.5371C9.16706 41.5371 8.58008 42.1241 8.58008 42.8477C8.58008 43.5714 9.16706 44.1584 9.89071 44.1584Z" fill="#61C2EE"/>
<path d="M39.0763 42.8498C39.7999 42.8498 40.3869 42.2628 40.3869 41.5392C40.3869 40.8155 39.7999 40.2285 39.0763 40.2285C38.3526 40.2285 37.7656 40.8155 37.7656 41.5392C37.7656 42.2628 38.3526 42.8498 39.0763 42.8498Z" fill="#61C2EE"/>
<path d="M30.588 49.1164C31.3116 49.1164 31.8986 48.5294 31.8986 47.8058C31.8986 47.0821 31.3116 46.4951 30.588 46.4951C29.8643 46.4951 29.2773 47.0821 29.2773 47.8058C29.2773 48.5294 29.8643 49.1164 30.588 49.1164Z" fill="#61C2EE"/>
<path d="M37.512 15.9879C37.2656 15.9341 37.0169 15.8781 36.7749 15.8176C36.533 15.7616 36.2932 15.7011 36.058 15.6384C32.7377 14.7915 30.168 13.7363 29.4869 13.445C29.3727 13.3935 29.3122 13.3666 29.3122 13.3666C27.1031 12.6788 25.1249 12.4973 23.4558 12.5623C23.3236 12.5712 23.1914 12.5757 23.0592 12.5847C22.8329 12.6026 22.6089 12.6183 22.3938 12.6452C22.284 12.6586 22.1787 12.6698 22.0734 12.681C21.9681 12.699 21.8628 12.7102 21.7643 12.7258C21.3565 12.7863 20.9824 12.858 20.6306 12.9409C20.5432 12.9611 20.4603 12.9812 20.3752 13.0036C20.2901 13.026 20.2049 13.0485 20.122 13.0664C20.0459 13.091 19.9697 13.1112 19.8958 13.1313C19.8196 13.1538 19.7457 13.1762 19.6717 13.1986C19.5844 13.2277 19.5015 13.2501 19.4186 13.277C19.3245 13.3083 19.2349 13.3397 19.1475 13.3711C19.087 13.3912 19.031 13.4136 18.9772 13.4316C18.9526 13.4428 18.9234 13.4517 18.901 13.4607C18.8405 13.4831 18.7845 13.51 18.7308 13.5324C18.6523 13.5637 18.5807 13.5951 18.5134 13.622C18.4507 13.6444 18.3947 13.6735 18.3409 13.6959C18.0004 13.846 17.8167 13.9536 17.8167 13.9536C17.5635 14.0925 17.3148 14.2291 17.0617 14.3591C16.9026 14.4442 16.7435 14.5271 16.5777 14.601C16.5441 14.6212 16.506 14.6347 16.4724 14.6526C16.3111 14.731 16.1498 14.8027 15.9818 14.8744C15.8563 14.9281 15.7331 14.9819 15.6054 15.0357C15.4979 15.0783 15.3926 15.1231 15.2828 15.1634C15.0924 15.2373 14.8974 15.3135 14.7025 15.3807C14.5323 15.4434 14.362 15.5017 14.1917 15.5599C13.896 15.663 13.6003 15.7549 13.2956 15.8467C13.1656 15.887 13.0402 15.9229 12.9124 15.9565C12.1037 16.1917 11.2792 16.3978 10.4547 16.5793C10.3248 16.6084 10.1904 16.6353 10.0604 16.6645C9.90359 16.6981 9.75125 16.7294 9.59442 16.7608C9.15978 16.8482 8.73186 16.9333 8.31067 17.0095C8.13144 17.0408 7.95445 17.0722 7.77745 17.1036C7.62959 17.126 7.48172 17.1529 7.3361 17.1775C7.14342 17.2089 6.95299 17.2402 6.76704 17.2671C6.59901 17.2962 6.43546 17.3209 6.27415 17.3433C6.20021 17.3545 6.12852 17.3635 6.05683 17.3747C5.92016 17.3948 5.78126 17.4172 5.65132 17.4352C5.54154 17.4531 5.434 17.4665 5.32422 17.48L7.75057 9.51086L14.4964 2.0593L15.4441 1.2998C15.4441 1.2998 16.7592 1.58882 18.379 1.95176C20.0168 2.46481 21.5447 2.95322 21.9973 3.13693C31.109 6.89408 35.3769 11.7042 37.3619 15.6697C37.4157 15.775 37.465 15.8826 37.5143 15.9901L37.512 15.9879Z" fill="#2F7DC1"/>
<path d="M5.61813 41.1264C3.33965 36.733 2.48829 30.6369 2.27322 25.0135C2.26425 24.8678 2.26201 24.7267 2.25529 24.5833L1.6011 24.59V24.5811C1.6011 24.5811 1.59886 24.5878 1.59886 24.59C1.52492 24.8253 1.45771 25.0627 1.39274 25.3047C1.10149 26.3958 0.913294 27.5249 0.839361 28.6698C0.543628 33.2671 0.680293 40.3467 3.64882 44.8029C3.64882 44.8029 7.82716 53.0588 19.8245 54.4052C9.39544 50.7108 5.62261 41.1309 5.62261 41.1309H5.62037L5.61813 41.1264Z" fill="#D99F62"/>
<path d="M42.6498 21.9133C42.6498 21.9648 42.6476 21.9894 42.6476 21.9894C42.5378 22.0208 42.4258 22.0499 42.3137 22.0768C42.2286 22.097 42.1412 22.1104 42.0494 22.1283C41.9822 22.1396 41.9105 22.1508 41.8433 22.1597C40.4609 19.1061 37.8867 16.0703 37.8867 16.0703C39.0405 16.3123 40.2571 16.5162 41.487 16.6439C42.6745 19.3995 42.6655 21.4988 42.652 21.9155L42.6498 21.9133Z" fill="#90CEF1"/>
<path d="M41.4864 16.6394C40.2564 16.5117 39.0421 16.3078 37.8861 16.0659C37.7606 16.0412 37.6374 16.0121 37.5097 15.983C37.4581 15.8754 37.4111 15.7701 37.3573 15.6626C35.3723 11.6971 31.1066 6.88918 21.9927 3.12979C21.5423 2.94608 20.0144 2.45767 18.3789 1.94238C20.6462 2.44871 23.5005 3.10515 24.1614 3.31799C33.459 6.32908 38.0922 10.7427 40.3931 14.52C40.4155 14.5513 40.4334 14.5827 40.4535 14.6141C40.8725 15.3153 41.213 15.9919 41.4909 16.6327V16.6394H41.4886H41.4864Z" fill="#4495D1"/>
<path d="M5.31947 17.4795C5.21193 17.9948 2.3375 24.5748 2.25685 24.5838L1.60265 24.5905V24.5816C1.44134 22.6122 1.289 21.4383 1.92079 18.1606L1.97232 17.9052C2.23668 17.8716 2.54138 17.8335 2.88864 17.7954C2.98498 17.7819 3.08355 17.773 3.18661 17.7551C3.27175 17.7461 3.35912 17.7371 3.45098 17.7237C3.55852 17.7125 3.6683 17.7013 3.78256 17.6834H3.81616C3.91922 17.6722 4.02228 17.6587 4.12758 17.643C4.15895 17.643 4.19031 17.6341 4.22392 17.6296C4.30905 17.6206 4.39643 17.6072 4.48828 17.596C4.75489 17.5624 5.0327 17.5243 5.32395 17.4817H5.32171L5.31947 17.4795Z" fill="#56AAD0"/>
<path d="M37.8843 16.068C37.7589 16.0434 37.6357 16.0143 37.5102 15.9896C37.2637 15.9359 37.0151 15.8799 36.7731 15.8194C36.5311 15.7634 36.2914 15.7029 36.0562 15.6401C32.7359 14.7933 30.1662 13.738 29.4851 13.4468C29.3708 13.3953 29.3103 13.3684 29.3103 13.3684C27.1013 12.6806 25.123 12.4991 23.4539 12.5641C23.3217 12.573 23.1896 12.5775 23.0574 12.5865C22.8311 12.6044 22.6071 12.6201 22.392 12.647C22.2822 12.6604 22.1769 12.6716 22.0716 12.6828C21.9663 12.7007 21.861 12.7119 21.7624 12.7276C21.3547 12.7881 20.9805 12.8598 20.6288 12.9427C20.5414 12.9629 20.4585 12.983 20.3734 13.0054C20.2882 13.0278 20.2031 13.0502 20.1202 13.0682C20.044 13.0928 19.9679 13.113 19.8939 13.1331C19.8178 13.1555 19.7438 13.1779 19.6699 13.2003C19.5825 13.2295 19.4996 13.2519 19.4167 13.2788C19.3226 13.3101 19.233 13.3415 19.1456 13.3728C19.0852 13.393 19.0291 13.4154 18.9754 13.4333C18.8902 13.4692 18.8073 13.5006 18.7289 13.5319C18.6505 13.5633 18.5788 13.5946 18.5116 13.6215C18.4489 13.6439 18.3929 13.6731 18.3391 13.6955C17.9986 13.8456 17.8149 13.9531 17.8149 13.9531C17.5617 14.092 17.313 14.2287 17.0598 14.3586C16.9008 14.4438 16.7417 14.5267 16.5759 14.6006C16.5423 14.6207 16.5042 14.6342 16.4706 14.6521C16.3093 14.7305 16.148 14.8022 15.98 14.8739C15.8545 14.9277 15.7313 14.9815 15.6036 15.0352C15.496 15.0778 15.3907 15.1226 15.281 15.1629C15.0905 15.2369 14.8956 15.313 14.7007 15.3802C14.5304 15.443 14.3602 15.5012 14.1899 15.5595C13.8942 15.6625 13.5984 15.7544 13.2937 15.8462C13.1638 15.8866 13.0383 15.9224 12.9106 15.956C12.1018 16.1913 11.2774 16.3974 10.4529 16.5789C10.323 16.608 10.1885 16.6349 10.0586 16.664C9.90176 16.6976 9.74942 16.729 9.59259 16.7603C9.15795 16.8477 8.73004 16.9328 8.30884 17.009C8.12961 17.0404 7.95262 17.0717 7.77563 17.1031C7.62776 17.1255 7.47989 17.1524 7.33427 17.177C7.14159 17.2084 6.95116 17.2398 6.76521 17.2667C6.59718 17.2958 6.43363 17.3204 6.27232 17.3428C6.19839 17.354 6.12669 17.363 6.055 17.3742C5.91834 17.3944 5.77943 17.4168 5.64949 17.4347C5.53971 17.4526 5.43217 17.4661 5.32239 17.4795L2.25977 24.5838L3.83028 24.3687C3.96247 24.3463 4.09689 24.3239 4.23804 24.3015C4.37918 24.2769 4.52257 24.25 4.66819 24.2231C4.8183 24.1917 4.96841 24.1626 5.12748 24.1357C5.22381 24.1156 5.32239 24.0954 5.42321 24.073C5.51282 24.0506 5.60692 24.0327 5.70326 24.0125C5.70998 24.0125 5.7167 24.0103 5.72342 24.0103C5.73462 24.0103 5.74583 24.0103 5.75703 24.0035C5.77719 23.9946 5.79959 23.9901 5.822 23.9856C5.92058 23.9632 6.02363 23.9408 6.12445 23.9184C6.29248 23.8826 6.45827 23.84 6.63078 23.7974C6.81001 23.7526 6.98701 23.71 7.16848 23.6608C7.17968 23.6585 7.19312 23.654 7.20432 23.6518C7.2917 23.6271 7.37684 23.6025 7.46421 23.5801C7.54935 23.5577 7.63672 23.5308 7.7241 23.5062C7.81819 23.4815 7.91229 23.4524 8.01087 23.4278C8.02879 23.421 8.04671 23.4166 8.06464 23.4098C8.14305 23.3897 8.22147 23.365 8.29764 23.3426C8.33797 23.3314 8.37381 23.318 8.4119 23.3068C8.4343 23.3001 8.45447 23.2956 8.47463 23.2888C8.48807 23.2888 8.49927 23.2821 8.51048 23.2799C8.63146 23.2396 8.75692 23.2037 8.88238 23.1634C9.08178 23.1007 9.27893 23.0357 9.48057 22.9685C11.8733 22.1642 14.4901 20.979 16.8425 19.2427C16.8425 19.2427 16.856 19.2315 16.8851 19.2136C16.9075 19.2001 16.9366 19.18 16.9747 19.1576C17.0195 19.1284 17.0733 19.0948 17.1383 19.059C17.2032 19.0231 17.2772 18.9806 17.3623 18.9313C17.5751 18.8148 17.8507 18.6714 18.1823 18.5213C18.3122 18.4608 18.4511 18.4003 18.599 18.3376C18.7469 18.2748 18.9014 18.2121 19.065 18.1494C19.1479 18.118 19.233 18.0866 19.3182 18.0553C19.4055 18.0239 19.4929 17.9925 19.5848 17.9657C19.6475 17.9455 19.7102 17.9231 19.773 17.9029C19.7797 17.9007 19.7842 17.9007 19.7909 17.8962C19.7976 17.894 19.8021 17.8962 19.8088 17.8895C19.8581 17.876 19.9029 17.8604 19.9499 17.8492C19.9813 17.8402 20.0149 17.829 20.0463 17.8178C20.0777 17.8066 20.1113 17.7976 20.1449 17.7887C20.1695 17.7797 20.1964 17.7707 20.221 17.7663C20.2278 17.7663 20.2322 17.7663 20.239 17.7595C20.2995 17.7416 20.3577 17.7259 20.4204 17.708C20.5571 17.6722 20.7005 17.6341 20.8483 17.6005C20.8573 17.5982 20.8663 17.5982 20.873 17.5938C20.9357 17.5803 21.0007 17.5624 21.0657 17.5512H21.0724C21.0948 17.5445 21.115 17.5422 21.1374 17.5377C21.2225 17.5176 21.3076 17.5019 21.395 17.4862C21.5048 17.4638 21.619 17.4437 21.7333 17.4235C21.8184 17.41 21.9036 17.3944 21.991 17.3832C22.0738 17.3697 22.1545 17.3585 22.2396 17.3496C22.3024 17.3384 22.3673 17.3316 22.4323 17.3249C22.5511 17.3115 22.6743 17.3003 22.7953 17.2891C23.2613 17.2465 23.7474 17.2286 24.2493 17.2443C24.3142 17.2443 24.3859 17.2465 24.4532 17.2532H24.6458C24.6593 17.2532 24.6772 17.2555 24.6906 17.2555C24.7982 17.2622 24.9035 17.2667 25.011 17.2801C25.067 17.2868 25.1275 17.2891 25.1835 17.298C25.2014 17.298 25.2171 17.3003 25.2351 17.3047H25.244C25.244 17.3047 25.2754 17.307 25.2888 17.3115C25.3628 17.3182 25.4344 17.3249 25.5061 17.3361H25.5554C25.6338 17.3451 25.7145 17.3563 25.7974 17.3697C25.8198 17.372 25.8467 17.3787 25.8691 17.3809C25.878 17.3809 25.8825 17.3809 25.8915 17.3832H25.9206C25.9856 17.3921 26.0483 17.4033 26.1155 17.4168C26.1155 17.4168 26.1245 17.419 26.1267 17.419H26.1402C26.1738 17.419 26.2119 17.428 26.2455 17.4369H26.2522C26.2522 17.4369 26.2768 17.4459 26.288 17.4481C26.2992 17.4504 26.3127 17.4504 26.3239 17.4549H26.3328C26.3866 17.4638 26.4381 17.4728 26.4919 17.4862C26.5054 17.4862 26.521 17.4929 26.5345 17.4952C26.577 17.5019 26.6174 17.5086 26.6555 17.5198C26.6667 17.5221 26.6756 17.5265 26.6868 17.5288C26.8392 17.5602 26.996 17.596 27.1551 17.6386C27.1999 17.6498 27.2447 17.661 27.2917 17.6744C27.341 17.6856 27.3858 17.6991 27.4306 17.7147C27.4598 17.7237 27.4844 17.7282 27.5135 17.7371C27.5225 17.7394 27.5337 17.7439 27.5427 17.7461C27.6256 17.7685 27.7062 17.7909 27.7891 17.82H27.7981C27.8653 17.8424 27.9347 17.8626 27.9997 17.885C28.0624 17.9052 28.1252 17.9253 28.1879 17.9477C28.1991 17.9545 28.2103 17.9567 28.2215 17.9589C28.2417 17.9679 28.2573 17.9769 28.2753 17.9813C28.3044 17.9903 28.3313 18.0015 28.3604 18.0105H28.3671C28.4814 18.0463 28.5934 18.0889 28.7054 18.1382C28.8466 18.1942 28.99 18.2547 29.1333 18.3174C29.2543 18.3689 29.3775 18.4249 29.4985 18.481C29.6486 18.5549 29.801 18.6288 29.9556 18.7072C29.9981 18.7296 30.0385 18.7476 30.0765 18.77C30.1706 18.8215 30.267 18.8685 30.3611 18.9223C30.379 18.9313 30.3969 18.9447 30.4171 18.9537C30.4417 18.9671 30.4686 18.9828 30.4933 18.9962C30.621 19.0702 30.7509 19.1441 30.8786 19.2225C30.8786 19.2225 30.9951 19.2853 31.2079 19.3906C31.2617 19.4152 31.3177 19.4443 31.3827 19.4757C31.4006 19.4847 31.4163 19.4936 31.432 19.5003C31.4499 19.5115 31.4656 19.5183 31.4835 19.525C31.6896 19.6236 31.945 19.749 32.2341 19.879C32.2901 19.9036 32.3483 19.9327 32.4066 19.9574C32.485 19.991 32.5679 20.0291 32.653 20.0649C32.653 20.0649 32.653 20.0672 32.6597 20.0672C32.6709 20.0672 32.6821 20.0761 32.6933 20.0806C32.7045 20.0806 32.7157 20.0873 32.7247 20.0918L32.7269 20.094C32.8412 20.1456 32.951 20.1971 33.0697 20.2441C33.072 20.2441 33.072 20.2464 33.0787 20.2464C33.1392 20.271 33.1974 20.2979 33.2602 20.3248C33.3229 20.3494 33.3879 20.3763 33.4506 20.4032C33.5649 20.448 33.6836 20.4973 33.8023 20.5444C33.8807 20.5757 33.9636 20.6071 34.0465 20.6407C34.1832 20.6945 34.3221 20.7482 34.4655 20.802C34.6783 20.8849 34.9001 20.9633 35.1242 21.044C35.169 21.0619 35.2183 21.0776 35.2653 21.0955C35.3706 21.1291 35.4714 21.1627 35.579 21.1986C35.6462 21.221 35.7156 21.2434 35.7828 21.2658C35.8702 21.2949 35.9576 21.3218 36.0427 21.3509C36.1391 21.3823 36.2354 21.4114 36.3317 21.4383C36.5983 21.5167 36.8672 21.5951 37.1405 21.6646C37.1652 21.6713 37.1943 21.678 37.2189 21.6847C37.3399 21.7161 37.4654 21.7475 37.5864 21.7743C37.7432 21.8147 37.9 21.8505 38.0636 21.8819C38.0815 21.8886 38.0972 21.8908 38.1151 21.8931C38.1868 21.911 38.2607 21.9244 38.3324 21.9379C38.3571 21.9446 38.3862 21.9469 38.4108 21.9513C38.4758 21.9648 38.5385 21.976 38.6035 21.9917C38.6371 21.9984 38.6707 22.0029 38.7088 22.0096C38.7424 22.0163 38.776 22.0208 38.8119 22.0275C38.8791 22.0387 38.9485 22.0499 39.018 22.0611C39.0852 22.0701 39.1546 22.079 39.2219 22.0902C39.3496 22.1082 39.475 22.1238 39.5982 22.135C39.6946 22.1462 39.7909 22.1552 39.8895 22.1642C39.9522 22.1731 40.015 22.1754 40.0732 22.1776C40.1404 22.1843 40.2099 22.1888 40.2793 22.1888H40.3398C40.3824 22.1911 40.4249 22.1911 40.4675 22.1911C40.5011 22.1933 40.5325 22.1933 40.5639 22.1933H40.6199C40.6445 22.1933 40.6736 22.1955 40.6983 22.1955H40.7476C40.8573 22.1955 40.9716 22.1888 41.0769 22.1866C41.1128 22.1843 41.1531 22.1843 41.1867 22.1799C41.2225 22.1799 41.2606 22.1776 41.2942 22.1731H41.3144C41.3995 22.1664 41.4779 22.1619 41.5631 22.1507C41.6482 22.1418 41.7356 22.1306 41.8207 22.1194C40.4384 19.0657 37.8642 16.03 37.8642 16.03H37.8731L37.8843 16.0524V16.068Z" fill="#61C2EE"/>
<path d="M12.5479 25.6262C12.2163 25.6262 11.9475 25.895 11.9475 26.2266C11.9475 26.5582 12.2163 26.827 12.5479 26.827C12.8795 26.827 13.1483 26.5582 13.1483 26.2266C13.1483 25.895 12.8795 25.6262 12.5479 25.6262ZM12.5479 28.2452C11.4344 28.2452 10.5293 27.3401 10.5293 26.2266C10.5293 25.1131 11.4344 24.208 12.5479 24.208C13.6614 24.208 14.5665 25.1131 14.5665 26.2266C14.5665 27.3401 13.6614 28.2452 12.5479 28.2452Z" fill="#181C1C"/>
<path d="M33.7178 24.0412C33.3862 24.0412 33.1174 24.3101 33.1174 24.6416C33.1174 24.9732 33.3862 25.2421 33.7178 25.2421C34.0494 25.2421 34.3182 24.9732 34.3182 24.6416C34.3182 24.3101 34.0494 24.0412 33.7178 24.0412ZM33.7178 26.6602C32.6043 26.6602 31.6992 25.7551 31.6992 24.6416C31.6992 23.5282 32.6043 22.623 33.7178 22.623C34.8313 22.623 35.7364 23.5282 35.7364 24.6416C35.7364 25.7551 34.8313 26.6602 33.7178 26.6602Z" fill="#181C1C"/>
<path d="M39.3975 31.0471C39.0659 31.0471 38.7971 31.3159 38.7971 31.6475C38.7971 31.9791 39.0659 32.2479 39.3975 32.2479C39.7291 32.2479 39.9979 31.9791 39.9979 31.6475C39.9979 31.3159 39.7291 31.0471 39.3975 31.0471ZM39.3975 33.6661C38.284 33.6661 37.3789 32.761 37.3789 31.6475C37.3789 30.534 38.284 29.6289 39.3975 29.6289C40.511 29.6289 41.4161 30.534 41.4161 31.6475C41.4161 32.761 40.511 33.6661 39.3975 33.6661Z" fill="#181C1C"/>
<path d="M18.9483 45.5764C18.6167 45.5764 18.3479 45.8452 18.3479 46.1768C18.3479 46.5084 18.6167 46.7772 18.9483 46.7772C19.2799 46.7772 19.5487 46.5084 19.5487 46.1768C19.5487 45.8452 19.2799 45.5764 18.9483 45.5764ZM18.9483 48.1954C17.8348 48.1954 16.9297 47.2903 16.9297 46.1768C16.9297 45.0633 17.8348 44.1582 18.9483 44.1582C20.0618 44.1582 20.9669 45.0633 20.9669 46.1768C20.9669 47.2903 20.0618 48.1954 18.9483 48.1954Z" fill="#181C1C"/>
<path d="M6.02641 32.2121C5.69483 32.2121 5.42598 32.481 5.42598 32.8125C5.42598 33.1441 5.69483 33.413 6.02641 33.413C6.35799 33.413 6.62684 33.1441 6.62684 32.8125C6.62684 32.481 6.35799 32.2121 6.02641 32.2121ZM6.02641 34.8311C4.91293 34.8311 4.00781 33.926 4.00781 32.8125C4.00781 31.6991 4.91293 30.7939 6.02641 30.7939C7.13989 30.7939 8.04501 31.6991 8.04501 32.8125C8.04501 33.926 7.13989 34.8311 6.02641 34.8311Z" fill="#181C1C"/>
<path d="M9.8936 42.2492C9.56202 42.2492 9.29317 42.5181 9.29317 42.8497C9.29317 43.1812 9.56202 43.4501 9.8936 43.4501C10.2252 43.4501 10.494 43.1812 10.494 42.8497C10.494 42.5181 10.2252 42.2492 9.8936 42.2492ZM9.8936 44.8683C8.78012 44.8683 7.875 43.9631 7.875 42.8497C7.875 41.7362 8.78012 40.8311 9.8936 40.8311C11.0071 40.8311 11.9122 41.7362 11.9122 42.8497C11.9122 43.9631 11.0071 44.8683 9.8936 44.8683Z" fill="#181C1C"/>
<path d="M39.0811 40.9387C38.7495 40.9387 38.4807 41.2075 38.4807 41.5391C38.4807 41.8707 38.7495 42.1395 39.0811 42.1395C39.4127 42.1395 39.6815 41.8707 39.6815 41.5391C39.6815 41.2075 39.4127 40.9387 39.0811 40.9387ZM39.0811 43.5577C37.9676 43.5577 37.0625 42.6526 37.0625 41.5391C37.0625 40.4256 37.9676 39.5205 39.0811 39.5205C40.1946 39.5205 41.0997 40.4256 41.0997 41.5391C41.0997 42.6526 40.1946 43.5577 39.0811 43.5577Z" fill="#181C1C"/>
<path d="M30.587 47.2072C30.2554 47.2072 29.9865 47.4761 29.9865 47.8077C29.9865 48.1392 30.2554 48.4081 30.587 48.4081C30.9185 48.4081 31.1874 48.1392 31.1874 47.8077C31.1874 47.4761 30.9185 47.2072 30.587 47.2072ZM30.587 49.8263C29.4735 49.8263 28.5684 48.9211 28.5684 47.8077C28.5684 46.6942 29.4735 45.7891 30.587 45.7891C31.7004 45.7891 32.6056 46.6942 32.6056 47.8077C32.6056 48.9211 31.7004 49.8263 30.587 49.8263Z" fill="#181C1C"/>
<path d="M44.1136 40.6901C42.5342 46.1208 39.1624 49.9564 34.0901 52.0937C30.268 53.7046 26.7461 53.6956 26.7461 53.6956C18.0175 54.585 12.3806 52.0377 9.18807 49.7413C5.72665 47.2522 4.30176 44.5077 4.28608 44.4831L4.24351 44.4092C1.45421 40.2196 1.23914 33.5634 1.54831 28.7152C1.62224 27.5614 1.81716 26.4188 2.12633 25.3098H2.13978C2.20475 25.303 2.27196 25.2963 2.35037 25.2874C2.35261 25.2874 2.5184 25.2672 2.60354 25.2582C2.6237 25.2582 2.83878 25.2291 2.93512 25.2157C2.94632 25.2157 2.95976 25.2134 2.97545 25.2089C3.06282 25.1977 3.15692 25.1843 3.2555 25.1731C3.2779 25.1709 3.29806 25.1664 3.32047 25.1641C3.42577 25.1507 3.53554 25.1328 3.64981 25.1149C3.67893 25.1126 3.70357 25.1059 3.7327 25.1014C3.84248 25.0835 3.95898 25.0656 4.07772 25.0454C4.08892 25.0454 4.10013 25.0432 4.11133 25.0387C4.23903 25.0185 4.36897 24.9939 4.5034 24.9715C4.53476 24.9647 4.56837 24.9603 4.59973 24.9535C4.7364 24.9289 4.87082 24.902 5.01645 24.8774C5.04109 24.8706 5.06574 24.8684 5.09038 24.8639C5.22032 24.8393 5.35475 24.8124 5.48693 24.7855C5.51606 24.7788 5.54742 24.7743 5.57431 24.7676C5.72441 24.7362 5.87676 24.7026 6.03359 24.669C6.06943 24.6601 6.10752 24.6511 6.14337 24.6444C6.3002 24.6108 6.45702 24.5727 6.62057 24.5346C6.62953 24.5346 6.6385 24.5323 6.64298 24.5279C6.81101 24.4875 6.98352 24.445 7.15603 24.4002C7.19187 24.3912 7.2322 24.38 7.27029 24.371C7.4428 24.3262 7.61531 24.2814 7.79454 24.2321C7.82367 24.2232 7.84831 24.2187 7.87744 24.2097C8.04099 24.1649 8.20677 24.1156 8.37705 24.0686C8.40841 24.0596 8.43978 24.0507 8.46666 24.0439C8.64813 23.9902 8.83409 23.9342 9.02228 23.8737C9.05813 23.8625 9.09845 23.849 9.13654 23.8378C9.32921 23.7751 9.52413 23.7124 9.72128 23.6474C11.89 22.917 13.8638 22.0097 15.6001 20.9477C16.1781 20.5937 16.7315 20.2218 17.258 19.8365C17.3207 19.7939 23.5625 15.6335 30.5211 19.8566L30.557 19.8768C30.557 19.8768 30.6175 19.9082 30.6959 19.9485C30.7609 19.9821 30.855 20.0269 30.9625 20.0807C31.7018 20.4459 33.3709 21.2345 35.3537 21.8976V21.9066L35.8488 22.0634C35.9026 22.0814 35.9541 22.0948 36.0079 22.1127L36.7696 22.3547V22.3345C38.2752 22.7423 39.6127 22.9529 40.7754 22.9529C40.8315 22.9529 40.8852 22.9506 40.9435 22.9461H40.986C41.2011 22.9394 41.4095 22.9282 41.6089 22.9103C41.6335 22.9103 41.6582 22.9036 41.6828 22.9036C41.8956 22.8812 42.0995 22.852 42.2989 22.814C43.6969 25.8206 44.3892 29.0333 44.7253 31.258L44.7544 31.4283C45.207 34.5873 44.9919 37.7081 44.1226 40.7013L44.1159 40.6923L44.1136 40.6901ZM3.6274 14.9905C3.90297 15.1316 4.50116 15.3758 5.34131 15.3758C5.92829 15.3758 6.63402 15.2571 7.42488 14.8964C7.7811 14.7351 7.93793 14.3161 7.77662 13.9577C7.61531 13.5992 7.19636 13.4446 6.83789 13.6059C5.26737 14.3184 4.2928 13.7448 4.23455 13.7112C4.21214 13.6978 4.18974 13.6888 4.16734 13.6776C4.25695 13.476 4.34657 13.2811 4.43618 13.0906C4.56837 13.1108 4.86634 13.1422 5.30098 13.1422C6.34052 13.1422 8.15076 12.9517 10.3015 11.9099C10.6533 11.7397 10.8012 11.314 10.6309 10.9623C10.4606 10.6105 10.0349 10.4626 9.6832 10.6329C7.62875 11.6277 5.93949 11.7374 5.12399 11.7195C5.81627 10.4358 6.40325 9.57097 6.57352 9.32453L15.6203 2.0634C18.3132 2.65262 23.1032 3.72801 23.9366 3.99686C33.8033 7.19391 38.2684 11.9682 40.2826 15.7746C39.5567 15.6693 38.8039 15.5327 38.0287 15.3714C37.4485 15.2526 36.8435 15.1115 36.2319 14.9524C32.8624 14.0943 30.2545 13.001 29.7706 12.7949L29.6003 12.7187L29.5174 12.6874C27.4854 12.0533 25.4377 11.771 23.4236 11.8517C19.7874 12.0018 17.547 13.2833 17.4641 13.3304C17.2513 13.4491 17.0407 13.5634 16.8323 13.6731L16.7292 13.7269C12.6921 15.8418 6.23298 16.6663 2.92392 17.0696C3.13451 16.3415 3.372 15.6447 3.6274 14.986H3.62516L3.6274 14.9905ZM36.7651 16.5498C37.0945 16.626 37.4171 16.6999 37.7397 16.7649C38.8644 17.0001 39.9555 17.1816 40.9905 17.3026C41.7366 19.1688 41.9024 20.6721 41.9382 21.4272C41.414 21.5213 40.8158 21.5437 40.1504 21.4989H40.128C39.9151 21.4854 39.6978 21.463 39.4693 21.4339C39.4491 21.4339 39.429 21.4272 39.4088 21.4249C39.1937 21.3958 38.9719 21.3622 38.7456 21.3219C38.7165 21.3151 38.6919 21.3107 38.6627 21.3084C38.4387 21.2681 38.2124 21.221 37.9794 21.1695C37.9481 21.1628 37.9167 21.1561 37.8853 21.1471C37.6501 21.0933 37.4126 21.0328 37.1684 20.9679C37.137 20.9589 37.1079 20.95 37.0788 20.9432C36.9757 20.9141 36.8682 20.8805 36.7651 20.8491V16.5521V16.5498ZM24.1629 13.2609C25.6908 13.2699 27.239 13.5029 28.7781 13.9532V17.4325C27.1538 16.8209 25.5945 16.57 24.1629 16.5543V13.2631V13.2609ZM2.2518 23.8692C2.22715 23.5712 2.51168 18.8283 2.56545 18.5482C2.65283 18.537 6.45254 18.0778 8.78032 17.6409V22.451C8.74895 22.46 2.30781 23.8602 2.2518 23.8647V23.8692ZM16.4425 15.4453L16.7203 18.4945C16.5411 18.5998 16.4402 18.667 16.429 18.6737C14.9257 19.7827 13.1939 20.7438 11.2604 21.5481C10.9109 21.6938 10.557 21.8327 10.194 21.9649V17.3608C11.6884 17.0427 13.2073 16.6461 14.6278 16.1533C14.6614 16.1421 14.695 16.1309 14.7331 16.1174C14.8742 16.0659 15.0176 16.0144 15.1587 15.9651C15.2147 15.9449 15.273 15.9225 15.329 15.9001C15.5418 15.8217 15.748 15.7365 15.9563 15.6514C16.0459 15.6156 16.1378 15.5752 16.2274 15.5349C16.2991 15.5035 16.373 15.4744 16.4425 15.4453ZM22.7447 13.3214V16.6036C20.8135 16.7761 19.1959 17.3183 18.0824 17.8044L17.8046 14.762C17.9234 14.697 18.0466 14.632 18.1698 14.5603C18.1765 14.5581 18.4118 14.4237 18.8419 14.2467C18.8643 14.2377 18.8912 14.2265 18.9136 14.2176C18.9629 14.1974 19.0122 14.1772 19.066 14.1571C19.1086 14.1391 19.1511 14.1257 19.1937 14.1078C19.243 14.0899 19.2878 14.0742 19.3393 14.054C19.3931 14.0338 19.4491 14.0137 19.5029 13.998L19.6552 13.9465C19.7112 13.9285 19.7695 13.9106 19.8277 13.8927C19.8905 13.8725 19.9532 13.8524 20.0182 13.8322C20.063 13.8188 20.1122 13.8076 20.1593 13.7919C20.2444 13.7695 20.3296 13.7426 20.4192 13.7202C20.4281 13.7202 20.4393 13.7135 20.4506 13.7112C21.0958 13.5432 21.8642 13.3976 22.7447 13.3169V13.3214ZM35.347 16.1891V20.3921C35.347 20.3921 35.329 20.3854 35.3246 20.3831C35.3022 20.3742 35.2797 20.3652 35.2573 20.3585C35.1319 20.3137 35.0109 20.2711 34.8922 20.2263C34.8473 20.2084 34.8025 20.1927 34.7555 20.1748C34.6592 20.1389 34.5651 20.1031 34.471 20.0672C34.4194 20.0471 34.3724 20.0269 34.3209 20.0067C34.2357 19.9731 34.1506 19.9395 34.0655 19.9037C34.0139 19.8835 33.9669 19.8634 33.9153 19.8432C33.8324 19.8096 33.754 19.7782 33.6734 19.7446C33.6241 19.7245 33.577 19.7043 33.5322 19.6841C33.4538 19.6505 33.3754 19.6192 33.2992 19.5855C33.2567 19.5676 33.2141 19.5497 33.1738 19.5318C33.0886 19.4959 33.0057 19.4578 32.9273 19.4242C32.8982 19.413 32.8713 19.3996 32.8422 19.3884C32.7347 19.3391 32.6316 19.2943 32.533 19.2495C32.5129 19.2405 32.4927 19.2316 32.4725 19.2204C32.3964 19.1868 32.3202 19.1487 32.2485 19.1173C32.2171 19.1039 32.1858 19.0882 32.1544 19.0747C32.1006 19.0501 32.0469 19.0232 31.9953 19.0008C31.9617 18.9829 31.9304 18.9694 31.899 18.956C31.8564 18.9358 31.8139 18.9157 31.778 18.8955C31.7466 18.8821 31.7175 18.8664 31.6906 18.8529C31.657 18.835 31.6234 18.8193 31.5921 18.8037C31.5674 18.7902 31.5383 18.779 31.5159 18.7678C31.4912 18.7566 31.4666 18.7432 31.4442 18.732C31.4218 18.7208 31.3949 18.7096 31.377 18.6984C31.3635 18.6916 31.3523 18.6871 31.3411 18.6804C31.2874 18.6513 31.247 18.6311 31.2269 18.6199C30.8774 18.4093 30.5323 18.2234 30.1896 18.0509V14.4998C31.303 14.9367 33.1267 15.5932 35.3425 16.1869H35.3447L35.347 16.1891ZM46.121 31.0385L46.0852 30.7965H46.0829C45.6998 28.3724 44.9202 24.9334 43.3609 21.7543C43.3631 20.9724 43.2466 18.9448 42.1354 16.3616L41.9718 15.9785H41.9629C40.0406 11.7979 35.4254 6.22605 24.3735 2.6459C23.2264 2.27623 15.9048 0.674348 15.5911 0.607136L15.2618 0.533203L5.54518 8.34099L5.49141 8.41492C5.32786 8.63672 2.65955 12.3244 1.387 17.2645L1.37356 17.2712L1.32427 17.5087V17.5177C0.788817 19.6841 0.540132 22.0791 0.878433 24.5189C0.472921 25.8475 0.219756 27.2298 0.13014 28.6233C-0.192478 33.6777 0.0472448 40.6431 3.03818 45.1619C3.23981 45.5428 4.76776 48.2895 8.28743 50.8391C11.2156 52.963 16.0683 55.293 23.251 55.293C24.3914 55.293 25.59 55.2325 26.8491 55.1048C27.286 55.1048 30.6892 55.0443 34.5852 53.4156C38.376 51.8316 43.3407 48.406 45.4713 41.0822C46.419 37.8358 46.6363 34.4551 46.121 31.0362V31.0385Z" fill="#181C1C"/>
<path d="M25.7782 37.2396L25.6483 37.3024C25.2943 37.4704 24.909 37.5802 24.5012 37.6295C21.1899 38.0171 19.3909 35.8842 18.6135 34.5736C18.2147 33.9037 18.0354 33.1195 18.1094 32.3601C18.3334 30.0748 20.7306 29.0801 20.7508 29.0711L20.7799 29.0599C22.0009 28.5133 23.1122 28.2377 24.1136 28.2377C24.9829 28.2377 25.767 28.4438 26.4548 28.8606C27.3241 29.3848 27.9425 30.2675 28.1463 31.2847C28.8902 34.9813 27.0441 36.5877 25.7782 37.2396ZM31.8676 30.4736C31.5002 30.337 31.0947 30.5252 30.958 30.8926C30.7587 31.4303 29.7684 31.4482 29.6183 31.4482C29.5959 31.3026 29.569 31.157 29.5399 31.0069C29.2598 29.5999 28.3995 28.3766 27.1897 27.6485C26.9029 27.476 26.5691 27.3147 26.186 27.178C26.6341 26.9741 27.0754 26.7187 27.5011 26.3984C27.8125 26.1631 27.8775 25.7173 27.6423 25.4059C27.407 25.0944 26.9612 25.0295 26.6498 25.2647C23.6902 27.4872 19.4267 25.9951 19.364 25.9772C18.9966 25.845 18.591 26.0332 18.4566 26.4028C18.3244 26.7703 18.5126 27.1758 18.8823 27.3102C18.9495 27.3348 19.5163 27.5342 20.3744 27.6978C20.3206 27.7202 20.2691 27.7404 20.2153 27.7628C19.9353 27.8793 17.0004 29.154 16.7002 32.2256C16.5949 33.2853 16.8458 34.3809 17.3969 35.3039C17.5045 35.4876 17.6501 35.7072 17.8159 35.9425C17.4283 36.8184 15.7099 36.5586 15.692 36.5541C15.3066 36.4891 14.9414 36.7468 14.872 37.1299C14.8048 37.5152 15.0624 37.8849 15.4478 37.9498C15.692 37.9924 15.981 38.0215 16.2834 38.0215C17.1505 38.0215 18.1654 37.7975 18.777 37.0627C19.8457 38.1022 21.4565 39.0969 23.7126 39.0969C24.0151 39.0969 24.3332 39.079 24.6625 39.0409C24.8574 39.0185 25.0501 38.9849 25.2383 38.9379L26.2532 38.5861C27.1068 38.1784 28.6437 37.1904 29.3517 35.2076C29.6586 35.3779 30.0126 35.5033 30.4024 35.5033C30.6399 35.5033 30.8931 35.4585 31.153 35.3532C31.5159 35.2076 31.6907 34.7954 31.5473 34.4324C31.4016 34.0695 30.9894 33.8947 30.6265 34.0381C30.221 34.2017 29.849 33.8746 29.6855 33.6953C29.7101 33.4354 29.7258 33.1599 29.7258 32.8731C30.5593 32.8619 31.852 32.546 32.2776 31.39C32.4143 31.0248 32.2261 30.617 31.8587 30.4804H31.8676V30.4736Z" fill="#181C1C"/>
<path d="M53.9347 14.9705C53.8294 15.6158 54.0825 16.3192 54.7591 15.5463C55.1624 15.087 55.5679 14.3567 55.6889 13.6801C55.8524 12.8108 55.4514 12.8556 54.8622 13.3171C54.3671 13.7137 54.0198 14.3387 53.9391 14.9705H53.9369H53.9347ZM54.441 18.6067C54.6538 19.187 55.5814 19.1534 56.1549 18.5753C56.9166 17.8046 56.4887 17.3857 55.5097 17.4327C54.8017 17.4843 54.1654 17.7307 54.441 18.6067ZM55.3036 11.3388C56.5828 11.0185 57.5193 11.9124 57.4431 13.2051C57.3871 14.1976 56.9413 14.9593 56.4887 15.8084C56.7016 15.8712 56.9166 15.9339 57.1317 16.0078C58.4446 16.485 58.9263 17.6232 58.2967 18.8845C57.4991 20.4752 54.2349 22.1107 53.1572 20.0069C52.2342 18.2012 51.7324 14.6457 52.055 12.645C52.2051 11.7063 53.0251 11.4441 53.5605 12.2798C54.0803 11.8653 54.6516 11.5024 55.3036 11.3433V11.3388Z" fill="#181C1C"/>
<path d="M61.4662 20.0337C61.3721 20.5781 60.9531 20.8895 60.5252 20.9208C60.0301 20.9545 59.4901 20.6072 59.4789 19.5654C59.461 18.7925 59.5461 13.3438 59.6895 12.9338C60.0301 11.9906 61.2959 11.8719 61.4438 13.3595C61.7865 16.579 61.6723 18.9403 61.4662 20.0314V20.0337Z" fill="#181C1C"/>
<path d="M66.9832 19.5359C65.146 20.6965 62.9975 19.2133 62.7623 17.2664C62.648 16.2403 62.7062 15.0686 62.9258 14.0492C62.946 13.9439 62.9796 13.8274 63.0356 13.7355C63.3784 12.9648 64.4179 12.9783 64.6352 13.8296C64.913 14.9588 64.5479 16.3075 64.9265 17.3852C65.0475 17.7055 65.2379 17.9699 65.6098 18.0169C67.6508 18.2522 66.1766 13.0455 67.8524 12.9514C68.3588 12.929 68.771 13.2203 68.8606 13.6706C69.0645 14.6608 68.9032 15.7049 69.051 16.6951C69.1586 17.4098 69.8329 18.7854 69.1989 19.294C68.6411 19.7107 68.137 19.3052 67.6777 18.9915C67.4514 19.1595 67.2363 19.3724 66.9832 19.5382V19.5359Z" fill="#181C1C"/>
<path d="M73.7038 14.9591C74.1855 14.7978 74.1407 13.7493 73.3722 13.9733C72.7852 14.1346 72.5366 14.3833 72.3394 14.9546C72.792 15.0622 73.2557 15.1114 73.7038 14.9613V14.9591ZM73.78 17.5132C74.2841 17.3406 74.9808 16.8634 75.3976 17.4683C76.1974 18.6311 73.892 19.6281 72.6844 19.3391C71.1274 18.9672 70.1662 17.782 70.1326 16.1891C70.0878 14.0024 70.8921 12.0779 73.3633 11.9816C75.9845 11.8673 76.5065 16.4154 73.3565 16.7805C72.9891 16.8231 72.4402 16.6618 72.0818 16.5655C72.3058 17.2891 73.0317 17.7596 73.7777 17.5132H73.78Z" fill="#181C1C"/>
<path d="M80.4912 15.3197C80.0118 14.2599 78.4704 15.2547 78.3897 16.0814C78.3494 16.5071 78.3897 16.9484 78.3987 17.3763C79.8617 18.1605 81.1521 16.7871 80.4912 15.3152V15.3197ZM79.1515 13.1621C81.7257 12.3937 83.2984 15.1382 82.8078 17.3853C82.4269 19.1395 80.6637 20.1948 78.9297 19.852C78.5734 19.7803 77.8543 19.4756 77.5921 19.4644C77.1754 19.4465 76.92 19.1955 76.761 18.8304C76.2188 17.5825 76.5459 12.3892 77.2561 11.3183C77.4891 10.98 77.7983 10.8075 78.2083 10.8926C79.3329 11.1077 78.8602 12.5595 78.681 13.3055L79.1492 13.1599L79.1515 13.1621Z" fill="#181C1C"/>
<path d="M87.2546 14.5802C87.7363 14.4189 87.6915 13.3704 86.923 13.5944C86.336 13.7557 86.0873 14.0044 85.8902 14.5757C86.3427 14.6833 86.8065 14.7325 87.2546 14.5824V14.5802ZM87.3308 17.1342C87.8349 16.9617 88.5316 16.4845 88.9483 17.0894C89.7482 18.2522 87.4428 19.2492 86.2352 18.9602C84.6781 18.5883 83.717 17.4031 83.6834 15.8102C83.6386 13.6235 84.4429 11.699 86.914 11.6027C89.5353 11.4884 90.0573 16.0365 86.9073 16.4016C86.5399 16.4442 85.991 16.2829 85.6325 16.1866C85.8566 16.9102 86.5825 17.3807 87.3285 17.1342H87.3308Z" fill="#181C1C"/>
<path d="M94.7714 12.2366C95.1746 13.1843 94.5227 13.9864 93.5862 13.8363C91.8656 13.5562 92.5511 16.0655 92.764 17.0602C92.9454 17.8959 93.0171 18.5814 92.3338 18.8458C90.6065 19.4619 89.7551 13.6526 89.8649 12.5122C89.8963 12.1201 90.08 11.8244 90.4496 11.7281C90.9649 11.5959 91.18 11.9207 91.4623 12.3128C92.1927 11.5847 94.1889 10.8991 94.7758 12.2389H94.7736L94.7714 12.2366Z" fill="#181C1C"/>
<path d="M100.073 15.2349C100.183 16.2588 99.3294 16.839 98.478 16.4246C96.9098 15.6583 96.847 18.2617 96.7619 19.2766C96.6947 20.1302 96.567 20.8068 95.8344 20.8605C94.004 20.9546 94.8553 15.1431 95.29 14.0833C95.4311 13.7182 95.6955 13.4852 96.0741 13.4986C96.6051 13.5188 96.7171 13.8929 96.8762 14.35C97.7858 13.8615 99.8962 13.7809 100.071 15.2349H100.073Z" fill="#181C1C"/>
<path d="M103.276 16.8809C102.089 16.9996 101.152 16.314 100.785 15.3103C100.317 14.0311 100.753 12.6712 101.199 11.4658C101.338 11.1006 101.627 10.8318 102.075 10.8071C103.998 10.7108 102.548 13.4665 102.725 14.7368C102.824 15.3708 103.229 15.4829 103.733 15.093C104.464 14.5285 105.091 12.7765 105.364 11.9206C105.552 11.3157 106.039 11.2059 106.682 11.2709C107.293 11.3202 107.558 11.8064 107.558 12.3194C107.569 13.4441 106.552 17.4768 106.041 18.4962C104.712 22.1167 99.0642 20.2415 100.001 18.3035C100.706 16.8405 104.201 20.5887 104.555 16.5314C104.13 16.6389 103.711 16.8428 103.272 16.8809H103.278H103.276Z" fill="#181C1C"/>
<path d="M57.112 29.6828C56.8835 30.8568 57.2958 32.1585 58.584 30.7829C59.3435 29.9696 60.1299 28.6567 60.392 27.4357C60.7437 25.8562 60.0066 25.9167 58.8999 26.7233C57.9701 27.4178 57.3002 28.538 57.112 29.6828ZM57.8178 36.3503C58.1717 37.4256 59.861 37.4167 60.9498 36.3951C62.3904 35.0374 61.6332 34.2465 59.8386 34.2712C58.5392 34.3204 57.3697 34.7327 57.8155 36.348H57.8178V36.3503ZM59.8341 23.1409C62.1888 22.6345 63.8444 24.3238 63.6249 26.674C63.4613 28.4797 62.601 29.8464 61.725 31.3654C62.1104 31.4931 62.4957 31.6208 62.8855 31.7686C65.2536 32.7163 66.0602 34.8268 64.8392 37.0896C63.2911 39.9438 57.233 42.7287 55.3914 38.8237C53.8142 35.472 53.1152 28.9569 53.8231 25.3208C54.1547 23.6181 55.6647 23.1857 56.5923 24.7427C57.5624 24.0191 58.631 23.3895 59.8319 23.1431H59.8341V23.1409Z" fill="#181C1C"/>
<path d="M72.4837 30.1931C72.4344 29.9018 72.2485 29.9377 72.2283 29.9399C69.5421 30.7241 68.3188 34.7075 72.636 31.7054C72.5733 31.7121 72.5935 30.7129 72.4837 30.1953V30.1931ZM71.4285 35.3684C70.6085 35.6955 69.7616 35.7022 68.9192 35.5208C64.8999 34.6201 66.0381 28.4613 70.2545 27.2268C70.8953 27.0453 71.5674 26.9669 72.2126 26.8437C71.5114 24.6391 68.2785 28.6046 66.9566 26.3486C65.6169 24.0723 70.3508 22.2419 72.7145 22.8625C75.9854 23.7027 75.795 27.1081 76.2162 29.7428C76.4089 30.975 77.3947 33.5604 76.373 34.4543C75.4679 35.2541 74.5359 34.7837 73.6621 34.2437C72.934 34.6246 72.2081 35.0682 71.4285 35.3684Z" fill="#181C1C"/>
<path d="M82.4581 31.3901C83.0765 31.4237 84.4386 30.5903 84.6313 30.0459C84.8666 29.4903 84.9831 28.8898 85.1578 28.3185C81.7927 26.0333 80.1371 31.2602 82.4559 31.3856L82.4581 31.3901ZM81.2573 34.2757C76.3777 33.3751 76.3665 25.3321 82.9645 24.6734C84.414 24.5233 85.29 24.8862 86.5424 25.5158H86.6701C87.2078 25.0655 87.909 24.4471 88.72 24.9266C89.186 25.1865 89.316 25.6211 89.251 26.0826C89.1905 26.5016 89.1144 26.8959 88.9732 27.2969C88.0681 29.7457 87.6559 32.2235 87.4139 34.8C87.3713 35.4587 87.2952 36.086 87.1697 36.7312C86.3295 40.7393 83.4484 41.4092 80.5964 40.1478C79.9444 39.8499 78.7391 39.2942 78.3739 38.2995C78.1476 37.6946 78.1835 37.0583 78.7256 36.4758C79.9735 35.1473 81.5172 38.3712 83.2243 36.3369C83.7195 35.7679 83.883 35.0442 83.8741 34.3138C83.0115 34.3206 82.1288 34.4505 81.2573 34.2802H81.2595L81.2573 34.2757Z" fill="#181C1C"/>
<path d="M96.6572 28.5583C97.5624 28.3433 97.6475 26.4233 96.2092 26.71C95.1181 26.9117 94.6252 27.3261 94.1771 28.3321C94.9859 28.5987 95.8193 28.7577 96.6572 28.5606V28.5583ZM96.3906 33.2161C97.3383 32.9831 98.6781 32.2259 99.3412 33.3909C100.609 35.6335 96.2607 37.0786 94.1077 36.3639C91.3363 35.4409 89.7725 33.1355 89.9652 30.2297C90.2295 26.2507 91.9972 22.8767 96.5116 23.0918C101.299 23.3046 101.526 31.6546 95.7409 31.8204C95.0643 31.8405 94.0942 31.4574 93.4535 31.2244C93.7447 32.5776 94.9926 33.55 96.3884 33.2184H96.3906V33.2161Z" fill="#181C1C"/>
<path d="M103.707 37.4011C103.326 38.3376 102.455 38.7252 101.68 38.6154C100.781 38.4788 99.9567 37.6521 100.344 35.7925C100.62 34.4057 102.901 24.7227 103.315 24.0506C104.29 22.5003 106.6 22.787 106.277 25.4957C105.632 31.3722 104.505 35.5371 103.705 37.4011H103.707Z" fill="#181C1C"/>
<path d="M64.9432 47.3327C64.8671 47.4738 64.7618 47.5858 64.6296 47.6665C64.4974 47.7494 64.3406 47.7875 64.1614 47.7875C63.9821 47.7875 63.8387 47.7471 63.7021 47.6665C63.5654 47.5881 63.4601 47.4738 63.3884 47.3327C63.3145 47.1915 63.2786 47.0347 63.2786 46.851C63.2786 46.6673 63.3145 46.5015 63.3929 46.3603C63.4691 46.2192 63.5744 46.1072 63.7065 46.0288C63.8387 45.9503 63.9956 45.91 64.1681 45.91C64.3406 45.91 64.4974 45.9503 64.6296 46.0288C64.7618 46.1072 64.8671 46.2192 64.9432 46.3603C65.0194 46.5015 65.0575 46.6717 65.0575 46.851C65.0575 47.0302 65.0217 47.1915 64.9432 47.3327ZM65.3913 45.0452C65.1001 44.866 64.764 44.7764 64.3876 44.7764C64.121 44.7764 63.8746 44.8301 63.6505 44.9399C63.5408 44.9937 63.4377 45.0587 63.3481 45.1326V44.857H62.0957V50.5185H63.3324V48.5626C63.4287 48.6388 63.534 48.7083 63.6528 48.7643C63.8768 48.8696 64.1233 48.9211 64.3899 48.9211C64.7663 48.9211 65.1023 48.8337 65.3936 48.6523C65.6848 48.473 65.9156 48.2266 66.0814 47.9152C66.2494 47.6038 66.3301 47.2498 66.3301 46.8487C66.3301 46.4477 66.2472 46.0937 66.0814 45.7823C65.9133 45.4709 65.6848 45.2267 65.3936 45.0452H65.3913Z" fill="#181C1C"/>
<path d="M69.3445 47.1516C69.3445 47.3577 69.2885 47.5235 69.1809 47.64C69.0734 47.7565 68.9233 47.8147 68.7396 47.8147C68.6096 47.8147 68.4976 47.7856 68.4058 47.7319C68.3117 47.6781 68.2422 47.6019 68.1952 47.5033C68.1459 47.407 68.1235 47.2883 68.1235 47.1516V44.8574H66.8711V47.1673C66.8711 47.5101 66.9495 47.817 67.1086 48.0791C67.2676 48.3457 67.4894 48.5518 67.7695 48.7019C68.0495 48.8521 68.3744 48.9282 68.7396 48.9282C69.1048 48.9282 69.4274 48.8521 69.7052 48.7019C69.983 48.5518 70.2003 48.3457 70.3594 48.0791C70.5185 47.8147 70.5969 47.5056 70.5969 47.1583V44.8574H69.3445V47.1516Z" fill="#181C1C"/>
<path d="M74.2304 47.335C74.1542 47.4761 74.0489 47.5882 73.9167 47.6688C73.7845 47.7517 73.6299 47.7898 73.4552 47.7898C73.2804 47.7898 73.1258 47.754 72.9937 47.6733C72.8615 47.5949 72.7562 47.4829 72.68 47.3417C72.6038 47.2006 72.5657 47.0348 72.5657 46.8511C72.5657 46.6674 72.6016 46.5016 72.6755 46.3604C72.7495 46.2193 72.8548 46.1073 72.9892 46.0288C73.1236 45.9504 73.2849 45.9101 73.4574 45.9101C73.6299 45.9101 73.7868 45.9504 73.9189 46.0288C74.0511 46.1073 74.1564 46.2193 74.2326 46.3604C74.3088 46.5016 74.3469 46.6718 74.3469 46.8511C74.3469 47.0303 74.311 47.1916 74.2326 47.3328H74.2304V47.335ZM74.6784 45.0476C74.3872 44.8683 74.0511 44.7787 73.6747 44.7787C73.4081 44.7787 73.1617 44.8302 72.9376 44.9355C72.8279 44.9871 72.7248 45.0498 72.6352 45.1192V42.8945H71.3828V48.8428H72.6195V48.5471C72.7159 48.6299 72.8212 48.6994 72.9399 48.7577C73.1639 48.8674 73.4104 48.9257 73.677 48.9257C74.0534 48.9257 74.3894 48.8383 74.6807 48.6568C74.9719 48.4776 75.2027 48.2312 75.3685 47.9197C75.5365 47.6083 75.6172 47.2543 75.6172 46.8533C75.6172 46.4523 75.5343 46.0983 75.3685 45.7869C75.2005 45.4755 74.9719 45.2313 74.6807 45.0498L74.6784 45.0476Z" fill="#181C1C"/>
<path d="M77.5082 42.8926H76.2559V48.8408H77.5082V42.8926Z" fill="#181C1C"/>
<path d="M79.645 44.8574H78.3926V48.8408H79.645V44.8574Z" fill="#181C1C"/>
<path d="M79.0248 42.9355C78.8299 42.9355 78.6641 43.0005 78.5364 43.1305C78.4087 43.2604 78.3438 43.4284 78.3438 43.6211C78.3438 43.8138 78.4087 43.9751 78.5364 44.1095C78.6641 44.2417 78.8277 44.3112 79.0248 44.3112C79.222 44.3112 79.3855 44.2439 79.5088 44.1095C79.6342 43.9773 79.697 43.8183 79.697 43.6211C79.697 43.424 79.6342 43.2604 79.5088 43.1305C79.3811 43.0005 79.2197 42.9355 79.0248 42.9355Z" fill="#181C1C"/>
<path d="M81.7769 45.8159C81.8486 45.7733 81.9494 45.7532 82.0972 45.7532C82.2451 45.7532 82.3952 45.7845 82.5498 45.8428C82.7066 45.9033 82.8478 46.0063 82.9732 46.1542L83.6857 45.435C83.5064 45.2065 83.2712 45.0295 82.9844 44.913C82.6977 44.7965 82.384 44.7383 82.0457 44.7383C81.7074 44.7383 81.4408 44.792 81.2011 44.9018C80.9591 45.0094 80.7732 45.1572 80.6432 45.3477C80.5133 45.5381 80.4483 45.7621 80.4483 46.0176C80.4483 46.2595 80.4931 46.4567 80.5872 46.6135C80.6813 46.7703 80.8 46.8913 80.9479 46.9787C81.0958 47.0661 81.2504 47.1355 81.4162 47.1826C81.5797 47.2341 81.7365 47.2789 81.8844 47.3192C82.0323 47.3595 82.1532 47.4066 82.2496 47.4581C82.3459 47.5119 82.3952 47.5858 82.3952 47.6844C82.3952 47.7606 82.3549 47.8233 82.2765 47.8659C82.1981 47.9084 82.0838 47.9308 81.9359 47.9308C81.7231 47.9308 81.5282 47.8905 81.3467 47.8121C81.1652 47.7337 81.0084 47.6217 80.8785 47.4805L80.166 48.1997C80.3027 48.3476 80.4662 48.4775 80.6611 48.5873C80.8561 48.6971 81.0667 48.7867 81.2929 48.8449C81.5192 48.9032 81.75 48.9345 81.9852 48.9345L81.9785 48.9256C82.4781 48.9256 82.8724 48.8113 83.1637 48.5828C83.4549 48.3543 83.6028 48.0451 83.6028 47.6553C83.6028 47.4066 83.558 47.2027 83.4639 47.0459C83.3698 46.8935 83.251 46.7681 83.1032 46.674C82.9553 46.5799 82.8007 46.506 82.6349 46.4522C82.4714 46.3984 82.3146 46.3491 82.1667 46.3133C82.0188 46.2774 81.9001 46.2304 81.806 46.1833C81.7119 46.134 81.6671 46.0691 81.6671 45.9884C81.6671 45.9123 81.7029 45.8518 81.7746 45.8137L81.7769 45.8159Z" fill="#181C1C"/>
<path d="M87.4329 44.9714C87.1977 44.8437 86.9199 44.7787 86.6129 44.7787C86.306 44.7787 86.0372 44.8437 85.8019 44.9714C85.7056 45.0252 85.6182 45.0879 85.5375 45.1596V42.8945H84.2852V48.8428H85.5375V46.5755C85.5375 46.4388 85.5689 46.3179 85.6272 46.2103C85.6877 46.1028 85.7683 46.0199 85.8736 45.9639C85.9767 45.9079 86.0976 45.8787 86.2343 45.8787C86.4292 45.8787 86.595 45.9437 86.7227 46.0714C86.8504 46.1991 86.9154 46.3694 86.9154 46.5755V48.8428H88.1678V46.2977C88.1678 45.9975 88.1028 45.7331 87.9751 45.5068C87.8474 45.2806 87.6659 45.1013 87.4307 44.9736L87.4329 44.9714Z" fill="#181C1C"/>
<path d="M90.225 44.8574H88.9727V48.8408H90.225V44.8574Z" fill="#181C1C"/>
<path d="M89.603 42.9355C89.4036 42.9355 89.2423 43.0005 89.1146 43.1305C88.9869 43.2604 88.9219 43.4284 88.9219 43.6211C88.9219 43.8138 88.9869 43.9751 89.1146 44.1095C89.2423 44.2417 89.4058 44.3112 89.603 44.3112C89.8001 44.3112 89.9592 44.2439 90.0846 44.1095C90.2101 43.9773 90.2728 43.8183 90.2728 43.6211C90.2728 43.424 90.2101 43.2604 90.0846 43.1305C89.9592 43.0005 89.8001 42.9355 89.603 42.9355Z" fill="#181C1C"/>
<path d="M94.2571 44.987C94.0309 44.8481 93.7777 44.7764 93.4752 44.7764C93.1728 44.7764 92.8972 44.8413 92.653 44.969C92.5455 45.0251 92.4491 45.0945 92.3618 45.1729V44.8548H91.1094V48.8382H92.3618V46.5709C92.3618 46.4343 92.3931 46.3133 92.4514 46.2057C92.5119 46.0982 92.5925 46.0153 92.6978 45.9593C92.8009 45.9033 92.9219 45.8742 93.0585 45.8742C93.2534 45.8742 93.4192 45.9391 93.5469 46.0668C93.6746 46.1945 93.7396 46.3648 93.7396 46.5709V48.8382H94.992V46.2931C94.992 46.022 94.927 45.7689 94.7971 45.5381C94.6671 45.3096 94.4879 45.1236 94.2616 44.9847H94.2594L94.2571 44.987Z" fill="#181C1C"/>
<path d="M98.1186 47.4873C97.9909 47.5634 97.8408 47.6015 97.6661 47.6015C97.4913 47.6015 97.339 47.5657 97.2135 47.4873C97.0836 47.4111 96.985 47.3058 96.9133 47.1736C96.8416 47.0414 96.8057 46.8958 96.8057 46.7434C96.8057 46.5799 96.8416 46.432 96.9133 46.3021C96.985 46.1721 97.0858 46.0668 97.2157 45.9907C97.3457 45.9145 97.4935 45.8764 97.6661 45.8764C97.8386 45.8764 97.9932 45.9122 98.1186 45.9907C98.2463 46.0668 98.3449 46.1721 98.4144 46.3021C98.4838 46.432 98.5174 46.5799 98.5174 46.7434C98.5174 46.907 98.4838 47.0549 98.4144 47.1826C98.3449 47.3103 98.2463 47.4111 98.1186 47.4895V47.4873ZM98.4704 44.8593V45.1259C98.3808 45.0497 98.2777 44.9802 98.1612 44.9265C97.9439 44.8279 97.6997 44.7764 97.4263 44.7764C97.0612 44.7764 96.7341 44.8615 96.4518 45.034C96.1672 45.2043 95.9454 45.4395 95.7796 45.7375C95.6139 46.0355 95.5332 46.3715 95.5332 46.7412C95.5332 47.1109 95.6161 47.4424 95.7796 47.7427C95.9432 48.0429 96.1672 48.2781 96.4518 48.4551C96.7363 48.6276 97.0612 48.715 97.4263 48.715H97.4286C97.6952 48.7172 97.9394 48.6657 98.1567 48.5626C98.262 48.5111 98.3583 48.4529 98.4435 48.3834V48.6321C98.4435 48.9099 98.3561 49.125 98.1769 49.2773C97.9976 49.4297 97.7534 49.5058 97.442 49.5058C97.1889 49.5058 96.976 49.4633 96.799 49.3759C96.622 49.2885 96.4607 49.1608 96.3196 48.9906L95.5489 49.7613C95.7393 50.0323 95.9992 50.2452 96.3308 50.3953C96.6624 50.5432 97.0455 50.6193 97.4824 50.6193V50.6283C97.9125 50.6283 98.2911 50.5432 98.625 50.3729C98.9565 50.2026 99.2209 49.9674 99.4091 49.6672C99.5995 49.3669 99.6959 49.0085 99.6959 48.6007V44.857H98.4681L98.4704 44.8593Z" fill="#181C1C"/>
</g>
<defs>
<clipPath id="clip0_58999_975">
<rect width="107.535" height="54.7598" fill="white" transform="translate(0.0214844 0.533203)"/>
</clipPath>
</defs>
</svg>
