<svg viewBox="0 0 105 39" fill="none" xmlns="http://www.w3.org/2000/svg">
<path d="M13.8809 26.9065C12.6501 28.0106 10.9258 28.5474 8.60953 28.5474C6.62773 28.5474 4.49876 28.1779 2.75243 27.5434V15.2931C2.75243 14.6325 3.00534 13.5497 3.71805 12.6725C4.73008 11.4268 6.43414 10.7952 8.78279 10.7952C13.8024 10.7952 16.2424 13.7058 16.2424 19.6933C16.2424 23.0737 15.4479 25.5006 13.8809 26.9065ZM15.3963 10.0782C13.7127 8.69856 11.4876 7.99902 8.78279 7.99902C7.07672 7.99902 5.57521 8.27525 4.31988 8.81992C3.20641 9.30312 2.27963 9.99713 1.56541 10.8828C0.112882 12.6837 0 14.7138 0 15.2931V38.9997H2.75243V30.4578C4.62722 31.0278 6.68272 31.3435 8.60953 31.3435C11.5733 31.3435 13.9561 30.5562 15.6919 29.0037C17.8836 27.0431 18.9949 23.9107 18.9949 19.6933C18.9949 15.2699 17.7841 12.0349 15.3963 10.0782Z" fill="#3973B7"/>
<path d="M40.5735 10.0202C39.1289 8.66072 37.1039 7.99984 34.3827 7.99984C32.1476 7.99984 29.7501 8.53046 27.0962 9.61667V0.387695H24.3438V31.0364H27.0962V12.6209C28.8339 11.8233 31.6107 10.796 34.3827 10.796C38.4274 10.796 40.1532 12.5492 40.1532 16.6581V31.0364H42.9056V16.6581C42.9056 13.7098 42.1209 11.4766 40.5735 10.0202Z" fill="#3973B7"/>
<path d="M49.8926 31.0354H52.645V0.386719H49.8926V31.0354Z" fill="#3973B7"/>
<path d="M69.9482 10.7952C75.2755 10.7952 76.4071 15.5654 76.6241 18.2072H62.5946C62.8878 14.9872 64.3463 10.7952 69.9482 10.7952ZM70.4246 28.5474C67.0349 28.5474 63.0325 27.1934 62.5751 20.9594H79.424V19.3412C79.424 18.2359 79.2816 15.3854 77.9635 12.7974C76.3647 9.65821 73.5931 7.99902 69.9482 7.99902C68.1135 7.99902 66.4775 8.36236 65.0853 9.07897C63.8015 9.73985 62.7235 10.6992 61.881 11.9306C60.1439 14.4694 59.7793 17.5771 59.7793 19.7372C59.7793 23.7247 60.892 26.7683 63.0864 28.7836C64.91 30.4583 67.4474 31.3435 70.4246 31.3435C72.8074 31.3435 75.2249 30.8707 77.232 30.0123L77.9947 29.686V26.628L76.2394 27.4256C74.694 28.128 72.5203 28.5474 70.4246 28.5474Z" fill="#3973B7"/>
<path d="M96.2326 19.5572L104.721 8.30762H101.277L94.4855 17.3052L87.6938 8.30762H84.2501L92.74 19.5593L84.0234 31.0361H87.4746L94.4883 21.8061L101.542 31.0361H105L96.2326 19.5572Z" fill="#3973B7"/>
<path d="M94.4776 11.0433L92.4292 8.40519L94.4776 5.67596L96.526 8.40519L94.4776 11.0433ZM94.4776 2.9043L90.2617 8.40519L94.4776 13.9061L98.6933 8.40519L94.4776 2.9043Z" fill="#8BCFF3"/>
</svg>
