<svg fill="none" height="20" viewBox="0 0 20 20" width="20" xmlns="http://www.w3.org/2000/svg"><path d="m18.9999 1.60748v9.12712c0 .1611-.064.3157-.1779.4296s-.2685.1778-.4295.1778h-1.4902c-.1375 0-.2491-.1114-.2491-.249v-6.21368c0-.17002-.1378-.30777-.3077-.30777h-12.23325c-.13667-.00109-.24703-.11227-.2469-.24907v-2.71507c0-.1612.064-.31564.17789-.42952.11389-.11389.26832-.17789.42953-.17789h13.91983c.1611 0 .3156.064.4295.17789.1139.11388.1779.26832.1779.42952zm-4.4727 4.28035h-13.919787c-.161072 0-.31564.06399-.429528.17788s-.177885.26832-.177885.42953v9.11116c0 .1611.063997.3155.177885.4294.113888.114.268456.178.429528.178h3.067437l.0202 2.4297c.00108.118.03661.2331.10196.3311.06548.0982.15809.1752.26656.2215.07552.0323.15686.0488.23889.0487.15389.0005.30222-.0573.41502-.162l3.08982-2.861h6.7201c.1612 0 .3156-.064.4295-.1779.1139-.1138.1779-.2683.1779-.4295v-9.11117c.0022-.16243-.0608-.31903-.1749-.43467-.1142-.11565-.27-.18086-.4325-.18073z" fill="#fff"/></svg>