<svg fill="none" height="20" viewBox="0 0 20 20" width="20" xmlns="http://www.w3.org/2000/svg"><g fill="#fff"><path d="m1 15.3291 8.34086 4.6709v-2.7959l-8.34086-4.6709z"/><path d="m1 11.7062 8.34086 4.6709v-2.7996l-8.34086-4.67088z"/><path d="m1 8.07985 8.34086 4.67085v-2.79604l-8.34086-4.67451z"/><path d="m10.0659 16.3771 8.3409-4.6709v-2.79958l-8.3409 4.67088z"/><path d="m10.0659 9.95103v2.79957l8.3409-4.67086v-2.79959z"/><path d="m10.0659 19.9999 8.3409-4.6709v-2.796l-8.3409 4.6708z"/><path d="m9.70383 0-8.32273 4.66363 8.32273 4.66363 8.32277-4.66363zm-6.19399 4.80143c-.01856.04392-.0442.08443-.07622.11971-.03527.03201-.07564.0578-.1197.07621-.11148.04774-.23955.03598-.3404-.03131-.10101-.06728-.16107-.18104-.15994-.30229 0-.20031.16234-.36265.36265-.36265.2003 0 .36264.16234.36264.36265.00128.04759-.00864.09477-.02904.13769zm2.20492.95025c0 .2003-.16234.36264-.36264.36264-.20031 0-.36265-.16234-.36265-.36264v-2.17588c0-.2003.16234-.36265.36265-.36265.2003 0 .36264.16235.36264.36265zm2.17588 1.08794c0 .2003-.16234.36264-.36265.36264-.2003 0-.36264-.16234-.36264-.36264v-4.35176c0-.2003.16234-.36264.36264-.36264.20031 0 .36265.16234.36265.36264zm2.17586 1.08793c0 .20031-.16233.36265-.36263.36265s-.36265-.16234-.36265-.36265v-6.52763c0-.2003.16235-.36264.36265-.36264s.36263.16234.36263.36264zm2.1759-1.08793c0 .2003-.1623.36264-.3627.36264-.2003 0-.3626-.16234-.3626-.36264v-4.35176c0-.2003.1623-.36264.3626-.36264.2004 0 .3627.16234.3627.36264zm2.1759-1.08794c0 .2003-.1624.36264-.3627.36264s-.3626-.16234-.3626-.36264v-2.17588c0-.2003.1623-.36265.3626-.36265s.3627.16235.3627.36265zm1.8132-.7253c-.1213.00114-.235-.05893-.3023-.15993-.0673-.10086-.0792-.22892-.0314-.3404.0175-.04449.0433-.08514.0762-.11985.0848-.08797.2086-.12664.3285-.10242.1197.02437.2188.10809.2626.22212.0478.11163.036.23969-.0313.34055-.0673.101-.181.16107-.3023.15993z"/></g></svg>