<svg fill="none" height="20" viewBox="0 0 20 20" width="20" xmlns="http://www.w3.org/2000/svg"><path d="m9.55644.00007291c-.21973-.00334818-.42493.10881709-.54089.29547609 0 0-1.48995 2.404401-2.98211 5.224591-.7461 1.40999-1.49413 2.92504-2.06177 4.31139-.56767 1.38637-.97167 2.61437-.97167 3.62067 0 3.6082 2.93819 6.5478 6.54637 6.5478 3.60853 0 6.54783-2.9394 6.54783-6.5478 0-1.0063-.4039-2.2342-.9717-3.62067-.5677-1.38642-1.3154-2.90147-2.0617-4.31139-1.4924-2.82029-2.9833-5.224591-2.9833-5.224591-.1122-.180802-.30862-.29212969-.52124-.29547609zm-3.48883 12.73062709c.13658-.0021.26995.0406.38004.1215.10993.0807.19042.1956.22907.3264.01534.0497.03013.0947.04632.138.47263 1.2511 1.3623 2.2115 2.45351 2.7954h.00014c.14648.0783.25572.2115.3037.3704.04814.1589.03112.3304-.04715.4767-.0784.1464-.21177.2556-.37053.3037-.1589.048-.33049.031-.47685-.0473-1.34724-.7208-2.44934-1.9165-3.03094-3.4558-.02567-.0683-.05078-.1403-.07324-.2124-.06082-.1887-.02846-.395.08705-.556.11566-.161.30064-.2577.49889-.2606z" fill="#fff"/></svg>