<svg fill="none" height="20" viewBox="0 0 20 20" width="20" xmlns="http://www.w3.org/2000/svg"><path clip-rule="evenodd" d="m2.98264 11.7138c1.21837-.7903 2.56087-.7393 3.67145-.2222.72558.3378 1.27503 1.0154 1.95118 1.4231l1.67093.9378c.875.4838.4315 1.7172-.37621 1.5359l-1.73808-.226c-.21309-.0277-.39163-.0949-.56591-.2208l-1.92568-1.3903c-.18349-.1472-.40494.1447-.19128.2872l1.95035 1.4698c.17342.1306.47124.2421.68663.2719l1.73369.2387c.59689.0835 1.10469-.1859 1.28909-.8471.0052-.0194.0181-.0335.0368-.0413.0187-.0072.0378-.0059.055.0044l.5088.3015c.014.0081.0287.0107.0446.0076l6.8108-1.4128c1.4794-.2728 2.0247 1.5299.4762 1.9047l-7.2914 2.3197c-1.1268.3585-2.21159.4694-3.32086.0607l-3.59278-1.3234c-.31908-.1177-.65659-.1143-.93781.0775l-3.396547 2.3187c-.180936.1234-.531603.195-.531603-.1628v-4.5724c0-.5622.140271-.8259.391194-1.0343.753476-.6256 2.281576-1.5044 2.591196-1.7054zm9.60046-7.89497c1.5213 0 2.7547 1.23339 2.7547 2.75468 0 1.52128-1.2334 2.75467-2.7547 2.75467-1.5216 0-2.75467-1.23339-2.75467-2.75467 0-1.52129 1.23307-2.75468 2.75467-2.75468zm1.7466-2.80782c.331.104.6491.23662.9515.39475.095.04973.1431.15317.12.25745-.1241.56504.0335 1.17967.4731 1.61907.4391.43965 1.0541.59722 1.6191.47281.1044-.02281.2079.02536.2575.12029.1581.3025.2906.62058.3947.95156.0322.10244-.0072.20969-.0972.26722-.4878.31157-.8108.85776-.8108 1.47936 0 .62188.3231 1.16777.8108 1.47935.09.05781.1291.16507.0972.26694-.104.33126-.2366.64934-.3947.95185-.0498.09493-.1532.1431-.2575.12029-.565-.1244-1.1797.03316-1.6191.47281-.4396.43934-.5972 1.05404-.4731 1.61904.0231.1045-.0249.2079-.12.2575-.3025.1581-.6205.2909-.9515.3947-.1025.0319-.2097-.0069-.2672-.0972-.3116-.4878-.8578-.8108-1.4794-.8108s-1.1678.3232-1.4794.8108c-.0578.0903-.165.1291-.2672.0972-.331-.104-.6493-.2366-.95183-.3947-.09464-.0498-.14282-.1532-.12001-.2575.12441-.565-.03315-1.1796-.4728-1.61904-.43936-.43965-1.05403-.59722-1.61907-.47281-.10443.02281-.20786-.02536-.25745-.12029-.15813-.3025-.29089-.62058-.39475-.95185-.03216-.10187.00694-.20913.0972-.26694.48753-.31157.8106-.85751.8106-1.47935 0-.6216-.32276-1.16753-.8106-1.47936-.08997-.05752-.12908-.16464-.0972-.26722.104-.33098.23662-.64909.39475-.95156.04973-.09493.15316-.1431.25745-.12029.56504.1244 1.17967-.03316 1.61907-.47281.43965-.43936.59722-1.05403.4728-1.61907-.02281-.10442.02537-.20786.12001-.25745.30253-.15812.62083-.29088.95183-.39475.1022-.031877.2094.00695.2672.0972.3116.48753.8578.81086 1.4794.81086s1.1678-.32319 1.4794-.81086c.0575-.09025.1646-.129077.2672-.0972zm-3.0028 13.22079 5.1303-1.0125c.8212-.1825 1.3404-.0674 1.4371.3935l-5.8923 1.1724c-.0169.0034-.0325.0003-.0467-.009l-.6506-.4309c-.0215-.0143-.0319-.0387-.0269-.0641.0049-.0256.0238-.044.049-.0493z" fill="#fff" fill-rule="evenodd"/></svg>