<svg fill="none" height="20" viewBox="0 0 20 20" width="20" xmlns="http://www.w3.org/2000/svg"><path d="m10 0c-5.51579 0-10 4.48421-10 10 0 5.5158 4.48421 10 10 10 5.5158 0 10-4.4842 10-10 0-5.51579-4.4842-10-10-10zm-5.17895 7.45263c0-.92635.7579-1.68425 1.68425-1.68425s1.68425.7579 1.68425 1.68425-.7579 1.68425-1.68425 1.68425-1.68425-.7579-1.68425-1.68425zm8.71575 6.10527c-.5894 1.3683-1.9578 2.3159-3.5367 2.3159-1.57897 0-2.94732-.9474-3.53679-2.3159-.31573-.7369.23158-1.5579 1.03161-1.5579h5.01058c.7998 0 1.3472.821 1.0313 1.5579zm-.042-4.42106c-.9263 0-1.6842-.75789-1.6842-1.68425 0-.92635.7579-1.68424 1.6842-1.68424.9264 0 1.6843.75789 1.6843 1.68424 0 .92636-.7579 1.68425-1.6843 1.68425z" fill="#fff"/></svg>