<svg viewBox="0 0 144 144" fill="none" xmlns="http://www.w3.org/2000/svg">
<path d="M42.3262 69.5366C42.3262 71.2102 42.5071 72.5672 42.8237 73.5623C43.1856 74.5574 43.6379 75.643 44.2711 76.819C44.4973 77.1808 44.5878 77.5427 44.5878 77.8593C44.5878 78.3116 44.3164 78.764 43.7283 79.2163L40.8787 81.116C40.4716 81.3874 40.0645 81.5231 39.7027 81.5231C39.2504 81.5231 38.798 81.297 38.3457 80.8899C37.7125 80.2114 37.1697 79.4877 36.7174 78.764C36.265 77.995 35.8127 77.1356 35.3152 76.0953C31.7871 80.2566 27.3543 82.3373 22.0169 82.3373C18.2174 82.3373 15.1868 81.2517 12.9705 79.0806C10.7541 76.9095 9.62329 74.0146 9.62329 70.396C9.62329 66.5513 10.9803 63.4303 13.7394 61.0782C16.4986 58.7261 20.1624 57.5501 24.8213 57.5501C26.3592 57.5501 27.9423 57.6858 29.6159 57.9119C31.2895 58.1381 33.0083 58.5 34.8176 58.907V55.6051C34.8176 52.1675 34.0939 49.7701 32.6917 48.368C31.2443 46.9658 28.8017 46.2873 25.3189 46.2873C23.7357 46.2873 22.1074 46.4682 20.4338 46.8753C18.7602 47.2824 17.1318 47.7799 15.5487 48.4132C14.825 48.7298 14.2822 48.9107 13.9656 49.0012C13.649 49.0917 13.4228 49.1369 13.2419 49.1369C12.6086 49.1369 12.292 48.6846 12.292 47.7347V45.5183C12.292 44.7946 12.3825 44.2518 12.6086 43.9352C12.8348 43.6186 13.2419 43.3019 13.8751 42.9853C15.4582 42.1711 17.358 41.4927 19.5744 40.9499C21.7907 40.3619 24.1428 40.0905 26.6306 40.0905C32.0132 40.0905 35.9484 41.3117 38.4814 43.7543C40.9692 46.1968 42.2357 49.9058 42.2357 54.8814V69.5366H42.3262ZM23.9619 76.4119C25.4545 76.4119 26.9924 76.1405 28.6208 75.5977C30.2492 75.0549 31.6966 74.0598 32.9179 72.7029C33.6416 71.8435 34.1844 70.8936 34.4558 69.808C34.7271 68.7224 34.9081 67.4107 34.9081 65.8728V63.9731C33.5963 63.6564 32.1941 63.385 30.7467 63.2041C29.2993 63.0232 27.8971 62.9327 26.4949 62.9327C23.4643 62.9327 21.248 63.5207 19.7553 64.742C18.2626 65.9633 17.5389 67.6821 17.5389 69.9437C17.5389 72.0696 18.0817 73.6527 19.2125 74.7383C20.2981 75.8691 21.8812 76.4119 23.9619 76.4119ZM60.2833 81.297C59.4691 81.297 58.9264 81.1613 58.5645 80.8447C58.2026 80.5733 57.886 79.94 57.6146 79.0806L46.9851 44.1161C46.7137 43.2115 46.578 42.6235 46.578 42.3068C46.578 41.5831 46.9398 41.176 47.6635 41.176H52.0963C52.9557 41.176 53.5437 41.3117 53.8604 41.6284C54.2222 41.8998 54.4936 42.533 54.765 43.3924L62.364 73.3361L69.4202 43.3924C69.6464 42.4878 69.9178 41.8998 70.2796 41.6284C70.6415 41.357 71.2747 41.176 72.0889 41.176H75.7075C76.5669 41.176 77.1549 41.3117 77.5168 41.6284C77.8786 41.8998 78.1953 42.533 78.3762 43.3924L85.5229 73.698L93.348 43.3924C93.6194 42.4878 93.9361 41.8998 94.2527 41.6284C94.6145 41.357 95.2026 41.176 96.0167 41.176H100.223C100.947 41.176 101.354 41.5379 101.354 42.3068C101.354 42.533 101.309 42.7592 101.264 43.0306C101.218 43.3019 101.128 43.6638 100.947 44.1614L90.0461 79.1258C89.7747 80.0305 89.4581 80.6185 89.0962 80.8899C88.7344 81.1613 88.1463 81.3422 87.3774 81.3422H83.4874C82.628 81.3422 82.04 81.2065 81.6781 80.8899C81.3163 80.5733 80.9997 79.9852 80.8187 79.0806L73.8077 49.9058L66.842 79.0354C66.6158 79.94 66.3444 80.528 65.9826 80.8447C65.6207 81.1613 64.9875 81.297 64.1733 81.297H60.2833ZM118.407 82.5182C116.055 82.5182 113.703 82.2468 111.441 81.7041C109.179 81.1613 107.415 80.5733 106.239 79.8948C105.515 79.4877 105.018 79.0354 104.837 78.6283C104.656 78.2212 104.566 77.7689 104.566 77.3618V75.0549C104.566 74.1051 104.927 73.6527 105.606 73.6527C105.877 73.6527 106.149 73.698 106.42 73.7884C106.692 73.8789 107.099 74.0598 107.551 74.2408C109.089 74.9192 110.762 75.462 112.526 75.8239C114.336 76.1857 116.1 76.3667 117.909 76.3667C120.759 76.3667 122.975 75.8691 124.513 74.874C126.051 73.8789 126.865 72.4315 126.865 70.5769C126.865 69.3104 126.458 68.2701 125.644 67.4107C124.83 66.5513 123.292 65.7823 121.075 65.0586L114.517 63.0232C111.215 61.9828 108.772 60.4449 107.28 58.4095C105.787 56.4193 105.018 54.2029 105.018 51.8508C105.018 49.9511 105.425 48.2775 106.239 46.8301C107.053 45.3826 108.139 44.1161 109.496 43.121C110.853 42.0807 112.391 41.3117 114.2 40.7689C116.009 40.2262 117.909 40 119.899 40C120.894 40 121.935 40.0452 122.93 40.1809C123.97 40.3166 124.92 40.4976 125.87 40.6785C126.775 40.9046 127.634 41.1308 128.448 41.4022C129.262 41.6736 129.896 41.945 130.348 42.2164C130.981 42.5782 131.434 42.9401 131.705 43.3472C131.976 43.709 132.112 44.2066 132.112 44.8398V46.9658C132.112 47.9156 131.75 48.4132 131.072 48.4132C130.71 48.4132 130.122 48.2323 129.353 47.8704C126.775 46.6944 123.88 46.1063 120.668 46.1063C118.09 46.1063 116.055 46.5134 114.652 47.3728C113.25 48.2323 112.526 49.544 112.526 51.3985C112.526 52.665 112.979 53.7506 113.883 54.61C114.788 55.4694 116.462 56.3288 118.859 57.0978L125.282 59.1332C128.539 60.1735 130.891 61.621 132.293 63.4755C133.695 65.33 134.374 67.4559 134.374 69.808C134.374 71.753 133.967 73.517 133.198 75.0549C132.383 76.5928 131.298 77.9498 129.896 79.0354C128.493 80.1662 126.82 80.9803 124.875 81.5684C122.839 82.2016 120.714 82.5182 118.407 82.5182Z" fill="white"/>
<path fill-rule="evenodd" clip-rule="evenodd" d="M126.956 104.501C112.074 115.492 90.4532 121.327 71.8627 121.327C45.809 121.327 22.3335 111.693 4.6025 95.6805C3.2003 94.414 4.4668 92.6952 6.14039 93.6903C25.3188 104.817 48.9753 111.557 73.4459 111.557C89.9556 111.557 108.094 108.119 124.784 101.063C127.272 99.9323 129.398 102.691 126.956 104.501Z" fill="white"/>
<path fill-rule="evenodd" clip-rule="evenodd" d="M133.152 97.4448C131.253 95.0022 120.578 96.2687 115.738 96.8567C114.291 97.0377 114.064 95.7712 115.376 94.8213C123.88 88.8506 137.856 90.5695 139.485 92.5597C141.113 94.5951 139.033 108.572 131.072 115.266C129.85 116.307 128.674 115.764 129.217 114.407C131.026 109.929 135.052 99.8421 133.152 97.4448Z" fill="white"/>
</svg>
