<svg viewBox="0 0 145 144" fill="none" xmlns="http://www.w3.org/2000/svg">
<path d="M50.4281 90.8235C50.4281 90.941 50.3106 91.1761 50.3106 91.2936L52.1912 91.8813C52.6613 90.5884 52.8964 89.1779 53.014 87.7674H51.0158C50.8982 88.8253 50.6632 89.7656 50.4281 90.8235ZM51.0158 75.8959C50.4281 74.603 49.7229 73.4276 48.9001 72.2522L47.3721 73.31C48.0773 74.3679 48.7825 75.4258 49.2527 76.6012L51.0158 75.8959ZM46.3142 69.1962C45.3739 68.2558 44.1985 67.3155 43.1406 66.6103L42.0828 68.1383C43.1406 68.8435 44.0809 69.6663 45.0213 70.4891L46.3142 69.1962ZM48.7825 95.0549L48.665 95.29L48.1948 94.8198H48.0773L47.9598 94.7023H47.3721C47.137 94.3497 46.7844 93.997 46.5493 93.6444L44.9037 94.1146C45.7265 95.1724 46.5493 96.2303 47.4896 97.1706L48.4299 96.3478C48.0773 96.9355 47.7247 97.4057 47.3721 97.9934L47.0194 97.7583H46.9019L48.4299 98.9337C49.2527 97.8759 50.0755 96.7005 50.6632 95.4075L48.7825 95.0549ZM40.9074 103.165L41.8477 104.811C43.0231 104.105 44.1985 103.283 45.2563 102.342L43.9634 100.932C43.1406 101.872 42.0828 102.577 40.9074 103.165ZM96.9738 56.0317C98.1492 55.444 99.3246 55.0914 100.5 54.7388H100.618L100.03 52.623H99.9123C98.6194 52.9757 97.3264 53.4458 96.0335 54.0335L95.916 54.1511L96.9738 56.0317ZM93.3301 58.0299L93.5652 57.9123V57.7948L93.8003 57.6773L92.6249 55.7966L92.5073 55.9142C91.3319 56.6194 90.2741 57.4422 89.2162 58.3825L89.0987 58.5L90.5091 60.1456L90.6267 60.0281C90.7442 59.9105 90.9793 59.793 91.0968 59.5579L91.2144 59.4404L91.3319 59.3228H91.4495V59.2053H91.567V59.0877L91.6845 58.9702H91.8021V58.8527H91.9196L92.1547 58.9702H92.2722H92.3898H92.5073L92.6249 58.8527H92.7424V58.7351H92.8599L93.095 58.6176L93.3301 58.0299ZM85.69 66.0226L85.8075 65.905C86.3952 64.9647 86.9829 64.1419 87.6882 63.3192V63.2016H87.8057H87.9233V63.0841L88.0408 62.9665H88.1583V62.849L88.2759 62.7315L86.6303 61.321L86.2777 61.4385C85.4549 62.4964 84.6322 63.6718 83.9269 64.8472L83.8094 64.9647L85.69 66.0226ZM82.7515 72.9574V72.8399V72.7223C83.1041 71.5469 83.4568 70.3715 83.9269 69.3137V69.1962L81.9287 68.3734V68.4909C81.341 69.7838 80.8709 71.0768 80.5183 72.3697V72.4873L82.5164 73.075L82.7515 72.9574ZM81.8112 80.2449V78.4818C81.8112 77.8941 81.9287 77.1889 81.9287 76.4836V76.3661L79.813 76.131V76.2485C79.6955 76.9538 79.6955 77.7766 79.5779 78.4818C79.5779 79.0695 79.5779 79.6572 79.5779 80.3624V80.48H81.8112V80.2449ZM82.9866 87.885V87.7674C82.634 86.592 82.2814 85.2991 82.1638 84.1237V84.0062L80.1656 84.3588H80.0481V84.4763C80.2832 85.7693 80.6358 87.1797 80.9884 88.4727V88.5902L82.8691 88.0025L82.9866 87.885ZM85.69 93.5269L85.5725 93.4093V93.2918V93.1743V93.0567L85.1023 92.7041L84.9848 92.469L84.8672 92.3515L84.7497 92.1164V91.7638C84.6321 91.6462 84.6322 91.4112 84.5146 91.2936L84.3971 91.1761L82.3989 92.1164V92.2339C82.9866 93.4093 83.6918 94.7023 84.3971 95.7601L84.5146 95.8777L86.3952 94.7023L86.2777 94.5847C86.0426 94.2321 85.9251 93.8795 85.69 93.5269ZM96.7387 103.518L96.5037 103.4L96.3861 103.283H96.2686H96.151L96.0335 103.165V103.048H95.916V102.93H95.7984H95.6809H95.5633L95.4458 102.813H95.3283L95.0932 102.695L94.9757 102.577H94.8581L94.388 102.225L93.2126 104.105L93.3301 104.223C94.5055 104.928 95.6809 105.516 96.9738 106.104H97.0914L97.9141 104.105H97.7966C97.444 103.87 97.0914 103.635 96.7387 103.518ZM107.552 69.6663V72.0171L109.433 72.1346C109.433 71.5469 109.433 71.0768 109.433 70.4891C109.433 69.6663 109.433 68.9611 109.315 68.1383L107.552 69.6663ZM44.0809 89.5305C43.3757 88.4727 42.788 87.2973 42.3178 86.1219L40.5548 86.9447C41.1424 88.1201 41.7301 89.2954 42.4354 90.4708L44.0809 89.5305ZM103.674 88.0025L105.319 88.9428C105.907 87.7674 106.495 86.592 106.965 85.2991L105.202 84.5939C104.731 85.7693 104.261 86.9447 103.674 88.0025ZM104.144 56.6194C104.496 57.2071 104.731 57.7948 104.967 58.3825L106.73 57.6773C106.259 56.5019 105.672 55.2089 104.967 54.0335L103.321 54.9738C103.556 55.444 103.791 55.9142 104.144 56.5019V56.6194ZM39.1443 72.3697V71.5469H37.2636V72.1346C37.2636 73.31 37.2636 74.4854 37.3812 75.5433L39.2618 75.3082C39.2618 74.2504 39.2618 73.31 39.1443 72.3697ZM106.495 80.9501L108.375 81.4203C108.728 80.1273 108.963 78.8344 109.198 77.5415L107.317 77.3064C107.082 78.4818 106.73 79.7747 106.495 80.9501ZM37.6163 67.3155L39.4969 67.5506C39.6144 66.2577 39.8495 65.0823 40.2021 63.7893L38.3215 63.3192C38.3215 63.5542 38.204 63.7893 38.204 64.0244C37.2636 63.6718 36.4409 63.4367 35.5005 63.2016L35.0304 65.0823C35.9707 65.3173 36.911 65.5524 37.8513 65.905C37.7338 66.4927 37.6163 66.8454 37.6163 67.3155ZM57.9506 102.46H57.7156L56.8928 104.105C58.0682 104.693 59.2436 105.281 60.5365 105.751L61.2417 103.988C60.0663 103.635 59.0085 103.048 57.9506 102.46ZM106.259 62.2613C106.495 63.0841 106.73 63.9069 106.847 64.7296V64.8472C106.847 65.0823 106.965 65.1998 106.965 65.4349L108.845 65.0823C108.61 63.7893 108.258 62.4964 107.905 61.2034L106.024 61.7911L106.259 62.2613ZM100.853 92.469C100.382 93.0567 100.03 93.5269 99.5597 94.1146L100.97 95.29C101.793 94.2321 102.616 93.1743 103.439 92.1164L101.91 91.0585C101.323 91.6462 101.088 92.1164 100.853 92.469ZM95.6809 97.9934L95.5633 98.1109C95.2107 98.4635 94.8581 98.6986 94.388 98.9337L95.5633 100.462C96.6212 99.6389 97.6791 98.8162 98.6194 97.8759L96.8563 96.7005C96.3861 97.2882 96.0335 97.6408 95.6809 97.9934ZM90.1565 101.755L91.4495 100.227L91.3319 100.109C90.8618 99.7565 90.3916 99.2863 90.039 98.9337V98.8162H89.9214V98.6986H89.8039V98.5811H89.6864C89.3337 98.2285 88.9811 97.8758 88.6285 97.5232L88.511 97.4057L86.9829 98.6986L86.8654 98.8162L86.9829 98.9337C87.9233 99.9916 88.8636 100.932 89.9214 101.755H90.039C89.4513 102.107 88.8636 102.342 88.2759 102.695H88.0408L87.1005 103.048L87.9233 104.811C89.0987 104.223 90.3916 103.635 91.4495 102.93L90.5091 101.285C90.5091 101.637 90.2741 101.637 90.1565 101.755ZM53.7192 99.874H53.4841C52.8964 99.4039 52.1912 98.9337 51.6035 98.4636H51.4859L50.3106 99.874C51.3684 100.697 52.4263 101.52 53.4841 102.342L54.542 100.814L53.7192 100.109V99.874ZM55.1297 67.6681V69.0786H57.0103C57.0103 67.6681 56.7752 66.1401 56.4226 64.7296L54.542 65.3173C54.8946 66.1401 55.0121 66.8454 55.1297 67.6681ZM50.7807 81.1852C50.7807 81.3027 50.7807 81.3027 50.7807 81.4203V81.6554C50.8982 82.1255 50.8982 82.7132 51.0158 83.1834V83.3009V83.536L52.8964 83.4185C52.8964 82.4781 52.7789 81.6554 52.5438 80.715C52.4263 80.2449 52.3087 79.7747 52.1912 79.3046L51.0158 79.5396L50.193 78.4818L49.8404 78.7169C49.0176 79.5396 48.1948 80.3624 47.137 80.9501L47.8422 82.7132C48.9001 82.3606 49.8404 81.7729 50.7807 81.1852ZM51.6035 60.0281H52.0736C52.3087 60.3807 52.5438 60.6158 52.7789 60.9684L54.4244 59.9105C53.6017 58.7351 52.6613 57.5597 51.4859 56.6194L50.3106 58.0299C50.6632 58.265 51.0158 58.6176 51.2509 58.9702L51.6035 60.0281ZM42.3178 83.8886C42.788 83.8886 43.2582 83.8886 43.7283 83.7711L43.6108 81.8904C43.2582 81.8904 43.0231 81.8904 42.6705 81.8904H41.6126C41.26 81.8904 40.9074 81.7729 40.6723 81.7729C40.4372 80.8326 40.0846 79.8923 39.9671 78.8344L38.0864 79.187C38.3215 80.48 38.6741 81.7729 39.1443 83.0658L39.4969 82.9483L39.2618 83.536C40.3197 83.7711 41.26 83.8886 42.3178 83.8886ZM54.6595 72.8399C54.6595 73.075 54.542 73.1925 54.542 73.31V73.4276C54.1894 74.3679 53.7192 75.3082 53.1315 76.2485L54.6595 77.3064C55.2472 76.3661 55.7174 75.4258 56.1875 74.4854C56.3051 74.1328 56.4226 73.7802 56.5402 73.4276L54.6595 72.8399ZM27.7429 71.8996C27.978 73.31 28.5657 74.7205 29.1534 76.0135L30.799 75.0731C30.2113 73.8977 29.7411 72.7223 29.506 71.5469L27.7429 71.8996ZM33.6199 78.7169H33.3848L32.0919 80.0098C33.1497 81.0677 34.3251 81.8904 35.6181 82.5957L36.5584 80.9501C35.7356 80.48 34.9128 79.8923 34.0901 79.187L33.6199 78.7169Z" fill="white"/>
<path d="M109.433 47.8045C108.963 47.8045 108.493 47.8045 107.905 47.8045C106.965 47.8045 106.142 47.8045 105.202 47.9221C91.9197 30.2911 67.0013 26.7649 49.3703 40.0469C45.4915 42.9854 42.2004 46.5116 39.6145 50.6255C34.0902 51.4483 29.271 54.6218 26.4501 59.3234C13.5207 61.2041 4 72.3703 4 85.4172C4 99.7571 15.754 111.629 30.2114 111.864H108.61C126.359 111.511 140.346 96.9361 139.993 79.1876C139.758 62.2619 126.359 48.5098 109.433 47.8045ZM108.61 106.104H84.1621L83.6919 104.576L83.1042 104.811H82.9867C82.0464 105.046 81.1061 105.281 80.0482 105.517L80.1658 106.104H76.2869V105.987C75.6992 105.987 75.1115 105.987 74.5238 105.987H68.5293V105.634C68.0592 105.517 67.4715 105.517 67.0013 105.399H66.6487C66.061 105.281 65.4733 105.164 64.768 104.929L64.533 105.987H37.969L37.4988 104.811C36.5585 105.164 35.5007 105.517 34.4428 105.634H34.2077H33.9726L34.0902 105.987H30.564C19.1626 105.869 9.75945 96.5835 9.75945 85.2997C9.75945 74.7211 17.6346 65.9057 28.0956 64.6127C27.8606 65.553 27.6255 66.3758 27.5079 67.3161L29.3886 67.5512V67.1986C29.5061 66.7284 29.6237 66.2583 29.7412 65.9057V65.7881C31.0341 60.6164 35.5007 56.7376 40.9075 56.1499C40.3198 57.2077 39.8496 58.3831 39.497 59.5585L41.2601 60.2637C41.6127 59.2059 42.0829 58.148 42.553 57.2077L42.6706 56.9726L41.4952 56.3849C41.7303 56.3849 41.9653 56.2674 42.2004 56.2674H43.0232C43.2583 55.7972 43.4934 55.3271 43.846 54.8569L43.7284 56.3849C44.5512 56.5025 45.2564 56.62 46.0792 56.8551H46.3143L46.7845 56.9726H47.1371L47.3722 57.0902L48.0774 55.3271L47.7248 55.2095C46.5494 54.7394 45.2564 54.5043 43.9635 54.3868C44.3161 53.6815 44.7863 53.0938 45.1389 52.5061C45.2564 52.271 45.4915 52.036 45.6091 51.8009C56.8929 36.4032 78.2851 33.1121 93.4477 44.1608C95.7985 45.9239 98.0318 47.9221 99.9124 50.2729L100.265 50.743C101.088 51.8009 101.911 52.8587 102.616 54.0341C104.379 53.6815 106.142 53.4464 108.023 53.4464C108.493 53.4464 108.845 53.4464 109.198 53.4464C123.773 54.0341 135.057 66.3758 134.352 80.8332C133.764 94.8204 122.48 105.869 108.61 106.104Z" fill="white"/>
</svg>
