<svg viewBox="0 0 145 144" fill="none" xmlns="http://www.w3.org/2000/svg">
<g clip-path="url(#clip0_48058_118621)">
<path d="M138.962 102.011V44.9961H144.028V102.011H138.962ZM125.7 102.011H111.028C109.828 102.011 108.857 101.643 108.104 100.884C107.363 100.136 106.982 99.1604 106.982 97.9702V49.037C106.982 47.8566 107.363 46.8738 108.104 46.1269C108.857 45.3777 109.828 44.9961 111.028 44.9961H125.7C126.899 44.9961 127.871 45.3777 128.661 46.1269C129.446 46.8738 129.814 47.8566 129.814 49.037V62.3054H124.72V49.4772H112.031V97.5301H124.721V83.501H129.815V97.9653C129.815 99.1556 129.447 100.131 128.662 100.879C127.866 101.643 126.895 102.011 125.7 102.011ZM92.219 102.011H87.1513V49.4772H78.2632V44.9961H101.035V49.4772H92.219V102.011ZM66.8262 44.9961H71.8841V102.011H66.8262V44.9961ZM39.8958 44.9961H58.4067V49.4772H44.9659V70.7558H57.2083V75.3069H44.9667V97.5301H58.6247V102.011H39.8958V44.9961Z" fill="white"/>
<path d="M68.2158 134.945L62.8927 130.972L57.4264 134.93L59.5327 128.565L54.2193 124.761H60.7449L62.8154 118.295L64.9485 124.752L71.3594 124.761L66.1559 128.602L68.2158 134.945ZM94.4433 33.8438L89.117 29.8777L83.6506 33.8259L85.7529 27.4606L80.4412 23.6588H86.9789L89.0486 17.1959L91.1736 23.6499L97.5934 23.6597L92.3997 27.5029L94.4433 33.8438ZM68.2158 26.6414L62.8927 22.6736L57.4264 26.6275L59.5327 20.2647L54.2193 16.4605H60.7449L62.8154 10L64.9485 16.4515L71.3594 16.4613L66.1559 20.307L68.2158 26.6414ZM40.5418 127.694L35.2186 123.712L29.7507 127.667L31.8481 121.301L26.5339 117.5H33.0806L35.1308 111.049L37.2737 117.5H43.6845L38.481 121.328L40.5418 127.694ZM40.5418 33.8438L35.2186 29.8777L29.7507 33.8259L31.8481 27.4606L26.5339 23.6588H33.0806L35.1308 17.1959L37.2737 23.6499L43.6845 23.6597L38.481 27.5029L40.5418 33.8438ZM20.7934 108.363L15.4662 104.405L10.0073 108.345L12.1046 101.989L6.77661 98.1784H13.3233L15.3914 91.7196L17.5254 98.1711L23.9451 98.1793L18.7441 102.025L20.7934 108.363ZM20.5461 54.1738L15.223 50.1947L9.76563 54.1486L11.8516 47.7817L6.52847 43.9929H13.0752L15.1522 37.517L17.2886 43.9637L23.6986 43.9881L18.4959 47.8175L20.5461 54.1738ZM7.05566 70.6948L9.10583 64.2229L11.2487 70.6769L17.6588 70.6948L12.4585 74.5218L14.5087 80.8781L9.18556 76.912L3.71682 80.8683L5.82312 74.4925L0.5 70.6989H7.05647L7.05566 70.6948ZM87.5875 117.498L89.658 111.015L91.7919 117.461L98.2117 117.498L93.018 121.319L95.0519 127.676L89.7263 123.703L84.2787 127.658L86.3671 121.283L81.0505 117.501H87.5875V117.498Z" fill="white"/>
</g>
<defs>
<clipPath id="clip0_48058_118621">
<rect width="144" height="144" fill="white" transform="translate(0.5)"/>
</clipPath>
</defs>
</svg>
