<svg viewBox="0 0 145 144" fill="none" xmlns="http://www.w3.org/2000/svg">
<path fill-rule="evenodd" clip-rule="evenodd" d="M71.6714 13.941C70.8404 13.9831 70.0263 14.1902 69.277 14.5502L26.5161 35.0937C25.6707 35.4997 24.9279 36.0903 24.3435 36.8211C23.7591 37.5517 23.3476 38.4038 23.1391 39.314L12.5897 85.46C12.404 86.2705 12.383 87.1108 12.5284 87.9295C12.6738 88.7482 12.9824 89.5298 13.4362 90.2279L13.4401 90.2339C13.5495 90.4036 13.6671 90.5679 13.7926 90.7262L13.7948 90.729L43.387 127.724C43.9716 128.455 44.7141 129.045 45.5596 129.451C46.4051 129.857 47.3317 130.067 48.2705 130.067L95.7364 130.056C96.6748 130.057 97.6012 129.847 98.4467 129.442C99.2914 129.037 100.034 128.448 100.618 127.719M100.62 127.717L130.205 90.7122C130.79 89.9813 131.202 89.128 131.411 88.2172C131.619 87.3064 131.619 86.3604 131.411 85.4496L120.845 39.3036C120.637 38.3932 120.225 37.5409 119.641 36.8101C119.056 36.0794 118.314 35.4889 117.468 35.0829L74.702 14.5504C73.7594 14.0976 72.7168 13.8878 71.6714 13.941M133.295 85.0182C133.568 86.213 133.568 87.4539 133.295 88.6487C133.021 89.8434 132.481 90.9613 131.714 91.9192L102.128 128.926C101.361 129.883 100.389 130.655 99.2818 131.185C98.1751 131.715 96.9628 131.99 95.7349 131.989L48.2709 132C47.0426 132 45.83 131.725 44.7233 131.193C43.6165 130.662 42.6439 129.889 41.8778 128.932L12.2805 91.9302C12.115 91.7216 11.9599 91.5051 11.8156 91.2813C11.2207 90.3662 10.816 89.3414 10.6253 88.2675C10.4346 87.1936 10.4618 86.0924 10.7054 85.0292L21.2548 38.8832C21.5283 37.689 22.068 36.5715 22.834 35.6138C23.5999 34.6562 24.5724 33.8829 25.6791 33.3514L68.44 12.8079C69.4209 12.3367 70.4863 12.0657 71.5736 12.0106C72.9414 11.941 74.3047 12.2152 75.5385 12.8079L118.305 33.3404C119.412 33.8719 120.384 34.6452 121.15 35.6028C121.916 36.5605 122.456 37.678 122.729 38.8722L133.295 85.0182Z" fill="white"/>
<path d="M71.9974 29.248C70.6184 29.2482 69.5003 30.4903 69.5005 32.0225C69.5005 32.046 69.5053 32.0685 69.5058 32.0918C69.5037 32.3 69.4937 32.5508 69.5005 32.7321C69.5333 33.6158 69.726 34.2922 69.8419 35.1064C70.052 36.849 70.228 38.2935 70.1194 39.6362C70.0137 40.1425 69.6408 40.6055 69.3084 40.9274L69.2497 41.9838C67.7512 42.1079 66.2426 42.3353 64.7359 42.6774C58.2523 44.1495 52.6701 47.4892 48.4201 51.9984C48.1443 51.8103 47.6618 51.4642 47.5184 51.3582C47.0726 51.4184 46.622 51.5559 46.0351 51.2141C44.9177 50.4619 43.8999 49.4236 42.6684 48.1729C42.1042 47.5746 41.6955 47.0049 41.0251 46.4282C40.8729 46.2972 40.6405 46.1201 40.4702 45.9854C39.9461 45.5675 39.3279 45.3495 38.7309 45.3291C37.9633 45.3028 37.2243 45.6029 36.7408 46.2094C35.8811 47.2877 36.1563 48.9357 37.3543 49.8909C37.3665 49.9006 37.3794 49.9081 37.3917 49.9176C37.5563 50.051 37.7579 50.222 37.9092 50.3338C38.6207 50.859 39.2705 51.1279 39.9794 51.5449C41.4728 52.4672 42.7109 53.2319 43.6929 54.1539C44.0763 54.5627 44.1434 55.283 44.1944 55.5945L44.9947 56.3095C40.7104 62.757 38.7276 70.7211 39.8994 78.8357L38.8536 79.1399C38.578 79.4958 38.1885 80.0558 37.7812 80.223C36.4964 80.6276 35.0504 80.7762 33.3047 80.9593C32.4851 81.0274 31.778 80.9867 30.9091 81.1513C30.7179 81.1876 30.4514 81.257 30.2422 81.3061C30.2349 81.3076 30.2281 81.3097 30.2208 81.3114C30.2094 81.314 30.1944 81.3196 30.1835 81.3221C28.7117 81.6777 27.7663 83.0304 28.0706 84.3633C28.3751 85.6964 29.8127 86.5071 31.2933 86.188C31.3039 86.1855 31.3195 86.1851 31.3306 86.1827C31.3473 86.1788 31.362 86.1707 31.3786 86.1667C31.585 86.1214 31.8437 86.0709 32.0242 86.0226C32.8785 85.7939 33.4971 85.4578 34.2651 85.1636C35.9173 84.571 37.2857 84.076 38.6188 83.8831C39.1756 83.8395 39.7623 84.2266 40.0541 84.39L41.1425 84.2032C43.6472 91.9687 48.8963 98.2453 55.5429 102.184L55.0894 103.272C55.2528 103.695 55.4331 104.267 55.3114 104.684C54.8267 105.941 53.9966 107.267 53.0512 108.746C52.5935 109.43 52.1251 109.96 51.712 110.742C51.6132 110.929 51.4873 111.216 51.3919 111.414C50.7501 112.787 51.2209 114.369 52.4537 114.962C53.6942 115.559 55.234 114.929 55.9004 113.554C55.9014 113.552 55.9048 113.55 55.9057 113.548V113.543C56.0006 113.348 56.1351 113.091 56.2152 112.908C56.5689 112.097 56.6867 111.403 56.9354 110.619C57.5961 108.959 57.9591 107.218 58.8686 106.133C59.1176 105.836 59.5237 105.722 59.9446 105.609L60.5102 104.585C66.3046 106.809 72.7906 107.406 79.2696 105.935C80.7477 105.599 82.1746 105.165 83.554 104.643C83.713 104.925 84.0084 105.467 84.0876 105.604C84.5154 105.743 84.9823 105.815 85.3627 106.377C86.0432 107.54 86.5085 108.915 87.0754 110.576C87.3242 111.36 87.4472 112.055 87.801 112.865C87.8817 113.05 88.0155 113.31 88.1105 113.506C88.7755 114.886 90.3202 115.518 91.5625 114.919C92.7952 114.326 93.2664 112.744 92.6243 111.371C92.5289 111.174 92.3977 110.886 92.2988 110.699C91.8857 109.917 91.4174 109.392 90.9596 108.709C90.0142 107.23 89.2301 106.002 88.7454 104.745C88.5427 104.097 88.7796 103.693 88.9375 103.272C88.8429 103.164 88.6406 102.552 88.5213 102.264C95.4288 98.1852 100.524 91.6746 102.916 84.1552C103.239 84.206 103.801 84.3053 103.983 84.3419C104.359 84.0943 104.704 83.7711 105.381 83.8244C106.715 84.0172 108.083 84.5124 109.735 85.1049C110.503 85.3991 111.122 85.7406 111.976 85.9693C112.157 86.0176 112.415 86.0627 112.622 86.108C112.638 86.112 112.653 86.1202 112.67 86.124C112.681 86.1265 112.696 86.1269 112.707 86.1293C114.188 86.4481 115.625 85.6378 115.93 84.3046C116.234 82.9717 115.289 81.6186 113.817 81.2634C113.603 81.2147 113.299 81.132 113.091 81.0926C112.222 80.9281 111.515 80.9687 110.695 80.9006C108.95 80.7177 107.504 80.5689 106.219 80.1643C105.695 79.9611 105.322 79.3377 105.141 79.0812L104.133 78.7877C104.656 75.0052 104.515 71.0686 103.61 67.1298C102.697 63.1543 101.083 59.5183 98.9308 56.3148C99.1895 56.0797 99.678 55.6471 99.8165 55.5198C99.857 55.0718 99.8222 54.602 100.286 54.1059C101.268 53.1838 102.506 52.4192 103.999 51.4969C104.708 51.0799 105.364 50.8111 106.075 50.2857C106.236 50.167 106.456 49.9788 106.625 49.8429C107.822 48.8874 108.098 47.2395 107.238 46.1614C106.378 45.0834 104.712 44.9819 103.514 45.9373C103.343 46.0724 103.112 46.2485 102.959 46.3802C102.289 46.9569 101.875 47.5266 101.31 48.1249C100.079 49.3757 99.0611 50.4192 97.9437 51.1714C97.4595 51.4533 96.7503 51.3558 96.4284 51.3368L95.4787 52.0144C90.0632 46.3357 82.6899 42.7051 74.7505 41.9998C74.7283 41.6671 74.6992 41.0657 74.6918 40.8847C74.3668 40.5737 73.9742 40.3081 73.8755 39.6362C73.7669 38.2935 73.9483 36.849 74.1583 35.1064C74.2743 34.2922 74.4669 33.6158 74.4998 32.7321C74.5073 32.5312 74.4952 32.2397 74.4944 32.0225C74.4943 30.4903 73.3765 29.2479 71.9974 29.248ZM68.8709 48.6157L68.1292 61.7143L68.0759 61.741C68.0261 62.9128 67.0617 63.8485 65.8777 63.8485C65.3927 63.8485 64.945 63.6927 64.5812 63.427L64.5598 63.4376L53.8196 55.8239C57.1205 52.5781 61.3426 50.1794 66.2085 49.0746C67.0973 48.8728 67.9858 48.723 68.8709 48.6157ZM75.1294 48.6157C80.8103 49.3144 86.064 51.8868 90.09 55.8293L79.4191 63.3949L79.3817 63.3789C78.4346 64.0707 77.1001 63.8991 76.3618 62.9734C76.0594 62.5942 75.9007 62.1484 75.8817 61.6983L75.871 61.6929L75.1294 48.6157ZM49.9247 60.7165L59.7312 69.488L59.7206 69.5414C60.6057 70.3109 60.7362 71.6462 59.998 72.5719C59.6956 72.9511 59.2908 73.2055 58.8562 73.3242L58.8456 73.3669L46.2752 76.995C45.6354 71.1448 47.0143 65.4579 49.9247 60.7165ZM94.0008 60.7219C95.4579 63.0836 96.5613 65.7213 97.2181 68.581C97.8671 71.4064 98.03 74.2267 97.7623 76.9523L85.128 73.3135L85.1173 73.2602C83.986 72.951 83.2906 71.8001 83.554 70.6458C83.6619 70.1729 83.913 69.7729 84.253 69.4773L84.2477 69.4507L94.0008 60.7219ZM69.986 70.1656H74.0036L76.5006 73.2869L75.6042 77.1817L71.9974 78.9158L68.38 77.1764L67.4837 73.2815L69.986 70.1656ZM82.8658 80.8472C83.0365 80.8386 83.2065 80.854 83.3726 80.8845L83.394 80.8579L96.3965 83.0561C94.4936 88.4023 90.8522 93.0338 85.987 96.1333L80.9397 83.9418L80.9557 83.9204C80.492 82.8431 80.956 81.5797 82.0227 81.066C82.2959 80.9344 82.5812 80.8616 82.8658 80.8472ZM61.0278 80.9006C62.02 80.9145 62.91 81.6032 63.1406 82.6132C63.2485 83.0861 63.196 83.5546 63.0179 83.9684L63.0552 84.0165L58.0612 96.0853C53.3921 93.0891 49.6732 88.603 47.6838 83.0988L60.5742 80.9112L60.5956 80.9379C60.7398 80.9114 60.886 80.8986 61.0278 80.9006ZM71.9174 86.188C72.2631 86.1753 72.6138 86.2462 72.9472 86.4067C73.3841 86.6172 73.7217 86.9485 73.9342 87.3458H73.9822L80.3368 98.8277C79.5121 99.1041 78.6642 99.3404 77.7971 99.5373C72.9372 100.641 68.0928 100.306 63.7061 98.8117L70.0447 87.3511H70.0553C70.4357 86.6401 71.157 86.2159 71.9174 86.188Z" fill="white" stroke="white" stroke-width="0.0494907"/>
</svg>
