<svg viewBox="0 0 81 80" fill="none" xmlns="http://www.w3.org/2000/svg">
<path fill-rule="evenodd" clip-rule="evenodd" d="M67.157 17.5103C68.3815 17.5092 69.5788 17.8714 70.5974 18.551C71.616 19.2306 72.4103 20.197 72.8796 21.328C73.3489 22.459 73.4722 23.7038 73.2339 24.9049C72.9956 26.106 72.4065 27.2095 71.541 28.0757C70.6755 28.9419 69.5725 29.5319 68.3716 29.7712C67.1707 30.0105 65.9258 29.8882 64.7944 29.4198C63.663 28.9515 62.6959 28.1581 62.0155 27.14C61.3351 26.1219 60.972 24.9249 60.972 23.7004C60.972 22.0596 61.6234 20.4858 62.7832 19.3251C63.943 18.1644 65.5161 17.5116 67.157 17.5103Z" stroke="white" stroke-width="2" stroke-miterlimit="10"/>
<path fill-rule="evenodd" clip-rule="evenodd" d="M67.157 50.1299C68.3815 50.1289 69.5788 50.4911 70.5974 51.1706C71.616 51.8502 72.4103 52.8166 72.8796 53.9476C73.3489 55.0786 73.4722 56.3234 73.2339 57.5245C72.9956 58.7256 72.4065 59.8291 71.541 60.6953C70.6755 61.5615 69.5725 62.1516 68.3716 62.3908C67.1707 62.6301 65.9258 62.5078 64.7944 62.0395C63.663 61.5711 62.6959 60.7777 62.0155 59.7596C61.3351 58.7415 60.972 57.5445 60.972 56.32C60.972 54.6792 61.6234 53.1055 62.7832 51.9447C63.943 50.784 65.5161 50.1312 67.157 50.1299Z" stroke="white" stroke-width="2" stroke-miterlimit="10"/>
<path fill-rule="evenodd" clip-rule="evenodd" d="M67.157 33.8225C68.3822 33.8215 69.5801 34.184 70.599 34.8643C71.618 35.5445 72.4122 36.5119 72.881 37.6438C73.3499 38.7757 73.4723 40.0212 73.2328 41.2228C72.9933 42.4243 72.4026 43.5277 71.5355 44.3933C70.6685 45.2589 69.5641 45.8478 68.3622 46.0853C67.1603 46.3228 65.9149 46.1983 64.7838 45.7276C63.6526 45.2569 62.6866 44.4611 62.0081 43.441C61.3295 42.4209 60.9689 41.2224 60.972 39.9973C60.972 38.3564 61.6234 36.7827 62.7832 35.622C63.943 34.4613 65.5162 33.8085 67.157 33.8071V33.8225Z" stroke="white" stroke-width="2" stroke-miterlimit="10"/>
<path fill-rule="evenodd" clip-rule="evenodd" d="M53.3021 10.03C54.3711 10.029 55.4164 10.3452 56.3056 10.9386C57.1948 11.532 57.8879 12.3758 58.2972 13.3634C58.7065 14.3509 58.8136 15.4377 58.6049 16.4861C58.3963 17.5345 57.8812 18.4975 57.1249 19.253C56.3687 20.0086 55.4053 20.5227 54.3566 20.7304C53.308 20.9381 52.2213 20.83 51.2342 20.4197C50.2471 20.0094 49.4038 19.3155 48.8113 18.4257C48.2188 17.536 47.9036 16.4904 47.9056 15.4214C47.9069 13.9906 48.4759 12.6188 49.4877 11.607C50.4994 10.5953 51.8713 10.0263 53.3021 10.0249V10.03Z" stroke="white" stroke-width="2" stroke-miterlimit="10"/>
<path fill-rule="evenodd" clip-rule="evenodd" d="M53.2714 59.1973C54.34 59.1963 55.3849 59.5122 56.2738 60.1051C57.1628 60.698 57.8559 61.5413 58.2655 62.5282C58.6752 63.5152 58.7829 64.6014 58.575 65.6496C58.3672 66.6977 57.8531 67.6607 57.0979 68.4166C56.3427 69.1726 55.3802 69.6876 54.3322 69.8964C53.2843 70.1052 52.1979 69.9986 51.2106 69.5899C50.2233 69.1812 49.3794 68.4888 48.7856 67.6004C48.1918 66.712 47.8749 65.6675 47.8749 64.5989C47.8749 63.1672 48.4433 61.794 49.4552 60.7812C50.4671 59.7683 51.8397 59.1986 53.2714 59.1973Z" stroke="white" stroke-width="2" stroke-miterlimit="10"/>
<path fill-rule="evenodd" clip-rule="evenodd" d="M53.2714 42.9009C54.34 42.8999 55.3849 43.2158 56.2738 43.8087C57.1628 44.4017 57.8559 45.2449 58.2655 46.2319C58.6752 47.2188 58.7829 48.305 58.575 49.3532C58.3672 50.4014 57.8531 51.3643 57.0979 52.1203C56.3427 52.8762 55.3802 53.3911 54.3322 53.6C53.2843 53.8088 52.1979 53.7022 51.2106 53.2935C50.2233 52.8848 49.3794 52.1924 48.7856 51.304C48.1918 50.4156 47.8749 49.3711 47.8749 48.3025C47.8749 46.8708 48.4433 45.4976 49.4552 44.4848C50.4671 43.4719 51.8397 42.9022 53.2714 42.9009Z" stroke="white" stroke-width="2" stroke-miterlimit="10"/>
<path fill-rule="evenodd" clip-rule="evenodd" d="M53.2714 26.2964C54.3402 26.2954 55.3853 26.6114 56.2744 27.2046C57.1634 27.7978 57.8566 28.6413 58.266 29.6286C58.6755 30.6158 58.7829 31.7023 58.5747 32.7506C58.3664 33.7989 57.8518 34.7618 57.0961 35.5176C56.3404 36.2733 55.3774 36.7879 54.3291 36.9961C53.2808 37.2044 52.1943 37.097 51.2071 36.6875C50.2198 36.2781 49.3763 35.5849 48.7831 34.6958C48.19 33.8068 47.8739 32.7617 47.8749 31.6929C47.8749 30.2617 48.4435 28.889 49.4555 27.877C50.4676 26.865 51.8402 26.2964 53.2714 26.2964Z" stroke="white" stroke-width="2" stroke-miterlimit="10"/>
<path fill-rule="evenodd" clip-rule="evenodd" d="M39.391 3C40.2902 3 41.1692 3.26665 41.9169 3.76624C42.6646 4.26583 43.2474 4.97591 43.5915 5.8067C43.9356 6.63748 44.0256 7.55166 43.8502 8.43361C43.6748 9.31556 43.2417 10.1257 42.6059 10.7615C41.97 11.3974 41.1599 11.8304 40.278 12.0058C39.396 12.1813 38.4818 12.0912 37.6511 11.7471C36.8203 11.403 36.1102 10.8202 35.6106 10.0726C35.111 9.32488 34.8444 8.44583 34.8444 7.5466C34.8444 6.34077 35.3234 5.18432 36.176 4.33167C37.0287 3.47901 38.1851 3 39.391 3Z" stroke="white" stroke-width="2" stroke-miterlimit="10"/>
<path fill-rule="evenodd" clip-rule="evenodd" d="M39.391 67.9067C40.2904 67.9067 41.1697 68.1735 41.9175 68.6733C42.6653 69.1732 43.248 69.8835 43.592 70.7146C43.9359 71.5457 44.0257 72.4601 43.8498 73.3422C43.674 74.2243 43.2405 75.0344 42.6041 75.6701C41.9677 76.3057 41.1571 76.7383 40.2748 76.9132C39.3925 77.088 38.4782 76.9973 37.6475 76.6524C36.8168 76.3075 36.1071 75.7239 35.6081 74.9756C35.1091 74.2272 34.8434 73.3477 34.8444 72.4482C34.8444 71.8514 34.962 71.2604 35.1906 70.7091C35.4191 70.1577 35.7541 69.6569 36.1763 69.2351C36.5986 68.8133 37.0999 68.4789 37.6514 68.251C38.203 68.023 38.7941 67.9061 39.391 67.9067Z" stroke="white" stroke-width="2" stroke-miterlimit="10"/>
<path fill-rule="evenodd" clip-rule="evenodd" d="M39.391 51.6304C40.289 51.6314 41.1665 51.8986 41.9127 52.3983C42.6588 52.8979 43.2401 53.6075 43.5831 54.4375C43.926 55.2674 44.0152 56.1804 43.8394 57.061C43.6636 57.9416 43.2307 58.7503 42.5953 59.385C41.96 60.0196 41.1508 60.4516 40.27 60.6265C39.3891 60.8013 38.4763 60.7111 37.6467 60.3672C36.8172 60.0233 36.1082 59.4412 35.6094 58.6944C35.1106 57.9477 34.8444 57.0699 34.8444 56.1719C34.8444 55.5751 34.962 54.9841 35.1906 54.4327C35.4191 53.8814 35.7541 53.3805 36.1763 52.9588C36.5986 52.537 37.0999 52.2026 37.6514 51.9746C38.203 51.7467 38.7941 51.6297 39.391 51.6304Z" stroke="white" stroke-width="2" stroke-miterlimit="10"/>
<path fill-rule="evenodd" clip-rule="evenodd" d="M39.391 35.4355C40.2902 35.4355 41.1692 35.7022 41.9169 36.2018C42.6646 36.7014 43.2474 37.4115 43.5915 38.2422C43.9356 39.073 44.0256 39.9872 43.8502 40.8691C43.6748 41.7511 43.2418 42.5612 42.6059 43.1971C41.97 43.8329 41.1599 44.266 40.278 44.4414C39.396 44.6168 38.4818 44.5268 37.6511 44.1827C36.8203 43.8385 36.1102 43.2558 35.6106 42.5081C35.111 41.7604 34.8444 40.8814 34.8444 39.9822C34.8437 39.3849 34.9608 38.7934 35.1891 38.2414C35.4173 37.6895 35.7522 37.188 36.1745 36.7657C36.5969 36.3434 37.0983 36.0085 37.6503 35.7803C38.2022 35.552 38.7937 35.4349 39.391 35.4355Z" stroke="white" stroke-width="2" stroke-miterlimit="10"/>
<path fill-rule="evenodd" clip-rule="evenodd" d="M39.391 19.2105C40.289 19.2115 41.1665 19.4787 41.9127 19.9783C42.6588 20.478 43.2401 21.1876 43.5831 22.0175C43.926 22.8475 44.0152 23.7604 43.8394 24.6411C43.6636 25.5217 43.2307 26.3304 42.5953 26.965C41.96 27.5997 41.1508 28.0317 40.27 28.2065C39.3891 28.3813 38.4763 28.2911 37.6467 27.9472C36.8172 27.6033 36.1082 27.0212 35.6094 26.2745C35.1106 25.5278 34.8444 24.6499 34.8444 23.7519C34.8444 23.1551 34.962 22.5641 35.1906 22.0128C35.4191 21.4615 35.7541 20.9606 36.1763 20.5388C36.5986 20.117 37.0999 19.7826 37.6514 19.5547C38.203 19.3268 38.7941 19.2098 39.391 19.2105Z" stroke="white" stroke-width="2" stroke-miterlimit="10"/>
<path fill-rule="evenodd" clip-rule="evenodd" d="M25.3416 11.6685C26.1234 11.6685 26.8876 11.9003 27.5376 12.3346C28.1876 12.7689 28.6943 13.3862 28.9934 14.1085C29.2926 14.8308 29.3709 15.6255 29.2184 16.3923C29.0658 17.159 28.6894 17.8633 28.1366 18.4161C27.5838 18.9689 26.8795 19.3453 26.1128 19.4979C25.346 19.6504 24.5513 19.5721 23.829 19.2729C23.1067 18.9737 22.4894 18.4671 22.0551 17.8171C21.6208 17.1671 21.3889 16.4029 21.3889 15.6211C21.3883 15.1019 21.4901 14.5876 21.6885 14.1077C21.8869 13.6278 22.178 13.1918 22.5452 12.8247C22.9123 12.4575 23.3483 12.1664 23.8282 11.968C24.3081 11.7696 24.8224 11.6678 25.3416 11.6685Z" stroke="white" stroke-width="2" stroke-miterlimit="10"/>
<path fill-rule="evenodd" clip-rule="evenodd" d="M25.3416 60.4263C26.1234 60.4263 26.8876 60.6581 27.5376 61.0924C28.1876 61.5267 28.6942 62.1441 28.9934 62.8663C29.2926 63.5886 29.3709 64.3833 29.2183 65.1501C29.0658 65.9168 28.6894 66.6211 28.1366 67.1739C27.5838 67.7267 26.8795 68.1031 26.1128 68.2556C25.346 68.4082 24.5513 68.3299 23.829 68.0307C23.1067 67.7316 22.4894 67.2249 22.0551 66.5749C21.6208 65.9249 21.3889 65.1607 21.3889 64.3789C21.3889 63.3306 21.8054 62.3252 22.5467 61.584C23.2879 60.8427 24.2933 60.4263 25.3416 60.4263Z" stroke="white" stroke-width="2" stroke-miterlimit="10"/>
<path fill-rule="evenodd" clip-rule="evenodd" d="M25.3416 44.3291C26.1234 44.3291 26.8876 44.5609 27.5376 44.9952C28.1876 45.4296 28.6942 46.0469 28.9934 46.7692C29.2926 47.4914 29.3709 48.2862 29.2183 49.0529C29.0658 49.8197 28.6894 50.5239 28.1366 51.0767C27.5838 51.6295 26.8795 52.006 26.1128 52.1585C25.346 52.311 24.5513 52.2328 23.829 51.9336C23.1067 51.6344 22.4894 51.1278 22.0551 50.4778C21.6208 49.8277 21.3889 49.0635 21.3889 48.2818C21.3889 47.2335 21.8054 46.2281 22.5467 45.4868C23.2879 44.7455 24.2933 44.3291 25.3416 44.3291Z" stroke="white" stroke-width="2" stroke-miterlimit="10"/>
<path fill-rule="evenodd" clip-rule="evenodd" d="M25.3416 27.7603C26.1236 27.7603 26.888 27.9922 27.5381 28.4268C28.1883 28.8613 28.6949 29.4789 28.9939 30.2015C29.2929 30.9241 29.3709 31.7191 29.218 32.4859C29.065 33.2528 28.6881 33.9571 28.1348 34.5097C27.5815 35.0623 26.8767 35.4383 26.1096 35.5903C25.3425 35.7422 24.5476 35.6632 23.8255 35.3632C23.1033 35.0633 22.4863 34.5559 22.0526 33.9052C21.6189 33.2545 21.3879 32.4898 21.3889 31.7078C21.3889 31.189 21.4912 30.6752 21.6899 30.196C21.8886 29.7167 22.1799 29.2813 22.547 28.9147C22.9141 28.548 23.3499 28.2574 23.8294 28.0593C24.3089 27.8612 24.8228 27.7596 25.3416 27.7603Z" stroke="white" stroke-width="2" stroke-miterlimit="10"/>
<path fill-rule="evenodd" clip-rule="evenodd" d="M11.2922 20.3521C11.9433 20.3521 12.5798 20.5451 13.1212 20.9069C13.6626 21.2686 14.0846 21.7828 14.3338 22.3844C14.583 22.9859 14.6481 23.6479 14.5211 24.2865C14.3941 24.9251 14.0805 25.5117 13.6201 25.9722C13.1597 26.4326 12.5731 26.7461 11.9345 26.8732C11.2958 27.0002 10.6339 26.935 10.0323 26.6858C9.43075 26.4366 8.91658 26.0147 8.55483 25.4733C8.19308 24.9319 8 24.2954 8 23.6442C8 22.7711 8.34685 21.9337 8.96426 21.3163C9.58166 20.6989 10.419 20.3521 11.2922 20.3521Z" stroke="white" stroke-width="2" stroke-miterlimit="10"/>
<path fill-rule="evenodd" clip-rule="evenodd" d="M11.2922 53.0127C11.9433 53.0127 12.5798 53.2058 13.1212 53.5675C13.6626 53.9293 14.0846 54.4435 14.3338 55.045C14.583 55.6466 14.6481 56.3085 14.5211 56.9472C14.3941 57.5858 14.0805 58.1724 13.6201 58.6328C13.1597 59.0932 12.5731 59.4068 11.9345 59.5338C11.2958 59.6608 10.6339 59.5956 10.0323 59.3465C9.43075 59.0973 8.91658 58.6753 8.55483 58.1339C8.19308 57.5925 8 56.956 8 56.3049C8 55.4317 8.34685 54.5944 8.96426 53.977C9.58166 53.3595 10.419 53.0127 11.2922 53.0127Z" stroke="white" stroke-width="2" stroke-miterlimit="10"/>
<path fill-rule="evenodd" clip-rule="evenodd" d="M11.2922 36.7051C11.9433 36.7051 12.5798 36.8982 13.1212 37.2599C13.6626 37.6217 14.0846 38.1358 14.3338 38.7374C14.583 39.339 14.6481 40.0009 14.5211 40.6395C14.3941 41.2782 14.0805 41.8648 13.6201 42.3252C13.1597 42.7856 12.5731 43.0992 11.9345 43.2262C11.2958 43.3532 10.6339 43.288 10.0323 43.0389C9.43075 42.7897 8.91658 42.3677 8.55483 41.8263C8.19308 41.2849 8 40.6484 8 39.9973C8 39.1241 8.34685 38.2867 8.96426 37.6693C9.58166 37.0519 10.419 36.7051 11.2922 36.7051Z" stroke="white" stroke-width="2" stroke-miterlimit="10"/>
</svg>
