<svg viewBox="0 0 81 80" fill="none" xmlns="http://www.w3.org/2000/svg">
<path d="M40.455 3L40.8836 2.09648L39.455 3H40.455ZM72.846 18.3633H73.846V17.7308L73.2746 17.4598L72.846 18.3633ZM72.846 29.1817L72.9444 30.1768L73.846 30.0877V29.1817H72.846ZM40.455 21.564H39.455V22.3561L40.2261 22.5375L40.455 21.564ZM40.0265 3.90352L72.4175 19.2668L73.2746 17.4598L40.8836 2.09648L40.0265 3.90352ZM71.846 18.3633V29.1817H73.846V18.3633H71.846ZM73.075 28.2082L40.6839 20.5906L40.2261 22.5375L72.6171 30.1551L73.075 28.2082ZM41.455 21.564V3H39.455V21.564H41.455ZM72.7477 28.1865L40.3567 31.3872L40.5534 33.3775L72.9444 30.1768L72.7477 28.1865Z" fill="white"/>
<path d="M40.455 3L40.0265 2.09648L41.455 3H40.455ZM8.06401 18.3633H7.06401V17.7308L7.63547 17.4598L8.06401 18.3633ZM8.06401 29.1817L7.96568 30.1768L7.06401 30.0877V29.1817H8.06401ZM40.455 21.564H41.455V22.3561L40.6839 22.5375L40.455 21.564ZM40.8836 3.90352L8.49256 19.2668L7.63547 17.4598L40.0265 2.09648L40.8836 3.90352ZM9.06401 18.3633V29.1817H7.06401V18.3633H9.06401ZM7.83508 28.2082L40.2261 20.5906L40.6839 22.5375L8.29295 30.1551L7.83508 28.2082ZM39.455 21.564V3H41.455V21.564H39.455ZM8.16235 28.1865L40.5534 31.3872L40.3567 33.3775L7.96568 30.1768L8.16235 28.1865Z" fill="white"/>
<path d="M40.455 32.8545L40.5911 31.8638L39.455 31.7077V32.8545H40.455ZM56.5865 35.0708H57.5865V34.1987L56.7226 34.0801L56.5865 35.0708ZM56.5865 49.7939L56.7471 50.781L57.5865 50.6444V49.7939H56.5865ZM40.455 52.4185H39.455L40.6156 53.4055L40.455 52.4185ZM40.3189 33.8452L56.4504 36.0614L56.7226 34.0801L40.5911 31.8638L40.3189 33.8452ZM55.5865 35.0708V49.7939H57.5865V35.0708H55.5865ZM56.4259 48.8069L40.2944 51.4315L40.6156 53.4055L56.7471 50.781L56.4259 48.8069ZM41.455 52.4185V32.8545H39.455V52.4185H41.455Z" fill="white"/>
<path d="M56.6505 35.7751L62.1556 35.519M62.1556 35.519L72.846 36.3512V47.2336L62.1556 48.8979M62.1556 35.519V48.8979M62.1556 48.8979L56.6505 48.4498" stroke="white" stroke-width="2"/>
<path d="M40.391 32.8545L40.2549 31.8638L41.391 31.7077V32.8545H40.391ZM24.2595 35.0708H23.2595V34.1987L24.1234 34.0801L24.2595 35.0708ZM24.2595 49.7939L24.0989 50.781L23.2595 50.6444V49.7939H24.2595ZM40.391 52.4185H41.391L40.2304 53.4055L40.391 52.4185ZM40.5271 33.8452L24.3956 36.0614L24.1234 34.0801L40.2549 31.8638L40.5271 33.8452ZM25.2595 35.0708V49.7939H23.2595V35.0708H25.2595ZM24.4201 48.8069L40.5516 51.4315L40.2304 53.4055L24.0989 50.781L24.4201 48.8069ZM39.391 52.4185V32.8545H41.391V52.4185H39.391Z" fill="white"/>
<path d="M24.1955 35.7751L18.6903 35.519M18.6903 35.519L8.00001 36.3512V47.2336L18.6903 48.8979M18.6903 35.519V48.8979M18.6903 48.8979L24.1955 48.4498" stroke="white" stroke-width="2"/>
<path d="M52.1695 55.6836H53.1695V54.4214L51.9408 54.7101L52.1695 55.6836ZM40.455 58.4362L40.2262 57.4627L39.455 57.6439V58.4362H40.455ZM40.455 77.0002H39.455L40.8803 77.9052L40.455 77.0002ZM52.1695 71.495L52.5948 72.4001L53.1695 72.13V71.495H52.1695ZM51.9408 54.7101L40.2262 57.4627L40.6837 59.4097L52.3983 56.6571L51.9408 54.7101ZM39.455 58.4362V77.0002H41.455V58.4362H39.455ZM40.8803 77.9052L52.5948 72.4001L51.7442 70.59L40.0297 76.0952L40.8803 77.9052ZM53.1695 71.495V55.6836H51.1695V71.495H53.1695Z" fill="white"/>
<path d="M56.5865 69.3823L64.2681 65.7335V52.8027L56.5865 54.6591V69.3823ZM56.5865 69.3823L52.2335 67.974" stroke="white" stroke-width="2"/>
<path d="M67.5328 64.1973L72.846 61.7007V50.8184L67.5328 52.0986V64.1973ZM67.5328 64.1973L64.3322 63.4291" stroke="white" stroke-width="2"/>
<path d="M28.6765 55.6836H27.6765V54.4214L28.9052 54.7101L28.6765 55.6836ZM40.391 58.4362L40.6198 57.4627L41.391 57.6439V58.4362H40.391ZM40.391 77.0002H41.391L39.9657 77.9052L40.391 77.0002ZM28.6765 71.495L28.2512 72.4001L27.6765 72.13V71.495H28.6765ZM28.9052 54.7101L40.6198 57.4627L40.1623 59.4097L28.4477 56.6571L28.9052 54.7101ZM41.391 58.4362V77.0002H39.391V58.4362H41.391ZM39.9657 77.9052L28.2512 72.4001L29.1018 70.59L40.8163 76.0952L39.9657 77.9052ZM27.6765 71.495V55.6836H29.6765V71.495H27.6765Z" fill="white"/>
<path d="M24.2595 69.3823L16.5779 65.7335V52.8027L24.2595 54.6591V69.3823ZM24.2595 69.3823L28.6125 67.974" stroke="white" stroke-width="2"/>
<path d="M13.3132 64.1973L8.00001 61.7007V50.8184L13.3132 52.0986V64.1973ZM13.3132 64.1973L16.5139 63.4291" stroke="white" stroke-width="2"/>
</svg>
