<svg fill="none" height="20" viewBox="0 0 20 20" width="20" xmlns="http://www.w3.org/2000/svg" xmlns:xlink="http://www.w3.org/1999/xlink"><clipPath id="a"><path d="m0 0h20v19.6984h-20z"/></clipPath><g clip-path="url(#a)" fill="#fff"><path d="m18.163 4.98499h-6.6126c-.4507 0-.8163.35994-.8163.804v13.10501c0 .444.3656.804.8163.804h6.6122c.4508 0 .8163-.3599.8163-.804l.0002-13.10501c.0001-.44405-.3655-.804-.8164-.804zm-4.6392.53573h2.6666c.0976 0 .1767.07834.1767.17449 0 .09629-.0791.17418-.1767.17418h-2.6666c-.0978 0-.1769-.07789-.1769-.17418-.0003-.09614.0789-.17449.1769-.17449zm1.3329 13.90488c-.2327 0-.4218-.1857-.4218-.4151 0-.2292.1889-.4152.4218-.4152.2328 0 .4219.1859.4219.4152 0 .2294-.1889.4151-.4219.4151zm3.4016-1.1342h-6.803v-11.89948h6.803z"/><path d="m10.3264 18.894v-1.2062h-7.36027v-15.67755h12.35347v2.57283h.9663l-.0002-3.618104c0-.53308-.4387-.964976-.9796-.964976h-12.3265c-.54094 0-.9796.432047-.9796.964976v17.768424c0 .5328.43866.965.9796.965h7.6611c-.1948-.2138-.3143-.4948-.3143-.8043zm-3.2041-18.210548h4.0407c.1354 0 .245.107565.245.241247 0 .132941-.1096.241251-.245.241251h-4.0407c-.13512 0-.24494-.10802-.24494-.241251 0-.13353.10967-.241247.24494-.241247zm2.02055 18.599148c-.32327 0-.58509-.2582-.58509-.576 0-.3184.26196-.5766.58509-.5766.32312 0 .58509.2582.58509.5766-.00015.3177-.26212.576-.58509.576z"/></g></svg>