<svg fill="none" height="20" viewBox="0 0 20 20" width="20" xmlns="http://www.w3.org/2000/svg"><g fill="#fff"><path d="m19.4675 7.95978-1.9467-.26945c-.2213-.03055-.4123-.17525-.4896-.38185-.0705-.18888-.1487-.37395-.2345-.55476-.095-.20027-.0643-.43649.0707-.61316l1.184-1.54929c.1853-.24254.1611-.58243-.0567-.79711l-1.8467-1.81889c-.2182-.21468-.5634-.23842-.8097-.05573l-1.5722 1.16743c-.1795.13315-.42.16354-.6236.0695-.1847-.08533-.3731-.16275-.5653-.23241-.2098-.07615-.3565-.26454-.3875-.48269l-.2719-1.916564c-.0426-.3008-.3039-.524806-.6125-.524806h-2.61088c-.30845 0-.56983.224014-.61258.524806l-.27181 1.916394c-.03086.21816-.17761.40655-.38754.4827-.19224.06966-.38078.14707-.56529.23241-.20366.09404-.44412.06364-.62365-.0695l-1.57217-1.16743c-.24625-.18269-.59152-.15895-.80964.05573l-1.84672 1.81888c-.21796.21468-.24207.5546-.05674.79712l1.18414 1.54941c.13486.17637.16572.41242.07089.61251-.08584.18143-.16412.36729-.23468.55678-.07715.20708-.26859.35194-.49041.38249l-1.94555.26771c-.305241.04212-.53267.29954-.53267.60352v2.56947c0 .3036.22712.5609.532382.6032l1.946708.2694c.22117.0306.41231.1751.48946.3815.07089.1895.14948.3752.23612.5571.09548.2006.06478.4375-.07056.6143l-1.18496 1.5483c-.18565.2427-.16154.5829.05674.7978l1.84606 1.8165c.21812.2145.56324.2382.80931.0555l1.57007-1.1653c.17938-.1332.41951-.1636.62287-.0697.18532.0855.37483.1631.56789.2329.21008.0762.357.2645.38802.4829l.2718 1.9162c.04276.3008.30412.5248.61275.5248h2.61084c.3085 0 .5698-.224.6126-.5248l.2718-1.9162c.031-.2185.1779-.4069.388-.4829.1931-.0698.3826-.1474.5679-.2329.2033-.0937.4435-.0633.6229.0697l1.57 1.1653c.2461.1827.5914.159.8094-.0555l1.8462-1.8165c.2183-.2147.2424-.5551.0567-.7978l-1.1849-1.5483c-.1354-.1768-.1661-.4137-.0706-.6143.0866-.1819.1652-.3677.2361-.5571.0773-.2064.2683-.3509.4895-.3815l1.9467-.2694c.3051-.0423.5322-.2996.5322-.6032v-2.56996c0-.30365-.2271-.56108-.5324-.60335zm-8.196 6.64672c-.0136.0062-.0288.0079-.0437.0111-.3937.0986-.8034.1564-1.2277.1564-.42196 0-.82974-.0575-1.22148-.1549-.01816-.0031-.03632-.0058-.05256-.0132-2.14067-.5572-3.72589-2.4755-3.72589-4.75649 0-2.71526 2.24294-4.92464 5.00003-4.92464 2.7571 0 4.9999 2.2093 4.9999 4.92464.0002 2.28209-1.5863 4.20119-3.7284 4.75729z"/><path d="m10 5.35254c-2.51713 0-4.56543 2.01695-4.56543 4.49665 0 1.99811 1.33091 3.69401 3.16458 4.27781l.00016-1.4742c-.83614-.4889-1.35033-1.3714-1.35033-2.3339 0-1.02621.57768-1.9522 1.50756-2.4167.06703-.03388.14772-.03088.21201.0087.0643.03895.10367.10798.10367.18238v1.06895c0 .51973.4303.94257.95918.94257.5277 0 .9572-.42284.9572-.94257v-1.03839c0-.07567.0403-.14549.1064-.18396.066-.03848.1474-.03974.2149-.00412.8893.47638 1.4416 1.38969 1.4416 2.38324 0 .9631-.515 1.846-1.3527 2.3339v1.4751c1.8346-.5834 3.1663-2.2798 3.1663-4.27864 0-2.47986-2.048-4.49665-4.56544-4.49665z"/><path d="m10.9641 12.5273c0-.0794.0446-.1523.1158-.1895.763-.3976 1.237-1.1713 1.237-2.0189 0-.70978-.3348-1.37039-.8934-1.79943v.64275c0 .75565-.6243 1.37088-1.392 1.37088-.76862 0-1.39388-.61527-1.39388-1.37088v-.68834c-.59571.4249-.95366 1.10408-.95366 1.84502 0 .8473.47321 1.6208 1.23495 2.0194.07105.0372.11541.1101.11541.1891v1.7148c.31167.0665.63427.1035.96568.1035.331 0 .6529-.0367.9642-.1029z"/></g></svg>