<svg fill="none" height="20" viewBox="0 0 20 20" width="20" xmlns="http://www.w3.org/2000/svg"><path d="m19.7857 9.62958c-1.0819-1.32701-4.9809-5.68988-9.7781-5.68988-4.79712 0-8.69608 4.36291-9.777993 5.68988-.3061427.38202-.3061427.92492 0 1.30682 1.081913 1.3472 4.980873 5.71 9.777993 5.71 4.7972 0 8.6962-4.363 9.7781-5.6899.2857-.3821.2857-.945 0-1.32703zm-9.7781 4.84542c-2.34743 0-4.24596-1.8899-4.24596-4.1819 0-2.29204 1.89853-4.182 4.24596-4.182 2.3475 0 4.246 1.88996 4.246 4.182 0 2.312-1.8985 4.1819-4.246 4.1819z" fill="#fff"/></svg>