<svg fill="none" height="20" viewBox="0 0 20 20" width="20" xmlns="http://www.w3.org/2000/svg"><g fill="#fff"><path d="m10.9768 11.4297h-1.93026c-1.81396 0-3.23258 1.3514-3.23258 3.0923v1.6263c0 .1374.09296.2291.23263.2291h7.90701c.1395 0 .2326-.0915.2326-.2291v-1.6263c.0232-1.7409-1.3954-3.0923-3.2093-3.0923z"/><path d="m7.58142 8.33746c0 1.32851 1.09303 2.40514 2.44188 2.40514 1.3489 0 2.4419-1.07659 2.4419-2.40514 0-1.32854-1.093-2.40509-2.4419-2.40509-1.34881 0-2.44188 1.07655-2.44188 2.40509z"/><path d="m6.67443 11.2006c.06976-.0458.13951-.1145.13951-.2061v-.6413-.0687c-.34877-1.12242-1.37205-1.8553-2.55823-1.8553h-1.55815c-1.48838 0-2.69756 1.16812-2.69756 2.634v1.2368c0 .1374.0929531.2291.232626.2291h5.000024c.09295 0 .16287-.0458.20927-.1374.25582-.5267.69771-.9391 1.23256-1.1911z"/><path d="m3.46512 3.9397c-1.11624 0-2.02323.8933-2.02323 1.99271s.90699 1.99272 2.02323 1.99272 2.02322-.89331 2.02322-1.99272c.00016-1.09941-.90681-1.99271-2.02322-1.99271z"/><path d="m17.3257 8.4292h-1.5582c-1.186 0-2.2092.75587-2.5582 1.8553v.0687.6413c0 .0916.0465.1604.1395.2061.5348.252.9767.6642 1.2326 1.1912.0465.0687.1163.1374.2092.1374h4.9768c.1395 0 .2326-.0916.2326-.2292v-1.2368c-.0001-1.46589-1.2095-2.63398-2.6745-2.63398z"/><path d="m18.5582 5.93241c0 1.10068-.9058 1.99288-2.0232 1.99288-1.1175 0-2.0234-.89216-2.0234-1.99288 0-1.10051.9058-1.99271 2.0234-1.99271 1.1174 0 2.0232.89216 2.0232 1.99271"/></g></svg>