<svg fill="none" height="20" viewBox="0 0 20 20" width="20" xmlns="http://www.w3.org/2000/svg"><path d="m15.9434 8.33912c-.1719-.00029-.3435.01057-.514.03287-.325-1.67572-1.4271-3.10509-2.9786-3.86353-1.5515-.75835-3.3739-.75835-4.92539 0-1.55153.75836-2.65354 2.1877-2.97865 3.86353-1.10769-.13338-2.22225.18885-3.08112.8907-.858912.70186-1.3860048 1.72121-1.45736447 2.81821-.07121473 1.0969.31956947 2.1742 1.08057447 2.9782.76101.8039 1.82477 1.2635 2.94066 1.2704h11.91409c1.4492 0 2.7884-.7614 3.5129-1.9977.7247-1.2361.7247-2.7591 0-3.9954-.7245-1.23606-2.0637-1.9975-3.5129-1.9975zm-3.0503 1.86698-3.57409 3.4939c-.13021.1275-.34043.1275-.47049 0l-1.77873-1.7519h-.00015c-.11338-.1304-.10577-.3249.01758-.4462.12321-.1215.32061-.129.45307-.0173l1.54512 1.5218 3.33719-3.28692v.00015c.1325-.11182.3299-.10418.4531.01717s.131.3158.0174.4462z" fill="#fff"/></svg>