<svg fill="none" height="20" viewBox="0 0 20 20" width="20" xmlns="http://www.w3.org/2000/svg"><path d="m18.571 3.9397h-17.14246c-.788553 0-1.42854.63033-1.42854 1.407v9.849c0 .7767.639987 1.407 1.42854 1.407h4.6844c.61431 0 1.16132-.3869 1.35568-.9624l1.17569-3.4753c.43432-1.2832 2.27559-1.2832 2.70999 0l1.1756 3.4753c.1958.5755.7414.9624 1.3572.9624h4.6844c.7885 0 1.4285-.6303 1.4285-1.407v-9.849c0-.77667-.64-1.407-1.4285-1.407zm-13.5711 8.442c-1.18284 0-2.14282-.9455-2.14282-2.1105s.95998-2.1105 2.14282-2.1105c1.18283 0 2.14281.9455 2.14281 2.1105s-.95998 2.1105-2.14281 2.1105zm9.9998 0c-1.1828 0-2.1428-.9455-2.1428-2.1105s.96-2.1105 2.1428-2.1105 2.1428.9455 2.1428 2.1105-.96 2.1105-2.1428 2.1105z" fill="#fff"/></svg>