<svg fill="none" height="20" viewBox="0 0 20 20" width="20" xmlns="http://www.w3.org/2000/svg"><g fill="#fff"><path d="m17.0737 3.33164c-.4422-.44219-1.179-.44219-1.6421 0-.4422.44218-.4422 1.17891 0 1.64211 1.4526 1.45267 2.2527 3.38948 2.2527 5.43155 0 2.0422-.8001 3.979-2.2527 5.4316-.4422.4422-.4422 1.179 0 1.6422.2315.2315.5263.3368.821.3368s.5895-.1053.8211-.3368c1.8946-1.8947 2.9263-4.4001 2.9263-7.0527 0-2.69475-1.0316-5.20002-2.9263-7.09476z"/><path d="m2.31572 10.4053c0-2.06308.80004-3.97891 2.25272-5.43155.44218-.44218.44218-1.17892 0-1.64211-.44218-.44219-1.17892-.44219-1.64211 0-1.89467 1.89467-2.92633 4.40001-2.92633 7.07366 0 2.6527 1.07365 5.2211 2.9473 7.0738.23159.2315.52632.3368.82106.3368.29473 0 .58948-.1053.82106-.3368.44218-.4632.44218-1.179-.021-1.6422-1.43166-1.4105-2.25272-3.3894-2.25272-5.4316z"/><path d="m14.1684 6.258c-.4422-.46316-1.1789-.46316-1.6421-.021-.4632.44218-.4632 1.17891-.021 1.64211.6738.67376 1.0526 1.57895 1.0526 2.52629 0 .9473-.3788 1.8527-1.0526 2.5263-.4422.4631-.4422 1.1789.021 1.6421.2316.2316.5263.3369.8211.3369.2947 0 .5894-.1053.821-.3369 1.1158-1.1158 1.7264-2.5894 1.7264-4.1684 0-1.55798-.6106-3.03167-1.7264-4.14742z"/><path d="m7.47364 6.23691c-.44218-.44218-1.17891-.44218-1.64211 0-1.11579 1.11579-1.7264 2.61046-1.7264 4.16839 0 1.579.61046 3.0527 1.7264 4.1685.23159.2316.52632.3369.82106.3369.29473 0 .58947-.1053.82105-.3369.44218-.4422.44218-1.1789 0-1.6421-.67376-.6738-1.05263-1.579-1.05263-2.5263 0-.94735.37887-1.85269 1.05263-2.5263.46316-.44219.46316-1.17892 0-1.64211z"/><path d="m11.7684 10.4054c0 .9766-.7917 1.7683-1.76841 1.7683-.9767 0-1.76839-.7917-1.76839-1.7683 0-.97674.79169-1.76844 1.76839-1.76844.97671 0 1.76841.7917 1.76841 1.76844z"/></g></svg>