<svg fill="none" height="20" viewBox="0 0 18 20" width="18" xmlns="http://www.w3.org/2000/svg"><g fill="#fff"><path d="m3.19381 13.7192-2.780968 1.6204 2.780968 1.5994z"/><path d="m8.52274 9.79525v-1.74005l-1.18978.57688c-.12183.05083-.42426.04407-.49899-.22926-.04579-.1672.053-.34116.20911-.41678l1.47984-.7176-.00014-1.70104-3.06565 1.41301c-.20161.06941-.4637-.01801-.49581-.24511-.02376-.16719.05731-.33194.21068-.4028l3.35095-1.54451v-1.68445l-1.18978.57688c-.14199.08972-.43779.00231-.50131-.23833-.04291-.16215.05199-.33036.20277-.40335l1.48847-.72177v-2.31697l-8.5231 4.901v9.8602z"/><path d="m9.23242.00756836v9.79351164l8.50948 4.88622v-9.78648z"/><path d="m6.56482 11.7555v7.1221l1.95162 1.1223v-9.3817z"/><path d="m5.85519 12.1689-1.95163 1.1371v4.0413l1.95163 1.1223z"/><path d="m11.1776 11.7343-1.95165-1.1205v9.3861l1.95165-1.1222z"/><path d="m14.5485 13.6699v3.2692l2.8446-1.6358z"/><path d="m13.8388 13.2626-1.9516-1.1205v6.3277l1.9516-1.1222z"/></g></svg>