<svg fill="none" height="20" viewBox="0 0 20 20" width="20" xmlns="http://www.w3.org/2000/svg"><g clip-rule="evenodd" fill="#fff" fill-rule="evenodd"><path d="m20 3.33333c0-.88392-.3513-1.732-.976-2.357292-.6253-.624686-1.4734-.976038-2.3573-.976038h-13.33337c-.88392 0-1.732.351341-2.357292.976038-.624686.625292-.976038 1.473372-.976038 2.357292v2.66667c0 .88392.351341 1.732.976038 2.3573.625292.62468 1.473372.97603 2.357292.97603h13.33337c.8839 0 1.732-.35134 2.3573-.97603.6246-.6253.976-1.47338.976-2.3573zm-2.6667 2.66667v-2.66667c0-.368-.2986-.66666-.6666-.66666s-.6667.29866-.6667.66666v2.66667c0 .36801.2987.66667.6667.66667s.6666-.29866.6666-.66667zm-13.99997-.66667c.36801 0 .66667.29866.66667.66667s-.29866.66667-.66667.66667c-.368 0-.66666-.29866-.66666-.66667s.29866-.66667.66666-.66667zm2.66667 0c.36801 0 .66667.29866.66667.66667s-.29866.66667-.66667.66667-.66667-.29866-.66667-.66667.29866-.66667.66667-.66667zm2.66667 0c.368 0 .66666.29866.66666.66667s-.29866.66667-.66666.66667c-.36801 0-.66667-.29866-.66667-.66667s.29866-.66667.66667-.66667zm6.00003.66667v-2.66667c0-.368-.2987-.66666-.6667-.66666s-.6667.29866-.6667.66666v2.66667c0 .36801.2987.66667.6667.66667s.6667-.29866.6667-.66667zm-2.6667 0v-2.66667c0-.368-.2987-.66666-.6667-.66666s-.6666.29866-.6666.66666v2.66667c0 .36801.2986.66667.6666.66667s.6667-.29866.6667-.66667zm-8.66667-3.33333c.36801 0 .66667.29866.66667.66666 0 .36801-.29866.66667-.66667.66667-.368 0-.66666-.29866-.66666-.66667 0-.368.29866-.66666.66666-.66666zm2.66667 0c.36801 0 .66667.29866.66667.66666 0 .36801-.29866.66667-.66667.66667s-.66667-.29866-.66667-.66667c0-.368.29866-.66666.66667-.66666zm2.66667 0c.368 0 .66666.29866.66666.66666 0 .36801-.29866.66667-.66666.66667-.36801 0-.66667-.29866-.66667-.66667 0-.368.29866-.66666.66667-.66666z"/><path d="m20 14c0-.884-.3513-1.732-.976-2.3573-.6253-.6247-1.4734-.9761-2.3573-.9761h-13.33337c-.88392 0-1.732.3514-2.357292.9761-.624686.6253-.976038 1.4733-.976038 2.3573v2.6666c0 .8839.351341 1.732.976038 2.3573.625292.6247 1.473372.9761 2.357292.9761h13.33337c.8839 0 1.732-.3514 2.3573-.9761.6246-.6253.976-1.4734.976-2.3573zm-2.6667 2.6666v-2.6666c0-.368-.2986-.6667-.6666-.6667s-.6667.2987-.6667.6667v2.6666c0 .368.2987.6667.6667.6667s.6666-.2987.6666-.6667zm-13.99997-.6666c.36801 0 .66667.2986.66667.6666s-.29866.6667-.66667.6667c-.368 0-.66666-.2987-.66666-.6667s.29866-.6666.66666-.6666zm2.66667 0c.36801 0 .66667.2986.66667.6666s-.29866.6667-.66667.6667-.66667-.2987-.66667-.6667.29866-.6666.66667-.6666zm2.66667 0c.368 0 .66666.2986.66666.6666s-.29866.6667-.66666.6667c-.36801 0-.66667-.2987-.66667-.6667s.29866-.6666.66667-.6666zm6.00003.6666v-2.6666c0-.368-.2987-.6667-.6667-.6667s-.6667.2987-.6667.6667v2.6666c0 .368.2987.6667.6667.6667s.6667-.2987.6667-.6667zm-2.6667 0v-2.6666c0-.368-.2987-.6667-.6667-.6667s-.6666.2987-.6666.6667v2.6666c0 .368.2986.6667.6666.6667s.6667-.2987.6667-.6667zm-8.66667-3.3333c.36801 0 .66667.2987.66667.6667s-.29866.6666-.66667.6666c-.368 0-.66666-.2986-.66666-.6666s.29866-.6667.66666-.6667zm2.66667 0c.36801 0 .66667.2987.66667.6667s-.29866.6666-.66667.6666-.66667-.2986-.66667-.6666.29866-.6667.66667-.6667zm2.66667 0c.368 0 .66666.2987.66666.6667s-.29866.6666-.66666.6666c-.36801 0-.66667-.2986-.66667-.6666s.29866-.6667.66667-.6667z"/></g></svg>