<svg fill="none" height="20" viewBox="0 0 20 20" width="20" xmlns="http://www.w3.org/2000/svg"><g fill="#fff"><path d="m18.1759 10.7064-5.3898-7.21909c-.445-.59637-1.2892-.71886-1.8854-.27388-.5965.44573-.7194 1.28954-.2735 1.88567l1.5242 2.04134-.2622.19531-1.5243-2.04077c-.44441-.59598-1.28857-.71886-1.88532-.27388-.59636.44555-.71848 1.28973-.2735 1.88567l1.52414 2.04077-.26215.19586-1.52376-2.04114c-.44517-.59599-1.28916-.71886-1.88553-.27388-.59598.44517-.7179 1.28954-.27332 1.88552l1.52376 2.0413-.26178.1954-4.61927-6.18631c-.44573-.59598-1.28954-.71848-1.885525-.27351-.5968911.44555-.719053 1.28973-.273508 1.88567l6.805883 9.11565-5.33165 1.5113c-.71233.2141-1.119711.9657-.901888 1.677.310928 1.0167 1.295878 1.0251 1.676998.903 6.33306-2.028 7.95272 2.5087 12.51172-.895l2.2292-1.6641c1.5254-1.1395 3.1065-3.3852.9166-6.3178z"/><path d="m.0127392 2.63225c.0037236.0134.0087503.02588.0135915.03835.0040961.01005.006889.02011.0117298.02997.0059579.0121.0135916.0229.0204804.03444.0055857.00912.0109851.01862.0173153.02755.0085647.01117.0186182.02141.0284868.03202.006888.00689.013033.01489.02048.0216.014151.01247.029045.02289.044871.03332.005027.00298.00875.00689.013964.01005.000558.00019.000745.00019.001117.00056.02588.01526.05418.02662.084155.03556.008751.0026.017874.00428.027183.00614.011172.00242.021597.00614.033141.00745l2.492666.30976c.01582.00187.03128.00298.04636.00298.1873 0 .34984-.13925.37311-.32987.02588-.20626-.12064-.39466-.32731-.41998l-1.40832-.17499c1.38635-.62234 4.20093-1.396765 7.34973.50969.06088.03705.1281.05436.19456.05436.12754 0 .25135-.06423.32266-.18151.10725-.17797.05046-.40936-.12698-.51717-3.26681-1.977556-6.22534-1.304216-7.83018-.64022l.56677-.953319c.10594-.178898.04729-.409923-.13163-.5162167-.17892-.1059264-.40998-.04747037-.51629.1312417l-1.191212 2.005864c-.1014712.08005-.15081264.20143-.14168982.32262-.00111714.01619-.00204803.03257-.00111712.04877.0007448.0121.00372365.02345.00558558.03518.00316515.01192.00390978.02402.00707506.03574z"/></g></svg>