<svg fill="none" height="20" viewBox="0 0 20 20" width="20" xmlns="http://www.w3.org/2000/svg"><path d="m5.10662 19.8409c.25793.1066.53465.1606.81388.1591.55594.0028 1.08919-.2201 1.47803-.6175l3.74177-3.7418c.1314-.1317.3098-.2057.4958-.2057h5.5004c.558-.0008 1.093-.2229 1.4875-.6174.3946-.3946.6166-.9294.6173-1.4874v-11.22543c-.0008-.55799-.2227-1.09296-.6173-1.487572-.3945-.394486-.9295-.61655655-1.4875-.617198h-14.03173c-.55799.00062642-1.09296.222692-1.48745.617198-.39465.394642-.61656.929622-.61732 1.487572v11.22543c.00078.558.22269 1.0928.61732 1.4874.39448.3945.92946.6166 1.48745.6174.18573.0011.36348.0754.49472.2067.13139.1314.20562.3091.20687.4949v1.7586c-.00454.4175.11714.8267.34907 1.1739.23209.3472.56364.6163.95124.7718zm8.05428-14.462c0-.25057.1337-.48217.3508-.60745.217-.12544.4845-.12544.7015 0 .2171.12528.3508.3569.3508.60745v3.74192c0 .25056-.1337.48217-.3508.60745-.217.12544-.4845.12544-.7015 0-.2171-.12528-.3508-.3569-.3508-.60745zm-3.74179-.9354c0-.25072.13374-.48233.35079-.60761.21706-.12529.4845-.12529.7016 0 .217.12528.3508.3569.3508.60761v5.6127c0 .2507-.1338.4823-.3508.6076-.2171.1253-.48455.1253-.7016 0s-.35079-.3569-.35079-.6076zm-3.74176.9354c0-.25057.13374-.48217.3508-.60745.21705-.12544.48453-.12544.70159 0 .21705.12528.35079.3569.35079.60745v3.74192c0 .25056-.13374.48217-.35079.60745-.21706.12544-.48454.12544-.70159 0-.21706-.12528-.3508-.3569-.3508-.60745z" fill="#fff"/></svg>