<svg fill="none" height="20" viewBox="0 0 15 20" width="15" xmlns="http://www.w3.org/2000/svg"><path d="m7.21952 0c-1.72514 0-3.39323.617756-4.7021 1.74145-1.30906 1.12365-2.172462 2.67873-2.4340377 4.38405-.2613713 1.70512.0963217 3.44747 1.0084577 4.9119l6.12777 8.9626 6.12779-8.9626c.9121-1.46433 1.2698-3.20668 1.0084-4.9119-.2615-1.70532-1.1249-3.2604-2.434-4.38405-1.3089-1.123646-2.97695-1.74145-4.70209-1.74145zm0 9.87547c-.7043 0-1.37986-.27971-1.87779-.7778-.49811-.49793-.7778-1.17349-.7778-1.87779s.27971-1.37986.7778-1.87778c.49793-.49812 1.17349-.77781 1.87779-.77781s1.37986.27971 1.87778.77781c.49812.49792.77781 1.17348.77781 1.87778s-.27971 1.37986-.77781 1.87779c-.49792.49811-1.17348.7778-1.87778.7778z" fill="#fff"/></svg>