<svg viewBox="0 0 22 14" fill="none" xmlns="http://www.w3.org/2000/svg">
<g clip-path="url(#clip0_42204_155757)">
<path d="M0.5 0H21.5V14H0.5V0Z" fill="#10338C"/>
<path d="M9.59615 6.98872C9.60843 6.97644 9.61662 6.96416 9.6289 6.95188C9.62071 6.96416 9.60843 6.97644 9.59615 6.98872ZM8.19615 8.70392L8.64644 9.64135L9.65755 9.40802L9.20726 10.3413L10.0219 10.9881L9.00668 11.2174L9.01077 12.2571L8.19615 11.6063L7.38562 12.2571L7.38972 11.2174L6.37451 10.9881L7.18913 10.3413L6.73475 9.40802L7.74995 9.64135L8.19615 8.70392ZM16.2973 9.87059L16.5102 10.3168L16.9932 10.2063L16.7763 10.6525L17.1652 10.9595L16.6821 11.0659V11.5653L16.2973 11.2542L15.9084 11.5653L15.9125 11.0659L15.4295 10.9595L15.8184 10.6525L15.6014 10.2063L16.0845 10.3168L16.2973 9.87059ZM14.3078 5.12205L14.5207 5.56825L15.0038 5.45772L14.7868 5.90392L15.1757 6.21094L14.6926 6.32147V6.81679L14.3078 6.50568L13.919 6.81679L13.923 6.32147L13.4359 6.21094L13.8248 5.90392L13.6078 5.45772L14.0909 5.56825L14.3078 5.12205ZM16.2973 2.41211L16.5102 2.85831L16.9932 2.74778L16.7763 3.19398L17.1652 3.501L16.6821 3.61152V4.10685L16.2973 3.79573L15.9084 4.10685L15.9125 3.61152L15.4295 3.501L15.8184 3.19398L15.6014 2.74778L16.0845 2.85831L16.2973 2.41211ZM18.0371 4.44661L18.25 4.89281L18.733 4.78228L18.516 5.22848L18.9049 5.5355L18.4219 5.64193V6.14135L18.0371 5.83024L17.6482 6.14135V5.64193L17.1652 5.5355L17.554 5.22848L17.3371 4.78228L17.8201 4.89281L18.0371 4.44661ZM16.7926 6.81679L16.9605 7.33667H17.5049L17.0628 7.65597L17.2347 8.17585L16.7926 7.85246L16.3505 8.17585L16.5184 7.65597L16.0804 7.33667H16.6248L16.7926 6.81679Z" fill="white"/>
<path d="M10.9302 0V1.25263L9.08402 2.28012H10.9302V4.7076H8.51092L10.9302 6.05029V6.98772H9.83723L6.82846 5.31345V6.98772H4.55244V4.99825L0.97466 6.98772H0.450684V5.73509L2.30098 4.7076H0.450684V2.28012H2.86998L0.450684 0.933333V0H1.54367L4.55244 1.67018V0H6.82846V1.98947L10.4103 0H10.9302Z" fill="white"/>
<path d="M6.34542 0H5.03548V2.83684H0.450684V4.14678H5.03548V6.98772H6.34542V4.14678H10.9302V2.83684H6.34542V0Z" fill="#D80027"/>
<path d="M6.82861 4.70703L10.9304 6.98715V6.34036L7.99119 4.70703H6.82861Z" fill="#0052B4"/>
<path d="M6.82861 4.70703L10.9304 6.98715V6.34036L7.99119 4.70703H6.82861Z" fill="white"/>
<path d="M6.82895 4.70703L10.9307 6.98715V6.34036L7.99152 4.70703H6.82895ZM3.39445 4.70703L0.451172 6.34036V6.98715L4.55293 4.70703H3.39445Z" fill="#D80027"/>
<path d="M4.55244 2.28012L0.450684 0V0.64269L3.39396 2.28012H4.55244Z" fill="#0052B4"/>
<path d="M4.55244 2.28012L0.450684 0V0.64269L3.39396 2.28012H4.55244Z" fill="white"/>
<path d="M4.55244 2.28012L0.450684 0V0.64269L3.39396 2.28012H4.55244ZM7.99103 2.28012L10.9302 0.64269V0L6.82846 2.28012H7.99103Z" fill="#D80027"/>
</g>
<defs>
<clipPath id="clip0_42204_155757">
<rect width="21" height="14" fill="white" transform="translate(0.5)"/>
</clipPath>
</defs>
</svg>
