<svg viewBox="0 0 21 14" fill="none" xmlns="http://www.w3.org/2000/svg">
<g clip-path="url(#clip0_42204_155814)">
<path d="M0 0H21V14H0V0Z" fill="#1E509C"/>
<path d="M21 7.20883V3.32812L0 14.0001L21 7.20883Z" fill="white"/>
<path d="M21 0V3.32807L0 14L21 0Z" fill="#F18D36"/>
<path d="M5.18655 4.06618L4.86725 1.85156L4.55205 4.06618L3.70059 3.09601L4.1386 4.38957L2.84912 3.95156L3.81521 4.80302L1.60059 5.11823L3.81521 5.43343L2.84912 6.2849L4.1386 5.84688L3.70059 7.14045L4.55205 6.17028L4.86725 8.3849L5.18655 6.17028L6.03392 7.14045L5.6 5.84688L6.88948 6.2849L5.92339 5.43343L8.13392 5.11823L5.92339 4.80302L6.88948 3.95156L5.6 4.38957L6.03392 3.09601L5.18655 4.06618Z" fill="white"/>
</g>
<defs>
<clipPath id="clip0_42204_155814">
<rect width="21" height="14" fill="white"/>
</clipPath>
</defs>
</svg>
