<svg viewBox="0 0 21 14" fill="none" xmlns="http://www.w3.org/2000/svg">
<g clip-path="url(#clip0_42204_155790)">
<path d="M0 0H21V14.0002H0V0Z" fill="white"/>
<path d="M11.8125 0H9.18751V5.68748H0V8.31248H9.18751V14H11.8125V8.31248H21V5.68748H11.8125V0Z" fill="#D80027"/>
<path d="M16.151 9.43359L20.9996 12.1273V9.43359H16.151ZM12.7822 9.43359L20.9996 13.9988V12.7079L15.106 9.43359H12.7822ZM18.8108 13.9988L12.7822 10.6493V13.9988H18.8108Z" fill="#0052B4"/>
<path d="M12.7827 9.43555L21.0001 14.0008V12.7098L15.1065 9.43555H12.7827Z" fill="white"/>
<path d="M12.7827 9.43555L21.0001 14.0008V12.7098L15.1065 9.43555H12.7827Z" fill="#D80027"/>
<path d="M3.7054 9.43359L0 11.4922V9.43359H3.7054ZM8.21741 10.0141V13.9988H1.04553L8.21741 10.0141Z" fill="#0052B4"/>
<path d="M5.89366 9.43555L0 12.7098V14.0008L8.21741 9.43555H5.89366Z" fill="#D80027"/>
<path d="M4.84867 4.56521L0 1.87146V4.56521H4.84867ZM8.21741 4.56521L0 0V1.29093L5.89366 4.56521H8.21741ZM2.18884 0L8.21741 3.3495V0H2.18884Z" fill="#0052B4"/>
<path d="M8.21741 4.56521L0 0V1.29093L5.89366 4.56521H8.21741Z" fill="white"/>
<path d="M8.21741 4.56521L0 0V1.29093L5.89366 4.56521H8.21741Z" fill="#D80027"/>
<path d="M17.2942 4.56525L20.9996 2.50667V4.56525H17.2942ZM12.7822 3.98471V0H19.9541L12.7822 3.98471Z" fill="#0052B4"/>
<path d="M15.1065 4.56521L21.0001 1.29093V0L12.7827 4.56521H15.1065Z" fill="#D80027"/>
</g>
<defs>
<clipPath id="clip0_42204_155790">
<rect width="21" height="14" fill="white"/>
</clipPath>
</defs>
</svg>
